<?xml version="1.0" standalone="no"?>
<!DOCTYPE svg PUBLIC "-//W3C//DTD SVG 1.1//EN" "http://www.w3.org/Graphics/SVG/1.1/DTD/svg11.dtd" >
<svg xmlns="http://www.w3.org/2000/svg" xmlns:xlink="http://www.w3.org/1999/xlink" version="1.1">
<metadata>
Created by FontForge 20170731 at Tue Mar  1 01:18:52 2022
 By Aleksey,,,
(c) Copyright OH no Type Company, LLC. 2020. All rights reserved.
</metadata>
<defs>
<font id="Degular-Black" horiz-adv-x="1091" >
  <font-face 
    font-family="Degular Black"
    font-weight="800"
    font-stretch="normal"
    units-per-em="2048"
    panose-1="4 4 8 6 6 3 3 4 3 5"
    ascent="1372"
    descent="-676"
    x-height="979"
    cap-height="1229"
    bbox="-694 -457 2636 1985"
    underline-thickness="102"
    underline-position="-675"
    unicode-range="U+0020-FB02"
  />
<missing-glyph horiz-adv-x="1751" 
d="M743 162q50 0 86.5 5.5t79 17t68.5 16.5q0 28 5 55.5t11 49t20 46t22.5 39.5t28.5 36.5t28.5 31t32 29t29 24t29.5 23t25 18.5l17 -21q-23 -96 -43 -188q155 115 155 367q0 225 -113 341.5t-335 116.5q-144 0 -250 -63.5t-145 -169.5q85 -18 126.5 -81t41.5 -146
q0 -97 -55.5 -156t-133.5 -74q2 -67 4 -156.5t2 -103.5q24 -26 106.5 -41.5t157.5 -15.5zM745 -68q-295 0 -442 129q-11 299 21 435q-56 27 -88.5 81.5t-32.5 127.5q0 69 33.5 124.5t91.5 83.5q-15 139 56 251t209.5 174.5t317.5 62.5q313 0 474 -157.5t161 -446.5
q0 -113 -22.5 -212t-69 -184.5t-124.5 -150t-183 -98.5q-17 -97 -17 -134q-138 -86 -385 -86zM942 944q112 0 173 -67.5t61 -161.5q0 -110 -76.5 -185t-175.5 -75q-100 0 -166 65.5t-66 179.5q0 63 25.5 116.5t84 90.5t140.5 37z" />
    <glyph glyph-name=".notdef" horiz-adv-x="1751" 
d="M743 162q50 0 86.5 5.5t79 17t68.5 16.5q0 28 5 55.5t11 49t20 46t22.5 39.5t28.5 36.5t28.5 31t32 29t29 24t29.5 23t25 18.5l17 -21q-23 -96 -43 -188q155 115 155 367q0 225 -113 341.5t-335 116.5q-144 0 -250 -63.5t-145 -169.5q85 -18 126.5 -81t41.5 -146
q0 -97 -55.5 -156t-133.5 -74q2 -67 4 -156.5t2 -103.5q24 -26 106.5 -41.5t157.5 -15.5zM745 -68q-295 0 -442 129q-11 299 21 435q-56 27 -88.5 81.5t-32.5 127.5q0 69 33.5 124.5t91.5 83.5q-15 139 56 251t209.5 174.5t317.5 62.5q313 0 474 -157.5t161 -446.5
q0 -113 -22.5 -212t-69 -184.5t-124.5 -150t-183 -98.5q-17 -97 -17 -134q-138 -86 -385 -86zM942 944q112 0 173 -67.5t61 -161.5q0 -110 -76.5 -185t-175.5 -75q-100 0 -166 65.5t-66 179.5q0 63 25.5 116.5t84 90.5t140.5 37z" />
    <glyph glyph-name=".null" horiz-adv-x="0" 
 />
    <glyph glyph-name="nonmarkingreturn" horiz-adv-x="682" 
 />
    <glyph glyph-name="space" unicode=" " horiz-adv-x="358" 
 />
    <glyph glyph-name="exclam" unicode="!" horiz-adv-x="524" 
d="M436 467h-348v762h348v-762zM84 344h356v-344h-356v344z" />
    <glyph glyph-name="quotedbl" unicode="&#x22;" horiz-adv-x="821" 
d="M31 1229h356l-39 -570h-270zM434 1229h357l-39 -570h-271z" />
    <glyph glyph-name="numbersign" unicode="#" horiz-adv-x="1396" 
d="M1016 0h-275l19 203h-205l-20 -203h-273l19 203h-207v307h233l19 188h-252v308h278l21 223h284l-22 -223h196l21 223h287l-23 -223h207v-308h-238l-18 -188h256v-307h-287zM551 481h266l23 248h-265z" />
    <glyph glyph-name="dollar" unicode="$" horiz-adv-x="1175" 
d="M449 1446h288l-18 -213q362 -42 401 -330l-366 -69q-16 76 -55 110.5t-124 34.5q-145 0 -145 -86q0 -21 7 -35.5t30 -31t73.5 -31t131.5 -27.5q117 -20 202.5 -51.5t137.5 -68t82.5 -85.5t41.5 -96t11 -107q0 -330 -430 -366l20 -248h-288l20 250q-396 44 -430 352
l350 76q37 -164 234 -164q153 0 153 78q0 33 -19.5 54.5t-78 41.5t-166.5 37q-126 19 -213.5 54t-138 87t-72.5 115t-22 147q0 154 100 245t299 114z" />
    <glyph glyph-name="percent" unicode="%" horiz-adv-x="1589" 
d="M416 516q-173 0 -274 98.5t-101 270.5q0 171 101 268.5t274 97.5q174 0 275.5 -97.5t101.5 -268.5q0 -172 -101.5 -270.5t-275.5 -98.5zM416 737q50 0 80 37.5t30 110.5t-30 109t-80 36t-79.5 -36t-29.5 -109q0 -74 29.5 -111t79.5 -37zM1178 -20q-173 0 -274 99
t-101 271q0 170 101.5 268.5t273.5 98.5q174 0 275 -98.5t101 -268.5q0 -173 -101 -271.5t-275 -98.5zM1178 201q50 0 80 37.5t30 111.5q0 73 -30 109.5t-80 36.5t-79.5 -36.5t-29.5 -109.5q0 -74 30 -111.5t79 -37.5zM1042 1229h500v-12l-672 -549l-41 26zM559 2h-500v12
l672 549l43 -26z" />
    <glyph glyph-name="ampersand" unicode="&#x26;" horiz-adv-x="1452" 
d="M565 907q0 -66 35 -141q84 30 125 70.5t41 99.5q0 38 -25.5 61t-70.5 23q-54 0 -79.5 -31t-25.5 -82zM1401 336l14 -338q-57 -12 -164 -12q-215 0 -436 131q-55 -66 -157.5 -101.5t-231.5 -35.5q-117 0 -208 36t-146.5 114t-55.5 189q0 131 75.5 214t213.5 139
q-61 131 -61 231q0 94 35.5 164.5t96.5 110.5t133 59.5t153 19.5q203 0 302 -76.5t99 -207.5q0 -64 -24.5 -115.5t-60.5 -84t-92 -57.5t-104.5 -38.5t-111.5 -24.5q97 -133 260 -225q123 167 174 389l307 -45q-28 -136 -96.5 -239t-179.5 -187q75 -16 143 -16q52 0 123 6z
M537 231q58 0 102 13q-161 136 -277 321q-40 -59 -40 -151q0 -81 50.5 -132t164.5 -51z" />
    <glyph glyph-name="quotesingle" unicode="'" horiz-adv-x="417" 
d="M31 1229h356l-39 -570h-270z" />
    <glyph glyph-name="parenleft" unicode="(" horiz-adv-x="729" 
d="M426 520q0 -240 57 -433t205 -388l-231 -156q-387 369 -387 977t387 977l233 -156q-152 -187 -208 -382.5t-56 -438.5z" />
    <glyph glyph-name="parenright" unicode=")" horiz-adv-x="729" 
d="M305 520q0 239 -57.5 432.5t-206.5 388.5l231 156q390 -372 390 -977t-390 -977l-231 156q104 129 164.5 270t80 267t19.5 284z" />
    <glyph glyph-name="asterisk" unicode="*" horiz-adv-x="1095" 
d="M362 1372h369l-121 -373h-127zM35 864l115 350l317 -229l-39 -123zM418 395l-297 217l317 232l103 -76zM981 612l-299 -215l-119 373l101 74zM948 1217l115 -351l-393 -2l-39 123z" />
    <glyph glyph-name="plus" unicode="+" horiz-adv-x="1036" 
d="M344 143v322h-303v313h303v320h348v-320h303v-313h-303v-322h-348z" />
    <glyph glyph-name="comma" unicode="," horiz-adv-x="434" 
d="M61 344h351l-222 -604h-253v12z" />
    <glyph glyph-name="hyphen" unicode="-" horiz-adv-x="716" 
d="M31 662h655v-318h-655v318z" />
    <glyph glyph-name="period" unicode="." horiz-adv-x="417" 
d="M31 344h356v-344h-356v344z" />
    <glyph glyph-name="slash" unicode="/" horiz-adv-x="688" 
d="M367 -309h-369l346 1624h358z" />
    <glyph glyph-name="zero" unicode="0" horiz-adv-x="1228" 
d="M614 942q-106 0 -155 -79t-49 -245q0 -335 200 -335q209 0 209 335q0 165 -50 244.5t-155 79.5zM614 1260q265 0 418.5 -162t153.5 -480q0 -320 -151 -484.5t-421 -164.5t-420.5 164t-150.5 485q0 160 41.5 283.5t118 201.5t180 117.5t231.5 39.5z" />
    <glyph glyph-name="one" unicode="1" horiz-adv-x="950" 
d="M903 0h-833v307h274v582q-87 -47 -217 -94l-113 288l473 146h205v-922h211v-307z" />
    <glyph glyph-name="two" unicode="2" horiz-adv-x="1200" 
d="M621 961q-94 0 -142 -56.5t-57 -165.5l-344 37q10 114 44.5 199.5t98 150t165 98t239.5 33.5q514 0 514 -430q0 -336 -518 -419q-140 -24 -196.5 -48.5t-68.5 -72.5q194 22 314 22h463v-309h-1090q-6 86 -6 178q0 140 43.5 231t129.5 144.5t232 87.5q151 37 223.5 67
t92.5 57t20 75q0 56 -39 88.5t-118 32.5z" />
    <glyph glyph-name="three" unicode="3" horiz-adv-x="1177" 
d="M596 -20q-260 0 -395.5 91.5t-153.5 297.5l356 37q5 -36 14 -59t29.5 -44t59 -31t96.5 -10q164 0 164 117q0 57 -34.5 83.5t-119.5 26.5h-206v244h208q72 0 101.5 23.5t29.5 83.5q0 65 -36 94t-115 29q-52 0 -85.5 -9.5t-51.5 -31t-26 -46t-11 -63.5l-340 27
q11 98 44.5 172t94.5 128t154 81.5t219 27.5q259 0 375 -82.5t116 -251.5q0 -122 -74 -190.5t-223 -95.5v-27q190 -17 265 -79.5t75 -192.5q0 -164 -128 -257t-402 -93z" />
    <glyph glyph-name="four" unicode="4" horiz-adv-x="1200" 
d="M1163 258h-135v-258h-348v258h-647v246l538 725h457v-690h135v-281zM358 516q161 20 322 23v428l-21 6l-313 -441z" />
    <glyph glyph-name="five" unicode="5" horiz-adv-x="1177" 
d="M588 260q100 0 139 33t39 94q0 133 -172 133q-120 0 -215 -63l-281 106v666h957v-332q-308 0 -639 29v-228q122 66 299 66q105 0 184.5 -29t128 -81.5t72.5 -120t24 -148.5q0 -209 -134.5 -307t-403.5 -98q-242 0 -374.5 79.5t-166.5 245.5l342 84q41 -129 201 -129z" />
    <glyph glyph-name="six" unicode="6" horiz-adv-x="1206" 
d="M616 532q-186 0 -186 -129q0 -135 188 -135q101 0 139 36.5t38 98.5q0 60 -38 94.5t-141 34.5zM1149 397q0 -205 -136 -314.5t-403 -109.5q-103 0 -186 19.5t-154 66t-118.5 119.5t-74 184t-26.5 256q0 133 33.5 246t100.5 201.5t178 139t255 50.5q134 0 226.5 -24
t149.5 -76.5t86 -124t40 -176.5l-350 -37q-14 73 -45.5 107t-110.5 34q-123 0 -169 -97.5t-46 -334.5l27 -4q42 118 127 165.5t215 47.5q85 0 152.5 -18.5t119.5 -57t80.5 -105t28.5 -157.5z" />
    <glyph glyph-name="seven" unicode="7" horiz-adv-x="1077" 
d="M25 903v326h1026v-326q-173 -184 -259.5 -405.5t-95.5 -497.5h-409q17 567 471 924q-175 -21 -332 -21h-401z" />
    <glyph glyph-name="eight" unicode="8" horiz-adv-x="1193" 
d="M598 -27q-282 0 -413.5 95t-131.5 262q0 117 76 183.5t236 94.5v27q-135 31 -202 96t-67 184q0 170 119.5 255t382.5 85q261 0 380.5 -85t119.5 -255q0 -119 -67 -184t-202 -96v-27q160 -28 236 -94.5t76 -183.5q0 -167 -131 -262t-412 -95zM598 496q-102 0 -142 -28
t-40 -89q0 -117 182 -117q180 0 180 117q0 61 -39.5 89t-140.5 28zM598 963q-84 0 -121 -27t-37 -90t37.5 -91t120.5 -28q82 0 119 28t37 91t-37 90t-119 27z" />
    <glyph glyph-name="nine" unicode="9" horiz-adv-x="1187" 
d="M586 666q180 0 180 151q0 66 -44.5 105t-137.5 39q-97 0 -139 -41.5t-42 -106.5q0 -62 46 -104.5t137 -42.5zM575 -27q-129 0 -223.5 24t-155.5 71.5t-95.5 110t-49.5 147.5l346 61q17 -61 61 -88t126 -27q122 0 167.5 91t47.5 315l-27 4q-43 -116 -125 -167.5
t-203 -51.5q-89 0 -159.5 19.5t-124 60.5t-82.5 111t-29 165q0 211 134.5 323.5t394.5 112.5q106 0 190.5 -19.5t157 -65.5t120 -119t74.5 -184t27 -257q0 -105 -20.5 -198.5t-65.5 -174.5t-111 -139t-162 -91.5t-213 -33.5z" />
    <glyph glyph-name="colon" unicode=":" horiz-adv-x="464" 
d="M55 985h357v-344h-357v344zM55 344h357v-344h-357v344z" />
    <glyph glyph-name="semicolon" unicode=";" horiz-adv-x="499" 
d="M102 344h351l-222 -604h-254v12zM72 985h356v-344h-356v344z" />
    <glyph glyph-name="less" unicode="&#x3c;" horiz-adv-x="1044" 
d="M963 8l-912 334v365l912 340v-385l-469 -82q-36 -5 -119.5 -19t-120.5 -20v-31q37 -5 78.5 -12t89.5 -15l72 -12l469 -80v-383z" />
    <glyph glyph-name="equal" unicode="=" horiz-adv-x="1077" 
d="M975 279h-873v272h873v-272zM975 688h-873v273h873v-273z" />
    <glyph glyph-name="greater" unicode="&#x3e;" horiz-adv-x="1044" 
d="M51 8v385l469 82q32 5 114 19.5t128 21.5v31q-116 17 -242 37l-469 80v383l912 -334v-365z" />
    <glyph glyph-name="question" unicode="?" horiz-adv-x="1019" 
d="M743 559q-73 -25 -73 -88v-25h-330q-2 16 -2 50q0 92 39 143t141 98q68 32 95.5 60.5t27.5 72.5q0 91 -113 91q-84 0 -121 -50t-49 -147l-338 47q26 217 147 330.5t365 113.5q474 0 474 -352q0 -79 -18.5 -136.5t-57 -96.5t-81 -63t-106.5 -48zM324 344h356v-344h-356
v344z" />
    <glyph glyph-name="at" unicode="@" horiz-adv-x="1734" 
d="M838 -229q-191 0 -335.5 38t-249 119.5t-158.5 214.5t-54 316q0 145 36.5 278t112 248t183 200.5t259.5 134t331 48.5q154 0 279.5 -33.5t210.5 -92t143 -140t84 -175t26 -200.5q0 -154 -35 -271.5t-96 -187.5t-138.5 -104.5t-168.5 -34.5q-289 0 -289 238q0 27 2 41h-23
q-52 -140 -117.5 -209.5t-158.5 -69.5q-106 0 -168.5 70.5t-62.5 214.5q0 112 23.5 213.5t67 180.5t111.5 126t150 47q95 0 139 -62t53 -192h17l30 225h281l-66 -499q-14 -86 56 -86q51 0 86 82.5t35 252.5q0 406 -512 406q-114 0 -210.5 -34.5t-164.5 -95t-115.5 -142.5
t-70.5 -176.5t-23 -198.5q0 -237 127.5 -341t376.5 -104q101 0 219.5 22t193.5 56h13v-231q-196 -92 -430 -92zM989 582q13 75 -13 118t-79 43q-73 0 -112.5 -81.5t-39.5 -192.5q0 -52 18 -77t58 -25q58 0 105 61.5t59 130.5z" />
    <glyph glyph-name="A" unicode="A" horiz-adv-x="1249" 
d="M883 0l-60 223h-411l-62 -223h-379l398 1229h512l397 -1229h-395zM528 639l-43 -152h267l-41 152q-50 184 -70 274h-41q-39 -152 -72 -274z" />
    <glyph glyph-name="B" unicode="B" horiz-adv-x="1204" 
d="M686 481h-233v-215h239q59 0 88 28t29 79q0 58 -26 83t-97 25zM647 954h-194v-229h188q75 0 107 26.5t32 90.5q0 60 -30 86t-103 26zM84 0v1229h563q252 0 367.5 -76t115.5 -238q0 -120 -67 -190t-201 -100v-19q175 -15 243.5 -75t68.5 -193q0 -338 -469 -338h-621z" />
    <glyph glyph-name="C" unicode="C" horiz-adv-x="1275" 
d="M655 -31q-288 0 -450 170.5t-162 478.5q0 306 168 474t455 168q248 0 392 -124.5t169 -363.5l-353 -65q-19 121 -69.5 177t-151.5 56q-85 0 -141.5 -45.5t-79 -115t-22.5 -161.5q0 -335 241 -335q105 0 154.5 55.5t75.5 181.5l348 -57q-26 -239 -175 -366.5t-399 -127.5z
" />
    <glyph glyph-name="D" unicode="D" horiz-adv-x="1308" 
d="M596 928h-143v-627h151q160 0 228.5 78t68.5 254q0 168 -67.5 231.5t-237.5 63.5zM84 0v1229h557q324 0 475.5 -151t151.5 -445t-168.5 -463.5t-468.5 -169.5h-547z" />
    <glyph glyph-name="E" unicode="E" horiz-adv-x="1134" 
d="M84 0v1229h979v-318h-610v-163h569v-261h-569v-170h610v-317h-979z" />
    <glyph glyph-name="F" unicode="F" horiz-adv-x="1067" 
d="M981 336h-528v-336h-369v1229h938v-338h-569v-240h528v-315z" />
    <glyph glyph-name="G" unicode="G" horiz-adv-x="1312" 
d="M498 -23q-96 0 -178 39.5t-144.5 115t-98.5 195.5t-36 271q0 320 155.5 491t458.5 171q253 0 384 -99t167 -303l-346 -72q-22 80 -65.5 117t-141.5 37q-130 0 -185.5 -84.5t-55.5 -257.5q0 -161 57 -242.5t190 -81.5q65 0 111.5 14.5t70.5 39.5t34 52.5t10 61.5h-238v252
h582v-694h-334v262h-29q-96 -285 -368 -285z" />
    <glyph glyph-name="H" unicode="H" horiz-adv-x="1314" 
d="M1231 0h-369v446h-409v-446h-369v1229h369v-453h409v453h369v-1229z" />
    <glyph glyph-name="I" unicode="I" horiz-adv-x="536" 
d="M453 0h-369v1229h369v-1229z" />
    <glyph glyph-name="J" unicode="J" horiz-adv-x="659" 
d="M207 403v826h368v-826q0 -198 -93.5 -308.5t-295.5 -110.5q-90 0 -172 14l17 313q58 -10 88 -10q43 0 65.5 28t22.5 74z" />
    <glyph glyph-name="K" unicode="K" horiz-adv-x="1210" 
d="M799 0l-279 430h-67v-430h-369v1229h369v-506h63l291 506h418v-23l-437 -600l439 -583v-23h-428z" />
    <glyph glyph-name="L" unicode="L" horiz-adv-x="987" 
d="M453 1229v-901h495v-328h-864v1229h369z" />
    <glyph glyph-name="M" unicode="M" horiz-adv-x="1712" 
d="M422 451v-451h-338v1229h590l110 -410q35 -133 84 -370h27q38 196 84 385l104 395h545v-1229h-368v451q0 126 14 481h-27q-70 -315 -141 -549l-98 -324h-332l-94 334q-83 300 -138 539h-26q4 -152 4 -481z" />
    <glyph glyph-name="N" unicode="N" horiz-adv-x="1347" 
d="M778 0l-176 399q-84 194 -182 498l-23 -2q25 -396 25 -584v-311h-338v1229h516l148 -328q98 -219 178 -510l24 4q-24 305 -24 510v324h338v-1229h-486z" />
    <glyph glyph-name="O" unicode="O" horiz-adv-x="1343" 
d="M672 -31q-299 0 -464 171.5t-165 477.5q0 302 169.5 472t459.5 170q293 0 460.5 -169.5t167.5 -472.5q0 -306 -164.5 -477.5t-463.5 -171.5zM670 283q140 0 202 85t62 253q0 319 -262 319t-262 -319q0 -166 61.5 -252t198.5 -86z" />
    <glyph glyph-name="P" unicode="P" horiz-adv-x="1155" 
d="M590 920h-137v-316h141q95 0 135.5 38.5t40.5 119.5t-41.5 119.5t-138.5 38.5zM635 305h-182v-305h-369v1229h537q514 0 514 -465q0 -94 -33.5 -176.5t-95.5 -146t-158 -100t-213 -36.5z" />
    <glyph glyph-name="Q" unicode="Q" horiz-adv-x="1345" 
d="M670 283q140 0 202 85t62 253q0 319 -262 319t-262 -319q0 -166 61.5 -252t198.5 -86zM672 -31q-299 0 -464 171.5t-165 477.5q0 302 169.5 472t459.5 170q293 0 460.5 -169.5t167.5 -472.5q0 -344 -204 -514l184 -266v-22h-393l-96 161q-49 -8 -119 -8z" />
    <glyph glyph-name="R" unicode="R" horiz-adv-x="1230" 
d="M623 922h-170v-275h176q88 0 123.5 32t35.5 105q0 74 -39 106t-126 32zM797 0l-209 379h-135v-379h-369v1229h565q504 0 504 -432q0 -260 -209 -361l281 -413v-23h-428z" />
    <glyph glyph-name="S" unicode="S" horiz-adv-x="1196" 
d="M606 -31q-123 0 -219 21t-157.5 55.5t-103 85t-61 102.5t-26.5 115l350 76q37 -164 234 -164q153 0 153 78q0 33 -19.5 54.5t-78 41.5t-166.5 37q-126 19 -213.5 54t-138 87t-72.5 115t-22 147q0 188 132.5 287t397.5 99q473 0 524 -357l-366 -69q-16 76 -55 110.5
t-124 34.5q-145 0 -145 -86q0 -21 7 -35.5t30 -31t73.5 -31t131.5 -27.5q117 -20 202.5 -51.5t137.5 -68t82.5 -85.5t41.5 -96t11 -107q0 -391 -541 -391z" />
    <glyph glyph-name="T" unicode="T" horiz-adv-x="1064" 
d="M25 891v338h1015v-338h-323v-891h-369v891h-323z" />
    <glyph glyph-name="U" unicode="U" horiz-adv-x="1300" 
d="M651 295q112 0 155.5 54t43.5 165v715h369v-746q0 -247 -146.5 -379.5t-421.5 -132.5q-276 0 -421.5 132.5t-145.5 379.5v746h369v-715q0 -111 43.5 -165t154.5 -54z" />
    <glyph glyph-name="V" unicode="V" horiz-adv-x="1239" 
d="M870 0h-501l-398 1229h396l170 -639q46 -168 69 -273h37q55 214 72 273l174 639h379z" />
    <glyph glyph-name="W" unicode="W" horiz-adv-x="1775" 
d="M817 522l-61 -522h-502l-283 1229h396l82 -488q41 -249 61 -428h31q29 275 55 428l80 488h463l75 -488q32 -189 54 -428h30q9 72 30.5 213t31.5 215l70 488h374l-274 -1229h-531l-65 522q-19 152 -41 412h-29q-9 -109 -47 -412z" />
    <glyph glyph-name="X" unicode="X" horiz-adv-x="1173" 
d="M768 0l-184 449h-19l-182 -449h-387v23l336 616l-332 567v23h410l192 -432h19l163 432h390v-23l-330 -618l336 -565v-23h-412z" />
    <glyph glyph-name="Y" unicode="Y" horiz-adv-x="1146" 
d="M758 0h-369v377l-428 829v23h410l188 -541h33l196 541h398v-23l-428 -829v-377z" />
    <glyph glyph-name="Z" unicode="Z" horiz-adv-x="1212" 
d="M1141 336v-336h-1075v328l591 571l-10 23q-216 -29 -321 -29h-244v336h1048v-328l-600 -577l9 -17q205 29 297 29h305z" />
    <glyph glyph-name="bracketleft" unicode="[" horiz-adv-x="677" 
d="M84 -389v1810h567v-282h-219v-1225h219v-303h-567z" />
    <glyph glyph-name="backslash" unicode="\" horiz-adv-x="688" 
d="M340 -309l-336 1624h358l345 -1624h-367z" />
    <glyph glyph-name="bracketright" unicode="]" horiz-adv-x="677" 
d="M27 -389v283h219v1224h-219v303h567v-1810h-567z" />
    <glyph glyph-name="asciicircum" unicode="^" horiz-adv-x="997" 
d="M809 496l-309 282l-312 -282l-157 147l389 481h158l389 -481z" />
    <glyph glyph-name="underscore" unicode="_" horiz-adv-x="942" 
d="M0 0h942v-279h-942v279z" />
    <glyph glyph-name="grave" unicode="`" horiz-adv-x="692" 
d="M565 1040l-524 213l121 234l489 -281z" />
    <glyph glyph-name="a" unicode="a" horiz-adv-x="1044" 
d="M469 240q68 0 108.5 40.5t40.5 104.5v37h-143q-52 0 -85.5 -25.5t-33.5 -66.5q0 -90 113 -90zM637 0v233h-31q-78 -253 -301 -253q-121 0 -198.5 71t-77.5 211q0 291 372 291h217v68q0 114 -108 114q-100 0 -117 -104l-325 71q24 138 135.5 222t320.5 84q230 0 335.5 -99
t105.5 -291v-618h-328z" />
    <glyph glyph-name="b" unicode="b" 
d="M567 274q77 0 111.5 52.5t34.5 160.5q0 107 -35 158t-111 51q-64 0 -101.5 -47t-37.5 -127v-78q0 -78 38 -124t101 -46zM428 1315v-576h18q41 131 118 201t181 70q147 0 226.5 -134.5t79.5 -386.5q0 -253 -82 -386.5t-230 -133.5q-106 0 -180 73.5t-115 209.5h-16v-252
h-348v1315h348z" />
    <glyph glyph-name="c" unicode="c" horiz-adv-x="1058" 
d="M690 563q-18 69 -49 106.5t-94 37.5q-150 0 -150 -213q0 -224 154 -224q115 0 141 152l318 -74q-21 -180 -133.5 -279.5t-323.5 -99.5q-240 0 -376 126.5t-136 375.5q0 255 134.5 397t377.5 142q112 0 194.5 -26t136 -77.5t83.5 -121.5t43 -164z" />
    <glyph glyph-name="d" unicode="d" 
d="M526 274q62 0 101 45.5t39 120.5v78q0 82 -38 130t-102 48q-76 0 -110.5 -52.5t-34.5 -162.5q0 -105 34.5 -156t110.5 -51zM666 0v252h-19q-39 -133 -115.5 -208t-183.5 -75q-144 0 -224.5 132t-80.5 380q0 257 80.5 393t230.5 136q102 0 176.5 -70.5t116.5 -200.5h19
v576h348v-1315h-348z" />
    <glyph glyph-name="e" unicode="e" horiz-adv-x="1048" 
d="M543 754q-77 0 -115 -44t-45 -149h301q6 193 -141 193zM547 -31q-111 0 -202.5 30t-160 89.5t-106 154.5t-37.5 218q0 261 132.5 405t379.5 144q225 0 336.5 -119t111.5 -328q0 -84 -6 -135h-612q9 -99 48.5 -140.5t117.5 -41.5q70 0 101.5 26t47.5 74l291 -78
q-17 -65 -46.5 -115t-79.5 -93.5t-130 -67t-186 -23.5z" />
    <glyph glyph-name="f" unicode="f" horiz-adv-x="696" 
d="M492 1006v-27h188v-270h-188v-709h-349v709h-118v270h118v37q0 152 93.5 245t277.5 93q103 0 176 -17l-12 -233q-46 6 -88 6q-44 0 -71 -24.5t-27 -79.5z" />
    <glyph glyph-name="g" unicode="g" horiz-adv-x="1038" 
d="M506 723q-152 0 -152 -100q0 -43 35 -72t117 -29q81 0 116 29t35 72q0 45 -36.5 72.5t-114.5 27.5zM514 -135q103 0 161.5 9.5t79.5 26t21 44.5q0 61 -84 61h-321q-49 0 -80 -17.5t-31 -47.5q0 -28 17.5 -43t74 -24t162.5 -9zM487 -369q-182 -1 -291.5 23.5t-149.5 65
t-40 102.5q0 63 67 108.5t171 67.5v12q-172 21 -172 140q0 46 35 86t104 65l70 31q-234 73 -234 307q0 162 121 251t340 89h510v-254h-100q-69 0 -183 6v-20q47 -8 82 -19.5t66 -29t47 -45t16 -62.5q0 -114 -118 -183t-322 -69q-95 0 -164 14l-6 -14q-12 -28 -12 -47
q0 -22 16.5 -31.5t60.5 -9.5q53 0 157.5 3t152.5 3q327 0 327 -266q0 -110 -51.5 -180t-174.5 -107.5t-325 -36.5z" />
    <glyph glyph-name="h" unicode="h" horiz-adv-x="1087" 
d="M428 537v-537h-348v1315h348v-600h16q91 295 316 295q124 0 189 -87.5t65 -248.5v-674h-348v573q0 59 -27.5 91t-79.5 32q-61 0 -96 -43.5t-35 -115.5z" />
    <glyph glyph-name="i" unicode="i" horiz-adv-x="507" 
d="M428 1083h-348v232h348v-232zM428 0h-348v979h348v-979z" />
    <glyph glyph-name="j" unicode="j" horiz-adv-x="524" 
d="M444 92q0 -204 -90.5 -312t-300.5 -108q-43 0 -92 9l14 294q40 -4 60 -4q61 0 61 72v936h348v-887zM444 1083h-348v232h348v-232z" />
    <glyph glyph-name="k" unicode="k" horiz-adv-x="1060" 
d="M428 1315v-694h55l189 358h395v-23l-307 -452l317 -481v-23h-395l-207 373h-47v-373h-348v1315h348z" />
    <glyph glyph-name="l" unicode="l" horiz-adv-x="507" 
d="M428 1315v-1315h-348v1315h348z" />
    <glyph glyph-name="m" unicode="m" horiz-adv-x="1677" 
d="M428 537v-537h-348v979h338v-264h22q42 146 123 220.5t189 74.5q236 0 249 -295h25q42 147 121 221t186 74q130 0 198 -87.5t68 -248.5v-674h-348v573q0 59 -27 91t-79 32q-61 0 -96 -43.5t-35 -115.5v-537h-348v573q0 59 -27.5 91t-79.5 32q-61 0 -96 -43.5t-35 -115.5z
" />
    <glyph glyph-name="n" unicode="n" horiz-adv-x="1087" 
d="M428 537v-537h-348v979h338v-264h22q43 148 124.5 221.5t191.5 73.5q124 0 191 -88t67 -248v-674h-348v573q0 59 -27.5 91t-79.5 32q-61 0 -96 -43.5t-35 -115.5z" />
    <glyph glyph-name="o" unicode="o" horiz-adv-x="1110" 
d="M557 -31q-242 0 -379 138t-137 382q0 245 137 383t379 138q238 0 375 -138t137 -383q0 -243 -137.5 -381.5t-374.5 -138.5zM555 721q-89 0 -127.5 -57.5t-38.5 -174.5q0 -116 38 -171.5t128 -55.5q91 0 129.5 55.5t38.5 171.5q0 117 -38.5 174.5t-129.5 57.5z" />
    <glyph glyph-name="p" unicode="p" 
d="M567 274q77 0 111.5 52.5t34.5 160.5q0 107 -35 158t-111 51q-64 0 -101.5 -47t-37.5 -127v-78q0 -77 38 -123.5t101 -46.5zM1051 489q0 -253 -82 -386.5t-230 -133.5q-106 0 -180 73.5t-115 209.5h-16v-561h-348v1288h348v-240h18q41 131 118 201t181 70
q147 0 226.5 -134.5t79.5 -386.5z" />
    <glyph glyph-name="q" unicode="q" 
d="M526 274q63 0 101.5 45.5t38.5 120.5v78q0 82 -38 130t-102 48q-76 0 -110.5 -52.5t-34.5 -162.5q0 -105 34.5 -156t110.5 -51zM43 481q0 257 80.5 393t230.5 136q105 0 181 -73.5t116 -211.5l15 10v244h348v-1288h-348v561h-19q-39 -133 -115.5 -208t-183.5 -75
q-144 0 -224.5 132t-80.5 380z" />
    <glyph glyph-name="r" unicode="r" horiz-adv-x="745" 
d="M428 0h-348v979h328v-344h28q21 93 43.5 157.5t44 103t49.5 59.5t54 27.5t63 6.5h25v-401h-66q-94 0 -140.5 -16.5t-63.5 -53.5t-17 -112v-406z" />
    <glyph glyph-name="s" unicode="s" horiz-adv-x="976" 
d="M498 -31q-127 0 -217 23t-140.5 66t-75 94t-32.5 118l309 64q31 -127 164 -127q97 0 100 61q0 33 -35.5 55t-150.5 48q-206 49 -286.5 121.5t-80.5 205.5q0 153 108.5 232.5t327.5 79.5q111 0 190 -19.5t127 -58.5t74 -87.5t38 -115.5l-308 -63q-11 60 -39.5 86t-89.5 26
q-100 0 -100 -59q0 -22 9 -36t49 -32.5t118 -36.5q118 -26 195.5 -59.5t117.5 -76.5t55 -87.5t15 -105.5q0 -316 -442 -316z" />
    <glyph glyph-name="t" unicode="t" horiz-adv-x="751" 
d="M125 317v392h-100v270h100v240h348v-240h223v-270h-223v-328q0 -44 19.5 -64t68.5 -20q41 0 115 22l37 -311q-70 -22 -117 -30.5t-129 -8.5q-89 0 -156 27.5t-107 76.5t-59.5 110t-19.5 134z" />
    <glyph glyph-name="u" unicode="u" 
d="M674 0v266h-23q-42 -148 -123 -222.5t-190 -74.5q-125 0 -192.5 87.5t-67.5 248.5v674h348v-571q0 -59 27.5 -92t78.5 -33q62 0 97 44.5t35 116.5v535h348v-979h-338z" />
    <glyph glyph-name="v" unicode="v" horiz-adv-x="1015" 
d="M745 0h-473l-297 979h379l84 -389q7 -31 28.5 -128.5t31.5 -148.5h28q10 49 31.5 143t30.5 134l86 389h366z" />
    <glyph glyph-name="w" unicode="w" horiz-adv-x="1544" 
d="M983 979l66 -389q22 -123 43 -320h30q7 53 24 158.5t25 161.5l58 389h340l-248 -979h-455l-57 416q-20 155 -31 295h-28q-18 -180 -33 -295l-49 -416h-443l-250 979h361l72 -389q42 -239 53 -320h28q21 197 43 320l66 389h385z" />
    <glyph glyph-name="x" unicode="x" horiz-adv-x="1044" 
d="M633 0l-113 354h-31l-98 -354h-391v23l246 495l-242 438v23h404l114 -348h31l98 348h371v-23l-229 -493l243 -440v-23h-403z" />
    <glyph glyph-name="y" unicode="y" horiz-adv-x="1017" 
d="M184 -328q-63 0 -166 15l45 280q72 -14 127 -14q64 0 97.5 12.5t54.5 48.5l-334 965h379l80 -367q33 -144 55 -272h23q31 157 51 266l70 373h374l-366 -973q-67 -178 -179 -256t-311 -78z" />
    <glyph glyph-name="z" unicode="z" horiz-adv-x="1042" 
d="M715 287h252v-287h-901v297l499 410l-6 14q-189 -29 -289 -29h-188v287h881v-295l-502 -414l6 -10q174 27 248 27z" />
    <glyph glyph-name="braceleft" unicode="{" horiz-adv-x="778" 
d="M737 -371q-80 -6 -207 -6q-393 0 -393 246q0 51 17 98.5t41.5 84.5t49 72.5t41.5 77.5t17 85q0 48 -25.5 70t-93.5 22h-147v295h145q144 0 144 114q0 45 -19.5 89t-47.5 81t-55.5 75t-47 87t-19.5 101q0 121 95 183t298 62q128 0 207 -6v-286q-37 2 -98 2
q-121 0 -121 -70q0 -34 28 -84t56.5 -114t28.5 -132q0 -99 -70.5 -155.5t-218.5 -73.5v-29q160 -13 224.5 -60.5t64.5 -140.5q0 -70 -28.5 -134.5t-56.5 -114.5t-28 -84q0 -70 121 -70q24 0 98 4v-289z" />
    <glyph glyph-name="bar" unicode="|" horiz-adv-x="516" 
d="M432 -360h-348v1779h348v-1779z" />
    <glyph glyph-name="braceright" unicode="}" horiz-adv-x="778" 
d="M248 -379q-127 0 -207 6v287q37 -2 98 -2q121 0 121 70q0 28 -17.5 66t-39 71.5t-39 86t-17.5 105.5q0 100 71 156.5t220 75.5v28q-160 12 -225.5 59t-65.5 140q0 70 28.5 135t56.5 115t28 84q0 70 -121 70q-6 0 -98 -5v289q79 6 207 6q203 0 298 -62t95 -183
q0 -51 -17 -98.5t-41 -84t-48 -72t-41 -77.5t-17 -86q0 -47 25 -69.5t92 -22.5h147v-293h-145q-74 0 -107.5 -29t-33.5 -88q0 -44 19 -87.5t46.5 -80.5t55 -75.5t46.5 -87.5t19 -101q0 -246 -393 -246z" />
    <glyph glyph-name="asciitilde" unicode="~" horiz-adv-x="1011" 
d="M698 532q-66 0 -120 24.5t-87 59.5t-59.5 70t-51.5 59.5t-48 24.5q-50 0 -68 -52.5t-12 -164.5h-184q-9 79 -9 147q0 194 57.5 288.5t184.5 94.5q66 0 119.5 -24.5t87 -59.5t60.5 -69.5t52 -59t48 -24.5q50 0 68 52.5t12 164.5h184q8 -71 8 -148q0 -194 -57.5 -288.5
t-184.5 -94.5z" />
    <glyph glyph-name="uni00A0" unicode="&#xa0;" horiz-adv-x="339" 
 />
    <glyph glyph-name="exclamdown" unicode="&#xa1;" horiz-adv-x="524" 
d="M88 514h348v-764h-348v764zM440 637h-356v342h356v-342z" />
    <glyph glyph-name="cent" unicode="&#xa2;" horiz-adv-x="1058" 
d="M401 1241h289l-20 -260q158 -24 237.5 -114t102.5 -246l-320 -58q-18 69 -47.5 106.5t-91.5 37.5q-154 0 -154 -213q0 -102 38 -163t116 -61q62 0 96.5 42.5t44.5 109.5l318 -74q-31 -302 -340 -350l20 -252h-289l23 254q-183 30 -283 148t-100 323q0 210 99.5 341
t283.5 165z" />
    <glyph glyph-name="sterling" unicode="&#xa3;" horiz-adv-x="1165" 
d="M1102 0h-1071v299h184q8 39 8 82q0 19 -4 51h-188v252h116q-32 108 -32 203q0 169 125.5 265.5t367.5 96.5q107 0 189 -21.5t134 -56t87.5 -85.5t52 -103t23.5 -115l-314 -73q-22 85 -57.5 120t-114.5 35q-151 0 -151 -135q0 -50 18 -131h469v-252h-455q-12 -68 -79 -133
h692v-299z" />
    <glyph glyph-name="yen" unicode="&#xa5;" horiz-adv-x="1255" 
d="M1182 248h-369v-248h-369v248h-368v215h323l-57 112h-266v228h149l-209 403v23h410l188 -541h33l197 541h397v-23l-209 -403h150v-228h-267l-57 -112h324v-215z" />
    <glyph glyph-name="brokenbar" unicode="&#xa6;" horiz-adv-x="516" 
d="M432 -360h-348v788h348v-788zM432 631h-348v788h348v-788z" />
    <glyph glyph-name="section" unicode="&#xa7;" horiz-adv-x="1294" 
d="M651 -375q-123 0 -218.5 19t-157.5 50t-104.5 79t-64.5 99.5t-34 117.5l348 84q23 -85 83 -134t183 -49q83 0 127.5 17.5t44.5 60.5q0 32 -19 50.5t-81.5 38t-192.5 42.5q-208 38 -327.5 88t-168.5 114t-49 157q0 154 175 258q-56 70 -56 186q0 175 124 266t370 91
q118 0 205 -16.5t144 -46t94.5 -78t56.5 -103.5t30 -133l-354 -58q-15 97 -57 136.5t-131 39.5q-142 0 -142 -88q0 -18 3.5 -29.5t21 -28t50 -29.5t94 -28.5t149.5 -29.5q145 -23 240 -55t146.5 -76.5t71 -94t19.5 -118.5q0 -161 -129 -252q59 -69 59 -199
q0 -175 -135 -261.5t-418 -86.5zM700 360q198 -36 312 -90q6 27 6 58q0 56 -29 88t-122 63.5t-292 71.5q-170 34 -268 80q-12 -37 -12 -72q0 -26 7 -44t30.5 -39t67 -38.5t118.5 -37.5t182 -40z" />
    <glyph glyph-name="dieresis" unicode="&#xa8;" horiz-adv-x="743" 
d="M59 1407h281v-272h-281v272zM401 1407h281v-272h-281v272z" />
    <glyph glyph-name="copyright" unicode="&#xa9;" horiz-adv-x="1851" 
d="M926 6q156 0 271 43.5t184 125.5t102 191.5t33 249.5q0 141 -33.5 250.5t-103 190.5t-184 123.5t-269.5 42.5t-269 -42.5t-184 -123.5t-103.5 -190.5t-33.5 -250.5q0 -140 33 -249.5t102 -191.5t184 -125.5t271 -43.5zM926 1481q218 0 384.5 -62t272 -177t158.5 -272.5
t53 -353.5q0 -156 -32.5 -288.5t-101.5 -240t-170.5 -182.5t-244.5 -116t-319 -41q-218 0 -385.5 62.5t-272.5 178.5t-158 273.5t-53 353.5q0 156 33 288t102.5 239t171.5 182t244.5 115.5t317.5 40.5zM1055 680q-12 63 -38.5 96t-82.5 33q-133 0 -133 -184
q0 -90 32.5 -142.5t100.5 -52.5q58 0 85.5 35t35.5 100l286 -39q-16 -181 -109 -268.5t-298 -87.5q-209 0 -327 109t-118 325q0 221 117.5 344t329.5 123q104 0 178 -24.5t119.5 -72.5t69.5 -110t34 -147z" />
    <glyph glyph-name="ordfeminine" unicode="&#xaa;" horiz-adv-x="841" 
d="M387 823q46 0 73 28.5t27 72.5v47h-79q-46 0 -75.5 -21t-29.5 -57q0 -70 84 -70zM502 668v153h-19q-69 -170 -229 -170q-98 0 -159.5 47t-61.5 152q0 90 66.5 148.5t207.5 58.5h180v45q0 86 -71 86q-67 0 -78 -78l-272 55q19 103 108 165.5t254 62.5q186 0 270 -74.5
t84 -224.5v-426h-280z" />
    <glyph glyph-name="guillemotleft" unicode="&#xab;" horiz-adv-x="1341" 
d="M760 63h-336l-399 455v21l399 454h336v-26l-371 -439l371 -436v-29zM1333 63h-336l-399 455v21l399 454h336v-26l-370 -439l370 -436v-29z" />
    <glyph glyph-name="registered" unicode="&#xae;" horiz-adv-x="1851" 
d="M932 805h-113v-170h117q56 0 81 20.5t25 63.5q0 46 -26.5 66t-83.5 20zM1040 213l-125 229h-96v-229h-289v815h435q176 0 269 -74.5t93 -224.5q0 -178 -143 -246l172 -247v-23h-316zM926 6q156 0 271 43.5t184 125.5t102 191.5t33 249.5q0 141 -33.5 250.5t-103 190.5
t-184 123.5t-269.5 42.5t-269 -42.5t-184 -123.5t-103.5 -190.5t-33.5 -250.5q0 -140 33 -249.5t102 -191.5t184 -125.5t271 -43.5zM926 -252q-218 0 -385.5 62.5t-272.5 178.5t-158 273.5t-53 353.5q0 156 33 288t102.5 239t171.5 182t244.5 115.5t317.5 40.5
q218 0 384.5 -62t272 -177t158.5 -272.5t53 -353.5q0 -156 -32.5 -288.5t-101.5 -240t-170.5 -182.5t-244.5 -116t-319 -41z" />
    <glyph glyph-name="macron" unicode="&#xaf;" horiz-adv-x="636" 
d="M41 1358h555v-228h-555v228z" />
    <glyph glyph-name="degree" unicode="&#xb0;" horiz-adv-x="745" 
d="M705 926q0 -148 -90 -236t-242 -88t-242 88t-90 236t90 235.5t242 87.5t242 -87.5t90 -235.5zM256 926q0 -55 29.5 -88t87.5 -33t87 33t29 88t-29 88t-87 33t-87.5 -33t-29.5 -88z" />
    <glyph glyph-name="twosuperior" unicode="&#xb2;" horiz-adv-x="761" 
d="M389 1204q-92 0 -102 -114l-236 28q26 273 342 273q320 0 320 -244q0 -105 -71 -153t-241 -74q-78 -12 -110.5 -27.5t-38.5 -42.5q101 16 178 16h285v-211h-684q0 17 -1 51t-1 52q0 119 57 186t207 98q106 21 140 44t34 57q0 61 -78 61z" />
    <glyph glyph-name="threesuperior" unicode="&#xb3;" horiz-adv-x="735" 
d="M360 641q-164 0 -246 56t-94 173l232 37q7 -40 30 -61t80 -21q89 0 89 60q0 28 -18.5 41.5t-63.5 13.5h-95v150h95q43 0 59 13.5t16 41.5q0 59 -84 59q-54 0 -76 -19.5t-30 -60.5l-221 43q41 222 325 222q320 0 320 -199q0 -68 -43 -107.5t-137 -52.5v-24
q110 -12 153 -48.5t43 -109.5q0 -97 -83.5 -152t-250.5 -55z" />
    <glyph glyph-name="acute" unicode="&#xb4;" horiz-adv-x="692" 
d="M127 1040l-86 166l489 281l121 -234z" />
    <glyph glyph-name="paragraph" unicode="&#xb6;" horiz-adv-x="1470" 
d="M1386 -309h-321v1538h321v-1538zM965 -309h-322v524h-74q-252 0 -392 127.5t-140 362.5q0 524 532 524h396v-1538z" />
    <glyph glyph-name="periodcentered" unicode="&#xb7;" horiz-adv-x="454" 
d="M49 672h357v-344h-357v344z" />
    <glyph glyph-name="cedilla" unicode="&#xb8;" horiz-adv-x="464" 
d="M252 -344q-129 0 -209 55l59 96q72 -45 150 -45q59 0 59 45q0 43 -63 43q-34 0 -70 -12l-80 31l66 186l123 -2l-54 -141q25 10 66 10q147 0 147 -127q0 -53 -45.5 -96t-148.5 -43z" />
    <glyph glyph-name="onesuperior" unicode="&#xb9;" horiz-adv-x="598" 
d="M582 655h-541v207h168v301q-61 -40 -131 -65l-72 184l268 90h175v-510h133v-207z" />
    <glyph glyph-name="ordmasculine" unicode="&#xba;" horiz-adv-x="817" 
d="M416 657q-175 0 -275 98t-100 271q0 172 100 269.5t275 97.5q171 0 270.5 -98t99.5 -269q0 -172 -99.5 -270.5t-270.5 -98.5zM414 1188q-64 0 -92.5 -40.5t-28.5 -121.5q0 -82 28.5 -122t92.5 -40q65 0 93 40t28 122q0 81 -28 121.5t-93 40.5z" />
    <glyph glyph-name="guillemotright" unicode="&#xbb;" horiz-adv-x="1341" 
d="M918 63h-334v29l368 436l-368 439v26h334l401 -454v-21zM344 63h-334v29l369 436l-369 439v26h334l401 -454v-21z" />
    <glyph glyph-name="onequarter" unicode="&#xbc;" horiz-adv-x="1501" 
d="M459 2h-500v12l672 549l43 -26zM942 1229h500v-12l-672 -549l-41 26zM582 655h-541v207h168v301q-61 -40 -131 -65l-72 184l268 90h175v-510h133v-207zM911 166q89 10 189 14v242l-8 4l-185 -254zM1409 4h-76v-147h-233v147h-387v154l313 415h307v-393h76v-176z" />
    <glyph glyph-name="onehalf" unicode="&#xbd;" horiz-adv-x="1464" 
d="M422 2h-500v12l672 549l43 -26zM905 1229h500v-12l-672 -549l-41 26zM582 655h-541v207h168v301q-61 -40 -131 -65l-72 184l268 90h175v-510h133v-207zM1051 406q-93 0 -103 -115l-235 28q26 273 342 273q319 0 319 -244q0 -105 -70.5 -153t-240.5 -74
q-78 -12 -111 -27.5t-39 -42.5q107 17 179 17h284v-211h-684q0 17 -1 51t-1 51q0 119 57 186.5t207 98.5q107 21 140.5 44t33.5 56q0 62 -77 62z" />
    <glyph glyph-name="threequarters" unicode="&#xbe;" horiz-adv-x="1546" 
d="M504 2h-500v12l672 549l43 -26zM987 1229h500v-12l-672 -549l-41 26zM1442 4h-76v-147h-233v147h-388v154l314 415h307v-393h76v-176zM360 641q-164 0 -246 56t-94 173l232 37q7 -40 30 -61t80 -21q89 0 89 60q0 28 -18.5 41.5t-63.5 13.5h-95v150h95q43 0 59 13.5
t16 41.5q0 59 -84 59q-54 0 -76 -19.5t-30 -60.5l-221 43q41 222 325 222q320 0 320 -199q0 -68 -43 -107.5t-137 -52.5v-24q110 -12 153 -48.5t43 -109.5q0 -97 -83.5 -152t-250.5 -55zM944 166q89 10 189 14v242l-9 4l-184 -254z" />
    <glyph glyph-name="questiondown" unicode="&#xbf;" horiz-adv-x="1019" 
d="M283 420q71 25 71 90v25h330q2 -18 2 -50q0 -93 -38.5 -143.5t-139.5 -99.5q-70 -32 -97.5 -60t-27.5 -73q0 -89 115 -89q84 0 120 49.5t48 147.5l338 -49q-24 -216 -145.5 -330t-364.5 -114q-476 0 -476 354q0 78 18.5 135.5t57 96t82 63t107.5 47.5zM700 637h-356v342
h356v-342z" />
    <glyph glyph-name="Agrave" unicode="&#xc0;" horiz-adv-x="1249" 
d="M883 0l-60 223h-411l-62 -223h-379l398 1229h512l397 -1229h-395zM791 1317l-553 129l77 246l531 -201zM528 639l-43 -152h267l-41 152q-50 184 -70 274h-41q-39 -152 -72 -274z" />
    <glyph glyph-name="Aacute" unicode="&#xc1;" horiz-adv-x="1249" 
d="M883 0l-60 223h-411l-62 -223h-379l398 1229h512l397 -1229h-395zM451 1317l-56 174l531 201l78 -246zM528 639l-43 -152h267l-41 152q-50 184 -70 274h-41q-39 -152 -72 -274z" />
    <glyph glyph-name="Acircumflex" unicode="&#xc2;" horiz-adv-x="1249" 
d="M883 0l-60 223h-411l-62 -223h-379l398 1229h512l397 -1229h-395zM862 1298l-237 148l-238 -148l-100 119l288 271h101l287 -271zM528 639l-43 -152h267l-41 152q-50 184 -70 274h-41q-39 -152 -72 -274z" />
    <glyph glyph-name="Atilde" unicode="&#xc3;" horiz-adv-x="1249" 
d="M883 0l-60 223h-411l-62 -223h-379l398 1229h512l397 -1229h-395zM479 1696q42 0 77.5 -16t59.5 -38.5t44 -45t40 -38.5t39 -16q39 0 52.5 32.5t13.5 108.5h139q6 -53 6 -96q0 -135 -48 -203.5t-136 -68.5q-46 0 -85 24t-62.5 52.5t-53 52.5t-57.5 24q-36 0 -50 -32
t-14 -109h-139q-6 50 -6 94q0 134 49 204.5t131 70.5zM528 639l-43 -152h267l-41 152q-50 184 -70 274h-41q-39 -152 -72 -274z" />
    <glyph glyph-name="Adieresis" unicode="&#xc4;" horiz-adv-x="1249" 
d="M883 0l-60 223h-411l-62 -223h-379l398 1229h512l397 -1229h-395zM305 1610h281v-273h-281v273zM647 1610h281v-273h-281v273zM528 639l-43 -152h267l-41 152q-50 184 -70 274h-41q-39 -152 -72 -274z" />
    <glyph glyph-name="Aring" unicode="&#xc5;" horiz-adv-x="1249" 
d="M883 0l-60 223h-411l-62 -223h-379l398 1229h512l397 -1229h-395zM535 1538q0 -38 24.5 -60t65.5 -22q42 0 66 22.5t24 61.5q0 38 -24.5 61t-65.5 23t-65.5 -23t-24.5 -63zM870 1540q0 -105 -66 -168t-179 -63t-179.5 62.5t-66.5 166.5q0 105 66.5 168t179.5 63
t179 -62.5t66 -166.5zM528 639l-43 -152h267l-41 152q-50 184 -70 274h-41q-39 -152 -72 -274z" />
    <glyph glyph-name="AE" unicode="&#xc6;" horiz-adv-x="1804" 
d="M598 639l-51 -139h207v430h-62q-64 -210 -94 -291zM754 0v231h-310l-86 -231h-383v12l512 1217h1246v-318h-611v-163h570v-261h-570v-170h611v-317h-979z" />
    <glyph glyph-name="Ccedilla" unicode="&#xc7;" horiz-adv-x="1275" 
d="M655 -31h-2l-20 -57q25 10 65 10q148 0 148 -127q0 -53 -46 -96t-149 -43q-129 0 -209 55l60 96q72 -45 149 -45q60 0 60 45q0 43 -64 43q-33 0 -69 -12l-80 31l39 108q-235 34 -364.5 200.5t-129.5 440.5q0 306 168 474t455 168q248 0 392 -124.5t169 -363.5l-353 -65
q-19 121 -69.5 177t-151.5 56q-85 0 -141.5 -45.5t-79 -115t-22.5 -161.5q0 -335 241 -335q105 0 154.5 55.5t75.5 181.5l348 -57q-26 -239 -175 -366.5t-399 -127.5z" />
    <glyph glyph-name="Egrave" unicode="&#xc8;" horiz-adv-x="1134" 
d="M84 0v1229h979v-318h-610v-163h569v-261h-569v-170h610v-317h-979zM739 1317l-553 129l78 246l531 -201z" />
    <glyph glyph-name="Eacute" unicode="&#xc9;" horiz-adv-x="1134" 
d="M84 0v1229h979v-318h-610v-163h569v-261h-569v-170h610v-317h-979zM399 1317l-55 174l530 201l78 -246z" />
    <glyph glyph-name="Ecircumflex" unicode="&#xca;" horiz-adv-x="1134" 
d="M84 0v1229h979v-318h-610v-163h569v-261h-569v-170h610v-317h-979zM811 1298l-238 148l-237 -148l-100 119l288 271h101l286 -271z" />
    <glyph glyph-name="Edieresis" unicode="&#xcb;" horiz-adv-x="1134" 
d="M84 0v1229h979v-318h-610v-163h569v-261h-569v-170h610v-317h-979zM254 1610h281v-273h-281v273zM596 1610h281v-273h-281v273z" />
    <glyph glyph-name="Igrave" unicode="&#xcc;" horiz-adv-x="536" 
d="M453 0h-369v1229h369v-1229zM434 1317l-553 129l78 246l530 -201z" />
    <glyph glyph-name="Iacute" unicode="&#xcd;" horiz-adv-x="536" 
d="M453 0h-369v1229h369v-1229zM94 1317l-55 174l530 201l78 -246z" />
    <glyph glyph-name="Icircumflex" unicode="&#xce;" horiz-adv-x="536" 
d="M453 0h-369v1229h369v-1229zM506 1298l-238 148l-237 -148l-101 119l289 271h100l287 -271z" />
    <glyph glyph-name="Idieresis" unicode="&#xcf;" horiz-adv-x="536" 
d="M453 0h-369v1229h369v-1229zM-45 1610h281v-273h-281v273zM297 1610h281v-273h-281v273z" />
    <glyph glyph-name="Eth" unicode="&#xd0;" horiz-adv-x="1353" 
d="M723 508h-225v-207h151q160 0 228.5 78t68.5 254q0 168 -67.5 231.5t-237.5 63.5h-143v-211h225v-209zM129 0v508h-98v209h98v512h557q324 0 475.5 -151t151.5 -445t-168.5 -463.5t-468.5 -169.5h-547z" />
    <glyph glyph-name="Ntilde" unicode="&#xd1;" horiz-adv-x="1347" 
d="M778 0l-176 399q-84 194 -182 498l-23 -2q25 -396 25 -584v-311h-338v1229h516l148 -328q98 -219 178 -510l24 4q-24 305 -24 510v324h338v-1229h-486zM528 1696q42 0 77.5 -16t59.5 -38.5t44 -45t40 -38.5t39 -16q39 0 52.5 32.5t13.5 108.5h139q6 -53 6 -96
q0 -135 -48 -203.5t-136 -68.5q-46 0 -85 24t-62.5 52.5t-53 52.5t-57.5 24q-36 0 -49.5 -32t-13.5 -109h-140q-6 50 -6 94q0 134 49 204.5t131 70.5z" />
    <glyph glyph-name="Ograve" unicode="&#xd2;" horiz-adv-x="1343" 
d="M672 -31q-299 0 -464 171.5t-165 477.5q0 302 169.5 472t459.5 170q293 0 460.5 -169.5t167.5 -472.5q0 -306 -164.5 -477.5t-463.5 -171.5zM670 283q140 0 202 85t62 253q0 319 -262 319t-262 -319q0 -166 61.5 -252t198.5 -86zM838 1317l-553 129l77 246l531 -201z" />
    <glyph glyph-name="Oacute" unicode="&#xd3;" horiz-adv-x="1343" 
d="M672 -31q-299 0 -464 171.5t-165 477.5q0 302 169.5 472t459.5 170q293 0 460.5 -169.5t167.5 -472.5q0 -306 -164.5 -477.5t-463.5 -171.5zM670 283q140 0 202 85t62 253q0 319 -262 319t-262 -319q0 -166 61.5 -252t198.5 -86zM498 1317l-56 174l531 201l78 -246z" />
    <glyph glyph-name="Ocircumflex" unicode="&#xd4;" horiz-adv-x="1343" 
d="M670 283q140 0 202 85t62 253q0 319 -262 319t-262 -319q0 -166 61.5 -252t198.5 -86zM672 -31q-299 0 -464 171.5t-165 477.5q0 302 169.5 472t459.5 170q293 0 460.5 -169.5t167.5 -472.5q0 -306 -164.5 -477.5t-463.5 -171.5zM909 1298l-237 148l-238 -148l-100 119
l289 271h100l287 -271z" />
    <glyph glyph-name="Otilde" unicode="&#xd5;" horiz-adv-x="1343" 
d="M672 -31q-299 0 -464 171.5t-165 477.5q0 302 169.5 472t459.5 170q293 0 460.5 -169.5t167.5 -472.5q0 -306 -164.5 -477.5t-463.5 -171.5zM670 283q140 0 202 85t62 253q0 319 -262 319t-262 -319q0 -166 61.5 -252t198.5 -86zM526 1696q42 0 77.5 -16t59.5 -38.5
t44 -45t40 -38.5t39 -16q39 0 52.5 32.5t13.5 108.5h139q6 -53 6 -96q0 -135 -48 -203.5t-136 -68.5q-46 0 -85 24t-62.5 52.5t-53 52.5t-57.5 24q-36 0 -49.5 -32t-13.5 -109h-140q-6 50 -6 94q0 134 49 204.5t131 70.5z" />
    <glyph glyph-name="Odieresis" unicode="&#xd6;" horiz-adv-x="1343" 
d="M672 -31q-299 0 -464 171.5t-165 477.5q0 302 169.5 472t459.5 170q293 0 460.5 -169.5t167.5 -472.5q0 -306 -164.5 -477.5t-463.5 -171.5zM670 283q140 0 202 85t62 253q0 319 -262 319t-262 -319q0 -166 61.5 -252t198.5 -86zM352 1610h281v-273h-281v273zM694 1610
h281v-273h-281v273z" />
    <glyph glyph-name="multiply" unicode="&#xd7;" horiz-adv-x="1060" 
d="M762 158q-51 55 -232 264q-195 -225 -231 -264l-246 241q38 35 79 69t99 81t93 76q-46 39 -135 111.5t-136 113.5l246 242q36 -38 71.5 -79.5t81.5 -96.5t78 -91q30 34 78 91t83 97.5t71 78.5l246 -242q-50 -44 -273 -225q37 -31 94 -76.5t98.5 -79.5t80.5 -70z" />
    <glyph glyph-name="Oslash" unicode="&#xd8;" horiz-adv-x="1345" 
d="M672 -31q-211 0 -359 88l-47 -57h-264v12l164 178q-123 163 -123 428q0 302 169.5 472t459.5 170q211 0 362 -91l49 60h260v-12l-165 -179q122 -162 122 -420q0 -306 -164.5 -477.5t-463.5 -171.5zM393 621q0 -86 19 -160l405 457q-58 34 -145 34q-74 0 -129 -26.5
t-87 -73t-47.5 -104.5t-15.5 -127zM670 272q148 0 215 89.5t67 259.5q0 81 -20 145l-408 -461q56 -33 146 -33z" />
    <glyph glyph-name="Ugrave" unicode="&#xd9;" horiz-adv-x="1300" 
d="M651 295q112 0 155.5 54t43.5 165v715h369v-746q0 -247 -146.5 -379.5t-421.5 -132.5q-276 0 -421.5 132.5t-145.5 379.5v746h369v-715q0 -111 43.5 -165t154.5 -54zM817 1317l-553 129l78 246l530 -201z" />
    <glyph glyph-name="Uacute" unicode="&#xda;" horiz-adv-x="1300" 
d="M651 295q112 0 155.5 54t43.5 165v715h369v-746q0 -247 -146.5 -379.5t-421.5 -132.5q-276 0 -421.5 132.5t-145.5 379.5v746h369v-715q0 -111 43.5 -165t154.5 -54zM477 1317l-55 174l530 201l78 -246z" />
    <glyph glyph-name="Ucircumflex" unicode="&#xdb;" horiz-adv-x="1300" 
d="M651 295q112 0 155.5 54t43.5 165v715h369v-746q0 -247 -146.5 -379.5t-421.5 -132.5q-276 0 -421.5 132.5t-145.5 379.5v746h369v-715q0 -111 43.5 -165t154.5 -54zM889 1298l-238 148l-237 -148l-101 119l289 271h100l287 -271z" />
    <glyph glyph-name="Udieresis" unicode="&#xdc;" horiz-adv-x="1300" 
d="M651 295q112 0 155.5 54t43.5 165v715h369v-746q0 -247 -146.5 -379.5t-421.5 -132.5q-276 0 -421.5 132.5t-145.5 379.5v746h369v-715q0 -111 43.5 -165t154.5 -54zM332 1610h280v-273h-280v273zM674 1610h280v-273h-280v273z" />
    <glyph glyph-name="Yacute" unicode="&#xdd;" horiz-adv-x="1146" 
d="M758 0h-369v377l-428 829v23h410l188 -541h33l196 541h398v-23l-428 -829v-377zM399 1317l-55 174l530 201l78 -246z" />
    <glyph glyph-name="Thorn" unicode="&#xde;" horiz-adv-x="1185" 
d="M84 1229h369v-135h200q514 0 514 -467q0 -215 -129.5 -341t-375.5 -126h-209v-160h-369v1229zM623 784h-170v-315h172q96 0 138 39t42 119t-42.5 118.5t-139.5 38.5z" />
    <glyph glyph-name="germandbls" unicode="&#xdf;" horiz-adv-x="1187" 
d="M684 -20q-117 0 -217 34l70 312q60 -29 125 -29q74 0 107.5 31.5t33.5 93.5q0 60 -31 88.5t-106 28.5h-125v282h51q61 0 91 33t30 88q0 121 -131 121q-85 0 -119.5 -49t-34.5 -135v-879h-348v891q0 222 130 333t376 111q229 0 348 -90t119 -233q0 -130 -69 -199t-206 -92
v-37q201 -17 282 -93.5t81 -230.5q0 -174 -112.5 -277t-344.5 -103z" />
    <glyph glyph-name="agrave" unicode="&#xe0;" horiz-adv-x="1044" 
d="M469 240q68 0 108.5 40.5t40.5 104.5v37h-143q-52 0 -85.5 -25.5t-33.5 -66.5q0 -90 113 -90zM637 0v233h-31q-78 -253 -301 -253q-121 0 -198.5 71t-77.5 211q0 291 372 291h217v68q0 114 -108 114q-100 0 -117 -104l-325 71q24 138 135.5 222t320.5 84q230 0 335.5 -99
t105.5 -291v-618h-328zM684 1040l-524 213l121 234l489 -281z" />
    <glyph glyph-name="aacute" unicode="&#xe1;" horiz-adv-x="1044" 
d="M469 240q68 0 108.5 40.5t40.5 104.5v37h-143q-52 0 -85.5 -25.5t-33.5 -66.5q0 -90 113 -90zM637 0v233h-31q-78 -253 -301 -253q-121 0 -198.5 71t-77.5 211q0 291 372 291h217v68q0 114 -108 114q-100 0 -117 -104l-325 71q24 138 135.5 222t320.5 84q230 0 335.5 -99
t105.5 -291v-618h-328zM395 1040l-86 166l490 281l121 -234z" />
    <glyph glyph-name="acircumflex" unicode="&#xe2;" horiz-adv-x="1044" 
d="M469 240q68 0 108.5 40.5t40.5 104.5v37h-143q-52 0 -85.5 -25.5t-33.5 -66.5q0 -90 113 -90zM637 0v233h-31q-78 -253 -301 -253q-121 0 -198.5 71t-77.5 211q0 291 372 291h217v68q0 114 -108 114q-100 0 -117 -104l-325 71q24 138 135.5 222t320.5 84q230 0 335.5 -99
t105.5 -291v-618h-328zM745 1044l-227 173l-227 -173l-111 119l289 305h100l287 -305z" />
    <glyph glyph-name="atilde" unicode="&#xe3;" horiz-adv-x="1044" 
d="M469 240q68 0 108.5 40.5t40.5 104.5v37h-143q-52 0 -85.5 -25.5t-33.5 -66.5q0 -90 113 -90zM637 0v233h-31q-78 -253 -301 -253q-121 0 -198.5 71t-77.5 211q0 291 372 291h217v68q0 114 -108 114q-100 0 -117 -104l-325 71q24 138 135.5 222t320.5 84q230 0 335.5 -99
t105.5 -291v-618h-328zM373 1456q42 0 77.5 -16t59.5 -38t44 -44.5t40 -38.5t39 -16q39 0 52 32.5t13 108.5h140q6 -52 6 -96q0 -135 -48.5 -204t-136.5 -69q-46 0 -85 24t-62.5 53t-53 53t-57.5 24q-36 0 -49.5 -32.5t-13.5 -109.5h-139q-6 49 -6 95q0 134 49 204t131 70z
" />
    <glyph glyph-name="adieresis" unicode="&#xe4;" horiz-adv-x="1044" 
d="M469 240q68 0 108.5 40.5t40.5 104.5v37h-143q-52 0 -85.5 -25.5t-33.5 -66.5q0 -90 113 -90zM637 0v233h-31q-78 -253 -301 -253q-121 0 -198.5 71t-77.5 211q0 291 372 291h217v68q0 114 -108 114q-100 0 -117 -104l-325 71q24 138 135.5 222t320.5 84q230 0 335.5 -99
t105.5 -291v-618h-328zM207 1407h280v-272h-280v272zM549 1407h280v-272h-280v272z" />
    <glyph glyph-name="aring" unicode="&#xe5;" horiz-adv-x="1044" 
d="M469 240q68 0 108.5 40.5t40.5 104.5v37h-143q-52 0 -85.5 -25.5t-33.5 -66.5q0 -90 113 -90zM637 0v233h-31q-78 -253 -301 -253q-121 0 -198.5 71t-77.5 211q0 291 372 291h217v68q0 114 -108 114q-100 0 -117 -104l-325 71q24 138 135.5 222t320.5 84q230 0 335.5 -99
t105.5 -291v-618h-328zM428 1315q0 -43 24.5 -68.5t65.5 -25.5t65.5 26t24.5 70q0 42 -24.5 68t-65.5 26t-65.5 -26.5t-24.5 -69.5zM764 1317q0 -111 -66 -176.5t-180 -65.5q-113 0 -179.5 65.5t-66.5 174.5t66.5 175t179.5 66t179.5 -65.5t66.5 -173.5z" />
    <glyph glyph-name="ae" unicode="&#xe6;" horiz-adv-x="1626" 
d="M469 240q68 0 108.5 40.5t40.5 104.5v37h-143q-52 0 -85.5 -25.5t-33.5 -66.5q0 -90 113 -90zM1120 754q-77 0 -114.5 -44t-44.5 -149h301q6 193 -142 193zM1567 268q-18 -67 -44.5 -115.5t-75 -93t-128.5 -67.5t-191 -23q-99 0 -182.5 24.5t-153 82.5t-104.5 147
q-45 -121 -137 -185.5t-229 -64.5q-123 0 -208 74t-85 215q0 291 372 291h217v68q0 114 -108 114q-100 0 -117 -104l-325 71q23 136 127.5 221t281.5 85q237 0 326 -150q112 152 327 152q225 0 337 -119t112 -328q0 -84 -6 -135h-612q9 -99 48 -140.5t117 -41.5q70 0 102 26
t48 74z" />
    <glyph glyph-name="ccedilla" unicode="&#xe7;" horiz-adv-x="1058" 
d="M690 563q-18 69 -49 106.5t-94 37.5q-150 0 -150 -213q0 -224 154 -224q115 0 141 152l318 -74q-21 -180 -133.5 -279.5t-323.5 -99.5h-14l-21 -57q25 10 66 10q147 0 147 -127q0 -53 -45.5 -96t-148.5 -43q-129 0 -209 55l59 96q72 -45 150 -45q59 0 59 45q0 43 -64 43
q-33 0 -69 -12l-80 31l39 111q-181 32 -281 155.5t-100 335.5q0 255 134.5 397t377.5 142q112 0 194.5 -26t136 -77.5t83.5 -121.5t43 -164z" />
    <glyph glyph-name="egrave" unicode="&#xe8;" horiz-adv-x="1048" 
d="M543 754q-77 0 -115 -44t-45 -149h301q6 193 -141 193zM547 -31q-111 0 -202.5 30t-160 89.5t-106 154.5t-37.5 218q0 261 132.5 405t379.5 144q225 0 336.5 -119t111.5 -328q0 -84 -6 -135h-612q9 -99 48.5 -140.5t117.5 -41.5q70 0 101.5 26t47.5 74l291 -78
q-17 -65 -46.5 -115t-79.5 -93.5t-130 -67t-186 -23.5zM700 1040l-524 213l121 234l489 -281z" />
    <glyph glyph-name="eacute" unicode="&#xe9;" horiz-adv-x="1048" 
d="M543 754q-77 0 -115 -44t-45 -149h301q6 193 -141 193zM547 -31q-111 0 -202.5 30t-160 89.5t-106 154.5t-37.5 218q0 261 132.5 405t379.5 144q225 0 336.5 -119t111.5 -328q0 -84 -6 -135h-612q9 -99 48.5 -140.5t117.5 -41.5q70 0 101.5 26t47.5 74l291 -78
q-17 -65 -46.5 -115t-79.5 -93.5t-130 -67t-186 -23.5zM412 1040l-86 166l489 281l121 -234z" />
    <glyph glyph-name="ecircumflex" unicode="&#xea;" horiz-adv-x="1048" 
d="M543 754q-77 0 -115 -44t-45 -149h301q6 193 -141 193zM547 -31q-111 0 -202.5 30t-160 89.5t-106 154.5t-37.5 218q0 261 132.5 405t379.5 144q225 0 336.5 -119t111.5 -328q0 -84 -6 -135h-612q9 -99 48.5 -140.5t117.5 -41.5q70 0 101.5 26t47.5 74l291 -78
q-17 -65 -46.5 -115t-79.5 -93.5t-130 -67t-186 -23.5zM762 1044l-227 173l-228 -173l-110 119l288 305h101l286 -305z" />
    <glyph glyph-name="edieresis" unicode="&#xeb;" horiz-adv-x="1048" 
d="M543 754q-77 0 -115 -44t-45 -149h301q6 193 -141 193zM547 -31q-111 0 -202.5 30t-160 89.5t-106 154.5t-37.5 218q0 261 132.5 405t379.5 144q225 0 336.5 -119t111.5 -328q0 -84 -6 -135h-612q9 -99 48.5 -140.5t117.5 -41.5q70 0 101.5 26t47.5 74l291 -78
q-17 -65 -46.5 -115t-79.5 -93.5t-130 -67t-186 -23.5zM223 1407h281v-272h-281v272zM565 1407h281v-272h-281v272z" />
    <glyph glyph-name="igrave" unicode="&#xec;" horiz-adv-x="507" 
d="M428 0h-348v979h348v-979zM420 1040l-524 213l120 234l490 -281z" />
    <glyph glyph-name="iacute" unicode="&#xed;" horiz-adv-x="507" 
d="M428 0h-348v979h348v-979zM119 1040l-86 166l489 281l121 -234z" />
    <glyph glyph-name="icircumflex" unicode="&#xee;" horiz-adv-x="507" 
d="M428 0h-348v979h348v-979zM481 1044l-227 173l-227 -173l-111 119l289 305h100l287 -305z" />
    <glyph glyph-name="idieresis" unicode="&#xef;" horiz-adv-x="507" 
d="M428 0h-348v979h348v-979zM-57 1407h280v-272h-280v272zM285 1407h280v-272h-280v272z" />
    <glyph glyph-name="eth" unicode="&#xf0;" horiz-adv-x="1112" 
d="M555 -31q-243 0 -378.5 130t-135.5 378q0 224 108 342.5t273 118.5q98 0 172 -67t119 -175l20 6q-50 197 -211 365l-227 -88l-64 162l146 55q-42 32 -109 74l101 157q154 -54 272 -129l231 91l62 -164l-131 -51q268 -259 268 -644q0 -276 -133 -418.5t-383 -142.5z
M727 477q0 115 -39.5 172.5t-132.5 57.5q-83 0 -125.5 -61.5t-42.5 -153.5q0 -226 174 -226q82 0 124 55.5t42 155.5z" />
    <glyph glyph-name="ntilde" unicode="&#xf1;" horiz-adv-x="1087" 
d="M428 537v-537h-348v979h338v-264h22q43 148 124.5 221.5t191.5 73.5q124 0 191 -88t67 -248v-674h-348v573q0 59 -27.5 91t-79.5 32q-61 0 -96 -43.5t-35 -115.5zM401 1456q42 0 77.5 -16t59.5 -38t44.5 -44.5t40.5 -38.5t39 -16q39 0 52 32.5t13 108.5h139q6 -52 6 -96
q0 -136 -48 -204.5t-136 -68.5q-46 0 -85 24t-62.5 53t-53 53t-57.5 24q-36 0 -49.5 -32.5t-13.5 -109.5h-140q-6 49 -6 95q0 134 49 204t131 70z" />
    <glyph glyph-name="ograve" unicode="&#xf2;" horiz-adv-x="1110" 
d="M557 -31q-242 0 -379 138t-137 382q0 245 137 383t379 138q238 0 375 -138t137 -383q0 -243 -137.5 -381.5t-374.5 -138.5zM555 721q-89 0 -127.5 -57.5t-38.5 -174.5q0 -116 38 -171.5t128 -55.5q91 0 129.5 55.5t38.5 171.5q0 117 -38.5 174.5t-129.5 57.5zM721 1040
l-524 213l120 234l490 -281z" />
    <glyph glyph-name="oacute" unicode="&#xf3;" horiz-adv-x="1110" 
d="M557 -31q-242 0 -379 138t-137 382q0 245 137 383t379 138q238 0 375 -138t137 -383q0 -243 -137.5 -381.5t-374.5 -138.5zM555 721q-89 0 -127.5 -57.5t-38.5 -174.5q0 -116 38 -171.5t128 -55.5q91 0 129.5 55.5t38.5 171.5q0 117 -38.5 174.5t-129.5 57.5zM432 1040
l-86 166l490 281l120 -234z" />
    <glyph glyph-name="ocircumflex" unicode="&#xf4;" horiz-adv-x="1110" 
d="M555 721q-89 0 -127.5 -57.5t-38.5 -174.5q0 -116 38 -171.5t128 -55.5q91 0 129.5 55.5t38.5 171.5q0 117 -38.5 174.5t-129.5 57.5zM557 -31q-242 0 -379 138t-137 382q0 245 137 383t379 138q238 0 375 -138t137 -383q0 -243 -137.5 -381.5t-374.5 -138.5zM782 1044
l-227 173l-227 -173l-111 119l289 305h100l287 -305z" />
    <glyph glyph-name="otilde" unicode="&#xf5;" horiz-adv-x="1110" 
d="M557 -31q-242 0 -379 138t-137 382q0 245 137 383t379 138q238 0 375 -138t137 -383q0 -243 -137.5 -381.5t-374.5 -138.5zM555 721q-89 0 -127.5 -57.5t-38.5 -174.5q0 -116 38 -171.5t128 -55.5q91 0 129.5 55.5t38.5 171.5q0 117 -38.5 174.5t-129.5 57.5zM410 1456
q42 0 77.5 -16t59.5 -38t44 -44.5t40 -38.5t39 -16q39 0 52 32.5t13 108.5h139q7 -61 7 -96q0 -135 -48.5 -204t-136.5 -69q-46 0 -85 24t-62.5 53t-53 53t-57.5 24q-36 0 -49.5 -32.5t-13.5 -109.5h-139q-7 58 -7 95q0 134 49.5 204t131.5 70z" />
    <glyph glyph-name="odieresis" unicode="&#xf6;" horiz-adv-x="1110" 
d="M557 -31q-242 0 -379 138t-137 382q0 245 137 383t379 138q238 0 375 -138t137 -383q0 -243 -137.5 -381.5t-374.5 -138.5zM555 721q-89 0 -127.5 -57.5t-38.5 -174.5q0 -116 38 -171.5t128 -55.5q91 0 129.5 55.5t38.5 171.5q0 117 -38.5 174.5t-129.5 57.5zM244 1407
h280v-272h-280v272zM586 1407h280v-272h-280v272z" />
    <glyph glyph-name="divide" unicode="&#xf7;" horiz-adv-x="995" 
d="M934 483h-873v308h873v-308zM383 1116h248v-239h-248v239zM383 399h248v-239h-248v239z" />
    <glyph glyph-name="oslash" unicode="&#xf8;" horiz-adv-x="1110" 
d="M557 -31q-172 0 -299 76l-31 -45h-241v12l145 152q-90 133 -90 325q0 245 137 383t379 138q176 0 301 -78l35 47h231v-12l-145 -154q90 -128 90 -324q0 -243 -137.5 -381.5t-374.5 -138.5zM555 748q-110 0 -157.5 -64t-47.5 -195q0 -56 8 -92l310 326q-48 25 -113 25z
M555 236q111 0 158 62t47 191q0 49 -6 89l-303 -322q39 -20 104 -20z" />
    <glyph glyph-name="ugrave" unicode="&#xf9;" 
d="M674 0v266h-23q-42 -148 -123 -222.5t-190 -74.5q-125 0 -192.5 87.5t-67.5 248.5v674h348v-571q0 -59 27.5 -92t78.5 -33q62 0 97 44.5t35 116.5v535h348v-979h-338zM711 1040l-525 213l121 234l490 -281z" />
    <glyph glyph-name="uacute" unicode="&#xfa;" 
d="M674 0v266h-23q-42 -148 -123 -222.5t-190 -74.5q-125 0 -192.5 87.5t-67.5 248.5v674h348v-571q0 -59 27.5 -92t78.5 -33q62 0 97 44.5t35 116.5v535h348v-979h-338zM422 1040l-86 166l489 281l121 -234z" />
    <glyph glyph-name="ucircumflex" unicode="&#xfb;" 
d="M674 0v266h-23q-42 -148 -123 -222.5t-190 -74.5q-125 0 -192.5 87.5t-67.5 248.5v674h348v-571q0 -59 27.5 -92t78.5 -33q62 0 97 44.5t35 116.5v535h348v-979h-338zM772 1044l-227 173l-228 -173l-110 119l289 305h100l287 -305z" />
    <glyph glyph-name="udieresis" unicode="&#xfc;" 
d="M674 0v266h-23q-42 -148 -123 -222.5t-190 -74.5q-125 0 -192.5 87.5t-67.5 248.5v674h348v-571q0 -59 27.5 -92t78.5 -33q62 0 97 44.5t35 116.5v535h348v-979h-338zM233 1407h281v-272h-281v272zM575 1407h281v-272h-281v272z" />
    <glyph glyph-name="yacute" unicode="&#xfd;" horiz-adv-x="1005" 
d="M184 -328q-63 0 -166 15l45 280q72 -14 127 -14q64 0 97.5 12.5t54.5 48.5l-334 965h379l80 -367q33 -144 55 -272h23q31 157 51 266l70 373h374l-366 -973q-67 -178 -179 -256t-311 -78zM389 1040l-86 166l490 281l120 -234z" />
    <glyph glyph-name="thorn" unicode="&#xfe;" 
d="M567 274q77 0 111.5 52.5t34.5 160.5q0 107 -35 158t-111 51q-64 0 -101.5 -47t-37.5 -127v-78q0 -77 38 -123.5t101 -46.5zM428 1315v-576h18q41 131 118 201t181 70q147 0 226.5 -134.5t79.5 -386.5q0 -253 -82 -386.5t-230 -133.5q-106 0 -180 73.5t-115 209.5h-16
v-561h-348v1624h348z" />
    <glyph glyph-name="ydieresis" unicode="&#xff;" horiz-adv-x="1005" 
d="M184 -328q-63 0 -166 15l45 280q72 -14 127 -14q64 0 97.5 12.5t54.5 48.5l-334 965h379l80 -367q33 -144 55 -272h23q31 157 51 266l70 373h374l-366 -973q-67 -178 -179 -256t-311 -78zM201 1407h280v-272h-280v272zM543 1407h280v-272h-280v272z" />
    <glyph glyph-name="Amacron" unicode="&#x100;" horiz-adv-x="1249" 
d="M883 0l-60 223h-411l-62 -223h-379l398 1229h512l397 -1229h-395zM342 1583h565v-225h-565v225zM528 639l-43 -152h267l-41 152q-50 184 -70 274h-41q-39 -152 -72 -274z" />
    <glyph glyph-name="amacron" unicode="&#x101;" horiz-adv-x="1044" 
d="M469 240q68 0 108.5 40.5t40.5 104.5v37h-143q-52 0 -85.5 -25.5t-33.5 -66.5q0 -90 113 -90zM637 0v233h-31q-78 -253 -301 -253q-121 0 -198.5 71t-77.5 211q0 291 372 291h217v68q0 114 -108 114q-100 0 -117 -104l-325 71q24 138 135.5 222t320.5 84q230 0 335.5 -99
t105.5 -291v-618h-328zM240 1358h555v-228h-555v228z" />
    <glyph glyph-name="Abreve" unicode="&#x102;" horiz-adv-x="1249" 
d="M883 0l-60 223h-411l-62 -223h-379l398 1229h512l397 -1229h-395zM625 1542q67 0 106.5 28.5t50.5 102.5h148q0 -182 -73.5 -261t-231.5 -79q-157 0 -231.5 79.5t-74.5 260.5h148q11 -74 51.5 -102.5t106.5 -28.5zM528 639l-43 -152h267l-41 152q-50 184 -70 274h-41
q-39 -152 -72 -274z" />
    <glyph glyph-name="abreve" unicode="&#x103;" horiz-adv-x="1044" 
d="M469 240q68 0 108.5 40.5t40.5 104.5v37h-143q-52 0 -85.5 -25.5t-33.5 -66.5q0 -90 113 -90zM637 0v233h-31q-78 -253 -301 -253q-121 0 -198.5 71t-77.5 211q0 291 372 291h217v68q0 114 -108 114q-100 0 -117 -104l-325 71q24 138 135.5 222t320.5 84q230 0 335.5 -99
t105.5 -291v-618h-328zM518 1292q67 0 107 33t51 119h147q0 -192 -73.5 -276.5t-231.5 -84.5q-157 0 -231 84.5t-74 276.5h147q11 -86 51.5 -119t106.5 -33z" />
    <glyph glyph-name="Aogonek" unicode="&#x104;" horiz-adv-x="1245" 
d="M1153 -346q-248 0 -248 160q0 128 191 186h-213l-60 223h-411l-62 -223h-379l398 1229h512l397 -1227l2 -2q-104 -18 -149.5 -38.5t-45.5 -53.5q0 -49 89 -49q31 0 106 14v-209q-75 -10 -127 -10zM528 639l-43 -152h267l-41 152q-50 184 -70 274h-41q-39 -152 -72 -274z
" />
    <glyph glyph-name="aogonek" unicode="&#x105;" horiz-adv-x="1101" 
d="M469 240q68 0 108.5 40.5t40.5 104.5v37h-143q-52 0 -85.5 -25.5t-33.5 -66.5q0 -90 113 -90zM940 -336q-75 -10 -127 -10q-248 0 -248 160q0 128 191 186h-119v233h-31q-78 -253 -301 -253q-121 0 -198.5 71t-77.5 211q0 291 372 291h217v68q0 114 -108 114
q-100 0 -117 -104l-325 71q24 138 135.5 222t320.5 84q230 0 335.5 -99t105.5 -291v-618h-25q-104 -18 -149.5 -38.5t-45.5 -53.5q0 -49 89 -49q31 0 106 14v-209z" />
    <glyph glyph-name="Cacute" unicode="&#x106;" horiz-adv-x="1275" 
d="M655 -31q-288 0 -450 170.5t-162 478.5q0 306 168 474t455 168q248 0 392 -124.5t169 -363.5l-353 -65q-19 121 -69.5 177t-151.5 56q-85 0 -141.5 -45.5t-79 -115t-22.5 -161.5q0 -335 241 -335q105 0 154.5 55.5t75.5 181.5l348 -57q-26 -239 -175 -366.5t-399 -127.5z
M477 1317l-55 174l530 201l78 -246z" />
    <glyph glyph-name="cacute" unicode="&#x107;" horiz-adv-x="1058" 
d="M690 563q-18 69 -49 106.5t-94 37.5q-150 0 -150 -213q0 -224 154 -224q115 0 141 152l318 -74q-21 -180 -133.5 -279.5t-323.5 -99.5q-240 0 -376 126.5t-136 375.5q0 255 134.5 397t377.5 142q112 0 194.5 -26t136 -77.5t83.5 -121.5t43 -164zM449 1040l-87 166
l490 281l121 -234z" />
    <glyph glyph-name="Ccircumflex" unicode="&#x108;" horiz-adv-x="1275" 
d="M655 -31q-288 0 -450 170.5t-162 478.5q0 306 168 474t455 168q248 0 392 -124.5t169 -363.5l-353 -65q-19 121 -69.5 177t-151.5 56q-85 0 -141.5 -45.5t-79 -115t-22.5 -161.5q0 -335 241 -335q105 0 154.5 55.5t75.5 181.5l348 -57q-26 -239 -175 -366.5t-399 -127.5z
M889 1298l-238 148l-237 -148l-101 119l289 271h100l287 -271z" />
    <glyph glyph-name="ccircumflex" unicode="&#x109;" horiz-adv-x="1058" 
d="M690 563q-18 69 -49 106.5t-94 37.5q-150 0 -150 -213q0 -224 154 -224q115 0 141 152l318 -74q-21 -180 -133.5 -279.5t-323.5 -99.5q-240 0 -376 126.5t-136 375.5q0 255 134.5 397t377.5 142q112 0 194.5 -26t136 -77.5t83.5 -121.5t43 -164zM774 1044l-227 173
l-228 -173l-110 119l289 305h100l287 -305z" />
    <glyph glyph-name="Cdotaccent" unicode="&#x10a;" horiz-adv-x="1275" 
d="M655 -31q-288 0 -450 170.5t-162 478.5q0 306 168 474t455 168q248 0 392 -124.5t169 -363.5l-353 -65q-19 121 -69.5 177t-151.5 56q-85 0 -141.5 -45.5t-79 -115t-22.5 -161.5q0 -335 241 -335q105 0 154.5 55.5t75.5 181.5l348 -57q-26 -239 -175 -366.5t-399 -127.5z
M496 1628h313v-299h-313v299z" />
    <glyph glyph-name="cdotaccent" unicode="&#x10b;" horiz-adv-x="1058" 
d="M690 563q-18 69 -49 106.5t-94 37.5q-150 0 -150 -213q0 -224 154 -224q115 0 141 152l318 -74q-21 -180 -133.5 -279.5t-323.5 -99.5q-240 0 -376 126.5t-136 375.5q0 255 134.5 397t377.5 142q112 0 194.5 -26t136 -77.5t83.5 -121.5t43 -164zM391 1423h314v-299h-314
v299z" />
    <glyph glyph-name="Ccaron" unicode="&#x10c;" horiz-adv-x="1275" 
d="M655 -31q-288 0 -450 170.5t-162 478.5q0 306 168 474t455 168q248 0 392 -124.5t169 -363.5l-353 -65q-19 121 -69.5 177t-151.5 56q-85 0 -141.5 -45.5t-79 -115t-22.5 -161.5q0 -335 241 -335q105 0 154.5 55.5t75.5 181.5l348 -57q-26 -239 -175 -366.5t-399 -127.5z
M700 1309h-100l-287 270l101 119l237 -146l238 146l100 -119z" />
    <glyph glyph-name="ccaron" unicode="&#x10d;" horiz-adv-x="1058" 
d="M690 563q-18 69 -49 106.5t-94 37.5q-150 0 -150 -213q0 -224 154 -224q115 0 141 152l318 -74q-21 -180 -133.5 -279.5t-323.5 -99.5q-240 0 -376 126.5t-136 375.5q0 255 134.5 397t377.5 142q112 0 194.5 -26t136 -77.5t83.5 -121.5t43 -164zM592 1071h-100l-287 305
l110 119l228 -174l227 174l111 -119z" />
    <glyph glyph-name="Dcaron" unicode="&#x10e;" horiz-adv-x="1308" 
d="M596 928h-143v-627h151q160 0 228.5 78t68.5 254q0 168 -67.5 231.5t-237.5 63.5zM84 0v1229h557q324 0 475.5 -151t151.5 -445t-168.5 -463.5t-468.5 -169.5h-547zM696 1309h-100l-287 270l101 119l237 -146l238 146l100 -119z" />
    <glyph glyph-name="dcaron" unicode="&#x10f;" horiz-adv-x="1323" 
d="M526 274q62 0 101 45.5t39 120.5v78q0 82 -38 130t-102 48q-76 0 -110.5 -52.5t-34.5 -162.5q0 -105 34.5 -156t110.5 -51zM666 0v252h-19q-39 -133 -115.5 -208t-183.5 -75q-144 0 -224.5 132t-80.5 380q0 257 80.5 393t230.5 136q102 0 176.5 -70.5t116.5 -200.5h19
v576h348v-1315h-348zM1090 1315h253l-67 -518h-213z" />
    <glyph glyph-name="Dcroat" unicode="&#x110;" horiz-adv-x="1353" 
d="M723 508h-225v-207h151q160 0 228.5 78t68.5 254q0 168 -67.5 231.5t-237.5 63.5h-143v-211h225v-209zM129 0v508h-98v209h98v512h557q324 0 475.5 -151t151.5 -445t-168.5 -463.5t-468.5 -169.5h-547z" />
    <glyph glyph-name="dcroat" unicode="&#x111;" horiz-adv-x="1120" 
d="M526 274q62 0 101 45.5t39 120.5v78q0 82 -38 130t-102 48q-76 0 -110.5 -52.5t-34.5 -162.5q0 -105 34.5 -156t110.5 -51zM666 0v252h-19q-39 -133 -115.5 -208t-183.5 -75q-144 0 -224.5 132t-80.5 380q0 257 80.5 393t230.5 136q102 0 176.5 -70.5t116.5 -200.5h19
v312h-213v168h213v96h348v-96h100v-168h-100v-1051h-348z" />
    <glyph glyph-name="Emacron" unicode="&#x112;" horiz-adv-x="1134" 
d="M84 0v1229h979v-318h-610v-163h569v-261h-569v-170h610v-317h-979zM291 1583h565v-225h-565v225z" />
    <glyph glyph-name="emacron" unicode="&#x113;" horiz-adv-x="1048" 
d="M543 754q-77 0 -115 -44t-45 -149h301q6 193 -141 193zM547 -31q-111 0 -202.5 30t-160 89.5t-106 154.5t-37.5 218q0 261 132.5 405t379.5 144q225 0 336.5 -119t111.5 -328q0 -84 -6 -135h-612q9 -99 48.5 -140.5t117.5 -41.5q70 0 101.5 26t47.5 74l291 -78
q-17 -65 -46.5 -115t-79.5 -93.5t-130 -67t-186 -23.5zM256 1358h555v-228h-555v228z" />
    <glyph glyph-name="Ebreve" unicode="&#x114;" horiz-adv-x="1134" 
d="M84 0v1229h979v-318h-610v-163h569v-261h-569v-170h610v-317h-979zM573 1542q67 0 107 28.5t51 102.5h148q0 -181 -74 -260.5t-232 -79.5q-157 0 -231 79.5t-74 260.5h148q11 -74 51.5 -102.5t105.5 -28.5z" />
    <glyph glyph-name="ebreve" unicode="&#x115;" horiz-adv-x="1048" 
d="M543 754q-77 0 -115 -44t-45 -149h301q6 193 -141 193zM547 -31q-111 0 -202.5 30t-160 89.5t-106 154.5t-37.5 218q0 261 132.5 405t379.5 144q225 0 336.5 -119t111.5 -328q0 -84 -6 -135h-612q9 -99 48.5 -140.5t117.5 -41.5q70 0 101.5 26t47.5 74l291 -78
q-17 -65 -46.5 -115t-79.5 -93.5t-130 -67t-186 -23.5zM535 1292q67 0 106.5 33t50.5 119h148q0 -192 -73.5 -276.5t-231.5 -84.5q-157 0 -231.5 84.5t-74.5 276.5h148q11 -86 51.5 -119t106.5 -33z" />
    <glyph glyph-name="Edotaccent" unicode="&#x116;" horiz-adv-x="1134" 
d="M84 0v1229h979v-318h-610v-163h569v-261h-569v-170h610v-317h-979zM418 1628h313v-299h-313v299z" />
    <glyph glyph-name="edotaccent" unicode="&#x117;" horiz-adv-x="1048" 
d="M543 754q-77 0 -115 -44t-45 -149h301q6 193 -141 193zM547 -31q-111 0 -202.5 30t-160 89.5t-106 154.5t-37.5 218q0 261 132.5 405t379.5 144q225 0 336.5 -119t111.5 -328q0 -84 -6 -135h-612q9 -99 48.5 -140.5t117.5 -41.5q70 0 101.5 26t47.5 74l291 -78
q-17 -65 -46.5 -115t-79.5 -93.5t-130 -67t-186 -23.5zM377 1423h313v-299h-313v299z" />
    <glyph glyph-name="Eogonek" unicode="&#x118;" horiz-adv-x="1134" 
d="M1065 -336q-75 -10 -127 -10q-248 0 -248 160q0 128 191 186h-797v1229h979v-318h-610v-163h569v-261h-569v-170h610v-315l2 -2q-104 -18 -149.5 -38.5t-45.5 -53.5q0 -49 88 -49q32 0 107 14v-209z" />
    <glyph glyph-name="eogonek" unicode="&#x119;" horiz-adv-x="1048" 
d="M543 754q-77 0 -115 -44t-45 -149h301q6 193 -141 193zM547 -31q-111 0 -202.5 30t-160 89.5t-106 154.5t-37.5 218q0 261 132.5 405t379.5 144q225 0 336.5 -119t111.5 -328q0 -84 -6 -135h-612q9 -99 48.5 -140.5t117.5 -41.5q70 0 101.5 26t47.5 74l291 -78v-4v2
q-25 -91 -69 -154.5t-111 -117.5q-32 -26 -45.5 -45t-13.5 -43q0 -60 96 -60q37 0 117 17v-248q-75 -10 -127 -10q-291 0 -291 180q0 32 14 61t30.5 48t50 41t51 31.5t56 27t44.5 20.5v2q-92 -47 -244 -47z" />
    <glyph glyph-name="Ecaron" unicode="&#x11a;" horiz-adv-x="1134" 
d="M84 0v1229h979v-318h-610v-163h569v-261h-569v-170h610v-317h-979zM623 1309h-101l-286 270l100 119l237 -146l238 146l100 -119z" />
    <glyph glyph-name="ecaron" unicode="&#x11b;" horiz-adv-x="1048" 
d="M543 754q-77 0 -115 -44t-45 -149h301q6 193 -141 193zM547 -31q-111 0 -202.5 30t-160 89.5t-106 154.5t-37.5 218q0 261 132.5 405t379.5 144q225 0 336.5 -119t111.5 -328q0 -84 -6 -135h-612q9 -99 48.5 -140.5t117.5 -41.5q70 0 101.5 26t47.5 74l291 -78
q-17 -65 -46.5 -115t-79.5 -93.5t-130 -67t-186 -23.5zM584 1071h-101l-286 305l110 119l228 -174l227 174l110 -119z" />
    <glyph glyph-name="Gcircumflex" unicode="&#x11c;" horiz-adv-x="1312" 
d="M498 -23q-96 0 -178 39.5t-144.5 115t-98.5 195.5t-36 271q0 320 155.5 491t458.5 171q253 0 384 -99t167 -303l-346 -72q-22 80 -65.5 117t-141.5 37q-130 0 -185.5 -84.5t-55.5 -257.5q0 -161 57 -242.5t190 -81.5q65 0 111.5 14.5t70.5 39.5t34 52.5t10 61.5h-238v252
h582v-694h-334v262h-29q-96 -285 -368 -285zM883 1298l-238 148l-237 -148l-101 119l289 271h100l287 -271z" />
    <glyph glyph-name="gcircumflex" unicode="&#x11d;" horiz-adv-x="1038" 
d="M506 723q-152 0 -152 -100q0 -43 35 -72t117 -29q81 0 116 29t35 72q0 45 -36.5 72.5t-114.5 27.5zM514 -135q103 0 161.5 9.5t79.5 26t21 44.5q0 61 -84 61h-321q-49 0 -80 -17.5t-31 -47.5q0 -28 17.5 -43t74 -24t162.5 -9zM487 -369q-182 -1 -291.5 23.5t-149.5 65
t-40 102.5q0 63 67 108.5t171 67.5v12q-172 21 -172 140q0 46 35 86t104 65l70 31q-234 73 -234 307q0 162 121 251t340 89h510v-254h-100q-69 0 -183 6v-20q47 -8 82 -19.5t66 -29t47 -45t16 -62.5q0 -114 -118 -183t-322 -69q-95 0 -164 14l-6 -14q-12 -28 -12 -47
q0 -22 16.5 -31.5t60.5 -9.5q53 0 157.5 3t152.5 3q327 0 327 -266q0 -110 -51.5 -180t-174.5 -107.5t-325 -36.5zM731 1044l-227 173l-228 -173l-110 119l289 305h100l287 -305z" />
    <glyph glyph-name="Gbreve" unicode="&#x11e;" horiz-adv-x="1312" 
d="M498 -23q-96 0 -178 39.5t-144.5 115t-98.5 195.5t-36 271q0 320 155.5 491t458.5 171q253 0 384 -99t167 -303l-346 -72q-22 80 -65.5 117t-141.5 37q-130 0 -185.5 -84.5t-55.5 -257.5q0 -161 57 -242.5t190 -81.5q65 0 111.5 14.5t70.5 39.5t34 52.5t10 61.5h-238v252
h582v-694h-334v262h-29q-96 -285 -368 -285zM645 1542q67 0 107 28.5t51 102.5h147q0 -182 -73.5 -261t-231.5 -79q-157 0 -231 79.5t-74 260.5h147q11 -74 51.5 -102.5t106.5 -28.5z" />
    <glyph glyph-name="gbreve" unicode="&#x11f;" horiz-adv-x="1038" 
d="M506 723q-152 0 -152 -100q0 -43 35 -72t117 -29q81 0 116 29t35 72q0 45 -36.5 72.5t-114.5 27.5zM514 -135q103 0 161.5 9.5t79.5 26t21 44.5q0 61 -84 61h-321q-49 0 -80 -17.5t-31 -47.5q0 -28 17.5 -43t74 -24t162.5 -9zM487 -369q-182 -1 -291.5 23.5t-149.5 65
t-40 102.5q0 63 67 108.5t171 67.5v12q-172 21 -172 140q0 46 35 86t104 65l70 31q-234 73 -234 307q0 162 121 251t340 89h510v-254h-100q-69 0 -183 6v-20q47 -8 82 -19.5t66 -29t47 -45t16 -62.5q0 -114 -118 -183t-322 -69q-95 0 -164 14l-6 -14q-12 -28 -12 -47
q0 -22 16.5 -31.5t60.5 -9.5q53 0 157.5 3t152.5 3q327 0 327 -266q0 -110 -51.5 -180t-174.5 -107.5t-325 -36.5zM504 1292q67 0 107 33t51 119h147q0 -192 -73.5 -276.5t-231.5 -84.5q-157 0 -231 84.5t-74 276.5h147q11 -86 51.5 -119t106.5 -33z" />
    <glyph glyph-name="Gdotaccent" unicode="&#x120;" horiz-adv-x="1312" 
d="M498 -23q-96 0 -178 39.5t-144.5 115t-98.5 195.5t-36 271q0 320 155.5 491t458.5 171q253 0 384 -99t167 -303l-346 -72q-22 80 -65.5 117t-141.5 37q-130 0 -185.5 -84.5t-55.5 -257.5q0 -161 57 -242.5t190 -81.5q65 0 111.5 14.5t70.5 39.5t34 52.5t10 61.5h-238v252
h582v-694h-334v262h-29q-96 -285 -368 -285zM487 1628h314v-299h-314v299z" />
    <glyph glyph-name="gdotaccent" unicode="&#x121;" horiz-adv-x="1038" 
d="M506 723q-152 0 -152 -100q0 -43 35 -72t117 -29q81 0 116 29t35 72q0 45 -36.5 72.5t-114.5 27.5zM514 -135q103 0 161.5 9.5t79.5 26t21 44.5q0 61 -84 61h-321q-49 0 -80 -17.5t-31 -47.5q0 -28 17.5 -43t74 -24t162.5 -9zM487 -369q-182 -1 -291.5 23.5t-149.5 65
t-40 102.5q0 63 67 108.5t171 67.5v12q-172 21 -172 140q0 46 35 86t104 65l70 31q-234 73 -234 307q0 162 121 251t340 89h510v-254h-100q-69 0 -183 6v-20q47 -8 82 -19.5t66 -29t47 -45t16 -62.5q0 -114 -118 -183t-322 -69q-95 0 -164 14l-6 -14q-12 -28 -12 -47
q0 -22 16.5 -31.5t60.5 -9.5q53 0 157.5 3t152.5 3q327 0 327 -266q0 -110 -51.5 -180t-174.5 -107.5t-325 -36.5zM348 1423h314v-299h-314v299z" />
    <glyph glyph-name="uni0122" unicode="&#x122;" horiz-adv-x="1312" 
d="M498 -23q-96 0 -178 39.5t-144.5 115t-98.5 195.5t-36 271q0 320 155.5 491t458.5 171q253 0 384 -99t167 -303l-346 -72q-22 80 -65.5 117t-141.5 37q-130 0 -185.5 -84.5t-55.5 -257.5q0 -161 57 -242.5t190 -81.5q65 0 111.5 14.5t70.5 39.5t34 52.5t10 61.5h-238v252
h582v-694h-334v262h-29q-96 -285 -368 -285zM543 -98h258l-119 -320h-213v19z" />
    <glyph glyph-name="uni0123" unicode="&#x123;" horiz-adv-x="1038" 
d="M625 1092h-256l118 319h211v-18zM506 723q-152 0 -152 -100q0 -43 35 -72t117 -29q81 0 116 29t35 72q0 45 -36.5 72.5t-114.5 27.5zM514 -135q103 0 161.5 9.5t79.5 26t21 44.5q0 61 -84 61h-321q-49 0 -80 -17.5t-31 -47.5q0 -28 17.5 -43t74 -24t162.5 -9zM487 -369
q-182 -1 -291.5 23.5t-149.5 65t-40 102.5q0 63 67 108.5t171 67.5v12q-172 21 -172 140q0 46 35 86t104 65l70 31q-234 73 -234 307q0 162 121 251t340 89h510v-254h-100q-69 0 -183 6v-20q47 -8 82 -19.5t66 -29t47 -45t16 -62.5q0 -114 -118 -183t-322 -69q-95 0 -164 14
l-6 -14q-12 -28 -12 -47q0 -22 16.5 -31.5t60.5 -9.5q53 0 157.5 3t152.5 3q327 0 327 -266q0 -110 -51.5 -180t-174.5 -107.5t-325 -36.5z" />
    <glyph glyph-name="Hcircumflex" unicode="&#x124;" horiz-adv-x="1314" 
d="M1231 0h-369v446h-409v-446h-369v1229h369v-453h409v453h369v-1229zM895 1298l-238 148l-237 -148l-101 119l289 271h101l286 -271z" />
    <glyph glyph-name="hcircumflex" unicode="&#x125;" horiz-adv-x="1087" 
d="M428 537v-537h-348v1315h348v-600h16q91 295 316 295q124 0 189 -87.5t65 -248.5v-674h-348v573q0 59 -27.5 91t-79.5 32q-61 0 -96 -43.5t-35 -115.5zM492 1333l-238 148l-238 -148l-100 119l289 270h100l287 -270z" />
    <glyph glyph-name="Hbar" unicode="&#x126;" horiz-adv-x="1435" 
d="M922 694v140h-410v-140h410zM1290 0h-368v385h-410v-385h-369v834h-118v225h118v170h369v-170h410v170h368v-170h121v-225h-121v-834z" />
    <glyph glyph-name="hbar" unicode="&#x127;" horiz-adv-x="1110" 
d="M446 537v-537h-348v1051h-92v168h92v96h348v-96h254v-168h-254v-336h17q91 295 315 295q124 0 189 -87.5t65 -248.5v-674h-348v573q0 59 -27 91t-79 32q-61 0 -96.5 -44t-35.5 -115z" />
    <glyph glyph-name="Itilde" unicode="&#x128;" horiz-adv-x="536" 
d="M453 0h-369v1229h369v-1229zM123 1696q42 0 77.5 -16t59.5 -38.5t44 -45t40 -38.5t39 -16q39 0 52.5 32.5t13.5 108.5h139q6 -53 6 -96q0 -135 -48 -203.5t-136 -68.5q-46 0 -85 24t-62.5 52.5t-53 52.5t-57.5 24q-36 0 -50 -32t-14 -109h-139q-6 49 -6 94
q0 134 49 204.5t131 70.5z" />
    <glyph glyph-name="itilde" unicode="&#x129;" horiz-adv-x="507" 
d="M428 0h-348v979h348v-979zM109 1456q42 0 77.5 -16t59.5 -38t44 -44.5t40 -38.5t39 -16q39 0 52 32.5t13 108.5h139q7 -61 7 -96q0 -135 -48.5 -204t-136.5 -69q-46 0 -85 24t-62.5 53t-53 53t-57.5 24q-36 0 -49.5 -32.5t-13.5 -109.5h-140q-6 49 -6 95q0 134 49.5 204
t131.5 70z" />
    <glyph glyph-name="Imacron" unicode="&#x12a;" horiz-adv-x="536" 
d="M453 0h-369v1229h369v-1229zM-14 1583h565v-225h-565v225z" />
    <glyph glyph-name="imacron" unicode="&#x12b;" horiz-adv-x="507" 
d="M428 0h-348v979h348v-979zM-23 1358h555v-228h-555v228z" />
    <glyph glyph-name="Ibreve" unicode="&#x12c;" horiz-adv-x="536" 
d="M453 0h-369v1229h369v-1229zM268 1542q67 0 107 28.5t51 102.5h147q0 -182 -73.5 -261t-231.5 -79q-157 0 -231 79.5t-74 260.5h148q11 -74 51.5 -102.5t105.5 -28.5z" />
    <glyph glyph-name="ibreve" unicode="&#x12d;" horiz-adv-x="507" 
d="M428 0h-348v979h348v-979zM254 1292q67 0 107 33t51 119h147q0 -192 -73.5 -276.5t-231.5 -84.5q-157 0 -231 84.5t-74 276.5h147q11 -86 51.5 -119t106.5 -33z" />
    <glyph glyph-name="Iogonek" unicode="&#x12e;" horiz-adv-x="536" 
d="M328 -346q-248 0 -248 160q0 128 190 186h-186v1229h369v-1227l2 -2q-104 -18 -149.5 -38.5t-45.5 -53.5q0 -49 88 -49q32 0 107 14v-209q-75 -10 -127 -10z" />
    <glyph glyph-name="iogonek" unicode="&#x12f;" horiz-adv-x="507" 
d="M428 1083h-348v232h348v-232zM303 -346q-248 0 -248 160q0 128 191 186h-166v979h348v-977l2 -2q-104 -18 -149 -38.5t-45 -53.5q0 -49 88 -49q31 0 106 14v-209q-75 -10 -127 -10z" />
    <glyph glyph-name="Idotaccent" unicode="&#x130;" horiz-adv-x="536" 
d="M453 0h-369v1229h369v-1229zM113 1628h313v-299h-313v299z" />
    <glyph glyph-name="dotlessi" unicode="&#x131;" horiz-adv-x="507" 
d="M428 0h-348v979h348v-979z" />
    <glyph glyph-name="IJ" unicode="&#x132;" horiz-adv-x="1196" 
d="M453 0h-369v1229h369v-1229zM743 403v826h369v-826q0 -198 -93.5 -308.5t-295.5 -110.5q-90 0 -172 14l16 313q58 -10 88 -10q43 0 65.5 28t22.5 74z" />
    <glyph glyph-name="ij" unicode="&#x133;" horiz-adv-x="1032" 
d="M428 1083h-348v232h348v-232zM428 0h-348v979h348v-979zM952 92q0 -204 -90.5 -312t-300.5 -108q-43 0 -92 9l14 294q40 -4 60 -4q61 0 61 72v936h348v-887zM952 1083h-348v232h348v-232z" />
    <glyph glyph-name="Jcircumflex" unicode="&#x134;" horiz-adv-x="659" 
d="M207 403v826h368v-826q0 -198 -93.5 -308.5t-295.5 -110.5q-90 0 -172 14l17 313q58 -10 88 -10q43 0 65.5 28t22.5 74zM631 1298l-238 148l-237 -148l-101 119l289 271h100l287 -271z" />
    <glyph glyph-name="jcircumflex" unicode="&#x135;" horiz-adv-x="540" 
d="M444 61q0 -204 -90.5 -311.5t-300.5 -107.5q-48 0 -92 8l14 299q40 -4 60 -4q61 0 61 71v963h348v-918zM440 1073l-170 133l-170 -133l-102 109l221 250h100l222 -250z" />
    <glyph glyph-name="uni0136" unicode="&#x136;" horiz-adv-x="1210" 
d="M799 0l-279 430h-67v-430h-369v1229h369v-506h63l291 506h418v-23l-437 -600l439 -583v-23h-428zM518 -98h258l-119 -320h-213v19z" />
    <glyph glyph-name="uni0137" unicode="&#x137;" horiz-adv-x="1060" 
d="M428 1315v-694h55l189 358h395v-23l-307 -452l317 -481v-23h-395l-207 373h-47v-373h-348v1315h348zM461 -98h258l-119 -320h-213v19z" />
    <glyph glyph-name="kgreenlandic" unicode="&#x138;" horiz-adv-x="1060" 
d="M682 0l-207 373h-47v-373h-348v979h348v-358h55l189 358h395v-23l-307 -452l317 -481v-23h-395z" />
    <glyph glyph-name="Lacute" unicode="&#x139;" horiz-adv-x="987" 
d="M172 1317l-55 174l530 201l78 -246zM453 1229v-901h495v-328h-864v1229h369z" />
    <glyph glyph-name="lacute" unicode="&#x13a;" horiz-adv-x="507" 
d="M428 1315v-1315h-348v1315h348zM84 1430l-55 174l530 200l78 -245z" />
    <glyph glyph-name="uni013B" unicode="&#x13b;" horiz-adv-x="987" 
d="M453 1229v-901h495v-328h-864v1229h369zM410 -98h258l-119 -320h-213v19z" />
    <glyph glyph-name="uni013C" unicode="&#x13c;" horiz-adv-x="507" 
d="M428 1315v-1315h-348v1315h348zM158 -98h258l-119 -320h-213v19z" />
    <glyph glyph-name="Lcaron" unicode="&#x13d;" horiz-adv-x="987" 
d="M737 1243h254l-67 -518h-213zM453 1229v-901h495v-328h-864v1229h369z" />
    <glyph glyph-name="lcaron" unicode="&#x13e;" horiz-adv-x="792" 
d="M428 1315v-1315h-348v1315h348zM539 1315h254l-68 -518h-213z" />
    <glyph glyph-name="Ldot" unicode="&#x13f;" horiz-adv-x="987" 
d="M645 877h301v-287h-301v287zM453 1229v-901h495v-328h-864v1229h369z" />
    <glyph glyph-name="ldot" unicode="&#x140;" horiz-adv-x="851" 
d="M428 1315v-1315h-348v1315h348zM522 713h314v-299h-314v299z" />
    <glyph glyph-name="Lslash" unicode="&#x141;" horiz-adv-x="1048" 
d="M514 1229v-438l246 102v-217l-246 -103v-245h496v-328h-865v422l-114 -47v213l114 47v594h369z" />
    <glyph glyph-name="lslash" unicode="&#x142;" horiz-adv-x="630" 
d="M489 1315v-514l127 65v-211l-127 -63v-592h-348v418l-125 -64v207l125 64v690h348z" />
    <glyph glyph-name="Nacute" unicode="&#x143;" horiz-adv-x="1347" 
d="M778 0l-176 399q-84 194 -182 498l-23 -2q25 -396 25 -584v-311h-338v1229h516l148 -328q98 -219 178 -510l24 4q-24 305 -24 510v324h338v-1229h-486zM500 1317l-56 174l531 201l78 -246z" />
    <glyph glyph-name="nacute" unicode="&#x144;" horiz-adv-x="1087" 
d="M428 537v-537h-348v979h338v-264h22q43 148 124.5 221.5t191.5 73.5q124 0 191 -88t67 -248v-674h-348v573q0 59 -27.5 91t-79.5 32q-61 0 -96 -43.5t-35 -115.5zM424 1040l-86 166l489 281l121 -234z" />
    <glyph glyph-name="uni0145" unicode="&#x145;" horiz-adv-x="1347" 
d="M778 0l-176 399q-84 194 -182 498l-23 -2q25 -396 25 -584v-311h-338v1229h516l148 -328q98 -219 178 -510l24 4q-24 305 -24 510v324h338v-1229h-486zM578 -98h258l-119 -320h-213v19z" />
    <glyph glyph-name="uni0146" unicode="&#x146;" horiz-adv-x="1087" 
d="M428 537v-537h-348v979h338v-264h22q43 148 124.5 221.5t191.5 73.5q124 0 191 -88t67 -248v-674h-348v573q0 59 -27.5 91t-79.5 32q-61 0 -96 -43.5t-35 -115.5zM451 -98h258l-119 -320h-213v19z" />
    <glyph glyph-name="Ncaron" unicode="&#x147;" horiz-adv-x="1347" 
d="M778 0l-176 399q-84 194 -182 498l-23 -2q25 -396 25 -584v-311h-338v1229h516l148 -328q98 -219 178 -510l24 4q-24 305 -24 510v324h338v-1229h-486zM723 1309h-100l-287 270l100 119l238 -146l237 146l101 -119z" />
    <glyph glyph-name="ncaron" unicode="&#x148;" horiz-adv-x="1087" 
d="M428 537v-537h-348v979h338v-264h22q43 148 124.5 221.5t191.5 73.5q124 0 191 -88t67 -248v-674h-348v573q0 59 -27.5 91t-79.5 32q-61 0 -96 -43.5t-35 -115.5zM596 1071h-100l-287 305l110 119l228 -174l227 174l111 -119z" />
    <glyph glyph-name="napostrophe" unicode="&#x149;" horiz-adv-x="1398" 
d="M102 1229h351l-222 -598h-192v12zM735 537v-537h-348v979h338v-264h23q43 148 124 221.5t191 73.5q124 0 191 -88t67 -248v-674h-348v573q0 59 -27.5 91t-79.5 32q-61 0 -96 -43.5t-35 -115.5z" />
    <glyph glyph-name="Eng" unicode="&#x14a;" horiz-adv-x="1347" 
d="M84 0v1229h516l162 -301q83 -155 178 -408l6 2q-20 245 -20 404v303h338v-1172q0 -387 -390 -387q-84 0 -172 15l17 288q82 -16 108 -16q42 0 62 17.5t20 45.5l-231 371q-115 183 -266 508h-17q27 -366 27 -588v-311h-338z" />
    <glyph glyph-name="eng" unicode="&#x14b;" horiz-adv-x="1087" 
d="M666 47v526q0 59 -27.5 91t-79.5 32q-61 0 -96 -43.5t-35 -115.5v-537h-348v979h338v-264h22q43 148 124.5 221.5t191.5 73.5q124 0 191 -88t67 -248v-582q0 -204 -90.5 -312t-300.5 -108q-41 0 -91 9l15 299q45 -5 57 -5q62 0 62 72z" />
    <glyph glyph-name="Omacron" unicode="&#x14c;" horiz-adv-x="1343" 
d="M672 -31q-299 0 -464 171.5t-165 477.5q0 302 169.5 472t459.5 170q293 0 460.5 -169.5t167.5 -472.5q0 -306 -164.5 -477.5t-463.5 -171.5zM670 283q140 0 202 85t62 253q0 319 -262 319t-262 -319q0 -166 61.5 -252t198.5 -86zM389 1583h565v-225h-565v225z" />
    <glyph glyph-name="omacron" unicode="&#x14d;" horiz-adv-x="1110" 
d="M557 -31q-242 0 -379 138t-137 382q0 245 137 383t379 138q238 0 375 -138t137 -383q0 -243 -137.5 -381.5t-374.5 -138.5zM555 721q-89 0 -127.5 -57.5t-38.5 -174.5q0 -116 38 -171.5t128 -55.5q91 0 129.5 55.5t38.5 171.5q0 117 -38.5 174.5t-129.5 57.5zM279 1358
h555v-228h-555v228z" />
    <glyph glyph-name="Obreve" unicode="&#x14e;" horiz-adv-x="1343" 
d="M672 -31q-299 0 -464 171.5t-165 477.5q0 302 169.5 472t459.5 170q293 0 460.5 -169.5t167.5 -472.5q0 -306 -164.5 -477.5t-463.5 -171.5zM670 283q140 0 202 85t62 253q0 319 -262 319t-262 -319q0 -166 61.5 -252t198.5 -86zM672 1542q67 0 106.5 28.5t50.5 102.5
h148q0 -182 -73.5 -261t-231.5 -79q-157 0 -231 79.5t-74 260.5h147q11 -74 51.5 -102.5t106.5 -28.5z" />
    <glyph glyph-name="obreve" unicode="&#x14f;" horiz-adv-x="1110" 
d="M557 -31q-242 0 -379 138t-137 382q0 245 137 383t379 138q238 0 375 -138t137 -383q0 -243 -137.5 -381.5t-374.5 -138.5zM555 721q-89 0 -127.5 -57.5t-38.5 -174.5q0 -116 38 -171.5t128 -55.5q91 0 129.5 55.5t38.5 171.5q0 117 -38.5 174.5t-129.5 57.5zM555 1292
q67 0 107 33t51 119h147q0 -192 -73.5 -276.5t-231.5 -84.5q-157 0 -231 84.5t-74 276.5h147q11 -86 51.5 -119t106.5 -33z" />
    <glyph glyph-name="Ohungarumlaut" unicode="&#x150;" horiz-adv-x="1343" 
d="M672 -31q-299 0 -464 171.5t-165 477.5q0 302 169.5 472t459.5 170q293 0 460.5 -169.5t167.5 -472.5q0 -306 -164.5 -477.5t-463.5 -171.5zM670 283q140 0 202 85t62 253q0 319 -262 319t-262 -319q0 -166 61.5 -252t198.5 -86zM578 1309l-156 86l156 321l198 -112z
M883 1309l-146 100l183 307l190 -125z" />
    <glyph glyph-name="ohungarumlaut" unicode="&#x151;" horiz-adv-x="1110" 
d="M557 -31q-242 0 -379 138t-137 382q0 245 137 383t379 138q238 0 375 -138t137 -383q0 -243 -137.5 -381.5t-374.5 -138.5zM555 721q-89 0 -127.5 -57.5t-38.5 -174.5q0 -116 38 -171.5t128 -55.5q91 0 129.5 55.5t38.5 171.5q0 117 -38.5 174.5t-129.5 57.5zM428 1057
l-143 80l170 346l188 -105zM715 1059l-133 96l206 326l179 -119z" />
    <glyph glyph-name="OE" unicode="&#x152;" horiz-adv-x="1857" 
d="M696 317h111v594h-109q-141 0 -214.5 -76t-73.5 -214q0 -149 72.5 -226.5t213.5 -77.5zM698 0q-304 0 -479.5 162.5t-175.5 455.5q0 194 84.5 333.5t231 208.5t339.5 69h1088v-318h-610v-163h569v-261h-569v-170h610v-317h-1088z" />
    <glyph glyph-name="oe" unicode="&#x153;" horiz-adv-x="1732" 
d="M555 721q-89 0 -127.5 -57.5t-38.5 -174.5q0 -116 38 -171.5t128 -55.5q91 0 129.5 55.5t38.5 171.5q0 117 -38.5 174.5t-129.5 57.5zM1227 754q-77 0 -115 -44t-45 -149h301q6 193 -141 193zM1286 -31q-289 0 -379 248h-26q-46 -120 -139.5 -184t-225.5 -64
q-223 0 -349 138t-126 382q0 246 126 383.5t349 137.5q136 0 230.5 -66.5t138.5 -191.5h24q89 258 379 258q197 0 297.5 -119.5t100.5 -327.5q0 -75 -7 -135h-612q9 -99 48.5 -140.5t117.5 -41.5q70 0 101.5 26t47.5 74l291 -78q-18 -65 -44 -115t-70 -93.5t-113 -67
t-160 -23.5z" />
    <glyph glyph-name="Racute" unicode="&#x154;" horiz-adv-x="1230" 
d="M623 922h-170v-275h176q88 0 123.5 32t35.5 105q0 74 -39 106t-126 32zM797 0l-209 379h-135v-379h-369v1229h565q504 0 504 -432q0 -260 -209 -361l281 -413v-23h-428zM422 1317l-55 174l530 201l78 -246z" />
    <glyph glyph-name="racute" unicode="&#x155;" horiz-adv-x="745" 
d="M428 0h-348v979h328v-344h28q21 93 43.5 157.5t44 103t49.5 59.5t54 27.5t63 6.5h25v-401h-66q-94 0 -140.5 -16.5t-63.5 -53.5t-17 -112v-406zM272 1040l-86 166l490 281l121 -234z" />
    <glyph glyph-name="uni0156" unicode="&#x156;" horiz-adv-x="1230" 
d="M508 -98h258l-119 -320h-213v19zM623 922h-170v-275h176q88 0 123.5 32t35.5 105q0 74 -39 106t-126 32zM797 0l-209 379h-135v-379h-369v1229h565q504 0 504 -432q0 -260 -209 -361l281 -413v-23h-428z" />
    <glyph glyph-name="uni0157" unicode="&#x157;" horiz-adv-x="745" 
d="M428 0h-348v979h328v-344h28q21 93 43.5 157.5t44 103t49.5 59.5t54 27.5t63 6.5h25v-401h-66q-94 0 -140.5 -16.5t-63.5 -53.5t-17 -112v-406zM150 -98h258l-119 -320h-213v19z" />
    <glyph glyph-name="Rcaron" unicode="&#x158;" horiz-adv-x="1230" 
d="M623 922h-170v-275h176q88 0 123.5 32t35.5 105q0 74 -39 106t-126 32zM797 0l-209 379h-135v-379h-369v1229h565q504 0 504 -432q0 -260 -209 -361l281 -413v-23h-428zM645 1309h-100l-287 270l100 119l238 -146l238 146l100 -119z" />
    <glyph glyph-name="rcaron" unicode="&#x159;" horiz-adv-x="745" 
d="M428 0h-348v979h328v-344h28q21 93 43.5 157.5t44 103t49.5 59.5t54 27.5t63 6.5h25v-401h-66q-94 0 -140.5 -16.5t-63.5 -53.5t-17 -112v-406zM444 1071h-100l-287 305l111 119l227 -174l228 174l110 -119z" />
    <glyph glyph-name="Sacute" unicode="&#x15a;" horiz-adv-x="1196" 
d="M606 -31q-123 0 -219 21t-157.5 55.5t-103 85t-61 102.5t-26.5 115l350 76q37 -164 234 -164q153 0 153 78q0 33 -19.5 54.5t-78 41.5t-166.5 37q-126 19 -213.5 54t-138 87t-72.5 115t-22 147q0 188 132.5 287t397.5 99q473 0 524 -357l-366 -69q-16 76 -55 110.5
t-124 34.5q-145 0 -145 -86q0 -21 7 -35.5t30 -31t73.5 -31t131.5 -27.5q117 -20 202.5 -51.5t137.5 -68t82.5 -85.5t41.5 -96t11 -107q0 -391 -541 -391zM383 1317l-55 174l530 201l78 -246z" />
    <glyph glyph-name="sacute" unicode="&#x15b;" horiz-adv-x="991" 
d="M498 -31q-127 0 -217 23t-140.5 66t-75 94t-32.5 118l309 64q31 -127 164 -127q97 0 100 61q0 33 -35.5 55t-150.5 48q-206 49 -286.5 121.5t-80.5 205.5q0 153 108.5 232.5t327.5 79.5q111 0 190 -19.5t127 -58.5t74 -87.5t38 -115.5l-308 -63q-11 60 -39.5 86t-89.5 26
q-100 0 -100 -59q0 -22 9 -36t49 -32.5t118 -36.5q118 -26 195.5 -59.5t117.5 -76.5t55 -87.5t15 -105.5q0 -316 -442 -316zM375 1040l-86 166l489 281l121 -234z" />
    <glyph glyph-name="Scircumflex" unicode="&#x15c;" horiz-adv-x="1196" 
d="M606 -31q-123 0 -219 21t-157.5 55.5t-103 85t-61 102.5t-26.5 115l350 76q37 -164 234 -164q153 0 153 78q0 33 -19.5 54.5t-78 41.5t-166.5 37q-126 19 -213.5 54t-138 87t-72.5 115t-22 147q0 188 132.5 287t397.5 99q473 0 524 -357l-366 -69q-16 76 -55 110.5
t-124 34.5q-145 0 -145 -86q0 -21 7 -35.5t30 -31t73.5 -31t131.5 -27.5q117 -20 202.5 -51.5t137.5 -68t82.5 -85.5t41.5 -96t11 -107q0 -391 -541 -391zM825 1298l-237 148l-238 -148l-100 119l289 271h100l287 -271z" />
    <glyph glyph-name="scircumflex" unicode="&#x15d;" horiz-adv-x="991" 
d="M498 -31q-127 0 -217 23t-140.5 66t-75 94t-32.5 118l309 64q31 -127 164 -127q97 0 100 61q0 33 -35.5 55t-150.5 48q-206 49 -286.5 121.5t-80.5 205.5q0 153 108.5 232.5t327.5 79.5q111 0 190 -19.5t127 -58.5t74 -87.5t38 -115.5l-308 -63q-11 60 -39.5 86t-89.5 26
q-100 0 -100 -59q0 -22 9 -36t49 -32.5t118 -36.5q118 -26 195.5 -59.5t117.5 -76.5t55 -87.5t15 -105.5q0 -316 -442 -316zM725 1044l-227 173l-228 -173l-110 119l289 305h100l287 -305z" />
    <glyph glyph-name="uni015E" unicode="&#x15e;" horiz-adv-x="1196" 
d="M614 -344q-128 0 -208 55l59 96q72 -45 149 -45q60 0 60 45q0 43 -64 43q-33 0 -69 -12l-80 31l37 104q-421 36 -459 375l350 76q37 -164 234 -164q153 0 153 78q0 33 -19.5 54.5t-78 41.5t-166.5 37q-126 19 -213.5 54t-138 87t-72.5 115t-22 147q0 188 132.5 287
t397.5 99q473 0 524 -357l-366 -69q-16 76 -55 110.5t-124 34.5q-145 0 -145 -86q0 -21 7 -35.5t30 -31t73.5 -31t131.5 -27.5q117 -20 202.5 -51.5t137.5 -68t82.5 -85.5t41.5 -96t11 -107q0 -391 -531 -391l-20 -57q25 10 66 10q147 0 147 -127q0 -53 -46 -96t-149 -43z
" />
    <glyph glyph-name="uni015F" unicode="&#x15f;" horiz-adv-x="991" 
d="M506 -344q-129 0 -209 55l59 96q72 -45 150 -45q59 0 59 45q0 43 -63 43q-34 0 -70 -12l-80 31l37 104q-95 10 -163 36.5t-107 68t-59 87.5t-27 105l309 64q31 -127 164 -127q97 0 100 61q0 33 -35.5 55t-150.5 48q-206 49 -286.5 121.5t-80.5 205.5q0 153 108.5 232.5
t327.5 79.5q111 0 190 -19.5t127 -58.5t74 -87.5t38 -115.5l-308 -63q-11 60 -39.5 86t-89.5 26q-100 0 -100 -59q0 -22 9 -36t49 -32.5t118 -36.5q118 -26 195.5 -59.5t117.5 -76.5t55 -87.5t15 -105.5q0 -316 -432 -316l-21 -57q25 10 66 10q147 0 147 -127
q0 -53 -45.5 -96t-148.5 -43z" />
    <glyph glyph-name="Scaron" unicode="&#x160;" horiz-adv-x="1196" 
d="M606 -31q-123 0 -219 21t-157.5 55.5t-103 85t-61 102.5t-26.5 115l350 76q37 -164 234 -164q153 0 153 78q0 33 -19.5 54.5t-78 41.5t-166.5 37q-126 19 -213.5 54t-138 87t-72.5 115t-22 147q0 188 132.5 287t397.5 99q473 0 524 -357l-366 -69q-16 76 -55 110.5
t-124 34.5q-145 0 -145 -86q0 -21 7 -35.5t30 -31t73.5 -31t131.5 -27.5q117 -20 202.5 -51.5t137.5 -68t82.5 -85.5t41.5 -96t11 -107q0 -391 -541 -391zM637 1309h-100l-287 270l100 119l238 -146l237 146l101 -119z" />
    <glyph glyph-name="scaron" unicode="&#x161;" horiz-adv-x="991" 
d="M498 -31q-127 0 -217 23t-140.5 66t-75 94t-32.5 118l309 64q31 -127 164 -127q97 0 100 61q0 33 -35.5 55t-150.5 48q-206 49 -286.5 121.5t-80.5 205.5q0 153 108.5 232.5t327.5 79.5q111 0 190 -19.5t127 -58.5t74 -87.5t38 -115.5l-308 -63q-11 60 -39.5 86t-89.5 26
q-100 0 -100 -59q0 -22 9 -36t49 -32.5t118 -36.5q118 -26 195.5 -59.5t117.5 -76.5t55 -87.5t15 -105.5q0 -316 -442 -316zM547 1071h-101l-286 305l110 119l228 -174l227 174l111 -119z" />
    <glyph glyph-name="Tcommaaccent" unicode="&#x162;" horiz-adv-x="1064" 
d="M25 891v338h1015v-338h-323v-891h-170l-33 -88q25 10 66 10q147 0 147 -127q0 -53 -46 -96t-149 -43q-128 0 -208 55l59 96q72 -45 149 -45q60 0 60 45q0 43 -64 43q-33 0 -69 -12l-80 31l47 131h-78v891h-323z" />
    <glyph glyph-name="tcommaaccent" unicode="&#x163;" horiz-adv-x="751" 
d="M125 317v392h-100v270h100v240h348v-240h223v-270h-223v-328q0 -44 19.5 -64t68.5 -20q41 0 115 22l37 -311q-70 -22 -117 -30.5t-129 -8.5q-41 0 -76 6l-24 -63q25 10 65 10q148 0 148 -127q0 -53 -46 -96t-149 -43q-129 0 -209 55l60 96q72 -45 149 -45q59 0 59 45
q0 43 -63 43q-34 0 -70 -12l-80 31l50 141q-79 43 -117.5 123.5t-38.5 183.5z" />
    <glyph glyph-name="Tcaron" unicode="&#x164;" horiz-adv-x="1064" 
d="M1040 891h-323v-891h-369v891h-323v338h1015v-338zM582 1309h-101l-286 270l100 119l237 -146l238 146l100 -119z" />
    <glyph glyph-name="tcaron" unicode="&#x165;" horiz-adv-x="772" 
d="M584 1411h239l-49 -326h-199zM125 317v392h-100v270h100v240h348v-240h223v-270h-223v-328q0 -44 19.5 -64t68.5 -20q41 0 115 22l37 -311q-70 -22 -117 -30.5t-129 -8.5q-89 0 -156 27.5t-107 76.5t-59.5 110t-19.5 134z" />
    <glyph glyph-name="Tbar" unicode="&#x166;" horiz-adv-x="1081" 
d="M35 891v338h1016v-338h-324v-293h242v-192h-242v-406h-369v406h-241v192h241v293h-323z" />
    <glyph glyph-name="tbar" unicode="&#x167;" horiz-adv-x="751" 
d="M125 317v107h-72v172h72v113h-100v270h100v240h348v-240h223v-270h-223v-113h184v-172h-184v-43q0 -44 19.5 -64t68.5 -20q41 0 115 22l37 -311q-70 -22 -117 -30.5t-129 -8.5q-89 0 -156 27.5t-107 76.5t-59.5 110t-19.5 134z" />
    <glyph glyph-name="Utilde" unicode="&#x168;" horiz-adv-x="1300" 
d="M651 295q112 0 155.5 54t43.5 165v715h369v-746q0 -247 -146.5 -379.5t-421.5 -132.5q-276 0 -421.5 132.5t-145.5 379.5v746h369v-715q0 -111 43.5 -165t154.5 -54zM506 1696q42 0 77.5 -16t59.5 -38.5t44 -45t40 -38.5t39 -16q39 0 52 32.5t13 108.5h140q6 -53 6 -96
q0 -135 -48 -203.5t-136 -68.5q-46 0 -85 24t-62.5 52.5t-53 52.5t-57.5 24q-36 0 -50 -32t-14 -109h-139q-6 50 -6 94q0 134 49 204.5t131 70.5z" />
    <glyph glyph-name="utilde" unicode="&#x169;" 
d="M674 0v266h-23q-42 -148 -123 -222.5t-190 -74.5q-125 0 -192.5 87.5t-67.5 248.5v674h348v-571q0 -59 27.5 -92t78.5 -33q62 0 97 44.5t35 116.5v535h348v-979h-338zM399 1456q42 0 77.5 -16t59.5 -38t44 -44.5t40 -38.5t39 -16q39 0 52.5 32.5t13.5 108.5h139
q6 -52 6 -96q0 -136 -48 -204.5t-136 -68.5q-46 0 -85 24t-62.5 53t-53 53t-57.5 24q-36 0 -49.5 -32.5t-13.5 -109.5h-140q-6 49 -6 95q0 134 49 204t131 70z" />
    <glyph glyph-name="Umacron" unicode="&#x16a;" horiz-adv-x="1300" 
d="M651 295q112 0 155.5 54t43.5 165v715h369v-746q0 -247 -146.5 -379.5t-421.5 -132.5q-276 0 -421.5 132.5t-145.5 379.5v746h369v-715q0 -111 43.5 -165t154.5 -54zM369 1583h565v-225h-565v225z" />
    <glyph glyph-name="umacron" unicode="&#x16b;" 
d="M674 0v266h-23q-42 -148 -123 -222.5t-190 -74.5q-125 0 -192.5 87.5t-67.5 248.5v674h348v-571q0 -59 27.5 -92t78.5 -33q62 0 97 44.5t35 116.5v535h348v-979h-338zM268 1358h555v-228h-555v228z" />
    <glyph glyph-name="Ubreve" unicode="&#x16c;" horiz-adv-x="1300" 
d="M651 295q112 0 155.5 54t43.5 165v715h369v-746q0 -247 -146.5 -379.5t-421.5 -132.5q-276 0 -421.5 132.5t-145.5 379.5v746h369v-715q0 -111 43.5 -165t154.5 -54zM651 1542q67 0 107 28.5t51 102.5h147q0 -182 -73.5 -261t-231.5 -79q-157 0 -231 79.5t-74 260.5h148
q11 -74 51.5 -102.5t105.5 -28.5z" />
    <glyph glyph-name="ubreve" unicode="&#x16d;" 
d="M674 0v266h-23q-42 -148 -123 -222.5t-190 -74.5q-125 0 -192.5 87.5t-67.5 248.5v674h348v-571q0 -59 27.5 -92t78.5 -33q62 0 97 44.5t35 116.5v535h348v-979h-338zM545 1292q67 0 106.5 33t50.5 119h148q0 -192 -73.5 -276.5t-231.5 -84.5q-157 0 -231 84.5t-74 276.5
h147q11 -86 51.5 -119t106.5 -33z" />
    <glyph glyph-name="Uring" unicode="&#x16e;" horiz-adv-x="1300" 
d="M651 295q112 0 155.5 54t43.5 165v715h369v-746q0 -247 -146.5 -379.5t-421.5 -132.5q-276 0 -421.5 132.5t-145.5 379.5v746h369v-715q0 -111 43.5 -165t154.5 -54zM897 1540q0 -105 -66.5 -168t-179.5 -63t-179 62.5t-66 166.5q0 105 66 168t179 63t179.5 -62.5
t66.5 -166.5zM561 1538q0 -38 24.5 -60t65.5 -22q42 0 66 22.5t24 61.5q0 38 -24.5 61t-65.5 23t-65.5 -23t-24.5 -63z" />
    <glyph glyph-name="uring" unicode="&#x16f;" 
d="M674 0v266h-23q-42 -148 -123 -222.5t-190 -74.5q-125 0 -192.5 87.5t-67.5 248.5v674h348v-571q0 -59 27.5 -92t78.5 -33q62 0 97 44.5t35 116.5v535h348v-979h-338zM455 1315q0 -43 24.5 -68.5t65.5 -25.5t65.5 26t24.5 70q0 42 -24.5 68t-65.5 26t-65.5 -26.5
t-24.5 -69.5zM791 1317q0 -111 -66 -176.5t-180 -65.5q-113 0 -179.5 65.5t-66.5 174.5t66.5 175t179.5 66t179.5 -65.5t66.5 -173.5z" />
    <glyph glyph-name="Uhungarumlaut" unicode="&#x170;" horiz-adv-x="1300" 
d="M651 295q112 0 155.5 54t43.5 165v715h369v-746q0 -247 -146.5 -379.5t-421.5 -132.5q-276 0 -421.5 132.5t-145.5 379.5v746h369v-715q0 -111 43.5 -165t154.5 -54zM557 1309l-156 86l156 321l199 -112zM862 1309l-145 100l182 307l191 -125z" />
    <glyph glyph-name="uhungarumlaut" unicode="&#x171;" 
d="M674 0v266h-23q-42 -148 -123 -222.5t-190 -74.5q-125 0 -192.5 87.5t-67.5 248.5v674h348v-571q0 -59 27.5 -92t78.5 -33q62 0 97 44.5t35 116.5v535h348v-979h-338zM705 1059l-134 96l207 326l178 -119zM418 1057l-144 80l170 346l189 -105z" />
    <glyph glyph-name="Uogonek" unicode="&#x172;" horiz-adv-x="1300" 
d="M651 295q112 0 155.5 54t43.5 165v715h369v-746q0 -218 -116.5 -348t-336.5 -158q-90 -24 -90 -69q0 -49 88 -49q31 0 106 14v-209q-75 -10 -127 -10q-247 0 -247 160q0 101 118 157q-258 9 -394 141.5t-136 370.5v746h369v-715q0 -111 43.5 -165t154.5 -54z" />
    <glyph glyph-name="uogonek" unicode="&#x173;" 
d="M887 -346q-248 0 -248 160q0 128 190 186h-155v266h-23q-42 -148 -123 -222.5t-190 -74.5q-125 0 -192.5 87.5t-67.5 248.5v674h348v-571q0 -59 27.5 -92t78.5 -33q62 0 97 44.5t35 116.5v535h348v-977l2 -2q-104 -18 -149.5 -38.5t-45.5 -53.5q0 -49 88 -49q32 0 107 14
v-209q-75 -10 -127 -10z" />
    <glyph glyph-name="Wcircumflex" unicode="&#x174;" horiz-adv-x="1775" 
d="M817 522l-61 -522h-502l-283 1229h396l82 -488q41 -249 61 -428h31q29 275 55 428l80 488h463l75 -488q32 -189 54 -428h30q9 72 30.5 213t31.5 215l70 488h374l-274 -1229h-531l-65 522q-19 152 -41 412h-29q-9 -109 -47 -412zM1126 1298l-237 148l-238 -148l-100 119
l289 271h100l287 -271z" />
    <glyph glyph-name="wcircumflex" unicode="&#x175;" horiz-adv-x="1544" 
d="M983 979l66 -389q22 -123 43 -320h30q7 53 24 158.5t25 161.5l58 389h340l-248 -979h-455l-57 416q-20 155 -31 295h-28q-18 -180 -33 -295l-49 -416h-443l-250 979h361l72 -389q42 -239 53 -320h28q21 197 43 320l66 389h385zM1006 1044l-228 173l-227 -173l-111 119
l289 305h100l287 -305z" />
    <glyph glyph-name="Ycircumflex" unicode="&#x176;" horiz-adv-x="1146" 
d="M758 0h-369v377l-428 829v23h410l188 -541h33l196 541h398v-23l-428 -829v-377zM811 1298l-238 148l-237 -148l-100 119l288 271h101l286 -271z" />
    <glyph glyph-name="ycircumflex" unicode="&#x177;" horiz-adv-x="1005" 
d="M184 -328q-63 0 -166 15l45 280q72 -14 127 -14q64 0 97.5 12.5t54.5 48.5l-334 965h379l80 -367q33 -144 55 -272h23q31 157 51 266l70 373h374l-366 -973q-67 -178 -179 -256t-311 -78zM739 1044l-227 173l-227 -173l-111 119l289 305h100l287 -305z" />
    <glyph glyph-name="Ydieresis" unicode="&#x178;" horiz-adv-x="1146" 
d="M758 0h-369v377l-428 829v23h410l188 -541h33l196 541h398v-23l-428 -829v-377zM254 1610h281v-273h-281v273zM596 1610h281v-273h-281v273z" />
    <glyph glyph-name="Zacute" unicode="&#x179;" horiz-adv-x="1212" 
d="M1141 336v-336h-1075v328l591 571l-10 23q-216 -29 -321 -29h-244v336h1048v-328l-600 -577l9 -17q205 29 297 29h305zM428 1317l-55 174l530 201l78 -246z" />
    <glyph glyph-name="zacute" unicode="&#x17a;" horiz-adv-x="1042" 
d="M715 287h252v-287h-901v297l499 410l-6 14q-189 -29 -289 -29h-188v287h881v-295l-502 -414l6 -10q174 27 248 27zM393 1040l-86 166l490 281l121 -234z" />
    <glyph glyph-name="Zdotaccent" unicode="&#x17b;" horiz-adv-x="1212" 
d="M1141 336v-336h-1075v328l591 571l-10 23q-216 -29 -321 -29h-244v336h1048v-328l-600 -577l9 -17q205 29 297 29h305zM446 1628h314v-299h-314v299z" />
    <glyph glyph-name="zdotaccent" unicode="&#x17c;" horiz-adv-x="1042" 
d="M715 287h252v-287h-901v297l499 410l-6 14q-189 -29 -289 -29h-188v287h881v-295l-502 -414l6 -10q174 27 248 27zM360 1423h314v-299h-314v299z" />
    <glyph glyph-name="Zcaron" unicode="&#x17d;" horiz-adv-x="1212" 
d="M1141 336v-336h-1075v328l591 571l-10 23q-216 -29 -321 -29h-244v336h1048v-328l-600 -577l9 -17q205 29 297 29h305zM653 1309h-100l-287 270l101 119l237 -146l238 146l100 -119z" />
    <glyph glyph-name="zcaron" unicode="&#x17e;" horiz-adv-x="1042" 
d="M715 287h252v-287h-901v297l499 410l-6 14q-189 -29 -289 -29h-188v287h881v-295l-502 -414l6 -10q174 27 248 27zM565 1071h-100l-287 305l111 119l227 -174l227 174l111 -119z" />
    <glyph glyph-name="Aringacute" unicode="&#x1fa;" horiz-adv-x="1245" 
d="M440 1630l-51 166l512 189l72 -234zM530 1350q0 -42 26 -66t69 -24q44 0 69 24t25 68q0 42 -25 66t-69 24q-43 0 -69 -25t-26 -67zM528 639l-43 -152h267l-41 152q-50 184 -70 274h-41q-39 -152 -72 -274zM883 0l-60 223h-411l-62 -223h-379l398 1229h24q-26 57 -26 121
q0 114 70 183t188 69q119 0 188.5 -68.5t69.5 -181.5q0 -70 -27 -123h25l397 -1229h-395z" />
    <glyph glyph-name="aringacute" unicode="&#x1fb;" horiz-adv-x="1044" 
d="M365 1561l-50 163l512 189l70 -232zM469 240q68 0 108.5 40.5t40.5 104.5v37h-143q-52 0 -85.5 -25.5t-33.5 -66.5q0 -90 113 -90zM637 0v233h-31q-78 -253 -301 -253q-121 0 -198.5 71t-77.5 211q0 291 372 291h217v68q0 114 -108 114q-100 0 -117 -104l-325 71
q24 138 135.5 222t320.5 84q230 0 335.5 -99t105.5 -291v-618h-328zM432 1294q0 -38 24.5 -60t65.5 -22q42 0 66 22.5t24 61.5q0 38 -24.5 61t-65.5 23t-65.5 -23t-24.5 -63zM768 1296q0 -105 -66.5 -168t-179.5 -63t-179.5 62.5t-66.5 166.5q0 105 66.5 168.5t179.5 63.5
t179.5 -63t66.5 -167z" />
    <glyph glyph-name="AEacute" unicode="&#x1fc;" horiz-adv-x="1804" 
d="M711 1317l-56 174l531 201l78 -246zM754 0v231h-310l-86 -231h-383v12l512 1217h1246v-318h-611v-163h570v-261h-570v-170h611v-317h-979zM598 639l-51 -139h207v430h-62q-64 -210 -94 -291z" />
    <glyph glyph-name="aeacute" unicode="&#x1fd;" horiz-adv-x="1628" 
d="M469 240q68 0 108.5 40.5t40.5 104.5v37h-143q-52 0 -85.5 -25.5t-33.5 -66.5q0 -90 113 -90zM1120 754q-77 0 -114.5 -44t-44.5 -149h301q6 193 -142 193zM1567 268q-18 -67 -44.5 -115.5t-75 -93t-128.5 -67.5t-191 -23q-99 0 -182.5 24.5t-153 82.5t-104.5 147
q-45 -121 -137 -185.5t-229 -64.5q-123 0 -208 74t-85 215q0 291 372 291h217v68q0 114 -108 114q-100 0 -117 -104l-325 71q23 136 127.5 221t281.5 85q237 0 326 -150q112 152 327 152q225 0 337 -119t112 -328q0 -84 -6 -135h-612q9 -99 48 -140.5t117 -41.5q70 0 102 26
t48 74zM680 1040l-86 166l489 281l121 -234z" />
    <glyph glyph-name="Oslashacute" unicode="&#x1fe;" horiz-adv-x="1345" 
d="M672 -31q-211 0 -359 88l-47 -57h-264v12l164 178q-123 163 -123 428q0 302 169.5 472t459.5 170q211 0 362 -91l49 60h260v-12l-165 -179q122 -162 122 -420q0 -306 -164.5 -477.5t-463.5 -171.5zM393 621q0 -86 19 -160l405 457q-58 34 -145 34q-74 0 -129 -26.5
t-87 -73t-47.5 -104.5t-15.5 -127zM498 1317l-56 174l531 201l78 -246zM670 272q148 0 215 89.5t67 259.5q0 81 -20 145l-408 -461q56 -33 146 -33z" />
    <glyph glyph-name="oslashacute" unicode="&#x1ff;" horiz-adv-x="1110" 
d="M557 -31q-172 0 -299 76l-31 -45h-241v12l145 152q-90 133 -90 325q0 245 137 383t379 138q176 0 301 -78l35 47h231v-12l-145 -154q90 -128 90 -324q0 -243 -137.5 -381.5t-374.5 -138.5zM555 748q-110 0 -157.5 -64t-47.5 -195q0 -56 8 -92l310 326q-48 25 -113 25z
M434 1040l-86 166l490 281l120 -234zM555 236q111 0 158 62t47 191q0 49 -6 89l-303 -322q39 -20 104 -20z" />
    <glyph glyph-name="uni0218" unicode="&#x218;" horiz-adv-x="1196" 
d="M606 -31q-123 0 -219 21t-157.5 55.5t-103 85t-61 102.5t-26.5 115l350 76q37 -164 234 -164q153 0 153 78q0 33 -19.5 54.5t-78 41.5t-166.5 37q-126 19 -213.5 54t-138 87t-72.5 115t-22 147q0 188 132.5 287t397.5 99q473 0 524 -357l-366 -69q-16 76 -55 110.5
t-124 34.5q-145 0 -145 -86q0 -21 7 -35.5t30 -31t73.5 -31t131.5 -27.5q117 -20 202.5 -51.5t137.5 -68t82.5 -85.5t41.5 -96t11 -107q0 -391 -541 -391zM496 -98h258l-119 -320h-213v19z" />
    <glyph glyph-name="uni0219" unicode="&#x219;" horiz-adv-x="991" 
d="M498 -31q-127 0 -217 23t-140.5 66t-75 94t-32.5 118l309 64q31 -127 164 -127q97 0 100 61q0 33 -35.5 55t-150.5 48q-206 49 -286.5 121.5t-80.5 205.5q0 153 108.5 232.5t327.5 79.5q111 0 190 -19.5t127 -58.5t74 -87.5t38 -115.5l-308 -63q-11 60 -39.5 86t-89.5 26
q-100 0 -100 -59q0 -22 9 -36t49 -32.5t118 -36.5q118 -26 195.5 -59.5t117.5 -76.5t55 -87.5t15 -105.5q0 -316 -442 -316zM387 -98h258l-119 -320h-213v19z" />
    <glyph glyph-name="uni021A" unicode="&#x21a;" horiz-adv-x="1064" 
d="M25 891v338h1015v-338h-323v-891h-369v891h-323zM436 -98h258l-119 -320h-213v19z" />
    <glyph glyph-name="uni021B" unicode="&#x21b;" horiz-adv-x="751" 
d="M125 317v392h-100v270h100v240h348v-240h223v-270h-223v-328q0 -44 19.5 -64t68.5 -20q41 0 115 22l37 -311q-70 -22 -117 -30.5t-129 -8.5q-89 0 -156 27.5t-107 76.5t-59.5 110t-19.5 134zM291 -98h258l-119 -320h-213v19z" />
    <glyph glyph-name="circumflex" unicode="&#x2c6;" horiz-adv-x="757" 
d="M606 1044l-227 173l-227 -173l-111 119l289 305h100l287 -305z" />
    <glyph glyph-name="caron" unicode="&#x2c7;" horiz-adv-x="757" 
d="M428 1071h-100l-287 305l111 119l227 -174l227 174l111 -119z" />
    <glyph glyph-name="breve" unicode="&#x2d8;" horiz-adv-x="671" 
d="M346 1292q67 0 107 33t51 119h147q0 -192 -73.5 -276.5t-231.5 -84.5q-157 0 -231 84.5t-74 276.5h147q11 -86 51.5 -119t106.5 -33z" />
    <glyph glyph-name="dotaccent" unicode="&#x2d9;" horiz-adv-x="436" 
d="M61 1423h314v-299h-314v299z" />
    <glyph glyph-name="ring" unicode="&#x2da;" horiz-adv-x="614" 
d="M553 1317q0 -111 -66 -176.5t-180 -65.5q-113 0 -179.5 65.5t-66.5 174.5t66.5 175t179.5 66t179.5 -65.5t66.5 -173.5zM217 1315q0 -43 24.5 -68.5t65.5 -25.5t65.5 26t24.5 70q0 42 -24.5 68t-65.5 26t-65.5 -26.5t-24.5 -69.5z" />
    <glyph glyph-name="ogonek" unicode="&#x2db;" horiz-adv-x="454" 
d="M381 29l33 -29q-104 -18 -149.5 -38.5t-45.5 -53.5q0 -49 88 -49q32 0 107 14v-209q-75 -10 -127 -10q-248 0 -248 160q0 91 93 145t249 70z" />
    <glyph glyph-name="tilde" unicode="&#x2dc;" horiz-adv-x="733" 
d="M227 1456q42 0 77.5 -16t59.5 -38t44 -44.5t40 -38.5t39 -16q39 0 52.5 32.5t13.5 108.5h139q6 -52 6 -96q0 -136 -48 -204.5t-136 -68.5q-46 0 -85 24t-62.5 53t-53 53t-57.5 24q-36 0 -49.5 -32.5t-13.5 -109.5h-140q-6 49 -6 95q0 134 49 204t131 70z" />
    <glyph glyph-name="hungarumlaut" unicode="&#x2dd;" horiz-adv-x="700" 
d="M176 1057l-143 80l170 346l188 -105zM463 1059l-133 96l207 326l178 -119z" />
    <glyph glyph-name="Wgrave" unicode="&#x1e80;" horiz-adv-x="1775" 
d="M817 522l-61 -522h-502l-283 1229h396l82 -488q41 -249 61 -428h31q29 275 55 428l80 488h463l75 -488q32 -189 54 -428h30q9 72 30.5 213t31.5 215l70 488h374l-274 -1229h-531l-65 522q-19 152 -41 412h-29q-9 -109 -47 -412zM1053 1317l-553 129l78 246l530 -201z" />
    <glyph glyph-name="wgrave" unicode="&#x1e81;" horiz-adv-x="1544" 
d="M983 979l66 -389q22 -123 43 -320h30q7 53 24 158.5t25 161.5l58 389h340l-248 -979h-455l-57 416q-20 155 -31 295h-28q-18 -180 -33 -295l-49 -416h-443l-250 979h361l72 -389q42 -239 53 -320h28q21 197 43 320l66 389h385zM942 1040l-524 213l121 234l489 -281z" />
    <glyph glyph-name="Wacute" unicode="&#x1e82;" horiz-adv-x="1775" 
d="M817 522l-61 -522h-502l-283 1229h396l82 -488q41 -249 61 -428h31q29 275 55 428l80 488h463l75 -488q32 -189 54 -428h30q9 72 30.5 213t31.5 215l70 488h374l-274 -1229h-531l-65 522q-19 152 -41 412h-29q-9 -109 -47 -412zM713 1317l-56 174l531 201l78 -246z" />
    <glyph glyph-name="wacute" unicode="&#x1e83;" horiz-adv-x="1544" 
d="M983 979l66 -389q22 -123 43 -320h30q7 53 24 158.5t25 161.5l58 389h340l-248 -979h-455l-57 416q-20 155 -31 295h-28q-18 -180 -33 -295l-49 -416h-443l-250 979h361l72 -389q42 -239 53 -320h28q21 197 43 320l66 389h385zM653 1040l-86 166l490 281l121 -234z" />
    <glyph glyph-name="Wdieresis" unicode="&#x1e84;" horiz-adv-x="1775" 
d="M817 522l-61 -522h-502l-283 1229h396l82 -488q41 -249 61 -428h31q29 275 55 428l80 488h463l75 -488q32 -189 54 -428h30q9 72 30.5 213t31.5 215l70 488h374l-274 -1229h-531l-65 522q-19 152 -41 412h-29q-9 -109 -47 -412zM569 1610h281v-273h-281v273zM911 1610
h281v-273h-281v273z" />
    <glyph glyph-name="wdieresis" unicode="&#x1e85;" horiz-adv-x="1544" 
d="M983 979l66 -389q22 -123 43 -320h30q7 53 24 158.5t25 161.5l58 389h340l-248 -979h-455l-57 416q-20 155 -31 295h-28q-18 -180 -33 -295l-49 -416h-443l-250 979h361l72 -389q42 -239 53 -320h28q21 197 43 320l66 389h385zM465 1407h280v-272h-280v272zM807 1407h280
v-272h-280v272z" />
    <glyph glyph-name="uni1E9E" unicode="&#x1e9e;" horiz-adv-x="1257" 
d="M807 -20q-172 0 -301 63l88 303q111 -57 219 -57q74 0 74 45q0 26 -27.5 46.5t-91.5 49.5q-104 48 -143 77q-90 69 -90 177q0 87 56.5 142.5t188.5 86.5l-2 19q-90 -8 -203 -8q-122 0 -122 -140v-784h-369v795q0 210 138.5 322t404.5 112h471v-297q-242 -76 -242 -156
q0 -33 24 -55t74 -47q49 -26 75 -41.5t66 -48t60.5 -64t36.5 -82t16 -110.5q0 -348 -401 -348z" />
    <glyph glyph-name="endash" unicode="&#x2013;" horiz-adv-x="974" 
d="M31 662h913v-318h-913v318z" />
    <glyph glyph-name="emdash" unicode="&#x2014;" horiz-adv-x="1761" 
d="M31 662h1700v-318h-1700v318z" />
    <glyph glyph-name="quoteleft" unicode="&#x2018;" horiz-adv-x="475" 
d="M373 631h-350l221 598h192v-12z" />
    <glyph glyph-name="quoteright" unicode="&#x2019;" horiz-adv-x="475" 
d="M102 1229h351l-222 -598h-192v12z" />
    <glyph glyph-name="quotesinglbase" unicode="&#x201a;" horiz-adv-x="475" 
d="M102 338h351l-222 -598h-192v12z" />
    <glyph glyph-name="quotedblleft" unicode="&#x201c;" horiz-adv-x="878" 
d="M373 631h-350l221 598h192v-12zM776 631h-350l221 598h193v-12z" />
    <glyph glyph-name="quotedblright" unicode="&#x201d;" horiz-adv-x="884" 
d="M102 1229h351l-222 -598h-192v12zM512 1229h350l-221 -598h-192v12z" />
    <glyph glyph-name="quotedblbase" unicode="&#x201e;" horiz-adv-x="884" 
d="M102 338h351l-222 -598h-192v12zM512 338h350l-221 -598h-192v12z" />
    <glyph glyph-name="dagger" unicode="&#x2020;" horiz-adv-x="1282" 
d="M825 -430h-368v1145h-138v-318h-278v582h416v393h368v-393h416v-582h-278v318h-138v-1145z" />
    <glyph glyph-name="daggerdbl" unicode="&#x2021;" horiz-adv-x="1323" 
d="M477 1372h369v-393h416v-385h-279v121h-137v-451h137v121h279v-385h-416v-430h-369v430h-416v385h279v-121h137v451h-137v-121h-279v385h416v393z" />
    <glyph glyph-name="bullet" unicode="&#x2022;" horiz-adv-x="624" 
d="M59 743h506v-483h-506v483z" />
    <glyph glyph-name="ellipsis" unicode="&#x2026;" horiz-adv-x="1323" 
d="M31 344h356v-344h-356v344zM489 344h357v-344h-357v344zM946 344h357v-344h-357v344z" />
    <glyph glyph-name="perthousand" unicode="&#x2030;" horiz-adv-x="2367" 
d="M1966 -20q-174 0 -274.5 98.5t-100.5 271.5q0 170 101 268.5t274 98.5t274 -98.5t101 -268.5q0 -173 -100.5 -271.5t-274.5 -98.5zM1966 201q50 0 80.5 38t30.5 111t-30.5 109.5t-80.5 36.5t-80.5 -36.5t-30.5 -109.5t30.5 -111t80.5 -38zM416 516q-173 0 -274 98.5
t-101 270.5q0 171 101 268.5t274 97.5q174 0 275.5 -97.5t101.5 -268.5q0 -172 -101.5 -270.5t-275.5 -98.5zM416 737q50 0 80 37.5t30 110.5t-30 109t-80 36t-79.5 -36t-29.5 -109q0 -74 29.5 -111t79.5 -37zM1178 -20q-173 0 -274 99t-101 271q0 170 101.5 268.5
t273.5 98.5q174 0 275 -98.5t101 -268.5q0 -173 -101 -271.5t-275 -98.5zM1178 201q50 0 80 37.5t30 111.5q0 73 -30 109.5t-80 36.5t-79.5 -36.5t-29.5 -109.5q0 -74 30 -111.5t79 -37.5zM1042 1229h500v-12l-672 -549l-41 26zM559 2h-500v12l672 549l43 -26z" />
    <glyph glyph-name="guilsinglleft" unicode="&#x2039;" horiz-adv-x="768" 
d="M760 63h-336l-399 455v21l399 454h336v-26l-371 -439l371 -436v-29z" />
    <glyph glyph-name="guilsinglright" unicode="&#x203a;" horiz-adv-x="768" 
d="M344 63h-334v29l369 436l-369 439v26h334l401 -454v-21z" />
    <glyph glyph-name="fraction" unicode="&#x2044;" horiz-adv-x="94" 
d="M289 1229h499v-12l-671 -549l-41 26zM-195 2h-499v12l671 549l43 -26z" />
    <glyph glyph-name="Euro" unicode="&#x20ac;" horiz-adv-x="1370" 
d="M748 -31q-236 0 -387 121t-195 344h-125v119h111q-2 20 -2 65q0 34 2 48h-111v118h123q42 228 199 352t395 124q249 0 394 -124.5t171 -363.5l-352 -65q-21 126 -72.5 184.5t-155.5 58.5q-170 0 -219 -166h219v-118h-235q-2 -14 -2 -48q0 -45 2 -65h235v-119h-217
q47 -162 215 -162q108 0 157 57.5t77 190.5l350 -57q-28 -239 -177.5 -366.5t-399.5 -127.5z" />
    <glyph glyph-name="uni2116" unicode="&#x2116;" horiz-adv-x="2277" 
d="M1399 354h782v-303h-782v303zM1790 680q125 0 125 158q0 159 -125 159q-129 0 -129 -159q0 -158 129 -158zM1790 428q-198 0 -311 109t-113 301q0 193 113 302t311 109q195 0 307.5 -109t112.5 -302q0 -191 -113 -300.5t-307 -109.5zM778 0l-176 399q-84 194 -182 498
l-23 -2q25 -396 25 -584v-311h-338v1229h516l148 -328q98 -219 178 -510l24 4q-24 305 -24 510v324h338v-1229h-486z" />
    <glyph glyph-name="trademark" unicode="&#x2122;" horiz-adv-x="1918" 
d="M35 1004v225h667v-225h-200v-482h-266v482h-201zM985 778v-256h-217v707h424l59 -193q42 -129 62 -217h18q27 98 66 219l63 191h406v-707h-267v256q0 49 5 234h-31q-78 -224 -90 -258l-84 -232h-223l-80 228q-55 156 -82 260h-31q2 -74 2 -232z" />
    <glyph glyph-name="uni2190" unicode="&#x2190;" horiz-adv-x="1595" 
d="M70 541v94l604 596l223 -268q-177 -132 -369 -246h2q273 33 652 33h311v-324h-311q-363 0 -652 35v-2q186 -111 367 -246l-223 -268z" />
    <glyph glyph-name="arrowup" unicode="&#x2191;" horiz-adv-x="1499" 
d="M698 1364h95l596 -606l-269 -223q-139 186 -246 370l-2 -2q35 -266 35 -653v-311h-323v311q0 372 34 653q-128 -209 -247 -368l-269 223z" />
    <glyph glyph-name="uni2192" unicode="&#x2192;" horiz-adv-x="1595" 
d="M1528 643v-94l-606 -596l-224 268q183 136 371 246l-2 2q-289 -35 -653 -35h-312v324h312q387 0 653 -35v2q-196 116 -369 246l224 268z" />
    <glyph glyph-name="arrowdown" unicode="&#x2193;" horiz-adv-x="1499" 
d="M797 -117h-95l-596 606l269 224q132 -177 246 -369l2 2q-35 289 -35 651v312h323v-312q0 -387 -32 -651q115 193 245 367l269 -224z" />
    <glyph glyph-name="minus" unicode="&#x2212;" horiz-adv-x="995" 
d="M934 483h-873v308h873v-308z" />
    <glyph glyph-name="uni25A0" unicode="&#x25a0;" horiz-adv-x="1843" 
d="M74 -244q4 283 4 848t-4 848q283 -6 848 -6q564 0 847 6q-4 -283 -4 -848t4 -848q-424 6 -847 6t-848 -6z" />
    <glyph glyph-name="uni25B2" unicode="&#x25b2;" horiz-adv-x="1843" 
d="M154 0v8l768 1264h8l762 -1264v-8h-1538z" />
    <glyph glyph-name="uni25B3" unicode="&#x25b3;" horiz-adv-x="1843" 
d="M154 0v8l768 1264h8l762 -1264v-8h-1538zM926 295q101 0 248 -14l8 16q-146 227 -244 463h-23q-104 -249 -241 -461l8 -18q147 14 244 14z" />
    <glyph glyph-name="uni25B6" unicode="&#x25b6;" horiz-adv-x="1843" 
d="M369 1391h8l1263 -768v-9l-1263 -761h-8v1538z" />
    <glyph glyph-name="uni25B7" unicode="&#x25b7;" horiz-adv-x="1843" 
d="M369 1391h8l1263 -768v-9l-1263 -761h-8v1538zM664 618q0 -90 -15 -247l17 -9q229 148 462 244v23q-246 103 -460 241l-19 -8q15 -158 15 -244z" />
    <glyph glyph-name="uni25BC" unicode="&#x25bc;" horiz-adv-x="1843" 
d="M1690 1229v-8l-768 -1264h-9l-761 1264v8h1538z" />
    <glyph glyph-name="uni25BD" unicode="&#x25bd;" horiz-adv-x="1843" 
d="M1167 930l-8 18q-147 -14 -244 -14q-100 0 -247 14l-9 -16q146 -227 244 -463h23q104 249 241 461zM150 1229h1538v-8l-768 -1264h-9l-761 1264v8z" />
    <glyph glyph-name="uni25C0" unicode="&#x25c0;" horiz-adv-x="1843" 
d="M1475 1391h-9l-1263 -768v-9l1263 -761h9v1538z" />
    <glyph glyph-name="uni25C1" unicode="&#x25c1;" horiz-adv-x="1843" 
d="M1466 1391h9v-1538h-9l-1263 761v9zM1180 618q0 97 14 244l-18 8q-212 -137 -461 -241v-23q236 -98 463 -244l16 9q-14 147 -14 247z" />
    <glyph glyph-name="uni25C6" unicode="&#x25c6;" horiz-adv-x="1843" 
d="M922 -395q-483 521 -990 989q540 502 990 989q457 -493 989 -989q-500 -461 -989 -989z" />
    <glyph glyph-name="uni25CF" unicode="&#x25cf;" horiz-adv-x="1843" 
d="M-6 602q0 284 112.5 494t323 322t494.5 112q427 0 676 -249.5t249 -678.5t-249 -678.5t-676 -249.5q-284 0 -494.5 112t-323 322t-112.5 494z" />
    <glyph glyph-name="uni2605" unicode="&#x2605;" horiz-adv-x="1843" 
d="M1448 -160l-526 305l-523 -305l-6 4l125 592l-450 404l2 8l604 63l244 553h8l243 -553l605 -63l2 -8l-451 -404l125 -592z" />
    <glyph glyph-name="uni2610" unicode="&#x2610;" horiz-adv-x="1843" 
d="M1489 0h-1133v1133h1133v-1133zM924 250q105 0 327 -8q-10 182 -10 325q0 144 10 326q-222 -8 -327 -8q-106 0 -328 8q8 -218 8 -326q0 -107 -8 -325q222 8 328 8z" />
    <glyph glyph-name="uni2611" unicode="&#x2611;" horiz-adv-x="1843" 
d="M645 659l184 181q88 -104 140 -193q104 181 219 352.5t280 401.5l238 -180q-129 -157 -195 -239t-164 -210t-174 -242t-147 -235h-127q-104 194 -254 364zM356 0v1133h809v-7l-153 -239q-15 0 -44.5 -1t-43.5 -1q-106 0 -328 8q8 -218 8 -326q0 -107 -8 -325q222 8 328 8
q107 0 329 -8q-10 140 -10 252l240 311h6v-805h-1133z" />
    <glyph glyph-name="uni2612" unicode="&#x2612;" horiz-adv-x="1843" 
d="M1489 0h-1133v1133h1133v-1133zM1077 276q-51 52 -153 175q-18 -21 -48.5 -57t-55 -65t-48.5 -53l-143 144q64 61 172 149q-102 82 -172 150l143 143q24 -25 48.5 -52.5t55.5 -65t48 -56.5q96 115 153 174l142 -143q-40 -38 -175 -150q146 -122 175 -149zM924 250
q105 0 327 -8q-10 182 -10 325q0 144 10 326q-222 -8 -327 -8q-106 0 -328 8q8 -218 8 -326q0 -107 -8 -325q222 8 328 8z" />
    <glyph glyph-name="uni2661" unicode="&#x2661;" horiz-adv-x="1843" 
d="M702 500q127 -74 232 -183q99 106 229 183q262 155 262 342q0 198 -182 198q-107 0 -180.5 -89.5t-99.5 -235.5h-58q-27 147 -101 236t-181 89q-90 0 -136.5 -50.5t-46.5 -147.5q0 -187 262 -342zM920 -111q-61 107 -154 193.5t-246 198.5q-78 55 -138 105.5t-114 110
t-89.5 118.5t-56 128t-20.5 142q0 204 108 318t296 114q165 0 262 -78.5t147 -243.5h15q48 165 145.5 243.5t263.5 78.5q185 0 293.5 -114.5t108.5 -317.5q0 -91 -30 -174t-88.5 -157.5t-129 -138.5t-168.5 -134q-152 -110 -245 -197t-152 -195h-8z" />
    <glyph glyph-name="uni2726" unicode="&#x2726;" horiz-adv-x="1843" 
d="M1690 616v-24q-276 -85 -473.5 -284.5t-284.5 -471.5h-23q-88 272 -284.5 471.5t-472.5 284.5v24q276 85 472.5 284.5t284.5 471.5h23q87 -272 284.5 -471.5t473.5 -284.5z" />
    <glyph glyph-name="uni2727" unicode="&#x2727;" horiz-adv-x="1843" 
d="M1692 606v-8q-276 -85 -476.5 -287.5t-287.5 -474.5h-8q-87 272 -288.5 475.5t-477.5 288.5v8q276 85 476 288t288 476h8q88 -273 289 -477t477 -289zM1243 594v18q-135 29 -208.5 102t-102.5 208h-17q-29 -135 -102.5 -208t-208.5 -102v-18q135 -29 208.5 -101.5
t102.5 -207.5h17q29 135 102.5 207.5t208.5 101.5z" />
    <glyph glyph-name="uni2728" unicode="&#x2728;" horiz-adv-x="1843" 
d="M1255 424v-8q-225 -70 -387.5 -234.5t-232.5 -386.5h-10q-70 222 -234.5 387.5t-390.5 235.5v8q226 70 390 235t235 388h8q72 -223 235 -389t387 -236zM623 152h8q28 112 92.5 176t177.5 92v10q-113 29 -177.5 93.5t-92.5 176.5h-8q-28 -112 -93 -176.5t-178 -93.5v-10
q113 -28 178 -92t93 -176zM1194 1204v-10q-103 -32 -176.5 -107.5t-106.5 -179.5h-10q-31 103 -105.5 179t-179.5 110v8q104 32 177 108t108 181h8q33 -104 107.5 -180.5t177.5 -108.5zM1044 1198v8q-56 13 -88 45.5t-45 87.5h-8q-26 -107 -131 -133v-8q105 -26 131 -133h8
q13 55 45 87t88 46zM1843 784q-170 -52 -293 -176t-176 -293h-8q-53 169 -177 293t-296 178v9q171 52 293.5 176.5t177.5 294.5h8q53 -169 177 -294t294 -179v-9zM1589 786v11q-91 23 -142.5 74.5t-74.5 142.5h-8q-22 -90 -74 -142t-143 -75v-11q91 -22 143 -74t74 -141h8
q23 90 75 141.5t142 73.5z" />
    <glyph glyph-name="uni2764" unicode="&#x2764;" horiz-adv-x="1843" 
d="M920 -111q-61 107 -154 193.5t-246 198.5q-78 55 -138 105.5t-114 110t-89.5 118.5t-56 128t-20.5 142q0 204 108 318t296 114q165 0 262 -78.5t147 -243.5h15q48 165 145.5 243.5t263.5 78.5q185 0 293.5 -114.5t108.5 -317.5q0 -91 -30 -174t-88.5 -157.5t-129 -138.5
t-168.5 -134q-152 -110 -245 -197t-152 -195h-8z" />
    <glyph glyph-name="uni2780" unicode="&#x2780;" horiz-adv-x="1771" 
d="M885 35q143 0 253.5 43.5t180.5 122.5t105.5 186.5t35.5 239.5q0 268 -147 427.5t-428 159.5q-280 0 -427 -160t-147 -427q0 -271 146.5 -431.5t427.5 -160.5zM885 1464q200 0 359.5 -62t263.5 -174t159 -265t55 -336q0 -147 -34.5 -275.5t-104 -232.5t-169 -178.5
t-234.5 -115t-295 -40.5q-199 0 -358 62.5t-263.5 175t-159.5 266.5t-55 338q0 183 55 336t159.5 265t263.5 174t358 62zM1210 188h-632v232h200v391q-64 -31 -155 -63l-91 217l361 104h160v-649h157v-232z" />
    <glyph glyph-name="uni2781" unicode="&#x2781;" horiz-adv-x="1771" 
d="M885 35q143 0 253.5 43.5t180.5 122.5t105.5 186.5t35.5 239.5q0 268 -147 427.5t-428 159.5q-280 0 -427 -160t-147 -427q0 -271 146.5 -431.5t427.5 -160.5zM885 1464q200 0 359.5 -62t263.5 -174t159 -265t55 -336q0 -147 -34.5 -275.5t-104 -232.5t-169 -178.5
t-234.5 -115t-295 -40.5q-199 0 -358 62.5t-263.5 175t-159.5 266.5t-55 338q0 183 55 336t159.5 265t263.5 174t358 62zM905 879q-126 0 -139 -150l-270 29q14 166 110.5 255t302.5 89q394 0 394 -311q0 -126 -106 -200t-290 -102q-100 -16 -141 -30.5t-51 -40.5
q160 16 235 16h346v-233h-827q-4 43 -4 133q0 148 69.5 222t229.5 108q116 26 170.5 47t68 38.5t13.5 49.5q0 80 -111 80z" />
    <glyph glyph-name="uni2782" unicode="&#x2782;" horiz-adv-x="1771" 
d="M885 35q143 0 253.5 43.5t180.5 122.5t105.5 186.5t35.5 239.5q0 268 -147 427.5t-428 159.5q-280 0 -427 -160t-147 -427q0 -271 146.5 -431.5t427.5 -160.5zM885 1464q200 0 359.5 -62t263.5 -174t159 -265t55 -336q0 -147 -34.5 -275.5t-104 -232.5t-169 -178.5
t-234.5 -115t-295 -40.5q-199 0 -358 62.5t-263.5 175t-159.5 266.5t-55 338q0 183 55 336t159.5 265t263.5 174t358 62zM887 174q-197 0 -300 65t-116 212l283 28q7 -48 33 -71t104 -23q113 0 113 78q0 37 -23.5 54.5t-81.5 17.5h-156v182h158q52 0 71 14.5t19 54.5
q0 43 -24.5 62.5t-81.5 19.5q-71 0 -94.5 -23t-26.5 -75l-270 18q18 145 110 220t279 75q199 0 288 -58.5t89 -180.5q0 -87 -58 -136.5t-172 -68.5v-18q145 -12 202.5 -57t57.5 -138q0 -117 -97.5 -184.5t-305.5 -67.5z" />
    <glyph glyph-name="uni2783" unicode="&#x2783;" horiz-adv-x="1771" 
d="M885 35q143 0 253.5 43.5t180.5 122.5t105.5 186.5t35.5 239.5q0 268 -147 427.5t-428 159.5q-280 0 -427 -160t-147 -427q0 -271 146.5 -431.5t427.5 -160.5zM885 1464q200 0 359.5 -62t263.5 -174t159 -265t55 -336q0 -147 -34.5 -275.5t-104 -232.5t-169 -178.5
t-234.5 -115t-295 -40.5q-199 0 -358 62.5t-263.5 175t-159.5 266.5t-55 338q0 183 55 336t159.5 265t263.5 174t358 62zM1268 377h-97v-182h-276v182h-479v184l393 514h362v-487h97v-211zM668 569q130 16 227 19v293l-16 6l-222 -303z" />
    <glyph glyph-name="uni2784" unicode="&#x2784;" horiz-adv-x="1771" 
d="M885 35q143 0 253.5 43.5t180.5 122.5t105.5 186.5t35.5 239.5q0 268 -147 427.5t-428 159.5q-280 0 -427 -160t-147 -427q0 -271 146.5 -431.5t427.5 -160.5zM885 1464q200 0 359.5 -62t263.5 -174t159 -265t55 -336q0 -147 -34.5 -275.5t-104 -232.5t-169 -178.5
t-234.5 -115t-295 -40.5q-199 0 -358 62.5t-263.5 175t-159.5 266.5t-55 338q0 183 55 336t159.5 265t263.5 174t358 62zM885 385q72 0 99.5 22t27.5 60q0 86 -121 86q-91 0 -158 -43l-219 80v479h729v-250q-247 0 -479 23v-152q86 47 225 47q153 0 229 -75.5t76 -196.5
q0 -150 -102 -220.5t-307 -70.5q-185 0 -285 57t-123 177l271 59q25 -82 137 -82z" />
    <glyph glyph-name="uni2785" unicode="&#x2785;" horiz-adv-x="1771" 
d="M889 573q-72 0 -99.5 -21.5t-27.5 -62.5q0 -88 129 -88q72 0 97.5 23.5t25.5 62.5t-25.5 62.5t-99.5 23.5zM885 35q143 0 253.5 43.5t180.5 122.5t105.5 186.5t35.5 239.5q0 268 -147 427.5t-428 159.5q-280 0 -427 -160t-147 -427q0 -271 146.5 -431.5t427.5 -160.5z
M885 1464q200 0 359.5 -62t263.5 -174t159 -265t55 -336q0 -147 -34.5 -275.5t-104 -232.5t-169 -178.5t-234.5 -115t-295 -40.5q-199 0 -358 62.5t-263.5 175t-159.5 266.5t-55 338q0 183 55 336t159.5 265t263.5 174t358 62zM1294 483q0 -148 -102.5 -225.5t-304.5 -77.5
q-99 0 -173.5 23t-133 75.5t-89 144.5t-30.5 222q0 94 25.5 174t76.5 143.5t135.5 99.5t194.5 36q102 0 172 -17t113 -54.5t64.5 -89.5t29.5 -128l-277 -27q-9 47 -31 69.5t-77 22.5q-87 0 -118.5 -65.5t-31.5 -228.5l21 -5q33 83 96 116.5t156 33.5q284 0 284 -242z" />
    <glyph glyph-name="uni2786" unicode="&#x2786;" horiz-adv-x="1771" 
d="M885 35q143 0 253.5 43.5t180.5 122.5t105.5 186.5t35.5 239.5q0 268 -147 427.5t-428 159.5q-280 0 -427 -160t-147 -427q0 -271 146.5 -431.5t427.5 -160.5zM885 1464q200 0 359.5 -62t263.5 -174t159 -265t55 -336q0 -147 -34.5 -275.5t-104 -232.5t-169 -178.5
t-234.5 -115t-295 -40.5q-199 0 -358 62.5t-263.5 175t-159.5 266.5t-55 338q0 183 55 336t159.5 265t263.5 174t358 62zM500 821v246h774v-246q-246 -246 -258 -635h-324q11 400 348 650q-139 -15 -243 -15h-297z" />
    <glyph glyph-name="uni2787" unicode="&#x2787;" horiz-adv-x="1771" 
d="M885 547q-70 0 -97.5 -18t-27.5 -60q0 -78 125 -78t125 78q0 42 -27.5 60t-97.5 18zM885 874q-59 0 -85 -16.5t-26 -58.5q0 -43 26 -61.5t85 -18.5q58 0 83 18.5t25 61.5q0 42 -25 58.5t-83 16.5zM885 35q143 0 253.5 43.5t180.5 122.5t105.5 186.5t35.5 239.5
q0 268 -147 427.5t-428 159.5q-280 0 -427 -160t-147 -427q0 -271 146.5 -431.5t427.5 -160.5zM885 1464q200 0 359.5 -62t263.5 -174t159 -265t55 -336q0 -147 -34.5 -275.5t-104 -232.5t-169 -178.5t-234.5 -115t-295 -40.5q-199 0 -358 62.5t-263.5 175t-159.5 266.5
t-55 338q0 183 55 336t159.5 265t263.5 174t358 62zM885 176q-213 0 -312.5 68t-99.5 188q0 84 57 131t177 68v18q-102 23 -152.5 70t-50.5 131q0 123 90.5 183.5t290.5 60.5t290.5 -60.5t90.5 -183.5q0 -84 -50.5 -131t-152.5 -70v-18q120 -20 176.5 -67.5t56.5 -131.5
q0 -120 -99 -188t-312 -68z" />
    <glyph glyph-name="uni2788" unicode="&#x2788;" horiz-adv-x="1771" 
d="M887 676q123 0 123 100q0 94 -125 94q-69 0 -98 -27.5t-29 -68.5t31.5 -69.5t97.5 -28.5zM885 35q143 0 253.5 43.5t180.5 122.5t105.5 186.5t35.5 239.5q0 268 -147 427.5t-428 159.5q-280 0 -427 -160t-147 -427q0 -271 146.5 -431.5t427.5 -160.5zM885 1464
q200 0 359.5 -62t263.5 -174t159 -265t55 -336q0 -147 -34.5 -275.5t-104 -232.5t-169 -178.5t-234.5 -115t-295 -40.5q-199 0 -358 62.5t-263.5 175t-159.5 266.5t-55 338q0 183 55 336t159.5 265t263.5 174t358 62zM877 174q-190 0 -282.5 63.5t-115.5 186.5l275 47
q12 -39 42.5 -56.5t86.5 -17.5q87 0 118 61t33 216l-20 4q-61 -154 -240 -154q-297 0 -297 254q0 153 102 233.5t300 80.5q102 0 178 -23t135 -74.5t89 -143.5t30 -222q0 -95 -25.5 -175.5t-76.5 -144t-136 -99.5t-196 -36z" />
    <glyph glyph-name="uni2789" unicode="&#x2789;" horiz-adv-x="1763" 
d="M807 221h-334v191h82v407q-28 -16 -53 -26l-62 170l201 65h113v-616h53v-191zM1081 854q-69 0 -69 -227q0 -238 67 -238q74 0 74 238q0 227 -72 227zM1081 1049q129 0 203 -105.5t74 -316.5q0 -213 -73 -320.5t-204 -107.5q-129 0 -201.5 107.5t-72.5 320.5q0 210 74 316
t200 106zM885 35q143 0 253.5 43.5t180.5 122.5t105.5 186.5t35.5 239.5q0 268 -147 427.5t-428 159.5q-280 0 -427 -160t-147 -427q0 -271 146.5 -431.5t427.5 -160.5zM885 1464q200 0 359.5 -62t263.5 -174t159 -265t55 -336q0 -147 -34.5 -275.5t-104 -232.5t-169 -178.5
t-234.5 -115t-295 -40.5q-199 0 -358 62.5t-263.5 175t-159.5 266.5t-55 338q0 183 55 336t159.5 265t263.5 174t358 62z" />
    <glyph glyph-name="uni278A" unicode="&#x278a;" horiz-adv-x="1771" 
d="M575 420v-232h635v232h-157v649h-162l-359 -104l89 -217q104 35 157 65v-393h-203zM885 1464q200 0 359.5 -62t263.5 -174t159 -265t55 -336q0 -147 -34.5 -275.5t-104 -232.5t-169 -178.5t-234.5 -115t-295 -40.5q-199 0 -358 62.5t-263.5 175t-159.5 266.5t-55 338
q0 183 55 336t159.5 265t263.5 174t358 62z" />
    <glyph glyph-name="uni278B" unicode="&#x278b;" horiz-adv-x="1771" 
d="M893 877q111 0 111 -78q0 -32 -13.5 -49.5t-68 -39t-170.5 -48.5q-161 -35 -230 -107.5t-69 -220.5q0 -90 4 -133h827v231h-346q-115 0 -238 -20q9 29 50 44t145 31q395 60 395 301q0 312 -393 312q-206 0 -303 -89t-111 -255l271 -27q13 148 139 148zM885 1464
q200 0 359.5 -62t263.5 -174t159 -265t55 -336q0 -147 -34.5 -275.5t-104 -232.5t-169 -178.5t-234.5 -115t-295 -40.5q-199 0 -358 62.5t-263.5 175t-159.5 266.5t-55 338q0 183 55 336t159.5 265t263.5 174t358 62z" />
    <glyph glyph-name="uni278C" unicode="&#x278c;" horiz-adv-x="1771" 
d="M887 176q209 0 306 66.5t97 183.5q0 93 -57.5 138t-202.5 57v20q114 19 172 68t58 137q0 121 -89 180t-288 59q-187 0 -279 -75.5t-110 -221.5l270 -18q3 52 26.5 76t94.5 24q57 0 81.5 -19.5t24.5 -62.5q0 -40 -19 -54.5t-71 -14.5h-158v-182h156q58 0 81.5 -18
t23.5 -56q0 -76 -113 -76q-79 0 -104.5 22.5t-32.5 71.5l-283 -28q13 -148 115.5 -212.5t300.5 -64.5zM885 1464q200 0 359.5 -62t263.5 -174t159 -265t55 -336q0 -147 -34.5 -275.5t-104 -232.5t-169 -178.5t-234.5 -115t-295 -40.5q-199 0 -358 62.5t-263.5 175
t-159.5 266.5t-55 338q0 183 55 336t159.5 265t263.5 174t358 62z" />
    <glyph glyph-name="uni278D" unicode="&#x278d;" horiz-adv-x="1771" 
d="M1268 377v211h-97v487h-362l-393 -514v-184h479v-182h276v182h97zM872 586q-73 0 -202 -21l-13 19l222 301l16 -6v-293h-23zM885 1464q200 0 359.5 -62t263.5 -174t159 -265t55 -336q0 -147 -34.5 -275.5t-104 -232.5t-169 -178.5t-234.5 -115t-295 -40.5
q-199 0 -358 62.5t-263.5 175t-159.5 266.5t-55 338q0 183 55 336t159.5 265t263.5 174t358 62z" />
    <glyph glyph-name="uni278E" unicode="&#x278e;" horiz-adv-x="1771" 
d="M885 385q-116 0 -137 82l-271 -59q23 -120 123 -177t285 -57q204 0 305.5 70.5t101.5 220.5q0 121 -75.5 196.5t-229.5 75.5q-135 0 -225 -49v156q281 -25 479 -25v250h-727v-479l219 -80q64 43 156 43q121 0 121 -86q0 -38 -27 -60t-98 -22zM885 1464q200 0 359.5 -62
t263.5 -174t159 -265t55 -336q0 -147 -34.5 -275.5t-104 -232.5t-169 -178.5t-234.5 -115t-295 -40.5q-199 0 -358 62.5t-263.5 175t-159.5 266.5t-55 338q0 183 55 336t159.5 265t263.5 174t358 62z" />
    <glyph glyph-name="uni278F" unicode="&#x278f;" horiz-adv-x="1771" 
d="M1294 481q0 127 -75.5 185.5t-208.5 58.5q-93 0 -155 -33.5t-91 -118.5l-27 7q2 167 33.5 230.5t116.5 63.5q55 0 77 -22.5t31 -69.5l277 27q-8 76 -29.5 128t-64.5 89.5t-113 54.5t-172 17q-110 0 -194.5 -36t-135.5 -99.5t-76.5 -144t-25.5 -175.5q0 -130 30.5 -222
t89 -143.5t133 -74.5t173.5 -23q202 0 304.5 77t102.5 224zM889 573q74 0 99.5 -24t25.5 -62q0 -39 -25.5 -62.5t-97.5 -23.5q-129 0 -129 86q0 41 28 63.5t99 22.5zM885 1464q200 0 359.5 -62t263.5 -174t159 -265t55 -336q0 -147 -34.5 -275.5t-104 -232.5t-169 -178.5
t-234.5 -115t-295 -40.5q-199 0 -358 62.5t-263.5 175t-159.5 266.5t-55 338q0 183 55 336t159.5 265t263.5 174t358 62z" />
    <glyph glyph-name="uni2790" unicode="&#x2790;" horiz-adv-x="1771" 
d="M498 821h297q119 0 252 19q-343 -250 -357 -654h326q12 388 256 635v246h-774v-246zM885 1464q200 0 359.5 -62t263.5 -174t159 -265t55 -336q0 -147 -34.5 -275.5t-104 -232.5t-169 -178.5t-234.5 -115t-295 -40.5q-199 0 -358 62.5t-263.5 175t-159.5 266.5t-55 338
q0 183 55 336t159.5 265t263.5 174t358 62z" />
    <glyph glyph-name="uni2791" unicode="&#x2791;" horiz-adv-x="1771" 
d="M885 176q214 0 313.5 67t99.5 187q0 84 -56 131.5t-177 67.5v20q101 21 151 68t50 133q0 122 -90.5 183t-290.5 61q-199 0 -289 -61t-90 -183q0 -86 50.5 -133t152.5 -68v-20q-123 -21 -179.5 -67.5t-56.5 -131.5q0 -120 99.5 -187t312.5 -67zM885 872q59 0 84.5 -16.5
t25.5 -58.5t-26 -61t-84 -19t-83.5 19t-25.5 61t26 58.5t83 16.5zM885 545q72 0 99.5 -17.5t27.5 -58.5q0 -78 -127 -78q-125 0 -125 78q0 41 28 58.5t97 17.5zM885 1464q200 0 359.5 -62t263.5 -174t159 -265t55 -336q0 -147 -34.5 -275.5t-104 -232.5t-169 -178.5
t-234.5 -115t-295 -40.5q-199 0 -358 62.5t-263.5 175t-159.5 266.5t-55 338q0 183 55 336t159.5 265t263.5 174t358 62z" />
    <glyph glyph-name="uni2792" unicode="&#x2792;" horiz-adv-x="1771" 
d="M1311 627q0 130 -30 222t-89 144.5t-135 75.5t-178 23q-198 0 -300 -81t-102 -233q0 -133 79 -194.5t218 -61.5q176 0 234 156l26 -6q-2 -154 -33.5 -214.5t-117.5 -60.5q-57 0 -87 17t-42 57l-275 -47q23 -124 115 -187t283 -63q111 0 196 36t136 99.5t76.5 143.5
t25.5 174zM887 674q-65 0 -97 29t-32 69q0 98 127 98q125 0 125 -96q0 -100 -123 -100zM885 1464q200 0 359.5 -62t263.5 -174t159 -265t55 -336q0 -147 -34.5 -275.5t-104 -232.5t-169 -178.5t-234.5 -115t-295 -40.5q-199 0 -358 62.5t-263.5 175t-159.5 266.5t-55 338
q0 183 55 336t159.5 265t263.5 174t358 62z" />
    <glyph glyph-name="uni2793" unicode="&#x2793;" horiz-adv-x="1763" 
d="M1083 1049q-126 0 -200 -106t-74 -316q0 -213 72.5 -320.5t201.5 -107.5q131 0 204 107.5t73 320.5q0 211 -74 316.5t-203 105.5zM455 412v-191h333v191h-53v616h-112l-201 -65l61 -170q38 16 54 28v-409h-82zM1083 854q72 0 72 -227q0 -238 -74 -238q-67 0 -67 238
q0 227 69 227zM885 1464q200 0 359.5 -62t263.5 -174t159 -265t55 -336q0 -147 -34.5 -275.5t-104 -232.5t-169 -178.5t-234.5 -115t-295 -40.5q-199 0 -358 62.5t-263.5 175t-159.5 266.5t-55 338q0 183 55 336t159.5 265t263.5 174t358 62z" />
    <glyph glyph-name="uni279A" unicode="&#x279a;" horiz-adv-x="1843" 
d="M1280 754v-754h-1081v1081h786v-6l-231 -241q-157 0 -301 6q8 -115 8 -260q0 -106 -8 -324q218 8 325 8q132 0 264 -6q-8 152 -8 229l240 267h6zM1569 1393l53 -54v-768h-266q11 207 53 441l-12 6q-269 -308 -445 -481l-207 -207l-186 188l205 207q172 170 487 442l-6 11
q-274 -44 -434 -52v267h758z" />
    <glyph glyph-name="uni2B1B" unicode="&#x2b1b;" horiz-adv-x="1843" 
d="M1489 0h-1133v1133h1133v-1133z" />
    <glyph glyph-name="uni2B1C" unicode="&#x2b1c;" horiz-adv-x="1843" 
d="M1489 0h-1133v1133h1133v-1133zM924 250q105 0 327 -8q-10 182 -10 325q0 144 10 326q-222 -8 -327 -8q-106 0 -328 8q8 -218 8 -326q0 -107 -8 -325q222 8 328 8z" />
    <glyph glyph-name="commaaccent" unicode="&#xf6c3;" horiz-adv-x="376" 
d="M90 -98h258l-119 -320h-213v19z" />
    <glyph glyph-name="uniF8FF" unicode="&#xf8ff;" horiz-adv-x="2635" 
d="M1942 16q-13 -30 -123 -30l-50 2q9 212 13 508.5t8 406.5q-52 -160 -110.5 -387t-93.5 -364.5t-48 -147.5q-14 -12 -43 -12q-13 0 -50.5 5t-64.5 7q4 127 4 420q-63 2 -190 2q2 -51 2 -164q0 -244 -20 -256q-12 -10 -54 -10q-22 0 -59 3t-45 3h-6q14 232 14 422
q-30 0 -84 -1t-78 -1v-92q0 -57 1 -146.5t1 -111.5q0 -37 -2 -41q-10 -26 -39 -33.5t-123 -9.5q-2 59 -2 162q0 71 5 266q-114 -4 -132 -4q-54 -92 -120 -214.5t-95 -193.5q-14 4 -45 4q-20 0 -41.5 -2.5t-33.5 -5.5l-11 -2q-5 51 -32 102q-8 16 -98 156t-95 160
q-4 16 -4 24q0 34 27 90q-11 22 -11 50q0 35 17 98q12 38 47.5 121.5t93 213t92.5 212.5q68 0 144 20q90 -231 180 -667q10 -1 121 -5v25q0 41 -1 160t-1 182q0 239 16 262q16 29 147 31q-6 -123 -6 -236q0 -70 2 -191t2 -171v-64q25 0 78 -1t80 -1q0 183 -3 357.5t-3 185.5
q0 52 4 69.5t16 26.5q16 13 78 13h64q0 -27 -1 -78.5t-1 -75.5q0 -168 10 -496q114 3 194 9q0 53 -1 149.5t-1 138.5q0 321 17 344q20 29 86 29q14 0 40.5 -2t35.5 -2q-17 -121 -17 -541v-164q203 673 250 697q16 8 61 8l95 -6q-6 -147 -6 -350q0 -132 3 -370.5t3 -315.5
q0 -166 -8 -179zM2359 948q-24 -71 -68.5 -181t-71 -181.5t-26.5 -96.5v-4q2 -29 70 -141.5t80 -140.5q29 68 59 143t45 116l15 40q-23 127 -60.5 273.5t-42.5 172.5zM143 520q0 -16 24.5 -60.5t64.5 -116t65 -128.5q24 63 58 136.5t52.5 115.5t18.5 61v4q-1 23 -36 178.5
t-60 252.5q-187 -404 -187 -443zM2292 1245q24 -12 57 -12q40 0 61 24q149 -474 226 -763q-187 -488 -246 -500q-6 -2 -18 -2q-46 0 -136 37q-1 35 -23 87.5t-45 91t-58.5 94.5t-43.5 69q-22 40 -22 61q0 12 4.5 21.5t12.5 18.5t10 13q6 9 6 21q0 28 -35 37q187 458 250 702
z" />
    <glyph glyph-name="fi" unicode="&#xfb01;" horiz-adv-x="1204" 
d="M492 1006v-27h188v-270h-188v-709h-349v709h-118v270h118v37q0 152 93.5 245t277.5 93q103 0 176 -17l-12 -233q-46 6 -88 6q-44 0 -71 -24.5t-27 -79.5zM1124 0h-348v979h348v-979zM1124 1083h-348v232h348v-232z" />
    <glyph glyph-name="fl" unicode="&#xfb02;" horiz-adv-x="1204" 
d="M492 1006v-27h188v-270h-188v-709h-349v709h-118v270h118v37q0 152 93.5 245t277.5 93q103 0 176 -17l-12 -233q-46 6 -88 6q-44 0 -71 -24.5t-27 -79.5zM1124 1315v-1315h-348v1315h348z" />
    <glyph glyph-name="exclamdown.case" horiz-adv-x="524" 
d="M88 764h348v-764h-348v764zM440 887h-356v342h356v-342z" />
    <glyph glyph-name="questiondown.case" horiz-adv-x="1019" 
d="M283 670q71 25 71 90v24h330q2 -18 2 -49q0 -93 -38.5 -143.5t-139.5 -99.5q-69 -32 -97 -60.5t-28 -73.5q0 -88 115 -88q84 0 120 49.5t48 147.5l338 -49q-24 -217 -145.5 -331t-364.5 -114q-476 0 -476 355q0 78 18.5 135.5t57 96t82 63t107.5 47.5zM700 887h-356v342
h356v-342z" />
    <glyph glyph-name="periodcentered.case" horiz-adv-x="454" 
d="M49 801h357v-344h-357v344z" />
    <glyph glyph-name="bullet.case" horiz-adv-x="624" 
d="M59 866h506v-483h-506v483z" />
    <glyph glyph-name="guillemotleft.case" horiz-adv-x="1341" 
d="M760 168h-336l-399 455v20l399 455h336v-27l-371 -438l371 -436v-29zM1333 168h-336l-399 455v20l399 455h336v-27l-370 -438l370 -436v-29z" />
    <glyph glyph-name="guillemotright.case" horiz-adv-x="1341" 
d="M918 168h-334v29l368 436l-368 438v27h334l401 -455v-20zM344 168h-334v29l369 436l-369 438v27h334l401 -455v-20z" />
    <glyph glyph-name="guilsinglleft.case" horiz-adv-x="768" 
d="M760 168h-336l-399 455v20l399 455h336v-27l-371 -438l371 -436v-29z" />
    <glyph glyph-name="guilsinglright.case" horiz-adv-x="768" 
d="M344 168h-334v29l369 436l-369 438v27h334l401 -455v-20z" />
    <glyph glyph-name="hyphen.case" horiz-adv-x="716" 
d="M31 788h655v-317h-655v317z" />
    <glyph glyph-name="endash.case" horiz-adv-x="974" 
d="M31 788h913v-317h-913v317z" />
    <glyph glyph-name="emdash.case" horiz-adv-x="1761" 
d="M31 788h1700v-317h-1700v317z" />
    <glyph glyph-name="parenleft.case" horiz-adv-x="729" 
d="M70 623q0 528 385 893l231 -156q-145 -178 -202.5 -353.5t-57.5 -383.5t57.5 -383t202.5 -355l-231 -155q-385 365 -385 893z" />
    <glyph glyph-name="parenright.case" horiz-adv-x="722" 
d="M668 614q0 -528 -385 -893l-232 156q145 178 202.5 353.5t57.5 383.5q0 209 -57.5 384.5t-202.5 353.5l232 155q385 -365 385 -893z" />
    <glyph glyph-name="bracketleft.case" horiz-adv-x="677" 
d="M84 -205v1637h567v-283h-219v-1049h219v-305h-567z" />
    <glyph glyph-name="bracketright.case" horiz-adv-x="677" 
d="M27 -193v283h219v1051h-219v303h567v-1637h-567z" />
    <glyph glyph-name="braceleft.case" horiz-adv-x="778" 
d="M737 -225q-80 -6 -207 -6q-380 0 -380 235q0 56 25.5 108.5t56 86.5t56 79.5t25.5 90.5q0 49 -27 70.5t-102 21.5h-147v295h145q144 0 144 114q0 36 -18 72t-44 66.5t-52 62.5t-44 74t-18 88q0 233 380 233q128 0 207 -6v-286q-37 2 -98 2q-111 0 -111 -66
q0 -23 16 -53.5t35.5 -57.5t35.5 -68t16 -83q0 -94 -71 -147t-220 -70v-37q161 -12 226 -60t65 -145q0 -42 -16 -83.5t-35.5 -68.5t-35.5 -58.5t-16 -55.5q0 -62 111 -62q61 0 98 2v-288z" />
    <glyph glyph-name="braceright.case" horiz-adv-x="778" 
d="M41 1473q79 6 207 6q383 0 383 -234q0 -47 -17 -89.5t-41.5 -74.5t-49 -63t-41.5 -66.5t-17 -72.5q0 -47 28 -70t101 -23h147v-292h-145q-74 0 -107.5 -29t-33.5 -88q0 -36 18 -71.5t44 -66t52 -62.5t44 -74t18 -87q0 -235 -383 -235q-127 0 -207 6v289q37 -2 98 -2
q113 0 113 63q0 29 -26 69t-52.5 90t-26.5 103q0 94 71 147t220 70v37q-160 12 -225.5 60.5t-65.5 144.5q0 54 26.5 105t52.5 91.5t26 69.5q0 64 -113 64q-24 0 -98 -4v289z" />
    <glyph glyph-name="zero.osf" horiz-adv-x="1187" 
d="M594 817q-184 0 -184 -272q0 -138 41 -207.5t139 -69.5q103 0 145.5 69.5t42.5 207.5q0 272 -184 272zM594 1126q263 0 407 -145.5t144 -435.5q0 -287 -142 -431.5t-409 -144.5t-409 144.5t-142 431.5q0 289 146 435t405 146z" />
    <glyph glyph-name="one.osf" horiz-adv-x="913" 
d="M877 0h-811v287h262v530q-108 -72 -211 -110l-101 260l414 131h246v-811h201v-287z" />
    <glyph glyph-name="two.osf" horiz-adv-x="1171" 
d="M602 838q-81 0 -125.5 -53.5t-52.5 -151.5l-334 41q38 444 516 444q490 0 490 -358q0 -66 -20.5 -116.5t-54.5 -85t-96 -64t-126 -49t-162 -42.5q-183 -42 -236.5 -63.5t-60.5 -65.5q205 33 457 33h286v-307h-1022q-6 86 -6 178q0 69 16 121.5t43.5 90.5t78 69t106 53.5
t141.5 48.5q133 41 193 67t81 50t21 63q0 45 -32.5 71t-100.5 26z" />
    <glyph glyph-name="three.osf" horiz-adv-x="1177" 
d="M596 -141q-260 0 -395.5 91.5t-153.5 297.5l356 37q5 -36 14 -59t29.5 -44t59 -31t96.5 -10q164 0 164 117q0 58 -34.5 84.5t-119.5 26.5h-206v243h208q72 0 101.5 23.5t29.5 83.5q0 65 -36 94t-115 29q-52 0 -85.5 -9.5t-51.5 -31t-26 -46t-11 -63.5l-340 27
q11 98 44.5 172t94.5 128t154 81.5t219 27.5q259 0 375 -82t116 -251q0 -122 -74.5 -191t-222.5 -96v-27q190 -17 265 -79.5t75 -192.5q0 -164 -128 -257t-402 -93z" />
    <glyph glyph-name="four.osf" horiz-adv-x="1200" 
d="M1192 127h-135v-258h-348v258h-648v246l539 725h457v-690h135v-281zM387 385q161 20 322 23v428l-21 6l-313 -441z" />
    <glyph glyph-name="five.osf" horiz-adv-x="1177" 
d="M588 129q100 0 139 33t39 94q0 133 -172 133q-120 0 -215 -63l-281 106v666h957v-332q-308 0 -639 29v-228q122 66 299 66q105 0 184.5 -29t128 -81.5t72.5 -120t24 -148.5q0 -209 -135 -307.5t-403 -98.5q-241 0 -374 80t-167 246l342 84q41 -129 201 -129z" />
    <glyph glyph-name="six.osf" horiz-adv-x="1204" 
d="M616 532q-186 0 -186 -129q0 -135 188 -135q101 0 139 36.5t38 98.5q0 60 -38 94.5t-141 34.5zM1149 397q0 -205 -136 -314.5t-403 -109.5q-103 0 -186 19.5t-154 66t-118.5 119.5t-74 184t-26.5 256q0 133 33.5 246t100.5 201.5t178 139t255 50.5q134 0 226.5 -24
t149.5 -76.5t86 -124t40 -176.5l-350 -37q-14 73 -45.5 107t-110.5 34q-123 0 -169 -97.5t-46 -334.5l27 -4q42 118 127 165.5t215 47.5q85 0 152.5 -18.5t119.5 -57t80.5 -105t28.5 -157.5z" />
    <glyph glyph-name="seven.osf" horiz-adv-x="1103" 
d="M37 772v326h1026v-326q-172 -184 -258.5 -405t-95.5 -498h-410q17 567 471 924q-175 -21 -332 -21h-401z" />
    <glyph glyph-name="eight.osf" horiz-adv-x="1193" 
d="M598 -27q-282 0 -413.5 95t-131.5 262q0 117 76 183.5t236 94.5v27q-135 31 -202 96t-67 184q0 170 119.5 255t382.5 85q261 0 380.5 -85t119.5 -255q0 -119 -67 -184t-202 -96v-27q160 -28 236 -94.5t76 -183.5q0 -167 -131 -262t-412 -95zM598 496q-102 0 -142 -28
t-40 -89q0 -117 182 -117q180 0 180 117q0 61 -39.5 89t-140.5 28zM598 963q-84 0 -121 -27t-37 -90t37.5 -91t120.5 -28q82 0 119 28t37 91t-37 90t-119 27z" />
    <glyph glyph-name="nine.osf" horiz-adv-x="1187" 
d="M586 545q180 0 180 151q0 66 -44.5 105t-137.5 39q-97 0 -139 -41.5t-42 -106.5q0 -62 46 -104.5t137 -42.5zM575 -147q-251 0 -372 89.5t-152 262.5l346 61q17 -60 60.5 -87t126.5 -27q122 0 167.5 90.5t47.5 314.5l-27 4q-43 -116 -125 -167.5t-203 -51.5
q-89 0 -159.5 19.5t-124 60.5t-82.5 111t-29 165q0 211 134.5 324t394.5 113q106 0 191 -19.5t157 -66t120 -119.5t74.5 -184t26.5 -257q0 -132 -34 -245t-101 -201.5t-179 -139t-258 -50.5z" />
    <glyph glyph-name="zero.tf" horiz-adv-x="1228" 
d="M614 942q-106 0 -155 -79t-49 -245q0 -335 200 -335q209 0 209 335q0 165 -50 244.5t-155 79.5zM614 1260q265 0 418.5 -162t153.5 -480q0 -320 -151 -484.5t-421 -164.5t-420.5 164t-150.5 485q0 160 41.5 283.5t118 201.5t180 117.5t231.5 39.5z" />
    <glyph glyph-name="one.tf" horiz-adv-x="1249" 
d="M1159 0h-1034v307h403v582q-127 -75 -307 -139l-117 303l568 176h205v-922h282v-307z" />
    <glyph glyph-name="two.tf" horiz-adv-x="1251" 
d="M645 961q-94 0 -142 -56.5t-57 -165.5l-344 37q10 114 44.5 199.5t98 150t165 98t239.5 33.5q514 0 514 -430q0 -336 -518 -419q-140 -24 -196 -48.5t-68 -72.5q194 22 313 22h463v-309h-1089q-7 100 -7 178q0 206 94 309t312 154q151 37 223.5 67t92.5 57t20 75
q0 56 -39.5 88.5t-118.5 32.5z" />
    <glyph glyph-name="three.tf" horiz-adv-x="1249" 
d="M635 -20q-260 0 -395.5 91.5t-153.5 297.5l356 37q5 -36 14 -59t29.5 -44t59 -31t96.5 -10q164 0 164 117q0 57 -34.5 83.5t-119.5 26.5h-207v244h209q72 0 101.5 23.5t29.5 83.5q0 65 -36 94t-115 29q-52 0 -85.5 -9.5t-51.5 -31t-26 -46t-11 -63.5l-340 27
q11 98 44.5 172t94.5 128t154 81.5t219 27.5q259 0 375 -82.5t116 -251.5q0 -122 -74 -190.5t-223 -95.5v-27q190 -17 265 -79.5t75 -192.5q0 -164 -128 -257t-402 -93z" />
    <glyph glyph-name="four.tf" horiz-adv-x="1249" 
d="M1192 258h-135v-258h-348v258h-648v246l539 725h457v-690h135v-281zM387 516q161 20 322 23v428l-21 6l-313 -441z" />
    <glyph glyph-name="five.tf" horiz-adv-x="1249" 
d="M623 260q100 0 139 33t39 94q0 133 -172 133q-120 0 -215 -63l-281 106v666h957v-332q-308 0 -639 29v-228q122 66 299 66q105 0 184.5 -29t128 -81.5t72.5 -120t24 -148.5q0 -209 -134.5 -307t-403.5 -98q-242 0 -374.5 79.5t-166.5 245.5l342 84q41 -129 201 -129z" />
    <glyph glyph-name="six.tf" horiz-adv-x="1249" 
d="M647 532q-186 0 -186 -129q0 -135 188 -135q101 0 138.5 36.5t37.5 98.5q0 60 -37.5 94.5t-140.5 34.5zM1180 397q0 -205 -136 -314.5t-403 -109.5q-103 0 -186 19.5t-154 66t-118.5 119.5t-74 184t-26.5 256q0 133 33.5 246t100.5 201.5t178 139t255 50.5
q134 0 226.5 -24t149.5 -76.5t86 -124t40 -176.5l-350 -37q-14 73 -45.5 107t-110.5 34q-123 0 -169 -97.5t-46 -334.5l27 -4q42 118 127 165.5t215 47.5q85 0 152.5 -18.5t119.5 -57t80.5 -105t28.5 -157.5z" />
    <glyph glyph-name="seven.tf" horiz-adv-x="1249" 
d="M129 903v326h1026v-326q-172 -184 -258.5 -405t-95.5 -498h-410q17 567 471 924q-175 -21 -332 -21h-401z" />
    <glyph glyph-name="eight.tf" horiz-adv-x="1249" 
d="M627 -27q-282 0 -413.5 95t-131.5 262q0 117 75.5 183.5t235.5 94.5v27q-135 31 -201.5 96t-66.5 184q0 170 119.5 255t382.5 85q261 0 380 -85t119 -255q0 -119 -66.5 -184t-201.5 -96v-27q160 -28 235.5 -94.5t75.5 -183.5q0 -167 -130.5 -262t-411.5 -95zM627 496
q-102 0 -142.5 -28t-40.5 -89q0 -117 183 -117q180 0 180 117q0 61 -39.5 89t-140.5 28zM627 963q-84 0 -121 -27t-37 -90t37.5 -91t120.5 -28q82 0 118.5 28t36.5 91t-36.5 90t-118.5 27z" />
    <glyph glyph-name="nine.tf" horiz-adv-x="1249" 
d="M618 666q94 0 137.5 40.5t43.5 110.5q0 66 -44.5 105t-138.5 39q-96 0 -138 -41.5t-42 -106.5q0 -62 45.5 -104.5t136.5 -42.5zM608 -27q-129 0 -223.5 24t-155.5 71.5t-95.5 110t-49.5 147.5l346 61q17 -61 60.5 -88t125.5 -27q122 0 167.5 91t47.5 315l-26 4
q-43 -116 -125 -167.5t-203 -51.5q-89 0 -159.5 19.5t-124 60.5t-82.5 111t-29 165q0 211 134 323.5t394 112.5q134 0 234.5 -32t178 -104.5t117.5 -200t40 -308.5q0 -105 -20.5 -198.5t-65.5 -174.5t-111 -139t-162 -91.5t-213 -33.5z" />
    <glyph glyph-name="zero.tosf" horiz-adv-x="1249" 
d="M625 817q-185 0 -185 -272q0 -138 41 -207.5t140 -69.5q103 0 145.5 69.5t42.5 207.5q0 272 -184 272zM625 1126q263 0 407 -145.5t144 -435.5q0 -287 -142 -431.5t-409 -144.5t-409 144.5t-142 431.5q0 289 146 435t405 146z" />
    <glyph glyph-name="one.tosf" horiz-adv-x="1249" 
d="M1163 0h-1036v287h420v547q-79 -44 -177.5 -82.5t-179.5 -55.5l-71 271l530 131h246v-811h268v-287z" />
    <glyph glyph-name="two.tosf" horiz-adv-x="1249" 
d="M641 838q-81 0 -125.5 -53.5t-52.5 -151.5l-334 41q38 444 516 444q490 0 490 -358q0 -66 -20.5 -116.5t-54.5 -85t-96 -64t-126 -49t-162 -42.5q-183 -42 -236.5 -63.5t-60.5 -65.5q205 33 457 33h286v-307h-1022q-6 86 -6 178q0 69 16 121.5t43.5 90.5t78 69t106 53.5
t141.5 48.5q133 41 193 67t81 50t21 63q0 45 -32.5 71t-100.5 26z" />
    <glyph glyph-name="three.tosf" horiz-adv-x="1249" 
d="M635 -141q-260 0 -395.5 91.5t-153.5 297.5l356 37q5 -36 14 -59t29.5 -44t59 -31t96.5 -10q164 0 164 117q0 58 -34.5 84.5t-119.5 26.5h-207v243h209q72 0 101.5 23.5t29.5 83.5q0 65 -36 94t-115 29q-52 0 -85.5 -9.5t-51.5 -31t-26 -46t-11 -63.5l-340 27
q11 98 44.5 172t94.5 128t154 81.5t219 27.5q259 0 375 -82t116 -251q0 -122 -74.5 -191t-222.5 -96v-27q190 -17 265 -79.5t75 -192.5q0 -164 -128 -257t-402 -93z" />
    <glyph glyph-name="four.tosf" horiz-adv-x="1249" 
d="M1192 127h-135v-258h-348v258h-648v246l539 725h457v-690h135v-281zM387 385q161 20 322 23v428l-21 6l-313 -441z" />
    <glyph glyph-name="five.tosf" horiz-adv-x="1249" 
d="M623 129q100 0 139 33t39 94q0 133 -172 133q-120 0 -215 -63l-281 106v666h957v-332q-308 0 -639 29v-228q122 66 299 66q105 0 184.5 -29t128 -81.5t72.5 -120t24 -148.5q0 -209 -135 -307.5t-403 -98.5q-241 0 -374 80t-167 246l342 84q41 -129 201 -129z" />
    <glyph glyph-name="six.tosf" horiz-adv-x="1249" 
d="M647 532q-186 0 -186 -129q0 -135 188 -135q101 0 138.5 36.5t37.5 98.5q0 60 -37.5 94.5t-140.5 34.5zM1180 397q0 -205 -136 -314.5t-403 -109.5q-103 0 -186 19.5t-154 66t-118.5 119.5t-74 184t-26.5 256q0 133 33.5 246t100.5 201.5t178 139t255 50.5
q134 0 226.5 -24t149.5 -76.5t86 -124t40 -176.5l-350 -37q-14 73 -45.5 107t-110.5 34q-123 0 -169 -97.5t-46 -334.5l27 -4q42 118 127 165.5t215 47.5q85 0 152.5 -18.5t119.5 -57t80.5 -105t28.5 -157.5z" />
    <glyph glyph-name="seven.tosf" horiz-adv-x="1249" 
d="M129 772v326h1026v-326q-172 -184 -258.5 -405t-95.5 -498h-410q17 567 471 924q-175 -21 -332 -21h-401z" />
    <glyph glyph-name="eight.tosf" horiz-adv-x="1249" 
d="M627 -27q-282 0 -413.5 95t-131.5 262q0 117 75.5 183.5t235.5 94.5v27q-135 31 -201.5 96t-66.5 184q0 170 119.5 255t382.5 85q261 0 380 -85t119 -255q0 -119 -66.5 -184t-201.5 -96v-27q160 -28 235.5 -94.5t75.5 -183.5q0 -167 -130.5 -262t-411.5 -95zM627 496
q-102 0 -142.5 -28t-40.5 -89q0 -117 183 -117q180 0 180 117q0 61 -39.5 89t-140.5 28zM627 963q-84 0 -121 -27t-37 -90t37.5 -91t120.5 -28q82 0 118.5 28t36.5 91t-36.5 90t-118.5 27z" />
    <glyph glyph-name="nine.tosf" horiz-adv-x="1249" 
d="M618 545q94 0 137.5 40.5t43.5 110.5q0 66 -44.5 105t-138.5 39q-96 0 -138 -41.5t-42 -106.5q0 -62 45.5 -104.5t136.5 -42.5zM608 -147q-251 0 -372 89.5t-152 262.5l346 61q17 -61 60 -87.5t126 -26.5q122 0 167.5 90.5t47.5 314.5l-26 4q-43 -116 -125 -167.5
t-203 -51.5q-89 0 -159.5 19.5t-124 60.5t-82.5 111t-29 165q0 211 134 324t394 113q134 0 234.5 -32t178 -105t117.5 -200.5t40 -308.5q0 -132 -34 -245t-101 -201.5t-179 -139t-258 -50.5z" />
    <glyph glyph-name="dollar.osf" horiz-adv-x="1087" 
d="M444 1319h228l-15 -219q93 -9 160.5 -34t109 -64.5t65 -87.5t34.5 -111l-344 -70q-12 66 -44 94.5t-101 28.5q-113 0 -113 -63q0 -18 5.5 -30t24.5 -27t60 -29t107 -29q133 -29 219.5 -66t131.5 -84t62 -96.5t17 -116.5q0 -300 -394 -333l15 -236h-228l15 236
q-114 7 -196 34.5t-129 71.5t-70.5 95t-30.5 116l346 72q34 -142 184 -142q113 0 113 68q0 24 -13 40.5t-59.5 35t-134.5 37.5q-233 54 -323.5 133.5t-90.5 226.5t101.5 232t302.5 98z" />
    <glyph glyph-name="sterling.osf" horiz-adv-x="1155" 
d="M1102 0h-1071v299h180q10 49 10 100q0 23 -2 33h-188v162h135q-39 103 -39 182q0 157 123.5 251.5t357.5 94.5q105 0 187.5 -21t134 -54t87.5 -80.5t52.5 -94t22.5 -100.5l-320 -67q-16 66 -51 97t-107 32q-73 0 -110 -30t-37 -83q0 -42 25 -127h452v-162h-432
q-8 -66 -63 -133h653v-299z" />
    <glyph glyph-name="Euro.osf" horiz-adv-x="1247" 
d="M676 -33q-215 0 -352 109.5t-177 312.5h-116v117h104q-2 14 -2 47q0 31 2 45h-104v117h119q41 198 181.5 305.5t352.5 107.5q226 0 357.5 -111.5t154.5 -326.5l-319 -61q-18 114 -64.5 167.5t-140.5 53.5q-146 0 -195 -135h225v-117h-243q-2 -14 -2 -45q0 -33 2 -47h243
v-117h-227q44 -149 195 -149q98 0 143 52.5t68 170.5l317 -51q-23 -214 -159 -329.5t-363 -115.5z" />
    <glyph glyph-name="yen.osf" horiz-adv-x="1255" 
d="M1182 233h-369v-233h-369v233h-368v164h336l-68 115h-268v170h166l-226 379v22h418l176 -469h37l184 469h410v-22l-225 -379h166v-170h-269l-67 -115h336v-164z" />
    <glyph glyph-name="a.sc" horiz-adv-x="1171" 
d="M813 0l-51 188h-367l-53 -188h-369l365 1098h498l362 -1098h-385zM504 571l-39 -135h231l-37 135q-23 78 -59 230h-37q-8 -34 -18 -72t-22 -85t-19 -73z" />
    <glyph glyph-name="b.sc" horiz-adv-x="1128" 
d="M641 424h-207v-174h213q98 0 98 86q0 48 -21.5 68t-82.5 20zM606 840h-172v-189h164q67 0 95 22.5t28 76.5q0 49 -26 69.5t-89 20.5zM76 0v1098h530q239 0 347 -67t108 -214q0 -108 -63 -170.5t-189 -89.5v-16q166 -13 228.5 -65.5t62.5 -172.5q0 -303 -441 -303h-583z
" />
    <glyph glyph-name="c.sc" horiz-adv-x="1189" 
d="M612 -29q-270 0 -420.5 152.5t-150.5 429.5q0 274 156.5 423.5t425.5 149.5q231 0 364 -111t156 -327l-342 -61q-18 106 -60.5 153t-132.5 47q-109 0 -160 -77t-51 -197q0 -141 49.5 -214t161.5 -73q92 0 133 46.5t66 156.5l338 -55q-23 -213 -162.5 -328t-370.5 -115z
" />
    <glyph glyph-name="d.sc" horiz-adv-x="1222" 
d="M557 817h-123v-536h131q142 0 202 66t60 220q0 144 -59 197t-211 53zM76 0v1098h526q302 0 442 -134.5t140 -396.5q0 -263 -156.5 -415t-435.5 -152h-516z" />
    <glyph glyph-name="e.sc" horiz-adv-x="1064" 
d="M76 0v1098h921v-297h-563v-127h529v-244h-529v-133h563v-297h-921z" />
    <glyph glyph-name="f.sc" horiz-adv-x="1005" 
d="M930 297h-490v-297h-358v1098h883v-316h-525v-200h490v-285z" />
    <glyph glyph-name="g.sc" horiz-adv-x="1224" 
d="M457 -20q-86 0 -161 35t-133 102.5t-91 175t-33 242.5q0 287 145 439t428 152q237 0 356 -91.5t154 -284.5l-336 -68q-21 76 -58.5 110.5t-125.5 34.5q-110 0 -156.5 -71.5t-46.5 -220.5q0 -139 49.5 -208t165.5 -69q180 0 195 113h-205v237h541v-608h-326v233h-26
q-88 -253 -336 -253z" />
    <glyph glyph-name="h.sc" horiz-adv-x="1228" 
d="M1153 0h-358v393h-361v-393h-358v1098h358v-398h361v398h358v-1098z" />
    <glyph glyph-name="i.sc" horiz-adv-x="512" 
d="M434 0h-358v1098h358v-1098z" />
    <glyph glyph-name="j.sc" horiz-adv-x="620" 
d="M186 367v731h359v-729q0 -180 -89 -281.5t-280 -101.5q-76 0 -162 12l17 295q39 -10 80 -10q37 0 56 23t19 61z" />
    <glyph glyph-name="k.sc" horiz-adv-x="1136" 
d="M733 0l-239 379h-60v-379h-358v1098h358v-447h55l254 447h408v-21l-395 -534l393 -523v-20h-416z" />
    <glyph glyph-name="l.sc" horiz-adv-x="927" 
d="M76 1098h358v-811h455v-287h-813v1098z" />
    <glyph glyph-name="m.sc" horiz-adv-x="1605" 
d="M406 389v-389h-330v1098h573l92 -353q30 -109 74 -327h25q36 193 73 342l86 338h529v-1098h-359v389q0 62 2 136t6 162.5t5 133.5h-21q-63 -269 -131 -493l-82 -275h-321l-78 281q-63 224 -123 487h-25q5 -171 5 -432z" />
    <glyph glyph-name="n.sc" horiz-adv-x="1263" 
d="M713 0l-146 340q-72 161 -166 448l-20 -2q25 -363 25 -522v-264h-330v1098h502l120 -275q83 -183 160 -456l23 2q-23 311 -23 454v275h328v-1098h-473z" />
    <glyph glyph-name="o.sc" horiz-adv-x="1253" 
d="M627 -29q-279 0 -432.5 154.5t-153.5 427.5q0 271 158 422t428 151q273 0 429 -150.5t156 -422.5q0 -274 -153 -428t-432 -154zM625 266q124 0 177.5 72t53.5 217q0 132 -53.5 202t-175.5 70q-230 0 -230 -272q0 -143 53.5 -216t174.5 -73z" />
    <glyph glyph-name="p.sc" horiz-adv-x="1085" 
d="M549 809h-115v-270h119q84 0 121 33.5t37 101.5q0 69 -37.5 102t-124.5 33zM594 262h-160v-262h-358v1098h504q485 0 485 -422q0 -174 -126.5 -294t-344.5 -120z" />
    <glyph glyph-name="q.sc" horiz-adv-x="1255" 
d="M625 266q124 0 177.5 72t53.5 217q0 132 -53.5 202t-175.5 70q-230 0 -230 -272q0 -143 53.5 -216t174.5 -73zM627 -29q-279 0 -432.5 154.5t-153.5 427.5q0 271 158 422t428 151q273 0 429 -150.5t156 -422.5q0 -306 -188 -459l174 -237v-21h-383l-88 141
q-49 -6 -100 -6z" />
    <glyph glyph-name="r.sc" horiz-adv-x="1150" 
d="M582 811h-148v-229h154q79 0 109 25.5t30 86.5q0 63 -34.5 90t-110.5 27zM733 0l-184 330h-115v-330h-358v1098h532q230 0 351.5 -96.5t121.5 -292.5q0 -234 -188 -324l256 -365v-20h-416z" />
    <glyph glyph-name="s.sc" horiz-adv-x="1120" 
d="M567 -29q-493 0 -528 338l340 70q16 -71 71 -103t134 -32q131 0 131 59q0 28 -17 45.5t-71 34.5t-154 31q-229 34 -322.5 122t-93.5 240q0 171 125.5 260.5t376.5 89.5q448 0 492 -317l-357 -68q-14 65 -47 93t-108 28q-63 0 -93 -16t-30 -51q0 -18 5.5 -29t25.5 -25
t65.5 -26t118.5 -23q110 -18 190 -46t128.5 -61t77 -76.5t38.5 -86t10 -96.5q0 -355 -508 -355z" />
    <glyph glyph-name="t.sc" horiz-adv-x="997" 
d="M27 782v316h946v-316h-295v-782h-359v782h-292z" />
    <glyph glyph-name="u.sc" horiz-adv-x="1216" 
d="M608 276q98 0 137 46t39 141v635h359v-664q0 -220 -139 -340.5t-396 -120.5t-394.5 120t-137.5 341v664h358v-637q0 -93 38.5 -139t135.5 -46z" />
    <glyph glyph-name="v.sc" horiz-adv-x="1161" 
d="M825 0h-487l-365 1098h385l154 -572q3 -12 25.5 -98t33.5 -131h31q31 130 60 229l157 572h369z" />
    <glyph glyph-name="w.sc" horiz-adv-x="1658" 
d="M770 465l-49 -465h-490l-258 1098h385l70 -426q37 -215 55 -379h25q23 220 49 379l68 426h450l64 -426q28 -193 45 -379h26q7 59 54 379l59 426h363l-250 -1098h-516l-54 465q-13 126 -32 358h-25q-11 -130 -39 -358z" />
    <glyph glyph-name="x.sc" horiz-adv-x="1099" 
d="M705 0l-160 393h-15l-157 -393h-377v20l307 553l-303 504v21h399l168 -379h13l141 379h377v-21l-297 -555l303 -502v-20h-399z" />
    <glyph glyph-name="y.sc" horiz-adv-x="1077" 
d="M717 0h-359v334l-395 743v21h399l162 -473h29l172 473h387v-21l-395 -747v-330z" />
    <glyph glyph-name="z.sc" horiz-adv-x="1136" 
d="M1069 317v-317h-1006v287l531 504l-8 16q-195 -25 -291 -25h-217v316h981v-287l-539 -508l6 -10q171 24 262 24h281z" />
    <glyph glyph-name="aacute.sc" horiz-adv-x="1171" 
d="M813 0l-51 188h-367l-53 -188h-369l365 1098h498l362 -1098h-385zM463 1143l-86 166l489 280l121 -233zM504 571l-39 -135h231l-37 135q-23 78 -59 230h-37q-8 -34 -18 -72t-22 -85t-19 -73z" />
    <glyph glyph-name="abreve.sc" horiz-adv-x="1171" 
d="M813 0l-51 188h-367l-53 -188h-369l365 1098h498l362 -1098h-385zM586 1395q67 0 106.5 32.5t50.5 118.5h148q0 -192 -73.5 -276t-231.5 -84q-157 0 -231 84t-74 276h147q11 -86 51.5 -118.5t106.5 -32.5zM504 571l-39 -135h231l-37 135q-23 78 -59 230h-37
q-8 -34 -18 -72t-22 -85t-19 -73z" />
    <glyph glyph-name="acircumflex.sc" horiz-adv-x="1171" 
d="M813 0l-51 188h-367l-53 -188h-369l365 1098h498l362 -1098h-385zM813 1147l-227 172l-228 -172l-110 119l289 305h100l287 -305zM504 571l-39 -135h231l-37 135q-23 78 -59 230h-37q-8 -34 -18 -72t-22 -85t-19 -73z" />
    <glyph glyph-name="adieresis.sc" horiz-adv-x="1171" 
d="M813 0l-51 188h-367l-53 -188h-369l365 1098h498l362 -1098h-385zM274 1509h281v-272h-281v272zM616 1509h281v-272h-281v272zM504 571l-39 -135h231l-37 135q-23 78 -59 230h-37q-8 -34 -18 -72t-22 -85t-19 -73z" />
    <glyph glyph-name="agrave.sc" horiz-adv-x="1171" 
d="M813 0l-51 188h-367l-53 -188h-369l365 1098h498l362 -1098h-385zM752 1143l-525 213l121 233l490 -280zM504 571l-39 -135h231l-37 135q-23 78 -59 230h-37q-8 -34 -18 -72t-22 -85t-19 -73z" />
    <glyph glyph-name="amacron.sc" horiz-adv-x="1171" 
d="M813 0l-51 188h-367l-53 -188h-369l365 1098h498l362 -1098h-385zM309 1460h555v-227h-555v227zM504 571l-39 -135h231l-37 135q-23 78 -59 230h-37q-8 -34 -18 -72t-22 -85t-19 -73z" />
    <glyph glyph-name="aogonek.sc" horiz-adv-x="1171" 
d="M1198 -336q-75 -10 -127 -10q-248 0 -248 160q0 128 191 186h-201l-51 188h-367l-53 -188h-369l365 1098h498l362 -1098q-104 -18 -149 -38.5t-45 -53.5q0 -49 88 -49q31 0 106 14v-209zM504 571l-39 -135h231l-37 135q-23 78 -59 230h-37q-8 -34 -18 -72t-22 -85
t-19 -73z" />
    <glyph glyph-name="aring.sc" horiz-adv-x="1171" 
d="M813 0l-51 188h-367l-53 -188h-369l365 1098h498l362 -1098h-385zM496 1417q0 -43 24.5 -68.5t65.5 -25.5t65.5 26t24.5 70q0 42 -24.5 68t-65.5 26t-65.5 -26.5t-24.5 -69.5zM831 1419q0 -111 -65.5 -176t-179.5 -65t-180 65t-66 174q0 110 66.5 176t179.5 66t179 -66
t66 -174zM504 571l-39 -135h231l-37 135q-23 78 -59 230h-37q-8 -34 -18 -72t-22 -85t-19 -73z" />
    <glyph glyph-name="aringacute.sc" horiz-adv-x="1171" 
d="M393 1415l-51 160l485 182l72 -223zM494 1180q0 -38 24.5 -60t65.5 -22q42 0 66 22.5t24 61.5q0 38 -24.5 61t-65.5 23t-65.5 -23t-24.5 -63zM829 1182q0 -46 -12 -84h19l362 -1098h-385l-51 188h-367l-53 -188h-369l365 1098h12q-12 38 -12 82q0 105 66.5 168t179.5 63
t179 -62.5t66 -166.5zM504 571l-39 -135h231l-37 135q-23 78 -59 230h-37q-8 -34 -18 -72t-22 -85t-19 -73z" />
    <glyph glyph-name="atilde.sc" horiz-adv-x="1171" 
d="M813 0l-51 188h-367l-53 -188h-369l365 1098h498l362 -1098h-385zM440 1559q42 0 77.5 -16t59.5 -38.5t44 -45t40 -38.5t39 -16q39 0 52.5 32.5t13.5 108.5h139q6 -52 6 -96q0 -135 -48 -203.5t-136 -68.5q-46 0 -85 24t-62.5 52.5t-53 52.5t-57.5 24q-36 0 -49.5 -32
t-13.5 -109h-140q-6 50 -6 94q0 134 49 204.5t131 70.5zM504 571l-39 -135h231l-37 135q-23 78 -59 230h-37q-8 -34 -18 -72t-22 -85t-19 -73z" />
    <glyph glyph-name="ae.sc" horiz-adv-x="1675" 
d="M553 569l-49 -135h182v389h-57q-47 -175 -76 -254zM686 0v180h-276l-66 -180h-371l451 1098h1184v-297h-564v-127h529v-244h-529v-133h564v-297h-922z" />
    <glyph glyph-name="aeacute.sc" horiz-adv-x="1675" 
d="M793 1133l-86 165l489 281l121 -233zM686 0v180h-276l-66 -180h-371l451 1098h1184v-297h-564v-127h529v-244h-529v-133h564v-297h-922zM553 569l-49 -135h182v389h-57q-47 -175 -76 -254z" />
    <glyph glyph-name="cacute.sc" horiz-adv-x="1189" 
d="M612 -29q-270 0 -420.5 152.5t-150.5 429.5q0 274 156.5 423.5t425.5 149.5q231 0 364 -111t156 -327l-342 -61q-18 106 -60.5 153t-132.5 47q-109 0 -160 -77t-51 -197q0 -141 49.5 -214t161.5 -73q92 0 133 46.5t66 156.5l338 -55q-23 -213 -162.5 -328t-370.5 -115z
M471 1171l-86 166l489 281l121 -234z" />
    <glyph glyph-name="ccaron.sc" horiz-adv-x="1189" 
d="M612 -29q-270 0 -420.5 152.5t-150.5 429.5q0 274 156.5 423.5t425.5 149.5q231 0 364 -111t156 -327l-342 -61q-18 106 -60.5 153t-132.5 47q-109 0 -160 -77t-51 -197q0 -141 49.5 -214t161.5 -73q92 0 133 46.5t66 156.5l338 -55q-23 -213 -162.5 -328t-370.5 -115z
M643 1202h-100l-287 305l111 119l227 -174l227 174l111 -119z" />
    <glyph glyph-name="ccedilla.sc" horiz-adv-x="1189" 
d="M612 -29h-6l-22 -59q25 10 65 10q148 0 148 -127q0 -53 -46 -96t-149 -43q-129 0 -209 55l60 96q72 -45 149 -45q60 0 60 45q0 43 -64 43q-34 0 -70 -12l-79 31l38 113q-213 32 -329.5 180t-116.5 391q0 274 156.5 423.5t425.5 149.5q231 0 364 -111t156 -327l-342 -61
q-18 106 -60.5 153t-132.5 47q-109 0 -160 -77t-51 -197q0 -141 49.5 -214t161.5 -73q92 0 133 46.5t66 156.5l338 -55q-23 -213 -162.5 -328t-370.5 -115z" />
    <glyph glyph-name="ccircumflex.sc" horiz-adv-x="1189" 
d="M612 -29q-270 0 -420.5 152.5t-150.5 429.5q0 274 156.5 423.5t425.5 149.5q231 0 364 -111t156 -327l-342 -61q-18 106 -60.5 153t-132.5 47q-109 0 -160 -77t-51 -197q0 -141 49.5 -214t161.5 -73q92 0 133 46.5t66 156.5l338 -55q-23 -213 -162.5 -328t-370.5 -115z
M821 1176l-227 172l-227 -172l-111 118l289 305h100l287 -305z" />
    <glyph glyph-name="cdotaccent.sc" horiz-adv-x="1189" 
d="M612 -29q-270 0 -420.5 152.5t-150.5 429.5q0 274 156.5 423.5t425.5 149.5q231 0 364 -111t156 -327l-342 -61q-18 106 -60.5 153t-132.5 47q-109 0 -160 -77t-51 -197q0 -141 49.5 -214t161.5 -73q92 0 133 46.5t66 156.5l338 -55q-23 -213 -162.5 -328t-370.5 -115z
M436 1554h314v-299h-314v299z" />
    <glyph glyph-name="dcaron.sc" horiz-adv-x="1222" 
d="M557 817h-123v-536h131q142 0 202 66t60 220q0 144 -59 197t-211 53zM76 0v1098h526q302 0 442 -134.5t140 -396.5q0 -263 -156.5 -415t-435.5 -152h-516zM668 1174h-101l-286 305l110 118l227 -174l228 174l110 -118z" />
    <glyph glyph-name="dcroat.sc" horiz-adv-x="1271" 
d="M666 444h-189v-163h131q142 0 202 66t60 220q0 144 -59 197t-211 53h-123v-172h189v-201zM119 0v444h-90v201h90v453h526q302 0 442 -134.5t140 -396.5q0 -263 -156.5 -415t-435.5 -152h-516z" />
    <glyph glyph-name="eacute.sc" horiz-adv-x="1064" 
d="M76 0v1098h921v-297h-563v-127h529v-244h-529v-133h563v-297h-921zM414 1143l-86 166l489 280l121 -233z" />
    <glyph glyph-name="ebreve.sc" horiz-adv-x="1064" 
d="M76 0v1098h921v-297h-563v-127h529v-244h-529v-133h563v-297h-921zM537 1395q67 0 106.5 32.5t50.5 118.5h148q0 -192 -73.5 -276t-231.5 -84q-157 0 -231.5 84.5t-74.5 275.5h148q11 -86 51.5 -118.5t106.5 -32.5z" />
    <glyph glyph-name="ecaron.sc" horiz-adv-x="1064" 
d="M76 0v1098h921v-297h-563v-127h529v-244h-529v-133h563v-297h-921zM586 1174h-101l-286 305l110 118l228 -174l227 174l110 -118z" />
    <glyph glyph-name="ecircumflex.sc" horiz-adv-x="1064" 
d="M76 0v1098h921v-297h-563v-127h529v-244h-529v-133h563v-297h-921zM764 1147l-227 172l-228 -172l-110 119l288 305h101l286 -305z" />
    <glyph glyph-name="edieresis.sc" horiz-adv-x="1064" 
d="M76 0v1098h921v-297h-563v-127h529v-244h-529v-133h563v-297h-921zM225 1509h281v-272h-281v272zM567 1509h281v-272h-281v272z" />
    <glyph glyph-name="edotaccent.sc" horiz-adv-x="1064" 
d="M76 0v1098h921v-297h-563v-127h529v-244h-529v-133h563v-297h-921zM381 1526h313v-299h-313v299z" />
    <glyph glyph-name="egrave.sc" horiz-adv-x="1064" 
d="M76 0v1098h921v-297h-563v-127h529v-244h-529v-133h563v-297h-921zM702 1143l-524 213l121 233l489 -280z" />
    <glyph glyph-name="emacron.sc" horiz-adv-x="1064" 
d="M76 0v1098h921v-297h-563v-127h529v-244h-529v-133h563v-297h-921zM260 1460h555v-227h-555v227z" />
    <glyph glyph-name="eng.sc" horiz-adv-x="1261" 
d="M76 0v1098h502l131 -275q88 -180 163 -385l13 2q-27 272 -27 383v275h328v-1069q0 -359 -385 -359q-84 0 -172 15l16 288q72 -16 115 -16q67 0 86 39l-232 326q-44 61 -106 201.5t-109 277.5l-18 -2q25 -362 25 -535v-264h-330z" />
    <glyph glyph-name="eogonek.sc" horiz-adv-x="1064" 
d="M999 -336q-75 -10 -127 -10q-247 0 -247 160q0 128 190 186h-739v1098h921v-297h-563v-127h529v-244h-529v-133h563v-295l2 -2q-104 -18 -149 -38.5t-45 -53.5q0 -49 88 -49q31 0 106 14v-209z" />
    <glyph glyph-name="eth.sc" horiz-adv-x="1271" 
d="M666 444h-189v-163h131q142 0 202 66t60 220q0 144 -59 197t-211 53h-123v-172h189v-201zM119 0v444h-90v201h90v453h526q302 0 442 -134.5t140 -396.5q0 -263 -156.5 -415t-435.5 -152h-516z" />
    <glyph glyph-name="fi.sc" horiz-adv-x="1517" 
d="M930 297h-490v-297h-358v1098h883v-316h-525v-200h490v-285zM1440 0h-359v1098h359v-1098z" />
    <glyph glyph-name="fl.sc" horiz-adv-x="1933" 
d="M930 297h-490v-297h-358v1098h883v-316h-525v-200h490v-285zM1081 1098h359v-811h454v-287h-813v1098z" />
    <glyph glyph-name="gbreve.sc" horiz-adv-x="1224" 
d="M457 -20q-86 0 -161 35t-133 102.5t-91 175t-33 242.5q0 287 145 439t428 152q237 0 356 -91.5t154 -284.5l-336 -68q-21 76 -58.5 110.5t-125.5 34.5q-110 0 -156.5 -71.5t-46.5 -220.5q0 -139 49.5 -208t165.5 -69q180 0 195 113h-205v237h541v-608h-326v233h-26
q-88 -253 -336 -253zM592 1423q67 0 107 33t51 119h147q0 -192 -73.5 -276.5t-231.5 -84.5q-157 0 -231 84.5t-74 276.5h147q11 -86 51.5 -119t106.5 -33z" />
    <glyph glyph-name="gcircumflex.sc" horiz-adv-x="1224" 
d="M457 -20q-86 0 -161 35t-133 102.5t-91 175t-33 242.5q0 287 145 439t428 152q237 0 356 -91.5t154 -284.5l-336 -68q-21 76 -58.5 110.5t-125.5 34.5q-110 0 -156.5 -71.5t-46.5 -220.5q0 -139 49.5 -208t165.5 -69q180 0 195 113h-205v237h541v-608h-326v233h-26
q-88 -253 -336 -253zM819 1176l-227 172l-227 -172l-111 118l289 305h100l287 -305z" />
    <glyph glyph-name="gcommaaccent.sc" horiz-adv-x="1224" 
d="M457 -20q-86 0 -161 35t-133 102.5t-91 175t-33 242.5q0 287 145 439t428 152q237 0 356 -91.5t154 -284.5l-336 -68q-21 76 -58.5 110.5t-125.5 34.5q-110 0 -156.5 -71.5t-46.5 -220.5q0 -139 49.5 -208t165.5 -69q180 0 195 113h-205v237h541v-608h-326v233h-26
q-88 -253 -336 -253zM496 -98h258l-119 -320h-213v19z" />
    <glyph glyph-name="gdotaccent.sc" horiz-adv-x="1224" 
d="M457 -20q-86 0 -161 35t-133 102.5t-91 175t-33 242.5q0 287 145 439t428 152q237 0 356 -91.5t154 -284.5l-336 -68q-21 76 -58.5 110.5t-125.5 34.5q-110 0 -156.5 -71.5t-46.5 -220.5q0 -139 49.5 -208t165.5 -69q180 0 195 113h-205v237h541v-608h-326v233h-26
q-88 -253 -336 -253zM436 1554h314v-299h-314v299z" />
    <glyph glyph-name="hbar.sc" horiz-adv-x="1298" 
d="M823 598v129h-358v-129h358zM1182 0h-359v311h-358v-311h-359v727h-92v191h92v180h359v-180h358v180h359v-180h102v-191h-102v-727z" />
    <glyph glyph-name="hcircumflex.sc" horiz-adv-x="1228" 
d="M1153 0h-358v393h-361v-393h-358v1098h358v-398h361v398h358v-1098zM842 1147l-228 172l-227 -172l-111 119l289 305h101l286 -305z" />
    <glyph glyph-name="iacute.sc" horiz-adv-x="512" 
d="M434 0h-358v1098h358v-1098zM133 1143l-86 166l490 280l120 -233z" />
    <glyph glyph-name="ibreve.sc" horiz-adv-x="512" 
d="M434 0h-358v1098h358v-1098zM254 1395q67 0 107 32.5t51 118.5h147q0 -192 -73.5 -276t-231.5 -84q-157 0 -231 84t-74 276h147q11 -86 51.5 -118.5t106.5 -32.5z" />
    <glyph glyph-name="icircumflex.sc" horiz-adv-x="512" 
d="M434 0h-358v1098h358v-1098zM483 1147l-227 172l-227 -172l-111 119l289 305h100l287 -305z" />
    <glyph glyph-name="idieresis.sc" horiz-adv-x="512" 
d="M434 0h-358v1098h358v-1098zM-55 1509h280v-272h-280v272zM287 1509h280v-272h-280v272z" />
    <glyph glyph-name="igrave.sc" horiz-adv-x="512" 
d="M434 0h-358v1098h358v-1098zM420 1143l-524 213l120 233l490 -280z" />
    <glyph glyph-name="ij.sc" horiz-adv-x="1132" 
d="M434 0h-358v1098h358v-1098zM698 367v731h359v-729q0 -180 -89 -281.5t-280 -101.5q-76 0 -162 12l17 295q39 -10 80 -10q37 0 56 23t19 61z" />
    <glyph glyph-name="imacron.sc" horiz-adv-x="512" 
d="M434 0h-358v1098h358v-1098zM-23 1460h555v-227h-555v227z" />
    <glyph glyph-name="iogonek.sc" horiz-adv-x="512" 
d="M309 -346q-248 0 -248 160q0 128 191 186h-176v1098h358v-1096l2 -2q-104 -18 -149 -38.5t-45 -53.5q0 -49 88 -49q31 0 106 14v-209q-75 -10 -127 -10z" />
    <glyph glyph-name="itilde.sc" horiz-adv-x="512" 
d="M434 0h-358v1098h358v-1098zM111 1559q42 0 77.5 -16t59.5 -38.5t44 -45t40 -38.5t39 -16q39 0 52 32.5t13 108.5h139q7 -61 7 -96q0 -135 -48.5 -203.5t-136.5 -68.5q-46 0 -85 24t-62.5 52.5t-53 52.5t-57.5 24q-36 0 -49.5 -32t-13.5 -109h-139q-7 58 -7 94
q0 134 49.5 204.5t131.5 70.5z" />
    <glyph glyph-name="jcircumflex.sc" horiz-adv-x="620" 
d="M186 367v731h359v-729q0 -180 -89 -281.5t-280 -101.5q-76 0 -162 12l17 295q39 -10 80 -10q37 0 56 23t19 61zM588 1147l-228 172l-227 -172l-110 119l288 305h101l286 -305z" />
    <glyph glyph-name="kcommaaccent.sc" horiz-adv-x="1136" 
d="M733 0l-239 379h-60v-379h-358v1098h358v-447h55l254 447h408v-21l-395 -534l393 -523v-20h-416zM516 -98h258l-119 -320h-213v19z" />
    <glyph glyph-name="lacute.sc" horiz-adv-x="927" 
d="M236 1143l-86 166l489 280l121 -233zM76 1098h358v-811h455v-287h-813v1098z" />
    <glyph glyph-name="lcaron.sc" horiz-adv-x="956" 
d="M657 1098h254l-67 -518h-213zM76 1098h358v-811h455v-287h-813v1098z" />
    <glyph glyph-name="lcommaaccent.sc" horiz-adv-x="927" 
d="M76 1098h358v-811h455v-287h-813v1098zM385 -98h258l-119 -320h-213v19z" />
    <glyph glyph-name="ldot.sc" horiz-adv-x="929" 
d="M578 809h274v-262h-274v262zM76 1098h358v-811h455v-287h-813v1098z" />
    <glyph glyph-name="lslash.sc" horiz-adv-x="962" 
d="M111 1098h358v-369l213 88v-207l-213 -88v-235h455v-287h-813v375l-93 -37v205l93 39v516z" />
    <glyph glyph-name="nacute.sc" horiz-adv-x="1263" 
d="M713 0l-146 340q-72 161 -166 448l-20 -2q25 -363 25 -522v-264h-330v1098h502l120 -275q83 -183 160 -456l23 2q-23 311 -23 454v275h328v-1098h-473zM508 1143l-86 166l489 280l121 -233z" />
    <glyph glyph-name="ncaron.sc" horiz-adv-x="1263" 
d="M713 0l-146 340q-72 161 -166 448l-20 -2q25 -363 25 -522v-264h-330v1098h502l120 -275q83 -183 160 -456l23 2q-23 311 -23 454v275h328v-1098h-473zM680 1174h-100l-287 305l110 118l228 -174l227 174l111 -118z" />
    <glyph glyph-name="ncommaaccent.sc" horiz-adv-x="1263" 
d="M713 0l-146 340q-72 161 -166 448l-20 -2q25 -363 25 -522v-264h-330v1098h502l120 -275q83 -183 160 -456l23 2q-23 311 -23 454v275h328v-1098h-473zM535 -98h258l-119 -320h-213v19z" />
    <glyph glyph-name="ntilde.sc" horiz-adv-x="1263" 
d="M713 0l-146 340q-72 161 -166 448l-20 -2q25 -363 25 -522v-264h-330v1098h502l120 -275q83 -183 160 -456l23 2q-23 311 -23 454v275h328v-1098h-473zM485 1559q42 0 77.5 -16t59.5 -38.5t44 -45t40 -38.5t39 -16q39 0 52.5 32.5t13.5 108.5h139q6 -52 6 -96
q0 -135 -48 -203.5t-136 -68.5q-46 0 -85 24t-62.5 52.5t-53 52.5t-57.5 24q-36 0 -49.5 -32t-13.5 -109h-140q-6 50 -6 94q0 134 49 204.5t131 70.5z" />
    <glyph glyph-name="oacute.sc" horiz-adv-x="1253" 
d="M627 -29q-279 0 -432.5 154.5t-153.5 427.5q0 271 158 422t428 151q273 0 429 -150.5t156 -422.5q0 -274 -153 -428t-432 -154zM625 266q124 0 177.5 72t53.5 217q0 132 -53.5 202t-175.5 70q-230 0 -230 -272q0 -143 53.5 -216t174.5 -73zM504 1171l-86 166l489 281
l121 -234z" />
    <glyph glyph-name="obreve.sc" horiz-adv-x="1253" 
d="M627 -29q-279 0 -432.5 154.5t-153.5 427.5q0 271 158 422t428 151q273 0 429 -150.5t156 -422.5q0 -274 -153 -428t-432 -154zM625 266q124 0 177.5 72t53.5 217q0 132 -53.5 202t-175.5 70q-230 0 -230 -272q0 -143 53.5 -216t174.5 -73zM627 1423q67 0 106.5 33
t50.5 119h148q0 -192 -73.5 -276.5t-231.5 -84.5q-157 0 -231 84.5t-74 276.5h147q11 -86 51.5 -119t106.5 -33z" />
    <glyph glyph-name="ocircumflex.sc" horiz-adv-x="1253" 
d="M625 266q124 0 177.5 72t53.5 217q0 132 -53.5 202t-175.5 70q-230 0 -230 -272q0 -143 53.5 -216t174.5 -73zM627 -29q-279 0 -432.5 154.5t-153.5 427.5q0 271 158 422t428 151q273 0 429 -150.5t156 -422.5q0 -274 -153 -428t-432 -154zM854 1176l-227 172l-228 -172
l-110 118l289 305h100l287 -305z" />
    <glyph glyph-name="odieresis.sc" horiz-adv-x="1253" 
d="M627 -29q-279 0 -432.5 154.5t-153.5 427.5q0 271 158 422t428 151q273 0 429 -150.5t156 -422.5q0 -274 -153 -428t-432 -154zM625 266q124 0 177.5 72t53.5 217q0 132 -53.5 202t-175.5 70q-230 0 -230 -272q0 -143 53.5 -216t174.5 -73zM315 1538h281v-272h-281v272z
M657 1538h281v-272h-281v272z" />
    <glyph glyph-name="ograve.sc" horiz-adv-x="1253" 
d="M627 -29q-279 0 -432.5 154.5t-153.5 427.5q0 271 158 422t428 151q273 0 429 -150.5t156 -422.5q0 -274 -153 -428t-432 -154zM625 266q124 0 177.5 72t53.5 217q0 132 -53.5 202t-175.5 70q-230 0 -230 -272q0 -143 53.5 -216t174.5 -73zM793 1171l-525 213l121 234
l490 -281z" />
    <glyph glyph-name="ohungarumlaut.sc" horiz-adv-x="1253" 
d="M627 -29q-279 0 -432.5 154.5t-153.5 427.5q0 271 158 422t428 151q273 0 429 -150.5t156 -422.5q0 -274 -153 -428t-432 -154zM625 266q124 0 177.5 72t53.5 217q0 132 -53.5 202t-175.5 70q-230 0 -230 -272q0 -143 53.5 -216t174.5 -73zM498 1188l-144 80l170 346
l189 -105zM784 1190l-133 96l207 326l178 -119z" />
    <glyph glyph-name="omacron.sc" horiz-adv-x="1253" 
d="M627 -29q-279 0 -432.5 154.5t-153.5 427.5q0 271 158 422t428 151q273 0 429 -150.5t156 -422.5q0 -274 -153 -428t-432 -154zM625 266q124 0 177.5 72t53.5 217q0 132 -53.5 202t-175.5 70q-230 0 -230 -272q0 -143 53.5 -216t174.5 -73zM350 1489h555v-227h-555v227z
" />
    <glyph glyph-name="oslash.sc" horiz-adv-x="1251" 
d="M371 555q0 -78 14 -133l373 397q-52 27 -133 27q-254 0 -254 -291zM625 -29q-201 0 -334 80l-43 -51h-258v12l162 160q-115 145 -115 381q0 268 159.5 420.5t428.5 152.5q201 0 342 -84l49 56h252v-11l-166 -163q110 -144 110 -371q0 -273 -154 -427.5t-433 -154.5z
M623 246q137 0 197.5 77.5t60.5 231.5q0 58 -13 115l-372 -398q48 -26 127 -26z" />
    <glyph glyph-name="oslashacute.sc" horiz-adv-x="1253" 
d="M371 555q0 -78 14 -133l373 397q-52 27 -133 27q-254 0 -254 -291zM625 -29q-201 0 -334 80l-43 -51h-258v12l162 160q-115 145 -115 381q0 268 159.5 420.5t428.5 152.5q201 0 342 -84l49 56h252v-11l-166 -163q110 -144 110 -371q0 -273 -154 -427.5t-433 -154.5z
M494 1161l-86 166l489 281l121 -234zM623 246q137 0 197.5 77.5t60.5 231.5q0 58 -13 115l-372 -398q48 -26 127 -26z" />
    <glyph glyph-name="otilde.sc" horiz-adv-x="1253" 
d="M627 -29q-279 0 -432.5 154.5t-153.5 427.5q0 271 158 422t428 151q273 0 429 -150.5t156 -422.5q0 -274 -153 -428t-432 -154zM625 266q124 0 177.5 72t53.5 217q0 132 -53.5 202t-175.5 70q-230 0 -230 -272q0 -143 53.5 -216t174.5 -73zM481 1587q42 0 77.5 -16
t59.5 -38.5t44 -44.5t40 -38t39 -16q39 0 52.5 32.5t13.5 108.5h139q6 -53 6 -96q0 -136 -48 -204.5t-136 -68.5q-46 0 -85 24t-62.5 53t-53 53t-57.5 24q-36 0 -50 -32t-14 -109h-139q-6 49 -6 94q0 134 49 204t131 70z" />
    <glyph glyph-name="oe.sc" horiz-adv-x="1796" 
d="M639 289h74v522h-72q-124 0 -184 -67t-60 -189q0 -133 59.5 -199.5t182.5 -66.5zM641 0q-281 0 -440.5 147t-159.5 406q0 255 164 400t436 145h993v-297h-563v-127h528v-244h-528v-133h563v-297h-993z" />
    <glyph glyph-name="racute.sc" horiz-adv-x="1150" 
d="M582 811h-148v-229h154q79 0 109 25.5t30 86.5q0 63 -34.5 90t-110.5 27zM733 0l-184 330h-115v-330h-358v1098h532q230 0 351.5 -96.5t121.5 -292.5q0 -234 -188 -324l256 -365v-20h-416zM489 1143l-86 166l490 280l121 -233z" />
    <glyph glyph-name="rcaron.sc" horiz-adv-x="1150" 
d="M582 811h-148v-229h154q79 0 109 25.5t30 86.5q0 63 -34.5 90t-110.5 27zM733 0l-184 330h-115v-330h-358v1098h532q230 0 351.5 -96.5t121.5 -292.5q0 -234 -188 -324l256 -365v-20h-416zM616 1176h-100l-287 305l111 118l227 -174l228 174l110 -118z" />
    <glyph glyph-name="rcommaaccent.sc" horiz-adv-x="1150" 
d="M516 -98h258l-119 -320h-213v19zM582 811h-148v-229h154q79 0 109 25.5t30 86.5q0 63 -34.5 90t-110.5 27zM733 0l-184 330h-115v-330h-358v1098h532q230 0 351.5 -96.5t121.5 -292.5q0 -234 -188 -324l256 -365v-20h-416z" />
    <glyph glyph-name="sacute.sc" horiz-adv-x="1120" 
d="M567 -29q-493 0 -528 338l340 70q16 -71 71 -103t134 -32q131 0 131 59q0 28 -17 45.5t-71 34.5t-154 31q-229 34 -322.5 122t-93.5 240q0 171 125.5 260.5t376.5 89.5q448 0 492 -317l-357 -68q-14 65 -47 93t-108 28q-63 0 -93 -16t-30 -51q0 -18 5.5 -29t25.5 -25
t65.5 -26t118.5 -23q110 -18 190 -46t128.5 -61t77 -76.5t38.5 -86t10 -96.5q0 -355 -508 -355zM434 1171l-86 166l490 281l120 -234z" />
    <glyph glyph-name="scaron.sc" horiz-adv-x="1120" 
d="M567 -29q-493 0 -528 338l340 70q16 -71 71 -103t134 -32q131 0 131 59q0 28 -17 45.5t-71 34.5t-154 31q-229 34 -322.5 122t-93.5 240q0 171 125.5 260.5t376.5 89.5q448 0 492 -317l-357 -68q-14 65 -47 93t-108 28q-63 0 -93 -16t-30 -51q0 -18 5.5 -29t25.5 -25
t65.5 -26t118.5 -23q110 -18 190 -46t128.5 -61t77 -76.5t38.5 -86t10 -96.5q0 -355 -508 -355zM606 1202h-100l-287 305l111 119l227 -174l227 174l111 -119z" />
    <glyph glyph-name="scedilla.sc" horiz-adv-x="1120" 
d="M565 -344q-129 0 -209 55l60 96q72 -45 149 -45q60 0 60 45q0 43 -64 43q-33 0 -69 -12l-80 31l39 108q-381 36 -412 332l340 70q16 -71 71 -103t134 -32q131 0 131 59q0 28 -17 45.5t-71 34.5t-154 31q-229 34 -322.5 122t-93.5 240q0 171 125.5 260.5t376.5 89.5
q448 0 492 -317l-357 -68q-14 65 -47 93t-108 28q-63 0 -93 -16t-30 -51q0 -18 5.5 -29t25.5 -25t65.5 -26t118.5 -23q110 -18 190 -46t128.5 -61t77 -76.5t38.5 -86t10 -96.5q0 -355 -506 -355l-22 -59q25 10 65 10q148 0 148 -127q0 -53 -46 -96t-149 -43z" />
    <glyph glyph-name="scircumflex.sc" horiz-adv-x="1120" 
d="M567 -29q-493 0 -528 338l340 70q16 -71 71 -103t134 -32q131 0 131 59q0 28 -17 45.5t-71 34.5t-154 31q-229 34 -322.5 122t-93.5 240q0 171 125.5 260.5t376.5 89.5q448 0 492 -317l-357 -68q-14 65 -47 93t-108 28q-63 0 -93 -16t-30 -51q0 -18 5.5 -29t25.5 -25
t65.5 -26t118.5 -23q110 -18 190 -46t128.5 -61t77 -76.5t38.5 -86t10 -96.5q0 -355 -508 -355zM784 1176l-227 172l-227 -172l-111 118l289 305h100l287 -305z" />
    <glyph glyph-name="scommaaccent.sc" horiz-adv-x="1120" 
d="M567 -29q-493 0 -528 338l340 70q16 -71 71 -103t134 -32q131 0 131 59q0 28 -17 45.5t-71 34.5t-154 31q-229 34 -322.5 122t-93.5 240q0 171 125.5 260.5t376.5 89.5q448 0 492 -317l-357 -68q-14 65 -47 93t-108 28q-63 0 -93 -16t-30 -51q0 -18 5.5 -29t25.5 -25
t65.5 -26t118.5 -23q110 -18 190 -46t128.5 -61t77 -76.5t38.5 -86t10 -96.5q0 -355 -508 -355zM461 -98h258l-119 -320h-213v19z" />
    <glyph glyph-name="tbar.sc" horiz-adv-x="1001" 
d="M27 782v316h946v-316h-295v-252h225v-186h-225v-344h-359v344h-215v186h215v252h-292z" />
    <glyph glyph-name="tcaron.sc" horiz-adv-x="997" 
d="M973 782h-295v-782h-359v782h-292v316h946v-316zM549 1176h-100l-287 305l110 118l228 -174l227 174l111 -118z" />
    <glyph glyph-name="tcommaaccent.sc" horiz-adv-x="997" 
d="M27 782v316h946v-316h-295v-782h-168l-33 -88q25 10 66 10q147 0 147 -127q0 -53 -45.5 -96t-148.5 -43q-129 0 -209 55l59 96q72 -45 150 -45q59 0 59 45q0 43 -63 43q-34 0 -70 -12l-80 31l47 131h-70v782h-292z" />
    <glyph glyph-name="uni021B.sc" horiz-adv-x="997" 
d="M27 782v316h946v-316h-295v-782h-359v782h-292zM401 -98h258l-118 -320h-213v19z" />
    <glyph glyph-name="thorn.sc" horiz-adv-x="1120" 
d="M78 1098h354v-123h180q486 0 486 -422q0 -197 -123 -311.5t-357 -114.5h-186v-127h-354v1098zM584 686h-152v-270h154q82 0 120.5 33.5t38.5 101.5t-38.5 101.5t-122.5 33.5z" />
    <glyph glyph-name="uacute.sc" horiz-adv-x="1216" 
d="M608 276q98 0 137 46t39 141v635h359v-664q0 -220 -139 -340.5t-396 -120.5t-394.5 120t-137.5 341v664h358v-637q0 -93 38.5 -139t135.5 -46zM485 1143l-86 166l490 280l121 -233z" />
    <glyph glyph-name="ubreve.sc" horiz-adv-x="1216" 
d="M608 276q98 0 137 46t39 141v635h359v-664q0 -220 -139 -340.5t-396 -120.5t-394.5 120t-137.5 341v664h358v-637q0 -93 38.5 -139t135.5 -46zM608 1395q67 0 107 32.5t51 118.5h147q0 -192 -73.5 -276t-231.5 -84q-157 0 -231 84t-74 276h148q11 -86 51 -118.5
t106 -32.5z" />
    <glyph glyph-name="ucircumflex.sc" horiz-adv-x="1216" 
d="M608 276q98 0 137 46t39 141v635h359v-664q0 -220 -139 -340.5t-396 -120.5t-394.5 120t-137.5 341v664h358v-637q0 -93 38.5 -139t135.5 -46zM838 1147l-228 172l-227 -172l-111 119l289 305h101l286 -305z" />
    <glyph glyph-name="udieresis.sc" horiz-adv-x="1216" 
d="M608 276q98 0 137 46t39 141v635h359v-664q0 -220 -139 -340.5t-396 -120.5t-394.5 120t-137.5 341v664h358v-637q0 -93 38.5 -139t135.5 -46zM297 1509h281v-272h-281v272zM639 1509h281v-272h-281v272z" />
    <glyph glyph-name="ugrave.sc" horiz-adv-x="1216" 
d="M608 276q98 0 137 46t39 141v635h359v-664q0 -220 -139 -340.5t-396 -120.5t-394.5 120t-137.5 341v664h358v-637q0 -93 38.5 -139t135.5 -46zM774 1143l-524 213l121 233l489 -280z" />
    <glyph glyph-name="uhungarumlaut.sc" horiz-adv-x="1216" 
d="M608 276q98 0 137 46t39 141v635h359v-664q0 -220 -139 -340.5t-396 -120.5t-394.5 120t-137.5 341v664h358v-637q0 -93 38.5 -139t135.5 -46zM481 1159l-143 80l170 346l188 -104zM768 1161l-133 96l207 326l178 -119z" />
    <glyph glyph-name="umacron.sc" horiz-adv-x="1216" 
d="M608 276q98 0 137 46t39 141v635h359v-664q0 -220 -139 -340.5t-396 -120.5t-394.5 120t-137.5 341v664h358v-637q0 -93 38.5 -139t135.5 -46zM332 1460h555v-227h-555v227z" />
    <glyph glyph-name="uogonek.sc" horiz-adv-x="1216" 
d="M608 276q98 0 137 46t39 141v635h359v-664q0 -202 -117.5 -320t-337.5 -137q-86 -26 -86 -69q0 -49 88 -49q32 0 107 14v-209q-75 -10 -127 -10q-248 0 -248 160q0 102 125 161q-228 13 -349.5 133t-121.5 326v664h358v-637q0 -93 38.5 -139t135.5 -46z" />
    <glyph glyph-name="uring.sc" horiz-adv-x="1216" 
d="M608 276q98 0 137 46t39 141v635h359v-664q0 -220 -139 -340.5t-396 -120.5t-394.5 120t-137.5 341v664h358v-637q0 -93 38.5 -139t135.5 -46zM854 1419q0 -111 -66 -176t-180 -65t-180 65t-66 174q0 110 66.5 176t179.5 66t179.5 -66t66.5 -174zM518 1417
q0 -43 24.5 -68.5t65.5 -25.5t65.5 26t24.5 70q0 42 -24.5 68t-65.5 26t-65.5 -26.5t-24.5 -69.5z" />
    <glyph glyph-name="utilde.sc" horiz-adv-x="1216" 
d="M608 276q98 0 137 46t39 141v635h359v-664q0 -220 -139 -340.5t-396 -120.5t-394.5 120t-137.5 341v664h358v-637q0 -93 38.5 -139t135.5 -46zM465 1559q42 0 77.5 -16t59.5 -38.5t44 -45t40 -38.5t39 -16q39 0 52.5 32.5t13.5 108.5h139q6 -52 6 -96q0 -135 -48 -203.5
t-136 -68.5q-46 0 -85 24t-62.5 52.5t-53 52.5t-57.5 24q-36 0 -50 -32t-14 -109h-139q-6 50 -6 94q0 134 49 204.5t131 70.5z" />
    <glyph glyph-name="wacute.sc" horiz-adv-x="1658" 
d="M770 465l-49 -465h-490l-258 1098h385l70 -426q37 -215 55 -379h25q23 220 49 379l68 426h450l64 -426q28 -193 45 -379h26q7 59 54 379l59 426h363l-250 -1098h-516l-54 465q-13 126 -32 358h-25q-11 -130 -39 -358zM721 1143l-86 166l489 280l121 -233z" />
    <glyph glyph-name="wcircumflex.sc" horiz-adv-x="1658" 
d="M770 465l-49 -465h-490l-258 1098h385l70 -426q37 -215 55 -379h25q23 220 49 379l68 426h450l64 -426q28 -193 45 -379h26q7 59 54 379l59 426h363l-250 -1098h-516l-54 465q-13 126 -32 358h-25q-11 -130 -39 -358zM1071 1147l-227 172l-228 -172l-110 119l289 305h100
l287 -305z" />
    <glyph glyph-name="wdieresis.sc" horiz-adv-x="1658" 
d="M770 465l-49 -465h-490l-258 1098h385l70 -426q37 -215 55 -379h25q23 220 49 379l68 426h450l64 -426q28 -193 45 -379h26q7 59 54 379l59 426h363l-250 -1098h-516l-54 465q-13 126 -32 358h-25q-11 -130 -39 -358zM532 1509h281v-272h-281v272zM874 1509h281v-272
h-281v272z" />
    <glyph glyph-name="wgrave.sc" horiz-adv-x="1658" 
d="M770 465l-49 -465h-490l-258 1098h385l70 -426q37 -215 55 -379h25q23 220 49 379l68 426h450l64 -426q28 -193 45 -379h26q7 59 54 379l59 426h363l-250 -1098h-516l-54 465q-13 126 -32 358h-25q-11 -130 -39 -358zM1010 1143l-525 213l121 233l490 -280z" />
    <glyph glyph-name="yacute.sc" horiz-adv-x="1077" 
d="M717 0h-359v334l-395 743v21h399l162 -473h29l172 473h387v-21l-395 -747v-330zM416 1143l-86 166l489 280l121 -233z" />
    <glyph glyph-name="ycircumflex.sc" horiz-adv-x="1077" 
d="M717 0h-359v334l-395 743v21h399l162 -473h29l172 473h387v-21l-395 -747v-330zM766 1147l-227 172l-228 -172l-110 119l288 305h101l287 -305z" />
    <glyph glyph-name="ydieresis.sc" horiz-adv-x="1077" 
d="M717 0h-359v334l-395 743v21h399l162 -473h29l172 473h387v-21l-395 -747v-330zM227 1509h281v-272h-281v272zM569 1509h281v-272h-281v272z" />
    <glyph glyph-name="zacute.sc" horiz-adv-x="1136" 
d="M1069 317v-317h-1006v287l531 504l-8 16q-195 -25 -291 -25h-217v316h981v-287l-539 -508l6 -10q171 24 262 24h281zM442 1143l-86 166l490 280l121 -233z" />
    <glyph glyph-name="zcaron.sc" horiz-adv-x="1136" 
d="M1069 317v-317h-1006v287l531 504l-8 16q-195 -25 -291 -25h-217v316h981v-287l-539 -508l6 -10q171 24 262 24h281zM616 1174h-100l-287 305l111 118l227 -174l228 174l110 -118z" />
    <glyph glyph-name="zdotaccent.sc" horiz-adv-x="1136" 
d="M1069 317v-317h-1006v287l531 504l-8 16q-195 -25 -291 -25h-217v316h981v-287l-539 -508l6 -10q171 24 262 24h281zM410 1526h313v-299h-313v299z" />
    <glyph glyph-name="germandbls.sc" horiz-adv-x="1204" 
d="M805 -18q-202 0 -328 112l148 238q80 -66 161 -66q62 0 62 39q0 21 -20 37t-70 33q-102 37 -160.5 89t-58.5 134q0 76 49.5 124.5t152.5 74.5l-2 18q-90 -8 -192 -8q-60 0 -88.5 -34.5t-28.5 -117.5v-655h-354v684q0 200 121 307t354 107h496v-283q-115 -17 -165.5 -42
t-50.5 -64q0 -34 25.5 -55.5t89.5 -47.5q115 -47 168 -113.5t53 -189.5q0 -156 -96 -238.5t-266 -82.5z" />
    <glyph glyph-name="a.alt" 
d="M526 274q63 0 101.5 45.5t38.5 120.5v78q0 82 -38 130t-102 48q-76 0 -110.5 -52.5t-34.5 -162.5q0 -105 34.5 -156t110.5 -51zM43 481q0 257 80.5 393t230.5 136q102 0 176.5 -70t116.5 -201h19v240h348v-979h-348v252h-19q-39 -133 -115.5 -208t-183.5 -75
q-144 0 -224.5 132t-80.5 380z" />
    <glyph glyph-name="aacute.alt" 
d="M412 1040l-86 166l489 281l121 -234zM526 274q63 0 101.5 45.5t38.5 120.5v78q0 82 -38 130t-102 48q-76 0 -110.5 -52.5t-34.5 -162.5q0 -105 34.5 -156t110.5 -51zM43 481q0 257 80.5 393t230.5 136q102 0 176.5 -70t116.5 -201h19v240h348v-979h-348v252h-19
q-39 -133 -115.5 -208t-183.5 -75q-144 0 -224.5 132t-80.5 380z" />
    <glyph glyph-name="abreve.alt" 
d="M549 1292q67 0 107 33t51 119h147q0 -192 -73.5 -276.5t-231.5 -84.5q-157 0 -231 84.5t-74 276.5h147q11 -86 51.5 -119t106.5 -33zM526 274q63 0 101.5 45.5t38.5 120.5v78q0 82 -38 130t-102 48q-76 0 -110.5 -52.5t-34.5 -162.5q0 -105 34.5 -156t110.5 -51zM43 481
q0 257 80.5 393t230.5 136q102 0 176.5 -70t116.5 -201h19v240h348v-979h-348v252h-19q-39 -133 -115.5 -208t-183.5 -75q-144 0 -224.5 132t-80.5 380z" />
    <glyph glyph-name="acircumflex.alt" 
d="M768 1042l-227 172l-228 -172l-110 119l289 305h100l287 -305zM526 274q63 0 101.5 45.5t38.5 120.5v78q0 82 -38 130t-102 48q-76 0 -110.5 -52.5t-34.5 -162.5q0 -105 34.5 -156t110.5 -51zM43 481q0 257 80.5 393t230.5 136q102 0 176.5 -70t116.5 -201h19v240h348
v-979h-348v252h-19q-39 -133 -115.5 -208t-183.5 -75q-144 0 -224.5 132t-80.5 380z" />
    <glyph glyph-name="adieresis.alt" 
d="M236 1407h280v-272h-280v272zM578 1407h280v-272h-280v272zM526 274q63 0 101.5 45.5t38.5 120.5v78q0 82 -38 130t-102 48q-76 0 -110.5 -52.5t-34.5 -162.5q0 -105 34.5 -156t110.5 -51zM43 481q0 257 80.5 393t230.5 136q102 0 176.5 -70t116.5 -201h19v240h348v-979
h-348v252h-19q-39 -133 -115.5 -208t-183.5 -75q-144 0 -224.5 132t-80.5 380z" />
    <glyph glyph-name="agrave.alt" 
d="M690 1040l-524 213l121 234l489 -281zM526 274q63 0 101.5 45.5t38.5 120.5v78q0 82 -38 130t-102 48q-76 0 -110.5 -52.5t-34.5 -162.5q0 -105 34.5 -156t110.5 -51zM43 481q0 257 80.5 393t230.5 136q102 0 176.5 -70t116.5 -201h19v240h348v-979h-348v252h-19
q-39 -133 -115.5 -208t-183.5 -75q-144 0 -224.5 132t-80.5 380z" />
    <glyph glyph-name="amacron.alt" 
d="M256 1358h555v-228h-555v228zM526 274q63 0 101.5 45.5t38.5 120.5v78q0 82 -38 130t-102 48q-76 0 -110.5 -52.5t-34.5 -162.5q0 -105 34.5 -156t110.5 -51zM43 481q0 257 80.5 393t230.5 136q102 0 176.5 -70t116.5 -201h19v240h348v-979h-348v252h-19
q-39 -133 -115.5 -208t-183.5 -75q-144 0 -224.5 132t-80.5 380z" />
    <glyph glyph-name="aogonek.alt" 
d="M526 274q63 0 101.5 45.5t38.5 120.5v78q0 82 -38 130t-102 48q-76 0 -110.5 -52.5t-34.5 -162.5q0 -105 34.5 -156t110.5 -51zM43 481q0 257 80.5 393t230.5 136q102 0 176.5 -70t116.5 -201h19v240h348v-979q-104 -18 -149.5 -38.5t-45.5 -53.5q0 -49 88 -49
q32 0 107 14v-209q-75 -10 -127 -10q-248 0 -248 160q0 128 190 186h-163v252h-19q-39 -133 -115.5 -208t-183.5 -75q-144 0 -224.5 132t-80.5 380z" />
    <glyph glyph-name="aring.alt" 
d="M449 1315q0 -43 24.5 -68.5t65.5 -25.5t65.5 26t24.5 70q0 42 -24.5 68t-65.5 26t-65.5 -26.5t-24.5 -69.5zM784 1317q0 -111 -66 -176.5t-179 -65.5t-179.5 65.5t-66.5 174.5t66.5 175t179.5 66t179 -65.5t66 -173.5zM526 274q63 0 101.5 45.5t38.5 120.5v78
q0 82 -38 130t-102 48q-76 0 -110.5 -52.5t-34.5 -162.5q0 -105 34.5 -156t110.5 -51zM43 481q0 257 80.5 393t230.5 136q102 0 176.5 -70t116.5 -201h19v240h348v-979h-348v252h-19q-39 -133 -115.5 -208t-183.5 -75q-144 0 -224.5 132t-80.5 380z" />
    <glyph glyph-name="aringacute.alt" 
d="M381 1534l-51 166l512 188l71 -233zM451 1274q0 -38 24.5 -60t65.5 -22q42 0 66 22.5t24 61.5q0 38 -24.5 61t-65.5 23t-65.5 -23t-24.5 -63zM786 1276q0 -105 -66 -168.5t-179 -63.5t-179.5 63t-66.5 167q0 105 66.5 168t179.5 63t179 -62.5t66 -166.5zM526 274
q63 0 101.5 45.5t38.5 120.5v78q0 82 -38 130t-102 48q-76 0 -110.5 -52.5t-34.5 -162.5q0 -105 34.5 -156t110.5 -51zM43 481q0 257 80.5 393t230.5 136q102 0 176.5 -70t116.5 -201h19v240h348v-979h-348v252h-19q-39 -133 -115.5 -208t-183.5 -75q-144 0 -224.5 132
t-80.5 380z" />
    <glyph glyph-name="atilde.alt" 
d="M393 1456q42 0 77.5 -16t59.5 -38t44 -44.5t40 -38.5t39 -16q39 0 52.5 32.5t13.5 108.5h139q6 -52 6 -96q0 -136 -48 -204.5t-136 -68.5q-46 0 -85 24t-62.5 53t-53 53t-57.5 24q-36 0 -50 -32.5t-14 -109.5h-139q-6 49 -6 95q0 134 49 204t131 70zM526 274
q63 0 101.5 45.5t38.5 120.5v78q0 82 -38 130t-102 48q-76 0 -110.5 -52.5t-34.5 -162.5q0 -105 34.5 -156t110.5 -51zM43 481q0 257 80.5 393t230.5 136q102 0 176.5 -70t116.5 -201h19v240h348v-979h-348v252h-19q-39 -133 -115.5 -208t-183.5 -75q-144 0 -224.5 132
t-80.5 380z" />
    <glyph glyph-name="G.alt" horiz-adv-x="1277" 
d="M1229 506q0 -84 -19 -159.5t-62.5 -144t-108.5 -118t-164 -78.5t-222 -29q-303 0 -457.5 159t-154.5 462q0 319 155.5 490.5t458.5 171.5q254 0 384.5 -97t166.5 -299l-346 -71q-20 75 -65.5 111t-143.5 36q-128 0 -183.5 -84.5t-55.5 -257.5q0 -159 56.5 -235t190.5 -76
q120 0 170.5 43.5t55.5 118.5h-238v251h582v-194z" />
    <glyph glyph-name="Gbreve.alt" horiz-adv-x="1277" 
d="M1229 506q0 -84 -19 -159.5t-62.5 -144t-108.5 -118t-164 -78.5t-222 -29q-303 0 -457.5 159t-154.5 462q0 319 155.5 490.5t458.5 171.5q254 0 384.5 -97t166.5 -299l-346 -71q-20 75 -65.5 111t-143.5 36q-128 0 -183.5 -84.5t-55.5 -257.5q0 -159 56.5 -235t190.5 -76
q120 0 170.5 43.5t55.5 118.5h-238v251h582v-194zM651 1542q67 0 107 28.5t51 102.5h147q0 -182 -73.5 -261t-231.5 -79q-157 0 -231 79.5t-74 260.5h148q11 -74 51.5 -102.5t105.5 -28.5z" />
    <glyph glyph-name="Gcircumflex.alt" horiz-adv-x="1277" 
d="M1229 506q0 -84 -19 -159.5t-62.5 -144t-108.5 -118t-164 -78.5t-222 -29q-303 0 -457.5 159t-154.5 462q0 319 155.5 490.5t458.5 171.5q254 0 384.5 -97t166.5 -299l-346 -71q-20 75 -65.5 111t-143.5 36q-128 0 -183.5 -84.5t-55.5 -257.5q0 -159 56.5 -235t190.5 -76
q120 0 170.5 43.5t55.5 118.5h-238v251h582v-194zM889 1298l-238 148l-237 -148l-101 119l289 271h100l287 -271z" />
    <glyph glyph-name="Gcommaaccent.alt" horiz-adv-x="1277" 
d="M1229 506q0 -84 -19 -159.5t-62.5 -144t-108.5 -118t-164 -78.5t-222 -29q-303 0 -457.5 159t-154.5 462q0 319 155.5 490.5t458.5 171.5q254 0 384.5 -97t166.5 -299l-346 -71q-20 75 -65.5 111t-143.5 36q-128 0 -183.5 -84.5t-55.5 -257.5q0 -159 56.5 -235t190.5 -76
q120 0 170.5 43.5t55.5 118.5h-238v251h582v-194zM559 -98h258l-119 -320h-213v19z" />
    <glyph glyph-name="Gdotaccent.alt" horiz-adv-x="1277" 
d="M1229 506q0 -84 -19 -159.5t-62.5 -144t-108.5 -118t-164 -78.5t-222 -29q-303 0 -457.5 159t-154.5 462q0 319 155.5 490.5t458.5 171.5q254 0 384.5 -97t166.5 -299l-346 -71q-20 75 -65.5 111t-143.5 36q-128 0 -183.5 -84.5t-55.5 -257.5q0 -159 56.5 -235t190.5 -76
q120 0 170.5 43.5t55.5 118.5h-238v251h582v-194zM494 1628h313v-299h-313v299z" />
    <glyph glyph-name="g.sc.alt" horiz-adv-x="1206" 
d="M829 412h-227v227h555v-170q0 -75 -17.5 -143.5t-57.5 -133t-100 -111.5t-152 -75.5t-205 -28.5q-289 0 -436.5 146.5t-147.5 427.5q0 277 146 426t429 149q238 0 361 -85.5t156 -264.5l-334 -69q-16 60 -57 89t-128 29q-208 0 -208 -274q0 -142 53 -212.5t180 -70.5
q190 0 190 144z" />
    <glyph glyph-name="gbreve.sc.alt" horiz-adv-x="1206" 
d="M829 412h-227v227h555v-170q0 -75 -17.5 -143.5t-57.5 -133t-100 -111.5t-152 -75.5t-205 -28.5q-289 0 -436.5 146.5t-147.5 427.5q0 277 146 426t429 149q238 0 361 -85.5t156 -264.5l-334 -69q-16 60 -57 89t-128 29q-208 0 -208 -274q0 -142 53 -212.5t180 -70.5
q190 0 190 144zM606 1423q67 0 107 33t51 119h147q0 -192 -73.5 -276.5t-231.5 -84.5q-157 0 -231 84.5t-74 276.5h148q11 -86 51.5 -119t105.5 -33z" />
    <glyph glyph-name="gcircumflex.sc.alt" horiz-adv-x="1206" 
d="M829 412h-227v227h555v-170q0 -75 -17.5 -143.5t-57.5 -133t-100 -111.5t-152 -75.5t-205 -28.5q-289 0 -436.5 146.5t-147.5 427.5q0 277 146 426t429 149q238 0 361 -85.5t156 -264.5l-334 -69q-16 60 -57 89t-128 29q-208 0 -208 -274q0 -142 53 -212.5t180 -70.5
q190 0 190 144zM834 1176l-228 172l-227 -172l-111 118l289 305h100l287 -305z" />
    <glyph glyph-name="gcommaaccent.sc.alt" horiz-adv-x="1206" 
d="M829 412h-227v227h555v-170q0 -75 -17.5 -143.5t-57.5 -133t-100 -111.5t-152 -75.5t-205 -28.5q-289 0 -436.5 146.5t-147.5 427.5q0 277 146 426t429 149q238 0 361 -85.5t156 -264.5l-334 -69q-16 60 -57 89t-128 29q-208 0 -208 -274q0 -142 53 -212.5t180 -70.5
q190 0 190 144zM514 -98h258l-119 -320h-213v19z" />
    <glyph glyph-name="gdotaccent.sc.alt" horiz-adv-x="1206" 
d="M829 412h-227v227h555v-170q0 -75 -17.5 -143.5t-57.5 -133t-100 -111.5t-152 -75.5t-205 -28.5q-289 0 -436.5 146.5t-147.5 427.5q0 277 146 426t429 149q238 0 361 -85.5t156 -264.5l-334 -69q-16 60 -57 89t-128 29q-208 0 -208 -274q0 -142 53 -212.5t180 -70.5
q190 0 190 144zM451 1554h313v-299h-313v299z" />
    <glyph glyph-name="g.alt" 
d="M526 330q63 0 101.5 41.5t38.5 107.5v56q0 74 -38 117.5t-102 43.5q-145 0 -145 -188q0 -90 35.5 -134t109.5 -44zM43 500q0 254 80 382t231 128q102 0 176.5 -70t116.5 -201h19v240h348v-891q0 -196 -121 -309t-346 -113q-232 0 -349 71.5t-141 217.5l344 53
q21 -80 134 -80q76 0 103.5 37t27.5 121v217h-19q-40 -111 -117 -179.5t-176 -68.5q-149 0 -230 114t-81 331z" />
    <glyph glyph-name="gbreve.alt" 
d="M541 1292q67 0 106.5 33t50.5 119h148q0 -192 -73.5 -276.5t-231.5 -84.5q-157 0 -231 84.5t-74 276.5h147q11 -86 51.5 -119t106.5 -33zM526 330q63 0 101.5 41.5t38.5 107.5v56q0 74 -38 117.5t-102 43.5q-145 0 -145 -188q0 -90 35.5 -134t109.5 -44zM43 500
q0 254 80 382t231 128q102 0 176.5 -70t116.5 -201h19v240h348v-891q0 -196 -121 -309t-346 -113q-232 0 -349 71.5t-141 217.5l344 53q21 -80 134 -80q76 0 103.5 37t27.5 121v217h-19q-40 -111 -117 -179.5t-176 -68.5q-149 0 -230 114t-81 331z" />
    <glyph glyph-name="gcircumflex.alt" 
d="M762 1044l-227 173l-228 -173l-110 119l288 305h101l286 -305zM526 330q63 0 101.5 41.5t38.5 107.5v56q0 74 -38 117.5t-102 43.5q-145 0 -145 -188q0 -90 35.5 -134t109.5 -44zM43 500q0 254 80 382t231 128q102 0 176.5 -70t116.5 -201h19v240h348v-891
q0 -196 -121 -309t-346 -113q-232 0 -349 71.5t-141 217.5l344 53q21 -80 134 -80q76 0 103.5 37t27.5 121v217h-19q-40 -111 -117 -179.5t-176 -68.5q-149 0 -230 114t-81 331z" />
    <glyph glyph-name="gcommaaccent.alt" 
d="M639 1102h-258l119 319h213v-18zM526 330q63 0 101.5 41.5t38.5 107.5v56q0 74 -38 117.5t-102 43.5q-145 0 -145 -188q0 -90 35.5 -134t109.5 -44zM43 500q0 254 80 382t231 128q102 0 176.5 -70t116.5 -201h19v240h348v-891q0 -196 -121 -309t-346 -113
q-232 0 -349 71.5t-141 217.5l344 53q21 -80 134 -80q76 0 103.5 37t27.5 121v217h-19q-40 -111 -117 -179.5t-176 -68.5q-149 0 -230 114t-81 331z" />
    <glyph glyph-name="gdotaccent.alt" horiz-adv-x="1093" 
d="M375 1423h313v-299h-313v299zM526 330q63 0 101.5 41.5t38.5 107.5v56q0 74 -38 117.5t-102 43.5q-145 0 -145 -188q0 -90 35.5 -134t109.5 -44zM43 500q0 254 80 382t231 128q102 0 176.5 -70t116.5 -201h19v240h348v-891q0 -196 -121 -309t-346 -113q-232 0 -349 71.5
t-141 217.5l344 53q21 -80 134 -80q76 0 103.5 37t27.5 121v217h-19q-40 -111 -117 -179.5t-176 -68.5q-149 0 -230 114t-81 331z" />
    <glyph glyph-name="t.alt" horiz-adv-x="647" 
d="M473 0h-348v709h-100v270h100v240h348v-240h150v-270h-150v-709z" />
    <glyph glyph-name="tbar.alt" horiz-adv-x="647" 
d="M473 0h-348v319h-80v170h80v220h-100v270h100v240h348v-240h150v-270h-150v-220h129v-170h-129v-319z" />
    <glyph glyph-name="tcaron.alt" horiz-adv-x="671" 
d="M543 1411h217l-49 -326h-176zM473 0h-348v709h-100v270h100v240h348v-240h150v-270h-150v-709z" />
    <glyph glyph-name="tcommaaccent.alt" horiz-adv-x="647" 
d="M473 0h-164l-33 -88q25 10 66 10q147 0 147 -127q0 -53 -45.5 -96t-148.5 -43q-129 0 -209 55l59 96q72 -45 150 -45q59 0 59 45q0 43 -63 43q-34 0 -70 -12l-80 31l47 131h-63v709h-100v270h100v240h348v-240h150v-270h-150v-709z" />
    <glyph glyph-name="uni021B.alt" horiz-adv-x="647" 
d="M473 0h-348v709h-100v270h100v240h348v-240h150v-270h-150v-709zM195 -98h258l-119 -320h-213v19z" />
    <glyph glyph-name="zero.sc" horiz-adv-x="1140" 
d="M571 827q-93 0 -135.5 -66t-42.5 -208q0 -287 174 -287q181 0 181 287q0 141 -43 207.5t-134 66.5zM571 1126q247 0 390 -144t143 -429q0 -288 -140.5 -435t-392.5 -147t-393 147t-141 435q0 144 39 254.5t111 179.5t168.5 104t215.5 35z" />
    <glyph glyph-name="one.sc" horiz-adv-x="944" 
d="M897 0h-834v289h275v499q-91 -56 -217 -102l-107 277l445 135h221v-809h217v-289z" />
    <glyph glyph-name="two.sc" horiz-adv-x="1110" 
d="M569 844q-82 0 -122 -47t-48 -138l-333 35q18 207 137 318.5t370 111.5q484 0 484 -389q0 -158 -128.5 -250t-355.5 -125q-119 -18 -170.5 -37t-66.5 -53q172 21 282 21h431v-291h-1016q-6 80 -6 166q0 185 86.5 277.5t285.5 134.5q141 33 207 58t83.5 47t17.5 62
q0 46 -35 72.5t-103 26.5z" />
    <glyph glyph-name="three.sc" horiz-adv-x="1099" 
d="M557 -18q-242 0 -368.5 81t-141.5 265l346 34q4 -29 11 -46.5t24 -34.5t50 -25t83 -8q139 0 139 94q0 46 -29 68t-100 22h-192v227h194q65 0 89 18.5t24 67.5q0 53 -31.5 78t-99.5 25q-88 0 -116 -29t-33 -94l-330 23q20 181 133 274.5t344 93.5q244 0 352.5 -74
t108.5 -225q0 -109 -69.5 -169.5t-209.5 -84.5v-24q177 -15 247.5 -71.5t70.5 -172.5q0 -146 -120 -229.5t-376 -83.5z" />
    <glyph glyph-name="four.sc" horiz-adv-x="1118" 
d="M1081 227h-120v-227h-340v227h-590v232l483 639h447v-609h120v-262zM344 469q136 17 277 20v365l-19 6l-270 -375z" />
    <glyph glyph-name="five.sc" horiz-adv-x="1097" 
d="M553 246q85 0 117 26.5t32 75.5q0 111 -149 111q-60 0 -102.5 -14t-88.5 -44l-272 101v596h895v-322q-303 0 -586 27v-174q110 55 273 55q189 0 283 -94t94 -244q0 -188 -125 -276t-379 -88q-233 0 -354.5 70t-149.5 239l342 59q34 -104 170 -104z" />
    <glyph glyph-name="six.sc" horiz-adv-x="1128" 
d="M573 467q-86 0 -120.5 -27.5t-34.5 -77.5q0 -108 160 -108q88 0 119.5 29t31.5 77t-32 77.5t-124 29.5zM1073 356q0 -185 -126.5 -283t-375.5 -98q-121 0 -213 29t-163 94.5t-108.5 180t-37.5 276.5q0 117 31.5 217.5t94 180t166 124.5t237.5 45q127 0 213.5 -21.5
t139.5 -68.5t78.5 -111t34.5 -159l-337 -33q-12 58 -39 85.5t-95 27.5q-107 0 -145.5 -82.5t-38.5 -284.5l27 -6q39 105 115.5 146.5t191.5 41.5q79 0 141 -16.5t110 -51t73.5 -93.5t25.5 -140z" />
    <glyph glyph-name="seven.sc" horiz-adv-x="1003" 
d="M27 782v316h950v-305q-154 -160 -230.5 -354t-84.5 -439h-400q14 492 412 799q-146 -17 -279 -17h-368z" />
    <glyph glyph-name="eight.sc" horiz-adv-x="1116" 
d="M559 -25q-263 0 -385.5 85.5t-122.5 234.5q0 106 70 165.5t217 84.5v22q-125 27 -186.5 85.5t-61.5 164.5q0 153 111.5 229t357.5 76q245 0 356 -76t111 -229q0 -106 -61.5 -164.5t-186.5 -85.5v-22q147 -25 217 -84.5t70 -165.5q0 -149 -122 -234.5t-384 -85.5zM559 438
q-88 0 -122 -22t-34 -74q0 -94 156 -94q154 0 154 94q0 52 -33.5 74t-120.5 22zM559 846q-72 0 -103.5 -20.5t-31.5 -73.5t31.5 -76t103.5 -23q71 0 102 23.5t31 75.5q0 53 -31 73.5t-102 20.5z" />
    <glyph glyph-name="nine.sc" horiz-adv-x="1112" 
d="M551 602q151 0 151 125q0 119 -153 119q-85 0 -120.5 -35t-35.5 -88q0 -50 39 -85.5t119 -35.5zM539 -25q-121 0 -209.5 21.5t-145 63.5t-88 98t-45.5 131l336 57q15 -48 52.5 -69t107.5 -21q105 0 144.5 77t41.5 267l-26 4q-72 -192 -293 -192q-172 0 -269.5 76
t-97.5 241q0 190 126 291.5t370 101.5q124 0 217 -29t165 -94t109 -179.5t37 -276.5q0 -118 -31 -218t-93.5 -179.5t-167 -125t-240.5 -45.5z" />
    <glyph glyph-name="periodcentered.sc" horiz-adv-x="448" 
d="M47 725h356v-344h-356v344z" />
    <glyph glyph-name="bullet.sc" horiz-adv-x="624" 
d="M59 797h506v-484h-506v484z" />
    <glyph glyph-name="ampersand.sc" horiz-adv-x="1347" 
d="M537 811q0 -57 30 -121q72 26 106 59t34 82q0 31 -22 50.5t-60 19.5q-46 0 -67 -25.5t-21 -64.5zM1305 315l12 -317q-53 -10 -156 -10q-201 0 -409 118q-54 -57 -149 -90.5t-208 -33.5q-109 0 -194 32.5t-137 102.5t-52 170q0 118 70 191t199 122q-58 119 -58 205
q0 68 22.5 123.5t60 91t89 59.5t106.5 34.5t115 10.5q185 0 277 -69t92 -187q0 -53 -21.5 -96t-54 -72.5t-81 -52.5t-93.5 -36.5t-100 -24.5q97 -115 233 -189q110 151 156 338l297 -43q-52 -228 -248 -368q60 -13 115 -13q72 0 117 4zM506 217q38 0 78 8q-146 122 -244 273
q-29 -51 -29 -121q0 -160 195 -160z" />
    <glyph glyph-name="hyphen.sc" horiz-adv-x="716" 
d="M31 705h655v-318h-655v318z" />
    <glyph glyph-name="endash.sc" horiz-adv-x="974" 
d="M31 705h913v-318h-913v318z" />
    <glyph glyph-name="emdash.sc" horiz-adv-x="1761" 
d="M31 705h1700v-318h-1700v318z" />
    <glyph glyph-name="parenleft.sc" horiz-adv-x="700" 
d="M401 526q0 -207 55.5 -374.5t196.5 -348.5l-202 -153q-396 348 -396 876q0 530 396 875l204 -150q-147 -166 -200.5 -338.5t-53.5 -386.5z" />
    <glyph glyph-name="parenright.sc" horiz-adv-x="700" 
d="M299 524q0 206 -56 374t-196 349l203 154q395 -347 395 -877t-395 -874l-205 149q146 166 200 339t54 386z" />
    <glyph glyph-name="bracketleft.sc" horiz-adv-x="643" 
d="M82 -303v1651h541v-240h-203v-1171h203v-240h-541z" />
    <glyph glyph-name="bracketright.sc" horiz-adv-x="643" 
d="M23 -303v240h202v1171h-202v240h540v-1651h-540z" />
    <glyph glyph-name="braceleft.sc" horiz-adv-x="737" 
d="M698 -291q-76 -6 -198 -6q-353 0 -353 242q0 53 24.5 104t53.5 84.5t53.5 78t24.5 85.5q0 43 -27.5 62.5t-99.5 19.5h-137v262h135q139 0 139 94q0 35 -17 71.5t-41.5 68.5t-49 66t-41.5 77t-17 88q0 240 353 240q132 0 196 -5v-241q-35 2 -90 2q-121 0 -121 -78
q0 -29 28.5 -72.5t57.5 -96t29 -105.5q0 -93 -67.5 -146.5t-200.5 -75.5v-22q148 -13 208 -59.5t60 -139.5q0 -42 -18 -85.5t-39.5 -72.5t-39.5 -62.5t-18 -59.5q0 -78 121 -78q57 0 92 2v-242z" />
    <glyph glyph-name="braceright.sc" horiz-adv-x="737" 
d="M240 -297q-146 0 -197 4v242q35 -2 90 -2q121 0 121 78q0 24 -18 57t-39.5 61.5t-39.5 71t-18 84.5q0 93 67 146t200 75v23q-147 13 -207 59.5t-60 138.5q0 42 18 85.5t39.5 73t39.5 63t18 59.5q0 78 -121 78q-57 0 -92 -2v241q89 7 199 7q352 0 352 -242
q0 -53 -24.5 -104t-53.5 -84.5t-53.5 -78t-24.5 -85.5q0 -42 27.5 -62t99.5 -20h137v-262h-135q-139 0 -139 -95q0 -43 26 -89.5t57 -82.5t57 -89.5t26 -108.5q0 -240 -352 -240z" />
    <glyph glyph-name="dollar.sc" horiz-adv-x="1095" 
d="M412 1292h278l-16 -190q339 -37 373 -293l-357 -68q-14 65 -47 93t-106 28q-123 0 -123 -65q0 -18 5.5 -29t25.5 -25t65.5 -26.5t118.5 -24.5q109 -18 189 -46t128 -61t76.5 -77t38.5 -86.5t10 -97.5q0 -297 -401 -330l20 -221h-278l20 223q-364 41 -395 311l340 72
q18 -70 72.5 -102.5t130.5 -32.5q129 0 129 59q0 27 -16.5 44.5t-69.5 34.5t-152 32q-228 32 -321 121t-93 243q0 281 371 324z" />
    <glyph glyph-name="sterling.sc" horiz-adv-x="1085" 
d="M1028 0h-1001v281h168q8 31 8 65q0 25 -2 37h-174v235h102q-29 96 -29 175q0 150 119 236.5t346 86.5q100 0 178 -19.5t126.5 -50.5t81 -76.5t47.5 -91.5t22 -102l-305 -69q-16 71 -47 100t-103 29q-133 0 -133 -115q0 -17 14 -103h435v-235h-424q-15 -51 -74 -102h645
v-281z" />
    <glyph glyph-name="yen.sc" horiz-adv-x="1173" 
d="M1102 213h-336v-213h-358v213h-336v201h293l-52 96h-241v213h129l-189 354v21h400l161 -473h29l172 473h387v-21l-186 -354h127v-213h-240l-51 -96h291v-201z" />
    <glyph glyph-name="Euro.sc" horiz-adv-x="1273" 
d="M694 -29q-219 0 -359 108t-181 308h-113v109h98q-2 18 -2 57v41h-96v108h111q39 204 185 314t368 110q235 0 369.5 -111t156.5 -327l-342 -61q-18 109 -62.5 159t-136.5 50q-146 0 -188 -134h192v-108h-209q-2 -12 -2 -41q0 -39 2 -57h209v-109h-190q43 -131 186 -131
q95 0 137.5 49.5t65.5 163.5l340 -55q-23 -214 -163.5 -328.5t-375.5 -114.5z" />
    <glyph glyph-name="percent.sc" horiz-adv-x="1462" 
d="M41 2v10l631 494l39 -23l-185 -481h-485zM944 1098h488v-11l-633 -493l-39 22zM379 457q-164 0 -258 87.5t-94 243.5q0 155 94.5 242.5t257.5 87.5t256.5 -87.5t93.5 -242.5q0 -156 -93.5 -243.5t-256.5 -87.5zM379 664q42 0 68 30.5t26 93.5t-25.5 93t-68.5 30
q-94 0 -94 -123q0 -63 26 -93.5t68 -30.5zM1085 -18q-162 0 -256 88.5t-94 244.5q0 153 94 241.5t256 88.5q163 0 258 -88.5t95 -241.5q0 -156 -94.5 -244.5t-258.5 -88.5zM1085 188q43 0 70 31.5t27 95.5q0 61 -27 92t-70 31q-42 0 -68 -30.5t-26 -92.5q0 -64 26 -95.5
t68 -31.5z" />
    <glyph glyph-name="plus.sc" horiz-adv-x="1036" 
d="M344 78v321h-303v314h303v319h348v-319h303v-314h-303v-321h-348z" />
    <glyph glyph-name="minus.sc" horiz-adv-x="974" 
d="M924 403h-873v308h873v-308z" />
    <glyph glyph-name="equal.sc" horiz-adv-x="1019" 
d="M946 213h-872v272h872v-272zM946 623h-872v272h872v-272z" />
    <glyph glyph-name="multiply.sc" horiz-adv-x="1060" 
d="M762 76q-51 55 -232 264q-195 -225 -231 -264l-246 241q38 35 79 69t99 81t93 76q-46 39 -135 111.5t-136 113.5l246 242q36 -38 71.5 -79.5t81.5 -96.5t78 -91q30 34 78 91t83 97.5t71 78.5l246 -242q-50 -44 -273 -225q37 -31 94 -76.5t98.5 -79.5t80.5 -70z" />
    <glyph glyph-name="divide.sc" horiz-adv-x="974" 
d="M924 403h-873v308h873v-308zM373 1036h248v-239h-248v239zM373 319h248v-239h-248v239z" />
    <glyph glyph-name="caron.alt" horiz-adv-x="342" 
d="M68 1366h254l-68 -518h-213z" />
    <glyph glyph-name="acute.case" horiz-adv-x="634" 
d="M70 1317l-56 174l531 201l78 -246z" />
    <glyph glyph-name="hungarumlaut.case" horiz-adv-x="786" 
d="M205 1309l-156 86l156 321l198 -112zM510 1309l-145 100l182 307l190 -125z" />
    <glyph glyph-name="grave.case" horiz-adv-x="638" 
d="M567 1317l-553 129l78 246l531 -201z" />
    <glyph glyph-name="circumflex.case" horiz-adv-x="757" 
d="M616 1298l-237 148l-238 -148l-100 119l289 271h100l287 -271z" />
    <glyph glyph-name="caron.case" horiz-adv-x="757" 
d="M428 1309h-100l-287 270l100 119l238 -146l237 146l101 -119z" />
    <glyph glyph-name="breve.case" horiz-adv-x="671" 
d="M346 1542q67 0 107 28.5t51 102.5h147q0 -182 -73.5 -261t-231.5 -79q-157 0 -231 79.5t-74 260.5h147q11 -74 51.5 -102.5t106.5 -28.5z" />
    <glyph glyph-name="tilde.case" horiz-adv-x="745" 
d="M227 1696q42 0 77.5 -16t59.5 -38.5t44 -45t40 -38.5t39 -16q39 0 52.5 32.5t13.5 108.5h139q6 -53 6 -96q0 -135 -48 -203.5t-136 -68.5q-46 0 -85 24t-62.5 52.5t-53 52.5t-57.5 24q-36 0 -49.5 -32t-13.5 -109h-140q-6 49 -6 94q0 134 49 204.5t131 70.5z" />
    <glyph glyph-name="macron.case" horiz-adv-x="647" 
d="M41 1583h565v-225h-565v225z" />
    <glyph glyph-name="dieresis.case" horiz-adv-x="757" 
d="M59 1610h281v-273h-281v273zM401 1610h281v-273h-281v273z" />
    <glyph glyph-name="dotaccent.case" horiz-adv-x="436" 
d="M61 1628h314v-299h-314v299z" />
    <glyph glyph-name="ring.case" horiz-adv-x="614" 
d="M553 1540q0 -105 -66.5 -168t-179.5 -63t-179.5 62.5t-66.5 166.5q0 105 66.5 168t179.5 63t179.5 -62.5t66.5 -166.5zM217 1538q0 -38 24.5 -60t65.5 -22q42 0 66 22.5t24 61.5q0 38 -24.5 61t-65.5 23t-65.5 -23t-24.5 -63z" />
    <glyph glyph-name="zero.numr" horiz-adv-x="794" 
d="M399 1194q-68 0 -97.5 -43t-29.5 -135t29 -135t96 -43t97 43t30 135t-29 135t-96 43zM399 1393q170 0 270.5 -97.5t100.5 -279.5t-100 -280.5t-271 -98.5q-173 0 -272.5 98t-99.5 281q0 182 101 279.5t271 97.5z" />
    <glyph glyph-name="one.numr" horiz-adv-x="598" 
d="M582 655h-541v207h168v301q-61 -40 -131 -65l-72 184l268 90h175v-510h133v-207z" />
    <glyph glyph-name="two.numr" horiz-adv-x="753" 
d="M389 1204q-92 0 -102 -114l-236 28q26 273 342 273q320 0 320 -244q0 -105 -71 -153t-241 -74q-78 -12 -110.5 -27.5t-38.5 -42.5q101 16 178 16h285v-211h-684q0 17 -1 51t-1 52q0 119 57 186t207 98q106 21 140 44t34 57q0 61 -78 61z" />
    <glyph glyph-name="three.numr" horiz-adv-x="724" 
d="M360 641q-164 0 -246 56t-94 173l232 37q7 -40 30 -61t80 -21q89 0 89 60q0 28 -18.5 41.5t-63.5 13.5h-95v150h95q43 0 59 13.5t16 41.5q0 59 -84 59q-54 0 -76 -19.5t-30 -60.5l-221 43q41 222 325 222q320 0 320 -199q0 -68 -43 -107.5t-137 -52.5v-24
q110 -12 153 -48.5t43 -109.5q0 -97 -83.5 -152t-250.5 -55z" />
    <glyph glyph-name="four.numr" horiz-adv-x="749" 
d="M721 803h-76v-148h-233v148h-387v153l313 416h307v-393h76v-176zM223 965q89 11 189 14v242l-9 4l-184 -254z" />
    <glyph glyph-name="five.numr" horiz-adv-x="737" 
d="M375 821q51 0 70.5 16t19.5 46q0 65 -94 65q-70 0 -123 -35l-185 70v389h596v-209q-201 0 -387 19v-115q69 37 183 37q124 0 185.5 -62.5t61.5 -160.5q0 -122 -83.5 -180t-251.5 -58q-312 0 -332 209l233 33q16 -64 107 -64z" />
    </font>
</defs>
</svg>
