<?xml version="1.0" standalone="no"?>
<!DOCTYPE svg PUBLIC "-//W3C//DTD SVG 1.1//EN" "http://www.w3.org/Graphics/SVG/1.1/DTD/svg11.dtd" >
<svg xmlns="http://www.w3.org/2000/svg" xmlns:xlink="http://www.w3.org/1999/xlink" version="1.1">
<metadata>
Created by FontForge 20170731 at Tue Mar  1 01:18:57 2022
 By Aleksey,,,
(c) Copyright OH no Type Company, LLC. 2020. All rights reserved.
</metadata>
<defs>
<font id="Degular-MediumItalic" horiz-adv-x="1093" >
  <font-face 
    font-family="Degular Medium Italic"
    font-weight="500"
    font-style="italic"
    font-stretch="normal"
    units-per-em="2048"
    panose-1="4 4 5 6 6 3 3 11 3 5"
    ascent="1372"
    descent="-676"
    x-height="956"
    cap-height="1229"
    bbox="-682 -434 2636 1884"
    underline-thickness="102"
    underline-position="-595"
    unicode-range="U+0020-FB02"
  />
<missing-glyph horiz-adv-x="1751" 
d="M745 78q39 0 70 1.5t61.5 6.5t47.5 8.5t54 12t56 12.5q0 273 174 430l21 -23q-32 -79 -60 -221q232 136 232 455q0 249 -126 377.5t-376 128.5q-189 0 -312.5 -90.5t-156.5 -241.5h10q111 0 165 -67.5t54 -164.5q0 -59 -22.5 -105.5t-58.5 -73t-76.5 -40.5t-81.5 -14
q3 -75 5.5 -182t4.5 -148q48 -26 136.5 -43.5t178.5 -17.5zM745 -68q-286 0 -432 131q-10 279 17 424q-58 27 -92.5 82t-34.5 129q0 69 33.5 125.5t93.5 85.5q-6 216 152.5 354t428.5 138q305 0 462 -157.5t157 -446.5q0 -145 -37.5 -263.5t-124.5 -213t-219 -138.5
q-19 -111 -19 -164q-138 -86 -385 -86zM942 938q115 0 175.5 -67t60.5 -162q0 -109 -76 -183.5t-176 -74.5q-102 0 -168 65.5t-66 179.5q0 98 65 170t185 72z" />
    <glyph glyph-name=".notdef" horiz-adv-x="1751" 
d="M745 78q39 0 70 1.5t61.5 6.5t47.5 8.5t54 12t56 12.5q0 273 174 430l21 -23q-32 -79 -60 -221q232 136 232 455q0 249 -126 377.5t-376 128.5q-189 0 -312.5 -90.5t-156.5 -241.5h10q111 0 165 -67.5t54 -164.5q0 -59 -22.5 -105.5t-58.5 -73t-76.5 -40.5t-81.5 -14
q3 -75 5.5 -182t4.5 -148q48 -26 136.5 -43.5t178.5 -17.5zM745 -68q-286 0 -432 131q-10 279 17 424q-58 27 -92.5 82t-34.5 129q0 69 33.5 125.5t93.5 85.5q-6 216 152.5 354t428.5 138q305 0 462 -157.5t157 -446.5q0 -145 -37.5 -263.5t-124.5 -213t-219 -138.5
q-19 -111 -19 -164q-138 -86 -385 -86zM942 938q115 0 175.5 -67t60.5 -162q0 -109 -76 -183.5t-176 -74.5q-102 0 -168 65.5t-66 179.5q0 98 65 170t185 72z" />
    <glyph glyph-name=".null" horiz-adv-x="0" 
 />
    <glyph glyph-name="nonmarkingreturn" horiz-adv-x="682" 
 />
    <glyph glyph-name="space" unicode=" " horiz-adv-x="397" 
 />
    <glyph glyph-name="exclam" unicode="!" horiz-adv-x="489" 
d="M328 438h-181l140 791h180zM86 219h223l-39 -219h-223z" />
    <glyph glyph-name="quotedbl" unicode="&#x22;" horiz-adv-x="686" 
d="M221 1229h189l-125 -547h-123zM539 1229h188l-125 -547h-123z" />
    <glyph glyph-name="numbersign" unicode="#" horiz-adv-x="1392" 
d="M895 0h-141l51 309h-297l-55 -309h-144l53 309h-323l29 164h323l51 287h-323l28 162h324l53 307h152l-58 -307h293l54 307h149l-55 -307h338l-29 -162h-338l-51 -287h338l-29 -164h-338zM516 455h332l57 321h-330z" />
    <glyph glyph-name="dollar" unicode="$" horiz-adv-x="1132" 
d="M674 1458h157l-51 -227q307 -41 328 -344l-193 -35q-8 123 -67 182.5t-199 59.5q-246 0 -272 -162q-10 -39 -1 -73t37 -62.5t88.5 -53.5t153.5 -45q125 -27 208 -67.5t121.5 -91t51.5 -112t-2 -130.5q-57 -303 -473 -309l-31 -242h-157l57 248q-201 24 -294 126.5
t-93 264.5l184 31q6 -137 86 -208t246 -71q259 0 289 174q17 95 -42.5 144.5t-240.5 87.5q-231 49 -314 146t-54 255q24 136 138 213.5t312 81.5z" />
    <glyph glyph-name="percent" unicode="%" horiz-adv-x="1519" 
d="M426 555q-158 0 -235 104t-46 275q27 149 126 232t243 83q158 0 235 -101.5t48 -270.5q-28 -153 -126.5 -237.5t-244.5 -84.5zM434 682q90 0 147 56.5t74 160.5q20 105 -21 165t-130 60q-88 0 -144 -55t-75 -158q-19 -106 20.5 -167.5t128.5 -61.5zM1059 -20
q-158 0 -235.5 104t-45.5 274q26 149 124.5 232.5t242.5 83.5q158 0 234.5 -102.5t47.5 -270.5q-27 -152 -125.5 -236.5t-242.5 -84.5zM1067 106q88 0 145 57t76 161q19 105 -22.5 165t-128.5 60q-89 0 -145.5 -55t-73.5 -158q-20 -106 19.5 -168t129.5 -62zM1284 1229h242
l-2 -12l-639 -533l-41 39zM293 0h-242l2 12l639 533l41 -39z" />
    <glyph glyph-name="ampersand" unicode="&#x26;" horiz-adv-x="1384" 
d="M535 928q-17 -94 12 -213q166 43 249 97.5t97 141.5q11 71 -25 116.5t-123 45.5q-177 0 -210 -188zM1282 164l-25 -168q-51 -10 -120 -10q-199 0 -381 131q-160 -137 -391 -137q-175 0 -269 102t-65 268q12 66 42 116.5t79 88t105 63.5t134 52q-42 154 -20 278
q14 81 50.5 141.5t88.5 95t111.5 50.5t126.5 16q175 0 252.5 -84.5t54.5 -208.5q-8 -45 -29.5 -83.5t-48.5 -66.5t-67.5 -53t-76.5 -41t-87 -32t-87.5 -25t-87.5 -20q39 -104 109 -198.5t160 -162.5q226 215 313 482l158 -21q-46 -151 -148 -282t-243 -228q122 -67 258 -67
q69 0 104 4zM420 121q139 0 258 61q-182 173 -266 420q-97 -38 -148 -95t-65 -140q-19 -107 38.5 -176.5t182.5 -69.5z" />
    <glyph glyph-name="quotesingle" unicode="'" horiz-adv-x="368" 
d="M221 1229h189l-125 -547h-123z" />
    <glyph glyph-name="parenleft" unicode="(" horiz-adv-x="686" 
d="M311 543q-29 -169 -27 -317.5t49.5 -292t143.5 -277.5l-123 -88q-88 102 -144.5 222t-80 248t-23 258t24.5 269q46 261 180 486.5t377 423.5l100 -99q-215 -192 -324.5 -390.5t-152.5 -442.5z" />
    <glyph glyph-name="parenright" unicode=")" horiz-adv-x="686" 
d="M377 498q28 169 26 317t-49 291.5t-143 277.5l121 89q88 -102 144.5 -222t80 -248.5t23 -258.5t-24.5 -269q-46 -261 -180 -486t-377 -423l-98 98q214 193 324 392t153 442z" />
    <glyph glyph-name="asterisk" unicode="*" horiz-adv-x="1040" 
d="M582 1372h192l-121 -373h-80zM123 956l74 174l319 -167l-35 -76zM317 446l-141 121l311 264l56 -47zM895 551l-162 -100l-125 333l68 43zM1057 1130l37 -180l-385 -63l-15 74z" />
    <glyph glyph-name="plus" unicode="+" horiz-adv-x="1019" 
d="M365 170l65 373h-356l28 162h357l65 366h181l-66 -366h358l-28 -162h-359l-65 -373h-180z" />
    <glyph glyph-name="comma" unicode="," horiz-adv-x="358" 
d="M76 262h184l-307 -561h-131l2 12z" />
    <glyph glyph-name="hyphen" unicode="-" horiz-adv-x="716" 
d="M61 582h629l-28 -170h-629z" />
    <glyph glyph-name="period" unicode="." horiz-adv-x="376" 
d="M31 219h223l-39 -219h-223z" />
    <glyph glyph-name="slash" unicode="/" horiz-adv-x="643" 
d="M76 -309h-191l701 1624h186z" />
    <glyph glyph-name="zero" unicode="0" horiz-adv-x="1175" 
d="M690 1090q-166 0 -271 -124t-143 -343q-40 -225 22.5 -354.5t231.5 -129.5q168 0 273 126t143 347q39 225 -23.5 351.5t-232.5 126.5zM702 1253q256 0 368 -178.5t58 -488.5q-50 -285 -209.5 -448t-400.5 -163q-171 0 -279 82.5t-144.5 233t-0.5 354.5
q51 285 211.5 446.5t396.5 161.5z" />
    <glyph glyph-name="one" unicode="1" horiz-adv-x="933" 
d="M780 0h-778l29 162h338l157 897q-169 -76 -325 -129l-41 153l471 146h106l-188 -1067h260z" />
    <glyph glyph-name="two" unicode="2" horiz-adv-x="1161" 
d="M719 1096q-142 0 -233.5 -85.5t-143.5 -258.5l-172 32q68 226 203.5 346.5t357.5 120.5q221 0 325 -106.5t72 -296.5q-11 -65 -43.5 -118.5t-78 -93t-113 -73.5t-139 -58.5t-166.5 -49.5q-214 -61 -295.5 -122.5t-110.5 -189.5q226 19 410 19h432l-29 -162h-999
q3 17 8 52.5t8 53.5q18 105 55.5 181t102 132t147.5 94.5t205 72.5q156 43 241.5 81t128.5 84t56 115q18 103 -39 166.5t-190 63.5z" />
    <glyph glyph-name="three" unicode="3" horiz-adv-x="1142" 
d="M543 -20q-249 0 -369 103t-123 308l180 23q3 -140 79 -211.5t239 -71.5q136 0 217 54.5t98 154.5q20 109 -31 159t-208 50h-209l24 137h203q106 0 177.5 46.5t90.5 146.5q20 110 -35 163.5t-186 53.5t-208.5 -64t-125.5 -194l-168 26q123 385 521 385q217 0 313 -93.5
t65 -268.5q-35 -208 -307 -256l-4 -23q173 -20 231.5 -90.5t34.5 -206.5q-27 -157 -151 -244t-348 -87z" />
    <glyph glyph-name="four" unicode="4" horiz-adv-x="1181" 
d="M1106 297h-182l-54 -297h-180l51 297h-727l25 137l829 795h219l-137 -783h183zM602 446h166l109 613l-13 6l-643 -623l6 -16q187 20 375 20z" />
    <glyph glyph-name="five" unicode="5" horiz-adv-x="1165" 
d="M561 131q274 0 309 225q21 124 -39 187t-210 63q-86 0 -168.5 -23t-137.5 -59l-141 58l115 647h852l-31 -170q-364 0 -684 20l-76 -428q147 90 326 90q217 0 311.5 -107t63.5 -296q-60 -358 -496 -358q-211 0 -342 87t-172 257l176 47q31 -113 116 -176.5t228 -63.5z" />
    <glyph glyph-name="six" unicode="6" horiz-adv-x="1159" 
d="M631 625q-163 0 -257 -63.5t-110 -162.5q-20 -110 54.5 -188t226.5 -78q285 0 329 238q20 122 -41.5 188t-201.5 66zM1055 352q-31 -179 -163.5 -277t-344.5 -98q-562 0 -445 676q24 133 70.5 240t119.5 188.5t179 125.5t238 44q211 0 311 -103t102 -284l-182 -18
q-6 123 -64 185.5t-182 62.5q-181 0 -283 -124t-149 -397q-1 -6 -7 -36.5t-9 -51.5l20 -2q120 265 436 265q70 0 129 -14.5t107.5 -44.5t78.5 -77t41.5 -111.5t-3.5 -148.5z" />
    <glyph glyph-name="seven" unicode="7" horiz-adv-x="1056" 
d="M127 1061l29 168h1007l-30 -168q-508 -437 -660 -1061h-217q75 302 264 583.5t459 495.5q-232 -18 -428 -18h-424z" />
    <glyph glyph-name="eight" unicode="8" horiz-adv-x="1146" 
d="M510 -23q-270 0 -382 96.5t-83 264.5q38 229 379 272l4 25q-267 65 -219 311q27 145 145 225t334 80q235 0 336 -94t72 -262q-35 -206 -324 -262l-4 -25q169 -24 234 -106.5t42 -206.5q-54 -318 -534 -318zM584 551q-317 0 -353 -207q-19 -102 53.5 -157.5t235.5 -55.5
q310 0 346 201q4 34 3 65.5t-19.5 59.5t-49 49t-86 33t-130.5 12zM674 1096q-260 0 -297 -203q-19 -108 43.5 -159.5t187.5 -53.5q126 2 207 52.5t100 156.5q18 100 -40 153.5t-201 53.5z" />
    <glyph glyph-name="nine" unicode="9" horiz-adv-x="1161" 
d="M575 598q159 0 257 67t114 164q21 115 -53.5 191t-230.5 76q-146 0 -226 -65.5t-100 -174.5q-23 -128 40 -193t199 -65zM498 -23q-116 0 -201 25.5t-136.5 74.5t-77 114t-30.5 151l176 33q8 -121 73 -180.5t204 -59.5q181 0 286.5 129t153.5 402q2 8 5.5 30.5t6.5 38.5
l-22 2q-122 -262 -432 -262q-86 0 -156 24t-119.5 71.5t-69 126.5t-1.5 180q32 175 162.5 274.5t349.5 99.5q85 0 153.5 -14.5t126.5 -47t96 -83t61 -123t22.5 -167.5t-19.5 -216q-111 -623 -612 -623z" />
    <glyph glyph-name="colon" unicode=":" horiz-adv-x="411" 
d="M133 958h223l-39 -219h-223zM49 219h223l-39 -219h-223z" />
    <glyph glyph-name="semicolon" unicode=";" horiz-adv-x="425" 
d="M100 262h185l-308 -561h-131l2 12zM133 958h223l-39 -219h-223z" />
    <glyph glyph-name="less" unicode="&#x3c;" horiz-adv-x="1056" 
d="M874 31l-819 403l33 182l963 406l-35 -201l-436 -147q-116 -44 -381 -125l-11 -55q166 -55 336 -123l387 -146z" />
    <glyph glyph-name="equal" unicode="=" horiz-adv-x="1077" 
d="M954 367h-872l27 147h872zM1018 723h-873l27 147h872z" />
    <glyph glyph-name="greater" unicode="&#x3e;" horiz-adv-x="1056" 
d="M-6 33l35 200l438 148q165 62 381 125l10 55q-141 46 -338 123l-385 145l35 195l819 -403l-33 -183z" />
    <glyph glyph-name="question" unicode="?" horiz-adv-x="997" 
d="M700 563q-126 -52 -141 -157q-4 -12 -4 -21h-172q0 11 4 31q17 93 68 153t157 109q119 52 166 93t60 114q18 97 -39 153t-181 56q-136 0 -220.5 -83.5t-131.5 -238.5l-172 31q135 448 539 448q213 0 316 -100t73 -272q-12 -65 -41.5 -116t-75.5 -88t-93 -62t-112 -50z
M326 219h223l-39 -219h-223z" />
    <glyph glyph-name="at" unicode="@" horiz-adv-x="1712" 
d="M799 -229q-356 0 -537.5 160.5t-181.5 506.5q0 149 39 286.5t117 254.5t187 204t257.5 136t320.5 49q145 0 260.5 -34t192 -93t127 -142t72.5 -176t22 -200q0 -123 -23.5 -223.5t-63.5 -168.5t-94 -114t-114 -67t-125 -21q-128 0 -182 61.5t-49 167.5q0 16 4 56h-12
q-59 -143 -131 -214t-170 -71q-104 0 -163.5 71.5t-59.5 219.5q0 147 43.5 269.5t129.5 198t199 75.5q92 0 144.5 -55t64.5 -152h12l33 192h150l-90 -518q-30 -170 102 -170q102 0 175 111t73 336q0 521 -551 518q-138 0 -257.5 -41t-207 -114t-150 -171.5t-93.5 -215
t-31 -243.5q0 -280 143 -408t428 -126q99 0 221 23.5t201 58.5h18l-12 -129q-194 -88 -438 -88zM1061 633q17 91 -27.5 143.5t-136.5 52.5q-113 0 -179.5 -111t-68.5 -280q0 -179 131 -176q99 0 171.5 92t97.5 221z" />
    <glyph glyph-name="A" unicode="A" horiz-adv-x="1193" 
d="M922 0l-66 344h-555l-184 -344h-205l692 1229h250l260 -1229h-192zM461 639l-82 -152h450l-28 152q-37 188 -70 424h-51q-81 -169 -219 -424z" />
    <glyph glyph-name="B" unicode="B" horiz-adv-x="1163" 
d="M674 543h-338l-70 -396h357q234 0 272 195q16 99 -34 150t-187 51zM741 1079h-311l-70 -397h306q234 0 268 199q39 198 -193 198zM53 0l215 1229h498q205 0 292.5 -86.5t59.5 -245.5q-38 -217 -295 -270l-4 -19q157 -19 219 -90.5t37 -210.5q-26 -144 -142 -225.5
t-325 -81.5h-555z" />
    <glyph glyph-name="C" unicode="C" horiz-adv-x="1275" 
d="M596 -25q-194 0 -320 85t-171 236t-9 351q51 287 225 446.5t441 159.5q239 0 364.5 -126.5t130.5 -344.5l-184 -22q-6 165 -85.5 246t-244.5 81q-192 0 -309 -122t-155 -338q-23 -148 -1 -256.5t105.5 -170t220.5 -61.5q164 0 265.5 86t162.5 256l174 -39
q-149 -467 -610 -467z" />
    <glyph glyph-name="D" unicode="D" horiz-adv-x="1294" 
d="M686 1071h-256l-162 -913h289q223 0 346.5 113t161.5 333q43 240 -47.5 353.5t-331.5 113.5zM53 0l215 1229h455q317 0 448 -169t76 -482q-49 -277 -232.5 -428.5t-461.5 -151.5z" />
    <glyph glyph-name="E" unicode="E" 
d="M57 0l215 1229h856l-30 -166h-664l-63 -356h598l-29 -164h-598l-68 -377h666l-31 -166h-852z" />
    <glyph glyph-name="F" unicode="F" horiz-adv-x="1021" 
d="M887 481h-561l-86 -481h-187l215 1229h819l-30 -172h-631l-72 -412h564z" />
    <glyph glyph-name="G" unicode="G" horiz-adv-x="1312" 
d="M520 -20q-243 0 -362.5 183.5t-65.5 483.5q111 604 662 604q235 0 359 -115t142 -325l-182 -33q-15 158 -94.5 233.5t-233.5 75.5q-203 0 -314 -110.5t-152 -337.5q-22 -109 -11.5 -201t46.5 -159t109.5 -104.5t178.5 -37.5q106 0 186 26.5t129 74t77 102.5t40 123v-4
l2 18h-381l29 164h557l-113 -641h-174l50 279h-17q-148 -299 -467 -299z" />
    <glyph glyph-name="H" unicode="H" horiz-adv-x="1306" 
d="M1083 0h-186l92 528h-655l-94 -528h-187l215 1229h189l-95 -531h658l92 531h188z" />
    <glyph glyph-name="I" unicode="I" horiz-adv-x="462" 
d="M240 0h-187l215 1229h189z" />
    <glyph glyph-name="J" unicode="J" horiz-adv-x="630" 
d="M279 326l157 903h189l-158 -901q-64 -344 -367 -344q-73 0 -155 14l32 164q65 -12 117 -12q153 0 185 176z" />
    <glyph glyph-name="K" unicode="K" horiz-adv-x="1153" 
d="M860 0l-428 504h-104l-88 -504h-187l215 1229h189l-101 -570h86l594 570h224l-5 -23l-675 -622l493 -561l-4 -23h-209z" />
    <glyph glyph-name="L" unicode="L" horiz-adv-x="944" 
d="M457 1229l-187 -1059h574l-29 -170h-762l215 1229h189z" />
    <glyph glyph-name="M" unicode="M" horiz-adv-x="1630" 
d="M338 608l-107 -608h-176l217 1229h306l116 -570q20 -104 62 -393h39q132 273 202 398l326 565h305l-217 -1229h-186l106 608q31 174 92 465h-39q-172 -348 -258 -500l-295 -499h-190l-109 508q-45 237 -77 491h-37q-9 -63 -22.5 -141t-32 -182t-25.5 -142z" />
    <glyph glyph-name="N" unicode="N" horiz-adv-x="1308" 
d="M842 0l-248 610q-86 216 -152 451l-43 -2q-29 -280 -86 -600l-82 -459h-176l217 1229h267l219 -533q104 -258 172 -501h39q29 278 82 573l79 461h177l-217 -1229h-248z" />
    <glyph glyph-name="O" unicode="O" horiz-adv-x="1347" 
d="M616 -25q-200 0 -330.5 87.5t-177 241.5t-10.5 355q48 274 227.5 434t452.5 160q197 0 328 -86.5t179.5 -240.5t12.5 -355q-51 -275 -228 -435.5t-454 -160.5zM627 139q206 0 328.5 120.5t160.5 338.5q38 221 -49 355t-299 134q-205 0 -327 -118.5t-160 -331.5
q-26 -148 0.5 -258t114.5 -175t231 -65z" />
    <glyph glyph-name="P" unicode="P" horiz-adv-x="1085" 
d="M698 1067h-270l-84 -471h277q140 0 211.5 52t91.5 167q24 130 -29 191t-197 61zM623 438h-306l-77 -438h-187l215 1229h453q224 0 323 -112.5t62 -319.5q-30 -170 -154.5 -264.5t-328.5 -94.5z" />
    <glyph glyph-name="Q" unicode="Q" horiz-adv-x="1349" 
d="M627 139q206 0 328.5 120.5t160.5 338.5q38 221 -49 355t-299 134q-205 0 -327 -118.5t-160 -331.5q-26 -148 0.5 -258t114.5 -175t231 -65zM616 -25q-200 0 -330.5 87.5t-177 241.5t-10.5 355q48 274 227.5 434t452.5 160q197 0 328 -86.5t179.5 -240.5t12.5 -355
q-31 -169 -110.5 -297t-204.5 -202l117 -246l-4 -23h-195l-80 199q-95 -27 -205 -27z" />
    <glyph glyph-name="R" unicode="R" horiz-adv-x="1202" 
d="M727 1069h-293l-74 -420h291q269 0 303 201q19 111 -34.5 165t-192.5 54zM850 0l-254 487h-264l-86 -487h-189l215 1229h478q226 0 322.5 -104.5t62.5 -299.5q-23 -130 -113 -213.5t-234 -111.5l277 -477l-4 -23h-211z" />
    <glyph glyph-name="S" unicode="S" horiz-adv-x="1138" 
d="M543 -25q-134 0 -232.5 30t-156 86t-85 129t-28.5 165l184 31q13 -285 334 -285q259 0 289 174q17 96 -41.5 148t-233.5 90q-235 48 -320 146t-56 259q24 143 145 224t326 81q116 0 200.5 -27t134.5 -77.5t74.5 -114t30.5 -145.5l-190 -37q-5 62 -19.5 105.5t-45 77
t-81.5 49.5t-125 16q-243 0 -272 -164q-10 -39 -0.5 -74.5t38.5 -64.5t89.5 -54.5t152.5 -44.5q125 -27 208 -68t122 -92t51.5 -114t-2.5 -135q-27 -147 -149.5 -230.5t-341.5 -83.5z" />
    <glyph glyph-name="T" unicode="T" horiz-adv-x="1044" 
d="M133 1057l31 172h981l-31 -172h-397l-187 -1057h-186l186 1057h-397z" />
    <glyph glyph-name="U" unicode="U" horiz-adv-x="1288" 
d="M604 143q166 0 247.5 84t111.5 248l133 754h186l-135 -778q-83 -474 -551 -474q-263 0 -382 132t-75 378l129 742h189l-131 -744q-16 -74 -8 -136.5t36.5 -108.5t91.5 -71.5t158 -25.5z" />
    <glyph glyph-name="V" unicode="V" horiz-adv-x="1189" 
d="M633 0h-246l-258 1229h193l120 -639q47 -252 68 -424h51q139 276 219 424l346 639h201z" />
    <glyph glyph-name="W" unicode="W" horiz-adv-x="1720" 
d="M723 514l-209 -514h-272l-107 1229h197l35 -584q14 -383 14 -481h57q102 280 185 481l249 584h242l45 -586q11 -177 15 -479h55q25 73 53 148t70.5 183.5t58.5 149.5l238 584h200l-536 -1229h-281l-31 514q-18 351 -18 549h-43q-91 -250 -217 -549z" />
    <glyph glyph-name="X" unicode="X" horiz-adv-x="1138" 
d="M840 0l-248 530h-31l-422 -530h-200l4 23l518 602l-305 581l4 23h194l238 -516h37l409 516h203l-4 -23l-514 -596l313 -587l-4 -23h-192z" />
    <glyph glyph-name="Y" unicode="Y" horiz-adv-x="1091" 
d="M555 0h-186l73 418l-325 788l4 23h196l226 -656h30l459 656h203l-4 -23l-600 -788z" />
    <glyph glyph-name="Z" unicode="Z" horiz-adv-x="1159" 
d="M1016 172l-31 -172h-997l30 170l920 891l-6 20q-250 -24 -416 -24h-319l30 172h971l-29 -168l-927 -895l6 -21q304 27 436 27h332z" />
    <glyph glyph-name="bracketleft" unicode="[" horiz-adv-x="602" 
d="M-23 -383l318 1798h422l-27 -151h-241l-263 -1487h242l-29 -160h-422z" />
    <glyph glyph-name="backslash" unicode="\" horiz-adv-x="643" 
d="M311 -309l-125 1624h174l129 -1624h-178z" />
    <glyph glyph-name="bracketright" unicode="]" horiz-adv-x="602" 
d="M-104 -383l26 152h244l262 1486h-244l29 160h424l-318 -1798h-423z" />
    <glyph glyph-name="asciicircum" unicode="^" horiz-adv-x="1009" 
d="M870 508l-284 393l-422 -393l-80 78l479 491h92l312 -491z" />
    <glyph glyph-name="underscore" unicode="_" horiz-adv-x="942" 
d="M-84 0h942l-27 -150h-942z" />
    <glyph glyph-name="grave" unicode="`" horiz-adv-x="634" 
d="M649 1069l-459 229l78 134l430 -275z" />
    <glyph glyph-name="a" unicode="a" 
d="M453 135q121 0 208.5 75t118.5 206l6 39l13 69q20 133 -44 214t-194 81q-259 0 -317 -332q-64 -352 209 -352zM72 508q41 226 155.5 349.5t280.5 123.5q146 0 222 -78.5t89 -214.5l10 6l45 262h179l-168 -956h-178l45 258l-4 -2l2 23q-57 -137 -160 -220.5t-236 -83.5
q-175 0 -250.5 139.5t-31.5 393.5z" />
    <glyph glyph-name="b" unicode="b" horiz-adv-x="1095" 
d="M539 133q253 0 311 334q64 352 -211 352q-126 0 -215.5 -83t-114.5 -224l-14 -76l2 2q-25 -136 41.5 -220.5t200.5 -84.5zM451 1315l-107 -610h12q128 276 375 276q183 0 260 -135.5t33 -386.5q-41 -232 -156 -358t-280 -126q-139 0 -218.5 77t-95.5 206h-10l-45 -258
h-178l231 1315h179z" />
    <glyph glyph-name="c" unicode="c" horiz-adv-x="1048" 
d="M829 596q-6 112 -58.5 169.5t-176.5 57.5q-137 0 -226.5 -84t-119.5 -254q-28 -163 34 -257.5t207 -94.5q122 0 190.5 61t115.5 175l157 -45q-127 -349 -477 -349q-228 0 -336 143.5t-67 391.5q39 223 182 347t352 124q383 0 393 -354z" />
    <glyph glyph-name="d" unicode="d" 
d="M453 135q120 0 208 75t117 202l8 43l13 69q20 133 -45 214t-195 81q-257 0 -315 -336q-32 -176 20 -262t189 -86zM707 0l45 256h-13q-58 -129 -157 -205t-226 -76q-176 0 -252 139.5t-32 391.5q41 231 155 353t283 122q137 0 213 -75t92 -204h14l109 613h178l-231 -1315
h-178z" />
    <glyph glyph-name="e" unicode="e" horiz-adv-x="1038" 
d="M594 840q-126 0 -212.5 -71t-125.5 -214h561q39 285 -223 285zM475 -23q-229 0 -338 141t-67 392q39 221 184 346t354 125q217 0 312 -124.5t57 -338.5q0 -1 -21 -92h-723q-12 -147 51 -224t199 -77q118 0 184.5 51.5t110.5 145.5l148 -52q-64 -142 -172 -217.5
t-279 -75.5z" />
    <glyph glyph-name="f" unicode="f" horiz-adv-x="708" 
d="M483 1014l-10 -58h291l-25 -147h-293l-141 -809h-178l141 809h-170l25 147h172l10 62q27 152 119.5 237.5t251.5 85.5q84 0 162 -16l-33 -133q-86 12 -123 12q-86 0 -133.5 -47t-65.5 -143z" />
    <glyph glyph-name="g" unicode="g" 
d="M469 199q118 0 202.5 68t112.5 184l2 8l11 61v-2q25 134 -41 217.5t-199 83.5q-128 0 -203.5 -72.5t-103.5 -222.5q-55 -325 219 -325zM78 541q38 214 150.5 327t277.5 113q140 0 216.5 -74.5t92.5 -204.5h14l45 254h179l-154 -876q-37 -206 -157 -310t-330 -104
q-398 0 -437 285l175 35q18 -84 80 -129t184 -45q147 0 215.5 71.5t95.5 216.5l35 201h-15q-57 -112 -153.5 -180t-218.5 -68q-179 0 -257.5 127.5t-37.5 360.5z" />
    <glyph glyph-name="h" unicode="h" horiz-adv-x="1087" 
d="M315 547l-96 -547h-178l231 1315h179l-107 -606h14q61 129 158.5 200.5t220.5 71.5q153 0 221.5 -97.5t38.5 -262.5l-108 -621h-178l104 590q18 104 -23.5 166.5t-148.5 62.5q-130 0 -218 -74t-110 -198z" />
    <glyph glyph-name="i" unicode="i" horiz-adv-x="466" 
d="M451 1141h-203l28 162h203zM238 0h-179l168 956h179z" />
    <glyph glyph-name="j" unicode="j" horiz-adv-x="487" 
d="M256 -14q-54 -318 -326 -318q-52 0 -106 8l35 156q37 -6 75 -6q117 0 144 156l172 972h178zM473 1141h-203l29 162h203z" />
    <glyph glyph-name="k" unicode="k" horiz-adv-x="987" 
d="M459 1315l-135 -766h92l409 407h215l-4 -22l-487 -451l360 -460l-4 -23h-194l-310 414h-100l-74 -414h-176l232 1315h176z" />
    <glyph glyph-name="l" unicode="l" horiz-adv-x="448" 
d="M459 1315l-232 -1315h-176l232 1315h176z" />
    <glyph glyph-name="m" unicode="m" horiz-adv-x="1759" 
d="M315 547l-96 -547h-178l168 956h174l-43 -247h18q62 131 158 201.5t219 70.5q136 0 202 -76.5t60 -210.5h21q124 287 383 287q156 0 226 -98t40 -262l-108 -621h-179l105 590q18 104 -23.5 166.5t-150.5 62.5q-123 0 -209.5 -68t-112.5 -184l-100 -567h-178l104 590
q18 104 -24 166.5t-152 62.5q-125 0 -213.5 -74.5t-110.5 -197.5z" />
    <glyph glyph-name="n" unicode="n" horiz-adv-x="1089" 
d="M315 547l-96 -547h-178l168 956h174l-43 -247h18q59 130 156 201t221 71q153 0 222.5 -97.5t39.5 -262.5l-108 -621h-178l104 590q18 104 -23.5 166.5t-150.5 62.5q-128 0 -216 -74t-110 -198z" />
    <glyph glyph-name="o" unicode="o" horiz-adv-x="1089" 
d="M483 -25q-235 0 -343.5 149.5t-65.5 395.5q39 223 180.5 342t351.5 119q227 0 340 -148t70 -391q-38 -223 -178 -345t-355 -122zM590 827q-140 0 -227 -84t-115 -243q-29 -170 33.5 -269.5t214.5 -99.5q145 0 232.5 87t115.5 249q30 167 -36 263.5t-218 96.5z" />
    <glyph glyph-name="p" unicode="p" 
d="M535 133q256 0 315 334q64 352 -205 352q-129 0 -220 -83t-116 -224v2l-14 -80l2 4q-25 -135 41.5 -220t196.5 -85zM1024 453q-42 -233 -157 -355.5t-285 -122.5q-130 0 -210.5 78t-95.5 205h-12l-100 -571h-178l223 1269h178l-45 -251h14q128 276 373 276
q184 0 261 -138t34 -390z" />
    <glyph glyph-name="q" unicode="q" 
d="M457 133q116 0 201 73.5t118 196.5l25 138q14 129 -50 203.5t-190 74.5q-133 0 -210.5 -84t-108.5 -258q-61 -344 215 -344zM72 502q41 235 152.5 357t283.5 122q139 0 216 -76.5t93 -208.5l12 4l45 256h179l-228 -1288h-178l103 586h-11q-58 -127 -157 -203t-226 -76
q-176 0 -252 139.5t-32 387.5z" />
    <glyph glyph-name="r" unicode="r" horiz-adv-x="677" 
d="M219 0h-178l168 956h172l-49 -270l14 -2q61 151 145 217t197 66h41l-35 -197h-49q-156 0 -235 -68t-107 -229z" />
    <glyph glyph-name="s" unicode="s" horiz-adv-x="935" 
d="M430 -25q-209 0 -305 84t-107 232l170 31q10 -100 68.5 -155.5t185.5 -55.5q193 0 217 127q12 72 -37.5 111.5t-191.5 68.5q-176 37 -243 116t-44 203q22 116 119.5 180t263.5 64q94 0 162 -21.5t108.5 -61.5t61.5 -88.5t29 -111.5l-170 -30q-7 93 -56.5 136.5
t-146.5 43.5q-89 0 -140.5 -31.5t-62.5 -89.5q-11 -64 34.5 -107t170.5 -67q190 -37 263 -118.5t50 -207.5q-19 -121 -118 -186.5t-281 -65.5z" />
    <glyph glyph-name="t" unicode="t" horiz-adv-x="720" 
d="M156 307l88 502h-148l27 147h147l47 269h177l-48 -269h306l-27 -147h-305l-88 -504q-28 -164 121 -164q52 0 147 25l-2 -158q-115 -33 -195 -33q-152 0 -213.5 92t-33.5 240z" />
    <glyph glyph-name="u" unicode="u" horiz-adv-x="1089" 
d="M707 0l45 250h-17q-61 -130 -159 -202.5t-222 -72.5q-152 0 -222 99t-40 262l111 620h176l-103 -587q-20 -105 22 -167.5t151 -62.5q128 0 216.5 73.5t110.5 197.5l96 546h177l-168 -956h-174z" />
    <glyph glyph-name="v" unicode="v" horiz-adv-x="968" 
d="M514 0h-227l-209 956h188l66 -366q50 -274 71 -436h39q30 62 68 134t87 164t73 138l192 366h197z" />
    <glyph glyph-name="w" unicode="w" horiz-adv-x="1513" 
d="M944 956l37 -372q26 -266 33 -445h37q32 81 196 451l162 366h184l-469 -956h-233l-41 422q-20 222 -23 397h-30q-67 -181 -164 -397l-184 -422h-230l-131 956h178l39 -366q35 -307 41 -451h37q99 254 188 445l168 372h205z" />
    <glyph glyph-name="x" unicode="x" horiz-adv-x="1005" 
d="M690 0l-194 422h-13l-325 -422h-203l4 23l414 473l-250 438l4 22h186l193 -409h12l324 409h194l-4 -22l-403 -463l250 -448l-5 -23h-184z" />
    <glyph glyph-name="y" unicode="y" horiz-adv-x="985" 
d="M10 -352q-80 0 -133 12l45 164q72 -14 117 -14q93 0 154.5 39t136.5 161l-240 946h189l63 -342q72 -394 82 -456h31q26 51 76.5 148.5t89.5 173.5t67 132l178 344h199l-578 -968q-108 -181 -217 -260.5t-260 -79.5z" />
    <glyph glyph-name="z" unicode="z" horiz-adv-x="997" 
d="M586 158h266l-27 -158h-831l26 158l744 651l-4 18q-232 -26 -398 -26h-210l28 155h805l-27 -157l-743 -652l4 -18q247 29 367 29z" />
    <glyph glyph-name="braceleft" unicode="{" horiz-adv-x="747" 
d="M543 -371q-117 -6 -150 -6q-160 0 -231 69.5t-49 190.5q9 46 35 93t58.5 85.5t65 76t58 79.5t32.5 82q14 78 -31 116t-153 38h-141l26 155h142q99 0 166 38t80 114q10 54 -7.5 115t-42.5 108t-41.5 113t-5.5 129q18 105 107.5 164t247.5 59q36 0 159 -6l-26 -152
q-86 4 -113 4q-92 0 -138.5 -31t-58.5 -98q-8 -43 6 -94.5t34 -93.5t32 -102.5t2 -118.5q-17 -92 -94 -144t-217 -71l-4 -21q144 -13 198.5 -66.5t36.5 -152.5q-8 -46 -31.5 -91.5t-52.5 -82.5t-57.5 -72t-50.5 -72t-27 -71q-12 -66 23 -100.5t125 -34.5q30 0 112 4z" />
    <glyph glyph-name="bar" unicode="|" horiz-adv-x="438" 
d="M158 -360h-174l313 1779h176z" />
    <glyph glyph-name="braceright" unicode="}" horiz-adv-x="747" 
d="M47 -387q-99 0 -160 6l29 150q41 -2 111 -2q94 0 139.5 31t56.5 98q8 43 -6 94t-33.5 93t-31.5 103t-2 119q17 92 94 144t219 71l4 19q-145 15 -200.5 68t-37.5 153q10 55 44.5 112t69.5 97t67.5 89.5t40.5 90.5q11 67 -24 100t-126 33q-27 0 -113 -4l25 152q58 6 152 6
q160 0 231 -69t49 -191q-9 -46 -36 -93t-59.5 -85.5t-65 -76t-57.5 -79.5t-32 -82q-14 -77 31 -114.5t154 -37.5h141l-29 -155h-139q-99 0 -167 -38t-81 -114q-8 -44 2 -91.5t29.5 -89.5t38 -85.5t28 -96t0.5 -104.5q-19 -105 -108.5 -163t-247.5 -58z" />
    <glyph glyph-name="asciitilde" unicode="~" horiz-adv-x="1058" 
d="M758 539q-52 0 -92.5 18.5t-65.5 47.5t-44.5 65t-34.5 71.5t-31.5 64.5t-40 47.5t-54.5 18.5q-73 0 -113.5 -76t-62.5 -245h-113q6 79 17 133q31 173 102 261.5t178 88.5q61 0 105.5 -25t67.5 -62t44.5 -81t36.5 -81t43 -62t66 -25q138 0 178 324h111q-2 -40 -15 -131
q-30 -171 -105 -261.5t-177 -90.5z" />
    <glyph glyph-name="uni00A0" unicode="&#xa0;" horiz-adv-x="360" 
 />
    <glyph glyph-name="exclamdown" unicode="&#xa1;" horiz-adv-x="489" 
d="M162 518h180l-139 -790h-180zM401 737h-223l39 219h223z" />
    <glyph glyph-name="cent" unicode="&#xa2;" horiz-adv-x="1042" 
d="M590 1206h158l-58 -243q154 -19 229 -107.5t80 -228.5l-170 -31q-6 108 -60.5 163.5t-178.5 55.5q-134 0 -223 -82.5t-119 -247.5q-28 -161 34.5 -252.5t209.5 -91.5q120 0 189 59.5t114 168.5l157 -45q-117 -312 -432 -332l-31 -246h-157l57 250q-186 26 -270 161.5
t-47 350.5q36 211 164 328t323 129z" />
    <glyph glyph-name="sterling" unicode="&#xa3;" horiz-adv-x="1116" 
d="M952 0h-966l26 158h205q33 76 53 180q9 44 9 121h-209l24 141h174q-16 193 4 309q30 162 136.5 251t289.5 89q89 0 157.5 -20.5t112.5 -55t72.5 -86.5t41.5 -109t16 -128l-172 -27q-8 139 -59.5 204t-174.5 65q-112 0 -172.5 -61.5t-77.5 -160.5q-15 -87 -6 -270h477
l-24 -141h-449q-3 -40 -8 -66q-25 -144 -100 -235h647z" />
    <glyph glyph-name="yen" unicode="&#xa5;" horiz-adv-x="1169" 
d="M1067 342h-412l-61 -342h-186l59 342h-414l23 129h383l-64 154h-291l23 133h213l-184 448l4 23h196l226 -656h30l459 656h203l-4 -23l-342 -448h213l-23 -133h-291l-118 -154h381z" />
    <glyph glyph-name="brokenbar" unicode="&#xa6;" horiz-adv-x="438" 
d="M160 -360h-174l137 782h176zM332 606h-176l143 813h176z" />
    <glyph glyph-name="section" unicode="&#xa7;" horiz-adv-x="1208" 
d="M510 -350q-132 0 -228 28t-154 82t-86.5 126t-33.5 167l180 33q6 -142 83 -215.5t247 -73.5q247 0 273 154q15 86 -43 134t-228 83q-140 28 -234 64t-145.5 83.5t-67.5 103t-3 126.5q21 131 213 223q-45 79 -23 193q24 135 134 213.5t302 78.5q95 0 166.5 -18.5
t118.5 -50t78 -81t46 -105t21 -128.5l-180 -24q-11 136 -67.5 200t-190.5 64q-117 0 -180 -43t-76 -113q-7 -42 0.5 -73.5t36 -62t89.5 -54t157 -41.5q133 -27 219.5 -63t129.5 -81t56.5 -101t-0.5 -122q-21 -128 -184 -215q51 -77 31 -204q-25 -135 -136.5 -211t-320.5 -76
zM606 309q199 -42 285 -116q67 67 80 141q13 70 -14.5 114t-110.5 79t-246 69q-189 38 -276 119q-45 -37 -70 -70t-31 -72q-12 -64 14.5 -107.5t114.5 -82t254 -74.5z" />
    <glyph glyph-name="dieresis" unicode="&#xa8;" horiz-adv-x="669" 
d="M199 1327h192l-33 -190h-192zM563 1327h193l-33 -190h-193z" />
    <glyph glyph-name="copyright" unicode="&#xa9;" horiz-adv-x="1851" 
d="M860 -66q638 0 750 641q20 127 15.5 236t-45 198.5t-110 152.5t-180 97.5t-254.5 34.5q-633 0 -749 -641q-20 -127 -16 -236t44 -198.5t109.5 -152.5t180 -97.5t255.5 -34.5zM1049 1438q144 0 262 -30t202 -86t144.5 -135t88.5 -177t34 -212t-19 -241q-64 -366 -295 -566
t-620 -200q-144 0 -262 30.5t-201.5 86t-144 135t-88 177.5t-33.5 213t18 241q66 366 296 565t618 199zM1182 705q0 105 -41.5 156.5t-143.5 51.5q-231 0 -280 -278q-25 -144 24 -227.5t172 -83.5q104 0 160 48.5t76 141.5l156 -20q-37 -159 -137 -236.5t-271 -77.5
q-194 0 -287.5 126.5t-54.5 342.5q35 198 152 302t301 104q173 0 255 -86.5t76 -247.5z" />
    <glyph glyph-name="ordfeminine" unicode="&#xaa;" horiz-adv-x="798" 
d="M395 760q90 0 157 52t79 130l4 23h-197q-141 0 -159 -97q-8 -49 17.5 -78.5t98.5 -29.5zM594 672l29 172h-11q-48 -90 -118.5 -140.5t-161.5 -50.5q-104 0 -160 56t-41 153q28 172 279 172h237l17 82q11 66 -19.5 106t-105.5 40q-128 0 -189 -129l-133 43q98 204 334 204
q154 0 219 -78t41 -210l-74 -420h-143z" />
    <glyph glyph-name="guillemotleft" unicode="&#xab;" horiz-adv-x="1267" 
d="M637 70h-170l-420 440l6 37l565 440h181l-4 -26l-557 -435l-2 -8l405 -426zM1143 70h-170l-420 440l6 37l565 440h181l-5 -26l-557 -435l-2 -8l406 -426z" />
    <glyph glyph-name="registered" unicode="&#xae;" horiz-adv-x="1853" 
d="M1036 901h-237l-47 -274h237q173 0 193 129q14 73 -19.5 109t-126.5 36zM1118 211l-190 301h-197l-53 -301h-160l144 817h401q161 0 230.5 -74t47.5 -206q-34 -189 -254 -228l209 -293l-4 -16h-174zM860 -66q638 0 750 641q20 127 15.5 236t-45 198.5t-110 152.5
t-180 97.5t-254.5 34.5q-633 0 -749 -641q-20 -127 -16 -236t44 -198.5t109.5 -152.5t180 -97.5t255.5 -34.5zM846 -209q-144 0 -262 30.5t-201.5 86t-144 135t-88 177.5t-33.5 213t18 241q66 366 296 565t618 199q144 0 262 -30t202 -86t144.5 -135t88.5 -177t34 -212
t-19 -241q-64 -366 -295 -566t-620 -200z" />
    <glyph glyph-name="macron" unicode="&#xaf;" horiz-adv-x="651" 
d="M186 1274h557l-22 -131h-557z" />
    <glyph glyph-name="degree" unicode="&#xb0;" horiz-adv-x="651" 
d="M614 1042q25 -83 -17 -155t-134 -107q-97 -32 -164.5 8.5t-85.5 135.5q-23 82 19 153.5t133 106.5q97 32 164 -8t85 -134zM311 930q15 -49 51 -63t89 12q48 28 65 69t0 86q-15 49 -51.5 63t-89.5 -12q-47 -28 -64 -68.5t0 -86.5z" />
    <glyph glyph-name="twosuperior" unicode="&#xb2;" horiz-adv-x="755" 
d="M530 1280q-82 0 -134 -43t-83 -133l-125 29q87 256 351 256q148 0 217 -64t49 -176q-8 -48 -32 -82.5t-69.5 -60t-98.5 -42.5t-138 -36q-127 -30 -178.5 -66.5t-69.5 -103.5q122 16 260 16h271l-21 -119h-647q2 11 5 32.5t5 33.5q22 120 97 185.5t235 105.5
q136 34 187.5 64.5t60.5 84.5q9 55 -25.5 87t-116.5 32z" />
    <glyph glyph-name="threesuperior" unicode="&#xb3;" horiz-adv-x="741" 
d="M416 639q-297 0 -307 231l129 23q6 -72 49.5 -107.5t138.5 -35.5q169 0 188 108q9 58 -23 83.5t-126 25.5h-115l17 94h112q151 0 168 104q9 57 -24 85t-113 28q-83 0 -131.5 -34t-75.5 -103l-121 30q87 218 336 218q142 0 209.5 -56.5t52.5 -152.5q-12 -67 -61.5 -104.5
t-140.5 -49.5l-5 -18q105 -13 144.5 -57.5t27.5 -123.5q-36 -188 -329 -188z" />
    <glyph glyph-name="acute" unicode="&#xb4;" horiz-adv-x="634" 
d="M193 1065l-37 92l524 270l55 -129z" />
    <glyph glyph-name="paragraph" unicode="&#xb6;" horiz-adv-x="1331" 
d="M1051 -330h-170l274 1559h172zM754 -330h-172l110 631h-127q-246 0 -364.5 133t-77.5 369q38 217 172.5 321.5t366.5 104.5h366z" />
    <glyph glyph-name="periodcentered" unicode="&#xb7;" horiz-adv-x="428" 
d="M125 608h223l-39 -219h-223z" />
    <glyph glyph-name="cedilla" unicode="&#xb8;" horiz-adv-x="464" 
d="M115 -344q-126 0 -203 59l57 74q67 -49 156 -49q88 0 98 57q5 28 -15 44t-61 16q-29 0 -86 -15l-55 27l98 178l82 -4l-84 -147q41 16 86 16q68 0 104 -30.5t25 -94.5q-9 -52 -60 -91.5t-142 -39.5z" />
    <glyph glyph-name="onesuperior" unicode="&#xb9;" horiz-adv-x="604" 
d="M610 655h-532l22 119h219l84 486q-134 -67 -210 -95l-29 113l305 96h88l-106 -600h180z" />
    <glyph glyph-name="ordmasculine" unicode="&#xba;" horiz-adv-x="788" 
d="M451 662q-168 0 -246 106.5t-47 286.5q28 152 129.5 238.5t249.5 86.5q161 0 241 -104.5t49 -278.5q-27 -156 -125.5 -245.5t-250.5 -89.5zM528 1262q-97 0 -156.5 -59.5t-80.5 -170.5q-21 -118 21 -185t145 -67q99 0 158.5 62.5t78.5 175.5q22 113 -21.5 178.5
t-144.5 65.5z" />
    <glyph glyph-name="guillemotright" unicode="&#xbb;" horiz-adv-x="1273" 
d="M659 57h-182l6 27l557 434l2 8l-407 426l6 25h170l420 -442l-6 -37zM154 57h-181l4 27l558 434l2 8l-406 426l4 25h170l420 -442l-6 -37z" />
    <glyph glyph-name="onequarter" unicode="&#xbc;" horiz-adv-x="1513" 
d="M254 0h-242l2 12l639 533l41 -39zM1245 1229h242l-2 -12l-639 -533l-41 39zM610 655h-532l22 119h219l84 486q-134 -67 -210 -95l-29 113l305 96h88l-106 -600h180zM1038 133h74l59 338l-8 4l-366 -356v-2q134 16 241 16zM1337 27h-112l-31 -170h-131l31 170h-445l17 88
l481 458h174l-78 -440h113z" />
    <glyph glyph-name="onehalf" unicode="&#xbd;" horiz-adv-x="1488" 
d="M240 0h-242l2 12l639 533l41 -39zM1231 1229h242l-3 -12l-639 -533l-40 39zM610 655h-532l22 119h219l84 486q-134 -67 -210 -95l-29 113l305 96h88l-106 -600h180zM1104 481q-82 0 -134 -43t-83 -133l-125 29q87 256 350 256q148 0 217 -64t49 -176q-8 -48 -32 -82.5
t-69.5 -60t-98.5 -42.5t-138 -36q-127 -30 -178 -66.5t-69 -103.5q122 16 260 16h270l-20 -118h-648q2 12 5.5 32.5t5.5 32.5q22 120 96.5 185.5t234.5 105.5q136 34 187.5 64.5t60.5 84.5q9 55 -25 87t-116 32z" />
    <glyph glyph-name="threequarters" unicode="&#xbe;" horiz-adv-x="1544" 
d="M315 0h-241l2 12l639 533l41 -39zM1307 1229h241l-2 -12l-639 -533l-41 39zM1389 27h-113l-31 -170h-131l31 170h-445l17 88l481 458h174l-78 -440h113zM424 639q-297 0 -307 231l129 23q6 -72 49.5 -107.5t138.5 -35.5q170 0 189 108q9 58 -23.5 83.5t-126.5 25.5h-115
l17 94h112q151 0 168 104q9 57 -24 85t-113 28q-83 0 -131.5 -34t-75.5 -103l-121 30q87 218 336 218q142 0 209.5 -56.5t52.5 -152.5q-12 -67 -61.5 -104.5t-140.5 -49.5l-4 -18q105 -13 144.5 -57.5t27.5 -123.5q-36 -188 -330 -188zM1090 133h73l60 338l-9 4l-366 -356
v-2q134 16 242 16z" />
    <glyph glyph-name="questiondown" unicode="&#xbf;" horiz-adv-x="997" 
d="M297 393q71 29 101.5 69t39.5 89q4 12 4 20h172q0 -10 -4 -30q-17 -93 -68 -153t-157 -109q-120 -53 -166 -93t-59 -114q-18 -97 38.5 -153t180.5 -56q136 0 219.5 83t132.5 240l172 -32q-135 -449 -538 -449q-213 0 -316.5 100.5t-73.5 272.5q10 53 32 97t50.5 75.5
t70 59t79.5 45.5t90 38zM670 737h-221l38 219h222z" />
    <glyph glyph-name="Agrave" unicode="&#xc0;" horiz-adv-x="1193" 
d="M922 0l-66 344h-555l-184 -344h-205l692 1229h250l260 -1229h-192zM915 1350l-512 143l62 141l489 -186zM461 639l-82 -152h450l-28 152q-37 188 -70 424h-51q-81 -169 -219 -424z" />
    <glyph glyph-name="Aacute" unicode="&#xc1;" horiz-adv-x="1193" 
d="M922 0l-66 344h-555l-184 -344h-205l692 1229h250l260 -1229h-192zM571 1350l-18 96l553 190l29 -145zM461 639l-82 -152h450l-28 152q-37 188 -70 424h-51q-81 -169 -219 -424z" />
    <glyph glyph-name="Acircumflex" unicode="&#xc2;" horiz-adv-x="1193" 
d="M922 0l-66 344h-555l-184 -344h-205l692 1229h250l260 -1229h-192zM993 1323l-211 172l-274 -172l-53 74l311 239h70l225 -239zM461 639l-82 -152h450l-28 152q-37 188 -70 424h-51q-81 -169 -219 -424z" />
    <glyph glyph-name="Atilde" unicode="&#xc3;" horiz-adv-x="1193" 
d="M922 0l-66 344h-555l-184 -344h-205l692 1229h250l260 -1229h-192zM610 1671q46 0 80.5 -20.5t54.5 -50.5t37.5 -59.5t39 -50t48.5 -20.5q43 0 67 46t40 147h90q0 -34 -8 -92q-21 -114 -72 -172t-123 -58q-43 0 -75 20.5t-51.5 50.5t-37 59.5t-41 50t-53.5 20.5
q-46 0 -69 -41.5t-41 -146.5h-90q0 36 8 90q21 113 72.5 170t123.5 57zM461 639l-82 -152h450l-28 152q-37 188 -70 424h-51q-81 -169 -219 -424z" />
    <glyph glyph-name="Adieresis" unicode="&#xc4;" horiz-adv-x="1193" 
d="M922 0l-66 344h-555l-184 -344h-205l692 1229h250l260 -1229h-192zM483 1550h193l-33 -190h-192zM848 1550h192l-32 -190h-193zM461 639l-82 -152h450l-28 152q-37 188 -70 424h-51q-81 -169 -219 -424z" />
    <glyph glyph-name="Aring" unicode="&#xc5;" horiz-adv-x="1193" 
d="M922 0l-66 344h-555l-184 -344h-205l692 1229h250l260 -1229h-192zM674 1538q-9 -54 16 -84.5t78 -30.5q48 0 82 28.5t43 78.5q9 55 -16 85t-78 30q-50 0 -83 -28t-42 -79zM997 1524q-17 -91 -82.5 -145t-160.5 -54q-101 0 -151.5 60.5t-33.5 160.5q17 90 82.5 143.5
t161.5 53.5q100 0 150.5 -60.5t33.5 -158.5zM461 639l-82 -152h450l-28 152q-37 188 -70 424h-51q-81 -169 -219 -424z" />
    <glyph glyph-name="AE" unicode="&#xc6;" horiz-adv-x="1753" 
d="M565 639l-135 -199h365l110 631h-57q-94 -153 -283 -432zM717 0l51 295h-438l-201 -295h-205l2 12l865 1217h997l-31 -166h-663l-64 -356h598l-29 -164h-598l-67 -377h665l-30 -166h-852z" />
    <glyph glyph-name="Ccedilla" unicode="&#xc7;" horiz-adv-x="1277" 
d="M596 -25q-33 0 -47 2l-47 -81q41 16 86 16q68 0 104 -30.5t25 -94.5q-9 -52 -60.5 -91.5t-142.5 -39.5q-126 0 -203 59l58 74q67 -49 155 -49q89 0 99 57q5 28 -15 44t-61 16q-29 0 -86 -15l-55 27l63 117q-226 39 -323.5 215.5t-49.5 445.5q51 287 225 446.5t441 159.5
q239 0 364.5 -126.5t130.5 -344.5l-184 -22q-6 165 -85.5 246t-244.5 81q-192 0 -309 -122t-155 -338q-23 -148 -1 -256.5t105.5 -170t220.5 -61.5q164 0 265.5 86t162.5 256l174 -39q-149 -467 -610 -467z" />
    <glyph glyph-name="Egrave" unicode="&#xc8;" 
d="M57 0l215 1229h856l-30 -166h-664l-63 -356h598l-29 -164h-598l-68 -377h666l-31 -166h-852zM887 1350l-512 143l61 141l490 -186z" />
    <glyph glyph-name="Eacute" unicode="&#xc9;" 
d="M57 0l215 1229h856l-30 -166h-664l-63 -356h598l-29 -164h-598l-68 -377h666l-31 -166h-852zM545 1350l-19 96l553 190l29 -145z" />
    <glyph glyph-name="Ecircumflex" unicode="&#xca;" 
d="M57 0l215 1229h856l-30 -166h-664l-63 -356h598l-29 -164h-598l-68 -377h666l-31 -166h-852zM967 1323l-211 172l-275 -172l-53 74l311 239h70l225 -239z" />
    <glyph glyph-name="Edieresis" unicode="&#xcb;" 
d="M57 0l215 1229h856l-30 -166h-664l-63 -356h598l-29 -164h-598l-68 -377h666l-31 -166h-852zM457 1550h192l-33 -190h-192zM821 1550h193l-33 -190h-193z" />
    <glyph glyph-name="Igrave" unicode="&#xcc;" horiz-adv-x="462" 
d="M240 0h-187l215 1229h189zM549 1350l-512 143l61 141l490 -186z" />
    <glyph glyph-name="Iacute" unicode="&#xcd;" horiz-adv-x="462" 
d="M240 0h-187l215 1229h189zM205 1350l-19 96l553 190l29 -145z" />
    <glyph glyph-name="Icircumflex" unicode="&#xce;" horiz-adv-x="462" 
d="M240 0h-187l215 1229h189zM627 1323l-211 172l-275 -172l-53 74l311 239h70l225 -239z" />
    <glyph glyph-name="Idieresis" unicode="&#xcf;" horiz-adv-x="462" 
d="M240 0h-187l215 1229h189zM119 1550h192l-32 -190h-193zM483 1550h193l-33 -190h-192z" />
    <glyph glyph-name="Eth" unicode="&#xd0;" horiz-adv-x="1361" 
d="M748 551h-342l-70 -393h289q223 0 346.5 113t161.5 333q43 240 -47.5 353.5t-331.5 113.5h-256l-70 -395h340zM121 0l96 551h-154l21 125h156l96 553h455q317 0 448 -169t76 -482q-49 -277 -232.5 -428.5t-461.5 -151.5z" />
    <glyph glyph-name="Ntilde" unicode="&#xd1;" horiz-adv-x="1308" 
d="M842 0l-248 610q-86 216 -152 451l-43 -2q-29 -280 -86 -600l-82 -459h-176l217 1229h267l219 -533q104 -258 172 -501h39q29 278 82 573l79 461h177l-217 -1229h-248zM668 1671q46 0 80.5 -20.5t54.5 -50.5t37.5 -59.5t39 -50t48.5 -20.5q43 0 66.5 46t39.5 147h90
q0 -34 -8 -92q-21 -115 -71.5 -172.5t-122.5 -57.5q-43 0 -75 20.5t-51.5 50.5t-37 59.5t-41 50t-53.5 20.5q-46 0 -69.5 -42t-41.5 -146h-90q0 36 8 90q21 113 72.5 170t124.5 57z" />
    <glyph glyph-name="Ograve" unicode="&#xd2;" horiz-adv-x="1347" 
d="M616 -25q-200 0 -330.5 87.5t-177 241.5t-10.5 355q48 274 227.5 434t452.5 160q197 0 328 -86.5t179.5 -240.5t12.5 -355q-51 -275 -228 -435.5t-454 -160.5zM627 139q206 0 328.5 120.5t160.5 338.5q38 221 -49 355t-299 134q-205 0 -327 -118.5t-160 -331.5
q-26 -148 0.5 -258t114.5 -175t231 -65zM991 1350l-512 143l62 141l489 -186z" />
    <glyph glyph-name="Oacute" unicode="&#xd3;" horiz-adv-x="1347" 
d="M616 -25q-200 0 -330.5 87.5t-177 241.5t-10.5 355q48 274 227.5 434t452.5 160q197 0 328 -86.5t179.5 -240.5t12.5 -355q-51 -275 -228 -435.5t-454 -160.5zM627 139q206 0 328.5 120.5t160.5 338.5q38 221 -49 355t-299 134q-205 0 -327 -118.5t-160 -331.5
q-26 -148 0.5 -258t114.5 -175t231 -65zM649 1350l-18 96l553 190l28 -145z" />
    <glyph glyph-name="Ocircumflex" unicode="&#xd4;" horiz-adv-x="1347" 
d="M627 139q206 0 328.5 120.5t160.5 338.5q38 221 -49 355t-299 134q-205 0 -327 -118.5t-160 -331.5q-26 -148 0.5 -258t114.5 -175t231 -65zM616 -25q-200 0 -330.5 87.5t-177 241.5t-10.5 355q48 274 227.5 434t452.5 160q197 0 328 -86.5t179.5 -240.5t12.5 -355
q-51 -275 -228 -435.5t-454 -160.5zM1071 1323l-211 172l-274 -172l-54 74l312 239h69l226 -239z" />
    <glyph glyph-name="Otilde" unicode="&#xd5;" horiz-adv-x="1347" 
d="M616 -25q-200 0 -330.5 87.5t-177 241.5t-10.5 355q48 274 227.5 434t452.5 160q197 0 328 -86.5t179.5 -240.5t12.5 -355q-51 -275 -228 -435.5t-454 -160.5zM627 139q206 0 328.5 120.5t160.5 338.5q38 221 -49 355t-299 134q-205 0 -327 -118.5t-160 -331.5
q-26 -148 0.5 -258t114.5 -175t231 -65zM686 1671q46 0 80.5 -20.5t54.5 -50.5t37.5 -59.5t39 -50t48.5 -20.5q43 0 67 46t40 147h90q0 -34 -8 -92q-21 -114 -72 -172t-123 -58q-43 0 -75 20.5t-51.5 50.5t-37 59.5t-41 50t-53.5 20.5q-46 0 -69.5 -42t-41.5 -146h-90
q0 36 8 90q21 113 72.5 170t124.5 57z" />
    <glyph glyph-name="Odieresis" unicode="&#xd6;" horiz-adv-x="1347" 
d="M616 -25q-200 0 -330.5 87.5t-177 241.5t-10.5 355q48 274 227.5 434t452.5 160q197 0 328 -86.5t179.5 -240.5t12.5 -355q-51 -275 -228 -435.5t-454 -160.5zM627 139q206 0 328.5 120.5t160.5 338.5q38 221 -49 355t-299 134q-205 0 -327 -118.5t-160 -331.5
q-26 -148 0.5 -258t114.5 -175t231 -65zM561 1550h193l-33 -190h-193zM926 1550h192l-33 -190h-192z" />
    <glyph glyph-name="multiply" unicode="&#xd7;" horiz-adv-x="1017" 
d="M758 215q-41 54 -120 156.5t-120 156.5q-282 -262 -348 -321l-113 133q127 100 377 289q-137 142 -268 289l143 118q33 -45 111 -145.5t127 -167.5q220 204 350 319l113 -133q-222 -171 -377 -286q255 -276 266 -289z" />
    <glyph glyph-name="Oslash" unicode="&#xd8;" horiz-adv-x="1343" 
d="M616 -25q-252 0 -395 140l-127 -115h-157v10l219 191q-108 181 -58 458q48 274 227.5 434t452.5 160q260 0 406 -149l137 125h149l-2 -10l-223 -199q100 -178 53 -449q-51 -275 -228 -435.5t-454 -160.5zM274 639q-35 -187 21 -317l756 663q-93 107 -281 107
q-208 0 -333 -119.5t-163 -333.5zM625 135q210 0 333.5 121.5t163.5 341.5q31 181 -16 299l-754 -664q92 -98 273 -98z" />
    <glyph glyph-name="Ugrave" unicode="&#xd9;" horiz-adv-x="1288" 
d="M604 143q166 0 247.5 84t111.5 248l133 754h186l-135 -778q-83 -474 -551 -474q-263 0 -382 132t-75 378l129 742h189l-131 -744q-16 -74 -8 -136.5t36.5 -108.5t91.5 -71.5t158 -25.5zM963 1350l-512 143l61 141l489 -186z" />
    <glyph glyph-name="Uacute" unicode="&#xda;" horiz-adv-x="1288" 
d="M604 143q166 0 247.5 84t111.5 248l133 754h186l-135 -778q-83 -474 -551 -474q-263 0 -382 132t-75 378l129 742h189l-131 -744q-16 -74 -8 -136.5t36.5 -108.5t91.5 -71.5t158 -25.5zM618 1350l-18 96l553 190l29 -145z" />
    <glyph glyph-name="Ucircumflex" unicode="&#xdb;" horiz-adv-x="1288" 
d="M604 143q166 0 247.5 84t111.5 248l133 754h186l-135 -778q-83 -474 -551 -474q-263 0 -382 132t-75 378l129 742h189l-131 -744q-16 -74 -8 -136.5t36.5 -108.5t91.5 -71.5t158 -25.5zM1040 1323l-211 172l-274 -172l-53 74l311 239h70l225 -239z" />
    <glyph glyph-name="Udieresis" unicode="&#xdc;" horiz-adv-x="1288" 
d="M604 143q166 0 247.5 84t111.5 248l133 754h186l-135 -778q-83 -474 -551 -474q-263 0 -382 132t-75 378l129 742h189l-131 -744q-16 -74 -8 -136.5t36.5 -108.5t91.5 -71.5t158 -25.5zM530 1550h193l-33 -190h-192zM895 1550h192l-32 -190h-193z" />
    <glyph glyph-name="Yacute" unicode="&#xdd;" horiz-adv-x="1091" 
d="M555 0h-186l73 418l-325 788l4 23h196l226 -656h30l459 656h203l-4 -23l-600 -788zM520 1350l-18 96l553 190l28 -145z" />
    <glyph glyph-name="Thorn" unicode="&#xde;" horiz-adv-x="1097" 
d="M268 1229h189l-35 -201h285q222 0 318 -109t58 -325q-30 -168 -152 -263t-327 -95h-323l-41 -236h-187zM678 868h-285l-84 -471h289q139 0 212 52t93 165q22 133 -29 193.5t-196 60.5z" />
    <glyph glyph-name="germandbls" unicode="&#xdf;" horiz-adv-x="1148" 
d="M635 -20q-106 0 -177.5 32.5t-121.5 100.5l82 141q66 -111 223 -111q199 0 236 197q12 55 3 102.5t-36 82t-87 54t-149 19.5h-129l27 152h98q108 0 178 52t90 159q16 99 -32 162t-168 63q-127 0 -192.5 -69.5t-88.5 -201.5l-162 -915h-178l164 928q34 200 151 303.5
t316 103.5q105 0 183 -29.5t121.5 -81t59.5 -117.5t3 -142q-38 -219 -310 -267l-4 -26q103 -11 171 -42t101 -78t42 -111t-7 -142q-27 -151 -128.5 -235t-278.5 -84z" />
    <glyph glyph-name="agrave" unicode="&#xe0;" 
d="M807 1069l-459 229l78 134l430 -275zM453 135q121 0 208.5 75t118.5 206l6 39l13 69q20 133 -44 214t-194 81q-259 0 -317 -332q-64 -352 209 -352zM72 508q41 226 155.5 349.5t280.5 123.5q146 0 222 -78.5t89 -214.5l10 6l45 262h179l-168 -956h-178l45 258l-4 -2l2 23
q-57 -137 -160 -220.5t-236 -83.5q-175 0 -250.5 139.5t-31.5 393.5z" />
    <glyph glyph-name="aacute" unicode="&#xe1;" 
d="M494 1065l-37 92l524 270l55 -129zM453 135q121 0 208.5 75t118.5 206l6 39l13 69q20 133 -44 214t-194 81q-259 0 -317 -332q-64 -352 209 -352zM72 508q41 226 155.5 349.5t280.5 123.5q146 0 222 -78.5t89 -214.5l10 6l45 262h179l-168 -956h-178l45 258l-4 -2l2 23
q-57 -137 -160 -220.5t-236 -83.5q-175 0 -250.5 139.5t-31.5 393.5z" />
    <glyph glyph-name="acircumflex" unicode="&#xe2;" 
d="M879 1067l-201 209l-275 -209l-63 68l322 286h69l217 -286zM453 135q121 0 208.5 75t118.5 206l6 39l13 69q20 133 -44 214t-194 81q-259 0 -317 -332q-64 -352 209 -352zM72 508q41 226 155.5 349.5t280.5 123.5q146 0 222 -78.5t89 -214.5l10 6l45 262h179l-168 -956
h-178l45 258l-4 -2l2 23q-57 -137 -160 -220.5t-236 -83.5q-175 0 -250.5 139.5t-31.5 393.5z" />
    <glyph glyph-name="atilde" unicode="&#xe3;" 
d="M539 1427q46 0 80.5 -20.5t54.5 -50t37.5 -59t39 -50t48.5 -20.5q43 0 66.5 45.5t39.5 146.5h90q0 -34 -8 -92q-21 -114 -71.5 -171.5t-122.5 -57.5q-43 0 -75 20.5t-51.5 50t-37 59t-41 50t-53.5 20.5q-46 0 -69.5 -42t-41.5 -146h-90q0 36 8 90q21 113 72.5 170
t124.5 57zM453 135q121 0 208.5 75t118.5 206l6 39l13 69q20 133 -44 214t-194 81q-259 0 -317 -332q-64 -352 209 -352zM72 508q41 226 155.5 349.5t280.5 123.5q146 0 222 -78.5t89 -214.5l10 6l45 262h179l-168 -956h-178l45 258l-4 -2l2 23q-57 -137 -160 -220.5
t-236 -83.5q-175 0 -250.5 139.5t-31.5 393.5z" />
    <glyph glyph-name="adieresis" unicode="&#xe4;" 
d="M393 1327h193l-33 -190h-193zM758 1327h192l-32 -190h-193zM453 135q121 0 208.5 75t118.5 206l6 39l13 69q20 133 -44 214t-194 81q-259 0 -317 -332q-64 -352 209 -352zM72 508q41 226 155.5 349.5t280.5 123.5q146 0 222 -78.5t89 -214.5l10 6l45 262h179l-168 -956
h-178l45 258l-4 -2l2 23q-57 -137 -160 -220.5t-236 -83.5q-175 0 -250.5 139.5t-31.5 393.5z" />
    <glyph glyph-name="aring" unicode="&#xe5;" 
d="M547 1303q-10 -61 18.5 -96.5t87.5 -35.5q55 0 92.5 32t47.5 91q10 61 -19 95t-88 34q-55 0 -92 -31t-47 -89zM895 1280q-17 -97 -84.5 -152t-167.5 -55q-109 0 -163.5 67.5t-35.5 172.5q17 98 84.5 153.5t167.5 55.5q108 0 163 -68t36 -174zM453 135q121 0 208.5 75
t118.5 206l6 39l13 69q20 133 -44 214t-194 81q-259 0 -317 -332q-64 -352 209 -352zM72 508q41 226 155.5 349.5t280.5 123.5q146 0 222 -78.5t89 -214.5l10 6l45 262h179l-168 -956h-178l45 258l-4 -2l2 23q-57 -137 -160 -220.5t-236 -83.5q-175 0 -250.5 139.5
t-31.5 393.5z" />
    <glyph glyph-name="ae" unicode="&#xe6;" horiz-adv-x="1687" 
d="M367 123q129 0 218.5 65t106.5 168l13 74h-285q-91 0 -146 -36t-67 -105q-13 -72 25 -119t135 -47zM1243 840q-130 0 -217 -76.5t-123 -228.5h561q49 305 -221 305zM1575 276q-62 -146 -169.5 -223.5t-281.5 -77.5q-167 0 -272 72.5t-127 206.5q-62 -135 -174.5 -206
t-251.5 -71q-142 0 -216.5 78t-47.5 224q19 113 113.5 177t257.5 64h315l16 88q19 111 -22 167t-156 56q-93 0 -155.5 -47t-102.5 -143l-160 45q54 139 160 216t258 77q284 0 320 -211q129 213 387 213q212 0 304.5 -121.5t57.5 -329.5q0 -2 -7 -36t-13 -56h-723
q-17 -153 46.5 -233t205.5 -80q61 0 109 15.5t82 45.5t57 62.5t45 79.5z" />
    <glyph glyph-name="ccedilla" unicode="&#xe7;" horiz-adv-x="1062" 
d="M829 596q-6 112 -58.5 169.5t-176.5 57.5q-137 0 -226.5 -84t-119.5 -254q-28 -163 34 -257.5t207 -94.5q122 0 190.5 61t115.5 175l157 -45q-127 -349 -477 -349q-29 0 -43 2l-47 -81q41 16 86 16q68 0 104 -30.5t25 -94.5q-9 -52 -60.5 -91.5t-142.5 -39.5
q-125 0 -202 59l57 74q67 -49 156 -49q88 0 98 57q5 28 -15 44t-61 16q-28 0 -86 -15l-55 27l65 119q-168 37 -242.5 174t-39.5 348q39 223 182 347t352 124q383 0 393 -354z" />
    <glyph glyph-name="egrave" unicode="&#xe8;" horiz-adv-x="1038" 
d="M594 840q-126 0 -212.5 -71t-125.5 -214h561q39 285 -223 285zM475 -23q-229 0 -338 141t-67 392q39 221 184 346t354 125q217 0 312 -124.5t57 -338.5q0 -1 -21 -92h-723q-12 -147 51 -224t199 -77q118 0 184.5 51.5t110.5 145.5l148 -52q-64 -142 -172 -217.5
t-279 -75.5zM803 1069l-459 229l78 134l430 -275z" />
    <glyph glyph-name="eacute" unicode="&#xe9;" horiz-adv-x="1038" 
d="M594 840q-126 0 -212.5 -71t-125.5 -214h561q39 285 -223 285zM475 -23q-229 0 -338 141t-67 392q39 221 184 346t354 125q217 0 312 -124.5t57 -338.5q0 -1 -21 -92h-723q-12 -147 51 -224t199 -77q118 0 184.5 51.5t110.5 145.5l148 -52q-64 -142 -172 -217.5
t-279 -75.5zM483 1065l-37 92l525 270l55 -129z" />
    <glyph glyph-name="ecircumflex" unicode="&#xea;" horiz-adv-x="1038" 
d="M594 840q-126 0 -212.5 -71t-125.5 -214h561q39 285 -223 285zM475 -23q-229 0 -338 141t-67 392q39 221 184 346t354 125q217 0 312 -124.5t57 -338.5q0 -1 -21 -92h-723q-12 -147 51 -224t199 -77q118 0 184.5 51.5t110.5 145.5l148 -52q-64 -142 -172 -217.5
t-279 -75.5zM877 1067l-201 209l-275 -209l-63 68l321 286h70l217 -286z" />
    <glyph glyph-name="edieresis" unicode="&#xeb;" horiz-adv-x="1038" 
d="M594 840q-126 0 -212.5 -71t-125.5 -214h561q39 285 -223 285zM475 -23q-229 0 -338 141t-67 392q39 221 184 346t354 125q217 0 312 -124.5t57 -338.5q0 -1 -21 -92h-723q-12 -147 51 -224t199 -77q118 0 184.5 51.5t110.5 145.5l148 -52q-64 -142 -172 -217.5
t-279 -75.5zM391 1327h193l-33 -190h-193zM756 1327h192l-33 -190h-192z" />
    <glyph glyph-name="igrave" unicode="&#xec;" horiz-adv-x="518" 
d="M264 0h-178l168 956h178zM535 1069l-459 229l78 134l430 -275z" />
    <glyph glyph-name="iacute" unicode="&#xed;" horiz-adv-x="518" 
d="M264 0h-178l168 956h178zM211 1065l-37 92l524 270l56 -129z" />
    <glyph glyph-name="icircumflex" unicode="&#xee;" horiz-adv-x="518" 
d="M264 0h-178l168 956h178zM608 1067l-200 209l-275 -209l-63 68l321 286h70l217 -286z" />
    <glyph glyph-name="idieresis" unicode="&#xef;" horiz-adv-x="518" 
d="M264 0h-178l168 956h178zM123 1327h192l-32 -190h-193zM487 1327h193l-33 -190h-192z" />
    <glyph glyph-name="eth" unicode="&#xf0;" horiz-adv-x="1067" 
d="M463 -25q-226 0 -331.5 132t-63.5 378q37 208 161 319t297 111q126 0 205.5 -67t106.5 -184l22 6q-15 235 -194 424l-291 -107l-33 100l236 87q-57 47 -148 100l74 100q133 -62 233 -143l244 90l31 -102l-187 -68q248 -263 181 -641q-44 -253 -186.5 -394t-356.5 -141z
M823 469q25 145 -40.5 229t-211.5 84q-132 0 -217.5 -82t-111.5 -233q-29 -161 30 -248.5t203 -87.5q135 0 227.5 92t120.5 246z" />
    <glyph glyph-name="ntilde" unicode="&#xf1;" horiz-adv-x="1089" 
d="M315 547l-96 -547h-178l168 956h174l-43 -247h18q59 130 156 201t221 71q153 0 222.5 -97.5t39.5 -262.5l-108 -621h-178l104 590q18 104 -23.5 166.5t-150.5 62.5q-128 0 -216 -74t-110 -198zM561 1427q46 0 80.5 -20.5t54.5 -50t37.5 -59t39 -50t48.5 -20.5q43 0 67 46
t40 146h90q0 -34 -8 -92q-21 -114 -72 -171.5t-123 -57.5q-43 0 -75 20.5t-51.5 50t-37 59t-41 50t-53.5 20.5q-46 0 -69.5 -42t-41.5 -146h-90q0 29 9 90q21 113 72.5 170t123.5 57z" />
    <glyph glyph-name="ograve" unicode="&#xf2;" horiz-adv-x="1089" 
d="M483 -25q-235 0 -343.5 149.5t-65.5 395.5q39 223 180.5 342t351.5 119q227 0 340 -148t70 -391q-38 -223 -178 -345t-355 -122zM590 827q-140 0 -227 -84t-115 -243q-29 -170 33.5 -269.5t214.5 -99.5q145 0 232.5 87t115.5 249q30 167 -36 263.5t-218 96.5zM811 1069
l-459 229l78 134l430 -275z" />
    <glyph glyph-name="oacute" unicode="&#xf3;" horiz-adv-x="1089" 
d="M483 -25q-235 0 -343.5 149.5t-65.5 395.5q39 223 180.5 342t351.5 119q227 0 340 -148t70 -391q-38 -223 -178 -345t-355 -122zM590 827q-140 0 -227 -84t-115 -243q-29 -170 33.5 -269.5t214.5 -99.5q145 0 232.5 87t115.5 249q30 167 -36 263.5t-218 96.5zM492 1065
l-37 92l524 270l55 -129z" />
    <glyph glyph-name="ocircumflex" unicode="&#xf4;" horiz-adv-x="1089" 
d="M590 827q-140 0 -227 -84t-115 -243q-29 -170 33.5 -269.5t214.5 -99.5q145 0 232.5 87t115.5 249q30 167 -36 263.5t-218 96.5zM483 -25q-235 0 -343.5 149.5t-65.5 395.5q39 223 180.5 342t351.5 119q227 0 340 -148t70 -391q-38 -223 -178 -345t-355 -122zM887 1067
l-201 209l-274 -209l-64 68l322 286h69l217 -286z" />
    <glyph glyph-name="otilde" unicode="&#xf5;" horiz-adv-x="1089" 
d="M483 -25q-235 0 -343.5 149.5t-65.5 395.5q39 223 180.5 342t351.5 119q227 0 340 -148t70 -391q-38 -223 -178 -345t-355 -122zM590 827q-140 0 -227 -84t-115 -243q-29 -170 33.5 -269.5t214.5 -99.5q145 0 232.5 87t115.5 249q30 167 -36 263.5t-218 96.5zM551 1427
q46 0 80.5 -20.5t54.5 -50t37.5 -59t39 -50t48.5 -20.5q43 0 67 46t40 146h90q0 -27 -9 -92q-21 -114 -71.5 -171.5t-122.5 -57.5q-43 0 -75 20.5t-51.5 50t-37 59t-41 50t-53.5 20.5q-46 0 -69.5 -42t-41.5 -146h-90q0 36 8 90q21 113 72.5 170t124.5 57z" />
    <glyph glyph-name="odieresis" unicode="&#xf6;" horiz-adv-x="1089" 
d="M483 -25q-235 0 -343.5 149.5t-65.5 395.5q39 223 180.5 342t351.5 119q227 0 340 -148t70 -391q-38 -223 -178 -345t-355 -122zM590 827q-140 0 -227 -84t-115 -243q-29 -170 33.5 -269.5t214.5 -99.5q145 0 232.5 87t115.5 249q30 167 -36 263.5t-218 96.5zM401 1327
h193l-33 -190h-192zM766 1327h192l-32 -190h-193z" />
    <glyph glyph-name="divide" unicode="&#xf7;" horiz-adv-x="1007" 
d="M952 547h-872l29 160h872zM516 1057h182l-30 -180h-183zM399 385h183l-31 -180h-182z" />
    <glyph glyph-name="oslash" unicode="&#xf8;" horiz-adv-x="1089" 
d="M483 -25q-203 0 -315 115l-96 -90h-148l2 12l185 160q-74 143 -37 348q38 221 180.5 341t351.5 120q200 0 312 -115l96 90h141v-12l-180 -156q78 -143 41 -346q-37 -219 -177.5 -343t-355.5 -124zM592 836q-147 0 -237 -86t-119 -250q-21 -125 6 -215l555 479
q-72 72 -205 72zM492 123q152 0 243 89t121 255q22 127 -8 211l-555 -483q69 -72 199 -72z" />
    <glyph glyph-name="ugrave" unicode="&#xf9;" horiz-adv-x="1089" 
d="M707 0l45 250h-17q-61 -130 -159 -202.5t-222 -72.5q-152 0 -222 99t-40 262l111 620h176l-103 -587q-20 -105 22 -167.5t151 -62.5q128 0 216.5 73.5t110.5 197.5l96 546h177l-168 -956h-174zM817 1069l-459 229l78 134l430 -275z" />
    <glyph glyph-name="uacute" unicode="&#xfa;" horiz-adv-x="1089" 
d="M707 0l45 250h-17q-61 -130 -159 -202.5t-222 -72.5q-152 0 -222 99t-40 262l111 620h176l-103 -587q-20 -105 22 -167.5t151 -62.5q128 0 216.5 73.5t110.5 197.5l96 546h177l-168 -956h-174zM498 1065l-37 92l524 270l55 -129z" />
    <glyph glyph-name="ucircumflex" unicode="&#xfb;" horiz-adv-x="1089" 
d="M707 0l45 250h-17q-61 -130 -159 -202.5t-222 -72.5q-152 0 -222 99t-40 262l111 620h176l-103 -587q-20 -105 22 -167.5t151 -62.5q128 0 216.5 73.5t110.5 197.5l96 546h177l-168 -956h-174zM891 1067l-201 209l-274 -209l-64 68l322 286h69l218 -286z" />
    <glyph glyph-name="udieresis" unicode="&#xfc;" horiz-adv-x="1089" 
d="M707 0l45 250h-17q-61 -130 -159 -202.5t-222 -72.5q-152 0 -222 99t-40 262l111 620h176l-103 -587q-20 -105 22 -167.5t151 -62.5q128 0 216.5 73.5t110.5 197.5l96 546h177l-168 -956h-174zM406 1327h192l-33 -190h-192zM770 1327h193l-33 -190h-193z" />
    <glyph glyph-name="yacute" unicode="&#xfd;" horiz-adv-x="974" 
d="M10 -352q-80 0 -133 12l45 164q72 -14 117 -14q93 0 154.5 39t136.5 161l-240 946h189l63 -342q72 -394 82 -456h31q26 51 76.5 148.5t89.5 173.5t67 132l178 344h199l-578 -968q-108 -181 -217 -260.5t-260 -79.5zM446 1065l-36 92l524 270l55 -129z" />
    <glyph glyph-name="thorn" unicode="&#xfe;" 
d="M535 133q130 0 208 85t109 259q62 342 -211 342q-128 0 -217.5 -83t-114.5 -224v6l-14 -86l2 6q-25 -135 40.5 -220t197.5 -85zM451 1315l-109 -610h14q128 276 377 276q182 0 258.5 -135.5t32.5 -386.5q-41 -233 -155.5 -358.5t-280.5 -125.5q-139 0 -217.5 77
t-94.5 206h-12l-100 -571h-178l286 1628h179z" />
    <glyph glyph-name="ydieresis" unicode="&#xff;" horiz-adv-x="974" 
d="M10 -352q-80 0 -133 12l45 164q72 -14 117 -14q93 0 154.5 39t136.5 161l-240 946h189l63 -342q72 -394 82 -456h31q26 51 76.5 148.5t89.5 173.5t67 132l178 344h199l-578 -968q-108 -181 -217 -260.5t-260 -79.5zM354 1327h193l-33 -190h-192zM719 1327h192l-32 -190
h-193z" />
    <glyph glyph-name="Amacron" unicode="&#x100;" horiz-adv-x="1193" 
d="M922 0l-66 344h-555l-184 -344h-205l692 1229h250l260 -1229h-192zM498 1503h561l-25 -131h-559zM461 639l-82 -152h450l-28 152q-37 188 -70 424h-51q-81 -169 -219 -424z" />
    <glyph glyph-name="amacron" unicode="&#x101;" 
d="M387 1274h557l-22 -131h-557zM453 135q121 0 208.5 75t118.5 206l6 39l13 69q20 133 -44 214t-194 81q-259 0 -317 -332q-64 -352 209 -352zM72 508q41 226 155.5 349.5t280.5 123.5q146 0 222 -78.5t89 -214.5l10 6l45 262h179l-168 -956h-178l45 258l-4 -2l2 23
q-57 -137 -160 -220.5t-236 -83.5q-175 0 -250.5 139.5t-31.5 393.5z" />
    <glyph glyph-name="Abreve" unicode="&#x102;" horiz-adv-x="1193" 
d="M922 0l-66 344h-555l-184 -344h-205l692 1229h250l260 -1229h-192zM768 1464q175 0 221 166h96q-45 -291 -321 -291q-141 0 -207.5 74.5t-40.5 216.5h96q-13 -166 156 -166zM461 639l-82 -152h450l-28 152q-37 188 -70 424h-51q-81 -169 -219 -424z" />
    <glyph glyph-name="abreve" unicode="&#x103;" 
d="M453 135q121 0 208.5 75t118.5 206l6 39l13 69q20 133 -44 214t-194 81q-259 0 -317 -332q-64 -352 209 -352zM664 1217q82 0 137.5 43t81.5 149h98q-27 -162 -107.5 -239.5t-214.5 -77.5q-141 0 -208 79.5t-39 237.5h96q-10 -105 32.5 -148.5t123.5 -43.5zM72 508
q41 226 155.5 349.5t280.5 123.5q146 0 222 -78.5t89 -214.5l10 6l45 262h179l-168 -956h-178l45 258l-4 -2l2 23q-57 -137 -160 -220.5t-236 -83.5q-175 0 -250.5 139.5t-31.5 393.5z" />
    <glyph glyph-name="Aogonek" unicode="&#x104;" horiz-adv-x="1191" 
d="M1059 -324q-68 -12 -127 -12q-111 0 -162 41.5t-39 114.5q23 125 230 180h-39l-66 344h-555l-184 -344h-205l692 1229h250l260 -1229h-2q-127 -24 -188 -55t-70 -80q-7 -38 21.5 -56t89.5 -18q49 0 112 14zM461 639l-82 -152h450l-28 152q-37 188 -70 424h-51
q-81 -169 -219 -424z" />
    <glyph glyph-name="aogonek" unicode="&#x105;" 
d="M453 135q121 0 208.5 75t118.5 206l6 39l13 69q20 133 -44 214t-194 81q-259 0 -317 -332q-64 -352 209 -352zM72 508q41 226 155.5 349.5t280.5 123.5q146 0 222 -78.5t89 -214.5l10 6l45 262h179l-168 -956h-2q-127 -24 -188 -55t-70 -80q-7 -38 21 -56t89 -18
q50 0 113 14l-19 -129q-67 -12 -127 -12q-111 0 -161.5 41.5t-38.5 114.5q23 126 229 180h-24l45 258l-4 -2l2 23q-57 -137 -160 -220.5t-236 -83.5q-175 0 -250.5 139.5t-31.5 393.5z" />
    <glyph glyph-name="Cacute" unicode="&#x106;" horiz-adv-x="1275" 
d="M596 -25q-194 0 -320 85t-171 236t-9 351q51 287 225 446.5t441 159.5q239 0 364.5 -126.5t130.5 -344.5l-184 -22q-6 165 -85.5 246t-244.5 81q-192 0 -309 -122t-155 -338q-23 -148 -1 -256.5t105.5 -170t220.5 -61.5q164 0 265.5 86t162.5 256l174 -39
q-149 -467 -610 -467zM623 1350l-19 96l553 190l29 -145z" />
    <glyph glyph-name="cacute" unicode="&#x107;" horiz-adv-x="1048" 
d="M829 596q-6 112 -58.5 169.5t-176.5 57.5q-137 0 -226.5 -84t-119.5 -254q-28 -163 34 -257.5t207 -94.5q122 0 190.5 61t115.5 175l157 -45q-127 -349 -477 -349q-228 0 -336 143.5t-67 391.5q39 223 182 347t352 124q383 0 393 -354zM498 1065l-37 92l524 270l55 -129z
" />
    <glyph glyph-name="Ccircumflex" unicode="&#x108;" horiz-adv-x="1275" 
d="M596 -25q-194 0 -320 85t-171 236t-9 351q51 287 225 446.5t441 159.5q239 0 364.5 -126.5t130.5 -344.5l-184 -22q-6 165 -85.5 246t-244.5 81q-192 0 -309 -122t-155 -338q-23 -148 -1 -256.5t105.5 -170t220.5 -61.5q164 0 265.5 86t162.5 256l174 -39
q-149 -467 -610 -467zM1042 1323l-211 172l-274 -172l-53 74l311 239h70l225 -239z" />
    <glyph glyph-name="ccircumflex" unicode="&#x109;" horiz-adv-x="1048" 
d="M829 596q-6 112 -58.5 169.5t-176.5 57.5q-137 0 -226.5 -84t-119.5 -254q-28 -163 34 -257.5t207 -94.5q122 0 190.5 61t115.5 175l157 -45q-127 -349 -477 -349q-228 0 -336 143.5t-67 391.5q39 223 182 347t352 124q383 0 393 -354zM887 1067l-201 209l-274 -209
l-64 68l322 286h69l217 -286z" />
    <glyph glyph-name="Cdotaccent" unicode="&#x10a;" horiz-adv-x="1275" 
d="M596 -25q-194 0 -320 85t-171 236t-9 351q51 287 225 446.5t441 159.5q239 0 364.5 -126.5t130.5 -344.5l-184 -22q-6 165 -85.5 246t-244.5 81q-192 0 -309 -122t-155 -338q-23 -148 -1 -256.5t105.5 -170t220.5 -61.5q164 0 265.5 86t162.5 256l174 -39
q-149 -467 -610 -467zM717 1583h201l-33 -197h-203z" />
    <glyph glyph-name="cdotaccent" unicode="&#x10b;" horiz-adv-x="1048" 
d="M829 596q-6 112 -58.5 169.5t-176.5 57.5q-137 0 -226.5 -84t-119.5 -254q-28 -163 34 -257.5t207 -94.5q122 0 190.5 61t115.5 175l157 -45q-127 -349 -477 -349q-228 0 -336 143.5t-67 391.5q39 223 182 347t352 124q383 0 393 -354zM590 1346h201l-33 -197h-203z" />
    <glyph glyph-name="Ccaron" unicode="&#x10c;" horiz-adv-x="1275" 
d="M596 -25q-194 0 -320 85t-171 236t-9 351q51 287 225 446.5t441 159.5q239 0 364.5 -126.5t130.5 -344.5l-184 -22q-6 165 -85.5 246t-244.5 81q-192 0 -309 -122t-155 -338q-23 -148 -1 -256.5t105.5 -170t220.5 -61.5q164 0 265.5 86t162.5 256l174 -39
q-149 -467 -610 -467zM831 1331h-69l-225 240l65 74l211 -175l277 175l51 -74z" />
    <glyph glyph-name="ccaron" unicode="&#x10d;" horiz-adv-x="1048" 
d="M829 596q-6 112 -58.5 169.5t-176.5 57.5q-137 0 -226.5 -84t-119.5 -254q-28 -163 34 -257.5t207 -94.5q122 0 190.5 61t115.5 175l157 -45q-127 -349 -477 -349q-228 0 -336 143.5t-67 391.5q39 223 182 347t352 124q383 0 393 -354zM676 1083h-70l-217 287l72 68
l198 -209l277 209l59 -68z" />
    <glyph glyph-name="Dcaron" unicode="&#x10e;" horiz-adv-x="1294" 
d="M686 1071h-256l-162 -913h289q223 0 346.5 113t161.5 333q43 240 -47.5 353.5t-331.5 113.5zM53 0l215 1229h455q317 0 448 -169t76 -482q-49 -277 -232.5 -428.5t-461.5 -151.5zM829 1331h-69l-225 240l65 74l211 -175l276 175l52 -74z" />
    <glyph glyph-name="dcaron" unicode="&#x10f;" horiz-adv-x="1247" 
d="M453 135q120 0 208 75t117 202l8 43l13 69q20 133 -45 214t-195 81q-257 0 -315 -336q-32 -176 20 -262t189 -86zM707 0l45 256h-13q-58 -129 -157 -205t-226 -76q-176 0 -252 139.5t-32 391.5q41 231 155 353t283 122q137 0 213 -75t92 -204h14l109 613h178l-231 -1315
h-178zM1257 1315h146l-148 -516h-114z" />
    <glyph glyph-name="Dcroat" unicode="&#x110;" horiz-adv-x="1361" 
d="M748 551h-342l-70 -393h289q223 0 346.5 113t161.5 333q43 240 -47.5 353.5t-331.5 113.5h-256l-70 -395h340zM121 0l96 551h-154l21 125h156l96 553h455q317 0 448 -169t76 -482q-49 -277 -232.5 -428.5t-461.5 -151.5z" />
    <glyph glyph-name="dcroat" unicode="&#x111;" horiz-adv-x="1122" 
d="M453 135q120 0 208 75t117 202l8 43l13 69q20 133 -45 214t-195 81q-257 0 -315 -336q-32 -176 20 -262t189 -86zM707 0l45 256h-13q-58 -129 -157 -205t-226 -76q-176 0 -252 139.5t-32 391.5q41 231 155 353t283 122q137 0 213 -75t92 -204h14l68 385h-289l19 109h291
l20 119h178l-20 -119h121l-19 -109h-123l-190 -1087h-178z" />
    <glyph glyph-name="Emacron" unicode="&#x112;" 
d="M57 0l215 1229h856l-30 -166h-664l-63 -356h598l-29 -164h-598l-68 -377h666l-31 -166h-852zM471 1503h561l-24 -131h-559z" />
    <glyph glyph-name="emacron" unicode="&#x113;" horiz-adv-x="1038" 
d="M594 840q-126 0 -212.5 -71t-125.5 -214h561q39 285 -223 285zM475 -23q-229 0 -338 141t-67 392q39 221 184 346t354 125q217 0 312 -124.5t57 -338.5q0 -1 -21 -92h-723q-12 -147 51 -224t199 -77q118 0 184.5 51.5t110.5 145.5l148 -52q-64 -142 -172 -217.5
t-279 -75.5zM387 1274h557l-22 -131h-557z" />
    <glyph glyph-name="Ebreve" unicode="&#x114;" 
d="M57 0l215 1229h856l-30 -166h-664l-63 -356h598l-29 -164h-598l-68 -377h666l-31 -166h-852zM741 1464q176 0 222 166h96q-45 -291 -322 -291q-141 0 -207.5 74.5t-40.5 216.5h97q-13 -166 155 -166z" />
    <glyph glyph-name="ebreve" unicode="&#x115;" horiz-adv-x="1038" 
d="M594 840q-126 0 -212.5 -71t-125.5 -214h561q39 285 -223 285zM475 -23q-229 0 -338 141t-67 392q39 221 184 346t354 125q217 0 312 -124.5t57 -338.5q0 -1 -21 -92h-723q-12 -147 51 -224t199 -77q118 0 184.5 51.5t110.5 145.5l148 -52q-64 -142 -172 -217.5
t-279 -75.5zM657 1217q82 0 138 43t82 149h98q-27 -162 -107.5 -239.5t-214.5 -77.5q-141 0 -208 79.5t-39 237.5h96q-10 -105 32 -148.5t123 -43.5z" />
    <glyph glyph-name="Edotaccent" unicode="&#x116;" 
d="M57 0l215 1229h856l-30 -166h-664l-63 -356h598l-29 -164h-598l-68 -377h666l-31 -166h-852zM641 1583h201l-33 -197h-203z" />
    <glyph glyph-name="edotaccent" unicode="&#x117;" horiz-adv-x="1038" 
d="M594 840q-126 0 -212.5 -71t-125.5 -214h561q39 285 -223 285zM475 -23q-229 0 -338 141t-67 392q39 221 184 346t354 125q217 0 312 -124.5t57 -338.5q0 -1 -21 -92h-723q-12 -147 51 -224t199 -77q118 0 184.5 51.5t110.5 145.5l148 -52q-64 -142 -172 -217.5
t-279 -75.5zM580 1346h200l-32 -197h-203z" />
    <glyph glyph-name="Eogonek" unicode="&#x118;" 
d="M852 -324q-67 -12 -127 -12q-111 0 -162 41.5t-39 114.5q23 125 230 180h-697l215 1229h856l-30 -166h-664l-63 -356h598l-29 -164h-598l-68 -377h666l-31 -166h-4q-127 -24 -188 -55t-70 -80q-7 -38 21.5 -56t89.5 -18q49 0 112 14z" />
    <glyph glyph-name="eogonek" unicode="&#x119;" horiz-adv-x="1038" 
d="M594 840q-126 0 -212.5 -71t-125.5 -214h561q39 285 -223 285zM475 -23q-229 0 -338 141t-67 392q39 221 184 346t354 125q217 0 312 -124.5t57 -338.5q0 -1 -21 -92h-723q-12 -147 51 -224t199 -77q118 0 184.5 51.5t110.5 145.5l142 -50l6 9q-1 -1 -2 -4.5t-2 -4.5
l4 -2q-59 -130 -152 -202q-39 -33 -78 -58q-119 -77 -135 -160q-7 -46 28 -67t95 -21q48 0 115 15l-21 -142q-75 -10 -125 -10q-128 0 -181 45t-40 121q11 61 60.5 110t125.5 93q-73 -17 -143 -17z" />
    <glyph glyph-name="Ecaron" unicode="&#x11a;" 
d="M57 0l215 1229h856l-30 -166h-664l-63 -356h598l-29 -164h-598l-68 -377h666l-31 -166h-852zM756 1331h-70l-225 240l65 74l211 -175l277 175l51 -74z" />
    <glyph glyph-name="ecaron" unicode="&#x11b;" horiz-adv-x="1038" 
d="M594 840q-126 0 -212.5 -71t-125.5 -214h561q39 285 -223 285zM475 -23q-229 0 -338 141t-67 392q39 221 184 346t354 125q217 0 312 -124.5t57 -338.5q0 -1 -21 -92h-723q-12 -147 51 -224t199 -77q118 0 184.5 51.5t110.5 145.5l148 -52q-64 -142 -172 -217.5
t-279 -75.5zM668 1083h-70l-217 287l72 68l198 -209l277 209l59 -68z" />
    <glyph glyph-name="Gcircumflex" unicode="&#x11c;" horiz-adv-x="1312" 
d="M520 -20q-243 0 -362.5 183.5t-65.5 483.5q111 604 662 604q235 0 359 -115t142 -325l-182 -33q-15 158 -94.5 233.5t-233.5 75.5q-203 0 -314 -110.5t-152 -337.5q-22 -109 -11.5 -201t46.5 -159t109.5 -104.5t178.5 -37.5q106 0 186 26.5t129 74t77 102.5t40 123v-4
l2 18h-381l29 164h557l-113 -641h-174l50 279h-17q-148 -299 -467 -299zM1042 1323l-211 172l-274 -172l-53 74l311 239h70l225 -239z" />
    <glyph glyph-name="gcircumflex" unicode="&#x11d;" 
d="M870 1067l-200 209l-275 -209l-63 68l321 286h70l217 -286zM469 199q118 0 202.5 68t112.5 184l2 8l11 61v-2q25 134 -41 217.5t-199 83.5q-128 0 -203.5 -72.5t-103.5 -222.5q-55 -325 219 -325zM78 541q38 214 150.5 327t277.5 113q140 0 216.5 -74.5t92.5 -204.5h14
l45 254h179l-154 -876q-37 -206 -157 -310t-330 -104q-398 0 -437 285l175 35q18 -84 80 -129t184 -45q147 0 215.5 71.5t95.5 216.5l35 201h-15q-57 -112 -153.5 -180t-218.5 -68q-179 0 -257.5 127.5t-37.5 360.5z" />
    <glyph glyph-name="Gbreve" unicode="&#x11e;" horiz-adv-x="1312" 
d="M520 -20q-243 0 -362.5 183.5t-65.5 483.5q111 604 662 604q235 0 359 -115t142 -325l-182 -33q-15 158 -94.5 233.5t-233.5 75.5q-203 0 -314 -110.5t-152 -337.5q-22 -109 -11.5 -201t46.5 -159t109.5 -104.5t178.5 -37.5q106 0 186 26.5t129 74t77 102.5t40 123v-4
l2 18h-381l29 164h557l-113 -641h-174l50 279h-17q-148 -299 -467 -299zM817 1464q175 0 221 166h97q-45 -291 -322 -291q-141 0 -207.5 74.5t-40.5 216.5h97q-13 -166 155 -166z" />
    <glyph glyph-name="gbreve" unicode="&#x11f;" 
d="M659 1217q82 0 138 43t82 149h98q-27 -162 -107.5 -239.5t-214.5 -77.5q-141 0 -208 79.5t-39 237.5h96q-10 -105 32 -148.5t123 -43.5zM469 199q118 0 202.5 68t112.5 184l2 8l11 61v-2q25 134 -41 217.5t-199 83.5q-128 0 -203.5 -72.5t-103.5 -222.5
q-55 -325 219 -325zM78 541q38 214 150.5 327t277.5 113q140 0 216.5 -74.5t92.5 -204.5h14l45 254h179l-154 -876q-37 -206 -157 -310t-330 -104q-398 0 -437 285l175 35q18 -84 80 -129t184 -45q147 0 215.5 71.5t95.5 216.5l35 201h-15q-57 -112 -153.5 -180t-218.5 -68
q-179 0 -257.5 127.5t-37.5 360.5z" />
    <glyph glyph-name="Gdotaccent" unicode="&#x120;" horiz-adv-x="1312" 
d="M520 -20q-243 0 -362.5 183.5t-65.5 483.5q111 604 662 604q235 0 359 -115t142 -325l-182 -33q-15 158 -94.5 233.5t-233.5 75.5q-203 0 -314 -110.5t-152 -337.5q-22 -109 -11.5 -201t46.5 -159t109.5 -104.5t178.5 -37.5q106 0 186 26.5t129 74t77 102.5t40 123v-4
l2 18h-381l29 164h557l-113 -641h-174l50 279h-17q-148 -299 -467 -299zM717 1583h201l-33 -197h-203z" />
    <glyph glyph-name="gdotaccent" unicode="&#x121;" 
d="M580 1346h200l-32 -197h-203zM469 199q118 0 202.5 68t112.5 184l2 8l11 61v-2q25 134 -41 217.5t-199 83.5q-128 0 -203.5 -72.5t-103.5 -222.5q-55 -325 219 -325zM78 541q38 214 150.5 327t277.5 113q140 0 216.5 -74.5t92.5 -204.5h14l45 254h179l-154 -876
q-37 -206 -157 -310t-330 -104q-398 0 -437 285l175 35q18 -84 80 -129t184 -45q147 0 215.5 71.5t95.5 216.5l35 201h-15q-57 -112 -153.5 -180t-218.5 -68q-179 0 -257.5 127.5t-37.5 360.5z" />
    <glyph glyph-name="uni0122" unicode="&#x122;" horiz-adv-x="1312" 
d="M520 -20q-243 0 -362.5 183.5t-65.5 483.5q111 604 662 604q235 0 359 -115t142 -325l-182 -33q-15 158 -94.5 233.5t-233.5 75.5q-203 0 -314 -110.5t-152 -337.5q-22 -109 -11.5 -201t46.5 -159t109.5 -104.5t178.5 -37.5q106 0 186 26.5t129 74t77 102.5t40 123v-4
l2 18h-381l29 164h557l-113 -641h-174l50 279h-17q-148 -299 -467 -299zM510 -113h149l-176 -309h-116l4 16z" />
    <glyph glyph-name="uni0123" unicode="&#x123;" 
d="M678 1116h-148l175 309h116l-4 -16zM469 199q118 0 202.5 68t112.5 184l2 8l11 61v-2q25 134 -41 217.5t-199 83.5q-128 0 -203.5 -72.5t-103.5 -222.5q-55 -325 219 -325zM78 541q38 214 150.5 327t277.5 113q140 0 216.5 -74.5t92.5 -204.5h14l45 254h179l-154 -876
q-37 -206 -157 -310t-330 -104q-398 0 -437 285l175 35q18 -84 80 -129t184 -45q147 0 215.5 71.5t95.5 216.5l35 201h-15q-57 -112 -153.5 -180t-218.5 -68q-179 0 -257.5 127.5t-37.5 360.5z" />
    <glyph glyph-name="Hcircumflex" unicode="&#x124;" horiz-adv-x="1306" 
d="M1083 0h-186l92 528h-655l-94 -528h-187l215 1229h189l-95 -531h658l92 531h188zM1049 1323l-211 172l-275 -172l-53 74l311 239h70l225 -239z" />
    <glyph glyph-name="hcircumflex" unicode="&#x125;" horiz-adv-x="1087" 
d="M315 547l-96 -547h-178l231 1315h179l-107 -606h14q61 129 158.5 200.5t220.5 71.5q153 0 221.5 -97.5t38.5 -262.5l-108 -621h-178l104 590q18 104 -23.5 166.5t-148.5 62.5q-130 0 -218 -74t-110 -198zM614 1337l-211 172l-274 -172l-53 74l311 240h70l225 -240z" />
    <glyph glyph-name="Hbar" unicode="&#x126;" horiz-adv-x="1394" 
d="M1057 655l37 217h-656l-39 -217h658zM1128 0h-188l88 494h-657l-86 -494h-189l154 872h-144l25 132h143l39 225h187l-39 -225h657l39 225h186l-38 -225h143l-23 -132h-143z" />
    <glyph glyph-name="hbar" unicode="&#x127;" horiz-adv-x="1110" 
d="M336 547l-96 -547h-179l191 1085h-113l19 111h114l21 119h178l-20 -119h309l-19 -111h-311l-65 -376h14q61 129 158.5 200.5t220.5 71.5q153 0 221.5 -97.5t38.5 -262.5l-109 -621h-178l105 590q18 104 -23.5 166.5t-148.5 62.5q-130 0 -218 -74t-110 -198z" />
    <glyph glyph-name="Itilde" unicode="&#x128;" horiz-adv-x="462" 
d="M240 0h-187l215 1229h189zM244 1671q46 0 80.5 -20.5t54.5 -50.5t37.5 -59.5t39 -50t48.5 -20.5q43 0 66.5 46t39.5 147h90q0 -34 -8 -92q-21 -115 -71.5 -172.5t-122.5 -57.5q-43 0 -75 20.5t-51.5 50.5t-37 59.5t-41 50t-53.5 20.5q-46 0 -69.5 -42t-41.5 -146h-90
q0 36 8 90q21 113 72.5 170t124.5 57z" />
    <glyph glyph-name="itilde" unicode="&#x129;" horiz-adv-x="518" 
d="M264 0h-178l168 956h178zM270 1427q46 0 80.5 -20.5t54.5 -50t37.5 -59t39 -50t48.5 -20.5q43 0 67 46t40 146h90q0 -34 -8 -92q-21 -114 -72 -171.5t-123 -57.5q-43 0 -75 20.5t-51.5 50t-37 59t-41 50t-53.5 20.5q-46 0 -69 -41.5t-41 -146.5h-90q0 36 8 90
q21 113 72.5 170t123.5 57z" />
    <glyph glyph-name="Imacron" unicode="&#x12a;" horiz-adv-x="462" 
d="M240 0h-187l215 1229h189zM131 1503h561l-24 -131h-559z" />
    <glyph glyph-name="imacron" unicode="&#x12b;" horiz-adv-x="518" 
d="M264 0h-178l168 956h178zM119 1274h557l-23 -131h-557z" />
    <glyph glyph-name="Ibreve" unicode="&#x12c;" horiz-adv-x="462" 
d="M240 0h-187l215 1229h189zM401 1464q176 0 222 166h96q-45 -291 -322 -291q-141 0 -207 74.5t-40 216.5h96q-13 -166 155 -166z" />
    <glyph glyph-name="ibreve" unicode="&#x12d;" horiz-adv-x="518" 
d="M264 0h-178l168 956h178zM391 1217q82 0 137.5 43t81.5 149h99q-27 -162 -107.5 -239.5t-214.5 -77.5q-142 0 -209 79.5t-39 237.5h97q-10 -105 32 -148.5t123 -43.5z" />
    <glyph glyph-name="Iogonek" unicode="&#x12e;" horiz-adv-x="462" 
d="M240 0q-127 -24 -188 -55t-70 -80q-7 -38 21 -56t89 -18q50 0 113 14l-19 -129q-68 -12 -127 -12q-111 0 -161.5 41.5t-38.5 114.5q23 126 229 180h-35l215 1229h189z" />
    <glyph glyph-name="iogonek" unicode="&#x12f;" horiz-adv-x="466" 
d="M451 1141h-203l28 162h203zM238 0h-2q-127 -24 -188.5 -55t-70.5 -80q-7 -38 21.5 -56t89.5 -18q50 0 113 14l-19 -129q-68 -12 -127 -12q-111 0 -161.5 41.5t-38.5 114.5q23 126 229 180h-25l168 956h179z" />
    <glyph glyph-name="Idotaccent" unicode="&#x130;" horiz-adv-x="462" 
d="M240 0h-187l215 1229h189zM301 1583h201l-33 -197h-203z" />
    <glyph glyph-name="dotlessi" unicode="&#x131;" horiz-adv-x="518" 
d="M264 0h-178l168 956h178z" />
    <glyph glyph-name="IJ" unicode="&#x132;" horiz-adv-x="1091" 
d="M240 0h-187l215 1229h189zM741 326l158 903h188l-157 -901q-64 -344 -367 -344q-73 0 -155 14l32 164q64 -12 117 -12q152 0 184 176z" />
    <glyph glyph-name="ij" unicode="&#x133;" horiz-adv-x="954" 
d="M451 1141h-203l28 162h203zM238 0h-179l168 956h179zM723 -14q-54 -318 -326 -318q-52 0 -106 8l35 156q37 -6 75 -6q117 0 144 156l172 972h178zM940 1141h-203l29 162h203z" />
    <glyph glyph-name="Jcircumflex" unicode="&#x134;" horiz-adv-x="630" 
d="M279 326l157 903h189l-158 -901q-64 -344 -367 -344q-73 0 -155 14l32 164q65 -12 117 -12q153 0 185 176zM805 1323l-211 172l-275 -172l-53 74l312 239h69l225 -239z" />
    <glyph glyph-name="jcircumflex" unicode="&#x135;" horiz-adv-x="493" 
d="M258 -12q-29 -157 -114.5 -244.5t-231.5 -87.5q-50 0 -92 10l37 156q38 -6 75 -6q118 0 144 155l174 983h178zM559 1096l-166 176l-229 -176l-49 65l268 248h70l182 -248z" />
    <glyph glyph-name="uni0136" unicode="&#x136;" horiz-adv-x="1153" 
d="M860 0l-428 504h-104l-88 -504h-187l215 1229h189l-101 -570h86l594 570h224l-5 -23l-675 -622l493 -561l-4 -23h-209zM469 -113h149l-176 -309h-116l4 16z" />
    <glyph glyph-name="uni0137" unicode="&#x137;" horiz-adv-x="987" 
d="M459 1315l-135 -766h92l409 407h215l-4 -22l-487 -451l360 -460l-4 -23h-194l-310 414h-100l-74 -414h-176l232 1315h176zM373 -113h149l-176 -309h-117l4 16z" />
    <glyph glyph-name="kgreenlandic" unicode="&#x138;" horiz-adv-x="987" 
d="M700 0l-301 414h-98l-74 -414h-176l168 956h178l-71 -407h94l418 407h202l-4 -22l-485 -449l358 -462l-4 -23h-205z" />
    <glyph glyph-name="Lacute" unicode="&#x139;" horiz-adv-x="944" 
d="M362 1350l-18 96l553 190l29 -145zM457 1229l-187 -1059h574l-29 -170h-762l215 1229h189z" />
    <glyph glyph-name="lacute" unicode="&#x13a;" horiz-adv-x="448" 
d="M459 1315l-232 -1315h-176l232 1315h176zM221 1391l-18 96l553 190l28 -145z" />
    <glyph glyph-name="uni013B" unicode="&#x13b;" horiz-adv-x="944" 
d="M457 1229l-187 -1059h574l-29 -170h-762l215 1229h189zM395 -113h150l-176 -309h-117l4 16z" />
    <glyph glyph-name="uni013C" unicode="&#x13c;" horiz-adv-x="448" 
d="M459 1315l-232 -1315h-176l232 1315h176zM80 -113h149l-176 -309h-116l4 16z" />
    <glyph glyph-name="Lcaron" unicode="&#x13d;" horiz-adv-x="944" 
d="M887 1243h145l-147 -516h-115zM457 1229l-187 -1059h574l-29 -170h-762l215 1229h189z" />
    <glyph glyph-name="lcaron" unicode="&#x13e;" horiz-adv-x="595" 
d="M459 1315l-232 -1315h-176l232 1315h176zM598 1315h145l-147 -516h-115z" />
    <glyph glyph-name="Ldot" unicode="&#x13f;" horiz-adv-x="944" 
d="M819 791h199l-33 -193h-199zM457 1229l-187 -1059h574l-29 -170h-762l215 1229h189z" />
    <glyph glyph-name="ldot" unicode="&#x140;" horiz-adv-x="686" 
d="M459 1315l-232 -1315h-176l232 1315h176zM483 621h201l-33 -197h-202z" />
    <glyph glyph-name="Lslash" unicode="&#x141;" horiz-adv-x="976" 
d="M492 1229l-97 -543l357 164l-27 -141l-354 -162l-66 -377h574l-29 -170h-762l80 455l-145 -66l24 137l146 66l110 637h189z" />
    <glyph glyph-name="lslash" unicode="&#x142;" horiz-adv-x="538" 
d="M502 1315l-111 -625l182 90l-24 -137l-180 -90l-99 -553h-176l80 459l-174 -86l25 135l174 86l127 721h176z" />
    <glyph glyph-name="Nacute" unicode="&#x143;" horiz-adv-x="1308" 
d="M842 0l-248 610q-86 216 -152 451l-43 -2q-29 -280 -86 -600l-82 -459h-176l217 1229h267l219 -533q104 -258 172 -501h39q29 278 82 573l79 461h177l-217 -1229h-248zM629 1350l-19 96l553 190l29 -145z" />
    <glyph glyph-name="nacute" unicode="&#x144;" horiz-adv-x="1089" 
d="M315 547l-96 -547h-178l168 956h174l-43 -247h18q59 130 156 201t221 71q153 0 222.5 -97.5t39.5 -262.5l-108 -621h-178l104 590q18 104 -23.5 166.5t-150.5 62.5q-128 0 -216 -74t-110 -198zM506 1065l-37 92l524 270l56 -129z" />
    <glyph glyph-name="uni0145" unicode="&#x145;" horiz-adv-x="1308" 
d="M842 0l-248 610q-86 216 -152 451l-43 -2q-29 -280 -86 -600l-82 -459h-176l217 1229h267l219 -533q104 -258 172 -501h39q29 278 82 573l79 461h177l-217 -1229h-248zM512 -113h150l-177 -309h-116l4 16z" />
    <glyph glyph-name="uni0146" unicode="&#x146;" horiz-adv-x="1089" 
d="M315 547l-96 -547h-178l168 956h174l-43 -247h18q59 130 156 201t221 71q153 0 222.5 -97.5t39.5 -262.5l-108 -621h-178l104 590q18 104 -23.5 166.5t-150.5 62.5q-128 0 -216 -74t-110 -198zM406 -113h149l-176 -309h-117l4 16z" />
    <glyph glyph-name="Ncaron" unicode="&#x147;" horiz-adv-x="1308" 
d="M842 0l-248 610q-86 216 -152 451l-43 -2q-29 -280 -86 -600l-82 -459h-176l217 1229h267l219 -533q104 -258 172 -501h39q29 278 82 573l79 461h177l-217 -1229h-248zM840 1331h-70l-225 240l65 74l211 -175l277 175l51 -74z" />
    <glyph glyph-name="ncaron" unicode="&#x148;" horiz-adv-x="1089" 
d="M315 547l-96 -547h-178l168 956h174l-43 -247h18q59 130 156 201t221 71q153 0 222.5 -97.5t39.5 -262.5l-108 -621h-178l104 590q18 104 -23.5 166.5t-150.5 62.5q-128 0 -216 -74t-110 -198zM690 1083h-69l-218 287l72 68l199 -209l276 209l60 -68z" />
    <glyph glyph-name="napostrophe" unicode="&#x149;" horiz-adv-x="1368" 
d="M285 1229h186l-274 -557h-101l2 12zM537 547l-97 -547h-178l168 956h174l-43 -247h19q60 130 156 201t220 71q154 0 223.5 -97.5t39.5 -262.5l-109 -621h-178l104 590q18 104 -23.5 166.5t-150.5 62.5q-128 0 -215.5 -74t-109.5 -198z" />
    <glyph glyph-name="Eng" unicode="&#x14a;" horiz-adv-x="1308" 
d="M53 0l215 1229h275l250 -549q83 -188 153 -426l29 2q34 302 74 520l79 453h177l-218 -1231q-58 -332 -358 -332q-63 0 -162 15l31 155q79 -14 127 -14q79 0 121.5 42.5t56.5 123.5l2 8l-295 614q-97 206 -174 443h-41q-28 -270 -86 -596l-80 -457h-176z" />
    <glyph glyph-name="eng" unicode="&#x14b;" horiz-adv-x="1089" 
d="M709 -16l106 606q19 104 -22.5 166.5t-155.5 62.5q-123 0 -211.5 -74.5t-110.5 -197.5l-96 -547h-178l168 956h174l-43 -247h18q59 129 158.5 200.5t222.5 71.5q156 0 222 -96t38 -260l-114 -643q-26 -151 -107.5 -232.5t-222.5 -81.5q-66 0 -102 8l32 158q50 -8 76 -8
q122 0 148 158z" />
    <glyph glyph-name="Omacron" unicode="&#x14c;" horiz-adv-x="1347" 
d="M616 -25q-200 0 -330.5 87.5t-177 241.5t-10.5 355q48 274 227.5 434t452.5 160q197 0 328 -86.5t179.5 -240.5t12.5 -355q-51 -275 -228 -435.5t-454 -160.5zM627 139q206 0 328.5 120.5t160.5 338.5q38 221 -49 355t-299 134q-205 0 -327 -118.5t-160 -331.5
q-26 -148 0.5 -258t114.5 -175t231 -65zM573 1503h562l-25 -131h-559z" />
    <glyph glyph-name="omacron" unicode="&#x14d;" horiz-adv-x="1089" 
d="M483 -25q-235 0 -343.5 149.5t-65.5 395.5q39 223 180.5 342t351.5 119q227 0 340 -148t70 -391q-38 -223 -178 -345t-355 -122zM590 827q-140 0 -227 -84t-115 -243q-29 -170 33.5 -269.5t214.5 -99.5q145 0 232.5 87t115.5 249q30 167 -36 263.5t-218 96.5zM399 1274
h557l-22 -131h-557z" />
    <glyph glyph-name="Obreve" unicode="&#x14e;" horiz-adv-x="1347" 
d="M616 -25q-200 0 -330.5 87.5t-177 241.5t-10.5 355q48 274 227.5 434t452.5 160q197 0 328 -86.5t179.5 -240.5t12.5 -355q-51 -275 -228 -435.5t-454 -160.5zM627 139q206 0 328.5 120.5t160.5 338.5q38 221 -49 355t-299 134q-205 0 -327 -118.5t-160 -331.5
q-26 -148 0.5 -258t114.5 -175t231 -65zM844 1464q175 0 221 166h96q-45 -291 -321 -291q-141 0 -207.5 74.5t-40.5 216.5h96q-13 -166 156 -166z" />
    <glyph glyph-name="obreve" unicode="&#x14f;" horiz-adv-x="1089" 
d="M483 -25q-235 0 -343.5 149.5t-65.5 395.5q39 223 180.5 342t351.5 119q227 0 340 -148t70 -391q-38 -223 -178 -345t-355 -122zM590 827q-140 0 -227 -84t-115 -243q-29 -170 33.5 -269.5t214.5 -99.5q145 0 232.5 87t115.5 249q30 167 -36 263.5t-218 96.5zM670 1217
q82 0 137.5 43t81.5 149h98q-27 -162 -107 -239.5t-214 -77.5q-142 0 -209 79.5t-39 237.5h96q-10 -105 32.5 -148.5t123.5 -43.5z" />
    <glyph glyph-name="Ohungarumlaut" unicode="&#x150;" horiz-adv-x="1347" 
d="M616 -25q-200 0 -330.5 87.5t-177 241.5t-10.5 355q48 274 227.5 434t452.5 160q197 0 328 -86.5t179.5 -240.5t12.5 -355q-51 -275 -228 -435.5t-454 -160.5zM627 139q206 0 328.5 120.5t160.5 338.5q38 221 -49 355t-299 134q-205 0 -327 -118.5t-160 -331.5
q-26 -148 0.5 -258t114.5 -175t231 -65zM678 1317l-74 53l258 316l109 -80zM961 1317l-72 59l272 307l107 -86z" />
    <glyph glyph-name="ohungarumlaut" unicode="&#x151;" horiz-adv-x="1089" 
d="M483 -25q-235 0 -343.5 149.5t-65.5 395.5q39 223 180.5 342t351.5 119q227 0 340 -148t70 -391q-38 -223 -178 -345t-355 -122zM590 827q-140 0 -227 -84t-115 -243q-29 -170 33.5 -269.5t214.5 -99.5q145 0 232.5 87t115.5 249q30 167 -36 263.5t-218 96.5zM494 1067
l-76 51l241 336l109 -76zM764 1069l-70 59l260 324l101 -82z" />
    <glyph glyph-name="OE" unicode="&#x152;" horiz-adv-x="1798" 
d="M639 166h154l157 897h-180q-208 0 -331 -111t-158 -309q-38 -222 53 -349.5t305 -127.5zM635 0q-301 0 -445 182.5t-90 489.5q46 259 227 408t461 149h1047l-31 -166h-663l-64 -356h598l-28 -164h-598l-68 -377h666l-31 -166h-981z" />
    <glyph glyph-name="oe" unicode="&#x153;" horiz-adv-x="1816" 
d="M600 827q-143 0 -233.5 -87t-120.5 -246q-29 -170 30.5 -266.5t208.5 -96.5q147 0 239 92t120 256q30 164 -33 256t-211 92zM1378 840q-268 0 -344 -301h561q48 301 -217 301zM1268 -25q-164 0 -257.5 81.5t-105.5 234.5h-12q-62 -152 -173 -234t-261 -82
q-223 0 -326 145t-61 390q38 221 176 346t342 125q161 0 257 -82.5t111 -234.5h13q63 153 176 235t262 82q206 0 295 -121.5t53 -324.5q-10 -60 -18 -93h-723q-19 -154 44.5 -235.5t205.5 -81.5q61 0 109.5 15.5t83 45.5t58 64t44.5 80l143 -54q-129 -301 -436 -301z" />
    <glyph glyph-name="Racute" unicode="&#x154;" horiz-adv-x="1202" 
d="M727 1069h-293l-74 -420h291q269 0 303 201q19 111 -34.5 165t-192.5 54zM850 0l-254 487h-264l-86 -487h-189l215 1229h478q226 0 322.5 -104.5t62.5 -299.5q-23 -130 -113 -213.5t-234 -111.5l277 -477l-4 -23h-211zM557 1350l-18 96l553 190l28 -145z" />
    <glyph glyph-name="racute" unicode="&#x155;" horiz-adv-x="677" 
d="M219 0h-178l168 956h172l-49 -270l14 -2q61 151 145 217t197 66h41l-35 -197h-49q-156 0 -235 -68t-107 -229zM338 1065l-37 92l524 270l56 -129z" />
    <glyph glyph-name="uni0156" unicode="&#x156;" horiz-adv-x="1202" 
d="M469 -113h149l-176 -309h-116l4 16zM727 1069h-293l-74 -420h291q269 0 303 201q19 111 -34.5 165t-192.5 54zM850 0l-254 487h-264l-86 -487h-189l215 1229h478q226 0 322.5 -104.5t62.5 -299.5q-23 -130 -113 -213.5t-234 -111.5l277 -477l-4 -23h-211z" />
    <glyph glyph-name="uni0157" unicode="&#x157;" horiz-adv-x="677" 
d="M219 0h-178l168 956h172l-49 -270l14 -2q61 151 145 217t197 66h41l-35 -197h-49q-156 0 -235 -68t-107 -229zM78 -113h149l-176 -309h-117l5 16z" />
    <glyph glyph-name="Rcaron" unicode="&#x158;" horiz-adv-x="1202" 
d="M727 1069h-293l-74 -420h291q269 0 303 201q19 111 -34.5 165t-192.5 54zM850 0l-254 487h-264l-86 -487h-189l215 1229h478q226 0 322.5 -104.5t62.5 -299.5q-23 -130 -113 -213.5t-234 -111.5l277 -477l-4 -23h-211zM770 1331h-70l-225 240l66 74l211 -175l276 175
l51 -74z" />
    <glyph glyph-name="rcaron" unicode="&#x159;" horiz-adv-x="677" 
d="M219 0h-178l168 956h172l-49 -270l14 -2q61 151 145 217t197 66h41l-35 -197h-49q-156 0 -235 -68t-107 -229zM522 1083h-69l-217 287l71 68l199 -209l276 209l60 -68z" />
    <glyph glyph-name="Sacute" unicode="&#x15a;" horiz-adv-x="1138" 
d="M543 -25q-134 0 -232.5 30t-156 86t-85 129t-28.5 165l184 31q13 -285 334 -285q259 0 289 174q17 96 -41.5 148t-233.5 90q-235 48 -320 146t-56 259q24 143 145 224t326 81q116 0 200.5 -27t134.5 -77.5t74.5 -114t30.5 -145.5l-190 -37q-5 62 -19.5 105.5t-45 77
t-81.5 49.5t-125 16q-243 0 -272 -164q-10 -39 -0.5 -74.5t38.5 -64.5t89.5 -54.5t152.5 -44.5q125 -27 208 -68t122 -92t51.5 -114t-2.5 -135q-27 -147 -149.5 -230.5t-341.5 -83.5zM526 1350l-18 96l553 190l29 -145z" />
    <glyph glyph-name="sacute" unicode="&#x15b;" horiz-adv-x="942" 
d="M430 -25q-209 0 -305 84t-107 232l170 31q10 -100 68.5 -155.5t185.5 -55.5q193 0 217 127q12 72 -37.5 111.5t-191.5 68.5q-176 37 -243 116t-44 203q22 116 119.5 180t263.5 64q94 0 162 -21.5t108.5 -61.5t61.5 -88.5t29 -111.5l-170 -30q-7 93 -56.5 136.5
t-146.5 43.5q-89 0 -140.5 -31.5t-62.5 -89.5q-11 -64 34.5 -107t170.5 -67q190 -37 263 -118.5t50 -207.5q-19 -121 -118 -186.5t-281 -65.5zM444 1065l-36 92l524 270l55 -129z" />
    <glyph glyph-name="Scircumflex" unicode="&#x15c;" horiz-adv-x="1138" 
d="M543 -25q-134 0 -232.5 30t-156 86t-85 129t-28.5 165l184 31q13 -285 334 -285q259 0 289 174q17 96 -41.5 148t-233.5 90q-235 48 -320 146t-56 259q24 143 145 224t326 81q116 0 200.5 -27t134.5 -77.5t74.5 -114t30.5 -145.5l-190 -37q-5 62 -19.5 105.5t-45 77
t-81.5 49.5t-125 16q-243 0 -272 -164q-10 -39 -0.5 -74.5t38.5 -64.5t89.5 -54.5t152.5 -44.5q125 -27 208 -68t122 -92t51.5 -114t-2.5 -135q-27 -147 -149.5 -230.5t-341.5 -83.5zM958 1323l-210 172l-275 -172l-53 74l311 239h70l225 -239z" />
    <glyph glyph-name="scircumflex" unicode="&#x15d;" horiz-adv-x="942" 
d="M430 -25q-209 0 -305 84t-107 232l170 31q10 -100 68.5 -155.5t185.5 -55.5q193 0 217 127q12 72 -37.5 111.5t-191.5 68.5q-176 37 -243 116t-44 203q22 116 119.5 180t263.5 64q94 0 162 -21.5t108.5 -61.5t61.5 -88.5t29 -111.5l-170 -30q-7 93 -56.5 136.5
t-146.5 43.5q-89 0 -140.5 -31.5t-62.5 -89.5q-11 -64 34.5 -107t170.5 -67q190 -37 263 -118.5t50 -207.5q-19 -121 -118 -186.5t-281 -65.5zM825 1067l-200 209l-275 -209l-63 68l321 286h70l217 -286z" />
    <glyph glyph-name="uni015E" unicode="&#x15e;" horiz-adv-x="1138" 
d="M543 -25q-40 0 -58 2l-47 -81q41 16 86 16q68 0 104 -30.5t25 -94.5q-9 -52 -60 -91.5t-142 -39.5q-126 0 -203 59l57 74q67 -49 156 -49q88 0 98 57q5 28 -15 44t-61 16q-29 0 -86 -15l-55 27l64 117q-188 27 -275.5 131.5t-89.5 267.5l184 31q13 -285 334 -285
q259 0 289 174q17 96 -41.5 148t-233.5 90q-235 48 -320 146t-56 259q24 143 145 224t326 81q116 0 200.5 -27t134.5 -77.5t74.5 -114t30.5 -145.5l-190 -37q-5 62 -19.5 105.5t-45 77t-81.5 49.5t-125 16q-243 0 -272 -164q-10 -39 -0.5 -74.5t38.5 -64.5t89.5 -54.5
t152.5 -44.5q125 -27 208 -68t122 -92t51.5 -114t-2.5 -135q-27 -147 -149.5 -230.5t-341.5 -83.5z" />
    <glyph glyph-name="uni015F" unicode="&#x15f;" horiz-adv-x="942" 
d="M430 -25q-35 0 -51 2l-47 -81q41 16 86 16q68 0 104 -30.5t25 -94.5q-9 -52 -60.5 -91.5t-142.5 -39.5q-126 0 -203 59l58 74q67 -49 155 -49q89 0 99 57q5 28 -15 44t-61 16q-28 0 -86 -15l-55 27l63 117q-261 46 -281 305l170 31q10 -100 68.5 -155.5t185.5 -55.5
q193 0 217 127q12 72 -37.5 111.5t-191.5 68.5q-176 37 -243 116t-44 203q22 116 119.5 180t263.5 64q94 0 162 -21.5t108.5 -61.5t61.5 -88.5t29 -111.5l-170 -30q-7 93 -56.5 136.5t-146.5 43.5q-89 0 -140.5 -31.5t-62.5 -89.5q-11 -64 34.5 -107t170.5 -67
q190 -37 263 -118.5t50 -207.5q-19 -121 -118 -186.5t-281 -65.5z" />
    <glyph glyph-name="Scaron" unicode="&#x160;" horiz-adv-x="1138" 
d="M543 -25q-134 0 -232.5 30t-156 86t-85 129t-28.5 165l184 31q13 -285 334 -285q259 0 289 174q17 96 -41.5 148t-233.5 90q-235 48 -320 146t-56 259q24 143 145 224t326 81q116 0 200.5 -27t134.5 -77.5t74.5 -114t30.5 -145.5l-190 -37q-5 62 -19.5 105.5t-45 77
t-81.5 49.5t-125 16q-243 0 -272 -164q-10 -39 -0.5 -74.5t38.5 -64.5t89.5 -54.5t152.5 -44.5q125 -27 208 -68t122 -92t51.5 -114t-2.5 -135q-27 -147 -149.5 -230.5t-341.5 -83.5zM750 1331h-70l-225 240l65 74l211 -175l277 175l51 -74z" />
    <glyph glyph-name="scaron" unicode="&#x161;" horiz-adv-x="942" 
d="M430 -25q-209 0 -305 84t-107 232l170 31q10 -100 68.5 -155.5t185.5 -55.5q193 0 217 127q12 72 -37.5 111.5t-191.5 68.5q-176 37 -243 116t-44 203q22 116 119.5 180t263.5 64q94 0 162 -21.5t108.5 -61.5t61.5 -88.5t29 -111.5l-170 -30q-7 93 -56.5 136.5
t-146.5 43.5q-89 0 -140.5 -31.5t-62.5 -89.5q-11 -64 34.5 -107t170.5 -67q190 -37 263 -118.5t50 -207.5q-19 -121 -118 -186.5t-281 -65.5zM614 1083h-69l-217 287l71 68l199 -209l276 209l60 -68z" />
    <glyph glyph-name="Tcommaaccent" unicode="&#x162;" horiz-adv-x="1044" 
d="M133 1057l31 172h981l-31 -172h-397l-187 -1057h-88l-59 -104q41 16 86 16q68 0 104 -30.5t25 -94.5q-9 -52 -60.5 -91.5t-142.5 -39.5q-125 0 -202 59l57 74q67 -49 156 -49q88 0 98 57q5 28 -15 44t-61 16q-28 0 -86 -15l-55 27l71 131h-14l186 1057h-397z" />
    <glyph glyph-name="tcommaaccent" unicode="&#x163;" horiz-adv-x="720" 
d="M156 307l88 502h-148l27 147h147l47 269h177l-48 -269h306l-27 -147h-305l-88 -504q-28 -164 121 -164q52 0 147 25l-2 -158q-115 -33 -195 -33q-42 0 -92 11l-51 -90q41 16 86 16q68 0 104 -30.5t25 -94.5q-9 -52 -60.5 -91.5t-142.5 -39.5q-125 0 -202 59l57 74
q67 -49 156 -49q88 0 98 57q5 28 -15 44t-61 16q-29 0 -86 -15l-55 27l80 145q-63 40 -85 117t-3 176z" />
    <glyph glyph-name="Tcaron" unicode="&#x164;" horiz-adv-x="1044" 
d="M1114 1057h-397l-187 -1057h-186l186 1057h-397l31 172h981zM707 1331h-70l-225 240l65 74l211 -175l277 175l51 -74z" />
    <glyph glyph-name="tcaron" unicode="&#x165;" horiz-adv-x="729" 
d="M729 1386h143l-100 -329h-106zM156 307l88 502h-148l27 147h147l47 269h177l-48 -269h306l-27 -147h-305l-88 -504q-28 -164 121 -164q52 0 147 25l-2 -158q-115 -33 -195 -33q-152 0 -213.5 92t-33.5 240z" />
    <glyph glyph-name="Tbar" unicode="&#x166;" horiz-adv-x="1046" 
d="M137 1057l31 172h981l-31 -172h-397l-78 -443h285l-23 -118h-282l-88 -496h-187l86 496h-287l23 118h287l78 443h-398z" />
    <glyph glyph-name="tbar" unicode="&#x167;" horiz-adv-x="720" 
d="M156 307l26 154h-119l19 110h121l41 238h-148l27 147h147l47 269h177l-48 -269h306l-27 -147h-305l-41 -238h276l-20 -110h-277l-26 -156q-28 -164 121 -164q52 0 147 25l-2 -158q-115 -33 -195 -33q-152 0 -213.5 92t-33.5 240z" />
    <glyph glyph-name="Utilde" unicode="&#x168;" horiz-adv-x="1288" 
d="M604 143q166 0 247.5 84t111.5 248l133 754h186l-135 -778q-83 -474 -551 -474q-263 0 -382 132t-75 378l129 742h189l-131 -744q-16 -74 -8 -136.5t36.5 -108.5t91.5 -71.5t158 -25.5zM657 1671q46 0 80.5 -20.5t55 -50.5t37.5 -59.5t39 -50t49 -20.5q43 0 66.5 46
t39.5 147h90q0 -34 -8 -92q-21 -114 -72 -172t-123 -58q-43 0 -75 20.5t-51.5 50.5t-37 59.5t-41 50t-53.5 20.5q-46 0 -69 -41.5t-41 -146.5h-90q0 36 8 90q21 113 72.5 170t123.5 57z" />
    <glyph glyph-name="utilde" unicode="&#x169;" horiz-adv-x="1089" 
d="M707 0l45 250h-17q-61 -130 -159 -202.5t-222 -72.5q-152 0 -222 99t-40 262l111 620h176l-103 -587q-20 -105 22 -167.5t151 -62.5q128 0 216.5 73.5t110.5 197.5l96 546h177l-168 -956h-174zM553 1427q46 0 80.5 -20.5t54.5 -50t37.5 -59t39 -50t48.5 -20.5q43 0 67 46
t40 146h90q0 -27 -9 -92q-21 -114 -71.5 -171.5t-122.5 -57.5q-43 0 -75 20.5t-51.5 50t-37 59t-41 50t-53.5 20.5q-46 0 -69.5 -42t-41.5 -146h-90q0 36 8 90q21 113 72.5 170t124.5 57z" />
    <glyph glyph-name="Umacron" unicode="&#x16a;" horiz-adv-x="1288" 
d="M604 143q166 0 247.5 84t111.5 248l133 754h186l-135 -778q-83 -474 -551 -474q-263 0 -382 132t-75 378l129 742h189l-131 -744q-16 -74 -8 -136.5t36.5 -108.5t91.5 -71.5t158 -25.5zM545 1503h561l-25 -131h-559z" />
    <glyph glyph-name="umacron" unicode="&#x16b;" horiz-adv-x="1089" 
d="M707 0l45 250h-17q-61 -130 -159 -202.5t-222 -72.5q-152 0 -222 99t-40 262l111 620h176l-103 -587q-20 -105 22 -167.5t151 -62.5q128 0 216.5 73.5t110.5 197.5l96 546h177l-168 -956h-174zM401 1274h557l-22 -131h-557z" />
    <glyph glyph-name="Ubreve" unicode="&#x16c;" horiz-adv-x="1288" 
d="M604 143q166 0 247.5 84t111.5 248l133 754h186l-135 -778q-83 -474 -551 -474q-263 0 -382 132t-75 378l129 742h189l-131 -744q-16 -74 -8 -136.5t36.5 -108.5t91.5 -71.5t158 -25.5zM815 1464q175 0 221 166h97q-45 -291 -322 -291q-141 0 -207.5 74.5t-40.5 216.5h96
q-13 -166 156 -166z" />
    <glyph glyph-name="ubreve" unicode="&#x16d;" horiz-adv-x="1089" 
d="M707 0l45 250h-17q-61 -130 -159 -202.5t-222 -72.5q-152 0 -222 99t-40 262l111 620h176l-103 -587q-20 -105 22 -167.5t151 -62.5q128 0 216.5 73.5t110.5 197.5l96 546h177l-168 -956h-174zM672 1217q82 0 137.5 43t81.5 149h98q-27 -162 -107 -239.5t-214 -77.5
q-142 0 -209 79.5t-39 237.5h96q-10 -105 32.5 -148.5t123.5 -43.5z" />
    <glyph glyph-name="Uring" unicode="&#x16e;" horiz-adv-x="1288" 
d="M604 143q166 0 247.5 84t111.5 248l133 754h186l-135 -778q-83 -474 -551 -474q-263 0 -382 132t-75 378l129 742h189l-131 -744q-16 -74 -8 -136.5t36.5 -108.5t91.5 -71.5t158 -25.5zM1044 1524q-17 -91 -82.5 -145t-160.5 -54q-101 0 -151.5 60.5t-33.5 160.5
q17 90 82.5 143.5t161.5 53.5q100 0 150.5 -60.5t33.5 -158.5zM721 1538q-9 -54 16 -84.5t78 -30.5q48 0 82 28.5t43 78.5q9 55 -16 85t-78 30q-50 0 -83 -28t-42 -79z" />
    <glyph glyph-name="uring" unicode="&#x16f;" horiz-adv-x="1089" 
d="M707 0l45 250h-17q-61 -130 -159 -202.5t-222 -72.5q-152 0 -222 99t-40 262l111 620h176l-103 -587q-20 -105 22 -167.5t151 -62.5q128 0 216.5 73.5t110.5 197.5l96 546h177l-168 -956h-174zM563 1305q-10 -61 19 -96t88 -35q55 0 92 31.5t47 90.5q10 61 -19 95t-88 34
q-55 0 -92 -31t-47 -89zM911 1282q-17 -97 -84.5 -152t-167.5 -55q-109 0 -163 67t-35 173q17 98 84.5 153.5t167.5 55.5q108 0 162.5 -67.5t35.5 -174.5z" />
    <glyph glyph-name="Uhungarumlaut" unicode="&#x170;" horiz-adv-x="1288" 
d="M604 143q166 0 247.5 84t111.5 248l133 754h186l-135 -778q-83 -474 -551 -474q-263 0 -382 132t-75 378l129 742h189l-131 -744q-16 -74 -8 -136.5t36.5 -108.5t91.5 -71.5t158 -25.5zM647 1317l-74 53l258 316l109 -80zM930 1317l-72 59l272 307l107 -86z" />
    <glyph glyph-name="uhungarumlaut" unicode="&#x171;" horiz-adv-x="1089" 
d="M707 0l45 250h-17q-61 -130 -159 -202.5t-222 -72.5q-152 0 -222 99t-40 262l111 620h176l-103 -587q-20 -105 22 -167.5t151 -62.5q128 0 216.5 73.5t110.5 197.5l96 546h177l-168 -956h-174zM768 1069l-70 59l260 324l101 -82zM498 1067l-76 51l242 336l108 -76z" />
    <glyph glyph-name="Uogonek" unicode="&#x172;" horiz-adv-x="1288" 
d="M604 143q166 0 247.5 84t111.5 248l133 754h186l-135 -778q-38 -218 -161 -337t-327 -134q-150 -39 -165 -115q-7 -38 21 -56t89 -18q50 0 113 14l-19 -129q-68 -12 -127 -12q-111 0 -161.5 41.5t-38.5 114.5q17 103 164 160q-231 15 -334 146t-62 361l129 742h189
l-131 -744q-16 -74 -8 -136.5t36.5 -108.5t91.5 -71.5t158 -25.5z" />
    <glyph glyph-name="uogonek" unicode="&#x173;" horiz-adv-x="1089" 
d="M825 -324q-67 -12 -127 -12q-111 0 -161.5 41.5t-38.5 114.5q23 126 229 180h-20l45 250h-17q-61 -130 -159 -202.5t-222 -72.5q-152 0 -222 99t-40 262l111 620h176l-103 -587q-20 -105 22 -167.5t151 -62.5q128 0 216.5 73.5t110.5 197.5l96 546h177l-168 -956h-2
q-127 -24 -188 -55t-70 -80q-7 -38 21 -56t89 -18q50 0 113 14z" />
    <glyph glyph-name="Wcircumflex" unicode="&#x174;" horiz-adv-x="1720" 
d="M723 514l-209 -514h-272l-107 1229h197l35 -584q14 -383 14 -481h57q102 280 185 481l249 584h242l45 -586q11 -177 15 -479h55q25 73 53 148t70.5 183.5t58.5 149.5l238 584h200l-536 -1229h-281l-31 514q-18 351 -18 549h-43q-91 -250 -217 -549zM1257 1323l-210 172
l-275 -172l-53 74l311 239h70l225 -239z" />
    <glyph glyph-name="wcircumflex" unicode="&#x175;" horiz-adv-x="1515" 
d="M944 956l37 -372q26 -266 33 -445h37q32 81 196 451l162 366h184l-469 -956h-233l-41 422q-20 222 -23 397h-30q-67 -181 -164 -397l-184 -422h-230l-131 956h178l39 -366q35 -307 41 -451h37q99 254 188 445l168 372h205zM1108 1067l-201 209l-274 -209l-64 68l322 286
h70l217 -286z" />
    <glyph glyph-name="Ycircumflex" unicode="&#x176;" horiz-adv-x="1091" 
d="M555 0h-186l73 418l-325 788l4 23h196l226 -656h30l459 656h203l-4 -23l-600 -788zM942 1323l-211 172l-274 -172l-54 74l312 239h69l226 -239z" />
    <glyph glyph-name="ycircumflex" unicode="&#x177;" horiz-adv-x="974" 
d="M10 -352q-80 0 -133 12l45 164q72 -14 117 -14q93 0 154.5 39t136.5 161l-240 946h189l63 -342q72 -394 82 -456h31q26 51 76.5 148.5t89.5 173.5t67 132l178 344h199l-578 -968q-108 -181 -217 -260.5t-260 -79.5zM840 1067l-201 209l-274 -209l-64 68l322 286h69
l217 -286z" />
    <glyph glyph-name="Ydieresis" unicode="&#x178;" horiz-adv-x="1091" 
d="M555 0h-186l73 418l-325 788l4 23h196l226 -656h30l459 656h203l-4 -23l-600 -788zM432 1550h193l-33 -190h-193zM797 1550h192l-33 -190h-192z" />
    <glyph glyph-name="Zacute" unicode="&#x179;" horiz-adv-x="1159" 
d="M1016 172l-31 -172h-997l30 170l920 891l-6 20q-250 -24 -416 -24h-319l30 172h971l-29 -168l-927 -895l6 -21q304 27 436 27h332zM547 1350l-19 96l553 190l29 -145z" />
    <glyph glyph-name="zacute" unicode="&#x17a;" horiz-adv-x="997" 
d="M586 158h266l-27 -158h-831l26 158l744 651l-4 18q-232 -26 -398 -26h-210l28 155h805l-27 -157l-743 -652l4 -18q247 29 367 29zM451 1065l-37 92l524 270l55 -129z" />
    <glyph glyph-name="Zdotaccent" unicode="&#x17b;" horiz-adv-x="1159" 
d="M1016 172l-31 -172h-997l30 170l920 891l-6 20q-250 -24 -416 -24h-319l30 172h971l-29 -168l-927 -895l6 -21q304 27 436 27h332zM641 1583h201l-33 -197h-203z" />
    <glyph glyph-name="zdotaccent" unicode="&#x17c;" horiz-adv-x="997" 
d="M586 158h266l-27 -158h-831l26 158l744 651l-4 18q-232 -26 -398 -26h-210l28 155h805l-27 -157l-743 -652l4 -18q247 29 367 29zM547 1346h201l-33 -197h-203z" />
    <glyph glyph-name="Zcaron" unicode="&#x17d;" horiz-adv-x="1159" 
d="M1016 172l-31 -172h-997l30 170l920 891l-6 20q-250 -24 -416 -24h-319l30 172h971l-29 -168l-927 -895l6 -21q304 27 436 27h332zM756 1331h-70l-225 240l65 74l211 -175l277 175l51 -74z" />
    <glyph glyph-name="zcaron" unicode="&#x17e;" horiz-adv-x="997" 
d="M586 158h266l-27 -158h-831l26 158l744 651l-4 18q-232 -26 -398 -26h-210l28 155h805l-27 -157l-743 -652l4 -18q247 29 367 29zM635 1083h-70l-217 287l72 68l198 -209l277 209l59 -68z" />
    <glyph glyph-name="Aringacute" unicode="&#x1fa;" horiz-adv-x="1191" 
d="M637 1604l-12 94l544 186l21 -145zM666 1356q-9 -55 16.5 -86t79.5 -31q48 0 83 29t44 80q9 57 -16.5 87.5t-79.5 30.5q-50 0 -84 -28.5t-43 -81.5zM461 639l-82 -152h450l-28 152q-37 188 -70 424h-51q-81 -169 -219 -424zM922 0l-66 344h-555l-184 -344h-205l678 1204
q-46 58 -31 162q17 92 84 147.5t164 55.5q101 0 153 -63.5t35 -164.5q-21 -122 -127 -178l246 -1163h-192z" />
    <glyph glyph-name="aringacute" unicode="&#x1fb;" 
d="M549 1509l-10 107l530 151l16 -135zM600 1262q-9 -54 16 -84.5t78 -30.5q48 0 82 28t43 78q9 55 -16 85t-78 30q-50 0 -83 -27.5t-42 -78.5zM924 1247q-17 -91 -83 -144.5t-161 -53.5q-101 0 -151 60.5t-33 160.5q17 90 82 143t161 53q100 0 151 -60.5t34 -158.5z
M453 135q121 0 208.5 75t118.5 206l6 39l13 69q20 133 -44 214t-194 81q-259 0 -317 -332q-64 -352 209 -352zM72 508q41 226 155.5 349.5t280.5 123.5q146 0 222 -78.5t89 -214.5l10 6l45 262h179l-168 -956h-178l45 258l-4 -2l2 23q-57 -137 -160 -220.5t-236 -83.5
q-175 0 -250.5 139.5t-31.5 393.5z" />
    <glyph glyph-name="AEacute" unicode="&#x1fc;" horiz-adv-x="1753" 
d="M885 1350l-19 96l553 190l29 -145zM717 0l51 295h-438l-201 -295h-205l2 12l865 1217h997l-31 -166h-663l-64 -356h598l-29 -164h-598l-67 -377h665l-30 -166h-852zM565 639l-135 -199h365l110 631h-57q-94 -153 -283 -432z" />
    <glyph glyph-name="aeacute" unicode="&#x1fd;" horiz-adv-x="1687" 
d="M367 123q129 0 218.5 65t106.5 168l13 74h-285q-91 0 -146 -36t-67 -105q-13 -72 25 -119t135 -47zM1243 840q-130 0 -217 -76.5t-123 -228.5h561q49 305 -221 305zM1575 276q-62 -146 -169.5 -223.5t-281.5 -77.5q-167 0 -272 72.5t-127 206.5q-62 -135 -174.5 -206
t-251.5 -71q-142 0 -216.5 78t-47.5 224q19 113 113.5 177t257.5 64h315l16 88q19 111 -22 167t-156 56q-93 0 -155.5 -47t-102.5 -143l-160 45q54 139 160 216t258 77q284 0 320 -211q129 213 387 213q212 0 304.5 -121.5t57.5 -329.5q0 -2 -7 -36t-13 -56h-723
q-17 -153 46.5 -233t205.5 -80q61 0 109 15.5t82 45.5t57 62.5t45 79.5zM799 1065l-37 92l524 270l55 -129z" />
    <glyph glyph-name="Oslashacute" unicode="&#x1fe;" horiz-adv-x="1343" 
d="M616 -25q-252 0 -395 140l-127 -115h-157v10l219 191q-108 181 -58 458q48 274 227.5 434t452.5 160q260 0 406 -149l137 125h149l-2 -10l-223 -199q100 -178 53 -449q-51 -275 -228 -435.5t-454 -160.5zM274 639q-35 -187 21 -317l756 663q-93 107 -281 107
q-208 0 -333 -119.5t-163 -333.5zM655 1350l-18 96l553 190l29 -145zM625 135q210 0 333.5 121.5t163.5 341.5q31 181 -16 299l-754 -664q92 -98 273 -98z" />
    <glyph glyph-name="oslashacute" unicode="&#x1ff;" horiz-adv-x="1089" 
d="M483 -25q-203 0 -315 115l-96 -90h-148l2 12l185 160q-74 143 -37 348q38 221 180.5 341t351.5 120q200 0 312 -115l96 90h141v-12l-180 -156q78 -143 41 -346q-37 -219 -177.5 -343t-355.5 -124zM592 836q-147 0 -237 -86t-119 -250q-21 -125 6 -215l555 479
q-72 72 -205 72zM510 1065l-37 92l524 270l56 -129zM492 123q152 0 243 89t121 255q22 127 -8 211l-555 -483q69 -72 199 -72z" />
    <glyph glyph-name="uni0218" unicode="&#x218;" horiz-adv-x="1138" 
d="M543 -25q-134 0 -232.5 30t-156 86t-85 129t-28.5 165l184 31q13 -285 334 -285q259 0 289 174q17 96 -41.5 148t-233.5 90q-235 48 -320 146t-56 259q24 143 145 224t326 81q116 0 200.5 -27t134.5 -77.5t74.5 -114t30.5 -145.5l-190 -37q-5 62 -19.5 105.5t-45 77
t-81.5 49.5t-125 16q-243 0 -272 -164q-10 -39 -0.5 -74.5t38.5 -64.5t89.5 -54.5t152.5 -44.5q125 -27 208 -68t122 -92t51.5 -114t-2.5 -135q-27 -147 -149.5 -230.5t-341.5 -83.5zM412 -113h149l-176 -309h-117l4 16z" />
    <glyph glyph-name="uni0219" unicode="&#x219;" horiz-adv-x="942" 
d="M430 -25q-209 0 -305 84t-107 232l170 31q10 -100 68.5 -155.5t185.5 -55.5q193 0 217 127q12 72 -37.5 111.5t-191.5 68.5q-176 37 -243 116t-44 203q22 116 119.5 180t263.5 64q94 0 162 -21.5t108.5 -61.5t61.5 -88.5t29 -111.5l-170 -30q-7 93 -56.5 136.5
t-146.5 43.5q-89 0 -140.5 -31.5t-62.5 -89.5q-11 -64 34.5 -107t170.5 -67q190 -37 263 -118.5t50 -207.5q-19 -121 -118 -186.5t-281 -65.5zM330 -113h149l-176 -309h-117l4 16z" />
    <glyph glyph-name="uni021A" unicode="&#x21a;" horiz-adv-x="1044" 
d="M133 1057l31 172h981l-31 -172h-397l-187 -1057h-186l186 1057h-397zM379 -113h149l-176 -309h-116l4 16z" />
    <glyph glyph-name="uni021B" unicode="&#x21b;" horiz-adv-x="720" 
d="M156 307l88 502h-148l27 147h147l47 269h177l-48 -269h306l-27 -147h-305l-88 -504q-28 -164 121 -164q52 0 147 25l-2 -158q-115 -33 -195 -33q-152 0 -213.5 92t-33.5 240zM236 -113h149l-176 -309h-117l4 16z" />
    <glyph glyph-name="circumflex" unicode="&#x2c6;" horiz-adv-x="690" 
d="M694 1067l-200 209l-275 -209l-63 68l321 286h70l217 -286z" />
    <glyph glyph-name="caron" unicode="&#x2c7;" horiz-adv-x="690" 
d="M485 1083h-69l-217 287l71 68l199 -209l276 209l60 -68z" />
    <glyph glyph-name="breve" unicode="&#x2d8;" horiz-adv-x="667" 
d="M469 1217q82 0 137.5 43t81.5 149h98q-27 -162 -107 -239.5t-214 -77.5q-142 0 -209 79.5t-39 237.5h96q-10 -105 32.5 -148.5t123.5 -43.5z" />
    <glyph glyph-name="dotaccent" unicode="&#x2d9;" horiz-adv-x="321" 
d="M213 1346h201l-33 -197h-203z" />
    <glyph glyph-name="ring" unicode="&#x2da;" horiz-adv-x="595" 
d="M668 1282q-17 -97 -84.5 -152t-167.5 -55q-109 0 -163.5 67.5t-35.5 172.5q17 98 84.5 153.5t167.5 55.5q108 0 163 -68t36 -174zM319 1305q-10 -61 19 -96t88 -35q55 0 92 31.5t47 90.5q10 61 -18.5 95t-87.5 34q-55 0 -92.5 -31t-47.5 -89z" />
    <glyph glyph-name="ogonek" unicode="&#x2db;" horiz-adv-x="440" 
d="M281 23l30 -23q-127 -24 -188 -55t-70 -80q-7 -38 21.5 -56t89.5 -18q49 0 112 14l-18 -129q-67 -12 -127 -12q-111 0 -162 41.5t-39 114.5q10 56 59 98.5t122.5 67.5t169.5 37z" />
    <glyph glyph-name="tilde" unicode="&#x2dc;" horiz-adv-x="702" 
d="M369 1427q46 0 80.5 -20.5t54.5 -50t37.5 -59t39 -50t48.5 -20.5q43 0 66.5 45.5t39.5 146.5h90q0 -34 -8 -92q-21 -114 -71.5 -171.5t-122.5 -57.5q-43 0 -75 20.5t-51.5 50t-37 59t-41 50t-53.5 20.5q-46 0 -69.5 -42t-41.5 -146h-90q0 36 8 90q21 113 72.5 170
t124.5 57z" />
    <glyph glyph-name="hungarumlaut" unicode="&#x2dd;" horiz-adv-x="704" 
d="M252 1067l-76 51l242 336l108 -76zM522 1069l-69 59l260 324l100 -82z" />
    <glyph glyph-name="Wgrave" unicode="&#x1e80;" horiz-adv-x="1720" 
d="M723 514l-209 -514h-272l-107 1229h197l35 -584q14 -383 14 -481h57q102 280 185 481l249 584h242l45 -586q11 -177 15 -479h55q25 73 53 148t70.5 183.5t58.5 149.5l238 584h200l-536 -1229h-281l-31 514q-18 351 -18 549h-43q-91 -250 -217 -549zM1178 1350l-512 143
l61 141l490 -186z" />
    <glyph glyph-name="wgrave" unicode="&#x1e81;" horiz-adv-x="1515" 
d="M944 956l37 -372q26 -266 33 -445h37q32 81 196 451l162 366h184l-469 -956h-233l-41 422q-20 222 -23 397h-30q-67 -181 -164 -397l-184 -422h-230l-131 956h178l39 -366q35 -307 41 -451h37q99 254 188 445l168 372h205zM1034 1069l-459 229l78 134l430 -275z" />
    <glyph glyph-name="Wacute" unicode="&#x1e82;" horiz-adv-x="1720" 
d="M723 514l-209 -514h-272l-107 1229h197l35 -584q14 -383 14 -481h57q102 280 185 481l249 584h242l45 -586q11 -177 15 -479h55q25 73 53 148t70.5 183.5t58.5 149.5l238 584h200l-536 -1229h-281l-31 514q-18 351 -18 549h-43q-91 -250 -217 -549zM836 1350l-19 96
l553 190l29 -145z" />
    <glyph glyph-name="wacute" unicode="&#x1e83;" horiz-adv-x="1515" 
d="M944 956l37 -372q26 -266 33 -445h37q32 81 196 451l162 366h184l-469 -956h-233l-41 422q-20 222 -23 397h-30q-67 -181 -164 -397l-184 -422h-230l-131 956h178l39 -366q35 -307 41 -451h37q99 254 188 445l168 372h205zM715 1065l-37 92l524 270l55 -129z" />
    <glyph glyph-name="Wdieresis" unicode="&#x1e84;" horiz-adv-x="1720" 
d="M723 514l-209 -514h-272l-107 1229h197l35 -584q14 -383 14 -481h57q102 280 185 481l249 584h242l45 -586q11 -177 15 -479h55q25 73 53 148t70.5 183.5t58.5 149.5l238 584h200l-536 -1229h-281l-31 514q-18 351 -18 549h-43q-91 -250 -217 -549zM748 1550h192
l-33 -190h-192zM1112 1550h193l-33 -190h-193z" />
    <glyph glyph-name="wdieresis" unicode="&#x1e85;" horiz-adv-x="1515" 
d="M944 956l37 -372q26 -266 33 -445h37q32 81 196 451l162 366h184l-469 -956h-233l-41 422q-20 222 -23 397h-30q-67 -181 -164 -397l-184 -422h-230l-131 956h178l39 -366q35 -307 41 -451h37q99 254 188 445l168 372h205zM623 1327h192l-33 -190h-192zM987 1327h193
l-33 -190h-193z" />
    <glyph glyph-name="uni1E9E" unicode="&#x1e9e;" horiz-adv-x="1224" 
d="M762 -20q-136 0 -222.5 48t-121.5 134l88 133q30 -72 97.5 -113t166.5 -41q161 0 186 129q11 68 -30 113t-123 80l-35 17.5t-34 18t-33.5 21t-31 23.5t-28 26.5t-23 30t-18 34.5t-11 39t-4.5 45t5 50q33 185 352 301l-2 21q-166 -19 -268 -19q-127 0 -197 -70.5
t-92 -189.5l-143 -811h-187l144 821q36 200 161 304t338 104h441l-27 -156q-173 -77 -255.5 -145.5t-94.5 -141.5q-11 -67 28 -108.5t119 -77.5q40 -20 71 -39t59.5 -43.5t46 -51t31 -60.5t13.5 -72t-6 -86q-21 -126 -111.5 -197t-248.5 -71z" />
    <glyph glyph-name="endash" unicode="&#x2013;" horiz-adv-x="974" 
d="M61 582h887l-28 -164h-887z" />
    <glyph glyph-name="emdash" unicode="&#x2014;" horiz-adv-x="1761" 
d="M61 582h1674l-29 -164h-1673z" />
    <glyph glyph-name="quoteleft" unicode="&#x2018;" horiz-adv-x="397" 
d="M274 672h-186l274 557h101l-2 -12z" />
    <glyph glyph-name="quoteright" unicode="&#x2019;" horiz-adv-x="397" 
d="M285 1229h186l-274 -557h-101l2 12z" />
    <glyph glyph-name="quotesinglbase" unicode="&#x201a;" horiz-adv-x="391" 
d="M115 260h186l-274 -557h-101l2 12z" />
    <glyph glyph-name="quotedblleft" unicode="&#x201c;" horiz-adv-x="727" 
d="M287 672h-187l275 557h100l-2 -12zM618 672h-186l275 557h100l-2 -12z" />
    <glyph glyph-name="quotedblright" unicode="&#x201d;" horiz-adv-x="729" 
d="M285 1229h186l-274 -557h-101l2 12zM616 1229h187l-275 -557h-100l2 12z" />
    <glyph glyph-name="quotedblbase" unicode="&#x201e;" horiz-adv-x="708" 
d="M109 260h186l-275 -557h-100l2 12zM440 260h187l-275 -557h-100l2 12z" />
    <glyph glyph-name="dagger" unicode="&#x2020;" horiz-adv-x="1163" 
d="M516 -430h-188l219 1241h-273l-67 -387h-156l94 532h426l74 416h189l-74 -416h428l-94 -532h-156l68 387h-271z" />
    <glyph glyph-name="daggerdbl" unicode="&#x2021;" horiz-adv-x="1191" 
d="M659 1372h189l-60 -336h426l-69 -397h-156l45 252h-272l-131 -746h272l43 250h156l-70 -395h-428l-76 -430h-186l76 430h-428l69 395h156l-43 -250h270l133 746h-274l-43 -252h-156l70 397h428z" />
    <glyph glyph-name="bullet" unicode="&#x2022;" horiz-adv-x="550" 
d="M137 672h342l-59 -334h-342z" />
    <glyph glyph-name="ellipsis" unicode="&#x2026;" horiz-adv-x="1157" 
d="M31 219h223l-39 -219h-223zM422 219h223l-39 -219h-223zM813 219h223l-39 -219h-223z" />
    <glyph glyph-name="perthousand" unicode="&#x2030;" horiz-adv-x="2230" 
d="M1798 -20q-158 0 -234.5 103.5t-45.5 274.5q26 149 124 232.5t242 83.5q158 0 235 -102.5t48 -270.5q-27 -152 -126 -236.5t-243 -84.5zM1806 106q88 0 145.5 57t76.5 161q19 105 -23 165t-129 60q-89 0 -145.5 -55t-73.5 -158q-20 -106 20 -168t129 -62zM426 555
q-158 0 -235 104t-46 275q27 149 126 232t243 83q158 0 235 -101.5t48 -270.5q-28 -153 -126.5 -237.5t-244.5 -84.5zM434 682q90 0 147 56.5t74 160.5q20 105 -21 165t-130 60q-88 0 -144 -55t-75 -158q-19 -106 20.5 -167.5t128.5 -61.5zM1059 -20q-158 0 -235.5 104
t-45.5 274q26 149 124.5 232.5t242.5 83.5q158 0 234.5 -102.5t47.5 -270.5q-27 -152 -125.5 -236.5t-242.5 -84.5zM1067 106q88 0 145 57t76 161q19 105 -22.5 165t-128.5 60q-89 0 -145.5 -55t-73.5 -158q-20 -106 19.5 -168t129.5 -62zM1284 1229h242l-2 -12l-639 -533
l-41 39zM293 0h-242l2 12l639 533l41 -39z" />
    <glyph glyph-name="guilsinglleft" unicode="&#x2039;" horiz-adv-x="761" 
d="M637 70h-170l-420 440l6 37l565 440h181l-4 -26l-557 -435l-2 -8l405 -426z" />
    <glyph glyph-name="guilsinglright" unicode="&#x203a;" horiz-adv-x="770" 
d="M164 57h-180l4 29l557 434l2 10l-406 424l4 23h170l422 -440l-8 -37z" />
    <glyph glyph-name="fraction" unicode="&#x2044;" horiz-adv-x="59" 
d="M551 1229h242l-2 -12l-639 -533l-41 39zM-440 0h-242l2 12l639 533l41 -39z" />
    <glyph glyph-name="Euro" unicode="&#x20ac;" horiz-adv-x="1337" 
d="M664 -25q-221 0 -345 126.5t-133 344.5h-151l16 95h135q6 53 15 110q4 16 4 27h-129l16 94h137q66 232 218.5 356.5t375.5 124.5q234 0 355.5 -124.5t124.5 -344.5l-183 -24q-8 166 -83 246.5t-232 80.5q-283 0 -389 -315h336l-17 -94h-346q-1 -7 -4 -22.5t-4 -22.5
q-9 -52 -12 -92h342l-17 -95h-327q8 -145 84.5 -226t220.5 -81q156 0 249.5 85t155.5 257l174 -39q-150 -467 -587 -467z" />
    <glyph glyph-name="uni2116" unicode="&#x2116;" horiz-adv-x="2187" 
d="M1335 352h709l-29 -157h-708zM1741 621q106 0 170.5 65.5t83.5 179.5q21 114 -22.5 178t-149.5 64q-104 0 -168.5 -62.5t-85.5 -175.5q-21 -116 22 -182.5t150 -66.5zM1726 479q-175 0 -261 110.5t-52 297.5q31 170 144.5 266t279.5 96q175 0 261 -108t54 -295
q-31 -169 -145.5 -268t-280.5 -99zM842 0l-248 610q-86 216 -152 451l-43 -2q-29 -280 -86 -600l-82 -459h-176l217 1229h267l219 -533q104 -258 172 -501h39q29 278 82 573l79 461h177l-217 -1229h-248z" />
    <glyph glyph-name="trademark" unicode="&#x2122;" horiz-adv-x="1824" 
d="M156 1104l22 125h641l-22 -125h-248l-103 -582h-145l102 582h-247zM983 778l-45 -256h-127l125 707h238l45 -195q6 -29 22 -97t28 -125.5t19 -102.5h27q93 176 184 327l115 193h231l-123 -707h-147l45 256q13 74 66 324h-31q-87 -161 -189 -328l-135 -223h-131l-53 219
q-60 239 -80 332h-31q-28 -190 -53 -324z" />
    <glyph glyph-name="uni2190" unicode="&#x2190;" horiz-adv-x="1556" 
d="M43 553l14 76l758 583l90 -139q-314 -224 -631 -409l2 -13q306 23 691 23h501l-30 -168h-500q-373 0 -682 24l-6 -12q243 -186 479 -414l-135 -133z" />
    <glyph glyph-name="arrowup" unicode="&#x2191;" horiz-adv-x="1433" 
d="M678 1321h76l581 -653l-135 -113q-232 285 -412 555l-12 -4q23 -302 23 -686v-502h-168v502q0 411 24 684l-12 6q-189 -282 -412 -555l-135 113z" />
    <glyph glyph-name="uni2192" unicode="&#x2192;" horiz-adv-x="1556" 
d="M1511 631l-12 -76l-758 -584l-90 140q314 224 631 409l-2 12q-292 -22 -690 -22h-502l29 168h501q399 0 680 -25l9 13q-250 191 -482 413l138 133z" />
    <glyph glyph-name="arrowdown" unicode="&#x2193;" horiz-adv-x="1433" 
d="M756 -86h-76l-584 655l137 111q218 -266 410 -553l14 4q-24 312 -24 684v502h168v-502q0 -359 -25 -684l15 -6q172 265 411 555l135 -113z" />
    <glyph glyph-name="minus" unicode="&#x2212;" horiz-adv-x="1007" 
d="M952 547h-872l29 162h872z" />
    <glyph glyph-name="uni25A0" unicode="&#x25a0;" horiz-adv-x="1843" 
d="M74 -244q4 283 4 848t-4 848q283 -6 848 -6q564 0 847 6q-4 -283 -4 -848t4 -848q-424 6 -847 6t-848 -6z" />
    <glyph glyph-name="uni25B2" unicode="&#x25b2;" horiz-adv-x="1843" 
d="M154 0v8l768 1264h8l762 -1264v-8h-1538z" />
    <glyph glyph-name="uni25B3" unicode="&#x25b3;" horiz-adv-x="1843" 
d="M154 0v8l768 1264h8l762 -1264v-8h-1538zM926 158q172 0 518 -25l4 10q-294 414 -516 883h-14q-211 -455 -515 -883l7 -10q314 25 516 25z" />
    <glyph glyph-name="uni25B6" unicode="&#x25b6;" horiz-adv-x="1843" 
d="M369 1391h8l1263 -768v-9l-1263 -761h-8v1538z" />
    <glyph glyph-name="uni25B7" unicode="&#x25b7;" horiz-adv-x="1843" 
d="M369 1391h8l1263 -768v-9l-1263 -761h-8v1538zM526 618q0 -186 -24 -518l10 -4q414 294 883 516v15q-459 213 -883 514l-10 -6q24 -302 24 -517z" />
    <glyph glyph-name="uni25BC" unicode="&#x25bc;" horiz-adv-x="1843" 
d="M1690 1229v-8l-768 -1264h-9l-761 1264v8h1538z" />
    <glyph glyph-name="uni25BD" unicode="&#x25bd;" horiz-adv-x="1843" 
d="M1438 1085l-6 11q-314 -25 -517 -25q-172 0 -518 25l-4 -11q296 -416 516 -882h15q212 456 514 882zM150 1229h1538v-8l-768 -1264h-9l-761 1264v8z" />
    <glyph glyph-name="uni25C0" unicode="&#x25c0;" horiz-adv-x="1843" 
d="M1475 1391h-9l-1263 -768v-9l1263 -761h9v1538z" />
    <glyph glyph-name="uni25C1" unicode="&#x25c1;" horiz-adv-x="1843" 
d="M1466 1391h9v-1538h-9l-1263 761v9zM1317 618q0 215 24 517l-10 6q-426 -302 -882 -514v-15q466 -220 882 -516l10 4q-24 332 -24 518z" />
    <glyph glyph-name="uni25C6" unicode="&#x25c6;" horiz-adv-x="1843" 
d="M922 -395q-483 521 -990 989q540 502 990 989q457 -493 989 -989q-500 -461 -989 -989z" />
    <glyph glyph-name="uni25CF" unicode="&#x25cf;" horiz-adv-x="1843" 
d="M-6 602q0 284 112.5 494t323 322t494.5 112q427 0 676 -249.5t249 -678.5t-249 -678.5t-676 -249.5q-284 0 -494.5 112t-323 322t-112.5 494z" />
    <glyph glyph-name="uni2605" unicode="&#x2605;" horiz-adv-x="1843" 
d="M1448 -160l-526 305l-523 -305l-6 4l125 592l-450 404l2 8l604 63l244 553h8l243 -553l605 -63l2 -8l-451 -404l125 -592z" />
    <glyph glyph-name="uni2610" unicode="&#x2610;" horiz-adv-x="1843" 
d="M1489 0h-1133v1133h1133v-1133zM496 567q0 -121 -13 -440q300 12 441 12q140 0 440 -12q-14 257 -14 440q0 182 14 439q-275 -11 -440 -11q-166 0 -441 11q13 -314 13 -439z" />
    <glyph glyph-name="uni2611" unicode="&#x2611;" horiz-adv-x="1843" 
d="M629 631l98 104q158 -169 234 -282q195 354 591 905l134 -101q-405 -491 -687 -968h-77q-118 175 -293 342zM356 0v1133h854v-7l-84 -129q-68 -2 -202 -2q-166 0 -441 11q13 -314 13 -439q0 -121 -13 -440q300 12 441 12q146 0 440 -12q-14 383 -14 487l133 181h6v-795
h-1133z" />
    <glyph glyph-name="uni2612" unicode="&#x2612;" horiz-adv-x="1843" 
d="M1489 0h-1133v1133h1133v-1133zM1143 266q-106 109 -219 248q-133 -160 -219 -248l-89 86q99 93 250 217q-146 119 -250 215l89 88q85 -90 219 -247q107 129 219 247l86 -88q-103 -97 -250 -215q152 -121 250 -217zM496 567q0 -121 -13 -440q300 12 441 12q140 0 440 -12
q-14 257 -14 440q0 182 14 439q-275 -11 -440 -11q-166 0 -441 11q13 -314 13 -439z" />
    <glyph glyph-name="uni2661" unicode="&#x2661;" horiz-adv-x="1843" 
d="M606 410q222 -151 322 -299q99 150 321 299q162 110 245 220t83 247q0 132 -68 210t-209 78q-140 0 -221.5 -98.5t-120.5 -280.5h-63q-39 183 -120 281t-222 98q-140 0 -207 -78t-67 -210q0 -137 83 -247.5t244 -219.5zM920 -111q-61 107 -154 193.5t-246 198.5
q-78 55 -138 105.5t-114 110t-89.5 118.5t-56 128t-20.5 142q0 204 108 318t296 114q163 0 260 -78.5t147 -243.5h19q48 165 145 243.5t262 78.5q185 0 293.5 -114.5t108.5 -317.5q0 -91 -30 -174t-88.5 -157.5t-129 -138.5t-168.5 -134q-152 -110 -245 -197t-152 -195h-8z
" />
    <glyph glyph-name="uni2726" unicode="&#x2726;" horiz-adv-x="1843" 
d="M1690 616v-24q-276 -85 -473.5 -284.5t-284.5 -471.5h-23q-88 272 -284.5 471.5t-472.5 284.5v24q276 85 472.5 284.5t284.5 471.5h23q87 -272 284.5 -471.5t473.5 -284.5z" />
    <glyph glyph-name="uni2727" unicode="&#x2727;" horiz-adv-x="1843" 
d="M1692 606v-8q-276 -85 -476.5 -287.5t-287.5 -474.5h-8q-87 272 -288.5 475.5t-477.5 288.5v8q276 85 476 288t288 476h8q88 -273 289 -477t477 -289zM1425 598v14q-191 63 -311 182.5t-184 313.5h-15q-64 -194 -184 -313.5t-311 -182.5v-14q192 -65 311.5 -184.5
t183.5 -313.5h15q64 194 183 313.5t312 184.5z" />
    <glyph glyph-name="uni2728" unicode="&#x2728;" horiz-adv-x="1843" 
d="M1255 424v-8q-225 -70 -387.5 -234.5t-232.5 -386.5h-10q-70 222 -234.5 387.5t-390.5 235.5v8q226 70 390 235t235 388h8q72 -223 235 -389t387 -236zM623 6h8q55 158 155 257t258 155v10q-159 57 -258.5 156t-154.5 256h-8q-55 -157 -154 -255.5t-256 -156.5v-10
q156 -56 255.5 -155.5t154.5 -256.5zM1194 1204v-10q-103 -32 -176.5 -107.5t-106.5 -179.5h-10q-31 103 -105.5 179t-179.5 110v8q104 32 177 108t108 181h8q33 -104 107.5 -180.5t177.5 -108.5zM1090 1198v6q-71 23 -114.5 66.5t-66.5 113.5h-6q-23 -71 -66 -114.5
t-112 -65.5v-6q69 -23 112 -67t66 -113h6q23 69 67 113t114 67zM1843 784q-170 -52 -293 -176t-176 -293h-8q-53 169 -177 293t-296 178v9q171 52 293.5 176.5t177.5 294.5h8q53 -169 177 -294t294 -179v-9zM1679 786v9q-119 41 -193 115t-114 192h-8q-39 -118 -113 -191.5
t-190 -115.5v-9q116 -40 189.5 -114t113.5 -191h8q40 117 114.5 191t192.5 114z" />
    <glyph glyph-name="uni2764" unicode="&#x2764;" horiz-adv-x="1843" 
d="M920 -111q-61 107 -154 193.5t-246 198.5q-78 55 -138 105.5t-114 110t-89.5 118.5t-56 128t-20.5 142q0 204 108 318t296 114q163 0 260 -78.5t147 -243.5h19q48 165 145 243.5t262 78.5q185 0 293.5 -114.5t108.5 -317.5q0 -91 -30 -174t-88.5 -157.5t-129 -138.5
t-168.5 -134q-152 -110 -245 -197t-152 -195h-8z" />
    <glyph glyph-name="uni2780" unicode="&#x2780;" horiz-adv-x="1771" 
d="M885 -55q165 0 294 50.5t210.5 142.5t123 215.5t41.5 273.5q0 148 -42.5 270.5t-124.5 212.5t-210 140t-292 50t-292 -50t-210 -140t-124 -212.5t-42 -270.5q0 -150 42 -273.5t123 -215.5t209.5 -142.5t293.5 -50.5zM885 1442q194 0 349 -60.5t257 -169t156.5 -257.5
t54.5 -328q0 -180 -54 -330t-155.5 -260t-257 -171t-350.5 -61q-194 0 -349.5 61.5t-257 171t-155 259.5t-53.5 330q0 179 54 328t155.5 257.5t256.5 169t349 60.5zM1200 188h-625v131h267v617q-101 -49 -240 -98l-51 125l356 106h84v-750h209v-131z" />
    <glyph glyph-name="uni2781" unicode="&#x2781;" horiz-adv-x="1771" 
d="M885 -55q165 0 294 50.5t210.5 142.5t123 215.5t41.5 273.5q0 148 -42.5 270.5t-124.5 212.5t-210 140t-292 50t-292 -50t-210 -140t-124 -212.5t-42 -270.5q0 -150 42 -273.5t123 -215.5t209.5 -142.5t293.5 -50.5zM885 1442q194 0 349 -60.5t257 -169t156.5 -257.5
t54.5 -328q0 -180 -54 -330t-155.5 -260t-257 -171t-350.5 -61q-194 0 -349.5 61.5t-257 171t-155 259.5t-53.5 330q0 179 54 328t155.5 257.5t256.5 169t349 60.5zM901 963q-110 0 -169.5 -57.5t-82.5 -166.5l-147 21q15 75 43.5 133.5t75.5 103.5t117.5 69t162.5 24
q167 0 255.5 -69t88.5 -204q0 -120 -93 -187.5t-273 -111.5q-154 -40 -208.5 -82t-60.5 -127q208 13 340 13h305v-129h-780v83q0 145 76.5 221.5t253.5 123.5q169 46 228 87t59 113q0 142 -191 142z" />
    <glyph glyph-name="uni2782" unicode="&#x2782;" horiz-adv-x="1771" 
d="M885 -55q165 0 294 50.5t210.5 142.5t123 215.5t41.5 273.5q0 148 -42.5 270.5t-124.5 212.5t-210 140t-292 50t-292 -50t-210 -140t-124 -212.5t-42 -270.5q0 -150 42 -273.5t123 -215.5t209.5 -142.5t293.5 -50.5zM885 1442q194 0 349 -60.5t257 -169t156.5 -257.5
t54.5 -328q0 -180 -54 -330t-155.5 -260t-257 -171t-350.5 -61q-194 0 -349.5 61.5t-257 171t-155 259.5t-53.5 330q0 179 54 328t155.5 257.5t256.5 169t349 60.5zM883 174q-350 0 -412 289l154 22q26 -97 84.5 -143.5t175.5 -46.5q112 0 167.5 37.5t55.5 105.5
q0 72 -44.5 104.5t-162.5 32.5h-162v109h158q80 0 127 32.5t47 102.5q0 72 -43.5 107t-140.5 35q-104 0 -155.5 -45t-76.5 -140l-143 17q54 290 373 290q334 0 334 -235q0 -165 -209 -207v-16q141 -12 196.5 -58.5t55.5 -142.5q0 -116 -93 -183t-286 -67z" />
    <glyph glyph-name="uni2783" unicode="&#x2783;" horiz-adv-x="1771" 
d="M885 -55q165 0 294 50.5t210.5 142.5t123 215.5t41.5 273.5q0 148 -42.5 270.5t-124.5 212.5t-210 140t-292 50t-292 -50t-210 -140t-124 -212.5t-42 -270.5q0 -150 42 -273.5t123 -215.5t209.5 -142.5t293.5 -50.5zM885 1442q194 0 349 -60.5t257 -169t156.5 -257.5
t54.5 -328q0 -180 -54 -330t-155.5 -260t-257 -171t-350.5 -61q-194 0 -349.5 61.5t-257 171t-155 259.5t-53.5 330q0 179 54 328t155.5 257.5t256.5 169t349 60.5zM1253 399h-139v-209h-151v209h-560v107l527 565h184v-551h139v-121zM881 520h82v420l-13 2l-393 -428l6 -10
q148 16 318 16z" />
    <glyph glyph-name="uni2784" unicode="&#x2784;" horiz-adv-x="1771" 
d="M885 -55q165 0 294 50.5t210.5 142.5t123 215.5t41.5 273.5q0 148 -42.5 270.5t-124.5 212.5t-210 140t-292 50t-292 -50t-210 -140t-124 -212.5t-42 -270.5q0 -150 42 -273.5t123 -215.5t209.5 -142.5t293.5 -50.5zM885 1442q194 0 349 -60.5t257 -169t156.5 -257.5
t54.5 -328q0 -180 -54 -330t-155.5 -260t-257 -171t-350.5 -61q-194 0 -349.5 61.5t-257 171t-155 259.5t-53.5 330q0 179 54 328t155.5 257.5t256.5 169t349 60.5zM895 295q116 0 165.5 41t49.5 123q0 77 -52 115t-165 38q-145 0 -229 -53l-121 43v467h667v-137
q-318 0 -530 14v-293q106 70 260 70q158 0 241 -68.5t83 -195.5q0 -285 -373 -285q-161 0 -260 57.5t-160 178.5l143 47q45 -78 109.5 -120t171.5 -42z" />
    <glyph glyph-name="uni2785" unicode="&#x2785;" horiz-adv-x="1771" 
d="M903 631q-126 0 -192 -47t-66 -117q0 -72 63.5 -119t180.5 -47q121 0 172 45.5t51 128.5q0 156 -209 156zM885 -55q165 0 294 50.5t210.5 142.5t123 215.5t41.5 273.5q0 148 -42.5 270.5t-124.5 212.5t-210 140t-292 50t-292 -50t-210 -140t-124 -212.5t-42 -270.5
q0 -150 42 -273.5t123 -215.5t209.5 -142.5t293.5 -50.5zM885 1442q194 0 349 -60.5t257 -169t156.5 -257.5t54.5 -328q0 -180 -54 -330t-155.5 -260t-257 -171t-350.5 -61q-194 0 -349.5 61.5t-257 171t-155 259.5t-53.5 330q0 179 54 328t155.5 257.5t256.5 169t349 60.5z
M1266 473q0 -141 -97 -219t-284 -78q-94 0 -165 22t-126 71.5t-84 135t-29 205.5q0 104 23 189t71.5 151.5t130 103t191.5 36.5q172 0 250 -70t98 -209l-147 -16q-20 87 -65.5 127.5t-139.5 40.5q-141 0 -204.5 -92t-63.5 -289v-21l18 -4q70 170 313 170q138 0 224 -62
t86 -192z" />
    <glyph glyph-name="uni2786" unicode="&#x2786;" horiz-adv-x="1771" 
d="M885 -55q165 0 294 50.5t210.5 142.5t123 215.5t41.5 273.5q0 148 -42.5 270.5t-124.5 212.5t-210 140t-292 50t-292 -50t-210 -140t-124 -212.5t-42 -270.5q0 -150 42 -273.5t123 -215.5t209.5 -142.5t293.5 -50.5zM885 1442q194 0 349 -60.5t257 -169t156.5 -257.5
t54.5 -328q0 -180 -54 -330t-155.5 -260t-257 -171t-350.5 -61q-194 0 -349.5 61.5t-257 171t-155 259.5t-53.5 330q0 179 54 328t155.5 257.5t256.5 169t349 60.5zM489 934v135h783v-135q-324 -299 -361 -746h-172q15 214 122 411.5t286 350.5q-174 -16 -373 -16h-285z" />
    <glyph glyph-name="uni2787" unicode="&#x2787;" horiz-adv-x="1771" 
d="M883 580q-238 0 -238 -144q0 -141 238 -141q237 0 237 141q0 144 -237 144zM883 965q-201 0 -201 -140q0 -136 201 -143q200 7 200 143q0 140 -200 140zM885 -55q165 0 294 50.5t210.5 142.5t123 215.5t41.5 273.5q0 148 -42.5 270.5t-124.5 212.5t-210 140t-292 50
t-292 -50t-210 -140t-124 -212.5t-42 -270.5q0 -150 42 -273.5t123 -215.5t209.5 -142.5t293.5 -50.5zM885 1442q194 0 349 -60.5t257 -169t156.5 -257.5t54.5 -328q0 -180 -54 -330t-155.5 -260t-257 -171t-350.5 -61q-194 0 -349.5 61.5t-257 171t-155 259.5t-53.5 330
q0 179 54 328t155.5 257.5t256.5 169t349 60.5zM883 174q-204 0 -299 65t-95 181q0 175 261 207v18q-108 21 -163 70.5t-55 134.5q2 113 88 175t263 62q179 0 264.5 -62t85.5 -175q0 -86 -54 -135t-161 -70v-18q258 -32 258 -207q0 -246 -393 -246z" />
    <glyph glyph-name="uni2788" unicode="&#x2788;" horiz-adv-x="1771" 
d="M866 621q121 0 185.5 49t64.5 121q0 74 -61 120.5t-174 46.5t-168.5 -50t-55.5 -128q0 -79 54 -119t155 -40zM885 -55q165 0 294 50.5t210.5 142.5t123 215.5t41.5 273.5q0 148 -42.5 270.5t-124.5 212.5t-210 140t-292 50t-292 -50t-210 -140t-124 -212.5t-42 -270.5
q0 -150 42 -273.5t123 -215.5t209.5 -142.5t293.5 -50.5zM885 1442q194 0 349 -60.5t257 -169t156.5 -257.5t54.5 -328q0 -180 -54 -330t-155.5 -260t-257 -171t-350.5 -61q-194 0 -349.5 61.5t-257 171t-155 259.5t-53.5 330q0 179 54 328t155.5 257.5t256.5 169t349 60.5z
M877 172q-92 0 -160.5 19t-112 55.5t-68.5 84t-36 109.5l147 25q33 -166 234 -166q135 0 196.5 91t61.5 286v16l-17 2q-75 -170 -307 -170q-138 0 -222.5 63t-84.5 195q0 138 97 220.5t276 82.5q93 0 164.5 -22.5t125.5 -72t82.5 -135.5t28.5 -206q0 -104 -22.5 -189
t-69.5 -150.5t-126.5 -101.5t-186.5 -36z" />
    <glyph glyph-name="uni2789" unicode="&#x2789;" horiz-adv-x="1763" 
d="M823 201h-413v114h170v625q-66 -35 -154 -66l-39 107l248 74h67v-740h121v-114zM1112 954q-145 0 -145 -323q0 -332 145 -332q148 0 148 332q0 323 -148 323zM1112 1073q133 0 202.5 -115t69.5 -327q0 -214 -69.5 -330.5t-202.5 -116.5q-132 0 -202 117t-70 330
q0 211 71 326.5t201 115.5zM885 -55q165 0 294 50.5t210.5 142.5t123 215.5t41.5 273.5q0 148 -42.5 270.5t-124.5 212.5t-210 140t-292 50t-292 -50t-210 -140t-124 -212.5t-42 -270.5q0 -150 42 -273.5t123 -215.5t209.5 -142.5t293.5 -50.5zM885 1442q194 0 349 -60.5
t257 -169t156.5 -257.5t54.5 -328q0 -180 -54 -330t-155.5 -260t-257 -171t-350.5 -61q-194 0 -349.5 61.5t-257 171t-155 259.5t-53.5 330q0 179 54 328t155.5 257.5t256.5 169t349 60.5z" />
    <glyph glyph-name="uni278A" unicode="&#x278a;" horiz-adv-x="1771" 
d="M575 317v-129h627v129h-211v752h-84l-354 -108l49 -123q153 54 240 94v-615h-267zM885 1442q194 0 349 -60.5t257 -169t156.5 -257.5t54.5 -328q0 -180 -54 -330t-155.5 -260t-257 -171t-350.5 -61q-194 0 -349.5 61.5t-257 171t-155 259.5t-53.5 330q0 179 54 328
t155.5 257.5t256.5 169t349 60.5z" />
    <glyph glyph-name="uni278B" unicode="&#x278b;" horiz-adv-x="1771" 
d="M897 965q190 0 190 -142q0 -73 -58 -113.5t-228 -88.5q-176 -46 -253 -121.5t-77 -220.5q0 -57 2 -84h778v129h-305q-164 0 -340 -15q7 87 61 128t207 81q180 43 273.5 112t93.5 187q0 137 -88.5 206t-255.5 69q-332 0 -399 -330l147 -21q23 108 82.5 166t169.5 58z
M885 1442q194 0 349 -60.5t257 -169t156.5 -257.5t54.5 -328q0 -180 -54 -330t-155.5 -260t-257 -171t-350.5 -61q-194 0 -349.5 61.5t-257 171t-155 259.5t-53.5 330q0 179 54 328t155.5 257.5t256.5 169t349 60.5z" />
    <glyph glyph-name="uni278C" unicode="&#x278c;" horiz-adv-x="1771" 
d="M883 174q194 0 286.5 66t92.5 184q0 96 -55.5 142.5t-196.5 56.5v18q104 21 156.5 71t52.5 136q0 235 -332 235q-321 0 -375 -290l143 -17q25 94 77 139.5t155 45.5q97 0 140.5 -35t43.5 -107q0 -135 -174 -135h-158v-111h162q119 0 163 -31.5t44 -103.5
q0 -145 -223 -145q-117 0 -175.5 47.5t-84.5 144.5l-154 -22q62 -289 412 -289zM885 1442q194 0 349 -60.5t257 -169t156.5 -257.5t54.5 -328q0 -180 -54 -330t-155.5 -260t-257 -171t-350.5 -61q-194 0 -349.5 61.5t-257 171t-155 259.5t-53.5 330q0 179 54 328
t155.5 257.5t256.5 169t349 60.5z" />
    <glyph glyph-name="uni278D" unicode="&#x278d;" horiz-adv-x="1771" 
d="M1253 399v121h-139v551h-184l-527 -565v-107h560v-209h151v209h139zM854 520q-97 0 -289 -16l-10 14l395 424l13 -4v-418h-109zM885 1442q194 0 349 -60.5t257 -169t156.5 -257.5t54.5 -328q0 -180 -54 -330t-155.5 -260t-257 -171t-350.5 -61q-194 0 -349.5 61.5
t-257 171t-155 259.5t-53.5 330q0 179 54 328t155.5 257.5t256.5 169t349 60.5z" />
    <glyph glyph-name="uni278E" unicode="&#x278e;" horiz-adv-x="1771" 
d="M895 295q-74 0 -129.5 22.5t-88.5 56t-61 83.5l-143 -47q60 -121 158.5 -178.5t259.5 -57.5q373 0 373 285q0 127 -83 195.5t-241 68.5q-148 0 -260 -70v293q215 -14 532 -14v137h-669v-467l121 -43q87 55 229 55q114 0 165.5 -38t51.5 -117q0 -80 -50 -122t-165 -42z
M885 1442q194 0 349 -60.5t257 -169t156.5 -257.5t54.5 -328q0 -180 -54 -330t-155.5 -260t-257 -171t-350.5 -61q-194 0 -349.5 61.5t-257 171t-155 259.5t-53.5 330q0 179 54 328t155.5 257.5t256.5 169t349 60.5z" />
    <glyph glyph-name="uni278F" unicode="&#x278f;" horiz-adv-x="1771" 
d="M1266 473q0 130 -86 191t-226 61q-247 0 -309 -168l-22 2q1 216 64 310t206 94q94 0 139.5 -40.5t65.5 -127.5l147 16q-11 68 -32.5 116.5t-61.5 85.5t-103.5 55.5t-152.5 18.5q-109 0 -190.5 -36t-130 -101.5t-72 -150.5t-23.5 -189q0 -120 29 -205.5t84.5 -135
t127 -71.5t165.5 -22q186 0 283.5 78.5t97.5 218.5zM903 629q209 0 209 -154q0 -83 -51 -128.5t-172 -45.5q-118 0 -181 46.5t-63 119.5q0 69 65.5 115.5t192.5 46.5zM885 1442q194 0 349 -60.5t257 -169t156.5 -257.5t54.5 -328q0 -180 -54 -330t-155.5 -260t-257 -171
t-350.5 -61q-194 0 -349.5 61.5t-257 171t-155 259.5t-53.5 330q0 179 54 328t155.5 257.5t256.5 169t349 60.5z" />
    <glyph glyph-name="uni2790" unicode="&#x2790;" horiz-adv-x="1771" 
d="M489 934h283q194 0 373 14q-177 -153 -284 -350.5t-122 -409.5h172q32 440 361 746v135h-783v-135zM885 1442q194 0 349 -60.5t257 -169t156.5 -257.5t54.5 -328q0 -180 -54 -330t-155.5 -260t-257 -171t-350.5 -61q-194 0 -349.5 61.5t-257 171t-155 259.5t-53.5 330
q0 179 54 328t155.5 257.5t256.5 169t349 60.5z" />
    <glyph glyph-name="uni2791" unicode="&#x2791;" horiz-adv-x="1771" 
d="M883 174q393 0 393 246q0 173 -258 207v16q107 21 161 71t54 136q0 235 -350 235q-348 0 -348 -235q-3 -165 215 -207v-16q-137 -18 -197.5 -70.5t-60.5 -136.5q0 -246 391 -246zM883 963q200 0 200 -138q0 -140 -200 -143q-201 3 -201 143q0 138 201 138zM883 578
q239 0 239 -142q0 -141 -239 -141q-238 0 -238 141q0 142 238 142zM885 1442q194 0 349 -60.5t257 -169t156.5 -257.5t54.5 -328q0 -180 -54 -330t-155.5 -260t-257 -171t-350.5 -61q-194 0 -349.5 61.5t-257 171t-155 259.5t-53.5 330q0 179 54 328t155.5 257.5t256.5 169
t349 60.5z" />
    <glyph glyph-name="uni2792" unicode="&#x2792;" horiz-adv-x="1771" 
d="M1282 651q0 120 -28.5 205.5t-83 135t-126 71.5t-165.5 22q-178 0 -275.5 -81.5t-97.5 -219.5q0 -133 85 -196.5t222 -63.5q231 0 307 172l19 -2q-2 -210 -61.5 -302.5t-198.5 -92.5q-203 0 -232 166l-147 -25q11 -62 35.5 -109t68 -83t112.5 -55t161 -19q107 0 186.5 36
t126.5 101.5t69.5 150.5t22.5 189zM866 621q-101 0 -155 40t-54 119t55 128.5t169 49.5q113 0 174 -46.5t61 -118.5q0 -74 -64.5 -123t-185.5 -49zM885 1442q194 0 349 -60.5t257 -169t156.5 -257.5t54.5 -328q0 -180 -54 -330t-155.5 -260t-257 -171t-350.5 -61
q-194 0 -349.5 61.5t-257 171t-155 259.5t-53.5 330q0 179 54 328t155.5 257.5t256.5 169t349 60.5z" />
    <glyph glyph-name="uni2793" unicode="&#x2793;" horiz-adv-x="1763" 
d="M1114 1073q-131 0 -201.5 -115t-70.5 -327q0 -213 70 -330t202 -117t202 117t70 330q0 212 -70.5 327t-201.5 115zM403 315v-114h412v114h-119v740h-67l-250 -74l41 -107q94 33 153 62v-621h-170zM1114 954q146 0 146 -323q0 -332 -148 -332q-145 0 -145 332
q0 323 147 323zM885 1442q194 0 349 -60.5t257 -169t156.5 -257.5t54.5 -328q0 -180 -54 -330t-155.5 -260t-257 -171t-350.5 -61q-194 0 -349.5 61.5t-257 171t-155 259.5t-53.5 330q0 179 54 328t155.5 257.5t256.5 169t349 60.5z" />
    <glyph glyph-name="uni279A" unicode="&#x279a;" horiz-adv-x="1843" 
d="M1311 733v-733h-1073v1073h747v-6l-127 -131q-216 0 -489 10q12 -258 12 -385q0 -144 -12 -430q290 12 430 12q125 0 387 -12q-12 304 -12 455l133 147h4zM1602 1380l34 -34v-766h-147q13 348 49 610l-14 6q-245 -275 -578 -608l-252 -250l-102 102l252 252
q311 311 610 574l-6 12q-186 -30 -588 -45v147h742z" />
    <glyph glyph-name="uni2B1B" unicode="&#x2b1b;" horiz-adv-x="1843" 
d="M1489 0h-1133v1133h1133v-1133z" />
    <glyph glyph-name="uni2B1C" unicode="&#x2b1c;" horiz-adv-x="1843" 
d="M1489 0h-1133v1133h1133v-1133zM496 567q0 -121 -13 -440q300 12 441 12q140 0 440 -12q-14 257 -14 440q0 182 14 439q-275 -11 -440 -11q-166 0 -441 11q13 -314 13 -439z" />
    <glyph glyph-name="commaaccent" unicode="&#xf6c3;" horiz-adv-x="360" 
d="M35 -113h149l-176 -309h-117l5 16z" />
    <glyph glyph-name="uniF8FF" unicode="&#xf8ff;" horiz-adv-x="2635" 
d="M1942 16q-13 -30 -123 -30l-50 2q9 212 13 508.5t8 406.5q-52 -160 -110.5 -387t-93.5 -364.5t-48 -147.5q-14 -12 -43 -12q-13 0 -50.5 5t-64.5 7q4 127 4 420q-63 2 -190 2q2 -51 2 -164q0 -244 -20 -256q-12 -10 -54 -10q-22 0 -59 3t-45 3h-6q14 232 14 422
q-30 0 -84 -1t-78 -1v-92q0 -57 1 -146.5t1 -111.5q0 -37 -2 -41q-10 -26 -39 -33.5t-123 -9.5q-2 59 -2 162q0 71 5 266q-114 -4 -132 -4q-54 -92 -120 -214.5t-95 -193.5q-14 4 -45 4q-20 0 -41.5 -2.5t-33.5 -5.5l-11 -2q-5 51 -32 102q-8 16 -98 156t-95 160
q-4 16 -4 24q0 34 27 90q-11 22 -11 50q0 35 17 98q12 38 47.5 121.5t93 213t92.5 212.5q68 0 144 20q90 -231 180 -667q10 -1 121 -5v25q0 41 -1 160t-1 182q0 239 16 262q16 29 147 31q-6 -123 -6 -236q0 -70 2 -191t2 -171v-64q25 0 78 -1t80 -1q0 183 -3 357.5t-3 185.5
q0 52 4 69.5t16 26.5q16 13 78 13h64q0 -27 -1 -78.5t-1 -75.5q0 -168 10 -496q114 3 194 9q0 53 -1 149.5t-1 138.5q0 321 17 344q20 29 86 29q14 0 40.5 -2t35.5 -2q-17 -121 -17 -541v-164q203 673 250 697q16 8 61 8l95 -6q-6 -147 -6 -350q0 -132 3 -370.5t3 -315.5
q0 -166 -8 -179zM2359 948q-24 -71 -68.5 -181t-71 -181.5t-26.5 -96.5v-4q2 -29 70 -141.5t80 -140.5q29 68 59 143t45 116l15 40q-23 127 -60.5 273.5t-42.5 172.5zM143 520q0 -16 24.5 -60.5t64.5 -116t65 -128.5q24 63 58 136.5t52.5 115.5t18.5 61v4q-1 23 -36 178.5
t-60 252.5q-187 -404 -187 -443zM2292 1245q24 -12 57 -12q40 0 61 24q149 -474 226 -763q-187 -488 -246 -500q-6 -2 -18 -2q-46 0 -136 37q-1 35 -23 87.5t-45 91t-58.5 94.5t-43.5 69q-22 40 -22 61q0 12 4.5 21.5t12.5 18.5t10 13q6 9 6 21q0 28 -35 37q187 458 250 702
z" />
    <glyph glyph-name="fi" unicode="&#xfb01;" horiz-adv-x="1173" 
d="M483 1014l-10 -58h291l-25 -147h-293l-141 -809h-178l141 809h-170l25 147h172l10 62q27 152 119.5 237.5t251.5 85.5q84 0 162 -16l-33 -133q-86 12 -123 12q-86 0 -133.5 -47t-65.5 -143zM946 0h-178l168 956h178zM1159 1141h-203l29 162h203z" />
    <glyph glyph-name="fl" unicode="&#xfb02;" horiz-adv-x="1157" 
d="M483 1014l-10 -58h291l-25 -147h-293l-141 -809h-178l141 809h-170l25 147h172l10 62q27 152 119.5 237.5t251.5 85.5q84 0 162 -16l-33 -133q-86 12 -123 12q-86 0 -133.5 -47t-65.5 -143zM1167 1315l-231 -1315h-176l231 1315h176z" />
    <glyph glyph-name="exclamdown.case" horiz-adv-x="489" 
d="M195 791h180l-139 -791h-181zM434 1010h-223l39 219h223z" />
    <glyph glyph-name="questiondown.case" horiz-adv-x="997" 
d="M348 666q122 50 141 157q5 15 5 21h172q0 -11 -4 -31q-17 -93 -68.5 -153t-157.5 -109q-120 -53 -166 -93t-59 -114q-18 -97 38.5 -153t180.5 -56q136 0 219.5 83.5t132.5 240.5l172 -33q-135 -449 -538 -449q-213 0 -316 100.5t-73 272.5q12 66 41 117t75.5 88t93 61.5
t111.5 49.5zM721 1010h-221l39 219h221z" />
    <glyph glyph-name="periodcentered.case" horiz-adv-x="428" 
d="M139 731h223l-38 -219h-224z" />
    <glyph glyph-name="bullet.case" horiz-adv-x="550" 
d="M164 793h342l-60 -334h-342z" />
    <glyph glyph-name="guillemotleft.case" horiz-adv-x="1273" 
d="M637 172h-170l-420 440l6 37l565 441h181l-4 -27l-557 -434l-2 -8l405 -426zM1143 172h-170l-420 440l6 37l565 441h181l-5 -27l-557 -434l-2 -8l406 -426z" />
    <glyph glyph-name="guillemotright.case" horiz-adv-x="1273" 
d="M664 160h-183l6 26l557 435l3 8l-408 426l6 24h170l420 -442l-6 -37zM158 160h-181l5 26l557 435l2 8l-406 426l4 24h170l420 -442l-6 -37z" />
    <glyph glyph-name="guilsinglleft.case" horiz-adv-x="774" 
d="M637 172h-170l-420 440l6 37l565 441h181l-4 -27l-557 -434l-2 -8l405 -426z" />
    <glyph glyph-name="guilsinglright.case" horiz-adv-x="768" 
d="M174 160h-180l4 28l557 435l2 10l-405 424l4 22h170l422 -440l-9 -37z" />
    <glyph glyph-name="hyphen.case" horiz-adv-x="716" 
d="M76 707h629l-29 -170h-629z" />
    <glyph glyph-name="endash.case" horiz-adv-x="974" 
d="M78 707h887l-29 -164h-887z" />
    <glyph glyph-name="emdash.case" horiz-adv-x="1761" 
d="M78 707h1673l-29 -164h-1673z" />
    <glyph glyph-name="parenleft.case" horiz-adv-x="679" 
d="M147 653q40 233 162.5 428.5t349.5 378.5l95 -100q-192 -174 -292 -349.5t-136 -383.5q-25 -143 -21 -271.5t48.5 -254.5t131.5 -246l-125 -91q-157 184 -207.5 412.5t-5.5 476.5z" />
    <glyph glyph-name="parenright.case" horiz-adv-x="677" 
d="M553 584q-42 -234 -164 -429t-348 -378l-96 100q193 174 293.5 349t136.5 384q25 143 21 271.5t-49 254.5t-132 246l125 91q157 -183 206.5 -411t6.5 -478z" />
    <glyph glyph-name="bracketleft.case" horiz-adv-x="602" 
d="M14 -168l277 1567h424l-27 -152h-244l-221 -1257h244l-29 -158h-424z" />
    <glyph glyph-name="bracketright.case" horiz-adv-x="602" 
d="M-59 -160l26 152h244l221 1257h-244l29 158h424l-276 -1567h-424z" />
    <glyph glyph-name="braceleft.case" horiz-adv-x="747" 
d="M569 -219q-117 -6 -147 -6q-162 0 -233.5 62t-53.5 169q9 47 35 92t58.5 81t65 70.5t57.5 73t32 76.5q12 69 -33.5 102.5t-156.5 33.5h-142l27 155h141q98 0 165.5 37t80.5 111q7 38 -4 78t-30 76t-38 74t-29 83.5t-2 91.5q18 99 107 153t248 54q34 0 151 -6l-26 -152
q-86 4 -113 4q-90 0 -134.5 -27.5t-55.5 -84.5q-7 -39 7 -85.5t34 -84t32.5 -90t3.5 -101.5q-15 -86 -89 -133t-212 -65l-2 -19q139 -13 193 -63t39 -142q-9 -50 -42 -102.5t-67.5 -89t-65.5 -81.5t-38 -83q-9 -57 26 -86t123 -29q31 0 113 4z" />
    <glyph glyph-name="braceright.case" horiz-adv-x="747" 
d="M221 1458q117 6 150 6q161 0 232 -62.5t52 -168.5q-8 -47 -34 -92t-58.5 -81t-65 -70.5t-57.5 -73.5t-32 -76q-11 -68 35 -101.5t157 -33.5h141l-28 -156h-140q-99 0 -165.5 -36.5t-79.5 -111.5q-7 -38 3.5 -78t30 -76t38 -74t28.5 -83.5t2 -91.5q-18 -99 -107 -153
t-247 -54q-31 0 -154 6l29 152q82 -4 112 -4q171 0 189 112q7 39 -7 85.5t-34 84t-32.5 90t-4.5 101.5q15 86 90 133t213 65l2 19q-139 13 -192.5 63t-38.5 142q9 49 42 101t67 89t65 82.5t37 83.5q11 57 -24.5 86t-125.5 29q-26 0 -112 -4z" />
    <glyph glyph-name="zero.osf" horiz-adv-x="1161" 
d="M657 940q-160 0 -257.5 -104.5t-129.5 -284.5q-35 -196 30 -307t235 -111q160 0 256.5 103.5t130.5 289.5q33 190 -33 302t-232 112zM668 1100q256 0 371.5 -159t64.5 -439q-43 -247 -194.5 -387t-385.5 -140q-258 0 -372 159.5t-66 438.5q43 248 197 387.5t385 139.5z
" />
    <glyph glyph-name="one.osf" horiz-adv-x="946" 
d="M797 0h-793l27 154h342l137 776q-95 -52 -338 -142l-39 146l467 143h117l-164 -923h270z" />
    <glyph glyph-name="two.osf" horiz-adv-x="1150" 
d="M684 946q-140 0 -225 -77t-129 -232l-168 25q115 436 540 436q216 0 320 -98.5t72 -272.5q-22 -125 -137 -193.5t-369 -130.5q-226 -56 -307.5 -108t-102.5 -158q194 23 494 23h334l-27 -160h-975q4 35 16 109q15 87 50.5 149.5t98.5 108.5t142.5 78t198.5 63
q158 42 240 75t117 68.5t44 89.5q18 94 -39.5 149.5t-187.5 55.5z" />
    <glyph glyph-name="three.osf" horiz-adv-x="1150" 
d="M539 -168q-249 0 -369 103.5t-123 308.5l180 22q3 -140 79 -211t239 -71q136 0 217 54.5t98 154.5q20 109 -31 158.5t-208 49.5h-209l24 138h203q106 0 177.5 46t90.5 146q20 110 -35 163.5t-186 53.5t-208.5 -64t-125.5 -194l-168 27q123 385 521 385q217 0 313 -94
t65 -269q-35 -208 -307 -256l-4 -22q173 -20 231.5 -90.5t34.5 -206.5q-27 -158 -151 -245t-348 -87z" />
    <glyph glyph-name="four.osf" horiz-adv-x="1181" 
d="M1110 145h-182l-54 -297h-180l51 297h-727l25 138l829 794h220l-138 -782h183zM606 295h166l109 612l-13 6l-643 -622l6 -17q197 21 375 21z" />
    <glyph glyph-name="five.osf" horiz-adv-x="1167" 
d="M553 -20q274 0 309 225q42 250 -250 250q-86 0 -168 -23t-137 -59l-141 57l115 647h852l-31 -170q-348 0 -684 21l-76 -428q147 90 326 90q217 0 311.5 -107.5t62.5 -296.5q-60 -358 -495 -358q-211 0 -342 87t-172 257l176 47q31 -113 115.5 -176t228.5 -63z" />
    <glyph glyph-name="six.osf" horiz-adv-x="1163" 
d="M635 625q-163 0 -257 -63.5t-110 -162.5q-20 -110 54.5 -188t226.5 -78q286 0 330 238q20 122 -42 188t-202 66zM1059 352q-31 -179 -163.5 -277t-344.5 -98q-562 0 -445 676q24 133 70.5 240t119.5 188.5t179 125.5t238 44q211 0 311 -103t102 -284l-182 -18
q-6 123 -64 185.5t-182 62.5q-181 0 -283 -124t-149 -397q-1 -6 -7 -36.5t-9 -51.5l20 -2q120 265 437 265q88 0 158 -23t121 -69.5t71 -124.5t2 -179z" />
    <glyph glyph-name="seven.osf" horiz-adv-x="1069" 
d="M131 909l29 168h1007l-30 -168q-508 -437 -660 -1061h-217q75 302 264 584t459 496q-245 -19 -428 -19h-424z" />
    <glyph glyph-name="eight.osf" horiz-adv-x="1161" 
d="M518 -23q-270 0 -382 96.5t-83 264.5q38 229 379 272l4 25q-267 65 -219 311q27 145 145 225t334 80q235 0 336 -94t72 -262q-35 -206 -324 -262l-4 -25q169 -24 234.5 -106.5t42.5 -206.5q-54 -318 -535 -318zM592 551q-316 0 -352 -207q-19 -102 53 -157.5t235 -55.5
q310 0 346 201q4 34 3 65.5t-19.5 59.5t-49 49t-86 33t-130.5 12zM682 1096q-260 0 -297 -203q-19 -108 43.5 -159.5t187.5 -53.5q126 2 207.5 52.5t100.5 156.5q18 100 -40 153.5t-202 53.5z" />
    <glyph glyph-name="nine.osf" horiz-adv-x="1157" 
d="M559 451q159 0 257 67t114 164q21 115 -54 190.5t-231 75.5q-146 0 -226 -65t-100 -174q-23 -128 40.5 -193t199.5 -65zM481 -170q-116 0 -201 25.5t-136 74.5t-76.5 114t-30.5 151l176 32q8 -121 72.5 -180t203.5 -59q182 0 287.5 129t153.5 401q2 8 5.5 31t6.5 39
l-22 2q-122 -262 -433 -262q-86 0 -156 24t-119.5 71.5t-69 126t-1.5 179.5q32 175 162.5 275t349.5 100q102 0 181.5 -21.5t141.5 -68.5t94.5 -123t41.5 -185t-18 -253q-111 -623 -613 -623z" />
    <glyph glyph-name="zero.tf" horiz-adv-x="1222" 
d="M715 1090q-166 0 -271 -124t-143 -343q-40 -225 22.5 -354.5t231.5 -129.5q168 0 273 126t143 347q39 225 -23.5 351.5t-232.5 126.5zM727 1253q256 0 368 -178.5t58 -488.5q-50 -285 -209.5 -448t-400.5 -163q-171 0 -279 82.5t-144.5 233t-0.5 354.5
q51 285 211.5 446.5t396.5 161.5z" />
    <glyph glyph-name="one.tf" horiz-adv-x="1249" 
d="M1028 0h-979l29 162h442l158 899q-162 -84 -426 -176l-43 159l577 185h103l-189 -1067h357z" />
    <glyph glyph-name="two.tf" horiz-adv-x="1249" 
d="M762 1096q-142 0 -233.5 -85.5t-143.5 -258.5l-172 32q68 226 203.5 346.5t357.5 120.5q221 0 325 -106.5t72 -296.5q-11 -65 -43.5 -118.5t-78 -93t-113 -73.5t-139 -58.5t-166.5 -49.5q-214 -61 -295.5 -122.5t-110.5 -189.5q226 19 410 19h432l-29 -162h-999
q3 17 8 52.5t8 53.5q18 105 55.5 181t102 132t147.5 94.5t205 72.5q156 43 241.5 81t128.5 84t56 115q18 103 -39 166.5t-190 63.5z" />
    <glyph glyph-name="three.tf" horiz-adv-x="1249" 
d="M594 -20q-249 0 -369 103t-123 308l181 23q3 -141 78.5 -212t238.5 -71q136 0 217 54.5t98 154.5q20 109 -31 159t-208 50h-209l25 137h202q106 0 178 46.5t91 146.5q20 110 -35.5 163.5t-186.5 53.5t-208 -64t-125 -194l-168 26q123 385 520 385q217 0 313.5 -94
t65.5 -268q-35 -207 -308 -256l-4 -23q173 -20 232 -91t35 -206q-27 -157 -151.5 -244t-348.5 -87z" />
    <glyph glyph-name="four.tf" horiz-adv-x="1200" 
d="M1114 297h-182l-53 -297h-181l52 297h-727l24 137l830 795h219l-138 -783h183zM610 446h166l109 613l-13 6l-643 -623l7 -16q187 20 374 20z" />
    <glyph glyph-name="five.tf" horiz-adv-x="1249" 
d="M594 131q274 0 309 225q42 250 -250 250q-86 0 -168 -23t-137 -59l-141 58l115 647h852l-31 -170q-364 0 -684 20l-76 -428q147 90 326 90q217 0 311 -107t63 -296q-60 -358 -495 -358q-211 0 -342 87t-172 257l176 47q31 -113 116 -176.5t228 -63.5z" />
    <glyph glyph-name="six.tf" horiz-adv-x="1249" 
d="M678 625q-163 0 -257 -63.5t-110 -162.5q-20 -110 54.5 -188t226.5 -78q286 0 330 238q20 122 -42 188t-202 66zM1102 352q-31 -179 -163.5 -277t-344.5 -98q-561 0 -444 676q24 134 70.5 240.5t119 188t178.5 125.5t238 44q211 0 311 -103t102 -284l-182 -18
q-6 123 -64 185.5t-182 62.5q-181 0 -283 -124t-149 -397q-1 -6 -7 -36.5t-9 -51.5l20 -2q120 265 437 265q88 0 158 -23t121 -69.5t71 -124.5t2 -179z" />
    <glyph glyph-name="seven.tf" horiz-adv-x="1249" 
d="M225 1061l29 168h1008l-31 -168q-508 -437 -660 -1061h-217q75 302 264 583.5t459 495.5q-232 -18 -428 -18h-424z" />
    <glyph glyph-name="eight.tf" horiz-adv-x="1249" 
d="M561 -23q-270 0 -382 96.5t-83 264.5q38 229 379 272l4 25q-267 65 -219 311q27 145 145 225t334 80q235 0 336 -94t72 -262q-35 -206 -324 -262l-4 -25q169 -24 234.5 -106.5t42.5 -206.5q-54 -318 -535 -318zM635 551q-316 0 -352 -207q-19 -102 53 -157.5t235 -55.5
q311 0 347 201q11 42 0.5 81t-37.5 70t-90 49.5t-156 18.5zM725 1096q-260 0 -297 -203q-19 -108 43.5 -159.5t187.5 -53.5q126 2 207.5 52.5t100.5 156.5q18 100 -40 153.5t-202 53.5z" />
    <glyph glyph-name="nine.tf" horiz-adv-x="1249" 
d="M604 598q159 0 257 67t114 164q21 115 -54 191t-231 76q-146 0 -225.5 -65.5t-99.5 -174.5q-23 -128 40 -193t199 -65zM526 -23q-116 0 -201 25.5t-136 74.5t-76.5 114t-30.5 151l176 33q8 -121 73 -180.5t204 -59.5q181 0 286.5 129t153.5 402q2 8 5.5 30.5t6.5 38.5
l-22 2q-122 -262 -433 -262q-86 0 -156 24t-119.5 71.5t-69 126.5t-1.5 180q32 175 162.5 274.5t349.5 99.5q102 0 181.5 -21.5t141.5 -68.5t94.5 -123t41.5 -185t-18 -253q-111 -623 -613 -623z" />
    <glyph glyph-name="zero.tosf" horiz-adv-x="1241" 
d="M692 940q-160 0 -257.5 -104.5t-129.5 -284.5q-35 -196 29.5 -307t234.5 -111q160 0 256.5 103.5t130.5 289.5q33 190 -32.5 302t-231.5 112zM702 1100q256 0 372 -159t65 -439q-43 -247 -194.5 -387t-385.5 -140q-258 0 -372 159.5t-66 438.5q43 248 196.5 387.5
t384.5 139.5z" />
    <glyph glyph-name="one.tosf" horiz-adv-x="1249" 
d="M1028 0h-979l29 154h448l136 774q-167 -87 -441 -170l-33 155l564 164h116l-161 -923h348z" />
    <glyph glyph-name="two.tosf" horiz-adv-x="1249" 
d="M733 946q-140 0 -225 -77t-129 -232l-168 25q115 436 541 436q216 0 319.5 -98t71.5 -273q-22 -125 -137 -193.5t-369 -130.5q-226 -56 -307.5 -108t-102.5 -158q194 23 494 23h334l-27 -160h-975q2 14 17 109q15 87 50 149.5t98 108.5t142.5 78t198.5 63q158 42 240 75
t117.5 68.5t44.5 89.5q18 94 -40 149.5t-188 55.5z" />
    <glyph glyph-name="three.tosf" horiz-adv-x="1249" 
d="M594 -168q-249 0 -369 103.5t-123 308.5l181 22q3 -140 78.5 -211t238.5 -71q136 0 217 54.5t98 154.5q20 109 -31 158.5t-208 49.5h-209l25 138h202q106 0 178 46t91 146q20 110 -35.5 163.5t-186.5 53.5t-208 -64t-125 -194l-168 27q123 385 520 385q217 0 313.5 -94
t65.5 -269q-35 -207 -308 -256l-4 -22q173 -20 232 -91t35 -206q-27 -157 -151.5 -244.5t-348.5 -87.5z" />
    <glyph glyph-name="four.tosf" horiz-adv-x="1249" 
d="M1118 145h-182l-53 -297h-181l52 297h-727l24 138l830 794h219l-137 -782h182zM614 295h166l109 612l-12 6l-644 -622l7 -17q196 21 374 21z" />
    <glyph glyph-name="five.tosf" horiz-adv-x="1249" 
d="M588 -20q274 0 309 225q42 250 -250 250q-86 0 -168 -23t-137 -59l-141 57l114 647h852l-30 -170q-348 0 -684 21l-76 -428q147 90 325 90q217 0 311.5 -107.5t63.5 -296.5q-60 -358 -495 -358q-211 0 -342 87t-172 257l176 47q31 -113 115.5 -176t228.5 -63z" />
    <glyph glyph-name="six.tosf" horiz-adv-x="1249" 
d="M678 625q-163 0 -257 -63.5t-110 -162.5q-20 -110 54.5 -188t226.5 -78q286 0 330 238q20 122 -42 188t-202 66zM1102 352q-31 -179 -163.5 -277t-344.5 -98q-561 0 -444 676q24 134 70.5 240.5t119 188t178.5 125.5t238 44q211 0 311 -103t102 -284l-182 -18
q-6 123 -64 185.5t-182 62.5q-181 0 -283 -124t-149 -397q-1 -6 -7 -36.5t-9 -51.5l20 -2q120 265 437 265q88 0 158 -23t121 -69.5t71 -124.5t2 -179z" />
    <glyph glyph-name="seven.tosf" horiz-adv-x="1249" 
d="M219 909l29 168h1007l-30 -168q-508 -437 -660 -1061h-217q75 302 264 584t459 496q-245 -19 -428 -19h-424z" />
    <glyph glyph-name="eight.tosf" horiz-adv-x="1249" 
d="M561 -23q-270 0 -382 96.5t-83 264.5q38 229 379 272l4 25q-267 65 -219 311q27 145 145 225t334 80q235 0 336 -94t72 -262q-35 -206 -324 -262l-4 -25q169 -24 234.5 -106.5t42.5 -206.5q-54 -318 -535 -318zM635 551q-316 0 -352 -207q-19 -102 53 -157.5t235 -55.5
q311 0 347 201q11 42 0.5 81t-37.5 70t-90 49.5t-156 18.5zM725 1096q-260 0 -297 -203q-19 -108 43.5 -159.5t187.5 -53.5q126 2 207.5 52.5t100.5 156.5q18 100 -40 153.5t-202 53.5z" />
    <glyph glyph-name="nine.tosf" horiz-adv-x="1249" 
d="M594 451q159 0 257 67t114 164q21 115 -54 190.5t-231 75.5q-146 0 -226 -65t-100 -174q-23 -128 40.5 -193t199.5 -65zM516 -170q-116 0 -201 25.5t-136 74.5t-76.5 114t-30.5 151l176 32q8 -121 72.5 -180t203.5 -59q182 0 287.5 129t153.5 401q2 8 5.5 31t6.5 39
l-23 2q-122 -262 -432 -262q-86 0 -156 24t-119.5 71.5t-69 126t-1.5 179.5q32 175 162.5 275t349.5 100q85 0 153.5 -14.5t126.5 -47t96 -83t61 -123t22.5 -167.5t-19.5 -216q-111 -623 -612 -623z" />
    <glyph glyph-name="dollar.osf" horiz-adv-x="1026" 
d="M608 1319h133l-53 -246q148 -19 217 -96.5t80 -202.5l-180 -31q-9 102 -63 150.5t-167 48.5q-199 0 -223 -131q-13 -73 37.5 -120t198.5 -75q211 -41 287.5 -129.5t50.5 -228.5q-21 -122 -128 -192.5t-302 -73.5l-33 -246h-133l53 252q-177 21 -262 110t-90 230l178 29
q17 -234 287 -234q218 0 243 139q15 83 -39 126.5t-206 72.5q-198 38 -273.5 125t-52.5 223q22 120 126.5 188.5t280.5 71.5z" />
    <glyph glyph-name="sterling.osf" horiz-adv-x="1110" 
d="M952 0h-966l26 158h203q37 83 53 180q6 29 6 88h-211l19 109h182q-21 161 -2 262q24 135 129.5 218t278.5 83q82 0 145.5 -19t103.5 -50t67 -76t39 -90.5t17 -100.5l-170 -31q-11 110 -57.5 161.5t-155.5 51.5q-103 0 -159.5 -53.5t-69.5 -136.5q-13 -73 0 -219h471
l-18 -109h-447q3 -26 -4 -66q-21 -109 -86 -202h633z" />
    <glyph glyph-name="Euro.osf" horiz-adv-x="1210" 
d="M600 -25q-201 0 -312 108.5t-120 303.5h-148l17 90h133q2 34 14 113q1 3 2 10t2 10h-129l17 90h135q61 190 198 295t334 105q208 0 316.5 -110t111.5 -300l-167 -26q-6 143 -74.5 214.5t-204.5 71.5q-254 0 -344 -250h344l-16 -90h-353q-7 -26 -10 -47q-9 -47 -12 -86
h350l-16 -90h-336q13 -264 276 -264q140 0 221.5 72t139.5 227l159 -35q-135 -412 -528 -412z" />
    <glyph glyph-name="yen.osf" horiz-adv-x="1169" 
d="M1057 283h-412l-49 -283h-188l49 283h-414l18 108h394l-78 164h-287l21 111h213l-183 383l4 22h199l225 -573h33l424 573h207l-4 -22l-316 -383h211l-18 -111h-283l-135 -164h389z" />
    <glyph glyph-name="a.sc" horiz-adv-x="1114" 
d="M840 0l-60 291h-510l-161 -291h-195l627 1077h243l246 -1077h-190zM420 561l-74 -133h406l-27 133q-38 188 -59 361h-54q-98 -195 -192 -361z" />
    <glyph glyph-name="b.sc" horiz-adv-x="1083" 
d="M612 471h-303l-59 -332h323q107 0 168.5 41t73.5 113q16 90 -30.5 134t-172.5 44zM676 936h-285l-59 -334h276q213 0 240 166q14 85 -27 126.5t-145 41.5zM43 0l190 1077h463q193 0 274 -76.5t56 -220.5q-33 -183 -268 -229l-2 -16q140 -17 198 -84t35 -189
q-21 -123 -126 -192.5t-300 -69.5h-520z" />
    <glyph glyph-name="c.sc" horiz-adv-x="1183" 
d="M541 -23q-265 0 -387 164t-72 445q43 242 201.5 378t406.5 136q221 0 337.5 -110.5t121.5 -299.5l-178 -28q-8 139 -78.5 209.5t-216.5 70.5q-178 0 -282 -102.5t-136 -280.5q-35 -200 38.5 -312t254.5 -112q151 0 239.5 71.5t147.5 219.5l168 -33q-62 -203 -204 -309.5
t-361 -106.5z" />
    <glyph glyph-name="d.sc" horiz-adv-x="1202" 
d="M629 926h-240l-137 -774h252q208 0 320 92.5t145 281.5q35 207 -45.5 303.5t-294.5 96.5zM43 0l190 1077h429q289 0 411 -149t74 -424q-43 -240 -209 -372t-426 -132h-469z" />
    <glyph glyph-name="e.sc" horiz-adv-x="1017" 
d="M43 0l190 1077h795l-27 -155h-612l-55 -306h553l-25 -137h-553l-55 -321h612l-28 -158h-795z" />
    <glyph glyph-name="f.sc" horiz-adv-x="952" 
d="M817 414h-518l-74 -414h-182l190 1077h762l-30 -164h-578l-61 -346h518z" />
    <glyph glyph-name="g.sc" horiz-adv-x="1216" 
d="M473 -18q-225 0 -335.5 157t-61.5 432q45 253 200.5 391t409.5 138q223 0 335.5 -101.5t125.5 -281.5l-176 -31q-9 130 -80 193t-213 63q-187 0 -288 -98.5t-134 -290.5q-34 -194 39 -308t260 -114q94 0 165.5 22.5t114.5 63t67 86.5t34 103v-7l4 25h-342l23 135h514
l-99 -559h-168l43 244h-18q-61 -119 -165.5 -190.5t-254.5 -71.5z" />
    <glyph glyph-name="h.sc" horiz-adv-x="1212" 
d="M1001 0h-182l80 457h-594l-80 -457h-182l190 1077h183l-82 -459h594l80 459h184z" />
    <glyph glyph-name="i.sc" horiz-adv-x="438" 
d="M225 0h-182l190 1077h183z" />
    <glyph glyph-name="j.sc" horiz-adv-x="589" 
d="M246 293l139 784h182l-141 -794q-51 -297 -338 -297q-74 0 -145 12l32 156q72 -11 109 -11q136 0 162 150z" />
    <glyph glyph-name="k.sc" horiz-adv-x="1075" 
d="M778 0l-375 436h-100l-78 -436h-182l190 1077h183l-88 -493h90l520 493h217l-4 -18l-602 -541l442 -498l-2 -20h-211z" />
    <glyph glyph-name="l.sc" horiz-adv-x="878" 
d="M233 1077h183l-164 -923h526l-26 -154h-709z" />
    <glyph glyph-name="m.sc" horiz-adv-x="1517" 
d="M307 520l-92 -520h-172l190 1077h302l110 -487q33 -147 55 -340h45q98 209 177 346l282 481h291l-190 -1077h-183l92 520q32 173 80 410h-39q-132 -266 -231 -441l-256 -426h-184l-103 433q-33 173 -69 434h-35q-32 -201 -70 -410z" />
    <glyph glyph-name="n.sc" horiz-adv-x="1218" 
d="M762 0l-232 518q-35 83 -129 402l-43 -2q-30 -292 -73 -529l-70 -389h-172l190 1077h265l204 -452q84 -206 144 -441h43q24 266 67 502l70 391h172l-190 -1077h-246z" />
    <glyph glyph-name="o.sc" horiz-adv-x="1249" 
d="M563 -23q-138 0 -242 44.5t-162.5 125t-80.5 191.5t4 244q41 242 206.5 380t416.5 138q274 0 403.5 -164t83.5 -432q-43 -246 -208.5 -386.5t-420.5 -140.5zM575 135q188 0 296.5 101.5t140.5 287.5q22 125 -3.5 217t-105 146.5t-209.5 54.5q-187 0 -295.5 -101
t-140.5 -284q-35 -193 43.5 -307.5t273.5 -114.5z" />
    <glyph glyph-name="p.sc" horiz-adv-x="974" 
d="M631 924h-242l-72 -402h252q125 0 188.5 44.5t80.5 142.5q19 109 -30 162t-177 53zM584 373h-293l-66 -373h-182l188 1077h428q210 0 299.5 -101.5t55.5 -289.5q-25 -143 -137.5 -228t-292.5 -85z" />
    <glyph glyph-name="q.sc" horiz-adv-x="1249" 
d="M575 135q188 0 296.5 101.5t140.5 287.5q22 125 -3.5 217t-105 146.5t-209.5 54.5q-187 0 -295.5 -101t-140.5 -284q-35 -193 43.5 -307.5t273.5 -114.5zM563 -23q-138 0 -242 44.5t-162.5 125t-80.5 191.5t4 244q41 242 206.5 380t416.5 138q274 0 403.5 -164t83.5 -432
q-53 -304 -285 -441l109 -215l-2 -20h-193l-73 172q-94 -23 -185 -23z" />
    <glyph glyph-name="r.sc" horiz-adv-x="1118" 
d="M657 926h-268l-65 -367h272q123 0 186 41t78 129q18 99 -29 148t-174 49zM770 0l-235 420h-236l-74 -420h-182l190 1077h459q202 0 289.5 -94t56.5 -264q-22 -119 -101.5 -191.5t-211.5 -95.5l256 -412l-4 -20h-207z" />
    <glyph glyph-name="s.sc" horiz-adv-x="1060" 
d="M496 -23q-125 1 -215 28t-142 77t-77 112t-29 142l178 31q6 -121 77 -181.5t218 -60.5q241 0 266 143q14 80 -43.5 128t-216.5 75q-212 35 -291.5 127t-54.5 233q22 130 133.5 199.5t308.5 69.5q108 0 185.5 -23t123 -68t68.5 -100.5t31 -130.5l-182 -30
q-9 73 -30.5 115.5t-72.5 66.5t-137 24q-229 0 -250 -133q-7 -36 0 -63.5t33.5 -54.5t83 -48t143.5 -37q92 -17 159.5 -43.5t106.5 -60.5t62 -75t25 -86t-5 -95q-46 -281 -456 -281z" />
    <glyph glyph-name="t.sc" horiz-adv-x="970" 
d="M109 913l28 164h910l-31 -164h-363l-159 -913h-185l162 913h-362z" />
    <glyph glyph-name="u.sc" horiz-adv-x="1198" 
d="M559 137q148 0 221.5 72.5t98.5 210.5l114 657h183l-121 -684q-35 -203 -163 -309.5t-339 -106.5q-244 0 -358 120.5t-74 342.5l112 637h183l-115 -649q-13 -63 -5 -116.5t34.5 -92t84.5 -60.5t144 -22z" />
    <glyph glyph-name="v.sc" horiz-adv-x="1110" 
d="M590 0h-240l-246 1077h189l113 -559q44 -221 61 -360h51q85 169 193 360l311 559h195z" />
    <glyph glyph-name="w.sc" horiz-adv-x="1599" 
d="M668 451l-187 -451h-264l-108 1077h194l35 -504q14 -329 14 -417h56q82 232 159 417l224 504h235l41 -506q10 -136 14 -415h54q60 165 161 417l211 504h191l-481 -1077h-273l-31 451q-18 304 -18 473h-41q-90 -247 -186 -473z" />
    <glyph glyph-name="x.sc" horiz-adv-x="1060" 
d="M764 0l-221 457h-39l-369 -457h-196l4 20l463 531l-275 508l2 18h189l215 -448h43l360 448h197l-4 -18l-457 -527l280 -512l-2 -20h-190z" />
    <glyph glyph-name="y.sc" horiz-adv-x="1017" 
d="M516 0h-182l63 362l-305 697l4 18h191l207 -565h32l410 565h197l-5 -18l-548 -701z" />
    <glyph glyph-name="z.sc" horiz-adv-x="1079" 
d="M940 164l-31 -164h-925l28 156l830 762l-8 20q-240 -25 -379 -25h-289l31 164h899l-27 -151l-836 -768l7 -19q260 25 397 25h303z" />
    <glyph glyph-name="aacute.sc" horiz-adv-x="1114" 
d="M840 0l-60 291h-510l-161 -291h-195l627 1077h243l246 -1077h-190zM512 1176l-37 92l524 270l56 -129zM420 561l-74 -133h406l-27 133q-38 188 -59 361h-54q-98 -195 -192 -361z" />
    <glyph glyph-name="abreve.sc" horiz-adv-x="1114" 
d="M840 0l-60 291h-510l-161 -291h-195l627 1077h243l246 -1077h-190zM688 1327q82 0 137.5 43.5t81.5 149.5h99q-54 -318 -322 -318q-141 0 -208.5 80t-39.5 238h96q-18 -193 156 -193zM420 561l-74 -133h406l-27 133q-38 188 -59 361h-54q-98 -195 -192 -361z" />
    <glyph glyph-name="acircumflex.sc" horiz-adv-x="1114" 
d="M840 0l-60 291h-510l-161 -291h-195l627 1077h243l246 -1077h-190zM905 1178l-200 208l-275 -208l-63 67l321 287h70l217 -287zM420 561l-74 -133h406l-27 133q-38 188 -59 361h-54q-98 -195 -192 -361z" />
    <glyph glyph-name="adieresis.sc" horiz-adv-x="1114" 
d="M840 0l-60 291h-510l-161 -291h-195l627 1077h243l246 -1077h-190zM420 1438h192l-32 -191h-193zM784 1438h193l-33 -191h-192zM420 561l-74 -133h406l-27 133q-38 188 -59 361h-54q-98 -195 -192 -361z" />
    <glyph glyph-name="agrave.sc" horiz-adv-x="1114" 
d="M840 0l-60 291h-510l-161 -291h-195l627 1077h243l246 -1077h-190zM831 1180l-458 229l78 133l430 -274zM420 561l-74 -133h406l-27 133q-38 188 -59 361h-54q-98 -195 -192 -361z" />
    <glyph glyph-name="amacron.sc" horiz-adv-x="1114" 
d="M840 0l-60 291h-510l-161 -291h-195l627 1077h243l246 -1077h-190zM416 1384h557l-23 -131h-557zM420 561l-74 -133h406l-27 133q-38 188 -59 361h-54q-98 -195 -192 -361z" />
    <glyph glyph-name="aogonek.sc" horiz-adv-x="1114" 
d="M973 -324q-68 -12 -127 -12q-111 0 -162 41.5t-39 114.5q23 126 229 180h-34l-60 291h-510l-161 -291h-195l627 1077h243l246 -1077h-4q-127 -24 -188 -55t-70 -80q-7 -38 21.5 -56t89.5 -18q49 0 112 14zM420 561l-74 -133h406l-27 133q-38 188 -59 361h-54
q-98 -195 -192 -361z" />
    <glyph glyph-name="aring.sc" horiz-adv-x="1114" 
d="M840 0l-60 291h-510l-161 -291h-195l627 1077h243l246 -1077h-190zM578 1415q-10 -61 18.5 -96t87.5 -35q55 0 92 32t47 91q10 61 -18.5 95t-87.5 34q-55 0 -92 -31.5t-47 -89.5zM926 1393q-17 -97 -84.5 -152t-167.5 -55q-109 0 -163.5 67t-35.5 172q17 98 84.5 153.5
t167.5 55.5q108 0 163 -67.5t36 -173.5zM420 561l-74 -133h406l-27 133q-38 188 -59 361h-54q-98 -195 -192 -361z" />
    <glyph glyph-name="aringacute.sc" horiz-adv-x="1114" 
d="M528 1423l-18 95l537 184l26 -141zM610 1194q-9 -54 16.5 -84.5t78.5 -30.5q48 0 81.5 28.5t42.5 78.5q9 55 -16 84.5t-78 29.5q-50 0 -83 -27.5t-42 -78.5zM934 1180q-21 -123 -133 -176l229 -1004h-190l-60 291h-510l-161 -291h-195l614 1057q-37 55 -22 145
q17 90 82.5 143.5t161.5 53.5q100 0 150.5 -60.5t33.5 -158.5zM420 561l-74 -133h406l-27 133q-38 188 -59 361h-54q-98 -195 -192 -361z" />
    <glyph glyph-name="atilde.sc" horiz-adv-x="1114" 
d="M840 0l-60 291h-510l-161 -291h-195l627 1077h243l246 -1077h-190zM567 1538q39 0 70 -15t49 -37t35.5 -48.5t30.5 -48.5t32.5 -37t42.5 -15q43 0 67 46t40 147h90q0 -34 -8 -92q-21 -114 -72 -172t-123 -58q-36 0 -65 15t-46 37t-34.5 48.5t-31.5 48.5t-35 37t-46 15
q-46 0 -69 -41.5t-41 -146.5h-91q0 29 9 90q21 113 72.5 170t123.5 57zM420 561l-74 -133h406l-27 133q-38 188 -59 361h-54q-98 -195 -192 -361z" />
    <glyph glyph-name="ae.sc" horiz-adv-x="1591" 
d="M494 561l-109 -162h299l94 531h-53q-100 -174 -231 -369zM614 0l45 258h-368l-172 -258h-195l744 1077h931l-26 -155h-612l-56 -306h553l-24 -137h-553l-56 -321h613l-29 -158h-795z" />
    <glyph glyph-name="aeacute.sc" horiz-adv-x="1591" 
d="M891 1171l-37 93l524 270l56 -129zM614 0l45 258h-368l-172 -258h-195l744 1077h931l-26 -155h-612l-56 -306h553l-24 -137h-553l-56 -321h613l-29 -158h-795zM494 561l-109 -162h299l94 531h-53q-100 -174 -231 -369z" />
    <glyph glyph-name="cacute.sc" horiz-adv-x="1183" 
d="M541 -23q-265 0 -387 164t-72 445q43 242 201.5 378t406.5 136q221 0 337.5 -110.5t121.5 -299.5l-178 -28q-8 139 -78.5 209.5t-216.5 70.5q-178 0 -282 -102.5t-136 -280.5q-35 -200 38.5 -312t254.5 -112q151 0 239.5 71.5t147.5 219.5l168 -33q-62 -203 -204 -309.5
t-361 -106.5zM549 1198l-37 92l524 271l56 -129z" />
    <glyph glyph-name="ccaron.sc" horiz-adv-x="1183" 
d="M541 -23q-265 0 -387 164t-72 445q43 242 201.5 378t406.5 136q221 0 337.5 -110.5t121.5 -299.5l-178 -28q-8 139 -78.5 209.5t-216.5 70.5q-178 0 -282 -102.5t-136 -280.5q-35 -200 38.5 -312t254.5 -112q151 0 239.5 71.5t147.5 219.5l168 -33q-62 -203 -204 -309.5
t-361 -106.5zM731 1217h-69l-218 286l72 68l199 -209l276 209l60 -68z" />
    <glyph glyph-name="ccedilla.sc" horiz-adv-x="1183" 
d="M541 -23q-22 0 -43 3l-47 -84q41 16 86 16q68 0 104 -30.5t25 -94.5q-9 -52 -60.5 -91.5t-142.5 -39.5q-126 0 -203 59l57 74q67 -49 156 -49q88 0 98 57q5 28 -14.5 44t-60.5 16q-28 0 -86 -15l-56 27l66 119q-204 37 -292.5 194.5t-45.5 403.5q43 242 201.5 378
t406.5 136q221 0 337.5 -110.5t121.5 -299.5l-178 -28q-8 139 -78.5 209.5t-216.5 70.5q-178 0 -282 -102.5t-136 -280.5q-35 -200 38.5 -312t254.5 -112q151 0 239.5 71.5t147.5 219.5l168 -33q-62 -203 -204 -309.5t-361 -106.5z" />
    <glyph glyph-name="ccircumflex.sc" horiz-adv-x="1183" 
d="M541 -23q-265 0 -387 164t-72 445q43 242 201.5 378t406.5 136q221 0 337.5 -110.5t121.5 -299.5l-178 -28q-8 139 -78.5 209.5t-216.5 70.5q-178 0 -282 -102.5t-136 -280.5q-35 -200 38.5 -312t254.5 -112q151 0 239.5 71.5t147.5 219.5l168 -33q-62 -203 -204 -309.5
t-361 -106.5zM940 1200l-201 209l-274 -209l-64 68l322 286h70l217 -286z" />
    <glyph glyph-name="cdotaccent.sc" horiz-adv-x="1183" 
d="M541 -23q-265 0 -387 164t-72 445q43 242 201.5 378t406.5 136q221 0 337.5 -110.5t121.5 -299.5l-178 -28q-8 139 -78.5 209.5t-216.5 70.5q-178 0 -282 -102.5t-136 -280.5q-35 -200 38.5 -312t254.5 -112q151 0 239.5 71.5t147.5 219.5l168 -33q-62 -203 -204 -309.5
t-361 -106.5zM643 1479h201l-33 -197h-203z" />
    <glyph glyph-name="dcaron.sc" horiz-adv-x="1202" 
d="M629 926h-240l-137 -774h252q208 0 320 92.5t145 281.5q35 207 -45.5 303.5t-294.5 96.5zM43 0l190 1077h429q289 0 411 -149t74 -424q-43 -240 -209 -372t-426 -132h-469zM752 1194h-70l-217 287l72 67l198 -209l277 209l59 -67z" />
    <glyph glyph-name="dcroat.sc" horiz-adv-x="1255" 
d="M668 481h-306l-59 -329h252q208 0 320 92.5t145 281.5q35 207 -45.5 303.5t-294.5 96.5h-240l-57 -324h305zM94 0l86 481h-139l22 121h138l84 475h428q289 0 411 -149t74 -424q-43 -240 -209 -372t-426 -132h-469z" />
    <glyph glyph-name="eacute.sc" horiz-adv-x="1017" 
d="M43 0l190 1077h795l-27 -155h-612l-55 -306h553l-25 -137h-553l-55 -321h612l-28 -158h-795zM483 1176l-37 92l525 270l55 -129z" />
    <glyph glyph-name="ebreve.sc" horiz-adv-x="1017" 
d="M43 0l190 1077h795l-27 -155h-612l-55 -306h553l-25 -137h-553l-55 -321h612l-28 -158h-795zM657 1327q82 0 138 43.5t82 149.5h98q-54 -318 -322 -318q-141 0 -208 80t-39 238h96q-10 -105 32 -149t123 -44z" />
    <glyph glyph-name="ecaron.sc" horiz-adv-x="1017" 
d="M43 0l190 1077h795l-27 -155h-612l-55 -306h553l-25 -137h-553l-55 -321h612l-28 -158h-795zM666 1194h-70l-217 287l72 67l198 -209l277 209l59 -67z" />
    <glyph glyph-name="ecircumflex.sc" horiz-adv-x="1017" 
d="M43 0l190 1077h795l-27 -155h-612l-55 -306h553l-25 -137h-553l-55 -321h612l-28 -158h-795zM874 1178l-200 208l-275 -208l-63 67l321 287h70l217 -287z" />
    <glyph glyph-name="edieresis.sc" horiz-adv-x="1017" 
d="M43 0l190 1077h795l-27 -155h-612l-55 -306h553l-25 -137h-553l-55 -321h612l-28 -158h-795zM391 1438h193l-33 -191h-193zM756 1438h192l-33 -191h-192z" />
    <glyph glyph-name="edotaccent.sc" horiz-adv-x="1017" 
d="M43 0l190 1077h795l-27 -155h-612l-55 -306h553l-25 -137h-553l-55 -321h612l-28 -158h-795zM578 1456h200l-33 -196h-202z" />
    <glyph glyph-name="egrave.sc" horiz-adv-x="1017" 
d="M43 0l190 1077h795l-27 -155h-612l-55 -306h553l-25 -137h-553l-55 -321h612l-28 -158h-795zM801 1180l-459 229l78 133l430 -274z" />
    <glyph glyph-name="emacron.sc" horiz-adv-x="1017" 
d="M43 0l190 1077h795l-27 -155h-612l-55 -306h553l-25 -137h-553l-55 -321h612l-28 -158h-795zM387 1384h557l-22 -131h-557z" />
    <glyph glyph-name="eng.sc" horiz-adv-x="1218" 
d="M43 0l190 1077h267l223 -450q83 -182 149 -402h25q21 252 59 461l70 391h172l-194 -1097q-56 -314 -363 -314q-60 0 -152 15l39 155q64 -12 125 -12q151 0 178 158l3 14l-285 516q-69 129 -148 403l-45 -4q-20 -225 -71 -522l-70 -389h-172z" />
    <glyph glyph-name="eogonek.sc" horiz-adv-x="1017" 
d="M780 -324q-67 -12 -127 -12q-111 0 -161.5 41.5t-38.5 114.5q23 126 229 180h-639l190 1077h795l-27 -155h-612l-55 -306h553l-25 -137h-553l-55 -321h612l-28 -158h-4q-127 -24 -188.5 -55t-70.5 -80q-7 -38 21.5 -56t89.5 -18q50 0 113 14z" />
    <glyph glyph-name="eth.sc" horiz-adv-x="1255" 
d="M668 481h-306l-59 -329h252q208 0 320 92.5t145 281.5q35 207 -45.5 303.5t-294.5 96.5h-240l-57 -324h305zM94 0l86 481h-139l22 121h138l84 475h428q289 0 411 -149t74 -424q-43 -240 -209 -372t-426 -132h-469z" />
    <glyph glyph-name="fi.sc" horiz-adv-x="1423" 
d="M817 414h-518l-74 -414h-182l190 1077h762l-30 -164h-578l-61 -346h518zM1210 0h-182l191 1077h182z" />
    <glyph glyph-name="fl.sc" horiz-adv-x="1863" 
d="M817 414h-518l-74 -414h-182l190 1077h762l-30 -164h-578l-61 -346h518zM1219 1077h182l-164 -923h526l-26 -154h-709z" />
    <glyph glyph-name="gbreve.sc" horiz-adv-x="1216" 
d="M473 -18q-225 0 -335.5 157t-61.5 432q45 253 200.5 391t409.5 138q223 0 335.5 -101.5t125.5 -281.5l-176 -31q-9 130 -80 193t-213 63q-187 0 -288 -98.5t-134 -290.5q-34 -194 39 -308t260 -114q94 0 165.5 22.5t114.5 63t67 86.5t34 103v-7l4 25h-342l23 135h514
l-99 -559h-168l43 244h-18q-61 -119 -165.5 -190.5t-254.5 -71.5zM729 1350q82 0 137.5 43t81.5 149h99q-27 -162 -107.5 -239.5t-214.5 -77.5q-142 0 -209 79.5t-39 237.5h96q-10 -105 32.5 -148.5t123.5 -43.5z" />
    <glyph glyph-name="gcircumflex.sc" horiz-adv-x="1216" 
d="M473 -18q-225 0 -335.5 157t-61.5 432q45 253 200.5 391t409.5 138q223 0 335.5 -101.5t125.5 -281.5l-176 -31q-9 130 -80 193t-213 63q-187 0 -288 -98.5t-134 -290.5q-34 -194 39 -308t260 -114q94 0 165.5 22.5t114.5 63t67 86.5t34 103v-7l4 25h-342l23 135h514
l-99 -559h-168l43 244h-18q-61 -119 -165.5 -190.5t-254.5 -71.5zM946 1200l-201 209l-274 -209l-63 68l321 286h70l217 -286z" />
    <glyph glyph-name="gcommaaccent.sc" horiz-adv-x="1216" 
d="M473 -18q-225 0 -335.5 157t-61.5 432q45 253 200.5 391t409.5 138q223 0 335.5 -101.5t125.5 -281.5l-176 -31q-9 130 -80 193t-213 63q-187 0 -288 -98.5t-134 -290.5q-34 -194 39 -308t260 -114q94 0 165.5 22.5t114.5 63t67 86.5t34 103v-7l4 25h-342l23 135h514
l-99 -559h-168l43 244h-18q-61 -119 -165.5 -190.5t-254.5 -71.5zM455 -113h149l-176 -309h-117l4 16z" />
    <glyph glyph-name="gdotaccent.sc" horiz-adv-x="1216" 
d="M473 -18q-225 0 -335.5 157t-61.5 432q45 253 200.5 391t409.5 138q223 0 335.5 -101.5t125.5 -281.5l-176 -31q-9 130 -80 193t-213 63q-187 0 -288 -98.5t-134 -290.5q-34 -194 39 -308t260 -114q94 0 165.5 22.5t114.5 63t67 86.5t34 103v-7l4 25h-342l23 135h514
l-99 -559h-168l43 244h-18q-61 -119 -165.5 -190.5t-254.5 -71.5zM649 1479h201l-33 -197h-203z" />
    <glyph glyph-name="hbar.sc" horiz-adv-x="1277" 
d="M946 555l33 188h-592l-33 -188h592zM1032 0h-184l72 401h-592l-72 -401h-182l131 743h-125l20 117h125l39 217h182l-38 -217h591l39 217h183l-39 -217h131l-21 -117h-131z" />
    <glyph glyph-name="hcircumflex.sc" horiz-adv-x="1214" 
d="M1001 0h-182l80 457h-594l-80 -457h-182l190 1077h183l-82 -459h594l80 459h184zM956 1178l-200 208l-275 -208l-63 67l321 287h70l217 -287z" />
    <glyph glyph-name="iacute.sc" horiz-adv-x="438" 
d="M225 0h-182l190 1077h183zM176 1176l-37 92l525 270l55 -129z" />
    <glyph glyph-name="ibreve.sc" horiz-adv-x="438" 
d="M225 0h-182l190 1077h183zM350 1327q82 0 137.5 43.5t81.5 149.5h99q-54 -318 -322 -318q-141 0 -208.5 80t-39.5 238h97q-10 -105 32 -149t123 -44z" />
    <glyph glyph-name="icircumflex.sc" horiz-adv-x="438" 
d="M225 0h-182l190 1077h183zM567 1178l-200 208l-275 -208l-63 67l321 287h70l217 -287z" />
    <glyph glyph-name="idieresis.sc" horiz-adv-x="438" 
d="M225 0h-182l190 1077h183zM84 1438h192l-32 -191h-193zM449 1438h192l-33 -191h-192z" />
    <glyph glyph-name="igrave.sc" horiz-adv-x="438" 
d="M225 0h-182l190 1077h183zM494 1180l-459 229l78 133l430 -274z" />
    <glyph glyph-name="ij.sc" horiz-adv-x="1028" 
d="M225 0h-182l190 1077h183zM684 293l139 784h183l-142 -794q-51 -297 -338 -297q-74 0 -145 12l33 156q71 -11 108 -11q136 0 162 150z" />
    <glyph glyph-name="imacron.sc" horiz-adv-x="438" 
d="M225 0h-182l190 1077h183zM80 1384h557l-23 -131h-557z" />
    <glyph glyph-name="iogonek.sc" horiz-adv-x="438" 
d="M225 0q-127 -24 -188 -55t-70 -80q-7 -38 21.5 -56t89.5 -18q49 0 112 14l-18 -129q-67 -12 -127 -12q-111 0 -162 41.5t-39 114.5q23 125 230 180h-31l190 1077h183z" />
    <glyph glyph-name="itilde.sc" horiz-adv-x="438" 
d="M225 0h-182l190 1077h183zM231 1538q39 0 70 -15t49.5 -37t36 -48.5t30.5 -48.5t32.5 -37t42.5 -15q43 0 66.5 46t39.5 147h90q0 -34 -8 -92q-21 -114 -72 -172t-123 -58q-36 0 -65 15t-46 37t-34.5 48.5t-31.5 48.5t-35 37t-46 15q-46 0 -69 -41.5t-41 -146.5h-90
q0 36 8 90q21 113 72.5 170t123.5 57z" />
    <glyph glyph-name="jcircumflex.sc" horiz-adv-x="589" 
d="M246 293l139 784h182l-141 -794q-51 -297 -338 -297q-74 0 -145 12l32 156q72 -11 109 -11q136 0 162 150zM719 1178l-201 208l-274 -208l-64 67l322 287h69l217 -287z" />
    <glyph glyph-name="kcommaaccent.sc" horiz-adv-x="1075" 
d="M778 0l-375 436h-100l-78 -436h-182l190 1077h183l-88 -493h90l520 493h217l-4 -18l-602 -541l442 -498l-2 -20h-211zM457 -113h149l-176 -309h-117l4 16z" />
    <glyph glyph-name="lacute.sc" horiz-adv-x="878" 
d="M276 1176l-36 92l524 270l55 -129zM233 1077h183l-164 -923h526l-26 -154h-709z" />
    <glyph glyph-name="lcaron.sc" horiz-adv-x="901" 
d="M821 1079h146l-148 -516h-114zM233 1077h183l-164 -923h526l-26 -154h-709z" />
    <glyph glyph-name="lcommaaccent.sc" horiz-adv-x="878" 
d="M233 1077h183l-164 -923h526l-26 -154h-709zM338 -113h149l-176 -309h-116l4 16z" />
    <glyph glyph-name="ldot.sc" horiz-adv-x="888" 
d="M721 705h192l-32 -187h-193zM233 1077h183l-164 -923h526l-26 -154h-709z" />
    <glyph glyph-name="lslash.sc" horiz-adv-x="923" 
d="M262 1077h182l-79 -454l292 129l-22 -125l-293 -129l-61 -344h526l-27 -154h-708l71 412l-137 -62l21 123l139 62z" />
    <glyph glyph-name="nacute.sc" horiz-adv-x="1218" 
d="M762 0l-232 518q-35 83 -129 402l-43 -2q-30 -292 -73 -529l-70 -389h-172l190 1077h265l204 -452q84 -206 144 -441h43q24 266 67 502l70 391h172l-190 -1077h-246zM565 1176l-37 92l525 270l55 -129z" />
    <glyph glyph-name="ncaron.sc" horiz-adv-x="1218" 
d="M762 0l-232 518q-35 83 -129 402l-43 -2q-30 -292 -73 -529l-70 -389h-172l190 1077h265l204 -452q84 -206 144 -441h43q24 266 67 502l70 391h172l-190 -1077h-246zM750 1194h-70l-217 287l72 67l198 -209l277 209l59 -67z" />
    <glyph glyph-name="ncommaaccent.sc" horiz-adv-x="1218" 
d="M762 0l-232 518q-35 83 -129 402l-43 -2q-30 -292 -73 -529l-70 -389h-172l190 1077h265l204 -452q84 -206 144 -441h43q24 266 67 502l70 391h172l-190 -1077h-246zM467 -113h149l-176 -309h-116l4 16z" />
    <glyph glyph-name="ntilde.sc" horiz-adv-x="1218" 
d="M762 0l-232 518q-35 83 -129 402l-43 -2q-30 -292 -73 -529l-70 -389h-172l190 1077h265l204 -452q84 -206 144 -441h43q24 266 67 502l70 391h172l-190 -1077h-246zM623 1538q39 0 70 -15t49 -37t35.5 -48.5t30.5 -48.5t32.5 -37t42.5 -15q43 0 66.5 46t39.5 147h90
q0 -34 -8 -92q-21 -115 -71.5 -172.5t-122.5 -57.5q-36 0 -65 15t-46.5 37t-35 48.5t-31.5 48.5t-35 37t-46 15q-46 0 -69 -41.5t-41 -146.5h-90q0 36 8 90q21 113 72.5 170t124.5 57z" />
    <glyph glyph-name="oacute.sc" horiz-adv-x="1249" 
d="M563 -23q-138 0 -242 44.5t-162.5 125t-80.5 191.5t4 244q41 242 206.5 380t416.5 138q274 0 403.5 -164t83.5 -432q-43 -246 -208.5 -386.5t-420.5 -140.5zM575 135q188 0 296.5 101.5t140.5 287.5q22 125 -3.5 217t-105 146.5t-209.5 54.5q-187 0 -295.5 -101
t-140.5 -284q-35 -193 43.5 -307.5t273.5 -114.5zM582 1198l-37 92l524 271l55 -129z" />
    <glyph glyph-name="obreve.sc" horiz-adv-x="1249" 
d="M563 -23q-138 0 -242 44.5t-162.5 125t-80.5 191.5t4 244q41 242 206.5 380t416.5 138q274 0 403.5 -164t83.5 -432q-43 -246 -208.5 -386.5t-420.5 -140.5zM575 135q188 0 296.5 101.5t140.5 287.5q22 125 -3.5 217t-105 146.5t-209.5 54.5q-187 0 -295.5 -101
t-140.5 -284q-35 -193 43.5 -307.5t273.5 -114.5zM756 1350q82 0 137.5 43t81.5 149h98q-27 -162 -107 -239.5t-214 -77.5q-142 0 -209 79.5t-39 237.5h96q-10 -105 32.5 -148.5t123.5 -43.5z" />
    <glyph glyph-name="ocircumflex.sc" horiz-adv-x="1249" 
d="M575 135q188 0 296.5 101.5t140.5 287.5q22 125 -3.5 217t-105 146.5t-209.5 54.5q-187 0 -295.5 -101t-140.5 -284q-35 -193 43.5 -307.5t273.5 -114.5zM563 -23q-138 0 -242 44.5t-162.5 125t-80.5 191.5t4 244q41 242 206.5 380t416.5 138q274 0 403.5 -164t83.5 -432
q-43 -246 -208.5 -386.5t-420.5 -140.5zM973 1200l-201 209l-274 -209l-64 68l322 286h69l217 -286z" />
    <glyph glyph-name="odieresis.sc" horiz-adv-x="1249" 
d="M563 -23q-138 0 -242 44.5t-162.5 125t-80.5 191.5t4 244q41 242 206.5 380t416.5 138q274 0 403.5 -164t83.5 -432q-43 -246 -208.5 -386.5t-420.5 -140.5zM575 135q188 0 296.5 101.5t140.5 287.5q22 125 -3.5 217t-105 146.5t-209.5 54.5q-187 0 -295.5 -101
t-140.5 -284q-35 -193 43.5 -307.5t273.5 -114.5zM489 1460h193l-33 -190h-192zM854 1460h193l-33 -190h-193z" />
    <glyph glyph-name="ograve.sc" horiz-adv-x="1249" 
d="M563 -23q-138 0 -242 44.5t-162.5 125t-80.5 191.5t4 244q41 242 206.5 380t416.5 138q274 0 403.5 -164t83.5 -432q-43 -246 -208.5 -386.5t-420.5 -140.5zM575 135q188 0 296.5 101.5t140.5 287.5q22 125 -3.5 217t-105 146.5t-209.5 54.5q-187 0 -295.5 -101
t-140.5 -284q-35 -193 43.5 -307.5t273.5 -114.5zM899 1202l-459 230l78 133l430 -275z" />
    <glyph glyph-name="ohungarumlaut.sc" horiz-adv-x="1249" 
d="M563 -23q-138 0 -242 44.5t-162.5 125t-80.5 191.5t4 244q41 242 206.5 380t416.5 138q274 0 403.5 -164t83.5 -432q-43 -246 -208.5 -386.5t-420.5 -140.5zM575 135q188 0 296.5 101.5t140.5 287.5q22 125 -3.5 217t-105 146.5t-209.5 54.5q-187 0 -295.5 -101
t-140.5 -284q-35 -193 43.5 -307.5t273.5 -114.5zM582 1200l-76 51l242 336l108 -76zM852 1202l-70 60l260 323l101 -82z" />
    <glyph glyph-name="omacron.sc" horiz-adv-x="1249" 
d="M563 -23q-138 0 -242 44.5t-162.5 125t-80.5 191.5t4 244q41 242 206.5 380t416.5 138q274 0 403.5 -164t83.5 -432q-43 -246 -208.5 -386.5t-420.5 -140.5zM575 135q188 0 296.5 101.5t140.5 287.5q22 125 -3.5 217t-105 146.5t-209.5 54.5q-187 0 -295.5 -101
t-140.5 -284q-35 -193 43.5 -307.5t273.5 -114.5zM485 1407h557l-22 -131h-557z" />
    <glyph glyph-name="oslash.sc" horiz-adv-x="1247" 
d="M250 557q-28 -161 20 -266l668 577q-84 78 -242 78q-191 0 -302 -102t-144 -287zM563 -23q-233 0 -360 121l-111 -98h-145l2 14l190 162q-102 156 -57 406q41 242 206.5 380t416.5 138q234 0 364 -121l111 98h141l-4 -14l-187 -158q106 -159 62 -401
q-43 -246 -208.5 -386.5t-420.5 -140.5zM575 129q191 0 301.5 103t143.5 290q28 158 -21 264l-669 -579q88 -78 245 -78z" />
    <glyph glyph-name="oslashacute.sc" horiz-adv-x="1249" 
d="M250 557q-28 -161 20 -266l668 577q-84 78 -242 78q-191 0 -302 -102t-144 -287zM563 -23q-233 0 -360 121l-111 -98h-145l2 14l190 162q-102 156 -57 406q41 242 206.5 380t416.5 138q234 0 364 -121l111 98h141l-4 -14l-187 -158q106 -159 62 -401
q-43 -246 -208.5 -386.5t-420.5 -140.5zM612 1194l-37 92l525 270l55 -129zM575 129q191 0 301.5 103t143.5 290q28 158 -21 264l-669 -579q88 -78 245 -78z" />
    <glyph glyph-name="otilde.sc" horiz-adv-x="1249" 
d="M563 -23q-138 0 -242 44.5t-162.5 125t-80.5 191.5t4 244q41 242 206.5 380t416.5 138q274 0 403.5 -164t83.5 -432q-43 -246 -208.5 -386.5t-420.5 -140.5zM575 135q188 0 296.5 101.5t140.5 287.5q22 125 -3.5 217t-105 146.5t-209.5 54.5q-187 0 -295.5 -101
t-140.5 -284q-35 -193 43.5 -307.5t273.5 -114.5zM637 1561q46 0 80.5 -20.5t54.5 -50.5t37.5 -59.5t39 -50t48.5 -20.5q43 0 67 46t40 146h90q0 -27 -9 -92q-21 -114 -71.5 -171.5t-122.5 -57.5q-43 0 -75 20.5t-51.5 50.5t-37 59.5t-41 50t-53.5 20.5q-46 0 -69.5 -42
t-41.5 -147h-90q0 36 8 90q21 113 73 170.5t124 57.5z" />
    <glyph glyph-name="oe.sc" horiz-adv-x="1708" 
d="M592 154h119l137 772h-164q-179 0 -288 -99t-138 -268q-33 -190 49 -297.5t285 -107.5zM573 0q-281 0 -410.5 157t-82.5 421q40 228 207 363.5t418 135.5h964l-27 -155h-612l-55 -306h553l-25 -137h-553l-55 -321h612l-28 -158h-906z" />
    <glyph glyph-name="racute.sc" horiz-adv-x="1118" 
d="M657 926h-268l-65 -367h272q123 0 186 41t78 129q18 99 -29 148t-174 49zM770 0l-235 420h-236l-74 -420h-182l190 1077h459q202 0 289.5 -94t56.5 -264q-22 -119 -101.5 -191.5t-211.5 -95.5l256 -412l-4 -20h-207zM537 1176l-37 92l524 270l55 -129z" />
    <glyph glyph-name="rcaron.sc" horiz-adv-x="1118" 
d="M657 926h-268l-65 -367h272q123 0 186 41t78 129q18 99 -29 148t-174 49zM770 0l-235 420h-236l-74 -420h-182l190 1077h459q202 0 289.5 -94t56.5 -264q-22 -119 -101.5 -191.5t-211.5 -95.5l256 -412l-4 -20h-207zM688 1194h-70l-217 287l72 67l199 -209l276 209
l60 -67z" />
    <glyph glyph-name="rcommaaccent.sc" horiz-adv-x="1118" 
d="M436 -113h150l-176 -309h-117l4 16zM657 926h-268l-65 -367h272q123 0 186 41t78 129q18 99 -29 148t-174 49zM770 0l-235 420h-236l-74 -420h-182l190 1077h459q202 0 289.5 -94t56.5 -264q-22 -119 -101.5 -191.5t-211.5 -95.5l256 -412l-4 -20h-207z" />
    <glyph glyph-name="sacute.sc" horiz-adv-x="1060" 
d="M496 -23q-125 1 -215 28t-142 77t-77 112t-29 142l178 31q6 -121 77 -181.5t218 -60.5q241 0 266 143q14 80 -43.5 128t-216.5 75q-212 35 -291.5 127t-54.5 233q22 130 133.5 199.5t308.5 69.5q108 0 185.5 -23t123 -68t68.5 -100.5t31 -130.5l-182 -30
q-9 73 -30.5 115.5t-72.5 66.5t-137 24q-229 0 -250 -133q-7 -36 0 -63.5t33.5 -54.5t83 -48t143.5 -37q92 -17 159.5 -43.5t106.5 -60.5t62 -75t25 -86t-5 -95q-46 -281 -456 -281zM481 1198l-37 92l525 271l55 -129z" />
    <glyph glyph-name="scaron.sc" horiz-adv-x="1060" 
d="M496 -23q-125 1 -215 28t-142 77t-77 112t-29 142l178 31q6 -121 77 -181.5t218 -60.5q241 0 266 143q14 80 -43.5 128t-216.5 75q-212 35 -291.5 127t-54.5 233q22 130 133.5 199.5t308.5 69.5q108 0 185.5 -23t123 -68t68.5 -100.5t31 -130.5l-182 -30
q-9 73 -30.5 115.5t-72.5 66.5t-137 24q-229 0 -250 -133q-7 -36 0 -63.5t33.5 -54.5t83 -48t143.5 -37q92 -17 159.5 -43.5t106.5 -60.5t62 -75t25 -86t-5 -95q-46 -281 -456 -281zM666 1217h-70l-217 286l72 68l198 -209l277 209l59 -68z" />
    <glyph glyph-name="scedilla.sc" horiz-adv-x="1060" 
d="M496 -23q-32 0 -66 3l-47 -84q41 16 86 16q68 0 104 -30.5t25 -94.5q-9 -52 -60.5 -91.5t-142.5 -39.5q-125 0 -202 59l57 74q67 -49 156 -49q88 0 98 57q5 28 -15 44t-61 16q-28 0 -86 -15l-55 27l65 121q-164 28 -238.5 117.5t-80.5 228.5l178 31q6 -121 77 -181.5
t218 -60.5q241 0 266 143q14 80 -43.5 128t-216.5 75q-212 35 -291.5 127t-54.5 233q22 130 133.5 199.5t308.5 69.5q108 0 185.5 -23t123 -68t68.5 -100.5t31 -130.5l-182 -30q-9 73 -30.5 115.5t-72.5 66.5t-137 24q-229 0 -250 -133q-7 -36 0 -63.5t33.5 -54.5t83 -48
t143.5 -37q92 -17 159.5 -43.5t106.5 -60.5t62 -75t25 -86t-5 -95q-46 -281 -456 -281z" />
    <glyph glyph-name="scircumflex.sc" horiz-adv-x="1060" 
d="M496 -23q-125 1 -215 28t-142 77t-77 112t-29 142l178 31q6 -121 77 -181.5t218 -60.5q241 0 266 143q14 80 -43.5 128t-216.5 75q-212 35 -291.5 127t-54.5 233q22 130 133.5 199.5t308.5 69.5q108 0 185.5 -23t123 -68t68.5 -100.5t31 -130.5l-182 -30
q-9 73 -30.5 115.5t-72.5 66.5t-137 24q-229 0 -250 -133q-7 -36 0 -63.5t33.5 -54.5t83 -48t143.5 -37q92 -17 159.5 -43.5t106.5 -60.5t62 -75t25 -86t-5 -95q-46 -281 -456 -281zM874 1200l-200 209l-275 -209l-63 68l321 286h70l217 -286z" />
    <glyph glyph-name="scommaaccent.sc" horiz-adv-x="1060" 
d="M496 -23q-125 1 -215 28t-142 77t-77 112t-29 142l178 31q6 -121 77 -181.5t218 -60.5q241 0 266 143q14 80 -43.5 128t-216.5 75q-212 35 -291.5 127t-54.5 233q22 130 133.5 199.5t308.5 69.5q108 0 185.5 -23t123 -68t68.5 -100.5t31 -130.5l-182 -30
q-9 73 -30.5 115.5t-72.5 66.5t-137 24q-229 0 -250 -133q-7 -36 0 -63.5t33.5 -54.5t83 -48t143.5 -37q92 -17 159.5 -43.5t106.5 -60.5t62 -75t25 -86t-5 -95q-46 -281 -456 -281zM381 -113h149l-176 -309h-116l4 16z" />
    <glyph glyph-name="tbar.sc" horiz-adv-x="968" 
d="M109 913l28 164h910l-31 -164h-363l-65 -368h266l-20 -117h-267l-73 -428h-185l76 428h-264l20 117h265l65 368h-362z" />
    <glyph glyph-name="tcaron.sc" horiz-adv-x="970" 
d="M1016 913h-363l-159 -913h-185l162 913h-362l28 164h910zM627 1194h-70l-217 287l72 67l198 -209l277 209l59 -67z" />
    <glyph glyph-name="tcommaaccent.sc" horiz-adv-x="970" 
d="M109 913l28 164h910l-31 -164h-363l-159 -913h-88l-60 -104q41 16 86 16q68 0 104 -30.5t25 -94.5q-9 -52 -60.5 -91.5t-142.5 -39.5q-125 0 -202 59l57 74q67 -49 156 -49q88 0 98 57q5 28 -15 44t-61 16q-29 0 -86 -15l-55 27l72 131h-13l162 913h-362z" />
    <glyph glyph-name="uni021B.sc" horiz-adv-x="970" 
d="M109 913l28 164h910l-31 -164h-363l-159 -913h-185l162 913h-362zM342 -113h150l-177 -309h-116l4 16z" />
    <glyph glyph-name="thorn.sc" horiz-adv-x="1046" 
d="M233 1077h181l-31 -174h256q427 0 360 -387q-25 -149 -140 -234t-306 -85h-293l-35 -197h-182zM614 750h-258l-69 -402h264q120 0 186.5 46t83.5 143q19 110 -28.5 161.5t-178.5 51.5z" />
    <glyph glyph-name="uacute.sc" horiz-adv-x="1198" 
d="M559 137q148 0 221.5 72.5t98.5 210.5l114 657h183l-121 -684q-35 -203 -163 -309.5t-339 -106.5q-244 0 -358 120.5t-74 342.5l112 637h183l-115 -649q-13 -63 -5 -116.5t34.5 -92t84.5 -60.5t144 -22zM555 1176l-37 92l524 270l56 -129z" />
    <glyph glyph-name="ubreve.sc" horiz-adv-x="1198" 
d="M559 137q148 0 221.5 72.5t98.5 210.5l114 657h183l-121 -684q-35 -203 -163 -309.5t-339 -106.5q-244 0 -358 120.5t-74 342.5l112 637h183l-115 -649q-13 -63 -5 -116.5t34.5 -92t84.5 -60.5t144 -22zM731 1327q82 0 137.5 43.5t81.5 149.5h99q-54 -318 -322 -318
q-141 0 -208.5 80t-39.5 238h96q-18 -193 156 -193z" />
    <glyph glyph-name="ucircumflex.sc" horiz-adv-x="1198" 
d="M559 137q148 0 221.5 72.5t98.5 210.5l114 657h183l-121 -684q-35 -203 -163 -309.5t-339 -106.5q-244 0 -358 120.5t-74 342.5l112 637h183l-115 -649q-13 -63 -5 -116.5t34.5 -92t84.5 -60.5t144 -22zM948 1178l-200 208l-275 -208l-63 67l321 287h70l217 -287z" />
    <glyph glyph-name="udieresis.sc" horiz-adv-x="1198" 
d="M559 137q148 0 221.5 72.5t98.5 210.5l114 657h183l-121 -684q-35 -203 -163 -309.5t-339 -106.5q-244 0 -358 120.5t-74 342.5l112 637h183l-115 -649q-13 -63 -5 -116.5t34.5 -92t84.5 -60.5t144 -22zM465 1438h192l-32 -191h-193zM829 1438h193l-33 -191h-192z" />
    <glyph glyph-name="ugrave.sc" horiz-adv-x="1198" 
d="M559 137q148 0 221.5 72.5t98.5 210.5l114 657h183l-121 -684q-35 -203 -163 -309.5t-339 -106.5q-244 0 -358 120.5t-74 342.5l112 637h183l-115 -649q-13 -63 -5 -116.5t34.5 -92t84.5 -60.5t144 -22zM874 1180l-458 229l78 133l430 -274z" />
    <glyph glyph-name="uhungarumlaut.sc" horiz-adv-x="1198" 
d="M559 137q148 0 221.5 72.5t98.5 210.5l114 657h183l-121 -684q-35 -203 -163 -309.5t-339 -106.5q-244 0 -358 120.5t-74 342.5l112 637h183l-115 -649q-13 -63 -5 -116.5t34.5 -92t84.5 -60.5t144 -22zM557 1178l-76 51l242 336l108 -76zM827 1180l-69 59l260 324
l100 -82z" />
    <glyph glyph-name="umacron.sc" horiz-adv-x="1198" 
d="M559 137q148 0 221.5 72.5t98.5 210.5l114 657h183l-121 -684q-35 -203 -163 -309.5t-339 -106.5q-244 0 -358 120.5t-74 342.5l112 637h183l-115 -649q-13 -63 -5 -116.5t34.5 -92t84.5 -60.5t144 -22zM461 1384h557l-23 -131h-557z" />
    <glyph glyph-name="uogonek.sc" horiz-adv-x="1198" 
d="M559 137q148 0 221.5 72.5t98.5 210.5l114 657h183l-121 -684q-34 -198 -156.5 -304t-323.5 -112q-145 -39 -159 -112q-7 -38 21 -56t89 -18q50 0 113 14l-18 -129q-68 -12 -127 -12q-111 0 -162 41.5t-39 114.5q17 104 172 162q-200 22 -290 140.5t-54 317.5l112 637
h183l-115 -649q-13 -63 -5 -116.5t34.5 -92t84.5 -60.5t144 -22z" />
    <glyph glyph-name="uring.sc" horiz-adv-x="1198" 
d="M559 137q148 0 221.5 72.5t98.5 210.5l114 657h183l-121 -684q-35 -203 -163 -309.5t-339 -106.5q-244 0 -358 120.5t-74 342.5l112 637h183l-115 -649q-13 -63 -5 -116.5t34.5 -92t84.5 -60.5t144 -22zM969 1393q-17 -97 -84.5 -152t-167.5 -55q-109 0 -163.5 67
t-35.5 172q17 98 84.5 153.5t167.5 55.5q108 0 163 -67.5t36 -173.5zM621 1415q-10 -61 18.5 -96t87.5 -35q55 0 92 32t47 91q10 61 -18.5 95t-87.5 34q-55 0 -92 -31.5t-47 -89.5z" />
    <glyph glyph-name="utilde.sc" horiz-adv-x="1198" 
d="M559 137q148 0 221.5 72.5t98.5 210.5l114 657h183l-121 -684q-35 -203 -163 -309.5t-339 -106.5q-244 0 -358 120.5t-74 342.5l112 637h183l-115 -649q-13 -63 -5 -116.5t34.5 -92t84.5 -60.5t144 -22zM612 1538q39 0 70 -15t49 -37t35.5 -48.5t30.5 -48.5t32.5 -37
t42.5 -15q43 0 67 46t40 147h90q0 -34 -8 -92q-21 -114 -72 -172t-123 -58q-36 0 -65 15t-46 37t-34.5 48.5t-31.5 48.5t-35 37t-46 15q-46 0 -69 -41.5t-41 -146.5h-90q0 36 8 90q21 113 72.5 170t123.5 57z" />
    <glyph glyph-name="wacute.sc" horiz-adv-x="1599" 
d="M668 451l-187 -451h-264l-108 1077h194l35 -504q14 -329 14 -417h56q82 232 159 417l224 504h235l41 -506q10 -136 14 -415h54q60 165 161 417l211 504h191l-481 -1077h-273l-31 451q-18 304 -18 473h-41q-90 -247 -186 -473zM760 1176l-37 92l524 270l56 -129z" />
    <glyph glyph-name="wcircumflex.sc" horiz-adv-x="1599" 
d="M668 451l-187 -451h-264l-108 1077h194l35 -504q14 -329 14 -417h56q82 232 159 417l224 504h235l41 -506q10 -136 14 -415h54q60 165 161 417l211 504h191l-481 -1077h-273l-31 451q-18 304 -18 473h-41q-90 -247 -186 -473zM1153 1178l-201 208l-274 -208l-64 67
l322 287h70l217 -287z" />
    <glyph glyph-name="wdieresis.sc" horiz-adv-x="1599" 
d="M668 451l-187 -451h-264l-108 1077h194l35 -504q14 -329 14 -417h56q82 232 159 417l224 504h235l41 -506q10 -136 14 -415h54q60 165 161 417l211 504h191l-481 -1077h-273l-31 451q-18 304 -18 473h-41q-90 -247 -186 -473zM668 1438h192l-33 -191h-192zM1032 1438h193
l-33 -191h-193z" />
    <glyph glyph-name="wgrave.sc" horiz-adv-x="1599" 
d="M668 451l-187 -451h-264l-108 1077h194l35 -504q14 -329 14 -417h56q82 232 159 417l224 504h235l41 -506q10 -136 14 -415h54q60 165 161 417l211 504h191l-481 -1077h-273l-31 451q-18 304 -18 473h-41q-90 -247 -186 -473zM1079 1180l-458 229l77 133l430 -274z" />
    <glyph glyph-name="yacute.sc" horiz-adv-x="1017" 
d="M516 0h-182l63 362l-305 697l4 18h191l207 -565h32l410 565h197l-5 -18l-548 -701zM465 1176l-37 92l524 270l56 -129z" />
    <glyph glyph-name="ycircumflex.sc" horiz-adv-x="1017" 
d="M516 0h-182l63 362l-305 697l4 18h191l207 -565h32l410 565h197l-5 -18l-548 -701zM858 1178l-201 208l-274 -208l-64 67l322 287h70l217 -287z" />
    <glyph glyph-name="ydieresis.sc" horiz-adv-x="1017" 
d="M516 0h-182l63 362l-305 697l4 18h191l207 -565h32l410 565h197l-5 -18l-548 -701zM373 1438h192l-33 -191h-192zM737 1438h193l-33 -191h-192z" />
    <glyph glyph-name="zacute.sc" horiz-adv-x="1079" 
d="M940 164l-31 -164h-925l28 156l830 762l-8 20q-240 -25 -379 -25h-289l31 164h899l-27 -151l-836 -768l7 -19q260 25 397 25h303zM487 1176l-36 92l524 270l55 -129z" />
    <glyph glyph-name="zcaron.sc" horiz-adv-x="1079" 
d="M940 164l-31 -164h-925l28 156l830 762l-8 20q-240 -25 -379 -25h-289l31 164h899l-27 -151l-836 -768l7 -19q260 25 397 25h303zM672 1194h-70l-217 287l72 67l198 -209l277 209l59 -67z" />
    <glyph glyph-name="zdotaccent.sc" horiz-adv-x="1079" 
d="M940 164l-31 -164h-925l28 156l830 762l-8 20q-240 -25 -379 -25h-289l31 164h899l-27 -151l-836 -768l7 -19q260 25 397 25h303zM584 1456h200l-32 -196h-203z" />
    <glyph glyph-name="germandbls.sc" horiz-adv-x="1198" 
d="M737 -20q-250 0 -356 182l102 112q85 -141 256 -141q165 0 187 121q11 65 -28 102.5t-122 67.5q-111 39 -167.5 97.5t-39.5 156.5q14 84 100.5 145t215.5 101l-4 16q-122 -14 -260 -14q-231 0 -281 -267l-115 -659h-182l119 676q34 196 156 298.5t325 102.5h440l-22 -149
q-167 -61 -243.5 -111.5t-86.5 -109.5q-8 -56 28.5 -88.5t121.5 -63.5q124 -47 178.5 -123t32.5 -199q-21 -116 -111 -184.5t-244 -68.5z" />
    <glyph glyph-name="a.alt" horiz-adv-x="1009" 
d="M365 123q130 0 220 65t109 168l11 54h-285q-193 0 -217 -131q-10 -69 27.5 -112.5t134.5 -43.5zM639 0l41 227h-18q-57 -119 -152 -183t-213 -64q-144 0 -216 79.5t-48 221.5q21 119 116 185t263 66h313l14 78q20 108 -21 164.5t-157 56.5q-188 0 -260 -190l-160 47
q112 291 428 291q205 0 290 -102t52 -285l-104 -592h-168z" />
    <glyph glyph-name="aacute.alt" horiz-adv-x="1009" 
d="M459 1065l-37 92l524 270l55 -129zM365 123q130 0 220 65t109 168l11 54h-285q-193 0 -217 -131q-10 -69 27.5 -112.5t134.5 -43.5zM639 0l41 227h-18q-57 -119 -152 -183t-213 -64q-144 0 -216 79.5t-48 221.5q21 119 116 185t263 66h313l14 78q20 108 -21 164.5
t-157 56.5q-188 0 -260 -190l-160 47q112 291 428 291q205 0 290 -102t52 -285l-104 -592h-168z" />
    <glyph glyph-name="abreve.alt" horiz-adv-x="1009" 
d="M633 1217q82 0 137.5 43t81.5 149h98q-27 -162 -107 -239.5t-214 -77.5q-142 0 -209 79.5t-39 237.5h96q-10 -105 32.5 -148.5t123.5 -43.5zM365 123q130 0 220 65t109 168l11 54h-285q-193 0 -217 -131q-10 -69 27.5 -112.5t134.5 -43.5zM639 0l41 227h-18
q-57 -119 -152 -183t-213 -64q-144 0 -216 79.5t-48 221.5q21 119 116 185t263 66h313l14 78q20 108 -21 164.5t-157 56.5q-188 0 -260 -190l-160 47q112 291 428 291q205 0 290 -102t52 -285l-104 -592h-168z" />
    <glyph glyph-name="acircumflex.alt" horiz-adv-x="1009" 
d="M852 1067l-201 209l-274 -209l-64 68l322 286h70l217 -286zM365 123q130 0 220 65t109 168l11 54h-285q-193 0 -217 -131q-10 -69 27.5 -112.5t134.5 -43.5zM639 0l41 227h-18q-57 -119 -152 -183t-213 -64q-144 0 -216 79.5t-48 221.5q21 119 116 185t263 66h313l14 78
q20 108 -21 164.5t-157 56.5q-188 0 -260 -190l-160 47q112 291 428 291q205 0 290 -102t52 -285l-104 -592h-168z" />
    <glyph glyph-name="adieresis.alt" horiz-adv-x="1009" 
d="M367 1327h192l-33 -190h-192zM731 1327h193l-33 -190h-193zM365 123q130 0 220 65t109 168l11 54h-285q-193 0 -217 -131q-10 -69 27.5 -112.5t134.5 -43.5zM639 0l41 227h-18q-57 -119 -152 -183t-213 -64q-144 0 -216 79.5t-48 221.5q21 119 116 185t263 66h313l14 78
q20 108 -21 164.5t-157 56.5q-188 0 -260 -190l-160 47q112 291 428 291q205 0 290 -102t52 -285l-104 -592h-168z" />
    <glyph glyph-name="agrave.alt" horiz-adv-x="1009" 
d="M778 1069l-459 229l78 134l430 -275zM365 123q130 0 220 65t109 168l11 54h-285q-193 0 -217 -131q-10 -69 27.5 -112.5t134.5 -43.5zM639 0l41 227h-18q-57 -119 -152 -183t-213 -64q-144 0 -216 79.5t-48 221.5q21 119 116 185t263 66h313l14 78q20 108 -21 164.5
t-157 56.5q-188 0 -260 -190l-160 47q112 291 428 291q205 0 290 -102t52 -285l-104 -592h-168z" />
    <glyph glyph-name="amacron.alt" horiz-adv-x="1009" 
d="M362 1274h558l-23 -131h-557zM365 123q130 0 220 65t109 168l11 54h-285q-193 0 -217 -131q-10 -69 27.5 -112.5t134.5 -43.5zM639 0l41 227h-18q-57 -119 -152 -183t-213 -64q-144 0 -216 79.5t-48 221.5q21 119 116 185t263 66h313l14 78q20 108 -21 164.5t-157 56.5
q-188 0 -260 -190l-160 47q112 291 428 291q205 0 290 -102t52 -285l-104 -592h-168z" />
    <glyph glyph-name="aogonek.alt" horiz-adv-x="1030" 
d="M365 123q130 0 220 65t109 168l11 54h-285q-193 0 -217 -131q-10 -69 27.5 -112.5t134.5 -43.5zM743 -324q-67 -12 -127 -12q-111 0 -161.5 41.5t-38.5 114.5q23 126 229 180h-6l41 227h-18q-57 -119 -152 -183t-213 -64q-144 0 -216 79.5t-48 221.5q21 119 116 185
t263 66h313l14 78q20 108 -21 164.5t-157 56.5q-188 0 -260 -190l-160 47q112 291 428 291q205 0 290 -102t52 -285l-104 -592h-10q-127 -24 -188 -55t-70 -80q-7 -38 21 -56t89 -18q50 0 113 14z" />
    <glyph glyph-name="aring.alt" horiz-adv-x="1009" 
d="M524 1305q-10 -61 19 -96t88 -35q55 0 92 31.5t47 90.5q10 61 -18.5 95t-87.5 34q-55 0 -92.5 -31t-47.5 -89zM872 1282q-17 -97 -84 -152t-167 -55q-109 0 -163.5 67.5t-35.5 172.5q17 98 84.5 153.5t167.5 55.5q108 0 162.5 -67.5t35.5 -174.5zM365 123q130 0 220 65
t109 168l11 54h-285q-193 0 -217 -131q-10 -69 27.5 -112.5t134.5 -43.5zM639 0l41 227h-18q-57 -119 -152 -183t-213 -64q-144 0 -216 79.5t-48 221.5q21 119 116 185t263 66h313l14 78q20 108 -21 164.5t-157 56.5q-188 0 -260 -190l-160 47q112 291 428 291
q205 0 290 -102t52 -285l-104 -592h-168z" />
    <glyph glyph-name="aringacute.alt" horiz-adv-x="1009" 
d="M545 1534l-13 92l525 182l20 -145zM580 1270q-9 -54 16 -84.5t78 -30.5q48 0 82 28.5t43 78.5q9 55 -16 84.5t-78 29.5q-50 0 -83 -27.5t-42 -78.5zM903 1255q-17 -91 -83 -144.5t-161 -53.5q-101 0 -151 60.5t-33 160.5q17 90 82.5 143.5t161.5 53.5q100 0 150.5 -61
t33.5 -159zM365 123q130 0 220 65t109 168l11 54h-285q-193 0 -217 -131q-10 -69 27.5 -112.5t134.5 -43.5zM639 0l41 227h-18q-57 -119 -152 -183t-213 -64q-144 0 -216 79.5t-48 221.5q21 119 116 185t263 66h313l14 78q20 108 -21 164.5t-157 56.5q-188 0 -260 -190
l-160 47q112 291 428 291q205 0 290 -102t52 -285l-104 -592h-168z" />
    <glyph glyph-name="atilde.alt" horiz-adv-x="1009" 
d="M514 1427q46 0 80.5 -20.5t54.5 -50t37.5 -59t39 -50t48.5 -20.5q43 0 67 46t40 146h90q0 -34 -8 -92q-21 -114 -72 -171.5t-123 -57.5q-43 0 -75 20.5t-51.5 50t-37 59t-41 50t-53.5 20.5q-46 0 -69.5 -42t-41.5 -146h-90q0 36 8 90q21 113 72.5 170t124.5 57zM365 123
q130 0 220 65t109 168l11 54h-285q-193 0 -217 -131q-10 -69 27.5 -112.5t134.5 -43.5zM639 0l41 227h-18q-57 -119 -152 -183t-213 -64q-144 0 -216 79.5t-48 221.5q21 119 116 185t263 66h313l14 78q20 108 -21 164.5t-157 56.5q-188 0 -260 -190l-160 47q112 291 428 291
q205 0 290 -102t52 -285l-104 -592h-168z" />
    <glyph glyph-name="G.alt" horiz-adv-x="1277" 
d="M1217 512q-20 -113 -64.5 -206.5t-117.5 -168t-183.5 -116t-249.5 -41.5q-300 0 -433.5 172.5t-76.5 496.5q51 281 220 441.5t440 160.5q245 0 365 -113t138 -323l-180 -31q-11 152 -90 227.5t-240 75.5q-391 0 -471 -462q-21 -112 -10.5 -202.5t48.5 -154t112.5 -97.5
t181.5 -34q363 0 428 346h-379l27 158h557z" />
    <glyph glyph-name="Gbreve.alt" horiz-adv-x="1280" 
d="M1217 512q-20 -113 -64.5 -206.5t-117.5 -168t-183.5 -116t-249.5 -41.5q-300 0 -433.5 172.5t-76.5 496.5q51 281 220 441.5t440 160.5q245 0 365 -113t138 -323l-180 -31q-11 152 -90 227.5t-240 75.5q-391 0 -471 -462q-21 -112 -10.5 -202.5t48.5 -154t112.5 -97.5
t181.5 -34q363 0 428 346h-379l27 158h557zM819 1464q175 0 221 166h97q-45 -291 -322 -291q-141 0 -207.5 74.5t-40.5 216.5h97q-13 -166 155 -166z" />
    <glyph glyph-name="Gcircumflex.alt" horiz-adv-x="1280" 
d="M1217 512q-20 -113 -64.5 -206.5t-117.5 -168t-183.5 -116t-249.5 -41.5q-300 0 -433.5 172.5t-76.5 496.5q51 281 220 441.5t440 160.5q245 0 365 -113t138 -323l-180 -31q-11 152 -90 227.5t-240 75.5q-391 0 -471 -462q-21 -112 -10.5 -202.5t48.5 -154t112.5 -97.5
t181.5 -34q363 0 428 346h-379l27 158h557zM1044 1323l-210 172l-275 -172l-53 74l311 239h70l225 -239z" />
    <glyph glyph-name="Gcommaaccent.alt" horiz-adv-x="1280" 
d="M1217 512q-20 -113 -64.5 -206.5t-117.5 -168t-183.5 -116t-249.5 -41.5q-300 0 -433.5 172.5t-76.5 496.5q51 281 220 441.5t440 160.5q245 0 365 -113t138 -323l-180 -31q-11 152 -90 227.5t-240 75.5q-391 0 -471 -462q-21 -112 -10.5 -202.5t48.5 -154t112.5 -97.5
t181.5 -34q363 0 428 346h-379l27 158h557zM508 -113h149l-176 -309h-116l4 16z" />
    <glyph glyph-name="Gdotaccent.alt" horiz-adv-x="1280" 
d="M1217 512q-20 -113 -64.5 -206.5t-117.5 -168t-183.5 -116t-249.5 -41.5q-300 0 -433.5 172.5t-76.5 496.5q51 281 220 441.5t440 160.5q245 0 365 -113t138 -323l-180 -31q-11 152 -90 227.5t-240 75.5q-391 0 -471 -462q-21 -112 -10.5 -202.5t48.5 -154t112.5 -97.5
t181.5 -34q363 0 428 346h-379l27 158h557zM719 1583h201l-33 -197h-203z" />
    <glyph glyph-name="g.sc.alt" horiz-adv-x="1200" 
d="M1120 446q-18 -100 -57.5 -181t-106 -146.5t-170.5 -102t-237 -36.5q-271 0 -396.5 158.5t-74.5 443.5q42 243 196.5 380.5t405.5 137.5q231 0 346.5 -101t124.5 -282l-180 -33q-9 133 -81.5 194.5t-217.5 61.5q-349 0 -412 -371q-37 -204 38 -317t271 -113
q325 0 379 291h-342l23 133h510z" />
    <glyph glyph-name="gbreve.sc.alt" horiz-adv-x="1200" 
d="M1120 446q-18 -100 -57.5 -181t-106 -146.5t-170.5 -102t-237 -36.5q-271 0 -396.5 158.5t-74.5 443.5q42 243 196.5 380.5t405.5 137.5q231 0 346.5 -101t124.5 -282l-180 -33q-9 133 -81.5 194.5t-217.5 61.5q-349 0 -412 -371q-37 -204 38 -317t271 -113
q325 0 379 291h-342l23 133h510zM731 1350q82 0 137.5 43t81.5 149h99q-27 -162 -107.5 -239.5t-214.5 -77.5q-142 0 -209 79.5t-39 237.5h96q-10 -105 32.5 -148.5t123.5 -43.5z" />
    <glyph glyph-name="gcircumflex.sc.alt" horiz-adv-x="1200" 
d="M1120 446q-18 -100 -57.5 -181t-106 -146.5t-170.5 -102t-237 -36.5q-271 0 -396.5 158.5t-74.5 443.5q42 243 196.5 380.5t405.5 137.5q231 0 346.5 -101t124.5 -282l-180 -33q-9 133 -81.5 194.5t-217.5 61.5q-349 0 -412 -371q-37 -204 38 -317t271 -113
q325 0 379 291h-342l23 133h510zM946 1200l-201 209l-274 -209l-63 68l321 286h70l217 -286z" />
    <glyph glyph-name="gcommaaccent.sc.alt" horiz-adv-x="1200" 
d="M1120 446q-18 -100 -57.5 -181t-106 -146.5t-170.5 -102t-237 -36.5q-271 0 -396.5 158.5t-74.5 443.5q42 243 196.5 380.5t405.5 137.5q231 0 346.5 -101t124.5 -282l-180 -33q-9 133 -81.5 194.5t-217.5 61.5q-349 0 -412 -371q-37 -204 38 -317t271 -113
q325 0 379 291h-342l23 133h510zM459 -113h149l-176 -309h-117l4 16z" />
    <glyph glyph-name="gdotaccent.sc.alt" horiz-adv-x="1200" 
d="M1120 446q-18 -100 -57.5 -181t-106 -146.5t-170.5 -102t-237 -36.5q-271 0 -396.5 158.5t-74.5 443.5q42 243 196.5 380.5t405.5 137.5q231 0 346.5 -101t124.5 -282l-180 -33q-9 133 -81.5 194.5t-217.5 61.5q-349 0 -412 -371q-37 -204 38 -317t271 -113
q325 0 379 291h-342l23 133h510zM647 1479h201l-33 -197h-203z" />
    <glyph glyph-name="g.alt" horiz-adv-x="1021" 
d="M537 815q-120 0 -185.5 -49.5t-79.5 -134.5q-16 -90 34 -144.5t177 -54.5q237 0 273 186q15 93 -40 145t-179 52zM379 -213q133 0 210.5 16t109 44.5t40.5 76.5q8 49 -23.5 79t-107.5 30h-342q-84 0 -135 -36.5t-59 -84.5q-8 -46 15 -72t93 -39.5t199 -13.5zM885 -94
q-24 -134 -141.5 -193t-383.5 -59q-260 0 -359.5 57t-80.5 162q20 116 242 160l2 8q-111 25 -96 125q14 67 120 119l86 51q-98 38 -138.5 119.5t-20.5 195.5q27 153 144 229t302 76h483l-26 -141h-113q-70 0 -196 12l-4 -18q230 -53 198 -236q-23 -131 -134.5 -200.5
t-297.5 -69.5q-97 0 -174 25l-39 -47q-36 -43 -41 -66q-4 -30 18 -43.5t72 -13.5q55 0 166 1t162 1q142 0 206.5 -68t43.5 -186z" />
    <glyph glyph-name="gbreve.alt" horiz-adv-x="1021" 
d="M631 1217q82 0 137.5 43t81.5 149h98q-27 -162 -107 -239.5t-214 -77.5q-142 0 -209 79.5t-39 237.5h96q-10 -105 32.5 -148.5t123.5 -43.5zM537 815q-120 0 -185.5 -49.5t-79.5 -134.5q-16 -90 34 -144.5t177 -54.5q237 0 273 186q15 93 -40 145t-179 52zM379 -213
q133 0 210.5 16t109 44.5t40.5 76.5q8 49 -23.5 79t-107.5 30h-342q-84 0 -135 -36.5t-59 -84.5q-8 -46 15 -72t93 -39.5t199 -13.5zM885 -94q-24 -134 -141.5 -193t-383.5 -59q-260 0 -359.5 57t-80.5 162q20 116 242 160l2 8q-111 25 -96 125q14 67 120 119l86 51
q-98 38 -138.5 119.5t-20.5 195.5q27 153 144 229t302 76h483l-26 -141h-113q-70 0 -196 12l-4 -18q230 -53 198 -236q-23 -131 -134.5 -200.5t-297.5 -69.5q-97 0 -174 25l-39 -47q-36 -43 -41 -66q-4 -30 18 -43.5t72 -13.5q55 0 166 1t162 1q142 0 206.5 -68t43.5 -186z
" />
    <glyph glyph-name="gcircumflex.alt" horiz-adv-x="1021" 
d="M848 1067l-201 209l-274 -209l-64 68l322 286h69l218 -286zM537 815q-120 0 -185.5 -49.5t-79.5 -134.5q-16 -90 34 -144.5t177 -54.5q237 0 273 186q15 93 -40 145t-179 52zM379 -213q133 0 210.5 16t109 44.5t40.5 76.5q8 49 -23.5 79t-107.5 30h-342q-84 0 -135 -36.5
t-59 -84.5q-8 -46 15 -72t93 -39.5t199 -13.5zM885 -94q-24 -134 -141.5 -193t-383.5 -59q-260 0 -359.5 57t-80.5 162q20 116 242 160l2 8q-111 25 -96 125q14 67 120 119l86 51q-98 38 -138.5 119.5t-20.5 195.5q27 153 144 229t302 76h483l-26 -141h-113q-70 0 -196 12
l-4 -18q230 -53 198 -236q-23 -131 -134.5 -200.5t-297.5 -69.5q-97 0 -174 25l-39 -47q-36 -43 -41 -66q-4 -30 18 -43.5t72 -13.5q55 0 166 1t162 1q142 0 206.5 -68t43.5 -186z" />
    <glyph glyph-name="gcommaaccent.alt" horiz-adv-x="1021" 
d="M659 1092h-149l176 309h117l-4 -19zM537 815q-120 0 -185.5 -49.5t-79.5 -134.5q-16 -90 34 -144.5t177 -54.5q237 0 273 186q15 93 -40 145t-179 52zM379 -213q133 0 210.5 16t109 44.5t40.5 76.5q8 49 -23.5 79t-107.5 30h-342q-84 0 -135 -36.5t-59 -84.5
q-8 -46 15 -72t93 -39.5t199 -13.5zM885 -94q-24 -134 -141.5 -193t-383.5 -59q-260 0 -359.5 57t-80.5 162q20 116 242 160l2 8q-111 25 -96 125q14 67 120 119l86 51q-98 38 -138.5 119.5t-20.5 195.5q27 153 144 229t302 76h483l-26 -141h-113q-70 0 -196 12l-4 -18
q230 -53 198 -236q-23 -131 -134.5 -200.5t-297.5 -69.5q-97 0 -174 25l-39 -47q-36 -43 -41 -66q-4 -30 18 -43.5t72 -13.5q55 0 166 1t162 1q142 0 206.5 -68t43.5 -186z" />
    <glyph glyph-name="gdotaccent.alt" horiz-adv-x="1021" 
d="M551 1346h201l-33 -197h-203zM537 815q-120 0 -185.5 -49.5t-79.5 -134.5q-16 -90 34 -144.5t177 -54.5q237 0 273 186q15 93 -40 145t-179 52zM379 -213q133 0 210.5 16t109 44.5t40.5 76.5q8 49 -23.5 79t-107.5 30h-342q-84 0 -135 -36.5t-59 -84.5q-8 -46 15 -72
t93 -39.5t199 -13.5zM885 -94q-24 -134 -141.5 -193t-383.5 -59q-260 0 -359.5 57t-80.5 162q20 116 242 160l2 8q-111 25 -96 125q14 67 120 119l86 51q-98 38 -138.5 119.5t-20.5 195.5q27 153 144 229t302 76h483l-26 -141h-113q-70 0 -196 12l-4 -18q230 -53 198 -236
q-23 -131 -134.5 -200.5t-297.5 -69.5q-97 0 -174 25l-39 -47q-36 -43 -41 -66q-4 -30 18 -43.5t72 -13.5q55 0 166 1t162 1q142 0 206.5 -68t43.5 -186z" />
    <glyph glyph-name="t.alt" horiz-adv-x="622" 
d="M279 0h-179l144 809h-148l27 147h147l47 269h177l-48 -269h222l-27 -147h-221z" />
    <glyph glyph-name="tbar.alt" horiz-adv-x="622" 
d="M279 0h-179l72 401h-125l19 113h124l54 295h-148l27 147h147l47 269h177l-48 -269h222l-27 -147h-221l-51 -295h192l-20 -113h-193z" />
    <glyph glyph-name="tcaron.alt" horiz-adv-x="630" 
d="M664 1386h133l-99 -329h-100zM279 0h-179l144 809h-148l27 147h147l47 269h177l-48 -269h222l-27 -147h-221z" />
    <glyph glyph-name="tcommaaccent.alt" horiz-adv-x="622" 
d="M279 0h-80l-60 -104q41 16 86 16q68 0 104 -30.5t25 -94.5q-9 -52 -60 -91.5t-142 -39.5q-126 0 -203 59l57 74q67 -49 156 -49q88 0 98 57q5 28 -15 44t-61 16q-28 0 -86 -15l-55 27l72 131h-15l144 809h-148l27 147h147l47 269h177l-48 -269h222l-27 -147h-221z" />
    <glyph glyph-name="uni021B.alt" horiz-adv-x="622" 
d="M279 0h-179l144 809h-148l27 147h147l47 269h177l-48 -269h222l-27 -147h-221zM121 -113h149l-176 -309h-117l5 16z" />
    <glyph glyph-name="zero.sc" horiz-adv-x="1089" 
d="M621 942q-150 0 -242 -104t-125 -291q-33 -193 24.5 -303.5t210.5 -110.5q150 0 242.5 107t126.5 295q33 193 -25 300t-212 107zM631 1100q240 0 346.5 -157t58.5 -427q-46 -256 -190 -397.5t-365 -141.5q-242 0 -347.5 159t-57.5 429q44 254 189.5 394.5t365.5 140.5z
" />
    <glyph glyph-name="one.sc" horiz-adv-x="888" 
d="M737 0h-739l27 154h317l135 768q-132 -63 -303 -123l-39 151l436 127h111l-164 -923h248z" />
    <glyph glyph-name="two.sc" horiz-adv-x="1077" 
d="M651 950q-131 0 -214 -71.5t-128 -219.5l-168 31q63 199 188 304.5t330 105.5q204 0 303.5 -94.5t69.5 -266.5q-13 -71 -52.5 -125.5t-107.5 -94.5t-146 -67.5t-189 -54.5q-196 -50 -271 -103t-100 -163q209 23 377 23h399l-29 -154h-925q3 23 16 100q31 179 137.5 271
t329.5 149q209 56 288.5 104.5t94.5 131.5q16 87 -36 140.5t-167 53.5z" />
    <glyph glyph-name="three.sc" horiz-adv-x="1062" 
d="M496 -18q-443 0 -455 360l176 18q5 -116 74.5 -175.5t214.5 -59.5q124 0 194.5 46.5t85.5 131.5q16 91 -30.5 131.5t-188.5 40.5h-190l22 131h187q96 0 160.5 39t80.5 121q17 93 -34 138.5t-168 45.5q-115 0 -185 -54.5t-112 -162.5l-168 21q115 342 481 342
q203 0 294.5 -82.5t63.5 -237.5q-33 -179 -284 -223l-2 -18q157 -17 211.5 -80.5t33.5 -188.5q-24 -133 -138.5 -208.5t-323.5 -75.5z" />
    <glyph glyph-name="four.sc" horiz-adv-x="1097" 
d="M1014 256h-166l-45 -256h-176l45 256h-666l23 131l749 690h215l-121 -678h168zM555 399h143l93 523l-15 4l-571 -535l6 -10q181 18 344 18z" />
    <glyph glyph-name="five.sc" horiz-adv-x="1081" 
d="M498 125q132 0 202 47.5t88 142.5q19 105 -37 157t-190 52q-80 0 -154.5 -19t-123.5 -50l-138 55l101 567h792l-30 -168q-283 0 -627 19l-64 -353q134 76 304 76q195 0 284 -92t58 -260q-29 -160 -149 -238.5t-318 -78.5q-200 0 -316 75t-151 234l172 39
q56 -205 297 -205z" />
    <glyph glyph-name="six.sc" horiz-adv-x="1083" 
d="M584 541q-148 0 -234.5 -54.5t-99.5 -134.5q-18 -97 47.5 -161t202.5 -64q259 0 299 205q19 104 -35 156.5t-180 52.5zM971 309q-28 -155 -150 -242t-325 -87q-513 0 -408 587q21 116 63 210.5t108.5 167.5t164.5 113t221 40q202 0 289.5 -88.5t93.5 -251.5l-176 -19
q-8 109 -56.5 159t-166.5 50q-161 0 -254 -112t-135 -349q-6 -25 -11 -59l23 -2q107 229 395 229q171 0 262.5 -84.5t61.5 -261.5z" />
    <glyph glyph-name="seven.sc" horiz-adv-x="978" 
d="M104 913l29 164h930l-29 -159q-459 -377 -592 -918h-213q65 260 232 500t407 428q-216 -15 -374 -15h-390z" />
    </font>
</defs>
</svg>
