<?xml version="1.0" standalone="no"?>
<!DOCTYPE svg PUBLIC "-//W3C//DTD SVG 1.1//EN" "http://www.w3.org/Graphics/SVG/1.1/DTD/svg11.dtd" >
<svg xmlns="http://www.w3.org/2000/svg" xmlns:xlink="http://www.w3.org/1999/xlink" version="1.1">
<metadata>
Created by FontForge 20170731 at Tue Mar  1 01:18:55 2022
 By Aleksey,,,
(c) Copyright OH no Type Company, LLC. 2020. All rights reserved.
</metadata>
<defs>
<font id="Degular-Light" horiz-adv-x="1089" >
  <font-face 
    font-family="Degular Light"
    font-weight="300"
    font-stretch="normal"
    units-per-em="2048"
    panose-1="4 4 3 6 6 3 3 4 3 5"
    ascent="1372"
    descent="-676"
    x-height="948"
    cap-height="1229"
    bbox="-557 -430 2636 1845"
    underline-thickness="102"
    underline-position="-446"
    unicode-range="U+0020-FB02"
  />
<missing-glyph horiz-adv-x="1751" 
d="M745 43q42 0 75.5 1.5t65 6.5t51 8.5t58.5 12t62 12.5q0 173 44.5 287t106.5 176l21 -23q-32 -72 -64 -237q128 72 194 191t66 302q0 259 -130 392t-392 133q-208 0 -339 -103.5t-161 -271.5q12 2 37 2q111 0 165 -67.5t54 -164.5q0 -59 -22.5 -105.5t-58.5 -73
t-76.5 -40.5t-81.5 -14h-21q3 -82 6.5 -201t4.5 -157q139 -66 335 -66zM745 -68q-282 0 -428 131q-9 253 15 422q-59 26 -94 80.5t-35 130.5q0 71 33.5 127t93.5 84q3 218 158.5 356t422.5 138q302 0 456.5 -157.5t154.5 -446.5q0 -141 -36.5 -257t-122 -208t-214.5 -135
q-19 -144 -19 -179q-138 -86 -385 -86zM944 936q113 0 174.5 -67t61.5 -162q0 -109 -77 -183.5t-177 -74.5t-167 66.5t-67 178.5q0 98 65.5 170t186.5 72z" />
    <glyph glyph-name=".notdef" horiz-adv-x="1751" 
d="M745 43q42 0 75.5 1.5t65 6.5t51 8.5t58.5 12t62 12.5q0 173 44.5 287t106.5 176l21 -23q-32 -72 -64 -237q128 72 194 191t66 302q0 259 -130 392t-392 133q-208 0 -339 -103.5t-161 -271.5q12 2 37 2q111 0 165 -67.5t54 -164.5q0 -59 -22.5 -105.5t-58.5 -73
t-76.5 -40.5t-81.5 -14h-21q3 -82 6.5 -201t4.5 -157q139 -66 335 -66zM745 -68q-282 0 -428 131q-9 253 15 422q-59 26 -94 80.5t-35 130.5q0 71 33.5 127t93.5 84q3 218 158.5 356t422.5 138q302 0 456.5 -157.5t154.5 -446.5q0 -141 -36.5 -257t-122 -208t-214.5 -135
q-19 -144 -19 -179q-138 -86 -385 -86zM944 936q113 0 174.5 -67t61.5 -162q0 -109 -77 -183.5t-177 -74.5t-167 66.5t-67 178.5q0 98 65.5 170t186.5 72z" />
    <glyph glyph-name=".null" horiz-adv-x="0" 
 />
    <glyph glyph-name="nonmarkingreturn" horiz-adv-x="682" 
 />
    <glyph glyph-name="space" unicode=" " horiz-adv-x="413" 
 />
    <glyph glyph-name="exclam" unicode="!" horiz-adv-x="475" 
d="M293 426h-113v803h113v-803zM154 168h168v-168h-168v168z" />
    <glyph glyph-name="quotedbl" unicode="&#x22;" horiz-adv-x="630" 
d="M115 1229h118l-22 -539h-66zM399 1229h119l-22 -539h-66z" />
    <glyph glyph-name="numbersign" unicode="#" horiz-adv-x="1392" 
d="M893 0h-88l31 352h-332l-37 -352h-88l33 352h-340v105h348l31 325h-379v105h389l31 342h100l-35 -342h330l31 342h100l-35 -342h338v-105h-348l-33 -325h381v-105h-393zM500 444h356l33 353h-354z" />
    <glyph glyph-name="dollar" unicode="$" horiz-adv-x="1114" 
d="M524 1462h105l-8 -225q165 -16 254 -105t126 -247l-112 -25q-34 146 -109.5 213.5t-232.5 67.5q-152 0 -229.5 -56t-77.5 -157q0 -97 77.5 -157t284.5 -99q125 -24 210 -58t133 -78t68.5 -94t20.5 -114q0 -153 -101 -242t-312 -96l8 -244h-105l11 246q-411 26 -467 405
l108 25q28 -166 127.5 -250t284.5 -84q170 0 252 61.5t82 169.5q0 104 -79 160.5t-272 91.5q-240 42 -341 128.5t-101 222.5q0 142 105 227.5t301 89.5z" />
    <glyph glyph-name="percent" unicode="%" horiz-adv-x="1490" 
d="M391 571q-143 0 -228 92t-85 250q0 156 85 246t228 90t228.5 -90t85.5 -246q0 -158 -85.5 -250t-228.5 -92zM389 659q107 0 164 68t57 186q0 117 -57 182.5t-162 65.5t-162 -65.5t-57 -182.5q0 -119 55 -186.5t162 -67.5zM1102 -20q-143 0 -228.5 92t-85.5 250
q0 157 85 246t229 89q143 0 228 -89t85 -246t-85.5 -249.5t-227.5 -92.5zM1100 68q107 0 163 68t56 186q0 116 -56.5 181.5t-160.5 65.5q-105 0 -162 -65.5t-57 -181.5q0 -119 55 -186.5t162 -67.5zM1200 1229h133v-12l-493 -525l-47 41zM301 0h-133v12l494 525l47 -41z" />
    <glyph glyph-name="ampersand" unicode="&#x26;" horiz-adv-x="1353" 
d="M410 918q0 -103 49 -226q187 50 276.5 121t89.5 174q0 170 -184 170q-107 0 -169 -61.5t-62 -177.5zM1313 92l2 -98q-47 -8 -101 -8q-197 0 -393 123q-72 -60 -172 -94.5t-211 -34.5q-171 0 -268.5 83t-97.5 238q0 135 74.5 219t215.5 139q-59 142 -59 259
q0 159 95.5 245t242.5 86t220 -71t73 -185q0 -55 -19 -102.5t-54 -83t-76.5 -64t-95.5 -50.5t-100.5 -36.5t-101.5 -27.5q60 -121 154 -230t207 -184q219 225 256 518l104 -10q-17 -156 -98.5 -299.5t-204.5 -243.5q155 -90 314 -90q65 0 94 2zM459 76q162 0 297 78
q-115 87 -209 202.5t-156 241.5q-215 -80 -215 -287q0 -110 75.5 -172.5t207.5 -62.5z" />
    <glyph glyph-name="quotesingle" unicode="'" horiz-adv-x="348" 
d="M115 1229h118l-22 -539h-66z" />
    <glyph glyph-name="parenleft" unicode="(" horiz-adv-x="669" 
d="M248 520q0 -264 80.5 -476.5t273.5 -410.5l-65 -57q-211 199 -306.5 433t-95.5 511t95.5 511t306.5 433l65 -57q-192 -197 -273 -410t-81 -477z" />
    <glyph glyph-name="parenright" unicode=")" horiz-adv-x="669" 
d="M422 520q0 264 -80.5 476.5t-273.5 410.5l65 57q210 -199 306 -433.5t96 -510.5t-96 -510.5t-306 -433.5l-65 57q192 197 273 410t81 477z" />
    <glyph glyph-name="asterisk" unicode="*" horiz-adv-x="1017" 
d="M449 1372h122l-28 -373h-60zM35 983l37 115l346 -144l-17 -55zM279 469l-99 72l240 284l47 -32zM842 541l-99 -72l-194 319l45 35zM946 1098l37 -115l-362 -88l-19 55z" />
    <glyph glyph-name="plus" unicode="+" horiz-adv-x="1013" 
d="M451 180v393h-381v103h381v385h112v-385h381v-103h-381v-393h-112z" />
    <glyph glyph-name="comma" unicode="," horiz-adv-x="329" 
d="M135 227h115l-201 -540h-82v12z" />
    <glyph glyph-name="hyphen" unicode="-" horiz-adv-x="716" 
d="M49 549h619v-109h-619v109z" />
    <glyph glyph-name="period" unicode="." horiz-adv-x="360" 
d="M96 168h168v-168h-168v168z" />
    <glyph glyph-name="slash" unicode="/" horiz-adv-x="624" 
d="M150 -309h-111l444 1624h107z" />
    <glyph glyph-name="zero" unicode="0" horiz-adv-x="1153" 
d="M575 1149q-130 0 -218.5 -69t-129.5 -186.5t-41 -277.5q0 -119 23.5 -216t70 -169t122 -111.5t173.5 -39.5q99 0 174.5 39.5t122 111.5t70 169t23.5 216q0 245 -98 389t-292 144zM575 1251q161 0 275.5 -81t171.5 -223t57 -331q0 -190 -56 -332.5t-171 -224.5t-277 -82
q-161 0 -275.5 82t-170 224.5t-55.5 332.5q0 289 130.5 462t370.5 173z" />
    <glyph glyph-name="one" unicode="1" horiz-adv-x="925" 
d="M848 0h-754v102h363v1024q-122 -58 -336 -143l-39 100l424 146h63v-1127h279v-102z" />
    <glyph glyph-name="two" unicode="2" horiz-adv-x="1144" 
d="M621 1151q-167 0 -261 -94.5t-122 -292.5l-107 16q72 469 487 469q200 0 307 -90t107 -258q0 -67 -21 -123t-57 -97.5t-94.5 -78t-123 -64t-152.5 -55.5q-157 -53 -236 -101.5t-114 -116t-39 -179.5q205 14 442 14h420v-100h-963v80q0 138 47 229.5t137.5 148.5
t249.5 107q213 67 302.5 143t89.5 197q0 113 -74 179.5t-225 66.5z" />
    <glyph glyph-name="three" unicode="3" horiz-adv-x="1130" 
d="M598 -20q-450 0 -526 419l112 19q32 -170 130.5 -255t283.5 -85q164 0 253 67.5t89 188.5q0 84 -27.5 134t-100.5 77.5t-200 27.5h-209v95h201q120 0 198.5 59t78.5 180q0 130 -70 187t-217 57q-153 0 -235 -76t-113 -225l-109 18q34 180 145.5 280.5t309.5 100.5
q399 0 399 -323q0 -230 -250 -293v-19q174 -17 243 -83.5t69 -200.5q0 -166 -112 -258t-343 -92z" />
    <glyph glyph-name="four" unicode="4" horiz-adv-x="1175" 
d="M1130 311h-204v-311h-111v311h-762v95l750 823h123v-819h204v-99zM563 410h252v688l-10 2l-627 -690l10 -19q234 19 375 19z" />
    <glyph glyph-name="five" unicode="5" horiz-adv-x="1161" 
d="M616 78q169 0 252.5 72t83.5 225q0 135 -83 200.5t-253 65.5q-94 0 -187 -26.5t-144 -61.5l-99 37v639h811v-105q-357 0 -706 17v-508q147 100 348 100q207 0 316.5 -89.5t109.5 -268.5q0 -199 -119.5 -297t-331.5 -98q-197 0 -325.5 83.5t-204.5 264.5l106 43
q58 -143 160 -218t266 -75z" />
    <glyph glyph-name="six" unicode="6" horiz-adv-x="1140" 
d="M614 664q-195 0 -302 -85.5t-107 -205.5q0 -127 101.5 -211t279.5 -84q348 0 348 319q0 267 -320 267zM1047 395q0 -194 -119.5 -304.5t-347.5 -110.5q-116 0 -205 32t-157 101t-104 187.5t-36 281.5q0 150 28 268.5t87 209.5t159.5 140t237.5 49q204 0 303 -93.5
t133 -283.5l-106 -18q-32 153 -107 225t-223 72q-209 0 -309.5 -143.5t-100.5 -432.5q0 -61 2 -106h19q36 138 145.5 211.5t292.5 73.5q85 0 156.5 -20.5t129 -62t90 -112t32.5 -164.5z" />
    <glyph glyph-name="seven" unicode="7" horiz-adv-x="1048" 
d="M29 1124v105h999v-105q-465 -465 -522 -1124h-121q27 304 167.5 607.5t371.5 535.5q-260 -19 -459 -19h-436z" />
    <glyph glyph-name="eight" unicode="8" horiz-adv-x="1128" 
d="M565 -20q-487 0 -487 337q0 54 17.5 100t55.5 86.5t106 68t161 38.5v23q-137 27 -208.5 100.5t-70.5 192.5q2 151 107.5 237t318.5 86q214 0 320 -86t106 -237q0 -239 -278 -293v-23q93 -11 161 -38.5t106 -68t55.5 -86.5t17.5 -100q0 -337 -488 -337zM565 573
q-88 0 -155 -15t-108 -38.5t-67 -57t-35.5 -67.5t-9.5 -73q0 -118 94 -181t281 -63t281 63t94 181q0 39 -9.5 73t-35.5 67.5t-67 57t-108 38.5t-155 15zM565 1151q-163 0 -238 -64t-75 -178q-1 -124 84.5 -184.5t228.5 -62.5q143 2 229.5 62.5t86.5 184.5q0 113 -76.5 177.5
t-239.5 64.5z" />
    <glyph glyph-name="nine" unicode="9" horiz-adv-x="1150" 
d="M532 571q192 0 298 84t106 201q0 126 -99.5 209.5t-275.5 83.5q-177 0 -260.5 -83.5t-83.5 -225.5q0 -137 82 -203t233 -66zM561 -20q-216 0 -328.5 94t-146.5 278l107 19q58 -293 368 -293q203 0 301.5 143t98.5 430q0 39 -3 107h-20q-35 -131 -142 -204t-286 -73
q-85 0 -156.5 20.5t-129 62t-90 113t-32.5 165.5q0 185 120.5 296t342.5 111q115 0 203.5 -32t156 -101t103 -187t35.5 -282q0 -150 -27.5 -268.5t-85.5 -209.5t-156.5 -140t-232.5 -49z" />
    <glyph glyph-name="colon" unicode=":" horiz-adv-x="391" 
d="M111 948h168v-168h-168v168zM111 168h168v-168h-168v168z" />
    <glyph glyph-name="semicolon" unicode=";" horiz-adv-x="395" 
d="M152 227h114l-200 -540h-82v12zM113 948h168v-168h-168v168z" />
    <glyph glyph-name="less" unicode="&#x3c;" horiz-adv-x="1060" 
d="M952 39l-882 434v107l882 434v-123l-387 -174q-204 -91 -407 -166v-49q227 -82 405 -164l389 -176v-123z" />
    <glyph glyph-name="equal" unicode="=" horiz-adv-x="1077" 
d="M975 401h-873v99h873v-99zM975 737h-873v99h873v-99z" />
    <glyph glyph-name="greater" unicode="&#x3e;" horiz-adv-x="1060" 
d="M106 41v123l388 174q198 88 405 166v49q-227 83 -405 164l-388 176v123l883 -434v-107z" />
    <glyph glyph-name="question" unicode="?" horiz-adv-x="989" 
d="M664 569q-80 -36 -106 -83t-26 -105v-21h-110v23q0 91 40 150t138 110q124 60 170.5 115t46.5 151q0 116 -73.5 178t-213.5 62q-170 0 -259 -94t-115 -279l-111 15q28 215 146.5 336.5t338.5 121.5q193 0 296.5 -88t103.5 -250q0 -68 -21 -123t-60 -95.5t-83 -69
t-102 -54.5zM393 168h168v-168h-168v168z" />
    <glyph glyph-name="at" unicode="@" horiz-adv-x="1703" 
d="M805 -229q-171 0 -303.5 39t-228.5 120t-146.5 211t-50.5 305q0 147 34.5 282t106 252t173 203t244 135.5t310.5 49.5q141 0 256.5 -34.5t194 -94.5t132.5 -143t78.5 -177.5t24.5 -201.5q0 -152 -30.5 -267.5t-84 -184t-120.5 -102.5t-146 -34q-115 0 -168 60.5
t-53 164.5q0 14 4 64h-14q-54 -144 -129 -216.5t-180 -72.5q-103 0 -162.5 72.5t-59.5 218.5q0 145 38 263.5t120 194.5t195 76q90 0 147.5 -51t77.5 -137h10l23 178h98l-68 -522q-27 -207 132 -207q56 0 103.5 27.5t86 83.5t60.5 152.5t22 223.5q0 98 -19 181t-64 156
t-112.5 124.5t-170 81t-232.5 29.5q-148 0 -272.5 -44t-213 -120.5t-150.5 -181t-92 -225.5t-30 -254q0 -590 633 -590q101 0 221 24t197 60h22v-80q-192 -92 -444 -92zM1059 653q13 98 -41.5 154.5t-161.5 56.5q-131 0 -198.5 -115.5t-67.5 -320.5q0 -209 141 -209
q121 0 209 106.5t109 254.5z" />
    <glyph glyph-name="A" unicode="A" horiz-adv-x="1171" 
d="M1042 0l-159 393h-598l-158 -393h-121l508 1229h143l508 -1229h-123zM383 639l-61 -152h524l-62 152q-90 222 -176 485h-45q-82 -240 -180 -485z" />
    <glyph glyph-name="B" unicode="B" horiz-adv-x="1146" 
d="M653 569h-381v-471h396q148 0 222.5 64t74.5 172q0 115 -73 175t-239 60zM641 1128h-369v-462h355q125 0 198.5 57t73.5 182q0 114 -61.5 168.5t-196.5 54.5zM158 0v1229h473q381 0 381 -314q0 -114 -61 -185.5t-171 -98.5v-17q149 -19 224 -88t75 -196
q0 -151 -100 -240.5t-309 -89.5h-512z" />
    <glyph glyph-name="C" unicode="C" horiz-adv-x="1275" 
d="M647 -23q-273 0 -422 173t-149 466q0 291 152.5 463t422.5 172q226 0 366.5 -121t176.5 -331l-107 -25q-77 373 -434 373q-229 0 -347 -141.5t-118 -389.5q0 -252 117 -393t344 -141q371 0 445 383l108 -23q-36 -217 -178 -341t-377 -124z" />
    <glyph glyph-name="D" unicode="D" horiz-adv-x="1290" 
d="M590 1128h-318v-1028h332q257 0 377.5 136t120.5 382q0 260 -123.5 385t-388.5 125zM158 0v1229h446q304 0 458.5 -156.5t154.5 -454.5q0 -291 -161 -454.5t-442 -163.5h-456z" />
    <glyph glyph-name="E" unicode="E" horiz-adv-x="1077" 
d="M158 0v1229h805v-105h-691v-444h613v-105h-613v-471h689v-104h-803z" />
    <glyph glyph-name="F" unicode="F" horiz-adv-x="1003" 
d="M850 539h-578v-539h-114v1229h770v-107h-656v-479h578v-104z" />
    <glyph glyph-name="G" unicode="G" horiz-adv-x="1312" 
d="M641 -20q-269 0 -421 159t-152 461q0 194 63.5 338.5t196.5 227.5t323 83q228 0 365 -119t176 -333l-107 -23q-41 189 -147.5 281t-284.5 92q-124 0 -215.5 -39t-147 -112t-82 -171.5t-26.5 -224.5q0 -246 118.5 -382t361.5 -136q99 0 175.5 21.5t124.5 57t79 86.5
t43 106t12 120v-4v33h-439v102h547v-604h-106v285h-15q-43 -136 -153 -220.5t-289 -84.5z" />
    <glyph glyph-name="H" unicode="H" horiz-adv-x="1302" 
d="M1143 0h-115v561h-756v-561h-114v1229h114v-563h756v563h115v-1229z" />
    <glyph glyph-name="I" unicode="I" horiz-adv-x="432" 
d="M272 0h-114v1229h114v-1229z" />
    <glyph glyph-name="J" unicode="J" horiz-adv-x="618" 
d="M346 295v934h113v-932q0 -313 -281 -313q-75 0 -149 14l8 102q70 -12 131 -12q94 0 136 52t42 155z" />
    <glyph glyph-name="K" unicode="K" horiz-adv-x="1130" 
d="M989 0l-614 535h-103v-535h-114v1229h114v-594h99l587 594h129v-23l-626 -614l663 -569v-23h-135z" />
    <glyph glyph-name="L" unicode="L" horiz-adv-x="925" 
d="M272 1229v-1125h607v-104h-721v1229h114z" />
    <glyph glyph-name="M" unicode="M" horiz-adv-x="1597" 
d="M270 672v-672h-112v1229h202l265 -635q69 -169 153 -401h39q90 255 154 403l272 633h197v-1229h-115v672q0 71 6 458h-41q-91 -263 -184 -479l-250 -571h-131l-246 579q-84 201 -174 471h-37q2 -66 2 -458z" />
    <glyph glyph-name="N" unicode="N" horiz-adv-x="1294" 
d="M981 0l-444 696q-118 182 -234 420l-49 -2q16 -227 16 -598v-516h-112v1229h176l393 -617q136 -213 272 -479l43 2q-18 288 -18 578v516h111v-1229h-154z" />
    <glyph glyph-name="O" unicode="O" horiz-adv-x="1349" 
d="M674 -23q-189 0 -326 82.5t-205.5 225.5t-68.5 331t69 330t205.5 223.5t325.5 81.5q284 0 443 -174.5t159 -460.5q0 -188 -68.5 -331t-206 -225.5t-327.5 -82.5zM674 82q241 0 364 145t123 389q0 243 -124 387t-363 144q-237 0 -361.5 -144t-124.5 -387q0 -119 30 -216
t89 -168.5t152.5 -110.5t214.5 -39z" />
    <glyph glyph-name="P" unicode="P" horiz-adv-x="1058" 
d="M602 1128h-330v-534h332q156 0 227.5 64t71.5 202q0 142 -67.5 205t-233.5 63zM616 494h-344v-494h-114v1229h456q199 0 301.5 -92t102.5 -275q0 -170 -105 -269t-297 -99z" />
    <glyph glyph-name="Q" unicode="Q" horiz-adv-x="1351" 
d="M674 82q241 0 364 145t123 389q0 243 -124 387t-363 144q-237 0 -361.5 -144t-124.5 -387q0 -119 30 -216t89 -168.5t152.5 -110.5t214.5 -39zM674 -23q-189 0 -326 82.5t-205.5 225.5t-68.5 331t69 330t205.5 223.5t325.5 81.5q284 0 443 -174.5t159 -460.5
q0 -178 -62.5 -316.5t-183.5 -221.5l160 -258v-23h-115l-133 232q-120 -52 -268 -52z" />
    <glyph glyph-name="R" unicode="R" horiz-adv-x="1191" 
d="M606 1128h-334v-495h336q150 0 233 64t83 186q0 125 -71.5 185t-246.5 60zM981 0l-395 532h-314v-532h-114v1229h460q217 0 318.5 -90.5t101.5 -255.5q0 -143 -85.5 -233.5t-247.5 -110.5l403 -516v-23h-127z" />
    <glyph glyph-name="S" unicode="S" horiz-adv-x="1116" 
d="M588 -23q-235 1 -363 111t-157 309l108 25q28 -170 127.5 -256t284.5 -86q170 0 251 62t81 173q0 106 -78.5 163.5t-270.5 92.5q-163 30 -262.5 82t-139.5 118t-40 157q0 149 109 236t313 87q103 0 181 -25t130 -75t85 -114t54 -152l-112 -25q-36 152 -110.5 221.5
t-231.5 69.5q-151 0 -228 -58t-77 -161q0 -65 29.5 -110t110.5 -83.5t222 -66.5q124 -24 209 -58t133 -79t68 -95.5t20 -115.5q0 -161 -109.5 -254t-336.5 -93z" />
    <glyph glyph-name="T" unicode="T" horiz-adv-x="1036" 
d="M35 1122v107h966v-107h-426v-1122h-114v1122h-426z" />
    <glyph glyph-name="U" unicode="U" horiz-adv-x="1282" 
d="M653 82q195 0 276 98t81 281v768h114v-772q0 -234 -120 -355.5t-351 -121.5q-235 0 -365 121.5t-130 355.5v772h114v-756q0 -391 381 -391z" />
    <glyph glyph-name="V" unicode="V" horiz-adv-x="1171" 
d="M657 0h-143l-508 1229h121l258 -639q111 -274 176 -486h47q75 218 183 486l256 639h118z" />
    <glyph glyph-name="W" unicode="W" horiz-adv-x="1699" 
d="M678 510l-143 -510h-179l-340 1229h125l160 -623q72 -280 121 -504h55q76 324 123 502l176 625h152l176 -625q59 -210 123 -502h53q48 216 121 504l162 623h120l-340 -1229h-178l-145 510q-104 371 -150 606h-41q-81 -357 -151 -606z" />
    <glyph glyph-name="X" unicode="X" horiz-adv-x="1126" 
d="M973 0l-408 563h-18l-400 -563h-114v23l448 595l-442 588v23h121l389 -551h26l394 551h114v-23l-444 -588l453 -595v-23h-119z" />
    <glyph glyph-name="Y" unicode="Y" horiz-adv-x="1071" 
d="M592 0h-113v434l-479 772v23h119l407 -703h23l405 703h115v-23l-477 -776v-430z" />
    <glyph glyph-name="Z" unicode="Z" horiz-adv-x="1138" 
d="M1040 106v-106h-964v106l829 1024l-6 15q-265 -23 -448 -23h-351v107h940v-103l-837 -1028l8 -14q284 22 487 22h342z" />
    <glyph glyph-name="bracketleft" unicode="[" horiz-adv-x="569" 
d="M147 -381v1794h365v-98h-252v-1596h252v-100h-365z" />
    <glyph glyph-name="backslash" unicode="\" horiz-adv-x="624" 
d="M492 -309l-441 1624h107l444 -1624h-110z" />
    <glyph glyph-name="bracketright" unicode="]" horiz-adv-x="569" 
d="M57 -381v98h254v1596h-254v100h365v-1794h-365z" />
    <glyph glyph-name="asciicircum" unicode="^" horiz-adv-x="1015" 
d="M879 514l-369 438l-371 -438l-61 49l397 496h66l399 -496z" />
    <glyph glyph-name="underscore" unicode="_" horiz-adv-x="942" 
d="M0 0h942v-98h-942v98z" />
    <glyph glyph-name="grave" unicode="`" horiz-adv-x="610" 
d="M535 1077l-492 240l53 94l467 -276z" />
    <glyph glyph-name="a" unicode="a" horiz-adv-x="997" 
d="M408 76q156 0 252 75.5t96 192.5v78h-336q-230 0 -230 -178q0 -73 52.5 -120.5t165.5 -47.5zM760 0v225h-15q-36 -121 -129.5 -183t-226.5 -62q-305 0 -305 260q0 119 85 193.5t243 74.5h344v98q0 134 -58.5 200t-195.5 66q-224 0 -277 -227l-104 31q32 141 131.5 217
t251.5 76q360 0 360 -359v-610h-104z" />
    <glyph glyph-name="b" unicode="b" horiz-adv-x="1097" 
d="M594 76q315 0 315 399q0 199 -77.5 296t-237.5 97q-156 0 -248 -96.5t-92 -261.5v-74q0 -161 93 -260.5t247 -99.5zM254 1315v-625h10q36 127 125.5 203t233.5 76q193 0 295 -128.5t102 -367.5q0 -237 -102 -366.5t-283 -129.5q-146 0 -241.5 77.5t-131.5 205.5h-8v-260
h-109v1315h109z" />
    <glyph glyph-name="c" unicode="c" horiz-adv-x="1044" 
d="M858 608q-31 133 -103.5 197.5t-217.5 64.5q-165 0 -258 -103t-93 -296q0 -182 94.5 -287.5t264.5 -105.5q77 0 133 20t91.5 60t56.5 83t38 105l103 -29q-77 -340 -420 -340q-222 0 -346.5 133.5t-124.5 366.5q0 227 128 359.5t335 132.5q186 0 288.5 -85.5t135.5 -252.5
z" />
    <glyph glyph-name="d" unicode="d" horiz-adv-x="1095" 
d="M502 78q155 0 247.5 97t92.5 261v72q0 162 -93 262t-247 100q-316 0 -316 -397q0 -201 78 -298t238 -97zM842 0v258h-8q-37 -126 -132 -203.5t-237 -77.5q-187 0 -288 129t-101 367q0 239 103 368.5t290 127.5q150 1 238.5 -75.5t123.5 -207.5h11v629h108v-1315h-108z
" />
    <glyph glyph-name="e" unicode="e" horiz-adv-x="1034" 
d="M535 874q-153 0 -242.5 -86.5t-104.5 -252.5h668q-8 166 -85.5 252.5t-235.5 86.5zM543 -20q-221 0 -344 131.5t-123 363.5q0 229 127 361.5t334 132.5q203 0 311 -118t108 -319q0 -55 -2 -88h-768q8 -174 99.5 -271t257.5 -97q139 0 208.5 62.5t102.5 176.5l98 -30
q-77 -305 -409 -305z" />
    <glyph glyph-name="f" unicode="f" horiz-adv-x="712" 
d="M348 1016v-68h334v-98h-334v-850h-108v850h-195v98h195v70q0 151 74 234t218 83q82 0 156 -16l-8 -92q-71 14 -139 14q-104 0 -148.5 -56.5t-44.5 -168.5z" />
    <glyph glyph-name="g" unicode="g" horiz-adv-x="1013" 
d="M473 852q-136 0 -204 -60t-68 -169q0 -113 65.5 -169.5t210.5 -56.5t214 56t69 170q0 108 -74.5 168.5t-212.5 60.5zM496 -246q145 0 227.5 20t110.5 53t28 89t-43.5 91.5t-132.5 35.5h-352q-99 0 -149 -44t-50 -101q0 -52 32 -82.5t111 -46t218 -15.5zM963 -80
q0 -92 -42.5 -147t-145.5 -83t-279 -28q-172 0 -276 26.5t-144.5 71t-40.5 113.5q0 126 207 170v10q-97 26 -97 115q0 58 82 111l72 53q-99 33 -151 107.5t-52 176.5q0 161 104 246.5t292 85.5h444v-96h-119q-47 0 -205 14l-2 -16q252 -49 252 -248q0 -144 -98 -220.5
t-291 -76.5q-86 0 -160 23l-39 -58q-32 -46 -32 -73q0 -64 108 -64q55 0 167 1t165 1q135 0 208 -56t73 -159z" />
    <glyph glyph-name="h" unicode="h" 
d="M254 551v-551h-109v1315h109v-610h14q38 121 133 192.5t230 71.5q163 0 244 -95.5t81 -259.5v-614h-108v596q0 124 -59 198t-187 74q-157 0 -252.5 -86.5t-95.5 -230.5z" />
    <glyph glyph-name="i" unicode="i" horiz-adv-x="448" 
d="M297 1165h-145v131h145v-131zM279 0h-109v948h109v-948z" />
    <glyph glyph-name="j" unicode="j" horiz-adv-x="473" 
d="M303 -37q0 -139 -62.5 -218t-181.5 -79q-50 0 -96 8l8 99q43 -6 86 -6q138 0 138 190v989h108v-983zM322 1165h-146v131h146v-131z" />
    <glyph glyph-name="k" unicode="k" horiz-adv-x="958" 
d="M266 1315v-795h101l419 428h125v-22l-454 -449l499 -454v-23h-129l-456 430h-105v-430h-108v1315h108z" />
    <glyph glyph-name="l" unicode="l" horiz-adv-x="423" 
d="M266 1315v-1315h-108v1315h108z" />
    <glyph glyph-name="m" unicode="m" horiz-adv-x="1794" 
d="M254 551v-551h-109v948h107v-243h16q39 124 133 194t228 70q142 0 220.5 -75.5t94.5 -207.5h21q31 132 121.5 207.5t242.5 75.5q165 0 248.5 -96t83.5 -259v-614h-109v596q0 124 -60 198t-189 74q-158 0 -252.5 -86t-94.5 -231v-551h-108v596q0 124 -60.5 198t-189.5 74
q-155 0 -249.5 -86.5t-94.5 -230.5z" />
    <glyph glyph-name="n" unicode="n" 
d="M254 551v-551h-109v948h107v-243h14q39 121 134.5 192.5t226.5 71.5q167 0 248 -95t81 -260v-614h-108v596q0 272 -250 272q-155 0 -249.5 -86.5t-94.5 -230.5z" />
    <glyph glyph-name="o" unicode="o" horiz-adv-x="1081" 
d="M541 -23q-220 0 -342.5 134.5t-122.5 367.5q0 228 127 359t338 131q210 0 337.5 -131.5t127.5 -358.5q0 -233 -122.5 -367.5t-342.5 -134.5zM541 870q-169 0 -262 -103t-93 -286q0 -187 90 -295t263 -108t264.5 108.5t91.5 294.5q0 182 -93 285.5t-261 103.5z" />
    <glyph glyph-name="p" unicode="p" horiz-adv-x="1095" 
d="M594 76q315 0 315 399q0 199 -77.5 296t-237.5 97q-156 0 -248 -96.5t-92 -261.5v-74q0 -161 93 -260.5t247 -99.5zM1020 473q0 -237 -102 -366.5t-283 -129.5q-146 0 -241.5 77.5t-131.5 205.5h-8v-573h-109v1261h109v-258h10q36 127 125.5 203t233.5 76
q193 0 295 -128.5t102 -367.5z" />
    <glyph glyph-name="q" unicode="q" horiz-adv-x="1095" 
d="M502 76q154 0 247 99.5t93 260.5v72q0 165 -92 262.5t-248 97.5q-160 0 -238 -97t-78 -298q0 -397 316 -397zM76 471q0 240 102 369t295 129q145 0 233.5 -76.5t124.5 -206.5l11 2v260h108v-1290h-108v598h-8q-37 -126 -132.5 -202.5t-240.5 -76.5q-181 0 -283 129
t-102 365z" />
    <glyph glyph-name="r" unicode="r" horiz-adv-x="651" 
d="M254 0h-109v948h107v-241h10q68 251 311 251h41v-114h-43q-162 0 -239.5 -81t-77.5 -261v-502z" />
    <glyph glyph-name="s" unicode="s" horiz-adv-x="919" 
d="M494 -23q-196 0 -296 81t-137 241l103 20q14 -55 36 -96.5t59.5 -77t97 -54.5t139.5 -19q121 0 183 45.5t62 132.5q0 82 -65 121.5t-230 64.5q-174 27 -251.5 93t-77.5 176q0 120 87 192t249 72q85 0 147.5 -19t105 -57t68.5 -86.5t45 -116.5l-104 -24
q-29 114 -91.5 162.5t-170.5 48.5q-111 0 -169.5 -44t-58.5 -122q0 -72 60 -117.5t204 -67.5q190 -29 275.5 -94t85.5 -182q0 -125 -88 -199t-268 -74z" />
    <glyph glyph-name="t" unicode="t" horiz-adv-x="708" 
d="M209 272v578h-164v98h164v281h108v-281h338v-98h-338v-576q0 -98 41 -146t131 -48q76 0 160 24l17 -96q-105 -31 -189 -31q-133 0 -200.5 79.5t-67.5 215.5z" />
    <glyph glyph-name="u" unicode="u" 
d="M838 0v242h-17q-37 -121 -132 -193t-224 -72q-168 0 -250 96t-82 261v614h109v-596q0 -272 250 -272q155 0 250.5 86.5t95.5 230.5v551h108v-948h-108z" />
    <glyph glyph-name="v" unicode="v" horiz-adv-x="950" 
d="M543 0h-129l-412 948h119l149 -358q133 -320 189 -490h35q50 141 192 490l145 358h117z" />
    <glyph glyph-name="w" unicode="w" horiz-adv-x="1503" 
d="M819 948l119 -366q98 -312 141 -482h33q36 139 145 490l115 358h113l-320 -948h-143l-137 424q-65 194 -121 424h-27q-56 -230 -121 -424l-137 -424h-141l-322 948h111l119 -358q103 -303 149 -490h37q40 164 137 482l119 366h131z" />
    <glyph glyph-name="x" unicode="x" horiz-adv-x="989" 
d="M817 0l-328 442l-321 -442h-111v23l361 460l-359 443v22h115l324 -428l319 428h109v-22l-355 -447l361 -456v-23h-115z" />
    <glyph glyph-name="y" unicode="y" horiz-adv-x="964" 
d="M152 -338q-66 0 -136 12l19 103q67 -13 119 -13q48 0 82 8.5t70 33t68.5 73.5t67.5 127l-434 942h121l143 -332q4 -11 91 -217.5t122 -300.5h21q88 239 201 516l135 334h116l-419 -960q-76 -173 -167 -249.5t-220 -76.5z" />
    <glyph glyph-name="z" unicode="z" horiz-adv-x="978" 
d="M614 100h273v-100h-803v102l680 756l-8 12q-233 -22 -434 -22h-220v100h777v-102l-676 -756l6 -12q266 22 405 22z" />
    <glyph glyph-name="braceleft" unicode="{" horiz-adv-x="735" 
d="M676 -371q-105 -6 -133 -6q-145 0 -221 65t-74 175q0 59 29 123t63 110t63 105.5t29 109.5q0 87 -61.5 128.5t-188.5 41.5h-139v101h139q110 0 181 42t71 128q0 50 -28 109.5t-61 106t-61 110.5t-28 124q0 110 75.5 174t219.5 64q28 0 133 -6l-2 -95q-43 2 -117 2
q-104 0 -149 -35t-45 -114q0 -47 24.5 -103t54 -101t54 -106.5t24.5 -119.5q0 -181 -256 -223v-17q136 -13 196 -65t60 -154q0 -48 -17.5 -97t-42 -90t-49 -80t-42 -81.5t-17.5 -81.5q0 -80 46 -116t149 -36q7 0 119 5z" />
    <glyph glyph-name="bar" unicode="|" horiz-adv-x="407" 
d="M256 -360h-104v1779h104v-1779z" />
    <glyph glyph-name="braceright" unicode="}" horiz-adv-x="735" 
d="M184 -391q-28 0 -133 6l2 96q86 -4 117 -4q102 0 148.5 36t46.5 114q0 47 -24.5 103t-54.5 101t-54.5 106.5t-24.5 119.5q0 181 256 223v16q-136 13 -196 65t-60 154q0 58 26.5 120.5t57.5 107.5t57.5 101.5t26.5 103.5q0 78 -46 113.5t-149 35.5q-29 0 -119 -4l-2 96
q105 6 134 6q146 0 221 -63.5t73 -175.5q0 -49 -19 -99t-46 -92.5t-54 -83.5t-46 -86.5t-19 -87.5q0 -87 61.5 -128.5t188.5 -41.5h139v-100h-139q-110 0 -181 -42t-71 -128q0 -42 18 -87.5t44 -86.5t52 -83.5t44.5 -93t19.5 -98.5q0 -111 -75 -175t-220 -64z" />
    <glyph glyph-name="asciitilde" unicode="~" horiz-adv-x="1077" 
d="M750 541q-59 0 -106 27.5t-75.5 69t-57.5 89.5t-51.5 89.5t-57.5 69t-76 27.5q-82 0 -113 -82t-25 -282h-82q-8 65 -8 127q0 168 59.5 253t168.5 85q52 0 93 -20.5t68.5 -54t50.5 -73.5t43.5 -79.5t42.5 -73t53.5 -54t70.5 -20.5q158 0 141 365h82q8 -57 8 -121
q0 -165 -63.5 -253.5t-165.5 -88.5z" />
    <glyph glyph-name="uni00A0" unicode="&#xa0;" horiz-adv-x="368" 
 />
    <glyph glyph-name="exclamdown" unicode="&#xa1;" horiz-adv-x="475" 
d="M180 522h113v-803h-113v803zM322 778h-168v170h168v-170z" />
    <glyph glyph-name="cent" unicode="&#xa2;" horiz-adv-x="1036" 
d="M485 1192h105l-10 -240q166 -7 258.5 -88t124.5 -233l-105 -23q-29 127 -102 189.5t-219 62.5q-165 0 -258 -100.5t-93 -288.5q0 -177 94 -280t265 -103q62 0 111 13.5t81.5 35.5t58 57t40 70t28.5 82l103 -29q-70 -306 -385 -323l8 -248h-105l11 250
q-199 15 -309.5 141.5t-110.5 339.5q0 209 115.5 336t306.5 139z" />
    <glyph glyph-name="sterling" unicode="&#xa3;" horiz-adv-x="1095" 
d="M1010 0h-924v100h211q29 101 29 219q0 55 -19 152h-217v94h195q-56 212 -56 332q0 165 94.5 258.5t280.5 93.5q97 0 168.5 -29t117 -85.5t72.5 -124t44 -158.5l-105 -18q-36 164 -102 239.5t-195 75.5q-73 0 -125.5 -20t-82 -56t-43 -79.5t-13.5 -96.5q0 -116 53 -332
h477v-94h-454q14 -82 14 -135q0 -132 -45 -236h625v-100z" />
    <glyph glyph-name="yen" unicode="&#xa5;" horiz-adv-x="1136" 
d="M1057 381h-432v-381h-113v381h-432v92h407l-106 172h-301v94h242l-289 467v23h119l407 -703h23l405 703h115v-23l-287 -467h242v-94h-301l-105 -172h406v-92z" />
    <glyph glyph-name="brokenbar" unicode="&#xa6;" horiz-adv-x="493" 
d="M299 -360h-104v780h104v-780zM299 598h-104v821h104v-821z" />
    <glyph glyph-name="section" unicode="&#xa7;" horiz-adv-x="1173" 
d="M608 -338q-227 0 -351 104t-167 310l111 24q33 -170 130.5 -256t276.5 -86q149 0 218 54.5t69 150.5q0 94 -70 146t-243 86q-192 38 -304 86t-159 109.5t-47 148.5q0 71 45 134t121 109q-45 64 -45 162q0 136 94 221.5t282 85.5q103 0 179 -25.5t127.5 -77.5t84 -118
t56.5 -160l-109 -24q-19 75 -44.5 129t-64.5 96t-95.5 63t-131.5 21q-143 0 -209.5 -58t-66.5 -149q0 -62 26.5 -104.5t99.5 -78t200 -60.5q185 -37 289 -85t143 -106t39 -143q0 -72 -40 -133t-106 -103q58 -63 58 -172q0 -134 -96 -217.5t-300 -83.5zM610 289
q211 -46 297 -117q84 73 84 186q0 103 -87 156.5t-322 99.5q-224 46 -310 129q-104 -76 -104 -192q0 -64 39 -107.5t133.5 -80.5t269.5 -74z" />
    <glyph glyph-name="dieresis" unicode="&#xa8;" horiz-adv-x="638" 
d="M55 1288h152v-151h-152v151zM430 1288h152v-151h-152v151z" />
    <glyph glyph-name="copyright" unicode="&#xa9;" horiz-adv-x="1851" 
d="M926 -96q187 0 324.5 50.5t219.5 146.5t121 223.5t39 291.5t-39.5 292t-122.5 222.5t-220 144.5t-322 50t-321.5 -50t-220 -144.5t-123.5 -222.5t-40 -292t39.5 -291.5t122 -223.5t219.5 -146.5t324 -50.5zM926 1419q203 0 358.5 -57.5t253.5 -164t147.5 -253
t49.5 -328.5q0 -183 -49 -329.5t-146.5 -253.5t-253.5 -165t-360 -58t-359.5 58t-253 165t-147 253.5t-49.5 329.5q0 182 49.5 328.5t147.5 253t253.5 164t358.5 57.5zM1178 719q-8 120 -63 177.5t-185 57.5q-138 0 -212.5 -85t-74.5 -246t72 -251.5t211 -90.5
q247 0 254 208l102 -4q-4 -149 -96 -225t-258 -76q-180 0 -285.5 115.5t-105.5 323.5q0 198 106.5 312t286.5 114q176 0 260 -81t90 -245z" />
    <glyph glyph-name="ordfeminine" unicode="&#xaa;" horiz-adv-x="780" 
d="M328 735q109 0 178 61t69 154v13h-237q-168 0 -168 -117q0 -111 158 -111zM584 676v176h-11q-33 -94 -101 -145.5t-169 -51.5q-110 0 -167.5 45t-57.5 144q0 80 63 131t183 51h251v100q0 73 -42 118.5t-130 45.5q-83 0 -132.5 -36t-77.5 -105l-87 29q33 91 109.5 143.5
t187.5 52.5q132 0 200.5 -66.5t68.5 -179.5v-452h-88z" />
    <glyph glyph-name="guillemotleft" unicode="&#xab;" horiz-adv-x="1239" 
d="M690 72h-108l-533 434v45l533 434h108v-22l-528 -428v-13l528 -428v-22zM1167 72h-108l-533 434v45l533 434h108v-22l-528 -428v-13l528 -428v-22z" />
    <glyph glyph-name="registered" unicode="&#xae;" horiz-adv-x="1855" 
d="M975 940h-289v-317h289q94 0 145 40.5t51 118.5q0 84 -43 121t-153 37zM1210 209l-292 332h-232v-332h-106v819h405q154 0 225.5 -60.5t71.5 -179.5q0 -105 -64 -169t-186 -76l301 -318v-16h-123zM926 -96q187 0 324.5 50.5t219.5 146.5t121 223.5t39 291.5t-39.5 292
t-122.5 222.5t-220 144.5t-322 50t-321.5 -50t-220 -144.5t-123.5 -222.5t-40 -292t39.5 -291.5t122 -223.5t219.5 -146.5t324 -50.5zM926 -190q-204 0 -359.5 58t-253 165t-147 253.5t-49.5 329.5q0 182 49.5 328.5t147.5 253t253.5 164t358.5 57.5t358.5 -57.5t253.5 -164
t147.5 -253t49.5 -328.5q0 -183 -49 -329.5t-146.5 -253.5t-253.5 -165t-360 -58z" />
    <glyph glyph-name="macron" unicode="&#xaf;" horiz-adv-x="657" 
d="M51 1239h557v-92h-557v92z" />
    <glyph glyph-name="degree" unicode="&#xb0;" horiz-adv-x="612" 
d="M553 1006q0 -112 -66.5 -179t-179.5 -67q-114 0 -181 66.5t-67 179.5q0 111 67.5 178t180.5 67q112 0 179 -67t67 -178zM150 1006q0 -83 41.5 -125.5t115.5 -42.5t115 42.5t41 125.5q0 82 -41 123.5t-115 41.5t-115.5 -42t-41.5 -123z" />
    <glyph glyph-name="twosuperior" unicode="&#xb2;" horiz-adv-x="753" 
d="M399 1311q-99 0 -155.5 -49t-73.5 -154l-88 18q24 127 104 195t213 68q136 0 207.5 -55t71.5 -160q0 -93 -71.5 -147t-223.5 -95q-139 -40 -190.5 -83t-55.5 -126q177 14 289 14h264v-82h-631v50q0 120 65 184t220 106q137 39 189.5 77.5t52.5 103.5q0 135 -187 135z" />
    <glyph glyph-name="threesuperior" unicode="&#xb3;" horiz-adv-x="743" 
d="M381 639q-145 0 -228.5 60t-105.5 171l88 21q18 -88 75.5 -130t172.5 -42q205 0 205 133q0 67 -45 97t-160 30h-121v70h119q178 0 178 127q0 68 -44.5 100.5t-137.5 32.5q-95 0 -146.5 -39.5t-70.5 -120.5l-88 20q26 104 102.5 162t202.5 58q133 0 202.5 -51.5
t69.5 -145.5q0 -141 -174 -168v-16q109 -9 157 -47t48 -115q0 -101 -75.5 -154t-223.5 -53z" />
    <glyph glyph-name="acute" unicode="&#xb4;" horiz-adv-x="610" 
d="M72 1077l-29 58l469 274l49 -90z" />
    <glyph glyph-name="paragraph" unicode="&#xb6;" horiz-adv-x="1275" 
d="M1116 -338h-108v1567h108v-1567zM868 -338h-110v674h-203q-229 0 -354 111.5t-125 326.5q0 227 116 341t361 114h315v-1567z" />
    <glyph glyph-name="periodcentered" unicode="&#xb7;" horiz-adv-x="417" 
d="M125 582h168v-168h-168v168z" />
    <glyph glyph-name="cedilla" unicode="&#xb8;" horiz-adv-x="464" 
d="M254 -344q-128 0 -207 61l43 64q77 -51 162 -51q53 0 78.5 19t25.5 48t-25 45.5t-69 16.5q-32 0 -90 -15l-51 25l67 176l68 -6l-61 -150q53 17 92 17q66 0 107.5 -26.5t41.5 -84.5q0 -23 -9.5 -45.5t-29 -44.5t-57 -35.5t-86.5 -13.5z" />
    <glyph glyph-name="onesuperior" unicode="&#xb9;" horiz-adv-x="608" 
d="M578 655h-527v84h240v559q-104 -54 -221 -102l-33 80l289 100h55v-637h197v-84z" />
    <glyph glyph-name="ordmasculine" unicode="&#xba;" horiz-adv-x="778" 
d="M391 664q-157 0 -243.5 96.5t-86.5 263.5q0 162 90.5 256t239.5 94q148 0 238 -94t90 -256q0 -168 -85.5 -264t-242.5 -96zM391 1290q-113 0 -175 -70t-62 -194q0 -131 59.5 -206t175.5 -75t178 75.5t62 205.5q0 123 -63 193.5t-175 70.5z" />
    <glyph glyph-name="guillemotright" unicode="&#xbb;" horiz-adv-x="1245" 
d="M664 55h-109v23l528 428v12l-528 428v23h109l534 -434v-46zM186 55h-108v23l528 428v12l-528 428v23h108l533 -434v-46z" />
    <glyph glyph-name="onequarter" unicode="&#xbc;" horiz-adv-x="1519" 
d="M287 0h-133v12l493 525l47 -41zM1186 1229h133v-12l-494 -525l-47 41zM578 655h-527v84h240v559q-104 -54 -221 -102l-33 80l289 100h55v-637h197v-84zM1085 115h125v379h-4l-358 -396v-2q185 19 237 19zM1427 35h-127v-178h-90v178h-467v63l439 475h118v-458h127v-80z
" />
    <glyph glyph-name="onehalf" unicode="&#xbd;" horiz-adv-x="1497" 
d="M283 0h-133v12l493 525l47 -41zM1182 1229h133v-12l-494 -525l-47 41zM578 655h-527v84h240v559q-104 -54 -221 -102l-33 80l289 100h55v-637h197v-84zM1139 512q-99 0 -156 -49t-74 -154l-88 19q24 126 104.5 194t213.5 68q135 0 206.5 -55t71.5 -160q0 -93 -71.5 -147
t-223.5 -95q-139 -40 -190 -83t-55 -126q190 15 288 15h265v-82h-631v49q0 120 65 184.5t219 106.5q137 39 189.5 77t52.5 103q0 135 -186 135z" />
    <glyph glyph-name="threequarters" unicode="&#xbe;" horiz-adv-x="1542" 
d="M354 0h-133v12l494 525l47 -41zM1253 1229h133v-12l-493 -525l-47 41zM1485 35h-127v-178h-90v178h-467v63l438 475h119v-458h127v-80zM391 639q-145 0 -228.5 60t-105.5 171l88 21q18 -88 75.5 -130t172.5 -42q205 0 205 133q0 67 -45 97t-160 30h-121v70h119
q178 0 178 127q0 68 -44.5 100.5t-137.5 32.5q-95 0 -146.5 -39.5t-70.5 -120.5l-88 20q26 104 102.5 162t202.5 58q133 0 202.5 -51.5t69.5 -145.5q0 -141 -174 -168v-16q109 -9 157 -47t48 -115q0 -101 -75.5 -154t-223.5 -53zM1143 115h125v379h-4l-359 -396v-2
q185 19 238 19z" />
    <glyph glyph-name="questiondown" unicode="&#xbf;" horiz-adv-x="989" 
d="M324 377q42 20 69.5 43.5t40 49.5t17 48t4.5 49v21h110v-23q0 -93 -40.5 -152t-139.5 -108q-122 -60 -168.5 -115t-46.5 -151q0 -116 72.5 -178t212.5 -62q172 0 261 93t115 278l111 -12q-29 -215 -148 -338t-337 -123q-193 0 -297.5 89t-104.5 249q0 68 21 123.5
t60.5 96t84 69t103.5 53.5zM594 778h-168v170h168v-170z" />
    <glyph glyph-name="Agrave" unicode="&#xc0;" horiz-adv-x="1171" 
d="M1042 0l-159 393h-598l-158 -393h-121l508 1229h143l508 -1229h-123zM750 1364l-531 147l31 99l518 -183zM383 639l-61 -152h524l-62 152q-90 222 -176 485h-45q-82 -240 -180 -485z" />
    <glyph glyph-name="Aacute" unicode="&#xc1;" horiz-adv-x="1171" 
d="M1042 0l-159 393h-598l-158 -393h-121l508 1229h143l508 -1229h-123zM403 1364l-20 63l516 187l35 -105zM383 639l-61 -152h524l-62 152q-90 222 -176 485h-45q-82 -240 -180 -485z" />
    <glyph glyph-name="Acircumflex" unicode="&#xc2;" horiz-adv-x="1171" 
d="M1042 0l-159 393h-598l-158 -393h-121l508 1229h143l508 -1229h-123zM831 1335l-245 183l-246 -183l-43 54l260 227h57l260 -227zM383 639l-61 -152h524l-62 152q-90 222 -176 485h-45q-82 -240 -180 -485z" />
    <glyph glyph-name="Atilde" unicode="&#xc3;" horiz-adv-x="1171" 
d="M1042 0l-159 393h-598l-158 -393h-121l508 1229h143l508 -1229h-123zM444 1663q46 0 83 -22.5t61 -54.5t45.5 -64.5t47 -55t54.5 -22.5q46 0 64.5 51t15.5 162h70q6 -50 6 -92q0 -104 -42 -158.5t-112 -54.5q-44 0 -79.5 23t-59.5 55t-45.5 64.5t-47.5 55.5t-56 23
q-53 0 -71.5 -47t-15.5 -160h-71q-6 50 -6 88q0 103 42.5 156t116.5 53zM383 639l-61 -152h524l-62 152q-90 222 -176 485h-45q-82 -240 -180 -485z" />
    <glyph glyph-name="Adieresis" unicode="&#xc4;" horiz-adv-x="1171" 
d="M1042 0l-159 393h-598l-158 -393h-121l508 1229h143l508 -1229h-123zM322 1520h151v-152h-151v152zM696 1520h152v-152h-152v152zM383 639l-61 -152h524l-62 152q-90 222 -176 485h-45q-82 -240 -180 -485z" />
    <glyph glyph-name="Aring" unicode="&#xc5;" horiz-adv-x="1171" 
d="M1042 0l-159 393h-598l-158 -393h-121l508 1229h143l508 -1229h-123zM467 1532q0 -58 32 -90.5t87 -32.5q56 0 87.5 32.5t31.5 90.5t-31.5 90.5t-87.5 32.5q-55 0 -87 -32.5t-32 -90.5zM791 1532q0 -91 -55.5 -145t-149.5 -54q-93 0 -148 54t-55 145t55 146t148 55
t149 -55t56 -146zM383 639l-61 -152h524l-62 152q-90 222 -176 485h-45q-82 -240 -180 -485z" />
    <glyph glyph-name="AE" unicode="&#xc6;" horiz-adv-x="1732" 
d="M504 639l-127 -221h438v710h-47q-111 -221 -264 -489zM815 0v319h-493l-183 -319h-116v12l704 1217h893v-105h-690v-444h612v-105h-612v-471h688v-104h-803z" />
    <glyph glyph-name="Ccedilla" unicode="&#xc7;" horiz-adv-x="1277" 
d="M647 -23h-16l-37 -88q53 17 92 17q66 0 108 -26.5t42 -84.5q0 -51 -44.5 -95t-138.5 -44q-128 0 -207 61l43 64q77 -51 162 -51q53 0 79 19t26 48t-25 45.5t-69 16.5q-34 0 -91 -15l-51 25l43 113q-234 27 -360.5 196.5t-126.5 437.5q0 291 152.5 463t422.5 172
q226 0 366.5 -121t176.5 -331l-107 -25q-77 373 -434 373q-229 0 -347 -141.5t-118 -389.5q0 -252 117 -393t344 -141q371 0 445 383l108 -23q-36 -217 -178 -341t-377 -124z" />
    <glyph glyph-name="Egrave" unicode="&#xc8;" horiz-adv-x="1077" 
d="M158 0v1229h805v-105h-691v-444h613v-105h-613v-471h689v-104h-803zM731 1364l-530 147l30 99l519 -183z" />
    <glyph glyph-name="Eacute" unicode="&#xc9;" horiz-adv-x="1077" 
d="M158 0v1229h805v-105h-691v-444h613v-105h-613v-471h689v-104h-803zM385 1364l-20 63l516 187l34 -105z" />
    <glyph glyph-name="Ecircumflex" unicode="&#xca;" horiz-adv-x="1077" 
d="M158 0v1229h805v-105h-691v-444h613v-105h-613v-471h689v-104h-803zM815 1335l-246 183l-245 -183l-43 54l260 227h57l260 -227z" />
    <glyph glyph-name="Edieresis" unicode="&#xcb;" horiz-adv-x="1077" 
d="M158 0v1229h805v-105h-691v-444h613v-105h-613v-471h689v-104h-803zM305 1520h152v-152h-152v152zM680 1520h151v-152h-151v152z" />
    <glyph glyph-name="Igrave" unicode="&#xcc;" horiz-adv-x="432" 
d="M272 0h-114v1229h114v-1229zM379 1364l-531 147l31 99l518 -183z" />
    <glyph glyph-name="Iacute" unicode="&#xcd;" horiz-adv-x="432" 
d="M272 0h-114v1229h114v-1229zM33 1364l-21 63l516 187l35 -105z" />
    <glyph glyph-name="Icircumflex" unicode="&#xce;" horiz-adv-x="432" 
d="M272 0h-114v1229h114v-1229zM463 1335l-246 183l-246 -183l-43 54l260 227h58l260 -227z" />
    <glyph glyph-name="Idieresis" unicode="&#xcf;" horiz-adv-x="432" 
d="M272 0h-114v1229h114v-1229zM-49 1520h151v-152h-151v152zM326 1520h151v-152h-151v152z" />
    <glyph glyph-name="Eth" unicode="&#xd0;" horiz-adv-x="1363" 
d="M739 569h-391v-469h332q257 0 377.5 136t120.5 382q0 260 -123.5 385t-388.5 125h-318v-469h391v-90zM233 0v569h-176v90h176v570h447q304 0 458 -156t154 -455q0 -291 -160.5 -454.5t-441.5 -163.5h-457z" />
    <glyph glyph-name="Ntilde" unicode="&#xd1;" horiz-adv-x="1294" 
d="M981 0l-444 696q-118 182 -234 420l-49 -2q16 -227 16 -598v-516h-112v1229h176l393 -617q136 -213 272 -479l43 2q-18 288 -18 578v516h111v-1229h-154zM504 1663q46 0 83 -22.5t61 -54.5t45.5 -64.5t47 -55t54.5 -22.5q46 0 64 51t15 162h70q6 -50 6 -92
q0 -104 -41.5 -158.5t-111.5 -54.5q-44 0 -79.5 23t-59.5 55t-46 64.5t-48 55.5t-56 23q-53 0 -71 -47t-15 -160h-72q-6 50 -6 88q0 103 43 156t117 53z" />
    <glyph glyph-name="Ograve" unicode="&#xd2;" horiz-adv-x="1349" 
d="M674 -23q-189 0 -326 82.5t-205.5 225.5t-68.5 331t69 330t205.5 223.5t325.5 81.5q284 0 443 -174.5t159 -460.5q0 -188 -68.5 -331t-206 -225.5t-327.5 -82.5zM674 82q241 0 364 145t123 389q0 243 -124 387t-363 144q-237 0 -361.5 -144t-124.5 -387q0 -119 30 -216
t89 -168.5t152.5 -110.5t214.5 -39zM838 1364l-531 147l31 99l518 -183z" />
    <glyph glyph-name="Oacute" unicode="&#xd3;" horiz-adv-x="1349" 
d="M674 -23q-189 0 -326 82.5t-205.5 225.5t-68.5 331t69 330t205.5 223.5t325.5 81.5q284 0 443 -174.5t159 -460.5q0 -188 -68.5 -331t-206 -225.5t-327.5 -82.5zM674 82q241 0 364 145t123 389q0 243 -124 387t-363 144q-237 0 -361.5 -144t-124.5 -387q0 -119 30 -216
t89 -168.5t152.5 -110.5t214.5 -39zM492 1364l-21 63l516 187l35 -105z" />
    <glyph glyph-name="Ocircumflex" unicode="&#xd4;" horiz-adv-x="1349" 
d="M674 82q241 0 364 145t123 389q0 243 -124 387t-363 144q-237 0 -361.5 -144t-124.5 -387q0 -119 30 -216t89 -168.5t152.5 -110.5t214.5 -39zM674 -23q-189 0 -326 82.5t-205.5 225.5t-68.5 331t69 330t205.5 223.5t325.5 81.5q284 0 443 -174.5t159 -460.5
q0 -188 -68.5 -331t-206 -225.5t-327.5 -82.5zM922 1335l-246 183l-246 -183l-43 54l260 227h58l260 -227z" />
    <glyph glyph-name="Otilde" unicode="&#xd5;" horiz-adv-x="1349" 
d="M674 -23q-189 0 -326 82.5t-205.5 225.5t-68.5 331t69 330t205.5 223.5t325.5 81.5q284 0 443 -174.5t159 -460.5q0 -188 -68.5 -331t-206 -225.5t-327.5 -82.5zM674 82q241 0 364 145t123 389q0 243 -124 387t-363 144q-237 0 -361.5 -144t-124.5 -387q0 -119 30 -216
t89 -168.5t152.5 -110.5t214.5 -39zM532 1663q46 0 83 -22.5t61 -54.5t45.5 -64.5t47 -55t54.5 -22.5q46 0 64.5 51t15.5 162h70q6 -50 6 -92q0 -104 -42 -158.5t-112 -54.5q-44 0 -79.5 23t-59.5 55t-45.5 64.5t-47.5 55.5t-56 23q-53 0 -71 -47t-15 -160h-72q-6 50 -6 88
q0 103 42.5 156t116.5 53z" />
    <glyph glyph-name="Odieresis" unicode="&#xd6;" horiz-adv-x="1349" 
d="M674 -23q-189 0 -326 82.5t-205.5 225.5t-68.5 331t69 330t205.5 223.5t325.5 81.5q284 0 443 -174.5t159 -460.5q0 -188 -68.5 -331t-206 -225.5t-327.5 -82.5zM674 82q241 0 364 145t123 389q0 243 -124 387t-363 144q-237 0 -361.5 -144t-124.5 -387q0 -119 30 -216
t89 -168.5t152.5 -110.5t214.5 -39zM410 1520h151v-152h-151v152zM784 1520h152v-152h-152v152z" />
    <glyph glyph-name="multiply" unicode="&#xd7;" horiz-adv-x="999" 
d="M817 231q-55 58 -161 171t-158 169q-64 -70 -168 -180t-150 -160l-80 80q241 228 340 316q-61 54 -119 107.5t-124 115t-97 90.5l80 78q51 -55 156 -164.5t162 -169.5q66 71 171 179.5t148 154.5l80 -78q-308 -285 -340 -313q268 -248 340 -316z" />
    <glyph glyph-name="Oslash" unicode="&#xd8;" horiz-adv-x="1341" 
d="M674 -23q-257 0 -414 148l-123 -125h-102v10l172 174q-133 168 -133 432q0 188 69 330t205.5 223.5t325.5 81.5q268 0 430 -159l133 137h94v-10l-178 -185q123 -168 123 -418q0 -188 -68.5 -331t-206 -225.5t-327.5 -82.5zM186 616q0 -221 97 -356l745 754
q-130 133 -354 133q-160 0 -271.5 -68.5t-164 -186.5t-52.5 -276zM674 80q241 0 365 146t124 390q0 204 -88 338l-741 -753q127 -121 340 -121z" />
    <glyph glyph-name="Ugrave" unicode="&#xd9;" horiz-adv-x="1282" 
d="M653 82q195 0 276 98t81 281v768h114v-772q0 -234 -120 -355.5t-351 -121.5q-235 0 -365 121.5t-130 355.5v772h114v-756q0 -391 381 -391zM805 1364l-531 147l31 99l518 -183z" />
    <glyph glyph-name="Uacute" unicode="&#xda;" horiz-adv-x="1282" 
d="M653 82q195 0 276 98t81 281v768h114v-772q0 -234 -120 -355.5t-351 -121.5q-235 0 -365 121.5t-130 355.5v772h114v-756q0 -391 381 -391zM459 1364l-21 63l516 187l35 -105z" />
    <glyph glyph-name="Ucircumflex" unicode="&#xdb;" horiz-adv-x="1282" 
d="M653 82q195 0 276 98t81 281v768h114v-772q0 -234 -120 -355.5t-351 -121.5q-235 0 -365 121.5t-130 355.5v772h114v-756q0 -391 381 -391zM887 1335l-246 183l-246 -183l-43 54l260 227h58l260 -227z" />
    <glyph glyph-name="Udieresis" unicode="&#xdc;" horiz-adv-x="1282" 
d="M653 82q195 0 276 98t81 281v768h114v-772q0 -234 -120 -355.5t-351 -121.5q-235 0 -365 121.5t-130 355.5v772h114v-756q0 -391 381 -391zM377 1520h151v-152h-151v152zM752 1520h151v-152h-151v152z" />
    <glyph glyph-name="Yacute" unicode="&#xdd;" horiz-adv-x="1071" 
d="M592 0h-113v434l-479 772v23h119l407 -703h23l405 703h115v-23l-477 -776v-430zM352 1364l-20 63l516 187l35 -105z" />
    <glyph glyph-name="Thorn" unicode="&#xde;" horiz-adv-x="1062" 
d="M158 1229h114v-225h346q199 0 301.5 -92t102.5 -275q0 -173 -103.5 -272t-297.5 -99h-349v-266h-114v1229zM606 903h-334v-534h336q158 0 229.5 64t71.5 202q0 142 -68.5 205t-234.5 63z" />
    <glyph glyph-name="germandbls" unicode="&#xdf;" horiz-adv-x="1134" 
d="M709 -20q-117 0 -198 40.5t-146 129.5l65 79q51 -79 118.5 -113t158.5 -34q117 0 175 68.5t58 189.5q0 65 -17.5 114t-59 88.5t-118 60t-186.5 20.5h-135v98h119q119 0 197.5 67.5t78.5 200.5q0 109 -64.5 178.5t-197.5 69.5q-154 0 -222.5 -79.5t-68.5 -225.5v-932h-108
v934q0 187 103.5 294t297.5 107q91 0 162.5 -26t115.5 -71.5t66.5 -104t22.5 -125.5q0 -255 -256 -318v-22q108 -9 182.5 -35t117 -69.5t61 -99t18.5 -130.5q0 -161 -84.5 -257.5t-255.5 -96.5z" />
    <glyph glyph-name="agrave" unicode="&#xe0;" horiz-adv-x="997" 
d="M408 76q156 0 252 75.5t96 192.5v78h-336q-230 0 -230 -178q0 -73 52.5 -120.5t165.5 -47.5zM760 0v225h-15q-36 -121 -129.5 -183t-226.5 -62q-305 0 -305 260q0 119 85 193.5t243 74.5h344v98q0 134 -58.5 200t-195.5 66q-224 0 -277 -227l-104 31q32 141 131.5 217
t251.5 76q360 0 360 -359v-610h-104zM668 1077l-492 240l53 94l467 -276z" />
    <glyph glyph-name="aacute" unicode="&#xe1;" horiz-adv-x="997" 
d="M408 76q156 0 252 75.5t96 192.5v78h-336q-230 0 -230 -178q0 -73 52.5 -120.5t165.5 -47.5zM760 0v225h-15q-36 -121 -129.5 -183t-226.5 -62q-305 0 -305 260q0 119 85 193.5t243 74.5h344v98q0 134 -58.5 200t-195.5 66q-224 0 -277 -227l-104 31q32 141 131.5 217
t251.5 76q360 0 360 -359v-610h-104zM338 1077l-29 58l469 274l49 -90z" />
    <glyph glyph-name="acircumflex" unicode="&#xe2;" horiz-adv-x="997" 
d="M408 76q156 0 252 75.5t96 192.5v78h-336q-230 0 -230 -178q0 -73 52.5 -120.5t165.5 -47.5zM760 0v225h-15q-36 -121 -129.5 -183t-226.5 -62q-305 0 -305 260q0 119 85 193.5t243 74.5h344v98q0 134 -58.5 200t-195.5 66q-224 0 -277 -227l-104 31q32 141 131.5 217
t251.5 76q360 0 360 -359v-610h-104zM737 1075l-241 225l-244 -225l-47 49l262 279h57l262 -279z" />
    <glyph glyph-name="atilde" unicode="&#xe3;" horiz-adv-x="997" 
d="M408 76q156 0 252 75.5t96 192.5v78h-336q-230 0 -230 -178q0 -73 52.5 -120.5t165.5 -47.5zM760 0v225h-15q-36 -121 -129.5 -183t-226.5 -62q-305 0 -305 260q0 119 85 193.5t243 74.5h344v98q0 134 -58.5 200t-195.5 66q-224 0 -277 -227l-104 31q32 141 131.5 217
t251.5 76q360 0 360 -359v-610h-104zM352 1417q46 0 83 -22.5t61 -54.5t45.5 -64.5t47 -55t54.5 -22.5q46 0 64.5 51t15.5 162h70q6 -50 6 -92q0 -104 -42 -158.5t-112 -54.5q-44 0 -79.5 23t-59.5 55t-46 64.5t-48 55.5t-56 23q-53 0 -71 -47t-15 -160h-71q-6 50 -6 88
q0 103 42.5 156t116.5 53z" />
    <glyph glyph-name="adieresis" unicode="&#xe4;" horiz-adv-x="997" 
d="M408 76q156 0 252 75.5t96 192.5v78h-336q-230 0 -230 -178q0 -73 52.5 -120.5t165.5 -47.5zM760 0v225h-15q-36 -121 -129.5 -183t-226.5 -62q-305 0 -305 260q0 119 85 193.5t243 74.5h344v98q0 134 -58.5 200t-195.5 66q-224 0 -277 -227l-104 31q32 141 131.5 217
t251.5 76q360 0 360 -359v-610h-104zM231 1288h152v-151h-152v151zM606 1288h152v-151h-152v151z" />
    <glyph glyph-name="aring" unicode="&#xe5;" horiz-adv-x="997" 
d="M408 76q156 0 252 75.5t96 192.5v78h-336q-230 0 -230 -178q0 -73 52.5 -120.5t165.5 -47.5zM760 0v225h-15q-36 -121 -129.5 -183t-226.5 -62q-305 0 -305 260q0 119 85 193.5t243 74.5h344v98q0 134 -58.5 200t-195.5 66q-224 0 -277 -227l-104 31q32 141 131.5 217
t251.5 76q360 0 360 -359v-610h-104zM358 1292q0 -65 37 -101t101 -36t100.5 36t36.5 103q0 65 -36.5 101.5t-100.5 36.5t-101 -36.5t-37 -103.5zM717 1294q0 -100 -60 -159.5t-161 -59.5q-102 0 -163 59t-61 158q0 100 60.5 159.5t163.5 59.5q101 0 161 -59t60 -158z" />
    <glyph glyph-name="ae" unicode="&#xe6;" horiz-adv-x="1712" 
d="M408 76q156 0 252 75.5t96 192.5v88h-334q-232 0 -232 -186q0 -75 52 -122.5t166 -47.5zM1212 874q-155 0 -244.5 -89.5t-101.5 -260.5h668q-10 350 -322 350zM1630 287q-78 -310 -409 -310q-164 0 -275 76.5t-155 208.5q-31 -141 -141 -211.5t-261 -70.5q-147 0 -226 64
t-79 196q0 119 84.5 193.5t241.5 74.5h346v98q0 134 -58.5 200t-195.5 66q-223 0 -279 -227l-104 31q34 140 133 216.5t246 76.5q295 0 342 -248q42 120 140.5 184t233.5 64q203 0 311.5 -119t108.5 -324q0 -51 -2 -82h-768q8 -174 99.5 -271t255.5 -97q73 0 128 18t90.5 53
t57 75t37.5 95z" />
    <glyph glyph-name="ccedilla" unicode="&#xe7;" horiz-adv-x="1062" 
d="M858 608q-31 133 -103.5 197.5t-217.5 64.5q-165 0 -258 -103t-93 -296q0 -182 94.5 -287.5t264.5 -105.5q77 0 133 20t91.5 60t56.5 83t38 105l103 -29q-77 -340 -420 -340h-33l-37 -88q53 17 92 17q66 0 108 -26.5t42 -84.5q0 -23 -9.5 -45.5t-29 -44.5t-57 -35.5
t-86.5 -13.5q-128 0 -207 61l43 64q77 -51 162 -51q53 0 78.5 19t25.5 48t-25 45.5t-69 16.5q-32 0 -90 -15l-52 25l46 117q-178 28 -275.5 157t-97.5 334q0 227 128 359.5t335 132.5q186 0 288.5 -85.5t135.5 -252.5z" />
    <glyph glyph-name="egrave" unicode="&#xe8;" horiz-adv-x="1034" 
d="M535 874q-153 0 -242.5 -86.5t-104.5 -252.5h668q-8 166 -85.5 252.5t-235.5 86.5zM543 -20q-221 0 -344 131.5t-123 363.5q0 229 127 361.5t334 132.5q203 0 311 -118t108 -319q0 -55 -2 -88h-768q8 -174 99.5 -271t257.5 -97q139 0 208.5 62.5t102.5 176.5l98 -30
q-77 -305 -409 -305zM696 1077l-491 240l53 94l467 -276z" />
    <glyph glyph-name="eacute" unicode="&#xe9;" horiz-adv-x="1034" 
d="M535 874q-153 0 -242.5 -86.5t-104.5 -252.5h668q-8 166 -85.5 252.5t-235.5 86.5zM543 -20q-221 0 -344 131.5t-123 363.5q0 229 127 361.5t334 132.5q203 0 311 -118t108 -319q0 -55 -2 -88h-768q8 -174 99.5 -271t257.5 -97q139 0 208.5 62.5t102.5 176.5l98 -30
q-77 -305 -409 -305zM365 1077l-29 58l469 274l49 -90z" />
    <glyph glyph-name="ecircumflex" unicode="&#xea;" horiz-adv-x="1034" 
d="M535 874q-153 0 -242.5 -86.5t-104.5 -252.5h668q-8 166 -85.5 252.5t-235.5 86.5zM543 -20q-221 0 -344 131.5t-123 363.5q0 229 127 361.5t334 132.5q203 0 311 -118t108 -319q0 -55 -2 -88h-768q8 -174 99.5 -271t257.5 -97q139 0 208.5 62.5t102.5 176.5l98 -30
q-77 -305 -409 -305zM766 1075l-242 225l-243 -225l-48 49l263 279h57l262 -279z" />
    <glyph glyph-name="edieresis" unicode="&#xeb;" horiz-adv-x="1034" 
d="M535 874q-153 0 -242.5 -86.5t-104.5 -252.5h668q-8 166 -85.5 252.5t-235.5 86.5zM543 -20q-221 0 -344 131.5t-123 363.5q0 229 127 361.5t334 132.5q203 0 311 -118t108 -319q0 -55 -2 -88h-768q8 -174 99.5 -271t257.5 -97q139 0 208.5 62.5t102.5 176.5l98 -30
q-77 -305 -409 -305zM260 1288h152v-151h-152v151zM635 1288h151v-151h-151v151z" />
    <glyph glyph-name="igrave" unicode="&#xec;" horiz-adv-x="522" 
d="M315 0h-108v948h108v-948zM432 1077l-491 240l53 94l467 -276z" />
    <glyph glyph-name="iacute" unicode="&#xed;" horiz-adv-x="522" 
d="M315 0h-108v948h108v-948zM100 1077l-28 58l469 274l49 -90z" />
    <glyph glyph-name="icircumflex" unicode="&#xee;" horiz-adv-x="522" 
d="M315 0h-108v948h108v-948zM504 1075l-242 225l-244 -225l-47 49l262 279h58l262 -279z" />
    <glyph glyph-name="idieresis" unicode="&#xef;" horiz-adv-x="522" 
d="M315 0h-108v948h108v-948zM-2 1288h152v-151h-152v151zM373 1288h151v-151h-151v151z" />
    <glyph glyph-name="eth" unicode="&#xf0;" horiz-adv-x="1048" 
d="M522 -23q-209 0 -327.5 122t-118.5 347q0 221 113.5 341t306.5 120q122 0 210.5 -66.5t137.5 -183.5l18 7q-58 250 -299 444l-295 -115l-26 74l245 96q-87 59 -190 111l39 80q147 -70 254 -150l231 90l27 -75l-186 -72q311 -267 311 -643q0 -242 -122.5 -384.5
t-328.5 -142.5zM864 467q0 158 -95.5 252t-258.5 94q-156 0 -241 -92t-85 -270q0 -182 88 -278.5t250 -96.5q160 0 251 108t91 283zM881 541q0 5 -1 14t-1 14l-7 -4q1 -3 2.5 -9t2.5 -9z" />
    <glyph glyph-name="ntilde" unicode="&#xf1;" 
d="M254 551v-551h-109v948h107v-243h14q39 121 134.5 192.5t226.5 71.5q167 0 248 -95t81 -260v-614h-108v596q0 272 -250 272q-155 0 -249.5 -86.5t-94.5 -230.5zM408 1417q46 0 83 -22.5t61 -54.5t45 -64.5t46.5 -55t54.5 -22.5q46 0 64.5 51t15.5 162h70q6 -50 6 -92
q0 -104 -42 -158.5t-112 -54.5q-44 0 -79.5 23t-59.5 55t-45.5 64.5t-47.5 55.5t-56 23q-53 0 -71 -47t-15 -160h-72q-6 50 -6 88q0 103 43 156t117 53z" />
    <glyph glyph-name="ograve" unicode="&#xf2;" horiz-adv-x="1081" 
d="M541 -23q-220 0 -342.5 134.5t-122.5 367.5q0 228 127 359t338 131q210 0 337.5 -131.5t127.5 -358.5q0 -233 -122.5 -367.5t-342.5 -134.5zM541 870q-169 0 -262 -103t-93 -286q0 -187 90 -295t263 -108t264.5 108.5t91.5 294.5q0 182 -93 285.5t-261 103.5zM698 1077
l-491 240l53 94l467 -276z" />
    <glyph glyph-name="oacute" unicode="&#xf3;" horiz-adv-x="1081" 
d="M541 -23q-220 0 -342.5 134.5t-122.5 367.5q0 228 127 359t338 131q210 0 337.5 -131.5t127.5 -358.5q0 -233 -122.5 -367.5t-342.5 -134.5zM541 870q-169 0 -262 -103t-93 -286q0 -187 90 -295t263 -108t264.5 108.5t91.5 294.5q0 182 -93 285.5t-261 103.5zM369 1077
l-29 58l469 274l49 -90z" />
    <glyph glyph-name="ocircumflex" unicode="&#xf4;" horiz-adv-x="1081" 
d="M541 870q-169 0 -262 -103t-93 -286q0 -187 90 -295t263 -108t264.5 108.5t91.5 294.5q0 182 -93 285.5t-261 103.5zM541 -23q-220 0 -342.5 134.5t-122.5 367.5q0 228 127 359t338 131q210 0 337.5 -131.5t127.5 -358.5q0 -233 -122.5 -367.5t-342.5 -134.5zM774 1075
l-242 225l-243 -225l-47 49l262 279h57l262 -279z" />
    <glyph glyph-name="otilde" unicode="&#xf5;" horiz-adv-x="1081" 
d="M541 -23q-220 0 -342.5 134.5t-122.5 367.5q0 228 127 359t338 131q210 0 337.5 -131.5t127.5 -358.5q0 -233 -122.5 -367.5t-342.5 -134.5zM541 870q-169 0 -262 -103t-93 -286q0 -187 90 -295t263 -108t264.5 108.5t91.5 294.5q0 182 -93 285.5t-261 103.5zM387 1417
q46 0 83 -22.5t61 -54.5t45.5 -64.5t47 -55t54.5 -22.5q46 0 64.5 51t15.5 162h69q7 -58 7 -92q0 -104 -42 -158.5t-112 -54.5q-44 0 -79.5 23t-59.5 55t-46 64.5t-48 55.5t-56 23q-53 0 -71 -47t-15 -160h-72q-6 50 -6 88q0 103 43 156t117 53z" />
    <glyph glyph-name="odieresis" unicode="&#xf6;" horiz-adv-x="1081" 
d="M541 -23q-220 0 -342.5 134.5t-122.5 367.5q0 228 127 359t338 131q210 0 337.5 -131.5t127.5 -358.5q0 -233 -122.5 -367.5t-342.5 -134.5zM541 870q-169 0 -262 -103t-93 -286q0 -187 90 -295t263 -108t264.5 108.5t91.5 294.5q0 182 -93 285.5t-261 103.5zM266 1288
h152v-151h-152v151zM641 1288h152v-151h-152v151z" />
    <glyph glyph-name="divide" unicode="&#xf7;" horiz-adv-x="1013" 
d="M944 571h-872v101h872v-101zM436 1024h146v-147h-146v147zM436 371h146v-148h-146v148z" />
    <glyph glyph-name="oslash" unicode="&#xf8;" horiz-adv-x="1081" 
d="M541 -23q-199 0 -324 119l-94 -96h-100v12l143 144q-90 133 -90 323q0 227 127.5 358.5t337.5 131.5q197 0 321 -115l90 94h95v-12l-136 -137q95 -132 95 -320q0 -231 -125 -366.5t-340 -135.5zM541 872q-171 0 -265 -104t-94 -287q0 -148 60 -250l549 551
q-93 90 -250 90zM539 76q175 0 267.5 109t92.5 296q0 147 -59 242l-551 -555q92 -92 250 -92z" />
    <glyph glyph-name="ugrave" unicode="&#xf9;" 
d="M838 0v242h-17q-37 -121 -132 -193t-224 -72q-168 0 -250 96t-82 261v614h109v-596q0 -272 250 -272q155 0 250.5 86.5t95.5 230.5v551h108v-948h-108zM711 1077l-492 240l53 94l467 -276z" />
    <glyph glyph-name="uacute" unicode="&#xfa;" 
d="M838 0v242h-17q-37 -121 -132 -193t-224 -72q-168 0 -250 96t-82 261v614h109v-596q0 -272 250 -272q155 0 250.5 86.5t95.5 230.5v551h108v-948h-108zM381 1077l-29 58l469 274l49 -90z" />
    <glyph glyph-name="ucircumflex" unicode="&#xfb;" 
d="M838 0v242h-17q-37 -121 -132 -193t-224 -72q-168 0 -250 96t-82 261v614h109v-596q0 -272 250 -272q155 0 250.5 86.5t95.5 230.5v551h108v-948h-108zM782 1075l-241 225l-244 -225l-47 49l262 279h57l262 -279z" />
    <glyph glyph-name="udieresis" unicode="&#xfc;" 
d="M838 0v242h-17q-37 -121 -132 -193t-224 -72q-168 0 -250 96t-82 261v614h109v-596q0 -272 250 -272q155 0 250.5 86.5t95.5 230.5v551h108v-948h-108zM274 1288h152v-151h-152v151zM649 1288h152v-151h-152v151z" />
    <glyph glyph-name="yacute" unicode="&#xfd;" horiz-adv-x="962" 
d="M152 -338q-66 0 -136 12l19 103q67 -13 119 -13q48 0 82 8.5t70 33t68.5 73.5t67.5 127l-434 942h121l143 -332q4 -11 91 -217.5t122 -300.5h21q88 239 201 516l135 334h116l-419 -960q-76 -173 -167 -249.5t-220 -76.5zM322 1077l-29 58l469 274l49 -90z" />
    <glyph glyph-name="thorn" unicode="&#xfe;" horiz-adv-x="1095" 
d="M594 76q315 0 315 399q0 199 -77.5 296t-237.5 97q-156 0 -248 -96.5t-92 -261.5v-74q0 -161 93 -260.5t247 -99.5zM254 1315v-625h10q36 127 125.5 203t233.5 76q193 0 295 -128.5t102 -367.5q0 -237 -102 -366.5t-283 -129.5q-146 0 -241.5 77.5t-131.5 205.5h-8v-573
h-109v1628h109z" />
    <glyph glyph-name="ydieresis" unicode="&#xff;" horiz-adv-x="962" 
d="M152 -338q-66 0 -136 12l19 103q67 -13 119 -13q48 0 82 8.5t70 33t68.5 73.5t67.5 127l-434 942h121l143 -332q4 -11 91 -217.5t122 -300.5h21q88 239 201 516l135 334h116l-419 -960q-76 -173 -167 -249.5t-220 -76.5zM217 1288h152v-151h-152v151zM592 1288h151v-151
h-151v151z" />
    <glyph glyph-name="Amacron" unicode="&#x100;" horiz-adv-x="1171" 
d="M1042 0l-159 393h-598l-158 -393h-121l508 1229h143l508 -1229h-123zM307 1473h559v-97h-559v97zM383 639l-61 -152h524l-62 152q-90 222 -176 485h-45q-82 -240 -180 -485z" />
    <glyph glyph-name="amacron" unicode="&#x101;" horiz-adv-x="997" 
d="M408 76q156 0 252 75.5t96 192.5v78h-336q-230 0 -230 -178q0 -73 52.5 -120.5t165.5 -47.5zM760 0v225h-15q-36 -121 -129.5 -183t-226.5 -62q-305 0 -305 260q0 119 85 193.5t243 74.5h344v98q0 134 -58.5 200t-195.5 66q-224 0 -277 -227l-104 31q32 141 131.5 217
t251.5 76q360 0 360 -359v-610h-104zM219 1239h557v-92h-557v92z" />
    <glyph glyph-name="Abreve" unicode="&#x102;" horiz-adv-x="1171" 
d="M1042 0l-159 393h-598l-158 -393h-121l508 1229h143l508 -1229h-123zM586 1434q189 0 200 180h76q0 -137 -75 -205t-201 -68t-201.5 68t-75.5 205h76q13 -180 201 -180zM383 639l-61 -152h524l-62 152q-90 222 -176 485h-45q-82 -240 -180 -485z" />
    <glyph glyph-name="abreve" unicode="&#x103;" horiz-adv-x="997" 
d="M408 76q156 0 252 75.5t96 192.5v78h-336q-230 0 -230 -178q0 -73 52.5 -120.5t165.5 -47.5zM760 0v225h-15q-36 -121 -129.5 -183t-226.5 -62q-305 0 -305 260q0 119 85 193.5t243 74.5h344v98q0 134 -58.5 200t-195.5 66q-224 0 -277 -227l-104 31q32 141 131.5 217
t251.5 76q360 0 360 -359v-610h-104zM496 1184q189 0 200 211h76q0 -149 -74 -224t-202 -75t-202.5 75t-74.5 224h78q11 -211 199 -211z" />
    <glyph glyph-name="Aogonek" unicode="&#x104;" horiz-adv-x="1171" 
d="M1169 -319q-73 -13 -125 -13q-112 0 -165.5 39.5t-53.5 108.5q0 131 217 186l-159 391h-598l-158 -393h-121l508 1229h143l508 -1229q-132 -27 -193 -63t-61 -91q0 -84 142 -84q29 0 110 15zM383 639l-61 -152h524l-62 152q-90 222 -176 485h-45q-82 -240 -180 -485z" />
    <glyph glyph-name="aogonek" unicode="&#x105;" horiz-adv-x="1001" 
d="M408 76q156 0 252 75.5t96 192.5v78h-336q-230 0 -230 -178q0 -73 52.5 -120.5t165.5 -47.5zM866 -319q-73 -13 -125 -13q-112 0 -165.5 39.5t-53.5 108.5q0 71 63.5 118.5t174.5 71.5v219h-15q-36 -121 -129.5 -183t-226.5 -62q-305 0 -305 260q0 119 85 193.5t243 74.5
h344v98q0 134 -58.5 200t-195.5 66q-224 0 -277 -227l-104 31q32 141 131.5 217t251.5 76q360 0 360 -359v-610h-2q-132 -27 -193 -63t-61 -91q0 -84 142 -84q29 0 110 15z" />
    <glyph glyph-name="Cacute" unicode="&#x106;" horiz-adv-x="1275" 
d="M647 -23q-273 0 -422 173t-149 466q0 291 152.5 463t422.5 172q226 0 366.5 -121t176.5 -331l-107 -25q-77 373 -434 373q-229 0 -347 -141.5t-118 -389.5q0 -252 117 -393t344 -141q371 0 445 383l108 -23q-36 -217 -178 -341t-377 -124zM465 1364l-21 63l517 187
l34 -105z" />
    <glyph glyph-name="cacute" unicode="&#x107;" horiz-adv-x="1044" 
d="M858 608q-31 133 -103.5 197.5t-217.5 64.5q-165 0 -258 -103t-93 -296q0 -182 94.5 -287.5t264.5 -105.5q77 0 133 20t91.5 60t56.5 83t38 105l103 -29q-77 -340 -420 -340q-222 0 -346.5 133.5t-124.5 366.5q0 227 128 359.5t335 132.5q186 0 288.5 -85.5t135.5 -252.5
zM369 1077l-29 58l469 274l49 -90z" />
    <glyph glyph-name="Ccircumflex" unicode="&#x108;" horiz-adv-x="1275" 
d="M647 -23q-273 0 -422 173t-149 466q0 291 152.5 463t422.5 172q226 0 366.5 -121t176.5 -331l-107 -25q-77 373 -434 373q-229 0 -347 -141.5t-118 -389.5q0 -252 117 -393t344 -141q371 0 445 383l108 -23q-36 -217 -178 -341t-377 -124zM891 1335l-246 183l-246 -183
l-43 54l260 227h58l260 -227z" />
    <glyph glyph-name="ccircumflex" unicode="&#x109;" horiz-adv-x="1044" 
d="M858 608q-31 133 -103.5 197.5t-217.5 64.5q-165 0 -258 -103t-93 -296q0 -182 94.5 -287.5t264.5 -105.5q77 0 133 20t91.5 60t56.5 83t38 105l103 -29q-77 -340 -420 -340q-222 0 -346.5 133.5t-124.5 366.5q0 227 128 359.5t335 132.5q186 0 288.5 -85.5t135.5 -252.5
zM778 1075l-241 225l-244 -225l-47 49l262 279h57l262 -279z" />
    <glyph glyph-name="Cdotaccent" unicode="&#x10a;" horiz-adv-x="1275" 
d="M647 -23q-273 0 -422 173t-149 466q0 291 152.5 463t422.5 172q226 0 366.5 -121t176.5 -331l-107 -25q-77 373 -434 373q-229 0 -347 -141.5t-118 -389.5q0 -252 117 -393t344 -141q371 0 445 383l108 -23q-36 -217 -178 -341t-377 -124zM567 1567h158v-154h-158v154z
" />
    <glyph glyph-name="cdotaccent" unicode="&#x10b;" horiz-adv-x="1044" 
d="M858 608q-31 133 -103.5 197.5t-217.5 64.5q-165 0 -258 -103t-93 -296q0 -182 94.5 -287.5t264.5 -105.5q77 0 133 20t91.5 60t56.5 83t38 105l103 -29q-77 -340 -420 -340q-222 0 -346.5 133.5t-124.5 366.5q0 227 128 359.5t335 132.5q186 0 288.5 -85.5t135.5 -252.5
zM457 1315h157v-154h-157v154z" />
    <glyph glyph-name="Ccaron" unicode="&#x10c;" horiz-adv-x="1275" 
d="M647 -23q-273 0 -422 173t-149 466q0 291 152.5 463t422.5 172q226 0 366.5 -121t176.5 -331l-107 -25q-77 373 -434 373q-229 0 -347 -141.5t-118 -389.5q0 -252 117 -393t344 -141q371 0 445 383l108 -23q-36 -217 -178 -341t-377 -124zM674 1341h-58l-260 228l43 53
l246 -182l246 182l43 -53z" />
    <glyph glyph-name="ccaron" unicode="&#x10d;" horiz-adv-x="1044" 
d="M858 608q-31 133 -103.5 197.5t-217.5 64.5q-165 0 -258 -103t-93 -296q0 -182 94.5 -287.5t264.5 -105.5q77 0 133 20t91.5 60t56.5 83t38 105l103 -29q-77 -340 -420 -340q-222 0 -346.5 133.5t-124.5 366.5q0 227 128 359.5t335 132.5q186 0 288.5 -85.5t135.5 -252.5
zM561 1087h-57l-262 279l49 49l241 -225l242 225l49 -49z" />
    <glyph glyph-name="Dcaron" unicode="&#x10e;" horiz-adv-x="1290" 
d="M590 1128h-318v-1028h332q257 0 377.5 136t120.5 382q0 260 -123.5 385t-388.5 125zM158 0v1229h446q304 0 458.5 -156.5t154.5 -454.5q0 -291 -161 -454.5t-442 -163.5h-456zM672 1341h-58l-260 228l43 53l246 -182l246 182l43 -53z" />
    <glyph glyph-name="dcaron" unicode="&#x10f;" horiz-adv-x="1214" 
d="M502 78q155 0 247.5 97t92.5 261v72q0 162 -93 262t-247 100q-316 0 -316 -397q0 -201 78 -298t238 -97zM842 0v258h-8q-37 -126 -132 -203.5t-237 -77.5q-187 0 -288 129t-101 367q0 239 103 368.5t290 127.5q150 1 238.5 -75.5t123.5 -207.5h11v629h108v-1315h-108z
M1112 1313h105l-54 -514h-73z" />
    <glyph glyph-name="Dcroat" unicode="&#x110;" horiz-adv-x="1363" 
d="M739 569h-391v-469h332q257 0 377.5 136t120.5 382q0 260 -123.5 385t-388.5 125h-318v-469h391v-90zM233 0v569h-176v90h176v570h447q304 0 458 -156t154 -455q0 -291 -160.5 -454.5t-441.5 -163.5h-457z" />
    <glyph glyph-name="dcroat" unicode="&#x111;" horiz-adv-x="1124" 
d="M502 78q155 0 247.5 97t92.5 261v72q0 162 -93 262t-247 100q-316 0 -316 -397q0 -201 78 -298t238 -97zM842 0v258h-8q-37 -126 -132 -203.5t-237 -77.5q-187 0 -288 129t-101 367q0 239 103 368.5t290 127.5q150 1 238.5 -75.5t123.5 -207.5h11v418h-322v84h322v127
h108v-127h131v-84h-131v-1104h-108z" />
    <glyph glyph-name="Emacron" unicode="&#x112;" horiz-adv-x="1077" 
d="M158 0v1229h805v-105h-691v-444h613v-105h-613v-471h689v-104h-803zM289 1473h559v-97h-559v97z" />
    <glyph glyph-name="emacron" unicode="&#x113;" horiz-adv-x="1034" 
d="M535 874q-153 0 -242.5 -86.5t-104.5 -252.5h668q-8 166 -85.5 252.5t-235.5 86.5zM543 -20q-221 0 -344 131.5t-123 363.5q0 229 127 361.5t334 132.5q203 0 311 -118t108 -319q0 -55 -2 -88h-768q8 -174 99.5 -271t257.5 -97q139 0 208.5 62.5t102.5 176.5l98 -30
q-77 -305 -409 -305zM246 1239h557v-92h-557v92z" />
    <glyph glyph-name="Ebreve" unicode="&#x114;" horiz-adv-x="1077" 
d="M158 0v1229h805v-105h-691v-444h613v-105h-613v-471h689v-104h-803zM569 1434q190 0 201 180h76q0 -137 -75.5 -205t-201.5 -68t-201 68t-75 205h76q13 -180 200 -180z" />
    <glyph glyph-name="ebreve" unicode="&#x115;" horiz-adv-x="1034" 
d="M535 874q-153 0 -242.5 -86.5t-104.5 -252.5h668q-8 166 -85.5 252.5t-235.5 86.5zM543 -20q-221 0 -344 131.5t-123 363.5q0 229 127 361.5t334 132.5q203 0 311 -118t108 -319q0 -55 -2 -88h-768q8 -174 99.5 -271t257.5 -97q139 0 208.5 62.5t102.5 176.5l98 -30
q-77 -305 -409 -305zM524 1184q86 0 140.5 49.5t60.5 161.5h76q0 -149 -74.5 -224t-202.5 -75t-202 75t-74 224h78q11 -211 198 -211z" />
    <glyph glyph-name="Edotaccent" unicode="&#x116;" horiz-adv-x="1077" 
d="M158 0v1229h805v-105h-691v-444h613v-105h-613v-471h689v-104h-803zM492 1567h157v-154h-157v154z" />
    <glyph glyph-name="edotaccent" unicode="&#x117;" horiz-adv-x="1034" 
d="M535 874q-153 0 -242.5 -86.5t-104.5 -252.5h668q-8 166 -85.5 252.5t-235.5 86.5zM543 -20q-221 0 -344 131.5t-123 363.5q0 229 127 361.5t334 132.5q203 0 311 -118t108 -319q0 -55 -2 -88h-768q8 -174 99.5 -271t257.5 -97q139 0 208.5 62.5t102.5 176.5l98 -30
q-77 -305 -409 -305zM446 1315h158v-154h-158v154z" />
    <glyph glyph-name="Eogonek" unicode="&#x118;" horiz-adv-x="1077" 
d="M965 -319q-73 -13 -125 -13q-112 0 -165.5 39.5t-53.5 108.5q0 129 210 184h-673v1229h805v-105h-691v-444h613v-105h-613v-471h689v-104q-132 -27 -193 -63t-61 -91q0 -84 141 -84q29 0 110 15z" />
    <glyph glyph-name="eogonek" unicode="&#x119;" horiz-adv-x="1034" 
d="M535 874q-153 0 -242.5 -86.5t-104.5 -252.5h668q-8 166 -85.5 252.5t-235.5 86.5zM543 -20q-221 0 -344 131.5t-123 363.5q0 229 127 361.5t334 132.5q203 0 311 -118t108 -319q0 -55 -2 -88h-768q8 -174 99.5 -271t257.5 -97q139 0 208.5 62.5t102.5 176.5l98 -30
q-21 -90 -65.5 -153t-118.5 -116q-127 -90 -127 -188q0 -54 45 -77t111 -23q51 0 108 14l8 -98q-62 -11 -122 -11q-121 0 -177.5 45t-56.5 115q0 106 148 209q-74 -22 -162 -22z" />
    <glyph glyph-name="Ecaron" unicode="&#x11a;" horiz-adv-x="1077" 
d="M158 0v1229h805v-105h-691v-444h613v-105h-613v-471h689v-104h-803zM598 1341h-57l-260 228l43 53l245 -182l246 182l43 -53z" />
    <glyph glyph-name="ecaron" unicode="&#x11b;" horiz-adv-x="1034" 
d="M535 874q-153 0 -242.5 -86.5t-104.5 -252.5h668q-8 166 -85.5 252.5t-235.5 86.5zM543 -20q-221 0 -344 131.5t-123 363.5q0 229 127 361.5t334 132.5q203 0 311 -118t108 -319q0 -55 -2 -88h-768q8 -174 99.5 -271t257.5 -97q139 0 208.5 62.5t102.5 176.5l98 -30
q-77 -305 -409 -305zM553 1087h-57l-263 279l50 49l241 -225l242 225l49 -49z" />
    <glyph glyph-name="Gcircumflex" unicode="&#x11c;" horiz-adv-x="1312" 
d="M641 -20q-269 0 -421 159t-152 461q0 194 63.5 338.5t196.5 227.5t323 83q228 0 365 -119t176 -333l-107 -23q-41 189 -147.5 281t-284.5 92q-124 0 -215.5 -39t-147 -112t-82 -171.5t-26.5 -224.5q0 -246 118.5 -382t361.5 -136q99 0 175.5 21.5t124.5 57t79 86.5
t43 106t12 120v-4v33h-439v102h547v-604h-106v285h-15q-43 -136 -153 -220.5t-289 -84.5zM893 1335l-246 183l-246 -183l-43 54l260 227h58l260 -227z" />
    <glyph glyph-name="gcircumflex" unicode="&#x11d;" horiz-adv-x="1013" 
d="M473 852q-136 0 -204 -60t-68 -169q0 -113 65.5 -169.5t210.5 -56.5t214 56t69 170q0 108 -74.5 168.5t-212.5 60.5zM496 -246q145 0 227.5 20t110.5 53t28 89t-43.5 91.5t-132.5 35.5h-352q-99 0 -149 -44t-50 -101q0 -52 32 -82.5t111 -46t218 -15.5zM963 -80
q0 -92 -42.5 -147t-145.5 -83t-279 -28q-172 0 -276 26.5t-144.5 71t-40.5 113.5q0 126 207 170v10q-97 26 -97 115q0 58 82 111l72 53q-99 33 -151 107.5t-52 176.5q0 161 104 246.5t292 85.5h444v-96h-119q-47 0 -205 14l-2 -16q252 -49 252 -248q0 -144 -98 -220.5
t-291 -76.5q-86 0 -160 23l-39 -58q-32 -46 -32 -73q0 -64 108 -64q55 0 167 1t165 1q135 0 208 -56t73 -159zM739 1075l-241 225l-244 -225l-47 49l262 279h57l262 -279z" />
    <glyph glyph-name="Gbreve" unicode="&#x11e;" horiz-adv-x="1312" 
d="M641 -20q-269 0 -421 159t-152 461q0 194 63.5 338.5t196.5 227.5t323 83q228 0 365 -119t176 -333l-107 -23q-41 189 -147.5 281t-284.5 92q-124 0 -215.5 -39t-147 -112t-82 -171.5t-26.5 -224.5q0 -246 118.5 -382t361.5 -136q99 0 175.5 21.5t124.5 57t79 86.5
t43 106t12 120v-4v33h-439v102h547v-604h-106v285h-15q-43 -136 -153 -220.5t-289 -84.5zM647 1434q190 0 201 180h76q0 -137 -75.5 -205t-201.5 -68t-201 68t-75 205h75q13 -180 201 -180z" />
    <glyph glyph-name="gbreve" unicode="&#x11f;" horiz-adv-x="1013" 
d="M473 852q-136 0 -204 -60t-68 -169q0 -113 65.5 -169.5t210.5 -56.5t214 56t69 170q0 108 -74.5 168.5t-212.5 60.5zM496 -246q145 0 227.5 20t110.5 53t28 89t-43.5 91.5t-132.5 35.5h-352q-99 0 -149 -44t-50 -101q0 -52 32 -82.5t111 -46t218 -15.5zM963 -80
q0 -92 -42.5 -147t-145.5 -83t-279 -28q-172 0 -276 26.5t-144.5 71t-40.5 113.5q0 126 207 170v10q-97 26 -97 115q0 58 82 111l72 53q-99 33 -151 107.5t-52 176.5q0 161 104 246.5t292 85.5h444v-96h-119q-47 0 -205 14l-2 -16q252 -49 252 -248q0 -144 -98 -220.5
t-291 -76.5q-86 0 -160 23l-39 -58q-32 -46 -32 -73q0 -64 108 -64q55 0 167 1t165 1q135 0 208 -56t73 -159zM496 1184q189 0 200 211h76q0 -149 -74 -224t-202 -75t-202.5 75t-74.5 224h78q11 -211 199 -211z" />
    <glyph glyph-name="Gdotaccent" unicode="&#x120;" horiz-adv-x="1312" 
d="M641 -20q-269 0 -421 159t-152 461q0 194 63.5 338.5t196.5 227.5t323 83q228 0 365 -119t176 -333l-107 -23q-41 189 -147.5 281t-284.5 92q-124 0 -215.5 -39t-147 -112t-82 -171.5t-26.5 -224.5q0 -246 118.5 -382t361.5 -136q99 0 175.5 21.5t124.5 57t79 86.5
t43 106t12 120v-4v33h-439v102h547v-604h-106v285h-15q-43 -136 -153 -220.5t-289 -84.5zM569 1567h158v-154h-158v154z" />
    <glyph glyph-name="gdotaccent" unicode="&#x121;" horiz-adv-x="1013" 
d="M473 852q-136 0 -204 -60t-68 -169q0 -113 65.5 -169.5t210.5 -56.5t214 56t69 170q0 108 -74.5 168.5t-212.5 60.5zM496 -246q145 0 227.5 20t110.5 53t28 89t-43.5 91.5t-132.5 35.5h-352q-99 0 -149 -44t-50 -101q0 -52 32 -82.5t111 -46t218 -15.5zM963 -80
q0 -92 -42.5 -147t-145.5 -83t-279 -28q-172 0 -276 26.5t-144.5 71t-40.5 113.5q0 126 207 170v10q-97 26 -97 115q0 58 82 111l72 53q-99 33 -151 107.5t-52 176.5q0 161 104 246.5t292 85.5h444v-96h-119q-47 0 -205 14l-2 -16q252 -49 252 -248q0 -144 -98 -220.5
t-291 -76.5q-86 0 -160 23l-39 -58q-32 -46 -32 -73q0 -64 108 -64q55 0 167 1t165 1q135 0 208 -56t73 -159zM418 1315h157v-154h-157v154z" />
    <glyph glyph-name="uni0122" unicode="&#x122;" horiz-adv-x="1312" 
d="M641 -20q-269 0 -421 159t-152 461q0 194 63.5 338.5t196.5 227.5t323 83q228 0 365 -119t176 -333l-107 -23q-41 189 -147.5 281t-284.5 92q-124 0 -215.5 -39t-147 -112t-82 -171.5t-26.5 -224.5q0 -246 118.5 -382t361.5 -136q99 0 175.5 21.5t124.5 57t79 86.5
t43 106t12 120v-4v33h-439v102h547v-604h-106v285h-15q-43 -136 -153 -220.5t-289 -84.5zM643 -119h105l-121 -307h-78v18z" />
    <glyph glyph-name="uni0123" unicode="&#x123;" horiz-adv-x="1013" 
d="M526 1092h-104l121 305h78v-19zM473 852q-136 0 -204 -60t-68 -169q0 -113 65.5 -169.5t210.5 -56.5t214 56t69 170q0 108 -74.5 168.5t-212.5 60.5zM496 -246q145 0 227.5 20t110.5 53t28 89t-43.5 91.5t-132.5 35.5h-352q-99 0 -149 -44t-50 -101q0 -52 32 -82.5
t111 -46t218 -15.5zM963 -80q0 -92 -42.5 -147t-145.5 -83t-279 -28q-172 0 -276 26.5t-144.5 71t-40.5 113.5q0 126 207 170v10q-97 26 -97 115q0 58 82 111l72 53q-99 33 -151 107.5t-52 176.5q0 161 104 246.5t292 85.5h444v-96h-119q-47 0 -205 14l-2 -16
q252 -49 252 -248q0 -144 -98 -220.5t-291 -76.5q-86 0 -160 23l-39 -58q-32 -46 -32 -73q0 -64 108 -64q55 0 167 1t165 1q135 0 208 -56t73 -159z" />
    <glyph glyph-name="Hcircumflex" unicode="&#x124;" horiz-adv-x="1302" 
d="M1143 0h-115v561h-756v-561h-114v1229h114v-563h756v563h115v-1229zM897 1335l-246 183l-245 -183l-44 54l261 227h57l260 -227z" />
    <glyph glyph-name="hcircumflex" unicode="&#x125;" 
d="M254 551v-551h-109v1315h109v-610h14q38 121 133 192.5t230 71.5q163 0 244 -95.5t81 -259.5v-614h-108v596q0 124 -59 198t-187 74q-157 0 -252.5 -86.5t-95.5 -230.5zM451 1341l-246 183l-246 -183l-43 54l260 227h57l261 -227z" />
    <glyph glyph-name="Hbar" unicode="&#x126;" horiz-adv-x="1376" 
d="M1067 639v250h-758v-250h758zM1180 0h-113v537h-758v-537h-112v889h-154v94h154v246h112v-246h758v246h113v-246h153v-94h-153v-889z" />
    <glyph glyph-name="hbar" unicode="&#x127;" horiz-adv-x="1112" 
d="M276 551v-551h-108v1102h-125v86h125v127h108v-127h332v-86h-332v-397h15q38 121 132.5 192.5t229.5 71.5q163 0 244.5 -95.5t81.5 -259.5v-614h-109v596q0 125 -58.5 198.5t-186.5 73.5q-157 0 -253 -86.5t-96 -230.5z" />
    <glyph glyph-name="Itilde" unicode="&#x128;" horiz-adv-x="432" 
d="M272 0h-114v1229h114v-1229zM74 1663q46 0 83 -22.5t61 -54.5t45.5 -64.5t47 -55t54.5 -22.5q46 0 64 51t15 162h70q6 -49 6 -92q0 -104 -41.5 -158.5t-111.5 -54.5q-44 0 -79.5 23t-59.5 55t-46 64.5t-48 55.5t-56 23q-53 0 -71 -47t-15 -160h-72q-6 50 -6 88
q0 103 43 156t117 53z" />
    <glyph glyph-name="itilde" unicode="&#x129;" horiz-adv-x="522" 
d="M315 0h-108v948h108v-948zM119 1417q46 0 83 -22.5t61 -54.5t45.5 -64.5t47 -55t54.5 -22.5q46 0 64 51t15 162h70q6 -50 6 -92q0 -104 -41.5 -158.5t-111.5 -54.5q-44 0 -79.5 23t-59.5 55t-46 64.5t-48 55.5t-56 23q-53 0 -71 -47t-15 -160h-72q-6 50 -6 88
q0 103 43 156t117 53z" />
    <glyph glyph-name="Imacron" unicode="&#x12a;" horiz-adv-x="432" 
d="M272 0h-114v1229h114v-1229zM-63 1473h559v-97h-559v97z" />
    <glyph glyph-name="imacron" unicode="&#x12b;" horiz-adv-x="522" 
d="M315 0h-108v948h108v-948zM-16 1239h557v-92h-557v92z" />
    <glyph glyph-name="Ibreve" unicode="&#x12c;" horiz-adv-x="432" 
d="M272 0h-114v1229h114v-1229zM215 1434q190 0 201 180h76q0 -137 -75.5 -205t-201.5 -68t-201 68t-75 205h75q13 -180 201 -180z" />
    <glyph glyph-name="ibreve" unicode="&#x12d;" horiz-adv-x="522" 
d="M315 0h-108v948h108v-948zM260 1184q86 0 140.5 49.5t60.5 161.5h76q0 -149 -74.5 -224t-202.5 -75t-202 75t-74 224h77q11 -211 199 -211z" />
    <glyph glyph-name="Iogonek" unicode="&#x12e;" horiz-adv-x="432" 
d="M154 -332q-113 0 -166.5 39.5t-53.5 108.5q0 68 60 115t164 71v1227h114v-1227l2 -2q-132 -27 -193 -63t-61 -91q0 -84 142 -84q29 0 110 15l7 -96q-73 -13 -125 -13z" />
    <glyph glyph-name="iogonek" unicode="&#x12f;" horiz-adv-x="448" 
d="M297 1165h-145v131h145v-131zM279 0q-132 -27 -193 -63t-61 -91q0 -84 141 -84q29 0 110 15l7 -96q-73 -13 -125 -13q-112 0 -165.5 39.5t-53.5 108.5t61.5 116.5t169.5 71.5v944h109v-948z" />
    <glyph glyph-name="Idotaccent" unicode="&#x130;" horiz-adv-x="432" 
d="M272 0h-114v1229h114v-1229zM137 1567h158v-154h-158v154z" />
    <glyph glyph-name="dotlessi" unicode="&#x131;" horiz-adv-x="522" 
d="M315 0h-108v948h108v-948z" />
    <glyph glyph-name="IJ" unicode="&#x132;" horiz-adv-x="1048" 
d="M272 0h-114v1229h114v-1229zM778 295v934h113v-932q0 -313 -281 -313q-75 0 -149 14l8 102q71 -12 131 -12q94 0 136 52t42 155z" />
    <glyph glyph-name="ij" unicode="&#x133;" horiz-adv-x="921" 
d="M297 1165h-145v131h145v-131zM279 0h-109v948h109v-948zM752 -37q0 -139 -62.5 -218t-181.5 -79q-50 0 -96 8l8 99q43 -6 86 -6q137 0 137 190v989h109v-983zM770 1165h-145v131h145v-131z" />
    <glyph glyph-name="Jcircumflex" unicode="&#x134;" horiz-adv-x="618" 
d="M346 295v934h113v-932q0 -313 -281 -313q-75 0 -149 14l8 102q70 -12 131 -12q94 0 136 52t42 155zM662 1335l-246 183l-246 -183l-43 54l260 227h57l261 -227z" />
    <glyph glyph-name="jcircumflex" unicode="&#x135;" horiz-adv-x="475" 
d="M303 -41q0 -138 -62.5 -217.5t-181.5 -79.5q-39 0 -96 10l8 99q65 -9 86 -9q138 0 138 193v991h108v-987zM457 1106l-209 192l-209 -192l-47 47l227 248h57l228 -248z" />
    <glyph glyph-name="uni0136" unicode="&#x136;" horiz-adv-x="1130" 
d="M989 0l-614 535h-103v-535h-114v1229h114v-594h99l587 594h129v-23l-626 -614l663 -569v-23h-135zM596 -119h104l-120 -307h-78v18z" />
    <glyph glyph-name="uni0137" unicode="&#x137;" horiz-adv-x="958" 
d="M266 1315v-795h101l419 428h125v-22l-454 -449l499 -454v-23h-129l-456 430h-105v-430h-108v1315h108zM485 -119h105l-121 -307h-78v18z" />
    <glyph glyph-name="kgreenlandic" unicode="&#x138;" horiz-adv-x="958" 
d="M827 0l-456 430h-105v-430h-108v948h108v-428h101l419 428h125v-22l-454 -449l499 -454v-23h-129z" />
    <glyph glyph-name="Lacute" unicode="&#x139;" horiz-adv-x="925" 
d="M221 1364l-20 63l516 187l35 -105zM272 1229v-1125h607v-104h-721v1229h114z" />
    <glyph glyph-name="lacute" unicode="&#x13a;" horiz-adv-x="423" 
d="M266 1315v-1315h-108v1315h108zM57 1376l-20 64l516 186l35 -104z" />
    <glyph glyph-name="uni013B" unicode="&#x13b;" horiz-adv-x="925" 
d="M272 1229v-1125h607v-104h-721v1229h114zM539 -119h104l-121 -307h-78v18z" />
    <glyph glyph-name="uni013C" unicode="&#x13c;" horiz-adv-x="423" 
d="M266 1315v-1315h-108v1315h108zM197 -119h104l-121 -307h-78v18z" />
    <glyph glyph-name="Lcaron" unicode="&#x13d;" horiz-adv-x="925" 
d="M735 1241h105l-54 -514h-73zM272 1229v-1125h607v-104h-721v1229h114z" />
    <glyph glyph-name="lcaron" unicode="&#x13e;" horiz-adv-x="516" 
d="M266 1315v-1315h-108v1315h108zM410 1313h104l-53 -514h-74z" />
    <glyph glyph-name="Ldot" unicode="&#x13f;" horiz-adv-x="925" 
d="M680 756h158v-152h-158v152zM272 1229v-1125h607v-104h-721v1229h114z" />
    <glyph glyph-name="ldot" unicode="&#x140;" horiz-adv-x="624" 
d="M266 1315v-1315h-108v1315h108zM422 586h158v-154h-158v154z" />
    <glyph glyph-name="Lslash" unicode="&#x141;" horiz-adv-x="948" 
d="M297 1229v-596l358 192v-96l-358 -190v-435h606v-104h-721v477l-141 -76v95l141 75v658h115z" />
    <glyph glyph-name="lslash" unicode="&#x142;" horiz-adv-x="501" 
d="M303 1315v-676l178 100v-96l-178 -100v-543h-108v483l-175 -98v94l175 99v737h108z" />
    <glyph glyph-name="Nacute" unicode="&#x143;" horiz-adv-x="1294" 
d="M981 0l-444 696q-118 182 -234 420l-49 -2q16 -227 16 -598v-516h-112v1229h176l393 -617q136 -213 272 -479l43 2q-18 288 -18 578v516h111v-1229h-154zM465 1364l-21 63l517 187l34 -105z" />
    <glyph glyph-name="nacute" unicode="&#x144;" 
d="M254 551v-551h-109v948h107v-243h14q39 121 134.5 192.5t226.5 71.5q167 0 248 -95t81 -260v-614h-108v596q0 272 -250 272q-155 0 -249.5 -86.5t-94.5 -230.5zM391 1077l-29 58l469 274l50 -90z" />
    <glyph glyph-name="uni0145" unicode="&#x145;" horiz-adv-x="1294" 
d="M981 0l-444 696q-118 182 -234 420l-49 -2q16 -227 16 -598v-516h-112v1229h176l393 -617q136 -213 272 -479l43 2q-18 288 -18 578v516h111v-1229h-154zM633 -119h104l-121 -307h-77v18z" />
    <glyph glyph-name="uni0146" unicode="&#x146;" 
d="M254 551v-551h-109v948h107v-243h14q39 121 134.5 192.5t226.5 71.5q167 0 248 -95t81 -260v-614h-108v596q0 272 -250 272q-155 0 -249.5 -86.5t-94.5 -230.5zM537 -119h104l-121 -307h-78v18z" />
    <glyph glyph-name="Ncaron" unicode="&#x147;" horiz-adv-x="1294" 
d="M981 0l-444 696q-118 182 -234 420l-49 -2q16 -227 16 -598v-516h-112v1229h176l393 -617q136 -213 272 -479l43 2q-18 288 -18 578v516h111v-1229h-154zM676 1341h-58l-260 228l43 53l246 -182l246 182l43 -53z" />
    <glyph glyph-name="ncaron" unicode="&#x148;" 
d="M254 551v-551h-109v948h107v-243h14q39 121 134.5 192.5t226.5 71.5q167 0 248 -95t81 -260v-614h-108v596q0 272 -250 272q-155 0 -249.5 -86.5t-94.5 -230.5zM580 1087h-58l-262 279l49 49l242 -225l242 225l49 -49z" />
    <glyph glyph-name="napostrophe" unicode="&#x149;" horiz-adv-x="1353" 
d="M174 1229h121l-158 -541h-65v12zM442 551v-551h-108v948h106v-243h15q39 122 134.5 193t225.5 71q167 0 248.5 -95.5t81.5 -259.5v-614h-109v596q0 272 -250 272q-155 0 -249.5 -86.5t-94.5 -230.5z" />
    <glyph glyph-name="Eng" unicode="&#x14a;" horiz-adv-x="1294" 
d="M158 0v1229h176l426 -649q96 -149 254 -430h28q-18 284 -18 565v514h111v-1254q0 -309 -281 -309q-70 0 -149 12l8 103q82 -14 133 -14q94 0 136 51t42 153v15l-477 712q-123 184 -246 416h-49q18 -255 18 -598v-516h-112z" />
    <glyph glyph-name="eng" unicode="&#x14b;" 
d="M848 -43v639q0 274 -250 274q-154 0 -249 -87.5t-95 -231.5v-551h-109v948h107v-243h14q39 121 134.5 192.5t226.5 71.5q167 0 248 -95t81 -260v-651q0 -139 -62 -218t-181 -79q-51 0 -97 8l9 101q39 -8 86 -8q137 0 137 190z" />
    <glyph glyph-name="Omacron" unicode="&#x14c;" horiz-adv-x="1349" 
d="M674 -23q-189 0 -326 82.5t-205.5 225.5t-68.5 331t69 330t205.5 223.5t325.5 81.5q284 0 443 -174.5t159 -460.5q0 -188 -68.5 -331t-206 -225.5t-327.5 -82.5zM674 82q241 0 364 145t123 389q0 243 -124 387t-363 144q-237 0 -361.5 -144t-124.5 -387q0 -119 30 -216
t89 -168.5t152.5 -110.5t214.5 -39zM395 1473h559v-97h-559v97z" />
    <glyph glyph-name="omacron" unicode="&#x14d;" horiz-adv-x="1081" 
d="M541 -23q-220 0 -342.5 134.5t-122.5 367.5q0 228 127 359t338 131q210 0 337.5 -131.5t127.5 -358.5q0 -233 -122.5 -367.5t-342.5 -134.5zM541 870q-169 0 -262 -103t-93 -286q0 -187 90 -295t263 -108t264.5 108.5t91.5 294.5q0 182 -93 285.5t-261 103.5zM254 1239
h557v-92h-557v92z" />
    <glyph glyph-name="Obreve" unicode="&#x14e;" horiz-adv-x="1349" 
d="M674 -23q-189 0 -326 82.5t-205.5 225.5t-68.5 331t69 330t205.5 223.5t325.5 81.5q284 0 443 -174.5t159 -460.5q0 -188 -68.5 -331t-206 -225.5t-327.5 -82.5zM674 82q241 0 364 145t123 389q0 243 -124 387t-363 144q-237 0 -361.5 -144t-124.5 -387q0 -119 30 -216
t89 -168.5t152.5 -110.5t214.5 -39zM674 1434q189 0 200 180h76q0 -137 -75 -205t-201 -68t-201.5 68t-75.5 205h76q13 -180 201 -180z" />
    <glyph glyph-name="obreve" unicode="&#x14f;" horiz-adv-x="1081" 
d="M541 -23q-220 0 -342.5 134.5t-122.5 367.5q0 228 127 359t338 131q210 0 337.5 -131.5t127.5 -358.5q0 -233 -122.5 -367.5t-342.5 -134.5zM541 870q-169 0 -262 -103t-93 -286q0 -187 90 -295t263 -108t264.5 108.5t91.5 294.5q0 182 -93 285.5t-261 103.5zM530 1184
q86 0 140.5 49.5t60.5 161.5h76q0 -149 -74.5 -224t-202.5 -75t-202 75t-74 224h78q11 -211 198 -211z" />
    <glyph glyph-name="Ohungarumlaut" unicode="&#x150;" horiz-adv-x="1349" 
d="M674 -23q-189 0 -326 82.5t-205.5 225.5t-68.5 331t69 330t205.5 223.5t325.5 81.5q284 0 443 -174.5t159 -460.5q0 -188 -68.5 -331t-206 -225.5t-327.5 -82.5zM674 82q241 0 364 145t123 389q0 243 -124 387t-363 144q-237 0 -361.5 -144t-124.5 -387q0 -119 30 -216
t89 -168.5t152.5 -110.5t214.5 -39zM512 1319l-55 39l221 315l92 -67zM782 1321l-53 41l232 309l92 -69z" />
    <glyph glyph-name="ohungarumlaut" unicode="&#x151;" horiz-adv-x="1081" 
d="M541 -23q-220 0 -342.5 134.5t-122.5 367.5q0 228 127 359t338 131q210 0 337.5 -131.5t127.5 -358.5q0 -233 -122.5 -367.5t-342.5 -134.5zM541 870q-169 0 -262 -103t-93 -286q0 -187 90 -295t263 -108t264.5 108.5t91.5 294.5q0 182 -93 285.5t-261 103.5zM375 1073
l-60 37l187 332l94 -62zM637 1075l-57 41l200 324l92 -64z" />
    <glyph glyph-name="OE" unicode="&#x152;" horiz-adv-x="1775" 
d="M678 104h178v1020h-178q-240 0 -365 -136.5t-125 -371.5q0 -237 124 -374.5t366 -137.5zM678 0q-191 0 -328.5 78t-206.5 216t-69 322q0 280 159.5 446.5t444.5 166.5h983v-105h-690v-444h612v-105h-612v-471h688v-104h-981z" />
    <glyph glyph-name="oe" unicode="&#x153;" horiz-adv-x="1851" 
d="M541 870q-169 0 -262 -103t-93 -286q0 -187 90 -295t263 -108t264.5 108.5t91.5 294.5q0 182 -93 285.5t-261 103.5zM1352 874q-154 0 -243.5 -88t-102.5 -256h667q-10 344 -321 344zM1366 -23q-165 0 -271.5 89.5t-142.5 252.5h-8q-34 -162 -139 -252t-268 -90
q-219 0 -340 134.5t-121 367.5q0 227 126.5 358.5t334.5 131.5q159 0 266.5 -90t142.5 -252h6q35 162 143.5 252t264.5 90q200 0 308 -118t108 -319q0 -52 -4 -83h-768q6 -175 98.5 -274t257.5 -99q73 0 127.5 18t89.5 53t56.5 75t37.5 95l98 -30q-75 -310 -403 -310z" />
    <glyph glyph-name="Racute" unicode="&#x154;" horiz-adv-x="1191" 
d="M606 1128h-334v-495h336q150 0 233 64t83 186q0 125 -71.5 185t-246.5 60zM981 0l-395 532h-314v-532h-114v1229h460q217 0 318.5 -90.5t101.5 -255.5q0 -143 -85.5 -233.5t-247.5 -110.5l403 -516v-23h-127zM393 1364l-20 63l516 187l35 -105z" />
    <glyph glyph-name="racute" unicode="&#x155;" horiz-adv-x="651" 
d="M254 0h-109v948h107v-241h10q68 251 311 251h41v-114h-43q-162 0 -239.5 -81t-77.5 -261v-502zM217 1077l-29 58l469 274l50 -90z" />
    <glyph glyph-name="uni0156" unicode="&#x156;" horiz-adv-x="1191" 
d="M600 -119h105l-121 -307h-78v18zM606 1128h-334v-495h336q150 0 233 64t83 186q0 125 -71.5 185t-246.5 60zM981 0l-395 532h-314v-532h-114v1229h460q217 0 318.5 -90.5t101.5 -255.5q0 -143 -85.5 -233.5t-247.5 -110.5l403 -516v-23h-127z" />
    <glyph glyph-name="uni0157" unicode="&#x157;" horiz-adv-x="651" 
d="M254 0h-109v948h107v-241h10q68 251 311 251h41v-114h-43q-162 0 -239.5 -81t-77.5 -261v-502zM197 -119h104l-121 -307h-78v18z" />
    <glyph glyph-name="Rcaron" unicode="&#x158;" horiz-adv-x="1191" 
d="M606 1128h-334v-495h336q150 0 233 64t83 186q0 125 -71.5 185t-246.5 60zM981 0l-395 532h-314v-532h-114v1229h460q217 0 318.5 -90.5t101.5 -255.5q0 -143 -85.5 -233.5t-247.5 -110.5l403 -516v-23h-127zM608 1341h-57l-260 228l43 53l246 -182l245 182l43 -53z" />
    <glyph glyph-name="rcaron" unicode="&#x159;" horiz-adv-x="651" 
d="M254 0h-109v948h107v-241h10q68 251 311 251h41v-114h-43q-162 0 -239.5 -81t-77.5 -261v-502zM406 1087h-58l-262 279l49 49l242 -225l241 225l50 -49z" />
    <glyph glyph-name="Sacute" unicode="&#x15a;" horiz-adv-x="1116" 
d="M588 -23q-235 1 -363 111t-157 309l108 25q28 -170 127.5 -256t284.5 -86q170 0 251 62t81 173q0 106 -78.5 163.5t-270.5 92.5q-163 30 -262.5 82t-139.5 118t-40 157q0 149 109 236t313 87q103 0 181 -25t130 -75t85 -114t54 -152l-112 -25q-36 152 -110.5 221.5
t-231.5 69.5q-151 0 -228 -58t-77 -161q0 -65 29.5 -110t110.5 -83.5t222 -66.5q124 -24 209 -58t133 -79t68 -95.5t20 -115.5q0 -161 -109.5 -254t-336.5 -93zM365 1364l-21 63l516 187l35 -105z" />
    <glyph glyph-name="sacute" unicode="&#x15b;" horiz-adv-x="921" 
d="M494 -23q-196 0 -296 81t-137 241l103 20q14 -55 36 -96.5t59.5 -77t97 -54.5t139.5 -19q121 0 183 45.5t62 132.5q0 82 -65 121.5t-230 64.5q-174 27 -251.5 93t-77.5 176q0 120 87 192t249 72q85 0 147.5 -19t105 -57t68.5 -86.5t45 -116.5l-104 -24
q-29 114 -91.5 162.5t-170.5 48.5q-111 0 -169.5 -44t-58.5 -122q0 -72 60 -117.5t204 -67.5q190 -29 275.5 -94t85.5 -182q0 -125 -88 -199t-268 -74zM326 1077l-29 58l469 274l49 -90z" />
    <glyph glyph-name="Scircumflex" unicode="&#x15c;" horiz-adv-x="1116" 
d="M588 -23q-235 1 -363 111t-157 309l108 25q28 -170 127.5 -256t284.5 -86q170 0 251 62t81 173q0 106 -78.5 163.5t-270.5 92.5q-163 30 -262.5 82t-139.5 118t-40 157q0 149 109 236t313 87q103 0 181 -25t130 -75t85 -114t54 -152l-112 -25q-36 152 -110.5 221.5
t-231.5 69.5q-151 0 -228 -58t-77 -161q0 -65 29.5 -110t110.5 -83.5t222 -66.5q124 -24 209 -58t133 -79t68 -95.5t20 -115.5q0 -161 -109.5 -254t-336.5 -93zM797 1335l-246 183l-246 -183l-43 54l260 227h58l260 -227z" />
    <glyph glyph-name="scircumflex" unicode="&#x15d;" horiz-adv-x="921" 
d="M494 -23q-196 0 -296 81t-137 241l103 20q14 -55 36 -96.5t59.5 -77t97 -54.5t139.5 -19q121 0 183 45.5t62 132.5q0 82 -65 121.5t-230 64.5q-174 27 -251.5 93t-77.5 176q0 120 87 192t249 72q85 0 147.5 -19t105 -57t68.5 -86.5t45 -116.5l-104 -24
q-29 114 -91.5 162.5t-170.5 48.5q-111 0 -169.5 -44t-58.5 -122q0 -72 60 -117.5t204 -67.5q190 -29 275.5 -94t85.5 -182q0 -125 -88 -199t-268 -74zM711 1075l-242 225l-244 -225l-47 49l262 279h58l262 -279z" />
    <glyph glyph-name="uni015E" unicode="&#x15e;" horiz-adv-x="1116" 
d="M588 -23h-31l-37 -88q53 17 92 17q66 0 108 -26.5t42 -84.5q0 -23 -9.5 -45.5t-29 -44.5t-57 -35.5t-86.5 -13.5q-128 0 -207 61l43 64q77 -51 162 -51q53 0 78.5 19t25.5 48t-25 45.5t-69 16.5q-32 0 -90 -15l-52 25l43 115q-368 44 -421 413l108 25q28 -170 127.5 -256
t284.5 -86q170 0 251 62t81 173q0 106 -78.5 163.5t-270.5 92.5q-163 30 -262.5 82t-139.5 118t-40 157q0 149 109 236t313 87q103 0 181 -25t130 -75t85 -114t54 -152l-112 -25q-36 152 -110.5 221.5t-231.5 69.5q-151 0 -228 -58t-77 -161q0 -65 29.5 -110t110.5 -83.5
t222 -66.5q124 -24 209 -58t133 -79t68 -95.5t20 -115.5q0 -161 -109.5 -254t-336.5 -93z" />
    <glyph glyph-name="uni015F" unicode="&#x15f;" horiz-adv-x="921" 
d="M494 -23q-22 0 -43 3l-37 -91q53 17 92 17q66 0 107.5 -26.5t41.5 -84.5q0 -23 -9.5 -45.5t-29 -44.5t-57 -35.5t-86.5 -13.5q-128 0 -207 61l43 64q77 -51 162 -51q53 0 78.5 19t25.5 48t-25 45.5t-69 16.5q-33 0 -90 -15l-51 25l45 117q-141 21 -216 98.5t-108 214.5
l103 20q14 -55 36 -96.5t59.5 -77t97 -54.5t139.5 -19q121 0 183 45.5t62 132.5q0 82 -65 121.5t-230 64.5q-174 27 -251.5 93t-77.5 176q0 120 87 192t249 72q85 0 147.5 -19t105 -57t68.5 -86.5t45 -116.5l-104 -24q-29 114 -91.5 162.5t-170.5 48.5q-111 0 -169.5 -44
t-58.5 -122q0 -72 60 -117.5t204 -67.5q190 -29 275.5 -94t85.5 -182q0 -125 -88 -199t-268 -74z" />
    <glyph glyph-name="Scaron" unicode="&#x160;" horiz-adv-x="1116" 
d="M588 -23q-235 1 -363 111t-157 309l108 25q28 -170 127.5 -256t284.5 -86q170 0 251 62t81 173q0 106 -78.5 163.5t-270.5 92.5q-163 30 -262.5 82t-139.5 118t-40 157q0 149 109 236t313 87q103 0 181 -25t130 -75t85 -114t54 -152l-112 -25q-36 152 -110.5 221.5
t-231.5 69.5q-151 0 -228 -58t-77 -161q0 -65 29.5 -110t110.5 -83.5t222 -66.5q124 -24 209 -58t133 -79t68 -95.5t20 -115.5q0 -161 -109.5 -254t-336.5 -93zM584 1341h-58l-260 228l43 53l246 -182l246 182l43 -53z" />
    <glyph glyph-name="scaron" unicode="&#x161;" horiz-adv-x="921" 
d="M494 -23q-196 0 -296 81t-137 241l103 20q14 -55 36 -96.5t59.5 -77t97 -54.5t139.5 -19q121 0 183 45.5t62 132.5q0 82 -65 121.5t-230 64.5q-174 27 -251.5 93t-77.5 176q0 120 87 192t249 72q85 0 147.5 -19t105 -57t68.5 -86.5t45 -116.5l-104 -24
q-29 114 -91.5 162.5t-170.5 48.5q-111 0 -169.5 -44t-58.5 -122q0 -72 60 -117.5t204 -67.5q190 -29 275.5 -94t85.5 -182q0 -125 -88 -199t-268 -74zM494 1087h-58l-262 279l49 49l242 -225l242 225l49 -49z" />
    <glyph glyph-name="Tcommaaccent" unicode="&#x162;" horiz-adv-x="1036" 
d="M35 1122v107h966v-107h-426v-1122h-55l-45 -111q53 17 92 17q66 0 108 -26.5t42 -84.5q0 -23 -9.5 -45.5t-29 -44.5t-57 -35.5t-86.5 -13.5q-128 0 -207 61l43 64q77 -51 161 -51q53 0 79 19t26 48t-25 45.5t-69 16.5q-33 0 -90 -15l-52 25l60 156v1097h-426z" />
    <glyph glyph-name="tcommaaccent" unicode="&#x163;" horiz-adv-x="708" 
d="M209 272v578h-164v98h164v281h108v-281h338v-98h-338v-576q0 -98 41 -146t131 -48q76 0 160 24l17 -96q-105 -31 -189 -31q-39 0 -76 9l-39 -97q53 17 93 17q66 0 107.5 -26.5t41.5 -84.5q0 -23 -9.5 -45.5t-29 -44.5t-57 -35.5t-86.5 -13.5q-128 0 -207 61l43 64
q77 -51 162 -51q53 0 78.5 19t25.5 48t-25 45.5t-69 16.5q-32 0 -90 -15l-51 25l53 137q-66 33 -99.5 102t-33.5 164z" />
    <glyph glyph-name="Tcaron" unicode="&#x164;" horiz-adv-x="1036" 
d="M1001 1122h-426v-1122h-114v1122h-426v107h966v-107zM547 1341h-58l-260 228l43 53l246 -182l246 182l43 -53z" />
    <glyph glyph-name="tcaron" unicode="&#x165;" horiz-adv-x="710" 
d="M565 1376h103l-39 -332h-72zM209 272v578h-164v98h164v281h108v-281h338v-98h-338v-576q0 -98 41 -146t131 -48q76 0 160 24l17 -96q-105 -31 -189 -31q-133 0 -200.5 79.5t-67.5 215.5z" />
    <glyph glyph-name="Tbar" unicode="&#x166;" horiz-adv-x="1034" 
d="M37 1122v107h967v-107h-426v-499h299v-91h-299v-532h-115v532h-305v91h305v499h-426z" />
    <glyph glyph-name="tbar" unicode="&#x167;" horiz-adv-x="708" 
d="M209 272v203h-137v88h137v287h-164v98h164v281h108v-281h338v-98h-338v-287h314v-88h-314v-201q0 -98 41 -146t131 -48q76 0 160 24l17 -96q-105 -31 -189 -31q-133 0 -200.5 79.5t-67.5 215.5z" />
    <glyph glyph-name="Utilde" unicode="&#x168;" horiz-adv-x="1282" 
d="M653 82q195 0 276 98t81 281v768h114v-772q0 -234 -120 -355.5t-351 -121.5q-235 0 -365 121.5t-130 355.5v772h114v-756q0 -391 381 -391zM500 1663q46 0 83 -22.5t61 -54.5t45.5 -64.5t47 -55t54.5 -22.5q46 0 64 51t15 162h70q6 -50 6 -92q0 -104 -41.5 -158.5
t-111.5 -54.5q-44 0 -79.5 23t-59.5 55t-46 64.5t-48 55.5t-56 23q-53 0 -71 -47t-15 -160h-72q-6 50 -6 88q0 103 43 156t117 53z" />
    <glyph glyph-name="utilde" unicode="&#x169;" 
d="M838 0v242h-17q-37 -121 -132 -193t-224 -72q-168 0 -250 96t-82 261v614h109v-596q0 -272 250 -272q155 0 250.5 86.5t95.5 230.5v551h108v-948h-108zM395 1417q46 0 83 -22.5t61 -54.5t45.5 -64.5t47 -55t54.5 -22.5q46 0 64.5 51t15.5 162h70q6 -50 6 -92
q0 -104 -42 -158.5t-112 -54.5q-44 0 -79.5 23t-59.5 55t-46 64.5t-48 55.5t-56 23q-53 0 -71 -47t-15 -160h-71q-6 50 -6 88q0 103 42.5 156t116.5 53z" />
    <glyph glyph-name="Umacron" unicode="&#x16a;" horiz-adv-x="1282" 
d="M653 82q195 0 276 98t81 281v768h114v-772q0 -234 -120 -355.5t-351 -121.5q-235 0 -365 121.5t-130 355.5v772h114v-756q0 -391 381 -391zM362 1473h560v-97h-560v97z" />
    <glyph glyph-name="umacron" unicode="&#x16b;" 
d="M838 0v242h-17q-37 -121 -132 -193t-224 -72q-168 0 -250 96t-82 261v614h109v-596q0 -272 250 -272q155 0 250.5 86.5t95.5 230.5v551h108v-948h-108zM262 1239h557v-92h-557v92z" />
    <glyph glyph-name="Ubreve" unicode="&#x16c;" horiz-adv-x="1282" 
d="M653 82q195 0 276 98t81 281v768h114v-772q0 -234 -120 -355.5t-351 -121.5q-235 0 -365 121.5t-130 355.5v772h114v-756q0 -391 381 -391zM641 1434q190 0 201 180h76q0 -137 -75.5 -205t-201.5 -68t-201 68t-75 205h75q13 -180 201 -180z" />
    <glyph glyph-name="ubreve" unicode="&#x16d;" 
d="M838 0v242h-17q-37 -121 -132 -193t-224 -72q-168 0 -250 96t-82 261v614h109v-596q0 -272 250 -272q155 0 250.5 86.5t95.5 230.5v551h108v-948h-108zM539 1184q189 0 200 211h76q0 -149 -74 -224t-202 -75t-202.5 75t-74.5 224h78q11 -211 199 -211z" />
    <glyph glyph-name="Uring" unicode="&#x16e;" horiz-adv-x="1282" 
d="M653 82q195 0 276 98t81 281v768h114v-772q0 -234 -120 -355.5t-351 -121.5q-235 0 -365 121.5t-130 355.5v772h114v-756q0 -391 381 -391zM846 1532q0 -91 -55.5 -145t-149.5 -54q-93 0 -148 54t-55 145t55 146t148 55t149 -55t56 -146zM522 1532q0 -58 32 -90.5
t87 -32.5q56 0 87.5 32.5t31.5 90.5t-31.5 90.5t-87.5 32.5q-55 0 -87 -32.5t-32 -90.5z" />
    <glyph glyph-name="uring" unicode="&#x16f;" 
d="M838 0v242h-17q-37 -121 -132 -193t-224 -72q-168 0 -250 96t-82 261v614h109v-596q0 -272 250 -272q155 0 250.5 86.5t95.5 230.5v551h108v-948h-108zM403 1292q0 -65 37 -101t101 -36t100.5 36t36.5 103q0 65 -36.5 101.5t-100.5 36.5t-101 -36.5t-37 -103.5zM762 1294
q0 -100 -60 -159.5t-161 -59.5q-102 0 -163 59t-61 158q0 100 60.5 159.5t163.5 59.5q101 0 161 -59t60 -158z" />
    <glyph glyph-name="Uhungarumlaut" unicode="&#x170;" horiz-adv-x="1282" 
d="M653 82q195 0 276 98t81 281v768h114v-772q0 -234 -120 -355.5t-351 -121.5q-235 0 -365 121.5t-130 355.5v772h114v-756q0 -391 381 -391zM479 1319l-55 39l221 315l92 -67zM750 1321l-54 41l232 309l92 -69z" />
    <glyph glyph-name="uhungarumlaut" unicode="&#x171;" 
d="M838 0v242h-17q-37 -121 -132 -193t-224 -72q-168 0 -250 96t-82 261v614h109v-596q0 -272 250 -272q155 0 250.5 86.5t95.5 230.5v551h108v-948h-108zM649 1075l-57 41l201 324l92 -64zM387 1073l-59 37l186 332l94 -62z" />
    <glyph glyph-name="Uogonek" unicode="&#x172;" horiz-adv-x="1282" 
d="M653 82q195 0 276 98t81 281v768h114v-772q0 -186 -75.5 -301.5t-223.5 -155.5q-4 0 -6 -2q-5 -1 -18 -4t-21 -4q-108 -25 -158.5 -59t-50.5 -85q0 -84 142 -84q29 0 110 15l6 -96q-73 -13 -124 -13q-113 0 -166.5 39.5t-53.5 108.5q0 106 148 164q-226 5 -350.5 126
t-124.5 351v772h114v-756q0 -391 381 -391z" />
    <glyph glyph-name="uogonek" unicode="&#x173;" 
d="M950 -319q-73 -13 -125 -13q-112 0 -165.5 39.5t-53.5 108.5t62 116.5t170 71.5v238h-17q-37 -121 -132 -193t-224 -72q-168 0 -250 96t-82 261v614h109v-596q0 -272 250 -272q155 0 250.5 86.5t95.5 230.5v551h108v-948q-132 -27 -193 -63t-61 -91q0 -84 142 -84
q29 0 110 15z" />
    <glyph glyph-name="Wcircumflex" unicode="&#x174;" horiz-adv-x="1699" 
d="M678 510l-143 -510h-179l-340 1229h125l160 -623q72 -280 121 -504h55q76 324 123 502l176 625h152l176 -625q59 -210 123 -502h53q48 216 121 504l162 623h120l-340 -1229h-178l-145 510q-104 371 -150 606h-41q-81 -357 -151 -606zM1096 1335l-246 183l-246 -183
l-43 54l260 227h58l260 -227z" />
    <glyph glyph-name="wcircumflex" unicode="&#x175;" horiz-adv-x="1503" 
d="M819 948l119 -366q98 -312 141 -482h33q36 139 145 490l115 358h113l-320 -948h-143l-137 424q-65 194 -121 424h-27q-56 -230 -121 -424l-137 -424h-141l-322 948h111l119 -358q103 -303 149 -490h37q40 164 137 482l119 366h131zM993 1075l-241 225l-244 -225l-47 49
l262 279h57l262 -279z" />
    <glyph glyph-name="Ycircumflex" unicode="&#x176;" horiz-adv-x="1071" 
d="M592 0h-113v434l-479 772v23h119l407 -703h23l405 703h115v-23l-477 -776v-430zM780 1335l-245 183l-246 -183l-43 54l260 227h57l260 -227z" />
    <glyph glyph-name="ycircumflex" unicode="&#x177;" horiz-adv-x="962" 
d="M152 -338q-66 0 -136 12l19 103q67 -13 119 -13q48 0 82 8.5t70 33t68.5 73.5t67.5 127l-434 942h121l143 -332q4 -11 91 -217.5t122 -300.5h21q88 239 201 516l135 334h116l-419 -960q-76 -173 -167 -249.5t-220 -76.5zM723 1075l-242 225l-243 -225l-48 49l263 279h57
l262 -279z" />
    <glyph glyph-name="Ydieresis" unicode="&#x178;" horiz-adv-x="1071" 
d="M592 0h-113v434l-479 772v23h119l407 -703h23l405 703h115v-23l-477 -776v-430zM270 1520h152v-152h-152v152zM645 1520h152v-152h-152v152z" />
    <glyph glyph-name="Zacute" unicode="&#x179;" horiz-adv-x="1138" 
d="M1040 106v-106h-964v106l829 1024l-6 15q-265 -23 -448 -23h-351v107h940v-103l-837 -1028l8 -14q284 22 487 22h342zM375 1364l-21 63l516 187l35 -105z" />
    <glyph glyph-name="zacute" unicode="&#x17a;" horiz-adv-x="978" 
d="M614 100h273v-100h-803v102l680 756l-8 12q-233 -22 -434 -22h-220v100h777v-102l-676 -756l6 -12q266 22 405 22zM328 1077l-29 58l469 274l49 -90z" />
    <glyph glyph-name="Zdotaccent" unicode="&#x17b;" horiz-adv-x="1138" 
d="M1040 106v-106h-964v106l829 1024l-6 15q-265 -23 -448 -23h-351v107h940v-103l-837 -1028l8 -14q284 22 487 22h342zM479 1567h158v-154h-158v154z" />
    <glyph glyph-name="zdotaccent" unicode="&#x17c;" horiz-adv-x="978" 
d="M614 100h273v-100h-803v102l680 756l-8 12q-233 -22 -434 -22h-220v100h777v-102l-676 -756l6 -12q266 22 405 22zM408 1315h157v-154h-157v154z" />
    <glyph glyph-name="Zcaron" unicode="&#x17d;" horiz-adv-x="1138" 
d="M1040 106v-106h-964v106l829 1024l-6 15q-265 -23 -448 -23h-351v107h940v-103l-837 -1028l8 -14q284 22 487 22h342zM588 1341h-58l-260 228l43 53l246 -182l246 182l43 -53z" />
    <glyph glyph-name="zcaron" unicode="&#x17e;" horiz-adv-x="978" 
d="M614 100h273v-100h-803v102l680 756l-8 12q-233 -22 -434 -22h-220v100h777v-102l-676 -756l6 -12q266 22 405 22zM514 1087h-57l-262 279l49 49l241 -225l242 225l49 -49z" />
    <glyph glyph-name="Aringacute" unicode="&#x1fa;" horiz-adv-x="1171" 
d="M438 1593l-20 64l514 188l35 -112zM383 639l-61 -152h524l-62 152q-90 222 -176 485h-45q-82 -240 -180 -485zM467 1352q0 -53 28 -85.5t74 -37.5h37q46 5 73.5 37.5t27.5 85.5q0 58 -31.5 91.5t-87.5 33.5t-88.5 -33.5t-32.5 -91.5zM1042 0l-159 393h-598l-158 -393
h-121l483 1171q-51 22 -78.5 69t-27.5 112q0 93 55 147.5t150 54.5q94 0 149.5 -55t55.5 -147q0 -134 -111 -183l483 -1169h-123z" />
    <glyph glyph-name="aringacute" unicode="&#x1fb;" horiz-adv-x="997" 
d="M356 1524l-20 63l485 180l35 -110zM403 84q156 0 252.5 75.5t96.5 192.5v78h-336q-230 0 -230 -178q0 -73 52 -120.5t165 -47.5zM756 8v225h-15q-36 -121 -129.5 -183t-226.5 -62q-305 0 -305 260q0 119 85 193.5t243 74.5h344v98q0 134 -58.5 200.5t-195.5 66.5
q-224 0 -277 -228l-104 31q32 141 131.5 217t251.5 76q360 0 360 -359v-610h-104zM375 1253q0 -58 32 -90.5t87 -32.5q56 0 87 32.5t31 90.5t-31 90.5t-87 32.5q-55 0 -87 -32.5t-32 -90.5zM698 1253q0 -91 -55 -144.5t-149 -53.5t-148.5 53.5t-54.5 144.5t55 146t148 55
t148.5 -55t55.5 -146z" />
    <glyph glyph-name="AEacute" unicode="&#x1fc;" horiz-adv-x="1732" 
d="M735 1364l-20 63l516 187l35 -105zM815 0v319h-493l-183 -319h-116v12l704 1217h893v-105h-690v-444h612v-105h-612v-471h688v-104h-803zM504 639l-127 -221h438v710h-47q-111 -221 -264 -489z" />
    <glyph glyph-name="aeacute" unicode="&#x1fd;" horiz-adv-x="1712" 
d="M408 76q156 0 252 75.5t96 192.5v88h-334q-232 0 -232 -186q0 -75 52 -122.5t166 -47.5zM1212 874q-155 0 -244.5 -89.5t-101.5 -260.5h668q-10 350 -322 350zM1630 287q-78 -310 -409 -310q-164 0 -275 76.5t-155 208.5q-31 -141 -141 -211.5t-261 -70.5q-147 0 -226 64
t-79 196q0 119 84.5 193.5t241.5 74.5h346v98q0 134 -58.5 200t-195.5 66q-223 0 -279 -227l-104 31q34 140 133 216.5t246 76.5q295 0 342 -248q42 120 140.5 184t233.5 64q203 0 311.5 -119t108.5 -324q0 -51 -2 -82h-768q8 -174 99.5 -271t255.5 -97q73 0 128 18t90.5 53
t57 75t37.5 95zM700 1077l-28 58l469 274l49 -90z" />
    <glyph glyph-name="Oslashacute" unicode="&#x1fe;" horiz-adv-x="1341" 
d="M674 -23q-257 0 -414 148l-123 -125h-102v10l172 174q-133 168 -133 432q0 188 69 330t205.5 223.5t325.5 81.5q268 0 430 -159l133 137h94v-10l-178 -185q123 -168 123 -418q0 -188 -68.5 -331t-206 -225.5t-327.5 -82.5zM186 616q0 -221 97 -356l745 754
q-130 133 -354 133q-160 0 -271.5 -68.5t-164 -186.5t-52.5 -276zM500 1364l-21 63l516 187l35 -105zM674 80q241 0 365 146t124 390q0 204 -88 338l-741 -753q127 -121 340 -121z" />
    <glyph glyph-name="oslashacute" unicode="&#x1ff;" horiz-adv-x="1081" 
d="M541 -23q-199 0 -324 119l-94 -96h-100v12l143 144q-90 133 -90 323q0 227 127.5 358.5t337.5 131.5q197 0 321 -115l90 94h95v-12l-136 -137q95 -132 95 -320q0 -231 -125 -366.5t-340 -135.5zM541 872q-171 0 -265 -104t-94 -287q0 -148 60 -250l549 551
q-93 90 -250 90zM393 1077l-28 58l469 274l49 -90zM539 76q175 0 267.5 109t92.5 296q0 147 -59 242l-551 -555q92 -92 250 -92z" />
    <glyph glyph-name="uni0218" unicode="&#x218;" horiz-adv-x="1116" 
d="M588 -23q-235 1 -363 111t-157 309l108 25q28 -170 127.5 -256t284.5 -86q170 0 251 62t81 173q0 106 -78.5 163.5t-270.5 92.5q-163 30 -262.5 82t-139.5 118t-40 157q0 149 109 236t313 87q103 0 181 -25t130 -75t85 -114t54 -152l-112 -25q-36 152 -110.5 221.5
t-231.5 69.5q-151 0 -228 -58t-77 -161q0 -65 29.5 -110t110.5 -83.5t222 -66.5q124 -24 209 -58t133 -79t68 -95.5t20 -115.5q0 -161 -109.5 -254t-336.5 -93zM524 -119h105l-121 -307h-78v18z" />
    <glyph glyph-name="uni0219" unicode="&#x219;" horiz-adv-x="921" 
d="M494 -23q-196 0 -296 81t-137 241l103 20q14 -55 36 -96.5t59.5 -77t97 -54.5t139.5 -19q121 0 183 45.5t62 132.5q0 82 -65 121.5t-230 64.5q-174 27 -251.5 93t-77.5 176q0 120 87 192t249 72q85 0 147.5 -19t105 -57t68.5 -86.5t45 -116.5l-104 -24
q-29 114 -91.5 162.5t-170.5 48.5q-111 0 -169.5 -44t-58.5 -122q0 -72 60 -117.5t204 -67.5q190 -29 275.5 -94t85.5 -182q0 -125 -88 -199t-268 -74zM455 -119h104l-121 -307h-78v18z" />
    <glyph glyph-name="uni021A" unicode="&#x21a;" horiz-adv-x="1036" 
d="M35 1122v107h966v-107h-426v-1122h-114v1122h-426zM504 -119h104l-121 -307h-77v18z" />
    <glyph glyph-name="uni021B" unicode="&#x21b;" horiz-adv-x="708" 
d="M209 272v578h-164v98h164v281h108v-281h338v-98h-338v-576q0 -98 41 -146t131 -48q76 0 160 24l17 -96q-105 -31 -189 -31q-133 0 -200.5 79.5t-67.5 215.5zM360 -119h105l-121 -307h-78v18z" />
    <glyph glyph-name="circumflex" unicode="&#x2c6;" horiz-adv-x="663" 
d="M573 1075l-241 225l-244 -225l-47 49l262 279h57l263 -279z" />
    <glyph glyph-name="caron" unicode="&#x2c7;" horiz-adv-x="663" 
d="M360 1087h-57l-262 279l49 49l242 -225l241 225l50 -49z" />
    <glyph glyph-name="breve" unicode="&#x2d8;" horiz-adv-x="665" 
d="M334 1184q86 0 140.5 49.5t60.5 161.5h75q0 -149 -74 -224t-202 -75t-202.5 75t-74.5 224h78q11 -211 199 -211z" />
    <glyph glyph-name="dotaccent" unicode="&#x2d9;" horiz-adv-x="274" 
d="M59 1315h158v-154h-158v154z" />
    <glyph glyph-name="ring" unicode="&#x2da;" horiz-adv-x="587" 
d="M516 1294q0 -100 -60 -159.5t-161 -59.5q-102 0 -162.5 59t-60.5 158q0 100 60.5 159.5t162.5 59.5q101 0 161 -59t60 -158zM158 1292q0 -65 36.5 -101t100.5 -36t100.5 36t36.5 103q0 65 -36.5 101.5t-100.5 36.5t-100.5 -36.5t-36.5 -103.5z" />
    <glyph glyph-name="ogonek" unicode="&#x2db;" horiz-adv-x="436" 
d="M354 18l37 -18q-132 -27 -193 -63t-61 -91q0 -84 142 -84q29 0 110 15l6 -96q-73 -13 -125 -13q-112 0 -165.5 39.5t-53.5 108.5q0 81 81 130.5t222 71.5z" />
    <glyph glyph-name="tilde" unicode="&#x2dc;" horiz-adv-x="696" 
d="M207 1417q46 0 83 -22.5t61 -54.5t45.5 -64.5t47 -55t54.5 -22.5q46 0 64.5 51t15.5 162h69q6 -50 6 -92q0 -104 -41.5 -158.5t-111.5 -54.5q-44 0 -79.5 23t-59.5 55t-46 64.5t-48 55.5t-56 23q-53 0 -71 -47t-15 -160h-72q-6 50 -6 88q0 103 43 156t117 53z" />
    <glyph glyph-name="hungarumlaut" unicode="&#x2dd;" horiz-adv-x="706" 
d="M137 1073l-59 37l186 332l94 -62zM399 1075l-57 41l201 324l92 -64z" />
    <glyph glyph-name="Wgrave" unicode="&#x1e80;" horiz-adv-x="1699" 
d="M678 510l-143 -510h-179l-340 1229h125l160 -623q72 -280 121 -504h55q76 324 123 502l176 625h152l176 -625q59 -210 123 -502h53q48 216 121 504l162 623h120l-340 -1229h-178l-145 510q-104 371 -150 606h-41q-81 -357 -151 -606zM1012 1364l-531 147l31 99l518 -183z
" />
    <glyph glyph-name="wgrave" unicode="&#x1e81;" horiz-adv-x="1503" 
d="M819 948l119 -366q98 -312 141 -482h33q36 139 145 490l115 358h113l-320 -948h-143l-137 424q-65 194 -121 424h-27q-56 -230 -121 -424l-137 -424h-141l-322 948h111l119 -358q103 -303 149 -490h37q40 164 137 482l119 366h131zM922 1077l-492 240l53 94l467 -276z
" />
    <glyph glyph-name="Wacute" unicode="&#x1e82;" horiz-adv-x="1699" 
d="M678 510l-143 -510h-179l-340 1229h125l160 -623q72 -280 121 -504h55q76 324 123 502l176 625h152l176 -625q59 -210 123 -502h53q48 216 121 504l162 623h120l-340 -1229h-178l-145 510q-104 371 -150 606h-41q-81 -357 -151 -606zM666 1364l-21 63l516 187l35 -105z
" />
    <glyph glyph-name="wacute" unicode="&#x1e83;" horiz-adv-x="1503" 
d="M819 948l119 -366q98 -312 141 -482h33q36 139 145 490l115 358h113l-320 -948h-143l-137 424q-65 194 -121 424h-27q-56 -230 -121 -424l-137 -424h-141l-322 948h111l119 -358q103 -303 149 -490h37q40 164 137 482l119 366h131zM592 1077l-29 58l469 274l49 -90z" />
    <glyph glyph-name="Wdieresis" unicode="&#x1e84;" horiz-adv-x="1699" 
d="M678 510l-143 -510h-179l-340 1229h125l160 -623q72 -280 121 -504h55q76 324 123 502l176 625h152l176 -625q59 -210 123 -502h53q48 216 121 504l162 623h120l-340 -1229h-178l-145 510q-104 371 -150 606h-41q-81 -357 -151 -606zM586 1520h151v-152h-151v152z
M961 1520h151v-152h-151v152z" />
    <glyph glyph-name="wdieresis" unicode="&#x1e85;" horiz-adv-x="1503" 
d="M819 948l119 -366q98 -312 141 -482h33q36 139 145 490l115 358h113l-320 -948h-143l-137 424q-65 194 -121 424h-27q-56 -230 -121 -424l-137 -424h-141l-322 948h111l119 -358q103 -303 149 -490h37q40 164 137 482l119 366h131zM487 1288h152v-151h-152v151zM862 1288
h152v-151h-152v151z" />
    <glyph glyph-name="uni1E9E" unicode="&#x1e9e;" horiz-adv-x="1210" 
d="M829 -20q-150 0 -244 60t-132 169l73 63q70 -190 305 -190q101 0 153 46t52 130q0 44 -16 78.5t-49.5 60t-66 42t-83.5 36.5q-129 53 -176 85q-109 77 -110 198q0 52 24.5 103t56 87t83.5 76t85.5 60t83.5 49l-8 22q-143 -22 -295 -22q-83 0 -142.5 -26t-91 -71.5
t-45.5 -98t-14 -116.5v-821h-114v831q0 194 108.5 296t315.5 102h387v-99q-326 -176 -326 -352q0 -41 16 -72.5t51 -56.5t66 -40.5t84 -37.5q144 -61 215.5 -129.5t71.5 -181.5q0 -124 -78 -202t-240 -78z" />
    <glyph glyph-name="endash" unicode="&#x2013;" horiz-adv-x="974" 
d="M49 549h877v-103h-877v103z" />
    <glyph glyph-name="emdash" unicode="&#x2014;" horiz-adv-x="1761" 
d="M49 549h1663v-103h-1663v103z" />
    <glyph glyph-name="quoteleft" unicode="&#x2018;" horiz-adv-x="364" 
d="M190 688h-118l157 541h64v-12z" />
    <glyph glyph-name="quoteright" unicode="&#x2019;" horiz-adv-x="364" 
d="M174 1229h121l-158 -541h-65v12z" />
    <glyph glyph-name="quotesinglbase" unicode="&#x201a;" horiz-adv-x="356" 
d="M164 227h121l-158 -540h-66v12z" />
    <glyph glyph-name="quotedblleft" unicode="&#x201c;" horiz-adv-x="667" 
d="M209 688h-119l158 541h63v-12zM510 688h-119l158 541h63v-12z" />
    <glyph glyph-name="quotedblright" unicode="&#x201d;" horiz-adv-x="665" 
d="M174 1229h121l-158 -541h-65v12zM473 1229h121l-158 -541h-65v12z" />
    <glyph glyph-name="quotedblbase" unicode="&#x201e;" horiz-adv-x="636" 
d="M127 227h121l-158 -540h-65v12zM426 227h121l-158 -540h-65v12z" />
    <glyph glyph-name="dagger" unicode="&#x2020;" horiz-adv-x="1116" 
d="M614 -430h-112v1282h-328v-416h-104v512h432v424h112v-424h435v-512h-107v416h-328v-1282z" />
    <glyph glyph-name="daggerdbl" unicode="&#x2021;" horiz-adv-x="1138" 
d="M512 1372h115v-313h432v-400h-105v304h-327v-867h327v303h105v-399h-432v-430h-115v430h-432v399h104v-303h328v867h-328v-304h-104v400h432v313z" />
    <glyph glyph-name="bullet" unicode="&#x2022;" horiz-adv-x="522" 
d="M127 633h264v-264h-264v264z" />
    <glyph glyph-name="ellipsis" unicode="&#x2026;" 
d="M96 168h168v-168h-168v168zM461 168h168v-168h-168v168zM825 168h168v-168h-168v168z" />
    <glyph glyph-name="perthousand" unicode="&#x2030;" horiz-adv-x="2179" 
d="M1829 -20q-143 0 -228 92t-85 250q0 157 84.5 246t228.5 89q142 0 226.5 -89t84.5 -246t-84.5 -249.5t-226.5 -92.5zM1827 68q107 0 163 68t56 186q0 116 -56.5 181.5t-160.5 65.5q-105 0 -162 -65.5t-57 -181.5q0 -119 55 -186.5t162 -67.5zM391 571q-143 0 -228 92
t-85 250q0 156 85 246t228 90t228.5 -90t85.5 -246q0 -158 -85.5 -250t-228.5 -92zM389 659q107 0 164 68t57 186q0 117 -57 182.5t-162 65.5t-162 -65.5t-57 -182.5q0 -119 55 -186.5t162 -67.5zM1102 -20q-143 0 -228.5 92t-85.5 250q0 157 85 246t229 89q143 0 228 -89
t85 -246t-85.5 -249.5t-227.5 -92.5zM1100 68q107 0 163 68t56 186q0 116 -56.5 181.5t-160.5 65.5q-105 0 -162 -65.5t-57 -181.5q0 -119 55 -186.5t162 -67.5zM1200 1229h133v-12l-493 -525l-47 41zM301 0h-133v12l494 525l47 -41z" />
    <glyph glyph-name="guilsinglleft" unicode="&#x2039;" horiz-adv-x="759" 
d="M690 72h-108l-533 434v45l533 434h108v-22l-528 -428v-13l528 -428v-22z" />
    <glyph glyph-name="guilsinglright" unicode="&#x203a;" horiz-adv-x="768" 
d="M186 55h-108v25l528 428v12l-528 428v23h108l533 -434v-45z" />
    <glyph glyph-name="fraction" unicode="&#x2044;" horiz-adv-x="47" 
d="M475 1229h133v-12l-493 -525l-47 41zM-424 0h-133v12l494 525l47 -41z" />
    <glyph glyph-name="Euro" unicode="&#x20ac;" horiz-adv-x="1325" 
d="M713 -23q-217 0 -352 126.5t-171 349.5h-149v82h139q-2 27 -2 81q0 45 2 68h-139v82h147q36 226 174 355.5t355 129.5q210 0 339 -120.5t167 -331.5l-109 -25q-77 373 -397 373q-177 0 -281.5 -99.5t-134.5 -281.5h381v-82h-389q-2 -23 -2 -68q0 -54 4 -81h387v-82h-379
q32 -178 135.5 -275.5t276.5 -97.5q174 0 271.5 97.5t135.5 287.5l109 -23q-36 -218 -167.5 -341.5t-350.5 -123.5z" />
    <glyph glyph-name="uni2116" unicode="&#x2116;" horiz-adv-x="2152" 
d="M1341 352h678v-100h-678v100zM1681 598q124 0 188 76.5t64 208.5q0 128 -64.5 199t-185.5 71t-184 -71t-63 -199q0 -132 61.5 -208.5t183.5 -76.5zM1683 502q-162 0 -258 102.5t-96 276.5q0 171 96 269.5t258 98.5q163 0 259 -98.5t96 -269.5q0 -175 -96 -277t-259 -102z
M981 0l-444 696q-118 182 -234 420l-49 -2q16 -227 16 -598v-516h-112v1229h176l393 -617q136 -213 272 -479l43 2q-18 288 -18 578v516h111v-1229h-154z" />
    <glyph glyph-name="trademark" unicode="&#x2122;" horiz-adv-x="1787" 
d="M49 1143v86h631v-86h-266v-621h-97v621h-268zM909 778v-256h-92v707h174l86 -195q125 -286 154 -370h22q67 174 156 370l88 195h156v-707h-97v256q0 136 9 361h-27q-63 -162 -149 -357l-101 -219h-94l-98 215q-93 196 -166 361h-27q6 -306 6 -361z" />
    <glyph glyph-name="uni2190" unicode="&#x2190;" horiz-adv-x="1540" 
d="M72 557v70l676 577l65 -84q-303 -253 -631 -479l4 -12q301 14 701 14h579v-104h-579q-393 0 -699 18l-6 -14q343 -239 631 -482l-70 -79z" />
    <glyph glyph-name="arrowup" unicode="&#x2191;" horiz-adv-x="1406" 
d="M670 1305h67l578 -676l-82 -66q-293 350 -481 631l-13 -6q17 -289 17 -699v-579h-105v579q0 430 19 699l-15 6q-209 -309 -481 -631l-80 70z" />
    <glyph glyph-name="uni2192" unicode="&#x2192;" horiz-adv-x="1540" 
d="M1468 627v-68l-675 -579l-66 83q310 258 631 480l-6 14q-272 -16 -699 -16h-577v104h577q393 0 699 -18l6 14q-350 244 -631 481l70 80z" />
    <glyph glyph-name="arrowdown" unicode="&#x2193;" horiz-adv-x="1406" 
d="M739 -76h-69l-578 676l82 66q277 -331 481 -631l13 6q-15 319 -15 698v580h103v-580q0 -409 -17 -698l13 -6q208 302 483 631l80 -70z" />
    <glyph glyph-name="minus" unicode="&#x2212;" horiz-adv-x="1013" 
d="M944 573h-872v101h872v-101z" />
    <glyph glyph-name="uni25A0" unicode="&#x25a0;" horiz-adv-x="1843" 
d="M74 -244q4 283 4 848t-4 848q283 -6 848 -6q564 0 847 6q-4 -283 -4 -848t4 -848q-424 6 -847 6t-848 -6z" />
    <glyph glyph-name="uni25B2" unicode="&#x25b2;" horiz-adv-x="1843" 
d="M154 0v8l768 1264h8l762 -1264v-8h-1538z" />
    <glyph glyph-name="uni25B3" unicode="&#x25b3;" horiz-adv-x="1843" 
d="M154 0v8l768 1264h8l762 -1264v-8h-1538zM926 102q280 0 628 -28l5 8q-369 507 -629 1053h-8q-272 -566 -627 -1053l4 -8q373 28 627 28z" />
    <glyph glyph-name="uni25B6" unicode="&#x25b6;" horiz-adv-x="1843" 
d="M369 1391h8l1263 -768v-9l-1263 -761h-8v1538z" />
    <glyph glyph-name="uni25B7" unicode="&#x25b7;" horiz-adv-x="1843" 
d="M369 1391h8l1263 -768v-9l-1263 -761h-8v1538zM471 618q0 -267 -29 -628l9 -4q504 368 1052 628v9q-567 272 -1052 626l-9 -4q29 -386 29 -627z" />
    <glyph glyph-name="uni25BC" unicode="&#x25bc;" horiz-adv-x="1843" 
d="M1690 1229v-8l-768 -1264h-9l-761 1264v8h1538z" />
    <glyph glyph-name="uni25BD" unicode="&#x25bd;" horiz-adv-x="1843" 
d="M1546 1147l-4 8q-386 -29 -627 -29q-267 0 -628 29l-4 -8q367 -503 628 -1053h9q274 570 626 1053zM150 1229h1538v-8l-768 -1264h-9l-761 1264v8z" />
    <glyph glyph-name="uni25C0" unicode="&#x25c0;" horiz-adv-x="1843" 
d="M1475 1391h-9l-1263 -768v-9l1263 -761h9v1538z" />
    <glyph glyph-name="uni25C1" unicode="&#x25c1;" horiz-adv-x="1843" 
d="M1466 1391h9v-1538h-9l-1263 761v9zM1372 618q0 241 29 627l-8 4q-483 -352 -1053 -626v-9q550 -261 1053 -628l8 4q-29 361 -29 628z" />
    <glyph glyph-name="uni25C6" unicode="&#x25c6;" horiz-adv-x="1843" 
d="M922 -395q-483 521 -990 989q540 502 990 989q457 -493 989 -989q-500 -461 -989 -989z" />
    <glyph glyph-name="uni25CF" unicode="&#x25cf;" horiz-adv-x="1843" 
d="M-6 602q0 284 112.5 494t323 322t494.5 112q427 0 676 -249.5t249 -678.5t-249 -678.5t-676 -249.5q-284 0 -494.5 112t-323 322t-112.5 494z" />
    <glyph glyph-name="uni2605" unicode="&#x2605;" horiz-adv-x="1843" 
d="M1448 -160l-526 305l-523 -305l-6 4l125 592l-450 404l2 8l604 63l244 553h8l243 -553l605 -63l2 -8l-451 -404l125 -592z" />
    <glyph glyph-name="uni2610" unicode="&#x2610;" horiz-adv-x="1843" 
d="M1489 0h-1133v1133h1133v-1133zM451 567q0 -130 -13 -485q328 12 486 12q157 0 485 -12q-14 287 -14 485q0 203 14 486q-355 -13 -485 -13q-131 0 -486 13q13 -355 13 -486z" />
    <glyph glyph-name="uni2611" unicode="&#x2611;" horiz-adv-x="1843" 
d="M621 621l65 73q4 -5 28 -30t30 -31.5t27.5 -30t30 -32.5t27.5 -30.5t29 -33t26 -31t27 -34t23.5 -31.5t23.5 -33q85 156 205 343.5t195.5 295.5t228.5 323l92 -65q-369 -446 -692 -989h-55q-64 89 -134.5 164.5t-176.5 171.5zM356 0v1133h873v-7l-55 -84q-84 -2 -250 -2
q-128 0 -488 13q15 -304 15 -486q0 -181 -15 -485q332 12 488 12q157 0 485 -12q-14 338 -14 582l88 127h6v-791h-1133z" />
    <glyph glyph-name="uni2612" unicode="&#x2612;" horiz-adv-x="1843" 
d="M1489 0h-1133v1133h1133v-1133zM1169 262q-126 133 -245 279q-109 -131 -246 -279l-66 64q168 156 281 243q-90 69 -281 242l66 66q171 -189 246 -279q99 122 245 279l64 -66q-164 -152 -281 -242q133 -103 281 -243zM451 567q0 -130 -13 -485q328 12 486 12
q157 0 485 -12q-14 287 -14 485q0 203 14 486q-355 -13 -485 -13q-131 0 -486 13q13 -355 13 -486z" />
    <glyph glyph-name="uni2661" unicode="&#x2661;" horiz-adv-x="1843" 
d="M565 375q256 -178 357 -346h6q101 170 356 346q113 79 187 152t120.5 166t46.5 196q0 147 -76.5 237.5t-236.5 90.5q-154 0 -239.5 -102t-129.5 -300h-63q-44 198 -129.5 300t-239.5 102q-160 0 -236.5 -90.5t-76.5 -237.5q0 -103 46.5 -196t120.5 -166t187 -152z
M920 -111q-61 107 -154 193.5t-246 198.5q-78 55 -138 105.5t-114 110t-89.5 118.5t-56 128t-20.5 142q0 204 108 318t296 114q163 0 259 -78t146 -244h23q48 165 144 243.5t261 78.5q185 0 293.5 -114.5t108.5 -317.5q0 -91 -30 -174t-88.5 -157.5t-129 -138.5t-168.5 -134
q-152 -110 -245 -197t-152 -195h-8z" />
    <glyph glyph-name="uni2726" unicode="&#x2726;" horiz-adv-x="1843" 
d="M1690 616v-24q-276 -85 -473.5 -284.5t-284.5 -471.5h-23q-88 272 -284.5 471.5t-472.5 284.5v24q276 85 472.5 284.5t284.5 471.5h23q87 -272 284.5 -471.5t473.5 -284.5z" />
    <glyph glyph-name="uni2727" unicode="&#x2727;" horiz-adv-x="1843" 
d="M1692 606v-8q-276 -85 -476.5 -287.5t-287.5 -474.5h-8q-87 272 -288.5 475.5t-477.5 288.5v8q276 85 476 288t288 476h8q88 -273 289 -477t477 -289zM1501 598v14q-216 79 -355 216.5t-218 355.5h-13q-79 -218 -218 -356.5t-353 -215.5v-14q216 -79 355 -217t216 -354
h13q79 218 218 356t355 215z" />
    <glyph glyph-name="uni2728" unicode="&#x2728;" horiz-adv-x="1843" 
d="M1255 424v-8q-225 -70 -387.5 -234.5t-232.5 -386.5h-10q-70 222 -234.5 387.5t-390.5 235.5v8q226 70 390 235t235 388h8q72 -223 235 -389t387 -236zM623 -51h8q67 174 181.5 287.5t289.5 181.5v10q-176 68 -290 180.5t-181 288.5h-8q-65 -175 -178.5 -288t-288.5 -181
v-10q174 -68 287.5 -181.5t179.5 -287.5zM1194 1204v-10q-103 -32 -176.5 -107.5t-106.5 -179.5h-10q-31 103 -105.5 179t-179.5 110v8q104 32 177 108t108 181h8q33 -104 107.5 -180.5t177.5 -108.5zM1110 1198v4q-150 54 -201 201h-6q-28 -77 -75.5 -126t-120.5 -75v-4
q73 -28 120.5 -76t75.5 -123h6q26 75 74.5 123t126.5 76zM1843 784q-170 -52 -293 -176t-176 -293h-8q-53 169 -177 293t-296 178v9q171 52 293.5 176.5t177.5 294.5h8q53 -169 177 -294t294 -179v-9zM1714 786v9q-129 47 -212 130t-130 212h-6q-47 -128 -130 -211
t-210 -131v-9q127 -47 210 -130t130 -210h6q47 128 130 210.5t212 129.5z" />
    <glyph glyph-name="uni2764" unicode="&#x2764;" horiz-adv-x="1843" 
d="M920 -111q-61 107 -154 193.5t-246 198.5q-78 55 -138 105.5t-114 110t-89.5 118.5t-56 128t-20.5 142q0 204 108 318t296 114q163 0 259 -78t146 -244h23q48 165 144 243.5t261 78.5q185 0 293.5 -114.5t108.5 -317.5q0 -91 -30 -174t-88.5 -157.5t-129 -138.5
t-168.5 -134q-152 -110 -245 -197t-152 -195h-8z" />
    <glyph glyph-name="uni2780" unicode="&#x2780;" horiz-adv-x="1771" 
d="M885 -90q174 0 310 53.5t222 150t130 226.5t44 287q0 156 -44.5 285t-131 224t-222 148t-308.5 53q-172 0 -307.5 -53t-222.5 -148t-132 -224t-45 -285q0 -157 44.5 -287t130.5 -226.5t222 -150t310 -53.5zM885 1434q192 0 346 -60t255 -167.5t154.5 -255.5t53.5 -324
q0 -178 -53.5 -326.5t-154 -257t-254.5 -169t-347 -60.5q-192 0 -345.5 60.5t-254 169t-154 257t-53.5 326.5q0 176 53.5 324t154.5 255.5t254.5 167.5t344.5 60zM1198 188h-623v91h291v702q-127 -56 -272 -107l-35 87l354 108h54v-790h231v-91z" />
    <glyph glyph-name="uni2781" unicode="&#x2781;" horiz-adv-x="1771" 
d="M885 -90q174 0 310 53.5t222 150t130 226.5t44 287q0 156 -44.5 285t-131 224t-222 148t-308.5 53q-172 0 -307.5 -53t-222.5 -148t-132 -224t-45 -285q0 -157 44.5 -287t130.5 -226.5t222 -150t310 -53.5zM885 1434q192 0 346 -60t255 -167.5t154.5 -255.5t53.5 -324
q0 -178 -53.5 -326.5t-154 -257t-254.5 -169t-347 -60.5q-192 0 -345.5 60.5t-254 169t-154 257t-53.5 326.5q0 176 53.5 324t154.5 255.5t254.5 167.5t344.5 60zM901 997q-129 0 -199 -65t-98 -187l-98 19q83 321 393 321q158 0 242 -65.5t84 -192.5q0 -115 -89.5 -181.5
t-267.5 -115.5q-173 -51 -233 -103.5t-66 -160.5q163 13 381 13h291v-89h-760q0 10 -1 31t-1 33q0 143 80 220t262 130q170 49 236.5 96.5t66.5 130.5q0 166 -223 166z" />
    <glyph glyph-name="uni2782" unicode="&#x2782;" horiz-adv-x="1771" 
d="M885 -90q174 0 310 53.5t222 150t130 226.5t44 287q0 156 -44.5 285t-131 224t-222 148t-308.5 53q-172 0 -307.5 -53t-222.5 -148t-132 -224t-45 -285q0 -157 44.5 -287t130.5 -226.5t222 -150t310 -53.5zM885 1434q192 0 346 -60t255 -167.5t154.5 -255.5t53.5 -324
q0 -178 -53.5 -326.5t-154 -257t-254.5 -169t-347 -60.5q-192 0 -345.5 60.5t-254 169t-154 257t-53.5 326.5q0 176 53.5 324t154.5 255.5t254.5 167.5t344.5 60zM881 174q-167 0 -268.5 73t-141.5 222l100 18q34 -116 106.5 -173.5t203.5 -57.5q133 0 200.5 45t67.5 127
q0 87 -52 124.5t-196 37.5h-164v82h158q94 0 151.5 39t57.5 123q0 83 -51 123t-166 40q-117 0 -181 -54t-96 -165l-92 17q65 288 369 288q315 0 315 -233q0 -164 -201 -209v-14q139 -12 193.5 -58.5t54.5 -144.5q0 -117 -90.5 -183.5t-277.5 -66.5z" />
    <glyph glyph-name="uni2783" unicode="&#x2783;" horiz-adv-x="1771" 
d="M885 -90q174 0 310 53.5t222 150t130 226.5t44 287q0 156 -44.5 285t-131 224t-222 148t-308.5 53q-172 0 -307.5 -53t-222.5 -148t-132 -224t-45 -285q0 -157 44.5 -287t130.5 -226.5t222 -150t310 -53.5zM885 1434q192 0 346 -60t255 -167.5t154.5 -255.5t53.5 -324
q0 -178 -53.5 -326.5t-154 -257t-254.5 -169t-347 -60.5q-192 0 -345.5 60.5t-254 169t-154 257t-53.5 326.5q0 176 53.5 324t154.5 255.5t254.5 167.5t344.5 60zM1247 410h-155v-220h-103v220h-590v73l578 588h115v-577h155v-84zM854 494h135v469l-12 4l-465 -473l10 -15
q164 15 332 15z" />
    <glyph glyph-name="uni2784" unicode="&#x2784;" horiz-adv-x="1771" 
d="M885 -90q174 0 310 53.5t222 150t130 226.5t44 287q0 156 -44.5 285t-131 224t-222 148t-308.5 53q-172 0 -307.5 -53t-222.5 -148t-132 -224t-45 -285q0 -157 44.5 -287t130.5 -226.5t222 -150t310 -53.5zM885 1434q192 0 346 -60t255 -167.5t154.5 -255.5t53.5 -324
q0 -178 -53.5 -326.5t-154 -257t-254.5 -169t-347 -60.5q-192 0 -345.5 60.5t-254 169t-154 257t-53.5 326.5q0 176 53.5 324t154.5 255.5t254.5 167.5t344.5 60zM901 260q132 0 191 49.5t59 147.5q0 95 -61.5 138.5t-194.5 43.5q-74 0 -146.5 -17t-111.5 -40l-82 28v461
h645v-94q-275 0 -553 14v-352q119 80 275 80q160 0 245.5 -66t85.5 -196q0 -281 -358 -281q-153 0 -251.5 57t-172.5 179l92 41q37 -61 78 -101t107.5 -66t152.5 -26z" />
    <glyph glyph-name="uni2785" unicode="&#x2785;" horiz-adv-x="1771" 
d="M909 653q-150 0 -230.5 -56.5t-80.5 -137.5q0 -85 77.5 -142t213.5 -57q140 0 201 55t61 156q0 182 -242 182zM885 -90q174 0 310 53.5t222 150t130 226.5t44 287q0 156 -44.5 285t-131 224t-222 148t-308.5 53q-172 0 -307.5 -53t-222.5 -148t-132 -224t-45 -285
q0 -157 44.5 -287t130.5 -226.5t222 -150t310 -53.5zM885 1434q192 0 346 -60t255 -167.5t154.5 -255.5t53.5 -324q0 -178 -53.5 -326.5t-154 -257t-254.5 -169t-347 -60.5q-192 0 -345.5 60.5t-254 169t-154 257t-53.5 326.5q0 176 53.5 324t154.5 255.5t254.5 167.5
t344.5 60zM1253 469q0 -138 -94.5 -216.5t-273.5 -78.5q-189 0 -293.5 99t-104.5 325q0 109 22.5 195.5t70 153t128 102.5t189.5 36q161 0 237.5 -70t98.5 -202l-94 -14q-24 104 -78.5 152t-165.5 48q-163 0 -240 -101.5t-77 -311.5v-33l18 -2q34 83 118.5 129.5t219.5 46.5
q67 0 123 -14.5t101 -44t70 -80.5t25 -119z" />
    <glyph glyph-name="uni2786" unicode="&#x2786;" horiz-adv-x="1771" 
d="M885 -90q174 0 310 53.5t222 150t130 226.5t44 287q0 156 -44.5 285t-131 224t-222 148t-308.5 53q-172 0 -307.5 -53t-222.5 -148t-132 -224t-45 -285q0 -157 44.5 -287t130.5 -226.5t222 -150t310 -53.5zM885 1434q192 0 346 -60t255 -167.5t154.5 -255.5t53.5 -324
q0 -178 -53.5 -326.5t-154 -257t-254.5 -169t-347 -60.5q-192 0 -345.5 60.5t-254 169t-154 257t-53.5 326.5q0 176 53.5 324t154.5 255.5t254.5 167.5t344.5 60zM485 979v90h787v-90q-358 -323 -402 -791h-110q20 216 131 427t293 376q-179 -12 -420 -12h-279z" />
    <glyph glyph-name="uni2787" unicode="&#x2787;" horiz-adv-x="1771" 
d="M883 592q-82 0 -140 -14.5t-88 -40t-42.5 -53.5t-12.5 -62q0 -166 283 -166q284 0 284 166q0 170 -284 170zM883 999q-237 0 -240 -163q0 -161 240 -168q237 7 237 168q0 163 -237 163zM885 -90q174 0 310 53.5t222 150t130 226.5t44 287q0 156 -44.5 285t-131 224
t-222 148t-308.5 53q-172 0 -307.5 -53t-222.5 -148t-132 -224t-45 -285q0 -157 44.5 -287t130.5 -226.5t222 -150t310 -53.5zM885 1434q192 0 346 -60t255 -167.5t154.5 -255.5t53.5 -324q0 -178 -53.5 -326.5t-154 -257t-254.5 -169t-347 -60.5q-192 0 -345.5 60.5
t-254 169t-154 257t-53.5 326.5q0 176 53.5 324t154.5 255.5t254.5 167.5t344.5 60zM883 172q-385 0 -385 244q0 182 270 209v16q-224 42 -221 209q0 108 84 170.5t252 62.5q169 0 253.5 -62.5t84.5 -170.5q0 -167 -222 -209v-16q269 -27 269 -209q0 -244 -385 -244z" />
    <glyph glyph-name="uni2788" unicode="&#x2788;" horiz-adv-x="1771" 
d="M858 598q144 0 222.5 58.5t78.5 142.5q0 85 -74 140.5t-206 55.5q-131 0 -197 -58.5t-66 -152.5q0 -186 242 -186zM885 -90q174 0 310 53.5t222 150t130 226.5t44 287q0 156 -44.5 285t-131 224t-222 148t-308.5 53q-172 0 -307.5 -53t-222.5 -148t-132 -224t-45 -285
q0 -157 44.5 -287t130.5 -226.5t222 -150t310 -53.5zM885 1434q192 0 346 -60t255 -167.5t154.5 -255.5t53.5 -324q0 -178 -53.5 -326.5t-154 -257t-254.5 -169t-347 -60.5q-192 0 -345.5 60.5t-254 169t-154 257t-53.5 326.5q0 176 53.5 324t154.5 255.5t254.5 167.5
t344.5 60zM877 172q-323 0 -369 277l96 14q33 -203 275 -203q156 0 229.5 101t73.5 309v30l-17 2q-37 -80 -120 -129t-216 -49q-87 0 -155 25.5t-112 86t-44 150.5q0 131 96.5 214t266.5 83q187 0 289 -99t102 -325q0 -109 -21.5 -195.5t-67 -153t-123 -102.5t-183.5 -36z
" />
    <glyph glyph-name="uni2789" unicode="&#x2789;" horiz-adv-x="1763" 
d="M829 193h-444v86h205v706q-59 -28 -195 -78l-30 82l268 78h49v-788h147v-86zM1126 995q-178 0 -178 -362q0 -371 178 -371q177 0 177 371q0 362 -177 362zM1126 1081q134 0 202.5 -118.5t68.5 -329.5q0 -213 -69 -334t-202 -121q-135 0 -203.5 121t-68.5 334
q0 210 69 329t203 119zM885 -90q174 0 310 53.5t222 150t130 226.5t44 287q0 156 -44.5 285t-131 224t-222 148t-308.5 53q-172 0 -307.5 -53t-222.5 -148t-132 -224t-45 -285q0 -157 44.5 -287t130.5 -226.5t222 -150t310 -53.5zM885 1434q192 0 346 -60t255 -167.5
t154.5 -255.5t53.5 -324q0 -178 -53.5 -326.5t-154 -257t-254.5 -169t-347 -60.5q-192 0 -345.5 60.5t-254 169t-154 257t-53.5 326.5q0 176 53.5 324t154.5 255.5t254.5 167.5t344.5 60z" />
    <glyph glyph-name="uni278A" unicode="&#x278a;" horiz-adv-x="1771" 
d="M575 276v-88h623v88h-229v793h-56l-352 -111l35 -86q226 87 272 107v-703h-293zM885 1434q192 0 346 -60t255 -167.5t154.5 -255.5t53.5 -324q0 -178 -53.5 -326.5t-154 -257t-254.5 -169t-347 -60.5q-192 0 -345.5 60.5t-254 169t-154 257t-53.5 326.5q0 176 53.5 324
t154.5 255.5t254.5 167.5t344.5 60z" />
    <glyph glyph-name="uni278B" unicode="&#x278b;" horiz-adv-x="1771" 
d="M899 999q223 0 223 -165q0 -83 -66 -131.5t-237 -96.5q-182 -53 -261 -130t-79 -220v-66h760v91h-291q-216 0 -379 -13q4 107 64.5 159.5t232.5 104.5q178 49 267.5 115.5t89.5 181.5q0 127 -84 192.5t-242 65.5q-310 0 -393 -321l98 -18q28 121 98 186t199 65zM885 1434
q192 0 346 -60t255 -167.5t154.5 -255.5t53.5 -324q0 -178 -53.5 -326.5t-154 -257t-254.5 -169t-347 -60.5q-192 0 -345.5 60.5t-254 169t-154 257t-53.5 326.5q0 176 53.5 324t154.5 255.5t254.5 167.5t344.5 60z" />
    <glyph glyph-name="uni278C" unicode="&#x278c;" horiz-adv-x="1771" 
d="M883 172q186 0 277 67t91 183q0 98 -55.5 145.5t-194.5 57.5v16q203 42 203 209q0 231 -317 231q-305 0 -369 -286l94 -17q30 110 94.5 164.5t180.5 54.5q115 0 166 -40t51 -123q0 -84 -57.5 -123t-149.5 -39h-158v-82h162q144 0 197 -37.5t53 -124.5q0 -82 -67.5 -127
t-200.5 -45t-205.5 57t-106.5 174l-100 -20q82 -295 412 -295zM885 1434q192 0 346 -60t255 -167.5t154.5 -255.5t53.5 -324q0 -178 -53.5 -326.5t-154 -257t-254.5 -169t-347 -60.5q-192 0 -345.5 60.5t-254 169t-154 257t-53.5 326.5q0 176 53.5 324t154.5 255.5
t254.5 167.5t344.5 60z" />
    <glyph glyph-name="uni278D" unicode="&#x278d;" horiz-adv-x="1771" 
d="M1247 410v84h-155v575h-113l-580 -586v-73h590v-222h103v222h155zM846 494q-129 0 -324 -15l-10 15l469 473l8 -4v-469h-143zM885 1434q192 0 346 -60t255 -167.5t154.5 -255.5t53.5 -324q0 -178 -53.5 -326.5t-154 -257t-254.5 -169t-347 -60.5q-192 0 -345.5 60.5
t-254 169t-154 257t-53.5 326.5q0 176 53.5 324t154.5 255.5t254.5 167.5t344.5 60z" />
    <glyph glyph-name="uni278E" unicode="&#x278e;" horiz-adv-x="1771" 
d="M901 260q-128 0 -205 49t-133 144l-92 -43q75 -122 173 -179t251 -57q358 0 358 283q0 129 -85.5 194.5t-245.5 65.5q-159 0 -275 -78v350q238 -12 553 -12v92h-645v-461l82 -28q39 24 111 41.5t147 17.5q133 0 194.5 -43.5t61.5 -138.5q0 -98 -59 -147.5t-191 -49.5z
M885 1434q192 0 346 -60t255 -167.5t154.5 -255.5t53.5 -324q0 -178 -53.5 -326.5t-154 -257t-254.5 -169t-347 -60.5q-192 0 -345.5 60.5t-254 169t-154 257t-53.5 326.5q0 176 53.5 324t154.5 255.5t254.5 167.5t344.5 60z" />
    <glyph glyph-name="uni278F" unicode="&#x278f;" horiz-adv-x="1771" 
d="M1253 469q0 68 -25 119t-70 80.5t-101 44t-123 14.5q-134 0 -219.5 -47t-118.5 -129h-18q0 237 75.5 342.5t241.5 105.5q111 0 165.5 -48t78.5 -152l94 14q-22 132 -98.5 202t-237.5 70q-109 0 -189.5 -36t-128 -102.5t-70 -153t-22.5 -195.5q0 -226 104.5 -325
t293.5 -99q179 0 273.5 78.5t94.5 216.5zM909 653q242 0 242 -182q0 -101 -61 -156t-201 -55q-137 0 -214 56.5t-77 142.5q0 81 80.5 137.5t230.5 56.5zM885 1434q192 0 346 -60t255 -167.5t154.5 -255.5t53.5 -324q0 -178 -53.5 -326.5t-154 -257t-254.5 -169t-347 -60.5
q-192 0 -345.5 60.5t-254 169t-154 257t-53.5 326.5q0 176 53.5 324t154.5 255.5t254.5 167.5t344.5 60z" />
    <glyph glyph-name="uni2790" unicode="&#x2790;" horiz-adv-x="1771" 
d="M485 979h279q219 0 420 14q-183 -165 -294 -377t-130 -428h108q44 469 404 791v90h-787v-90zM885 1434q192 0 346 -60t255 -167.5t154.5 -255.5t53.5 -324q0 -178 -53.5 -326.5t-154 -257t-254.5 -169t-347 -60.5q-192 0 -345.5 60.5t-254 169t-154 257t-53.5 326.5
q0 176 53.5 324t154.5 255.5t254.5 167.5t344.5 60z" />
    <glyph glyph-name="uni2791" unicode="&#x2791;" horiz-adv-x="1771" 
d="M883 174q385 0 385 242q0 179 -269 209v16q222 43 222 209q0 108 -84.5 170.5t-253.5 62.5t-252.5 -62t-85.5 -171q-3 -166 223 -209v-16q-270 -30 -270 -209q0 -242 385 -242zM883 1001q237 0 237 -165q0 -161 -237 -168q-240 7 -240 168q3 165 240 165zM883 592
q82 0 140.5 -14.5t88 -40t42.5 -53.5t13 -62q0 -166 -284 -166q-283 0 -283 166q0 34 12.5 62t42.5 53.5t88 40t140 14.5zM885 1434q192 0 346 -60t255 -167.5t154.5 -255.5t53.5 -324q0 -178 -53.5 -326.5t-154 -257t-254.5 -169t-347 -60.5q-192 0 -345.5 60.5t-254 169
t-154 257t-53.5 326.5q0 176 53.5 324t154.5 255.5t254.5 167.5t344.5 60z" />
    <glyph glyph-name="uni2792" unicode="&#x2792;" horiz-adv-x="1771" 
d="M1272 662q0 225 -102 323t-291 98q-169 0 -265 -82.5t-96 -214.5q0 -90 44 -150.5t112 -86t155 -25.5q133 0 215.5 50.5t120.5 130.5l17 -3q-2 -232 -72.5 -337t-230.5 -105q-242 0 -275 203l-96 -14q22 -131 108 -203t261 -72q85 0 152 24t112 66.5t75 104.5t43 134.5
t13 158.5zM858 600q-242 0 -242 184q0 94 66 152.5t197 58.5q132 0 206 -55.5t74 -140.5q0 -83 -78.5 -141t-222.5 -58zM885 1434q192 0 346 -60t255 -167.5t154.5 -255.5t53.5 -324q0 -178 -53.5 -326.5t-154 -257t-254.5 -169t-347 -60.5q-192 0 -345.5 60.5t-254 169
t-154 257t-53.5 326.5q0 176 53.5 324t154.5 255.5t254.5 167.5t344.5 60z" />
    <glyph glyph-name="uni2793" unicode="&#x2793;" horiz-adv-x="1763" 
d="M1126 1081q-134 0 -203 -119t-69 -329q0 -212 69.5 -333.5t202.5 -121.5t202 121t69 334q0 211 -68.5 329.5t-202.5 118.5zM383 279v-86h444v86h-147v788h-47l-271 -78l31 -82q125 43 195 78v-706h-205zM1126 995q177 0 177 -362q0 -371 -177 -371q-178 0 -178 371
q0 362 178 362zM885 1434q192 0 346 -60t255 -167.5t154.5 -255.5t53.5 -324q0 -178 -53.5 -326.5t-154 -257t-254.5 -169t-347 -60.5q-192 0 -345.5 60.5t-254 169t-154 257t-53.5 326.5q0 176 53.5 324t154.5 255.5t254.5 167.5t344.5 60z" />
    <glyph glyph-name="uni279A" unicode="&#x279a;" horiz-adv-x="1843" 
d="M1323 725v-725h-1069v1069h731v-4l-86 -88q-183 0 -563 12q12 -290 12 -436q0 -155 -12 -471q320 12 471 12q142 0 436 -12q-14 319 -14 543l90 100h4zM1616 1374l26 -26v-764h-98q6 360 43 678l-12 4q-196 -217 -631 -656l-270 -270l-70 68l273 270q365 365 659 631
l-6 10q-163 -31 -649 -43v98h735z" />
    <glyph glyph-name="uni2B1B" unicode="&#x2b1b;" horiz-adv-x="1843" 
d="M1489 0h-1133v1133h1133v-1133z" />
    <glyph glyph-name="uni2B1C" unicode="&#x2b1c;" horiz-adv-x="1843" 
d="M1489 0h-1133v1133h1133v-1133zM451 567q0 -130 -13 -485q328 12 486 12q157 0 485 -12q-14 287 -14 485q0 203 14 486q-355 -13 -485 -13q-131 0 -486 13q13 -355 13 -486z" />
    <glyph glyph-name="commaaccent" unicode="&#xf6c3;" horiz-adv-x="352" 
d="M160 -119h104l-121 -307h-77v18z" />
    <glyph glyph-name="uniF8FF" unicode="&#xf8ff;" horiz-adv-x="2635" 
d="M1942 16q-13 -30 -123 -30l-50 2q9 212 13 508.5t8 406.5q-52 -160 -110.5 -387t-93.5 -364.5t-48 -147.5q-14 -12 -43 -12q-13 0 -50.5 5t-64.5 7q4 127 4 420q-63 2 -190 2q2 -51 2 -164q0 -244 -20 -256q-12 -10 -54 -10q-22 0 -59 3t-45 3h-6q14 232 14 422
q-30 0 -84 -1t-78 -1v-92q0 -57 1 -146.5t1 -111.5q0 -37 -2 -41q-10 -26 -39 -33.5t-123 -9.5q-2 59 -2 162q0 71 5 266q-114 -4 -132 -4q-54 -92 -120 -214.5t-95 -193.5q-14 4 -45 4q-20 0 -41.5 -2.5t-33.5 -5.5l-11 -2q-5 51 -32 102q-8 16 -98 156t-95 160
q-4 16 -4 24q0 34 27 90q-11 22 -11 50q0 35 17 98q12 38 47.5 121.5t93 213t92.5 212.5q68 0 144 20q90 -231 180 -667q10 -1 121 -5v25q0 41 -1 160t-1 182q0 239 16 262q16 29 147 31q-6 -123 -6 -236q0 -70 2 -191t2 -171v-64q25 0 78 -1t80 -1q0 183 -3 357.5t-3 185.5
q0 52 4 69.5t16 26.5q16 13 78 13h64q0 -27 -1 -78.5t-1 -75.5q0 -168 10 -496q114 3 194 9q0 53 -1 149.5t-1 138.5q0 321 17 344q20 29 86 29q14 0 40.5 -2t35.5 -2q-17 -121 -17 -541v-164q203 673 250 697q16 8 61 8l95 -6q-6 -147 -6 -350q0 -132 3 -370.5t3 -315.5
q0 -166 -8 -179zM2359 948q-24 -71 -68.5 -181t-71 -181.5t-26.5 -96.5v-4q2 -29 70 -141.5t80 -140.5q29 68 59 143t45 116l15 40q-23 127 -60.5 273.5t-42.5 172.5zM143 520q0 -16 24.5 -60.5t64.5 -116t65 -128.5q24 63 58 136.5t52.5 115.5t18.5 61v4q-1 23 -36 178.5
t-60 252.5q-187 -404 -187 -443zM2292 1245q24 -12 57 -12q40 0 61 24q149 -474 226 -763q-187 -488 -246 -500q-6 -2 -18 -2q-46 0 -136 37q-1 35 -23 87.5t-45 91t-58.5 94.5t-43.5 69q-22 40 -22 61q0 12 4.5 21.5t12.5 18.5t10 13q6 9 6 21q0 28 -35 37q187 458 250 702
z" />
    <glyph glyph-name="fi" unicode="&#xfb01;" horiz-adv-x="1148" 
d="M348 1016v-68h334v-98h-334v-850h-108v850h-195v98h195v70q0 151 74 234t218 83q82 0 156 -16l-8 -92q-71 14 -139 14q-104 0 -148.5 -56.5t-44.5 -168.5zM979 0h-109v948h109v-948zM997 1165h-145v131h145v-131z" />
    <glyph glyph-name="fl" unicode="&#xfb02;" horiz-adv-x="1128" 
d="M348 1016v-68h334v-98h-334v-850h-108v850h-195v98h195v70q0 151 74 234t218 83q82 0 156 -16l-8 -92q-71 14 -139 14q-104 0 -148.5 -56.5t-44.5 -168.5zM971 1315v-1315h-109v1315h109z" />
    <glyph glyph-name="exclamdown.case" horiz-adv-x="475" 
d="M180 803h113v-803h-113v803zM322 1059h-168v170h168v-170z" />
    <glyph glyph-name="questiondown.case" horiz-adv-x="989" 
d="M324 657q42 20 69.5 43.5t40 50t17 48t4.5 49.5v20h110v-22q0 -93 -40.5 -152t-139.5 -108q-122 -60 -168.5 -115.5t-46.5 -151.5q0 -116 72.5 -177.5t212.5 -61.5q172 0 261 93t115 278l111 -13q-29 -215 -148 -338t-337 -123q-193 0 -297.5 89t-104.5 249
q0 68 21 123.5t60.5 96t84 69t103.5 53.5zM594 1059h-168v170h168v-170z" />
    <glyph glyph-name="periodcentered.case" horiz-adv-x="417" 
d="M125 702h168v-167h-168v167z" />
    <glyph glyph-name="bullet.case" horiz-adv-x="522" 
d="M127 754h264v-265h-264v265z" />
    <glyph glyph-name="guillemotleft.case" horiz-adv-x="1245" 
d="M690 172h-108l-533 434v45l533 434h108v-22l-528 -428v-12l528 -428v-23zM1167 172h-108l-533 434v45l533 434h108v-22l-528 -428v-12l528 -428v-23z" />
    <glyph glyph-name="guillemotright.case" horiz-adv-x="1245" 
d="M664 158h-109v22l528 428v13l-528 428v22h109l534 -434v-45zM186 158h-108v22l528 428v13l-528 428v22h108l533 -434v-45z" />
    <glyph glyph-name="guilsinglleft.case" horiz-adv-x="778" 
d="M690 174h-108l-533 434v45l533 434h108v-22l-528 -428v-12l528 -428v-23z" />
    <glyph glyph-name="guilsinglright.case" horiz-adv-x="768" 
d="M186 156h-108v24l528 428v13l-528 428v22h108l533 -434v-45z" />
    <glyph glyph-name="hyphen.case" horiz-adv-x="716" 
d="M49 672h619v-109h-619v109z" />
    <glyph glyph-name="endash.case" horiz-adv-x="974" 
d="M49 672h877v-103h-877v103z" />
    <glyph glyph-name="emdash.case" horiz-adv-x="1761" 
d="M49 672h1663v-103h-1663v103z" />
    <glyph glyph-name="parenleft.case" horiz-adv-x="659" 
d="M135 610q0 241 87 444.5t278 383.5l65 -58q-169 -173 -243 -360.5t-74 -409.5q0 -224 73 -411.5t244 -360.5l-65 -59q-191 182 -278 386t-87 445z" />
    <glyph glyph-name="parenright.case" horiz-adv-x="659" 
d="M526 627q0 -241 -87 -444.5t-277 -383.5l-66 58q168 174 243 361.5t75 408.5q0 222 -74.5 410t-243.5 362l66 59q190 -182 277 -386t87 -445z" />
    <glyph glyph-name="bracketleft.case" horiz-adv-x="569" 
d="M147 -154v1540h365v-98h-252v-1341h252v-101h-365z" />
    <glyph glyph-name="bracketright.case" horiz-adv-x="569" 
d="M57 -147v98h254v1341h-254v101h365v-1540h-365z" />
    <glyph glyph-name="braceleft.case" horiz-adv-x="735" 
d="M676 -217q-105 -6 -133 -6q-147 0 -221 57t-74 162q0 55 29 114.5t63 103t63 98.5t29 102q0 76 -61.5 112.5t-188.5 36.5h-139v101h139q110 0 181 42t71 128q0 43 -27.5 94t-60.5 91.5t-60.5 95.5t-27.5 106q0 105 74 162t219 57q28 0 133 -6l-2 -95q-43 2 -117 2
q-103 0 -148.5 -31t-45.5 -100q0 -41 24.5 -89t54 -86t54 -91t24.5 -102q0 -93 -64.5 -146.5t-193.5 -74.5v-15q136 -13 197 -61t61 -142q0 -54 -26 -111t-57 -98t-57 -92.5t-26 -95.5q0 -69 45.5 -100t147.5 -31q29 0 119 4z" />
    <glyph glyph-name="braceright.case" horiz-adv-x="735" 
d="M59 1452q105 6 134 6q145 0 219.5 -57t74.5 -162q0 -45 -19 -92t-46 -86.5t-54 -77.5t-46 -80t-19 -80q0 -78 61.5 -114.5t188.5 -36.5h139v-101h-139q-110 0 -181 -42t-71 -128q0 -43 27.5 -94t60.5 -91.5t60.5 -95.5t27.5 -106q0 -105 -74 -162t-219 -57q-28 0 -133 6
l2 97q86 -4 117 -4q103 0 149 31t46 100q0 34 -16.5 70.5t-39.5 70.5t-46 68.5t-39.5 76t-16.5 82.5q0 93 64.5 146.5t193.5 74.5v15q-137 14 -197.5 61t-60.5 141q0 54 26 111t57 98t57 93t26 96q0 69 -45.5 101t-147.5 32q-29 0 -119 -4z" />
    <glyph glyph-name="zero.osf" horiz-adv-x="1148" 
d="M582 989q-191 0 -289 -121t-98 -331q0 -213 97.5 -336t289.5 -123t289.5 123t97.5 336q0 210 -98 331t-289 121zM582 1090q238 0 369.5 -148.5t131.5 -404.5q0 -257 -130.5 -408.5t-370.5 -151.5t-371 151.5t-131 408.5q0 255 132 404t370 149z" />
    <glyph glyph-name="one.osf" horiz-adv-x="958" 
d="M883 0h-785v98h377v883q-90 -55 -356 -158l-37 97l440 151h64v-973h297v-98z" />
    <glyph glyph-name="two.osf" horiz-adv-x="1142" 
d="M623 991q-334 0 -373 -350l-109 14q20 199 141 317t341 118q198 0 302.5 -82t104.5 -242q0 -132 -102 -213t-340 -143q-158 -42 -240 -83.5t-116.5 -97t-36.5 -145.5q169 16 503 16h355v-100h-957v80q0 87 25 150t80.5 110t132.5 79.5t194 63.5q158 42 242 83t114.5 86
t30.5 114q0 225 -292 225z" />
    <glyph glyph-name="three.osf" horiz-adv-x="1140" 
d="M598 -178q-450 0 -526 420l112 18q32 -170 130.5 -255t283.5 -85q164 0 253 67.5t89 188.5q0 63 -15 105.5t-52 74t-101 46t-160 14.5h-209v94h201q120 0 198.5 59.5t78.5 180.5q0 130 -69.5 186.5t-217.5 56.5q-153 0 -235 -76t-113 -225l-109 19q34 180 145.5 280.5
t309.5 100.5q399 0 399 -324q0 -230 -250 -293v-18q174 -17 243 -83.5t69 -201.5q0 -166 -112 -258t-343 -92z" />
    <glyph glyph-name="four.osf" horiz-adv-x="1175" 
d="M1133 152h-205v-312h-111v312h-762v94l750 823h123v-819h205v-98zM565 250h252v688l-10 2l-627 -690l10 -19q234 19 375 19z" />
    <glyph glyph-name="five.osf" horiz-adv-x="1165" 
d="M614 -82q169 0 252.5 72t83.5 225q0 135 -83 200.5t-253 65.5q-94 0 -187 -26.5t-144 -61.5l-99 37v639h811v-104q-378 0 -706 16v-508q147 100 348 100q207 0 316.5 -89.5t109.5 -268.5q0 -199 -119.5 -297t-331.5 -98q-197 0 -325.5 83.5t-204.5 264.5l106 43
q58 -143 160 -218t266 -75z" />
    <glyph glyph-name="six.osf" horiz-adv-x="1146" 
d="M621 664q-195 0 -302.5 -86t-107.5 -205q0 -127 101.5 -211t279.5 -84q348 0 348 319q0 267 -319 267zM1053 395q0 -194 -119.5 -304.5t-347.5 -110.5q-116 0 -205 32t-157 101t-104 187.5t-36 281.5q0 150 28 268.5t87 209.5t159.5 140t237.5 49q204 0 303 -93.5
t133 -283.5l-106 -18q-32 153 -107 225t-223 72q-209 0 -309.5 -143.5t-100.5 -432.5q0 -61 2 -106h19q36 138 145.5 211.5t292.5 73.5q85 0 156.5 -20.5t129 -62t90 -112t32.5 -164.5z" />
    <glyph glyph-name="seven.osf" horiz-adv-x="1056" 
d="M31 965v104h999v-104q-238 -238 -366.5 -524.5t-155.5 -600.5h-121q27 304 167.5 607.5t371.5 535.5q-247 -18 -459 -18h-436z" />
    <glyph glyph-name="eight.osf" horiz-adv-x="1148" 
d="M575 -20q-487 0 -487 337q0 54 17.5 100t55.5 86.5t106 68t161 38.5v23q-137 27 -208 100.5t-70 192.5q2 151 107.5 237t317.5 86q214 0 320 -86t106 -237q0 -239 -278 -293v-23q93 -11 161 -38.5t106 -68t55.5 -86.5t17.5 -100q0 -337 -488 -337zM575 573
q-109 0 -185.5 -21.5t-116 -59.5t-56 -79t-16.5 -91q0 -118 93.5 -181t280.5 -63t281 63t94 181q0 39 -9.5 73t-35.5 67.5t-67 57t-108 38.5t-155 15zM575 1151q-163 0 -238 -64t-75 -178q-1 -124 84.5 -184.5t228.5 -62.5q143 2 229.5 62.5t86.5 184.5q0 113 -76.5 177.5
t-239.5 64.5z" />
    <glyph glyph-name="nine.osf" horiz-adv-x="1144" 
d="M522 414q192 0 298 83.5t106 200.5q0 126 -99.5 209.5t-275.5 83.5q-177 0 -260.5 -83.5t-83.5 -225.5q0 -268 315 -268zM551 -178q-216 0 -328.5 94.5t-146.5 278.5l106 18q58 -293 369 -293q203 0 301 143t98 431q0 61 -2 106h-20q-35 -131 -142 -203.5t-286 -72.5
q-85 0 -156.5 20t-129 62t-90 113t-32.5 165q0 185 120.5 296.5t342.5 111.5q115 0 203.5 -32t156 -101.5t103 -187.5t35.5 -282q0 -150 -27.5 -268.5t-85.5 -209.5t-156.5 -140t-232.5 -49z" />
    <glyph glyph-name="zero.tf" horiz-adv-x="1220" 
d="M610 1149q-130 0 -218.5 -69t-129.5 -186.5t-41 -277.5q0 -119 23.5 -216t70 -169t122 -111.5t173.5 -39.5q99 0 174.5 39.5t122 111.5t69.5 169t23 216q0 245 -97.5 389t-291.5 144zM610 1251q161 0 275.5 -81t171.5 -223t57 -331q0 -190 -56 -332.5t-171 -224.5
t-277 -82q-161 0 -275.5 82t-170 224.5t-55.5 332.5q0 289 130.5 462t370.5 173z" />
    <glyph glyph-name="one.tf" horiz-adv-x="1249" 
d="M1094 0h-957v102h459v1024q-127 -68 -432 -186l-39 100l522 189h62v-1127h385v-102z" />
    <glyph glyph-name="two.tf" horiz-adv-x="1249" 
d="M672 1151q-167 0 -261 -94.5t-122 -292.5l-107 16q72 469 488 469q200 0 306.5 -89.5t106.5 -258.5q0 -67 -21 -123t-57 -97.5t-94.5 -78t-123 -64t-152.5 -55.5q-157 -53 -236 -101.5t-114 -116t-39 -179.5q205 14 442 14h420v-100h-963v80q0 104 24.5 179.5t80.5 132
t133.5 96t196.5 77.5q213 67 302 143t89 197q0 113 -74 179.5t-225 66.5z" />
    <glyph glyph-name="three.tf" horiz-adv-x="1249" 
d="M653 -20q-450 0 -526 419l113 19q32 -170 130.5 -255t282.5 -85q164 0 253 67.5t89 188.5q0 84 -27.5 134t-100 77.5t-199.5 27.5h-209v95h200q120 0 198.5 59t78.5 180q0 130 -70 187t-217 57q-153 0 -235 -76t-113 -225l-108 18q34 180 145 280.5t309 100.5
q400 0 400 -323q0 -230 -250 -293v-19q174 -17 242.5 -83t68.5 -201q0 -166 -112 -258t-343 -92z" />
    <glyph glyph-name="four.tf" horiz-adv-x="1179" 
d="M1133 311h-205v-311h-111v311h-762v95l750 823h123v-819h205v-99zM565 410h252v688l-10 2l-627 -690l10 -19q234 19 375 19z" />
    <glyph glyph-name="five.tf" horiz-adv-x="1249" 
d="M649 78q169 0 252.5 72t83.5 225q0 135 -83 200.5t-253 65.5q-94 0 -187.5 -26.5t-144.5 -61.5l-98 37v639h811v-105q-358 0 -706 17v-508q147 100 348 100q207 0 316.5 -89.5t109.5 -268.5q0 -199 -119.5 -297t-331.5 -98q-197 0 -325.5 83.5t-204.5 264.5l106 43
q58 -143 160 -218t266 -75z" />
    <glyph glyph-name="six.tf" horiz-adv-x="1249" 
d="M670 664q-195 0 -302.5 -86t-107.5 -205q0 -127 101.5 -211t279.5 -84q348 0 348 319q0 267 -319 267zM1102 395q0 -194 -119.5 -304.5t-347.5 -110.5q-116 0 -205 32t-157 101t-104 187.5t-36 281.5q0 150 28 268.5t87 209.5t159.5 140t237.5 49q204 0 303 -93.5
t133 -283.5l-106 -18q-32 153 -107 225t-223 72q-209 0 -309 -143t-100 -433q0 -61 2 -106h18q36 138 145.5 211.5t292.5 73.5q85 0 156.5 -20.5t129 -62t90 -112t32.5 -164.5z" />
    <glyph glyph-name="seven.tf" horiz-adv-x="1249" 
d="M123 1124v105h999v-105q-465 -465 -522 -1124h-121q27 304 167.5 607.5t371.5 535.5q-260 -19 -459 -19h-436z" />
    <glyph glyph-name="eight.tf" horiz-adv-x="1249" 
d="M625 -20q-488 0 -488 337q0 54 17.5 100t55.5 86.5t106 68t161 38.5v23q-137 27 -208 100.5t-70 192.5q2 151 107.5 237t318.5 86q214 0 320 -86t106 -237q0 -119 -71.5 -192.5t-207.5 -100.5v-23q93 -11 161 -38.5t106 -68t55.5 -86.5t17.5 -100q0 -337 -487 -337z
M625 573q-88 0 -155 -15t-108 -38.5t-67 -57t-35.5 -67.5t-9.5 -73q0 -118 94 -181t281 -63t280.5 63t93.5 181q0 50 -16.5 91t-56 79t-116 59.5t-185.5 21.5zM625 1151q-163 0 -238.5 -64t-75.5 -178q-1 -124 85 -184.5t229 -62.5q143 2 229 62.5t86 184.5q0 113 -76 177.5
t-239 64.5z" />
    <glyph glyph-name="nine.tf" horiz-adv-x="1249" 
d="M559 571q192 0 298 84t106 201q0 126 -99.5 209.5t-275.5 83.5q-177 0 -260.5 -83.5t-83.5 -225.5q0 -137 82 -203t233 -66zM588 -20q-216 0 -328.5 94t-146.5 278l106 19q58 -293 369 -293q203 0 301 142.5t98 430.5q0 62 -2 107h-20q-35 -131 -142 -204t-286 -73
q-85 0 -156.5 20.5t-129 62t-90 113t-32.5 165.5q0 185 120.5 296t342.5 111q115 0 203.5 -32t156 -101t103 -187t35.5 -282q0 -150 -27.5 -268.5t-85.5 -209.5t-156.5 -140t-232.5 -49z" />
    <glyph glyph-name="zero.tosf" horiz-adv-x="1236" 
d="M618 989q-191 0 -289 -121t-98 -331q0 -213 97.5 -336t289.5 -123t290 123t98 336q0 210 -98.5 331t-289.5 121zM618 1090q238 0 370 -149t132 -404q0 -257 -131 -408.5t-371 -151.5t-370.5 151.5t-130.5 408.5q0 256 131.5 404.5t369.5 148.5z" />
    <glyph glyph-name="one.tosf" horiz-adv-x="1249" 
d="M1094 0h-957v98h461v883q-118 -73 -436 -193l-35 97l518 186h66v-973h383v-98z" />
    <glyph glyph-name="two.tosf" horiz-adv-x="1249" 
d="M678 991q-334 0 -373 -350l-108 14q20 199 140.5 317t340.5 118q198 0 302.5 -82t104.5 -242q0 -132 -102 -213t-340 -143q-158 -42 -240 -83.5t-116.5 -97t-36.5 -145.5q169 16 504 16h354v-100h-956v80q0 87 25 150t80.5 110t132.5 79.5t194 63.5q158 42 242 83
t114.5 86t30.5 114q0 225 -293 225z" />
    <glyph glyph-name="three.tosf" horiz-adv-x="1249" 
d="M653 -178q-450 0 -526 420l113 18q32 -170 130.5 -255t282.5 -85q164 0 253 67.5t89 188.5q0 84 -27.5 134.5t-100 78t-199.5 27.5h-209v94h200q120 0 198.5 59.5t78.5 180.5q0 130 -69.5 186.5t-217.5 56.5q-153 0 -235 -76t-113 -225l-108 19q34 180 145 280.5
t309 100.5q400 0 400 -324q0 -230 -250 -293v-18q174 -17 242.5 -83.5t68.5 -201.5q0 -166 -112 -258t-343 -92z" />
    <glyph glyph-name="four.tosf" horiz-adv-x="1249" 
d="M1133 152h-205v-312h-111v312h-762v94l750 823h123v-819h205v-98zM565 250h252v688l-10 2l-627 -690l10 -19q234 19 375 19z" />
    <glyph glyph-name="five.tosf" horiz-adv-x="1249" 
d="M649 -82q169 0 252.5 72t83.5 225q0 135 -83 200.5t-253 65.5q-94 0 -187.5 -26.5t-144.5 -61.5l-98 37v639h811v-104q-378 0 -706 16v-508q147 100 348 100q207 0 316.5 -89.5t109.5 -268.5q0 -199 -119.5 -297t-331.5 -98q-197 0 -325.5 83.5t-204.5 264.5l106 43
q58 -143 160 -218t266 -75z" />
    <glyph glyph-name="six.tosf" horiz-adv-x="1249" 
d="M670 664q-195 0 -302.5 -86t-107.5 -205q0 -127 101.5 -211t279.5 -84q348 0 348 319q0 267 -319 267zM1102 395q0 -194 -119.5 -304.5t-347.5 -110.5q-116 0 -205 32t-157 101t-104 187.5t-36 281.5q0 150 28 268.5t87 209.5t159.5 140t237.5 49q204 0 303 -93.5
t133 -283.5l-106 -18q-32 153 -107 225t-223 72q-209 0 -309 -143t-100 -433q0 -61 2 -106h18q36 138 145.5 211.5t292.5 73.5q85 0 156.5 -20.5t129 -62t90 -112t32.5 -164.5z" />
    <glyph glyph-name="seven.tosf" horiz-adv-x="1249" 
d="M123 965v104h999v-104q-238 -238 -366.5 -524.5t-155.5 -600.5h-121q27 304 167.5 607.5t371.5 535.5q-247 -18 -459 -18h-436z" />
    <glyph glyph-name="eight.tosf" horiz-adv-x="1249" 
d="M625 -20q-488 0 -488 337q0 54 17.5 100t55.5 86.5t106 68t161 38.5v23q-137 27 -208 100.5t-70 192.5q2 151 107.5 237t318.5 86q214 0 320 -86t106 -237q0 -119 -71.5 -192.5t-207.5 -100.5v-23q93 -11 161 -38.5t106 -68t55.5 -86.5t17.5 -100q0 -337 -487 -337z
M625 573q-88 0 -155 -15t-108 -38.5t-67 -57t-35.5 -67.5t-9.5 -73q0 -118 94 -181t281 -63t280.5 63t93.5 181q0 50 -16.5 91t-56 79t-116 59.5t-185.5 21.5zM625 1151q-163 0 -238.5 -64t-75.5 -178q-1 -124 85 -184.5t229 -62.5q143 2 229 62.5t86 184.5q0 113 -76 177.5
t-239 64.5z" />
    <glyph glyph-name="nine.tosf" horiz-adv-x="1249" 
d="M559 414q192 0 298 83.5t106 200.5q0 126 -99.5 209.5t-275.5 83.5q-177 0 -260.5 -83.5t-83.5 -225.5q0 -268 315 -268zM588 -178q-216 0 -328.5 94.5t-146.5 278.5l106 18q58 -293 369 -293q203 0 301 143t98 431q0 61 -2 106h-20q-35 -131 -142 -203.5t-286 -72.5
q-85 0 -156.5 20t-129 62t-90 113t-32.5 165q0 185 120.5 296.5t342.5 111.5q115 0 203.5 -32t156 -101.5t103 -187.5t35.5 -282q0 -150 -27.5 -268.5t-85.5 -209.5t-156.5 -140t-232.5 -49z" />
    <glyph glyph-name="dollar.osf" horiz-adv-x="1001" 
d="M467 1319h94l-8 -250q78 -7 137.5 -31.5t99 -66t64.5 -91t41 -114.5l-109 -23q-30 122 -98 178t-194 56q-121 0 -187.5 -48t-66.5 -134q0 -78 68 -127t235 -76q210 -36 298.5 -108t88.5 -193q0 -134 -94.5 -213.5t-282.5 -79.5l8 -252h-96l8 254q-348 28 -405 350l104 21
q60 -279 365 -279q139 0 209.5 50.5t70.5 142.5q0 93 -70 137.5t-241 73.5q-203 34 -290 105.5t-87 186.5q0 126 90 202.5t256 80.5z" />
    <glyph glyph-name="sterling.osf" horiz-adv-x="1091" 
d="M1010 0h-924v100h211q27 96 27 222q0 36 -15 102h-219v86h195q-18 60 -24.5 84t-15.5 75t-9 95q0 146 87.5 236t254.5 90q91 0 158.5 -24.5t110 -71.5t67 -103t38.5 -131l-104 -19q-27 128 -89 188t-181 60q-121 1 -176.5 -63.5t-55.5 -161.5q0 -44 9 -95t15.5 -75
t24.5 -84h475v-86h-450q12 -47 12 -94q0 -125 -43 -230h621v-100z" />
    <glyph glyph-name="Euro.osf" horiz-adv-x="1196" 
d="M651 -23q-193 0 -311.5 108t-151.5 300h-147v82h137q-2 23 -2 68q0 25 4 79h-139v82h149q37 185 157.5 289.5t307.5 104.5q188 0 306 -105t151 -289l-102 -24q-33 159 -119.5 239t-235.5 80q-295 0 -360 -295h383v-82h-393q-4 -50 -4 -79q0 -45 2 -68h395v-82h-385
q59 -309 360 -309q157 0 243.5 81t121.5 246l100 -20q-33 -190 -151.5 -298t-315.5 -108z" />
    <glyph glyph-name="yen.osf" horiz-adv-x="1136" 
d="M1057 301h-430v-301h-115v301h-432v86h416l-125 184h-291v88h231l-260 385v23h117l391 -616h23l387 616h114v-23l-258 -385h232v-88h-289l-125 -184h414v-86z" />
    <glyph glyph-name="a.sc" 
d="M963 0l-142 332h-557l-139 -332h-117l467 1071h139l465 -1071h-116zM358 557l-55 -131h477l-55 131q-103 248 -156 414h-47q-72 -200 -164 -414z" />
    <glyph glyph-name="b.sc" horiz-adv-x="1064" 
d="M606 492h-346v-398h358q135 0 203 54t68 145q0 98 -66 148.5t-217 50.5zM596 975h-336v-393h322q113 0 180 48.5t67 153.5q0 97 -55.5 144t-177.5 47zM150 0v1071h436q352 0 352 -274q0 -100 -56.5 -163t-158.5 -85v-14q137 -15 206.5 -75t69.5 -171q0 -133 -92 -211
t-284 -78h-473z" />
    <glyph glyph-name="c.sc" horiz-adv-x="1181" 
d="M600 -20q-253 0 -390.5 150t-137.5 407q0 255 140.5 404t391.5 149q207 0 335.5 -105.5t162.5 -290.5l-105 -22q-70 317 -393 317q-208 0 -315 -121t-107 -331q0 -214 106 -334.5t312 -120.5q336 0 404 326l106 -21q-33 -191 -163.5 -299t-346.5 -108z" />
    <glyph glyph-name="d.sc" horiz-adv-x="1196" 
d="M549 971h-289v-873h301q234 0 343.5 115.5t109.5 325.5q0 222 -111.5 327t-353.5 105zM150 0v1071h413q279 0 421 -136t142 -396q0 -252 -148.5 -395.5t-406.5 -143.5h-421z" />
    <glyph glyph-name="e.sc" horiz-adv-x="999" 
d="M150 0v1071h743v-102h-633v-375h563v-94h-563v-400h631v-100h-741z" />
    <glyph glyph-name="f.sc" horiz-adv-x="931" 
d="M791 463h-531v-463h-110v1071h712v-104h-602v-406h531v-98z" />
    <glyph glyph-name="g.sc" horiz-adv-x="1214" 
d="M588 -18q-244 0 -383 139t-139 401q0 260 137.5 414t398.5 154q210 0 336 -104t162 -290l-105 -22q-38 160 -134 237.5t-257 77.5q-221 0 -323.5 -123.5t-102.5 -343.5q0 -210 106 -326t326 -116q112 0 192 26.5t123 74.5t62 104t19 125v26h-396v92h500v-528h-104v248
h-11q-42 -119 -142.5 -192.5t-264.5 -73.5z" />
    <glyph glyph-name="h.sc" horiz-adv-x="1208" 
d="M1059 0h-111v483h-688v-483h-110v1071h110v-485h688v485h111v-1071z" />
    <glyph glyph-name="i.sc" horiz-adv-x="409" 
d="M260 0h-110v1071h110v-1071z" />
    <glyph glyph-name="j.sc" horiz-adv-x="575" 
d="M315 262v809h113v-807q0 -278 -262 -278q-63 0 -137 12l6 100q72 -10 121 -10q85 0 122 43t37 131z" />
    <glyph glyph-name="k.sc" horiz-adv-x="1052" 
d="M911 0l-549 461h-102v-461h-110v1071h110v-514h96l527 514h125v-20l-566 -535l600 -496v-20h-131z" />
    <glyph glyph-name="l.sc" horiz-adv-x="860" 
d="M150 1071h110v-971h555v-100h-665v1071z" />
    <glyph glyph-name="m.sc" horiz-adv-x="1482" 
d="M258 573v-573h-108v1071h194l240 -543q48 -107 137 -348h41q91 245 137 350l246 541h190v-1071h-112v573q0 63 6 402h-43q-47 -136 -166 -420l-223 -487h-127l-219 493q-97 235 -160 414h-37q4 -117 4 -402z" />
    <glyph glyph-name="n.sc" horiz-adv-x="1202" 
d="M901 0l-399 592q-100 153 -213 369l-47 -3q16 -235 16 -518v-440h-108v1071h169l355 -526q149 -228 246 -414l43 2q-17 300 -17 496v442h109v-1071h-154z" />
    <glyph glyph-name="o.sc" horiz-adv-x="1247" 
d="M625 -20q-263 0 -409 152.5t-146 404.5q0 251 147 402t408 151t407 -151t146 -402q0 -252 -145 -404.5t-408 -152.5zM625 82q217 0 329.5 123t112.5 332q0 208 -112.5 330t-329.5 122q-218 0 -331.5 -122.5t-113.5 -329.5q0 -209 112.5 -332t332.5 -123z" />
    <glyph glyph-name="p.sc" horiz-adv-x="985" 
d="M559 971h-299v-457h301q142 0 207.5 55t65.5 172q0 122 -62 176t-213 54zM571 418h-311v-418h-110v1071h419q375 0 375 -328q0 -149 -97.5 -237t-275.5 -88z" />
    <glyph glyph-name="q.sc" horiz-adv-x="1247" 
d="M625 82q217 0 329.5 123t112.5 332q0 208 -112.5 330t-329.5 122q-218 0 -331.5 -122.5t-113.5 -329.5q0 -209 112.5 -332t332.5 -123zM625 -20q-263 0 -409 152.5t-146 404.5q0 251 147 402t408 151t407 -151t146 -402q0 -155 -57.5 -276t-166.5 -193l146 -224v-20h-113
l-119 199q-104 -43 -243 -43z" />
    <glyph glyph-name="r.sc" horiz-adv-x="1103" 
d="M578 971h-318v-420h320q140 0 206 52t66 157q0 108 -61.5 159.5t-212.5 51.5zM903 0l-362 455h-281v-455h-110v1071h438q191 0 283 -81.5t92 -231.5q0 -127 -75.5 -204.5t-223.5 -94.5l362 -439v-20h-123z" />
    <glyph glyph-name="s.sc" horiz-adv-x="1036" 
d="M545 -20q-425 3 -479 364l106 23q25 -143 115.5 -216t259.5 -73q154 0 227.5 52t73.5 144q0 89 -73 139t-247 79q-221 38 -314 115t-93 198q0 131 100.5 208t290.5 77q126 0 212.5 -40.5t132.5 -108.5t71 -171l-109 -22q-33 128 -101 186.5t-210 58.5
q-138 0 -208.5 -47.5t-70.5 -134.5q0 -55 26.5 -93.5t100.5 -71.5t203 -56q115 -21 194 -51t123.5 -69.5t63 -84t18.5 -102.5q0 -142 -101 -222.5t-312 -80.5z" />
    <glyph glyph-name="t.sc" horiz-adv-x="960" 
d="M35 967v104h893v-104h-391v-967h-111v967h-391z" />
    <glyph glyph-name="u.sc" horiz-adv-x="1189" 
d="M606 82q178 0 252 82.5t74 238.5v668h110v-672q0 -205 -111 -311t-325 -106q-218 0 -337 106t-119 311v672h110v-657q0 -157 79.5 -244.5t266.5 -87.5z" />
    <glyph glyph-name="v.sc" horiz-adv-x="1087" 
d="M614 0h-139l-467 1071h119l235 -557q103 -241 158 -414h47q64 176 162 414l236 557h114z" />
    <glyph glyph-name="w.sc" horiz-adv-x="1574" 
d="M633 446l-131 -446h-172l-314 1071h123l146 -536q73 -290 106 -435h58q65 281 108 432l160 539h147l160 -539q55 -193 109 -432h53q33 153 108 435l146 536h116l-311 -1071h-172l-133 446q-95 333 -133 517h-39q-48 -212 -135 -517z" />
    <glyph glyph-name="x.sc" horiz-adv-x="1046" 
d="M897 0l-365 483h-32l-357 -483h-108v20l397 519l-393 512v20h115l350 -477h37l352 477h113v-20l-398 -512l404 -519v-20h-115z" />
    <glyph glyph-name="y.sc" horiz-adv-x="993" 
d="M553 0h-111v377l-440 674v20h115l368 -604h27l367 604h112v-20l-438 -678v-373z" />
    <glyph glyph-name="z.sc" horiz-adv-x="1056" 
d="M965 102v-102h-893v102l757 873l-6 12q-212 -20 -409 -20h-318v104h869v-98l-764 -877l6 -14q242 20 446 20h312z" />
    <glyph glyph-name="aacute.sc" 
d="M963 0l-142 332h-557l-139 -332h-117l467 1071h139l465 -1071h-116zM385 1190l-29 57l469 275l49 -90zM358 557l-55 -131h477l-55 131q-103 248 -156 414h-47q-72 -200 -164 -414z" />
    <glyph glyph-name="abreve.sc" 
d="M963 0l-142 332h-557l-139 -332h-117l467 1071h139l465 -1071h-116zM545 1296q189 0 200 211h76q0 -149 -74 -224t-202 -75t-202.5 75t-74.5 224h78q11 -211 199 -211zM358 557l-55 -131h477l-55 131q-103 248 -156 414h-47q-72 -200 -164 -414z" />
    <glyph glyph-name="acircumflex.sc" 
d="M963 0l-142 332h-557l-139 -332h-117l467 1071h139l465 -1071h-116zM786 1188l-241 225l-244 -225l-47 49l262 279h57l263 -279zM358 557l-55 -131h477l-55 131q-103 248 -156 414h-47q-72 -200 -164 -414z" />
    <glyph glyph-name="adieresis.sc" 
d="M963 0l-142 332h-557l-139 -332h-117l467 1071h139l465 -1071h-116zM281 1401h151v-152h-151v152zM655 1401h152v-152h-152v152zM358 557l-55 -131h477l-55 131q-103 248 -156 414h-47q-72 -200 -164 -414z" />
    <glyph glyph-name="agrave.sc" 
d="M963 0l-142 332h-557l-139 -332h-117l467 1071h139l465 -1071h-116zM715 1190l-492 240l53 94l467 -277zM358 557l-55 -131h477l-55 131q-103 248 -156 414h-47q-72 -200 -164 -414z" />
    <glyph glyph-name="amacron.sc" 
d="M963 0l-142 332h-557l-139 -332h-117l467 1071h139l465 -1071h-116zM266 1352h557v-92h-557v92zM358 557l-55 -131h477l-55 131q-103 248 -156 414h-47q-72 -200 -164 -414z" />
    <glyph glyph-name="aogonek.sc" 
d="M1081 -319q-73 -13 -125 -13q-112 0 -165.5 39.5t-53.5 108.5q0 68 60 115t164 71l-140 330h-557l-139 -332h-117l467 1071h139l465 -1071h-2q-132 -27 -193 -63t-61 -91q0 -84 142 -84q29 0 110 15zM358 557l-55 -131h477l-55 131q-103 248 -156 414h-47
q-72 -200 -164 -414z" />
    <glyph glyph-name="aring.sc" 
d="M963 0l-142 332h-557l-139 -332h-117l467 1071h139l465 -1071h-116zM408 1405q0 -65 36.5 -101t100.5 -36t100.5 36t36.5 103q0 65 -36.5 101t-100.5 36t-100.5 -36t-36.5 -103zM766 1407q0 -100 -60 -159.5t-161 -59.5q-102 0 -162.5 59t-60.5 158q0 100 60.5 159.5
t162.5 59.5q101 0 161 -59t60 -158zM358 557l-55 -131h477l-55 131q-103 248 -156 414h-47q-72 -200 -164 -414z" />
    <glyph glyph-name="aringacute.sc" 
d="M371 1430l-21 63l512 184l35 -102zM748 1192q0 -130 -109 -180l440 -1012h-116l-142 332h-557l-139 -332h-117l441 1012q-51 22 -80 69t-29 111q0 91 55 146t148 55t149 -55t56 -146zM424 1192q0 -50 25 -81.5t69 -39.5h49q45 8 70 39.5t25 81.5q0 58 -31.5 90.5
t-87.5 32.5q-55 0 -87 -32.5t-32 -90.5zM358 557l-55 -131h477l-55 131q-103 248 -156 414h-47q-72 -200 -164 -414z" />
    <glyph glyph-name="atilde.sc" 
d="M963 0l-142 332h-557l-139 -332h-117l467 1071h139l465 -1071h-116zM401 1530q46 0 83 -22.5t61 -55t45.5 -64.5t47 -54.5t54.5 -22.5q46 0 64.5 51t15.5 162h70q6 -49 6 -92q0 -104 -42 -158.5t-112 -54.5q-44 0 -79.5 23t-59.5 55.5t-45.5 64.5t-47.5 55t-56 23
q-53 0 -71.5 -47t-15.5 -160h-71q-6 50 -6 88q0 103 42.5 156t116.5 53zM358 557l-55 -131h477l-55 131q-103 248 -156 414h-47q-72 -200 -164 -414z" />
    <glyph glyph-name="ae.sc" horiz-adv-x="1556" 
d="M444 557l-94 -172h357v590h-54q-87 -196 -209 -418zM707 0v291h-408l-158 -291h-118l595 1071h832v-102h-633v-375h563v-94h-563v-400h631v-100h-741z" />
    <glyph glyph-name="aeacute.sc" horiz-adv-x="1556" 
d="M784 1190l-28 57l469 275l49 -90zM707 0v291h-408l-158 -291h-118l595 1071h832v-102h-633v-375h563v-94h-563v-400h631v-100h-741zM444 557l-94 -172h357v590h-54q-87 -196 -209 -418z" />
    <glyph glyph-name="cacute.sc" horiz-adv-x="1181" 
d="M600 -20q-253 0 -390.5 150t-137.5 407q0 255 140.5 404t391.5 149q207 0 335.5 -105.5t162.5 -290.5l-105 -22q-70 317 -393 317q-208 0 -315 -121t-107 -331q0 -214 106 -334.5t312 -120.5q336 0 404 326l106 -21q-33 -191 -163.5 -299t-346.5 -108zM432 1210l-29 58
l469 274l50 -90z" />
    <glyph glyph-name="ccaron.sc" horiz-adv-x="1181" 
d="M600 -20q-253 0 -390.5 150t-137.5 407q0 255 140.5 404t391.5 149q207 0 335.5 -105.5t162.5 -290.5l-105 -22q-70 317 -393 317q-208 0 -315 -121t-107 -331q0 -214 106 -334.5t312 -120.5q336 0 404 326l106 -21q-33 -191 -163.5 -299t-346.5 -108zM621 1221h-58
l-262 278l49 49l242 -225l242 225l49 -49z" />
    <glyph glyph-name="ccedilla.sc" horiz-adv-x="1181" 
d="M600 -20h-20l-37 -91q53 17 92 17q66 0 107.5 -26.5t41.5 -84.5q0 -23 -9.5 -45.5t-29 -44.5t-57 -35.5t-86.5 -13.5q-128 0 -207 61l43 64q77 -51 162 -51q53 0 79 19t26 48t-25.5 45.5t-69.5 16.5q-32 0 -90 -15l-51 25l45 115q-214 26 -328 172.5t-114 380.5
q0 255 140.5 404t391.5 149q207 0 335.5 -105.5t162.5 -290.5l-105 -22q-70 317 -393 317q-208 0 -315 -121t-107 -331q0 -214 106 -334.5t312 -120.5q336 0 404 326l106 -21q-33 -191 -163.5 -299t-346.5 -108z" />
    <glyph glyph-name="ccircumflex.sc" horiz-adv-x="1181" 
d="M600 -20q-253 0 -390.5 150t-137.5 407q0 255 140.5 404t391.5 149q207 0 335.5 -105.5t162.5 -290.5l-105 -22q-70 317 -393 317q-208 0 -315 -121t-107 -331q0 -214 106 -334.5t312 -120.5q336 0 404 326l106 -21q-33 -191 -163.5 -299t-346.5 -108zM834 1208l-242 226
l-244 -226l-47 49l262 279h58l262 -279z" />
    <glyph glyph-name="cdotaccent.sc" horiz-adv-x="1181" 
d="M600 -20q-253 0 -390.5 150t-137.5 407q0 255 140.5 404t391.5 149q207 0 335.5 -105.5t162.5 -290.5l-105 -22q-70 317 -393 317q-208 0 -315 -121t-107 -331q0 -214 106 -334.5t312 -120.5q336 0 404 326l106 -21q-33 -191 -163.5 -299t-346.5 -108zM512 1448h158v-154
h-158v154z" />
    <glyph glyph-name="dcaron.sc" horiz-adv-x="1196" 
d="M549 971h-289v-873h301q234 0 343.5 115.5t109.5 325.5q0 222 -111.5 327t-353.5 105zM150 0v1071h413q279 0 421 -136t142 -396q0 -252 -148.5 -395.5t-406.5 -143.5h-421zM637 1200h-57l-263 279l50 49l241 -225l242 225l49 -49z" />
    <glyph glyph-name="dcroat.sc" horiz-adv-x="1249" 
d="M668 498h-355v-400h301q234 0 343.5 115.5t109.5 325.5q0 222 -111.5 327t-353.5 105h-289v-387h355v-86zM203 0v498h-156v86h156v487h413q279 0 421.5 -136t142.5 -396q0 -252 -148.5 -395.5t-406.5 -143.5h-422z" />
    <glyph glyph-name="eacute.sc" horiz-adv-x="999" 
d="M150 0v1071h743v-102h-633v-375h563v-94h-563v-400h631v-100h-741zM362 1190l-28 57l469 275l49 -90z" />
    <glyph glyph-name="ebreve.sc" horiz-adv-x="999" 
d="M150 0v1071h743v-102h-633v-375h563v-94h-563v-400h631v-100h-741zM522 1296q86 0 140.5 49.5t60.5 161.5h76q0 -149 -74.5 -224t-202.5 -75t-202 75t-74 224h78q11 -211 198 -211z" />
    <glyph glyph-name="ecaron.sc" horiz-adv-x="999" 
d="M150 0v1071h743v-102h-633v-375h563v-94h-563v-400h631v-100h-741zM551 1200h-57l-263 279l50 49l241 -225l242 225l49 -49z" />
    <glyph glyph-name="ecircumflex.sc" horiz-adv-x="999" 
d="M150 0v1071h743v-102h-633v-375h563v-94h-563v-400h631v-100h-741zM764 1188l-242 225l-243 -225l-48 49l263 279h57l262 -279z" />
    <glyph glyph-name="edieresis.sc" horiz-adv-x="999" 
d="M150 0v1071h743v-102h-633v-375h563v-94h-563v-400h631v-100h-741zM258 1401h152v-152h-152v152zM633 1401h151v-152h-151v152z" />
    <glyph glyph-name="edotaccent.sc" horiz-adv-x="999" 
d="M150 0v1071h743v-102h-633v-375h563v-94h-563v-400h631v-100h-741zM444 1427h158v-153h-158v153z" />
    <glyph glyph-name="egrave.sc" horiz-adv-x="999" 
d="M150 0v1071h743v-102h-633v-375h563v-94h-563v-400h631v-100h-741zM692 1190l-491 240l53 94l467 -277z" />
    <glyph glyph-name="emacron.sc" horiz-adv-x="999" 
d="M150 0v1071h743v-102h-633v-375h563v-94h-563v-400h631v-100h-741zM244 1352h557v-92h-557v92z" />
    <glyph glyph-name="eng.sc" horiz-adv-x="1202" 
d="M150 0v1071h169l373 -524q134 -192 252 -410l19 2q-17 236 -17 490v442h109v-1110q0 -295 -277 -295q-68 0 -145 12l6 103q71 -12 133 -12q91 0 132.5 47t41.5 141v43l-430 590q-98 135 -225 371l-49 -3q16 -232 16 -518v-440h-108z" />
    <glyph glyph-name="eogonek.sc" horiz-adv-x="999" 
d="M893 -319q-73 -13 -125 -13q-112 0 -165.5 39.5t-53.5 108.5q0 129 211 184h-610v1071h743v-102h-633v-375h563v-94h-563v-400h631v-100h-2q-132 -27 -193 -63t-61 -91q0 -84 141 -84q30 0 111 15z" />
    <glyph glyph-name="eth.sc" horiz-adv-x="1249" 
d="M668 498h-355v-400h301q234 0 343.5 115.5t109.5 325.5q0 222 -111.5 327t-353.5 105h-289v-387h355v-86zM203 0v498h-156v86h156v487h413q279 0 421.5 -136t142.5 -396q0 -252 -148.5 -395.5t-406.5 -143.5h-422z" />
    <glyph glyph-name="fi.sc" horiz-adv-x="1384" 
d="M791 463h-531v-463h-110v1071h712v-104h-602v-406h531v-98zM1237 0h-111v1071h111v-1071z" />
    <glyph glyph-name="fl.sc" horiz-adv-x="1837" 
d="M791 463h-531v-463h-110v1071h712v-104h-602v-406h531v-98zM1126 1071h111v-971h555v-100h-666v1071z" />
    <glyph glyph-name="gbreve.sc" horiz-adv-x="1214" 
d="M588 -18q-244 0 -383 139t-139 401q0 260 137.5 414t398.5 154q210 0 336 -104t162 -290l-105 -22q-38 160 -134 237.5t-257 77.5q-221 0 -323.5 -123.5t-102.5 -343.5q0 -210 106 -326t326 -116q112 0 192 26.5t123 74.5t62 104t19 125v26h-396v92h500v-528h-104v248
h-11q-42 -119 -142.5 -192.5t-264.5 -73.5zM600 1317q86 0 140.5 49.5t60.5 161.5h76q0 -149 -74.5 -224t-202.5 -75t-202 75t-74 224h77q11 -211 199 -211z" />
    <glyph glyph-name="gcircumflex.sc" horiz-adv-x="1214" 
d="M588 -18q-244 0 -383 139t-139 401q0 260 137.5 414t398.5 154q210 0 336 -104t162 -290l-105 -22q-38 160 -134 237.5t-257 77.5q-221 0 -323.5 -123.5t-102.5 -343.5q0 -210 106 -326t326 -116q112 0 192 26.5t123 74.5t62 104t19 125v26h-396v92h500v-528h-104v248
h-11q-42 -119 -142.5 -192.5t-264.5 -73.5zM842 1208l-242 226l-244 -226l-47 49l262 279h58l262 -279z" />
    <glyph glyph-name="gcommaaccent.sc" horiz-adv-x="1214" 
d="M588 -18q-244 0 -383 139t-139 401q0 260 137.5 414t398.5 154q210 0 336 -104t162 -290l-105 -22q-38 160 -134 237.5t-257 77.5q-221 0 -323.5 -123.5t-102.5 -343.5q0 -210 106 -326t326 -116q112 0 192 26.5t123 74.5t62 104t19 125v26h-396v92h500v-528h-104v248
h-11q-42 -119 -142.5 -192.5t-264.5 -73.5zM586 -119h104l-121 -307h-77v18z" />
    <glyph glyph-name="gdotaccent.sc" horiz-adv-x="1214" 
d="M588 -18q-244 0 -383 139t-139 401q0 260 137.5 414t398.5 154q210 0 336 -104t162 -290l-105 -22q-38 160 -134 237.5t-257 77.5q-221 0 -323.5 -123.5t-102.5 -343.5q0 -210 106 -326t326 -116q112 0 192 26.5t123 74.5t62 104t19 125v26h-396v92h500v-528h-104v248
h-11q-42 -119 -142.5 -192.5t-264.5 -73.5zM522 1448h158v-154h-158v154z" />
    <glyph glyph-name="hbar.sc" horiz-adv-x="1269" 
d="M979 539v211h-688v-211h688zM1090 0h-111v438h-688v-438h-111v750h-139v88h139v233h111v-233h688v233h111v-233h139v-88h-139v-750z" />
    <glyph glyph-name="hcircumflex.sc" horiz-adv-x="1208" 
d="M1059 0h-111v483h-688v-483h-110v1071h110v-485h688v485h111v-1071zM846 1188l-242 225l-244 -225l-47 49l262 279h58l262 -279z" />
    <glyph glyph-name="iacute.sc" horiz-adv-x="409" 
d="M260 0h-110v1071h110v-1071zM45 1190l-29 57l469 275l50 -90z" />
    <glyph glyph-name="ibreve.sc" horiz-adv-x="409" 
d="M260 0h-110v1071h110v-1071zM205 1296q86 0 140.5 49.5t60.5 161.5h75q0 -149 -74 -224t-202 -75t-202.5 75t-74.5 224h78q11 -211 199 -211z" />
    <glyph glyph-name="icircumflex.sc" horiz-adv-x="409" 
d="M260 0h-110v1071h110v-1071zM446 1188l-241 225l-244 -225l-47 49l262 279h57l263 -279z" />
    <glyph glyph-name="idieresis.sc" horiz-adv-x="409" 
d="M260 0h-110v1071h110v-1071zM-59 1401h151v-152h-151v152zM315 1401h152v-152h-152v152z" />
    <glyph glyph-name="igrave.sc" horiz-adv-x="409" 
d="M260 0h-110v1071h110v-1071zM375 1190l-492 240l54 94l466 -277z" />
    <glyph glyph-name="ij.sc" horiz-adv-x="985" 
d="M260 0h-110v1071h110v-1071zM725 262v809h113v-807q0 -278 -263 -278q-63 0 -137 12l6 100q72 -10 121 -10q85 0 122.5 43t37.5 131z" />
    <glyph glyph-name="imacron.sc" horiz-adv-x="409" 
d="M260 0h-110v1071h110v-1071zM-74 1352h557v-92h-557v92z" />
    <glyph glyph-name="iogonek.sc" horiz-adv-x="409" 
d="M260 0q-132 -27 -193 -63t-61 -91q0 -84 141 -84q30 0 111 15l6 -96q-73 -13 -125 -13q-112 0 -165.5 39.5t-53.5 108.5q0 133 230 188v1067h110v-1071z" />
    <glyph glyph-name="itilde.sc" horiz-adv-x="409" 
d="M260 0h-110v1071h110v-1071zM61 1530q46 0 83 -22.5t61 -55t45.5 -64.5t47 -54.5t54.5 -22.5q46 0 64.5 51t15.5 162h70q6 -49 6 -92q0 -104 -42 -158.5t-112 -54.5q-44 0 -79.5 23t-59.5 55.5t-45.5 64.5t-47.5 55t-56 23q-53 0 -71 -47t-15 -160h-72q-6 49 -6 88
q0 103 42.5 156t116.5 53z" />
    <glyph glyph-name="jcircumflex.sc" horiz-adv-x="575" 
d="M315 262v809h113v-807q0 -278 -262 -278q-63 0 -137 12l6 100q72 -10 121 -10q85 0 122 43t37 131zM614 1188l-241 225l-244 -225l-47 49l262 279h57l263 -279z" />
    <glyph glyph-name="kcommaaccent.sc" horiz-adv-x="1052" 
d="M911 0l-549 461h-102v-461h-110v1071h110v-514h96l527 514h125v-20l-566 -535l600 -496v-20h-131zM582 -119h104l-121 -307h-78v18z" />
    <glyph glyph-name="lacute.sc" horiz-adv-x="860" 
d="M145 1190l-28 57l469 275l49 -90zM150 1071h110v-971h555v-100h-665v1071z" />
    <glyph glyph-name="lcaron.sc" horiz-adv-x="878" 
d="M676 1069h104l-53 -514h-74zM150 1071h110v-971h555v-100h-665v1071z" />
    <glyph glyph-name="lcommaaccent.sc" horiz-adv-x="860" 
d="M150 1071h110v-971h555v-100h-665v1071zM467 -119h104l-120 -307h-78v18z" />
    <glyph glyph-name="ldot.sc" horiz-adv-x="872" 
d="M575 659h156v-151h-156v151zM150 1071h110v-971h555v-100h-665v1071z" />
    <glyph glyph-name="lslash.sc" horiz-adv-x="907" 
d="M176 1071h111v-496l293 150v-90l-293 -150v-385h555v-100h-666v428l-143 -74v90l143 74v553z" />
    <glyph glyph-name="nacute.sc" horiz-adv-x="1202" 
d="M901 0l-399 592q-100 153 -213 369l-47 -3q16 -235 16 -518v-440h-108v1071h169l355 -526q149 -228 246 -414l43 2q-17 300 -17 496v442h109v-1071h-154zM442 1190l-28 57l469 275l49 -90z" />
    <glyph glyph-name="ncaron.sc" horiz-adv-x="1202" 
d="M901 0l-399 592q-100 153 -213 369l-47 -3q16 -235 16 -518v-440h-108v1071h169l355 -526q149 -228 246 -414l43 2q-17 300 -17 496v442h109v-1071h-154zM631 1200h-58l-262 279l49 49l242 -225l242 225l49 -49z" />
    <glyph glyph-name="ncommaaccent.sc" horiz-adv-x="1202" 
d="M901 0l-399 592q-100 153 -213 369l-47 -3q16 -235 16 -518v-440h-108v1071h169l355 -526q149 -228 246 -414l43 2q-17 300 -17 496v442h109v-1071h-154zM586 -119h104l-121 -307h-77v18z" />
    <glyph glyph-name="ntilde.sc" horiz-adv-x="1202" 
d="M901 0l-399 592q-100 153 -213 369l-47 -3q16 -235 16 -518v-440h-108v1071h169l355 -526q149 -228 246 -414l43 2q-17 300 -17 496v442h109v-1071h-154zM459 1530q46 0 83 -22.5t61 -55t45.5 -64.5t47 -54.5t54.5 -22.5q46 0 64 51t15 162h70q6 -49 6 -92
q0 -104 -41.5 -158.5t-111.5 -54.5q-44 0 -79.5 23t-59.5 55.5t-46 64.5t-48 55t-56 23q-53 0 -71 -47t-15 -160h-72q-6 50 -6 88q0 103 43 156t117 53z" />
    <glyph glyph-name="oacute.sc" horiz-adv-x="1247" 
d="M625 -20q-263 0 -409 152.5t-146 404.5q0 251 147 402t408 151t407 -151t146 -402q0 -252 -145 -404.5t-408 -152.5zM625 82q217 0 329.5 123t112.5 332q0 208 -112.5 330t-329.5 122q-218 0 -331.5 -122.5t-113.5 -329.5q0 -209 112.5 -332t332.5 -123zM465 1210l-29 58
l469 274l49 -90z" />
    <glyph glyph-name="obreve.sc" horiz-adv-x="1247" 
d="M625 -20q-263 0 -409 152.5t-146 404.5q0 251 147 402t408 151t407 -151t146 -402q0 -252 -145 -404.5t-408 -152.5zM625 82q217 0 329.5 123t112.5 332q0 208 -112.5 330t-329.5 122q-218 0 -331.5 -122.5t-113.5 -329.5q0 -209 112.5 -332t332.5 -123zM623 1317
q189 0 200 211h76q0 -149 -74 -224t-202 -75t-202.5 75t-74.5 224h78q11 -211 199 -211z" />
    <glyph glyph-name="ocircumflex.sc" horiz-adv-x="1247" 
d="M625 82q217 0 329.5 123t112.5 332q0 208 -112.5 330t-329.5 122q-218 0 -331.5 -122.5t-113.5 -329.5q0 -209 112.5 -332t332.5 -123zM625 -20q-263 0 -409 152.5t-146 404.5q0 251 147 402t408 151t407 -151t146 -402q0 -252 -145 -404.5t-408 -152.5zM866 1208
l-241 226l-244 -226l-47 49l262 279h57l262 -279z" />
    <glyph glyph-name="odieresis.sc" horiz-adv-x="1247" 
d="M625 -20q-263 0 -409 152.5t-146 404.5q0 251 147 402t408 151t407 -151t146 -402q0 -252 -145 -404.5t-408 -152.5zM625 82q217 0 329.5 123t112.5 332q0 208 -112.5 330t-329.5 122q-218 0 -331.5 -122.5t-113.5 -329.5q0 -209 112.5 -332t332.5 -123zM360 1421h152
v-151h-152v151zM735 1421h152v-151h-152v151z" />
    <glyph glyph-name="ograve.sc" horiz-adv-x="1247" 
d="M625 -20q-263 0 -409 152.5t-146 404.5q0 251 147 402t408 151t407 -151t146 -402q0 -252 -145 -404.5t-408 -152.5zM625 82q217 0 329.5 123t112.5 332q0 208 -112.5 330t-329.5 122q-218 0 -331.5 -122.5t-113.5 -329.5q0 -209 112.5 -332t332.5 -123zM795 1210
l-492 240l53 94l467 -276z" />
    <glyph glyph-name="ohungarumlaut.sc" horiz-adv-x="1247" 
d="M625 -20q-263 0 -409 152.5t-146 404.5q0 251 147 402t408 151t407 -151t146 -402q0 -252 -145 -404.5t-408 -152.5zM625 82q217 0 329.5 123t112.5 332q0 208 -112.5 330t-329.5 122q-218 0 -331.5 -122.5t-113.5 -329.5q0 -209 112.5 -332t332.5 -123zM471 1206l-59 37
l186 332l94 -62zM733 1208l-57 41l201 324l92 -64z" />
    <glyph glyph-name="omacron.sc" horiz-adv-x="1247" 
d="M625 -20q-263 0 -409 152.5t-146 404.5q0 251 147 402t408 151t407 -151t146 -402q0 -252 -145 -404.5t-408 -152.5zM625 82q217 0 329.5 123t112.5 332q0 208 -112.5 330t-329.5 122q-218 0 -331.5 -122.5t-113.5 -329.5q0 -209 112.5 -332t332.5 -123zM346 1372h557
v-92h-557v92z" />
    <glyph glyph-name="oslash.sc" horiz-adv-x="1247" 
d="M178 537q0 -187 88 -306l662 664q-116 96 -303 96q-219 0 -333 -123t-114 -331zM625 -20q-233 0 -377 122l-103 -102h-94v16l142 142q-123 148 -123 379q0 251 147 402t408 151q231 0 376 -123l101 104h90v-18l-139 -140q125 -143 125 -376q0 -165 -63 -290t-189.5 -196
t-300.5 -71zM623 80q220 0 333 124t113 333q0 188 -90 303l-660 -664q113 -96 304 -96z" />
    <glyph glyph-name="oslashacute.sc" horiz-adv-x="1247" 
d="M178 537q0 -187 88 -306l662 664q-116 96 -303 96q-219 0 -333 -123t-114 -331zM625 -20q-233 0 -377 122l-103 -102h-94v16l142 142q-123 148 -123 379q0 251 147 402t408 151q231 0 376 -123l101 104h90v-18l-139 -140q125 -143 125 -376q0 -165 -63 -290t-189.5 -196
t-300.5 -71zM514 1208l-29 58l469 274l50 -90zM623 80q220 0 333 124t113 333q0 188 -90 303l-660 -664q113 -96 304 -96z" />
    <glyph glyph-name="otilde.sc" horiz-adv-x="1247" 
d="M625 -20q-263 0 -409 152.5t-146 404.5q0 251 147 402t408 151t407 -151t146 -402q0 -252 -145 -404.5t-408 -152.5zM625 82q217 0 329.5 123t112.5 332q0 208 -112.5 330t-329.5 122q-218 0 -331.5 -122.5t-113.5 -329.5q0 -209 112.5 -332t332.5 -123zM479 1550
q46 0 83 -22.5t61 -55t45.5 -64.5t47 -54.5t54.5 -22.5q46 0 64.5 51t15.5 162h70q6 -49 6 -92q0 -104 -42 -158.5t-112 -54.5q-44 0 -79.5 23t-59.5 55.5t-46 64.5t-48 55t-56 23q-53 0 -71 -47t-15 -160h-71q-7 58 -7 88q0 103 43 156t117 53z" />
    <glyph glyph-name="oe.sc" horiz-adv-x="1673" 
d="M625 98h168v873h-168q-217 0 -331 -118t-114 -316q0 -201 113 -320t332 -119zM625 0q-263 0 -409 147.5t-146 389.5q0 241 147 387.5t408 146.5h911v-102h-633v-375h563v-94h-563v-400h631v-100h-909z" />
    <glyph glyph-name="racute.sc" horiz-adv-x="1103" 
d="M578 971h-318v-420h320q140 0 206 52t66 157q0 108 -61.5 159.5t-212.5 51.5zM903 0l-362 455h-281v-455h-110v1071h438q191 0 283 -81.5t92 -231.5q0 -127 -75.5 -204.5t-223.5 -94.5l362 -439v-20h-123zM408 1190l-29 57l469 275l49 -90z" />
    <glyph glyph-name="rcaron.sc" horiz-adv-x="1103" 
d="M578 971h-318v-420h320q140 0 206 52t66 157q0 108 -61.5 159.5t-212.5 51.5zM903 0l-362 455h-281v-455h-110v1071h438q191 0 283 -81.5t92 -231.5q0 -127 -75.5 -204.5t-223.5 -94.5l362 -439v-20h-123zM569 1200h-57l-262 279l49 49l242 -225l241 225l49 -49z" />
    <glyph glyph-name="rcommaaccent.sc" horiz-adv-x="1103" 
d="M553 -119h104l-120 -307h-78v18zM578 971h-318v-420h320q140 0 206 52t66 157q0 108 -61.5 159.5t-212.5 51.5zM903 0l-362 455h-281v-455h-110v1071h438q191 0 283 -81.5t92 -231.5q0 -127 -75.5 -204.5t-223.5 -94.5l362 -439v-20h-123z" />
    <glyph glyph-name="sacute.sc" horiz-adv-x="1036" 
d="M545 -20q-425 3 -479 364l106 23q25 -143 115.5 -216t259.5 -73q154 0 227.5 52t73.5 144q0 89 -73 139t-247 79q-221 38 -314 115t-93 198q0 131 100.5 208t290.5 77q126 0 212.5 -40.5t132.5 -108.5t71 -171l-109 -22q-33 128 -101 186.5t-210 58.5
q-138 0 -208.5 -47.5t-70.5 -134.5q0 -55 26.5 -93.5t100.5 -71.5t203 -56q115 -21 194 -51t123.5 -69.5t63 -84t18.5 -102.5q0 -142 -101 -222.5t-312 -80.5zM352 1210l-28 58l469 274l49 -90z" />
    <glyph glyph-name="scaron.sc" horiz-adv-x="1036" 
d="M545 -20q-425 3 -479 364l106 23q25 -143 115.5 -216t259.5 -73q154 0 227.5 52t73.5 144q0 89 -73 139t-247 79q-221 38 -314 115t-93 198q0 131 100.5 208t290.5 77q126 0 212.5 -40.5t132.5 -108.5t71 -171l-109 -22q-33 128 -101 186.5t-210 58.5
q-138 0 -208.5 -47.5t-70.5 -134.5q0 -55 26.5 -93.5t100.5 -71.5t203 -56q115 -21 194 -51t123.5 -69.5t63 -84t18.5 -102.5q0 -142 -101 -222.5t-312 -80.5zM541 1221h-58l-262 278l49 49l242 -225l242 225l49 -49z" />
    <glyph glyph-name="scedilla.sc" horiz-adv-x="1036" 
d="M545 -20q-31 0 -45 2l-37 -93q53 17 92 17q66 0 108 -26.5t42 -84.5q0 -51 -44.5 -95t-138.5 -44q-128 0 -207 61l43 64q77 -51 162 -51q53 0 79 19t26 48t-25.5 45.5t-69.5 16.5q-32 0 -90 -15l-51 25l45 119q-322 47 -368 356l106 23q25 -143 115.5 -216t259.5 -73
q154 0 227.5 52t73.5 144q0 89 -73 139t-247 79q-221 38 -314 115t-93 198q0 131 100.5 208t290.5 77q126 0 212.5 -40.5t132.5 -108.5t71 -171l-109 -22q-33 128 -101 186.5t-210 58.5q-138 0 -208.5 -47.5t-70.5 -134.5q0 -55 26.5 -93.5t100.5 -71.5t203 -56
q115 -21 194 -51t123.5 -69.5t63 -84t18.5 -102.5q0 -142 -101 -222.5t-312 -80.5z" />
    <glyph glyph-name="scircumflex.sc" horiz-adv-x="1036" 
d="M545 -20q-425 3 -479 364l106 23q25 -143 115.5 -216t259.5 -73q154 0 227.5 52t73.5 144q0 89 -73 139t-247 79q-221 38 -314 115t-93 198q0 131 100.5 208t290.5 77q126 0 212.5 -40.5t132.5 -108.5t71 -171l-109 -22q-33 128 -101 186.5t-210 58.5
q-138 0 -208.5 -47.5t-70.5 -134.5q0 -55 26.5 -93.5t100.5 -71.5t203 -56q115 -21 194 -51t123.5 -69.5t63 -84t18.5 -102.5q0 -142 -101 -222.5t-312 -80.5zM754 1208l-242 226l-244 -226l-47 49l262 279h58l262 -279z" />
    <glyph glyph-name="scommaaccent.sc" horiz-adv-x="1036" 
d="M545 -20q-425 3 -479 364l106 23q25 -143 115.5 -216t259.5 -73q154 0 227.5 52t73.5 144q0 89 -73 139t-247 79q-221 38 -314 115t-93 198q0 131 100.5 208t290.5 77q126 0 212.5 -40.5t132.5 -108.5t71 -171l-109 -22q-33 128 -101 186.5t-210 58.5
q-138 0 -208.5 -47.5t-70.5 -134.5q0 -55 26.5 -93.5t100.5 -71.5t203 -56q115 -21 194 -51t123.5 -69.5t63 -84t18.5 -102.5q0 -142 -101 -222.5t-312 -80.5zM498 -119h104l-121 -307h-78v18z" />
    <glyph glyph-name="tbar.sc" horiz-adv-x="956" 
d="M35 967v104h893v-104h-391v-418h280v-86h-280v-463h-111v463h-287v86h287v418h-391z" />
    <glyph glyph-name="tcaron.sc" horiz-adv-x="960" 
d="M928 967h-391v-967h-111v967h-391v104h893v-104zM510 1200h-57l-263 279l50 49l241 -225l242 225l49 -49z" />
    <glyph glyph-name="tcommaaccent.sc" horiz-adv-x="960" 
d="M35 967v104h893v-104h-391v-967h-54l-45 -111q53 17 92 17q66 0 108 -26.5t42 -84.5q0 -23 -9.5 -45.5t-29 -44.5t-57 -35.5t-86.5 -13.5q-128 0 -207 61l43 64q77 -51 162 -51q53 0 78.5 19t25.5 48t-25 45.5t-69 16.5q-32 0 -90 -15l-51 25l61 160v938h-391z" />
    <glyph glyph-name="uni021B.sc" horiz-adv-x="960" 
d="M35 967v104h893v-104h-391v-967h-111v967h-391zM467 -119h104l-120 -307h-78v18z" />
    <glyph glyph-name="thorn.sc" horiz-adv-x="1015" 
d="M150 1071h110v-197h315q375 0 375 -323q0 -152 -97 -239t-278 -87h-315v-225h-110v1071zM565 776h-305v-454h307q141 0 207 54.5t66 172.5q0 122 -61.5 174.5t-213.5 52.5z" />
    <glyph glyph-name="uacute.sc" horiz-adv-x="1189" 
d="M606 82q178 0 252 82.5t74 238.5v668h110v-672q0 -205 -111 -311t-325 -106q-218 0 -337 106t-119 311v672h110v-657q0 -157 79.5 -244.5t266.5 -87.5zM436 1190l-28 57l469 275l49 -90z" />
    <glyph glyph-name="ubreve.sc" horiz-adv-x="1189" 
d="M606 82q178 0 252 82.5t74 238.5v668h110v-672q0 -205 -111 -311t-325 -106q-218 0 -337 106t-119 311v672h110v-657q0 -157 79.5 -244.5t266.5 -87.5zM596 1296q86 0 140.5 49.5t60.5 161.5h75q0 -149 -74 -224t-202 -75t-202.5 75t-74.5 224h78q11 -211 199 -211z" />
    <glyph glyph-name="ucircumflex.sc" horiz-adv-x="1189" 
d="M606 82q178 0 252 82.5t74 238.5v668h110v-672q0 -205 -111 -311t-325 -106q-218 0 -337 106t-119 311v672h110v-657q0 -157 79.5 -244.5t266.5 -87.5zM838 1188l-242 225l-244 -225l-47 49l262 279h58l262 -279z" />
    <glyph glyph-name="udieresis.sc" horiz-adv-x="1189" 
d="M606 82q178 0 252 82.5t74 238.5v668h110v-672q0 -205 -111 -311t-325 -106q-218 0 -337 106t-119 311v672h110v-657q0 -157 79.5 -244.5t266.5 -87.5zM332 1401h151v-152h-151v152zM707 1401h151v-152h-151v152z" />
    <glyph glyph-name="ugrave.sc" horiz-adv-x="1189" 
d="M606 82q178 0 252 82.5t74 238.5v668h110v-672q0 -205 -111 -311t-325 -106q-218 0 -337 106t-119 311v672h110v-657q0 -157 79.5 -244.5t266.5 -87.5zM766 1190l-492 240l54 94l467 -277z" />
    <glyph glyph-name="uhungarumlaut.sc" horiz-adv-x="1189" 
d="M606 82q178 0 252 82.5t74 238.5v668h110v-672q0 -205 -111 -311t-325 -106q-218 0 -337 106t-119 311v672h110v-657q0 -157 79.5 -244.5t266.5 -87.5zM442 1186l-59 37l186 331l95 -61zM705 1188l-58 41l201 323l92 -63z" />
    <glyph glyph-name="umacron.sc" horiz-adv-x="1189" 
d="M606 82q178 0 252 82.5t74 238.5v668h110v-672q0 -205 -111 -311t-325 -106q-218 0 -337 106t-119 311v672h110v-657q0 -157 79.5 -244.5t266.5 -87.5zM317 1352h557v-92h-557v92z" />
    <glyph glyph-name="uogonek.sc" horiz-adv-x="1189" 
d="M606 82q178 0 252 82.5t74 238.5v668h110v-672q0 -187 -91.5 -291.5t-270.5 -121.5q-97 -25 -142.5 -59t-45.5 -81q0 -84 141 -84q29 0 110 15l7 -96q-73 -13 -125 -13q-112 0 -165.5 39.5t-53.5 108.5q0 110 155 168q-197 9 -304 115t-107 300v672h110v-657
q0 -157 79.5 -244.5t266.5 -87.5z" />
    <glyph glyph-name="uring.sc" horiz-adv-x="1189" 
d="M606 82q178 0 252 82.5t74 238.5v668h110v-672q0 -205 -111 -311t-325 -106q-218 0 -337 106t-119 311v672h110v-657q0 -157 79.5 -244.5t266.5 -87.5zM817 1407q0 -100 -60 -159.5t-161 -59.5q-102 0 -162.5 59t-60.5 158q0 100 60.5 159.5t162.5 59.5q101 0 161 -59
t60 -158zM459 1405q0 -65 36.5 -101t100.5 -36t100.5 36t36.5 103q0 65 -36.5 101t-100.5 36t-100.5 -36t-36.5 -103z" />
    <glyph glyph-name="utilde.sc" horiz-adv-x="1189" 
d="M606 82q178 0 252 82.5t74 238.5v668h110v-672q0 -205 -111 -311t-325 -106q-218 0 -337 106t-119 311v672h110v-657q0 -157 79.5 -244.5t266.5 -87.5zM453 1530q46 0 83 -22.5t61 -55t45 -64.5t46.5 -54.5t54.5 -22.5q46 0 64.5 51t15.5 162h70q6 -49 6 -92
q0 -104 -42 -158.5t-112 -54.5q-44 0 -79.5 23t-59.5 55.5t-45.5 64.5t-47.5 55t-56 23q-53 0 -71 -47t-15 -160h-72q-6 50 -6 88q0 103 43 156t117 53z" />
    <glyph glyph-name="wacute.sc" horiz-adv-x="1574" 
d="M633 446l-131 -446h-172l-314 1071h123l146 -536q73 -290 106 -435h58q65 281 108 432l160 539h147l160 -539q55 -193 109 -432h53q33 153 108 435l146 536h116l-311 -1071h-172l-133 446q-95 333 -133 517h-39q-48 -212 -135 -517zM629 1190l-29 57l469 275l49 -90z" />
    <glyph glyph-name="wcircumflex.sc" horiz-adv-x="1574" 
d="M633 446l-131 -446h-172l-314 1071h123l146 -536q73 -290 106 -435h58q65 281 108 432l160 539h147l160 -539q55 -193 109 -432h53q33 153 108 435l146 536h116l-311 -1071h-172l-133 446q-95 333 -133 517h-39q-48 -212 -135 -517zM1030 1188l-242 225l-243 -225l-47 49
l262 279h57l262 -279z" />
    <glyph glyph-name="wdieresis.sc" horiz-adv-x="1574" 
d="M633 446l-131 -446h-172l-314 1071h123l146 -536q73 -290 106 -435h58q65 281 108 432l160 539h147l160 -539q55 -193 109 -432h53q33 153 108 435l146 536h116l-311 -1071h-172l-133 446q-95 333 -133 517h-39q-48 -212 -135 -517zM524 1401h152v-152h-152v152z
M899 1401h152v-152h-152v152z" />
    <glyph glyph-name="wgrave.sc" horiz-adv-x="1574" 
d="M633 446l-131 -446h-172l-314 1071h123l146 -536q73 -290 106 -435h58q65 281 108 432l160 539h147l160 -539q55 -193 109 -432h53q33 153 108 435l146 536h116l-311 -1071h-172l-133 446q-95 333 -133 517h-39q-48 -212 -135 -517zM958 1190l-491 240l53 94l467 -277z
" />
    <glyph glyph-name="yacute.sc" horiz-adv-x="993" 
d="M553 0h-111v377l-440 674v20h115l368 -604h27l367 604h112v-20l-438 -678v-373zM338 1190l-29 57l469 275l49 -90z" />
    <glyph glyph-name="ycircumflex.sc" horiz-adv-x="993" 
d="M553 0h-111v377l-440 674v20h115l368 -604h27l367 604h112v-20l-438 -678v-373zM739 1188l-241 225l-244 -225l-47 49l262 279h57l262 -279z" />
    <glyph glyph-name="ydieresis.sc" horiz-adv-x="993" 
d="M553 0h-111v377l-440 674v20h115l368 -604h27l367 604h112v-20l-438 -678v-373zM233 1401h152v-152h-152v152zM608 1401h152v-152h-152v152z" />
    <glyph glyph-name="zacute.sc" horiz-adv-x="1056" 
d="M965 102v-102h-893v102l757 873l-6 12q-212 -20 -409 -20h-318v104h869v-98l-764 -877l6 -14q242 20 446 20h312zM360 1190l-28 57l469 275l49 -90z" />
    <glyph glyph-name="zcaron.sc" horiz-adv-x="1056" 
d="M965 102v-102h-893v102l757 873l-6 12q-212 -20 -409 -20h-318v104h869v-98l-764 -877l6 -14q242 20 446 20h312zM547 1200h-58l-262 279l49 49l242 -225l242 225l49 -49z" />
    <glyph glyph-name="zdotaccent.sc" horiz-adv-x="1056" 
d="M965 102v-102h-893v102l757 873l-6 12q-212 -20 -409 -20h-318v104h869v-98l-764 -877l6 -14q242 20 446 20h312zM440 1427h158v-153h-158v153z" />
    <glyph glyph-name="germandbls.sc" horiz-adv-x="1196" 
d="M797 -20q-262 0 -389 204l75 68q107 -172 312 -172q108 0 162.5 43.5t54.5 126.5q0 78 -55 119.5t-160 72.5q-61 19 -104 38.5t-82.5 47.5t-60 67.5t-20.5 88.5q0 98 85.5 171t218.5 118l-7 18q-160 -16 -286 -16q-281 0 -281 -313v-662h-110v674q0 193 102 295t299 102
h405v-98q-172 -77 -245.5 -138t-73.5 -128q0 -65 49 -101.5t150 -68.5q143 -46 213.5 -111.5t70.5 -175.5q0 -117 -79.5 -193.5t-243.5 -76.5z" />
    <glyph glyph-name="a.alt" horiz-adv-x="1095" 
d="M502 78q155 0 247.5 97t92.5 261v72q0 162 -93 262t-247 100q-316 0 -316 -397q0 -201 78 -298t238 -97zM76 473q0 239 103 368.5t290 127.5q150 1 238.5 -75.5t123.5 -207.5h11v262h108v-948h-108v258h-8q-37 -126 -132 -203.5t-237 -77.5q-187 0 -288 129t-101 367z
" />
    <glyph glyph-name="aacute.alt" horiz-adv-x="1095" 
d="M379 1077l-29 58l469 274l49 -90zM502 78q155 0 247.5 97t92.5 261v72q0 162 -93 262t-247 100q-316 0 -316 -397q0 -201 78 -298t238 -97zM76 473q0 239 103 368.5t290 127.5q150 1 238.5 -75.5t123.5 -207.5h11v262h108v-948h-108v258h-8q-37 -126 -132 -203.5
t-237 -77.5q-187 0 -288 129t-101 367z" />
    <glyph glyph-name="abreve.alt" horiz-adv-x="1095" 
d="M526 1184q86 0 140.5 49.5t60.5 161.5h76q0 -149 -74.5 -224t-202.5 -75t-202 75t-74 224h78q11 -211 198 -211zM502 78q155 0 247.5 97t92.5 261v72q0 162 -93 262t-247 100q-316 0 -316 -397q0 -201 78 -298t238 -97zM76 473q0 239 103 368.5t290 127.5
q150 1 238.5 -75.5t123.5 -207.5h11v262h108v-948h-108v258h-8q-37 -126 -132 -203.5t-237 -77.5q-187 0 -288 129t-101 367z" />
    <glyph glyph-name="acircumflex.alt" horiz-adv-x="1095" 
d="M766 1075l-242 225l-243 -225l-48 49l263 279h57l262 -279zM502 78q155 0 247.5 97t92.5 261v72q0 162 -93 262t-247 100q-316 0 -316 -397q0 -201 78 -298t238 -97zM76 473q0 239 103 368.5t290 127.5q150 1 238.5 -75.5t123.5 -207.5h11v262h108v-948h-108v258h-8
q-37 -126 -132 -203.5t-237 -77.5q-187 0 -288 129t-101 367z" />
    <glyph glyph-name="adieresis.alt" horiz-adv-x="1095" 
d="M258 1288h152v-151h-152v151zM633 1288h151v-151h-151v151zM502 78q155 0 247.5 97t92.5 261v72q0 162 -93 262t-247 100q-316 0 -316 -397q0 -201 78 -298t238 -97zM76 473q0 239 103 368.5t290 127.5q150 1 238.5 -75.5t123.5 -207.5h11v262h108v-948h-108v258h-8
q-37 -126 -132 -203.5t-237 -77.5q-187 0 -288 129t-101 367z" />
    <glyph glyph-name="agrave.alt" horiz-adv-x="1095" 
d="M705 1077l-492 240l53 94l467 -276zM502 78q155 0 247.5 97t92.5 261v72q0 162 -93 262t-247 100q-316 0 -316 -397q0 -201 78 -298t238 -97zM76 473q0 239 103 368.5t290 127.5q150 1 238.5 -75.5t123.5 -207.5h11v262h108v-948h-108v258h-8q-37 -126 -132 -203.5
t-237 -77.5q-187 0 -288 129t-101 367z" />
    <glyph glyph-name="amacron.alt" horiz-adv-x="1095" 
d="M248 1239h557v-92h-557v92zM502 78q155 0 247.5 97t92.5 261v72q0 162 -93 262t-247 100q-316 0 -316 -397q0 -201 78 -298t238 -97zM76 473q0 239 103 368.5t290 127.5q150 1 238.5 -75.5t123.5 -207.5h11v262h108v-948h-108v258h-8q-37 -126 -132 -203.5t-237 -77.5
q-187 0 -288 129t-101 367z" />
    <glyph glyph-name="aogonek.alt" horiz-adv-x="1095" 
d="M502 78q155 0 247.5 97t92.5 261v72q0 162 -93 262t-247 100q-316 0 -316 -397q0 -201 78 -298t238 -97zM76 473q0 239 103 368.5t290 127.5q150 1 238.5 -75.5t123.5 -207.5h11v262h108v-946l2 -2q-132 -27 -193 -63t-61 -91q0 -84 142 -84q29 0 110 15l6 -96
q-73 -13 -125 -13q-112 0 -165.5 39.5t-53.5 108.5q0 133 230 188v254h-8q-37 -126 -132 -203.5t-237 -77.5q-187 0 -288 129t-101 367z" />
    <glyph glyph-name="aring.alt" horiz-adv-x="1095" 
d="M385 1290q0 -65 36.5 -101t100.5 -36t100.5 36t36.5 103q0 65 -36.5 101.5t-100.5 36.5t-100.5 -36.5t-36.5 -103.5zM743 1292q0 -100 -60 -159.5t-161 -59.5q-102 0 -162.5 59t-60.5 158q0 100 60.5 159.5t162.5 59.5q101 0 161 -59t60 -158zM502 78q155 0 247.5 97
t92.5 261v72q0 162 -93 262t-247 100q-316 0 -316 -397q0 -201 78 -298t238 -97zM76 473q0 239 103 368.5t290 127.5q150 1 238.5 -75.5t123.5 -207.5h11v262h108v-948h-108v258h-8q-37 -126 -132 -203.5t-237 -77.5q-187 0 -288 129t-101 367z" />
    <glyph glyph-name="aringacute.alt" horiz-adv-x="1095" 
d="M362 1501l-22 80l504 137l24 -94zM397 1249q0 -58 32 -90.5t87 -32.5q56 0 87.5 32.5t31.5 90.5t-31.5 90.5t-87.5 32.5q-55 0 -87 -32.5t-32 -90.5zM721 1249q0 -91 -55.5 -144.5t-149.5 -53.5t-148.5 53.5t-54.5 144.5t55 146t148 55t149 -55t56 -146zM502 78
q155 0 247.5 97t92.5 261v72q0 162 -93 262t-247 100q-316 0 -316 -397q0 -201 78 -298t238 -97zM76 473q0 239 103 368.5t290 127.5q150 1 238.5 -75.5t123.5 -207.5h11v262h108v-948h-108v258h-8q-37 -126 -132 -203.5t-237 -77.5q-187 0 -288 129t-101 367z" />
    <glyph glyph-name="atilde.alt" horiz-adv-x="1095" 
d="M379 1417q46 0 83 -22.5t61 -54.5t45.5 -64.5t47 -55t54.5 -22.5q46 0 64.5 51t15.5 162h69q6 -50 6 -92q0 -104 -41.5 -158.5t-111.5 -54.5q-44 0 -79.5 23t-59.5 55t-46 64.5t-48 55.5t-56 23q-53 0 -71 -47t-15 -160h-72q-6 50 -6 88q0 103 43 156t117 53zM502 78
q155 0 247.5 97t92.5 261v72q0 162 -93 262t-247 100q-316 0 -316 -397q0 -201 78 -298t238 -97zM76 473q0 239 103 368.5t290 127.5q150 1 238.5 -75.5t123.5 -207.5h11v262h108v-948h-108v258h-8q-37 -126 -132 -203.5t-237 -77.5q-187 0 -288 129t-101 367z" />
    <glyph glyph-name="G.alt" horiz-adv-x="1280" 
d="M1204 514q0 -91 -18.5 -169.5t-60 -146.5t-103.5 -116t-153.5 -75t-204.5 -27q-283 0 -439.5 159t-156.5 461q0 194 63.5 338.5t196.5 227.5t323 83q228 0 365 -118t176 -330l-107 -25q-41 189 -147 280t-285 91q-124 0 -215.5 -39t-147 -112t-82 -171.5t-26.5 -224.5
q0 -246 119 -382t365 -136q428 0 428 422h-437v102h547v-92z" />
    <glyph glyph-name="Gbreve.alt" horiz-adv-x="1280" 
d="M1204 514q0 -91 -18.5 -169.5t-60 -146.5t-103.5 -116t-153.5 -75t-204.5 -27q-283 0 -439.5 159t-156.5 461q0 194 63.5 338.5t196.5 227.5t323 83q228 0 365 -118t176 -330l-107 -25q-41 189 -147 280t-285 91q-124 0 -215.5 -39t-147 -112t-82 -171.5t-26.5 -224.5
q0 -246 119 -382t365 -136q428 0 428 422h-437v102h547v-92zM647 1434q190 0 201 180h76q0 -137 -75.5 -205t-201.5 -68t-201 68t-75 205h75q13 -180 201 -180z" />
    <glyph glyph-name="Gcircumflex.alt" horiz-adv-x="1280" 
d="M1204 514q0 -91 -18.5 -169.5t-60 -146.5t-103.5 -116t-153.5 -75t-204.5 -27q-283 0 -439.5 159t-156.5 461q0 194 63.5 338.5t196.5 227.5t323 83q228 0 365 -118t176 -330l-107 -25q-41 189 -147 280t-285 91q-124 0 -215.5 -39t-147 -112t-82 -171.5t-26.5 -224.5
q0 -246 119 -382t365 -136q428 0 428 422h-437v102h547v-92zM895 1335l-246 183l-246 -183l-43 54l261 227h57l260 -227z" />
    <glyph glyph-name="Gcommaaccent.alt" horiz-adv-x="1280" 
d="M1204 514q0 -91 -18.5 -169.5t-60 -146.5t-103.5 -116t-153.5 -75t-204.5 -27q-283 0 -439.5 159t-156.5 461q0 194 63.5 338.5t196.5 227.5t323 83q228 0 365 -118t176 -330l-107 -25q-41 189 -147 280t-285 91q-124 0 -215.5 -39t-147 -112t-82 -171.5t-26.5 -224.5
q0 -246 119 -382t365 -136q428 0 428 422h-437v102h547v-92zM635 -119h104l-121 -307h-77v18z" />
    <glyph glyph-name="Gdotaccent.alt" horiz-adv-x="1280" 
d="M1204 514q0 -91 -18.5 -169.5t-60 -146.5t-103.5 -116t-153.5 -75t-204.5 -27q-283 0 -439.5 159t-156.5 461q0 194 63.5 338.5t196.5 227.5t323 83q228 0 365 -118t176 -330l-107 -25q-41 189 -147 280t-285 91q-124 0 -215.5 -39t-147 -112t-82 -171.5t-26.5 -224.5
q0 -246 119 -382t365 -136q428 0 428 422h-437v102h547v-92zM569 1567h158v-154h-158v154z" />
    <glyph glyph-name="g.sc.alt" horiz-adv-x="1198" 
d="M1008 438h-387v92h491v-84q0 -100 -29 -182.5t-88.5 -147t-159 -100.5t-231.5 -36q-257 0 -397.5 142.5t-140.5 414.5q0 253 136.5 403t395.5 150q214 0 340.5 -103.5t161.5 -290.5l-105 -22q-37 159 -134 236t-259 77q-111 0 -193.5 -32t-132.5 -92t-74 -141t-24 -185
q0 -217 105 -336t325 -119q400 0 400 356z" />
    <glyph glyph-name="gbreve.sc.alt" horiz-adv-x="1198" 
d="M1008 438h-387v92h491v-84q0 -100 -29 -182.5t-88.5 -147t-159 -100.5t-231.5 -36q-257 0 -397.5 142.5t-140.5 414.5q0 253 136.5 403t395.5 150q214 0 340.5 -103.5t161.5 -290.5l-105 -22q-37 159 -134 236t-259 77q-111 0 -193.5 -32t-132.5 -92t-74 -141t-24 -185
q0 -217 105 -336t325 -119q400 0 400 356zM596 1317q86 0 140.5 49.5t60.5 161.5h75q0 -149 -74 -224t-202 -75t-202.5 75t-74.5 224h78q11 -211 199 -211z" />
    <glyph glyph-name="gcircumflex.sc.alt" horiz-adv-x="1198" 
d="M1008 438h-387v92h491v-84q0 -100 -29 -182.5t-88.5 -147t-159 -100.5t-231.5 -36q-257 0 -397.5 142.5t-140.5 414.5q0 253 136.5 403t395.5 150q214 0 340.5 -103.5t161.5 -290.5l-105 -22q-37 159 -134 236t-259 77q-111 0 -193.5 -32t-132.5 -92t-74 -141t-24 -185
q0 -217 105 -336t325 -119q400 0 400 356zM836 1208l-242 226l-244 -226l-47 49l262 279h58l262 -279z" />
    <glyph glyph-name="gcommaaccent.sc.alt" horiz-adv-x="1198" 
d="M1008 438h-387v92h491v-84q0 -100 -29 -182.5t-88.5 -147t-159 -100.5t-231.5 -36q-257 0 -397.5 142.5t-140.5 414.5q0 253 136.5 403t395.5 150q214 0 340.5 -103.5t161.5 -290.5l-105 -22q-37 159 -134 236t-259 77q-111 0 -193.5 -32t-132.5 -92t-74 -141t-24 -185
q0 -217 105 -336t325 -119q400 0 400 356zM584 -119h104l-121 -307h-78v18z" />
    <glyph glyph-name="gdotaccent.sc.alt" horiz-adv-x="1198" 
d="M1008 438h-387v92h491v-84q0 -100 -29 -182.5t-88.5 -147t-159 -100.5t-231.5 -36q-257 0 -397.5 142.5t-140.5 414.5q0 253 136.5 403t395.5 150q214 0 340.5 -103.5t161.5 -290.5l-105 -22q-37 159 -134 236t-259 77q-111 0 -193.5 -32t-132.5 -92t-74 -141t-24 -185
q0 -217 105 -336t325 -119q400 0 400 356zM512 1448h158v-154h-158v154z" />
    <glyph glyph-name="g.alt" horiz-adv-x="1095" 
d="M502 147q155 0 247.5 89.5t92.5 240.5v33q0 161 -93 260.5t-247 99.5q-316 0 -316 -362q0 -183 78 -272t238 -89zM76 508q0 222 103 342.5t290 118.5q150 1 238.5 -75.5t123.5 -207.5h11v262h108v-842q0 -440 -440 -440q-185 0 -295 72t-141 211l106 28q53 -215 330 -215
q95 0 161 23.5t103 70.5t52.5 107.5t15.5 142.5v193h-13q-40 -112 -133.5 -180t-230.5 -68q-188 0 -288.5 118t-100.5 339z" />
    <glyph glyph-name="gbreve.alt" horiz-adv-x="1095" 
d="M522 1184q86 0 140.5 49.5t60.5 161.5h76q0 -149 -74.5 -224t-202.5 -75t-202 75t-74 224h78q11 -211 198 -211zM502 147q155 0 247.5 89.5t92.5 240.5v33q0 161 -93 260.5t-247 99.5q-316 0 -316 -362q0 -183 78 -272t238 -89zM76 508q0 222 103 342.5t290 118.5
q150 1 238.5 -75.5t123.5 -207.5h11v262h108v-842q0 -440 -440 -440q-185 0 -295 72t-141 211l106 28q53 -215 330 -215q95 0 161 23.5t103 70.5t52.5 107.5t15.5 142.5v193h-13q-40 -112 -133.5 -180t-230.5 -68q-188 0 -288.5 118t-100.5 339z" />
    <glyph glyph-name="gcircumflex.alt" horiz-adv-x="1095" 
d="M758 1075l-242 225l-244 -225l-47 49l262 279h58l262 -279zM502 147q155 0 247.5 89.5t92.5 240.5v33q0 161 -93 260.5t-247 99.5q-316 0 -316 -362q0 -183 78 -272t238 -89zM76 508q0 222 103 342.5t290 118.5q150 1 238.5 -75.5t123.5 -207.5h11v262h108v-842
q0 -440 -440 -440q-185 0 -295 72t-141 211l106 28q53 -215 330 -215q95 0 161 23.5t103 70.5t52.5 107.5t15.5 142.5v193h-13q-40 -112 -133.5 -180t-230.5 -68q-188 0 -288.5 118t-100.5 339z" />
    <glyph glyph-name="gcommaaccent.alt" horiz-adv-x="1095" 
d="M547 1122h-105l123 308h76v-19zM502 147q155 0 247.5 89.5t92.5 240.5v33q0 161 -93 260.5t-247 99.5q-316 0 -316 -362q0 -183 78 -272t238 -89zM76 508q0 222 103 342.5t290 118.5q150 1 238.5 -75.5t123.5 -207.5h11v262h108v-842q0 -440 -440 -440q-185 0 -295 72
t-141 211l106 28q53 -215 330 -215q95 0 161 23.5t103 70.5t52.5 107.5t15.5 142.5v193h-13q-40 -112 -133.5 -180t-230.5 -68q-188 0 -288.5 118t-100.5 339z" />
    <glyph glyph-name="gdotaccent.alt" horiz-adv-x="1095" 
d="M446 1315h158v-154h-158v154zM502 147q155 0 247.5 89.5t92.5 240.5v33q0 161 -93 260.5t-247 99.5q-316 0 -316 -362q0 -183 78 -272t238 -89zM76 508q0 222 103 342.5t290 118.5q150 1 238.5 -75.5t123.5 -207.5h11v262h108v-842q0 -440 -440 -440q-185 0 -295 72
t-141 211l106 28q53 -215 330 -215q95 0 161 23.5t103 70.5t52.5 107.5t15.5 142.5v193h-13q-40 -112 -133.5 -180t-230.5 -68q-188 0 -288.5 118t-100.5 339z" />
    <glyph glyph-name="t.alt" horiz-adv-x="612" 
d="M317 0h-108v850h-164v98h164v281h108v-281h250v-98h-250v-850z" />
    <glyph glyph-name="tbar.alt" horiz-adv-x="612" 
d="M317 0h-108v436h-141v88h141v326h-164v98h164v281h108v-281h250v-98h-250v-326h220v-88h-220v-436z" />
    <glyph glyph-name="tcaron.alt" horiz-adv-x="616" 
d="M487 1376h101l-37 -332h-70zM317 0h-108v850h-164v98h164v281h108v-281h250v-98h-250v-850z" />
    <glyph glyph-name="tcommaaccent.alt" horiz-adv-x="612" 
d="M317 0h-43l-45 -111q53 17 93 17q66 0 107.5 -26.5t41.5 -84.5q0 -23 -9.5 -45.5t-29 -44.5t-57 -35.5t-86.5 -13.5q-128 0 -207 61l43 64q77 -51 162 -51q53 0 78.5 19t25.5 48t-25 45.5t-69 16.5q-33 0 -90 -15l-51 25l53 139v842h-164v98h164v281h108v-281h250v-98
h-250v-850z" />
    <glyph glyph-name="uni021B.alt" horiz-adv-x="612" 
d="M317 0h-108v850h-164v98h164v281h108v-281h250v-98h-250v-850zM238 -119h104l-121 -307h-78v18z" />
    <glyph glyph-name="zero.sc" horiz-adv-x="1069" 
d="M535 991q-176 0 -265.5 -122t-89.5 -332t89 -333.5t266 -123.5q178 0 266 123.5t88 333.5q0 211 -88.5 332.5t-265.5 121.5zM535 1090q223 0 343.5 -150t120.5 -403q0 -167 -51 -291t-157 -195t-256 -71q-224 0 -344.5 151.5t-120.5 405.5q0 253 121 403t344 150z" />
    <glyph glyph-name="one.sc" horiz-adv-x="868" 
d="M793 0h-703v98h336v875q-120 -55 -311 -127l-37 96l391 129h66v-973h258v-98z" />
    <glyph glyph-name="two.sc" horiz-adv-x="1062" 
d="M573 993q-150 0 -235 -80.5t-111 -248.5l-104 16q66 410 450 410q186 0 284.5 -80t98.5 -230q0 -74 -27.5 -130.5t-85 -99t-127.5 -73t-173 -61.5q-211 -62 -282.5 -129.5t-74.5 -208.5q265 20 406 20h387v-98h-891v74q0 91 22.5 157t73.5 115t122.5 83.5t180.5 66.5
q196 58 277.5 122t81.5 166q0 96 -67 152.5t-206 56.5z" />
    <glyph glyph-name="three.sc" horiz-adv-x="1048" 
d="M555 -18q-416 0 -485 364l108 16q28 -143 118.5 -214.5t258.5 -71.5q149 0 229 57.5t80 161.5q0 105 -63.5 152t-233.5 47h-190v90h184q110 0 181 50t71 152q0 110 -63.5 158.5t-198.5 48.5q-138 0 -213.5 -64t-104.5 -190l-102 17q29 158 132 246t288 88q369 0 369 -283
q0 -202 -232 -256v-19q160 -13 223.5 -70.5t63.5 -174.5q0 -144 -103.5 -224.5t-316.5 -80.5z" />
    <glyph glyph-name="four.sc" 
d="M1044 268h-186v-268h-108v268h-699v90l686 713h121v-709h186v-94zM526 362h224v588l-11 2l-567 -590l10 -16q184 16 344 16z" />
    <glyph glyph-name="five.sc" horiz-adv-x="1075" 
d="M559 76q154 0 229.5 61t75.5 189q0 115 -74.5 170t-230.5 55q-88 0 -172 -21.5t-131 -52.5l-94 35v559h749v-106q-359 0 -649 16v-428q132 86 320 86q191 0 292 -79t101 -234q0 -173 -110.5 -258.5t-309.5 -85.5q-183 0 -300.5 73.5t-186.5 233.5l104 35
q54 -121 146.5 -184.5t240.5 -63.5z" />
    <glyph glyph-name="six.sc" horiz-adv-x="1064" 
d="M573 571q-179 0 -275.5 -72t-96.5 -173q0 -106 92 -177t254 -71q315 0 315 268q0 225 -289 225zM973 344q0 -169 -110.5 -265.5t-321.5 -96.5q-85 0 -154 17t-127.5 56t-98 99t-61.5 150t-22 206q0 129 26 231.5t80.5 182.5t147.5 123t219 43q189 0 279.5 -82t121.5 -250
l-104 -17q-29 130 -96.5 191t-200.5 61q-191 0 -282 -123t-91 -372q0 -49 2 -86l19 -2q67 245 399 245q79 0 145 -17.5t118.5 -54t82 -97.5t29.5 -142z" />
    <glyph glyph-name="seven.sc" horiz-adv-x="970" 
d="M29 967v104h921v-102q-426 -398 -477 -969h-119q24 264 150.5 522.5t335.5 458.5q-175 -14 -414 -14h-397z" />
    <glyph glyph-name="eight.sc" horiz-adv-x="1048" 
d="M524 -18q-450 0 -450 294q0 221 313 254v21q-261 49 -258 256q2 131 100 207t295 76t295.5 -76t98.5 -207q0 -208 -256 -256v-21q313 -33 313 -254q0 -294 -451 -294zM524 494q-79 0 -140 -12.5t-98 -32.5t-60.5 -48t-32.5 -56.5t-9 -61.5q0 -99 85.5 -153t254.5 -54
q170 0 255 54t85 153q0 42 -15 76.5t-50.5 66.5t-105.5 50t-169 18zM524 993q-284 0 -284 -205q-1 -104 76.5 -155t207.5 -53q131 2 209 53t78 155q0 205 -287 205z" />
    <glyph glyph-name="nine.sc" horiz-adv-x="1071" 
d="M496 502q174 0 269 70.5t95 170.5q0 107 -90 178.5t-250 71.5t-235.5 -71.5t-75.5 -192.5q0 -115 74.5 -171t212.5 -56zM520 -18q-198 0 -303 82t-135 241l106 21q48 -248 332 -248q186 0 275.5 122t89.5 371q0 49 -2 84l-21 2q-33 -114 -130.5 -176.5t-258.5 -62.5
q-79 0 -145 17.5t-118.5 54t-82 98t-29.5 143.5q0 164 110 261.5t316 97.5q461 0 461 -529q0 -129 -25.5 -232t-79.5 -182t-145 -122t-215 -43z" />
    <glyph glyph-name="periodcentered.sc" horiz-adv-x="391" 
d="M111 616h168v-167h-168v167z" />
    <glyph glyph-name="bullet.sc" horiz-adv-x="522" 
d="M127 686h264v-264h-264v264z" />
    <glyph glyph-name="ampersand.sc" horiz-adv-x="1282" 
d="M385 799q0 -87 45 -193q170 42 251 102.5t81 149.5q0 143 -168 143q-96 0 -152.5 -52t-56.5 -150zM1214 92l3 -96q-44 -8 -95 -8q-186 0 -362 108q-67 -53 -159 -83.5t-195 -30.5q-157 0 -247.5 72.5t-90.5 207.5q0 118 68.5 191.5t199.5 121.5q-55 126 -55 224
q0 140 89 215.5t224 75.5q134 0 202 -63t68 -163q0 -57 -26 -104.5t-64.5 -79.5t-96 -59t-107.5 -42.5t-111 -29.5q54 -102 139.5 -194.5t189.5 -157.5q198 195 234 446l98 -12q-13 -133 -87 -255.5t-187 -211.5q139 -74 280 -74q61 0 88 2zM428 74q143 0 266 63
q-104 74 -190 175t-142 208q-192 -69 -192 -246q0 -93 68.5 -146.5t189.5 -53.5z" />
    <glyph glyph-name="hyphen.sc" horiz-adv-x="716" 
d="M49 592h619v-109h-619v109z" />
    <glyph glyph-name="endash.sc" horiz-adv-x="974" 
d="M49 592h877v-103h-877v103z" />
    <glyph glyph-name="emdash.sc" horiz-adv-x="1761" 
d="M49 592h1663v-103h-1663v103z" />
    <glyph glyph-name="parenleft.sc" horiz-adv-x="616" 
d="M240 528q0 -230 79.5 -416.5t264.5 -361.5l-62 -59q-206 178 -299.5 385t-93.5 452q0 495 383 828l63 -60q-181 -168 -258 -354.5t-77 -413.5z" />
    <glyph glyph-name="parenright.sc" horiz-adv-x="616" 
d="M375 526q0 230 -79.5 416t-264.5 363l63 59q205 -178 298 -385.5t93 -452.5q0 -243 -90.5 -448t-292.5 -379l-61 59q181 168 257.5 354t76.5 414z" />
    <glyph glyph-name="bracketleft.sc" horiz-adv-x="542" 
d="M145 -266v1575h351v-92h-242v-1391h242v-92h-351z" />
    <glyph glyph-name="bracketright.sc" horiz-adv-x="542" 
d="M49 -260v92h240v1391h-240v92h350v-1575h-350z" />
    <glyph glyph-name="braceleft.sc" horiz-adv-x="692" 
d="M643 -262q-105 -6 -129 -6q-144 0 -215.5 59.5t-71.5 157.5q1 52 25.5 106.5t54 94t54 89t24.5 91.5q0 78 -51.5 114.5t-161.5 36.5h-127v97h127q94 0 154.5 37t60.5 112q0 42 -23.5 92t-51 89.5t-51 94.5t-23.5 107q-2 98 69 157.5t215 59.5q24 0 129 -6v-88
q-43 2 -116 2q-104 0 -147.5 -32.5t-43.5 -102.5q0 -40 21 -87.5t46.5 -85.5t46.5 -90t21 -100q0 -87 -58 -134.5t-177 -65.5v-15q125 -12 180 -58.5t55 -139.5q0 -48 -22.5 -100t-49 -90t-49 -86t-22.5 -89q0 -70 42.5 -101.5t147.5 -31.5q74 0 117 2v-90z" />
    <glyph glyph-name="braceright.sc" horiz-adv-x="692" 
d="M170 -270q-24 0 -129 6v90q43 -2 117 -2q105 0 147.5 31.5t42.5 101.5q0 41 -21 88.5t-46.5 85.5t-46.5 90t-21 101q0 87 58.5 133.5t177.5 64.5v15q-126 14 -181 60t-55 138q0 49 22.5 101.5t49 90.5t49 85.5t22.5 87.5q0 70 -43 102.5t-147 32.5q-74 0 -117 -2v90
q14 0 53 2t76 2q144 0 215.5 -59.5t71.5 -157.5q-1 -42 -17.5 -85t-39.5 -79t-46 -71t-39 -73t-16 -73q0 -77 52 -114.5t161 -37.5h127v-94h-127q-94 0 -154.5 -37t-60.5 -112q0 -43 23.5 -93t51.5 -89.5t51.5 -95t23.5 -107.5q2 -97 -69.5 -157t-215.5 -60z" />
    <glyph glyph-name="dollar.sc" horiz-adv-x="1032" 
d="M485 1274h99l-6 -197q152 -14 234 -92t116 -215l-109 -22q-22 83 -55 132t-96 77t-160 28q-138 0 -209.5 -47.5t-71.5 -132.5q0 -80 71.5 -130.5t260.5 -84.5q115 -21 194 -51t123.5 -69t63 -83t18.5 -100q0 -133 -93 -211t-287 -84l6 -213h-99l7 215q-376 23 -426 350
l106 23q25 -140 115 -210.5t258 -70.5q155 0 229 51t74 142q0 88 -72.5 136t-247.5 77q-221 38 -314 113.5t-93 195.5q0 125 95.5 199.5t275.5 78.5z" />
    <glyph glyph-name="sterling.sc" horiz-adv-x="1030" 
d="M958 0h-878v96h194q25 82 25 187q0 58 -16 127h-199v90h174q-47 176 -47 278q0 145 86.5 228.5t255.5 83.5q91 0 159 -25.5t110.5 -75t67 -108t40.5 -138.5l-101 -18q-32 139 -93.5 202.5t-182.5 63.5q-123 0 -178.5 -60t-55.5 -157q0 -95 48 -274h438v-90h-418
q12 -56 12 -107q0 -117 -41 -207h600v-96z" />
    <glyph glyph-name="yen.sc" horiz-adv-x="1052" 
d="M979 315h-397v-315h-111v315h-397v84h383l-105 160h-278v84h223l-266 408v20h114l369 -604h27l366 604h113v-20l-264 -408h223v-84h-277l-104 -160h381v-84z" />
    <glyph glyph-name="Euro.sc" horiz-adv-x="1224" 
d="M659 -20q-201 0 -324.5 109.5t-156.5 303.5h-137v74h127q-2 23 -2 70q0 39 2 57h-127v74h135q33 198 160 310t328 112q194 0 312.5 -105t153.5 -291l-106 -22q-70 317 -360 317q-161 0 -255.5 -83.5t-121.5 -237.5h344v-74h-352q-3 -27 -3 -57q0 -35 3 -70h352v-74h-342
q28 -151 121.5 -232t251.5 -81t246.5 83t123.5 245l105 -21q-33 -191 -154 -299t-324 -108z" />
    <glyph glyph-name="percent.sc" horiz-adv-x="1380" 
d="M154 0v12l458 457l43 -37l-368 -432h-133zM1102 1071h133v-12l-459 -457l-43 35zM362 496q-132 0 -211 80.5t-79 218.5q0 136 78.5 215.5t211.5 79.5t212 -79.5t79 -215.5q0 -137 -79 -218t-212 -81zM360 578q98 0 149.5 57.5t51.5 159.5q0 99 -52 155t-147 56
t-146.5 -56t-51.5 -155q0 -102 49.5 -159.5t146.5 -57.5zM1018 -18q-133 0 -212 81t-79 220q0 136 79 214t212 78t211 -78t78 -214q0 -139 -78.5 -220t-210.5 -81zM1018 66q97 0 148 57.5t51 159.5q0 98 -52.5 154.5t-146.5 56.5q-95 0 -147 -56.5t-52 -154.5
q0 -102 50 -159.5t149 -57.5z" />
    <glyph glyph-name="plus.sc" horiz-adv-x="1013" 
d="M451 98v394h-381v102h381v385h112v-385h381v-102h-381v-394h-112z" />
    <glyph glyph-name="minus.sc" horiz-adv-x="1011" 
d="M942 489h-872v101h872v-101z" />
    <glyph glyph-name="equal.sc" horiz-adv-x="1071" 
d="M973 336h-873v98h873v-98zM973 672h-873v98h873v-98z" />
    <glyph glyph-name="multiply.sc" horiz-adv-x="999" 
d="M817 150q-104 110 -319 339q-64 -70 -168 -179.5t-150 -159.5l-80 79q241 228 340 316q-61 54 -119 107.5t-124 115t-97 90.5l80 78q51 -55 156 -164.5t162 -169.5q66 71 171 179.5t148 154.5l80 -78q-308 -285 -340 -313q268 -248 340 -316z" />
    <glyph glyph-name="divide.sc" horiz-adv-x="1011" 
d="M942 492h-872v100h872v-100zM434 944h146v-147h-146v147zM434 291h146v-148h-146v148z" />
    <glyph glyph-name="caron.alt" horiz-adv-x="231" 
d="M74 1319h104l-53 -514h-74z" />
    <glyph glyph-name="acute.case" horiz-adv-x="618" 
d="M55 1364l-20 63l516 187l35 -105z" />
    <glyph glyph-name="hungarumlaut.case" horiz-adv-x="747" 
d="M129 1319l-55 39l221 315l92 -67zM399 1321l-53 41l232 309l92 -69z" />
    <glyph glyph-name="grave.case" horiz-adv-x="622" 
d="M567 1364l-530 147l31 99l518 -183z" />
    <glyph glyph-name="circumflex.case" horiz-adv-x="663" 
d="M578 1335l-246 183l-246 -183l-43 54l260 227h57l261 -227z" />
    </font>
</defs>
</svg>
