<?xml version="1.0" standalone="no"?>
<!DOCTYPE svg PUBLIC "-//W3C//DTD SVG 1.1//EN" "http://www.w3.org/Graphics/SVG/1.1/DTD/svg11.dtd" >
<svg xmlns="http://www.w3.org/2000/svg" xmlns:xlink="http://www.w3.org/1999/xlink" version="1.1">
<metadata>
Created by FontForge 20170731 at Tue Mar  1 01:18:56 2022
 By Aleksey,,,
(c) Copyright OH no Type Company, LLC. 2020. All rights reserved.
</metadata>
<defs>
<font id="Degular-Thin" horiz-adv-x="1843" >
  <font-face 
    font-family="Degular Thin"
    font-weight="200"
    font-stretch="normal"
    units-per-em="2048"
    panose-1="4 4 2 6 6 3 3 4 3 5"
    ascent="1372"
    descent="-676"
    x-height="944"
    cap-height="1229"
    bbox="-543 -430 2636 1829"
    underline-thickness="102"
    underline-position="-388"
    unicode-range="U+0020-FB02"
  />
<missing-glyph horiz-adv-x="1751" 
d="M745 31q37 0 69.5 1.5t52.5 3t51.5 7t42.5 7.5t51 10.5t53 11.5q0 177 42.5 295.5t100.5 179.5l23 -23q-37 -78 -68 -241q134 73 203.5 195t69.5 310q0 262 -132.5 396.5t-398.5 134.5q-216 0 -349.5 -107.5t-160.5 -283.5q28 4 45 4q111 0 165 -67.5t54 -164.5
q0 -59 -22.5 -105.5t-58.5 -73t-76.5 -40.5t-81.5 -14q-19 0 -29 2q3 -84 5.5 -205.5t4.5 -167.5q144 -65 344 -65zM745 -68q-280 0 -426 131q-9 249 13 422q-59 26 -94 80.5t-35 130.5q0 71 33.5 127t93.5 84q5 218 159.5 356t421.5 138q300 0 454.5 -157.5t154.5 -446.5
q0 -140 -36.5 -255t-121 -206t-211.5 -135q-21 -137 -21 -183q-138 -86 -385 -86zM944 936q115 0 175.5 -67t60.5 -162q0 -109 -76 -183.5t-176 -74.5q-101 0 -167.5 66t-66.5 179q0 98 65 170t185 72z" />
    <glyph glyph-name=".notdef" horiz-adv-x="1751" 
d="M745 31q37 0 69.5 1.5t52.5 3t51.5 7t42.5 7.5t51 10.5t53 11.5q0 177 42.5 295.5t100.5 179.5l23 -23q-37 -78 -68 -241q134 73 203.5 195t69.5 310q0 262 -132.5 396.5t-398.5 134.5q-216 0 -349.5 -107.5t-160.5 -283.5q28 4 45 4q111 0 165 -67.5t54 -164.5
q0 -59 -22.5 -105.5t-58.5 -73t-76.5 -40.5t-81.5 -14q-19 0 -29 2q3 -84 5.5 -205.5t4.5 -167.5q144 -65 344 -65zM745 -68q-280 0 -426 131q-9 249 13 422q-59 26 -94 80.5t-35 130.5q0 71 33.5 127t93.5 84q5 218 159.5 356t421.5 138q300 0 454.5 -157.5t154.5 -446.5
q0 -140 -36.5 -255t-121 -206t-211.5 -135q-21 -137 -21 -183q-138 -86 -385 -86zM944 936q115 0 175.5 -67t60.5 -162q0 -109 -76 -183.5t-176 -74.5q-101 0 -167.5 66t-66.5 179q0 98 65 170t185 72z" />
    <glyph glyph-name=".null" horiz-adv-x="0" 
 />
    <glyph glyph-name="nonmarkingreturn" horiz-adv-x="682" 
 />
    <glyph glyph-name="space" unicode=" " horiz-adv-x="419" 
 />
    <glyph glyph-name="exclam" unicode="!" horiz-adv-x="468" 
d="M279 422h-86v807h86v-807zM162 150h147v-150h-147v150z" />
    <glyph glyph-name="quotedbl" unicode="&#x22;" horiz-adv-x="610" 
d="M123 1229h94l-22 -535h-41zM393 1229h94l-22 -535h-41z" />
    <glyph glyph-name="numbersign" unicode="#" horiz-adv-x="1392" 
d="M879 0h-68l33 369h-346l-39 -369h-68l35 369h-354v82h360l31 342h-391v81h399l33 355h80l-35 -355h344l31 355h80l-37 -355h354v-81h-363l-34 -342h397v-82h-406zM494 440h368l35 365h-367z" />
    <glyph glyph-name="dollar" unicode="$" horiz-adv-x="1107" 
d="M535 1464h81l-6 -227q162 -14 250 -103.5t129 -250.5l-84 -19q-37 153 -116.5 224t-243.5 71q-161 0 -243.5 -60t-82.5 -167q0 -68 31.5 -115.5t116 -87t229.5 -67.5q161 -32 256.5 -81.5t132.5 -110.5t37 -146q0 -151 -101 -239.5t-311 -94.5l6 -244h-81l6 246
q-208 10 -325.5 116t-145.5 295l84 19q29 -175 132.5 -263.5t299.5 -88.5q180 0 266 65.5t86 181.5q0 110 -81.5 170t-276.5 95q-241 44 -342 129t-101 217q0 140 105.5 225.5t298.5 85.5z" />
    <glyph glyph-name="percent" unicode="%" horiz-adv-x="1480" 
d="M389 578q-140 0 -223.5 92t-83.5 248q0 154 83 242.5t224 88.5q139 0 222 -88.5t83 -242.5q0 -156 -83 -248t-222 -92zM387 651q114 0 172.5 71t58.5 196q0 122 -59 191t-170 69t-171 -69t-60 -191q0 -125 57.5 -196t171.5 -71zM1094 -20q-140 0 -224 91.5t-84 247.5
q0 154 83.5 243t224.5 89q139 0 222 -89t83 -243q0 -156 -83 -247.5t-222 -91.5zM1092 53q114 0 172.5 71t58.5 195q0 122 -59 191.5t-170 69.5t-171.5 -69.5t-60.5 -191.5q0 -124 58 -195t172 -71zM1217 1229h94v-12l-475 -523l-48 45zM272 0h-94v12l475 523l47 -43z" />
    <glyph glyph-name="ampersand" unicode="&#x26;" horiz-adv-x="1343" 
d="M393 918q0 -104 49 -234q199 52 295.5 126.5t96.5 182.5q0 178 -195 178q-113 0 -179.5 -64.5t-66.5 -188.5zM1305 66v-72q-44 -8 -95 -8q-194 0 -387 120q-74 -59 -173.5 -92.5t-209.5 -33.5q-170 0 -266 82.5t-96 236.5q0 135 75.5 220t217.5 140q-60 145 -60 261
q0 157 92.5 243t235.5 86q141 0 211 -70.5t70 -183.5q0 -66 -30 -122.5t-73.5 -93.5t-108.5 -68.5t-118.5 -49t-120.5 -34.5q60 -126 157 -241.5t214 -195.5q226 231 266 535l80 -8q-13 -156 -95 -305.5t-204 -249.5q166 -99 325 -99q52 0 93 3zM451 59q172 0 319 84
q-118 87 -214.5 206.5t-158.5 248.5q-235 -78 -235 -299q0 -113 78 -176.5t211 -63.5z" />
    <glyph glyph-name="quotesingle" unicode="'" horiz-adv-x="339" 
d="M123 1229h94l-22 -535h-41z" />
    <glyph glyph-name="parenleft" unicode="(" horiz-adv-x="663" 
d="M229 520q0 -266 83.5 -480.5t279.5 -412.5l-47 -47q-210 199 -306 431.5t-96 508.5q0 278 96 509.5t306 430.5l47 -47q-196 -198 -279.5 -412.5t-83.5 -480.5z" />
    <glyph glyph-name="parenright" unicode=")" horiz-adv-x="663" 
d="M434 520q0 267 -83 481.5t-279 411.5l47 47q210 -199 305.5 -430.5t95.5 -509.5q0 -277 -95.5 -509t-305.5 -431l-47 47q196 197 279 411.5t83 481.5z" />
    <glyph glyph-name="asterisk" unicode="*" horiz-adv-x="1009" 
d="M459 1372h94l-18 -373h-52zM35 995l28 90l351 -135l-17 -47zM262 477l-76 55l234 291l41 -28zM825 532l-75 -55l-203 316l39 28zM946 1085l29 -90l-359 -96l-16 49z" />
    <glyph glyph-name="plus" unicode="+" horiz-adv-x="1011" 
d="M463 184v402h-389v78h389v393h86v-393h389v-78h-389v-402h-86z" />
    <glyph glyph-name="comma" unicode="," horiz-adv-x="317" 
d="M145 215h88l-198 -534h-66v12z" />
    <glyph glyph-name="hyphen" unicode="-" horiz-adv-x="716" 
d="M51 537h615v-86h-615v86z" />
    <glyph glyph-name="period" unicode="." horiz-adv-x="354" 
d="M104 150h148v-150h-148v150z" />
    <glyph glyph-name="slash" unicode="/" horiz-adv-x="618" 
d="M127 -309h-82l453 1624h80z" />
    <glyph glyph-name="zero" unicode="0" horiz-adv-x="1144" 
d="M571 1171q-103 0 -182 -40.5t-128 -115t-74 -175t-25 -224.5t24.5 -224.5t73.5 -176t128 -117t183 -41.5q205 0 307.5 152t102.5 407q0 167 -42.5 289t-136 194t-231.5 72zM571 1249q160 0 273.5 -82t168 -223t54.5 -328t-54 -328t-167.5 -224.5t-274.5 -83.5
q-160 0 -273 83.5t-167.5 225t-54.5 327.5q0 187 55 328t168 223t272 82z" />
    <glyph glyph-name="one" unicode="1" horiz-adv-x="923" 
d="M844 0h-746v80h373v1073q-154 -71 -350 -147l-31 77l418 146h49v-1149h287v-80z" />
    <glyph glyph-name="two" unicode="2" horiz-adv-x="1138" 
d="M618 1171q-176 0 -274 -98.5t-127 -306.5l-80 16q35 225 154 346t325 121q195 0 299.5 -88.5t104.5 -251.5q0 -83 -29.5 -147t-91 -113t-135.5 -84t-184 -73q-239 -82 -319.5 -166t-84.5 -260q230 12 457 12h414v-78h-949v70q0 104 24.5 179t81.5 132t135 97t198 79
q213 69 305 148.5t92 205.5q0 120 -78.5 190t-237.5 70z" />
    <glyph glyph-name="three" unicode="3" horiz-adv-x="1124" 
d="M598 -20q-223 0 -353 109t-169 314l84 17q33 -182 139 -272.5t299 -90.5q173 0 266.5 72t93.5 201q0 88 -29 141t-105.5 82t-211.5 29h-209v77h199q126 0 209.5 64t83.5 192q0 136 -73 196t-228 60q-158 0 -247 -80t-122 -237l-80 18q34 177 144.5 277t302.5 100
q389 0 389 -321q0 -230 -244 -293v-19q172 -17 239.5 -83.5t67.5 -202.5q0 -165 -110.5 -257.5t-335.5 -92.5z" />
    <glyph glyph-name="four" unicode="4" horiz-adv-x="1173" 
d="M1126 317h-211v-317h-86v317h-774v78l774 834h86v-834h211v-78zM545 395h284v717l-10 2l-661 -717l10 -18q190 16 377 16z" />
    <glyph glyph-name="five" unicode="5" horiz-adv-x="1159" 
d="M621 57q176 0 264 76.5t88 239.5q0 145 -87.5 212.5t-267.5 67.5q-98 0 -196 -27t-148 -63l-77 29v637h794v-80q-332 0 -715 14v-536q62 45 154 73.5t201 28.5q428 0 428 -356q0 -197 -118.5 -295t-324.5 -98q-191 0 -318.5 84.5t-209.5 265.5l80 39
q64 -153 172.5 -232.5t280.5 -79.5z" />
    <glyph glyph-name="six" unicode="6" horiz-adv-x="1134" 
d="M616 678q-105 0 -190 -26t-137 -70t-79.5 -98.5t-27.5 -114.5q0 -133 107.5 -222.5t294.5 -89.5q366 0 366 340q0 281 -334 281zM1036 395q0 -192 -117 -303.5t-341 -111.5q-496 0 -496 598q0 152 27 271t85.5 210.5t158 140.5t235.5 49q102 0 176.5 -25t124.5 -75
t80.5 -116.5t48.5 -158.5l-82 -16q-33 162 -113 237.5t-235 75.5q-218 0 -324 -147t-106 -442q0 -68 2 -119l16 -2q33 140 146.5 217.5t302.5 77.5q86 0 158 -20.5t130 -62.5t90.5 -113t32.5 -165z" />
    <glyph glyph-name="seven" unicode="7" horiz-adv-x="1044" 
d="M29 1151v78h995v-80q-245 -244 -378.5 -537t-162.5 -612h-88q28 305 170 615.5t373 551.5q-185 -16 -471 -16h-438z" />
    <glyph glyph-name="eight" unicode="8" horiz-adv-x="1122" 
d="M561 -20q-481 0 -481 335q0 54 17 99.5t55 87t107.5 70t164.5 38.5v23q-137 25 -209.5 100t-71.5 195q2 148 106.5 234.5t311.5 86.5q208 0 313 -87t105 -234q0 -120 -72 -194t-207 -101v-25q182 -19 262 -99t80 -194q0 -335 -481 -335zM561 582q-93 0 -164.5 -16
t-114 -41.5t-69.5 -61.5t-37 -71.5t-10 -76.5q0 -124 99 -191t296 -67t296 67t99 191q0 41 -10 76.5t-37 71.5t-69.5 61.5t-114 41.5t-164.5 16zM561 1171q-329 0 -332 -256q0 -130 91.5 -194t240.5 -66q149 2 240.5 66t91.5 194q0 120 -80 188t-252 68z" />
    <glyph glyph-name="nine" unicode="9" horiz-adv-x="1146" 
d="M526 561q203 0 315.5 88.5t112.5 210.5q0 133 -105.5 222t-289.5 89q-187 0 -275.5 -88t-88.5 -241q0 -281 331 -281zM559 -20q-212 0 -325 94.5t-146 279.5l82 17q58 -314 389 -314q420 0 420 590q0 68 -2 119l-21 2q-34 -133 -143.5 -209t-294.5 -76q-85 0 -157 20.5
t-129.5 62t-90 113t-32.5 165.5q0 184 118.5 294.5t335.5 110.5q492 0 492 -598q0 -120 -16.5 -220t-54 -184.5t-94.5 -143t-141 -91t-190 -32.5z" />
    <glyph glyph-name="colon" unicode=":" horiz-adv-x="382" 
d="M119 944h147v-149h-147v149zM119 150h147v-150h-147v150z" />
    <glyph glyph-name="semicolon" unicode=";" horiz-adv-x="382" 
d="M160 215h88l-199 -534h-65v12zM119 944h147v-149h-147v149z" />
    <glyph glyph-name="less" unicode="&#x3c;" horiz-adv-x="1062" 
d="M950 43l-878 444v78l878 445v-95l-377 -182q-192 -94 -426 -184v-43q222 -84 424 -182l379 -187v-94z" />
    <glyph glyph-name="equal" unicode="=" horiz-adv-x="1077" 
d="M975 416h-873v78h873v-78zM975 743h-873v78h873v-78z" />
    <glyph glyph-name="greater" unicode="&#x3e;" horiz-adv-x="1062" 
d="M113 45v94l379 185q193 91 423 182v45q-254 100 -423 182l-379 185v94l878 -445v-78z" />
    <glyph glyph-name="question" unicode="?" horiz-adv-x="985" 
d="M655 571q-45 -20 -74.5 -45t-43 -52.5t-17.5 -50.5t-4 -52v-21h-86v21q0 92 40.5 151.5t139.5 110.5q129 64 177.5 121.5t48.5 158.5q0 124 -77 190t-227 66q-181 0 -276.5 -98t-122.5 -293l-86 10q29 215 148 338t335 123q188 0 290 -88.5t102 -247.5q0 -66 -21 -121
t-60.5 -96t-83.5 -70t-102 -55zM401 150h148v-150h-148v150z" />
    <glyph glyph-name="at" unicode="@" horiz-adv-x="1699" 
d="M803 -229q-345 0 -534 164.5t-189 508.5q0 147 34.5 283t105.5 253t172 203t242.5 135.5t307.5 49.5q139 0 253.5 -34.5t192.5 -95t131.5 -143.5t78 -178t24.5 -202q0 -121 -20 -220t-54 -166.5t-81.5 -113t-102 -66t-115.5 -20.5q-112 0 -163.5 60t-51.5 163q0 12 4 66
h-14q-54 -144 -130 -216.5t-183 -72.5q-101 0 -159 73t-58 220q0 107 22 201t64 168.5t110 117.5t154 43q90 0 149 -49t80 -131h10l23 172h78l-70 -526q-30 -219 139 -219q60 0 111 28t92 86t64.5 157.5t23.5 231.5q0 101 -19.5 187t-65 161.5t-114.5 128t-173 83t-236 30.5
q-152 0 -279.5 -44.5t-218.5 -123t-155 -185.5t-94.5 -231.5t-30.5 -261.5q0 -604 649 -604q101 0 221 24t197 60h22v-63q-192 -92 -444 -92zM1067 662q14 101 -43.5 159t-171.5 58q-137 0 -208 -119.5t-71 -335.5q0 -221 150 -221q127 0 219 111.5t113 269.5z" />
    <glyph glyph-name="A" unicode="A" horiz-adv-x="1163" 
d="M1061 0l-172 412h-617l-170 -412h-92l520 1229h103l520 -1229h-92zM367 639l-64 -152h553l-63 152q-119 283 -189 510h-41q-118 -325 -196 -510z" />
    <glyph glyph-name="B" unicode="B" horiz-adv-x="1140" 
d="M651 580h-397v-500h412q157 0 237 68t80 182q0 122 -78 186t-254 64zM641 1149h-387v-490h373q84 0 146 24t101 81.5t39 146.5q0 120 -65.5 179t-206.5 59zM168 0v1229h463q368 0 368 -314q0 -114 -60.5 -185t-166.5 -97v-17q297 -43 297 -286q0 -151 -99 -240.5
t-302 -89.5h-500z" />
    <glyph glyph-name="C" unicode="C" horiz-adv-x="1277" 
d="M647 -20q-273 0 -420 172t-147 464q0 289 150.5 461t420.5 172q223 0 362.5 -119.5t178.5 -326.5l-82 -21q-39 189 -153.5 288t-303.5 99q-241 0 -364 -146.5t-123 -406.5q0 -261 122.5 -409t360.5 -148q391 0 469 402l82 -21q-38 -214 -179 -337t-374 -123z" />
    <glyph glyph-name="D" unicode="D" horiz-adv-x="1288" 
d="M590 1151h-336v-1073h352q267 0 392.5 142t125.5 396q0 271 -129 403t-405 132zM168 0v1229h434q301 0 454.5 -157t153.5 -456q0 -289 -159.5 -452.5t-436.5 -163.5h-446z" />
    <glyph glyph-name="E" unicode="E" horiz-adv-x="1071" 
d="M168 0v1229h784v-80h-698v-479h616v-80h-616v-510h696v-80h-782z" />
    <glyph glyph-name="F" unicode="F" horiz-adv-x="997" 
d="M836 563h-582v-563h-86v1229h750v-80h-664v-506h582v-80z" />
    <glyph glyph-name="G" unicode="G" horiz-adv-x="1314" 
d="M657 -20q-276 0 -430.5 159t-154.5 461q0 193 63 337.5t195 228t321 83.5q227 0 364.5 -120.5t176.5 -335.5l-80 -19q-44 201 -157.5 298t-299.5 97q-256 0 -376.5 -150.5t-120.5 -418.5q0 -256 124.5 -398.5t379.5 -142.5q104 0 184.5 23t131.5 61t83.5 92.5t45.5 113.5
t13 128v37h-461v80h543v-594h-82v287h-12q-21 -65 -57 -118.5t-90 -97t-132 -67.5t-172 -24z" />
    <glyph glyph-name="H" unicode="H" horiz-adv-x="1300" 
d="M1135 0h-86v575h-795v-575h-86v1229h86v-574h795v574h86v-1229z" />
    <glyph glyph-name="I" unicode="I" horiz-adv-x="419" 
d="M254 0h-86v1229h86v-1229z" />
    <glyph glyph-name="J" unicode="J" horiz-adv-x="614" 
d="M360 283v946h86v-944q0 -144 -66.5 -222.5t-203.5 -78.5q-62 0 -145 12l6 82q74 -12 137 -12q98 0 142 54.5t44 162.5z" />
    <glyph glyph-name="K" unicode="K" horiz-adv-x="1122" 
d="M1012 0l-660 547h-98v-547h-86v1229h86v-604h96l625 604h96v-23l-651 -616l694 -567v-23h-102z" />
    <glyph glyph-name="L" unicode="L" horiz-adv-x="919" 
d="M254 1229v-1149h618v-80h-704v1229h86z" />
    <glyph glyph-name="M" unicode="M" horiz-adv-x="1585" 
d="M254 696v-696h-86v1229h158l282 -660q67 -159 162 -405h37q132 334 164 405l291 660h157v-1229h-86v696q0 88 6 457h-43q-97 -261 -188 -471l-268 -600h-109l-264 606q-53 123 -178 465h-37q2 -62 2 -457z" />
    <glyph glyph-name="N" unicode="N" horiz-adv-x="1288" 
d="M1004 0l-476 729q-114 174 -239 410h-51q16 -224 16 -598v-541h-86v1229h137l422 -649q190 -296 281 -471h45q-17 265 -17 583v537h86v-1229h-118z" />
    <glyph glyph-name="O" unicode="O" horiz-adv-x="1349" 
d="M676 -20q-189 0 -325.5 82t-204.5 224.5t-68 329.5t68.5 328.5t205 223t324.5 81.5q141 0 254.5 -46.5t188.5 -130.5t115 -200.5t40 -255.5q0 -285 -158 -460.5t-440 -175.5zM676 59q126 0 224.5 41.5t161 116t94.5 175.5t32 224q0 252 -132 402.5t-380 150.5
q-249 0 -380.5 -150t-131.5 -403q0 -123 32 -224t94 -176t160.5 -116t225.5 -41z" />
    <glyph glyph-name="P" unicode="P" horiz-adv-x="1048" 
d="M604 1151h-350v-559h352q163 0 238.5 66.5t75.5 211.5q0 150 -71 215.5t-245 65.5zM614 514h-360v-514h-86v1229h446q392 0 392 -357q0 -167 -102 -262.5t-290 -95.5z" />
    <glyph glyph-name="Q" unicode="Q" horiz-adv-x="1351" 
d="M676 59q126 0 224.5 41.5t161 116t94.5 175.5t32 224q0 252 -132 402.5t-380 150.5q-249 0 -380.5 -150t-131.5 -403q0 -123 32 -224t94 -176t160.5 -116t225.5 -41zM676 -20q-189 0 -325.5 82t-204.5 224.5t-68 329.5t68.5 328.5t205 223t324.5 81.5q141 0 254.5 -46.5
t188.5 -130.5t115 -200.5t40 -255.5q0 -179 -65 -319t-187 -221l158 -258v-23h-84l-138 244q-121 -59 -282 -59z" />
    <glyph glyph-name="R" unicode="R" horiz-adv-x="1187" 
d="M604 1151h-350v-524h352q157 0 245.5 68t88.5 196q0 132 -75.5 196t-260.5 64zM1004 0l-418 549h-332v-549h-86v1229h446q214 0 313 -90t99 -250q0 -142 -90 -231.5t-260 -104.5l420 -530v-23h-92z" />
    <glyph glyph-name="S" unicode="S" horiz-adv-x="1107" 
d="M586 -20q-228 1 -356 110.5t-160 312.5l84 19q29 -179 133 -271t299 -92q180 0 265 67.5t85 186.5q0 112 -80.5 173t-275.5 96q-241 45 -342 131.5t-101 220.5q0 143 106 229t304 86q100 0 175.5 -25t127.5 -74.5t84.5 -114t54.5 -152.5l-84 -19q-37 158 -116.5 231.5
t-243.5 73.5q-160 0 -242 -61t-82 -170q0 -104 81.5 -169t293.5 -107q238 -47 332 -129.5t94 -213.5q0 -157 -107 -248t-329 -91z" />
    <glyph glyph-name="T" unicode="T" horiz-adv-x="1032" 
d="M35 1149v80h962v-80h-438v-1149h-86v1149h-438z" />
    <glyph glyph-name="U" unicode="U" horiz-adv-x="1280" 
d="M655 59q104 0 178 28t116 82t60.5 124t18.5 162v774h86v-774q0 -234 -117 -354.5t-342 -120.5q-233 0 -360 120.5t-127 354.5v774h86v-760q0 -93 20.5 -164.5t65.5 -128.5t124.5 -87t190.5 -30z" />
    <glyph glyph-name="V" unicode="V" horiz-adv-x="1163" 
d="M633 0h-103l-520 1229h90l269 -639q123 -291 190 -510h43q92 263 197 510l264 639h90z" />
    <glyph glyph-name="W" unicode="W" horiz-adv-x="1691" 
d="M664 508l-154 -508h-141l-349 1229h97l168 -637q45 -172 131 -512h53q97 386 133 510l186 639h117l189 -641q69 -237 133 -508h49q60 251 131 512l170 637h94l-348 -1229h-137l-156 510q-108 359 -164 627h-39q-79 -333 -163 -629z" />
    <glyph glyph-name="X" unicode="X" horiz-adv-x="1120" 
d="M995 0l-432 575h-14l-426 -575h-84v23l459 593l-453 590v23h86l414 -563h22l422 563h86v-23l-459 -583l467 -600v-23h-88z" />
    <glyph glyph-name="Y" unicode="Y" horiz-adv-x="1062" 
d="M575 0h-86v440l-485 766v23h86l436 -721h15l432 721h84v-23l-482 -770v-436z" />
    <glyph glyph-name="Z" unicode="Z" horiz-adv-x="1130" 
d="M1030 80v-80h-954v82l856 1077l-4 8q-250 -18 -463 -18h-363v80h928v-78l-862 -1079l6 -11q297 19 510 19h346z" />
    <glyph glyph-name="bracketleft" unicode="[" horiz-adv-x="559" 
d="M156 -379v1790h342v-78h-256v-1634h256v-78h-342z" />
    <glyph glyph-name="backslash" unicode="\" horiz-adv-x="618" 
d="M508 -309l-453 1624h80l455 -1624h-82z" />
    <glyph glyph-name="bracketright" unicode="]" horiz-adv-x="559" 
d="M61 -379v78h256v1634h-256v78h342v-1790h-342z" />
    <glyph glyph-name="asciicircum" unicode="^" horiz-adv-x="1017" 
d="M887 516l-377 457l-377 -457l-49 39l397 496h56l399 -496z" />
    <glyph glyph-name="underscore" unicode="_" horiz-adv-x="942" 
d="M0 0h942v-78h-942v78z" />
    <glyph glyph-name="grave" unicode="`" horiz-adv-x="602" 
d="M530 1081l-487 242l45 80l465 -275z" />
    <glyph glyph-name="a" unicode="a" horiz-adv-x="991" 
d="M401 57q166 0 267.5 80t101.5 203v88h-354q-244 0 -244 -192q0 -79 54.5 -129t174.5 -50zM774 0v225h-14q-34 -120 -130.5 -182.5t-232.5 -62.5q-307 0 -307 258q0 114 84 187t238 73h358v108q0 142 -61 211.5t-207 69.5q-236 0 -295 -240l-80 27q34 140 131.5 215.5
t243.5 75.5q350 0 350 -355v-610h-78z" />
    <glyph glyph-name="b" unicode="b" horiz-adv-x="1097" 
d="M596 53q336 0 336 420q0 212 -82.5 313t-253.5 101q-165 0 -264 -102.5t-99 -276.5v-72q0 -170 100 -276.5t263 -106.5zM233 1315v-631h11q37 128 126.5 204.5t239.5 76.5q197 0 301.5 -127.5t104.5 -366.5q0 -235 -103.5 -363t-289.5 -128q-149 0 -247 78t-134 204h-9
v-262h-81v1315h81z" />
    <glyph glyph-name="c" unicode="c" horiz-adv-x="1044" 
d="M877 612q-31 139 -109 208t-231 69q-175 0 -274 -109t-99 -311q0 -191 100 -301.5t281 -110.5q66 0 118 15t86.5 38.5t61.5 61.5t42.5 76t29.5 90l80 -25q-41 -164 -142 -248.5t-274 -84.5q-220 0 -343.5 133.5t-123.5 363.5q0 225 128 356.5t331 131.5
q181 0 282.5 -83.5t134.5 -248.5z" />
    <glyph glyph-name="d" unicode="d" horiz-adv-x="1095" 
d="M500 55q166 0 264 103t98 278v72q0 170 -99 275.5t-263 105.5q-336 0 -336 -416q0 -212 83.5 -315t252.5 -103zM862 0v258h-8q-37 -124 -134 -201t-241 -77q-192 0 -295.5 127.5t-103.5 365.5q0 236 105.5 365t295.5 127q154 1 245 -76t128 -207h8v633h82v-1315h-82z" />
    <glyph glyph-name="e" unicode="e" horiz-adv-x="1032" 
d="M532 889q-162 0 -257.5 -93.5t-108.5 -269.5h708q-13 363 -342 363zM543 -20q-220 0 -341.5 133t-121.5 364q0 225 126 356.5t329 131.5q200 0 308.5 -118t108.5 -319q0 -48 -2 -75h-786q5 -184 103 -290t274 -106q77 0 135 19.5t95 57t59.5 80t39.5 101.5l78 -26
q-76 -309 -405 -309z" />
    <glyph glyph-name="f" unicode="f" horiz-adv-x="714" 
d="M332 1018v-74h350v-78h-350v-866h-82v866h-203v78h203v74q0 150 73.5 233.5t213.5 83.5q68 0 151 -18l-6 -76q-85 16 -145 16q-111 0 -158 -59.5t-47 -179.5z" />
    <glyph glyph-name="g" unicode="g" horiz-adv-x="1011" 
d="M469 866q-143 0 -214 -63t-71 -180q0 -121 69 -180.5t220 -59.5q153 0 226 59.5t73 180.5q0 116 -78.5 179.5t-224.5 63.5zM494 -258q151 0 235.5 20.5t113.5 55.5t29 94q0 60 -46 97.5t-140 37.5h-356q-104 0 -156.5 -46.5t-52.5 -106.5q0 -56 34 -88.5t115 -48
t224 -15.5zM954 -84q0 -90 -41.5 -143.5t-142 -81t-274.5 -27.5q-170 0 -274 27t-144.5 72t-40.5 114q0 129 205 172v8q-88 30 -88 113q0 50 75 106l70 56q-96 35 -146.5 108t-50.5 174q0 161 101 245.5t286 84.5h439v-78h-121q-35 0 -207 15l-2 -15q256 -48 256 -260
q0 -148 -96.5 -224.5t-288.5 -76.5q-84 0 -158 23l-43 -60q-32 -46 -36 -64q-1 -7 -1 -14q0 -65 113 -65q54 0 168 1t168 1q131 0 202.5 -55t71.5 -156z" />
    <glyph glyph-name="h" unicode="h" horiz-adv-x="1089" 
d="M233 553v-553h-81v1315h81v-610h17q36 119 132 189.5t234 70.5q167 0 250.5 -97t83.5 -260v-608h-82v598q0 131 -62.5 210t-197.5 79q-169 0 -272 -91t-103 -243z" />
    <glyph glyph-name="i" unicode="i" horiz-adv-x="442" 
d="M283 1176h-123v120h123v-120zM262 0h-82v944h82v-944z" />
    <glyph glyph-name="j" unicode="j" horiz-adv-x="466" 
d="M289 -53q0 -131 -60.5 -207t-169.5 -76q-39 0 -96 10l6 76q62 -8 90 -8q148 0 148 205v995h82v-995zM309 1176h-123v120h123v-120z" />
    <glyph glyph-name="k" unicode="k" horiz-adv-x="946" 
d="M248 1315v-805h102l449 434h96v-22l-473 -447l520 -452v-23h-98l-488 436h-108v-436h-82v1315h82z" />
    <glyph glyph-name="l" unicode="l" horiz-adv-x="413" 
d="M248 1315v-1315h-82v1315h82z" />
    <glyph glyph-name="m" unicode="m" horiz-adv-x="1806" 
d="M233 553v-553h-81v944h81v-239h17q38 121 133 190.5t233 69.5q142 0 223 -75.5t99 -205.5h18q31 129 123.5 205t249.5 76q168 0 253 -97t85 -260v-608h-82v598q0 132 -63 210.5t-201 78.5q-170 0 -270.5 -91t-100.5 -243v-553h-82v598q0 132 -63 210.5t-201 78.5
q-165 0 -268 -91.5t-103 -242.5z" />
    <glyph glyph-name="n" unicode="n" horiz-adv-x="1089" 
d="M233 553v-553h-81v944h81v-239h15q37 118 134 189t230 71q172 0 255 -96.5t83 -260.5v-608h-82v598q0 289 -264 289q-165 0 -268 -91.5t-103 -242.5z" />
    <glyph glyph-name="o" unicode="o" horiz-adv-x="1077" 
d="M539 -20q-219 0 -339 133t-120 364q0 226 126 357t333 131t332.5 -131t125.5 -357q0 -232 -119.5 -364.5t-338.5 -132.5zM539 887q-177 0 -276 -109t-99 -299q0 -194 96 -308t277 -114q182 0 280 114t98 308q0 190 -99.5 299t-276.5 109z" />
    <glyph glyph-name="p" unicode="p" horiz-adv-x="1095" 
d="M596 53q336 0 336 420q0 212 -82.5 313t-253.5 101q-165 0 -264 -102.5t-99 -276.5v-72q0 -170 100 -276.5t263 -106.5zM1016 471q0 -235 -104 -364t-289 -127q-149 -1 -247 76.5t-134 205.5h-9v-577h-81v1259h81v-260h11q37 128 126.5 204.5t239.5 76.5
q197 0 301.5 -127.5t104.5 -366.5z" />
    <glyph glyph-name="q" unicode="q" horiz-adv-x="1095" 
d="M500 53q164 0 263 106.5t99 276.5v72q0 174 -98 276.5t-264 102.5q-170 0 -253 -101.5t-83 -312.5q0 -420 336 -420zM80 471q0 238 105 366t302 128q148 0 238.5 -76.5t126.5 -204.5h10v260h82v-1290h-82v602h-8q-37 -125 -134.5 -201t-246.5 -75q-184 -2 -288.5 127
t-104.5 364z" />
    <glyph glyph-name="r" unicode="r" horiz-adv-x="641" 
d="M233 0h-81v944h81v-229h11q33 115 114 177t203 62h43v-82h-41q-166 0 -248 -86t-82 -272v-514z" />
    <glyph glyph-name="s" unicode="s" horiz-adv-x="913" 
d="M494 -23q-191 0 -290 81.5t-138 242.5l79 16q15 -58 37.5 -100.5t61.5 -81t102 -58.5t148 -20q129 0 195.5 49.5t66.5 141.5q0 87 -68.5 129t-238.5 67q-169 26 -246.5 91t-77.5 172q0 116 84.5 187t241.5 71q158 0 238 -69.5t120 -209.5l-82 -20q-30 120 -96 170.5
t-180 50.5q-119 0 -181.5 -46t-62.5 -130q0 -76 64 -124t210 -69q186 -26 272.5 -90.5t86.5 -179.5q0 -124 -85.5 -197.5t-260.5 -73.5z" />
    <glyph glyph-name="t" unicode="t" horiz-adv-x="704" 
d="M219 266v600h-172v78h172v285h82v-285h350v-78h-350v-604q0 -103 43.5 -155t136.5 -52q72 0 164 25l14 -72q-92 -28 -182 -28q-128 0 -193 76.5t-65 209.5z" />
    <glyph glyph-name="u" unicode="u" horiz-adv-x="1089" 
d="M856 0v240h-14q-39 -118 -136 -189t-227 -71q-173 0 -256.5 96t-83.5 260v608h82v-598q0 -289 266 -289q165 0 267 91.5t102 242.5v553h82v-944h-82z" />
    <glyph glyph-name="v" unicode="v" horiz-adv-x="944" 
d="M520 0h-90l-424 944h90l156 -352q143 -333 207 -512h28q48 134 209 510l152 354h90z" />
    <glyph glyph-name="w" unicode="w" horiz-adv-x="1499" 
d="M801 944l125 -362q102 -297 153 -496h33q50 192 156 504l121 354h88l-328 -944h-109l-147 424q-53 151 -133 436h-23q-63 -234 -133 -436l-145 -424h-109l-330 944h84l123 -354q121 -340 164 -504h35q50 196 149 496l123 362h103z" />
    <glyph glyph-name="x" unicode="x" horiz-adv-x="983" 
d="M838 0l-349 444l-346 -444h-80v23l373 458l-370 441v22h81l345 -426l344 426h79v-22l-368 -441l373 -458v-23h-82z" />
    <glyph glyph-name="y" unicode="y" horiz-adv-x="958" 
d="M152 -332q-62 0 -134 13l15 77q64 -12 119 -12q48 0 82.5 9t72 35t73.5 78t73 134l-445 942h94l148 -328q196 -440 235 -540h13q94 240 221 538l143 330h88l-426 -956q-76 -171 -163.5 -245.5t-208.5 -74.5z" />
    <glyph glyph-name="z" unicode="z" horiz-adv-x="972" 
d="M604 78h275v-78h-793v80l696 801l-4 8q-212 -23 -450 -23h-224v78h764v-80l-692 -796l4 -11q258 21 424 21z" />
    <glyph glyph-name="braceleft" unicode="{" horiz-adv-x="731" 
d="M670 -371q-99 -6 -125 -6q-139 0 -213 64.5t-72 173.5q0 49 19 99.5t46.5 93.5t55 85t46.5 87.5t19 86.5q0 93 -65.5 137t-198.5 44h-137v77h137q113 0 188.5 44.5t75.5 132.5q0 50 -27.5 110t-60.5 107t-60.5 111.5t-27.5 123.5q-2 109 72 173.5t213 64.5q26 0 125 -6
l-4 -74q-86 4 -119 4q-107 0 -155 -37.5t-48 -122.5q0 -41 17 -85.5t41 -85t48 -82t41 -91t17 -98.5q0 -93 -63.5 -145.5t-190.5 -73.5v-17q134 -14 194 -66.5t60 -156.5q0 -48 -18 -97t-43.5 -90.5t-51 -82t-43.5 -85.5t-18 -87q0 -85 48 -122.5t155 -37.5q33 0 119 4z" />
    <glyph glyph-name="bar" unicode="|" horiz-adv-x="395" 
d="M238 -360h-78v1779h78v-1779z" />
    <glyph glyph-name="braceright" unicode="}" horiz-adv-x="731" 
d="M176 -393q-26 0 -125 6l4 74q86 -4 119 -4q107 0 155 37t48 122q0 41 -17 86t-41 85.5t-48 82.5t-41 91.5t-17 97.5q0 94 63.5 147t190.5 74v16q-134 14 -194 66t-60 155q0 49 18 98.5t43.5 91t51 82.5t43.5 85.5t18 85.5q0 85 -48 122.5t-155 37.5q-10 0 -118 -5l-5 74
q99 6 125 6q139 0 213 -64t72 -173q0 -59 -29 -123.5t-64 -112t-64 -107.5t-29 -110q0 -180 264 -180h137v-78h-137q-114 0 -189 -43.5t-75 -132.5q0 -50 27.5 -109.5t60.5 -107t60.5 -112.5t27.5 -124q2 -109 -72 -173t-213 -64z" />
    <glyph glyph-name="asciitilde" unicode="~" horiz-adv-x="1085" 
d="M756 541q-59 0 -106 29t-75.5 72t-57.5 93.5t-52 93.5t-59 72t-80 29q-86 0 -118 -85.5t-26 -295.5h-71q-9 71 -9 125q0 164 59.5 248t166.5 84q52 0 93.5 -21.5t68.5 -56t50 -76t43.5 -83t43 -76t55.5 -56t74 -21.5q166 0 149 381h70q8 -57 8 -118q0 -163 -63.5 -250.5
t-163.5 -87.5z" />
    <glyph glyph-name="uni00A0" unicode="&#xa0;" horiz-adv-x="372" 
 />
    <glyph glyph-name="exclamdown" unicode="&#xa1;" horiz-adv-x="468" 
d="M193 522h86v-807h-86v807zM309 795h-147v149h147v-149z" />
    <glyph glyph-name="cent" unicode="&#xa2;" horiz-adv-x="1034" 
d="M496 1186h84l-11 -236q324 -14 387 -317l-79 -21q-31 134 -109 200.5t-231 66.5q-175 0 -274 -106.5t-99 -303.5q0 -186 100 -293.5t281 -107.5q66 0 118 14t86.5 37t61.5 59.5t42.5 73t29.5 86.5l80 -25q-76 -307 -392 -319l9 -248h-84l8 250q-200 12 -312 140t-112 341
q0 210 117.5 336t308.5 137z" />
    <glyph glyph-name="sterling" unicode="&#xa3;" horiz-adv-x="1087" 
d="M999 0h-907v78h213q31 99 31 235q0 66 -21 162h-219v78h201q-55 216 -55 346q0 163 91 256.5t271 93.5q93 0 162.5 -29t113.5 -85t71 -123.5t44 -159.5l-80 -14q-37 172 -107 252.5t-204 80.5q-147 0 -211.5 -74t-64.5 -192q0 -23 1.5 -48t3.5 -44.5t6 -47t6.5 -42.5
t9 -45.5t9 -40.5t10 -43.5t9.5 -40.5h479v-78h-461q21 -96 21 -162q0 -123 -37 -235h614v-78z" />
    <glyph glyph-name="yen" unicode="&#xa5;" horiz-adv-x="1122" 
d="M1042 397h-436v-397h-86v397h-440v78h418l-113 178h-305v78h256l-301 475v23h86l436 -721h14l433 721h83v-23l-296 -475h251v-78h-301l-110 -178h411v-78z" />
    <glyph glyph-name="brokenbar" unicode="&#xa6;" horiz-adv-x="491" 
d="M285 -360h-78v780h78v-780zM285 594h-78v825h78v-825z" />
    <glyph glyph-name="section" unicode="&#xa7;" horiz-adv-x="1159" 
d="M604 -336q-221 0 -344.5 106t-165.5 316l84 18q35 -182 135.5 -272t286.5 -90q155 0 227 59.5t72 161.5q0 98 -72 153t-243 89q-280 56 -393 134.5t-113 207.5q0 71 44 133.5t122 107.5q-45 64 -45 160q0 132 91 216.5t273 84.5q98 0 171.5 -25t124 -76.5t83 -117.5
t57.5 -160l-79 -22q-43 162 -123 242.5t-232 80.5q-150 0 -219.5 -61t-69.5 -158q0 -98 70.5 -158t255.5 -98q138 -28 230 -60.5t145 -74t74.5 -87.5t21.5 -109q0 -69 -40 -129.5t-107 -104.5q57 -65 57 -168q0 -62 -20.5 -114t-63.5 -94.5t-118.5 -66.5t-176.5 -24z
M602 281q204 -46 289 -117q98 72 98 198q0 104 -88.5 159t-316.5 100q-223 44 -314 135q-114 -78 -114 -205q0 -99 95 -157t351 -113z" />
    <glyph glyph-name="dieresis" unicode="&#xa8;" horiz-adv-x="628" 
d="M55 1272h135v-135h-135v135zM434 1272h135v-135h-135v135z" />
    <glyph glyph-name="copyright" unicode="&#xa9;" horiz-adv-x="1851" 
d="M926 -106q190 0 329.5 51.5t223.5 148.5t123.5 226.5t39.5 295.5t-40.5 296t-125 226t-223.5 146.5t-327 50.5q-151 0 -270.5 -33.5t-202.5 -94.5t-138 -150.5t-80.5 -199t-25.5 -241.5q0 -166 40 -295.5t124 -226.5t224 -148.5t329 -51.5zM926 1413q201 0 355.5 -57
t252 -163t146.5 -251t49 -326t-48.5 -326.5t-145.5 -252t-251.5 -164t-357.5 -57.5q-202 0 -356.5 57.5t-251.5 164t-146 252t-49 326.5t49 326t146.5 251t252 163t355.5 57zM1192 723q-8 126 -66 187t-196 61q-147 0 -225 -90t-78 -258q0 -170 75.5 -264.5t223.5 -94.5
q261 0 268 217h82q-4 -146 -95 -220.5t-253 -74.5q-177 0 -281 116t-104 323q0 196 105.5 309t281.5 113q172 0 255.5 -80.5t88.5 -243.5h-82z" />
    <glyph glyph-name="ordfeminine" unicode="&#xaa;" horiz-adv-x="774" 
d="M322 725q116 0 190 64.5t74 162.5v9h-256q-174 0 -174 -119q0 -117 166 -117zM592 676v180h-6q-34 -97 -105 -149t-172 -52q-113 0 -170 44.5t-57 144.5q0 80 63.5 130t180.5 50h260v104q0 77 -45.5 126t-139.5 49q-165 0 -225 -150l-65 27q35 89 110 140.5t180 51.5
q126 0 192 -65.5t66 -173.5v-457h-67z" />
    <glyph glyph-name="guillemotleft" unicode="&#xab;" horiz-adv-x="1226" 
d="M682 72h-82l-549 434v47l549 432h82v-22l-545 -428v-13l545 -428v-22zM1149 72h-82l-549 434v47l549 432h82v-22l-545 -428v-13l545 -428v-22z" />
    <glyph glyph-name="registered" unicode="&#xae;" horiz-adv-x="1855" 
d="M979 954h-307v-333h307q98 0 152.5 42.5t54.5 124.5q0 89 -45 127.5t-162 38.5zM1229 209l-314 342h-243v-342h-86v819h401q153 0 221 -58.5t68 -174.5q0 -105 -67 -170t-195 -72l317 -330v-14h-102zM926 -106q190 0 329.5 51.5t223.5 148.5t123.5 226.5t39.5 295.5
t-40.5 296t-125 226t-223.5 146.5t-327 50.5q-151 0 -270.5 -33.5t-202.5 -94.5t-138 -150.5t-80.5 -199t-25.5 -241.5q0 -166 40 -295.5t124 -226.5t224 -148.5t329 -51.5zM926 -184q-202 0 -356.5 57.5t-251.5 164t-146 252t-49 326.5t49 326t146.5 251t252 163t355.5 57
t355.5 -57t252 -163t146.5 -251t49 -326t-48.5 -326.5t-145.5 -252t-251.5 -164t-357.5 -57.5z" />
    <glyph glyph-name="macron" unicode="&#xaf;" horiz-adv-x="661" 
d="M51 1227h559v-78h-559v78z" />
    <glyph glyph-name="degree" unicode="&#xb0;" horiz-adv-x="598" 
d="M537 1014q0 -107 -65.5 -172.5t-172.5 -65.5q-108 0 -173 65t-65 173t64.5 172.5t173.5 64.5q107 0 172.5 -65t65.5 -172zM137 1014q0 -85 43 -128.5t119 -43.5t119 43.5t43 128.5t-43 128.5t-119 43.5t-119 -43.5t-43 -128.5z" />
    <glyph glyph-name="twosuperior" unicode="&#xb2;" horiz-adv-x="753" 
d="M401 1323q-105 0 -164.5 -51t-78.5 -160l-72 16q23 125 104 193t209 68q134 0 204.5 -54t70.5 -157q0 -92 -71 -147t-222 -97q-144 -43 -198 -89.5t-58 -133.5q228 12 301 12h262v-68h-625v45q0 120 65.5 183.5t221.5 107.5q140 39 194 79t54 110q0 143 -197 143z" />
    <glyph glyph-name="threesuperior" unicode="&#xb3;" horiz-adv-x="745" 
d="M383 639q-142 0 -225 61t-109 172l74 19q19 -94 81 -139t181 -45q217 0 217 141q0 72 -47.5 103.5t-169.5 31.5h-125v61h123q190 0 190 136q0 72 -47 106.5t-147 34.5t-154 -42t-75 -128l-72 20q26 102 101.5 160t199.5 58q130 0 199 -51t69 -144q0 -142 -174 -170v-16
q108 -7 156.5 -46t48.5 -116q0 -101 -74.5 -154t-220.5 -53z" />
    <glyph glyph-name="acute" unicode="&#xb4;" horiz-adv-x="602" 
d="M66 1081l-23 47l467 273l41 -74z" />
    <glyph glyph-name="paragraph" unicode="&#xb6;" horiz-adv-x="1253" 
d="M1087 -342h-86v1571h86v-1571zM858 -342h-86v690h-217q-226 0 -349.5 110t-123.5 324q0 222 113.5 334.5t357.5 112.5h305v-1571z" />
    <glyph glyph-name="periodcentered" unicode="&#xb7;" horiz-adv-x="413" 
d="M133 573h148v-149h-148v149z" />
    <glyph glyph-name="cedilla" unicode="&#xb8;" horiz-adv-x="464" 
d="M256 -344q-131 0 -207 61l41 62q26 -17 44 -26.5t49.5 -18t68.5 -8.5q56 0 82 20t26 49q0 31 -25 47.5t-71 16.5q-49 0 -92 -15l-49 25l67 174l62 -4l-62 -154q49 19 95 19q67 0 108 -26.5t41 -84.5q0 -50 -43 -93.5t-135 -43.5z" />
    <glyph glyph-name="onesuperior" unicode="&#xb9;" horiz-adv-x="610" 
d="M578 657h-525v68h246v588q-101 -54 -229 -105l-29 68l291 100h43v-651h203v-68z" />
    <glyph glyph-name="ordmasculine" unicode="&#xba;" horiz-adv-x="774" 
d="M389 664q-155 0 -240.5 96t-85.5 264q0 161 89 254.5t237 93.5q145 0 234.5 -94t89.5 -254q0 -168 -84.5 -264t-239.5 -96zM389 1303q-119 0 -184.5 -73.5t-65.5 -203.5q0 -136 63.5 -214.5t184.5 -78.5q122 0 187 79t65 214q0 130 -66 203.5t-184 73.5z" />
    <glyph glyph-name="guillemotright" unicode="&#xbb;" horiz-adv-x="1234" 
d="M635 53h-82v23l547 430v8l-547 430v23h82l549 -432v-48zM168 53h-82v23l547 430v8l-547 430v23h82l549 -432v-48z" />
    <glyph glyph-name="onequarter" unicode="&#xbc;" horiz-adv-x="1521" 
d="M268 0h-94v12l475 523l47 -43zM1212 1229h95v-12l-476 -523l-47 45zM578 657h-525v68h246v588q-101 -54 -229 -105l-29 68l291 100h43v-651h203v-68zM1079 106h146v394l-6 2l-377 -408v-4q152 16 237 16zM1430 39h-132v-182h-73v182h-477v53l452 481h98v-467h132v-67z
" />
    <glyph glyph-name="onehalf" unicode="&#xbd;" horiz-adv-x="1501" 
d="M268 0h-94v12l475 523l47 -43zM1212 1229h95v-12l-476 -523l-47 45zM578 657h-525v68h246v588q-101 -54 -229 -105l-29 68l291 100h43v-651h203v-68zM1151 524q-105 0 -165 -51t-79 -160l-71 17q23 125 104 192.5t209 67.5q133 0 203.5 -54t70.5 -157q0 -92 -71 -147
t-222 -97q-144 -43 -198 -89.5t-58 -133.5q228 12 302 12h262v-67h-625v45q0 120 65.5 183.5t221.5 107.5q140 39 194 79t54 109q0 143 -197 143z" />
    <glyph glyph-name="threequarters" unicode="&#xbe;" horiz-adv-x="1542" 
d="M340 0h-94v12l475 523l47 -43zM1284 1229h94v-12l-475 -523l-47 45zM1491 39h-131v-182h-74v182h-477v53l453 481h98v-467h131v-67zM395 639q-142 0 -225 61t-109 172l74 19q19 -94 81 -139t181 -45q217 0 217 141q0 72 -47.5 103.5t-169.5 31.5h-125v61h123
q191 0 191 136q0 72 -47.5 106.5t-147.5 34.5t-154 -42t-75 -128l-72 20q26 102 101.5 160t199.5 58q130 0 199 -51t69 -144q0 -142 -174 -170v-16q108 -7 156.5 -46t48.5 -116q0 -101 -74.5 -154t-220.5 -53zM1141 106h145v394l-6 2l-377 -408v-4q152 16 238 16z" />
    <glyph glyph-name="questiondown" unicode="&#xbf;" horiz-adv-x="985" 
d="M328 373q45 20 74.5 45t42.5 52.5t17.5 50.5t4.5 52v21h86v-21q0 -92 -40.5 -151.5t-139.5 -110.5q-129 -64 -177.5 -121.5t-48.5 -158.5q0 -124 77 -190t227 -66q181 0 276.5 98t122.5 293l86 -10q-29 -215 -148 -338t-335 -123q-188 0 -290 88.5t-102 247.5
q0 67 21 122.5t60.5 96t83.5 69.5t102 54zM582 795h-148v149h148v-149z" />
    <glyph glyph-name="Agrave" unicode="&#xc0;" horiz-adv-x="1163" 
d="M1061 0l-172 412h-617l-170 -412h-92l520 1229h103l520 -1229h-92zM745 1370l-528 150l27 82l516 -181zM367 639l-64 -152h553l-63 152q-119 283 -189 510h-41q-118 -325 -196 -510z" />
    <glyph glyph-name="Aacute" unicode="&#xc1;" horiz-adv-x="1163" 
d="M1061 0l-172 412h-617l-170 -412h-92l520 1229h103l520 -1229h-92zM397 1370l-14 51l514 185l29 -90zM367 639l-64 -152h553l-63 152q-119 283 -189 510h-41q-118 -325 -196 -510z" />
    <glyph glyph-name="Acircumflex" unicode="&#xc2;" horiz-adv-x="1163" 
d="M1061 0l-172 412h-617l-170 -412h-92l520 1229h103l520 -1229h-92zM829 1339l-245 189l-248 -189l-37 45l258 224h51l258 -224zM367 639l-64 -152h553l-63 152q-119 283 -189 510h-41q-118 -325 -196 -510z" />
    <glyph glyph-name="Atilde" unicode="&#xc3;" horiz-adv-x="1163" 
d="M1061 0l-172 412h-617l-170 -412h-92l520 1229h103l520 -1229h-92zM438 1661q46 0 83.5 -23.5t61 -56.5t45 -66.5t47.5 -57t56 -23.5q48 0 66.5 52t15.5 169h64q6 -50 6 -90q0 -101 -41.5 -154t-110.5 -53q-44 0 -80 23.5t-60 57t-46 66.5t-48.5 56.5t-56.5 23.5
q-54 0 -73 -47.5t-17 -165.5h-63q-6 50 -6 88q0 99 41.5 150t115.5 51zM367 639l-64 -152h553l-63 152q-119 283 -189 510h-41q-118 -325 -196 -510z" />
    <glyph glyph-name="Adieresis" unicode="&#xc4;" horiz-adv-x="1163" 
d="M1061 0l-172 412h-617l-170 -412h-92l520 1229h103l520 -1229h-92zM324 1505h135v-135h-135v135zM702 1505h136v-135h-136v135zM367 639l-64 -152h553l-63 152q-119 283 -189 510h-41q-118 -325 -196 -510z" />
    <glyph glyph-name="Aring" unicode="&#xc5;" horiz-adv-x="1163" 
d="M1061 0l-172 412h-617l-170 -412h-92l520 1229h103l520 -1229h-92zM461 1532q0 -61 32.5 -94t88.5 -33q58 0 90.5 33t32.5 94t-32.5 94t-90.5 33q-56 0 -88.5 -33t-32.5 -94zM780 1532q0 -90 -53 -143.5t-145 -53.5t-145.5 53.5t-53.5 143.5t53.5 143.5t145.5 53.5
t145 -53.5t53 -143.5zM367 639l-64 -152h553l-63 152q-119 283 -189 510h-41q-118 -325 -196 -510z" />
    <glyph glyph-name="AE" unicode="&#xc6;" horiz-adv-x="1726" 
d="M494 639l-138 -231h467v743h-43q-134 -254 -286 -512zM823 0v330h-512l-194 -330h-90v12l729 1217h852v-80h-699v-479h617v-80h-617v-510h697v-80h-783z" />
    <glyph glyph-name="Ccedilla" unicode="&#xc7;" horiz-adv-x="1280" 
d="M647 -20h-20l-37 -95q49 19 94 19q67 0 108.5 -26.5t41.5 -84.5q0 -50 -43.5 -93.5t-135.5 -43.5q-130 0 -206 61l40 62q26 -17 44 -26.5t49.5 -18t68.5 -8.5q56 0 82.5 20t26.5 49q0 31 -25 47.5t-71 16.5q-50 0 -93 -15l-49 25l45 115q-235 26 -361 194.5t-126 437.5
q0 289 150.5 461t420.5 172q223 0 362.5 -119.5t178.5 -326.5l-82 -21q-39 189 -153.5 288t-303.5 99q-241 0 -364 -146.5t-123 -406.5q0 -261 122.5 -409t360.5 -148q391 0 469 402l82 -21q-38 -214 -179 -337t-374 -123z" />
    <glyph glyph-name="Egrave" unicode="&#xc8;" horiz-adv-x="1071" 
d="M168 0v1229h784v-80h-698v-479h616v-80h-616v-510h696v-80h-782zM731 1370l-528 150l26 82l516 -181z" />
    <glyph glyph-name="Eacute" unicode="&#xc9;" horiz-adv-x="1071" 
d="M168 0v1229h784v-80h-698v-479h616v-80h-616v-510h696v-80h-782zM385 1370l-14 51l514 185l28 -90z" />
    <glyph glyph-name="Ecircumflex" unicode="&#xca;" horiz-adv-x="1071" 
d="M168 0v1229h784v-80h-698v-479h616v-80h-616v-510h696v-80h-782zM815 1339l-246 189l-247 -189l-37 45l258 224h51l258 -224z" />
    <glyph glyph-name="Edieresis" unicode="&#xcb;" horiz-adv-x="1071" 
d="M168 0v1229h784v-80h-698v-479h616v-80h-616v-510h696v-80h-782zM309 1505h135v-135h-135v135zM688 1505h135v-135h-135v135z" />
    <glyph glyph-name="Igrave" unicode="&#xcc;" horiz-adv-x="419" 
d="M254 0h-86v1229h86v-1229zM373 1370l-529 150l27 82l516 -181z" />
    <glyph glyph-name="Iacute" unicode="&#xcd;" horiz-adv-x="419" 
d="M254 0h-86v1229h86v-1229zM25 1370l-15 51l514 185l29 -90z" />
    <glyph glyph-name="Icircumflex" unicode="&#xce;" horiz-adv-x="419" 
d="M254 0h-86v1229h86v-1229zM457 1339l-246 189l-248 -189l-37 45l258 224h52l258 -224z" />
    <glyph glyph-name="Idieresis" unicode="&#xcf;" horiz-adv-x="419" 
d="M254 0h-86v1229h86v-1229zM-49 1505h135v-135h-135v135zM330 1505h135v-135h-135v135z" />
    <glyph glyph-name="Eth" unicode="&#xd0;" horiz-adv-x="1366" 
d="M741 575h-407v-497h352q267 0 392.5 142t125.5 396q0 271 -129 403t-405 132h-336v-498h407v-78zM248 0v575h-187v78h187v576h434q301 0 454.5 -157t153.5 -456q0 -289 -159.5 -452.5t-436.5 -163.5h-446z" />
    <glyph glyph-name="Ntilde" unicode="&#xd1;" horiz-adv-x="1288" 
d="M1004 0l-476 729q-114 174 -239 410h-51q16 -224 16 -598v-541h-86v1229h137l422 -649q190 -296 281 -471h45q-17 265 -17 583v537h86v-1229h-118zM500 1661q46 0 83.5 -23.5t61 -56.5t45 -66.5t47.5 -57t56 -23.5q48 0 66 52t15 169h64q6 -50 6 -90q0 -101 -41 -154
t-110 -53q-44 0 -80 23.5t-60 57t-46 66.5t-48.5 56.5t-56.5 23.5q-54 0 -73 -47.5t-17 -165.5h-64q-6 49 -6 88q0 99 42 150t116 51z" />
    <glyph glyph-name="Ograve" unicode="&#xd2;" horiz-adv-x="1349" 
d="M676 -20q-189 0 -325.5 82t-204.5 224.5t-68 329.5t68.5 328.5t205 223t324.5 81.5q141 0 254.5 -46.5t188.5 -130.5t115 -200.5t40 -255.5q0 -285 -158 -460.5t-440 -175.5zM676 59q126 0 224.5 41.5t161 116t94.5 175.5t32 224q0 252 -132 402.5t-380 150.5
q-249 0 -380.5 -150t-131.5 -403q0 -123 32 -224t94 -176t160.5 -116t225.5 -41zM838 1370l-529 150l27 82l516 -181z" />
    <glyph glyph-name="Oacute" unicode="&#xd3;" horiz-adv-x="1349" 
d="M676 -20q-189 0 -325.5 82t-204.5 224.5t-68 329.5t68.5 328.5t205 223t324.5 81.5q141 0 254.5 -46.5t188.5 -130.5t115 -200.5t40 -255.5q0 -285 -158 -460.5t-440 -175.5zM676 59q126 0 224.5 41.5t161 116t94.5 175.5t32 224q0 252 -132 402.5t-380 150.5
q-249 0 -380.5 -150t-131.5 -403q0 -123 32 -224t94 -176t160.5 -116t225.5 -41zM492 1370l-15 51l514 185l29 -90z" />
    <glyph glyph-name="Ocircumflex" unicode="&#xd4;" horiz-adv-x="1349" 
d="M676 59q126 0 224.5 41.5t161 116t94.5 175.5t32 224q0 252 -132 402.5t-380 150.5q-249 0 -380.5 -150t-131.5 -403q0 -123 32 -224t94 -176t160.5 -116t225.5 -41zM676 -20q-189 0 -325.5 82t-204.5 224.5t-68 329.5t68.5 328.5t205 223t324.5 81.5q141 0 254.5 -46.5
t188.5 -130.5t115 -200.5t40 -255.5q0 -285 -158 -460.5t-440 -175.5zM922 1339l-246 189l-248 -189l-37 45l258 224h51l258 -224z" />
    <glyph glyph-name="Otilde" unicode="&#xd5;" horiz-adv-x="1349" 
d="M676 -20q-189 0 -325.5 82t-204.5 224.5t-68 329.5t68.5 328.5t205 223t324.5 81.5q141 0 254.5 -46.5t188.5 -130.5t115 -200.5t40 -255.5q0 -285 -158 -460.5t-440 -175.5zM676 59q126 0 224.5 41.5t161 116t94.5 175.5t32 224q0 252 -132 402.5t-380 150.5
q-249 0 -380.5 -150t-131.5 -403q0 -123 32 -224t94 -176t160.5 -116t225.5 -41zM530 1661q46 0 83.5 -23.5t61 -56.5t45 -66.5t47.5 -57t56 -23.5q48 0 66.5 52t15.5 169h64q6 -50 6 -90q0 -101 -41.5 -154t-110.5 -53q-44 0 -80 23.5t-60 57t-46 66.5t-48.5 56.5
t-56.5 23.5q-54 0 -73 -47.5t-17 -165.5h-63q-6 49 -6 88q0 99 41.5 150t115.5 51z" />
    <glyph glyph-name="Odieresis" unicode="&#xd6;" horiz-adv-x="1349" 
d="M676 -20q-189 0 -325.5 82t-204.5 224.5t-68 329.5t68.5 328.5t205 223t324.5 81.5q141 0 254.5 -46.5t188.5 -130.5t115 -200.5t40 -255.5q0 -285 -158 -460.5t-440 -175.5zM676 59q126 0 224.5 41.5t161 116t94.5 175.5t32 224q0 252 -132 402.5t-380 150.5
q-249 0 -380.5 -150t-131.5 -403q0 -123 32 -224t94 -176t160.5 -116t225.5 -41zM416 1505h135v-135h-135v135zM795 1505h135v-135h-135v135z" />
    <glyph glyph-name="multiply" unicode="&#xd7;" horiz-adv-x="993" 
d="M823 242q-52 55 -158 166t-169 178q-43 -45 -157.5 -163.5t-172.5 -180.5l-62 61q37 34 153.5 143.5t195.5 180.5q-62 55 -122.5 111t-126 118t-100.5 94l62 62q52 -57 161.5 -168t168.5 -174q57 60 165 171.5t162 170.5l62 -62q-37 -34 -152.5 -143t-193.5 -180
q77 -70 191.5 -178.5t154.5 -145.5z" />
    <glyph glyph-name="Oslash" unicode="&#xd8;" horiz-adv-x="1341" 
d="M676 -20q-261 0 -420 153l-133 -133h-84v10l172 172q-133 171 -133 434q0 187 68.5 328.5t205 223t324.5 81.5q271 0 434 -166l143 146h78v-10l-180 -185q123 -168 123 -418q0 -186 -68 -328.5t-204.5 -225t-325.5 -82.5zM164 616q0 -233 106 -374l781 782
q-132 145 -375 145q-249 0 -380.5 -150t-131.5 -403zM676 59q127 0 225.5 41t160.5 116t94 176t32 224q0 216 -96 359l-779 -785q134 -131 363 -131z" />
    <glyph glyph-name="Ugrave" unicode="&#xd9;" horiz-adv-x="1280" 
d="M655 59q104 0 178 28t116 82t60.5 124t18.5 162v774h86v-774q0 -234 -117 -354.5t-342 -120.5q-233 0 -360 120.5t-127 354.5v774h86v-760q0 -93 20.5 -164.5t65.5 -128.5t124.5 -87t190.5 -30zM803 1370l-529 150l27 82l516 -181z" />
    <glyph glyph-name="Uacute" unicode="&#xda;" horiz-adv-x="1280" 
d="M655 59q104 0 178 28t116 82t60.5 124t18.5 162v774h86v-774q0 -234 -117 -354.5t-342 -120.5q-233 0 -360 120.5t-127 354.5v774h86v-760q0 -93 20.5 -164.5t65.5 -128.5t124.5 -87t190.5 -30zM457 1370l-15 51l514 185l29 -90z" />
    <glyph glyph-name="Ucircumflex" unicode="&#xdb;" horiz-adv-x="1280" 
d="M655 59q104 0 178 28t116 82t60.5 124t18.5 162v774h86v-774q0 -234 -117 -354.5t-342 -120.5q-233 0 -360 120.5t-127 354.5v774h86v-760q0 -93 20.5 -164.5t65.5 -128.5t124.5 -87t190.5 -30zM887 1339l-246 189l-248 -189l-37 45l258 224h52l258 -224z" />
    <glyph glyph-name="Udieresis" unicode="&#xdc;" horiz-adv-x="1280" 
d="M655 59q104 0 178 28t116 82t60.5 124t18.5 162v774h86v-774q0 -234 -117 -354.5t-342 -120.5q-233 0 -360 120.5t-127 354.5v774h86v-760q0 -93 20.5 -164.5t65.5 -128.5t124.5 -87t190.5 -30zM381 1505h135v-135h-135v135zM760 1505h135v-135h-135v135z" />
    <glyph glyph-name="Yacute" unicode="&#xdd;" horiz-adv-x="1062" 
d="M575 0h-86v440l-485 766v23h86l436 -721h15l432 721h84v-23l-482 -770v-436zM346 1370l-14 51l514 185l28 -90z" />
    <glyph glyph-name="Thorn" unicode="&#xde;" horiz-adv-x="1050" 
d="M168 1229h86v-236h362q392 0 392 -356q0 -167 -102 -262.5t-290 -95.5h-362v-279h-86v1229zM606 915h-352v-559h354q163 0 238.5 67t75.5 212q0 150 -71 215t-245 65z" />
    <glyph glyph-name="germandbls" unicode="&#xdf;" horiz-adv-x="1128" 
d="M711 -20q-121 0 -206 44t-151 140l64 55q56 -87 126 -124.5t167 -37.5q122 0 183.5 73.5t61.5 201.5q0 69 -18.5 120.5t-62.5 94t-126 64.5t-200 22h-137v78h127q126 0 209 70.5t83 213.5q0 115 -68.5 188.5t-207.5 73.5q-163 0 -234 -82t-71 -237v-938h-82v938
q0 185 100 291t287 106q89 0 158.5 -26.5t112.5 -72t65 -103.5t22 -125q0 -256 -254 -320v-20q108 -10 182.5 -36.5t117 -70.5t61 -99.5t18.5 -129.5q0 -160 -81.5 -256t-245.5 -96z" />
    <glyph glyph-name="agrave" unicode="&#xe0;" horiz-adv-x="991" 
d="M401 57q166 0 267.5 80t101.5 203v88h-354q-244 0 -244 -192q0 -79 54.5 -129t174.5 -50zM774 0v225h-14q-34 -120 -130.5 -182.5t-232.5 -62.5q-307 0 -307 258q0 114 84 187t238 73h358v108q0 142 -61 211.5t-207 69.5q-236 0 -295 -240l-80 27q34 140 131.5 215.5
t243.5 75.5q350 0 350 -355v-610h-78zM666 1081l-488 242l45 80l465 -275z" />
    <glyph glyph-name="aacute" unicode="&#xe1;" horiz-adv-x="991" 
d="M401 57q166 0 267.5 80t101.5 203v88h-354q-244 0 -244 -192q0 -79 54.5 -129t174.5 -50zM774 0v225h-14q-34 -120 -130.5 -182.5t-232.5 -62.5q-307 0 -307 258q0 114 84 187t238 73h358v108q0 142 -61 211.5t-207 69.5q-236 0 -295 -240l-80 27q34 140 131.5 215.5
t243.5 75.5q350 0 350 -355v-610h-78zM332 1081l-23 47l467 273l41 -74z" />
    <glyph glyph-name="acircumflex" unicode="&#xe2;" horiz-adv-x="991" 
d="M401 57q166 0 267.5 80t101.5 203v88h-354q-244 0 -244 -192q0 -79 54.5 -129t174.5 -50zM774 0v225h-14q-34 -120 -130.5 -182.5t-232.5 -62.5q-307 0 -307 258q0 114 84 187t238 73h358v108q0 142 -61 211.5t-207 69.5q-236 0 -295 -240l-80 27q34 140 131.5 215.5
t243.5 75.5q350 0 350 -355v-610h-78zM737 1079l-243 232l-244 -232l-41 41l260 277h51l260 -277z" />
    <glyph glyph-name="atilde" unicode="&#xe3;" horiz-adv-x="991" 
d="M401 57q166 0 267.5 80t101.5 203v88h-354q-244 0 -244 -192q0 -79 54.5 -129t174.5 -50zM774 0v225h-14q-34 -120 -130.5 -182.5t-232.5 -62.5q-307 0 -307 258q0 114 84 187t238 73h358v108q0 142 -61 211.5t-207 69.5q-236 0 -295 -240l-80 27q34 140 131.5 215.5
t243.5 75.5q350 0 350 -355v-610h-78zM350 1413q46 0 83.5 -23.5t61 -56.5t45 -66.5t47.5 -57t56 -23.5q48 0 66.5 52t15.5 169h63q7 -58 7 -90q0 -101 -41.5 -154t-110.5 -53q-44 0 -80 23.5t-60 57t-46 66.5t-48.5 56.5t-56.5 23.5q-54 0 -73 -47.5t-17 -165.5h-63
q-6 50 -6 88q0 99 41.5 150t115.5 51z" />
    <glyph glyph-name="adieresis" unicode="&#xe4;" horiz-adv-x="991" 
d="M401 57q166 0 267.5 80t101.5 203v88h-354q-244 0 -244 -192q0 -79 54.5 -129t174.5 -50zM774 0v225h-14q-34 -120 -130.5 -182.5t-232.5 -62.5q-307 0 -307 258q0 114 84 187t238 73h358v108q0 142 -61 211.5t-207 69.5q-236 0 -295 -240l-80 27q34 140 131.5 215.5
t243.5 75.5q350 0 350 -355v-610h-78zM236 1272h135v-135h-135v135zM614 1272h136v-135h-136v135z" />
    <glyph glyph-name="aring" unicode="&#xe5;" horiz-adv-x="991" 
d="M401 57q166 0 267.5 80t101.5 203v88h-354q-244 0 -244 -192q0 -79 54.5 -129t174.5 -50zM774 0v225h-14q-34 -120 -130.5 -182.5t-232.5 -62.5q-307 0 -307 258q0 114 84 187t238 73h358v108q0 142 -61 211.5t-207 69.5q-236 0 -295 -240l-80 27q34 140 131.5 215.5
t243.5 75.5q350 0 350 -355v-610h-78zM352 1290q0 -68 38 -104.5t104 -36.5q67 0 105 37t38 106q0 68 -38 105t-105 37q-66 0 -104 -37.5t-38 -106.5zM713 1292q0 -99 -59 -158t-160 -59t-160.5 59t-59.5 156q0 99 59.5 158t160.5 59t160 -59t59 -156z" />
    <glyph glyph-name="ae" unicode="&#xe6;" horiz-adv-x="1722" 
d="M401 57q166 0 267.5 80t101.5 203v94h-354q-244 0 -244 -198q0 -79 54.5 -129t174.5 -50zM1223 889q-164 0 -259.5 -95t-107.5 -274h709q-10 369 -342 369zM1638 289q-76 -309 -405 -309q-165 0 -276 78t-154 210q-20 -97 -82.5 -164t-144.5 -95.5t-179 -28.5
q-307 0 -307 258q0 117 84 191.5t238 74.5h358v102q0 142 -61 211.5t-207 69.5q-123 0 -195 -60t-102 -180l-80 27q35 140 133.5 215.5t243.5 75.5q302 0 340 -267q39 128 140.5 197.5t242.5 69.5q200 0 308.5 -118.5t108.5 -322.5q0 -49 -4 -78h-784q6 -182 104 -285.5
t273 -103.5q77 0 135 19.5t95.5 57t60 80.5t39.5 101z" />
    <glyph glyph-name="ccedilla" unicode="&#xe7;" horiz-adv-x="1064" 
d="M877 612q-31 139 -109 208t-231 69q-175 0 -274 -109t-99 -311q0 -191 100 -301.5t281 -110.5q66 0 118 15t86.5 38.5t61.5 61.5t42.5 76t29.5 90l80 -25q-41 -164 -142 -248.5t-274 -84.5h-35l-39 -95q49 19 94 19q67 0 108.5 -26.5t41.5 -84.5q0 -50 -43 -93.5
t-135 -43.5q-131 0 -207 61l41 62q26 -17 44 -26.5t49.5 -18t68.5 -8.5q56 0 82 20t26 49q0 31 -25 47.5t-71 16.5q-49 0 -92 -15l-49 25l45 119q-176 28 -273.5 157t-97.5 332q0 225 128 356.5t331 131.5q181 0 282.5 -83.5t134.5 -248.5z" />
    <glyph glyph-name="egrave" unicode="&#xe8;" horiz-adv-x="1032" 
d="M532 889q-162 0 -257.5 -93.5t-108.5 -269.5h708q-13 363 -342 363zM543 -20q-220 0 -341.5 133t-121.5 364q0 225 126 356.5t329 131.5q200 0 308.5 -118t108.5 -319q0 -48 -2 -75h-786q5 -184 103 -290t274 -106q77 0 135 19.5t95 57t59.5 80t39.5 101.5l78 -26
q-76 -309 -405 -309zM694 1081l-487 242l45 80l465 -275z" />
    <glyph glyph-name="eacute" unicode="&#xe9;" horiz-adv-x="1032" 
d="M532 889q-162 0 -257.5 -93.5t-108.5 -269.5h708q-13 363 -342 363zM543 -20q-220 0 -341.5 133t-121.5 364q0 225 126 356.5t329 131.5q200 0 308.5 -118t108.5 -319q0 -48 -2 -75h-786q5 -184 103 -290t274 -106q77 0 135 19.5t95 57t59.5 80t39.5 101.5l78 -26
q-76 -309 -405 -309zM360 1081l-22 47l467 273l41 -74z" />
    <glyph glyph-name="ecircumflex" unicode="&#xea;" horiz-adv-x="1032" 
d="M532 889q-162 0 -257.5 -93.5t-108.5 -269.5h708q-13 363 -342 363zM543 -20q-220 0 -341.5 133t-121.5 364q0 225 126 356.5t329 131.5q200 0 308.5 -118t108.5 -319q0 -48 -2 -75h-786q5 -184 103 -290t274 -106q77 0 135 19.5t95 57t59.5 80t39.5 101.5l78 -26
q-76 -309 -405 -309zM766 1079l-244 232l-243 -232l-41 41l260 277h51l260 -277z" />
    <glyph glyph-name="edieresis" unicode="&#xeb;" horiz-adv-x="1032" 
d="M532 889q-162 0 -257.5 -93.5t-108.5 -269.5h708q-13 363 -342 363zM543 -20q-220 0 -341.5 133t-121.5 364q0 225 126 356.5t329 131.5q200 0 308.5 -118t108.5 -319q0 -48 -2 -75h-786q5 -184 103 -290t274 -106q77 0 135 19.5t95 57t59.5 80t39.5 101.5l78 -26
q-76 -309 -405 -309zM264 1272h135v-135h-135v135zM643 1272h135v-135h-135v135z" />
    <glyph glyph-name="igrave" unicode="&#xec;" horiz-adv-x="524" 
d="M303 0h-82v944h82v-944zM432 1081l-487 242l45 80l465 -275z" />
    <glyph glyph-name="iacute" unicode="&#xed;" horiz-adv-x="524" 
d="M303 0h-82v944h82v-944zM100 1081l-22 47l467 273l41 -74z" />
    <glyph glyph-name="icircumflex" unicode="&#xee;" horiz-adv-x="524" 
d="M303 0h-82v944h82v-944zM506 1079l-244 232l-244 -232l-41 41l261 277h51l260 -277z" />
    <glyph glyph-name="idieresis" unicode="&#xef;" horiz-adv-x="524" 
d="M303 0h-82v944h82v-944zM4 1272h135v-135h-135v135zM383 1272h135v-135h-135v135z" />
    <glyph glyph-name="eth" unicode="&#xf0;" horiz-adv-x="1042" 
d="M520 -20q-206 0 -323 121t-117 343q0 220 114 339.5t310 119.5q125 0 215 -66t139 -184l21 6q-62 258 -312 453l-301 -117l-24 64l260 102q-100 67 -201 115l33 70q145 -73 252 -152l231 90l23 -65l-193 -76q316 -268 316 -643q0 -237 -121 -378.5t-322 -141.5zM881 467
q0 160 -102.5 259t-272.5 99q-164 0 -253 -95.5t-89 -283.5q0 -191 92 -291t262 -100q169 0 266 113.5t97 298.5zM897 530q0 6 -1 19.5t-1 19.5l-8 -2q1 -5 3 -14t3 -14z" />
    <glyph glyph-name="ntilde" unicode="&#xf1;" horiz-adv-x="1089" 
d="M233 553v-553h-81v944h81v-239h15q37 118 134 189t230 71q172 0 255 -96.5t83 -260.5v-608h-82v598q0 289 -264 289q-165 0 -268 -91.5t-103 -242.5zM408 1413q46 0 83 -23.5t61 -56.5t45 -66.5t47 -57t56 -23.5q48 0 66.5 52t15.5 169h64q6 -50 6 -90q0 -101 -41.5 -154
t-110.5 -53q-44 0 -80 23.5t-60 57t-45.5 66.5t-48 56.5t-56.5 23.5q-54 0 -73.5 -48t-17.5 -165h-63q-6 50 -6 88q0 99 42 150t116 51z" />
    <glyph glyph-name="ograve" unicode="&#xf2;" horiz-adv-x="1077" 
d="M539 -20q-219 0 -339 133t-120 364q0 226 126 357t333 131t332.5 -131t125.5 -357q0 -232 -119.5 -364.5t-338.5 -132.5zM539 887q-177 0 -276 -109t-99 -299q0 -194 96 -308t277 -114q182 0 280 114t98 308q0 190 -99.5 299t-276.5 109zM696 1081l-487 242l45 80
l465 -275z" />
    <glyph glyph-name="oacute" unicode="&#xf3;" horiz-adv-x="1077" 
d="M539 -20q-219 0 -339 133t-120 364q0 226 126 357t333 131t332.5 -131t125.5 -357q0 -232 -119.5 -364.5t-338.5 -132.5zM539 887q-177 0 -276 -109t-99 -299q0 -194 96 -308t277 -114q182 0 280 114t98 308q0 190 -99.5 299t-276.5 109zM362 1081l-22 47l467 273l41 -74
z" />
    <glyph glyph-name="ocircumflex" unicode="&#xf4;" horiz-adv-x="1077" 
d="M539 887q-177 0 -276 -109t-99 -299q0 -194 96 -308t277 -114q182 0 280 114t98 308q0 190 -99.5 299t-276.5 109zM539 -20q-219 0 -339 133t-120 364q0 226 126 357t333 131t332.5 -131t125.5 -357q0 -232 -119.5 -364.5t-338.5 -132.5zM772 1079l-244 232l-243 -232
l-41 41l260 277h51l260 -277z" />
    <glyph glyph-name="otilde" unicode="&#xf5;" horiz-adv-x="1077" 
d="M539 -20q-219 0 -339 133t-120 364q0 226 126 357t333 131t332.5 -131t125.5 -357q0 -232 -119.5 -364.5t-338.5 -132.5zM539 887q-177 0 -276 -109t-99 -299q0 -194 96 -308t277 -114q182 0 280 114t98 308q0 190 -99.5 299t-276.5 109zM385 1413q46 0 83.5 -23.5
t61 -56.5t45 -66.5t47.5 -57t56 -23.5q48 0 66.5 52t15.5 169h63q6 -50 6 -90q0 -101 -41 -154t-110 -53q-44 0 -80 23.5t-60 57t-46 66.5t-48.5 56.5t-56.5 23.5q-54 0 -73 -47.5t-17 -165.5h-64q-6 50 -6 88q0 99 42 150t116 51z" />
    <glyph glyph-name="odieresis" unicode="&#xf6;" horiz-adv-x="1077" 
d="M539 -20q-219 0 -339 133t-120 364q0 226 126 357t333 131t332.5 -131t125.5 -357q0 -232 -119.5 -364.5t-338.5 -132.5zM539 887q-177 0 -276 -109t-99 -299q0 -194 96 -308t277 -114q182 0 280 114t98 308q0 190 -99.5 299t-276.5 109zM268 1272h135v-135h-135v135z
M647 1272h135v-135h-135v135z" />
    <glyph glyph-name="divide" unicode="&#xf7;" horiz-adv-x="1015" 
d="M944 582h-872v77h872v-77zM444 1010h131v-133h-131v133zM444 362h131v-133h-131v133z" />
    <glyph glyph-name="oslash" unicode="&#xf8;" horiz-adv-x="1077" 
d="M539 -20q-205 0 -324 122l-102 -102h-86v12l143 142q-90 133 -90 323q0 226 126 357t333 131q199 0 321 -119l98 98h80v-10l-135 -139q94 -127 94 -318q0 -230 -122.5 -363.5t-335.5 -133.5zM539 887q-177 0 -276 -109t-99 -299q0 -158 65 -264l576 576q-104 96 -266 96z
M537 57q182 0 280 114t98 308q0 155 -67 258l-578 -579q101 -101 267 -101z" />
    <glyph glyph-name="ugrave" unicode="&#xf9;" horiz-adv-x="1089" 
d="M856 0v240h-14q-39 -118 -136 -189t-227 -71q-173 0 -256.5 96t-83.5 260v608h82v-598q0 -289 266 -289q165 0 267 91.5t102 242.5v553h82v-944h-82zM711 1081l-488 242l45 80l465 -275z" />
    <glyph glyph-name="uacute" unicode="&#xfa;" horiz-adv-x="1089" 
d="M856 0v240h-14q-39 -118 -136 -189t-227 -71q-173 0 -256.5 96t-83.5 260v608h82v-598q0 -289 266 -289q165 0 267 91.5t102 242.5v553h82v-944h-82zM377 1081l-23 47l467 273l41 -74z" />
    <glyph glyph-name="ucircumflex" unicode="&#xfb;" horiz-adv-x="1089" 
d="M856 0v240h-14q-39 -118 -136 -189t-227 -71q-173 0 -256.5 96t-83.5 260v608h82v-598q0 -289 266 -289q165 0 267 91.5t102 242.5v553h82v-944h-82zM782 1079l-243 232l-244 -232l-41 41l260 277h51l260 -277z" />
    <glyph glyph-name="udieresis" unicode="&#xfc;" horiz-adv-x="1089" 
d="M856 0v240h-14q-39 -118 -136 -189t-227 -71q-173 0 -256.5 96t-83.5 260v608h82v-598q0 -289 266 -289q165 0 267 91.5t102 242.5v553h82v-944h-82zM281 1272h135v-135h-135v135zM659 1272h136v-135h-136v135z" />
    <glyph glyph-name="yacute" unicode="&#xfd;" horiz-adv-x="958" 
d="M152 -332q-62 0 -134 13l15 77q64 -12 119 -12q48 0 82.5 9t72 35t73.5 78t73 134l-445 942h94l148 -328q196 -440 235 -540h13q94 240 221 538l143 330h88l-426 -956q-76 -171 -163.5 -245.5t-208.5 -74.5zM315 1081l-22 47l467 273l41 -74z" />
    <glyph glyph-name="thorn" unicode="&#xfe;" horiz-adv-x="1095" 
d="M596 53q336 0 336 420q0 212 -82.5 313t-253.5 101q-165 0 -264 -102.5t-99 -276.5v-72q0 -170 100 -276.5t263 -106.5zM233 1315v-631h11q37 128 126.5 204.5t239.5 76.5q197 0 301.5 -127.5t104.5 -366.5q0 -235 -104 -364t-289 -127q-149 -1 -247 76.5t-134 205.5h-9
v-577h-81v1630h81z" />
    <glyph glyph-name="ydieresis" unicode="&#xff;" horiz-adv-x="958" 
d="M152 -332q-62 0 -134 13l15 77q64 -12 119 -12q48 0 82.5 9t72 35t73.5 78t73 134l-445 942h94l148 -328q196 -440 235 -540h13q94 240 221 538l143 330h88l-426 -956q-76 -171 -163.5 -245.5t-208.5 -74.5zM219 1272h135v-135h-135v135zM598 1272h135v-135h-135v135z
" />
    <glyph glyph-name="Amacron" unicode="&#x100;" horiz-adv-x="1163" 
d="M1061 0l-172 412h-617l-170 -412h-92l520 1229h103l520 -1229h-92zM303 1460h559v-80h-559v80zM367 639l-64 -152h553l-63 152q-119 283 -189 510h-41q-118 -325 -196 -510z" />
    <glyph glyph-name="amacron" unicode="&#x101;" horiz-adv-x="991" 
d="M401 57q166 0 267.5 80t101.5 203v88h-354q-244 0 -244 -192q0 -79 54.5 -129t174.5 -50zM774 0v225h-14q-34 -120 -130.5 -182.5t-232.5 -62.5q-307 0 -307 258q0 114 84 187t238 73h358v108q0 142 -61 211.5t-207 69.5q-236 0 -295 -240l-80 27q34 140 131.5 215.5
t243.5 75.5q350 0 350 -355v-610h-78zM215 1227h559v-78h-559v78z" />
    <glyph glyph-name="Abreve" unicode="&#x102;" horiz-adv-x="1163" 
d="M1061 0l-172 412h-617l-170 -412h-92l520 1229h103l520 -1229h-92zM584 1423q194 0 204 185h68q0 -132 -75 -198.5t-197 -66.5q-124 0 -199.5 66.5t-75.5 198.5h70q8 -185 205 -185zM367 639l-64 -152h553l-63 152q-119 283 -189 510h-41q-118 -325 -196 -510z" />
    <glyph glyph-name="abreve" unicode="&#x103;" horiz-adv-x="991" 
d="M401 57q166 0 267.5 80t101.5 203v88h-354q-244 0 -244 -192q0 -79 54.5 -129t174.5 -50zM774 0v225h-14q-34 -120 -130.5 -182.5t-232.5 -62.5q-307 0 -307 258q0 114 84 187t238 73h358v108q0 142 -61 211.5t-207 69.5q-236 0 -295 -240l-80 27q34 140 131.5 215.5
t243.5 75.5q350 0 350 -355v-610h-78zM496 1174q88 0 143 50t61 165h68q0 -144 -73.5 -217.5t-198.5 -73.5t-200 73.5t-75 217.5h70q10 -215 205 -215z" />
    <glyph glyph-name="Aogonek" unicode="&#x104;" horiz-adv-x="1163" 
d="M1034 -330q-111 0 -163 39t-52 107q0 134 240 190l-170 406h-617l-170 -412h-92l520 1229h103l520 -1227l2 -2q-135 -28 -197.5 -66t-62.5 -96q0 -88 145 -88q36 0 113 17l8 -84q-73 -13 -127 -13zM367 639l-64 -152h553l-63 152q-119 283 -189 510h-41
q-118 -325 -196 -510z" />
    <glyph glyph-name="aogonek" unicode="&#x105;" horiz-adv-x="991" 
d="M401 57q166 0 267.5 80t101.5 203v88h-354q-244 0 -244 -192q0 -79 54.5 -129t174.5 -50zM733 -330q-111 0 -163 39t-52 107q0 142 256 194v215h-14q-34 -120 -130.5 -182.5t-232.5 -62.5q-307 0 -307 258q0 114 84 187t238 73h358v108q0 142 -61 211.5t-207 69.5
q-236 0 -295 -240l-80 27q34 140 131.5 215.5t243.5 75.5q350 0 350 -355v-610h2q-135 -28 -197.5 -66t-62.5 -96q0 -88 145 -88q37 0 113 17l8 -84q-73 -13 -127 -13z" />
    <glyph glyph-name="Cacute" unicode="&#x106;" horiz-adv-x="1277" 
d="M647 -20q-273 0 -420 172t-147 464q0 289 150.5 461t420.5 172q223 0 362.5 -119.5t178.5 -326.5l-82 -21q-39 189 -153.5 288t-303.5 99q-241 0 -364 -146.5t-123 -406.5q0 -261 122.5 -409t360.5 -148q391 0 469 402l82 -21q-38 -214 -179 -337t-374 -123zM463 1370
l-14 51l514 185l28 -90z" />
    <glyph glyph-name="cacute" unicode="&#x107;" horiz-adv-x="1044" 
d="M877 612q-31 139 -109 208t-231 69q-175 0 -274 -109t-99 -311q0 -191 100 -301.5t281 -110.5q66 0 118 15t86.5 38.5t61.5 61.5t42.5 76t29.5 90l80 -25q-41 -164 -142 -248.5t-274 -84.5q-220 0 -343.5 133.5t-123.5 363.5q0 225 128 356.5t331 131.5
q181 0 282.5 -83.5t134.5 -248.5zM360 1081l-22 47l467 273l41 -74z" />
    <glyph glyph-name="Ccircumflex" unicode="&#x108;" horiz-adv-x="1277" 
d="M647 -20q-273 0 -420 172t-147 464q0 289 150.5 461t420.5 172q223 0 362.5 -119.5t178.5 -326.5l-82 -21q-39 189 -153.5 288t-303.5 99q-241 0 -364 -146.5t-123 -406.5q0 -261 122.5 -409t360.5 -148q391 0 469 402l82 -21q-38 -214 -179 -337t-374 -123zM891 1339
l-246 189l-248 -189l-37 45l258 224h52l258 -224z" />
    <glyph glyph-name="ccircumflex" unicode="&#x109;" horiz-adv-x="1044" 
d="M877 612q-31 139 -109 208t-231 69q-175 0 -274 -109t-99 -311q0 -191 100 -301.5t281 -110.5q66 0 118 15t86.5 38.5t61.5 61.5t42.5 76t29.5 90l80 -25q-41 -164 -142 -248.5t-274 -84.5q-220 0 -343.5 133.5t-123.5 363.5q0 225 128 356.5t331 131.5
q181 0 282.5 -83.5t134.5 -248.5zM778 1079l-243 232l-244 -232l-41 41l260 277h51l260 -277z" />
    <glyph glyph-name="Cdotaccent" unicode="&#x10a;" horiz-adv-x="1277" 
d="M647 -20q-273 0 -420 172t-147 464q0 289 150.5 461t420.5 172q223 0 362.5 -119.5t178.5 -326.5l-82 -21q-39 189 -153.5 288t-303.5 99q-241 0 -364 -146.5t-123 -406.5q0 -261 122.5 -409t360.5 -148q391 0 469 402l82 -21q-38 -214 -179 -337t-374 -123zM575 1559
h140v-138h-140v138z" />
    <glyph glyph-name="cdotaccent" unicode="&#x10b;" horiz-adv-x="1044" 
d="M877 612q-31 139 -109 208t-231 69q-175 0 -274 -109t-99 -311q0 -191 100 -301.5t281 -110.5q66 0 118 15t86.5 38.5t61.5 61.5t42.5 76t29.5 90l80 -25q-41 -164 -142 -248.5t-274 -84.5q-220 0 -343.5 133.5t-123.5 363.5q0 225 128 356.5t331 131.5
q181 0 282.5 -83.5t134.5 -248.5zM465 1303h139v-138h-139v138z" />
    <glyph glyph-name="Ccaron" unicode="&#x10c;" horiz-adv-x="1277" 
d="M647 -20q-273 0 -420 172t-147 464q0 289 150.5 461t420.5 172q223 0 362.5 -119.5t178.5 -326.5l-82 -21q-39 189 -153.5 288t-303.5 99q-241 0 -364 -146.5t-123 -406.5q0 -261 122.5 -409t360.5 -148q391 0 469 402l82 -21q-38 -214 -179 -337t-374 -123zM670 1346
h-52l-258 223l37 45l248 -189l246 189l37 -45z" />
    <glyph glyph-name="ccaron" unicode="&#x10d;" horiz-adv-x="1044" 
d="M877 612q-31 139 -109 208t-231 69q-175 0 -274 -109t-99 -311q0 -191 100 -301.5t281 -110.5q66 0 118 15t86.5 38.5t61.5 61.5t42.5 76t29.5 90l80 -25q-41 -164 -142 -248.5t-274 -84.5q-220 0 -343.5 133.5t-123.5 363.5q0 225 128 356.5t331 131.5
q181 0 282.5 -83.5t134.5 -248.5zM557 1090h-51l-260 276l43 41l243 -229l244 229l41 -41z" />
    <glyph glyph-name="Dcaron" unicode="&#x10e;" horiz-adv-x="1288" 
d="M590 1151h-336v-1073h352q267 0 392.5 142t125.5 396q0 271 -129 403t-405 132zM168 0v1229h434q301 0 454.5 -157t153.5 -456q0 -289 -159.5 -452.5t-436.5 -163.5h-446zM670 1346h-52l-258 223l37 45l248 -189l246 189l37 -45z" />
    <glyph glyph-name="dcaron" unicode="&#x10f;" horiz-adv-x="1204" 
d="M500 55q166 0 264 103t98 278v72q0 170 -99 275.5t-263 105.5q-336 0 -336 -416q0 -212 83.5 -315t252.5 -103zM862 0v258h-8q-37 -124 -134 -201t-241 -77q-192 0 -295.5 127.5t-103.5 365.5q0 236 105.5 365t295.5 127q154 1 245 -76t128 -207h8v633h82v-1315h-82z
M1116 1315h86l-51 -514h-59z" />
    <glyph glyph-name="Dcroat" unicode="&#x110;" horiz-adv-x="1366" 
d="M741 575h-407v-497h352q267 0 392.5 142t125.5 396q0 271 -129 403t-405 132h-336v-498h407v-78zM248 0v575h-187v78h187v576h434q301 0 454.5 -157t153.5 -456q0 -289 -159.5 -452.5t-436.5 -163.5h-446z" />
    <glyph glyph-name="dcroat" unicode="&#x111;" horiz-adv-x="1124" 
d="M500 55q166 0 264 103t98 278v72q0 170 -99 275.5t-263 105.5q-336 0 -336 -416q0 -212 83.5 -315t252.5 -103zM862 0v258h-8q-37 -124 -134 -201t-241 -77q-192 0 -295.5 127.5t-103.5 365.5q0 236 105.5 365t295.5 127q154 1 245 -76t128 -207h8v428h-334v76h334v129
h82v-129h135v-76h-135v-1110h-82z" />
    <glyph glyph-name="Emacron" unicode="&#x112;" horiz-adv-x="1071" 
d="M168 0v1229h784v-80h-698v-479h616v-80h-616v-510h696v-80h-782zM289 1460h559v-80h-559v80z" />
    <glyph glyph-name="emacron" unicode="&#x113;" horiz-adv-x="1032" 
d="M532 889q-162 0 -257.5 -93.5t-108.5 -269.5h708q-13 363 -342 363zM543 -20q-220 0 -341.5 133t-121.5 364q0 225 126 356.5t329 131.5q200 0 308.5 -118t108.5 -319q0 -48 -2 -75h-786q5 -184 103 -290t274 -106q77 0 135 19.5t95 57t59.5 80t39.5 101.5l78 -26
q-76 -309 -405 -309zM244 1227h559v-78h-559v78z" />
    <glyph glyph-name="Ebreve" unicode="&#x114;" horiz-adv-x="1071" 
d="M168 0v1229h784v-80h-698v-479h616v-80h-616v-510h696v-80h-782zM569 1423q88 0 143.5 43t61.5 142h68q0 -132 -75.5 -198.5t-197.5 -66.5q-124 0 -199 66.5t-75 198.5h70q8 -185 204 -185z" />
    <glyph glyph-name="ebreve" unicode="&#x115;" horiz-adv-x="1032" 
d="M532 889q-162 0 -257.5 -93.5t-108.5 -269.5h708q-13 363 -342 363zM543 -20q-220 0 -341.5 133t-121.5 364q0 225 126 356.5t329 131.5q200 0 308.5 -118t108.5 -319q0 -48 -2 -75h-786q5 -184 103 -290t274 -106q77 0 135 19.5t95 57t59.5 80t39.5 101.5l78 -26
q-76 -309 -405 -309zM524 1174q88 0 143.5 50t61.5 165h68q0 -144 -74 -217.5t-199 -73.5t-199.5 73.5t-74.5 217.5h69q10 -215 205 -215z" />
    <glyph glyph-name="Edotaccent" unicode="&#x116;" horiz-adv-x="1071" 
d="M168 0v1229h784v-80h-698v-479h616v-80h-616v-510h696v-80h-782zM500 1559h139v-138h-139v138z" />
    <glyph glyph-name="edotaccent" unicode="&#x117;" horiz-adv-x="1032" 
d="M532 889q-162 0 -257.5 -93.5t-108.5 -269.5h708q-13 363 -342 363zM543 -20q-220 0 -341.5 133t-121.5 364q0 225 126 356.5t329 131.5q200 0 308.5 -118t108.5 -319q0 -48 -2 -75h-786q5 -184 103 -290t274 -106q77 0 135 19.5t95 57t59.5 80t39.5 101.5l78 -26
q-76 -309 -405 -309zM455 1303h139v-138h-139v138z" />
    <glyph glyph-name="Eogonek" unicode="&#x118;" horiz-adv-x="1071" 
d="M956 -317q-73 -13 -127 -13q-111 0 -163 39t-52 107q0 126 211 184h-657v1229h784v-80h-698v-479h616v-80h-616v-510h696v-80q-135 -28 -197.5 -66t-62.5 -96q0 -88 146 -88q36 0 112 17z" />
    <glyph glyph-name="eogonek" unicode="&#x119;" horiz-adv-x="1032" 
d="M532 889q-162 0 -257.5 -93.5t-108.5 -269.5h708q-13 363 -342 363zM543 -20q-220 0 -341.5 133t-121.5 364q0 225 126 356.5t329 131.5q200 0 308.5 -118t108.5 -319q0 -48 -2 -75h-786q5 -184 103 -290t274 -106q77 0 135 19.5t95 57t59.5 80t39.5 101.5l78 -26
q-21 -90 -65.5 -154.5t-118.5 -116.5q-133 -93 -133 -198q0 -56 46.5 -80.5t113.5 -24.5q45 0 108 13l8 -80q-70 -13 -121 -13q-118 0 -172.5 45t-54.5 113q0 60 37.5 110t101.5 99q-71 -22 -155 -22z" />
    <glyph glyph-name="Ecaron" unicode="&#x11a;" horiz-adv-x="1071" 
d="M168 0v1229h784v-80h-698v-479h616v-80h-616v-510h696v-80h-782zM594 1346h-51l-258 223l37 45l247 -189l246 189l37 -45z" />
    <glyph glyph-name="ecaron" unicode="&#x11b;" horiz-adv-x="1032" 
d="M532 889q-162 0 -257.5 -93.5t-108.5 -269.5h708q-13 363 -342 363zM543 -20q-220 0 -341.5 133t-121.5 364q0 225 126 356.5t329 131.5q200 0 308.5 -118t108.5 -319q0 -48 -2 -75h-786q5 -184 103 -290t274 -106q77 0 135 19.5t95 57t59.5 80t39.5 101.5l78 -26
q-76 -309 -405 -309zM549 1090h-51l-260 276l43 41l243 -229l244 229l41 -41z" />
    <glyph glyph-name="Gcircumflex" unicode="&#x11c;" horiz-adv-x="1314" 
d="M657 -20q-276 0 -430.5 159t-154.5 461q0 193 63 337.5t195 228t321 83.5q227 0 364.5 -120.5t176.5 -335.5l-80 -19q-44 201 -157.5 298t-299.5 97q-256 0 -376.5 -150.5t-120.5 -418.5q0 -256 124.5 -398.5t379.5 -142.5q104 0 184.5 23t131.5 61t83.5 92.5t45.5 113.5
t13 128v37h-461v80h543v-594h-82v287h-12q-21 -65 -57 -118.5t-90 -97t-132 -67.5t-172 -24zM895 1339l-246 189l-248 -189l-36 45l258 224h51l258 -224z" />
    <glyph glyph-name="gcircumflex" unicode="&#x11d;" horiz-adv-x="1011" 
d="M469 866q-143 0 -214 -63t-71 -180q0 -121 69 -180.5t220 -59.5q153 0 226 59.5t73 180.5q0 116 -78.5 179.5t-224.5 63.5zM494 -258q151 0 235.5 20.5t113.5 55.5t29 94q0 60 -46 97.5t-140 37.5h-356q-104 0 -156.5 -46.5t-52.5 -106.5q0 -56 34 -88.5t115 -48
t224 -15.5zM954 -84q0 -90 -41.5 -143.5t-142 -81t-274.5 -27.5q-170 0 -274 27t-144.5 72t-40.5 114q0 129 205 172v8q-88 30 -88 113q0 50 75 106l70 56q-96 35 -146.5 108t-50.5 174q0 161 101 245.5t286 84.5h439v-78h-121q-35 0 -207 15l-2 -15q256 -48 256 -260
q0 -148 -96.5 -224.5t-288.5 -76.5q-84 0 -158 23l-43 -60q-32 -46 -36 -64q-1 -7 -1 -14q0 -65 113 -65q54 0 168 1t168 1q131 0 202.5 -55t71.5 -156zM739 1079l-243 232l-244 -232l-41 41l260 277h51l260 -277z" />
    <glyph glyph-name="Gbreve" unicode="&#x11e;" horiz-adv-x="1314" 
d="M657 -20q-276 0 -430.5 159t-154.5 461q0 193 63 337.5t195 228t321 83.5q227 0 364.5 -120.5t176.5 -335.5l-80 -19q-44 201 -157.5 298t-299.5 97q-256 0 -376.5 -150.5t-120.5 -418.5q0 -256 124.5 -398.5t379.5 -142.5q104 0 184.5 23t131.5 61t83.5 92.5t45.5 113.5
t13 128v37h-461v80h543v-594h-82v287h-12q-21 -65 -57 -118.5t-90 -97t-132 -67.5t-172 -24zM649 1423q88 0 143.5 43t61.5 142h68q0 -132 -75.5 -198.5t-197.5 -66.5q-124 0 -199 66.5t-75 198.5h69q8 -185 205 -185z" />
    <glyph glyph-name="gbreve" unicode="&#x11f;" horiz-adv-x="1011" 
d="M469 866q-143 0 -214 -63t-71 -180q0 -121 69 -180.5t220 -59.5q153 0 226 59.5t73 180.5q0 116 -78.5 179.5t-224.5 63.5zM494 -258q151 0 235.5 20.5t113.5 55.5t29 94q0 60 -46 97.5t-140 37.5h-356q-104 0 -156.5 -46.5t-52.5 -106.5q0 -56 34 -88.5t115 -48
t224 -15.5zM954 -84q0 -90 -41.5 -143.5t-142 -81t-274.5 -27.5q-170 0 -274 27t-144.5 72t-40.5 114q0 129 205 172v8q-88 30 -88 113q0 50 75 106l70 56q-96 35 -146.5 108t-50.5 174q0 161 101 245.5t286 84.5h439v-78h-121q-35 0 -207 15l-2 -15q256 -48 256 -260
q0 -148 -96.5 -224.5t-288.5 -76.5q-84 0 -158 23l-43 -60q-32 -46 -36 -64q-1 -7 -1 -14q0 -65 113 -65q54 0 168 1t168 1q131 0 202.5 -55t71.5 -156zM498 1174q88 0 143 50t61 165h68q0 -144 -73.5 -217.5t-198.5 -73.5t-200 73.5t-75 217.5h70q10 -215 205 -215z" />
    <glyph glyph-name="Gdotaccent" unicode="&#x120;" horiz-adv-x="1314" 
d="M657 -20q-276 0 -430.5 159t-154.5 461q0 193 63 337.5t195 228t321 83.5q227 0 364.5 -120.5t176.5 -335.5l-80 -19q-44 201 -157.5 298t-299.5 97q-256 0 -376.5 -150.5t-120.5 -418.5q0 -256 124.5 -398.5t379.5 -142.5q104 0 184.5 23t131.5 61t83.5 92.5t45.5 113.5
t13 128v37h-461v80h543v-594h-82v287h-12q-21 -65 -57 -118.5t-90 -97t-132 -67.5t-172 -24zM578 1559h139v-138h-139v138z" />
    <glyph glyph-name="gdotaccent" unicode="&#x121;" horiz-adv-x="1011" 
d="M469 866q-143 0 -214 -63t-71 -180q0 -121 69 -180.5t220 -59.5q153 0 226 59.5t73 180.5q0 116 -78.5 179.5t-224.5 63.5zM494 -258q151 0 235.5 20.5t113.5 55.5t29 94q0 60 -46 97.5t-140 37.5h-356q-104 0 -156.5 -46.5t-52.5 -106.5q0 -56 34 -88.5t115 -48
t224 -15.5zM954 -84q0 -90 -41.5 -143.5t-142 -81t-274.5 -27.5q-170 0 -274 27t-144.5 72t-40.5 114q0 129 205 172v8q-88 30 -88 113q0 50 75 106l70 56q-96 35 -146.5 108t-50.5 174q0 161 101 245.5t286 84.5h439v-78h-121q-35 0 -207 15l-2 -15q256 -48 256 -260
q0 -148 -96.5 -224.5t-288.5 -76.5q-84 0 -158 23l-43 -60q-32 -46 -36 -64q-1 -7 -1 -14q0 -65 113 -65q54 0 168 1t168 1q131 0 202.5 -55t71.5 -156zM426 1303h139v-138h-139v138z" />
    <glyph glyph-name="uni0122" unicode="&#x122;" horiz-adv-x="1314" 
d="M657 -20q-276 0 -430.5 159t-154.5 461q0 193 63 337.5t195 228t321 83.5q227 0 364.5 -120.5t176.5 -335.5l-80 -19q-44 201 -157.5 298t-299.5 97q-256 0 -376.5 -150.5t-120.5 -418.5q0 -256 124.5 -398.5t379.5 -142.5q104 0 184.5 23t131.5 61t83.5 92.5t45.5 113.5
t13 128v37h-461v80h543v-594h-82v287h-12q-21 -65 -57 -118.5t-90 -97t-132 -67.5t-172 -24zM655 -123h88l-122 -303h-62v16z" />
    <glyph glyph-name="uni0123" unicode="&#x123;" horiz-adv-x="1011" 
d="M516 1092h-88l121 303h63v-17zM469 866q-143 0 -214 -63t-71 -180q0 -121 69 -180.5t220 -59.5q153 0 226 59.5t73 180.5q0 116 -78.5 179.5t-224.5 63.5zM494 -258q151 0 235.5 20.5t113.5 55.5t29 94q0 60 -46 97.5t-140 37.5h-356q-104 0 -156.5 -46.5t-52.5 -106.5
q0 -56 34 -88.5t115 -48t224 -15.5zM954 -84q0 -90 -41.5 -143.5t-142 -81t-274.5 -27.5q-170 0 -274 27t-144.5 72t-40.5 114q0 129 205 172v8q-88 30 -88 113q0 50 75 106l70 56q-96 35 -146.5 108t-50.5 174q0 161 101 245.5t286 84.5h439v-78h-121q-35 0 -207 15l-2 -15
q256 -48 256 -260q0 -148 -96.5 -224.5t-288.5 -76.5q-84 0 -158 23l-43 -60q-32 -46 -36 -64q-1 -7 -1 -14q0 -65 113 -65q54 0 168 1t168 1q131 0 202.5 -55t71.5 -156z" />
    <glyph glyph-name="Hcircumflex" unicode="&#x124;" horiz-adv-x="1300" 
d="M1135 0h-86v575h-795v-575h-86v1229h86v-574h795v574h86v-1229zM897 1339l-246 189l-248 -189l-36 45l258 224h51l258 -224z" />
    <glyph glyph-name="hcircumflex" unicode="&#x125;" horiz-adv-x="1089" 
d="M233 553v-553h-81v1315h81v-610h17q36 119 132 189.5t234 70.5q167 0 250.5 -97t83.5 -260v-608h-82v598q0 131 -62.5 210t-197.5 79q-169 0 -272 -91t-103 -243zM446 1341l-245 189l-248 -189l-37 45l258 224h51l258 -224z" />
    <glyph glyph-name="Hbar" unicode="&#x126;" horiz-adv-x="1370" 
d="M1083 635v260h-794v-260h794zM1169 0h-86v555h-794v-555h-86v895h-158v80h158v254h86v-254h794v254h86v-254h156v-80h-156v-895z" />
    <glyph glyph-name="hbar" unicode="&#x127;" horiz-adv-x="1114" 
d="M258 553v-553h-82v1108h-129v78h129v129h82v-129h340v-78h-340v-403h16q36 118 132.5 189t234.5 71q167 0 250.5 -97t83.5 -260v-608h-82v598q0 131 -62.5 210t-197.5 79q-169 0 -272 -91t-103 -243z" />
    <glyph glyph-name="Itilde" unicode="&#x128;" horiz-adv-x="419" 
d="M254 0h-86v1229h86v-1229zM66 1661q46 0 83 -23.5t61 -56.5t45 -66.5t47 -57t56 -23.5q48 0 66.5 52t15.5 169h64q6 -49 6 -90q0 -101 -41.5 -154t-110.5 -53q-44 0 -80 23.5t-60 57t-45.5 66.5t-48 56.5t-56.5 23.5q-54 0 -73.5 -48t-17.5 -165h-63q-6 50 -6 88
q0 99 42 150t116 51z" />
    <glyph glyph-name="itilde" unicode="&#x129;" horiz-adv-x="524" 
d="M303 0h-82v944h82v-944zM119 1413q46 0 83.5 -23.5t61 -56.5t45 -66.5t47.5 -57t56 -23.5q48 0 66.5 52t15.5 169h63q6 -50 6 -90q0 -101 -41 -154t-110 -53q-44 0 -80 23.5t-60 57t-46 66.5t-48.5 56.5t-56.5 23.5q-54 0 -73 -47.5t-17 -165.5h-64q-6 50 -6 88
q0 99 42 150t116 51z" />
    <glyph glyph-name="Imacron" unicode="&#x12a;" horiz-adv-x="419" 
d="M254 0h-86v1229h86v-1229zM-70 1460h559v-80h-559v80z" />
    <glyph glyph-name="imacron" unicode="&#x12b;" horiz-adv-x="524" 
d="M303 0h-82v944h82v-944zM-16 1227h559v-78h-559v78z" />
    <glyph glyph-name="Ibreve" unicode="&#x12c;" horiz-adv-x="419" 
d="M254 0h-86v1229h86v-1229zM211 1423q88 0 143.5 43t61.5 142h67q0 -132 -75 -198.5t-197 -66.5q-124 0 -199 66.5t-75 198.5h69q8 -185 205 -185z" />
    <glyph glyph-name="ibreve" unicode="&#x12d;" horiz-adv-x="524" 
d="M303 0h-82v944h82v-944zM262 1174q88 0 143.5 50t61.5 165h68q0 -144 -74 -217.5t-199 -73.5t-199.5 73.5t-74.5 217.5h69q10 -215 205 -215z" />
    <glyph glyph-name="Iogonek" unicode="&#x12e;" horiz-adv-x="419" 
d="M254 0q-135 -28 -197.5 -66t-62.5 -96q0 -88 145 -88q37 0 113 17l8 -84q-73 -13 -127 -13q-111 0 -163 39t-52 107q0 138 250 194v1219h86v-1229z" />
    <glyph glyph-name="iogonek" unicode="&#x12f;" horiz-adv-x="442" 
d="M283 1176h-123v120h123v-120zM262 0q-135 -28 -197.5 -66t-62.5 -96q0 -88 145 -88q36 0 113 17l8 -84q-73 -13 -127 -13q-111 0 -163 39t-52 107q0 72 68 121t186 73v934h82v-944z" />
    <glyph glyph-name="Idotaccent" unicode="&#x130;" horiz-adv-x="419" 
d="M254 0h-86v1229h86v-1229zM141 1559h140v-138h-140v138z" />
    <glyph glyph-name="dotlessi" unicode="&#x131;" horiz-adv-x="524" 
d="M303 0h-82v944h82v-944z" />
    <glyph glyph-name="IJ" unicode="&#x132;" horiz-adv-x="1034" 
d="M254 0h-86v1229h86v-1229zM780 283v946h86v-944q0 -144 -66.5 -222.5t-203.5 -78.5q-62 0 -145 12l6 82q73 -12 137 -12q98 0 142 54.5t44 162.5z" />
    <glyph glyph-name="ij" unicode="&#x133;" horiz-adv-x="909" 
d="M283 1176h-123v120h123v-120zM262 0h-82v944h82v-944zM731 -53q0 -131 -60 -207t-169 -76q-38 0 -96 10l6 76q62 -8 90 -8q147 0 147 205v995h82v-995zM752 1176h-123v120h123v-120z" />
    <glyph glyph-name="Jcircumflex" unicode="&#x134;" horiz-adv-x="614" 
d="M360 283v946h86v-944q0 -144 -66.5 -222.5t-203.5 -78.5q-62 0 -145 12l6 82q74 -12 137 -12q98 0 142 54.5t44 162.5zM666 1339l-246 189l-248 -189l-37 45l258 224h51l258 -224z" />
    <glyph glyph-name="jcircumflex" unicode="&#x135;" horiz-adv-x="466" 
d="M289 -53q0 -131 -60.5 -207t-169.5 -76q-39 0 -96 10l6 76q62 -8 90 -8q148 0 148 205v995h82v-995zM459 1110l-213 201l-213 -201l-43 41l229 246h53l228 -246z" />
    <glyph glyph-name="uni0136" unicode="&#x136;" horiz-adv-x="1122" 
d="M1012 0l-660 547h-98v-547h-86v1229h86v-604h96l625 604h96v-23l-651 -616l694 -567v-23h-102zM606 -123h88l-123 -303h-61v16z" />
    <glyph glyph-name="uni0137" unicode="&#x137;" horiz-adv-x="946" 
d="M248 1315v-805h102l449 434h96v-22l-473 -447l520 -452v-23h-98l-488 436h-108v-436h-82v1315h82zM489 -123h89l-123 -303h-62v16z" />
    <glyph glyph-name="kgreenlandic" unicode="&#x138;" horiz-adv-x="946" 
d="M844 0l-488 436h-108v-436h-82v944h82v-434h102l449 434h96v-22l-473 -447l520 -452v-23h-98z" />
    <glyph glyph-name="Lacute" unicode="&#x139;" horiz-adv-x="919" 
d="M225 1370l-14 51l514 185l29 -90zM254 1229v-1149h618v-80h-704v1229h86z" />
    <glyph glyph-name="lacute" unicode="&#x13a;" horiz-adv-x="413" 
d="M248 1315v-1315h-82v1315h82zM53 1370l-14 51l514 185l29 -90z" />
    <glyph glyph-name="uni013B" unicode="&#x13b;" horiz-adv-x="919" 
d="M254 1229v-1149h618v-80h-704v1229h86zM553 -123h88l-123 -303h-61v16z" />
    <glyph glyph-name="uni013C" unicode="&#x13c;" horiz-adv-x="413" 
d="M248 1315v-1315h-82v1315h82zM203 -123h88l-123 -303h-62v16z" />
    <glyph glyph-name="Lcaron" unicode="&#x13d;" horiz-adv-x="919" 
d="M737 1243h86l-51 -514h-59zM254 1229v-1149h618v-80h-704v1229h86z" />
    <glyph glyph-name="lcaron" unicode="&#x13e;" horiz-adv-x="485" 
d="M248 1315v-1315h-82v1315h82zM397 1315h86l-51 -514h-59z" />
    <glyph glyph-name="Ldot" unicode="&#x13f;" horiz-adv-x="919" 
d="M684 743h139v-137h-139v137zM254 1229v-1149h618v-80h-704v1229h86z" />
    <glyph glyph-name="ldot" unicode="&#x140;" horiz-adv-x="600" 
d="M248 1315v-1315h-82v1315h82zM412 569h139v-137h-139v137z" />
    <glyph glyph-name="Lslash" unicode="&#x141;" horiz-adv-x="937" 
d="M274 1229v-615l369 203v-82l-369 -203v-452h619v-80h-705v485l-147 -79v79l147 82v662h86z" />
    <glyph glyph-name="lslash" unicode="&#x142;" horiz-adv-x="487" 
d="M283 1315v-694l184 104v-84l-184 -104v-537h-82v492l-181 -103v82l181 102v742h82z" />
    <glyph glyph-name="Nacute" unicode="&#x143;" horiz-adv-x="1288" 
d="M1004 0l-476 729q-114 174 -239 410h-51q16 -224 16 -598v-541h-86v1229h137l422 -649q190 -296 281 -471h45q-17 265 -17 583v537h86v-1229h-118zM461 1370l-15 51l515 185l28 -90z" />
    <glyph glyph-name="nacute" unicode="&#x144;" horiz-adv-x="1089" 
d="M233 553v-553h-81v944h81v-239h15q37 118 134 189t230 71q172 0 255 -96.5t83 -260.5v-608h-82v598q0 289 -264 289q-165 0 -268 -91.5t-103 -242.5zM389 1081l-22 47l467 273l40 -74z" />
    <glyph glyph-name="uni0145" unicode="&#x145;" horiz-adv-x="1288" 
d="M1004 0l-476 729q-114 174 -239 410h-51q16 -224 16 -598v-541h-86v1229h137l422 -649q190 -296 281 -471h45q-17 265 -17 583v537h86v-1229h-118zM639 -123h88l-123 -303h-61v16z" />
    <glyph glyph-name="uni0146" unicode="&#x146;" horiz-adv-x="1089" 
d="M233 553v-553h-81v944h81v-239h15q37 118 134 189t230 71q172 0 255 -96.5t83 -260.5v-608h-82v598q0 289 -264 289q-165 0 -268 -91.5t-103 -242.5zM547 -123h88l-123 -303h-61v16z" />
    <glyph glyph-name="Ncaron" unicode="&#x147;" horiz-adv-x="1288" 
d="M1004 0l-476 729q-114 174 -239 410h-51q16 -224 16 -598v-541h-86v1229h137l422 -649q190 -296 281 -471h45q-17 265 -17 583v537h86v-1229h-118zM670 1346h-52l-258 223l37 45l248 -189l246 189l37 -45z" />
    <glyph glyph-name="ncaron" unicode="&#x148;" horiz-adv-x="1089" 
d="M233 553v-553h-81v944h81v-239h15q37 118 134 189t230 71q172 0 255 -96.5t83 -260.5v-608h-82v598q0 289 -264 289q-165 0 -268 -91.5t-103 -242.5zM578 1090h-52l-260 276l43 41l244 -229l244 229l41 -41z" />
    <glyph glyph-name="napostrophe" unicode="&#x149;" horiz-adv-x="1349" 
d="M182 1229h94l-149 -535h-51v13zM408 553v-553h-82v944h82v-239h14q37 118 134 189t230 71q172 0 255 -96.5t83 -260.5v-608h-82v598q0 289 -264 289q-165 0 -267.5 -91.5t-102.5 -242.5z" />
    <glyph glyph-name="Eng" unicode="&#x14a;" horiz-adv-x="1288" 
d="M168 0v1229h137l455 -688q93 -142 266 -432h27q-17 332 -17 583v537h86v-1264q0 -301 -270 -301q-71 0 -145 14l6 80q70 -12 137 -12q99 0 143.5 54.5t44.5 162.5v17l-506 753q-110 162 -243 406h-51q16 -224 16 -598v-541h-86z" />
    <glyph glyph-name="eng" unicode="&#x14b;" horiz-adv-x="1089" 
d="M868 -53v651q0 293 -264 293q-165 0 -268 -92.5t-103 -245.5v-553h-81v944h81v-239h15q37 118 134 189t230 71q172 0 255 -96.5t83 -260.5v-661q0 -131 -59 -207t-168 -76q-39 0 -96 10l6 76q62 -8 90 -8q145 0 145 205z" />
    <glyph glyph-name="Omacron" unicode="&#x14c;" horiz-adv-x="1349" 
d="M676 -20q-189 0 -325.5 82t-204.5 224.5t-68 329.5t68.5 328.5t205 223t324.5 81.5q141 0 254.5 -46.5t188.5 -130.5t115 -200.5t40 -255.5q0 -285 -158 -460.5t-440 -175.5zM676 59q126 0 224.5 41.5t161 116t94.5 175.5t32 224q0 252 -132 402.5t-380 150.5
q-249 0 -380.5 -150t-131.5 -403q0 -123 32 -224t94 -176t160.5 -116t225.5 -41zM395 1460h559v-80h-559v80z" />
    <glyph glyph-name="omacron" unicode="&#x14d;" horiz-adv-x="1077" 
d="M539 -20q-219 0 -339 133t-120 364q0 226 126 357t333 131t332.5 -131t125.5 -357q0 -232 -119.5 -364.5t-338.5 -132.5zM539 887q-177 0 -276 -109t-99 -299q0 -194 96 -308t277 -114q182 0 280 114t98 308q0 190 -99.5 299t-276.5 109zM250 1227h559v-78h-559v78z" />
    <glyph glyph-name="Obreve" unicode="&#x14e;" horiz-adv-x="1349" 
d="M676 -20q-189 0 -325.5 82t-204.5 224.5t-68 329.5t68.5 328.5t205 223t324.5 81.5q141 0 254.5 -46.5t188.5 -130.5t115 -200.5t40 -255.5q0 -285 -158 -460.5t-440 -175.5zM676 59q126 0 224.5 41.5t161 116t94.5 175.5t32 224q0 252 -132 402.5t-380 150.5
q-249 0 -380.5 -150t-131.5 -403q0 -123 32 -224t94 -176t160.5 -116t225.5 -41zM676 1423q88 0 143.5 43t61.5 142h67q0 -132 -75 -198.5t-197 -66.5q-124 0 -199.5 66.5t-75.5 198.5h70q8 -185 205 -185z" />
    <glyph glyph-name="obreve" unicode="&#x14f;" horiz-adv-x="1077" 
d="M539 -20q-219 0 -339 133t-120 364q0 226 126 357t333 131t332.5 -131t125.5 -357q0 -232 -119.5 -364.5t-338.5 -132.5zM539 887q-177 0 -276 -109t-99 -299q0 -194 96 -308t277 -114q182 0 280 114t98 308q0 190 -99.5 299t-276.5 109zM530 1174q88 0 143.5 50
t61.5 165h68q0 -144 -74 -217.5t-199 -73.5t-199.5 73.5t-74.5 217.5h70q10 -215 204 -215z" />
    <glyph glyph-name="Ohungarumlaut" unicode="&#x150;" horiz-adv-x="1349" 
d="M676 -20q-189 0 -325.5 82t-204.5 224.5t-68 329.5t68.5 328.5t205 223t324.5 81.5q141 0 254.5 -46.5t188.5 -130.5t115 -200.5t40 -255.5q0 -285 -158 -460.5t-440 -175.5zM676 59q126 0 224.5 41.5t161 116t94.5 175.5t32 224q0 252 -132 402.5t-380 150.5
q-249 0 -380.5 -150t-131.5 -403q0 -123 32 -224t94 -176t160.5 -116t225.5 -41zM506 1321l-45 33l229 315l82 -63zM772 1323l-43 35l238 309l80 -65z" />
    <glyph glyph-name="ohungarumlaut" unicode="&#x151;" horiz-adv-x="1077" 
d="M539 -20q-219 0 -339 133t-120 364q0 226 126 357t333 131t332.5 -131t125.5 -357q0 -232 -119.5 -364.5t-338.5 -132.5zM539 887q-177 0 -276 -109t-99 -299q0 -194 96 -308t277 -114q182 0 280 114t98 308q0 190 -99.5 299t-276.5 109zM369 1075l-52 33l191 330l84 -56
zM629 1077l-49 35l198 324l84 -58z" />
    <glyph glyph-name="OE" unicode="&#x152;" horiz-adv-x="1767" 
d="M676 80h188v1069h-188q-250 0 -381 -143.5t-131 -389.5t130 -391t382 -145zM676 0q-284 0 -441 169t-157 447q0 279 157 446t441 167h973v-80h-699v-479h617v-80h-617v-510h697v-80h-971z" />
    <glyph glyph-name="oe" unicode="&#x153;" horiz-adv-x="1865" 
d="M539 887q-177 0 -276 -109t-99 -299q0 -194 96 -308t277 -114q182 0 280 114t98 308q0 190 -99.5 299t-276.5 109zM1366 889q-162 0 -258 -93.5t-109 -269.5h709q-13 363 -342 363zM1376 -20q-170 0 -277.5 93t-140.5 259h-6q-33 -166 -139.5 -259t-273.5 -93
q-219 0 -339 133t-120 364q0 226 126 357t333 131q159 0 269 -93t144 -258h6q34 165 143 258t267 93q200 0 309 -118t109 -319q0 -48 -4 -75h-785q5 -184 103 -290t274 -106q77 0 135 19.5t95.5 57t60 80.5t39.5 101l78 -26q-76 -309 -406 -309z" />
    <glyph glyph-name="Racute" unicode="&#x154;" horiz-adv-x="1187" 
d="M604 1151h-350v-524h352q157 0 245.5 68t88.5 196q0 132 -75.5 196t-260.5 64zM1004 0l-418 549h-332v-549h-86v1229h446q214 0 313 -90t99 -250q0 -142 -90 -231.5t-260 -104.5l420 -530v-23h-92zM391 1370l-14 51l514 185l29 -90z" />
    <glyph glyph-name="racute" unicode="&#x155;" horiz-adv-x="641" 
d="M233 0h-81v944h81v-229h11q33 115 114 177t203 62h43v-82h-41q-166 0 -248 -86t-82 -272v-514zM211 1081l-23 47l467 273l41 -74z" />
    <glyph glyph-name="uni0156" unicode="&#x156;" horiz-adv-x="1187" 
d="M612 -123h88l-122 -303h-62v16zM604 1151h-350v-524h352q157 0 245.5 68t88.5 196q0 132 -75.5 196t-260.5 64zM1004 0l-418 549h-332v-549h-86v1229h446q214 0 313 -90t99 -250q0 -142 -90 -231.5t-260 -104.5l420 -530v-23h-92z" />
    <glyph glyph-name="uni0157" unicode="&#x157;" horiz-adv-x="641" 
d="M233 0h-81v944h81v-229h11q33 115 114 177t203 62h43v-82h-41q-166 0 -248 -86t-82 -272v-514zM203 -123h88l-123 -303h-62v16z" />
    <glyph glyph-name="Rcaron" unicode="&#x158;" horiz-adv-x="1187" 
d="M604 1151h-350v-524h352q157 0 245.5 68t88.5 196q0 132 -75.5 196t-260.5 64zM1004 0l-418 549h-332v-549h-86v1229h446q214 0 313 -90t99 -250q0 -142 -90 -231.5t-260 -104.5l420 -530v-23h-92zM604 1346h-51l-258 223l37 45l248 -189l245 189l37 -45z" />
    <glyph glyph-name="rcaron" unicode="&#x159;" horiz-adv-x="641" 
d="M233 0h-81v944h81v-229h11q33 115 114 177t203 62h43v-82h-41q-166 0 -248 -86t-82 -272v-514zM399 1090h-51l-260 276l43 41l244 -229l243 229l41 -41z" />
    <glyph glyph-name="Sacute" unicode="&#x15a;" horiz-adv-x="1107" 
d="M586 -20q-228 1 -356 110.5t-160 312.5l84 19q29 -179 133 -271t299 -92q180 0 265 67.5t85 186.5q0 112 -80.5 173t-275.5 96q-241 45 -342 131.5t-101 220.5q0 143 106 229t304 86q100 0 175.5 -25t127.5 -74.5t84.5 -114t54.5 -152.5l-84 -19q-37 158 -116.5 231.5
t-243.5 73.5q-160 0 -242 -61t-82 -170q0 -104 81.5 -169t293.5 -107q238 -47 332 -129.5t94 -213.5q0 -157 -107 -248t-329 -91zM362 1370l-14 51l514 185l29 -90z" />
    <glyph glyph-name="sacute" unicode="&#x15b;" horiz-adv-x="913" 
d="M494 -23q-191 0 -290 81.5t-138 242.5l79 16q15 -58 37.5 -100.5t61.5 -81t102 -58.5t148 -20q129 0 195.5 49.5t66.5 141.5q0 87 -68.5 129t-238.5 67q-169 26 -246.5 91t-77.5 172q0 116 84.5 187t241.5 71q158 0 238 -69.5t120 -209.5l-82 -20q-30 120 -96 170.5
t-180 50.5q-119 0 -181.5 -46t-62.5 -130q0 -76 64 -124t210 -69q186 -26 272.5 -90.5t86.5 -179.5q0 -124 -85.5 -197.5t-260.5 -73.5zM322 1081l-23 47l467 273l41 -74z" />
    <glyph glyph-name="Scircumflex" unicode="&#x15c;" horiz-adv-x="1107" 
d="M586 -20q-228 1 -356 110.5t-160 312.5l84 19q29 -179 133 -271t299 -92q180 0 265 67.5t85 186.5q0 112 -80.5 173t-275.5 96q-241 45 -342 131.5t-101 220.5q0 143 106 229t304 86q100 0 175.5 -25t127.5 -74.5t84.5 -114t54.5 -152.5l-84 -19q-37 158 -116.5 231.5
t-243.5 73.5q-160 0 -242 -61t-82 -170q0 -104 81.5 -169t293.5 -107q238 -47 332 -129.5t94 -213.5q0 -157 -107 -248t-329 -91zM795 1339l-246 189l-248 -189l-37 45l258 224h51l258 -224z" />
    <glyph glyph-name="scircumflex" unicode="&#x15d;" horiz-adv-x="913" 
d="M494 -23q-191 0 -290 81.5t-138 242.5l79 16q15 -58 37.5 -100.5t61.5 -81t102 -58.5t148 -20q129 0 195.5 49.5t66.5 141.5q0 87 -68.5 129t-238.5 67q-169 26 -246.5 91t-77.5 172q0 116 84.5 187t241.5 71q158 0 238 -69.5t120 -209.5l-82 -20q-30 120 -96 170.5
t-180 50.5q-119 0 -181.5 -46t-62.5 -130q0 -76 64 -124t210 -69q186 -26 272.5 -90.5t86.5 -179.5q0 -124 -85.5 -197.5t-260.5 -73.5zM709 1079l-244 232l-244 -232l-41 41l260 277h52l260 -277z" />
    <glyph glyph-name="uni015E" unicode="&#x15e;" horiz-adv-x="1107" 
d="M586 -20h-35l-39 -95q49 19 94 19q67 0 108.5 -26.5t41.5 -84.5q0 -50 -43 -93.5t-135 -43.5q-131 0 -207 61l41 62q26 -17 43.5 -26.5t49 -18t68.5 -8.5q56 0 82.5 20t26.5 49q0 31 -25 47.5t-71 16.5q-49 0 -92 -15l-50 25l45 117q-361 45 -419 417l84 19
q29 -179 133 -271t299 -92q180 0 265 67.5t85 186.5q0 112 -80.5 173t-275.5 96q-241 45 -342 131.5t-101 220.5q0 143 106 229t304 86q100 0 175.5 -25t127.5 -74.5t84.5 -114t54.5 -152.5l-84 -19q-37 158 -116.5 231.5t-243.5 73.5q-160 0 -242 -61t-82 -170
q0 -104 81.5 -169t293.5 -107q238 -47 332 -129.5t94 -213.5q0 -157 -107 -248t-329 -91z" />
    <glyph glyph-name="uni015F" unicode="&#x15f;" horiz-adv-x="913" 
d="M494 -23q-28 0 -52 3l-36 -95q49 19 94 19q67 0 108 -26.5t41 -84.5q0 -50 -43 -93.5t-135 -43.5q-131 0 -207 61l41 62q26 -17 44 -26.5t49.5 -18t68.5 -8.5q56 0 82 20t26 49q0 31 -25 47.5t-71 16.5q-49 0 -92 -15l-49 25l45 117q-136 22 -210.5 101t-106.5 214l79 16
q15 -58 37.5 -100.5t61.5 -81t102 -58.5t148 -20q129 0 195.5 49.5t66.5 141.5q0 87 -68.5 129t-238.5 67q-169 26 -246.5 91t-77.5 172q0 116 84.5 187t241.5 71q158 0 238 -69.5t120 -209.5l-82 -20q-30 120 -96 170.5t-180 50.5q-119 0 -181.5 -46t-62.5 -130
q0 -76 64 -124t210 -69q186 -26 272.5 -90.5t86.5 -179.5q0 -124 -85.5 -197.5t-260.5 -73.5z" />
    <glyph glyph-name="Scaron" unicode="&#x160;" horiz-adv-x="1107" 
d="M586 -20q-228 1 -356 110.5t-160 312.5l84 19q29 -179 133 -271t299 -92q180 0 265 67.5t85 186.5q0 112 -80.5 173t-275.5 96q-241 45 -342 131.5t-101 220.5q0 143 106 229t304 86q100 0 175.5 -25t127.5 -74.5t84.5 -114t54.5 -152.5l-84 -19q-37 158 -116.5 231.5
t-243.5 73.5q-160 0 -242 -61t-82 -170q0 -104 81.5 -169t293.5 -107q238 -47 332 -129.5t94 -213.5q0 -157 -107 -248t-329 -91zM578 1346h-52l-258 223l37 45l248 -189l246 189l37 -45z" />
    <glyph glyph-name="scaron" unicode="&#x161;" horiz-adv-x="913" 
d="M494 -23q-191 0 -290 81.5t-138 242.5l79 16q15 -58 37.5 -100.5t61.5 -81t102 -58.5t148 -20q129 0 195.5 49.5t66.5 141.5q0 87 -68.5 129t-238.5 67q-169 26 -246.5 91t-77.5 172q0 116 84.5 187t241.5 71q158 0 238 -69.5t120 -209.5l-82 -20q-30 120 -96 170.5
t-180 50.5q-119 0 -181.5 -46t-62.5 -130q0 -76 64 -124t210 -69q186 -26 272.5 -90.5t86.5 -179.5q0 -124 -85.5 -197.5t-260.5 -73.5zM487 1090h-51l-260 276l43 41l244 -229l244 229l41 -41z" />
    <glyph glyph-name="Tcommaaccent" unicode="&#x162;" horiz-adv-x="1032" 
d="M35 1149v80h962v-80h-438v-1149h-43l-45 -115q49 19 94 19q67 0 108.5 -26.5t41.5 -84.5q0 -50 -43 -93.5t-135 -43.5q-131 0 -207 61l41 62q26 -17 43.5 -26.5t49 -18t68.5 -8.5q56 0 82.5 20t26.5 49q0 31 -25 47.5t-71 16.5q-49 0 -92 -15l-50 25l68 174h2v1106h-438z
" />
    <glyph glyph-name="tcommaaccent" unicode="&#x163;" horiz-adv-x="704" 
d="M219 266v600h-172v78h172v285h82v-285h350v-78h-350v-604q0 -103 43.5 -155t136.5 -52q72 0 164 25l14 -72q-92 -28 -182 -28q-43 0 -74 8l-41 -103q49 19 95 19q67 0 108 -26.5t41 -84.5q0 -50 -43 -93.5t-135 -43.5q-131 0 -207 61l41 62q26 -17 44 -26.5t49.5 -18
t68.5 -8.5q56 0 82 20t26 49q0 31 -25 47.5t-71 16.5q-49 0 -92 -15l-49 25l53 137q-129 66 -129 260z" />
    <glyph glyph-name="Tcaron" unicode="&#x164;" horiz-adv-x="1032" 
d="M997 1149h-438v-1149h-86v1149h-438v80h962v-80zM543 1346h-51l-259 223l37 45l248 -189l246 189l37 -45z" />
    <glyph glyph-name="tcaron" unicode="&#x165;" horiz-adv-x="704" 
d="M563 1372h88l-37 -332h-57zM219 266v600h-172v78h172v285h82v-285h350v-78h-350v-604q0 -103 43.5 -155t136.5 -52q72 0 164 25l14 -72q-92 -28 -182 -28q-128 0 -193 76.5t-65 209.5z" />
    <glyph glyph-name="Tbar" unicode="&#x166;" horiz-adv-x="1028" 
d="M35 1149v80h962v-80h-438v-524h307v-78h-307v-547h-86v547h-311v78h311v524h-438z" />
    <glyph glyph-name="tbar" unicode="&#x167;" horiz-adv-x="704" 
d="M219 266v215h-145v78h145v307h-172v78h172v285h82v-285h350v-78h-350v-307h328v-78h-328v-219q0 -103 43.5 -155t136.5 -52q72 0 164 25l14 -72q-92 -28 -182 -28q-128 0 -193 76.5t-65 209.5z" />
    <glyph glyph-name="Utilde" unicode="&#x168;" horiz-adv-x="1280" 
d="M655 59q104 0 178 28t116 82t60.5 124t18.5 162v774h86v-774q0 -234 -117 -354.5t-342 -120.5q-233 0 -360 120.5t-127 354.5v774h86v-760q0 -93 20.5 -164.5t65.5 -128.5t124.5 -87t190.5 -30zM496 1661q46 0 83 -23.5t61 -56.5t45 -66.5t47 -57t56 -23.5q48 0 66.5 52
t15.5 169h64q6 -50 6 -90q0 -101 -41.5 -154t-110.5 -53q-44 0 -80 23.5t-60 57t-45.5 66.5t-48 56.5t-56.5 23.5q-54 0 -73 -47.5t-17 -165.5h-64q-6 50 -6 88q0 99 42 150t116 51z" />
    <glyph glyph-name="utilde" unicode="&#x169;" horiz-adv-x="1089" 
d="M856 0v240h-14q-39 -118 -136 -189t-227 -71q-173 0 -256.5 96t-83.5 260v608h82v-598q0 -289 266 -289q165 0 267 91.5t102 242.5v553h82v-944h-82zM395 1413q46 0 83.5 -23.5t61 -56.5t45 -66.5t47.5 -57t56 -23.5q48 0 66.5 52t15.5 169h64q6 -50 6 -90
q0 -101 -41.5 -154t-110.5 -53q-44 0 -80 23.5t-60 57t-46 66.5t-48.5 56.5t-56.5 23.5q-54 0 -73 -47.5t-17 -165.5h-63q-6 50 -6 88q0 99 41.5 150t115.5 51z" />
    <glyph glyph-name="Umacron" unicode="&#x16a;" horiz-adv-x="1280" 
d="M655 59q104 0 178 28t116 82t60.5 124t18.5 162v774h86v-774q0 -234 -117 -354.5t-342 -120.5q-233 0 -360 120.5t-127 354.5v774h86v-760q0 -93 20.5 -164.5t65.5 -128.5t124.5 -87t190.5 -30zM360 1460h560v-80h-560v80z" />
    <glyph glyph-name="umacron" unicode="&#x16b;" horiz-adv-x="1089" 
d="M856 0v240h-14q-39 -118 -136 -189t-227 -71q-173 0 -256.5 96t-83.5 260v608h82v-598q0 -289 266 -289q165 0 267 91.5t102 242.5v553h82v-944h-82zM260 1227h559v-78h-559v78z" />
    <glyph glyph-name="Ubreve" unicode="&#x16c;" horiz-adv-x="1280" 
d="M655 59q104 0 178 28t116 82t60.5 124t18.5 162v774h86v-774q0 -234 -117 -354.5t-342 -120.5q-233 0 -360 120.5t-127 354.5v774h86v-760q0 -93 20.5 -164.5t65.5 -128.5t124.5 -87t190.5 -30zM641 1423q88 0 143.5 43t61.5 142h67q0 -132 -75 -198.5t-197 -66.5
q-124 0 -199 66.5t-75 198.5h69q8 -185 205 -185z" />
    <glyph glyph-name="ubreve" unicode="&#x16d;" horiz-adv-x="1089" 
d="M856 0v240h-14q-39 -118 -136 -189t-227 -71q-173 0 -256.5 96t-83.5 260v608h82v-598q0 -289 266 -289q165 0 267 91.5t102 242.5v553h82v-944h-82zM541 1174q88 0 143 50t61 165h68q0 -144 -73.5 -217.5t-198.5 -73.5t-200 73.5t-75 217.5h70q10 -215 205 -215z" />
    <glyph glyph-name="Uring" unicode="&#x16e;" horiz-adv-x="1280" 
d="M655 59q104 0 178 28t116 82t60.5 124t18.5 162v774h86v-774q0 -234 -117 -354.5t-342 -120.5q-233 0 -360 120.5t-127 354.5v774h86v-760q0 -93 20.5 -164.5t65.5 -128.5t124.5 -87t190.5 -30zM840 1532q0 -90 -53.5 -143.5t-145.5 -53.5t-145.5 53.5t-53.5 143.5
t53.5 143.5t145.5 53.5t145.5 -53.5t53.5 -143.5zM520 1532q0 -61 32.5 -94t88.5 -33q58 0 90.5 33t32.5 94t-32.5 94t-90.5 33q-56 0 -88.5 -33t-32.5 -94z" />
    <glyph glyph-name="uring" unicode="&#x16f;" horiz-adv-x="1089" 
d="M856 0v240h-14q-39 -118 -136 -189t-227 -71q-173 0 -256.5 96t-83.5 260v608h82v-598q0 -289 266 -289q165 0 267 91.5t102 242.5v553h82v-944h-82zM397 1290q0 -68 38 -104.5t104 -36.5q67 0 105 37t38 106q0 68 -38 105t-105 37q-66 0 -104 -37.5t-38 -106.5z
M758 1292q0 -99 -59 -158t-160 -59t-160.5 59t-59.5 156q0 99 59.5 158t160.5 59t160 -59t59 -156z" />
    <glyph glyph-name="Uhungarumlaut" unicode="&#x170;" horiz-adv-x="1280" 
d="M655 59q104 0 178 28t116 82t60.5 124t18.5 162v774h86v-774q0 -234 -117 -354.5t-342 -120.5q-233 0 -360 120.5t-127 354.5v774h86v-760q0 -93 20.5 -164.5t65.5 -128.5t124.5 -87t190.5 -30zM471 1321l-45 33l229 315l82 -63zM737 1323l-43 35l238 309l80 -65z" />
    <glyph glyph-name="uhungarumlaut" unicode="&#x171;" horiz-adv-x="1089" 
d="M856 0v240h-14q-39 -118 -136 -189t-227 -71q-173 0 -256.5 96t-83.5 260v608h82v-598q0 -289 266 -289q165 0 267 91.5t102 242.5v553h82v-944h-82zM643 1077l-49 35l199 324l84 -58zM383 1075l-51 33l190 330l84 -56z" />
    <glyph glyph-name="Uogonek" unicode="&#x172;" horiz-adv-x="1280" 
d="M655 59q104 0 178 28t116 82t60.5 124t18.5 162v774h86v-774q0 -202 -87 -319.5t-255 -145.5q-109 -28 -160 -64t-51 -88q0 -88 146 -88q35 0 112 17l8 -84q-73 -13 -127 -13q-111 0 -163 39t-52 107q0 107 150 164q-223 6 -345 126.5t-122 348.5v774h86v-760
q0 -93 20.5 -164.5t65.5 -128.5t124.5 -87t190.5 -30z" />
    <glyph glyph-name="uogonek" unicode="&#x173;" horiz-adv-x="1089" 
d="M819 -330q-111 0 -163 39t-52 107q0 137 252 194v230h-14q-39 -118 -136 -189t-227 -71q-173 0 -256.5 96t-83.5 260v608h82v-598q0 -289 266 -289q165 0 267 91.5t102 242.5v553h82v-944h2q-135 -28 -197.5 -66t-62.5 -96q0 -88 145 -88q37 0 113 17l8 -84
q-73 -13 -127 -13z" />
    <glyph glyph-name="Wcircumflex" unicode="&#x174;" horiz-adv-x="1691" 
d="M664 508l-154 -508h-141l-349 1229h97l168 -637q45 -172 131 -512h53q97 386 133 510l186 639h117l189 -641q69 -237 133 -508h49q60 251 131 512l170 637h94l-348 -1229h-137l-156 510q-108 359 -164 627h-39q-79 -333 -163 -629zM1094 1339l-246 189l-248 -189l-37 45
l258 224h51l258 -224z" />
    <glyph glyph-name="wcircumflex" unicode="&#x175;" horiz-adv-x="1499" 
d="M801 944l125 -362q102 -297 153 -496h33q50 192 156 504l121 354h88l-328 -944h-109l-147 424q-53 151 -133 436h-23q-63 -234 -133 -436l-145 -424h-109l-330 944h84l123 -354q121 -340 164 -504h35q50 196 149 496l123 362h103zM991 1079l-243 232l-244 -232l-41 41
l260 277h51l260 -277z" />
    <glyph glyph-name="Ycircumflex" unicode="&#x176;" horiz-adv-x="1062" 
d="M575 0h-86v440l-485 766v23h86l436 -721h15l432 721h84v-23l-482 -770v-436zM778 1339l-246 189l-247 -189l-37 45l258 224h51l258 -224z" />
    <glyph glyph-name="ycircumflex" unicode="&#x177;" horiz-adv-x="958" 
d="M152 -332q-62 0 -134 13l15 77q64 -12 119 -12q48 0 82.5 9t72 35t73.5 78t73 134l-445 942h94l148 -328q196 -440 235 -540h13q94 240 221 538l143 330h88l-426 -956q-76 -171 -163.5 -245.5t-208.5 -74.5zM721 1079l-244 232l-244 -232l-40 41l260 277h51l260 -277z
" />
    <glyph glyph-name="Ydieresis" unicode="&#x178;" horiz-adv-x="1062" 
d="M575 0h-86v440l-485 766v23h86l436 -721h15l432 721h84v-23l-482 -770v-436zM272 1505h136v-135h-136v135zM651 1505h135v-135h-135v135z" />
    <glyph glyph-name="Zacute" unicode="&#x179;" horiz-adv-x="1130" 
d="M1030 80v-80h-954v82l856 1077l-4 8q-250 -18 -463 -18h-363v80h928v-78l-862 -1079l6 -11q297 19 510 19h346zM369 1370l-15 51l514 185l29 -90z" />
    <glyph glyph-name="zacute" unicode="&#x17a;" horiz-adv-x="972" 
d="M604 78h275v-78h-793v80l696 801l-4 8q-212 -23 -450 -23h-224v78h764v-80l-692 -796l4 -11q258 21 424 21zM319 1081l-22 47l467 273l41 -74z" />
    <glyph glyph-name="Zdotaccent" unicode="&#x17b;" horiz-adv-x="1130" 
d="M1030 80v-80h-954v82l856 1077l-4 8q-250 -18 -463 -18h-363v80h928v-78l-862 -1079l6 -11q297 19 510 19h346zM483 1559h140v-138h-140v138z" />
    <glyph glyph-name="zdotaccent" unicode="&#x17c;" horiz-adv-x="972" 
d="M604 78h275v-78h-793v80l696 801l-4 8q-212 -23 -450 -23h-224v78h764v-80l-692 -796l4 -11q258 21 424 21zM414 1303h139v-138h-139v138z" />
    <glyph glyph-name="Zcaron" unicode="&#x17d;" horiz-adv-x="1130" 
d="M1030 80v-80h-954v82l856 1077l-4 8q-250 -18 -463 -18h-363v80h928v-78l-862 -1079l6 -11q297 19 510 19h346zM580 1346h-52l-258 223l37 45l248 -189l246 189l37 -45z" />
    <glyph glyph-name="zcaron" unicode="&#x17e;" horiz-adv-x="972" 
d="M604 78h275v-78h-793v80l696 801l-4 8q-212 -23 -450 -23h-224v78h764v-80l-692 -796l4 -11q258 21 424 21zM508 1090h-51l-260 276l43 41l243 -229l244 229l41 -41z" />
    <glyph glyph-name="Aringacute" unicode="&#x1fa;" horiz-adv-x="1163" 
d="M438 1589l-16 53l514 187l31 -96zM784 1354q0 -69 -33 -118.5t-92 -68.5l494 -1167h-92l-172 412h-617l-170 -412h-92l496 1169q-57 20 -88 68.5t-31 116.5q0 90 53.5 143t145.5 53t145 -53t53 -143zM367 639l-64 -152h553l-63 152q-119 283 -189 510h-41
q-118 -325 -196 -510zM465 1354q0 -53 25 -85t69 -40h53q45 8 71 40t26 85q0 61 -32.5 94t-90.5 33q-56 0 -88.5 -33t-32.5 -94z" />
    <glyph glyph-name="aringacute" unicode="&#x1fb;" horiz-adv-x="991" 
d="M354 1520l-14 53l481 178l31 -96zM397 66q166 0 267.5 79.5t101.5 202.5v88h-354q-244 0 -244 -192q0 -78 54.5 -128t174.5 -50zM770 8v225h-14q-34 -120 -130.5 -182.5t-232.5 -62.5q-307 0 -307 258q0 114 84 187t238 73h358v108q0 142 -61 211.5t-207 69.5
q-236 0 -295 -240l-80 27q34 140 131.5 215.5t243.5 75.5q350 0 350 -355v-610h-78zM371 1249q0 -61 32.5 -94t88.5 -33q58 0 90 33t32 94t-32 94t-90 33q-56 0 -88.5 -33t-32.5 -94zM690 1249q0 -90 -53 -143t-145 -53t-145.5 53t-53.5 143t53.5 143.5t145.5 53.5
t145 -53.5t53 -143.5z" />
    <glyph glyph-name="AEacute" unicode="&#x1fc;" horiz-adv-x="1726" 
d="M739 1370l-14 51l514 185l29 -90zM823 0v330h-512l-194 -330h-90v12l729 1217h852v-80h-699v-479h617v-80h-617v-510h697v-80h-783zM494 639l-138 -231h467v743h-43q-134 -254 -286 -512z" />
    <glyph glyph-name="aeacute" unicode="&#x1fd;" horiz-adv-x="1722" 
d="M401 57q166 0 267.5 80t101.5 203v94h-354q-244 0 -244 -198q0 -79 54.5 -129t174.5 -50zM1223 889q-164 0 -259.5 -95t-107.5 -274h709q-10 369 -342 369zM1638 289q-76 -309 -405 -309q-165 0 -276 78t-154 210q-20 -97 -82.5 -164t-144.5 -95.5t-179 -28.5
q-307 0 -307 258q0 117 84 191.5t238 74.5h358v102q0 142 -61 211.5t-207 69.5q-123 0 -195 -60t-102 -180l-80 27q35 140 133.5 215.5t243.5 75.5q302 0 340 -267q39 128 140.5 197.5t242.5 69.5q200 0 308.5 -118.5t108.5 -322.5q0 -49 -4 -78h-784q6 -182 104 -285.5
t273 -103.5q77 0 135 19.5t95.5 57t60 80.5t39.5 101zM702 1081l-22 47l467 273l41 -74z" />
    <glyph glyph-name="Oslashacute" unicode="&#x1fe;" horiz-adv-x="1341" 
d="M676 -20q-261 0 -420 153l-133 -133h-84v10l172 172q-133 171 -133 434q0 187 68.5 328.5t205 223t324.5 81.5q271 0 434 -166l143 146h78v-10l-180 -185q123 -168 123 -418q0 -186 -68 -328.5t-204.5 -225t-325.5 -82.5zM164 616q0 -233 106 -374l781 782
q-132 145 -375 145q-249 0 -380.5 -150t-131.5 -403zM500 1370l-15 51l514 185l29 -90zM676 59q127 0 225.5 41t160.5 116t94 176t32 224q0 216 -96 359l-779 -785q134 -131 363 -131z" />
    <glyph glyph-name="oslashacute" unicode="&#x1ff;" horiz-adv-x="1077" 
d="M539 -20q-205 0 -324 122l-102 -102h-86v12l143 142q-90 133 -90 323q0 226 126 357t333 131q199 0 321 -119l98 98h80v-10l-135 -139q94 -127 94 -318q0 -230 -122.5 -363.5t-335.5 -133.5zM539 887q-177 0 -276 -109t-99 -299q0 -158 65 -264l576 576q-104 96 -266 96z
M389 1081l-22 47l467 273l40 -74zM537 57q182 0 280 114t98 308q0 155 -67 258l-578 -579q101 -101 267 -101z" />
    <glyph glyph-name="uni0218" unicode="&#x218;" horiz-adv-x="1107" 
d="M586 -20q-228 1 -356 110.5t-160 312.5l84 19q29 -179 133 -271t299 -92q180 0 265 67.5t85 186.5q0 112 -80.5 173t-275.5 96q-241 45 -342 131.5t-101 220.5q0 143 106 229t304 86q100 0 175.5 -25t127.5 -74.5t84.5 -114t54.5 -152.5l-84 -19q-37 158 -116.5 231.5
t-243.5 73.5q-160 0 -242 -61t-82 -170q0 -104 81.5 -169t293.5 -107q238 -47 332 -129.5t94 -213.5q0 -157 -107 -248t-329 -91zM528 -123h88l-122 -303h-62v16z" />
    <glyph glyph-name="uni0219" unicode="&#x219;" horiz-adv-x="913" 
d="M494 -23q-191 0 -290 81.5t-138 242.5l79 16q15 -58 37.5 -100.5t61.5 -81t102 -58.5t148 -20q129 0 195.5 49.5t66.5 141.5q0 87 -68.5 129t-238.5 67q-169 26 -246.5 91t-77.5 172q0 116 84.5 187t241.5 71q158 0 238 -69.5t120 -209.5l-82 -20q-30 120 -96 170.5
t-180 50.5q-119 0 -181.5 -46t-62.5 -130q0 -76 64 -124t210 -69q186 -26 272.5 -90.5t86.5 -179.5q0 -124 -85.5 -197.5t-260.5 -73.5zM463 -123h88l-123 -303h-61v16z" />
    <glyph glyph-name="uni021A" unicode="&#x21a;" horiz-adv-x="1032" 
d="M35 1149v80h962v-80h-438v-1149h-86v1149h-438zM512 -123h88l-123 -303h-61v16z" />
    <glyph glyph-name="uni021B" unicode="&#x21b;" horiz-adv-x="704" 
d="M219 266v600h-172v78h172v285h82v-285h350v-78h-350v-604q0 -103 43.5 -155t136.5 -52q72 0 164 25l14 -72q-92 -28 -182 -28q-128 0 -193 76.5t-65 209.5zM369 -123h88l-123 -303h-62v16z" />
    <glyph glyph-name="circumflex" unicode="&#x2c6;" horiz-adv-x="653" 
d="M569 1079l-243 232l-244 -232l-41 41l260 277h51l260 -277z" />
    <glyph glyph-name="caron" unicode="&#x2c7;" horiz-adv-x="653" 
d="M352 1090h-51l-260 276l43 41l244 -229l243 229l41 -41z" />
    <glyph glyph-name="breve" unicode="&#x2d8;" horiz-adv-x="665" 
d="M334 1174q88 0 143.5 50t61.5 165h67q0 -144 -73.5 -217.5t-198.5 -73.5t-200 73.5t-75 217.5h70q10 -215 205 -215z" />
    <glyph glyph-name="dotaccent" unicode="&#x2d9;" horiz-adv-x="258" 
d="M59 1303h140v-138h-140v138z" />
    <glyph glyph-name="ring" unicode="&#x2da;" horiz-adv-x="585" 
d="M512 1292q0 -99 -59 -158t-160 -59t-160 59t-59 156q0 99 59 158t160 59t160 -59t59 -156zM152 1290q0 -68 37.5 -104.5t103.5 -36.5q67 0 105 37t38 106q0 68 -38 105t-105 37q-66 0 -103.5 -37.5t-37.5 -106.5z" />
    <glyph glyph-name="ogonek" unicode="&#x2db;" horiz-adv-x="434" 
d="M350 18l39 -18q-135 -28 -197.5 -66t-62.5 -96q0 -88 145 -88q36 0 113 17l8 -84q-73 -13 -127 -13q-111 0 -163 39t-52 107q0 152 297 202z" />
    <glyph glyph-name="tilde" unicode="&#x2dc;" horiz-adv-x="694" 
d="M205 1413q46 0 83.5 -23.5t61 -56.5t45 -66.5t47.5 -57t56 -23.5q48 0 66.5 52t15.5 169h63q6 -50 6 -90q0 -101 -41 -154t-110 -53q-44 0 -80 23.5t-60 57t-46 66.5t-48.5 56.5t-56.5 23.5q-54 0 -73 -47.5t-17 -165.5h-64q-6 50 -6 88q0 99 42 150t116 51z" />
    <glyph glyph-name="hungarumlaut" unicode="&#x2dd;" horiz-adv-x="708" 
d="M133 1075l-51 33l190 330l84 -56zM393 1077l-49 35l199 324l84 -58z" />
    <glyph glyph-name="Wgrave" unicode="&#x1e80;" horiz-adv-x="1691" 
d="M664 508l-154 -508h-141l-349 1229h97l168 -637q45 -172 131 -512h53q97 386 133 510l186 639h117l189 -641q69 -237 133 -508h49q60 251 131 512l170 637h94l-348 -1229h-137l-156 510q-108 359 -164 627h-39q-79 -333 -163 -629zM1008 1370l-529 150l27 82l516 -181z
" />
    <glyph glyph-name="wgrave" unicode="&#x1e81;" horiz-adv-x="1499" 
d="M801 944l125 -362q102 -297 153 -496h33q50 192 156 504l121 354h88l-328 -944h-109l-147 424q-53 151 -133 436h-23q-63 -234 -133 -436l-145 -424h-109l-330 944h84l123 -354q121 -340 164 -504h35q50 196 149 496l123 362h103zM920 1081l-488 242l45 80l465 -275z" />
    <glyph glyph-name="Wacute" unicode="&#x1e82;" horiz-adv-x="1691" 
d="M664 508l-154 -508h-141l-349 1229h97l168 -637q45 -172 131 -512h53q97 386 133 510l186 639h117l189 -641q69 -237 133 -508h49q60 251 131 512l170 637h94l-348 -1229h-137l-156 510q-108 359 -164 627h-39q-79 -333 -163 -629zM662 1370l-15 51l514 185l29 -90z" />
    <glyph glyph-name="wacute" unicode="&#x1e83;" horiz-adv-x="1499" 
d="M801 944l125 -362q102 -297 153 -496h33q50 192 156 504l121 354h88l-328 -944h-109l-147 424q-53 151 -133 436h-23q-63 -234 -133 -436l-145 -424h-109l-330 944h84l123 -354q121 -340 164 -504h35q50 196 149 496l123 362h103zM586 1081l-23 47l467 273l41 -74z" />
    <glyph glyph-name="Wdieresis" unicode="&#x1e84;" horiz-adv-x="1691" 
d="M664 508l-154 -508h-141l-349 1229h97l168 -637q45 -172 131 -512h53q97 386 133 510l186 639h117l189 -641q69 -237 133 -508h49q60 251 131 512l170 637h94l-348 -1229h-137l-156 510q-108 359 -164 627h-39q-79 -333 -163 -629zM588 1505h135v-135h-135v135zM967 1505
h135v-135h-135v135z" />
    <glyph glyph-name="wdieresis" unicode="&#x1e85;" horiz-adv-x="1499" 
d="M801 944l125 -362q102 -297 153 -496h33q50 192 156 504l121 354h88l-328 -944h-109l-147 424q-53 151 -133 436h-23q-63 -234 -133 -436l-145 -424h-109l-330 944h84l123 -354q121 -340 164 -504h35q50 196 149 496l123 362h103zM489 1272h136v-135h-136v135zM868 1272
h136v-135h-136v135z" />
    <glyph glyph-name="uni1E9E" unicode="&#x1e9e;" horiz-adv-x="1206" 
d="M834 -20q-157 0 -254.5 65t-133.5 184l72 35q67 -205 316 -205q109 0 165 49.5t56 141.5q0 48 -17.5 85t-53.5 64t-69.5 44t-87.5 38q-130 53 -177 84q-115 76 -115 201q0 31 9 61.5t20 55.5t34.5 53t40 47t49.5 44.5t49 38t52.5 35.5t47 29.5t44.5 26.5l-11 23
q-167 -25 -305 -25q-73 0 -129 -19t-89.5 -50t-55 -75t-29.5 -89t-8 -97v-825h-86v836q0 192 104.5 292.5t305.5 100.5h376v-76q-333 -186 -333 -375q0 -43 17 -76.5t53.5 -60t70 -43.5t88.5 -39q147 -60 219 -128t72 -179q0 -55 -17 -102.5t-52 -86t-96 -61t-142 -22.5z
" />
    <glyph glyph-name="endash" unicode="&#x2013;" horiz-adv-x="974" 
d="M51 537h873v-78h-873v78z" />
    <glyph glyph-name="emdash" unicode="&#x2014;" horiz-adv-x="1761" 
d="M51 537h1659v-78h-1659v78z" />
    <glyph glyph-name="quoteleft" unicode="&#x2018;" horiz-adv-x="354" 
d="M172 694h-94l149 535h52v-12z" />
    <glyph glyph-name="quoteright" unicode="&#x2019;" horiz-adv-x="354" 
d="M182 1229h94l-149 -535h-51v13z" />
    <glyph glyph-name="quotesinglbase" unicode="&#x201a;" horiz-adv-x="344" 
d="M172 215h94l-149 -534h-51v12z" />
    <glyph glyph-name="quotedblleft" unicode="&#x201c;" horiz-adv-x="643" 
d="M193 694h-95l150 535h51v-12zM481 694h-94l150 535h51v-12z" />
    <glyph glyph-name="quotedblright" unicode="&#x201d;" horiz-adv-x="641" 
d="M182 1229h94l-149 -535h-51v13zM471 1229h94l-149 -535h-51v13z" />
    <glyph glyph-name="quotedblbase" unicode="&#x201e;" horiz-adv-x="610" 
d="M131 215h94l-149 -534h-51v12zM420 215h94l-149 -534h-52v12z" />
    <glyph glyph-name="dagger" unicode="&#x2020;" horiz-adv-x="1097" 
d="M592 -430h-86v1296h-348v-426h-86v504h434v428h86v-428h434v-504h-86v426h-348v-1296z" />
    <glyph glyph-name="daggerdbl" unicode="&#x2021;" horiz-adv-x="1118" 
d="M516 1372h86v-305h434v-401h-86v323h-348v-911h348v323h86v-401h-434v-430h-86v430h-434v401h86v-323h348v911h-348v-323h-86v401h434v305z" />
    <glyph glyph-name="bullet" unicode="&#x2022;" horiz-adv-x="509" 
d="M137 618h236v-237h-236v237z" />
    <glyph glyph-name="ellipsis" unicode="&#x2026;" horiz-adv-x="1062" 
d="M104 150h148v-150h-148v150zM459 150h147v-150h-147v150zM813 150h148v-150h-148v150z" />
    <glyph glyph-name="perthousand" unicode="&#x2030;" horiz-adv-x="2158" 
d="M1815 -20q-140 0 -224 91.5t-84 247.5q0 154 83.5 243t224.5 89q139 0 222 -89t83 -243q0 -156 -83 -247.5t-222 -91.5zM1812 53q113 0 172.5 71.5t59.5 194.5q0 121 -60 191t-169 70q-112 0 -172 -69.5t-60 -191.5q0 -124 57 -195t172 -71zM389 578q-140 0 -223.5 92
t-83.5 248q0 154 83 242.5t224 88.5q139 0 222 -88.5t83 -242.5q0 -156 -83 -248t-222 -92zM387 651q114 0 172.5 71t58.5 196q0 122 -59 191t-170 69t-171 -69t-60 -191q0 -125 57.5 -196t171.5 -71zM1094 -20q-140 0 -224 91.5t-84 247.5q0 154 83.5 243t224.5 89
q139 0 222 -89t83 -243q0 -156 -83 -247.5t-222 -91.5zM1092 53q114 0 172.5 71t58.5 195q0 122 -59 191.5t-170 69.5t-171.5 -69.5t-60.5 -191.5q0 -124 58 -195t172 -71zM1217 1229h94v-12l-475 -523l-48 45zM272 0h-94v12l475 523l47 -43z" />
    <glyph glyph-name="guilsinglleft" unicode="&#x2039;" horiz-adv-x="759" 
d="M682 72h-82l-549 434v47l549 432h82v-22l-545 -428v-13l545 -428v-22z" />
    <glyph glyph-name="guilsinglright" unicode="&#x203a;" horiz-adv-x="768" 
d="M168 55h-82v23l547 430v8l-547 430v23h82l549 -432v-48z" />
    <glyph glyph-name="fraction" unicode="&#x2044;" horiz-adv-x="40" 
d="M496 1229h94v-12l-475 -523l-47 45zM-449 0h-94v12l475 523l48 -43z" />
    <glyph glyph-name="Euro" unicode="&#x20ac;" horiz-adv-x="1318" 
d="M711 -20q-217 0 -349.5 126t-166.5 349h-154v77h145q-4 54 -4 84q0 47 2 70h-143v78h152q34 226 169 355.5t351 129.5q205 0 332.5 -119t166.5 -327l-82 -21q-80 387 -415 387q-187 0 -296.5 -106t-139.5 -299h397v-78h-406q-2 -23 -2 -70q0 -30 4 -84h404v-77h-395
q31 -189 140.5 -292.5t291.5 -103.5q181 0 284.5 102.5t141.5 299.5l82 -21q-38 -215 -167 -337.5t-343 -122.5z" />
    <glyph glyph-name="uni2116" unicode="&#x2116;" horiz-adv-x="2138" 
d="M1335 352h668v-78h-668v78zM1671 588q130 0 197 80.5t67 218.5q0 134 -67.5 209t-194.5 75t-194.5 -75t-67.5 -209q0 -139 65.5 -219t194.5 -80zM1673 510q-158 0 -252 101.5t-94 273.5q0 169 93.5 266.5t252.5 97.5t252.5 -97.5t93.5 -266.5q0 -172 -94 -273.5
t-252 -101.5zM1004 0l-476 729q-114 174 -239 410h-51q16 -224 16 -598v-541h-86v1229h137l422 -649q190 -296 281 -471h45q-17 265 -17 583v537h86v-1229h-118z" />
    <glyph glyph-name="trademark" unicode="&#x2122;" horiz-adv-x="1773" 
d="M51 1159v70h627v-70h-275v-637h-77v637h-275zM901 778v-256h-78v707h148l88 -195q133 -295 164 -387h20q55 135 168 387l90 195h129v-707h-78v256q0 74 4.5 214.5t4.5 160.5h-27q-67 -176 -156 -367l-102 -219h-80l-100 213q-107 224 -174 373h-27q6 -312 6 -375z" />
    <glyph glyph-name="uni2190" unicode="&#x2190;" horiz-adv-x="1533" 
d="M72 559v66l684 575l47 -61q-320 -270 -658 -508l5 -10q328 12 704 12h608v-80h-608q-326 0 -704 14l-7 -12q360 -254 660 -510l-51 -59z" />
    <glyph glyph-name="arrowup" unicode="&#x2191;" horiz-adv-x="1396" 
d="M666 1298h65l576 -682l-62 -49q-283 335 -508 660l-10 -6q12 -320 12 -705v-608h-80v608q0 305 15 705l-12 6q-250 -355 -510 -660l-60 51z" />
    <glyph glyph-name="uni2192" unicode="&#x2192;" horiz-adv-x="1533" 
d="M1462 625v-66l-682 -575l-49 61q293 250 660 508l-5 12q-324 -12 -706 -12h-608v80h608q304 0 704 -15l9 13q-316 213 -662 508l51 59z" />
    <glyph glyph-name="arrowdown" unicode="&#x2193;" horiz-adv-x="1396" 
d="M733 -72h-65l-576 684l62 47q140 -164 278 -344.5t230 -314.5l10 6q-13 351 -13 705v608h80v-608q0 -327 -14 -705l12 -6q245 352 510 659l60 -51z" />
    <glyph glyph-name="minus" unicode="&#x2212;" horiz-adv-x="1015" 
d="M944 584h-872v78h872v-78z" />
    <glyph glyph-name="uni25A0" unicode="&#x25a0;" 
d="M74 -244q4 283 4 848t-4 848q283 -6 848 -6q564 0 847 6q-4 -283 -4 -848t4 -848q-424 6 -847 6t-848 -6z" />
    <glyph glyph-name="uni25B2" unicode="&#x25b2;" 
d="M154 0v8l768 1264h8l762 -1264v-8h-1538z" />
    <glyph glyph-name="uni25B3" unicode="&#x25b3;" 
d="M154 0v8l768 1264h8l762 -1264v-8h-1538zM926 82q260 0 669 -31l4 8q-388 532 -669 1119h-6q-291 -601 -672 -1117l6 -10q391 31 668 31z" />
    <glyph glyph-name="uni25B6" unicode="&#x25b6;" 
d="M369 1391h8l1263 -768v-9l-1263 -761h-8v1538z" />
    <glyph glyph-name="uni25B7" unicode="&#x25b7;" 
d="M369 1391h8l1263 -768v-9l-1263 -761h-8v1538zM451 618q0 -260 -31 -669l8 -4q534 389 1118 669v7q-602 291 -1116 671l-10 -6q31 -391 31 -668z" />
    <glyph glyph-name="uni25BC" unicode="&#x25bc;" 
d="M1690 1229v-8l-768 -1264h-9l-761 1264v8h1538z" />
    <glyph glyph-name="uni25BD" unicode="&#x25bd;" 
d="M1589 1167l-6 11q-391 -31 -668 -31q-260 0 -669 31l-4 -9q389 -534 669 -1118h7q291 602 671 1116zM150 1229h1538v-8l-768 -1264h-9l-761 1264v8z" />
    <glyph glyph-name="uni25C0" unicode="&#x25c0;" 
d="M1475 1391h-9l-1263 -768v-9l1263 -761h9v1538z" />
    <glyph glyph-name="uni25C1" unicode="&#x25c1;" 
d="M1466 1391h9v-1538h-9l-1263 761v9zM1393 618q0 290 30 668l-10 6q-514 -380 -1116 -671v-7q584 -280 1118 -669l8 4q-30 396 -30 669z" />
    <glyph glyph-name="uni25C6" unicode="&#x25c6;" 
d="M922 -395q-483 521 -990 989q540 502 990 989q457 -493 989 -989q-500 -461 -989 -989z" />
    <glyph glyph-name="uni25CF" unicode="&#x25cf;" 
d="M-6 602q0 284 112.5 494t323 322t494.5 112q427 0 676 -249.5t249 -678.5t-249 -678.5t-676 -249.5q-284 0 -494.5 112t-323 322t-112.5 494z" />
    <glyph glyph-name="uni2605" unicode="&#x2605;" 
d="M1448 -160l-526 305l-523 -305l-6 4l125 592l-450 404l2 8l604 63l244 553h8l243 -553l605 -63l2 -8l-451 -404l125 -592z" />
    <glyph glyph-name="uni2610" unicode="&#x2610;" 
d="M1489 0h-1133v1133h1133v-1133zM434 567q0 -210 -14 -504q319 15 504 15q184 0 503 -15q-16 269 -16 504t16 504q-298 -14 -503 -14q-206 0 -504 14q14 -294 14 -504z" />
    <glyph glyph-name="uni2611" unicode="&#x2611;" 
d="M618 616l52 62q11 -12 49 -51t54.5 -56.5t49 -52.5t52.5 -58.5t44 -54.5t42 -59q201 377 638 987l76 -53q-357 -431 -692 -995h-47q-65 87 -136.5 160t-181.5 171zM356 0v1133h881v-5l-45 -69q-45 0 -134 -1t-134 -1q-206 0 -504 14q14 -294 14 -504t-14 -504
q319 15 504 15q184 0 503 -15q-16 331 -16 621l74 104h4v-788h-1133z" />
    <glyph glyph-name="uni2612" unicode="&#x2612;" 
d="M1489 0h-1133v1133h1133v-1133zM1180 260q-155 162 -258 291q-96 -121 -254 -291l-58 55q179 167 293 254q-30 23 -59.5 47t-50.5 41.5t-50.5 43.5t-44 39t-46 42t-42.5 39l58 58q176 -193 256 -291q96 120 256 291l55 -58q-169 -157 -293 -252q134 -102 293 -254z
M434 567q0 -210 -14 -504q319 15 504 15q184 0 503 -15q-16 269 -16 504t16 504q-298 -14 -503 -14q-206 0 -504 14q14 -294 14 -504z" />
    <glyph glyph-name="uni2661" unicode="&#x2661;" 
d="M551 360q265 -189 367 -362h12q102 174 366 362q179 127 272 252.5t93 282.5q0 151 -80 245.5t-248 94.5q-159 0 -245 -103.5t-132 -306.5h-65q-46 203 -132 306.5t-245 103.5q-168 0 -248 -94.5t-80 -245.5q0 -157 93 -282.5t272 -252.5zM920 -111q-61 107 -154 193.5
t-246 198.5q-78 55 -138 105.5t-114 110t-89.5 118.5t-56 128t-20.5 142q0 204 108 318t296 114q163 0 259 -78t146 -244h23q48 165 144 243.5t261 78.5q185 0 293.5 -114.5t108.5 -317.5q0 -91 -30 -174t-88.5 -157.5t-129 -138.5t-168.5 -134q-152 -110 -245 -197
t-152 -195h-8z" />
    <glyph glyph-name="uni2726" unicode="&#x2726;" 
d="M1690 616v-24q-276 -85 -473.5 -284.5t-284.5 -471.5h-23q-88 272 -284.5 471.5t-472.5 284.5v24q276 85 472.5 284.5t284.5 471.5h23q87 -272 284.5 -471.5t473.5 -284.5z" />
    <glyph glyph-name="uni2727" unicode="&#x2727;" 
d="M1692 606v-8q-276 -85 -476.5 -287.5t-287.5 -474.5h-8q-87 272 -288.5 475.5t-477.5 288.5v8q276 85 476 288t288 476h8q88 -273 289 -477t477 -289zM1530 600v12q-223 84 -369.5 229t-232.5 371h-10q-86 -226 -232.5 -371t-370.5 -229v-12q225 -86 371.5 -230.5
t231.5 -371.5h10q86 227 232 373t370 229z" />
    <glyph glyph-name="uni2728" unicode="&#x2728;" 
d="M1255 424v-8q-225 -70 -387.5 -234.5t-232.5 -386.5h-10q-70 222 -234.5 387.5t-390.5 235.5v8q226 70 390 235t235 388h8q72 -223 235 -389t387 -236zM625 -74h8q71 183 189.5 302.5t301.5 189.5v10q-184 72 -302.5 190.5t-188.5 301.5h-8q-70 -183 -189.5 -301
t-302.5 -191v-10q182 -71 302 -190.5t190 -301.5zM1194 1204v-10q-103 -32 -176.5 -107.5t-106.5 -179.5h-10q-31 103 -105.5 179t-179.5 110v8q104 32 177 108t108 181h8q33 -104 107.5 -180.5t177.5 -108.5zM1116 1198v4q-153 57 -207 209h-4q-57 -155 -207 -209v-4
q150 -54 207 -207h4q28 79 78 129t129 78zM1843 784q-170 -52 -293 -176t-176 -293h-8q-53 169 -177 293t-296 178v9q171 52 293.5 176.5t177.5 294.5h8q53 -169 177 -294t294 -179v-9zM1729 786v9q-134 51 -220 137t-137 219h-6q-51 -133 -137 -219t-217 -137v-9
q131 -51 217 -137t137 -217h6q51 132 137 217.5t220 136.5z" />
    <glyph glyph-name="uni2764" unicode="&#x2764;" 
d="M920 -111q-61 107 -154 193.5t-246 198.5q-78 55 -138 105.5t-114 110t-89.5 118.5t-56 128t-20.5 142q0 204 108 318t296 114q163 0 259 -78t146 -244h23q48 165 144 243.5t261 78.5q185 0 293.5 -114.5t108.5 -317.5q0 -91 -30 -174t-88.5 -157.5t-129 -138.5
t-168.5 -134q-152 -110 -245 -197t-152 -195h-8z" />
    <glyph glyph-name="uni2780" unicode="&#x2780;" horiz-adv-x="1771" 
d="M885 -104q178 0 317 54.5t227 153t133.5 231t45.5 292.5q0 159 -46 290.5t-134.5 229t-227 151.5t-315.5 54q-176 0 -314 -54t-226.5 -151t-134.5 -229t-46 -291q0 -160 45.5 -292.5t133.5 -231t226.5 -153t315.5 -54.5zM885 1430q191 0 344.5 -59.5t253.5 -166.5
t153.5 -254t53.5 -323q0 -177 -53 -325.5t-153 -256.5t-253.5 -168.5t-345.5 -60.5q-191 0 -344 60.5t-253 168.5t-153 256.5t-53 325.5q0 236 91.5 416t275 283.5t436.5 103.5zM1196 188h-621v74h302v737q-75 -33 -285 -112l-29 71l352 111h43v-807h238v-74z" />
    <glyph glyph-name="uni2781" unicode="&#x2781;" horiz-adv-x="1771" 
d="M885 -104q178 0 317 54.5t227 153t133.5 231t45.5 292.5q0 159 -46 290.5t-134.5 229t-227 151.5t-315.5 54q-176 0 -314 -54t-226.5 -151t-134.5 -229t-46 -291q0 -160 45.5 -292.5t133.5 -231t226.5 -153t315.5 -54.5zM885 1430q191 0 344.5 -59.5t253.5 -166.5
t153.5 -254t53.5 -323q0 -177 -53 -325.5t-153 -256.5t-253.5 -168.5t-345.5 -60.5q-191 0 -344 60.5t-253 168.5t-153 256.5t-53 325.5q0 236 91.5 416t275 283.5t436.5 103.5zM901 1012q-136 0 -210 -68t-105 -196l-80 16q89 319 393 319q153 0 235.5 -63.5t82.5 -185.5
q0 -60 -24 -106.5t-73.5 -81.5t-109 -60t-146.5 -51q-181 -54 -243 -110.5t-66 -172.5q260 10 395 10h285v-74h-754v58q0 143 80 220t266 132q172 51 240 101.5t68 136.5q0 176 -234 176z" />
    <glyph glyph-name="uni2782" unicode="&#x2782;" horiz-adv-x="1771" 
d="M885 -104q178 0 317 54.5t227 153t133.5 231t45.5 292.5q0 159 -46 290.5t-134.5 229t-227 151.5t-315.5 54q-176 0 -314 -54t-226.5 -151t-134.5 -229t-46 -291q0 -160 45.5 -292.5t133.5 -231t226.5 -153t315.5 -54.5zM885 1430q191 0 344.5 -59.5t253.5 -166.5
t153.5 -254t53.5 -323q0 -177 -53 -325.5t-153 -256.5t-253.5 -168.5t-345.5 -60.5q-191 0 -344 60.5t-253 168.5t-153 256.5t-53 325.5q0 236 91.5 416t275 283.5t436.5 103.5zM883 172q-324 0 -410 297l80 18q37 -123 114.5 -184t215.5 -61q142 0 213 47.5t71 134.5
q0 92 -56 132t-208 40h-164v70h158q97 0 159 42t62 130t-54 131t-175 43q-122 0 -190 -57.5t-103 -176.5l-74 17q67 286 367 286q309 0 309 -231q0 -164 -199 -209v-14q139 -12 193.5 -59.5t54.5 -145.5q0 -116 -90.5 -183t-273.5 -67z" />
    <glyph glyph-name="uni2783" unicode="&#x2783;" horiz-adv-x="1771" 
d="M885 -104q178 0 317 54.5t227 153t133.5 231t45.5 292.5q0 159 -46 290.5t-134.5 229t-227 151.5t-315.5 54q-176 0 -314 -54t-226.5 -151t-134.5 -229t-46 -291q0 -160 45.5 -292.5t133.5 -231t226.5 -153t315.5 -54.5zM885 1430q191 0 344.5 -59.5t253.5 -166.5
t153.5 -254t53.5 -323q0 -177 -53 -325.5t-153 -256.5t-253.5 -168.5t-345.5 -60.5q-191 0 -344 60.5t-253 168.5t-153 256.5t-53 325.5q0 236 91.5 416t275 283.5t436.5 103.5zM1245 414h-162v-226h-84v226h-602v61l600 594h86v-586h162v-69zM844 483h155v490l-8 2
l-493 -492l8 -14q191 14 338 14z" />
    <glyph glyph-name="uni2784" unicode="&#x2784;" horiz-adv-x="1771" 
d="M885 -104q178 0 317 54.5t227 153t133.5 231t45.5 292.5q0 159 -46 290.5t-134.5 229t-227 151.5t-315.5 54q-176 0 -314 -54t-226.5 -151t-134.5 -229t-46 -291q0 -160 45.5 -292.5t133.5 -231t226.5 -153t315.5 -54.5zM885 1430q191 0 344.5 -59.5t253.5 -166.5
t153.5 -254t53.5 -323q0 -177 -53 -325.5t-153 -256.5t-253.5 -168.5t-345.5 -60.5q-191 0 -344 60.5t-253 168.5t-153 256.5t-53 325.5q0 236 91.5 416t275 283.5t436.5 103.5zM903 246q139 0 201.5 52.5t62.5 156.5q0 102 -65.5 148t-204.5 46q-78 0 -153.5 -18
t-116.5 -43l-66 22v459h635v-74q-343 0 -561 11v-373q120 82 280 82q162 0 248 -64.5t86 -195.5q0 -138 -89 -209.5t-263 -71.5q-149 0 -247 57.5t-179 180.5l72 39q63 -101 145 -153t215 -52z" />
    <glyph glyph-name="uni2785" unicode="&#x2785;" horiz-adv-x="1771" 
d="M913 662q-158 0 -244.5 -60.5t-86.5 -146.5q0 -90 81.5 -150.5t225.5 -60.5q278 0 278 225q0 193 -254 193zM885 -104q178 0 317 54.5t227 153t133.5 231t45.5 292.5q0 159 -46 290.5t-134.5 229t-227 151.5t-315.5 54q-176 0 -314 -54t-226.5 -151t-134.5 -229t-46 -291
q0 -160 45.5 -292.5t133.5 -231t226.5 -153t315.5 -54.5zM885 1430q191 0 344.5 -59.5t253.5 -166.5t153.5 -254t53.5 -323q0 -177 -53 -325.5t-153 -256.5t-253.5 -168.5t-345.5 -60.5q-191 0 -344 60.5t-253 168.5t-153 256.5t-53 325.5q0 236 91.5 416t275 283.5
t436.5 103.5zM1249 467q0 -137 -93 -215t-271 -78q-393 0 -393 418q0 110 22 197.5t69 154.5t127 103t189 36q157 0 232.5 -70t99.5 -200l-74 -12q-28 111 -85.5 162t-174.5 51q-171 0 -253.5 -105.5t-82.5 -320.5v-39h19q34 81 121 129.5t225 48.5q92 0 162 -24.5
t115.5 -84.5t45.5 -151z" />
    <glyph glyph-name="uni2786" unicode="&#x2786;" horiz-adv-x="1771" 
d="M885 -104q178 0 317 54.5t227 153t133.5 231t45.5 292.5q0 159 -46 290.5t-134.5 229t-227 151.5t-315.5 54q-176 0 -314 -54t-226.5 -151t-134.5 -229t-46 -291q0 -160 45.5 -292.5t133.5 -231t226.5 -153t315.5 -54.5zM885 1430q191 0 344.5 -59.5t253.5 -166.5
t153.5 -254t53.5 -323q0 -177 -53 -325.5t-153 -256.5t-253.5 -168.5t-345.5 -60.5q-191 0 -344 60.5t-253 168.5t-153 256.5t-53 325.5q0 236 91.5 416t275 283.5t436.5 103.5zM485 997v72h787v-72q-371 -334 -418 -809h-86q22 219 135.5 436.5t298.5 385.5
q-200 -13 -440 -13h-277z" />
    <glyph glyph-name="uni2787" unicode="&#x2787;" horiz-adv-x="1771" 
d="M883 598q-87 0 -149 -15.5t-93 -43t-44 -57t-13 -64.5q0 -176 299 -176q152 0 227.5 45.5t75.5 130.5q0 28 -7.5 52t-28.5 48.5t-54 41.5t-87.5 27.5t-125.5 10.5zM883 1016q-252 0 -252 -174q0 -89 68.5 -132t183.5 -46q117 3 185.5 46t68.5 132q0 174 -254 174z
M885 -104q178 0 317 54.5t227 153t133.5 231t45.5 292.5q0 159 -46 290.5t-134.5 229t-227 151.5t-315.5 54q-176 0 -314 -54t-226.5 -151t-134.5 -229t-46 -291q0 -160 45.5 -292.5t133.5 -231t226.5 -153t315.5 -54.5zM885 1430q191 0 344.5 -59.5t253.5 -166.5
t153.5 -254t53.5 -323q0 -177 -53 -325.5t-153 -256.5t-253.5 -168.5t-345.5 -60.5q-191 0 -344 60.5t-253 168.5t-153 256.5t-53 325.5q0 236 91.5 416t275 283.5t436.5 103.5zM883 174q-381 0 -381 242q0 185 274 211v14q-228 42 -225 211q2 107 84.5 169t247.5 62
q166 0 250 -62t84 -169q0 -169 -224 -211v-14q273 -30 273 -211q0 -242 -383 -242z" />
    <glyph glyph-name="uni2788" unicode="&#x2788;" horiz-adv-x="1771" 
d="M856 592q153 0 237.5 61.5t84.5 149.5q0 90 -79.5 149.5t-219.5 59.5q-138 0 -207.5 -63t-69.5 -163q0 -194 254 -194zM885 -104q178 0 317 54.5t227 153t133.5 231t45.5 292.5q0 159 -46 290.5t-134.5 229t-227 151.5t-315.5 54q-176 0 -314 -54t-226.5 -151
t-134.5 -229t-46 -291q0 -160 45.5 -292.5t133.5 -231t226.5 -153t315.5 -54.5zM885 1430q191 0 344.5 -59.5t253.5 -166.5t153.5 -254t53.5 -323q0 -177 -53 -325.5t-153 -256.5t-253.5 -168.5t-345.5 -60.5q-191 0 -344 60.5t-253 168.5t-153 256.5t-53 325.5
q0 236 91.5 416t275 283.5t436.5 103.5zM879 174q-321 0 -367 279l76 10q33 -215 291 -215q163 0 241 103.5t78 316.5v39h-14q-89 -181 -346 -181q-64 0 -119 15t-99.5 45t-70 82t-25.5 120q0 130 95 212.5t262 82.5q185 0 286 -97.5t101 -319.5q0 -110 -21 -197.5t-66 -155
t-121.5 -103.5t-180.5 -36z" />
    <glyph glyph-name="uni2789" unicode="&#x2789;" horiz-adv-x="1763" 
d="M831 190h-456v74h219v737q-87 -38 -211 -79l-27 71l277 78h41v-807h157v-74zM1130 1012q-188 0 -188 -379q0 -383 188 -383q191 0 191 383q0 379 -191 379zM1130 1085q134 0 202.5 -120t68.5 -332t-68.5 -334.5t-202.5 -122.5t-202 122t-68 335q0 212 68 332t202 120z
M885 -104q178 0 317 54.5t227 153t133.5 231t45.5 292.5q0 159 -46 290.5t-134.5 229t-227 151.5t-315.5 54q-176 0 -314 -54t-226.5 -151t-134.5 -229t-46 -291q0 -160 45.5 -292.5t133.5 -231t226.5 -153t315.5 -54.5zM885 1430q191 0 344.5 -59.5t253.5 -166.5
t153.5 -254t53.5 -323q0 -177 -53 -325.5t-153 -256.5t-253.5 -168.5t-345.5 -60.5q-191 0 -344 60.5t-253 168.5t-153 256.5t-53 325.5q0 236 91.5 416t275 283.5t436.5 103.5z" />
    <glyph glyph-name="uni278A" unicode="&#x278a;" horiz-adv-x="1771" 
d="M578 262v-74h620v74h-240v807h-40l-353 -111l29 -71q210 79 285 112v-737h-301zM885 1430q191 0 344.5 -59.5t253.5 -166.5t153.5 -254t53.5 -323q0 -177 -53 -325.5t-153 -256.5t-253.5 -168.5t-345.5 -60.5q-191 0 -344 60.5t-253 168.5t-153 256.5t-53 325.5
q0 236 91.5 416t275 283.5t436.5 103.5z" />
    <glyph glyph-name="uni278B" unicode="&#x278b;" horiz-adv-x="1771" 
d="M901 1014q234 0 234 -176q0 -86 -68 -136.5t-240 -101.5q-186 -55 -266 -132t-80 -220v-58h754v74h-285q-225 0 -395 -10q4 116 66 172.5t243 110.5q87 26 146.5 51t109 60t73.5 81.5t24 106.5q0 122 -82.5 185.5t-235.5 63.5q-304 0 -393 -319l80 -16q31 128 105 196
t210 68zM885 1430q191 0 344.5 -59.5t253.5 -166.5t153.5 -254t53.5 -323q0 -177 -53 -325.5t-153 -256.5t-253.5 -168.5t-345.5 -60.5q-191 0 -344 60.5t-253 168.5t-153 256.5t-53 325.5q0 236 91.5 416t275 283.5t436.5 103.5z" />
    <glyph glyph-name="uni278C" unicode="&#x278c;" horiz-adv-x="1771" 
d="M883 172q183 0 273.5 67t90.5 183q0 98 -54.5 145.5t-193.5 59.5v14q199 45 199 209q0 231 -309 231q-300 0 -367 -286l74 -17q33 118 102 176t191 58q121 0 175 -43t54 -131t-62 -130t-159 -42h-158v-70h164q152 0 208 -40t56 -132q0 -87 -71 -134.5t-213 -47.5
q-140 0 -217.5 61t-112.5 184l-80 -18q86 -297 410 -297zM885 1430q191 0 344.5 -59.5t253.5 -166.5t153.5 -254t53.5 -323q0 -177 -53 -325.5t-153 -256.5t-253.5 -168.5t-345.5 -60.5q-191 0 -344 60.5t-253 168.5t-153 256.5t-53 325.5q0 236 91.5 416t275 283.5
t436.5 103.5z" />
    <glyph glyph-name="uni278D" unicode="&#x278d;" horiz-adv-x="1771" 
d="M1245 414v69h-162v586h-86l-600 -594v-61h602v-226h84v226h162zM844 483q-120 0 -338 -12l-8 12l493 492l8 -2v-490h-155zM885 1430q191 0 344.5 -59.5t253.5 -166.5t153.5 -254t53.5 -323q0 -177 -53 -325.5t-153 -256.5t-253.5 -168.5t-345.5 -60.5q-191 0 -344 60.5
t-253 168.5t-153 256.5t-53 325.5q0 236 91.5 416t275 283.5t436.5 103.5z" />
    <glyph glyph-name="uni278E" unicode="&#x278e;" horiz-adv-x="1771" 
d="M903 246q-133 0 -216 52.5t-144 152.5l-72 -39q81 -124 178.5 -181t247.5 -57q174 0 263 71.5t89 209.5q0 131 -86 195.5t-248 64.5q-164 0 -280 -82v373q214 -11 561 -11v74h-635v-459l66 -22q41 25 116.5 43t153.5 18q139 0 204.5 -46t65.5 -148q0 -104 -62.5 -156.5
t-201.5 -52.5zM885 1430q191 0 344.5 -59.5t253.5 -166.5t153.5 -254t53.5 -323q0 -177 -53 -325.5t-153 -256.5t-253.5 -168.5t-345.5 -60.5q-191 0 -344 60.5t-253 168.5t-153 256.5t-53 325.5q0 236 91.5 416t275 283.5t436.5 103.5z" />
    <glyph glyph-name="uni278F" unicode="&#x278f;" horiz-adv-x="1771" 
d="M1249 467q0 91 -45.5 151t-115.5 84.5t-162 24.5q-139 0 -226.5 -48t-121.5 -130h-17q0 245 80 355t256 110q116 0 174 -51t84 -162l74 12q-22 129 -98 199.5t-232 70.5q-109 0 -189 -36t-127 -103t-69 -154.5t-22 -197.5q0 -418 393 -418q178 0 271 78t93 215zM913 662
q254 0 254 -193q0 -225 -278 -225q-144 0 -225.5 60.5t-81.5 150.5q0 86 86.5 146.5t244.5 60.5zM885 1430q191 0 344.5 -59.5t253.5 -166.5t153.5 -254t53.5 -323q0 -177 -53 -325.5t-153 -256.5t-253.5 -168.5t-345.5 -60.5q-191 0 -344 60.5t-253 168.5t-153 256.5
t-53 325.5q0 236 91.5 416t275 283.5t436.5 103.5z" />
    <glyph glyph-name="uni2790" unicode="&#x2790;" horiz-adv-x="1771" 
d="M485 997h277q211 0 438 15q-184 -170 -298 -388.5t-134 -435.5h86q47 475 418 809v72h-787v-72zM885 1430q191 0 344.5 -59.5t253.5 -166.5t153.5 -254t53.5 -323q0 -177 -53 -325.5t-153 -256.5t-253.5 -168.5t-345.5 -60.5q-191 0 -344 60.5t-253 168.5t-153 256.5
t-53 325.5q0 236 91.5 416t275 283.5t436.5 103.5z" />
    <glyph glyph-name="uni2791" unicode="&#x2791;" horiz-adv-x="1771" 
d="M883 174q383 0 383 242q0 83 -64 139t-211 70v16q226 42 226 211q0 107 -84 169t-250 62q-165 0 -247.5 -62t-84.5 -169q-3 -169 223 -211v-16q-272 -26 -272 -209q0 -242 381 -242zM883 1016q252 0 252 -174q0 -171 -252 -178q-116 3 -185 45.5t-69 132.5q3 174 254 174
zM883 598q88 0 150 -16t93.5 -43.5t44.5 -56.5t13 -64q0 -176 -301 -176t-301 176q0 35 13.5 64.5t45 56.5t93.5 43t149 16zM885 1430q191 0 344.5 -59.5t253.5 -166.5t153.5 -254t53.5 -323q0 -177 -53 -325.5t-153 -256.5t-253.5 -168.5t-345.5 -60.5q-191 0 -344 60.5
t-253 168.5t-153 256.5t-53 325.5q0 236 91.5 416t275 283.5t436.5 103.5z" />
    <glyph glyph-name="uni2792" unicode="&#x2792;" horiz-adv-x="1771" 
d="M1268 666q0 222 -101 319.5t-286 97.5q-167 0 -262 -82.5t-95 -212.5q0 -68 25.5 -120t70 -82t99.5 -45t119 -15q138 0 223 50.5t123 130.5h14q0 -241 -75 -351t-244 -110q-258 0 -291 217l-76 -10q43 -279 367 -279q104 0 180.5 36t121.5 103.5t66 155t21 197.5z
M856 592q-254 0 -254 194q0 100 69.5 162t207.5 62q140 0 219.5 -58.5t79.5 -148.5q0 -88 -84.5 -149.5t-237.5 -61.5zM885 1430q191 0 344.5 -59.5t253.5 -166.5t153.5 -254t53.5 -323q0 -177 -53 -325.5t-153 -256.5t-253.5 -168.5t-345.5 -60.5q-191 0 -344 60.5
t-253 168.5t-153 256.5t-53 325.5q0 236 91.5 416t275 283.5t436.5 103.5z" />
    <glyph glyph-name="uni2793" unicode="&#x2793;" horiz-adv-x="1763" 
d="M1130 1085q-134 0 -202 -120t-68 -332q0 -213 68 -335t202 -122t202.5 122.5t68.5 334.5t-68.5 332t-202.5 120zM375 264v-74h456v74h-157v807h-41l-277 -78l27 -71q121 40 211 82v-740h-219zM1130 1012q191 0 191 -379q0 -383 -191 -383q-188 0 -188 383q0 379 188 379z
M885 1430q191 0 344.5 -59.5t253.5 -166.5t153.5 -254t53.5 -323q0 -177 -53 -325.5t-153 -256.5t-253.5 -168.5t-345.5 -60.5q-191 0 -344 60.5t-253 168.5t-153 256.5t-53 325.5q0 236 91.5 416t275 283.5t436.5 103.5z" />
    <glyph glyph-name="uni279A" unicode="&#x279a;" 
d="M1327 723v-723h-1067v1067h727v-2l-72 -72q-155 0 -591 13q12 -304 12 -455q0 -160 -12 -488q355 13 487 13q121 0 455 -13q-15 362 -15 578l74 82h2zM1620 1372l25 -22v-764h-80q3 186 16 393t27 311l-11 4q-197 -215 -653 -676l-278 -276l-56 53l279 279
q160 160 367 358.5t311 292.5l-4 10q-147 -30 -674 -43v80h731z" />
    <glyph glyph-name="uni2B1B" unicode="&#x2b1b;" 
d="M1489 0h-1133v1133h1133v-1133z" />
    <glyph glyph-name="uni2B1C" unicode="&#x2b1c;" 
d="M1489 0h-1133v1133h1133v-1133zM434 567q0 -210 -14 -504q319 15 504 15q184 0 503 -15q-16 269 -16 504t16 504q-298 -14 -503 -14q-206 0 -504 14q14 -294 14 -504z" />
    <glyph glyph-name="commaaccent" unicode="&#xf6c3;" horiz-adv-x="350" 
d="M168 -123h88l-123 -303h-61v16z" />
    <glyph glyph-name="uniF8FF" unicode="&#xf8ff;" horiz-adv-x="2635" 
d="M1942 16q-13 -30 -123 -30l-50 2q9 212 13 508.5t8 406.5q-52 -160 -110.5 -387t-93.5 -364.5t-48 -147.5q-14 -12 -43 -12q-13 0 -50.5 5t-64.5 7q4 127 4 420q-63 2 -190 2q2 -51 2 -164q0 -244 -20 -256q-12 -10 -54 -10q-22 0 -59 3t-45 3h-6q14 232 14 422
q-30 0 -84 -1t-78 -1v-92q0 -57 1 -146.5t1 -111.5q0 -37 -2 -41q-10 -26 -39 -33.5t-123 -9.5q-2 59 -2 162q0 71 5 266q-114 -4 -132 -4q-54 -92 -120 -214.5t-95 -193.5q-14 4 -45 4q-20 0 -41.5 -2.5t-33.5 -5.5l-11 -2q-5 51 -32 102q-8 16 -98 156t-95 160
q-4 16 -4 24q0 34 27 90q-11 22 -11 50q0 35 17 98q12 38 47.5 121.5t93 213t92.5 212.5q68 0 144 20q90 -231 180 -667q10 -1 121 -5v25q0 41 -1 160t-1 182q0 239 16 262q16 29 147 31q-6 -123 -6 -236q0 -70 2 -191t2 -171v-64q25 0 78 -1t80 -1q0 183 -3 357.5t-3 185.5
q0 52 4 69.5t16 26.5q16 13 78 13h64q0 -27 -1 -78.5t-1 -75.5q0 -168 10 -496q114 3 194 9q0 53 -1 149.5t-1 138.5q0 321 17 344q20 29 86 29q14 0 40.5 -2t35.5 -2q-17 -121 -17 -541v-164q203 673 250 697q16 8 61 8l95 -6q-6 -147 -6 -350q0 -132 3 -370.5t3 -315.5
q0 -166 -8 -179zM2359 948q-24 -71 -68.5 -181t-71 -181.5t-26.5 -96.5v-4q2 -29 70 -141.5t80 -140.5q29 68 59 143t45 116l15 40q-23 127 -60.5 273.5t-42.5 172.5zM143 520q0 -16 24.5 -60.5t64.5 -116t65 -128.5q24 63 58 136.5t52.5 115.5t18.5 61v4q-1 23 -36 178.5
t-60 252.5q-187 -404 -187 -443zM2292 1245q24 -12 57 -12q40 0 61 24q149 -474 226 -763q-187 -488 -246 -500q-6 -2 -18 -2q-46 0 -136 37q-1 35 -23 87.5t-45 91t-58.5 94.5t-43.5 69q-22 40 -22 61q0 12 4.5 21.5t12.5 18.5t10 13q6 9 6 21q0 28 -35 37q187 458 250 702
z" />
    <glyph glyph-name="fi" unicode="&#xfb01;" horiz-adv-x="1142" 
d="M332 1018v-74h350v-78h-350v-866h-82v866h-203v78h203v74q0 150 73.5 233.5t213.5 83.5q68 0 151 -18l-6 -76q-85 16 -145 16q-111 0 -158 -59.5t-47 -179.5zM963 0h-82v944h82v-944zM983 1176h-123v120h123v-120z" />
    <glyph glyph-name="fl" unicode="&#xfb02;" horiz-adv-x="1120" 
d="M332 1018v-74h350v-78h-350v-866h-82v866h-203v78h203v74q0 150 73.5 233.5t213.5 83.5q68 0 151 -18l-6 -76q-85 16 -145 16q-111 0 -158 -59.5t-47 -179.5zM954 1315v-1315h-82v1315h82z" />
    <glyph glyph-name="exclamdown.case" horiz-adv-x="468" 
d="M193 807h86v-807h-86v807zM309 1079h-147v150h147v-150z" />
    <glyph glyph-name="questiondown.case" horiz-adv-x="985" 
d="M328 657q45 20 74.5 45t42.5 53t17.5 51t4.5 52v21h86v-21q0 -92 -40.5 -151.5t-139.5 -110.5q-129 -64 -177.5 -122t-48.5 -159q0 -124 77 -190t227 -66q181 0 276.5 98.5t122.5 293.5l86 -11q-29 -215 -148 -337.5t-335 -122.5q-188 0 -290 88t-102 247q0 67 21 122.5
t60.5 96t83.5 69.5t102 54zM582 1079h-148v150h148v-150z" />
    <glyph glyph-name="periodcentered.case" horiz-adv-x="413" 
d="M133 694h148v-149h-148v149z" />
    <glyph glyph-name="bullet.case" horiz-adv-x="509" 
d="M137 739h236v-237h-236v237z" />
    <glyph glyph-name="guillemotleft.case" horiz-adv-x="1234" 
d="M682 172h-82l-549 434v47l549 432h82v-22l-545 -428v-12l545 -428v-23zM1149 172h-82l-549 434v47l549 432h82v-22l-545 -428v-12l545 -428v-23z" />
    <glyph glyph-name="guillemotright.case" horiz-adv-x="1234" 
d="M635 156h-82v22l547 430v8l-547 431v22h82l549 -432v-47zM168 156h-82v22l547 430v8l-547 431v22h82l549 -432v-47z" />
    <glyph glyph-name="guilsinglleft.case" horiz-adv-x="778" 
d="M682 174h-82l-549 434v47l549 432h82v-22l-545 -428v-12l545 -428v-23z" />
    <glyph glyph-name="guilsinglright.case" horiz-adv-x="768" 
d="M168 156h-82v22l547 430v8l-547 431v22h82l549 -432v-47z" />
    <glyph glyph-name="hyphen.case" horiz-adv-x="716" 
d="M51 659h615v-86h-615v86z" />
    <glyph glyph-name="endash.case" horiz-adv-x="974" 
d="M51 659h873v-77h-873v77z" />
    <glyph glyph-name="emdash.case" horiz-adv-x="1761" 
d="M51 659h1659v-77h-1659v77z" />
    <glyph glyph-name="parenleft.case" horiz-adv-x="653" 
d="M143 610q0 240 86.5 441t274.5 379l47 -48q-171 -171 -246.5 -359.5t-75.5 -412.5q0 -226 75 -416t247 -362l-47 -47q-189 180 -275 381.5t-86 443.5z" />
    <glyph glyph-name="parenright.case" horiz-adv-x="653" 
d="M510 629q0 -242 -86 -443t-274 -379l-48 48q170 172 246 361t76 413t-75.5 413.5t-246.5 362.5l48 47q188 -180 274 -381t86 -442z" />
    <glyph glyph-name="bracketleft.case" horiz-adv-x="559" 
d="M156 -150v1530h342v-77h-256v-1375h256v-78h-342z" />
    <glyph glyph-name="bracketright.case" horiz-adv-x="559" 
d="M61 -141v78h256v1374h-256v78h342v-1530h-342z" />
    <glyph glyph-name="braceleft.case" horiz-adv-x="731" 
d="M670 -217q-99 -6 -125 -6q-140 0 -212.5 57t-72.5 160q0 56 29 116.5t64 105t64 100t29 102.5q0 81 -65.5 119t-198.5 38h-137v78h137q114 0 189 44t75 132q0 43 -27.5 95t-60.5 93t-60.5 97t-27.5 107q0 103 72.5 160t212.5 57q26 0 125 -6l-4 -74q-86 4 -119 4
q-107 0 -155 -33t-48 -106q0 -43 25.5 -93t56.5 -89.5t56.5 -94t25.5 -104.5q0 -93 -64 -146.5t-190 -74.5v-13q134 -14 194 -61.5t60 -140.5q0 -45 -18 -91.5t-43.5 -85.5t-51 -77t-43.5 -79.5t-18 -80.5q0 -73 48 -106t155 -33q33 0 119 4z" />
    <glyph glyph-name="braceright.case" horiz-adv-x="731" 
d="M61 1450q99 6 125 6q140 0 212.5 -57t72.5 -160q0 -55 -29 -115.5t-64 -105t-64 -100t-29 -101.5q0 -81 65.5 -119.5t198.5 -38.5h137v-77h-137q-114 0 -189 -44t-75 -132q0 -43 27.5 -95t60.5 -93t60.5 -97t27.5 -107q0 -103 -72.5 -160t-212.5 -57q-26 0 -125 6l4 74
q86 -4 119 -4q107 0 155 33t48 106q0 35 -17 73.5t-41 73.5t-48 70.5t-41 78.5t-17 85q0 93 64 146.5t190 74.5v13q-134 14 -194 61.5t-60 140.5q0 45 18 91t43.5 85t51 77t43.5 79.5t18 79.5q0 73 -48 106t-155 33q-32 0 -118 -4z" />
    <glyph glyph-name="zero.osf" horiz-adv-x="1144" 
d="M580 1008q-201 0 -305.5 -126t-104.5 -347t103.5 -349.5t306.5 -128.5q201 0 305 128.5t104 349.5t-104 347t-305 126zM580 1085q235 0 365 -149t130 -401q0 -253 -129 -404t-366 -151q-238 0 -367 150.5t-129 404.5q0 253 129.5 401.5t366.5 148.5z" />
    <glyph glyph-name="one.osf" horiz-adv-x="964" 
d="M885 0h-783v78h390v919q-36 -22 -90.5 -47.5t-85.5 -38t-108 -42t-87 -33.5l-31 77l442 154h46v-989h307v-78z" />
    <glyph glyph-name="two.osf" horiz-adv-x="1138" 
d="M627 1008q-357 0 -396 -365l-84 10q20 197 140.5 314.5t337.5 117.5q194 0 295.5 -80.5t101.5 -238.5q0 -129 -101 -211t-339 -145q-163 -43 -247.5 -87t-119.5 -104t-37 -158q177 17 508 17h363v-78h-949v70q0 86 25 149.5t81.5 111t135.5 81t197 63.5q161 42 247.5 84
t118 89.5t31.5 119.5q0 240 -309 240z" />
    <glyph glyph-name="three.osf" horiz-adv-x="1136" 
d="M598 -182q-223 0 -353 109.5t-169 314.5l84 16q33 -182 139 -272t299 -90q173 0 266.5 71.5t93.5 200.5q0 88 -29 141t-105.5 82t-211.5 29h-209v78h199q126 0 209.5 64t83.5 192q0 136 -73 196t-228 60q-158 0 -247 -80.5t-122 -237.5l-80 19q34 177 144.5 276.5
t302.5 99.5q389 0 389 -321q0 -230 -244 -293v-18q172 -17 239.5 -84t67.5 -203q0 -165 -110.5 -257.5t-335.5 -92.5z" />
    <glyph glyph-name="four.osf" horiz-adv-x="1173" 
d="M1126 156h-211v-318h-86v318h-774v77l774 834h86v-834h211v-77zM545 233h284v717l-10 2l-661 -716l10 -19q190 16 377 16z" />
    <glyph glyph-name="five.osf" horiz-adv-x="1163" 
d="M618 -104q176 0 264.5 76t88.5 239q0 145 -87.5 213t-267.5 68q-98 0 -196 -27.5t-148 -63.5l-77 29v637h794v-80q-332 0 -715 14v-536q62 45 154 73.5t201 28.5q428 0 428 -356q0 -197 -118.5 -295t-324.5 -98q-191 0 -318.5 84.5t-209.5 265.5l80 39q64 -153 172 -232
t280 -79z" />
    <glyph glyph-name="six.osf" horiz-adv-x="1140" 
d="M623 678q-105 0 -190 -26t-137.5 -70t-80 -98.5t-27.5 -114.5q0 -133 107.5 -222.5t294.5 -89.5q366 0 366 340q0 281 -333 281zM1042 395q0 -192 -117 -303.5t-341 -111.5q-496 0 -496 598q0 152 27 271t85.5 210.5t158 140.5t235.5 49q102 0 176.5 -25t124.5 -75
t80.5 -116.5t48.5 -158.5l-82 -16q-33 162 -113 237.5t-235 75.5q-218 0 -324 -147t-106 -442q0 -68 2 -119l16 -2q33 140 146.5 217.5t302.5 77.5q86 0 158 -20.5t130 -62.5t90.5 -113t32.5 -165z" />
    <glyph glyph-name="seven.osf" horiz-adv-x="1050" 
d="M29 989v78h995v-80q-245 -244 -378.5 -537t-162.5 -612h-88q28 305 170 616t373 552q-197 -17 -471 -17h-438z" />
    <glyph glyph-name="eight.osf" horiz-adv-x="1144" 
d="M571 -20q-481 0 -481 335q0 54 17 99.5t55 87t107.5 70t164.5 38.5v23q-137 25 -209 100t-71 195q2 148 106 234.5t311 86.5q208 0 313 -87t105 -234q0 -240 -278 -295v-25q182 -19 262 -99t80 -194q0 -335 -482 -335zM571 582q-93 0 -164.5 -16t-114 -41.5t-69.5 -61.5
t-37 -71.5t-10 -76.5q0 -124 99 -191t296 -67t296.5 67t99.5 191q0 41 -10 76.5t-37 71.5t-70 61.5t-114.5 41.5t-164.5 16zM571 1171q-328 0 -331 -256q0 -130 91 -194t240 -66q149 2 240.5 66t91.5 194q0 120 -80 188t-252 68z" />
    <glyph glyph-name="nine.osf" horiz-adv-x="1140" 
d="M516 399q203 0 315.5 88.5t112.5 210.5q0 133 -105.5 222.5t-289.5 89.5q-187 0 -276 -88.5t-89 -241.5q0 -281 332 -281zM549 -182q-212 0 -325 95t-146 280l82 16q58 -313 389 -313q420 0 420 589q0 68 -2 119l-21 2q-34 -133 -143.5 -208.5t-294.5 -75.5
q-85 0 -157 20t-129.5 61.5t-90.5 113t-33 165.5q0 183 118.5 294t336.5 111q491 0 491 -598q0 -120 -16.5 -220t-53.5 -184.5t-94 -143t-141 -91t-190 -32.5z" />
    <glyph glyph-name="zero.tf" horiz-adv-x="1220" 
d="M610 1171q-103 0 -182 -40.5t-128 -115t-74 -175t-25 -224.5t24.5 -224.5t73.5 -176t128 -117t183 -41.5q205 0 307.5 152t102.5 407q0 167 -42.5 289t-136 194t-231.5 72zM610 1249q160 0 273.5 -82t168 -223t54.5 -328t-54 -328t-167.5 -224.5t-274.5 -83.5
q-160 0 -273 83.5t-167.5 225t-54.5 327.5q0 187 55 328t168 223t272 82z" />
    <glyph glyph-name="one.tf" horiz-adv-x="1249" 
d="M1085 0h-946v80h465v1071q-45 -24 -109.5 -52.5t-105.5 -45.5t-126.5 -50.5t-104.5 -41.5l-31 77l518 191h45v-1149h395v-80z" />
    <glyph glyph-name="two.tf" horiz-adv-x="1249" 
d="M674 1171q-176 0 -274.5 -98.5t-127.5 -306.5l-79 16q35 225 154 346t325 121q194 0 298.5 -88.5t104.5 -251.5q0 -83 -29.5 -147t-91 -113t-135.5 -84t-184 -73q-239 -82 -319.5 -166t-84.5 -260q230 12 457 12h414v-78h-948v70q0 104 24.5 179t81 132t134.5 97t198 79
q213 69 305 148.5t92 205.5q0 120 -78 190t-237 70z" />
    <glyph glyph-name="three.tf" horiz-adv-x="1249" 
d="M655 -20q-223 0 -353 109t-169 314l84 17q33 -182 139 -272.5t299 -90.5q173 0 267 72t94 201q0 88 -29 141t-105.5 82t-211.5 29h-209v77h198q126 0 209.5 64t83.5 192q0 136 -73 196t-228 60q-158 0 -246.5 -80t-121.5 -237l-80 18q34 177 144 277t302 100
q389 0 389 -321q0 -230 -243 -293v-19q172 -17 239.5 -83.5t67.5 -202.5q0 -165 -111 -257.5t-336 -92.5z" />
    <glyph glyph-name="four.tf" horiz-adv-x="1173" 
d="M1126 317h-211v-317h-86v317h-774v78l774 834h86v-834h211v-78zM545 395h284v717l-10 2l-661 -717l10 -18q190 16 377 16z" />
    <glyph glyph-name="five.tf" horiz-adv-x="1249" 
d="M653 57q176 0 264.5 76.5t88.5 239.5q0 145 -87.5 212.5t-267.5 67.5q-98 0 -196 -27t-148 -63l-78 29v637h795v-80q-332 0 -715 14v-536q62 45 154 73.5t201 28.5q428 0 428 -356q0 -197 -118.5 -295t-324.5 -98q-191 0 -318.5 84.5t-209.5 265.5l80 39
q65 -153 172.5 -232.5t279.5 -79.5z" />
    <glyph glyph-name="six.tf" horiz-adv-x="1249" 
d="M674 678q-105 0 -190 -26t-137 -70t-79.5 -98.5t-27.5 -114.5q0 -133 107 -222.5t294 -89.5q367 0 367 340q0 281 -334 281zM1094 395q0 -192 -117.5 -303.5t-341.5 -111.5q-496 0 -496 598q0 152 27 271t85.5 210.5t158 140.5t235.5 49q102 0 176.5 -25t124.5 -75
t80.5 -116.5t48.5 -158.5l-82 -16q-33 162 -113 237.5t-235 75.5q-218 0 -324 -147t-106 -442q0 -68 2 -119l16 -2q33 140 146.5 217.5t302.5 77.5q86 0 158.5 -20.5t130 -62.5t90.5 -113t33 -165z" />
    <glyph glyph-name="seven.tf" horiz-adv-x="1249" 
d="M123 1151v78h995v-80q-245 -244 -378 -537t-162 -612h-89q28 305 170 615.5t373 551.5q-185 -16 -471 -16h-438z" />
    <glyph glyph-name="eight.tf" horiz-adv-x="1249" 
d="M625 -20q-482 0 -482 335q0 54 17 99.5t55 87t107.5 70t164.5 38.5v23q-137 25 -209 100t-71 195q2 148 106.5 234.5t311.5 86.5q208 0 312.5 -87t104.5 -234q0 -240 -278 -295v-25q182 -19 262 -99t80 -194q0 -335 -481 -335zM625 582q-93 0 -164.5 -16t-114.5 -41.5
t-70 -61.5t-37 -71.5t-10 -76.5q0 -124 99.5 -191t296.5 -67t296 67t99 191q0 41 -10 76.5t-37 71.5t-69.5 61.5t-114 41.5t-164.5 16zM625 1171q-329 0 -332 -256q0 -130 91.5 -194t240.5 -66q149 2 240 66t91 194q0 256 -331 256z" />
    <glyph glyph-name="nine.tf" horiz-adv-x="1249" 
d="M553 561q203 0 315.5 88.5t112.5 210.5q0 133 -105.5 222t-289.5 89q-187 0 -276 -88t-89 -241q0 -281 332 -281zM586 -20q-212 0 -325 94.5t-146 279.5l82 17q58 -314 389 -314q420 0 420 590q0 68 -2 119l-21 2q-34 -133 -143.5 -209t-294.5 -76q-85 0 -157 20.5
t-129.5 62t-90.5 113t-33 165.5q0 183 118.5 294t336.5 111q491 0 491 -598q0 -120 -16.5 -220t-53.5 -184.5t-94 -143t-141 -91t-190 -32.5z" />
    <glyph glyph-name="zero.tosf" horiz-adv-x="1234" 
d="M618 1008q-201 0 -305 -126t-104 -347q0 -222 103 -350t306 -128q201 0 305.5 128.5t104.5 349.5t-104.5 347t-305.5 126zM618 1085q235 0 365.5 -149t130.5 -401q0 -253 -129.5 -404t-366.5 -151q-238 0 -366.5 150.5t-128.5 404.5q0 253 129 401.5t366 148.5z" />
    <glyph glyph-name="one.tosf" horiz-adv-x="1249" 
d="M1085 0h-946v78h465v919q-36 -22 -78 -44t-96 -45t-87.5 -36.5t-99.5 -39.5t-85 -33l-31 78l518 190h45v-989h395v-78z" />
    <glyph glyph-name="two.tosf" horiz-adv-x="1249" 
d="M684 1008q-356 0 -395 -365l-84 10q20 197 140 314.5t337 117.5q194 0 295.5 -80.5t101.5 -238.5q0 -129 -101 -211t-339 -145q-162 -43 -246.5 -87t-119.5 -104t-37 -158q177 17 507 17h363v-78h-948v70q0 86 25 149.5t81 111t135 81t197 63.5q161 42 247.5 84t118 89.5
t31.5 119.5q0 240 -309 240z" />
    <glyph glyph-name="three.tosf" horiz-adv-x="1249" 
d="M655 -182q-223 0 -353 109.5t-169 314.5l84 16q33 -182 139 -272t299 -90q173 0 267 71.5t94 200.5q0 88 -29 141t-105.5 82t-211.5 29h-209v78h198q126 0 209.5 64t83.5 192q0 136 -73 196t-228 60q-158 0 -246.5 -80.5t-121.5 -237.5l-80 19q34 177 144 276.5t302 99.5
q389 0 389 -321q0 -230 -243 -293v-18q172 -17 239.5 -84t67.5 -203q0 -165 -111 -257.5t-336 -92.5z" />
    <glyph glyph-name="four.tosf" horiz-adv-x="1249" 
d="M1126 156h-211v-318h-86v318h-774v77l774 834h86v-834h211v-77zM545 233h284v717l-10 2l-661 -716l10 -19q190 16 377 16z" />
    <glyph glyph-name="five.tosf" horiz-adv-x="1249" 
d="M653 -104q176 0 264.5 76t88.5 239q0 145 -87.5 213t-267.5 68q-98 0 -196 -27.5t-148 -63.5l-78 29v637h795v-80q-332 0 -715 14v-536q62 45 154 73.5t201 28.5q428 0 428 -356q0 -197 -118.5 -295t-324.5 -98q-191 0 -318.5 84.5t-209.5 265.5l80 39q64 -153 172 -232
t280 -79z" />
    <glyph glyph-name="six.tosf" horiz-adv-x="1249" 
d="M674 678q-105 0 -190 -26t-137 -70t-79.5 -98.5t-27.5 -114.5q0 -133 107 -222.5t294 -89.5q367 0 367 340q0 281 -334 281zM1094 395q0 -192 -117.5 -303.5t-341.5 -111.5q-496 0 -496 598q0 152 27 271t85.5 210.5t158 140.5t235.5 49q102 0 176.5 -25t124.5 -75
t80.5 -116.5t48.5 -158.5l-82 -16q-33 162 -113 237.5t-235 75.5q-218 0 -324 -147t-106 -442q0 -68 2 -119l16 -2q33 140 146.5 217.5t302.5 77.5q86 0 158.5 -20.5t130 -62.5t90.5 -113t33 -165z" />
    <glyph glyph-name="seven.tosf" horiz-adv-x="1249" 
d="M123 989v78h995v-80q-245 -244 -378 -537t-162 -612h-89q28 305 170 616t373 552q-197 -17 -471 -17h-438z" />
    <glyph glyph-name="eight.tosf" horiz-adv-x="1249" 
d="M625 -20q-482 0 -482 335q0 54 17 99.5t55 87t107.5 70t164.5 38.5v23q-137 25 -209 100t-71 195q2 148 106.5 234.5t311.5 86.5q208 0 312.5 -87t104.5 -234q0 -240 -278 -295v-25q182 -19 262 -99t80 -194q0 -335 -481 -335zM625 582q-93 0 -164.5 -16t-114.5 -41.5
t-70 -61.5t-37 -71.5t-10 -76.5q0 -124 99.5 -191t296.5 -67t296 67t99 191q0 41 -10 76.5t-37 71.5t-69.5 61.5t-114 41.5t-164.5 16zM625 1171q-329 0 -332 -256q0 -130 91.5 -194t240.5 -66q149 2 240 66t91 194q0 256 -331 256z" />
    <glyph glyph-name="nine.tosf" horiz-adv-x="1249" 
d="M553 399q203 0 315.5 88.5t112.5 210.5q0 133 -105.5 222.5t-289.5 89.5q-187 0 -276 -88.5t-89 -241.5q0 -281 332 -281zM586 -182q-212 0 -325 95t-146 280l82 16q58 -313 389 -313q420 0 420 589q0 68 -2 119l-21 2q-34 -133 -143.5 -208.5t-294.5 -75.5
q-85 0 -157 20t-129.5 61.5t-90.5 113t-33 165.5q0 183 118.5 294t336.5 111q491 0 491 -598q0 -120 -16.5 -220t-53.5 -184.5t-94 -143t-141 -91t-190 -32.5z" />
    <glyph glyph-name="dollar.osf" horiz-adv-x="991" 
d="M469 1319h82l-8 -254q148 -11 225.5 -88.5t112.5 -214.5l-82 -19q-33 129 -105.5 187.5t-204.5 58.5q-129 0 -198.5 -50.5t-69.5 -143.5q0 -82 70.5 -133.5t243.5 -79.5q204 -33 292 -103.5t88 -189.5q0 -131 -92.5 -210t-281.5 -79l8 -254h-82l8 256q-343 28 -403 354
l78 15q61 -293 385 -293q149 0 224 53.5t75 153.5q0 98 -74 145t-250 76q-198 33 -284.5 103.5t-86.5 181.5q0 123 88.5 198t249.5 78z" />
    <glyph glyph-name="sterling.osf" horiz-adv-x="1085" 
d="M999 0h-907v78h213q31 99 31 235q0 44 -14 109h-226v78h203q-51 163 -51 262q0 146 82.5 234.5t242.5 88.5q167 0 251 -85t114 -242l-80 -13q-30 135 -95.5 199t-189.5 64q-126 0 -182.5 -68.5t-56.5 -171.5q0 -101 51 -268h477v-78h-454q14 -65 14 -109q0 -123 -37 -235
h614v-78z" />
    <glyph glyph-name="Euro.osf" horiz-adv-x="1191" 
d="M649 -20q-190 0 -306.5 107.5t-147.5 297.5h-154v78h143q-2 23 -2 69q0 30 4 84h-145v78h156q36 183 154 287t302 104t300 -104t149 -285l-78 -18q-69 330 -371 330q-314 0 -379 -314h402v-78h-412q-4 -54 -4 -84q0 -46 2 -69h414v-78h-404q28 -157 123 -242.5t256 -85.5
q163 0 254.5 85t126.5 255l78 -16q-33 -188 -150 -294.5t-311 -106.5z" />
    <glyph glyph-name="yen.osf" horiz-adv-x="1122" 
d="M1042 309h-436v-309h-86v309h-440v78h426l-133 193h-293v77h239l-264 387v23h84l414 -633h20l410 633h84v-23l-262 -387h237v-77h-288l-131 -193h419v-78z" />
    <glyph glyph-name="a.sc" horiz-adv-x="1081" 
d="M979 0l-154 348h-571l-154 -348h-88l477 1067h103l475 -1067h-88zM344 555l-57 -131h504l-58 131q-117 267 -168 434h-45q-53 -139 -176 -434z" />
    <glyph glyph-name="b.sc" horiz-adv-x="1058" 
d="M602 500h-360v-422h374q144 0 216.5 56.5t72.5 154.5q0 103 -71 157t-232 54zM594 991h-352v-416h340q118 0 189 51t71 162q0 103 -59 153t-189 50zM158 0v1067h426q342 0 342 -272q0 -99 -56 -161.5t-155 -84.5v-14q133 -15 203.5 -77t70.5 -171q0 -132 -91.5 -209.5
t-279.5 -77.5h-460z" />
    <glyph glyph-name="c.sc" horiz-adv-x="1181" 
d="M598 -18q-250 0 -386 149.5t-136 403.5q0 253 138.5 401.5t387.5 148.5q205 0 333 -104t163 -285l-78 -20q-37 161 -141.5 246.5t-274.5 85.5q-219 0 -331.5 -126t-112.5 -347q0 -222 112 -348t328 -126q355 0 426 340l80 -16q-35 -189 -164 -296t-344 -107z" />
    <glyph glyph-name="d.sc" horiz-adv-x="1191" 
d="M547 989h-305v-909h319q245 0 360 120t115 337q0 230 -118.5 341t-370.5 111zM158 0v1067h401q277 0 419 -135.5t142 -394.5q0 -252 -148 -394.5t-403 -142.5h-411z" />
    <glyph glyph-name="e.sc" horiz-adv-x="993" 
d="M158 0v1067h725v-78h-641v-403h565v-78h-565v-428h639v-80h-723z" />
    <glyph glyph-name="f.sc" horiz-adv-x="925" 
d="M776 481h-534v-481h-84v1067h692v-78h-608v-430h534v-78z" />
    <glyph glyph-name="g.sc" horiz-adv-x="1214" 
d="M602 -18q-251 0 -391.5 138t-140.5 400q0 258 136.5 411.5t395.5 153.5q208 0 334 -104.5t162 -290.5l-78 -16q-41 169 -144 251.5t-272 82.5q-233 0 -341.5 -129t-108.5 -359q0 -217 112.5 -338t343.5 -121q95 0 169 19.5t120 51.5t76 78t41.5 95t11.5 107v30h-418v78
h498v-520h-80v250h-12q-40 -119 -142.5 -193.5t-271.5 -74.5z" />
    <glyph glyph-name="h.sc" horiz-adv-x="1206" 
d="M1049 0h-84v494h-723v-494h-84v1067h84v-494h723v494h84v-1067z" />
    <glyph glyph-name="i.sc" horiz-adv-x="397" 
d="M242 0h-84v1067h84v-1067z" />
    <glyph glyph-name="j.sc" horiz-adv-x="571" 
d="M332 252v815h84v-815q0 -266 -250 -266q-53 0 -135 10l4 82q68 -12 127 -12q90 0 130 46.5t40 139.5z" />
    <glyph glyph-name="k.sc" horiz-adv-x="1042" 
d="M932 0l-592 471h-98v-471h-84v1067h84v-520h92l565 520h94v-18l-590 -535l627 -494v-20h-98z" />
    <glyph glyph-name="l.sc" horiz-adv-x="854" 
d="M158 1067h84v-987h567v-80h-651v1067z" />
    <glyph glyph-name="m.sc" horiz-adv-x="1470" 
d="M242 596v-596h-84v1067h153l256 -563q75 -172 146 -348h41q94 244 145 350l262 561h152v-1067h-84v596q0 229 6 395h-43q-72 -185 -174 -409l-238 -512h-104l-236 516q-100 225 -164 405h-36q2 -56 2 -395z" />
    <glyph glyph-name="n.sc" horiz-adv-x="1196" 
d="M924 0l-428 621q-120 176 -222 358h-49q17 -205 17 -518v-461h-84v1067h133l381 -553q166 -243 258 -410l41 2q-15 257 -15 502v459h84v-1067h-116z" />
    <glyph glyph-name="o.sc" horiz-adv-x="1247" 
d="M625 -18q-261 0 -406 152.5t-145 400.5t145.5 399t405.5 151t404.5 -150.5t144.5 -399.5q0 -163 -62 -286.5t-187.5 -195t-299.5 -71.5zM625 61q228 0 346.5 129t118.5 345t-119 344.5t-346 128.5q-228 0 -347.5 -128.5t-119.5 -344.5t118.5 -345t348.5 -129z" />
    <glyph glyph-name="p.sc" horiz-adv-x="972" 
d="M559 989h-317v-477h319q150 0 218.5 57t68.5 181q0 128 -64.5 183.5t-224.5 55.5zM569 434h-327v-434h-84v1067h411q363 0 363 -315q0 -147 -94.5 -232.5t-268.5 -85.5z" />
    <glyph glyph-name="q.sc" horiz-adv-x="1247" 
d="M625 61q228 0 346.5 129t118.5 345t-119 344.5t-346 128.5q-228 0 -347.5 -128.5t-119.5 -344.5t118.5 -345t348.5 -129zM625 -18q-261 0 -406 152.5t-145 400.5t145.5 399t405.5 151t404.5 -150.5t144.5 -399.5q0 -155 -58 -276.5t-170 -192.5l144 -224v-20h-82
l-125 211q-111 -51 -258 -51z" />
    <glyph glyph-name="r.sc" horiz-adv-x="1099" 
d="M578 989h-336v-442h338q146 0 216 54.5t70 164.5q0 113 -65 168t-223 55zM922 0l-381 469h-299v-469h-84v1067h428q186 0 275 -80t89 -223q0 -127 -79 -204t-236 -89l379 -451v-20h-92z" />
    <glyph glyph-name="s.sc" horiz-adv-x="1026" 
d="M543 -18q-211 1 -328.5 96t-146.5 270l82 19q27 -153 120.5 -230.5t272.5 -77.5q164 0 241.5 56.5t77.5 156.5q0 95 -74 147t-253 83q-221 38 -313.5 113.5t-92.5 193.5q0 127 97 201.5t280 74.5q93 0 163.5 -21.5t118 -64.5t77.5 -99.5t50 -133.5l-81 -16
q-34 134 -106.5 196t-223.5 62q-146 0 -220.5 -51.5t-74.5 -143.5q0 -44 15.5 -77t54 -62.5t106 -52.5t168.5 -41q149 -28 237 -72t122 -98.5t34 -130.5q0 -138 -98.5 -217.5t-304.5 -79.5z" />
    <glyph glyph-name="t.sc" horiz-adv-x="956" 
d="M37 989v78h887v-78h-402v-989h-84v989h-401z" />
    <glyph glyph-name="u.sc" horiz-adv-x="1187" 
d="M606 61q186 0 264 87t78 249v670h84v-672q0 -204 -108 -308.5t-318 -104.5q-214 0 -331 105t-117 308v672h84v-657q0 -79 18 -140t59 -109.5t113 -74t174 -25.5z" />
    <glyph glyph-name="v.sc" horiz-adv-x="1081" 
d="M592 0h-103l-477 1067h90l244 -555q118 -268 172 -434h43q67 187 176 434l244 555h86z" />
    <glyph glyph-name="w.sc" horiz-adv-x="1564" 
d="M618 444l-139 -444h-139l-317 1067h94l151 -547q64 -230 117 -440h55q62 257 117 438l170 549h115l170 -551q69 -222 116 -436h54q59 242 116 440l154 547h90l-317 -1067h-135l-140 444q-95 296 -149 535h-35q-70 -284 -148 -535z" />
    <glyph glyph-name="x.sc" horiz-adv-x="1040" 
d="M918 0l-390 494h-28l-381 -494h-80v20l410 517l-404 512v18h82l377 -487h26l383 487h82v-18l-407 -508l413 -521v-20h-83z" />
    <glyph glyph-name="y.sc" horiz-adv-x="985" 
d="M537 0h-84v379l-447 670v18h84l395 -618h19l393 618h82v-18l-442 -670v-379z" />
    <glyph glyph-name="z.sc" horiz-adv-x="1048" 
d="M954 80v-80h-880v82l782 917l-4 7q-289 -17 -426 -17h-328v78h856v-76l-788 -919l6 -11q273 19 467 19h315z" />
    <glyph glyph-name="aacute.sc" horiz-adv-x="1081" 
d="M979 0l-154 348h-571l-154 -348h-88l477 1067h103l475 -1067h-88zM377 1196l-23 47l467 273l41 -74zM344 555l-57 -131h504l-58 131q-117 267 -168 434h-45q-53 -139 -176 -434z" />
    <glyph glyph-name="abreve.sc" horiz-adv-x="1081" 
d="M979 0l-154 348h-571l-154 -348h-88l477 1067h103l475 -1067h-88zM541 1288q88 0 143 50t61 165h68q0 -144 -73.5 -217.5t-198.5 -73.5t-200 73.5t-75 217.5h70q10 -215 205 -215zM344 555l-57 -131h504l-58 131q-117 267 -168 434h-45q-53 -139 -176 -434z" />
    <glyph glyph-name="acircumflex.sc" horiz-adv-x="1081" 
d="M979 0l-154 348h-571l-154 -348h-88l477 1067h103l475 -1067h-88zM782 1194l-243 231l-244 -231l-41 41l260 276h51l260 -276zM344 555l-57 -131h504l-58 131q-117 267 -168 434h-45q-53 -139 -176 -434z" />
    <glyph glyph-name="adieresis.sc" horiz-adv-x="1081" 
d="M979 0l-154 348h-571l-154 -348h-88l477 1067h103l475 -1067h-88zM281 1386h135v-135h-135v135zM659 1386h136v-135h-136v135zM344 555l-57 -131h504l-58 131q-117 267 -168 434h-45q-53 -139 -176 -434z" />
    <glyph glyph-name="agrave.sc" horiz-adv-x="1081" 
d="M979 0l-154 348h-571l-154 -348h-88l477 1067h103l475 -1067h-88zM711 1196l-488 242l45 80l465 -275zM344 555l-57 -131h504l-58 131q-117 267 -168 434h-45q-53 -139 -176 -434z" />
    <glyph glyph-name="amacron.sc" horiz-adv-x="1081" 
d="M979 0l-154 348h-571l-154 -348h-88l477 1067h103l475 -1067h-88zM260 1341h559v-77h-559v77zM344 555l-57 -131h504l-58 131q-117 267 -168 434h-45q-53 -139 -176 -434z" />
    <glyph glyph-name="aogonek.sc" horiz-adv-x="1081" 
d="M1071 -317q-73 -13 -127 -13q-111 0 -163 39t-52 107q0 136 246 192l-150 340h-571l-154 -348h-88l477 1067h103l475 -1067h-2q-135 -28 -197.5 -66t-62.5 -96q0 -88 145 -88q36 0 113 17zM344 555l-57 -131h504l-58 131q-117 267 -168 434h-45q-53 -139 -176 -434z" />
    <glyph glyph-name="aring.sc" horiz-adv-x="1081" 
d="M979 0l-154 348h-571l-154 -348h-88l477 1067h103l475 -1067h-88zM399 1405q0 -68 38 -104.5t104 -36.5q67 0 105 37t38 106q0 68 -38 104.5t-105 36.5q-66 0 -104 -37t-38 -106zM760 1407q0 -99 -59 -158t-160 -59t-160 59t-59 156q0 99 59 158t160 59t160 -59t59 -156z
M344 555l-57 -131h504l-58 131q-117 267 -168 434h-45q-53 -139 -176 -434z" />
    <glyph glyph-name="aringacute.sc" horiz-adv-x="1081" 
d="M367 1434l-15 51l514 184l29 -90zM418 1194q0 -61 32.5 -94t88.5 -33q58 0 90.5 33t32.5 94t-32.5 94t-90.5 33q-56 0 -88.5 -33t-32.5 -94zM737 1194q0 -67 -32 -115.5t-89 -68.5l451 -1010h-88l-154 348h-571l-154 -348h-88l451 1010q-59 19 -91 67t-32 117
q0 90 53.5 143.5t145.5 53.5t145 -53.5t53 -143.5zM344 555l-57 -131h504l-58 131q-117 267 -168 434h-45q-53 -139 -176 -434z" />
    <glyph glyph-name="atilde.sc" horiz-adv-x="1081" 
d="M979 0l-154 348h-571l-154 -348h-88l477 1067h103l475 -1067h-88zM397 1528q46 0 83.5 -23.5t61 -57t45 -67t47.5 -57t56 -23.5q48 0 66.5 52.5t15.5 169.5h64q6 -50 6 -90q0 -101 -41.5 -154t-110.5 -53q-44 0 -80 23.5t-60 56.5t-46 66.5t-48.5 57t-56.5 23.5
q-54 0 -73 -47.5t-17 -165.5h-63q-6 49 -6 88q0 99 41.5 150t115.5 51zM344 555l-57 -131h504l-58 131q-117 267 -168 434h-45q-53 -139 -176 -434z" />
    <glyph glyph-name="ae.sc" horiz-adv-x="1544" 
d="M432 555l-98 -174h375v610h-50q-105 -223 -227 -436zM709 0v303h-418l-170 -303h-92l610 1067h795v-78h-641v-403h565v-78h-565v-428h639v-80h-723z" />
    <glyph glyph-name="aeacute.sc" horiz-adv-x="1544" 
d="M784 1196l-22 47l467 273l41 -74zM709 0v303h-418l-170 -303h-92l610 1067h795v-78h-641v-403h565v-78h-565v-428h639v-80h-723zM432 555l-98 -174h375v610h-50q-105 -223 -227 -436z" />
    <glyph glyph-name="cacute.sc" horiz-adv-x="1181" 
d="M598 -18q-250 0 -386 149.5t-136 403.5q0 253 138.5 401.5t387.5 148.5q205 0 333 -104t163 -285l-78 -20q-37 161 -141.5 246.5t-274.5 85.5q-219 0 -331.5 -126t-112.5 -347q0 -222 112 -348t328 -126q355 0 426 340l80 -16q-35 -189 -164 -296t-344 -107zM428 1214
l-22 48l466 272l41 -74z" />
    <glyph glyph-name="ccaron.sc" horiz-adv-x="1181" 
d="M598 -18q-250 0 -386 149.5t-136 403.5q0 253 138.5 401.5t387.5 148.5q205 0 333 -104t163 -285l-78 -20q-37 161 -141.5 246.5t-274.5 85.5q-219 0 -331.5 -126t-112.5 -347q0 -222 112 -348t328 -126q355 0 426 340l80 -16q-35 -189 -164 -296t-344 -107zM616 1223
h-51l-260 276l43 41l244 -229l244 229l41 -41z" />
    <glyph glyph-name="ccedilla.sc" horiz-adv-x="1181" 
d="M598 -18h-20l-39 -97q49 19 94 19q67 0 108 -26.5t41 -84.5q0 -50 -43 -93.5t-135 -43.5q-131 0 -207 61l41 62q26 -17 44 -26.5t49.5 -18t68.5 -8.5q56 0 82.5 20t26.5 49q0 31 -25.5 47.5t-71.5 16.5q-49 0 -92 -15l-49 25l45 117q-212 24 -326 170.5t-114 378.5
q0 253 138.5 401.5t387.5 148.5q205 0 333 -104t163 -285l-78 -20q-37 161 -141.5 246.5t-274.5 85.5q-219 0 -331.5 -126t-112.5 -347q0 -222 112 -348t328 -126q355 0 426 340l80 -16q-35 -189 -164 -296t-344 -107z" />
    <glyph glyph-name="ccircumflex.sc" horiz-adv-x="1181" 
d="M598 -18q-250 0 -386 149.5t-136 403.5q0 253 138.5 401.5t387.5 148.5q205 0 333 -104t163 -285l-78 -20q-37 161 -141.5 246.5t-274.5 85.5q-219 0 -331.5 -126t-112.5 -347q0 -222 112 -348t328 -126q355 0 426 340l80 -16q-35 -189 -164 -296t-344 -107zM834 1212
l-244 232l-244 -232l-41 41l260 277h51l261 -277z" />
    <glyph glyph-name="cdotaccent.sc" horiz-adv-x="1181" 
d="M598 -18q-250 0 -386 149.5t-136 403.5q0 253 138.5 401.5t387.5 148.5q205 0 333 -104t163 -285l-78 -20q-37 161 -141.5 246.5t-274.5 85.5q-219 0 -331.5 -126t-112.5 -347q0 -222 112 -348t328 -126q355 0 426 340l80 -16q-35 -189 -164 -296t-344 -107zM522 1436
h140v-138h-140v138z" />
    <glyph glyph-name="dcaron.sc" horiz-adv-x="1191" 
d="M547 989h-305v-909h319q245 0 360 120t115 337q0 230 -118.5 341t-370.5 111zM158 0v1067h401q277 0 419 -135.5t142 -394.5q0 -252 -148 -394.5t-403 -142.5h-411zM633 1204h-51l-260 277l43 41l243 -230l244 230l41 -41z" />
    <glyph glyph-name="dcroat.sc" horiz-adv-x="1247" 
d="M670 504h-373v-424h319q246 0 361 120t115 337q0 230 -119 341t-371 111h-305v-411h373v-74zM213 0v504h-164v74h164v489h401q277 0 419.5 -135.5t142.5 -394.5q0 -252 -148 -394.5t-403 -142.5h-412z" />
    <glyph glyph-name="eacute.sc" horiz-adv-x="993" 
d="M158 0v1067h725v-78h-641v-403h565v-78h-565v-428h639v-80h-723zM358 1196l-22 47l467 273l41 -74z" />
    <glyph glyph-name="ebreve.sc" horiz-adv-x="993" 
d="M158 0v1067h725v-78h-641v-403h565v-78h-565v-428h639v-80h-723zM522 1288q88 0 143.5 50t61.5 165h68q0 -144 -74 -217.5t-199 -73.5t-199.5 73.5t-74.5 217.5h69q10 -215 205 -215z" />
    <glyph glyph-name="ecaron.sc" horiz-adv-x="993" 
d="M158 0v1067h725v-78h-641v-403h565v-78h-565v-428h639v-80h-723zM547 1204h-51l-260 277l43 41l243 -230l244 230l41 -41z" />
    <glyph glyph-name="ecircumflex.sc" horiz-adv-x="993" 
d="M158 0v1067h725v-78h-641v-403h565v-78h-565v-428h639v-80h-723zM764 1194l-244 231l-244 -231l-40 41l260 276h51l260 -276z" />
    <glyph glyph-name="edieresis.sc" horiz-adv-x="993" 
d="M158 0v1067h725v-78h-641v-403h565v-78h-565v-428h639v-80h-723zM262 1386h135v-135h-135v135zM641 1386h135v-135h-135v135z" />
    <glyph glyph-name="edotaccent.sc" horiz-adv-x="993" 
d="M158 0v1067h725v-78h-641v-403h565v-78h-565v-428h639v-80h-723zM451 1417h139v-137h-139v137z" />
    <glyph glyph-name="egrave.sc" horiz-adv-x="993" 
d="M158 0v1067h725v-78h-641v-403h565v-78h-565v-428h639v-80h-723zM692 1196l-487 242l45 80l465 -275z" />
    <glyph glyph-name="emacron.sc" horiz-adv-x="993" 
d="M158 0v1067h725v-78h-641v-403h565v-78h-565v-428h639v-80h-723zM242 1341h559v-77h-559v77z" />
    <glyph glyph-name="eng.sc" horiz-adv-x="1196" 
d="M158 0v1067h133l399 -551q135 -188 268 -412l13 2q-15 257 -15 502v459h84v-1114q0 -289 -264 -289q-64 0 -143 12l6 82q71 -12 135 -12q96 0 139 50.5t43 150.5v55l-450 619q-105 146 -227 358h-54q17 -205 17 -518v-461h-84z" />
    <glyph glyph-name="eogonek.sc" horiz-adv-x="993" 
d="M883 -317q-73 -13 -127 -13q-111 0 -163 39t-52 107q0 126 211 184h-594v1067h725v-78h-641v-403h565v-78h-565v-428h639v-80h-4q-136 -28 -198.5 -66t-62.5 -96q0 -88 146 -88q36 0 112 17z" />
    <glyph glyph-name="eth.sc" horiz-adv-x="1247" 
d="M670 504h-373v-424h319q246 0 361 120t115 337q0 230 -119 341t-371 111h-305v-411h373v-74zM213 0v504h-164v74h164v489h401q277 0 419.5 -135.5t142.5 -394.5q0 -252 -148 -394.5t-403 -142.5h-412z" />
    <glyph glyph-name="fi.sc" horiz-adv-x="1370" 
d="M776 481h-534v-481h-84v1067h692v-78h-608v-430h534v-78zM1214 0h-84v1067h84v-1067z" />
    <glyph glyph-name="fl.sc" horiz-adv-x="1826" 
d="M776 481h-534v-481h-84v1067h692v-78h-608v-430h534v-78zM1130 1067h84v-987h568v-80h-652v1067z" />
    <glyph glyph-name="gbreve.sc" horiz-adv-x="1214" 
d="M602 -18q-251 0 -391.5 138t-140.5 400q0 258 136.5 411.5t395.5 153.5q208 0 334 -104.5t162 -290.5l-78 -16q-41 169 -144 251.5t-272 82.5q-233 0 -341.5 -129t-108.5 -359q0 -217 112.5 -338t343.5 -121q95 0 169 19.5t120 51.5t76 78t41.5 95t11.5 107v30h-418v78
h498v-520h-80v250h-12q-40 -119 -142.5 -193.5t-271.5 -74.5zM602 1307q88 0 143.5 50t61.5 165h67q0 -144 -73.5 -217.5t-198.5 -73.5t-199.5 73.5t-74.5 217.5h69q10 -215 205 -215z" />
    <glyph glyph-name="gcircumflex.sc" horiz-adv-x="1214" 
d="M602 -18q-251 0 -391.5 138t-140.5 400q0 258 136.5 411.5t395.5 153.5q208 0 334 -104.5t162 -290.5l-78 -16q-41 169 -144 251.5t-272 82.5q-233 0 -341.5 -129t-108.5 -359q0 -217 112.5 -338t343.5 -121q95 0 169 19.5t120 51.5t76 78t41.5 95t11.5 107v30h-418v78
h498v-520h-80v250h-12q-40 -119 -142.5 -193.5t-271.5 -74.5zM844 1212l-244 232l-244 -232l-41 41l260 277h52l260 -277z" />
    <glyph glyph-name="gcommaaccent.sc" horiz-adv-x="1214" 
d="M602 -18q-251 0 -391.5 138t-140.5 400q0 258 136.5 411.5t395.5 153.5q208 0 334 -104.5t162 -290.5l-78 -16q-41 169 -144 251.5t-272 82.5q-233 0 -341.5 -129t-108.5 -359q0 -217 112.5 -338t343.5 -121q95 0 169 19.5t120 51.5t76 78t41.5 95t11.5 107v30h-418v78
h498v-520h-80v250h-12q-40 -119 -142.5 -193.5t-271.5 -74.5zM596 -123h88l-123 -303h-61v16z" />
    <glyph glyph-name="gdotaccent.sc" horiz-adv-x="1214" 
d="M602 -18q-251 0 -391.5 138t-140.5 400q0 258 136.5 411.5t395.5 153.5q208 0 334 -104.5t162 -290.5l-78 -16q-41 169 -144 251.5t-272 82.5q-233 0 -341.5 -129t-108.5 -359q0 -217 112.5 -338t343.5 -121q95 0 169 19.5t120 51.5t76 78t41.5 95t11.5 107v30h-418v78
h498v-520h-80v250h-12q-40 -119 -142.5 -193.5t-271.5 -74.5zM532 1436h140v-138h-140v138z" />
    <glyph glyph-name="hbar.sc" horiz-adv-x="1267" 
d="M995 532v222h-723v-222h723zM1079 0h-84v453h-723v-453h-84v754h-143v75h143v238h84v-238h723v238h84v-238h146v-75h-146v-754z" />
    <glyph glyph-name="hcircumflex.sc" horiz-adv-x="1206" 
d="M1049 0h-84v494h-723v-494h-84v1067h84v-494h723v494h84v-1067zM846 1194l-244 231l-244 -231l-41 41l261 276h51l260 -276z" />
    <glyph glyph-name="iacute.sc" horiz-adv-x="397" 
d="M242 0h-84v1067h84v-1067zM35 1196l-23 47l467 273l41 -74z" />
    <glyph glyph-name="ibreve.sc" horiz-adv-x="397" 
d="M242 0h-84v1067h84v-1067zM199 1288q88 0 143 50t61 165h68q0 -144 -73.5 -217.5t-198.5 -73.5t-200 73.5t-75 217.5h70q10 -215 205 -215z" />
    <glyph glyph-name="icircumflex.sc" horiz-adv-x="397" 
d="M242 0h-84v1067h84v-1067zM442 1194l-243 231l-244 -231l-41 41l260 276h51l260 -276z" />
    <glyph glyph-name="idieresis.sc" horiz-adv-x="397" 
d="M242 0h-84v1067h84v-1067zM-59 1386h135v-135h-135v135zM319 1386h136v-135h-136v135z" />
    <glyph glyph-name="igrave.sc" horiz-adv-x="397" 
d="M242 0h-84v1067h84v-1067zM369 1196l-488 242l45 80l465 -275z" />
    <glyph glyph-name="ij.sc" horiz-adv-x="968" 
d="M242 0h-84v1067h84v-1067zM729 252v815h84v-815q0 -266 -250 -266q-53 0 -135 10l4 82q68 -12 127 -12q90 0 130 46.5t40 139.5z" />
    <glyph glyph-name="imacron.sc" horiz-adv-x="397" 
d="M242 0h-84v1067h84v-1067zM-80 1341h559v-77h-559v77z" />
    <glyph glyph-name="iogonek.sc" horiz-adv-x="397" 
d="M242 0q-135 -28 -197.5 -66t-62.5 -96q0 -88 145 -88q37 0 113 17l8 -84q-73 -13 -127 -13q-111 0 -163 39t-52 107q0 137 252 194v1057h84v-1067z" />
    <glyph glyph-name="itilde.sc" horiz-adv-x="397" 
d="M242 0h-84v1067h84v-1067zM55 1528q46 0 83.5 -23.5t61 -57t45 -67t47.5 -57t56 -23.5q48 0 66.5 52.5t15.5 169.5h64q6 -50 6 -90q0 -101 -41.5 -154t-110.5 -53q-44 0 -80 23.5t-60 56.5t-46 66.5t-48.5 57t-56.5 23.5q-54 0 -73 -47.5t-17 -165.5h-63q-6 49 -6 88
q0 99 41.5 150t115.5 51z" />
    <glyph glyph-name="jcircumflex.sc" horiz-adv-x="571" 
d="M332 252v815h84v-815q0 -266 -250 -266q-53 0 -135 10l4 82q68 -12 127 -12q90 0 130 46.5t40 139.5zM616 1194l-243 231l-244 -231l-41 41l260 276h51l260 -276z" />
    <glyph glyph-name="kcommaaccent.sc" horiz-adv-x="1042" 
d="M932 0l-592 471h-98v-471h-84v1067h84v-520h92l565 520h94v-18l-590 -535l627 -494v-20h-98zM588 -123h88l-123 -303h-61v16z" />
    <glyph glyph-name="lacute.sc" horiz-adv-x="854" 
d="M135 1196l-22 47l467 273l41 -74zM158 1067h84v-987h567v-80h-651v1067z" />
    <glyph glyph-name="lcaron.sc" horiz-adv-x="870" 
d="M680 1067h86l-51 -514h-60zM158 1067h84v-987h567v-80h-651v1067z" />
    <glyph glyph-name="lcommaaccent.sc" horiz-adv-x="854" 
d="M158 1067h84v-987h567v-80h-651v1067zM477 -123h88l-123 -303h-61v16z" />
    <glyph glyph-name="ldot.sc" horiz-adv-x="866" 
d="M575 641h140v-137h-140v137zM158 1067h84v-987h567v-80h-651v1067z" />
    <glyph glyph-name="lslash.sc" horiz-adv-x="903" 
d="M182 1067h84v-510l301 160v-80l-301 -158v-399h568v-80h-652v434l-147 -78v78l147 78v555z" />
    <glyph glyph-name="nacute.sc" horiz-adv-x="1196" 
d="M924 0l-428 621q-120 176 -222 358h-49q17 -205 17 -518v-461h-84v1067h133l381 -553q166 -243 258 -410l41 2q-15 257 -15 502v459h84v-1067h-116zM436 1196l-22 47l467 273l41 -74z" />
    <glyph glyph-name="ncaron.sc" horiz-adv-x="1196" 
d="M924 0l-428 621q-120 176 -222 358h-49q17 -205 17 -518v-461h-84v1067h133l381 -553q166 -243 258 -410l41 2q-15 257 -15 502v459h84v-1067h-116zM625 1204h-52l-260 277l43 41l244 -230l244 230l41 -41z" />
    <glyph glyph-name="ncommaaccent.sc" horiz-adv-x="1196" 
d="M924 0l-428 621q-120 176 -222 358h-49q17 -205 17 -518v-461h-84v1067h133l381 -553q166 -243 258 -410l41 2q-15 257 -15 502v459h84v-1067h-116zM594 -123h88l-123 -303h-61v16z" />
    <glyph glyph-name="ntilde.sc" horiz-adv-x="1196" 
d="M924 0l-428 621q-120 176 -222 358h-49q17 -205 17 -518v-461h-84v1067h133l381 -553q166 -243 258 -410l41 2q-15 257 -15 502v459h84v-1067h-116zM457 1528q46 0 83.5 -23.5t61 -57t45 -67t47.5 -57t56 -23.5q48 0 66 52.5t15 169.5h64q6 -50 6 -90q0 -101 -41 -154
t-110 -53q-44 0 -80 23.5t-60 56.5t-46 66.5t-48.5 57t-56.5 23.5q-54 0 -73 -47.5t-17 -165.5h-64q-6 49 -6 88q0 99 42 150t116 51z" />
    <glyph glyph-name="oacute.sc" horiz-adv-x="1247" 
d="M625 -18q-261 0 -406 152.5t-145 400.5t145.5 399t405.5 151t404.5 -150.5t144.5 -399.5q0 -163 -62 -286.5t-187.5 -195t-299.5 -71.5zM625 61q228 0 346.5 129t118.5 345t-119 344.5t-346 128.5q-228 0 -347.5 -128.5t-119.5 -344.5t118.5 -345t348.5 -129zM461 1214
l-23 48l467 272l41 -74z" />
    <glyph glyph-name="obreve.sc" horiz-adv-x="1247" 
d="M625 -18q-261 0 -406 152.5t-145 400.5t145.5 399t405.5 151t404.5 -150.5t144.5 -399.5q0 -163 -62 -286.5t-187.5 -195t-299.5 -71.5zM625 61q228 0 346.5 129t118.5 345t-119 344.5t-346 128.5q-228 0 -347.5 -128.5t-119.5 -344.5t118.5 -345t348.5 -129zM625 1307
q88 0 143 50t61 165h68q0 -144 -73.5 -217.5t-198.5 -73.5t-200 73.5t-75 217.5h70q10 -215 205 -215z" />
    <glyph glyph-name="ocircumflex.sc" horiz-adv-x="1247" 
d="M625 61q228 0 346.5 129t118.5 345t-119 344.5t-346 128.5q-228 0 -347.5 -128.5t-119.5 -344.5t118.5 -345t348.5 -129zM625 -18q-261 0 -406 152.5t-145 400.5t145.5 399t405.5 151t404.5 -150.5t144.5 -399.5q0 -163 -62 -286.5t-187.5 -195t-299.5 -71.5zM866 1212
l-243 232l-244 -232l-41 41l260 277h51l260 -277z" />
    <glyph glyph-name="odieresis.sc" horiz-adv-x="1247" 
d="M625 -18q-261 0 -406 152.5t-145 400.5t145.5 399t405.5 151t404.5 -150.5t144.5 -399.5q0 -163 -62 -286.5t-187.5 -195t-299.5 -71.5zM625 61q228 0 346.5 129t118.5 345t-119 344.5t-346 128.5q-228 0 -347.5 -128.5t-119.5 -344.5t118.5 -345t348.5 -129zM365 1405
h135v-135h-135v135zM743 1405h136v-135h-136v135z" />
    <glyph glyph-name="ograve.sc" horiz-adv-x="1247" 
d="M625 -18q-261 0 -406 152.5t-145 400.5t145.5 399t405.5 151t404.5 -150.5t144.5 -399.5q0 -163 -62 -286.5t-187.5 -195t-299.5 -71.5zM625 61q228 0 346.5 129t118.5 345t-119 344.5t-346 128.5q-228 0 -347.5 -128.5t-119.5 -344.5t118.5 -345t348.5 -129zM795 1214
l-488 242l45 80l465 -274z" />
    <glyph glyph-name="ohungarumlaut.sc" horiz-adv-x="1247" 
d="M625 -18q-261 0 -406 152.5t-145 400.5t145.5 399t405.5 151t404.5 -150.5t144.5 -399.5q0 -163 -62 -286.5t-187.5 -195t-299.5 -71.5zM625 61q228 0 346.5 129t118.5 345t-119 344.5t-346 128.5q-228 0 -347.5 -128.5t-119.5 -344.5t118.5 -345t348.5 -129zM467 1208
l-51 33l190 330l84 -55zM727 1210l-49 35l199 324l84 -58z" />
    <glyph glyph-name="omacron.sc" horiz-adv-x="1247" 
d="M625 -18q-261 0 -406 152.5t-145 400.5t145.5 399t405.5 151t404.5 -150.5t144.5 -399.5q0 -163 -62 -286.5t-187.5 -195t-299.5 -71.5zM625 61q228 0 346.5 129t118.5 345t-119 344.5t-346 128.5q-228 0 -347.5 -128.5t-119.5 -344.5t118.5 -345t348.5 -129zM344 1360
h559v-78h-559v78z" />
    <glyph glyph-name="oslash.sc" horiz-adv-x="1247" 
d="M158 535q0 -198 98 -320l690 686q-120 107 -321 107q-228 0 -347.5 -128.5t-119.5 -344.5zM625 -18q-236 0 -381 129l-111 -111h-76v18l142 140q-125 146 -125 377q0 248 145.5 399t405.5 151q233 0 379 -127l108 109h72v-18l-135 -136q125 -146 125 -378
q0 -163 -62 -286.5t-187.5 -195t-299.5 -71.5zM625 61q228 0 346.5 129t118.5 345q0 198 -99 321l-690 -690q121 -105 324 -105z" />
    <glyph glyph-name="oslashacute.sc" horiz-adv-x="1247" 
d="M158 535q0 -198 98 -320l690 686q-120 107 -321 107q-228 0 -347.5 -128.5t-119.5 -344.5zM625 -18q-236 0 -381 129l-111 -111h-76v18l142 140q-125 146 -125 377q0 248 145.5 399t405.5 151q233 0 379 -127l108 109h72v-18l-135 -136q125 -146 125 -378
q0 -163 -62 -286.5t-187.5 -195t-299.5 -71.5zM516 1214l-22 48l467 272l40 -74zM625 61q228 0 346.5 129t118.5 345q0 198 -99 321l-690 -690q121 -105 324 -105z" />
    <glyph glyph-name="otilde.sc" horiz-adv-x="1247" 
d="M625 -18q-261 0 -406 152.5t-145 400.5t145.5 399t405.5 151t404.5 -150.5t144.5 -399.5q0 -163 -62 -286.5t-187.5 -195t-299.5 -71.5zM625 61q228 0 346.5 129t118.5 345t-119 344.5t-346 128.5q-228 0 -347.5 -128.5t-119.5 -344.5t118.5 -345t348.5 -129zM481 1546
q46 0 83.5 -23.5t61 -57t45 -66.5t47.5 -56.5t56 -23.5q48 0 66.5 52t15.5 169h64q6 -49 6 -90q0 -101 -41.5 -154t-110.5 -53q-44 0 -80 23.5t-60 56.5t-46 66.5t-48.5 57t-56.5 23.5q-54 0 -73 -47.5t-17 -165.5h-63q-6 49 -6 89q0 99 41.5 149.5t115.5 50.5z" />
    <glyph glyph-name="oe.sc" horiz-adv-x="1658" 
d="M625 78h176v911h-176q-228 0 -347.5 -123t-119.5 -331t118.5 -332.5t348.5 -124.5zM625 0q-174 0 -300 69.5t-188.5 189t-62.5 276.5q0 240 145.5 386t405.5 146h901v-78h-641v-403h565v-78h-565v-428h639v-80h-899z" />
    <glyph glyph-name="racute.sc" horiz-adv-x="1099" 
d="M578 989h-336v-442h338q146 0 216 54.5t70 164.5q0 113 -65 168t-223 55zM922 0l-381 469h-299v-469h-84v1067h428q186 0 275 -80t89 -223q0 -127 -79 -204t-236 -89l379 -451v-20h-92zM399 1196l-22 47l467 273l41 -74z" />
    <glyph glyph-name="rcaron.sc" horiz-adv-x="1099" 
d="M578 989h-336v-442h338q146 0 216 54.5t70 164.5q0 113 -65 168t-223 55zM922 0l-381 469h-299v-469h-84v1067h428q186 0 275 -80t89 -223q0 -127 -79 -204t-236 -89l379 -451v-20h-92zM563 1204h-51l-260 277l43 41l244 -230l243 230l41 -41z" />
    <glyph glyph-name="rcommaaccent.sc" horiz-adv-x="1099" 
d="M557 -123h88l-123 -303h-61v16zM578 989h-336v-442h338q146 0 216 54.5t70 164.5q0 113 -65 168t-223 55zM922 0l-381 469h-299v-469h-84v1067h428q186 0 275 -80t89 -223q0 -127 -79 -204t-236 -89l379 -451v-20h-92z" />
    <glyph glyph-name="sacute.sc" horiz-adv-x="1026" 
d="M543 -18q-211 1 -328.5 96t-146.5 270l82 19q27 -153 120.5 -230.5t272.5 -77.5q164 0 241.5 56.5t77.5 156.5q0 95 -74 147t-253 83q-221 38 -313.5 113.5t-92.5 193.5q0 127 97 201.5t280 74.5q93 0 163.5 -21.5t118 -64.5t77.5 -99.5t50 -133.5l-81 -16
q-34 134 -106.5 196t-223.5 62q-146 0 -220.5 -51.5t-74.5 -143.5q0 -44 15.5 -77t54 -62.5t106 -52.5t168.5 -41q149 -28 237 -72t122 -98.5t34 -130.5q0 -138 -98.5 -217.5t-304.5 -79.5zM344 1214l-22 48l466 272l41 -74z" />
    <glyph glyph-name="scaron.sc" horiz-adv-x="1026" 
d="M543 -18q-211 1 -328.5 96t-146.5 270l82 19q27 -153 120.5 -230.5t272.5 -77.5q164 0 241.5 56.5t77.5 156.5q0 95 -74 147t-253 83q-221 38 -313.5 113.5t-92.5 193.5q0 127 97 201.5t280 74.5q93 0 163.5 -21.5t118 -64.5t77.5 -99.5t50 -133.5l-81 -16
q-34 134 -106.5 196t-223.5 62q-146 0 -220.5 -51.5t-74.5 -143.5q0 -44 15.5 -77t54 -62.5t106 -52.5t168.5 -41q149 -28 237 -72t122 -98.5t34 -130.5q0 -138 -98.5 -217.5t-304.5 -79.5zM532 1223h-51l-260 276l43 41l244 -229l244 229l41 -41z" />
    <glyph glyph-name="scedilla.sc" horiz-adv-x="1026" 
d="M543 -18q-33 0 -49 2l-39 -99q49 19 94 19q67 0 108 -26.5t41 -84.5q0 -50 -43 -93.5t-135 -43.5q-131 0 -207 61l41 62q26 -17 44 -26.5t49.5 -18t68.5 -8.5q56 0 82.5 20t26.5 49q0 31 -25.5 47.5t-71.5 16.5q-49 0 -92 -15l-49 25l47 121q-314 47 -366 358l82 19
q27 -153 120.5 -230.5t272.5 -77.5q164 0 241.5 56.5t77.5 156.5q0 95 -74 147t-253 83q-221 38 -313.5 113.5t-92.5 193.5q0 127 97 201.5t280 74.5q93 0 163.5 -21.5t118 -64.5t77.5 -99.5t50 -133.5l-81 -16q-34 134 -106.5 196t-223.5 62q-146 0 -220.5 -51.5
t-74.5 -143.5q0 -44 15.5 -77t54 -62.5t106 -52.5t168.5 -41q149 -28 237 -72t122 -98.5t34 -130.5q0 -138 -98.5 -217.5t-304.5 -79.5z" />
    <glyph glyph-name="scircumflex.sc" horiz-adv-x="1026" 
d="M543 -18q-211 1 -328.5 96t-146.5 270l82 19q27 -153 120.5 -230.5t272.5 -77.5q164 0 241.5 56.5t77.5 156.5q0 95 -74 147t-253 83q-221 38 -313.5 113.5t-92.5 193.5q0 127 97 201.5t280 74.5q93 0 163.5 -21.5t118 -64.5t77.5 -99.5t50 -133.5l-81 -16
q-34 134 -106.5 196t-223.5 62q-146 0 -220.5 -51.5t-74.5 -143.5q0 -44 15.5 -77t54 -62.5t106 -52.5t168.5 -41q149 -28 237 -72t122 -98.5t34 -130.5q0 -138 -98.5 -217.5t-304.5 -79.5zM750 1212l-244 232l-244 -232l-41 41l260 277h51l261 -277z" />
    <glyph glyph-name="scommaaccent.sc" horiz-adv-x="1026" 
d="M543 -18q-211 1 -328.5 96t-146.5 270l82 19q27 -153 120.5 -230.5t272.5 -77.5q164 0 241.5 56.5t77.5 156.5q0 95 -74 147t-253 83q-221 38 -313.5 113.5t-92.5 193.5q0 127 97 201.5t280 74.5q93 0 163.5 -21.5t118 -64.5t77.5 -99.5t50 -133.5l-81 -16
q-34 134 -106.5 196t-223.5 62q-146 0 -220.5 -51.5t-74.5 -143.5q0 -44 15.5 -77t54 -62.5t106 -52.5t168.5 -41q149 -28 237 -72t122 -98.5t34 -130.5q0 -138 -98.5 -217.5t-304.5 -79.5zM502 -123h88l-123 -303h-61v16z" />
    <glyph glyph-name="tbar.sc" horiz-adv-x="950" 
d="M37 989v78h887v-78h-402v-436h287v-76h-287v-477h-84v477h-295v76h295v436h-401z" />
    <glyph glyph-name="tcaron.sc" horiz-adv-x="956" 
d="M924 989h-402v-989h-84v989h-401v78h887v-78zM506 1204h-51l-260 277l43 41l243 -230l244 230l41 -41z" />
    <glyph glyph-name="tcommaaccent.sc" horiz-adv-x="956" 
d="M37 989v78h887v-78h-402v-989h-43l-45 -115q49 19 94 19q67 0 108.5 -26.5t41.5 -84.5q0 -50 -43 -93.5t-135 -43.5q-131 0 -207 61l41 62q26 -17 44 -26.5t49.5 -18t68.5 -8.5q56 0 82 20t26 49q0 31 -25 47.5t-71 16.5q-49 0 -92 -15l-49 25l67 174h4v946h-401z" />
    <glyph glyph-name="uni021B.sc" horiz-adv-x="956" 
d="M37 989v78h887v-78h-402v-989h-84v989h-401zM475 -123h88l-123 -303h-61v16z" />
    <glyph glyph-name="thorn.sc" horiz-adv-x="1005" 
d="M158 1067h84v-203h329q365 0 365 -313q0 -147 -94.5 -231t-270.5 -84h-329v-236h-84v1067zM563 786h-321v-475h323q149 0 217 57.5t68 180.5q0 128 -64 182.5t-223 54.5z" />
    <glyph glyph-name="uacute.sc" horiz-adv-x="1187" 
d="M606 61q186 0 264 87t78 249v670h84v-672q0 -204 -108 -308.5t-318 -104.5q-214 0 -331 105t-117 308v672h84v-657q0 -79 18 -140t59 -109.5t113 -74t174 -25.5zM432 1196l-22 47l467 273l41 -74z" />
    <glyph glyph-name="ubreve.sc" horiz-adv-x="1187" 
d="M606 61q186 0 264 87t78 249v670h84v-672q0 -204 -108 -308.5t-318 -104.5q-214 0 -331 105t-117 308v672h84v-657q0 -79 18 -140t59 -109.5t113 -74t174 -25.5zM596 1288q88 0 143.5 50t61.5 165h67q0 -144 -73.5 -217.5t-198.5 -73.5t-199.5 73.5t-74.5 217.5h69
q10 -215 205 -215z" />
    <glyph glyph-name="ucircumflex.sc" horiz-adv-x="1187" 
d="M606 61q186 0 264 87t78 249v670h84v-672q0 -204 -108 -308.5t-318 -104.5q-214 0 -331 105t-117 308v672h84v-657q0 -79 18 -140t59 -109.5t113 -74t174 -25.5zM838 1194l-244 231l-244 -231l-41 41l260 276h52l260 -276z" />
    <glyph glyph-name="udieresis.sc" horiz-adv-x="1187" 
d="M606 61q186 0 264 87t78 249v670h84v-672q0 -204 -108 -308.5t-318 -104.5q-214 0 -331 105t-117 308v672h84v-657q0 -79 18 -140t59 -109.5t113 -74t174 -25.5zM336 1386h135v-135h-135v135zM715 1386h135v-135h-135v135z" />
    <glyph glyph-name="ugrave.sc" horiz-adv-x="1187" 
d="M606 61q186 0 264 87t78 249v670h84v-672q0 -204 -108 -308.5t-318 -104.5q-214 0 -331 105t-117 308v672h84v-657q0 -79 18 -140t59 -109.5t113 -74t174 -25.5zM766 1196l-487 242l45 80l464 -275z" />
    <glyph glyph-name="uhungarumlaut.sc" horiz-adv-x="1187" 
d="M606 61q186 0 264 87t78 249v670h84v-672q0 -204 -108 -308.5t-318 -104.5q-214 0 -331 105t-117 308v672h84v-657q0 -79 18 -140t59 -109.5t113 -74t174 -25.5zM438 1190l-51 33l191 329l84 -55zM698 1192l-49 35l199 323l84 -57z" />
    <glyph glyph-name="umacron.sc" horiz-adv-x="1187" 
d="M606 61q186 0 264 87t78 249v670h84v-672q0 -204 -108 -308.5t-318 -104.5q-214 0 -331 105t-117 308v672h84v-657q0 -79 18 -140t59 -109.5t113 -74t174 -25.5zM315 1341h559v-77h-559v77z" />
    <glyph glyph-name="uogonek.sc" horiz-adv-x="1187" 
d="M606 61q186 0 264 87t78 249v670h84v-672q0 -186 -90.5 -290t-265.5 -119q-101 -26 -148 -61.5t-47 -86.5q0 -88 146 -88q35 0 112 17l9 -84q-73 -13 -127 -13q-111 0 -163 39t-52 107q0 107 157 168q-194 9 -299.5 113.5t-105.5 297.5v672h84v-657q0 -79 18 -140
t59 -109.5t113 -74t174 -25.5z" />
    <glyph glyph-name="uring.sc" horiz-adv-x="1187" 
d="M606 61q186 0 264 87t78 249v670h84v-672q0 -204 -108 -308.5t-318 -104.5q-214 0 -331 105t-117 308v672h84v-657q0 -79 18 -140t59 -109.5t113 -74t174 -25.5zM813 1407q0 -99 -59 -158t-160 -59t-160 59t-59 156q0 99 59 158t160 59t160 -59t59 -156zM453 1405
q0 -68 37.5 -104.5t103.5 -36.5q67 0 105 37t38 106q0 68 -38 104.5t-105 36.5q-66 0 -103.5 -37t-37.5 -106z" />
    <glyph glyph-name="utilde.sc" horiz-adv-x="1187" 
d="M606 61q186 0 264 87t78 249v670h84v-672q0 -204 -108 -308.5t-318 -104.5q-214 0 -331 105t-117 308v672h84v-657q0 -79 18 -140t59 -109.5t113 -74t174 -25.5zM451 1528q46 0 83 -23.5t61 -57t45 -67t47 -57t56 -23.5q48 0 66.5 52.5t15.5 169.5h64q6 -50 6 -90
q0 -101 -41.5 -154t-110.5 -53q-44 0 -80 23.5t-60 56.5t-45.5 66.5t-48 57t-56.5 23.5q-54 0 -73.5 -48t-17.5 -165h-63q-6 49 -6 88q0 99 42 150t116 51z" />
    <glyph glyph-name="wacute.sc" horiz-adv-x="1564" 
d="M618 444l-139 -444h-139l-317 1067h94l151 -547q64 -230 117 -440h55q62 257 117 438l170 549h115l170 -551q69 -222 116 -436h54q59 242 116 440l154 547h90l-317 -1067h-135l-140 444q-95 296 -149 535h-35q-70 -284 -148 -535zM618 1196l-22 47l467 273l41 -74z" />
    <glyph glyph-name="wcircumflex.sc" horiz-adv-x="1564" 
d="M618 444l-139 -444h-139l-317 1067h94l151 -547q64 -230 117 -440h55q62 257 117 438l170 549h115l170 -551q69 -222 116 -436h54q59 242 116 440l154 547h90l-317 -1067h-135l-140 444q-95 296 -149 535h-35q-70 -284 -148 -535zM1026 1194l-244 231l-243 -231l-41 41
l260 276h51l260 -276z" />
    <glyph glyph-name="wdieresis.sc" horiz-adv-x="1564" 
d="M618 444l-139 -444h-139l-317 1067h94l151 -547q64 -230 117 -440h55q62 257 117 438l170 549h115l170 -551q69 -222 116 -436h54q59 242 116 440l154 547h90l-317 -1067h-135l-140 444q-95 296 -149 535h-35q-70 -284 -148 -535zM524 1386h135v-135h-135v135zM903 1386
h135v-135h-135v135z" />
    <glyph glyph-name="wgrave.sc" horiz-adv-x="1564" 
d="M618 444l-139 -444h-139l-317 1067h94l151 -547q64 -230 117 -440h55q62 257 117 438l170 549h115l170 -551q69 -222 116 -436h54q59 242 116 440l154 547h90l-317 -1067h-135l-140 444q-95 296 -149 535h-35q-70 -284 -148 -535zM952 1196l-487 242l45 80l465 -275z" />
    <glyph glyph-name="yacute.sc" horiz-adv-x="985" 
d="M537 0h-84v379l-447 670v18h84l395 -618h19l393 618h82v-18l-442 -670v-379zM330 1196l-23 47l467 273l41 -74z" />
    <glyph glyph-name="ycircumflex.sc" horiz-adv-x="985" 
d="M537 0h-84v379l-447 670v18h84l395 -618h19l393 618h82v-18l-442 -670v-379zM735 1194l-243 231l-244 -231l-41 41l260 276h51l260 -276z" />
    <glyph glyph-name="ydieresis.sc" horiz-adv-x="985" 
d="M537 0h-84v379l-447 670v18h84l395 -618h19l393 618h82v-18l-442 -670v-379zM233 1386h136v-135h-136v135zM612 1386h136v-135h-136v135z" />
    <glyph glyph-name="zacute.sc" horiz-adv-x="1048" 
d="M954 80v-80h-880v82l782 917l-4 7q-289 -17 -426 -17h-328v78h856v-76l-788 -919l6 -11q273 19 467 19h315zM350 1196l-22 47l467 273l41 -74z" />
    <glyph glyph-name="zcaron.sc" horiz-adv-x="1048" 
d="M954 80v-80h-880v82l782 917l-4 7q-289 -17 -426 -17h-328v78h856v-76l-788 -919l6 -11q273 19 467 19h315zM539 1204h-52l-260 277l43 41l244 -230l244 230l41 -41z" />
    <glyph glyph-name="zdotaccent.sc" horiz-adv-x="1048" 
d="M954 80v-80h-880v82l782 917l-4 7q-289 -17 -426 -17h-328v78h856v-76l-788 -919l6 -11q273 19 467 19h315zM444 1417h140v-137h-140v137z" />
    <glyph glyph-name="germandbls.sc" horiz-adv-x="1196" 
d="M797 -20q-272 0 -396 215l66 49q55 -91 134.5 -138t195.5 -47q115 0 174 48t59 137q0 45 -17.5 79t-53 58t-70 39t-86.5 31q-63 19 -107 38t-84.5 47.5t-61 68t-20.5 89.5q0 69 46.5 129.5t113 100t152.5 69.5l-6 19q-156 -19 -295 -19q-87 0 -148 -27.5t-92.5 -77
t-45 -104t-13.5 -120.5v-664h-84v674q0 192 100 292.5t295 100.5h393v-76q-179 -83 -254.5 -148.5t-75.5 -135.5q0 -68 52.5 -108t156.5 -71q144 -44 217.5 -109.5t73.5 -172.5q0 -114 -78 -190t-241 -76z" />
    <glyph glyph-name="a.alt" horiz-adv-x="1095" 
d="M500 55q166 0 264 103t98 278v72q0 170 -99 275.5t-263 105.5q-336 0 -336 -416q0 -212 83.5 -315t252.5 -103zM80 473q0 236 105.5 365t295.5 127q154 1 245 -76t128 -207h8v262h82v-944h-82v258h-8q-37 -124 -134 -201t-241 -77q-192 0 -295.5 127.5t-103.5 365.5z" />
    <glyph glyph-name="aacute.alt" horiz-adv-x="1095" 
d="M375 1081l-23 47l467 273l41 -74zM500 55q166 0 264 103t98 278v72q0 170 -99 275.5t-263 105.5q-336 0 -336 -416q0 -212 83.5 -315t252.5 -103zM80 473q0 236 105.5 365t295.5 127q154 1 245 -76t128 -207h8v262h82v-944h-82v258h-8q-37 -124 -134 -201t-241 -77
q-192 0 -295.5 127.5t-103.5 365.5z" />
    <glyph glyph-name="abreve.alt" horiz-adv-x="1095" 
d="M526 1174q88 0 143.5 50t61.5 165h68q0 -144 -74 -217.5t-199 -73.5t-199.5 73.5t-74.5 217.5h70q10 -215 204 -215zM500 55q166 0 264 103t98 278v72q0 170 -99 275.5t-263 105.5q-336 0 -336 -416q0 -212 83.5 -315t252.5 -103zM80 473q0 236 105.5 365t295.5 127
q154 1 245 -76t128 -207h8v262h82v-944h-82v258h-8q-37 -124 -134 -201t-241 -77q-192 0 -295.5 127.5t-103.5 365.5z" />
    <glyph glyph-name="acircumflex.alt" horiz-adv-x="1095" 
d="M766 1079l-244 232l-243 -232l-41 41l260 277h51l260 -277zM500 55q166 0 264 103t98 278v72q0 170 -99 275.5t-263 105.5q-336 0 -336 -416q0 -212 83.5 -315t252.5 -103zM80 473q0 236 105.5 365t295.5 127q154 1 245 -76t128 -207h8v262h82v-944h-82v258h-8
q-37 -124 -134 -201t-241 -77q-192 0 -295.5 127.5t-103.5 365.5z" />
    <glyph glyph-name="adieresis.alt" horiz-adv-x="1095" 
d="M262 1272h135v-135h-135v135zM641 1272h135v-135h-135v135zM500 55q166 0 264 103t98 278v72q0 170 -99 275.5t-263 105.5q-336 0 -336 -416q0 -212 83.5 -315t252.5 -103zM80 473q0 236 105.5 365t295.5 127q154 1 245 -76t128 -207h8v262h82v-944h-82v258h-8
q-37 -124 -134 -201t-241 -77q-192 0 -295.5 127.5t-103.5 365.5z" />
    <glyph glyph-name="agrave.alt" horiz-adv-x="1095" 
d="M707 1081l-488 242l45 80l465 -275zM500 55q166 0 264 103t98 278v72q0 170 -99 275.5t-263 105.5q-336 0 -336 -416q0 -212 83.5 -315t252.5 -103zM80 473q0 236 105.5 365t295.5 127q154 1 245 -76t128 -207h8v262h82v-944h-82v258h-8q-37 -124 -134 -201t-241 -77
q-192 0 -295.5 127.5t-103.5 365.5z" />
    <glyph glyph-name="amacron.alt" horiz-adv-x="1095" 
d="M246 1227h559v-78h-559v78zM500 55q166 0 264 103t98 278v72q0 170 -99 275.5t-263 105.5q-336 0 -336 -416q0 -212 83.5 -315t252.5 -103zM80 473q0 236 105.5 365t295.5 127q154 1 245 -76t128 -207h8v262h82v-944h-82v258h-8q-37 -124 -134 -201t-241 -77
q-192 0 -295.5 127.5t-103.5 365.5z" />
    <glyph glyph-name="aogonek.alt" horiz-adv-x="1095" 
d="M500 55q166 0 264 103t98 278v72q0 170 -99 275.5t-263 105.5q-336 0 -336 -416q0 -212 83.5 -315t252.5 -103zM80 473q0 236 105.5 365t295.5 127q154 1 245 -76t128 -207h8v262h82v-944h2q-135 -28 -197.5 -66t-62.5 -96q0 -88 145 -88q37 0 113 17l8 -84
q-73 -13 -127 -13q-111 0 -163 39t-52 107q0 137 252 194v248h-8q-37 -124 -134 -201t-241 -77q-192 0 -295.5 127.5t-103.5 365.5z" />
    <glyph glyph-name="aring.alt" horiz-adv-x="1095" 
d="M379 1286q0 -68 37.5 -104.5t103.5 -36.5q67 0 105.5 37t38.5 106q0 68 -38.5 105t-105.5 37q-66 0 -103.5 -37.5t-37.5 -106.5zM739 1288q0 -99 -59 -158t-160 -59t-160 59t-59 156q0 99 59 158t160 59t160 -59t59 -156zM500 55q166 0 264 103t98 278v72
q0 170 -99 275.5t-263 105.5q-336 0 -336 -416q0 -212 83.5 -315t252.5 -103zM80 473q0 236 105.5 365t295.5 127q154 1 245 -76t128 -207h8v262h82v-944h-82v258h-8q-37 -124 -134 -201t-241 -77q-192 0 -295.5 127.5t-103.5 365.5z" />
    <glyph glyph-name="aringacute.alt" horiz-adv-x="1095" 
d="M360 1497l-18 72l502 131l20 -80zM393 1247q0 -61 32.5 -94t88.5 -33q58 0 90.5 33t32.5 94t-32.5 94t-90.5 33q-56 0 -88.5 -33t-32.5 -94zM713 1247q0 -90 -53.5 -143t-145.5 -53t-145.5 53t-53.5 143t53.5 143.5t145.5 53.5t145.5 -53.5t53.5 -143.5zM500 55
q166 0 264 103t98 278v72q0 170 -99 275.5t-263 105.5q-336 0 -336 -416q0 -212 83.5 -315t252.5 -103zM80 473q0 236 105.5 365t295.5 127q154 1 245 -76t128 -207h8v262h82v-944h-82v258h-8q-37 -124 -134 -201t-241 -77q-192 0 -295.5 127.5t-103.5 365.5z" />
    <glyph glyph-name="atilde.alt" horiz-adv-x="1095" 
d="M377 1413q46 0 83.5 -23.5t61 -56.5t45 -66.5t47.5 -57t56 -23.5q48 0 66.5 52t15.5 169h63q6 -50 6 -90q0 -101 -41 -154t-110 -53q-44 0 -80 23.5t-60 57t-46 66.5t-48.5 56.5t-56.5 23.5q-54 0 -73 -47.5t-17 -165.5h-64q-6 50 -6 88q0 99 42 150t116 51zM500 55
q166 0 264 103t98 278v72q0 170 -99 275.5t-263 105.5q-336 0 -336 -416q0 -212 83.5 -315t252.5 -103zM80 473q0 236 105.5 365t295.5 127q154 1 245 -76t128 -207h8v262h82v-944h-82v258h-8q-37 -124 -134 -201t-241 -77q-192 0 -295.5 127.5t-103.5 365.5z" />
    <glyph glyph-name="G.alt" horiz-adv-x="1280" 
d="M1118 514h-459v80h543v-80q0 -115 -31 -210t-94 -168.5t-168 -114.5t-245 -41q-281 0 -436.5 159t-155.5 461q0 193 63 337.5t195 228t321 83.5q227 0 364.5 -120.5t176.5 -335.5l-80 -19q-44 201 -157.5 298t-299.5 97q-256 0 -376.5 -150.5t-120.5 -418.5
q0 -257 125 -399t383 -142q452 0 452 455z" />
    <glyph glyph-name="Gbreve.alt" horiz-adv-x="1280" 
d="M1118 514h-459v80h543v-80q0 -115 -31 -210t-94 -168.5t-168 -114.5t-245 -41q-281 0 -436.5 159t-155.5 461q0 193 63 337.5t195 228t321 83.5q227 0 364.5 -120.5t176.5 -335.5l-80 -19q-44 201 -157.5 298t-299.5 97q-256 0 -376.5 -150.5t-120.5 -418.5
q0 -257 125 -399t383 -142q452 0 452 455zM649 1423q88 0 143.5 43t61.5 142h68q0 -132 -75.5 -198.5t-197.5 -66.5q-124 0 -199 66.5t-75 198.5h69q8 -185 205 -185z" />
    <glyph glyph-name="Gcircumflex.alt" horiz-adv-x="1280" 
d="M1118 514h-459v80h543v-80q0 -115 -31 -210t-94 -168.5t-168 -114.5t-245 -41q-281 0 -436.5 159t-155.5 461q0 193 63 337.5t195 228t321 83.5q227 0 364.5 -120.5t176.5 -335.5l-80 -19q-44 201 -157.5 298t-299.5 97q-256 0 -376.5 -150.5t-120.5 -418.5
q0 -257 125 -399t383 -142q452 0 452 455zM895 1339l-246 189l-248 -189l-36 45l258 224h51l258 -224z" />
    <glyph glyph-name="Gcommaaccent.alt" horiz-adv-x="1280" 
d="M1118 514h-459v80h543v-80q0 -115 -31 -210t-94 -168.5t-168 -114.5t-245 -41q-281 0 -436.5 159t-155.5 461q0 193 63 337.5t195 228t321 83.5q227 0 364.5 -120.5t176.5 -335.5l-80 -19q-44 201 -157.5 298t-299.5 97q-256 0 -376.5 -150.5t-120.5 -418.5
q0 -257 125 -399t383 -142q452 0 452 455zM643 -123h88l-123 -303h-61v16z" />
    <glyph glyph-name="Gdotaccent.alt" horiz-adv-x="1280" 
d="M1118 514h-459v80h543v-80q0 -115 -31 -210t-94 -168.5t-168 -114.5t-245 -41q-281 0 -436.5 159t-155.5 461q0 193 63 337.5t195 228t321 83.5q227 0 364.5 -120.5t176.5 -335.5l-80 -19q-44 201 -157.5 298t-299.5 97q-256 0 -376.5 -150.5t-120.5 -418.5
q0 -257 125 -399t383 -142q452 0 452 455zM580 1559h139v-138h-139v138z" />
    <glyph glyph-name="g.sc.alt" horiz-adv-x="1198" 
d="M1028 442h-403v78h483v-76q0 -100 -29 -182.5t-88.5 -146.5t-158.5 -99.5t-230 -35.5q-253 0 -392.5 142t-139.5 413q0 251 135 400.5t393 149.5q209 0 336.5 -105t163.5 -292l-80 -18q-75 336 -418 336q-118 0 -205 -33.5t-139 -97t-77 -148t-25 -192.5
q0 -225 110.5 -349.5t339.5 -124.5q424 0 424 381z" />
    <glyph glyph-name="gbreve.sc.alt" horiz-adv-x="1198" 
d="M1028 442h-403v78h483v-76q0 -100 -29 -182.5t-88.5 -146.5t-158.5 -99.5t-230 -35.5q-253 0 -392.5 142t-139.5 413q0 251 135 400.5t393 149.5q209 0 336.5 -105t163.5 -292l-80 -18q-75 336 -418 336q-118 0 -205 -33.5t-139 -97t-77 -148t-25 -192.5
q0 -225 110.5 -349.5t339.5 -124.5q424 0 424 381zM596 1307q88 0 143.5 50t61.5 165h67q0 -144 -73.5 -217.5t-198.5 -73.5t-199.5 73.5t-74.5 217.5h69q10 -215 205 -215z" />
    <glyph glyph-name="gcircumflex.sc.alt" horiz-adv-x="1198" 
d="M1028 442h-403v78h483v-76q0 -100 -29 -182.5t-88.5 -146.5t-158.5 -99.5t-230 -35.5q-253 0 -392.5 142t-139.5 413q0 251 135 400.5t393 149.5q209 0 336.5 -105t163.5 -292l-80 -18q-75 336 -418 336q-118 0 -205 -33.5t-139 -97t-77 -148t-25 -192.5
q0 -225 110.5 -349.5t339.5 -124.5q424 0 424 381zM836 1212l-244 232l-244 -232l-41 41l260 277h51l261 -277z" />
    <glyph glyph-name="gcommaaccent.sc.alt" horiz-adv-x="1198" 
d="M1028 442h-403v78h483v-76q0 -100 -29 -182.5t-88.5 -146.5t-158.5 -99.5t-230 -35.5q-253 0 -392.5 142t-139.5 413q0 251 135 400.5t393 149.5q209 0 336.5 -105t163.5 -292l-80 -18q-75 336 -418 336q-118 0 -205 -33.5t-139 -97t-77 -148t-25 -192.5
q0 -225 110.5 -349.5t339.5 -124.5q424 0 424 381zM594 -123h88l-123 -303h-61v16z" />
    <glyph glyph-name="gdotaccent.sc.alt" horiz-adv-x="1198" 
d="M1028 442h-403v78h483v-76q0 -100 -29 -182.5t-88.5 -146.5t-158.5 -99.5t-230 -35.5q-253 0 -392.5 142t-139.5 413q0 251 135 400.5t393 149.5q209 0 336.5 -105t163.5 -292l-80 -18q-75 336 -418 336q-118 0 -205 -33.5t-139 -97t-77 -148t-25 -192.5
q0 -225 110.5 -349.5t339.5 -124.5q424 0 424 381zM518 1436h139v-138h-139v138z" />
    <glyph glyph-name="g.alt" horiz-adv-x="1095" 
d="M500 127q166 0 264 95t98 255v31q0 170 -99 275.5t-263 105.5q-336 0 -336 -381q0 -193 83.5 -287t252.5 -94zM80 508q0 219 105.5 338t295.5 119q154 1 245 -76t128 -207h8v262h82v-835q0 -445 -436 -445q-181 0 -290.5 72t-141.5 211l82 26q53 -229 350 -229
q101 0 171.5 25.5t109.5 75t56 113.5t17 151v190h-12q-39 -111 -135 -179.5t-236 -68.5q-192 0 -295.5 118.5t-103.5 338.5z" />
    <glyph glyph-name="gbreve.alt" horiz-adv-x="1095" 
d="M522 1174q88 0 143.5 50t61.5 165h68q0 -144 -74 -217.5t-199 -73.5t-199.5 73.5t-74.5 217.5h69q10 -215 205 -215zM500 127q166 0 264 95t98 255v31q0 170 -99 275.5t-263 105.5q-336 0 -336 -381q0 -193 83.5 -287t252.5 -94zM80 508q0 219 105.5 338t295.5 119
q154 1 245 -76t128 -207h8v262h82v-835q0 -445 -436 -445q-181 0 -290.5 72t-141.5 211l82 26q53 -229 350 -229q101 0 171.5 25.5t109.5 75t56 113.5t17 151v190h-12q-39 -111 -135 -179.5t-236 -68.5q-192 0 -295.5 118.5t-103.5 338.5z" />
    <glyph glyph-name="gcircumflex.alt" horiz-adv-x="1095" 
d="M758 1079l-244 232l-244 -232l-41 41l260 277h52l260 -277zM500 127q166 0 264 95t98 255v31q0 170 -99 275.5t-263 105.5q-336 0 -336 -381q0 -193 83.5 -287t252.5 -94zM80 508q0 219 105.5 338t295.5 119q154 1 245 -76t128 -207h8v262h82v-835q0 -445 -436 -445
q-181 0 -290.5 72t-141.5 211l82 26q53 -229 350 -229q101 0 171.5 25.5t109.5 75t56 113.5t17 151v190h-12q-39 -111 -135 -179.5t-236 -68.5q-192 0 -295.5 118.5t-103.5 338.5z" />
    <glyph glyph-name="gcommaaccent.alt" horiz-adv-x="1095" 
d="M539 1126h-88l120 304h64v-17zM500 127q166 0 264 95t98 255v31q0 170 -99 275.5t-263 105.5q-336 0 -336 -381q0 -193 83.5 -287t252.5 -94zM80 508q0 219 105.5 338t295.5 119q154 1 245 -76t128 -207h8v262h82v-835q0 -445 -436 -445q-181 0 -290.5 72t-141.5 211
l82 26q53 -229 350 -229q101 0 171.5 25.5t109.5 75t56 113.5t17 151v190h-12q-39 -111 -135 -179.5t-236 -68.5q-192 0 -295.5 118.5t-103.5 338.5z" />
    <glyph glyph-name="gdotaccent.alt" horiz-adv-x="1095" 
d="M455 1303h139v-138h-139v138zM500 127q166 0 264 95t98 255v31q0 170 -99 275.5t-263 105.5q-336 0 -336 -381q0 -193 83.5 -287t252.5 -94zM80 508q0 219 105.5 338t295.5 119q154 1 245 -76t128 -207h8v262h82v-835q0 -445 -436 -445q-181 0 -290.5 72t-141.5 211
l82 26q53 -229 350 -229q101 0 171.5 25.5t109.5 75t56 113.5t17 151v190h-12q-39 -111 -135 -179.5t-236 -68.5q-192 0 -295.5 118.5t-103.5 338.5z" />
    <glyph glyph-name="t.alt" horiz-adv-x="610" 
d="M301 0h-82v866h-172v78h172v285h82v-285h262v-78h-262v-866z" />
    <glyph glyph-name="tbar.alt" horiz-adv-x="610" 
d="M301 0h-82v451h-149v77h149v338h-172v78h172v285h82v-285h262v-78h-262v-338h227v-77h-227v-451z" />
    <glyph glyph-name="tcaron.alt" horiz-adv-x="610" 
d="M481 1372h88l-37 -332h-57zM301 0h-82v866h-172v78h172v285h82v-285h262v-78h-262v-866z" />
    <glyph glyph-name="tcommaaccent.alt" horiz-adv-x="610" 
d="M301 0h-31l-45 -115q49 19 94 19q67 0 108.5 -26.5t41.5 -84.5q0 -50 -43 -93.5t-135 -43.5q-131 0 -207 61l41 62q26 -17 44 -26.5t49.5 -18t68.5 -8.5q56 0 82 20t26 49q0 31 -25 47.5t-71 16.5q-49 0 -92 -15l-49 25l61 158v839h-172v78h172v285h82v-285h262v-78h-262
v-866z" />
    <glyph glyph-name="uni021B.alt" horiz-adv-x="610" 
d="M301 0h-82v866h-172v78h172v285h82v-285h262v-78h-262v-866zM244 -123h88l-123 -303h-62v16z" />
    <glyph glyph-name="zero.sc" horiz-adv-x="1060" 
d="M532 1010q-125 0 -210 -61.5t-124.5 -166t-39.5 -247.5q0 -218 93.5 -347t280.5 -129q186 0 279.5 129.5t93.5 346.5q0 218 -94 346.5t-279 128.5zM532 1085q220 0 338.5 -150t118.5 -400q0 -163 -50 -286t-154.5 -195t-252.5 -72q-222 0 -340 151.5t-118 401.5
t118.5 400t339.5 150z" />
    <glyph glyph-name="one.sc" horiz-adv-x="860" 
d="M782 0h-688v78h342v913q-142 -60 -321 -127l-29 76l385 127h49v-989h262v-78z" />
    <glyph glyph-name="two.sc" horiz-adv-x="1058" 
d="M575 1010q-160 0 -249 -84t-117 -262l-78 14q68 407 442 407q181 0 277 -78t96 -221q0 -73 -27 -129t-83.5 -98t-124.5 -72.5t-170 -62.5q-220 -69 -294 -142.5t-75 -226.5q239 23 418 23h381v-78h-875v66q0 90 22.5 155t74 114t123 83.5t182.5 68.5q196 60 280 127
t84 174q0 102 -70.5 162t-216.5 60z" />
    <glyph glyph-name="three.sc" horiz-adv-x="1044" 
d="M555 -18q-406 0 -483 366l82 17q31 -154 128 -231t273 -77q158 0 243 61.5t85 170.5q0 74 -26 118.5t-96 69.5t-194 25h-190v73h182q116 0 192 54t76 164q0 115 -67 166t-209 51q-144 0 -224 -68t-112 -201l-78 15q31 156 133 242.5t281 86.5q358 0 358 -280
q0 -200 -225 -254v-19q158 -13 220.5 -70t62.5 -175q0 -143 -102 -224t-310 -81z" />
    <glyph glyph-name="four.sc" horiz-adv-x="1087" 
d="M1040 274h-192v-274h-84v274h-711v74l709 719h86v-717h192v-76zM510 350h254v611l-8 2l-602 -615l8 -14q181 16 348 16z" />
    <glyph glyph-name="five.sc" horiz-adv-x="1073" 
d="M561 57q322 0 322 267q0 122 -80 179.5t-244 57.5q-90 0 -179 -22.5t-134 -53.5l-76 29v553h733v-82q-317 0 -655 14v-454q134 90 323 90q192 0 294 -77t102 -234q0 -172 -109 -257t-301 -85q-177 0 -294.5 74t-192.5 233l80 33q58 -130 156.5 -197.5t254.5 -67.5z" />
    <glyph glyph-name="six.sc" horiz-adv-x="1058" 
d="M573 584q-189 0 -292 -77t-103 -185q0 -112 97.5 -188.5t267.5 -76.5q334 0 334 287q0 240 -304 240zM961 342q0 -167 -108 -263.5t-314 -96.5q-459 0 -459 522q0 131 25.5 234t79.5 182.5t146 122t218 42.5q94 0 163 -21.5t115 -65t73.5 -101.5t43.5 -139l-80 -15
q-30 139 -101.5 203t-213.5 64q-200 0 -296.5 -126t-96.5 -380q0 -57 2 -98l16 -3q31 121 134 186.5t276 65.5q79 0 145 -17.5t119 -54t83 -98t30 -143.5z" />
    <glyph glyph-name="seven.sc" horiz-adv-x="966" 
d="M29 987v80h917v-78q-224 -210 -345.5 -462t-147.5 -527h-88q27 265 155 531t338 470q-181 -14 -428 -14h-401z" />
    <glyph glyph-name="eight.sc" horiz-adv-x="1042" 
d="M520 -18q-442 0 -442 292q0 223 315 256v19q-127 22 -193 86.5t-65 169.5q2 130 98 205t287 75q193 0 290 -75t97 -205q0 -105 -66 -169.5t-192 -86.5v-19q169 -17 242.5 -86t73.5 -170q0 -292 -445 -292zM520 502q-84 0 -148.5 -13.5t-103.5 -35t-63.5 -52t-33.5 -61
t-9 -64.5q0 -105 89.5 -162t268.5 -57q181 0 271 57t90 162q0 34 -9 64.5t-33.5 61t-63.5 52t-104.5 35t-150.5 13.5zM520 1010q-156 0 -228.5 -57.5t-72.5 -159.5q-1 -110 82.5 -165t218.5 -55q137 0 220 55t83 165q0 217 -303 217z" />
    <glyph glyph-name="nine.sc" horiz-adv-x="1067" 
d="M492 492q184 0 285.5 74.5t101.5 178.5q0 113 -97 189t-264 76q-169 0 -249.5 -75t-80.5 -204q0 -239 304 -239zM518 -18q-194 0 -298 83t-134 242l80 17q52 -267 352 -267q383 0 383 508v97l-20 2q-30 -114 -131.5 -179t-270.5 -65q-78 0 -144 17.5t-118.5 53.5
t-82.5 98t-30 144q0 160 108.5 256t309.5 96q455 0 455 -522q0 -130 -25.5 -233t-78.5 -182.5t-143 -122.5t-212 -43z" />
    <glyph glyph-name="periodcentered.sc" horiz-adv-x="385" 
d="M119 606h147v-149h-147v149z" />
    <glyph glyph-name="bullet.sc" horiz-adv-x="509" 
d="M137 672h236v-238h-236v238z" />
    <glyph glyph-name="ampersand.sc" horiz-adv-x="1275" 
d="M369 797q0 -95 47 -201q179 45 266.5 109t87.5 155q0 152 -178 152q-101 0 -162 -55.5t-61 -159.5zM1206 68v-74q-46 -6 -88 -6q-183 0 -358 106q-68 -51 -160 -81.5t-192 -30.5q-156 0 -245 72t-89 206q0 118 69 192t201 121q-55 122 -55 226q0 137 85.5 211.5
t217.5 74.5q130 0 195 -61.5t65 -159.5q0 -58 -27.5 -107t-67 -81t-99.5 -59.5t-108 -42t-110 -29.5q56 -108 144 -205.5t194 -163.5q206 192 244 457l78 -8q-12 -134 -87 -262t-188 -216q149 -81 295 -81q59 0 86 2zM420 59q158 0 289 70q-106 74 -194 177t-146 214
q-213 -69 -213 -256q0 -96 71 -150.5t193 -54.5z" />
    <glyph glyph-name="hyphen.sc" horiz-adv-x="716" 
d="M51 580h615v-86h-615v86z" />
    <glyph glyph-name="endash.sc" horiz-adv-x="974" 
d="M51 580h873v-78h-873v78z" />
    <glyph glyph-name="emdash.sc" horiz-adv-x="1761" 
d="M51 580h1659v-78h-1659v78z" />
    <glyph glyph-name="parenleft.sc" horiz-adv-x="606" 
d="M223 528q0 -232 82.5 -420t272.5 -364l-48 -49q-204 175 -297.5 381.5t-93.5 451.5q0 243 90.5 446.5t290.5 375.5l47 -50q-185 -167 -264.5 -354t-79.5 -418z" />
    <glyph glyph-name="parenright.sc" horiz-adv-x="606" 
d="M385 526q0 233 -82 421.5t-272 363.5l47 49q204 -176 297.5 -382t93.5 -452q0 -490 -381 -821l-47 49q184 167 264 355t80 417z" />
    <glyph glyph-name="bracketleft.sc" horiz-adv-x="532" 
d="M152 -264v1569h329v-76h-245v-1417h245v-76h-329z" />
    <glyph glyph-name="bracketright.sc" horiz-adv-x="532" 
d="M51 -256v76h246v1417h-246v76h330v-1569h-330z" />
    <glyph glyph-name="braceleft.sc" horiz-adv-x="688" 
d="M637 -260q-13 0 -50 -2t-71 -2q-141 0 -210.5 59t-67.5 154q0 52 24.5 107.5t54 95.5t54 90t24.5 92q0 83 -54 121.5t-169 38.5h-127v75h127q96 0 159.5 39t63.5 119q0 42 -23 92t-50.5 90t-50.5 95.5t-23 107.5q-2 95 67.5 154t210.5 59q22 0 121 -6v-72q-43 2 -119 2
q-111 0 -154.5 -33t-43.5 -106q0 -42 21.5 -91.5t47 -88.5t47 -92.5t21.5 -102.5q0 -85 -58 -131.5t-176 -64.5v-13q124 -12 179 -59t55 -141q0 -48 -23 -101.5t-51 -92t-51 -88.5t-23 -93q0 -73 44.5 -106t154.5 -33q76 0 119 2v-74z" />
    <glyph glyph-name="braceright.sc" horiz-adv-x="688" 
d="M162 -266q-22 0 -121 6v72q43 -2 119 -2q111 0 154.5 33t43.5 106q0 43 -21.5 93t-47 88.5t-47 92t-21.5 101.5q0 87 58.5 134t175.5 62v15q-125 12 -179.5 58t-54.5 140q0 49 23 102.5t51 92.5t51 88.5t23 91.5q0 73 -44.5 106t-154.5 33q-76 0 -119 -2v74q13 0 50 2
t71 2q141 0 211 -59t68 -154q0 -42 -16.5 -86t-39.5 -80.5t-46 -71.5t-39.5 -73.5t-16.5 -73.5q0 -82 54.5 -121t168.5 -39h127v-76h-127q-96 0 -159.5 -38.5t-63.5 -116.5q0 -42 23 -92t50.5 -90.5t50.5 -96.5t23 -108q2 -95 -67.5 -154t-210.5 -59z" />
    <glyph glyph-name="dollar.sc" horiz-adv-x="1026" 
d="M494 1272h79l-6 -199q149 -13 230.5 -90.5t117.5 -216.5l-81 -16q-34 130 -106.5 189.5t-223.5 59.5q-147 0 -222 -50.5t-75 -141.5q0 -56 29 -96t106.5 -73.5t210.5 -57.5q149 -28 237.5 -72t122 -97.5t33.5 -127.5q0 -132 -93 -209.5t-286 -81.5l6 -213h-79l6 215
q-191 10 -299 102t-133 252l82 19q25 -149 119 -224t274 -75q163 0 241 55.5t78 152.5q0 93 -74 144t-253 82q-220 38 -313 112.5t-93 188.5q0 125 96 198.5t275 73.5z" />
    <glyph glyph-name="sterling.sc" horiz-adv-x="1024" 
d="M950 0h-864v78h197q26 81 26 198q0 51 -18 136h-201v73h182q-17 66 -24 96.5t-16 89t-9 107.5q0 144 83.5 225.5t246.5 81.5q87 0 152.5 -25t107 -74t66.5 -108t41 -139l-78 -12q-34 147 -99 215t-190 68q-130 0 -188 -64t-58 -166q0 -49 9 -108.5t15.5 -88t24.5 -98.5
h441v-73h-422q16 -72 16 -129q0 -110 -33 -205h592v-78z" />
    <glyph glyph-name="yen.sc" horiz-adv-x="1038" 
d="M965 328h-402v-328h-84v328h-403v71h389l-111 166h-278v70h233l-276 414v18h84l395 -618h18l394 618h82v-18l-273 -414h232v-70h-279l-108 -166h387v-71z" />
    <glyph glyph-name="Euro.sc" horiz-adv-x="1220" 
d="M657 -18q-200 0 -322 109t-153 302h-141v70h131q-2 23 -2 72q0 41 2 61h-131v68h139q31 197 155.5 309t323.5 112q189 0 306.5 -103.5t152.5 -285.5l-78 -20q-74 332 -378 332q-171 0 -271 -90t-127 -254h361v-68h-369q-2 -20 -2 -61q0 -49 2 -72h369v-70h-359
q30 -159 128.5 -245.5t264.5 -86.5q165 0 259 86.5t131 253.5l77 -16q-33 -188 -151.5 -295.5t-317.5 -107.5z" />
    <glyph glyph-name="percent.sc" horiz-adv-x="1372" 
d="M168 0v12l438 453l45 -37l-391 -428h-92zM1120 1067h92v-10l-438 -455l-43 39zM362 500q-129 0 -206.5 80t-77.5 215t77 212.5t207 77.5q129 0 206 -77.5t77 -212.5t-77.5 -215t-205.5 -80zM360 569q103 0 157 60.5t54 165.5q0 104 -54.5 162.5t-154.5 58.5
q-102 0 -156 -58.5t-54 -162.5q0 -106 52 -166t156 -60zM1012 -18q-129 0 -207 80.5t-78 216.5q0 134 77.5 211t207.5 77q128 0 204 -77t76 -211q0 -136 -76 -216.5t-204 -80.5zM1010 51q103 0 157 61t54 167q0 103 -54.5 162t-154.5 59q-101 0 -156 -59t-55 -162
q0 -106 52.5 -167t156.5 -61z" />
    <glyph glyph-name="plus.sc" horiz-adv-x="1011" 
d="M463 100v402h-389v78h389v393h86v-393h389v-78h-389v-402h-86z" />
    <glyph glyph-name="minus.sc" horiz-adv-x="1015" 
d="M944 500h-872v78h872v-78z" />
    <glyph glyph-name="equal.sc" horiz-adv-x="1077" 
d="M975 350h-873v78h873v-78zM975 678h-873v78h873v-78z" />
    </font>
</defs>
</svg>
