<?xml version="1.0" standalone="no"?>
<!DOCTYPE svg PUBLIC "-//W3C//DTD SVG 1.1//EN" "http://www.w3.org/Graphics/SVG/1.1/DTD/svg11.dtd" >
<svg xmlns="http://www.w3.org/2000/svg" xmlns:xlink="http://www.w3.org/1999/xlink" version="1.1">
<metadata>
Created by FontForge 20170731 at Fri Dec 18 19:36:29 2020
 By Aleksey,,,
(c) Copyright OH no Type Company, LLC. 2020. All rights reserved.
</metadata>
<defs>
<font id="Degular-BoldItalic" horiz-adv-x="900" >
  <font-face 
    font-family="Degular"
    font-weight="700"
    font-style="italic"
    font-stretch="normal"
    units-per-em="1000"
    panose-1="4 4 7 6 6 3 3 11 3 5"
    ascent="670"
    descent="-330"
    x-height="474"
    cap-height="600"
    bbox="-361 -220 1287 949"
    underline-thickness="50"
    underline-position="-380"
    unicode-range="U+0020-FB02"
  />
<missing-glyph horiz-adv-x="855" 
d="M363 62q27 0 45.5 2.5t43.5 9t36 8.5q0 36 10 67t29 55t31 36t32 29l9 -10q-8 -23 -24 -99q90 61 90 197q0 233 -229 233q-80 0 -135 -36.5t-72 -96.5q47 -4 70.5 -36.5t23.5 -75.5q0 -51 -30.5 -80t-72.5 -34q1 -29 4 -140q17 -12 59 -20.5t80 -8.5zM364 -33
q-142 0 -214 63q-5 144 9 210q-60 29 -60 103q0 71 61 102q-8 103 72.5 171t212.5 68q151 0 229 -77t78 -218q0 -112 -46.5 -194t-145.5 -115q-8 -50 -8 -71q-68 -42 -188 -42zM460 460q55 0 84.5 -33t29.5 -79q0 -54 -37 -90.5t-86 -36.5t-81 32.5t-32 87.5q0 48 31.5 83.5
t90.5 35.5z" />
    <glyph glyph-name=".notdef" horiz-adv-x="855" 
d="M363 62q27 0 45.5 2.5t43.5 9t36 8.5q0 36 10 67t29 55t31 36t32 29l9 -10q-8 -23 -24 -99q90 61 90 197q0 233 -229 233q-80 0 -135 -36.5t-72 -96.5q47 -4 70.5 -36.5t23.5 -75.5q0 -51 -30.5 -80t-72.5 -34q1 -29 4 -140q17 -12 59 -20.5t80 -8.5zM364 -33
q-142 0 -214 63q-5 144 9 210q-60 29 -60 103q0 71 61 102q-8 103 72.5 171t212.5 68q151 0 229 -77t78 -218q0 -112 -46.5 -194t-145.5 -115q-8 -50 -8 -71q-68 -42 -188 -42zM460 460q55 0 84.5 -33t29.5 -79q0 -54 -37 -90.5t-86 -36.5t-81 32.5t-32 87.5q0 48 31.5 83.5
t90.5 35.5z" />
    <glyph glyph-name=".null" horiz-adv-x="0" 
 />
    <glyph glyph-name="nonmarkingreturn" horiz-adv-x="333" 
 />
    <glyph glyph-name="space" unicode=" " horiz-adv-x="183" 
 />
    <glyph glyph-name="exclam" unicode="!" horiz-adv-x="249" 
d="M190 222h-136l66 378h137zM35 143h147l-25 -143h-148z" />
    <glyph glyph-name="quotedbl" unicode="&#x22;" horiz-adv-x="374" 
d="M91 600h140l-65 -274h-103zM271 600h140l-65 -274h-103z" />
    <glyph glyph-name="numbersign" unicode="#" horiz-adv-x="680" 
d="M464 0h-108l19 120h-118l-21 -120h-107l21 120h-136l21 122h136l19 111h-136l22 121h134l22 126h113l-24 -126h114l23 126h113l-22 -126h137l-21 -121h-138l-20 -111h138l-21 -122h-139zM264 230h143l24 135h-143z" />
    <glyph glyph-name="dollar" unicode="$" horiz-adv-x="565" 
d="M312 708h115l-26 -107q153 -23 165 -163l-148 -28q-4 46 -26.5 68.5t-73.5 22.5q-89 0 -98 -55q-5 -30 18 -50.5t101 -35.5q123 -24 163 -76.5t27 -131.5q-26 -149 -235 -158l-13 -118h-115l30 122q-178 24 -183 179l142 28q9 -103 128 -103q93 0 102 56q6 34 -19.5 53.5
t-105.5 33.5q-113 20 -154 71.5t-26 134.5q25 143 221 153z" />
    <glyph glyph-name="percent" unicode="%" horiz-adv-x="762" 
d="M212 260q-83 0 -124.5 52.5t-25.5 140.5q13 75 63.5 116.5t125.5 41.5q84 0 126 -53t26 -140q-13 -76 -64 -117t-127 -41zM219 349q68 0 81 83q8 43 -7.5 66.5t-48.5 23.5q-65 0 -80 -82q-7 -43 8 -67t47 -24zM537 -10q-83 0 -124.5 53t-25.5 141q13 75 63.5 116
t125.5 41q84 0 125.5 -52.5t26.5 -139.5q-13 -76 -64 -117.5t-127 -41.5zM544 79q31 0 52.5 21.5t28.5 61.5q8 43 -7.5 66.5t-48.5 23.5q-65 0 -80 -81q-8 -44 7 -68t48 -24zM595 600h193l-1 -6l-350 -265l-19 16zM195 0h-192l1 6l349 265l19 -15z" />
    <glyph glyph-name="ampersand" unicode="&#x26;" horiz-adv-x="696" 
d="M292 448q-7 -39 5 -84q59 17 88.5 37.5t35.5 53.5q5 27 -8.5 44.5t-45.5 17.5q-64 0 -75 -69zM652 130l-17 -131q-31 -6 -73 -6q-102 0 -194 66q-72 -69 -191 -69q-90 0 -138.5 50t-33.5 135q11 61 54 94.5t121 59.5q-22 73 -13 133q15 79 71 115t131 36q97 0 140 -42
t31 -107q-6 -37 -28 -64t-57 -43.5t-66 -25t-73 -15.5q41 -85 118 -137q87 90 132 208l118 -17q-50 -136 -183 -226q46 -17 95 -17q26 0 56 3zM228 91q46 0 83 17q-78 80 -118 183q-52 -34 -63 -93q-8 -47 15.5 -77t82.5 -30z" />
    <glyph glyph-name="quotesingle" unicode="'" horiz-adv-x="194" 
d="M91 600h140l-65 -274h-103z" />
    <glyph glyph-name="parenleft" unicode="(" horiz-adv-x="348" 
d="M186 258q-22 -110 -7.5 -212t73.5 -199l-95 -65q-55 67 -85 152.5t-32.5 169.5t10.5 173q47 268 271 451l78 -73q-96 -93 -144 -187t-69 -210z" />
    <glyph glyph-name="parenright" unicode=")" horiz-adv-x="348" 
d="M161 250q23 110 8.5 212t-74.5 199l96 65q55 -67 85 -152.5t32.5 -169.5t-11.5 -173q-47 -268 -270 -451l-78 73q96 93 143.5 186.5t68.5 210.5z" />
    <glyph glyph-name="asterisk" unicode="*" horiz-adv-x="524" 
d="M266 670h145l-78 -182h-53zM57 445l56 131l150 -100l-24 -50zM182 204l-107 88l167 117l36 -31zM467 283l-120 -77l-49 172l46 31zM520 574l25 -133l-191 -15l-8 50z" />
    <glyph glyph-name="plus" unicode="+" horiz-adv-x="503" 
d="M155 75l29 167h-159l22 123h159l29 166h137l-29 -166h158l-21 -123h-159l-30 -167h-136z" />
    <glyph glyph-name="comma" unicode="," horiz-adv-x="197" 
d="M25 151h139l-156 -286h-100l1 6z" />
    <glyph glyph-name="hyphen" unicode="-" horiz-adv-x="350" 
d="M30 307h315l-22 -125h-315z" />
    <glyph glyph-name="period" unicode="." horiz-adv-x="196" 
d="M8 143h147l-25 -143h-148z" />
    <glyph glyph-name="slash" unicode="/" horiz-adv-x="327" 
d="M82 -151h-147l322 793h144z" />
    <glyph glyph-name="zero" unicode="0" horiz-adv-x="589" 
d="M336 489q-122 0 -155 -182q-17 -94 6.5 -146t88.5 -52q123 0 155 189q34 191 -95 191zM346 614q130 0 192 -87t33 -247q-25 -142 -105.5 -218t-201.5 -76q-131 0 -191 87.5t-32 248.5q25 141 106.5 216.5t198.5 75.5z" />
    <glyph glyph-name="one" unicode="1" horiz-adv-x="460" 
d="M391 0h-395l21 121h146l61 348q-57 -29 -132 -54l-30 114l242 71h80l-84 -479h113z" />
    <glyph glyph-name="two" unicode="2" horiz-adv-x="578" 
d="M346 495q-55 0 -89 -32.5t-53 -100.5l-132 22q29 111 97 170t187 59q120 0 176 -55t37 -161q-13 -77 -83.5 -120.5t-191.5 -68.5q-85 -18 -119.5 -38t-45.5 -59q103 11 175 11h220l-21 -122h-514q3 34 9 72q18 100 73.5 150t169.5 78q111 29 147.5 50.5t43.5 60.5
q7 38 -15 61t-71 23z" />
    <glyph glyph-name="three" unicode="3" horiz-adv-x="568" 
d="M270 -10q-130 0 -189.5 47t-61.5 147l138 16q2 -49 27 -73.5t89 -24.5q102 0 115 73q7 40 -11.5 58t-74.5 18h-102l17 98h102q84 0 96 67q7 41 -13.5 61t-70.5 20q-53 0 -79.5 -23.5t-42.5 -73.5l-130 18q52 192 266 192q119 0 170 -46.5t35 -135.5q-17 -97 -160 -121
l-2 -12q89 -9 119.5 -43t18.5 -100q-13 -76 -76.5 -119t-179.5 -43z" />
    <glyph glyph-name="four" unicode="4" horiz-adv-x="582" 
d="M544 134h-75l-24 -134h-136l23 134h-332l18 98l357 368h176l-63 -355h76zM330 245h22l43 245l-8 3l-240 -252l3 -7q89 11 180 11z" />
    <glyph glyph-name="five" unicode="5" horiz-adv-x="572" 
d="M274 101q102 0 115 78q7 44 -15 68t-80 24q-67 0 -123 -35l-104 43l57 321h447l-23 -130q-175 0 -320 13l-26 -150q60 35 143 35q107 0 152 -55.5t29 -146.5q-29 -176 -258 -176q-109 0 -173.5 42.5t-80.5 121.5l135 32q22 -85 125 -85z" />
    <glyph glyph-name="six" unicode="6" horiz-adv-x="579" 
d="M304 278q-118 0 -130 -80q-8 -40 18 -67t86 -27q105 0 121 84q7 43 -15 66.5t-80 23.5zM535 172q-15 -88 -81 -136t-177 -48q-67 0 -115 17t-82 56.5t-41 104t7 160.5q23 128 98.5 207t204.5 79q217 0 217 -193l-139 -14q-3 44 -23 67t-66 23q-71 0 -109 -53t-59 -177
q-2 -10 -3 -16l11 -2q58 115 193 115q88 0 134.5 -46.5t29.5 -143.5z" />
    <glyph glyph-name="seven" unicode="7" horiz-adv-x="522" 
d="M52 472l22 128h497l-22 -128q-215 -188 -280 -472h-166q32 144 118.5 266.5t214.5 216.5q-103 -11 -183 -11h-201z" />
    <glyph glyph-name="eight" unicode="8" horiz-adv-x="574" 
d="M258 -12q-139 0 -196.5 49t-43.5 133q18 105 179 128l2 12q-125 34 -105 152q27 150 249 150q124 0 176 -47t36 -135q-9 -51 -47 -79.5t-106 -41.5l-3 -12q151 -27 130 -153q-28 -156 -271 -156zM289 253q-114 0 -128 -73q-6 -38 20 -58t86 -20q112 0 125 72
q7 38 -15.5 58.5t-87.5 20.5zM332 496q-98 0 -111 -72q-7 -40 15 -59t71 -19q98 0 111 73q8 39 -13 58t-73 19z" />
    <glyph glyph-name="nine" unicode="9" horiz-adv-x="575" 
d="M297 312q56 0 89.5 23.5t39.5 60.5q8 43 -19 71.5t-87 28.5q-103 0 -118 -85q-8 -46 16 -72.5t79 -26.5zM249 -12q-120 0 -171.5 44.5t-58.5 127.5l134 28q5 -42 29.5 -62.5t76.5 -20.5q72 0 111 53.5t60 175.5q0 2 0.5 4t0.5 4l-11 2q-61 -116 -192 -116
q-87 0 -133.5 51t-29.5 146q16 89 83.5 138t181.5 49q136 0 196.5 -77.5t29.5 -255.5q-23 -131 -98 -211t-209 -80z" />
    <glyph glyph-name="colon" unicode=":" horiz-adv-x="217" 
d="M68 476h147l-25 -143h-148zM18 143h147l-25 -143h-148z" />
    <glyph glyph-name="semicolon" unicode=";" horiz-adv-x="229" 
d="M42 151h139l-156 -286h-100l1 6zM68 476h147l-25 -143h-148z" />
    <glyph glyph-name="less" unicode="&#x3c;" horiz-adv-x="512" 
d="M428 8l-409 177l25 142l472 179l-27 -151l-226 -54q-24 -7 -147 -35l-4 -24q58 -13 134 -33l209 -51z" />
    <glyph glyph-name="equal" unicode="=" horiz-adv-x="526" 
d="M461 153h-426l19 109h426zM495 343h-426l19 108h426z" />
    <glyph glyph-name="greater" unicode="&#x3e;" horiz-adv-x="512" 
d="M-15 9l27 151l227 54q24 7 147 35l4 23q-76 18 -135 34l-209 51l27 150l410 -177l-25 -142z" />
    <glyph glyph-name="question" unicode="?" horiz-adv-x="494" 
d="M358 272q-47 -17 -54 -55q-1 -2 -1.5 -6t-0.5 -6h-130q0 2 1 6.5t1.5 8t0.5 6.5q8 46 32.5 74t77.5 50q47 21 64 34.5t22 40.5q6 34 -13 52t-60 18q-51 0 -80 -31t-47 -91l-130 25q31 104 95.5 159t173.5 55q112 0 165.5 -49.5t37.5 -138.5q-12 -62 -50 -94.5t-105 -57.5
zM152 143h147l-25 -143h-148z" />
    <glyph glyph-name="at" unicode="@" horiz-adv-x="843" 
d="M396 -112q-181 0 -273 78t-92 246q0 124 53 226.5t159.5 166t248.5 63.5q91 0 158.5 -24.5t106.5 -68.5t57.5 -98.5t18.5 -119.5q0 -147 -63 -220.5t-154 -73.5q-70 0 -99.5 30t-27.5 84q0 15 1 23h-8q-56 -137 -144 -137q-107 0 -107 140q0 112 50.5 192t131.5 80
q87 0 95 -115h7l18 104h111l-44 -247q-9 -59 37 -59q36 0 62 46.5t26 141.5q0 218 -254 218q-149 0 -236 -100.5t-87 -249.5q0 -120 63 -174t191 -54q50 0 109 11t97 28h7l-11 -97q-89 -40 -208 -40zM502 294q8 40 -8 63t-49 23q-44 0 -70 -46t-27 -111q0 -65 48 -65
q36 0 64 36t38 82z" />
    <glyph glyph-name="A" unicode="A" horiz-adv-x="599" 
d="M418 0l-17 133h-232l-65 -133h-155l316 600h198l103 -600h-148zM256 312l-36 -74h167l-10 74q-13 103 -19 164h-24q-32 -72 -78 -164z" />
    <glyph glyph-name="B" unicode="B" horiz-adv-x="580" 
d="M332 247h-134l-25 -141h140q80 0 93 69q6 37 -10 54.5t-64 17.5zM359 490h-118l-26 -145h115q87 0 99 71q7 38 -9.5 56t-60.5 18zM10 0l106 600h267q109 0 154.5 -41.5t31.5 -124.5q-18 -104 -149 -129l-2 -10q82 -8 110.5 -42t15.5 -105q-12 -69 -72.5 -108.5
t-168.5 -39.5h-293z" />
    <glyph glyph-name="C" unicode="C" horiz-adv-x="623" 
d="M295 -14q-147 0 -214.5 90t-40.5 244q25 140 111.5 217t218.5 77q123 0 185.5 -63.5t63.5 -176.5l-141 -16q-2 66 -30 98t-91 32q-73 0 -117 -49.5t-58 -131.5q-17 -94 12 -145.5t107 -51.5q62 0 98.5 33t62.5 103l134 -27q-67 -233 -301 -233z" />
    <glyph glyph-name="D" unicode="D" horiz-adv-x="636" 
d="M330 481h-91l-64 -363h102q89 0 137 43t64 134q18 100 -16.5 143t-131.5 43zM12 0l102 600h244q160 0 224 -83t36 -240q-22 -130 -113.5 -204t-228.5 -73h-264z" />
    <glyph glyph-name="E" unicode="E" horiz-adv-x="546" 
d="M11 0l106 600h453l-22 -125h-308l-21 -116h284l-20 -112h-283l-22 -122h308l-22 -125h-453z" />
    <glyph glyph-name="F" unicode="F" horiz-adv-x="512" 
d="M453 192h-265l-34 -192h-144l106 600h434l-24 -132h-289l-27 -151h265z" />
    <glyph glyph-name="G" unicode="G" horiz-adv-x="641" 
d="M225 -10q-106 0 -159.5 87.5t-27.5 237.5q54 298 330 298q234 0 250 -207l-141 -21q-5 52 -33 77.5t-86 25.5q-77 0 -119 -44.5t-58 -136.5q-34 -200 119 -200q139 0 159 113l1 -5l1 6h-146l19 109h279l-58 -330h-131l23 131h-12q-71 -141 -210 -141z" />
    <glyph glyph-name="H" unicode="H" horiz-adv-x="640" 
d="M547 0h-144l41 234h-249l-41 -234h-144l106 600h144l-42 -237h249l42 237h144z" />
    <glyph glyph-name="I" unicode="I" horiz-adv-x="247" 
d="M154 0h-144l106 600h144z" />
    <glyph glyph-name="J" unicode="J" horiz-adv-x="316" 
d="M111 181l74 419h144l-74 -418q-33 -190 -205 -190q-42 0 -80 7l26 123q28 -5 48 -5q56 0 67 64z" />
    <glyph glyph-name="K" unicode="K" horiz-adv-x="580" 
d="M383 0l-148 225h-41l-40 -225h-144l106 600h144l-46 -259h35l223 259h171l-2 -11l-292 -307l196 -271l-2 -11h-160z" />
    <glyph glyph-name="L" unicode="L" horiz-adv-x="473" 
d="M260 600l-83 -471h257l-22 -129h-402l106 600h144z" />
    <glyph glyph-name="M" unicode="M" horiz-adv-x="820" 
d="M188 251l-45 -251h-132l106 600h228l33 -232q9 -65 17 -185h17q49 120 84 190l115 227h222l-105 -600h-144l44 251q8 44 47 232h-16q-60 -142 -120 -258l-104 -193h-134l-31 197q-18 124 -27 254h-16q-11 -70 -39 -232z" />
    <glyph glyph-name="N" unicode="N" horiz-adv-x="650" 
d="M369 0l-78 237q-34 111 -59 237l-16 -2q-20 -176 -40 -291l-32 -181h-133l106 600h200l68 -201q36 -107 62 -253l16 2q16 158 36 267l32 185h133l-106 -600h-189z" />
    <glyph glyph-name="O" unicode="O" horiz-adv-x="657" 
d="M301 -14q-150 0 -218.5 92t-40.5 249q23 134 112.5 210.5t223.5 76.5q147 0 217.5 -91.5t42.5 -247.5q-24 -135 -112.5 -212t-224.5 -77zM312 110q153 0 186 183q16 91 -16 143t-115 52q-153 0 -184 -176q-17 -95 14.5 -148.5t114.5 -53.5z" />
    <glyph glyph-name="P" unicode="P" horiz-adv-x="550" 
d="M329 478h-91l-32 -185h95q55 0 83 20t36 65q9 50 -12.5 75t-78.5 25zM303 176h-118l-31 -176h-144l106 600h231q123 0 177.5 -61t35.5 -172q-15 -90 -82.5 -140.5t-174.5 -50.5z" />
    <glyph glyph-name="Q" unicode="Q" horiz-adv-x="658" 
d="M312 110q153 0 186 183q16 91 -16 143t-115 52q-153 0 -184 -176q-17 -95 14.5 -148.5t114.5 -53.5zM301 -14q-150 0 -218.5 92t-40.5 249q23 134 112.5 210.5t223.5 76.5q147 0 217.5 -91.5t42.5 -247.5q-29 -161 -143 -235l61 -122l-2 -11h-153l-34 84q-35 -5 -66 -5z
" />
    <glyph glyph-name="R" unicode="R" horiz-adv-x="595" 
d="M346 479h-106l-28 -160h109q99 0 112 74q7 45 -14 65.5t-73 20.5zM375 0l-92 207h-91l-36 -207h-145l105 600h255q115 0 168 -56.5t34 -161.5q-22 -122 -144 -160l114 -211l-2 -11h-166z" />
    <glyph glyph-name="S" unicode="S" horiz-adv-x="572" 
d="M267 -14q-137 0 -194 51t-62 140l142 28q9 -104 130 -104q91 0 102 56q6 34 -18.5 53.5t-98.5 32.5q-118 21 -160.5 73t-27.5 138q14 77 78.5 118.5t177.5 41.5q120 0 172 -47t59 -129l-148 -27q-4 47 -26 69t-76 22q-88 0 -97 -54q-6 -32 17.5 -52.5t100.5 -35.5
q123 -23 164 -76.5t27 -134.5q-29 -163 -262 -163z" />
    <glyph glyph-name="T" unicode="T" horiz-adv-x="516" 
d="M54 468l23 132h490l-24 -132h-172l-83 -468h-144l83 468h-173z" />
    <glyph glyph-name="U" unicode="U" horiz-adv-x="632" 
d="M302 114q64 0 94.5 32t42.5 97l63 357h144l-66 -376q-21 -116 -93.5 -176.5t-192.5 -60.5q-139 0 -201 68t-39 195l62 350h144l-63 -355q-24 -131 105 -131z" />
    <glyph glyph-name="V" unicode="V" horiz-adv-x="595" 
d="M353 0h-194l-104 600h150l41 -312q14 -105 18 -164h23q24 53 77 164l152 312h152z" />
    <glyph glyph-name="W" unicode="W" horiz-adv-x="856" 
d="M382 253l-86 -253h-200l-40 600h151l5 -257q2 -129 -2 -220h21q37 118 75 220l98 257h182l6 -257q1 -67 -5 -220h22q13 43 40.5 121.5t34.5 98.5l92 257h152l-249 -600h-210l2 253q2 121 6 229h-18q-26 -83 -77 -229z" />
    <glyph glyph-name="X" unicode="X" horiz-adv-x="566" 
d="M369 0l-79 235h-15l-157 -235h-156l2 11l231 299l-127 279l2 11h152l80 -228h17l148 228h157l-1 -11l-229 -297l130 -281l-2 -11h-153z" />
    <glyph glyph-name="Y" unicode="Y" horiz-adv-x="549" 
d="M305 0h-144l34 190l-146 399l2 11h154l71 -287h17l175 287h159l-2 -11l-286 -399z" />
    <glyph glyph-name="Z" unicode="Z" horiz-adv-x="581" 
d="M524 132l-23 -132h-509l22 129l384 341l-4 12q-107 -14 -177 -14h-134l24 132h496l-22 -128l-389 -344l4 -10q108 14 174 14h154z" />
    <glyph glyph-name="bracketleft" unicode="[" horiz-adv-x="316" 
d="M-25 -189l155 882h249l-20 -112h-112l-114 -650h111l-21 -120h-248z" />
    <glyph glyph-name="backslash" unicode="\" horiz-adv-x="327" 
d="M120 -151l-38 793h136l42 -793h-140z" />
    <glyph glyph-name="bracketright" unicode="]" horiz-adv-x="316" 
d="M-59 -189l19 112h112l115 650h-112l21 120h248l-155 -882h-248z" />
    <glyph glyph-name="asciicircum" unicode="^" horiz-adv-x="490" 
d="M411 245l-132 159l-188 -160l-58 59l233 237h64l150 -237z" />
    <glyph glyph-name="underscore" unicode="_" horiz-adv-x="460" 
d="M-40 0h460l-20 -111h-460z" />
    <glyph glyph-name="grave" unicode="`" horiz-adv-x="326" 
d="M324 515l-232 107l55 93l212 -136z" />
    <glyph glyph-name="a" unicode="a" horiz-adv-x="534" 
d="M233 106q40 0 69.5 25.5t40.5 69.5l4 22l6 33q7 50 -14.5 79t-66.5 29q-91 0 -113 -124q-24 -134 74 -134zM29 252q20 114 71.5 174.5t125.5 60.5q121 0 137 -140l7 4l21 123h136l-83 -474h-136l22 126l-3 -2l2 14q-30 -71 -76 -111.5t-105 -40.5q-76 0 -109 69.5
t-10 196.5z" />
    <glyph glyph-name="b" unicode="b" horiz-adv-x="534" 
d="M261 106q91 0 113 125q24 133 -73 133q-40 0 -70 -26t-41 -71l-9 -53q-8 -49 13.5 -78.5t66.5 -29.5zM256 642l-51 -288h8q62 133 172 133q79 0 111.5 -67t10.5 -190q-21 -118 -73 -181t-126 -63q-60 0 -94 36.5t-42 101.5h-7l-22 -124h-137l113 642h137z" />
    <glyph glyph-name="c" unicode="c" horiz-adv-x="515" 
d="M368 282q-3 42 -20.5 64t-61.5 22q-98 0 -121 -127q-11 -65 9.5 -100.5t72.5 -35.5q75 0 108 90l121 -32q-57 -177 -239 -177q-117 0 -173.5 70.5t-34.5 201.5q19 109 89.5 169t178.5 60q196 0 201 -183z" />
    <glyph glyph-name="d" unicode="d" horiz-adv-x="534" 
d="M233 106q39 0 69 26t41 69l4 22l6 32q8 50 -13.5 79.5t-67.5 29.5q-91 0 -113 -127q-24 -131 74 -131zM308 0l22 124h-7q-63 -138 -172 -138q-78 0 -111 69.5t-11 196.5q20 114 71.5 174.5t126.5 60.5q116 0 135 -133h8l51 288h136l-113 -642h-136z" />
    <glyph glyph-name="e" unicode="e" horiz-adv-x="510" 
d="M286 385q-90 0 -120 -110h199q16 110 -79 110zM233 -13q-114 0 -170.5 69.5t-33.5 200.5q19 109 89.5 169.5t177.5 60.5q113 0 161 -63t29 -169q-6 -30 -11 -49h-321q-7 -110 90 -110q43 0 66 17.5t39 50.5l111 -36q-63 -141 -227 -141z" />
    <glyph glyph-name="f" unicode="f" horiz-adv-x="342" 
d="M265 492l-3 -18h112l-19 -108h-112l-65 -366h-136l64 366h-68l19 108h68l4 22q29 163 198 163q48 0 82 -9l-21 -94q-30 5 -50 5q-62 0 -73 -69z" />
    <glyph glyph-name="g" unicode="g" horiz-adv-x="534" 
d="M240 135q42 0 71.5 27.5t37.5 71.5v-1l4 25v-1q9 49 -13.5 78t-68.5 29q-90 0 -109 -111q-21 -118 78 -118zM30 261q20 112 71 169t126 57q116 0 135 -133h8l21 120h137l-78 -444q-34 -193 -242 -193q-109 0 -163 35t-61 105l136 22q10 -57 88 -57q51 0 74.5 25t33.5 78
l18 102h-8q-28 -54 -72 -87.5t-96 -33.5q-79 0 -113.5 61.5t-14.5 173.5z" />
    <glyph glyph-name="h" unicode="h" horiz-adv-x="531" 
d="M189 264l-46 -264h-137l113 642h137l-52 -295h6q68 140 181 140q66 0 94.5 -46t14.5 -128l-55 -313h-136l50 283q13 81 -59 81q-43 0 -73 -27.5t-38 -72.5z" />
    <glyph glyph-name="i" unicode="i" horiz-adv-x="240" 
d="M244 541h-141l17 98h142zM146 0h-136l84 474h136z" />
    <glyph glyph-name="j" unicode="j" horiz-adv-x="249" 
d="M158 13q-15 -85 -59.5 -129.5t-130.5 -44.5q-23 0 -53 4l24 117q15 -3 31 -3q41 0 51 52l82 464h136zM253 541h-141l17 98h142z" />
    <glyph glyph-name="k" unicode="k" horiz-adv-x="503" 
d="M257 642l-62 -353h34l148 185h164l-2 -11l-209 -223l139 -229l-2 -11h-149l-102 190h-39l-33 -190h-136l113 642h136z" />
    <glyph glyph-name="l" unicode="l" horiz-adv-x="236" 
d="M257 642l-113 -642h-136l113 642h136z" />
    <glyph glyph-name="m" unicode="m" horiz-adv-x="835" 
d="M189 264l-46 -264h-137l84 474h132l-22 -127h10q65 140 179 140q122 0 111 -142h11q63 142 178 142q69 0 98.5 -46.5t15.5 -128.5l-55 -312h-136l49 283q7 37 -7.5 59t-51.5 22q-42 0 -72 -27.5t-38 -72.5h-1l-46 -264h-136l50 283q13 81 -59 81q-42 0 -72.5 -27.5
t-38.5 -72.5z" />
    <glyph glyph-name="n" unicode="n" horiz-adv-x="531" 
d="M189 264l-46 -264h-137l84 474h132l-22 -127h10q64 140 179 140q67 0 96.5 -46.5t14.5 -127.5l-55 -313h-136l50 283q13 81 -59 81q-43 0 -73 -27.5t-38 -72.5z" />
    <glyph glyph-name="o" unicode="o" horiz-adv-x="538" 
d="M240 -14q-121 0 -177 74t-34 200q19 108 91 167.5t179 59.5q119 0 175.5 -73t34.5 -200q-19 -107 -90.5 -167.5t-178.5 -60.5zM288 373q-103 0 -125 -128q-26 -143 87 -143q104 0 126 129q12 68 -9.5 105t-78.5 37z" />
    <glyph glyph-name="p" unicode="p" horiz-adv-x="534" 
d="M259 106q93 0 115 126q24 132 -71 132q-44 0 -75.5 -30t-40.5 -81v1l-7 -42l1 4q-9 -49 12.5 -79.5t65.5 -30.5zM507 224q-21 -116 -73.5 -177t-128.5 -61q-58 0 -91.5 37t-41.5 101h-8l-48 -276h-136l110 626h136l-21 -120h8q64 133 171 133q80 0 112.5 -68.5
t10.5 -194.5z" />
    <glyph glyph-name="q" unicode="q" horiz-adv-x="534" 
d="M234 106q39 0 68.5 26t40.5 70l9 49q9 52 -12.5 82.5t-67.5 30.5q-47 0 -74.5 -31t-39.5 -97q-22 -130 76 -130zM28 252q21 115 71 175t125 60q121 0 139 -140l6 4l22 123h136l-110 -630h-137l50 280h-7q-63 -138 -173 -138q-78 0 -111 70t-11 196z" />
    <glyph glyph-name="r" unicode="r" horiz-adv-x="351" 
d="M143 0h-137l84 474h129l-27 -154h10q36 93 72.5 126t87.5 33h15l-27 -156h-29q-70 0 -100 -24t-41 -88z" />
    <glyph glyph-name="s" unicode="s" horiz-adv-x="469" 
d="M209 -14q-109 0 -155 39.5t-52 110.5l126 25q5 -40 27 -59.5t66 -19.5q67 0 73 39q5 25 -14 40.5t-79 28.5q-90 21 -123.5 62t-21.5 106q24 129 211 129q96 0 137 -36.5t50 -100.5l-126 -25q-3 37 -20 53t-54 16q-62 0 -70 -39q-4 -23 13.5 -39t72.5 -28q98 -21 132 -64
t23 -106q-24 -132 -216 -132z" />
    <glyph glyph-name="t" unicode="t" horiz-adv-x="361" 
d="M60 166l35 200h-57l19 108h57l22 122h137l-22 -122h125l-19 -108h-125l-34 -195q-11 -57 44 -57q26 0 64 12l-5 -122q-62 -18 -107 -18q-81 0 -114.5 50.5t-19.5 129.5z" />
    <glyph glyph-name="u" unicode="u" horiz-adv-x="533" 
d="M310 0l22 126h-10q-64 -140 -178 -140q-67 0 -96.5 47t-15.5 128l56 313h136l-50 -283q-7 -38 8 -60t51 -22q43 0 73 27.5t38 73.5l46 264h136l-83 -474h-133z" />
    <glyph glyph-name="v" unicode="v" horiz-adv-x="487" 
d="M293 0h-182l-77 474h144l17 -186q12 -119 15 -168h20q66 145 76 168l83 186h147z" />
    <glyph glyph-name="w" unicode="w" horiz-adv-x="748" 
d="M495 474l6 -187q3 -98 2 -183h18q12 34 35.5 95.5t33.5 88.5l68 186h137l-214 -474h-178l-4 204q-1 67 4 167h-17q-34 -104 -56 -167l-73 -204h-173l-48 474h136l9 -186q7 -114 7 -184h18q32 101 64 183l72 187h153z" />
    <glyph glyph-name="x" unicode="x" horiz-adv-x="502" 
d="M299 0l-50 187h-18l-108 -187h-157l2 11l178 237l-97 215l2 11h150l50 -183h18l108 183h150l-2 -11l-171 -236l97 -216l-2 -11h-150z" />
    <glyph glyph-name="y" unicode="y" horiz-adv-x="491" 
d="M19 -168q-37 0 -72 5l27 117q35 -7 61 -7q38 0 60.5 12t44.5 48l-95 467h144l18 -174q12 -124 15 -172h17q5 11 73 169l75 177h151l-271 -476q-51 -88 -106 -127t-142 -39z" />
    <glyph glyph-name="z" unicode="z" horiz-adv-x="500" 
d="M313 115h126l-20 -115h-426l20 117l312 246l-2 10q-98 -14 -162 -14h-97l20 115h416l-21 -117l-314 -247l3 -9q89 14 145 14z" />
    <glyph glyph-name="braceleft" unicode="{" horiz-adv-x="374" 
d="M278 -181q-36 -3 -90 -3q-90 0 -128.5 33.5t-27.5 96.5q8 43 59.5 102.5t57.5 94.5q5 29 -10 43t-56 14h-71l21 116h70q85 0 95 60q6 34 -9.5 70t-31.5 75t-9 79q21 112 196 112q56 0 92 -3l-20 -113q-19 1 -51 1q-71 0 -77 -46q-4 -21 17 -76.5t13 -99.5
q-16 -94 -164 -110l-3 -13q78 -5 107 -29t21 -71q-8 -43 -49 -97.5t-44 -74.5q-5 -23 9 -36t51 -13q13 0 51 2z" />
    <glyph glyph-name="bar" unicode="|" horiz-adv-x="237" 
d="M113 -176h-135l153 869h136z" />
    <glyph glyph-name="braceright" unicode="}" horiz-adv-x="374" 
d="M31 -187q-22 0 -91 3l20 114q38 -2 51 -2q69 0 77 46q4 21 -17 77t-13 100q16 94 164 110l3 12q-78 5 -107 29.5t-21 71.5q8 43 49 97t44 75q4 23 -10 35.5t-51 12.5q-31 0 -51 -1l20 113q34 3 90 3q90 0 128 -33.5t27 -96.5q-8 -43 -59 -102t-57 -94q-5 -29 9.5 -43
t56.5 -14h70l-20 -116h-70q-84 0 -96 -61q-7 -39 26 -106.5t24 -116.5q-19 -113 -196 -113z" />
    <glyph glyph-name="asciitilde" unicode="~" horiz-adv-x="503" 
d="M355 261q-41 0 -68.5 21t-38.5 46.5t-26 46.5t-33 21q-29 0 -45 -30t-24 -97h-76q2 30 8 70q33 180 146 180q33 0 57 -14t37 -33.5t23 -39.5t21.5 -34t27.5 -14q54 0 69 127h76q-2 -30 -8 -69q-32 -181 -146 -181z" />
    <glyph glyph-name="uni00A0" unicode="&#xa0;" horiz-adv-x="170" 
 />
    <glyph glyph-name="exclamdown" unicode="&#xa1;" horiz-adv-x="249" 
d="M59 252h136l-66 -378h-137zM215 331h-148l25 143h148z" />
    <glyph glyph-name="cent" unicode="&#xa2;" horiz-adv-x="514" 
d="M272 599h115l-31 -125q137 -23 142 -170l-130 -22q-3 41 -21 63t-63 22q-97 0 -119 -127q-11 -64 10 -99t74 -35q73 0 106 89l121 -32q-48 -150 -204 -166l-13 -121h-115l31 125q-86 17 -125.5 83t-21.5 170q18 101 77.5 157.5t153.5 65.5z" />
    <glyph glyph-name="sterling" unicode="&#xa3;" horiz-adv-x="559" 
d="M483 0h-502l21 118h93q14 30 18 59q3 19 3 39h-96l18 101h70q-8 74 1 124q14 81 72.5 125t159.5 44q114 0 161 -51.5t52 -143.5l-128 -22q-6 52 -25.5 75.5t-67.5 23.5q-83 0 -96 -81q-5 -27 -3 -94h231l-18 -101h-218q-12 -59 -54 -98h329z" />
    <glyph glyph-name="yen" unicode="&#xa5;" horiz-adv-x="596" 
d="M542 140h-188l-25 -140h-144l25 140h-190l15 87h170l-23 64h-135l16 92h85l-75 206l2 11h154l71 -287h17l175 287h159l-2 -11l-148 -206h84l-17 -92h-133l-46 -64h168z" />
    <glyph glyph-name="brokenbar" unicode="&#xa6;" horiz-adv-x="237" 
d="M114 -176h-136l68 384h136zM198 303h-135l68 390h136z" />
    <glyph glyph-name="section" unicode="&#xa7;" horiz-adv-x="615" 
d="M261 -178q-140 0 -198.5 49t-65.5 137l138 29q3 -52 34 -80.5t102 -28.5q98 0 108 52q6 31 -20 48.5t-112 33.5q-138 27 -188.5 71.5t-37.5 117.5q12 67 105 111q-22 37 -11 96q13 75 72.5 115.5t164.5 40.5q127 0 174 -46t55 -140l-137 -20q-5 55 -26 79t-75 24
q-87 0 -96 -55q-3 -16 0 -26.5t16 -22.5t43.5 -22t80.5 -19q129 -23 170.5 -66.5t28.5 -116.5q-12 -66 -87 -107q26 -40 14 -103q-27 -151 -252 -151zM317 166q94 -18 144 -52q12 17 18 44q8 45 -28 69t-162 51q-86 18 -128 48q-23 -24 -27 -48q-7 -39 28.5 -63.5
t154.5 -48.5z" />
    <glyph glyph-name="dieresis" unicode="&#xa8;" horiz-adv-x="348" 
d="M103 671h120l-20 -117h-122zM274 671h120l-20 -117h-122z" />
    <glyph glyph-name="copyright" unicode="&#xa9;" horiz-adv-x="904" 
d="M421 -11q291 0 343 299q27 149 -37 236t-222 87q-290 0 -343 -299q-26 -149 37 -236t222 -87zM512 714q144 0 234.5 -58.5t120 -155.5t7.5 -225q-33 -187 -149 -288t-311 -101q-88 0 -156.5 22t-112 61.5t-70 94.5t-30 121t7.5 142q34 187 149 287t310 100zM550 337
q-1 39 -16 59t-52 20q-82 0 -101 -109q-9 -54 8.5 -86t62.5 -32q67 0 86 77l112 -18q-21 -84 -71 -123.5t-143 -39.5q-98 0 -146 62.5t-29 168.5q36 204 231 204q91 0 133 -45t40 -124z" />
    <glyph glyph-name="ordfeminine" unicode="&#xaa;" horiz-adv-x="402" 
d="M208 390q31 0 53.5 18t27.5 47l3 18h-66q-54 0 -62 -39q-7 -44 44 -44zM272 327l14 78h-8q-49 -87 -127 -87q-49 0 -76 28.5t-20 77.5q14 87 141 87h103l5 29q10 55 -42 55q-44 0 -63 -50l-102 26q42 106 175 106q86 0 121.5 -41.5t22.5 -114.5l-34 -194h-110z" />
    <glyph glyph-name="guillemotleft" unicode="&#xab;" horiz-adv-x="640" 
d="M325 32h-131l-176 219l2 14l247 219h137l-2 -13l-238 -215l-1 -2l164 -209zM591 32h-131l-176 219l2 14l247 219h137l-2 -13l-238 -215l-1 -2l164 -209z" />
    <glyph glyph-name="registered" unicode="&#xae;" horiz-adv-x="905" 
d="M492 412h-80l-18 -104h81q65 0 73 47q10 57 -56 57zM509 103l-61 127h-68l-22 -127h-115l70 399h201q83 0 121.5 -39t26.5 -109q-14 -86 -103 -113l78 -128l-2 -10h-126zM421 -11q291 0 343 299q27 149 -37 236t-222 87q-290 0 -343 -299q-26 -149 37 -236t222 -87z
M414 -114q-88 0 -156.5 22t-112 61.5t-70 94.5t-30 121t7.5 142q34 187 149 287t310 100q144 0 234.5 -58.5t120 -155.5t7.5 -225q-33 -187 -149 -288t-311 -101z" />
    <glyph glyph-name="macron" unicode="&#xaf;" horiz-adv-x="314" 
d="M93 646h271l-16 -92h-271z" />
    <glyph glyph-name="degree" unicode="&#xb0;" horiz-adv-x="345" 
d="M347 466q-2 -56 -38.5 -92.5t-96.5 -44.5q-65 -6 -101.5 30.5t-31.5 100.5q2 56 38.5 93t95.5 44q65 7 102 -30t32 -101zM159 455q0 -26 15 -39.5t43 -7.5q51 10 49 64q0 26 -15 39t-43 8q-51 -12 -49 -64z" />
    <glyph glyph-name="twosuperior" unicode="&#xb2;" horiz-adv-x="370" 
d="M253 603q-57 0 -77 -68l-90 18q37 126 174 126q77 0 113.5 -33t25.5 -90q-8 -47 -45.5 -68.5t-122.5 -36.5q-49 -10 -69.5 -21.5t-26.5 -32.5q56 8 104 8h136l-15 -85h-326q4 28 6 43q11 58 46 90.5t111 49.5q59 13 80 25t25 32q3 20 -8.5 31.5t-40.5 11.5z" />
    <glyph glyph-name="threesuperior" unicode="&#xb3;" horiz-adv-x="360" 
d="M200 312q-79 0 -115 29t-38 84l93 15q2 -26 17.5 -39t50.5 -13q58 0 64 37q4 20 -7 29.5t-43 9.5h-50l11 62h50q51 0 57 35q4 20 -8 30.5t-41 10.5q-32 0 -48.5 -12t-26.5 -38l-86 19q41 107 169 107q75 0 109.5 -28.5t26.5 -76.5q-10 -59 -99 -71l-2 -11q96 -12 82 -88
q-16 -91 -166 -91z" />
    <glyph glyph-name="acute" unicode="&#xb4;" horiz-adv-x="326" 
d="M104 513l-27 66l260 133l38 -92z" />
    <glyph glyph-name="paragraph" unicode="&#xb6;" horiz-adv-x="690" 
d="M570 -155h-127l133 755h127zM388 -155h-127l49 277h-41q-123 0 -182.5 68.5t-37.5 189.5q39 220 278 220h194z" />
    <glyph glyph-name="periodcentered" unicode="&#xb7;" horiz-adv-x="217" 
d="M50 315h147l-25 -143h-148z" />
    <glyph glyph-name="cedilla" unicode="&#xb8;" horiz-adv-x="227" 
d="M53 -168q-61 0 -98 28l34 42q30 -22 71 -22q35 0 40 24q2 12 -5.5 18t-25.5 6q-17 0 -39 -6l-32 14l48 89l52 -1l-40 -70q20 6 37 6q73 0 62 -62q-5 -25 -30.5 -45.5t-73.5 -20.5z" />
    <glyph glyph-name="onesuperior" unicode="&#xb9;" horiz-adv-x="293" 
d="M298 320h-262l14 83h92l32 183q-37 -21 -82 -38l-20 76l146 47h68l-47 -268h74z" />
    <glyph glyph-name="ordmasculine" unicode="&#xba;" horiz-adv-x="393" 
d="M225 321q-85 0 -126 53.5t-25 144.5q14 75 64.5 116.5t128.5 41.5q83 0 124.5 -51.5t26.5 -140.5q-14 -77 -64 -120.5t-129 -43.5zM258 595q-71 0 -87 -90q-17 -100 61 -100q72 0 88 92q18 98 -62 98z" />
    <glyph glyph-name="guillemotright" unicode="&#xbb;" horiz-adv-x="641" 
d="M378 30h-137l2 13l240 216v1l-165 209l3 13h130l177 -220l-3 -13zM112 30h-138l3 13l239 216v1l-164 209l2 13h131l176 -220l-2 -13z" />
    <glyph glyph-name="onequarter" unicode="&#xbc;" horiz-adv-x="735" 
d="M158 0h-192l1 6l349 265l19 -15zM558 600h193l-1 -6l-350 -265l-19 16zM298 320h-262l14 83h92l32 183q-37 -21 -82 -38l-20 76l146 47h68l-47 -268h74zM522 79l24 137l-4 2l-139 -145l1 -2q69 8 118 8zM647 6h-45l-13 -76h-93l13 76h-200l11 62l207 212h124l-36 -201h45
z" />
    <glyph glyph-name="onehalf" unicode="&#xbd;" horiz-adv-x="720" 
d="M145 0h-192l1 6l349 265l19 -15zM545 600h193l-1 -6l-350 -265l-19 16zM298 320h-262l14 83h92l32 183q-37 -21 -82 -38l-20 76l146 47h68l-47 -268h74zM516 213q-57 0 -77 -68l-90 18q37 126 174 126q77 0 113.5 -33t25.5 -90q-8 -47 -45.5 -68.5t-122.5 -36.5
q-49 -10 -69.5 -21.5t-26.5 -32.5q56 8 104 8h136l-15 -85h-326q4 28 6 43q11 58 46 90.5t111 49.5q59 13 80 25t25 32q3 20 -8.5 31.5t-40.5 11.5z" />
    <glyph glyph-name="threequarters" unicode="&#xbe;" horiz-adv-x="754" 
d="M183 0h-192l1 6l349 265l19 -15zM583 600h193l-1 -6l-350 -265l-19 16zM667 6h-45l-13 -76h-93l13 76h-200l11 62l207 212h124l-36 -201h45zM202 312q-79 0 -115 29t-38 84l93 15q2 -26 17.5 -39t50.5 -13q58 0 64 37q4 20 -7 29.5t-43 9.5h-50l11 62h50q51 0 57 35
q4 20 -8 30.5t-41 10.5q-32 0 -48.5 -12t-26.5 -38l-86 19q41 107 169 107q75 0 109.5 -28.5t26.5 -76.5q-10 -59 -99 -71l-2 -11q96 -12 82 -88q-16 -91 -166 -91zM542 79l24 137l-4 2l-139 -145l1 -2q69 8 118 8z" />
    <glyph glyph-name="questiondown" unicode="&#xbf;" horiz-adv-x="494" 
d="M137 201q47 18 54 56q0 3 2 11h129q0 -8 -2 -20q-8 -46 -33 -74t-77 -51q-46 -20 -64 -34t-23 -41q-6 -33 13.5 -51.5t60.5 -18.5q51 0 79.5 31t47.5 92l129 -25q-62 -214 -268 -214q-112 0 -165.5 49t-37.5 138q11 63 49 95t106 57zM343 331h-147l25 143h148z" />
    <glyph glyph-name="Agrave" unicode="&#xc0;" horiz-adv-x="599" 
d="M418 0l-17 133h-232l-65 -133h-155l316 600h198l103 -600h-148zM454 650l-256 65l43 100l240 -95zM256 312l-36 -74h167l-10 74q-13 103 -19 164h-24q-32 -72 -78 -164z" />
    <glyph glyph-name="Aacute" unicode="&#xc1;" horiz-adv-x="599" 
d="M418 0l-17 133h-232l-65 -133h-155l316 600h198l103 -600h-148zM287 650l-13 69l274 96l18 -101zM256 312l-36 -74h167l-10 74q-13 103 -19 164h-24q-32 -72 -78 -164z" />
    <glyph glyph-name="Acircumflex" unicode="&#xc2;" horiz-adv-x="599" 
d="M418 0l-17 133h-232l-65 -133h-155l316 600h198l103 -600h-148zM491 639l-104 76l-130 -76l-36 49l159 126h43l114 -126zM256 312l-36 -74h167l-10 74q-13 103 -19 164h-24q-32 -72 -78 -164z" />
    <glyph glyph-name="Atilde" unicode="&#xc3;" horiz-adv-x="599" 
d="M418 0l-17 133h-232l-65 -133h-155l316 600h198l103 -600h-148zM307 823q26 0 45.5 -13t29 -29t22 -29t25.5 -13q20 0 30 18t17 61h58q0 -23 -5 -46q-21 -125 -103 -125q-23 0 -41 13t-27.5 29t-23.5 29t-30 13q-19 0 -29 -18t-17 -60h-59q1 20 5 45q11 62 38 93.5
t65 31.5zM256 312l-36 -74h167l-10 74q-13 103 -19 164h-24q-32 -72 -78 -164z" />
    <glyph glyph-name="Adieresis" unicode="&#xc4;" horiz-adv-x="599" 
d="M418 0l-17 133h-232l-65 -133h-155l316 600h198l103 -600h-148zM240 774h120l-20 -117h-122zM411 774h120l-20 -117h-122zM256 312l-36 -74h167l-10 74q-13 103 -19 164h-24q-32 -72 -78 -164z" />
    <glyph glyph-name="Aring" unicode="&#xc5;" horiz-adv-x="599" 
d="M418 0l-17 133h-232l-65 -133h-155l316 600h198l103 -600h-148zM343 753q-4 -22 7 -35.5t34 -13.5q21 0 35.5 12t17.5 32q4 22 -7 35.5t-34 13.5q-21 0 -35.5 -11.5t-17.5 -32.5zM503 743q-8 -46 -42.5 -73.5t-84.5 -27.5q-54 0 -81 32.5t-17 85.5q8 45 42 72t84 27
q54 0 81 -31.5t18 -84.5zM256 312l-36 -74h167l-10 74q-13 103 -19 164h-24q-32 -72 -78 -164z" />
    <glyph glyph-name="AE" unicode="&#xc6;" horiz-adv-x="871" 
d="M294 312l-47 -80h130l44 250h-31q-54 -101 -96 -170zM336 0l22 125h-174l-74 -125h-157l1 6l382 594h559l-22 -125h-308l-21 -116h284l-20 -112h-283l-22 -122h308l-22 -125h-453z" />
    <glyph glyph-name="Ccedilla" unicode="&#xc7;" horiz-adv-x="623" 
d="M295 -14q-16 0 -23 1l-19 -33q19 6 37 6q73 0 62 -62q-5 -25 -30.5 -45.5t-73.5 -20.5q-61 0 -98 28l34 42q30 -22 71 -22q35 0 40 24q2 12 -5.5 18t-25.5 6q-17 0 -39 -6l-32 14l30 56q-110 22 -158 108.5t-25 219.5q25 140 111.5 217t218.5 77q123 0 185.5 -63.5
t63.5 -176.5l-141 -16q-2 66 -30 98t-91 32q-73 0 -117 -49.5t-58 -131.5q-17 -94 12 -145.5t107 -51.5q62 0 98.5 33t62.5 103l134 -27q-67 -233 -301 -233z" />
    <glyph glyph-name="Egrave" unicode="&#xc8;" horiz-adv-x="546" 
d="M11 0l106 600h453l-22 -125h-308l-21 -116h284l-20 -112h-283l-22 -122h308l-22 -125h-453zM434 650l-256 65l43 100l240 -95z" />
    <glyph glyph-name="Eacute" unicode="&#xc9;" horiz-adv-x="546" 
d="M11 0l106 600h453l-22 -125h-308l-21 -116h284l-20 -112h-283l-22 -122h308l-22 -125h-453zM267 650l-13 69l274 96l18 -101z" />
    <glyph glyph-name="Ecircumflex" unicode="&#xca;" horiz-adv-x="546" 
d="M11 0l106 600h453l-22 -125h-308l-21 -116h284l-20 -112h-283l-22 -122h308l-22 -125h-453zM471 639l-104 76l-130 -76l-36 49l159 126h43l114 -126z" />
    <glyph glyph-name="Edieresis" unicode="&#xcb;" horiz-adv-x="546" 
d="M11 0l106 600h453l-22 -125h-308l-21 -116h284l-20 -112h-283l-22 -122h308l-22 -125h-453zM220 774h120l-20 -117h-122zM391 774h120l-20 -117h-122z" />
    <glyph glyph-name="Igrave" unicode="&#xcc;" horiz-adv-x="247" 
d="M154 0h-144l106 600h144zM278 650l-256 65l43 100l240 -95z" />
    <glyph glyph-name="Iacute" unicode="&#xcd;" horiz-adv-x="247" 
d="M154 0h-144l106 600h144zM111 650l-13 69l274 96l18 -101z" />
    <glyph glyph-name="Icircumflex" unicode="&#xce;" horiz-adv-x="247" 
d="M154 0h-144l106 600h144zM315 639l-104 76l-130 -76l-36 49l159 126h43l114 -126z" />
    <glyph glyph-name="Idieresis" unicode="&#xcf;" horiz-adv-x="247" 
d="M154 0h-144l106 600h144zM66 774h120l-20 -117h-122zM237 774h120l-20 -117h-122z" />
    <glyph glyph-name="Eth" unicode="&#xd0;" horiz-adv-x="663" 
d="M358 257h-133l-24 -139h102q89 0 137 43t64 134q18 100 -16.5 143t-131.5 43h-91l-25 -139h134zM38 0l44 257h-60l15 85h59l44 258h244q160 0 224 -83t36 -240q-22 -130 -113.5 -204t-228.5 -73h-264z" />
    <glyph glyph-name="Ntilde" unicode="&#xd1;" horiz-adv-x="650" 
d="M369 0l-78 237q-34 111 -59 237l-16 -2q-20 -176 -40 -291l-32 -181h-133l106 600h200l68 -201q36 -107 62 -253l16 2q16 158 36 267l32 185h133l-106 -600h-189zM333 823q26 0 45.5 -13t29 -29t22 -29t25.5 -13q20 0 30 18t17 61h58q0 -23 -5 -46q-21 -125 -103 -125
q-23 0 -41 13t-27.5 29t-23.5 29t-30 13q-19 0 -29 -18t-17 -60h-59q1 20 5 45q11 62 38 93.5t65 31.5z" />
    <glyph glyph-name="Ograve" unicode="&#xd2;" horiz-adv-x="657" 
d="M301 -14q-150 0 -218.5 92t-40.5 249q23 134 112.5 210.5t223.5 76.5q147 0 217.5 -91.5t42.5 -247.5q-24 -135 -112.5 -212t-224.5 -77zM312 110q153 0 186 183q16 91 -16 143t-115 52q-153 0 -184 -176q-17 -95 14.5 -148.5t114.5 -53.5zM483 650l-256 65l43 100
l240 -95z" />
    <glyph glyph-name="Oacute" unicode="&#xd3;" horiz-adv-x="657" 
d="M301 -14q-150 0 -218.5 92t-40.5 249q23 134 112.5 210.5t223.5 76.5q147 0 217.5 -91.5t42.5 -247.5q-24 -135 -112.5 -212t-224.5 -77zM312 110q153 0 186 183q16 91 -16 143t-115 52q-153 0 -184 -176q-17 -95 14.5 -148.5t114.5 -53.5zM316 650l-13 69l274 96
l18 -101z" />
    <glyph glyph-name="Ocircumflex" unicode="&#xd4;" horiz-adv-x="657" 
d="M312 110q153 0 186 183q16 91 -16 143t-115 52q-153 0 -184 -176q-17 -95 14.5 -148.5t114.5 -53.5zM301 -14q-150 0 -218.5 92t-40.5 249q23 134 112.5 210.5t223.5 76.5q147 0 217.5 -91.5t42.5 -247.5q-24 -135 -112.5 -212t-224.5 -77zM520 639l-104 76l-130 -76
l-36 49l159 126h43l114 -126z" />
    <glyph glyph-name="Otilde" unicode="&#xd5;" horiz-adv-x="657" 
d="M301 -14q-150 0 -218.5 92t-40.5 249q23 134 112.5 210.5t223.5 76.5q147 0 217.5 -91.5t42.5 -247.5q-24 -135 -112.5 -212t-224.5 -77zM312 110q153 0 186 183q16 91 -16 143t-115 52q-153 0 -184 -176q-17 -95 14.5 -148.5t114.5 -53.5zM336 823q26 0 45.5 -13t29 -29
t22 -29t25.5 -13q20 0 30 18t17 61h58q0 -23 -5 -46q-21 -125 -103 -125q-23 0 -41 13t-27.5 29t-23.5 29t-30 13q-19 0 -29 -18t-17 -60h-59q1 20 5 45q11 62 38 93.5t65 31.5z" />
    <glyph glyph-name="Odieresis" unicode="&#xd6;" horiz-adv-x="657" 
d="M301 -14q-150 0 -218.5 92t-40.5 249q23 134 112.5 210.5t223.5 76.5q147 0 217.5 -91.5t42.5 -247.5q-24 -135 -112.5 -212t-224.5 -77zM312 110q153 0 186 183q16 91 -16 143t-115 52q-153 0 -184 -176q-17 -95 14.5 -148.5t114.5 -53.5zM269 774h120l-20 -117h-122z
M440 774h120l-20 -117h-122z" />
    <glyph glyph-name="multiply" unicode="&#xd7;" horiz-adv-x="509" 
d="M356 90q-31 41 -101 137q-108 -105 -149 -142l-86 100q31 24 90.5 67t77.5 56q-82 82 -119 122l108 91q8 -10 43 -58t58 -80q142 135 150 142l84 -100q-6 -5 -167 -123q110 -112 119 -122z" />
    <glyph glyph-name="Oslash" unicode="&#xd8;" horiz-adv-x="656" 
d="M301 -14q-116 0 -185 57l-44 -43h-111l1 6l106 94q-50 87 -26 227q23 134 112.5 210.5t223.5 76.5q117 0 187 -59l47 45h108l-2 -6l-106 -96q50 -89 26 -223q-24 -135 -112.5 -212t-224.5 -77zM176 312q-13 -70 0 -115l291 266q-35 29 -99 29q-159 0 -192 -180zM310 106
q160 0 194 187q12 61 1 107l-291 -265q35 -29 96 -29z" />
    <glyph glyph-name="Ugrave" unicode="&#xd9;" horiz-adv-x="632" 
d="M302 114q64 0 94.5 32t42.5 97l63 357h144l-66 -376q-21 -116 -93.5 -176.5t-192.5 -60.5q-139 0 -201 68t-39 195l62 350h144l-63 -355q-24 -131 105 -131zM471 650l-256 65l43 100l240 -95z" />
    <glyph glyph-name="Uacute" unicode="&#xda;" horiz-adv-x="632" 
d="M302 114q64 0 94.5 32t42.5 97l63 357h144l-66 -376q-21 -116 -93.5 -176.5t-192.5 -60.5q-139 0 -201 68t-39 195l62 350h144l-63 -355q-24 -131 105 -131zM304 650l-13 69l274 96l18 -101z" />
    <glyph glyph-name="Ucircumflex" unicode="&#xdb;" horiz-adv-x="632" 
d="M302 114q64 0 94.5 32t42.5 97l63 357h144l-66 -376q-21 -116 -93.5 -176.5t-192.5 -60.5q-139 0 -201 68t-39 195l62 350h144l-63 -355q-24 -131 105 -131zM508 639l-104 76l-130 -76l-36 49l159 126h43l114 -126z" />
    <glyph glyph-name="Udieresis" unicode="&#xdc;" horiz-adv-x="632" 
d="M302 114q64 0 94.5 32t42.5 97l63 357h144l-66 -376q-21 -116 -93.5 -176.5t-192.5 -60.5q-139 0 -201 68t-39 195l62 350h144l-63 -355q-24 -131 105 -131zM257 774h120l-20 -117h-122zM428 774h120l-20 -117h-122z" />
    <glyph glyph-name="Yacute" unicode="&#xdd;" horiz-adv-x="549" 
d="M305 0h-144l34 190l-146 399l2 11h154l71 -287h17l175 287h159l-2 -11l-286 -399zM262 650l-13 69l274 96l18 -101z" />
    <glyph glyph-name="Thorn" unicode="&#xde;" horiz-adv-x="562" 
d="M116 600h144l-14 -79h107q121 -1 173 -60.5t32 -174.5q-15 -90 -80 -141.5t-174 -51.5h-134l-16 -93h-144zM328 399h-104l-32 -184h107q55 0 83.5 20.5t36.5 63.5q8 52 -12.5 76t-78.5 24z" />
    <glyph glyph-name="germandbls" unicode="&#xdf;" horiz-adv-x="572" 
d="M309 -10q-78 0 -127 37l46 118q29 -30 85 -30q77 0 89 70q8 44 -11.5 67t-77.5 23h-59l20 112h34q80 0 94 72q6 37 -12 60.5t-63 23.5q-48 0 -72 -27.5t-34 -79.5l-76 -436h-137l78 442q38 210 251 210q111 0 162.5 -51.5t38.5 -130.5q-18 -103 -155 -123l-2 -16
q97 -9 130 -53t18 -127q-13 -75 -68 -118t-152 -43z" />
    <glyph glyph-name="agrave" unicode="&#xe0;" horiz-adv-x="534" 
d="M391 515l-232 107l55 93l212 -136zM233 106q40 0 69.5 25.5t40.5 69.5l4 22l6 33q7 50 -14.5 79t-66.5 29q-91 0 -113 -124q-24 -134 74 -134zM29 252q20 114 71.5 174.5t125.5 60.5q121 0 137 -140l7 4l21 123h136l-83 -474h-136l22 126l-3 -2l2 14q-30 -71 -76 -111.5
t-105 -40.5q-76 0 -109 69.5t-10 196.5z" />
    <glyph glyph-name="aacute" unicode="&#xe1;" horiz-adv-x="534" 
d="M246 513l-27 66l260 133l38 -92zM233 106q40 0 69.5 25.5t40.5 69.5l4 22l6 33q7 50 -14.5 79t-66.5 29q-91 0 -113 -124q-24 -134 74 -134zM29 252q20 114 71.5 174.5t125.5 60.5q121 0 137 -140l7 4l21 123h136l-83 -474h-136l22 126l-3 -2l2 14q-30 -71 -76 -111.5
t-105 -40.5q-76 0 -109 69.5t-10 196.5z" />
    <glyph glyph-name="acircumflex" unicode="&#xe2;" horiz-adv-x="534" 
d="M428 514l-97 92l-129 -92l-42 48l163 146h43l111 -146zM233 106q40 0 69.5 25.5t40.5 69.5l4 22l6 33q7 50 -14.5 79t-66.5 29q-91 0 -113 -124q-24 -134 74 -134zM29 252q20 114 71.5 174.5t125.5 60.5q121 0 137 -140l7 4l21 123h136l-83 -474h-136l22 126l-3 -2l2 14
q-30 -71 -76 -111.5t-105 -40.5q-76 0 -109 69.5t-10 196.5z" />
    <glyph glyph-name="atilde" unicode="&#xe3;" horiz-adv-x="534" 
d="M268 705q26 0 45.5 -13t29 -29t22 -29t25.5 -13q20 0 30 18t17 61h58q0 -23 -5 -46q-21 -125 -103 -125q-23 0 -41 13t-27.5 29t-23.5 29t-30 13q-19 0 -29 -18t-17 -60h-59q1 20 5 45q11 62 38 93.5t65 31.5zM233 106q40 0 69.5 25.5t40.5 69.5l4 22l6 33q7 50 -14.5 79
t-66.5 29q-91 0 -113 -124q-24 -134 74 -134zM29 252q20 114 71.5 174.5t125.5 60.5q121 0 137 -140l7 4l21 123h136l-83 -474h-136l22 126l-3 -2l2 14q-30 -71 -76 -111.5t-105 -40.5q-76 0 -109 69.5t-10 196.5z" />
    <glyph glyph-name="adieresis" unicode="&#xe4;" horiz-adv-x="534" 
d="M192 671h120l-20 -117h-122zM363 671h120l-20 -117h-122zM233 106q40 0 69.5 25.5t40.5 69.5l4 22l6 33q7 50 -14.5 79t-66.5 29q-91 0 -113 -124q-24 -134 74 -134zM29 252q20 114 71.5 174.5t125.5 60.5q121 0 137 -140l7 4l21 123h136l-83 -474h-136l22 126l-3 -2
l2 14q-30 -71 -76 -111.5t-105 -40.5q-76 0 -109 69.5t-10 196.5z" />
    <glyph glyph-name="aring" unicode="&#xe5;" horiz-adv-x="534" 
d="M282 641q-5 -25 7 -40t36 -15q46 0 56 51q5 25 -7 40t-37 15q-47 0 -55 -51zM446 629q-9 -49 -43 -76.5t-85 -27.5q-56 0 -84 34t-18 88q9 50 43 78t85 28q56 0 83.5 -34.5t18.5 -89.5zM233 106q40 0 69.5 25.5t40.5 69.5l4 22l6 33q7 50 -14.5 79t-66.5 29
q-91 0 -113 -124q-24 -134 74 -134zM29 252q20 114 71.5 174.5t125.5 60.5q121 0 137 -140l7 4l21 123h136l-83 -474h-136l22 126l-3 -2l2 14q-30 -71 -76 -111.5t-105 -40.5q-76 0 -109 69.5t-10 196.5z" />
    <glyph glyph-name="ae" unicode="&#xe6;" horiz-adv-x="806" 
d="M198 94q44 0 75 24.5t38 63.5l5 25h-103q-31 0 -52 -14t-25 -38q-5 -28 9.5 -44.5t52.5 -16.5zM583 385q-48 0 -77.5 -28t-44.5 -89h198q22 117 -76 117zM754 130q-30 -69 -80.5 -106.5t-142.5 -37.5q-80 0 -134 32t-67 96q-65 -126 -195 -126q-67 0 -105 39.5t-24 114.5
q22 121 188 121h132l6 35q14 80 -62 80q-63 0 -89 -69l-122 32q52 145 209 145q129 0 157 -83q64 84 178 84q108 0 153.5 -60t26.5 -163q-5 -27 -11 -53h-320q-5 -60 17 -87.5t75 -27.5q41 0 63 18.5t39 52.5z" />
    <glyph glyph-name="ccedilla" unicode="&#xe7;" horiz-adv-x="518" 
d="M368 282q-3 42 -20.5 64t-61.5 22q-98 0 -121 -127q-11 -65 9.5 -100.5t72.5 -35.5q75 0 108 90l121 -32q-57 -177 -239 -177q-15 0 -22 1l-19 -33q20 6 37 6q73 0 62 -62q-5 -25 -30.5 -45.5t-73.5 -20.5q-61 0 -98 28l34 42q30 -22 71 -22q35 0 40 24q2 12 -5.5 18
t-25.5 6q-17 0 -39 -6l-32 14l31 58q-83 19 -119.5 86.5t-18.5 177.5q19 109 89.5 169t178.5 60q196 0 201 -183z" />
    <glyph glyph-name="egrave" unicode="&#xe8;" horiz-adv-x="510" 
d="M286 385q-90 0 -120 -110h199q16 110 -79 110zM233 -13q-114 0 -170.5 69.5t-33.5 200.5q19 109 89.5 169.5t177.5 60.5q113 0 161 -63t29 -169q-6 -30 -11 -49h-321q-7 -110 90 -110q43 0 66 17.5t39 50.5l111 -36q-63 -141 -227 -141zM393 515l-232 107l55 93l212 -136
z" />
    <glyph glyph-name="eacute" unicode="&#xe9;" horiz-adv-x="510" 
d="M286 385q-90 0 -120 -110h199q16 110 -79 110zM233 -13q-114 0 -170.5 69.5t-33.5 200.5q19 109 89.5 169.5t177.5 60.5q113 0 161 -63t29 -169q-6 -30 -11 -49h-321q-7 -110 90 -110q43 0 66 17.5t39 50.5l111 -36q-63 -141 -227 -141zM244 513l-27 66l260 133l38 -92z
" />
    <glyph glyph-name="ecircumflex" unicode="&#xea;" horiz-adv-x="510" 
d="M286 385q-90 0 -120 -110h199q16 110 -79 110zM233 -13q-114 0 -170.5 69.5t-33.5 200.5q19 109 89.5 169.5t177.5 60.5q113 0 161 -63t29 -169q-6 -30 -11 -49h-321q-7 -110 90 -110q43 0 66 17.5t39 50.5l111 -36q-63 -141 -227 -141zM426 514l-97 92l-129 -92l-42 48
l163 146h43l111 -146z" />
    <glyph glyph-name="edieresis" unicode="&#xeb;" horiz-adv-x="510" 
d="M286 385q-90 0 -120 -110h199q16 110 -79 110zM233 -13q-114 0 -170.5 69.5t-33.5 200.5q19 109 89.5 169.5t177.5 60.5q113 0 161 -63t29 -169q-6 -30 -11 -49h-321q-7 -110 90 -110q43 0 66 17.5t39 50.5l111 -36q-63 -141 -227 -141zM189 671h120l-20 -117h-122z
M360 671h120l-20 -117h-122z" />
    <glyph glyph-name="igrave" unicode="&#xec;" horiz-adv-x="250" 
d="M151 0h-136l84 474h136zM259 515l-232 107l55 93l212 -136z" />
    <glyph glyph-name="iacute" unicode="&#xed;" horiz-adv-x="250" 
d="M151 0h-136l84 474h136zM105 513l-27 66l260 133l38 -92z" />
    <glyph glyph-name="icircumflex" unicode="&#xee;" horiz-adv-x="250" 
d="M151 0h-136l84 474h136zM292 514l-97 92l-129 -92l-42 48l163 146h43l111 -146z" />
    <glyph glyph-name="idieresis" unicode="&#xef;" horiz-adv-x="250" 
d="M151 0h-136l84 474h136zM54 671h120l-20 -117h-122zM225 671h120l-20 -117h-122z" />
    <glyph glyph-name="eth" unicode="&#xf0;" horiz-adv-x="534" 
d="M233 -14q-118 0 -173 66.5t-33 191.5q18 101 77.5 155t138.5 55q56 -1 91.5 -33.5t48.5 -87.5l11 3q-7 103 -80 189l-128 -46l-20 66l94 35q-22 18 -57 41l52 65q65 -26 118 -65l117 43l20 -68l-78 -28q113 -127 80 -313q-23 -130 -95 -199.5t-184 -69.5zM373 232
q24 128 -88 128q-49 0 -82 -34.5t-43 -90.5q-23 -132 85 -132q51 0 84.5 34.5t43.5 94.5z" />
    <glyph glyph-name="ntilde" unicode="&#xf1;" horiz-adv-x="531" 
d="M189 264l-46 -264h-137l84 474h132l-22 -127h10q64 140 179 140q67 0 96.5 -46.5t14.5 -127.5l-55 -313h-136l50 283q13 81 -59 81q-43 0 -73 -27.5t-38 -72.5zM275 705q26 0 45.5 -13t29 -29t22 -29t25.5 -13q20 0 30 18t17 61h58q0 -23 -5 -46q-21 -125 -103 -125
q-23 0 -41 13t-27.5 29t-23.5 29t-30 13q-19 0 -29 -18t-17 -60h-59q1 20 5 45q11 62 38 93.5t65 31.5z" />
    <glyph glyph-name="ograve" unicode="&#xf2;" horiz-adv-x="538" 
d="M240 -14q-121 0 -177 74t-34 200q19 108 91 167.5t179 59.5q119 0 175.5 -73t34.5 -200q-19 -107 -90.5 -167.5t-178.5 -60.5zM288 373q-103 0 -125 -128q-26 -143 87 -143q104 0 126 129q12 68 -9.5 105t-78.5 37zM401 515l-232 107l55 93l212 -136z" />
    <glyph glyph-name="oacute" unicode="&#xf3;" horiz-adv-x="538" 
d="M240 -14q-121 0 -177 74t-34 200q19 108 91 167.5t179 59.5q119 0 175.5 -73t34.5 -200q-19 -107 -90.5 -167.5t-178.5 -60.5zM288 373q-103 0 -125 -128q-26 -143 87 -143q104 0 126 129q12 68 -9.5 105t-78.5 37zM252 513l-27 66l260 133l38 -92z" />
    <glyph glyph-name="ocircumflex" unicode="&#xf4;" horiz-adv-x="538" 
d="M288 373q-103 0 -125 -128q-26 -143 87 -143q104 0 126 129q12 68 -9.5 105t-78.5 37zM240 -14q-121 0 -177 74t-34 200q19 108 91 167.5t179 59.5q119 0 175.5 -73t34.5 -200q-19 -107 -90.5 -167.5t-178.5 -60.5zM435 514l-97 92l-129 -92l-42 48l163 146h43l111 -146z
" />
    <glyph glyph-name="otilde" unicode="&#xf5;" horiz-adv-x="538" 
d="M240 -14q-121 0 -177 74t-34 200q19 108 91 167.5t179 59.5q119 0 175.5 -73t34.5 -200q-19 -107 -90.5 -167.5t-178.5 -60.5zM288 373q-103 0 -125 -128q-26 -143 87 -143q104 0 126 129q12 68 -9.5 105t-78.5 37zM275 705q26 0 45.5 -13t29 -29t22 -29t25.5 -13
q20 0 30 18t17 61h58q0 -23 -5 -46q-21 -125 -103 -125q-23 0 -41 13t-27.5 29t-23.5 29t-30 13q-19 0 -29 -18t-17 -60h-59q1 20 5 45q11 62 38 93.5t65 31.5z" />
    <glyph glyph-name="odieresis" unicode="&#xf6;" horiz-adv-x="538" 
d="M240 -14q-121 0 -177 74t-34 200q19 108 91 167.5t179 59.5q119 0 175.5 -73t34.5 -200q-19 -107 -90.5 -167.5t-178.5 -60.5zM288 373q-103 0 -125 -128q-26 -143 87 -143q104 0 126 129q12 68 -9.5 105t-78.5 37zM197 671h120l-20 -117h-122zM368 671h120l-20 -117
h-122z" />
    <glyph glyph-name="divide" unicode="&#xf7;" horiz-adv-x="489" 
d="M460 248h-426l21 121h426zM243 535h109l-18 -107h-110zM185 194h109l-18 -107h-110z" />
    <glyph glyph-name="oslash" unicode="&#xf8;" horiz-adv-x="538" 
d="M240 -14q-95 0 -152 48l-32 -34h-101l1 6l91 79q-36 69 -18 175q19 108 90.5 167.5t179.5 59.5q94 0 151 -48l33 35h98l-1 -6l-90 -80q37 -69 19 -174q-19 -107 -90.5 -167.5t-178.5 -60.5zM290 381q-115 0 -140 -136q-7 -42 -3 -73l214 188q-24 21 -71 21zM247 93
q117 0 142 138q8 41 3 71l-215 -189q26 -20 70 -20z" />
    <glyph glyph-name="ugrave" unicode="&#xf9;" horiz-adv-x="533" 
d="M310 0l22 126h-10q-64 -140 -178 -140q-67 0 -96.5 47t-15.5 128l56 313h136l-50 -283q-7 -38 8 -60t51 -22q43 0 73 27.5t38 73.5l46 264h136l-83 -474h-133zM399 515l-232 107l55 93l212 -136z" />
    <glyph glyph-name="uacute" unicode="&#xfa;" horiz-adv-x="533" 
d="M310 0l22 126h-10q-64 -140 -178 -140q-67 0 -96.5 47t-15.5 128l56 313h136l-50 -283q-7 -38 8 -60t51 -22q43 0 73 27.5t38 73.5l46 264h136l-83 -474h-133zM250 513l-27 66l260 133l38 -92z" />
    <glyph glyph-name="ucircumflex" unicode="&#xfb;" horiz-adv-x="533" 
d="M310 0l22 126h-10q-64 -140 -178 -140q-67 0 -96.5 47t-15.5 128l56 313h136l-50 -283q-7 -38 8 -60t51 -22q43 0 73 27.5t38 73.5l46 264h136l-83 -474h-133zM432 514l-97 92l-129 -92l-42 48l163 146h43l111 -146z" />
    <glyph glyph-name="udieresis" unicode="&#xfc;" horiz-adv-x="533" 
d="M310 0l22 126h-10q-64 -140 -178 -140q-67 0 -96.5 47t-15.5 128l56 313h136l-50 -283q-7 -38 8 -60t51 -22q43 0 73 27.5t38 73.5l46 264h136l-83 -474h-133zM195 671h120l-20 -117h-122zM366 671h120l-20 -117h-122z" />
    <glyph glyph-name="yacute" unicode="&#xfd;" horiz-adv-x="485" 
d="M19 -168q-37 0 -72 5l27 117q35 -7 61 -7q38 0 60.5 12t44.5 48l-95 467h144l18 -174q12 -124 15 -172h17q5 11 73 169l75 177h151l-271 -476q-51 -88 -106 -127t-142 -39zM230 513l-27 66l260 133l38 -92z" />
    <glyph glyph-name="thorn" unicode="&#xfe;" horiz-adv-x="534" 
d="M260 106q48 0 75.5 31.5t39.5 97.5q23 129 -73 129q-44 0 -75 -30t-40 -81l-7 -40l1 3q-9 -49 13 -79.5t66 -30.5zM256 642l-51 -288h8q64 133 172 133q79 0 111.5 -68t10.5 -193q-21 -116 -72.5 -178t-124.5 -62q-60 0 -95 37t-43 101h-8l-48 -276h-136l139 794h137z
" />
    <glyph glyph-name="ydieresis" unicode="&#xff;" horiz-adv-x="485" 
d="M19 -168q-37 0 -72 5l27 117q35 -7 61 -7q38 0 60.5 12t44.5 48l-95 467h144l18 -174q12 -124 15 -172h17q5 11 73 169l75 177h151l-271 -476q-51 -88 -106 -127t-142 -39zM175 671h120l-20 -117h-122zM346 671h120l-20 -117h-122z" />
    <glyph glyph-name="Amacron" unicode="&#x100;" horiz-adv-x="599" 
d="M418 0l-17 133h-232l-65 -133h-155l316 600h198l103 -600h-148zM254 757h275l-17 -92h-274zM256 312l-36 -74h167l-10 74q-13 103 -19 164h-24q-32 -72 -78 -164z" />
    <glyph glyph-name="amacron" unicode="&#x101;" horiz-adv-x="534" 
d="M195 646h271l-16 -92h-271zM233 106q40 0 69.5 25.5t40.5 69.5l4 22l6 33q7 50 -14.5 79t-66.5 29q-91 0 -113 -124q-24 -134 74 -134zM29 252q20 114 71.5 174.5t125.5 60.5q121 0 137 -140l7 4l21 123h136l-83 -474h-136l22 126l-3 -2l2 14q-30 -71 -76 -111.5
t-105 -40.5q-76 0 -109 69.5t-10 196.5z" />
    <glyph glyph-name="Abreve" unicode="&#x102;" horiz-adv-x="599" 
d="M418 0l-17 133h-232l-65 -133h-155l316 600h198l103 -600h-148zM387 737q74 0 96 71h62q-20 -156 -164 -156q-75 0 -107 40t-19 116h62q-4 -71 70 -71zM256 312l-36 -74h167l-10 74q-13 103 -19 164h-24q-32 -72 -78 -164z" />
    <glyph glyph-name="abreve" unicode="&#x103;" horiz-adv-x="534" 
d="M233 106q40 0 69.5 25.5t40.5 69.5l4 22l6 33q7 50 -14.5 79t-66.5 29q-91 0 -113 -124q-24 -134 74 -134zM333 616q73 0 97 82h62q-15 -88 -54 -127.5t-110 -39.5q-74 0 -107.5 41t-18.5 126h62q-3 -46 15.5 -64t53.5 -18zM29 252q20 114 71.5 174.5t125.5 60.5
q121 0 137 -140l7 4l21 123h136l-83 -474h-136l22 126l-3 -2l2 14q-30 -71 -76 -111.5t-105 -40.5q-76 0 -109 69.5t-10 196.5z" />
    <glyph glyph-name="Aogonek" unicode="&#x104;" horiz-adv-x="598" 
d="M476 -167q-58 0 -84 20t-19 57q10 63 112 90h-67l-17 133h-232l-65 -133h-155l316 600h198l103 -599l1 -1q-57 -10 -83 -22t-30 -31q-2 -15 9.5 -22t36.5 -7q24 0 53 7l-14 -87q-38 -5 -63 -5zM256 312l-36 -74h167l-10 74q-13 103 -19 164h-24q-32 -72 -78 -164z" />
    <glyph glyph-name="aogonek" unicode="&#x105;" horiz-adv-x="534" 
d="M233 106q40 0 69.5 25.5t40.5 69.5l4 22l6 33q7 50 -14.5 79t-66.5 29q-91 0 -113 -124q-24 -134 74 -134zM29 252q20 114 71.5 174.5t125.5 60.5q121 0 137 -140l7 4l21 123h136l-83 -474q-57 -10 -83 -22t-30 -31q-2 -15 9.5 -22t36.5 -7q24 0 53 7l-14 -87
q-38 -5 -63 -5q-58 0 -84 20t-19 57q10 63 112 90h-54l22 126l-3 -2l2 14q-30 -71 -76 -111.5t-105 -40.5q-76 0 -109 69.5t-10 196.5z" />
    <glyph glyph-name="Cacute" unicode="&#x106;" horiz-adv-x="623" 
d="M295 -14q-147 0 -214.5 90t-40.5 244q25 140 111.5 217t218.5 77q123 0 185.5 -63.5t63.5 -176.5l-141 -16q-2 66 -30 98t-91 32q-73 0 -117 -49.5t-58 -131.5q-17 -94 12 -145.5t107 -51.5q62 0 98.5 33t62.5 103l134 -27q-67 -233 -301 -233zM305 650l-13 69l274 96
l18 -101z" />
    <glyph glyph-name="cacute" unicode="&#x107;" horiz-adv-x="515" 
d="M368 282q-3 42 -20.5 64t-61.5 22q-98 0 -121 -127q-11 -65 9.5 -100.5t72.5 -35.5q75 0 108 90l121 -32q-57 -177 -239 -177q-117 0 -173.5 70.5t-34.5 201.5q19 109 89.5 169t178.5 60q196 0 201 -183zM258 513l-27 66l260 133l38 -92z" />
    <glyph glyph-name="Ccircumflex" unicode="&#x108;" horiz-adv-x="623" 
d="M295 -14q-147 0 -214.5 90t-40.5 244q25 140 111.5 217t218.5 77q123 0 185.5 -63.5t63.5 -176.5l-141 -16q-2 66 -30 98t-91 32q-73 0 -117 -49.5t-58 -131.5q-17 -94 12 -145.5t107 -51.5q62 0 98.5 33t62.5 103l134 -27q-67 -233 -301 -233zM509 639l-104 76l-130 -76
l-36 49l159 126h43l114 -126z" />
    <glyph glyph-name="ccircumflex" unicode="&#x109;" horiz-adv-x="515" 
d="M368 282q-3 42 -20.5 64t-61.5 22q-98 0 -121 -127q-11 -65 9.5 -100.5t72.5 -35.5q75 0 108 90l121 -32q-57 -177 -239 -177q-117 0 -173.5 70.5t-34.5 201.5q19 109 89.5 169t178.5 60q196 0 201 -183zM432 514l-97 92l-129 -92l-42 48l163 146h43l111 -146z" />
    <glyph glyph-name="Cdotaccent" unicode="&#x10a;" horiz-adv-x="623" 
d="M295 -14q-147 0 -214.5 90t-40.5 244q25 140 111.5 217t218.5 77q123 0 185.5 -63.5t63.5 -176.5l-141 -16q-2 66 -30 98t-91 32q-73 0 -117 -49.5t-58 -131.5q-17 -94 12 -145.5t107 -51.5q62 0 98.5 33t62.5 103l134 -27q-67 -233 -301 -233zM338 786h131l-22 -125
h-131z" />
    <glyph glyph-name="cdotaccent" unicode="&#x10b;" horiz-adv-x="515" 
d="M368 282q-3 42 -20.5 64t-61.5 22q-98 0 -121 -127q-11 -65 9.5 -100.5t72.5 -35.5q75 0 108 90l121 -32q-57 -177 -239 -177q-117 0 -173.5 70.5t-34.5 201.5q19 109 89.5 169t178.5 60q196 0 201 -183zM278 679h131l-22 -125h-131z" />
    <glyph glyph-name="Ccaron" unicode="&#x10c;" horiz-adv-x="623" 
d="M295 -14q-147 0 -214.5 90t-40.5 244q25 140 111.5 217t218.5 77q123 0 185.5 -63.5t63.5 -176.5l-141 -16q-2 66 -30 98t-91 32q-73 0 -117 -49.5t-58 -131.5q-17 -94 12 -145.5t107 -51.5q62 0 98.5 33t62.5 103l134 -27q-67 -233 -301 -233zM410 644h-43l-114 126
l46 48l104 -76l130 76l36 -48z" />
    <glyph glyph-name="ccaron" unicode="&#x10d;" horiz-adv-x="515" 
d="M368 282q-3 42 -20.5 64t-61.5 22q-98 0 -121 -127q-11 -65 9.5 -100.5t72.5 -35.5q75 0 108 90l121 -32q-57 -177 -239 -177q-117 0 -173.5 70.5t-34.5 201.5q19 109 89.5 169t178.5 60q196 0 201 -183zM335 525h-43l-111 145l50 48l97 -92l129 92l41 -48z" />
    <glyph glyph-name="Dcaron" unicode="&#x10e;" horiz-adv-x="636" 
d="M330 481h-91l-64 -363h102q89 0 137 43t64 134q18 100 -16.5 143t-131.5 43zM12 0l102 600h244q160 0 224 -83t36 -240q-22 -130 -113.5 -204t-228.5 -73h-264zM408 644h-43l-114 126l46 48l104 -76l130 76l36 -48z" />
    <glyph glyph-name="dcaron" unicode="&#x10f;" horiz-adv-x="631" 
d="M233 106q39 0 69 26t41 69l4 22l6 32q8 50 -13.5 79.5t-67.5 29.5q-91 0 -113 -127q-24 -131 74 -131zM308 0l22 124h-7q-63 -138 -172 -138q-78 0 -111 69.5t-11 196.5q20 114 71.5 174.5t126.5 60.5q116 0 135 -133h8l51 288h136l-113 -642h-136zM610 641h102l-76 -252
h-84z" />
    <glyph glyph-name="Dcroat" unicode="&#x110;" horiz-adv-x="663" 
d="M358 257h-133l-24 -139h102q89 0 137 43t64 134q18 100 -16.5 143t-131.5 43h-91l-25 -139h134zM38 0l44 257h-60l15 85h59l44 258h244q160 0 224 -83t36 -240q-22 -130 -113.5 -204t-228.5 -73h-264z" />
    <glyph glyph-name="dcroat" unicode="&#x111;" horiz-adv-x="547" 
d="M233 106q39 0 69 26t41 69l4 22l6 32q8 50 -13.5 79.5t-67.5 29.5q-91 0 -113 -127q-24 -131 74 -131zM308 0l22 124h-7q-63 -138 -172 -138q-78 0 -111 69.5t-11 196.5q20 114 71.5 174.5t126.5 60.5q116 0 135 -133h8l29 166h-119l13 71h119l9 51h136l-9 -51h53
l-12 -71h-53l-92 -520h-136z" />
    <glyph glyph-name="Emacron" unicode="&#x112;" horiz-adv-x="546" 
d="M11 0l106 600h453l-22 -125h-308l-21 -116h284l-20 -112h-283l-22 -122h308l-22 -125h-453zM234 757h275l-17 -92h-274z" />
    <glyph glyph-name="emacron" unicode="&#x113;" horiz-adv-x="510" 
d="M286 385q-90 0 -120 -110h199q16 110 -79 110zM233 -13q-114 0 -170.5 69.5t-33.5 200.5q19 109 89.5 169.5t177.5 60.5q113 0 161 -63t29 -169q-6 -30 -11 -49h-321q-7 -110 90 -110q43 0 66 17.5t39 50.5l111 -36q-63 -141 -227 -141zM195 646h271l-16 -92h-271z" />
    <glyph glyph-name="Ebreve" unicode="&#x114;" horiz-adv-x="546" 
d="M11 0l106 600h453l-22 -125h-308l-21 -116h284l-20 -112h-283l-22 -122h308l-22 -125h-453zM367 737q74 0 96 71h62q-20 -156 -164 -156q-75 0 -107 40t-19 116h62q-4 -71 70 -71z" />
    <glyph glyph-name="ebreve" unicode="&#x115;" horiz-adv-x="510" 
d="M286 385q-90 0 -120 -110h199q16 110 -79 110zM233 -13q-114 0 -170.5 69.5t-33.5 200.5q19 109 89.5 169.5t177.5 60.5q113 0 161 -63t29 -169q-6 -30 -11 -49h-321q-7 -110 90 -110q43 0 66 17.5t39 50.5l111 -36q-63 -141 -227 -141zM327 616q73 0 97 82h62
q-15 -88 -54 -127.5t-110 -39.5q-74 0 -107.5 41t-18.5 126h62q-3 -46 15.5 -64t53.5 -18z" />
    <glyph glyph-name="Edotaccent" unicode="&#x116;" horiz-adv-x="546" 
d="M11 0l106 600h453l-22 -125h-308l-21 -116h284l-20 -112h-283l-22 -122h308l-22 -125h-453zM301 786h131l-22 -125h-131z" />
    <glyph glyph-name="edotaccent" unicode="&#x117;" horiz-adv-x="510" 
d="M286 385q-90 0 -120 -110h199q16 110 -79 110zM233 -13q-114 0 -170.5 69.5t-33.5 200.5q19 109 89.5 169.5t177.5 60.5q113 0 161 -63t29 -169q-6 -30 -11 -49h-321q-7 -110 90 -110q43 0 66 17.5t39 50.5l111 -36q-63 -141 -227 -141zM272 679h131l-22 -125h-131z" />
    <glyph glyph-name="Eogonek" unicode="&#x118;" horiz-adv-x="546" 
d="M435 -162q-38 -5 -63 -5q-58 0 -84 20t-19 57q10 63 112 90h-370l106 600h453l-22 -125h-308l-21 -116h284l-20 -112h-283l-22 -122h308l-22 -125h-1q-57 -10 -83 -22t-30 -31q-2 -15 9.5 -22t36.5 -7q24 0 53 7z" />
    <glyph glyph-name="eogonek" unicode="&#x119;" horiz-adv-x="510" 
d="M286 385q-90 0 -120 -110h199q16 110 -79 110zM233 -13q-114 0 -170.5 69.5t-33.5 200.5q19 109 89.5 169.5t177.5 60.5q113 0 161 -63t29 -169q-6 -30 -11 -49h-321q-7 -110 90 -110q43 0 66 17.5t39 50.5l107 -35l3 4q-1 -1 -1 -2t-1 -2l3 -1q-26 -58 -68 -93
q-17 -16 -45 -35q-43 -28 -48 -57q-3 -17 10 -26t39 -9q20 0 57 8l-16 -100q-38 -5 -62 -5q-68 0 -97 22.5t-22 62.5q9 54 101 99q-35 -8 -76 -8z" />
    <glyph glyph-name="Ecaron" unicode="&#x11a;" horiz-adv-x="546" 
d="M11 0l106 600h453l-22 -125h-308l-21 -116h284l-20 -112h-283l-22 -122h308l-22 -125h-453zM372 644h-43l-114 126l46 48l104 -76l130 76l36 -48z" />
    <glyph glyph-name="ecaron" unicode="&#x11b;" horiz-adv-x="510" 
d="M286 385q-90 0 -120 -110h199q16 110 -79 110zM233 -13q-114 0 -170.5 69.5t-33.5 200.5q19 109 89.5 169.5t177.5 60.5q113 0 161 -63t29 -169q-6 -30 -11 -49h-321q-7 -110 90 -110q43 0 66 17.5t39 50.5l111 -36q-63 -141 -227 -141zM331 525h-43l-111 145l50 48
l97 -92l129 92l41 -48z" />
    <glyph glyph-name="Gcircumflex" unicode="&#x11c;" horiz-adv-x="641" 
d="M225 -10q-106 0 -159.5 87.5t-27.5 237.5q54 298 330 298q234 0 250 -207l-141 -21q-5 52 -33 77.5t-86 25.5q-77 0 -119 -44.5t-58 -136.5q-34 -200 119 -200q139 0 159 113l1 -5l1 6h-146l19 109h279l-58 -330h-131l23 131h-12q-71 -141 -210 -141zM507 639l-104 76
l-130 -76l-36 49l159 126h43l114 -126z" />
    <glyph glyph-name="gcircumflex" unicode="&#x11d;" horiz-adv-x="534" 
d="M425 514l-97 92l-129 -92l-42 48l163 146h43l111 -146zM240 135q42 0 71.5 27.5t37.5 71.5v-1l4 25v-1q9 49 -13.5 78t-68.5 29q-90 0 -109 -111q-21 -118 78 -118zM30 261q20 112 71 169t126 57q116 0 135 -133h8l21 120h137l-78 -444q-34 -193 -242 -193
q-109 0 -163 35t-61 105l136 22q10 -57 88 -57q51 0 74.5 25t33.5 78l18 102h-8q-28 -54 -72 -87.5t-96 -33.5q-79 0 -113.5 61.5t-14.5 173.5z" />
    <glyph glyph-name="Gbreve" unicode="&#x11e;" horiz-adv-x="641" 
d="M225 -10q-106 0 -159.5 87.5t-27.5 237.5q54 298 330 298q234 0 250 -207l-141 -21q-5 52 -33 77.5t-86 25.5q-77 0 -119 -44.5t-58 -136.5q-34 -200 119 -200q139 0 159 113l1 -5l1 6h-146l19 109h279l-58 -330h-131l23 131h-12q-71 -141 -210 -141zM403 737q74 0 96 71
h62q-20 -156 -164 -156q-75 0 -107 40t-19 116h62q-4 -71 70 -71z" />
    <glyph glyph-name="gbreve" unicode="&#x11f;" horiz-adv-x="534" 
d="M329 616q73 0 97 82h62q-15 -88 -54 -127.5t-110 -39.5q-74 0 -107.5 41t-18.5 126h62q-3 -46 15.5 -64t53.5 -18zM240 135q42 0 71.5 27.5t37.5 71.5v-1l4 25v-1q9 49 -13.5 78t-68.5 29q-90 0 -109 -111q-21 -118 78 -118zM30 261q20 112 71 169t126 57q116 0 135 -133
h8l21 120h137l-78 -444q-34 -193 -242 -193q-109 0 -163 35t-61 105l136 22q10 -57 88 -57q51 0 74.5 25t33.5 78l18 102h-8q-28 -54 -72 -87.5t-96 -33.5q-79 0 -113.5 61.5t-14.5 173.5z" />
    <glyph glyph-name="Gdotaccent" unicode="&#x120;" horiz-adv-x="641" 
d="M225 -10q-106 0 -159.5 87.5t-27.5 237.5q54 298 330 298q234 0 250 -207l-141 -21q-5 52 -33 77.5t-86 25.5q-77 0 -119 -44.5t-58 -136.5q-34 -200 119 -200q139 0 159 113l1 -5l1 6h-146l19 109h279l-58 -330h-131l23 131h-12q-71 -141 -210 -141zM336 786h131
l-22 -125h-131z" />
    <glyph glyph-name="gdotaccent" unicode="&#x121;" horiz-adv-x="534" 
d="M271 679h131l-22 -125h-131zM240 135q42 0 71.5 27.5t37.5 71.5v-1l4 25v-1q9 49 -13.5 78t-68.5 29q-90 0 -109 -111q-21 -118 78 -118zM30 261q20 112 71 169t126 57q116 0 135 -133h8l21 120h137l-78 -444q-34 -193 -242 -193q-109 0 -163 35t-61 105l136 22
q10 -57 88 -57q51 0 74.5 25t33.5 78l18 102h-8q-28 -54 -72 -87.5t-96 -33.5q-79 0 -113.5 61.5t-14.5 173.5z" />
    <glyph glyph-name="uni0122" unicode="&#x122;" horiz-adv-x="641" 
d="M225 -10q-106 0 -159.5 87.5t-27.5 237.5q54 298 330 298q234 0 250 -207l-141 -21q-5 52 -33 77.5t-86 25.5q-77 0 -119 -44.5t-58 -136.5q-34 -200 119 -200q139 0 159 113l1 -5l1 6h-146l19 109h279l-58 -330h-131l23 131h-12q-71 -141 -210 -141zM228 -51h104
l-85 -154h-85l2 9z" />
    <glyph glyph-name="uni0123" unicode="&#x123;" horiz-adv-x="534" 
d="M349 541h-104l86 154h84l-1 -9zM240 135q42 0 71.5 27.5t37.5 71.5v-1l4 25v-1q9 49 -13.5 78t-68.5 29q-90 0 -109 -111q-21 -118 78 -118zM30 261q20 112 71 169t126 57q116 0 135 -133h8l21 120h137l-78 -444q-34 -193 -242 -193q-109 0 -163 35t-61 105l136 22
q10 -57 88 -57q51 0 74.5 25t33.5 78l18 102h-8q-28 -54 -72 -87.5t-96 -33.5q-79 0 -113.5 61.5t-14.5 173.5z" />
    <glyph glyph-name="Hcircumflex" unicode="&#x124;" horiz-adv-x="640" 
d="M547 0h-144l41 234h-249l-41 -234h-144l106 600h144l-42 -237h249l42 237h144zM512 639l-104 76l-130 -76l-36 49l159 126h43l114 -126z" />
    <glyph glyph-name="hcircumflex" unicode="&#x125;" horiz-adv-x="531" 
d="M189 264l-46 -264h-137l113 642h137l-52 -295h6q68 140 181 140q66 0 94.5 -46t14.5 -128l-55 -313h-136l50 283q13 81 -59 81q-43 0 -73 -27.5t-38 -72.5zM307 653l-104 76l-130 -76l-36 49l159 126h43l114 -126z" />
    <glyph glyph-name="Hbar" unicode="&#x126;" horiz-adv-x="693" 
d="M487 331l14 83h-248l-15 -83h249zM573 0h-144l37 209h-249l-37 -209h-144l72 414h-62l16 92h63l16 94h145l-17 -94h249l16 94h145l-17 -94h64l-17 -92h-63z" />
    <glyph glyph-name="hbar" unicode="&#x127;" horiz-adv-x="541" 
d="M198 264l-46 -264h-137l92 520h-49l12 71h49l9 51h137l-9 -51h135l-12 -71h-136l-30 -173h6q68 140 181 140q66 0 94.5 -46t14.5 -128l-55 -313h-136l50 283q6 38 -8.5 59.5t-50.5 21.5q-43 0 -73 -27.5t-38 -72.5z" />
    <glyph glyph-name="Itilde" unicode="&#x128;" horiz-adv-x="247" 
d="M154 0h-144l106 600h144zM131 823q26 0 45.5 -13t29 -29t22 -29t25.5 -13q20 0 30 18t17 61h58q0 -23 -5 -46q-21 -125 -103 -125q-23 0 -41 13t-27.5 29t-23.5 29t-30 13q-19 0 -29 -18t-17 -60h-59q1 20 5 45q11 62 38 93.5t65 31.5z" />
    <glyph glyph-name="itilde" unicode="&#x129;" horiz-adv-x="250" 
d="M151 0h-136l84 474h136zM132 705q26 0 45.5 -13t29 -29t22 -29t25.5 -13q20 0 30 18t17 61h58q0 -23 -5 -46q-21 -125 -103 -125q-23 0 -41 13t-27.5 29t-23.5 29t-30 13q-19 0 -29 -18t-17 -60h-59q1 20 5 45q11 62 38 93.5t65 31.5z" />
    <glyph glyph-name="Imacron" unicode="&#x12a;" horiz-adv-x="247" 
d="M154 0h-144l106 600h144zM78 757h275l-17 -92h-274z" />
    <glyph glyph-name="imacron" unicode="&#x12b;" horiz-adv-x="250" 
d="M151 0h-136l84 474h136zM61 646h271l-16 -92h-271z" />
    <glyph glyph-name="Ibreve" unicode="&#x12c;" horiz-adv-x="247" 
d="M154 0h-144l106 600h144zM211 737q74 0 96 71h62q-20 -156 -164 -156q-75 0 -107 40t-19 116h62q-4 -71 70 -71z" />
    <glyph glyph-name="ibreve" unicode="&#x12d;" horiz-adv-x="250" 
d="M151 0h-136l84 474h136zM193 616q73 0 97 82h62q-15 -88 -54 -127.5t-110 -39.5q-74 0 -107.5 41t-18.5 126h62q-3 -46 15.5 -64t53.5 -18z" />
    <glyph glyph-name="Iogonek" unicode="&#x12e;" horiz-adv-x="247" 
d="M154 0q-57 -10 -83 -22t-30 -31q-2 -15 9.5 -22t36.5 -7q24 0 53 7l-14 -87q-38 -5 -63 -5q-58 0 -84 20t-19 57q10 63 112 90h-62l106 600h144z" />
    <glyph glyph-name="iogonek" unicode="&#x12f;" horiz-adv-x="240" 
d="M244 541h-141l17 98h142zM56 -167q-58 0 -84 20t-19 57q10 63 112 90h-55l84 474h136l-84 -473l1 -1q-57 -10 -83 -22t-30 -31q-2 -15 9.5 -22t36.5 -7q24 0 53 7l-14 -87q-38 -5 -63 -5z" />
    <glyph glyph-name="Idotaccent" unicode="&#x130;" horiz-adv-x="247" 
d="M154 0h-144l106 600h144zM145 786h131l-22 -125h-131z" />
    <glyph glyph-name="dotlessi" unicode="&#x131;" horiz-adv-x="250" 
d="M151 0h-136l84 474h136z" />
    <glyph glyph-name="IJ" unicode="&#x132;" horiz-adv-x="563" 
d="M154 0h-144l106 600h144zM358 181l74 419h144l-74 -418q-33 -190 -205 -190q-41 0 -80 7l26 123q28 -5 48 -5q56 0 67 64z" />
    <glyph glyph-name="ij" unicode="&#x133;" horiz-adv-x="488" 
d="M244 541h-141l17 98h142zM146 0h-136l84 474h136zM398 13q-15 -85 -59.5 -129.5t-130.5 -44.5q-23 0 -53 4l24 117q15 -3 31 -3q41 0 51 52l82 464h136zM493 541h-141l17 98h142z" />
    <glyph glyph-name="Jcircumflex" unicode="&#x134;" horiz-adv-x="316" 
d="M111 181l74 419h144l-74 -418q-33 -190 -205 -190q-42 0 -80 7l26 123q28 -5 48 -5q56 0 67 64zM387 639l-104 76l-130 -76l-36 49l159 126h43l114 -126z" />
    <glyph glyph-name="jcircumflex" unicode="&#x135;" horiz-adv-x="255" 
d="M158 16q-33 -188 -204 -188q-14 0 -44 4l27 118q4 0 10.5 -1t11.5 -1.5t10 -0.5q42 0 50 52l84 474h136zM268 528l-76 74l-101 -74l-33 45l130 121h43l87 -121z" />
    <glyph glyph-name="uni0136" unicode="&#x136;" horiz-adv-x="580" 
d="M383 0l-148 225h-41l-40 -225h-144l106 600h144l-46 -259h35l223 259h171l-2 -11l-292 -307l196 -271l-2 -11h-160zM213 -51h104l-85 -154h-85l2 9z" />
    <glyph glyph-name="uni0137" unicode="&#x137;" horiz-adv-x="503" 
d="M257 642l-62 -353h34l148 185h164l-2 -11l-209 -223l139 -229l-2 -11h-149l-102 190h-39l-33 -190h-136l113 642h136zM177 -51h104l-85 -154h-85l2 9z" />
    <glyph glyph-name="kgreenlandic" unicode="&#x138;" horiz-adv-x="503" 
d="M312 0l-99 190h-35l-34 -190h-136l84 474h136l-33 -185h37l154 185h155l-2 -11l-207 -220l137 -232l-2 -11h-155z" />
    <glyph glyph-name="Lacute" unicode="&#x139;" horiz-adv-x="473" 
d="M164 650l-13 69l274 96l18 -101zM260 600l-83 -471h257l-22 -129h-402l106 600h144z" />
    <glyph glyph-name="lacute" unicode="&#x13a;" horiz-adv-x="236" 
d="M257 642l-113 -642h-136l113 642h136zM111 691l-13 69l274 96l18 -101z" />
    <glyph glyph-name="uni013B" unicode="&#x13b;" horiz-adv-x="473" 
d="M260 600l-83 -471h257l-22 -129h-402l106 600h144zM167 -51h104l-85 -154h-85l2 9z" />
    <glyph glyph-name="uni013C" unicode="&#x13c;" horiz-adv-x="236" 
d="M257 642l-113 -642h-136l113 642h136zM32 -51h104l-85 -154h-85l2 9z" />
    <glyph glyph-name="Lcaron" unicode="&#x13d;" horiz-adv-x="473" 
d="M434 606h102l-76 -252h-84zM260 600l-83 -471h257l-22 -129h-402l106 600h144z" />
    <glyph glyph-name="lcaron" unicode="&#x13e;" horiz-adv-x="348" 
d="M257 642l-113 -642h-136l113 642h136zM320 641h102l-76 -252h-84z" />
    <glyph glyph-name="Ldot" unicode="&#x13f;" horiz-adv-x="473" 
d="M396 412h127l-22 -122h-127zM260 600l-83 -471h257l-22 -129h-402l106 600h144z" />
    <glyph glyph-name="ldot" unicode="&#x140;" horiz-adv-x="380" 
d="M257 642l-113 -642h-136l113 642h136zM256 329h131l-22 -125h-131z" />
    <glyph glyph-name="Lslash" unicode="&#x141;" horiz-adv-x="498" 
d="M285 600l-41 -232l147 61l-18 -94l-145 -60l-26 -146h257l-22 -129h-402l37 211l-64 -27l16 93l65 27l52 296h144z" />
    <glyph glyph-name="lslash" unicode="&#x142;" horiz-adv-x="290" 
d="M283 642l-48 -272l77 37l-16 -91l-77 -36l-49 -280h-136l37 210l-73 -34l16 88l73 35l60 343h136z" />
    <glyph glyph-name="Nacute" unicode="&#x143;" horiz-adv-x="650" 
d="M369 0l-78 237q-34 111 -59 237l-16 -2q-20 -176 -40 -291l-32 -181h-133l106 600h200l68 -201q36 -107 62 -253l16 2q16 158 36 267l32 185h133l-106 -600h-189zM313 650l-13 69l274 96l18 -101z" />
    <glyph glyph-name="nacute" unicode="&#x144;" horiz-adv-x="531" 
d="M189 264l-46 -264h-137l84 474h132l-22 -127h10q64 140 179 140q67 0 96.5 -46.5t14.5 -127.5l-55 -313h-136l50 283q13 81 -59 81q-43 0 -73 -27.5t-38 -72.5zM252 513l-27 66l260 133l38 -92z" />
    <glyph glyph-name="uni0145" unicode="&#x145;" horiz-adv-x="650" 
d="M369 0l-78 237q-34 111 -59 237l-16 -2q-20 -176 -40 -291l-32 -181h-133l106 600h200l68 -201q36 -107 62 -253l16 2q16 158 36 267l32 185h133l-106 -600h-189zM239 -51h104l-85 -154h-85l2 9z" />
    <glyph glyph-name="uni0146" unicode="&#x146;" horiz-adv-x="531" 
d="M189 264l-46 -264h-137l84 474h132l-22 -127h10q64 140 179 140q67 0 96.5 -46.5t14.5 -127.5l-55 -313h-136l50 283q13 81 -59 81q-43 0 -73 -27.5t-38 -72.5zM181 -51h104l-85 -154h-85l2 9z" />
    <glyph glyph-name="Ncaron" unicode="&#x147;" horiz-adv-x="650" 
d="M369 0l-78 237q-34 111 -59 237l-16 -2q-20 -176 -40 -291l-32 -181h-133l106 600h200l68 -201q36 -107 62 -253l16 2q16 158 36 267l32 185h133l-106 -600h-189zM418 644h-43l-114 126l46 48l104 -76l130 76l36 -48z" />
    <glyph glyph-name="ncaron" unicode="&#x148;" horiz-adv-x="531" 
d="M189 264l-46 -264h-137l84 474h132l-22 -127h10q64 140 179 140q67 0 96.5 -46.5t14.5 -127.5l-55 -313h-136l50 283q13 81 -59 81q-43 0 -73 -27.5t-38 -72.5zM339 525h-43l-111 145l50 48l97 -92l129 92l41 -48z" />
    <glyph glyph-name="napostrophe" unicode="&#x149;" horiz-adv-x="677" 
d="M124 600h139l-149 -284h-76l1 6zM322 264l-46 -264h-137l84 474h132l-22 -127h10q64 140 179 140q67 0 96.5 -46.5t14.5 -127.5l-55 -313h-136l50 283q6 38 -8.5 59.5t-50.5 21.5q-43 0 -73 -27.5t-38 -72.5z" />
    <glyph glyph-name="Eng" unicode="&#x14a;" horiz-adv-x="650" 
d="M10 0l106 600h203l81 -197q29 -71 60 -202l9 1q14 132 30 220l31 178h133l-103 -584q-31 -178 -201 -178q-44 0 -82 8l23 114q37 -7 56 -7q53 0 63 52l-106 229q-46 102 -86 235h-13q-16 -157 -39 -288l-32 -181h-133z" />
    <glyph glyph-name="eng" unicode="&#x14b;" horiz-adv-x="531" 
d="M311 10l48 273q14 82 -60 82q-42 0 -72 -27.5t-38 -73.5l-46 -264h-137l84 474h132l-22 -127h10q32 68 79 104t103 36q67 0 95 -44.5t14 -123.5l-54 -308q-15 -85 -60.5 -128.5t-132.5 -43.5q-20 0 -52 4l26 118q4 0 10.5 -1t11.5 -1.5t10 -0.5q41 0 51 52z" />
    <glyph glyph-name="Omacron" unicode="&#x14c;" horiz-adv-x="657" 
d="M301 -14q-150 0 -218.5 92t-40.5 249q23 134 112.5 210.5t223.5 76.5q147 0 217.5 -91.5t42.5 -247.5q-24 -135 -112.5 -212t-224.5 -77zM312 110q153 0 186 183q16 91 -16 143t-115 52q-153 0 -184 -176q-17 -95 14.5 -148.5t114.5 -53.5zM283 757h275l-17 -92h-274z
" />
    <glyph glyph-name="omacron" unicode="&#x14d;" horiz-adv-x="538" 
d="M240 -14q-121 0 -177 74t-34 200q19 108 91 167.5t179 59.5q119 0 175.5 -73t34.5 -200q-19 -107 -90.5 -167.5t-178.5 -60.5zM288 373q-103 0 -125 -128q-26 -143 87 -143q104 0 126 129q12 68 -9.5 105t-78.5 37zM204 646h271l-16 -92h-271z" />
    <glyph glyph-name="Obreve" unicode="&#x14e;" horiz-adv-x="657" 
d="M301 -14q-150 0 -218.5 92t-40.5 249q23 134 112.5 210.5t223.5 76.5q147 0 217.5 -91.5t42.5 -247.5q-24 -135 -112.5 -212t-224.5 -77zM312 110q153 0 186 183q16 91 -16 143t-115 52q-153 0 -184 -176q-17 -95 14.5 -148.5t114.5 -53.5zM416 737q74 0 96 71h62
q-20 -156 -164 -156q-75 0 -107 40t-19 116h62q-4 -71 70 -71z" />
    <glyph glyph-name="obreve" unicode="&#x14f;" horiz-adv-x="538" 
d="M240 -14q-121 0 -177 74t-34 200q19 108 91 167.5t179 59.5q119 0 175.5 -73t34.5 -200q-19 -107 -90.5 -167.5t-178.5 -60.5zM288 373q-103 0 -125 -128q-26 -143 87 -143q104 0 126 129q12 68 -9.5 105t-78.5 37zM335 616q73 0 97 82h62q-15 -88 -54 -127.5t-110 -39.5
q-74 0 -107.5 41t-18.5 126h62q-3 -46 15.5 -64t53.5 -18z" />
    <glyph glyph-name="Ohungarumlaut" unicode="&#x150;" horiz-adv-x="657" 
d="M301 -14q-150 0 -218.5 92t-40.5 249q23 134 112.5 210.5t223.5 76.5q147 0 217.5 -91.5t42.5 -247.5q-24 -135 -112.5 -212t-224.5 -77zM312 110q153 0 186 183q16 91 -16 143t-115 52q-153 0 -184 -176q-17 -95 14.5 -148.5t114.5 -53.5zM343 640l-55 36l112 156
l74 -49zM488 640l-52 41l123 150l70 -53z" />
    <glyph glyph-name="ohungarumlaut" unicode="&#x151;" horiz-adv-x="538" 
d="M240 -14q-121 0 -177 74t-34 200q19 108 91 167.5t179 59.5q119 0 175.5 -73t34.5 -200q-19 -107 -90.5 -167.5t-178.5 -60.5zM288 373q-103 0 -125 -128q-26 -143 87 -143q104 0 126 129q12 68 -9.5 105t-78.5 37zM251 518l-53 33l115 167l71 -45zM388 519l-48 39
l128 159l66 -51z" />
    <glyph glyph-name="OE" unicode="&#x152;" horiz-adv-x="895" 
d="M323 124h59l62 351h-74q-79 0 -126.5 -42.5t-60.5 -118.5q-17 -90 19.5 -140t120.5 -50zM318 0q-153 0 -227.5 89t-46.5 244q22 127 113 197t229 70h533l-22 -125h-308l-21 -116h284l-20 -112h-283l-22 -122h308l-22 -125h-495z" />
    <glyph glyph-name="oe" unicode="&#x153;" horiz-adv-x="863" 
d="M291 373q-105 0 -129 -131q-24 -140 84 -140t130 132q25 139 -85 139zM641 385q-48 0 -77.5 -27.5t-45.5 -88.5h199q21 116 -76 116zM602 -14q-154 0 -173 135h-8q-66 -135 -202 -135q-110 0 -161 73t-29 198q19 109 85.5 169.5t168.5 60.5q75 0 120.5 -35.5t56.5 -102.5
h8q66 138 206 138q100 0 142 -60t24 -162q-5 -31 -11 -53h-320q-6 -60 16.5 -88t74.5 -28q42 0 64.5 18.5t39.5 53.5l106 -39q-62 -143 -208 -143z" />
    <glyph glyph-name="Racute" unicode="&#x154;" horiz-adv-x="595" 
d="M346 479h-106l-28 -160h109q99 0 112 74q7 45 -14 65.5t-73 20.5zM375 0l-92 207h-91l-36 -207h-145l105 600h255q115 0 168 -56.5t34 -161.5q-22 -122 -144 -160l114 -211l-2 -11h-166zM276 650l-13 69l274 96l18 -101z" />
    <glyph glyph-name="racute" unicode="&#x155;" horiz-adv-x="351" 
d="M143 0h-137l84 474h129l-27 -154h10q36 93 72.5 126t87.5 33h15l-27 -156h-29q-70 0 -100 -24t-41 -88zM175 513l-27 66l260 133l38 -92z" />
    <glyph glyph-name="uni0156" unicode="&#x156;" horiz-adv-x="595" 
d="M210 -51h104l-85 -154h-85l2 9zM346 479h-106l-28 -160h109q99 0 112 74q7 45 -14 65.5t-73 20.5zM375 0l-92 207h-91l-36 -207h-145l105 600h255q115 0 168 -56.5t34 -161.5q-22 -122 -144 -160l114 -211l-2 -11h-166z" />
    <glyph glyph-name="uni0157" unicode="&#x157;" horiz-adv-x="351" 
d="M143 0h-137l84 474h129l-27 -154h10q36 93 72.5 126t87.5 33h15l-27 -156h-29q-70 0 -100 -24t-41 -88zM29 -51h104l-85 -154h-85l2 9z" />
    <glyph glyph-name="Rcaron" unicode="&#x158;" horiz-adv-x="595" 
d="M346 479h-106l-28 -160h109q99 0 112 74q7 45 -14 65.5t-73 20.5zM375 0l-92 207h-91l-36 -207h-145l105 600h255q115 0 168 -56.5t34 -161.5q-22 -122 -144 -160l114 -211l-2 -11h-166zM382 644h-43l-114 126l46 48l104 -76l130 76l36 -48z" />
    <glyph glyph-name="rcaron" unicode="&#x159;" horiz-adv-x="351" 
d="M143 0h-137l84 474h129l-27 -154h10q36 93 72.5 126t87.5 33h15l-27 -156h-29q-70 0 -100 -24t-41 -88zM262 525h-43l-111 145l50 48l97 -92l129 92l41 -48z" />
    <glyph glyph-name="Sacute" unicode="&#x15a;" horiz-adv-x="572" 
d="M267 -14q-137 0 -194 51t-62 140l142 28q9 -104 130 -104q91 0 102 56q6 34 -18.5 53.5t-98.5 32.5q-118 21 -160.5 73t-27.5 138q14 77 78.5 118.5t177.5 41.5q120 0 172 -47t59 -129l-148 -27q-4 47 -26 69t-76 22q-88 0 -97 -54q-6 -32 17.5 -52.5t100.5 -35.5
q123 -23 164 -76.5t27 -134.5q-29 -163 -262 -163zM258 650l-13 69l274 96l18 -101z" />
    <glyph glyph-name="sacute" unicode="&#x15b;" horiz-adv-x="474" 
d="M209 -14q-109 0 -155 39.5t-52 110.5l126 25q5 -40 27 -59.5t66 -19.5q67 0 73 39q5 25 -14 40.5t-79 28.5q-90 21 -123.5 62t-21.5 106q24 129 211 129q96 0 137 -36.5t50 -100.5l-126 -25q-3 37 -20 53t-54 16q-62 0 -70 -39q-4 -23 13.5 -39t72.5 -28q98 -21 132 -64
t23 -106q-24 -132 -216 -132zM226 513l-27 66l260 133l38 -92z" />
    <glyph glyph-name="Scircumflex" unicode="&#x15c;" horiz-adv-x="572" 
d="M267 -14q-137 0 -194 51t-62 140l142 28q9 -104 130 -104q91 0 102 56q6 34 -18.5 53.5t-98.5 32.5q-118 21 -160.5 73t-27.5 138q14 77 78.5 118.5t177.5 41.5q120 0 172 -47t59 -129l-148 -27q-4 47 -26 69t-76 22q-88 0 -97 -54q-6 -32 17.5 -52.5t100.5 -35.5
q123 -23 164 -76.5t27 -134.5q-29 -163 -262 -163zM474 639l-104 76l-130 -76l-36 49l159 126h43l114 -126z" />
    <glyph glyph-name="scircumflex" unicode="&#x15d;" horiz-adv-x="474" 
d="M209 -14q-109 0 -155 39.5t-52 110.5l126 25q5 -40 27 -59.5t66 -19.5q67 0 73 39q5 25 -14 40.5t-79 28.5q-90 21 -123.5 62t-21.5 106q24 129 211 129q96 0 137 -36.5t50 -100.5l-126 -25q-3 37 -20 53t-54 16q-62 0 -70 -39q-4 -23 13.5 -39t72.5 -28q98 -21 132 -64
t23 -106q-24 -132 -216 -132zM405 514l-97 92l-129 -92l-42 48l163 146h43l111 -146z" />
    <glyph glyph-name="uni015E" unicode="&#x15e;" horiz-adv-x="572" 
d="M267 -14h-19l-19 -32q19 6 37 6q73 0 62 -62q-5 -25 -30.5 -45.5t-73.5 -20.5q-61 0 -98 28l34 42q30 -22 71 -22q35 0 40 24q2 12 -5.5 18t-25.5 6q-17 0 -39 -6l-32 14l29 54q-99 13 -141 61.5t-46 125.5l142 28q9 -104 130 -104q91 0 102 56q6 34 -18.5 53.5
t-98.5 32.5q-118 21 -160.5 73t-27.5 138q14 77 78.5 118.5t177.5 41.5q120 0 172 -47t59 -129l-148 -27q-4 47 -26 69t-76 22q-88 0 -97 -54q-6 -32 17.5 -52.5t100.5 -35.5q123 -23 164 -76.5t27 -134.5q-29 -163 -262 -163z" />
    <glyph glyph-name="uni015F" unicode="&#x15f;" horiz-adv-x="474" 
d="M209 -14h-13l-19 -32q19 6 37 6q73 0 62 -62q-5 -25 -30.5 -45.5t-73.5 -20.5q-61 0 -98 28l34 42q30 -22 71 -22q35 0 40 24q2 12 -5.5 18t-25.5 6q-17 0 -39 -6l-32 14l29 54q-133 20 -144 146l126 25q5 -40 27 -59.5t66 -19.5q67 0 73 39q5 25 -14 40.5t-79 28.5
q-90 21 -123.5 62t-21.5 106q24 129 211 129q96 0 137 -36.5t50 -100.5l-126 -25q-3 37 -20 53t-54 16q-62 0 -70 -39q-4 -23 13.5 -39t72.5 -28q98 -21 132 -64t23 -106q-24 -132 -216 -132z" />
    <glyph glyph-name="Scaron" unicode="&#x160;" horiz-adv-x="572" 
d="M267 -14q-137 0 -194 51t-62 140l142 28q9 -104 130 -104q91 0 102 56q6 34 -18.5 53.5t-98.5 32.5q-118 21 -160.5 73t-27.5 138q14 77 78.5 118.5t177.5 41.5q120 0 172 -47t59 -129l-148 -27q-4 47 -26 69t-76 22q-88 0 -97 -54q-6 -32 17.5 -52.5t100.5 -35.5
q123 -23 164 -76.5t27 -134.5q-29 -163 -262 -163zM375 644h-43l-114 126l46 48l104 -76l130 76l36 -48z" />
    <glyph glyph-name="scaron" unicode="&#x161;" horiz-adv-x="474" 
d="M209 -14q-109 0 -155 39.5t-52 110.5l126 25q5 -40 27 -59.5t66 -19.5q67 0 73 39q5 25 -14 40.5t-79 28.5q-90 21 -123.5 62t-21.5 106q24 129 211 129q96 0 137 -36.5t50 -100.5l-126 -25q-3 37 -20 53t-54 16q-62 0 -70 -39q-4 -23 13.5 -39t72.5 -28q98 -21 132 -64
t23 -106q-24 -132 -216 -132zM310 525h-43l-111 145l50 48l97 -92l129 92l41 -48z" />
    <glyph glyph-name="Tcommaaccent" unicode="&#x162;" horiz-adv-x="516" 
d="M54 468l23 132h490l-24 -132h-172l-83 -468h-67l-26 -46q19 6 37 6q73 0 62 -62q-5 -25 -30.5 -45.5t-73.5 -20.5q-61 0 -98 28l34 42q30 -22 71 -22q35 0 40 24q2 12 -5.5 18t-25.5 6q-17 0 -39 -6l-32 14l35 64h-26l83 468h-173z" />
    <glyph glyph-name="tcommaaccent" unicode="&#x163;" horiz-adv-x="361" 
d="M60 166l35 200h-57l19 108h57l22 122h137l-22 -122h125l-19 -108h-125l-34 -195q-11 -57 44 -57q26 0 64 12l-5 -122q-62 -18 -107 -18q-23 0 -46 5l-21 -37q19 6 37 6q73 0 62 -62q-5 -25 -30.5 -45.5t-73.5 -20.5q-61 0 -98 28l34 42q30 -22 71 -22q35 0 40 24
q2 12 -5.5 18t-25.5 6q-17 0 -39 -6l-32 14l40 73q-65 45 -47 157z" />
    <glyph glyph-name="Tcaron" unicode="&#x164;" horiz-adv-x="516" 
d="M543 468h-172l-83 -468h-144l83 468h-173l23 132h490zM351 644h-43l-114 126l46 48l104 -76l130 76l36 -48z" />
    <glyph glyph-name="tcaron" unicode="&#x165;" horiz-adv-x="368" 
d="M361 684h98l-51 -160h-79zM60 166l35 200h-57l19 108h57l22 122h137l-22 -122h125l-19 -108h-125l-34 -195q-11 -57 44 -57q26 0 64 12l-5 -122q-62 -18 -107 -18q-81 0 -114.5 50.5t-19.5 129.5z" />
    <glyph glyph-name="Tbar" unicode="&#x166;" horiz-adv-x="521" 
d="M58 468l23 132h490l-24 -132h-172l-31 -173h126l-14 -79h-126l-38 -216h-144l38 216h-127l14 79h127l31 173h-173z" />
    <glyph glyph-name="tbar" unicode="&#x167;" horiz-adv-x="361" 
d="M60 166l8 48h-43l12 72h44l14 80h-57l19 108h57l22 122h137l-22 -122h125l-19 -108h-125l-14 -80h108l-13 -72h-107l-8 -43q-11 -57 44 -57q26 0 64 12l-5 -122q-62 -18 -107 -18q-81 0 -114.5 50.5t-19.5 129.5z" />
    <glyph glyph-name="Utilde" unicode="&#x168;" horiz-adv-x="632" 
d="M302 114q64 0 94.5 32t42.5 97l63 357h144l-66 -376q-21 -116 -93.5 -176.5t-192.5 -60.5q-139 0 -201 68t-39 195l62 350h144l-63 -355q-24 -131 105 -131zM324 823q26 0 45.5 -13t29 -29t22 -29t25.5 -13q20 0 30 18t17 61h58q0 -23 -5 -46q-21 -125 -103 -125
q-23 0 -41 13t-27.5 29t-23.5 29t-30 13q-19 0 -29 -18t-17 -60h-59q1 20 5 45q11 62 38 93.5t65 31.5z" />
    <glyph glyph-name="utilde" unicode="&#x169;" horiz-adv-x="533" 
d="M310 0l22 126h-10q-64 -140 -178 -140q-67 0 -96.5 47t-15.5 128l56 313h136l-50 -283q-7 -38 8 -60t51 -22q43 0 73 27.5t38 73.5l46 264h136l-83 -474h-133zM273 705q26 0 45.5 -13t29 -29t22 -29t25.5 -13q20 0 30 18t17 61h58q0 -23 -5 -46q-21 -125 -103 -125
q-23 0 -41 13t-27.5 29t-23.5 29t-30 13q-19 0 -29 -18t-17 -60h-59q1 20 5 45q11 62 38 93.5t65 31.5z" />
    <glyph glyph-name="Umacron" unicode="&#x16a;" horiz-adv-x="632" 
d="M302 114q64 0 94.5 32t42.5 97l63 357h144l-66 -376q-21 -116 -93.5 -176.5t-192.5 -60.5q-139 0 -201 68t-39 195l62 350h144l-63 -355q-24 -131 105 -131zM271 757h275l-17 -92h-274z" />
    <glyph glyph-name="umacron" unicode="&#x16b;" horiz-adv-x="533" 
d="M310 0l22 126h-10q-64 -140 -178 -140q-67 0 -96.5 47t-15.5 128l56 313h136l-50 -283q-7 -38 8 -60t51 -22q43 0 73 27.5t38 73.5l46 264h136l-83 -474h-133zM201 646h271l-16 -92h-271z" />
    <glyph glyph-name="Ubreve" unicode="&#x16c;" horiz-adv-x="632" 
d="M302 114q64 0 94.5 32t42.5 97l63 357h144l-66 -376q-21 -116 -93.5 -176.5t-192.5 -60.5q-139 0 -201 68t-39 195l62 350h144l-63 -355q-24 -131 105 -131zM404 737q74 0 96 71h62q-20 -156 -164 -156q-75 0 -107 40t-19 116h62q-4 -71 70 -71z" />
    <glyph glyph-name="ubreve" unicode="&#x16d;" horiz-adv-x="533" 
d="M310 0l22 126h-10q-64 -140 -178 -140q-67 0 -96.5 47t-15.5 128l56 313h136l-50 -283q-7 -38 8 -60t51 -22q43 0 73 27.5t38 73.5l46 264h136l-83 -474h-133zM333 616q73 0 97 82h62q-15 -88 -54 -127.5t-110 -39.5q-74 0 -107.5 41t-18.5 126h62q-3 -46 15.5 -64
t53.5 -18z" />
    <glyph glyph-name="Uring" unicode="&#x16e;" horiz-adv-x="632" 
d="M302 114q64 0 94.5 32t42.5 97l63 357h144l-66 -376q-21 -116 -93.5 -176.5t-192.5 -60.5q-139 0 -201 68t-39 195l62 350h144l-63 -355q-24 -131 105 -131zM520 743q-8 -46 -42.5 -73.5t-84.5 -27.5q-54 0 -81 32.5t-17 85.5q8 45 42 72t84 27q54 0 81 -31.5t18 -84.5z
M360 753q-4 -22 7 -35.5t34 -13.5q21 0 35.5 12t17.5 32q4 22 -7 35.5t-34 13.5q-21 0 -35.5 -11.5t-17.5 -32.5z" />
    <glyph glyph-name="uring" unicode="&#x16f;" horiz-adv-x="533" 
d="M310 0l22 126h-10q-64 -140 -178 -140q-67 0 -96.5 47t-15.5 128l56 313h136l-50 -283q-7 -38 8 -60t51 -22q43 0 73 27.5t38 73.5l46 264h136l-83 -474h-133zM287 641q-5 -25 7 -40t36 -15q46 0 56 51q5 25 -7 40t-37 15q-47 0 -55 -51zM451 629q-9 -49 -43 -76.5
t-85 -27.5q-56 0 -84 34t-18 88q9 50 43 78t85 28q56 0 83.5 -34.5t18.5 -89.5z" />
    <glyph glyph-name="Uhungarumlaut" unicode="&#x170;" horiz-adv-x="632" 
d="M302 114q64 0 94.5 32t42.5 97l63 357h144l-66 -376q-21 -116 -93.5 -176.5t-192.5 -60.5q-139 0 -201 68t-39 195l62 350h144l-63 -355q-24 -131 105 -131zM331 640l-55 36l112 156l74 -49zM476 640l-52 41l123 150l70 -53z" />
    <glyph glyph-name="uhungarumlaut" unicode="&#x171;" horiz-adv-x="533" 
d="M310 0l22 126h-10q-64 -140 -178 -140q-67 0 -96.5 47t-15.5 128l56 313h136l-50 -283q-7 -38 8 -60t51 -22q43 0 73 27.5t38 73.5l46 264h136l-83 -474h-133zM386 519l-48 39l128 159l66 -51zM249 518l-53 33l115 167l71 -45z" />
    <glyph glyph-name="Uogonek" unicode="&#x172;" horiz-adv-x="632" 
d="M302 114q64 0 94.5 32t42.5 97l63 357h144l-66 -376q-40 -222 -259 -236q-51 -14 -57 -41q-2 -15 9.5 -22t36.5 -7q24 0 53 7l-14 -87q-38 -5 -63 -5q-58 0 -84 20t-19 57q9 51 76 78q-121 9 -173.5 76.5t-31.5 185.5l62 350h144l-63 -355q-24 -131 105 -131z" />
    <glyph glyph-name="uogonek" unicode="&#x173;" horiz-adv-x="533" 
d="M415 -162q-38 -5 -63 -5q-58 0 -84 20t-19 57q10 63 112 90h-51l22 126h-10q-64 -140 -178 -140q-67 0 -96.5 47t-15.5 128l56 313h136l-50 -283q-7 -38 8 -60t51 -22q43 0 73 27.5t38 73.5l46 264h136l-83 -474q-57 -10 -83 -22t-30 -31q-2 -15 9.5 -22t36.5 -7
q24 0 53 7z" />
    <glyph glyph-name="Wcircumflex" unicode="&#x174;" horiz-adv-x="856" 
d="M382 253l-86 -253h-200l-40 600h151l5 -257q2 -129 -2 -220h21q37 118 75 220l98 257h182l6 -257q1 -67 -5 -220h22q13 43 40.5 121.5t34.5 98.5l92 257h152l-249 -600h-210l2 253q2 121 6 229h-18q-26 -83 -77 -229zM620 639l-104 76l-130 -76l-36 49l159 126h43
l114 -126z" />
    <glyph glyph-name="wcircumflex" unicode="&#x175;" horiz-adv-x="748" 
d="M495 474l6 -187q3 -98 2 -183h18q12 34 35.5 95.5t33.5 88.5l68 186h137l-214 -474h-178l-4 204q-1 67 4 167h-17q-34 -104 -56 -167l-73 -204h-173l-48 474h136l9 -186q7 -114 7 -184h18q32 101 64 183l72 187h153zM543 514l-97 92l-129 -92l-42 48l163 146h43l111 -146
z" />
    <glyph glyph-name="Ycircumflex" unicode="&#x176;" horiz-adv-x="549" 
d="M305 0h-144l34 190l-146 399l2 11h154l71 -287h17l175 287h159l-2 -11l-286 -399zM466 639l-104 76l-130 -76l-36 49l159 126h43l114 -126z" />
    <glyph glyph-name="ycircumflex" unicode="&#x177;" horiz-adv-x="485" 
d="M19 -168q-37 0 -72 5l27 117q35 -7 61 -7q38 0 60.5 12t44.5 48l-95 467h144l18 -174q12 -124 15 -172h17q5 11 73 169l75 177h151l-271 -476q-51 -88 -106 -127t-142 -39zM413 514l-97 92l-129 -92l-42 48l163 146h43l111 -146z" />
    <glyph glyph-name="Ydieresis" unicode="&#x178;" horiz-adv-x="549" 
d="M305 0h-144l34 190l-146 399l2 11h154l71 -287h17l175 287h159l-2 -11l-286 -399zM215 774h120l-20 -117h-122zM386 774h120l-20 -117h-122z" />
    <glyph glyph-name="Zacute" unicode="&#x179;" horiz-adv-x="581" 
d="M524 132l-23 -132h-509l22 129l384 341l-4 12q-107 -14 -177 -14h-134l24 132h496l-22 -128l-389 -344l4 -10q108 14 174 14h154zM276 650l-13 69l274 96l18 -101z" />
    <glyph glyph-name="zacute" unicode="&#x17a;" horiz-adv-x="500" 
d="M313 115h126l-20 -115h-426l20 117l312 246l-2 10q-98 -14 -162 -14h-97l20 115h416l-21 -117l-314 -247l3 -9q89 14 145 14zM232 513l-27 66l260 133l38 -92z" />
    <glyph glyph-name="Zdotaccent" unicode="&#x17b;" horiz-adv-x="581" 
d="M524 132l-23 -132h-509l22 129l384 341l-4 12q-107 -14 -177 -14h-134l24 132h496l-22 -128l-389 -344l4 -10q108 14 174 14h154zM309 786h131l-22 -125h-131z" />
    <glyph glyph-name="zdotaccent" unicode="&#x17c;" horiz-adv-x="500" 
d="M313 115h126l-20 -115h-426l20 117l312 246l-2 10q-98 -14 -162 -14h-97l20 115h416l-21 -117l-314 -247l3 -9q89 14 145 14zM261 679h131l-22 -125h-131z" />
    <glyph glyph-name="Zcaron" unicode="&#x17d;" horiz-adv-x="581" 
d="M524 132l-23 -132h-509l22 129l384 341l-4 12q-107 -14 -177 -14h-134l24 132h496l-22 -128l-389 -344l4 -10q108 14 174 14h154zM381 644h-43l-114 126l46 48l104 -76l130 76l36 -48z" />
    <glyph glyph-name="zcaron" unicode="&#x17e;" horiz-adv-x="500" 
d="M313 115h126l-20 -115h-426l20 117l312 246l-2 10q-98 -14 -162 -14h-97l20 115h416l-21 -117l-314 -247l3 -9q89 14 145 14zM320 525h-43l-111 145l50 48l97 -92l129 92l41 -48z" />
    <glyph glyph-name="Aringacute" unicode="&#x1fa;" horiz-adv-x="598" 
d="M312 791l-8 66l266 92l12 -96zM343 662q-4 -24 7.5 -38t34.5 -14q22 0 37 12.5t18 34.5q4 24 -7.5 38t-34.5 14q-22 0 -37 -12.5t-18 -34.5zM256 312l-36 -74h167l-10 74q-13 103 -19 164h-24q-32 -72 -78 -164zM418 0l-17 133h-232l-65 -133h-155l316 600h16
q-12 29 -6 70q8 48 44 77t87 29q56 0 84 -34t19 -90q-9 -49 -42 -77l99 -575h-148z" />
    <glyph glyph-name="aringacute" unicode="&#x1fb;" horiz-adv-x="534" 
d="M273 744l-9 69l264 85l11 -94zM304 621q-4 -22 7 -35.5t34 -13.5q21 0 35.5 12t17.5 32q4 22 -7 35.5t-34 13.5q-21 0 -35.5 -11.5t-17.5 -32.5zM464 611q-8 -46 -42.5 -73.5t-84.5 -27.5q-54 0 -81 32.5t-17 85.5q8 45 42 72t84 27q54 0 81 -31.5t18 -84.5zM233 106
q40 0 69.5 25.5t40.5 69.5l4 22l6 33q7 50 -14.5 79t-66.5 29q-91 0 -113 -124q-24 -134 74 -134zM29 252q20 114 71.5 174.5t125.5 60.5q121 0 137 -140l7 4l21 123h136l-83 -474h-136l22 126l-3 -2l2 14q-30 -71 -76 -111.5t-105 -40.5q-76 0 -109 69.5t-10 196.5z" />
    <glyph glyph-name="AEacute" unicode="&#x1fc;" horiz-adv-x="871" 
d="M425 650l-13 69l274 96l18 -101zM336 0l22 125h-174l-74 -125h-157l1 6l382 594h559l-22 -125h-308l-21 -116h284l-20 -112h-283l-22 -122h308l-22 -125h-453zM294 312l-47 -80h130l44 250h-31q-54 -101 -96 -170z" />
    <glyph glyph-name="aeacute" unicode="&#x1fd;" horiz-adv-x="806" 
d="M198 94q44 0 75 24.5t38 63.5l5 25h-103q-31 0 -52 -14t-25 -38q-5 -28 9.5 -44.5t52.5 -16.5zM583 385q-48 0 -77.5 -28t-44.5 -89h198q22 117 -76 117zM754 130q-30 -69 -80.5 -106.5t-142.5 -37.5q-80 0 -134 32t-67 96q-65 -126 -195 -126q-67 0 -105 39.5t-24 114.5
q22 121 188 121h132l6 35q14 80 -62 80q-63 0 -89 -69l-122 32q52 145 209 145q129 0 157 -83q64 84 178 84q108 0 153.5 -60t26.5 -163q-5 -27 -11 -53h-320q-5 -60 17 -87.5t75 -27.5q41 0 63 18.5t39 52.5zM385 513l-27 66l260 133l38 -92z" />
    <glyph glyph-name="Oslashacute" unicode="&#x1fe;" horiz-adv-x="656" 
d="M301 -14q-116 0 -185 57l-44 -43h-111l1 6l106 94q-50 87 -26 227q23 134 112.5 210.5t223.5 76.5q117 0 187 -59l47 45h108l-2 -6l-106 -96q50 -89 26 -223q-24 -135 -112.5 -212t-224.5 -77zM176 312q-13 -70 0 -115l291 266q-35 29 -99 29q-159 0 -192 -180zM317 650
l-13 69l274 96l18 -101zM310 106q160 0 194 187q12 61 1 107l-291 -265q35 -29 96 -29z" />
    <glyph glyph-name="oslashacute" unicode="&#x1ff;" horiz-adv-x="538" 
d="M240 -14q-95 0 -152 48l-32 -34h-101l1 6l91 79q-36 69 -18 175q19 108 90.5 167.5t179.5 59.5q94 0 151 -48l33 35h98l-1 -6l-90 -80q37 -69 19 -174q-19 -107 -90.5 -167.5t-178.5 -60.5zM290 381q-115 0 -140 -136q-7 -42 -3 -73l214 188q-24 21 -71 21zM256 513
l-27 66l260 133l38 -92zM247 93q117 0 142 138q8 41 3 71l-215 -189q26 -20 70 -20z" />
    <glyph glyph-name="uni0218" unicode="&#x218;" horiz-adv-x="572" 
d="M267 -14q-137 0 -194 51t-62 140l142 28q9 -104 130 -104q91 0 102 56q6 34 -18.5 53.5t-98.5 32.5q-118 21 -160.5 73t-27.5 138q14 77 78.5 118.5t177.5 41.5q120 0 172 -47t59 -129l-148 -27q-4 47 -26 69t-76 22q-88 0 -97 -54q-6 -32 17.5 -52.5t100.5 -35.5
q123 -23 164 -76.5t27 -134.5q-29 -163 -262 -163zM195 -51h104l-85 -154h-85l2 9z" />
    <glyph glyph-name="uni0219" unicode="&#x219;" horiz-adv-x="474" 
d="M209 -14q-109 0 -155 39.5t-52 110.5l126 25q5 -40 27 -59.5t66 -19.5q67 0 73 39q5 25 -14 40.5t-79 28.5q-90 21 -123.5 62t-21.5 106q24 129 211 129q96 0 137 -36.5t50 -100.5l-126 -25q-3 37 -20 53t-54 16q-62 0 -70 -39q-4 -23 13.5 -39t72.5 -28q98 -21 132 -64
t23 -106q-24 -132 -216 -132zM147 -51h104l-85 -154h-85l2 9z" />
    <glyph glyph-name="uni021A" unicode="&#x21a;" horiz-adv-x="516" 
d="M54 468l23 132h490l-24 -132h-172l-83 -468h-144l83 468h-173zM171 -51h104l-85 -154h-85l2 9z" />
    <glyph glyph-name="uni021B" unicode="&#x21b;" horiz-adv-x="361" 
d="M60 166l35 200h-57l19 108h57l22 122h137l-22 -122h125l-19 -108h-125l-34 -195q-11 -57 44 -57q26 0 64 12l-5 -122q-62 -18 -107 -18q-81 0 -114.5 50.5t-19.5 129.5zM101 -51h104l-85 -154h-85l2 9z" />
    <glyph glyph-name="circumflex" unicode="&#x2c6;" horiz-adv-x="356" 
d="M345 514l-97 92l-129 -92l-42 48l163 146h43l111 -146z" />
    <glyph glyph-name="caron" unicode="&#x2c7;" horiz-adv-x="356" 
d="M250 525h-43l-111 145l50 48l97 -92l129 92l41 -48z" />
    <glyph glyph-name="breve" unicode="&#x2d8;" horiz-adv-x="327" 
d="M235 616q73 0 97 82h62q-15 -88 -54 -127.5t-110 -39.5q-74 0 -107.5 41t-18.5 126h62q-3 -46 15.5 -64t53.5 -18z" />
    <glyph glyph-name="dotaccent" unicode="&#x2d9;" horiz-adv-x="190" 
d="M108 679h131l-22 -125h-131z" />
    <glyph glyph-name="ring" unicode="&#x2da;" horiz-adv-x="296" 
d="M334 629q-9 -49 -43 -76.5t-85 -27.5q-56 0 -84 34t-18 88q9 50 43 78t85 28q56 0 83.5 -34.5t18.5 -89.5zM170 641q-5 -25 7 -40t36 -15q46 0 56 51q5 25 -7 40t-37 15q-47 0 -55 -51z" />
    <glyph glyph-name="ogonek" unicode="&#x2db;" horiz-adv-x="219" 
d="M143 12l14 -12q-57 -10 -83 -22t-30 -31q-2 -15 9.5 -22t36.5 -7q24 0 53 7l-14 -87q-38 -5 -63 -5q-58 0 -84 20t-19 57q7 43 55.5 68.5t124.5 33.5z" />
    <glyph glyph-name="tilde" unicode="&#x2dc;" horiz-adv-x="352" 
d="M186 705q26 0 45.5 -13t29 -29t22 -29t25.5 -13q20 0 30 18t17 61h58q0 -23 -5 -46q-21 -125 -103 -125q-23 0 -41 13t-27.5 29t-23.5 29t-30 13q-19 0 -29 -18t-17 -60h-59q1 20 5 45q11 62 38 93.5t65 31.5z" />
    <glyph glyph-name="hungarumlaut" unicode="&#x2dd;" horiz-adv-x="343" 
d="M130 518l-53 33l115 167l71 -45zM267 519l-48 39l128 159l66 -51z" />
    <glyph glyph-name="Wgrave" unicode="&#x1e80;" horiz-adv-x="856" 
d="M382 253l-86 -253h-200l-40 600h151l5 -257q2 -129 -2 -220h21q37 118 75 220l98 257h182l6 -257q1 -67 -5 -220h22q13 43 40.5 121.5t34.5 98.5l92 257h152l-249 -600h-210l2 253q2 121 6 229h-18q-26 -83 -77 -229zM583 650l-256 65l43 100l240 -95z" />
    <glyph glyph-name="wgrave" unicode="&#x1e81;" horiz-adv-x="748" 
d="M495 474l6 -187q3 -98 2 -183h18q12 34 35.5 95.5t33.5 88.5l68 186h137l-214 -474h-178l-4 204q-1 67 4 167h-17q-34 -104 -56 -167l-73 -204h-173l-48 474h136l9 -186q7 -114 7 -184h18q32 101 64 183l72 187h153zM510 515l-232 107l55 93l212 -136z" />
    <glyph glyph-name="Wacute" unicode="&#x1e82;" horiz-adv-x="856" 
d="M382 253l-86 -253h-200l-40 600h151l5 -257q2 -129 -2 -220h21q37 118 75 220l98 257h182l6 -257q1 -67 -5 -220h22q13 43 40.5 121.5t34.5 98.5l92 257h152l-249 -600h-210l2 253q2 121 6 229h-18q-26 -83 -77 -229zM415 650l-13 69l274 96l18 -101z" />
    <glyph glyph-name="wacute" unicode="&#x1e83;" horiz-adv-x="748" 
d="M495 474l6 -187q3 -98 2 -183h18q12 34 35.5 95.5t33.5 88.5l68 186h137l-214 -474h-178l-4 204q-1 67 4 167h-17q-34 -104 -56 -167l-73 -204h-173l-48 474h136l9 -186q7 -114 7 -184h18q32 101 64 183l72 187h153zM360 513l-27 66l260 133l38 -92z" />
    <glyph glyph-name="Wdieresis" unicode="&#x1e84;" horiz-adv-x="856" 
d="M382 253l-86 -253h-200l-40 600h151l5 -257q2 -129 -2 -220h21q37 118 75 220l98 257h182l6 -257q1 -67 -5 -220h22q13 43 40.5 121.5t34.5 98.5l92 257h152l-249 -600h-210l2 253q2 121 6 229h-18q-26 -83 -77 -229zM369 774h120l-20 -117h-122zM540 774h120l-20 -117
h-122z" />
    <glyph glyph-name="wdieresis" unicode="&#x1e85;" horiz-adv-x="748" 
d="M495 474l6 -187q3 -98 2 -183h18q12 34 35.5 95.5t33.5 88.5l68 186h137l-214 -474h-178l-4 204q-1 67 4 167h-17q-34 -104 -56 -167l-73 -204h-173l-48 474h136l9 -186q7 -114 7 -184h18q32 101 64 183l72 187h153zM305 671h120l-20 -117h-122zM476 671h120l-20 -117
h-122z" />
    <glyph glyph-name="uni1E9E" unicode="&#x1e9e;" horiz-adv-x="607" 
d="M369 -10q-109 0 -158 54l51 116q43 -48 116 -48q53 0 60 36q4 22 -11 37.5t-48 30.5q-25 12 -39 21.5t-32 26t-24 40t-1 53.5q15 82 152 119v11q-47 -7 -113 -7q-84 0 -100 -92l-68 -388h-144l69 393q18 101 84 154t178 53h241l-21 -117q-139 -50 -148 -102
q-3 -23 10.5 -37.5t42.5 -29.5q59 -32 84 -71t13 -112q-26 -141 -194 -141z" />
    <glyph glyph-name="endash" unicode="&#x2013;" horiz-adv-x="476" 
d="M30 307h441l-22 -124h-441z" />
    <glyph glyph-name="emdash" unicode="&#x2014;" horiz-adv-x="860" 
d="M30 307h825l-22 -124h-825z" />
    <glyph glyph-name="quoteleft" unicode="&#x2018;" horiz-adv-x="217" 
d="M167 316h-139l149 284h76l-1 -6z" />
    <glyph glyph-name="quoteright" unicode="&#x2019;" horiz-adv-x="217" 
d="M124 600h139l-149 -284h-76l1 6z" />
    <glyph glyph-name="quotesinglbase" unicode="&#x201a;" horiz-adv-x="215" 
d="M43 149h139l-149 -284h-76l1 6z" />
    <glyph glyph-name="quotedblleft" unicode="&#x201c;" horiz-adv-x="399" 
d="M169 316h-139l149 284h76l-1 -6zM352 316h-139l149 284h76l-1 -6z" />
    <glyph glyph-name="quotedblright" unicode="&#x201d;" horiz-adv-x="401" 
d="M124 600h139l-149 -284h-76l1 6zM309 600h139l-149 -284h-76l1 6z" />
    <glyph glyph-name="quotedblbase" unicode="&#x201e;" horiz-adv-x="397" 
d="M42 149h139l-149 -284h-76l1 6zM227 149h139l-149 -284h-76l1 6z" />
    <glyph glyph-name="dagger" unicode="&#x2020;" horiz-adv-x="603" 
d="M295 -210h-145l102 578h-94l-29 -169h-112l49 275h205l35 196h144l-35 -196h205l-48 -275h-111l29 169h-93z" />
    <glyph glyph-name="daggerdbl" unicode="&#x2021;" horiz-adv-x="620" 
d="M314 670h144l-32 -181h206l-34 -190h-111l15 85h-94l-50 -279h95l15 85h111l-33 -190h-206l-37 -210h-144l37 210h-205l33 190h112l-15 -85h93l50 279h-94l-15 -85h-111l33 190h205z" />
    <glyph glyph-name="bullet" unicode="&#x2022;" horiz-adv-x="290" 
d="M57 350h215l-37 -208h-216z" />
    <glyph glyph-name="ellipsis" unicode="&#x2026;" horiz-adv-x="613" 
d="M8 143h147l-25 -143h-148zM218 143h147l-25 -143h-148zM429 143h147l-25 -143h-148z" />
    <glyph glyph-name="perthousand" unicode="&#x2030;" horiz-adv-x="1126" 
d="M909 -10q-83 0 -124.5 53t-25.5 141q13 75 63.5 116t126.5 41q83 0 125 -52.5t26 -139.5q-13 -76 -64 -117.5t-127 -41.5zM916 79q67 0 81 83q8 43 -7.5 66.5t-48.5 23.5q-65 0 -80 -81q-7 -43 8 -67.5t47 -24.5zM212 260q-83 0 -124.5 52.5t-25.5 140.5
q13 75 63.5 116.5t125.5 41.5q84 0 126 -53t26 -140q-13 -76 -64 -117t-127 -41zM219 349q68 0 81 83q8 43 -7.5 66.5t-48.5 23.5q-65 0 -80 -82q-7 -43 8 -67t47 -24zM537 -10q-83 0 -124.5 53t-25.5 141q13 75 63.5 116t125.5 41q84 0 125.5 -52.5t26.5 -139.5
q-13 -76 -64 -117.5t-127 -41.5zM544 79q31 0 52.5 21.5t28.5 61.5q8 43 -7.5 66.5t-48.5 23.5q-65 0 -80 -81q-8 -44 7 -68t48 -24zM595 600h193l-1 -6l-350 -265l-19 16zM195 0h-192l1 6l349 265l19 -15z" />
    <glyph glyph-name="guilsinglleft" unicode="&#x2039;" horiz-adv-x="374" 
d="M325 32h-131l-176 219l2 14l247 219h137l-2 -13l-238 -215l-1 -2l164 -209z" />
    <glyph glyph-name="guilsinglright" unicode="&#x203a;" horiz-adv-x="375" 
d="M117 30h-137l3 13l239 216v1l-164 209l2 13h131l176 -219l-3 -14z" />
    <glyph glyph-name="fraction" unicode="&#x2044;" horiz-adv-x="39" 
d="M231 600h193l-1 -6l-350 -265l-19 16zM-169 0h-192l1 6l349 265l19 -15z" />
    <glyph glyph-name="Euro" unicode="&#x20ac;" horiz-adv-x="663" 
d="M336 -14q-114 0 -178.5 61t-72.5 168h-69l10 52h59q1 16 7 57l1 4h-57l10 52h59q34 115 111.5 174.5t191.5 59.5q124 0 185 -62t61 -177l-141 -17q-1 66 -29 98t-91 32q-101 0 -144 -108h131l-10 -52h-137l-3 -15q-5 -24 -6 -46h136l-10 -52h-124q13 -105 115 -105
q60 0 95 33t61 103l134 -27q-69 -233 -295 -233z" />
    <glyph glyph-name="uni2116" unicode="&#x2116;" horiz-adv-x="1094" 
d="M663 172h368l-22 -119h-367zM875 320q77 0 93 94q18 95 -63 95q-78 0 -94 -94q-18 -95 64 -95zM861 219q-93 0 -137.5 55t-28.5 151q16 87 75.5 136t148.5 49q92 0 137 -55t28 -151q-15 -86 -75.5 -135.5t-147.5 -49.5zM369 0l-78 237q-34 111 -59 237l-16 -2
q-20 -176 -40 -291l-32 -181h-133l106 600h200l68 -201q36 -107 62 -253l16 2q16 158 36 267l32 185h133l-106 -600h-189z" />
    <glyph glyph-name="trademark" unicode="&#x2122;" horiz-adv-x="918" 
d="M67 510l16 90h321l-16 -90h-107l-45 -255h-106l44 255h-107zM496 380l-22 -125h-89l61 345h168l16 -94q16 -94 20 -128h12q27 57 66 128l51 94h166l-61 -345h-106l22 125q2 11 26 132h-15q-33 -63 -77 -140l-62 -111h-92l-22 109q-16 81 -25 141h-16q-3 -20 -21 -131z
" />
    <glyph glyph-name="uni2190" unicode="&#x2190;" horiz-adv-x="771" 
d="M21 266l7 43l356 288l69 -105q-110 -76 -244 -152l1 -4q141 15 327 15h190l-23 -127h-189q-185 0 -323 15l-2 -3q99 -71 190 -153l-105 -105z" />
    <glyph glyph-name="arrowup" unicode="&#x2191;" horiz-adv-x="719" 
d="M337 657h42l289 -305l-105 -87q-80 102 -153 217l-3 -1q15 -141 15 -325v-190h-128v190q0 175 16 325l-4 1q-70 -110 -153 -217l-104 87z" />
    <glyph glyph-name="uni2192" unicode="&#x2192;" horiz-adv-x="771" 
d="M751 312l-8 -43l-356 -288l-69 105q122 83 245 152l-1 4q-142 -15 -328 -15h-190l23 127h189q186 0 323 -15l2 3q-99 71 -190 153l105 105z" />
    <glyph glyph-name="arrowdown" unicode="&#x2193;" horiz-adv-x="719" 
d="M380 -54h-42l-289 305l105 87q81 -102 153 -217l3 2q-15 140 -15 324v190h128v-190q0 -175 -16 -324l4 -2q69 110 153 217l104 -87z" />
    <glyph glyph-name="minus" unicode="&#x2212;" horiz-adv-x="489" 
d="M459 249h-426l22 121h426z" />
    <glyph glyph-name="uni25A0" unicode="&#x25a0;" 
d="M36 -119q2 138 2 414t-2 414q138 -3 414 -3t414 3q-2 -138 -2 -414t2 -414q-207 3 -414 3t-414 -3z" />
    <glyph glyph-name="uni25B2" unicode="&#x25b2;" 
d="M75 0v4l375 617h4l372 -617v-4h-751z" />
    <glyph glyph-name="uni25B3" unicode="&#x25b3;" 
d="M75 0v4l375 617h4l372 -617v-4h-751zM452 117q58 0 174 -10l3 8q-99 146 -172 309h-9q-76 -166 -173 -308l4 -9q118 10 173 10z" />
    <glyph glyph-name="uni25B6" unicode="&#x25b6;" 
d="M180 679h4l617 -375v-4l-617 -372h-4v751z" />
    <glyph glyph-name="uni25B7" unicode="&#x25b7;" 
d="M180 679h4l617 -375v-4l-617 -372h-4v751zM297 302q0 -58 -10 -174l8 -3q146 99 309 172v9q-166 76 -308 173l-9 -4q10 -118 10 -173z" />
    <glyph glyph-name="uni25BC" unicode="&#x25bc;" 
d="M825 600v-4l-375 -617h-4l-372 617v4h751z" />
    <glyph glyph-name="uni25BD" unicode="&#x25bd;" 
d="M624 484l-4 9q-118 -10 -173 -10q-58 0 -174 10l-3 -8q99 -146 172 -309h9q76 166 173 308zM73 600h751v-4l-375 -617h-4l-372 617v4z" />
    <glyph glyph-name="uni25C0" unicode="&#x25c0;" 
d="M720 679h-4l-617 -375v-4l617 -372h4v751z" />
    <glyph glyph-name="uni25C1" unicode="&#x25c1;" 
d="M716 679h4v-751h-4l-617 372v4zM603 302q0 55 10 173l-9 4q-142 -97 -308 -173v-9q163 -73 309 -172l8 3q-10 116 -10 174z" />
    <glyph glyph-name="uni25C6" unicode="&#x25c6;" 
d="M450 -193q-239 258 -483 483q255 237 483 483q228 -246 483 -483q-244 -225 -483 -483z" />
    <glyph glyph-name="uni25CF" unicode="&#x25cf;" 
d="M-3 294q0 210 122 331.5t332 121.5q209 0 330.5 -121.5t121.5 -331.5t-121.5 -331.5t-330.5 -121.5q-210 0 -332 121.5t-122 331.5z" />
    <glyph glyph-name="uni2605" unicode="&#x2605;" 
d="M707 -78l-257 149l-255 -149l-3 2l61 289l-220 197l1 4l295 31l119 270h4l119 -270l295 -31l1 -4l-220 -197l61 -289z" />
    <glyph glyph-name="uni2610" unicode="&#x2610;" 
d="M727 0h-553v553h553v-553zM451 100q79 0 182 -5q-5 102 -5 182q0 81 5 181q-124 -4 -182 -4q-60 0 -182 4q4 -122 4 -181q0 -60 -4 -182q102 5 182 5z" />
    <glyph glyph-name="uni2611" unicode="&#x2611;" 
d="M311 316l74 73q46 -51 85 -113q90 159 263 399l96 -72q-219 -265 -333 -461h-52q-52 90 -133 174zM174 0v553h404v-3l-62 -95q-21 -1 -65 -1q-59 0 -183 4q5 -100 5 -181q0 -80 -5 -182q155 5 183 5t183 -5q-6 114 -6 170l96 126h3v-391h-553z" />
    <glyph glyph-name="uni2612" unicode="&#x2612;" 
d="M727 0h-553v553h553v-553zM539 133q-40 41 -88 99q-65 -75 -87 -99l-60 58q42 39 99 87q-68 57 -99 86l60 59q22 -24 87 -99q48 58 88 99l58 -59q-31 -29 -99 -86q57 -48 99 -87zM451 100q79 0 182 -5q-5 102 -5 182q0 81 5 181q-124 -4 -182 -4q-60 0 -182 4
q4 -122 4 -181q0 -60 -4 -182q102 5 182 5z" />
    <glyph glyph-name="uni2661" unicode="&#x2661;" 
d="M324 226q82 -51 130 -111q50 60 131 111q141 89 141 192q0 54 -27 84.5t-81 30.5q-59 0 -96.5 -46t-52.5 -124h-29q-34 170 -150 170q-107 0 -107 -115q0 -104 141 -192zM449 -54q-30 52 -75.5 94.5t-119.5 96.5q-99 71 -151.5 140.5t-52.5 154.5q0 100 52.5 155.5
t144.5 55.5q80 0 127.5 -38t71.5 -119h8q24 81 71.5 119t128.5 38q90 0 143 -56t53 -155q0 -85 -52 -154.5t-151 -140.5q-75 -54 -120 -96t-74 -95h-4z" />
    <glyph glyph-name="uni2726" unicode="&#x2726;" 
d="M825 301v-12q-135 -41 -231 -138.5t-139 -230.5h-11q-43 133 -139 230.5t-231 138.5v12q135 41 231 138.5t139 230.5h11q43 -133 139 -230.5t231 -138.5z" />
    <glyph glyph-name="uni2727" unicode="&#x2727;" 
d="M826 296v-4q-135 -41 -232.5 -140t-140.5 -232h-4q-43 133 -141 232.5t-233 140.5v4q135 41 232.5 140.5t140.5 232.5h4q43 -133 141 -233t233 -141zM643 291v8q-77 21 -122 65.5t-67 122.5h-7q-21 -78 -66 -122.5t-123 -65.5v-8q78 -22 123 -66.5t66 -121.5h7
q22 77 67 122t122 66z" />
    <glyph glyph-name="uni2728" unicode="&#x2728;" 
d="M613 207v-4q-110 -34 -189.5 -114.5t-113.5 -188.5h-5q-34 108 -114 189t-191 115v4q110 34 190 114.5t115 189.5h4q35 -109 114.5 -190t189.5 -115zM304 45h4q19 63 57.5 101.5t102.5 58.5v5q-64 20 -102.5 58t-57.5 102h-4q-19 -64 -57.5 -102t-102.5 -58v-5
q64 -20 102.5 -58.5t57.5 -101.5zM583 588v-5q-50 -16 -86 -52.5t-52 -87.5h-5q-15 51 -51.5 88t-87.5 53v4q51 15 86.5 52.5t52.5 88.5h4q16 -51 52.5 -88t86.5 -53zM519 585v3q-58 17 -74 75h-4q-16 -58 -74 -75v-3q58 -17 74 -74h4q16 57 74 74zM900 383
q-83 -25 -143 -85.5t-86 -143.5h-4q-26 82 -86.5 143t-144.5 87v4q83 25 143 86t87 144h4q26 -82 86.5 -143.5t143.5 -87.5v-4zM794 384v5q-96 27 -124 123h-4q-27 -95 -123 -123v-5q96 -28 123 -123h4q28 96 124 123z" />
    <glyph glyph-name="uni2764" unicode="&#x2764;" 
d="M449 -54q-30 52 -75.5 94.5t-119.5 96.5q-99 71 -151.5 140.5t-52.5 154.5q0 100 52.5 155.5t144.5 55.5q80 0 127.5 -38t71.5 -119h8q24 81 71.5 119t128.5 38q90 0 143 -56t53 -155q0 -85 -52 -154.5t-151 -140.5q-75 -54 -120 -96t-74 -95h-4z" />
    <glyph glyph-name="uni2780" unicode="&#x2780;" horiz-adv-x="865" 
d="M432 -1q147 0 223 83.5t76 223.5q0 138 -76.5 221t-222.5 83t-222.5 -83t-76.5 -221q0 -139 76.5 -223t222.5 -84zM432 710q192 0 298.5 -111t106.5 -293q0 -183 -106.5 -295t-298.5 -112t-298 112t-106 295q0 182 106.5 293t297.5 111zM589 92h-308v93h112v237
q-37 -20 -93 -39l-36 87l175 52h63v-337h87v-93z" />
    <glyph glyph-name="uni2781" unicode="&#x2781;" horiz-adv-x="865" 
d="M432 -1q147 0 223 83.5t76 223.5q0 138 -76.5 221t-222.5 83t-222.5 -83t-76.5 -221q0 -139 76.5 -223t222.5 -84zM432 710q192 0 298.5 -111t106.5 -293q0 -183 -106.5 -295t-298.5 -112t-298 112t-106 295q0 182 106.5 293t297.5 111zM441 445q-77 0 -90 -88l-108 13
q22 165 199 165q182 0 182 -145q0 -112 -187 -146q-61 -13 -83.5 -25.5t-26.5 -37.5q70 8 136 8h161v-93h-394q-2 36 -2 55q0 72 35.5 108t117.5 55q81 20 105.5 36t24.5 44q0 51 -70 51z" />
    <glyph glyph-name="uni2782" unicode="&#x2782;" horiz-adv-x="865" 
d="M432 -1q147 0 223 83.5t76 223.5q0 138 -76.5 221t-222.5 83t-222.5 -83t-76.5 -221q0 -139 76.5 -223t222.5 -84zM432 710q192 0 298.5 -111t106.5 -293q0 -183 -106.5 -295t-298.5 -112t-298 112t-106 295q0 182 106.5 293t297.5 111zM432 85q-92 0 -142 32.5
t-60 104.5l112 13q8 -33 27 -49t64 -16q77 0 77 51q0 25 -15.5 36.5t-55.5 11.5h-77v74h77q61 0 61 47q0 27 -16 39.5t-52 12.5q-41 0 -58 -15.5t-23 -49.5l-107 8q21 144 187 144q92 0 133.5 -29t41.5 -87q0 -82 -108 -101v-8q70 -6 98 -28.5t28 -68.5q0 -57 -46.5 -89.5
t-145.5 -32.5z" />
    <glyph glyph-name="uni2783" unicode="&#x2783;" horiz-adv-x="865" 
d="M432 -1q147 0 223 83.5t76 223.5q0 138 -76.5 221t-222.5 83t-222.5 -83t-76.5 -221q0 -139 76.5 -223t222.5 -84zM432 710q192 0 298.5 -111t106.5 -293q0 -183 -106.5 -295t-298.5 -112t-298 112t-106 295q0 182 106.5 293t297.5 111zM616 188h-56v-94h-110v94h-250v75
l218 261h142v-251h56v-85zM449 273h1v168l-7 2l-142 -173l4 -5q69 8 144 8z" />
    <glyph glyph-name="uni2784" unicode="&#x2784;" horiz-adv-x="865" 
d="M432 -1q147 0 223 83.5t76 223.5q0 138 -76.5 221t-222.5 83t-222.5 -83t-76.5 -221q0 -139 76.5 -223t222.5 -84zM432 710q192 0 298.5 -111t106.5 -293q0 -183 -106.5 -295t-298.5 -112t-298 112t-106 295q0 182 106.5 293t297.5 111zM434 170q79 0 79 56q0 55 -78 55
q-54 0 -91 -22l-88 31v232h344v-100q-127 0 -245 10v-103q49 28 118 28q75 0 113.5 -36t38.5 -96q0 -140 -192 -140q-86 0 -134.5 27.5t-67.5 86.5l107 27q26 -56 96 -56z" />
    <glyph glyph-name="uni2785" unicode="&#x2785;" horiz-adv-x="865" 
d="M436 291q-88 0 -88 -57q0 -26 21.5 -42t64.5 -16q80 0 80 60q0 55 -78 55zM432 -1q147 0 223 83.5t76 223.5q0 138 -76.5 221t-222.5 83t-222.5 -83t-76.5 -221q0 -139 76.5 -223t222.5 -84zM432 710q192 0 298.5 -111t106.5 -293q0 -183 -106.5 -295t-298.5 -112
t-298 112t-106 295q0 182 106.5 293t297.5 111zM626 234q0 -71 -49 -109t-145 -38q-97 0 -150 50.5t-53 170.5q0 100 51.5 163t155.5 63q91 0 130.5 -33.5t48.5 -104.5l-109 -12q-7 31 -22 46t-50 15q-53 0 -75 -38.5t-22 -126.5v-1l10 -1q30 76 135 76q144 0 144 -120z" />
    <glyph glyph-name="uni2786" unicode="&#x2786;" horiz-adv-x="865" 
d="M432 -1q147 0 223 83.5t76 223.5q0 138 -76.5 221t-222.5 83t-222.5 -83t-76.5 -221q0 -139 76.5 -223t222.5 -84zM432 710q192 0 298.5 -111t106.5 -293q0 -183 -106.5 -295t-298.5 -112t-298 112t-106 295q0 182 106.5 293t297.5 111zM241 424v98h379v-98
q-136 -133 -145 -332h-129q10 204 183 339q-77 -7 -146 -7h-142z" />
    <glyph glyph-name="uni2787" unicode="&#x2787;" horiz-adv-x="865" 
d="M431 273q-83 0 -83 -51q0 -50 83 -50q84 0 84 50q0 25 -18.5 38t-65.5 13zM431 444q-71 0 -71 -49q0 -50 71 -52q72 2 72 52q0 49 -72 49zM432 -1q147 0 223 83.5t76 223.5q0 138 -76.5 221t-222.5 83t-222.5 -83t-76.5 -221q0 -139 76.5 -223t222.5 -84zM432 710
q192 0 298.5 -111t106.5 -293q0 -183 -106.5 -295t-298.5 -112t-298 112t-106 295q0 182 106.5 293t297.5 111zM431 85q-197 0 -197 123q0 41 29 65t91 34v8q-51 11 -76.5 34.5t-25.5 65.5q0 117 179 117q181 0 181 -117q0 -42 -25.5 -65.5t-76.5 -34.5v-8q119 -19 119 -99
q0 -123 -198 -123z" />
    <glyph glyph-name="uni2788" unicode="&#x2788;" horiz-adv-x="865" 
d="M428 318q43 0 64.5 17.5t21.5 45.5q0 27 -21 44t-63 17q-80 0 -80 -64q0 -27 20 -43.5t58 -16.5zM432 -1q147 0 223 83.5t76 223.5q0 138 -76.5 221t-222.5 83t-222.5 -83t-76.5 -221q0 -139 76.5 -223t222.5 -84zM432 710q192 0 298.5 -111t106.5 -293
q0 -183 -106.5 -295t-298.5 -112t-298 112t-106 295q0 182 106.5 293t297.5 111zM428 84q-92 0 -136 32.5t-54 93.5l109 18q12 -54 83 -54q53 0 74 36.5t21 121.5l-9 1q-32 -78 -131 -78q-147 0 -147 126q0 71 49 110.5t142 39.5q99 0 152 -50t53 -170q0 -101 -51 -164
t-155 -63z" />
    <glyph glyph-name="uni2789" unicode="&#x2789;" horiz-adv-x="861" 
d="M397 104h-179v78h58v244q-19 -12 -46 -23l-26 71l108 33h45v-325h40v-78zM534 437q-49 0 -49 -131q0 -134 49 -134q50 0 50 134q0 131 -50 131zM534 517q64 0 99 -53.5t35 -157.5q0 -103 -35 -157.5t-99 -54.5t-99 54.5t-35 157.5t36 157t98 54zM432 -1q147 0 223 83.5
t76 223.5q0 138 -76.5 221t-222.5 83t-222.5 -83t-76.5 -221q0 -139 76.5 -223t222.5 -84zM432 710q192 0 298.5 -111t106.5 -293q0 -183 -106.5 -295t-298.5 -112t-298 112t-106 295q0 182 106.5 293t297.5 111z" />
    <glyph glyph-name="uni278A" unicode="&#x278a;" horiz-adv-x="865" 
d="M281 185v-93h308v93h-87v337h-64l-174 -52l35 -87q57 19 93 37v-235h-111zM432 710q192 0 298.5 -111t106.5 -293q0 -183 -106.5 -295t-298.5 -112t-298 112t-106 295q0 182 106.5 293t297.5 111z" />
    <glyph glyph-name="uni278B" unicode="&#x278b;" horiz-adv-x="865" 
d="M437 445q70 0 70 -51q0 -27 -24.5 -43t-105.5 -36q-82 -19 -117.5 -55.5t-35.5 -107.5q0 -20 2 -56h394v94h-161q-69 0 -136 -10q4 26 27 39t83 25q187 36 187 147q0 144 -182 144q-177 0 -200 -165l109 -12q11 87 90 87zM432 710q192 0 298.5 -111t106.5 -293
q0 -183 -106.5 -295t-298.5 -112t-298 112t-106 295q0 182 106.5 293t297.5 111z" />
    <glyph glyph-name="uni278C" unicode="&#x278c;" horiz-adv-x="865" 
d="M432 85q99 0 145.5 32.5t46.5 89.5q0 46 -27.5 68t-97.5 28v10q108 19 108 100q0 58 -42 87t-133 29q-168 0 -187 -143l106 -9q7 34 23.5 49.5t57.5 15.5q68 0 68 -51q0 -47 -61 -47h-77v-75h77q41 0 56.5 -11.5t15.5 -36.5q0 -51 -78 -51q-45 0 -64 16t-27 49l-112 -12
q10 -72 60 -105t142 -33zM432 710q192 0 298.5 -111t106.5 -293q0 -183 -106.5 -295t-298.5 -112t-298 112t-106 295q0 182 106.5 293t297.5 111z" />
    <glyph glyph-name="uni278D" unicode="&#x278d;" horiz-adv-x="865" 
d="M616 188v85h-56v251h-141l-219 -261v-75h250v-94h110v94h56zM422 273q-44 0 -116 -9l-5 8l142 171l7 -2v-168h-28zM432 710q192 0 298.5 -111t106.5 -293q0 -183 -106.5 -295t-298.5 -112t-298 112t-106 295q0 182 106.5 293t297.5 111z" />
    <glyph glyph-name="uni278E" unicode="&#x278e;" horiz-adv-x="865" 
d="M434 170q-71 0 -95 56l-107 -27q18 -58 66.5 -86t134.5 -28q192 0 192 141q0 60 -38 95.5t-114 35.5q-70 0 -117 -28v103q126 -10 244 -10v100h-344v-231l88 -32q36 23 91 23q78 0 78 -56t-79 -56zM432 710q192 0 298.5 -111t106.5 -293q0 -183 -106.5 -295t-298.5 -112
t-298 112t-106 295q0 182 106.5 293t297.5 111z" />
    <glyph glyph-name="uni278F" unicode="&#x278f;" horiz-adv-x="865" 
d="M626 233q0 121 -144 121q-104 0 -133 -78l-12 3q1 91 22.5 128t74.5 37q35 0 50 -14.5t22 -45.5l110 11q-10 72 -49 105.5t-131 33.5q-104 0 -155.5 -63t-51.5 -163q0 -120 53 -170.5t150 -50.5q96 0 145 37.5t49 108.5zM437 291q77 0 77 -56q0 -59 -79 -59q-44 0 -65 16
t-21 42q0 57 88 57zM432 710q192 0 298.5 -111t106.5 -293q0 -183 -106.5 -295t-298.5 -112t-298 112t-106 295q0 182 106.5 293t297.5 111z" />
    <glyph glyph-name="uni2790" unicode="&#x2790;" horiz-adv-x="865" 
d="M241 423h143q74 0 146 9q-173 -137 -183 -341h128q11 201 146 332v98h-380v-98zM432 710q192 0 298.5 -111t106.5 -293q0 -183 -106.5 -295t-298.5 -112t-298 112t-106 295q0 182 106.5 293t297.5 111z" />
    <glyph glyph-name="uni2791" unicode="&#x2791;" horiz-adv-x="865" 
d="M432 85q197 0 197 123q0 81 -119 98v10q102 20 102 99q0 117 -180 117t-180 -117q0 -79 102 -99v-10q-63 -9 -91 -33t-28 -65q0 -123 197 -123zM432 444q71 0 71 -49q0 -50 -71 -52q-72 2 -72 52q0 26 17 37.5t55 11.5zM432 273q83 0 83 -51q0 -50 -83 -50q-84 0 -84 50
q0 51 84 51zM432 710q192 0 298.5 -111t106.5 -293q0 -183 -106.5 -295t-298.5 -112t-298 112t-106 295q0 182 106.5 293t297.5 111z" />
    <glyph glyph-name="uni2792" unicode="&#x2792;" horiz-adv-x="865" 
d="M634 311q0 120 -53 170t-152 50q-93 0 -142 -39.5t-49 -110.5q0 -65 40.5 -95.5t107.5 -30.5q97 0 128 79l12 -2q-1 -86 -22 -122t-74 -36q-71 0 -83 54l-109 -18q11 -61 55 -93t135 -32q104 0 155 62.5t51 163.5zM429 318q-39 0 -59 16.5t-20 44.5q0 63 81 63
q41 0 62 -16.5t21 -43.5q0 -29 -21.5 -46.5t-63.5 -17.5zM432 710q192 0 298.5 -111t106.5 -293q0 -183 -106.5 -295t-298.5 -112t-298 112t-106 295q0 182 106.5 293t297.5 111z" />
    <glyph glyph-name="uni2793" unicode="&#x2793;" horiz-adv-x="861" 
d="M535 517q-63 0 -98.5 -54t-35.5 -157t35 -157.5t99 -54.5t99 54.5t35 157.5t-35.5 157t-98.5 54zM211 182v-78h179v78h-39v325h-46l-108 -33l26 -71q36 15 46 21v-242h-58zM535 437q50 0 50 -131q0 -134 -51 -134q-49 0 -49 134q0 131 50 131zM432 710q192 0 298.5 -111
t106.5 -293q0 -183 -106.5 -295t-298.5 -112t-298 112t-106 295q0 182 106.5 293t297.5 111z" />
    <glyph glyph-name="uni279A" unicode="&#x279a;" 
d="M631 364v-364h-526v526h376v-2l-92 -97q-64 0 -184 4q4 -102 4 -152q0 -79 -5 -179q153 5 180 5q68 0 153 -5q-5 88 -5 157l96 107h3zM773 677l22 -22v-375h-107q5 114 25 249l-6 3q-142 -159 -243 -260l-110 -109l-75 74l110 110q110 110 262 242l-3 6
q-121 -18 -242 -24v106h367z" />
    <glyph glyph-name="uni2B1B" unicode="&#x2b1b;" 
d="M727 0h-553v553h553v-553z" />
    <glyph glyph-name="uni2B1C" unicode="&#x2b1c;" 
d="M727 0h-553v553h553v-553zM451 100q79 0 182 -5q-5 102 -5 182q0 81 5 181q-124 -4 -182 -4q-60 0 -182 4q4 -122 4 -181q0 -60 -4 -182q102 5 182 5z" />
    <glyph glyph-name="commaaccent" unicode="&#xf6c3;" horiz-adv-x="181" 
d="M3 -51h104l-85 -154h-85l2 9z" />
    <glyph glyph-name="uniF8FF" unicode="&#xf8ff;" horiz-adv-x="1287" 
d="M948 8q-7 -15 -60 -15l-24 1q4 103 6 248t4 199q-25 -78 -54 -189t-46 -178t-23 -72q-7 -6 -21 -6q-6 0 -24 2.5t-32 3.5q2 62 2 205q-31 1 -93 1q1 -25 1 -80q0 -119 -10 -125q-6 -5 -26 -5q-11 0 -29 1.5t-22 1.5h-3q7 113 7 206q-15 0 -41.5 -0.5t-37.5 -0.5v-45
q0 -28 0.5 -71.5t0.5 -54.5q0 -18 -1 -20q-5 -13 -19 -16.5t-60 -4.5q-1 29 -1 79q0 54 2 130q-56 -2 -64 -2q-76 -128 -105 -199q-7 2 -22 2l-42 -5q-3 25 -16 50q-4 9 -48 76.5t-46 77.5q-2 8 -2 12q0 18 13 44q-5 10 -5 24q0 19 8 48q6 18 23.5 59t45.5 104t45 104
q33 0 70 10q44 -114 88 -326q5 0 14 -0.5t22 -1t23 -0.5v12q0 20 -0.5 78t-0.5 89q0 117 8 128q8 14 72 15q-3 -60 -3 -115q0 -34 1 -93.5t1 -83.5v-31q12 0 38 -0.5t39 -0.5q0 90 -1.5 175t-1.5 90q0 39 10 47q7 6 38 6h31q0 -13 -0.5 -38t-0.5 -37q0 -82 5 -242q67 2 95 4
q0 26 -0.5 73t-0.5 68q0 157 8 168q10 14 42 14q7 0 19.5 -1t17.5 -1q-8 -56 -8 -264v-80q98 328 122 340q8 4 30 4l46 -3q-3 -72 -3 -171q0 -64 1.5 -181t1.5 -154q0 -80 -4 -87zM1152 463q-12 -34 -33.5 -88t-34.5 -89t-13 -47v-2q1 -14 34 -69.5t39 -68.5l58 146
q-11 62 -29.5 134.5t-20.5 83.5zM70 254q0 -8 12 -29.5t31.5 -56.5t31.5 -63q12 30 28.5 66.5t25.5 57t9 29.5v2q-2 29 -47 210q-91 -197 -91 -216zM1119 608q12 -6 28 -6q19 0 30 12q68 -216 110 -373q-91 -238 -120 -244q-3 -1 -9 -1q-23 0 -66 18q-1 17 -11.5 43
t-21.5 44.5t-28.5 46t-21.5 33.5q-11 19 -11 30q0 6 2 10.5t6 9t5 6.5q3 5 3 10q0 13 -17 18q91 224 122 343z" />
    <glyph glyph-name="fi" unicode="&#xfb01;" horiz-adv-x="582" 
d="M265 492l-3 -18h112l-19 -108h-112l-65 -366h-136l64 366h-68l19 108h68l4 22q29 163 198 163q48 0 82 -9l-21 -94q-30 5 -50 5q-62 0 -73 -69zM488 0h-136l84 474h136zM586 541h-141l17 98h142z" />
    <glyph glyph-name="fl" unicode="&#xfb02;" horiz-adv-x="578" 
d="M265 492l-3 -18h112l-19 -108h-112l-65 -366h-136l64 366h-68l19 108h68l4 22q29 163 198 163q48 0 82 -9l-21 -94q-30 5 -50 5q-62 0 -73 -69zM599 642l-113 -642h-136l113 642h136z" />
    <glyph glyph-name="exclamdown.case" horiz-adv-x="249" 
d="M79 378h136l-66 -378h-137zM235 457h-148l25 143h148z" />
    <glyph glyph-name="questiondown.case" horiz-adv-x="494" 
d="M164 327q47 18 54 56q0 3 2 11h129q0 -8 -2 -20q-8 -46 -33 -74t-77 -51q-46 -20 -64 -34t-23 -41q-6 -33 13.5 -51.5t60.5 -18.5q51 0 79.5 31t47.5 92l129 -25q-62 -214 -268 -214q-112 0 -165.5 49t-37.5 138q11 63 49 95t106 57zM370 457h-147l25 143h148z" />
    <glyph glyph-name="periodcentered.case" horiz-adv-x="217" 
d="M57 377h147l-25 -143h-148z" />
    <glyph glyph-name="bullet.case" horiz-adv-x="290" 
d="M70 410h215l-37 -208h-216z" />
    <glyph glyph-name="guillemotleft.case" horiz-adv-x="641" 
d="M325 82h-131l-176 219l2 14l247 219h137l-2 -13l-238 -215l-1 -2l164 -209zM591 82h-131l-176 219l2 14l247 219h137l-2 -13l-238 -215l-1 -2l164 -209z" />
    <glyph glyph-name="guillemotright.case" horiz-adv-x="641" 
d="M382 81h-137l2 13l240 216v1l-165 209l3 13h130l177 -220l-3 -13zM116 81h-138l3 13l239 216v1l-164 209l2 13h131l176 -220l-2 -13z" />
    <glyph glyph-name="guilsinglleft.case" horiz-adv-x="376" 
d="M325 83h-131l-176 219l2 14l247 219h137l-2 -13l-238 -215l-1 -2l164 -209z" />
    <glyph glyph-name="guilsinglright.case" horiz-adv-x="375" 
d="M122 80h-137l3 13l239 216v1l-164 209l2 13h131l176 -219l-3 -14z" />
    <glyph glyph-name="hyphen.case" horiz-adv-x="350" 
d="M40 368h315l-22 -125h-315z" />
    <glyph glyph-name="endash.case" horiz-adv-x="476" 
d="M41 368h441l-22 -124h-441z" />
    <glyph glyph-name="emdash.case" horiz-adv-x="860" 
d="M41 368h825l-22 -124h-825z" />
    <glyph glyph-name="parenleft.case" horiz-adv-x="346" 
d="M59 324q41 231 256 405l74 -76q-88 -86 -132.5 -168t-62.5 -182q-20 -96 -4.5 -185.5t73.5 -176.5l-99 -66q-152 182 -105 449z" />
    <glyph glyph-name="parenright.case" horiz-adv-x="344" 
d="M297 280q-41 -230 -256 -405l-75 76q89 86 133.5 168t61.5 182q20 96 5 185.5t-73 176.5l98 66q153 -183 106 -449z" />
    <glyph glyph-name="bracketleft.case" horiz-adv-x="316" 
d="M-8 -92l138 785h249l-20 -112h-112l-97 -554h111l-21 -119h-248z" />
    <glyph glyph-name="bracketright.case" horiz-adv-x="316" 
d="M-39 -88l20 113h112l97 553h-111l21 119h248l-138 -785h-249z" />
    <glyph glyph-name="braceleft.case" horiz-adv-x="374" 
d="M290 -109q-35 -3 -89 -3q-88 0 -126 31t-29 86q5 28 22.5 53.5t36 42.5t35.5 39.5t21 44.5q5 27 -11.5 41t-59.5 14h-71l21 116h70q85 0 95 59q6 32 -25.5 91t-24.5 102q17 104 191 104q56 0 90 -3l-20 -113q-19 1 -51 1q-66 0 -73 -41q-4 -19 16 -68t14 -85
q-14 -83 -154 -98l-2 -12q74 -7 101 -31t19 -70q-5 -28 -25 -55.5t-39 -51t-22 -41.5q-7 -41 59 -41q13 0 51 2z" />
    <glyph glyph-name="braceright.case" horiz-adv-x="374" 
d="M105 716q36 3 90 3q88 0 126 -31t29 -86q-6 -35 -32.5 -65.5t-52 -58.5t-30.5 -55q-5 -28 11 -41.5t60 -13.5h70l-20 -116h-70q-84 0 -96 -60q-5 -32 26.5 -90.5t24.5 -101.5q-17 -105 -191 -105q-55 0 -90 3l20 113q19 -1 51 -1q66 0 73 41q4 20 -16 69t-14 85
q14 82 154 97l2 12q-74 7 -101 31t-19 70q5 28 25 55.5t39 51t22 41.5q7 41 -59 41q-13 0 -51 -2z" />
    <glyph glyph-name="zero.osf" horiz-adv-x="575" 
d="M315 423q-112 0 -139 -151q-29 -168 94 -168q114 0 140 153q14 75 -8.5 120.5t-86.5 45.5zM325 545q131 0 191.5 -78.5t34.5 -223.5q-22 -125 -97 -191t-193 -66q-133 0 -192 78t-35 221q22 126 98.5 193t192.5 67z" />
    <glyph glyph-name="one.osf" horiz-adv-x="452" 
d="M387 0h-393l20 113h145l53 304q-54 -28 -134 -57l-28 106l225 66h94l-74 -419h112z" />
    <glyph glyph-name="two.osf" horiz-adv-x="568" 
d="M325 430q-51 0 -82.5 -30t-48.5 -92l-126 18q49 216 274 216q113 0 167 -49.5t38 -138.5q-12 -65 -68 -96.5t-182 -60.5q-101 -24 -133.5 -40t-41.5 -50q109 14 233 14h150l-22 -121h-489q1 17 10 73q14 81 65.5 120t163.5 70q104 29 136 47t37 49q6 32 -14 51.5
t-67 19.5z" />
    <glyph glyph-name="three.osf" horiz-adv-x="569" 
d="M266 -74q-130 0 -189.5 47t-61.5 147l138 16q2 -49 27 -73.5t89 -24.5q102 0 115 73q7 40 -11.5 58t-74.5 18h-102l17 98h102q84 0 96 67q7 41 -13.5 61t-70.5 20q-53 0 -79.5 -23.5t-42.5 -73.5l-130 18q52 192 266 192q119 0 170 -46.5t35 -135.5q-17 -97 -160 -121
l-2 -12q89 -9 119.5 -43t18.5 -100q-13 -76 -76.5 -119t-179.5 -43z" />
    <glyph glyph-name="four.osf" horiz-adv-x="582" 
d="M549 66h-75l-24 -134h-136l23 134h-332l18 98l357 368h176l-63 -355h76zM335 177h22l43 245l-8 3l-240 -252l3 -7q89 11 180 11z" />
    <glyph glyph-name="five.osf" horiz-adv-x="573" 
d="M268 33q102 0 115 78q7 44 -15 68t-80 24q-67 0 -123 -35l-104 43l57 321h447l-23 -130q-175 0 -320 13l-26 -150q60 35 143 35q107 0 152 -55.5t29 -146.5q-29 -176 -258 -176q-109 0 -173.5 42.5t-80.5 121.5l135 32q22 -85 125 -85z" />
    <glyph glyph-name="six.osf" horiz-adv-x="580" 
d="M305 278q-118 0 -130 -80q-8 -40 18 -67t86 -27q105 0 121 84q7 43 -15 66.5t-80 23.5zM536 172q-15 -88 -81 -136t-177 -48q-67 0 -115 17t-82 56.5t-41 104t7 160.5q23 128 98.5 207t204.5 79q217 0 217 -193l-139 -14q-3 44 -23 67t-66 23q-71 0 -109 -53t-59 -177
q-2 -10 -3 -16l11 -2q57 115 193 115q88 0 134.5 -46.5t29.5 -143.5z" />
    <glyph glyph-name="seven.osf" horiz-adv-x="532" 
d="M55 404l22 128h497l-22 -128q-215 -188 -280 -472h-166q32 144 118.5 266.5t214.5 216.5q-103 -11 -183 -11h-201z" />
    <glyph glyph-name="eight.osf" horiz-adv-x="576" 
d="M259 -12q-139 0 -196.5 49t-43.5 133q18 105 179 128l2 12q-125 34 -105 152q27 150 249 150q124 0 176 -47t36 -135q-9 -51 -47 -79.5t-106 -41.5l-3 -12q151 -27 130 -153q-28 -156 -271 -156zM290 253q-114 0 -128 -73q-6 -38 20 -58t86 -20q112 0 125 72
q7 38 -15.5 58.5t-87.5 20.5zM333 496q-97 0 -111 -72q-7 -40 15 -59t71 -19q98 0 111 73q8 39 -13 58t-73 19z" />
    <glyph glyph-name="nine.osf" horiz-adv-x="574" 
d="M286 248q56 0 89.5 23.5t39.5 60.5q8 43 -19 71.5t-87 28.5q-103 0 -118 -85q-8 -46 16 -72.5t79 -26.5zM238 -76q-120 0 -171.5 44.5t-58.5 127.5l134 28q5 -42 29.5 -62.5t76.5 -20.5q72 0 111 53.5t60 175.5q0 2 0.5 4t0.5 4l-11 2q-61 -116 -192 -116
q-87 0 -133.5 51t-29.5 146q16 89 83.5 138t181.5 49q136 0 196.5 -77.5t29.5 -255.5q-23 -131 -98 -211t-209 -80z" />
    <glyph glyph-name="zero.tf" horiz-adv-x="599" 
d="M341 489q-122 0 -155 -182q-17 -94 6.5 -146t88.5 -52q123 0 155 189q34 191 -95 191zM351 614q130 0 192 -87t33 -247q-25 -142 -105.5 -218t-201.5 -76q-131 0 -191 87.5t-32 248.5q25 141 106.5 216.5t198.5 75.5z" />
    <glyph glyph-name="one.tf" horiz-adv-x="610" 
d="M515 0h-494l21 121h205l61 347q-75 -39 -180 -75l-32 121l293 86h79l-84 -479h152z" />
    <glyph glyph-name="two.tf" horiz-adv-x="610" 
d="M361 495q-55 0 -89 -32.5t-53 -100.5l-132 22q29 111 97 170t187 59q120 0 176 -55t37 -161q-13 -77 -83.5 -120.5t-191.5 -68.5q-85 -18 -119.5 -38t-45.5 -59q103 11 175 11h220l-21 -122h-514q3 34 9 72q18 100 73.5 150t169.5 78q111 29 147.5 50.5t43.5 60.5
q7 38 -15 61t-71 23z" />
    <glyph glyph-name="three.tf" horiz-adv-x="610" 
d="M291 -10q-130 0 -189.5 47t-61.5 147l138 16q2 -49 27 -73.5t89 -24.5q102 0 115 73q7 40 -11.5 58t-74.5 18h-102l17 98h102q84 0 96 67q7 41 -13.5 61t-70.5 20q-53 0 -79.5 -23.5t-42.5 -73.5l-130 18q52 192 266 192q119 0 170 -46.5t35 -135.5q-17 -97 -160 -121
l-2 -12q89 -9 119.5 -43t18.5 -100q-13 -76 -76.5 -119t-179.5 -43z" />
    <glyph glyph-name="four.tf" horiz-adv-x="600" 
d="M553 134h-75l-24 -134h-136l23 134h-332l18 98l357 368h176l-63 -355h76zM339 245h22l43 245l-8 3l-240 -252l3 -7q89 11 180 11z" />
    <glyph glyph-name="five.tf" horiz-adv-x="610" 
d="M290 101q102 0 115 78q7 44 -15 68t-80 24q-67 0 -123 -35l-104 43l57 321h447l-23 -130q-175 0 -320 13l-26 -150q60 35 143 35q107 0 152 -55.5t29 -146.5q-29 -176 -258 -176q-109 0 -173.5 42.5t-80.5 121.5l135 32q22 -85 125 -85z" />
    <glyph glyph-name="six.tf" horiz-adv-x="610" 
d="M322 278q-118 0 -130 -80q-8 -40 18 -67t86 -27q105 0 121 84q7 43 -15 66.5t-80 23.5zM553 172q-15 -88 -81 -136t-177 -48q-67 0 -115 17t-82 56.5t-41 104t7 160.5q23 128 98.5 207t204.5 79q217 0 217 -193l-139 -14q-3 44 -23 67t-66 23q-71 0 -109 -53t-59 -177
q-2 -10 -3 -16l11 -2q58 115 193 115q88 0 134.5 -46.5t29.5 -143.5z" />
    <glyph glyph-name="seven.tf" horiz-adv-x="610" 
d="M101 472l22 128h497l-22 -128q-215 -188 -280 -472h-166q32 144 118.5 266.5t214.5 216.5q-103 -11 -183 -11h-201z" />
    <glyph glyph-name="eight.tf" horiz-adv-x="610" 
d="M276 -12q-139 0 -196.5 49t-43.5 133q18 105 179 128l2 12q-125 34 -105 152q27 150 249 150q124 0 176 -47t36 -135q-9 -51 -47 -79.5t-106 -41.5l-3 -12q151 -27 130 -153q-28 -156 -271 -156zM307 253q-114 0 -128 -73q-6 -38 20 -58t86 -20q112 0 125 72
q7 38 -15.5 58.5t-87.5 20.5zM350 496q-98 0 -111 -72q-7 -40 15 -59t71 -19q98 0 111 73q8 39 -13 58t-73 19z" />
    <glyph glyph-name="nine.tf" horiz-adv-x="610" 
d="M312 312q56 0 89.5 23.5t39.5 60.5q8 43 -19 71.5t-87 28.5q-103 0 -118 -85q-8 -46 16 -72.5t79 -26.5zM264 -12q-120 0 -171.5 44.5t-58.5 127.5l134 28q5 -42 29.5 -62.5t76.5 -20.5q72 0 111 53.5t60 175.5q0 2 0.5 4t0.5 4l-11 2q-61 -116 -192 -116
q-87 0 -133.5 51t-29.5 146q16 89 83.5 138t181.5 49q136 0 196.5 -77.5t29.5 -255.5q-23 -131 -98 -211t-209 -80z" />
    <glyph glyph-name="zero.tosf" horiz-adv-x="608" 
d="M331 423q-112 0 -139 -151q-29 -168 94 -168q114 0 140 153q14 75 -8.5 120.5t-86.5 45.5zM341 545q131 0 191.5 -78.5t34.5 -223.5q-22 -125 -97 -191t-193 -66q-133 0 -192 78t-35 221q22 126 98.5 193t192.5 67z" />
    <glyph glyph-name="one.tosf" horiz-adv-x="610" 
d="M516 0h-494l20 113h211l53 305q-101 -47 -195 -69l-21 115l279 68h94l-74 -419h147z" />
    <glyph glyph-name="two.tosf" horiz-adv-x="610" 
d="M346 430q-51 0 -82.5 -30t-48.5 -92l-126 18q49 216 274 216q113 0 167 -49.5t38 -138.5q-12 -65 -68 -96.5t-182 -60.5q-101 -24 -133.5 -40t-41.5 -50q109 14 233 14h150l-22 -121h-489q1 17 10 73q14 81 65.5 120t163.5 70q104 29 136 47t37 49q6 32 -14 51.5
t-67 19.5z" />
    <glyph glyph-name="three.tosf" horiz-adv-x="610" 
d="M291 -74q-130 0 -189.5 47t-61.5 147l138 16q2 -49 27 -73.5t89 -24.5q102 0 115 73q7 40 -11.5 58t-74.5 18h-102l17 98h102q84 0 96 67q7 41 -13.5 61t-70.5 20q-53 0 -79.5 -23.5t-42.5 -73.5l-130 18q52 192 266 192q119 0 170 -46.5t35 -135.5q-17 -97 -160 -121
l-2 -12q89 -9 119.5 -43t18.5 -100q-13 -76 -76.5 -119t-179.5 -43z" />
    <glyph glyph-name="four.tosf" horiz-adv-x="610" 
d="M557 66h-75l-24 -134h-136l23 134h-332l18 98l357 368h176l-63 -355h76zM343 177h22l43 245l-8 3l-240 -252l3 -7q89 11 180 11z" />
    <glyph glyph-name="five.tosf" horiz-adv-x="610" 
d="M285 33q102 0 115 78q7 44 -15 68t-80 24q-67 0 -123 -35l-104 43l57 321h447l-23 -130q-175 0 -320 13l-26 -150q60 35 143 35q107 0 152 -55.5t29 -146.5q-29 -176 -258 -176q-109 0 -173.5 42.5t-80.5 121.5l135 32q22 -85 125 -85z" />
    <glyph glyph-name="six.tosf" horiz-adv-x="610" 
d="M322 278q-118 0 -130 -80q-8 -40 18 -67t86 -27q105 0 121 84q7 43 -15 66.5t-80 23.5zM553 172q-15 -88 -81 -136t-177 -48q-67 0 -115 17t-82 56.5t-41 104t7 160.5q23 128 98.5 207t204.5 79q217 0 217 -193l-139 -14q-3 44 -23 67t-66 23q-71 0 -109 -53t-59 -177
q-2 -10 -3 -16l11 -2q58 115 193 115q88 0 134.5 -46.5t29.5 -143.5z" />
    <glyph glyph-name="seven.tosf" horiz-adv-x="610" 
d="M95 404l22 128h497l-22 -128q-215 -188 -280 -472h-166q32 144 118.5 266.5t214.5 216.5q-103 -11 -183 -11h-201z" />
    <glyph glyph-name="eight.tosf" horiz-adv-x="610" 
d="M276 -12q-139 0 -196.5 49t-43.5 133q18 105 179 128l2 12q-125 34 -105 152q27 150 249 150q124 0 176 -47t36 -135q-9 -51 -47 -79.5t-106 -41.5l-3 -12q151 -27 130 -153q-28 -156 -271 -156zM307 253q-114 0 -128 -73q-6 -38 20 -58t86 -20q112 0 125 72
q7 38 -15.5 58.5t-87.5 20.5zM350 496q-98 0 -111 -72q-7 -40 15 -59t71 -19q98 0 111 73q8 39 -13 58t-73 19z" />
    <glyph glyph-name="nine.tosf" horiz-adv-x="610" 
d="M302 248q56 0 89.5 23.5t39.5 60.5q8 43 -19 71.5t-87 28.5q-103 0 -118 -85q-8 -46 16 -72.5t79 -26.5zM254 -76q-120 0 -171.5 44.5t-58.5 127.5l134 28q5 -42 29.5 -62.5t76.5 -20.5q72 0 111 53.5t60 175.5q0 2 0.5 4t0.5 4l-11 2q-61 -116 -192 -116
q-87 0 -133.5 51t-29.5 146q16 89 83.5 138t181.5 49q136 0 196.5 -77.5t29.5 -255.5q-23 -131 -98 -211t-209 -80z" />
    <glyph glyph-name="dollar.osf" horiz-adv-x="519" 
d="M292 644h92l-26 -114q75 -10 109.5 -47t41.5 -98l-140 -25q-4 40 -22.5 57.5t-61.5 17.5q-68 0 -76 -43q-5 -25 14 -42.5t83 -31.5q111 -23 148 -69.5t24 -117.5q-22 -130 -216 -139l-14 -116h-92l28 119q-169 18 -178 159l137 26q11 -87 108 -87q73 0 82 44
q5 28 -16.5 44.5t-87.5 30.5q-102 23 -138.5 67.5t-24.5 116.5q10 63 64 98.5t149 39.5z" />
    <glyph glyph-name="sterling.osf" horiz-adv-x="555" 
d="M483 0h-502l21 118h92q11 26 19 65q1 4 1.5 8.5t1 10t0.5 8.5h-97l12 68h78q-11 74 -3 117q12 67 70.5 107.5t155.5 40.5q188 0 205 -168l-129 -26q-5 41 -23 60.5t-63 19.5q-77 0 -89 -69q-4 -25 0 -82h225l-12 -68h-211q-11 -48 -48 -92h317z" />
    <glyph glyph-name="Euro.osf" horiz-adv-x="602" 
d="M298 -14q-103 0 -161 53t-63 150h-66l9 52h58q2 25 6 50q0 2 1 3h-56l10 52h59q30 96 100 147.5t172 51.5q109 0 164.5 -56t57.5 -153l-127 -22q-5 62 -31 91.5t-81 29.5q-89 0 -125 -89h134l-10 -52h-141q0 -3 -1.5 -10.5t-2.5 -11.5q-2 -11 -4 -31h140l-9 -52h-132
q8 -95 105 -95q55 0 86.5 29.5t55.5 94.5l123 -22q-64 -210 -271 -210z" />
    <glyph glyph-name="yen.osf" horiz-adv-x="596" 
d="M539 123h-188l-22 -123h-145l22 123h-189l12 69h176l-30 66h-134l13 72h90l-82 185l2 11h158l71 -249h19l161 249h161l-2 -11l-147 -185h90l-12 -72h-135l-52 -66h175z" />
    <glyph glyph-name="a.sc" horiz-adv-x="560" 
d="M379 0l-15 112h-211l-55 -112h-148l286 532h193l97 -532h-147zM235 277l-33 -66h148l-9 66q-5 34 -16 138h-24q-42 -90 -66 -138z" />
    <glyph glyph-name="b.sc" horiz-adv-x="542" 
d="M302 216h-118l-20 -116h125q71 0 81 51q5 34 -9.5 49.5t-58.5 15.5zM325 429h-103l-22 -121h102q78 0 87 57q6 33 -9 48.5t-55 15.5zM6 0l93 532h246q106 0 150 -37.5t31 -112.5q-14 -88 -138 -112l-1 -8q73 -9 100 -40.5t16 -92.5q-23 -129 -222 -129h-275z" />
    <glyph glyph-name="c.sc" horiz-adv-x="579" 
d="M269 -13q-136 0 -198 81t-37 225q22 120 101 186t202 66q113 0 171 -56.5t60 -152.5l-136 -23q-4 59 -28.5 86.5t-80.5 27.5q-65 0 -102.5 -41.5t-49.5 -110.5q-30 -171 106 -171q56 0 87 27.5t55 88.5l129 -23q-56 -210 -279 -210z" />
    <glyph glyph-name="d.sc" horiz-adv-x="593" 
d="M303 420h-84l-54 -309h88q82 0 125 35.5t57 111.5q15 88 -15.5 125t-116.5 37zM6 0l93 532h229q148 0 207.5 -73.5t35.5 -213.5q-20 -115 -102.5 -180t-209.5 -65h-253z" />
    <glyph glyph-name="e.sc" horiz-adv-x="511" 
d="M6 0l94 532h425l-21 -117h-285l-17 -98h262l-17 -97h-262l-18 -103h284l-21 -117h-424z" />
    <glyph glyph-name="f.sc" horiz-adv-x="479" 
d="M420 168h-244l-30 -168h-140l94 532h407l-23 -124h-266l-22 -127h243z" />
    <glyph glyph-name="g.sc" horiz-adv-x="596" 
d="M204 -10q-98 0 -147 76.5t-25 214.5q23 127 100.5 195.5t202.5 68.5q214 0 232 -179l-135 -26q-5 44 -29 65.5t-77 21.5q-68 0 -104.5 -38.5t-50.5 -116.5q-31 -171 109 -171q118 0 136 94v-2l1 5h-129l17 95h259l-52 -293h-127l20 116h-11q-65 -126 -190 -126z" />
    <glyph glyph-name="h.sc" horiz-adv-x="597" 
d="M508 0h-141l36 204h-221l-36 -204h-140l93 532h141l-37 -207h221l37 207h140z" />
    <glyph glyph-name="i.sc" horiz-adv-x="235" 
d="M146 0h-140l93 532h141z" />
    <glyph glyph-name="j.sc" horiz-adv-x="297" 
d="M96 164l65 368h141l-67 -375q-28 -164 -192 -164q-32 0 -74 6l25 116q27 -5 44 -5q50 0 58 54z" />
    <glyph glyph-name="k.sc" horiz-adv-x="543" 
d="M342 0l-122 196h-39l-35 -196h-140l93 532h141l-40 -227h36l191 227h167l-2 -10l-257 -266l171 -246l-2 -10h-162z" />
    <glyph glyph-name="l.sc" horiz-adv-x="443" 
d="M99 532h141l-74 -418h236l-20 -114h-376z" />
    <glyph glyph-name="m.sc" horiz-adv-x="766" 
d="M173 216l-38 -216h-129l93 532h227l30 -199q10 -82 15 -162h18q40 101 72 168l99 193h211l-94 -532h-140l38 216q8 46 41 206h-15q-55 -127 -108 -230l-88 -164h-130l-28 167q-15 108 -24 227h-15q-14 -88 -35 -206z" />
    <glyph glyph-name="n.sc" horiz-adv-x="608" 
d="M333 0l-71 201q-21 63 -49 214l-16 -1q-15 -155 -35 -260l-27 -154h-129l93 532h198l61 -170q30 -95 50 -229l16 2q15 146 31 239l28 158h129l-94 -532h-185z" />
    <glyph glyph-name="o.sc" horiz-adv-x="611" 
d="M280 -13q-141 0 -205.5 82t-39.5 223q21 119 103 186t203 67q139 0 205.5 -80.5t42.5 -218.5q-22 -122 -103 -190.5t-206 -68.5zM288 104q136 0 163 153q13 79 -15.5 124.5t-102.5 45.5q-137 0 -163 -151q-15 -82 14 -127t104 -45z" />
    <glyph glyph-name="p.sc" horiz-adv-x="476" 
d="M300 418h-81l-28 -158h86q92 0 104 71q8 44 -11 65.5t-70 21.5zM287 149h-115l-26 -149h-140l93 532h223q116 0 164.5 -55t29.5 -159q-13 -74 -73.5 -121.5t-155.5 -47.5z" />
    <glyph glyph-name="q.sc" horiz-adv-x="612" 
d="M288 104q136 0 163 153q13 79 -15.5 124.5t-102.5 45.5q-137 0 -163 -151q-15 -82 14 -127t104 -45zM280 -13q-141 0 -205.5 82t-39.5 223q21 119 103 186t203 67q139 0 205.5 -80.5t42.5 -218.5q-26 -143 -130 -210l58 -107l-2 -10h-149l-32 72q-23 -4 -54 -4z" />
    <glyph glyph-name="r.sc" horiz-adv-x="555" 
d="M316 419h-96l-25 -140h98q47 0 69.5 15.5t28.5 49.5q8 39 -10 57t-65 18zM340 0l-82 179h-80l-32 -179h-140l93 532h246q107 0 154 -48t30 -143q-19 -110 -130 -146l104 -185l-1 -10h-162z" />
    <glyph glyph-name="s.sc" horiz-adv-x="535" 
d="M247 -13q-127 1 -179 47t-58 122l134 25q10 -86 113 -86q85 0 94 45q5 29 -19.5 45.5t-96.5 27.5q-105 17 -143 64.5t-25 123.5q25 144 239 144q112 0 160 -42t55 -116l-139 -24q-5 41 -24 58.5t-66 17.5q-81 0 -88 -44q-4 -25 17 -42.5t92 -29.5q114 -20 152 -68
t26 -119q-27 -149 -244 -149z" />
    <glyph glyph-name="t.sc" horiz-adv-x="481" 
d="M44 408l22 124h454l-22 -124h-157l-72 -408h-140l72 408h-157z" />
    <glyph glyph-name="u.sc" horiz-adv-x="590" 
d="M281 107q56 0 82.5 28t36.5 83l55 314h141l-60 -338q-17 -100 -84.5 -153t-176.5 -53q-130 0 -189.5 62t-39.5 177l53 305h141l-56 -314q-9 -53 12 -82t85 -29z" />
    <glyph glyph-name="v.sc" horiz-adv-x="557" 
d="M331 0h-189l-98 532h147l36 -277q11 -81 17 -138h22q20 46 65 138l138 277h148z" />
    <glyph glyph-name="w.sc" horiz-adv-x="798" 
d="M354 224l-75 -224h-194l-40 532h149l4 -224q0 -160 -1 -193h19q33 106 65 193l86 224h177l5 -224q0 -81 -5 -193h20q14 47 66 193l82 224h145l-225 -532h-203l2 224q2 102 6 198h-17q-26 -85 -66 -198z" />
    <glyph glyph-name="x.sc" horiz-adv-x="529" 
d="M334 0l-68 205h-16l-137 -205h-151l2 10l208 265l-116 247l2 10h150l70 -199h16l130 199h151l-2 -10l-205 -264l118 -248l-2 -10h-150z" />
    <glyph glyph-name="y.sc" horiz-adv-x="514" 
d="M285 0h-140l29 169l-136 353l2 10h150l63 -249h17l154 249h154l-2 -10l-261 -354z" />
    <glyph glyph-name="z.sc" horiz-adv-x="543" 
d="M487 124l-21 -124h-476l20 114l345 296l-4 10q-112 -12 -160 -12h-120l22 124h463l-20 -113l-349 -299l3 -9q104 13 156 13h141z" />
    <glyph glyph-name="aacute.sc" horiz-adv-x="560" 
d="M379 0l-15 112h-211l-55 -112h-148l286 532h193l97 -532h-147zM265 565l-27 66l260 133l38 -92zM235 277l-33 -66h148l-9 66q-5 34 -16 138h-24q-42 -90 -66 -138z" />
    <glyph glyph-name="abreve.sc" horiz-adv-x="560" 
d="M379 0l-15 112h-211l-55 -112h-148l286 532h193l97 -532h-147zM348 668q73 0 97 82h62q-15 -88 -54 -127.5t-110 -39.5q-74 0 -107.5 41t-18.5 126h62q-3 -46 15 -64t54 -18zM235 277l-33 -66h148l-9 66q-5 34 -16 138h-24q-42 -90 -66 -138z" />
    <glyph glyph-name="acircumflex.sc" horiz-adv-x="560" 
d="M379 0l-15 112h-211l-55 -112h-148l286 532h193l97 -532h-147zM447 566l-97 92l-129 -92l-42 48l163 146h43l111 -146zM235 277l-33 -66h148l-9 66q-5 34 -16 138h-24q-42 -90 -66 -138z" />
    <glyph glyph-name="adieresis.sc" horiz-adv-x="560" 
d="M379 0l-15 112h-211l-55 -112h-148l286 532h193l97 -532h-147zM209 723h120l-20 -117h-122zM380 723h120l-20 -117h-122zM235 277l-33 -66h148l-9 66q-5 34 -16 138h-24q-42 -90 -66 -138z" />
    <glyph glyph-name="agrave.sc" horiz-adv-x="560" 
d="M379 0l-15 112h-211l-55 -112h-148l286 532h193l97 -532h-147zM414 567l-232 107l55 93l212 -136zM235 277l-33 -66h148l-9 66q-5 34 -16 138h-24q-42 -90 -66 -138z" />
    <glyph glyph-name="amacron.sc" horiz-adv-x="560" 
d="M379 0l-15 112h-211l-55 -112h-148l286 532h193l97 -532h-147zM216 698h271l-16 -92h-271zM235 277l-33 -66h148l-9 66q-5 34 -16 138h-24q-42 -90 -66 -138z" />
    <glyph glyph-name="aogonek.sc" horiz-adv-x="560" 
d="M498 -162q-38 -5 -63 -5q-58 0 -84 20t-19 57q10 63 112 90h-65l-15 112h-211l-55 -112h-148l286 532h193l97 -532q-57 -10 -83 -22t-30 -31q-2 -15 9.5 -22t36.5 -7q24 0 53 7zM235 277l-33 -66h148l-9 66q-5 34 -16 138h-24q-42 -90 -66 -138z" />
    <glyph glyph-name="aring.sc" horiz-adv-x="560" 
d="M379 0l-15 112h-211l-55 -112h-148l286 532h193l97 -532h-147zM302 693q-5 -25 7 -40t36 -15q46 0 56 51q5 25 -7 40t-37 15q-47 0 -55 -51zM466 681q-9 -49 -43 -76.5t-85 -27.5q-56 0 -84 34t-18 88q9 50 43 78t85 28q56 0 83.5 -34.5t18.5 -89.5zM235 277l-33 -66h148
l-9 66q-5 34 -16 138h-24q-42 -90 -66 -138z" />
    <glyph glyph-name="aringacute.sc" horiz-adv-x="560" 
d="M258 693l-12 65l256 90l17 -95zM318 581q-4 -22 7 -35.5t34 -13.5q21 0 35.5 12t17.5 32q4 22 -7 35.5t-34 13.5q-21 0 -35.5 -11.5t-17.5 -32.5zM478 571q-9 -46 -43 -74l91 -497h-147l-15 112h-211l-55 -112h-148l286 532h19q-8 25 -2 56q8 45 42 72t84 27
q54 0 81 -31.5t18 -84.5zM235 277l-33 -66h148l-9 66q-5 34 -16 138h-24q-42 -90 -66 -138z" />
    <glyph glyph-name="atilde.sc" horiz-adv-x="560" 
d="M379 0l-15 112h-211l-55 -112h-148l286 532h193l97 -532h-147zM287 757q26 0 45.5 -13t29 -29t22 -29t25.5 -13q20 0 30 18t17 61h58q0 -23 -5 -46q-21 -125 -103 -125q-23 0 -41 13t-27.5 29t-23.5 29t-30 13q-19 0 -29 -18t-17 -60h-59q1 20 5 45q11 62 38 93.5
t65 31.5zM235 277l-33 -66h148l-9 66q-5 34 -16 138h-24q-42 -90 -66 -138z" />
    <glyph glyph-name="ae.sc" horiz-adv-x="801" 
d="M263 276l-42 -71h111l39 218h-28q-38 -77 -80 -147zM296 0l18 103h-154l-61 -103h-147l334 532h529l-21 -117h-285l-17 -98h262l-17 -97h-262l-18 -103h284l-21 -117h-424z" />
    <glyph glyph-name="aeacute.sc" horiz-adv-x="801" 
d="M435 561l-27 66l260 133l38 -92zM296 0l18 103h-154l-61 -103h-147l334 532h529l-21 -117h-285l-17 -98h262l-17 -97h-262l-18 -103h284l-21 -117h-424zM263 276l-42 -71h111l39 218h-28q-38 -77 -80 -147z" />
    <glyph glyph-name="cacute.sc" horiz-adv-x="579" 
d="M269 -13q-136 0 -198 81t-37 225q22 120 101 186t202 66q113 0 171 -56.5t60 -152.5l-136 -23q-4 59 -28.5 86.5t-80.5 27.5q-65 0 -102.5 -41.5t-49.5 -110.5q-30 -171 106 -171q56 0 87 27.5t55 88.5l129 -23q-56 -210 -279 -210zM274 577l-27 66l260 133l38 -92z" />
    <glyph glyph-name="ccaron.sc" horiz-adv-x="579" 
d="M269 -13q-136 0 -198 81t-37 225q22 120 101 186t202 66q113 0 171 -56.5t60 -152.5l-136 -23q-4 59 -28.5 86.5t-80.5 27.5q-65 0 -102.5 -41.5t-49.5 -110.5q-30 -171 106 -171q56 0 87 27.5t55 88.5l129 -23q-56 -210 -279 -210zM361 589h-43l-111 145l50 48l97 -92
l129 92l41 -48z" />
    <glyph glyph-name="ccedilla.sc" horiz-adv-x="579" 
d="M269 -13q-15 0 -22 1l-19 -34q20 6 37 6q73 0 62 -62q-5 -25 -30.5 -45.5t-73.5 -20.5q-61 0 -98 28l34 42q30 -22 71 -22q35 0 40 24q2 12 -5.5 18t-25.5 6q-17 0 -39 -6l-32 14l31 58q-100 20 -143 97.5t-22 201.5q22 120 101 186t202 66q113 0 171 -56.5t60 -152.5
l-136 -23q-4 59 -28.5 86.5t-80.5 27.5q-65 0 -102.5 -41.5t-49.5 -110.5q-30 -171 106 -171q56 0 87 27.5t55 88.5l129 -23q-56 -210 -279 -210z" />
    <glyph glyph-name="ccircumflex.sc" horiz-adv-x="579" 
d="M269 -13q-136 0 -198 81t-37 225q22 120 101 186t202 66q113 0 171 -56.5t60 -152.5l-136 -23q-4 59 -28.5 86.5t-80.5 27.5q-65 0 -102.5 -41.5t-49.5 -110.5q-30 -171 106 -171q56 0 87 27.5t55 88.5l129 -23q-56 -210 -279 -210zM456 578l-97 92l-129 -92l-42 48
l163 146h43l111 -146z" />
    <glyph glyph-name="cdotaccent.sc" horiz-adv-x="579" 
d="M269 -13q-136 0 -198 81t-37 225q22 120 101 186t202 66q113 0 171 -56.5t60 -152.5l-136 -23q-4 59 -28.5 86.5t-80.5 27.5q-65 0 -102.5 -41.5t-49.5 -110.5q-30 -171 106 -171q56 0 87 27.5t55 88.5l129 -23q-56 -210 -279 -210zM302 743h131l-22 -125h-131z" />
    <glyph glyph-name="dcaron.sc" horiz-adv-x="593" 
d="M303 420h-84l-54 -309h88q82 0 125 35.5t57 111.5q15 88 -15.5 125t-116.5 37zM6 0l93 532h229q148 0 207.5 -73.5t35.5 -213.5q-20 -115 -102.5 -180t-209.5 -65h-253zM372 577h-43l-111 145l50 48l97 -92l129 92l41 -48z" />
    <glyph glyph-name="dcroat.sc" horiz-adv-x="618" 
d="M323 224h-115l-20 -113h88q82 0 125 35.5t57 111.5q15 88 -15.5 125t-116.5 37h-84l-20 -114h115zM29 0l39 224h-54l15 82h53l40 226h229q148 0 207.5 -73.5t35.5 -213.5q-20 -115 -102.5 -180t-209.5 -65h-253z" />
    <glyph glyph-name="eacute.sc" horiz-adv-x="511" 
d="M6 0l94 532h425l-21 -117h-285l-17 -98h262l-17 -97h-262l-18 -103h284l-21 -117h-424zM245 565l-27 66l260 133l38 -92z" />
    <glyph glyph-name="ebreve.sc" horiz-adv-x="511" 
d="M6 0l94 532h425l-21 -117h-285l-17 -98h262l-17 -97h-262l-18 -103h284l-21 -117h-424zM328 668q73 0 97 82h62q-15 -88 -54 -127.5t-110 -39.5q-74 0 -107.5 41t-18.5 126h62q-3 -46 15 -64t54 -18z" />
    <glyph glyph-name="ecaron.sc" horiz-adv-x="511" 
d="M6 0l94 532h425l-21 -117h-285l-17 -98h262l-17 -97h-262l-18 -103h284l-21 -117h-424zM332 577h-43l-111 145l50 48l97 -92l129 92l41 -48z" />
    <glyph glyph-name="ecircumflex.sc" horiz-adv-x="511" 
d="M6 0l94 532h425l-21 -117h-285l-17 -98h262l-17 -97h-262l-18 -103h284l-21 -117h-424zM427 566l-97 92l-129 -92l-42 48l163 146h43l111 -146z" />
    <glyph glyph-name="edieresis.sc" horiz-adv-x="511" 
d="M6 0l94 532h425l-21 -117h-285l-17 -98h262l-17 -97h-262l-18 -103h284l-21 -117h-424zM189 723h120l-20 -117h-122zM360 723h120l-20 -117h-122z" />
    <glyph glyph-name="edotaccent.sc" horiz-adv-x="511" 
d="M6 0l94 532h425l-21 -117h-285l-17 -98h262l-17 -97h-262l-18 -103h284l-21 -117h-424zM273 731h131l-22 -125h-131z" />
    <glyph glyph-name="egrave.sc" horiz-adv-x="511" 
d="M6 0l94 532h425l-21 -117h-285l-17 -98h262l-17 -97h-262l-18 -103h284l-21 -117h-424zM394 567l-232 107l55 93l212 -136z" />
    <glyph glyph-name="emacron.sc" horiz-adv-x="511" 
d="M6 0l94 532h425l-21 -117h-285l-17 -98h262l-17 -97h-262l-18 -103h284l-21 -117h-424zM196 698h271l-16 -92h-271z" />
    <glyph glyph-name="eng.sc" horiz-adv-x="608" 
d="M6 0l93 532h199l68 -169q32 -89 56 -192l11 1q9 121 22 202l28 158h129l-93 -528q-30 -166 -201 -166q-40 0 -80 7l27 115q31 -7 58 -7q52 0 64 43l-109 199q-34 63 -66 218l-15 -2q-15 -154 -35 -257l-27 -154h-129z" />
    <glyph glyph-name="eogonek.sc" horiz-adv-x="511" 
d="M402 -162q-38 -5 -63 -5q-58 0 -84 20t-19 57q10 63 112 90h-342l94 532h425l-21 -117h-285l-17 -98h262l-17 -97h-262l-18 -103h284l-21 -117q-57 -10 -83 -22t-30 -31q-2 -15 9.5 -22t36.5 -7q24 0 53 7z" />
    <glyph glyph-name="eth.sc" horiz-adv-x="618" 
d="M323 224h-115l-20 -113h88q82 0 125 35.5t57 111.5q15 88 -15.5 125t-116.5 37h-84l-20 -114h115zM29 0l39 224h-54l15 82h53l40 226h229q148 0 207.5 -73.5t35.5 -213.5q-20 -115 -102.5 -180t-209.5 -65h-253z" />
    <glyph glyph-name="fi.sc" horiz-adv-x="722" 
d="M420 168h-244l-30 -168h-140l94 532h407l-23 -124h-266l-22 -127h243zM633 0h-140l93 532h141z" />
    <glyph glyph-name="fl.sc" horiz-adv-x="930" 
d="M420 168h-244l-30 -168h-140l94 532h407l-23 -124h-266l-22 -127h243zM586 532h141l-74 -418h236l-20 -114h-376z" />
    <glyph glyph-name="gbreve.sc" horiz-adv-x="596" 
d="M204 -10q-98 0 -147 76.5t-25 214.5q23 127 100.5 195.5t202.5 68.5q214 0 232 -179l-135 -26q-5 44 -29 65.5t-77 21.5q-68 0 -104.5 -38.5t-50.5 -116.5q-31 -171 109 -171q118 0 136 94v-2l1 5h-129l17 95h259l-52 -293h-127l20 116h-11q-65 -126 -190 -126zM358 680
q73 0 97 82h62q-15 -88 -54 -127.5t-110 -39.5q-74 0 -107.5 41t-18.5 126h62q-3 -46 15 -64t54 -18z" />
    <glyph glyph-name="gcircumflex.sc" horiz-adv-x="596" 
d="M204 -10q-98 0 -147 76.5t-25 214.5q23 127 100.5 195.5t202.5 68.5q214 0 232 -179l-135 -26q-5 44 -29 65.5t-77 21.5q-68 0 -104.5 -38.5t-50.5 -116.5q-31 -171 109 -171q118 0 136 94v-2l1 5h-129l17 95h259l-52 -293h-127l20 116h-11q-65 -126 -190 -126zM457 578
l-97 92l-129 -92l-42 48l163 146h43l111 -146z" />
    <glyph glyph-name="gcommaaccent.sc" horiz-adv-x="596" 
d="M204 -10q-98 0 -147 76.5t-25 214.5q23 127 100.5 195.5t202.5 68.5q214 0 232 -179l-135 -26q-5 44 -29 65.5t-77 21.5q-68 0 -104.5 -38.5t-50.5 -116.5q-31 -171 109 -171q118 0 136 94v-2l1 5h-129l17 95h259l-52 -293h-127l20 116h-11q-65 -126 -190 -126zM204 -51
h104l-85 -154h-85l2 9z" />
    <glyph glyph-name="gdotaccent.sc" horiz-adv-x="596" 
d="M204 -10q-98 0 -147 76.5t-25 214.5q23 127 100.5 195.5t202.5 68.5q214 0 232 -179l-135 -26q-5 44 -29 65.5t-77 21.5q-68 0 -104.5 -38.5t-50.5 -116.5q-31 -171 109 -171q118 0 136 94v-2l1 5h-129l17 95h259l-52 -293h-127l20 116h-11q-65 -126 -190 -126zM303 743
h131l-22 -125h-131z" />
    <glyph glyph-name="hbar.sc" horiz-adv-x="630" 
d="M432 284l13 74h-222l-13 -74h222zM522 0h-140l30 170h-222l-30 -170h-140l63 358h-51l14 78h51l17 96h140l-17 -96h222l17 96h140l-17 -96h55l-14 -78h-55z" />
    <glyph glyph-name="hcircumflex.sc" horiz-adv-x="597" 
d="M508 0h-141l36 204h-221l-36 -204h-140l93 532h141l-37 -207h221l37 207h140zM465 566l-97 92l-129 -92l-42 48l163 146h43l111 -146z" />
    <glyph glyph-name="iacute.sc" horiz-adv-x="235" 
d="M146 0h-140l93 532h141zM102 565l-27 66l260 133l38 -92z" />
    <glyph glyph-name="ibreve.sc" horiz-adv-x="235" 
d="M146 0h-140l93 532h141zM185 668q73 0 97 82h62q-15 -88 -54 -127.5t-110 -39.5q-74 0 -107.5 41t-18.5 126h62q-3 -46 15.5 -64t53.5 -18z" />
    <glyph glyph-name="icircumflex.sc" horiz-adv-x="235" 
d="M146 0h-140l93 532h141zM284 566l-97 92l-129 -92l-42 48l163 146h43l111 -146z" />
    <glyph glyph-name="idieresis.sc" horiz-adv-x="235" 
d="M146 0h-140l93 532h141zM47 723h120l-20 -117h-122zM218 723h120l-20 -117h-122z" />
    <glyph glyph-name="igrave.sc" horiz-adv-x="235" 
d="M146 0h-140l93 532h141zM251 567l-232 107l55 93l212 -136z" />
    <glyph glyph-name="ij.sc" horiz-adv-x="532" 
d="M146 0h-140l93 532h141zM331 164l65 368h141l-67 -375q-28 -164 -192 -164q-32 0 -74 6l25 116q27 -5 44 -5q50 0 58 54z" />
    <glyph glyph-name="imacron.sc" horiz-adv-x="235" 
d="M146 0h-140l93 532h141zM54 698h271l-16 -92h-271z" />
    <glyph glyph-name="iogonek.sc" horiz-adv-x="235" 
d="M146 0q-57 -10 -83 -22t-30 -31q-2 -15 9.5 -22t36.5 -7q24 0 53 7l-14 -87q-38 -5 -63 -5q-58 0 -84 20t-19 57q10 63 112 90h-58l93 532h141z" />
    <glyph glyph-name="itilde.sc" horiz-adv-x="235" 
d="M146 0h-140l93 532h141zM125 757q26 0 45.5 -13t29 -29t22 -29t25.5 -13q20 0 30 18t17 61h58q0 -23 -5 -46q-21 -125 -103 -125q-23 0 -41 13t-27.5 29t-23.5 29t-30 13q-19 0 -29 -18t-17 -60h-59q1 20 5 45q11 62 38 93.5t65 31.5z" />
    <glyph glyph-name="jcircumflex.sc" horiz-adv-x="297" 
d="M96 164l65 368h141l-67 -375q-28 -164 -192 -164q-32 0 -74 6l25 116q27 -5 44 -5q50 0 58 54zM345 566l-97 92l-129 -92l-42 48l163 146h43l111 -146z" />
    <glyph glyph-name="kcommaaccent.sc" horiz-adv-x="543" 
d="M342 0l-122 196h-39l-35 -196h-140l93 532h141l-40 -227h36l191 227h167l-2 -10l-257 -266l171 -246l-2 -10h-162zM210 -51h104l-85 -154h-85l2 9z" />
    <glyph glyph-name="lacute.sc" horiz-adv-x="443" 
d="M152 565l-27 66l260 133l38 -92zM99 532h141l-74 -418h236l-20 -114h-376z" />
    <glyph glyph-name="lcaron.sc" horiz-adv-x="456" 
d="M398 532h102l-76 -252h-84zM99 532h141l-74 -418h236l-20 -114h-376z" />
    <glyph glyph-name="lcommaaccent.sc" horiz-adv-x="443" 
d="M99 532h141l-74 -418h236l-20 -114h-376zM149 -51h104l-85 -154h-85l2 9z" />
    <glyph glyph-name="ldot.sc" horiz-adv-x="446" 
d="M353 375h118l-20 -113h-118zM99 532h141l-74 -418h236l-20 -114h-376z" />
    <glyph glyph-name="lslash.sc" horiz-adv-x="462" 
d="M115 532h141l-35 -196l124 50l-15 -85l-124 -50l-24 -137h236l-20 -114h-376l33 190l-56 -23l15 84l56 23z" />
    <glyph glyph-name="nacute.sc" horiz-adv-x="608" 
d="M333 0l-71 201q-21 63 -49 214l-16 -1q-15 -155 -35 -260l-27 -154h-129l93 532h198l61 -170q30 -95 50 -229l16 2q15 146 31 239l28 158h129l-94 -532h-185zM288 565l-27 66l260 133l38 -92z" />
    <glyph glyph-name="ncaron.sc" horiz-adv-x="608" 
d="M333 0l-71 201q-21 63 -49 214l-16 -1q-15 -155 -35 -260l-27 -154h-129l93 532h198l61 -170q30 -95 50 -229l16 2q15 146 31 239l28 158h129l-94 -532h-185zM376 577h-43l-111 145l50 48l97 -92l129 92l41 -48z" />
    <glyph glyph-name="ncommaaccent.sc" horiz-adv-x="608" 
d="M333 0l-71 201q-21 63 -49 214l-16 -1q-15 -155 -35 -260l-27 -154h-129l93 532h198l61 -170q30 -95 50 -229l16 2q15 146 31 239l28 158h129l-94 -532h-185zM217 -51h104l-85 -154h-85l2 9z" />
    <glyph glyph-name="ntilde.sc" horiz-adv-x="608" 
d="M333 0l-71 201q-21 63 -49 214l-16 -1q-15 -155 -35 -260l-27 -154h-129l93 532h198l61 -170q30 -95 50 -229l16 2q15 146 31 239l28 158h129l-94 -532h-185zM311 757q26 0 45.5 -13t29 -29t22 -29t25.5 -13q20 0 30 18t17 61h58q0 -23 -5 -46q-21 -125 -103 -125
q-23 0 -41 13t-27.5 29t-23.5 29t-30 13q-19 0 -29 -18t-17 -60h-59q1 20 5 45q11 62 38 93.5t65 31.5z" />
    <glyph glyph-name="oacute.sc" horiz-adv-x="611" 
d="M280 -13q-141 0 -205.5 82t-39.5 223q21 119 103 186t203 67q139 0 205.5 -80.5t42.5 -218.5q-22 -122 -103 -190.5t-206 -68.5zM288 104q136 0 163 153q13 79 -15.5 124.5t-102.5 45.5q-137 0 -163 -151q-15 -82 14 -127t104 -45zM290 577l-27 66l260 133l38 -92z" />
    <glyph glyph-name="obreve.sc" horiz-adv-x="611" 
d="M280 -13q-141 0 -205.5 82t-39.5 223q21 119 103 186t203 67q139 0 205.5 -80.5t42.5 -218.5q-22 -122 -103 -190.5t-206 -68.5zM288 104q136 0 163 153q13 79 -15.5 124.5t-102.5 45.5q-137 0 -163 -151q-15 -82 14 -127t104 -45zM373 680q73 0 97 82h62
q-15 -88 -54 -127.5t-110 -39.5q-74 0 -107.5 41t-18.5 126h62q-3 -46 15.5 -64t53.5 -18z" />
    <glyph glyph-name="ocircumflex.sc" horiz-adv-x="611" 
d="M288 104q136 0 163 153q13 79 -15.5 124.5t-102.5 45.5q-137 0 -163 -151q-15 -82 14 -127t104 -45zM280 -13q-141 0 -205.5 82t-39.5 223q21 119 103 186t203 67q139 0 205.5 -80.5t42.5 -218.5q-22 -122 -103 -190.5t-206 -68.5zM472 578l-97 92l-129 -92l-42 48
l163 146h43l111 -146z" />
    <glyph glyph-name="odieresis.sc" horiz-adv-x="611" 
d="M280 -13q-141 0 -205.5 82t-39.5 223q21 119 103 186t203 67q139 0 205.5 -80.5t42.5 -218.5q-22 -122 -103 -190.5t-206 -68.5zM288 104q136 0 163 153q13 79 -15.5 124.5t-102.5 45.5q-137 0 -163 -151q-15 -82 14 -127t104 -45zM235 735h120l-20 -117h-122zM406 735
h120l-20 -117h-122z" />
    <glyph glyph-name="ograve.sc" horiz-adv-x="611" 
d="M280 -13q-141 0 -205.5 82t-39.5 223q21 119 103 186t203 67q139 0 205.5 -80.5t42.5 -218.5q-22 -122 -103 -190.5t-206 -68.5zM288 104q136 0 163 153q13 79 -15.5 124.5t-102.5 45.5q-137 0 -163 -151q-15 -82 14 -127t104 -45zM439 579l-232 107l55 93l212 -136z" />
    <glyph glyph-name="ohungarumlaut.sc" horiz-adv-x="611" 
d="M280 -13q-141 0 -205.5 82t-39.5 223q21 119 103 186t203 67q139 0 205.5 -80.5t42.5 -218.5q-22 -122 -103 -190.5t-206 -68.5zM288 104q136 0 163 153q13 79 -15.5 124.5t-102.5 45.5q-137 0 -163 -151q-15 -82 14 -127t104 -45zM289 582l-53 33l115 167l71 -45z
M426 583l-48 39l128 159l66 -51z" />
    <glyph glyph-name="omacron.sc" horiz-adv-x="611" 
d="M280 -13q-141 0 -205.5 82t-39.5 223q21 119 103 186t203 67q139 0 205.5 -80.5t42.5 -218.5q-22 -122 -103 -190.5t-206 -68.5zM288 104q136 0 163 153q13 79 -15.5 124.5t-102.5 45.5q-137 0 -163 -151q-15 -82 14 -127t104 -45zM242 710h271l-16 -92h-271z" />
    <glyph glyph-name="oslash.sc" horiz-adv-x="610" 
d="M163 276q-10 -58 0 -95l258 227q-31 24 -87 24q-143 0 -171 -156zM280 -13q-109 0 -174 51l-41 -38h-104l1 6l99 84q-48 80 -26 202q21 119 103 186t203 67q110 0 176 -52l42 39h102l-1 -6l-98 -83q48 -77 27 -197q-22 -122 -103 -190.5t-206 -68.5zM287 99
q143 0 170 158q10 56 1 91l-257 -226q32 -23 86 -23z" />
    <glyph glyph-name="oslashacute.sc" horiz-adv-x="611" 
d="M163 276q-10 -58 0 -95l258 227q-31 24 -87 24q-143 0 -171 -156zM280 -13q-109 0 -174 51l-41 -38h-104l1 6l99 84q-48 80 -26 202q21 119 103 186t203 67q110 0 176 -52l42 39h102l-1 -6l-98 -83q48 -77 27 -197q-22 -122 -103 -190.5t-206 -68.5zM294 574l-27 66
l260 133l38 -92zM287 99q143 0 170 158q10 56 1 91l-257 -226q32 -23 86 -23z" />
    <glyph glyph-name="otilde.sc" horiz-adv-x="611" 
d="M280 -13q-141 0 -205.5 82t-39.5 223q21 119 103 186t203 67q139 0 205.5 -80.5t42.5 -218.5q-22 -122 -103 -190.5t-206 -68.5zM288 104q136 0 163 153q13 79 -15.5 124.5t-102.5 45.5q-137 0 -163 -151q-15 -82 14 -127t104 -45zM313 769q26 0 45.5 -13t29 -29t22 -29
t25.5 -13q20 0 30 18t17 61h58q0 -23 -5 -46q-21 -125 -103 -125q-23 0 -41 13t-27.5 29t-23.5 29t-30 13q-19 0 -29 -18t-17 -60h-59q1 20 5 45q11 62 38 93.5t65 31.5z" />
    <glyph glyph-name="oe.sc" horiz-adv-x="860" 
d="M295 114h43l54 304h-57q-70 0 -111.5 -38.5t-53.5 -105.5q-29 -160 125 -160zM278 0q-138 0 -203 76t-42 207q20 115 106 182t214 67h484l-21 -117h-285l-17 -98h262l-17 -97h-262l-18 -103h284l-21 -117h-464z" />
    <glyph glyph-name="racute.sc" horiz-adv-x="555" 
d="M316 419h-96l-25 -140h98q47 0 69.5 15.5t28.5 49.5q8 39 -10 57t-65 18zM340 0l-82 179h-80l-32 -179h-140l93 532h246q107 0 154 -48t30 -143q-19 -110 -130 -146l104 -185l-1 -10h-162zM277 565l-27 66l260 133l38 -92z" />
    <glyph glyph-name="rcaron.sc" horiz-adv-x="555" 
d="M316 419h-96l-25 -140h98q47 0 69.5 15.5t28.5 49.5q8 39 -10 57t-65 18zM340 0l-82 179h-80l-32 -179h-140l93 532h246q107 0 154 -48t30 -143q-19 -110 -130 -146l104 -185l-1 -10h-162zM345 577h-43l-111 145l50 48l97 -92l129 92l41 -48z" />
    <glyph glyph-name="rcommaaccent.sc" horiz-adv-x="555" 
d="M206 -51h104l-85 -154h-85l2 9zM316 419h-96l-25 -140h98q47 0 69.5 15.5t28.5 49.5q8 39 -10 57t-65 18zM340 0l-82 179h-80l-32 -179h-140l93 532h246q107 0 154 -48t30 -143q-19 -110 -130 -146l104 -185l-1 -10h-162z" />
    <glyph glyph-name="sacute.sc" horiz-adv-x="535" 
d="M247 -13q-127 1 -179 47t-58 122l134 25q10 -86 113 -86q85 0 94 45q5 29 -19.5 45.5t-96.5 27.5q-105 17 -143 64.5t-25 123.5q25 144 239 144q112 0 160 -42t55 -116l-139 -24q-5 41 -24 58.5t-66 17.5q-81 0 -88 -44q-4 -25 17 -42.5t92 -29.5q114 -20 152 -68
t26 -119q-27 -149 -244 -149zM250 577l-27 66l260 133l38 -92z" />
    <glyph glyph-name="scaron.sc" horiz-adv-x="535" 
d="M247 -13q-127 1 -179 47t-58 122l134 25q10 -86 113 -86q85 0 94 45q5 29 -19.5 45.5t-96.5 27.5q-105 17 -143 64.5t-25 123.5q25 144 239 144q112 0 160 -42t55 -116l-139 -24q-5 41 -24 58.5t-66 17.5q-81 0 -88 -44q-4 -25 17 -42.5t92 -29.5q114 -20 152 -68
t26 -119q-27 -149 -244 -149zM337 589h-43l-111 145l50 48l97 -92l129 92l41 -48z" />
    <glyph glyph-name="scedilla.sc" horiz-adv-x="535" 
d="M247 -13q-16 0 -24 1l-19 -34q20 6 37 6q73 0 62 -62q-5 -25 -30.5 -45.5t-73.5 -20.5q-61 0 -98 28l34 42q30 -22 71 -22q35 0 40 24q2 12 -5.5 18t-25.5 6q-17 0 -39 -6l-32 14l30 56q-153 24 -164 164l134 25q10 -86 113 -86q85 0 94 45q5 29 -19.5 45.5t-96.5 27.5
q-105 17 -143 64.5t-25 123.5q25 144 239 144q112 0 160 -42t55 -116l-139 -24q-5 41 -24 58.5t-66 17.5q-81 0 -88 -44q-4 -25 17 -42.5t92 -29.5q114 -20 152 -68t26 -119q-27 -149 -244 -149z" />
    <glyph glyph-name="scircumflex.sc" horiz-adv-x="535" 
d="M247 -13q-127 1 -179 47t-58 122l134 25q10 -86 113 -86q85 0 94 45q5 29 -19.5 45.5t-96.5 27.5q-105 17 -143 64.5t-25 123.5q25 144 239 144q112 0 160 -42t55 -116l-139 -24q-5 41 -24 58.5t-66 17.5q-81 0 -88 -44q-4 -25 17 -42.5t92 -29.5q114 -20 152 -68
t26 -119q-27 -149 -244 -149zM432 578l-97 92l-129 -92l-42 48l163 146h43l111 -146z" />
    <glyph glyph-name="scommaaccent.sc" horiz-adv-x="535" 
d="M247 -13q-127 1 -179 47t-58 122l134 25q10 -86 113 -86q85 0 94 45q5 29 -19.5 45.5t-96.5 27.5q-105 17 -143 64.5t-25 123.5q25 144 239 144q112 0 160 -42t55 -116l-139 -24q-5 41 -24 58.5t-66 17.5q-81 0 -88 -44q-4 -25 17 -42.5t92 -29.5q114 -20 152 -68
t26 -119q-27 -149 -244 -149zM179 -51h104l-85 -154h-85l2 9z" />
    <glyph glyph-name="tbar.sc" horiz-adv-x="483" 
d="M44 408l22 124h454l-22 -124h-157l-26 -146h118l-14 -77h-117l-33 -185h-140l33 185h-115l13 77h115l26 146h-157z" />
    <glyph glyph-name="tcaron.sc" horiz-adv-x="481" 
d="M498 408h-157l-72 -408h-140l72 408h-157l22 124h454zM313 577h-43l-111 145l50 48l97 -92l129 92l41 -48z" />
    <glyph glyph-name="tcommaaccent.sc" horiz-adv-x="481" 
d="M44 408l22 124h454l-22 -124h-157l-72 -408h-66l-26 -46q19 6 37 6q73 0 62 -62q-5 -25 -30.5 -45.5t-73.5 -20.5q-61 0 -98 28l34 42q30 -22 71 -22q35 0 40 24q2 12 -5.5 18t-25.5 6q-17 0 -39 -6l-32 14l35 64h-23l72 408h-157z" />
    <glyph glyph-name="uni021B.sc" horiz-adv-x="481" 
d="M44 408l22 124h454l-22 -124h-157l-72 -408h-140l72 408h-157zM155 -51h104l-85 -154h-85l2 9z" />
    <glyph glyph-name="thorn.sc" horiz-adv-x="532" 
d="M100 532h138l-12 -70h95q234 0 197 -212q-15 -81 -75.5 -127.5t-163.5 -46.5h-121l-13 -76h-139zM298 348h-92l-28 -158h98q93 0 105 72q8 44 -11.5 65t-71.5 21z" />
    <glyph glyph-name="uacute.sc" horiz-adv-x="590" 
d="M281 107q56 0 82.5 28t36.5 83l55 314h141l-60 -338q-17 -100 -84.5 -153t-176.5 -53q-130 0 -189.5 62t-39.5 177l53 305h141l-56 -314q-9 -53 12 -82t85 -29zM280 565l-27 66l260 133l38 -92z" />
    <glyph glyph-name="ubreve.sc" horiz-adv-x="590" 
d="M281 107q56 0 82.5 28t36.5 83l55 314h141l-60 -338q-17 -100 -84.5 -153t-176.5 -53q-130 0 -189.5 62t-39.5 177l53 305h141l-56 -314q-9 -53 12 -82t85 -29zM363 668q73 0 97 82h62q-15 -88 -54 -127.5t-110 -39.5q-74 0 -107.5 41t-18.5 126h62q-3 -46 15.5 -64
t53.5 -18z" />
    <glyph glyph-name="ucircumflex.sc" horiz-adv-x="590" 
d="M281 107q56 0 82.5 28t36.5 83l55 314h141l-60 -338q-17 -100 -84.5 -153t-176.5 -53q-130 0 -189.5 62t-39.5 177l53 305h141l-56 -314q-9 -53 12 -82t85 -29zM462 566l-97 92l-129 -92l-42 48l163 146h43l111 -146z" />
    <glyph glyph-name="udieresis.sc" horiz-adv-x="590" 
d="M281 107q56 0 82.5 28t36.5 83l55 314h141l-60 -338q-17 -100 -84.5 -153t-176.5 -53q-130 0 -189.5 62t-39.5 177l53 305h141l-56 -314q-9 -53 12 -82t85 -29zM225 723h120l-20 -117h-122zM396 723h120l-20 -117h-122z" />
    <glyph glyph-name="ugrave.sc" horiz-adv-x="590" 
d="M281 107q56 0 82.5 28t36.5 83l55 314h141l-60 -338q-17 -100 -84.5 -153t-176.5 -53q-130 0 -189.5 62t-39.5 177l53 305h141l-56 -314q-9 -53 12 -82t85 -29zM429 567l-232 107l55 93l212 -136z" />
    <glyph glyph-name="uhungarumlaut.sc" horiz-adv-x="590" 
d="M281 107q56 0 82.5 28t36.5 83l55 314h141l-60 -338q-17 -100 -84.5 -153t-176.5 -53q-130 0 -189.5 62t-39.5 177l53 305h141l-56 -314q-9 -53 12 -82t85 -29zM279 570l-53 33l115 167l71 -45zM416 571l-48 39l128 159l66 -51z" />
    <glyph glyph-name="umacron.sc" horiz-adv-x="590" 
d="M281 107q56 0 82.5 28t36.5 83l55 314h141l-60 -338q-17 -100 -84.5 -153t-176.5 -53q-130 0 -189.5 62t-39.5 177l53 305h141l-56 -314q-9 -53 12 -82t85 -29zM232 698h271l-16 -92h-271z" />
    <glyph glyph-name="uogonek.sc" horiz-adv-x="590" 
d="M281 107q56 0 82.5 28t36.5 83l55 314h141l-60 -338q-16 -97 -81 -150t-170 -56q-52 -14 -58 -41q-2 -15 9.5 -22t36.5 -7q24 0 53 7l-14 -87q-38 -5 -63 -5q-58 0 -84 20t-19 57q8 52 81 80q-105 11 -152 72.5t-29 164.5l53 305h141l-56 -314q-9 -53 12 -82t85 -29z" />
    <glyph glyph-name="uring.sc" horiz-adv-x="590" 
d="M281 107q56 0 82.5 28t36.5 83l55 314h141l-60 -338q-17 -100 -84.5 -153t-176.5 -53q-130 0 -189.5 62t-39.5 177l53 305h141l-56 -314q-9 -53 12 -82t85 -29zM481 681q-9 -49 -43 -76.5t-85 -27.5q-56 0 -84 34t-18 88q9 50 43 78t85 28q56 0 83.5 -34.5t18.5 -89.5z
M317 693q-5 -25 7 -40t36 -15q46 0 56 51q5 25 -7 40t-37 15q-47 0 -55 -51z" />
    <glyph glyph-name="utilde.sc" horiz-adv-x="590" 
d="M281 107q56 0 82.5 28t36.5 83l55 314h141l-60 -338q-17 -100 -84.5 -153t-176.5 -53q-130 0 -189.5 62t-39.5 177l53 305h141l-56 -314q-9 -53 12 -82t85 -29zM303 757q26 0 45.5 -13t29 -29t22 -29t25.5 -13q20 0 30 18t17 61h58q0 -23 -5 -46q-21 -125 -103 -125
q-23 0 -41 13t-27.5 29t-23.5 29t-30 13q-19 0 -29 -18t-17 -60h-59q1 20 5 45q11 62 38 93.5t65 31.5z" />
    <glyph glyph-name="wacute.sc" horiz-adv-x="798" 
d="M354 224l-75 -224h-194l-40 532h149l4 -224q0 -160 -1 -193h19q33 106 65 193l86 224h177l5 -224q0 -81 -5 -193h20q14 47 66 193l82 224h145l-225 -532h-203l2 224q2 102 6 198h-17q-26 -85 -66 -198zM388 565l-27 66l260 133l38 -92z" />
    <glyph glyph-name="wcircumflex.sc" horiz-adv-x="798" 
d="M354 224l-75 -224h-194l-40 532h149l4 -224q0 -160 -1 -193h19q33 106 65 193l86 224h177l5 -224q0 -81 -5 -193h20q14 47 66 193l82 224h145l-225 -532h-203l2 224q2 102 6 198h-17q-26 -85 -66 -198zM571 566l-97 92l-129 -92l-42 48l163 146h43l111 -146z" />
    <glyph glyph-name="wdieresis.sc" horiz-adv-x="798" 
d="M354 224l-75 -224h-194l-40 532h149l4 -224q0 -160 -1 -193h19q33 106 65 193l86 224h177l5 -224q0 -81 -5 -193h20q14 47 66 193l82 224h145l-225 -532h-203l2 224q2 102 6 198h-17q-26 -85 -66 -198zM333 723h120l-20 -117h-122zM504 723h120l-20 -117h-122z" />
    <glyph glyph-name="wgrave.sc" horiz-adv-x="798" 
d="M354 224l-75 -224h-194l-40 532h149l4 -224q0 -160 -1 -193h19q33 106 65 193l86 224h177l5 -224q0 -81 -5 -193h20q14 47 66 193l82 224h145l-225 -532h-203l2 224q2 102 6 198h-17q-26 -85 -66 -198zM538 567l-232 107l55 93l212 -136z" />
    <glyph glyph-name="yacute.sc" horiz-adv-x="514" 
d="M285 0h-140l29 169l-136 353l2 10h150l63 -249h17l154 249h154l-2 -10l-261 -354zM242 565l-27 66l260 133l38 -92z" />
    <glyph glyph-name="ycircumflex.sc" horiz-adv-x="514" 
d="M285 0h-140l29 169l-136 353l2 10h150l63 -249h17l154 249h154l-2 -10l-261 -354zM424 566l-97 92l-129 -92l-42 48l163 146h43l111 -146z" />
    <glyph glyph-name="ydieresis.sc" horiz-adv-x="514" 
d="M285 0h-140l29 169l-136 353l2 10h150l63 -249h17l154 249h154l-2 -10l-261 -354zM186 723h120l-20 -117h-122zM357 723h120l-20 -117h-122z" />
    <glyph glyph-name="zacute.sc" horiz-adv-x="543" 
d="M487 124l-21 -124h-476l20 114l345 296l-4 10q-112 -12 -160 -12h-120l22 124h463l-20 -113l-349 -299l3 -9q104 13 156 13h141zM254 565l-27 66l260 133l38 -92z" />
    <glyph glyph-name="zcaron.sc" horiz-adv-x="543" 
d="M487 124l-21 -124h-476l20 114l345 296l-4 10q-112 -12 -160 -12h-120l22 124h463l-20 -113l-349 -299l3 -9q104 13 156 13h141zM341 577h-43l-111 145l50 48l97 -92l129 92l41 -48z" />
    <glyph glyph-name="zdotaccent.sc" horiz-adv-x="543" 
d="M487 124l-21 -124h-476l20 114l345 296l-4 10q-112 -12 -160 -12h-120l22 124h463l-20 -113l-349 -299l3 -9q104 13 156 13h141zM282 731h131l-22 -125h-131z" />
    <glyph glyph-name="germandbls.sc" horiz-adv-x="586" 
d="M362 -9q-111 0 -165 70l69 91q39 -48 98 -48q50 0 56 34q4 19 -9 31.5t-43 23.5q-107 39 -93 119q14 69 131 102l-1 9q-45 -5 -107 -5q-81 0 -97 -97l-57 -321h-138l58 333q17 97 80 148t168 51h234l-15 -112q-67 -16 -98 -34t-36 -41q-4 -20 9.5 -32.5t48.5 -27.5
q55 -22 77.5 -59.5t11.5 -102.5q-11 -62 -59 -97t-123 -35z" />
    <glyph glyph-name="a.alt" horiz-adv-x="503" 
d="M196 94q45 0 76.5 24.5t39.5 63.5l3 19h-102q-67 0 -77 -50q-5 -25 9 -41t51 -16zM286 0l20 113h-11q-59 -123 -165 -123q-67 0 -102 40t-22 113q22 125 193 125h128l5 31q15 79 -62 79q-64 0 -89 -68l-122 30q52 146 219 146q113 0 158.5 -53t28.5 -148l-50 -285h-129z
" />
    <glyph glyph-name="aacute.alt" horiz-adv-x="503" 
d="M234 513l-27 66l260 133l38 -92zM196 94q45 0 76.5 24.5t39.5 63.5l3 19h-102q-67 0 -77 -50q-5 -25 9 -41t51 -16zM286 0l20 113h-11q-59 -123 -165 -123q-67 0 -102 40t-22 113q22 125 193 125h128l5 31q15 79 -62 79q-64 0 -89 -68l-122 30q52 146 219 146
q113 0 158.5 -53t28.5 -148l-50 -285h-129z" />
    <glyph glyph-name="abreve.alt" horiz-adv-x="503" 
d="M317 616q73 0 97 82h62q-15 -88 -54 -127.5t-110 -39.5q-74 0 -107.5 41t-18.5 126h62q-3 -46 15.5 -64t53.5 -18zM196 94q45 0 76.5 24.5t39.5 63.5l3 19h-102q-67 0 -77 -50q-5 -25 9 -41t51 -16zM286 0l20 113h-11q-59 -123 -165 -123q-67 0 -102 40t-22 113
q22 125 193 125h128l5 31q15 79 -62 79q-64 0 -89 -68l-122 30q52 146 219 146q113 0 158.5 -53t28.5 -148l-50 -285h-129z" />
    <glyph glyph-name="acircumflex.alt" horiz-adv-x="503" 
d="M416 514l-97 92l-129 -92l-42 48l163 146h43l111 -146zM196 94q45 0 76.5 24.5t39.5 63.5l3 19h-102q-67 0 -77 -50q-5 -25 9 -41t51 -16zM286 0l20 113h-11q-59 -123 -165 -123q-67 0 -102 40t-22 113q22 125 193 125h128l5 31q15 79 -62 79q-64 0 -89 -68l-122 30
q52 146 219 146q113 0 158.5 -53t28.5 -148l-50 -285h-129z" />
    <glyph glyph-name="adieresis.alt" horiz-adv-x="503" 
d="M179 671h120l-20 -117h-122zM350 671h120l-20 -117h-122zM196 94q45 0 76.5 24.5t39.5 63.5l3 19h-102q-67 0 -77 -50q-5 -25 9 -41t51 -16zM286 0l20 113h-11q-59 -123 -165 -123q-67 0 -102 40t-22 113q22 125 193 125h128l5 31q15 79 -62 79q-64 0 -89 -68l-122 30
q52 146 219 146q113 0 158.5 -53t28.5 -148l-50 -285h-129z" />
    <glyph glyph-name="agrave.alt" horiz-adv-x="503" 
d="M384 515l-232 107l55 93l212 -136zM196 94q45 0 76.5 24.5t39.5 63.5l3 19h-102q-67 0 -77 -50q-5 -25 9 -41t51 -16zM286 0l20 113h-11q-59 -123 -165 -123q-67 0 -102 40t-22 113q22 125 193 125h128l5 31q15 79 -62 79q-64 0 -89 -68l-122 30q52 146 219 146
q113 0 158.5 -53t28.5 -148l-50 -285h-129z" />
    <glyph glyph-name="amacron.alt" horiz-adv-x="503" 
d="M186 646h271l-16 -92h-271zM196 94q45 0 76.5 24.5t39.5 63.5l3 19h-102q-67 0 -77 -50q-5 -25 9 -41t51 -16zM286 0l20 113h-11q-59 -123 -165 -123q-67 0 -102 40t-22 113q22 125 193 125h128l5 31q15 79 -62 79q-64 0 -89 -68l-122 30q52 146 219 146q113 0 158.5 -53
t28.5 -148l-50 -285h-129z" />
    <glyph glyph-name="aogonek.alt" horiz-adv-x="524" 
d="M196 94q45 0 76.5 24.5t39.5 63.5l3 19h-102q-67 0 -77 -50q-5 -25 9 -41t51 -16zM378 -162q-38 -5 -63 -5q-58 0 -84 20t-19 57q10 63 112 90h-38l20 113h-11q-59 -123 -165 -123q-67 0 -102 40t-22 113q22 125 193 125h128l5 31q15 79 -62 79q-64 0 -89 -68l-122 30
q52 146 219 146q113 0 158.5 -53t28.5 -148l-50 -285h-9q-57 -10 -83 -22t-30 -31q-2 -15 9.5 -22t36.5 -7q24 0 53 7z" />
    <glyph glyph-name="aring.alt" horiz-adv-x="503" 
d="M271 641q-5 -25 7 -40t36 -15q46 0 56 51q5 25 -7 40t-37 15q-47 0 -55 -51zM435 629q-9 -49 -43 -76.5t-85 -27.5q-56 0 -84 34t-18 88q9 50 43 78t85 28q56 0 83.5 -34.5t18.5 -89.5zM196 94q45 0 76.5 24.5t39.5 63.5l3 19h-102q-67 0 -77 -50q-5 -25 9 -41t51 -16z
M286 0l20 113h-11q-59 -123 -165 -123q-67 0 -102 40t-22 113q22 125 193 125h128l5 31q15 79 -62 79q-64 0 -89 -68l-122 30q52 146 219 146q113 0 158.5 -53t28.5 -148l-50 -285h-129z" />
    <glyph glyph-name="aringacute.alt" horiz-adv-x="503" 
d="M268 756l-8 67l262 90l13 -96zM294 629q-4 -22 7 -35.5t34 -13.5q21 0 35.5 12t17.5 32q4 22 -7 35.5t-34 13.5q-21 0 -35.5 -11.5t-17.5 -32.5zM454 619q-8 -46 -42.5 -73.5t-84.5 -27.5q-54 0 -81 32.5t-17 85.5q8 45 42 72t84 27q54 0 81 -31.5t18 -84.5zM196 94
q45 0 76.5 24.5t39.5 63.5l3 19h-102q-67 0 -77 -50q-5 -25 9 -41t51 -16zM286 0l20 113h-11q-59 -123 -165 -123q-67 0 -102 40t-22 113q22 125 193 125h128l5 31q15 79 -62 79q-64 0 -89 -68l-122 30q52 146 219 146q113 0 158.5 -53t28.5 -148l-50 -285h-129z" />
    <glyph glyph-name="atilde.alt" horiz-adv-x="503" 
d="M257 705q26 0 45.5 -13t29 -29t22 -29t25.5 -13q20 0 30 18t17 61h58q0 -23 -5 -46q-21 -125 -103 -125q-23 0 -41 13t-27.5 29t-23.5 29t-30 13q-19 0 -29 -18t-17 -60h-59q1 20 5 45q11 62 38 93.5t65 31.5zM196 94q45 0 76.5 24.5t39.5 63.5l3 19h-102q-67 0 -77 -50
q-5 -25 9 -41t51 -16zM286 0l20 113h-11q-59 -123 -165 -123q-67 0 -102 40t-22 113q22 125 193 125h128l5 31q15 79 -62 79q-64 0 -89 -68l-122 30q52 146 219 146q113 0 158.5 -53t28.5 -148l-50 -285h-129z" />
    <glyph glyph-name="G.alt" horiz-adv-x="624" 
d="M598 248q-20 -114 -94 -186t-210 -72q-151 0 -216.5 85.5t-38.5 243.5q26 142 109.5 218t220.5 76q124 0 182 -52t67 -151l-141 -24q-4 51 -31 76.5t-88 25.5q-76 0 -118.5 -46.5t-58.5 -138.5q-33 -193 124 -193q130 0 153 114h-143l19 108h279z" />
    <glyph glyph-name="Gbreve.alt" horiz-adv-x="624" 
d="M598 248q-20 -114 -94 -186t-210 -72q-151 0 -216.5 85.5t-38.5 243.5q26 142 109.5 218t220.5 76q124 0 182 -52t67 -151l-141 -24q-4 51 -31 76.5t-88 25.5q-76 0 -118.5 -46.5t-58.5 -138.5q-33 -193 124 -193q130 0 153 114h-143l19 108h279zM405 737q74 0 96 71h62
q-20 -156 -164 -156q-75 0 -107 40t-19 116h62q-4 -71 70 -71z" />
    <glyph glyph-name="Gcircumflex.alt" horiz-adv-x="624" 
d="M598 248q-20 -114 -94 -186t-210 -72q-151 0 -216.5 85.5t-38.5 243.5q26 142 109.5 218t220.5 76q124 0 182 -52t67 -151l-141 -24q-4 51 -31 76.5t-88 25.5q-76 0 -118.5 -46.5t-58.5 -138.5q-33 -193 124 -193q130 0 153 114h-143l19 108h279zM509 639l-104 76
l-130 -76l-36 49l159 126h43l114 -126z" />
    <glyph glyph-name="Gcommaaccent.alt" horiz-adv-x="624" 
d="M598 248q-20 -114 -94 -186t-210 -72q-151 0 -216.5 85.5t-38.5 243.5q26 142 109.5 218t220.5 76q124 0 182 -52t67 -151l-141 -24q-4 51 -31 76.5t-88 25.5q-76 0 -118.5 -46.5t-58.5 -138.5q-33 -193 124 -193q130 0 153 114h-143l19 108h279zM233 -51h104l-85 -154
h-85l2 9z" />
    <glyph glyph-name="Gdotaccent.alt" horiz-adv-x="624" 
d="M598 248q-20 -114 -94 -186t-210 -72q-151 0 -216.5 85.5t-38.5 243.5q26 142 109.5 218t220.5 76q124 0 182 -52t67 -151l-141 -24q-4 51 -31 76.5t-88 25.5q-76 0 -118.5 -46.5t-58.5 -138.5q-33 -193 124 -193q130 0 153 114h-143l19 108h279zM339 786h131l-22 -125
h-131z" />
    <glyph glyph-name="g.sc.alt" horiz-adv-x="588" 
d="M556 220q-18 -103 -85.5 -167t-197.5 -64q-140 0 -202.5 79t-37.5 221q22 124 98 190t202 66q222 0 237 -178l-137 -27q-4 44 -29 64.5t-80 20.5q-66 0 -102 -36t-49 -109q-29 -172 117 -172q117 0 135 97h-135l16 92h263z" />
    <glyph glyph-name="gbreve.sc.alt" horiz-adv-x="588" 
d="M556 220q-18 -103 -85.5 -167t-197.5 -64q-140 0 -202.5 79t-37.5 221q22 124 98 190t202 66q222 0 237 -178l-137 -27q-4 44 -29 64.5t-80 20.5q-66 0 -102 -36t-49 -109q-29 -172 117 -172q117 0 135 97h-135l16 92h263zM362 680q73 0 97 82h62q-15 -88 -54 -127.5
t-110 -39.5q-74 0 -107.5 41t-18.5 126h62q-3 -46 15 -64t54 -18z" />
    <glyph glyph-name="gcircumflex.sc.alt" horiz-adv-x="588" 
d="M556 220q-18 -103 -85.5 -167t-197.5 -64q-140 0 -202.5 79t-37.5 221q22 124 98 190t202 66q222 0 237 -178l-137 -27q-4 44 -29 64.5t-80 20.5q-66 0 -102 -36t-49 -109q-29 -172 117 -172q117 0 135 97h-135l16 92h263zM461 578l-97 92l-129 -92l-42 48l163 146h43
l111 -146z" />
    <glyph glyph-name="gcommaaccent.sc.alt" horiz-adv-x="588" 
d="M556 220q-18 -103 -85.5 -167t-197.5 -64q-140 0 -202.5 79t-37.5 221q22 124 98 190t202 66q222 0 237 -178l-137 -27q-4 44 -29 64.5t-80 20.5q-66 0 -102 -36t-49 -109q-29 -172 117 -172q117 0 135 97h-135l16 92h263zM210 -51h104l-85 -154h-85l2 9z" />
    <glyph glyph-name="gdotaccent.sc.alt" horiz-adv-x="588" 
d="M556 220q-18 -103 -85.5 -167t-197.5 -64q-140 0 -202.5 79t-37.5 221q22 124 98 190t202 66q222 0 237 -178l-137 -27q-4 44 -29 64.5t-80 20.5q-66 0 -102 -36t-49 -109q-29 -172 117 -172q117 0 135 97h-135l16 92h263zM307 743h131l-22 -125h-131z" />
    <glyph glyph-name="g.alt" horiz-adv-x="504" 
d="M263 371q-88 0 -99 -64q-6 -31 13 -50.5t69 -19.5q89 0 101 65q6 32 -15 50.5t-69 18.5zM192 -81q82 0 114.5 12t37.5 38q3 18 -8.5 28.5t-39.5 10.5h-161q-30 0 -50 -12t-23 -30q-5 -26 21.5 -36.5t108.5 -10.5zM448 -43q-12 -69 -73 -101t-194 -32q-134 0 -185 28
t-42 78q10 55 123 76l1 5q-71 11 -61 68q7 37 72 65l42 20q-106 40 -85 159q13 73 73 112t155 39h253l-18 -102h-52q-43 0 -91 5l-2 -11q104 -24 91 -99q-10 -55 -68 -87t-148 -32q-47 0 -89 10l-11 -15q-11 -14 -14 -26q-2 -13 6.5 -18.5t31.5 -5.5q26 0 78.5 1.5t76.5 1.5
q77 0 109.5 -36.5t20.5 -102.5z" />
    <glyph glyph-name="gbreve.alt" horiz-adv-x="504" 
d="M313 616q73 0 97 82h62q-15 -88 -54 -127.5t-110 -39.5q-74 0 -107.5 41t-18.5 126h62q-3 -46 15.5 -64t53.5 -18zM263 371q-88 0 -99 -64q-6 -31 13 -50.5t69 -19.5q89 0 101 65q6 32 -15 50.5t-69 18.5zM192 -81q82 0 114.5 12t37.5 38q3 18 -8.5 28.5t-39.5 10.5h-161
q-30 0 -50 -12t-23 -30q-5 -26 21.5 -36.5t108.5 -10.5zM448 -43q-12 -69 -73 -101t-194 -32q-134 0 -185 28t-42 78q10 55 123 76l1 5q-71 11 -61 68q7 37 72 65l42 20q-106 40 -85 159q13 73 73 112t155 39h253l-18 -102h-52q-43 0 -91 5l-2 -11q104 -24 91 -99
q-10 -55 -68 -87t-148 -32q-47 0 -89 10l-11 -15q-11 -14 -14 -26q-2 -13 6.5 -18.5t31.5 -5.5q26 0 78.5 1.5t76.5 1.5q77 0 109.5 -36.5t20.5 -102.5z" />
    <glyph glyph-name="gcircumflex.alt" horiz-adv-x="504" 
d="M412 514l-97 92l-129 -92l-42 48l163 146h43l111 -146zM263 371q-88 0 -99 -64q-6 -31 13 -50.5t69 -19.5q89 0 101 65q6 32 -15 50.5t-69 18.5zM192 -81q82 0 114.5 12t37.5 38q3 18 -8.5 28.5t-39.5 10.5h-161q-30 0 -50 -12t-23 -30q-5 -26 21.5 -36.5t108.5 -10.5z
M448 -43q-12 -69 -73 -101t-194 -32q-134 0 -185 28t-42 78q10 55 123 76l1 5q-71 11 -61 68q7 37 72 65l42 20q-106 40 -85 159q13 73 73 112t155 39h253l-18 -102h-52q-43 0 -91 5l-2 -11q104 -24 91 -99q-10 -55 -68 -87t-148 -32q-47 0 -89 10l-11 -15q-11 -14 -14 -26
q-2 -13 6.5 -18.5t31.5 -5.5q26 0 78.5 1.5t76.5 1.5q77 0 109.5 -36.5t20.5 -102.5z" />
    <glyph glyph-name="gcommaaccent.alt" horiz-adv-x="504" 
d="M342 533h-104l85 154h85l-2 -9zM263 371q-88 0 -99 -64q-6 -31 13 -50.5t69 -19.5q89 0 101 65q6 32 -15 50.5t-69 18.5zM192 -81q82 0 114.5 12t37.5 38q3 18 -8.5 28.5t-39.5 10.5h-161q-30 0 -50 -12t-23 -30q-5 -26 21.5 -36.5t108.5 -10.5zM448 -43
q-12 -69 -73 -101t-194 -32q-134 0 -185 28t-42 78q10 55 123 76l1 5q-71 11 -61 68q7 37 72 65l42 20q-106 40 -85 159q13 73 73 112t155 39h253l-18 -102h-52q-43 0 -91 5l-2 -11q104 -24 91 -99q-10 -55 -68 -87t-148 -32q-47 0 -89 10l-11 -15q-11 -14 -14 -26
q-2 -13 6.5 -18.5t31.5 -5.5q26 0 78.5 1.5t76.5 1.5q77 0 109.5 -36.5t20.5 -102.5z" />
    <glyph glyph-name="gdotaccent.alt" horiz-adv-x="504" 
d="M258 679h131l-22 -125h-131zM263 371q-88 0 -99 -64q-6 -31 13 -50.5t69 -19.5q89 0 101 65q6 32 -15 50.5t-69 18.5zM192 -81q82 0 114.5 12t37.5 38q3 18 -8.5 28.5t-39.5 10.5h-161q-30 0 -50 -12t-23 -30q-5 -26 21.5 -36.5t108.5 -10.5zM448 -43q-12 -69 -73 -101
t-194 -32q-134 0 -185 28t-42 78q10 55 123 76l1 5q-71 11 -61 68q7 37 72 65l42 20q-106 40 -85 159q13 73 73 112t155 39h253l-18 -102h-52q-43 0 -91 5l-2 -11q104 -24 91 -99q-10 -55 -68 -87t-148 -32q-47 0 -89 10l-11 -15q-11 -14 -14 -26q-2 -13 6.5 -18.5
t31.5 -5.5q26 0 78.5 1.5t76.5 1.5q77 0 109.5 -36.5t20.5 -102.5z" />
    <glyph glyph-name="t.alt" horiz-adv-x="311" 
d="M167 0h-136l64 366h-57l19 108h58l21 122h137l-22 -122h87l-19 -108h-87z" />
    <glyph glyph-name="tbar.alt" horiz-adv-x="311" 
d="M167 0h-136l30 172h-48l13 72h48l21 122h-57l19 108h58l21 122h137l-22 -122h87l-19 -108h-87l-22 -122h76l-13 -72h-75z" />
    <glyph glyph-name="tcaron.alt" horiz-adv-x="320" 
d="M336 684h89l-50 -160h-71zM167 0h-136l64 366h-57l19 108h58l21 122h137l-22 -122h87l-19 -108h-87z" />
    <glyph glyph-name="tcommaaccent.alt" horiz-adv-x="311" 
d="M167 0h-63l-26 -46q20 6 37 6q73 0 62 -62q-5 -25 -30.5 -45.5t-73.5 -20.5q-61 0 -98 28l34 42q30 -22 71 -22q35 0 40 24q2 12 -5.5 18t-25.5 6q-17 0 -39 -6l-32 14l35 64h-22l64 366h-57l19 108h58l21 122h137l-22 -122h87l-19 -108h-87z" />
    <glyph glyph-name="uni021B.alt" horiz-adv-x="311" 
d="M167 0h-136l64 366h-57l19 108h58l21 122h137l-22 -122h87l-19 -108h-87zM50 -51h104l-85 -154h-85l2 9z" />
    <glyph glyph-name="zero.sc" horiz-adv-x="547" 
d="M303 427q-108 0 -134 -153q-30 -170 83 -170q110 0 137 157q29 166 -86 166zM313 545q122 0 180.5 -77.5t32.5 -218.5q-23 -128 -96 -195t-184 -67q-125 0 -182 78t-32 221q22 126 97 192.5t184 66.5z" />
    <glyph glyph-name="one.sc" horiz-adv-x="450" 
d="M382 0h-389l20 114h143l52 296q-58 -30 -128 -53l-29 111l226 64h87l-74 -418h112z" />
    <glyph glyph-name="two.sc" horiz-adv-x="535" 
d="M310 433q-93 0 -124 -111l-128 20q56 202 260 202q114 0 167.5 -49t36.5 -146q-12 -68 -77.5 -107t-178.5 -59q-77 -15 -107.5 -31t-39.5 -47q92 9 157 9h205l-21 -114h-478q6 44 10 68q15 89 66 133.5t156 68.5q101 24 134.5 42.5t38.5 50.5q5 31 -14.5 50.5t-62.5 19.5
z" />
    <glyph glyph-name="three.sc" horiz-adv-x="530" 
d="M243 -9q-115 0 -170 43t-58 129l135 14q2 -40 25.5 -60.5t77.5 -20.5q88 0 99 62q5 32 -11.5 46.5t-65.5 14.5h-93l16 92h93q74 0 85 56q6 34 -13 50.5t-63 16.5q-45 0 -69 -19.5t-37 -59.5l-130 11q53 175 249 175q112 0 160 -41.5t34 -119.5q-15 -88 -148 -108l-2 -10
q81 -9 109 -39.5t17 -91.5q-24 -140 -240 -140z" />
    <glyph glyph-name="four.sc" horiz-adv-x="542" 
d="M501 116h-69l-20 -116h-133l21 116h-304l17 93l322 323h171l-55 -311h69zM307 221h11l38 209l-9 3l-209 -216l3 -6q75 10 166 10z" />
    <glyph glyph-name="five.sc" horiz-adv-x="533" 
d="M247 96q94 0 105 66q7 36 -12.5 55.5t-70.5 19.5q-60 0 -112 -31l-101 40l50 286h417l-23 -126q-163 0 -293 11l-21 -120q60 30 135 30q95 0 137 -48t28 -127q-29 -161 -241 -161q-110 0 -168 36t-70 115l134 25q17 -71 106 -71z" />
    <glyph glyph-name="six.sc" horiz-adv-x="542" 
d="M280 243q-103 0 -116 -67q-6 -35 16.5 -56t75.5 -21q94 0 107 70q6 35 -12.5 54.5t-70.5 19.5zM494 153q-14 -79 -75.5 -121.5t-167.5 -42.5q-265 0 -212 300q20 113 91 183.5t190 70.5q109 0 153.5 -45.5t47.5 -126.5l-135 -13q-2 38 -20 56t-61 18q-61 0 -94 -47
t-52 -155q0 -1 -0.5 -3.5t-0.5 -4.5l10 -1q52 99 176 99q81 0 123.5 -40.5t26.5 -126.5z" />
    <glyph glyph-name="seven.sc" horiz-adv-x="485" 
d="M43 408l22 124h460l-21 -120q-194 -165 -249 -412h-165q54 246 291 416q-77 -8 -154 -8h-184z" />
    <glyph glyph-name="eight.sc" horiz-adv-x="536" 
d="M231 -11q-125 0 -178 43.5t-40 115.5q18 94 163 116l2 11q-116 29 -98 134q25 134 230 134q116 0 165 -39.5t36 -115.5q-16 -89 -141 -114l-2 -11q141 -23 121 -134q-25 -140 -258 -140zM265 222q-102 0 -112 -61q-11 -65 91 -65t111 60q6 32 -14 49t-76 17zM302 434
q-87 0 -97 -60q-6 -34 13 -49.5t62 -15.5q88 0 98 61q6 33 -12 48.5t-64 15.5z" />
    <glyph glyph-name="nine.sc" horiz-adv-x="537" 
d="M271 279q50 0 79 19.5t35 50.5q6 37 -17 60.5t-76 23.5q-92 0 -104 -71q-7 -38 14 -60.5t69 -22.5zM236 -11q-115 0 -164.5 40t-55.5 115l126 22q6 -66 95 -66q65 0 99.5 46t53.5 152v2l-11 2q-53 -100 -171 -100q-82 0 -124.5 43.5t-26.5 131.5q14 80 75.5 123t165.5 43
q128 0 185.5 -68t29.5 -227q-20 -116 -89 -187.5t-188 -71.5z" />
    <glyph glyph-name="periodcentered.sc" horiz-adv-x="211" 
d="M49 338h147l-25 -143h-148z" />
    <glyph glyph-name="bullet.sc" horiz-adv-x="290" 
d="M60 376h215l-37 -208h-216z" />
    <glyph glyph-name="ampersand.sc" horiz-adv-x="647" 
d="M267 400q-6 -33 7 -75q100 28 108 77q4 23 -8 37.5t-38 14.5q-59 0 -69 -54zM604 123l-17 -124q-30 -5 -68 -5q-97 0 -188 61q-71 -64 -179 -64q-79 0 -122.5 42t-30.5 119q18 99 158 141q-19 64 -10 113q13 72 65.5 105t128.5 33q87 0 125.5 -37t28.5 -97
q-16 -94 -203 -129q39 -71 109 -116q81 83 122 184l109 -22q-42 -109 -176 -190q43 -17 92 -17q28 0 56 3zM209 86q40 0 72 10q-73 68 -110 159q-45 -29 -51 -75q-7 -42 13.5 -68t75.5 -26z" />
    <glyph glyph-name="hyphen.sc" horiz-adv-x="350" 
d="M31 328h315l-22 -125h-315z" />
    <glyph glyph-name="endash.sc" horiz-adv-x="476" 
d="M31 328h441l-22 -124h-441z" />
    <glyph glyph-name="emdash.sc" horiz-adv-x="860" 
d="M31 328h825l-22 -124h-825z" />
    <glyph glyph-name="parenleft.sc" horiz-adv-x="330" 
d="M177 264q-20 -100 -4 -191t72 -179l-86 -59q-160 185 -114 449q41 227 261 394l68 -72q-162 -145 -197 -342z" />
    <glyph glyph-name="parenright.sc" horiz-adv-x="330" 
d="M158 250q37 207 -68 370l86 59q160 -185 114 -450q-41 -227 -261 -393l-68 72q162 144 197 342z" />
    <glyph glyph-name="bracketleft.sc" horiz-adv-x="300" 
d="M-18 -143l140 796h237l-17 -97h-104l-107 -603h105l-17 -96h-237z" />
    <glyph glyph-name="bracketright.sc" horiz-adv-x="300" 
d="M-55 -142l17 96h105l106 603h-104l16 96h238l-141 -795h-237z" />
    <glyph glyph-name="braceleft.sc" horiz-adv-x="354" 
d="M267 -138q-35 -3 -87 -3q-83 0 -117.5 31t-25.5 85q7 40 54.5 93.5t52.5 82.5q5 25 -10 37t-56 12h-65l18 104h65q79 0 88 54q6 31 -22.5 89.5t-21.5 100.5q19 106 180 106q64 0 87 -2l-17 -96q-18 1 -48 1q-69 0 -77 -47q-4 -20 16.5 -69t14.5 -85q-13 -78 -143 -97
l-2 -10q66 -8 91 -32.5t17 -67.5q-6 -34 -43.5 -80t-41.5 -65q-3 -22 10.5 -34t50.5 -12q30 0 49 1z" />
    <glyph glyph-name="braceright.sc" horiz-adv-x="354" 
d="M39 -141q-64 0 -87 2l17 97q18 -1 48 -1q68 0 77 46q4 20 -17 69t-15 85q14 79 144 98l2 9q-66 8 -91 32.5t-17 67.5q6 34 43.5 80t40.5 65q4 23 -9.5 35t-51.5 12q-30 0 -48 -1l17 96q34 3 87 3q82 0 117 -31t26 -85q-6 -32 -30.5 -63t-48.5 -59t-28 -53q-5 -25 10 -37
t55 -12h66l-19 -105h-64q-79 0 -89 -54q-5 -27 9.5 -57.5t28 -64t7.5 -68.5q-19 -106 -180 -106z" />
    <glyph glyph-name="dollar.sc" horiz-adv-x="526" 
d="M280 628h111l-24 -95q78 -11 112 -47.5t41 -96.5l-140 -25q-5 39 -25 56.5t-68 17.5q-76 0 -82 -41q-5 -26 15.5 -44t91.5 -30q114 -20 151.5 -67.5t24.5 -119.5q-22 -133 -217 -140l-10 -106h-111l27 110q-88 12 -125.5 53t-42.5 103l136 26q9 -85 114 -85q83 0 90 43
q5 29 -19 45.5t-96 27.5q-194 30 -168 187q23 127 204 136z" />
    <glyph glyph-name="sterling.sc" horiz-adv-x="522" 
d="M450 0h-471l19 111h86q11 26 15 49q3 18 2 31h-88l17 94h61q-7 59 1 104q12 71 67.5 111.5t151.5 40.5q188 0 198 -167l-124 -26q-5 43 -22 62.5t-59 19.5q-75 0 -87 -71q-4 -20 -2 -74h213l-17 -94h-202q-11 -48 -49 -80h310z" />
    <glyph glyph-name="yen.sc" horiz-adv-x="556" 
d="M500 119h-173l-21 -119h-140l21 119h-172l14 81h154l-21 56h-123l15 85h75l-70 181l2 10h150l63 -249h17l154 249h154l-2 -10l-133 -181h75l-15 -85h-123l-41 -56h154z" />
    <glyph glyph-name="Euro.sc" horiz-adv-x="615" 
d="M301 -13q-101 0 -159 52t-66 147h-65l9 56h56q1 22 5 44h-53l10 56h56q31 98 103 150.5t175 52.5q112 0 169.5 -56t59.5 -153l-135 -24q-1 59 -25 88.5t-78 29.5q-94 0 -130 -88h115l-10 -56h-122q0 -2 -1 -5.5t-1 -5.5q-4 -22 -5 -33h121l-9 -56h-111q11 -86 102 -86
q56 0 89 29.5t52 91.5l128 -23q-29 -103 -100.5 -157t-179.5 -54z" />
    <glyph glyph-name="percent.sc" horiz-adv-x="702" 
d="M-6 0l1 6l326 235l17 -13l-157 -228h-187zM535 532h188l-1 -5l-326 -236l-17 13zM189 228q-77 0 -115.5 46.5t-25.5 124.5q12 66 60 104.5t118 38.5q78 0 117 -46.5t26 -123.5q-12 -67 -60.5 -105.5t-119.5 -38.5zM198 312q28 0 46.5 18t24.5 53q6 37 -7.5 56t-42.5 19
q-58 0 -70 -69q-13 -77 49 -77zM486 -9q-78 0 -116.5 46.5t-24.5 124.5q11 66 59 104.5t119 38.5q78 0 117 -46.5t26 -123.5q-12 -67 -60.5 -105.5t-119.5 -38.5zM494 74q27 0 46 18.5t25 53.5q7 37 -6.5 56t-42.5 19q-58 0 -70 -69q-7 -38 6 -58t42 -20z" />
    <glyph glyph-name="plus.sc" horiz-adv-x="503" 
d="M149 41l29 167h-159l22 123h159l29 166h137l-29 -166h158l-21 -123h-159l-30 -167h-136z" />
    <glyph glyph-name="minus.sc" horiz-adv-x="481" 
d="M447 209h-426l22 121h426z" />
    <glyph glyph-name="equal.sc" horiz-adv-x="505" 
d="M445 121h-426l19 109h426zM479 311h-426l19 108h426z" />
    <glyph glyph-name="multiply.sc" horiz-adv-x="509" 
d="M345 50q-31 41 -101 137q-108 -105 -149 -142l-86 100q31 24 90.5 67t77.5 56q-82 82 -119 122l108 91q8 -10 43 -58t58 -80q142 135 150 142l84 -100q-6 -5 -167 -123q110 -112 119 -122z" />
    <glyph glyph-name="divide.sc" horiz-adv-x="481" 
d="M451 209h-426l21 121h426zM234 496h109l-18 -107h-110zM176 155h109l-18 -107h-110z" />
    <glyph glyph-name="caron.alt" horiz-adv-x="151" 
d="M109 660h102l-76 -252h-84z" />
    <glyph glyph-name="acute.case" horiz-adv-x="308" 
d="M106 650l-13 69l274 96l18 -101z" />
    <glyph glyph-name="hungarumlaut.case" horiz-adv-x="379" 
d="M160 640l-55 36l112 156l74 -49zM305 640l-52 41l123 150l70 -53z" />
    <glyph glyph-name="grave.case" horiz-adv-x="310" 
d="M351 650l-256 65l43 100l240 -95z" />
    <glyph glyph-name="circumflex.case" horiz-adv-x="356" 
d="M370 639l-104 76l-130 -76l-36 49l159 126h43l114 -126z" />
    <glyph glyph-name="caron.case" horiz-adv-x="356" 
d="M271 644h-43l-114 126l46 48l104 -76l130 76l36 -48z" />
    <glyph glyph-name="breve.case" horiz-adv-x="327" 
d="M255 737q74 0 96 71h62q-20 -156 -164 -156q-75 0 -107 40t-19 116h62q-4 -71 70 -71z" />
    <glyph glyph-name="tilde.case" horiz-adv-x="357" 
d="M186 823q26 0 45.5 -13t29 -29t22 -29t25.5 -13q20 0 30 18t17 61h58q0 -23 -5 -46q-21 -125 -103 -125q-23 0 -41 13t-27.5 29t-23.5 29t-30 13q-19 0 -29 -18t-17 -60h-59q1 20 5 45q11 62 38 93.5t65 31.5z" />
    <glyph glyph-name="macron.case" horiz-adv-x="315" 
d="M112 757h275l-17 -92h-274z" />
    <glyph glyph-name="dieresis.case" horiz-adv-x="353" 
d="M117 774h120l-20 -117h-122zM288 774h120l-20 -117h-122z" />
    <glyph glyph-name="dotaccent.case" horiz-adv-x="195" 
d="M119 786h131l-22 -125h-131z" />
    <glyph glyph-name="ring.case" horiz-adv-x="293" 
d="M350 743q-8 -46 -42.5 -73.5t-84.5 -27.5q-54 0 -81 32.5t-17 85.5q8 45 42 72t84 27q54 0 81 -31.5t18 -84.5zM190 753q-4 -22 7 -35.5t34 -13.5q21 0 35.5 12t17.5 32q4 22 -7 35.5t-34 13.5q-21 0 -35.5 -11.5t-17.5 -32.5z" />
    <glyph glyph-name="zero.numr" horiz-adv-x="389" 
d="M257 599q-76 0 -95 -100q-19 -107 62 -107q77 0 94 102q19 105 -61 105zM267 680q83 0 123.5 -50.5t24.5 -141.5q-15 -83 -69 -130t-133 -47q-83 0 -123.5 51t-24.5 142q15 84 69.5 130t132.5 46z" />
    <glyph glyph-name="one.numr" horiz-adv-x="293" 
d="M298 320h-262l14 83h92l32 183q-37 -21 -82 -38l-20 76l146 47h68l-47 -268h74z" />
    <glyph glyph-name="two.numr" horiz-adv-x="368" 
d="M253 603q-57 0 -77 -68l-90 18q37 126 174 126q77 0 113.5 -33t25.5 -90q-8 -47 -45.5 -68.5t-122.5 -36.5q-49 -10 -69.5 -21.5t-26.5 -32.5q56 8 104 8h136l-15 -85h-326q4 28 6 43q11 58 46 90.5t111 49.5q59 13 80 25t25 32q3 20 -8.5 31.5t-40.5 11.5z" />
    <glyph glyph-name="three.numr" horiz-adv-x="356" 
d="M200 312q-79 0 -115 29t-38 84l93 15q2 -26 17.5 -39t50.5 -13q58 0 64 37q4 20 -7 29.5t-43 9.5h-50l11 62h50q51 0 57 35q4 20 -8 30.5t-41 10.5q-32 0 -48.5 -12t-26.5 -38l-86 19q41 107 169 107q75 0 109.5 -28.5t26.5 -76.5q-10 -59 -99 -71l-2 -11q96 -12 82 -88
q-16 -91 -166 -91z" />
    <glyph glyph-name="four.numr" horiz-adv-x="366" 
d="M378 396h-45l-13 -76h-93l13 76h-200l11 62l207 212h124l-36 -201h45zM253 469l24 137l-4 2l-139 -145l1 -2q69 8 118 8z" />
    <glyph glyph-name="five.numr" horiz-adv-x="362" 
d="M213 386q57 0 65 40q7 47 -53 47q-40 0 -75 -19l-71 27l34 189h282l-15 -85q-101 0 -195 8l-14 -77q38 20 86 20q68 0 96.5 -33t19.5 -87q-19 -103 -170 -103q-143 0 -155 99l95 16q12 -42 70 -42z" />
    <glyph glyph-name="six.numr" horiz-adv-x="370" 
d="M232 476q-67 0 -74 -40q-4 -21 10.5 -34.5t48.5 -13.5q63 0 70 42q4 21 -9 33.5t-46 12.5zM154 472q0 -3 -1 -5l8 -1q34 63 115 63q55 0 84 -26.5t20 -82.5q-20 -108 -168 -108q-82 0 -121.5 48.5t-21.5 149.5q13 75 62 121.5t131 46.5q71 0 102 -28.5t35 -81.5l-94 -12
q-8 45 -52 45q-43 0 -65 -29.5t-34 -99.5z" />
    <glyph glyph-name="seven.numr" horiz-adv-x="332" 
d="M73 587l15 83h309l-15 -83q-126 -107 -161 -267h-116q36 161 198 273q-68 -6 -110 -6h-120z" />
    <glyph glyph-name="eight.numr" horiz-adv-x="369" 
d="M206 312q-87 0 -125 28.5t-29 77.5q10 61 112 74l2 9q-83 17 -71 87q16 90 161 90q79 0 113.5 -27.5t25.5 -79.5q-9 -56 -96 -70l-2 -10q95 -15 82 -86q-15 -93 -173 -93zM225 464q-69 0 -75 -38q-4 -19 11.5 -29.5t50.5 -10.5q68 0 74 38q4 20 -9.5 30t-51.5 10z
M249 602q-61 0 -68 -37q-4 -22 9.5 -31.5t45.5 -9.5q60 0 67 38q4 21 -9 30.5t-45 9.5z" />
    <glyph glyph-name="nine.numr" horiz-adv-x="364" 
d="M227 506q66 0 73 46q4 22 -10.5 36t-48.5 14q-62 0 -70 -45q-4 -24 10 -37.5t46 -13.5zM199 312q-135 0 -149 98l89 19q10 -40 66 -40q43 0 65 29t34 97v2l-7 2q-35 -66 -116 -66q-55 0 -84 29.5t-19 83.5q20 112 167 112q179 0 145 -197q-30 -169 -191 -169z" />
    <glyph glyph-name="zero.dnom" horiz-adv-x="389" 
d="M186 209q-76 0 -95 -100q-19 -107 62 -107q77 0 94 102q19 105 -61 105zM196 290q83 0 123.5 -50.5t24.5 -141.5q-15 -83 -69 -130t-133 -47q-83 0 -123.5 51t-24.5 142q15 84 69.5 130t132.5 46z" />
    <glyph glyph-name="one.dnom" horiz-adv-x="293" 
d="M232 -70h-262l14 83h92l32 183q-37 -21 -82 -38l-20 76l146 47h68l-47 -268h74z" />
    <glyph glyph-name="two.dnom" horiz-adv-x="368" 
d="M182 213q-57 0 -77 -68l-90 18q37 126 174 126q77 0 113.5 -33t25.5 -90q-8 -47 -45.5 -68.5t-122.5 -36.5q-49 -10 -69.5 -21.5t-26.5 -32.5q56 8 104 8h136l-15 -85h-326q4 28 6 43q11 58 46 90.5t111 49.5q59 13 80 25t25 32q3 20 -8.5 31.5t-40.5 11.5z" />
    <glyph glyph-name="three.dnom" horiz-adv-x="357" 
d="M130 -78q-79 0 -115 29t-38 84l93 15q2 -26 17.5 -39t50.5 -13q58 0 64 37q4 20 -7 29.5t-43 9.5h-50l11 62h50q51 0 57 35q4 20 -8 30.5t-41 10.5q-32 0 -48.5 -12t-26.5 -38l-86 19q41 107 169 107q75 0 109.5 -28.5t26.5 -76.5q-10 -59 -99 -71l-2 -11q96 -12 82 -88
q-16 -91 -166 -91z" />
    <glyph glyph-name="four.dnom" horiz-adv-x="366" 
d="M307 6h-45l-13 -76h-93l13 76h-200l11 62l207 212h124l-36 -201h45zM182 79l24 137l-4 2l-139 -145l1 -2q69 8 118 8z" />
    <glyph glyph-name="five.dnom" horiz-adv-x="362" 
d="M144 -4q57 0 65 40q7 47 -53 47q-40 0 -75 -19l-71 27l34 189h282l-15 -85q-101 0 -195 8l-14 -77q38 20 86 20q68 0 96.5 -33t19.5 -87q-19 -103 -170 -103q-143 0 -155 99l95 16q12 -42 70 -42z" />
    <glyph glyph-name="six.dnom" horiz-adv-x="369" 
d="M166 86q-67 0 -74 -40q-4 -21 10.5 -34.5t48.5 -13.5q63 0 70 42q4 21 -9 33.5t-46 12.5zM88 82q0 -3 -1 -5l8 -1q34 63 115 63q55 0 84 -26.5t20 -82.5q-20 -108 -168 -108q-82 0 -121.5 48.5t-21.5 149.5q13 75 62 121.5t131 46.5q71 0 102 -28.5t35 -81.5l-94 -12
q-8 45 -52 45q-43 0 -65 -29.5t-34 -99.5z" />
    <glyph glyph-name="seven.dnom" horiz-adv-x="332" 
d="M4 197l15 83h309l-15 -83q-126 -107 -161 -267h-116q36 161 198 273q-68 -6 -110 -6h-120z" />
    <glyph glyph-name="eight.dnom" horiz-adv-x="369" 
d="M136 -78q-87 0 -125 28.5t-29 77.5q10 61 112 74l2 9q-83 17 -71 87q16 90 161 90q79 0 113.5 -27.5t25.5 -79.5q-9 -56 -96 -70l-2 -10q95 -15 82 -86q-15 -93 -173 -93zM155 74q-69 0 -75 -38q-4 -19 11.5 -29.5t50.5 -10.5q68 0 74 38q4 20 -9.5 30t-51.5 10zM179 212
q-61 0 -68 -37q-4 -22 9.5 -31.5t45.5 -9.5q60 0 67 38q4 21 -9 30.5t-45 9.5z" />
    <glyph glyph-name="nine.dnom" horiz-adv-x="364" 
d="M157 116q66 0 73 46q4 22 -10.5 36t-48.5 14q-62 0 -70 -45q-4 -24 10 -37.5t46 -13.5zM129 -78q-135 0 -149 98l89 19q10 -40 66 -40q43 0 65 29t34 97v2l-7 2q-35 -66 -116 -66q-55 0 -84 29.5t-19 83.5q20 112 167 112q179 0 145 -197q-30 -169 -191 -169z" />
    <glyph glyph-name="zero.circle" horiz-adv-x="457" 
d="M228 440q-91 0 -91 -128q0 -132 90 -132q92 0 92 132q0 65 -21.5 96.5t-69.5 31.5zM228 536q98 0 152 -56.5t54 -167.5t-53.5 -168.5t-152.5 -57.5t-152.5 57.5t-53.5 168.5q0 110 55 167t151 57z" />
    <glyph glyph-name="one.circle" horiz-adv-x="366" 
d="M341 91h-308v93h112v237q-37 -20 -93 -39l-36 87l175 52h63v-337h87v-93z" />
    <glyph glyph-name="two.circle" horiz-adv-x="453" 
d="M236 441q-77 0 -90 -88l-108 13q22 165 199 165q182 0 182 -145q0 -112 -187 -146q-61 -13 -83.5 -25.5t-26.5 -37.5q70 8 136 8h161v-93h-394q-2 36 -2 55q0 72 35.5 108t117.5 55q81 20 105.5 36t24.5 44q0 51 -70 51z" />
    <glyph glyph-name="three.circle" horiz-adv-x="445" 
d="M227 85q-92 0 -142 32.5t-60 104.5l112 13q7 -33 26 -49t65 -16q77 0 77 51q0 25 -15.5 36.5t-55.5 11.5h-77v74h77q61 0 61 47q0 27 -16 39.5t-52 12.5q-41 0 -58 -15.5t-23 -49.5l-107 8q21 144 187 144q92 0 133.5 -29t41.5 -87q0 -82 -108 -101v-8q70 -6 98 -28.5
t28 -68.5q0 -57 -46.5 -89.5t-145.5 -32.5z" />
    <glyph glyph-name="four.circle" horiz-adv-x="453" 
d="M434 186h-56v-94h-110v94h-250v75l218 261h142v-251h56v-85zM267 271h1v168l-7 2l-142 -173l4 -5q69 8 144 8z" />
    <glyph glyph-name="five.circle" horiz-adv-x="445" 
d="M225 170q79 0 79 56q0 55 -78 55q-54 0 -91 -22l-88 31v232h344v-100q-127 0 -245 10v-103q49 28 118 28q75 0 113.5 -36t38.5 -96q0 -140 -192 -140q-86 0 -134.5 27.5t-67.5 86.5l107 27q26 -56 96 -56z" />
    <glyph glyph-name="six.circle" horiz-adv-x="453" 
d="M233 287q-88 0 -88 -57q0 -26 21.5 -42t64.5 -16q80 0 80 60q0 55 -78 55zM423 230q0 -71 -49 -109t-145 -38q-97 0 -150 50.5t-53 170.5q0 100 51.5 163t155.5 63q91 0 130.5 -33.5t48.5 -104.5l-109 -12q-7 31 -22 46t-50 15q-53 0 -75 -38.5t-22 -126.5v-1l10 -1
q30 76 135 76q144 0 144 -120z" />
    <glyph glyph-name="seven.circle" horiz-adv-x="401" 
d="M11 424v98h379v-98q-136 -133 -145 -332h-129q10 204 183 339q-77 -7 -146 -7h-142z" />
    <glyph glyph-name="eight.circle" horiz-adv-x="447" 
d="M223 83q-197 0 -197 123q0 41 29 65t91 34v8q-51 11 -76.5 34.5t-25.5 65.5q0 117 179 117q181 0 181 -117q0 -42 -25.5 -65.5t-76.5 -34.5v-8q119 -19 119 -99q0 -123 -198 -123zM223 271q-83 0 -83 -51q0 -50 83 -50q84 0 84 50q0 25 -18.5 38t-65.5 13zM223 442
q-71 0 -71 -49q0 -50 71 -52q72 2 72 52q0 49 -72 49z" />
    <glyph glyph-name="nine.circle" horiz-adv-x="448" 
d="M217 317q43 0 64.5 17.5t21.5 45.5q0 27 -21 44t-63 17q-80 0 -80 -64q0 -27 20 -43.5t58 -16.5zM217 83q-92 0 -136 32.5t-54 93.5l109 18q12 -54 83 -54q53 0 74 36.5t21 121.5l-9 1q-32 -78 -131 -78q-147 0 -147 126q0 71 49 110.5t142 39.5q99 0 152 -50t53 -170
q0 -101 -51 -164t-155 -63z" />
    <glyph glyph-name="thinspace" horiz-adv-x="85" 
 />
    </font>
</defs>
</svg>
