<?xml version="1.0" standalone="no"?>
<!DOCTYPE svg PUBLIC "-//W3C//DTD SVG 1.1//EN" "http://www.w3.org/Graphics/SVG/1.1/DTD/svg11.dtd" >
<svg xmlns="http://www.w3.org/2000/svg" xmlns:xlink="http://www.w3.org/1999/xlink" version="1.1">
<metadata>
Created by FontForge 20170731 at Sun Aug  4 23:51:14 2013
 By Aleksey,,,
Copyright 2011 Schwartzco Inc dba Commercial Type.
</metadata>
<defs>
<font id="NeueHaasDisplay-Thin" horiz-adv-x="500" >
  <font-face 
    font-family="Neue Haas Grotesk Display Pro"
    font-weight="300"
    font-stretch="normal"
    units-per-em="1000"
    panose-1="2 13 2 4 3 5 2 5 2 3"
    ascent="818"
    descent="-182"
    x-height="517"
    cap-height="715"
    bbox="-186 -204 1090 912"
    underline-thickness="50"
    underline-position="-350"
    unicode-range="U+0020-FB04"
  />
<missing-glyph 
 />
    <glyph glyph-name="f_f" unicode="ff" horiz-adv-x="462" 
d="M299 0v476h-161v-476h-49v476h-77v41h77v94q0 104 111 104h31v-43h-28q-36 0 -50.5 -15.5t-14.5 -46.5v-93h161v98q0 104 111 104h31v-43h-28q-36 0 -50.5 -15.5t-14.5 -46.5v-97h96v-41h-96v-476h-49z" />
    <glyph glyph-name="fi" unicode="fi" horiz-adv-x="401" 
d="M12 476v41h77v98q0 104 111 104h31v-43h-28q-36 0 -50.5 -15.5t-14.5 -46.5v-97h96v-41h-96v-476h-49v476h-77zM299 0v517h49v-517h-49zM299 635v80h49v-80h-49z" />
    <glyph glyph-name="fl" unicode="fl" horiz-adv-x="401" 
d="M12 476v41h77v98q0 104 111 104h31v-43h-28q-36 0 -50.5 -15.5t-14.5 -46.5v-97h96v-41h-96v-476h-49v476h-77zM299 0v715h49v-715h-49z" />
    <glyph glyph-name="f_f_i" unicode="ffi" horiz-adv-x="611" 
d="M299 0v476h-161v-476h-49v476h-77v41h77v94q0 104 111 104h31v-43h-28q-36 0 -50.5 -15.5t-14.5 -46.5v-93h161v98q0 104 111 104h31v-43h-28q-36 0 -50.5 -15.5t-14.5 -46.5v-97h96v-41h-96v-476h-49zM509 0v517h49v-517h-49zM509 635v80h49v-80h-49z" />
    <glyph glyph-name="f_f_l" unicode="ffl" horiz-adv-x="611" 
d="M299 0v476h-161v-476h-49v476h-77v41h77v94q0 104 111 104h31v-43h-28q-36 0 -50.5 -15.5t-14.5 -46.5v-93h161v98q0 104 111 104h31v-43h-28q-36 0 -50.5 -15.5t-14.5 -46.5v-97h96v-41h-96v-476h-49zM509 0v715h49v-715h-49z" />
    <glyph glyph-name=".notdef" 
 />
    <glyph glyph-name=".null" horiz-adv-x="0" 
 />
    <glyph glyph-name="nonmarkingreturn" horiz-adv-x="333" 
 />
    <glyph glyph-name="space" unicode=" " horiz-adv-x="161" 
 />
    <glyph glyph-name="exclam" unicode="!" horiz-adv-x="197" 
d="M81 173l-10 313v229h55v-229l-10 -313h-35zM68 0v79h61v-79h-61z" />
    <glyph glyph-name="quotedbl" unicode="&#x22;" horiz-adv-x="262" 
d="M169 501v214h49v-214h-49zM44 501v214h49v-214h-49z" />
    <glyph glyph-name="numbersign" unicode="#" horiz-adv-x="551" 
d="M66 437l7 44h100l29 205h46l-29 -205h150l29 205h46l-29 -205h102l-7 -44h-101l-25 -180h100l-7 -44h-99l-29 -213h-46l29 213h-150l-29 -213h-46l29 213h-102l7 44h101l25 180h-101zM213 437l-25 -180h150l25 180h-150z" />
    <glyph glyph-name="dollar" unicode="$" horiz-adv-x="539" 
d="M253 -85v88q-104 8 -163.5 69t-64.5 154h49q3 -77 51 -124.5t128 -55.5v300q-106 22 -155 59.5t-49 116.5q0 76 56.5 124.5t147.5 52.5v58h40v-59q85 -7 135.5 -57.5t58.5 -128.5h-49q-7 62 -46 99t-99 43v-268q106 -21 160 -60t54 -127q0 -84 -59.5 -139t-154.5 -58v-87
h-40zM456 195q0 64 -35.5 93.5t-127.5 49.5v-293q71 4 117 44t46 106zM99 523q0 -56 34.5 -83.5t119.5 -45.5v261q-72 -4 -113 -40t-41 -92z" />
    <glyph glyph-name="percent" unicode="%" horiz-adv-x="790" 
d="M182 313q-64 0 -106 51.5t-42 141.5q0 91 42.5 142t105.5 51t105.5 -50.5t42.5 -142.5q0 -90 -42 -141.5t-106 -51.5zM608 -13q-64 0 -106 51.5t-42 141.5q0 91 42.5 142t105.5 51t105.5 -50.5t42.5 -142.5q0 -90 -42 -141.5t-106 -51.5zM608 26q44 0 72.5 38.5
t28.5 115.5q0 75 -29 114.5t-72 39.5q-44 0 -72.5 -38.5t-28.5 -115.5q0 -75 29 -114.5t72 -39.5zM182 352q44 0 72.5 38.5t28.5 115.5q0 75 -29 114.5t-72 39.5q-44 0 -72.5 -38.5t-28.5 -115.5q0 -75 29 -114.5t72 -39.5zM174 0l396 685h46l-396 -685h-46z" />
    <glyph glyph-name="ampersand" unicode="&#x26;" horiz-adv-x="571" 
d="M246 -13q-94 0 -156 51t-62 139q0 78 43 126t126 93l-16 21q-33 43 -46.5 75.5t-13.5 71.5q0 59 42 100t105 41q61 0 101.5 -38.5t40.5 -105.5q0 -61 -37 -99t-107 -76l170 -220q27 66 30 155h49q0 -111 -46 -198l95 -123h-61l-62 80q-72 -93 -195 -93zM248 32
q105 0 163 87l-188 243q-67 -37 -104 -78.5t-37 -106.5q0 -66 45 -105.5t121 -39.5zM173 563q0 -55 43 -111l24 -32q63 35 91 66.5t28 76.5t-25.5 71.5t-65.5 26.5t-67.5 -27t-27.5 -71z" />
    <glyph glyph-name="quotesingle" unicode="'" horiz-adv-x="137" 
d="M44 501v214h49v-214h-49z" />
    <glyph glyph-name="parenleft" unicode="(" horiz-adv-x="271" 
d="M206 -118q-132 203 -132 453q0 229 132 419h46q-122 -194 -122 -419q0 -252 122 -453h-46z" />
    <glyph glyph-name="parenright" unicode=")" horiz-adv-x="271" 
d="M65 754q132 -203 132 -453q0 -229 -132 -419h-46q122 194 122 419q0 252 -122 453h46z" />
    <glyph glyph-name="asterisk" unicode="*" horiz-adv-x="354" 
d="M198 715v-120l104 37l13 -34l-103 -37l67 -94l-31 -22l-71 101l-71 -101l-31 22l67 94l-103 37l13 34l104 -37v120h42z" />
    <glyph glyph-name="plus" unicode="+" horiz-adv-x="510" 
d="M56 303v46h174v187h50v-187h174v-46h-174v-190h-50v190h-174z" />
    <glyph glyph-name="comma" unicode="," horiz-adv-x="143" 
d="M40 -94v29q27 10 27 59v6h-26v79h61v-82q0 -44 -15.5 -64.5t-46.5 -26.5z" />
    <glyph glyph-name="hyphen" unicode="-" horiz-adv-x="314" 
d="M33 260v44h248v-44h-248z" />
    <glyph glyph-name="period" unicode="." horiz-adv-x="143" 
d="M41 0v79h61v-79h-61z" />
    <glyph glyph-name="slash" unicode="/" horiz-adv-x="368" 
d="M16 0l284 715h52l-284 -715h-52z" />
    <glyph glyph-name="zero" unicode="0" horiz-adv-x="558" 
d="M279 -13q-117 0 -181 95t-64 261t66 261t180 95q113 0 178.5 -94.5t65.5 -261.5q0 -166 -63.5 -261t-181.5 -95zM280 32q92 0 141.5 81.5t49.5 229.5q0 144 -50.5 228t-140.5 84q-92 0 -142.5 -82.5t-50.5 -229.5q0 -145 51 -228t142 -83z" />
    <glyph glyph-name="one" unicode="1" horiz-adv-x="315" 
d="M173 0v526h-140v35q85 5 115 29t39 99h37v-689h-51z" />
    <glyph glyph-name="two" unicode="2" horiz-adv-x="496" 
d="M32 0q0 41 7.5 76.5t26 64.5t34 49t46.5 43.5t47 34.5t52 33q7 4 27 16.5t26.5 16.5t23 15.5t22.5 16.5t18.5 16t16.5 19t12 20.5t10.5 24.5t5 26.5t2.5 31.5q0 72 -39.5 111t-106.5 39q-74 0 -117.5 -45.5t-46.5 -133.5h-51q1 107 62 165.5t154 58.5q89 0 143.5 -55.5
t54.5 -137.5q0 -23 -3 -43t-12 -38t-15 -31.5t-22.5 -29.5t-23.5 -24t-29.5 -23.5t-29 -20t-33 -20.5t-31.5 -19q-33 -20 -49.5 -31.5t-43 -33t-40.5 -40t-26.5 -46.5t-15.5 -59h368v-47h-424z" />
    <glyph glyph-name="three" unicode="3" horiz-adv-x="502" 
d="M251 -13q-97 0 -160 59.5t-63 156.5h53q4 -81 50 -124.5t121 -43.5q79 0 121.5 42t42.5 112q0 71 -42.5 111t-118.5 40h-51v45h50q63 0 100.5 36.5t37.5 96.5q0 64 -38 100.5t-100 36.5q-72 0 -112.5 -47.5t-40.5 -120.5h-52q1 94 56 153t151 59q81 0 134.5 -49
t53.5 -130q0 -112 -96 -152v-3q121 -45 121 -179q0 -91 -59 -145t-159 -54z" />
    <glyph glyph-name="four" unicode="4" horiz-adv-x="518" 
d="M340 0v180h-318v50l323 462h46v-467h101v-45h-101v-180h-51zM77 228v-3h263v376h-2z" />
    <glyph glyph-name="five" unicode="5" horiz-adv-x="484" 
d="M237 -13q-91 0 -149.5 53t-59.5 136h51q18 -141 157 -141q77 0 119.5 50.5t42.5 133.5q0 80 -42.5 127t-112.5 47q-103 0 -148 -70h-49l50 362h326v-46h-286l-34 -253h2q59 53 148 53q83 0 141 -58.5t58 -163.5q0 -101 -58 -165.5t-156 -64.5z" />
    <glyph glyph-name="six" unicode="6" horiz-adv-x="519" 
d="M273 -13q-88 0 -150 56q-89 79 -89 304q0 155 65 253.5t183 98.5q80 0 128 -46.5t56 -122.5h-52q-5 55 -40 89.5t-91 34.5q-99 0 -149 -91.5t-48 -248.5h2q61 122 186 122q94 0 153 -60.5t59 -158.5q0 -100 -58.5 -165t-154.5 -65zM271 31q73 0 117.5 52t44.5 133
q0 80 -43.5 128t-116.5 48q-72 0 -120.5 -51t-48.5 -129q0 -82 46 -131.5t121 -49.5z" />
    <glyph glyph-name="seven" unicode="7" horiz-adv-x="473" 
d="M134 0q16 178 88 351.5t175 285.5v2h-374v46h428v-47q-103 -108 -173 -275t-88 -363h-56z" />
    <glyph glyph-name="eight" unicode="8" horiz-adv-x="522" 
d="M261 -13q-97 0 -163 56t-66 147q0 67 35 112.5t95 67.5v3q-47 20 -73 59.5t-26 91.5q0 76 56 125.5t141 49.5q89 0 143 -50.5t54 -124.5q0 -52 -27.5 -90.5t-74.5 -58.5v-3q59 -18 97 -68t38 -114q0 -94 -65.5 -148.5t-163.5 -54.5zM261 32q80 0 128 45t48 113
q0 69 -48.5 113t-130.5 44q-81 0 -127 -44t-46 -113t47 -113.5t129 -44.5zM258 391q67 0 107 38.5t40 92.5q0 56 -38.5 94.5t-106.5 38.5q-67 0 -106 -38.5t-39 -94.5q0 -55 38 -93t105 -38z" />
    <glyph glyph-name="nine" unicode="9" horiz-adv-x="517" 
d="M237 -13q-82 0 -133.5 46t-56.5 123h53q5 -57 42 -90.5t94 -33.5q75 0 119 46q80 80 77 293h-2q-27 -58 -75.5 -89.5t-109.5 -31.5q-94 0 -153 60.5t-59 158.5q0 99 60 164.5t153 65.5q87 0 150 -55q48 -41 67.5 -116t19.5 -189q0 -198 -87 -289q-60 -63 -159 -63z
M246 294q72 0 120 50t48 128q0 83 -45.5 133t-120.5 50q-72 0 -117 -52.5t-45 -132.5t43 -128t117 -48z" />
    <glyph glyph-name="colon" unicode=":" horiz-adv-x="153" 
d="M46 309v79h61v-79h-61zM46 0v79h61v-79h-61z" />
    <glyph glyph-name="semicolon" unicode=";" horiz-adv-x="153" 
d="M45 -94v29q27 10 27 59v6h-26v79h61v-82q0 -44 -15.5 -64.5t-46.5 -26.5zM46 309v79h61v-79h-61z" />
    <glyph glyph-name="less" unicode="&#x3c;" horiz-adv-x="491" 
d="M437 117l-387 166v57l387 166v-49l-343 -145v-2l343 -144v-49z" />
    <glyph glyph-name="equal" unicode="=" horiz-adv-x="510" 
d="M56 361v46h398v-46h-398zM56 211v46h398v-46h-398z" />
    <glyph glyph-name="greater" unicode="&#x3e;" horiz-adv-x="491" 
d="M54 506l387 -166v-57l-387 -166v49l343 145v2l-343 144v49z" />
    <glyph glyph-name="question" unicode="?" horiz-adv-x="493" 
d="M198 173q0 84 21.5 127t79.5 91q31 26 46 40.5t31 46.5t16 71q0 62 -39 97.5t-102 35.5q-75 0 -119.5 -46.5t-46.5 -118.5h-51q1 86 57.5 148.5t162.5 62.5q85 0 138 -50.5t53 -127.5q0 -18 -1.5 -33.5t-7 -30t-9 -25t-12.5 -23t-13.5 -18.5t-17 -18t-16 -15.5t-18 -15.5
t-17.5 -14q-52 -44 -69 -78.5t-17 -105.5h-49zM192 0v79h61v-79h-61z" />
    <glyph glyph-name="at" unicode="@" horiz-adv-x="863" 
d="M396 82q-75 0 -118 51.5t-43 137.5q0 114 56 183.5t141 69.5q93 0 131 -80h3l11 72h42l-34 -282q-6 -46 9.5 -74.5t52.5 -28.5q63 0 96 57t33 154q0 157 -91 242t-236 85q-151 0 -256.5 -103.5t-105.5 -272.5q0 -161 89 -256t253 -95q91 0 195 41l15 -38
q-101 -45 -211 -45q-179 0 -283 106.5t-104 285.5q0 96 35 176.5t93 132.5t130.5 81t150.5 29q99 0 182.5 -41t136.5 -126.5t53 -201.5q0 -111 -47.5 -180.5t-127.5 -69.5q-45 0 -71 24t-30 56h-1q-19 -39 -60 -64.5t-89 -25.5zM395 123q77 0 115.5 60.5t38.5 155.5
q0 67 -29 106t-89 39q-68 0 -107.5 -60t-39.5 -153q0 -67 27.5 -107.5t83.5 -40.5z" />
    <glyph glyph-name="A" unicode="A" horiz-adv-x="624" 
d="M6 0l276 715h59l277 -715h-54l-88 229h-329l-88 -229h-53zM273 557l-109 -284h295l-108 284l-39 106h-2q-20 -61 -37 -106z" />
    <glyph glyph-name="B" unicode="B" horiz-adv-x="609" 
d="M62 0v715h293q87 0 139 -46q55 -47 55 -132q0 -61 -25 -99t-80 -59v-2q136 -42 136 -179q0 -90 -51 -141q-59 -57 -163 -57h-304zM114 48h248q83 0 127 44q38 38 38 108q0 69 -43.5 109t-117.5 40h-252v-301zM114 395h246q65 0 100.5 38t35.5 100q0 65 -37.5 100
t-102.5 35h-242v-273z" />
    <glyph glyph-name="C" unicode="C" horiz-adv-x="656" 
d="M346 -13q-145 0 -228.5 101t-83.5 268t85 270t230 103q106 0 176 -55t91 -155h-52q-15 75 -71.5 120t-143.5 45q-126 0 -193.5 -92.5t-67.5 -235.5t66.5 -233t191.5 -90q102 0 163.5 63t71.5 163h49q-10 -111 -66 -178q-78 -94 -218 -94z" />
    <glyph glyph-name="D" unicode="D" horiz-adv-x="644" 
d="M62 0v715h250q150 0 224 -97.5t74 -262.5q0 -164 -77 -259.5t-228 -95.5h-243zM114 46h189q126 0 189.5 81.5t63.5 227.5q0 148 -60.5 230.5t-185.5 82.5h-196v-622z" />
    <glyph glyph-name="E" unicode="E" horiz-adv-x="582" 
d="M62 0v715h474v-46h-422v-278h388v-45h-388v-298h432v-48h-484z" />
    <glyph glyph-name="F" unicode="F" horiz-adv-x="542" 
d="M62 0v715h454v-46h-402v-275h347v-45h-347v-349h-52z" />
    <glyph glyph-name="G" unicode="G" horiz-adv-x="709" 
d="M615 0l-6 128h-4q-75 -141 -249 -141q-155 0 -238.5 103t-83.5 268q0 164 89 267.5t245 103.5q106 0 180.5 -54.5t94.5 -161.5h-52q-17 84 -78 127.5t-145 43.5q-137 0 -208.5 -92t-71.5 -234t67.5 -233.5t200.5 -91.5q124 0 186.5 72.5t62.5 177.5v31h-240v46h290v-360
h-40z" />
    <glyph glyph-name="H" unicode="H" horiz-adv-x="648" 
d="M62 0v715h52v-313h420v313h52v-715h-52v358h-420v-358h-52z" />
    <glyph glyph-name="I" unicode="I" horiz-adv-x="184" 
d="M66 0v715h52v-715h-52z" />
    <glyph glyph-name="J" unicode="J" horiz-adv-x="460" 
d="M219 -13q-95 0 -146 49t-51 148v38h51v-36q0 -81 36.5 -116.5t110.5 -35.5q62 0 95.5 33.5t33.5 100.5v547h52v-551q0 -78 -46.5 -127.5t-135.5 -49.5z" />
    <glyph glyph-name="K" unicode="K" horiz-adv-x="613" 
d="M62 0v715h52v-399l409 400h69l-305 -295l319 -421h-63l-293 385l-136 -133v-252h-52z" />
    <glyph glyph-name="L" unicode="L" horiz-adv-x="524" 
d="M62 0v715h52v-667h385v-48h-437z" />
    <glyph glyph-name="M" unicode="M" horiz-adv-x="785" 
d="M62 0v715h75l257 -644h2l249 644h78v-715h-51v646h-2q-19 -57 -36 -101l-214 -545h-52l-218 545l-36 101h-2v-646h-50z" />
    <glyph glyph-name="N" unicode="N" horiz-adv-x="649" 
d="M62 0v715h58l332 -505l83 -135h2v640h50v-715h-55l-328 494l-90 143h-2v-637h-50z" />
    <glyph glyph-name="O" unicode="O" horiz-adv-x="710" 
d="M354 -13q-144 0 -232 105t-88 266t88 266t232 105t233 -105t89 -266t-89 -266t-233 -105zM354 34q126 0 197 92.5t71 231.5t-71 231.5t-197 92.5t-196 -92.5t-70 -231.5t70 -231.5t196 -92.5z" />
    <glyph glyph-name="P" unicode="P" horiz-adv-x="575" 
d="M62 0v715h270q107 0 166 -57q51 -49 51 -139q0 -200 -224 -200h-211v-319h-52zM114 668v-303h207q175 0 175 153q0 72 -43 111t-125 39h-214z" />
    <glyph glyph-name="Q" unicode="Q" horiz-adv-x="710" 
d="M630 -41l-99 82q-76 -54 -177 -54q-144 0 -232 105t-88 266t88 266t232 105t233 -105t89 -266q0 -180 -108 -286l92 -75zM354 34q78 0 138 38l-81 68l30 37l90 -74q91 89 91 255q0 139 -71 231.5t-197 92.5t-196 -92.5t-70 -231.5t70 -231.5t196 -92.5z" />
    <glyph glyph-name="R" unicode="R" horiz-adv-x="615" 
d="M62 0v715h309q97 0 147.5 -49.5t50.5 -141.5q0 -132 -117 -169v-3q54 -18 76.5 -62.5t25.5 -132.5q5 -135 30 -153v-4h-56q-12 7 -17 37.5t-9 122.5q-4 100 -38.5 135.5t-119.5 35.5h-230v-331h-52zM114 669v-292h240q79 0 120.5 37.5t41.5 107.5q0 147 -151 147h-251z
" />
    <glyph glyph-name="S" unicode="S" horiz-adv-x="581" 
d="M302 -13q-130 0 -201.5 66t-77.5 173h53q4 -90 64.5 -141.5t160.5 -51.5q84 0 138 43t54 117q0 75 -46 105.5t-179 55.5q-111 20 -165 61t-54 125t65.5 136.5t171.5 52.5t168.5 -54.5t70.5 -144.5h-52q-7 73 -58 113t-128 40q-86 0 -135.5 -39.5t-49.5 -102.5t43.5 -92.5
t154.5 -49.5q48 -9 80 -17.5t66.5 -24t54.5 -35.5t33 -51.5t13 -73.5q0 -92 -67.5 -151t-177.5 -59z" />
    <glyph glyph-name="T" unicode="T" horiz-adv-x="574" 
d="M17 668v47h540v-47h-244v-668h-52v668h-244z" />
    <glyph glyph-name="U" unicode="U" horiz-adv-x="622" 
d="M308 -11q-119 0 -185.5 60t-66.5 176v490h52v-486q0 -102 51 -148t152 -46q203 0 203 194v486h52v-490q0 -118 -69 -177t-189 -59z" />
    <glyph glyph-name="V" unicode="V" horiz-adv-x="594" 
d="M268 0l-262 715h53l191 -525l44 -133h2q27 85 47 138l193 520h52l-265 -715h-55z" />
    <glyph glyph-name="W" unicode="W" horiz-adv-x="857" 
d="M204 0l-193 715h52l132 -494l37 -154h2q22 93 36 146l133 502h55l134 -500l37 -148h2q21 96 36 154l129 494h50l-190 -715h-56l-140 532l-28 121h-2q-15 -72 -28 -121l-140 -532h-58z" />
    <glyph glyph-name="X" unicode="X" horiz-adv-x="573" 
d="M11 0l245 365l-234 350h59l207 -312h2l201 312h58l-230 -351l243 -364h-59l-216 326h-2l-216 -326h-58z" />
    <glyph glyph-name="Y" unicode="Y" horiz-adv-x="579" 
d="M263 0v318l-258 397h57l227 -350h2l227 350h56l-259 -399v-316h-52z" />
    <glyph glyph-name="Z" unicode="Z" horiz-adv-x="573" 
d="M24 0v51l442 616v3h-414v45h475v-48l-443 -618v-3h459v-46h-519z" />
    <glyph glyph-name="bracketleft" unicode="[" horiz-adv-x="282" 
d="M82 -118v872h165v-45h-115v-781h115v-46h-165z" />
    <glyph glyph-name="backslash" unicode="\" horiz-adv-x="368" 
d="M300 0l-284 715h52l284 -715h-52z" />
    <glyph glyph-name="bracketright" unicode="]" horiz-adv-x="282" 
d="M200 754v-872h-165v46h115v781h-115v45h165z" />
    <glyph glyph-name="asciicircum" unicode="^" horiz-adv-x="381" 
d="M65 458h-53l150 257h57l150 -257h-53l-125 217h-2z" />
    <glyph glyph-name="underscore" unicode="_" horiz-adv-x="368" 
d="M-2 -166v41h372v-41h-372z" />
    <glyph glyph-name="grave" unicode="`" 
d="M291 588h-44l-101 127h69z" />
    <glyph glyph-name="a" unicode="a" horiz-adv-x="492" 
d="M446 -8q-31 0 -49.5 17.5t-18.5 52.5v18h-3q-66 -93 -187 -93q-74 0 -119.5 37.5t-45.5 106.5q0 44 15.5 74.5t47 47.5t63.5 24.5t78 12.5q96 9 123 20t27 46v18q0 112 -130 112q-145 0 -156 -116h-50q16 158 206 158q179 0 179 -157v-304q0 -36 33 -36q9 0 24 5h3v-36
q-16 -8 -40 -8zM193 28q84 0 134 47t50 109v96q-38 -19 -144 -31q-41 -5 -64.5 -10t-48.5 -17t-36 -35t-11 -58q0 -52 33 -76.5t87 -24.5z" />
    <glyph glyph-name="b" unicode="b" horiz-adv-x="516" 
d="M278 -13q-116 0 -177 98h-2v-85h-49v715h49v-297h2q59 110 181 110q92 0 150.5 -72.5t58.5 -198.5q0 -118 -57.5 -194t-155.5 -76zM276 28q79 0 122 65t43 163q0 105 -44 167.5t-122 62.5q-84 0 -132.5 -64.5t-48.5 -165.5q0 -105 48 -166.5t134 -61.5z" />
    <glyph glyph-name="c" unicode="c" horiz-adv-x="472" 
d="M250 -13q-108 0 -166.5 75t-58.5 196t59 195.5t167 74.5q82 0 134.5 -41.5t64.5 -118.5h-48q-24 118 -151 118q-89 0 -132.5 -64t-43.5 -164t44 -164t131 -64q66 0 109 40t51 105h46q-10 -86 -64 -137t-142 -51z" />
    <glyph glyph-name="d" unicode="d" horiz-adv-x="518" 
d="M243 -13q-101 0 -159.5 75.5t-58.5 194.5q0 125 62 198t155 73q122 0 175 -105h2v292h49v-715h-49v86h-2q-59 -99 -174 -99zM245 28q83 0 131 62t48 166q0 101 -47 165.5t-131 64.5q-79 0 -125 -63t-46 -167q0 -99 43.5 -163.5t126.5 -64.5z" />
    <glyph glyph-name="e" unicode="e" horiz-adv-x="491" 
d="M466 253h-391q1 -99 47 -161t137 -62q120 0 157 124h47q-17 -76 -69 -121.5t-135 -45.5q-111 0 -172.5 74.5t-61.5 196.5q0 120 62.5 195t167.5 75q83 0 136 -50q77 -71 75 -225zM416 293q-2 84 -41.5 138.5t-119.5 54.5t-125.5 -53t-53.5 -140h340z" />
    <glyph glyph-name="f" unicode="f" horiz-adv-x="252" 
d="M12 476v41h77v98q0 104 111 104h31v-43h-28q-36 0 -50.5 -15.5t-14.5 -46.5v-97h96v-41h-96v-476h-49v476h-77z" />
    <glyph glyph-name="g" unicode="g" horiz-adv-x="517" 
d="M250 -187q-88 0 -140.5 37t-58.5 93h49q10 -44 50 -66t98 -22q86 0 128 43t42 116v88h-3q-58 -97 -171 -97q-102 0 -160.5 71t-58.5 188q0 124 63.5 194t158.5 70q111 0 168 -100h3v89h49v-502q0 -88 -51 -142q-60 -60 -166 -60zM246 46q83 0 129.5 58t46.5 159
q0 100 -45 161.5t-128 61.5q-79 0 -126.5 -61t-47.5 -162q0 -97 43.5 -157t127.5 -60z" />
    <glyph glyph-name="h" unicode="h" horiz-adv-x="490" 
d="M104 715v-285h2q60 97 180 97q69 0 113.5 -41.5t44.5 -116.5v-369h-49v364q0 121 -118 121q-70 0 -121.5 -43.5t-51.5 -107.5v-334h-49v715h49z" />
    <glyph glyph-name="i" unicode="i" horiz-adv-x="155" 
d="M53 0v517h49v-517h-49zM53 635v80h49v-80h-49z" />
    <glyph glyph-name="j" unicode="j" horiz-adv-x="155" 
d="M-15 -166v42h10q30 0 44 15.5t14 49.5v576h49v-577q0 -56 -25.5 -81t-78.5 -25h-13zM53 635v80h49v-80h-49z" />
    <glyph glyph-name="k" unicode="k" horiz-adv-x="467" 
d="M407 0l-200 297l-108 -104v-193h-49v715h49v-465l278 267h62l-197 -187l221 -330h-56z" />
    <glyph glyph-name="l" unicode="l" horiz-adv-x="155" 
d="M53 0v715h49v-715h-49z" />
    <glyph glyph-name="m" unicode="m" horiz-adv-x="777" 
d="M50 0v517h49v-81h2q58 91 160 91q50 0 87.5 -24.5t52.5 -70.5h3q55 95 171 95q67 0 111.5 -41.5t44.5 -116.5v-369h-49v364q0 121 -118 121q-64 0 -106.5 -40t-42.5 -111v-334h-49v364q0 61 -31 91t-83 30q-62 0 -107.5 -44t-45.5 -107v-334h-49z" />
    <glyph glyph-name="n" unicode="n" horiz-adv-x="485" 
d="M99 517v-87h2q60 97 180 97q69 0 113.5 -41.5t44.5 -116.5v-369h-49v364q0 121 -118 121q-70 0 -121.5 -43.5t-51.5 -107.5v-334h-49v517h49z" />
    <glyph glyph-name="o" unicode="o" horiz-adv-x="514" 
d="M257 -13q-107 0 -169.5 76t-62.5 195t62.5 194.5t169.5 75.5t169.5 -75t62.5 -195t-62.5 -195.5t-169.5 -75.5zM257 29q86 0 134 65t48 164t-48 164t-134 65t-134 -65t-48 -164t48 -164t134 -65z" />
    <glyph glyph-name="p" unicode="p" horiz-adv-x="516" 
d="M50 -166v683h49v-99h2q58 110 181 110q93 0 151 -71.5t58 -197.5q0 -118 -57.5 -194t-155.5 -76q-117 0 -177 96h-2v-251h-49zM276 30q79 0 122 65t43 163q0 105 -43.5 166.5t-122.5 61.5q-84 0 -132.5 -64.5t-48.5 -165.5q0 -104 47.5 -165t134.5 -61z" />
    <glyph glyph-name="q" unicode="q" horiz-adv-x="518" 
d="M419 -166v252h-2q-59 -97 -175 -97q-101 0 -159 74.5t-58 193.5q0 125 63 198t157 73q116 0 172 -101h2v90h49v-683h-49zM244 30q83 0 131.5 61.5t48.5 164.5q0 102 -46.5 166t-130.5 64q-79 0 -125.5 -63t-46.5 -167q0 -99 42.5 -162.5t126.5 -63.5z" />
    <glyph glyph-name="r" unicode="r" horiz-adv-x="285" 
d="M99 517v-102h2q28 56 73 82q40 23 95 23v-49q-42 1 -73 -12q-43 -19 -70 -62t-27 -98v-299h-49v517h49z" />
    <glyph glyph-name="s" unicode="s" horiz-adv-x="433" 
d="M221 -13q-96 0 -148 48.5t-56 120.5h50q5 -62 46.5 -94.5t107.5 -32.5q65 0 102 30t37 81q0 42 -28 63.5t-113 41.5q-94 22 -139.5 52t-45.5 93t50 100.5t126 37.5q163 0 184 -147h-48q-5 49 -41 76.5t-95 27.5q-61 0 -94 -26t-33 -68t33.5 -61.5t120.5 -40.5
q89 -21 130.5 -51.5t41.5 -98.5q0 -66 -50 -109t-138 -43z" />
    <glyph glyph-name="t" unicode="t" horiz-adv-x="266" 
d="M14 476v41h80v156h49v-156h94v-41h-94v-388q0 -28 11.5 -39t37.5 -11q23 0 39 9h3v-42q-24 -9 -52 -9q-88 0 -88 88v392h-80z" />
    <glyph glyph-name="u" unicode="u" horiz-adv-x="479" 
d="M429 0h-49v79h-2q-29 -43 -67.5 -67t-98.5 -24q-73 0 -119.5 42.5t-46.5 117.5v369h49v-364q0 -62 33 -92.5t93 -30.5q68 0 113.5 46t45.5 114v327h49v-517z" />
    <glyph glyph-name="v" unicode="v" horiz-adv-x="452" 
d="M193 0l-184 517h52l114 -328l47 -145h2q30 92 49 145l120 328h50l-189 -517h-61z" />
    <glyph glyph-name="w" unicode="w" horiz-adv-x="695" 
d="M161 0l-147 517h51l88 -320l37 -152h2q23 93 37 145l89 327h55l86 -327l35 -145h2q25 96 41 152l95 320h49l-158 -517h-59l-90 342l-28 123h-2q-15 -70 -29 -123l-93 -342h-61z" />
    <glyph glyph-name="x" unicode="x" horiz-adv-x="466" 
d="M9 0l193 275l-173 242h58l143 -207h2l139 207h57l-166 -241l195 -276h-58l-166 241h-2l-165 -241h-57z" />
    <glyph glyph-name="y" unicode="y" horiz-adv-x="455" 
d="M96 -171q-17 0 -39 6v44h2q20 -5 41 -5q67 0 93 75l15 43l-198 525h51l126 -342l45 -129h2q24 77 42 129l120 342h50l-208 -579q-22 -61 -55 -85t-87 -24z" />
    <glyph glyph-name="z" unicode="z" horiz-adv-x="431" 
d="M24 0v45l312 426v3h-290v43h352v-41l-315 -430v-3h323v-43h-382z" />
    <glyph glyph-name="braceleft" unicode="{" horiz-adv-x="282" 
d="M214 -118q-121 0 -121 124v222q0 36 -15.5 53t-53.5 18v46q38 1 53.5 18t15.5 53v214q0 124 121 124h18v-45h-16q-39 0 -56 -18t-17 -62v-217q0 -73 -56 -89v-2q56 -16 56 -89v-225q0 -44 17 -61.5t56 -17.5h16v-46h-18z" />
    <glyph glyph-name="bar" unicode="|" horiz-adv-x="201" 
d="M77 -118v872h47v-872h-47z" />
    <glyph glyph-name="braceright" unicode="}" horiz-adv-x="282" 
d="M68 -118h-18v46h16q39 0 56 17.5t17 61.5v225q0 73 56 89v2q-56 16 -56 89v217q0 44 -17 62t-56 18h-16v45h18q121 0 121 -124v-214q0 -36 15.5 -53t53.5 -18v-46q-38 -1 -53.5 -18t-15.5 -53v-222q0 -124 -121 -124z" />
    <glyph glyph-name="asciitilde" unicode="~" horiz-adv-x="379" 
d="M255 287q-29 0 -71 25q-46 28 -61 28q-16 0 -27.5 -13.5t-12.5 -38.5h-45q4 48 27 73t59 25q31 0 77 -30q36 -23 53 -23t29 13.5t13 37.5h45q-3 -47 -26.5 -72t-59.5 -25z" />
    <glyph glyph-name="uni00A0" unicode="&#xa0;" horiz-adv-x="161" 
 />
    <glyph glyph-name="exclamdown" unicode="&#xa1;" horiz-adv-x="197" 
d="M116 415l10 -313v-229h-55v229l10 313h35zM129 588v-79h-61v79h61z" />
    <glyph glyph-name="cent" unicode="&#xa2;" horiz-adv-x="479" 
d="M230 -85v73q-99 8 -151.5 81.5t-52.5 188.5q0 114 53 187.5t151 81.5v64h40v-64q75 -5 122.5 -45.5t58.5 -113.5h-48q-23 109 -133 117v-454q58 6 95.5 45t45.5 99h46q-10 -81 -59 -131.5t-128 -55.5v-73h-40zM76 258q0 -94 38.5 -156.5t115.5 -70.5v454
q-78 -9 -116 -71.5t-38 -155.5z" />
    <glyph glyph-name="sterling" unicode="&#xa3;" horiz-adv-x="524" 
d="M37 313v42h69q-37 95 -37 150q0 81 53.5 137.5t153.5 56.5q90 0 147.5 -57t58.5 -154h-49q-1 84 -47 125.5t-113 41.5q-73 0 -113 -41.5t-40 -109.5q0 -14 2 -28t7 -32t8 -27t11.5 -33t10.5 -29h171v-42h-157q12 -45 12 -79q0 -111 -71 -172l1 -2q37 20 70 20
q37 0 92.5 -22.5t87.5 -22.5q50 0 103 49l28 -37q-34 -29 -62.5 -43t-71.5 -14q-47 0 -98.5 24t-90.5 24q-43 0 -108 -43l-29 44q102 74 102 188q0 38 -17 86h-84z" />
    <glyph glyph-name="currency" unicode="&#xa4;" horiz-adv-x="487" 
d="M244 185q66 0 103 47t37 118q0 72 -37 119t-103 47q-67 0 -104.5 -47t-37.5 -119q0 -71 37.5 -118t104.5 -47zM16 561l30 30l73 -79q49 43 125 43q74 0 123 -43l74 79l30 -30l-75 -80q38 -53 38 -131q0 -77 -39 -133l76 -80l-30 -30l-74 79q-51 -43 -123 -43
q-75 0 -124 43l-74 -79l-30 30l75 81q-38 53 -38 132q0 77 38 130z" />
    <glyph glyph-name="yen" unicode="&#xa5;" horiz-adv-x="530" 
d="M58 285v41h170l-216 360h58l194 -331h2l197 331h55l-217 -360h169v-41h-181v-75h181v-41h-181v-169h-50v169h-181v41h181v75h-181z" />
    <glyph glyph-name="brokenbar" unicode="&#xa6;" horiz-adv-x="201" 
d="M124 293v-411h-47v411h47zM77 359v395h47v-395h-47z" />
    <glyph glyph-name="section" unicode="&#xa7;" horiz-adv-x="548" 
d="M283 -182q-91 0 -145.5 55t-56.5 129h53q3 -61 43 -99.5t106 -38.5q114 0 114 95q0 38 -25 60.5t-105 68.5q-14 9 -22 13q-43 25 -61 36t-50.5 32t-46 35t-30.5 34t-23 40.5t-6 44.5q0 101 112 135q-37 40 -37 93q0 66 46 107t123 41q81 0 130 -47t54 -122h-53
q-4 58 -39.5 90.5t-93.5 32.5q-55 0 -84.5 -28t-29.5 -71q0 -20 7.5 -37t16.5 -28.5t33.5 -28t41 -26t56.5 -30.5q44 -24 68 -37.5t55.5 -35.5t47 -41t27 -45.5t11.5 -55.5q0 -101 -111 -135q41 -41 41 -94q0 -65 -43.5 -103.5t-123.5 -38.5zM290 358q-86 47 -115 69
q-95 -20 -95 -101q0 -50 38 -83t148 -95q86 -49 108 -65q49 13 71.5 41.5t22.5 63.5q0 26 -10.5 47.5t-37.5 43t-53 36.5t-77 43z" />
    <glyph glyph-name="dieresis" unicode="&#xa8;" horiz-adv-x="520" 
d="M160 635v80h49v-80h-49zM311 635v80h49v-80h-49z" />
    <glyph glyph-name="copyright" unicode="&#xa9;" horiz-adv-x="812" 
d="M406 -17q-154 0 -259 106t-105 266t105 266.5t259 106.5t259 -106.5t105 -266.5t-105 -266t-259 -106zM406 15q140 0 232 96.5t92 243.5t-92 244t-232 97t-232 -97t-92 -244t92 -243.5t232 -96.5zM408 122q-91 0 -147.5 65t-56.5 168q0 104 55.5 170t150.5 66
q71 0 117 -37.5t57 -101.5h-50q-8 44 -40.5 70t-83.5 26q-74 0 -114 -54.5t-40 -138.5t40 -137t112 -53q59 0 94 34.5t40 90.5h49q-5 -69 -46 -113q-50 -55 -137 -55z" />
    <glyph glyph-name="ordfeminine" unicode="&#xaa;" horiz-adv-x="463" 
d="M393 559v-252q0 -35 32 -35q9 0 24 5h3v-36q-16 -8 -40 -8q-31 0 -49 17t-18 51v6h-2q-59 -79 -157 -79q-65 0 -107 34t-42 94q0 72 47 100.5t135 37.5q78 7 102 17.5t24 40.5v11q0 96 -109 96q-116 0 -128 -100h-48q8 67 52.5 103.5t123.5 36.5q75 0 116 -35t41 -105z
M193 269q71 0 111.5 39.5t40.5 92.5v81q-34 -17 -121 -27q-36 -4 -55.5 -8.5t-41 -14.5t-30.5 -29t-9 -48q0 -44 29.5 -65t75.5 -21z" />
    <glyph glyph-name="guillemotleft" unicode="&#xab;" horiz-adv-x="402" 
d="M342 126l-124 112v67l124 112v-62l-93 -83v-2l93 -82v-62zM184 126l-124 112v67l124 112v-62l-93 -83v-2l93 -82v-62z" />
    <glyph glyph-name="logicalnot" unicode="&#xac;" horiz-adv-x="510" 
d="M56 325v46h378v-236h-50v190h-328z" />
    <glyph glyph-name="uni00AD" unicode="&#xad;" horiz-adv-x="314" 
d="M33 260v44h248v-44h-248z" />
    <glyph glyph-name="registered" unicode="&#xae;" horiz-adv-x="528" 
d="M264 244q-100 0 -168.5 69t-68.5 173t68.5 173t168.5 69t168.5 -69t68.5 -173t-68.5 -173t-168.5 -69zM264 274q88 0 144.5 60t56.5 152t-56.5 152t-144.5 60t-144.5 -60t-56.5 -152t56.5 -152t144.5 -60zM171 359v262h118q36 0 58 -20t22 -52q0 -50 -48 -63v-1
q37 -10 40 -59q6 -62 11 -65v-2h-39q-8 3 -11 60q-1 51 -53 51h-58v-111h-40zM211 588v-86h69q49 0 49 42q0 44 -48 44h-70z" />
    <glyph glyph-name="macron" unicode="&#xaf;" 
d="M129 630v49h242v-49h-242z" />
    <glyph glyph-name="degree" unicode="&#xb0;" horiz-adv-x="318" 
d="M159 461q-49 0 -83.5 34.5t-34.5 84.5t34.5 84.5t83.5 34.5q50 0 84 -34.5t34 -84.5t-34 -84.5t-84 -34.5zM159 499q33 0 53 22.5t20 58.5q0 35 -20 58t-53 23t-53 -23t-20 -58q0 -36 20 -58.5t53 -22.5z" />
    <glyph glyph-name="plusminus" unicode="&#xb1;" horiz-adv-x="510" 
d="M56 313v46h174v177h50v-177h174v-46h-174v-180h-50v180h-174zM56 0v46h398v-46h-398z" />
    <glyph glyph-name="twosuperior" unicode="&#xb2;" horiz-adv-x="332" 
d="M31 287q1 34 11 61t31.5 49t36.5 33t45 31q3 2 21 13.5t21.5 14t16.5 12t16.5 15t10 15.5t8.5 20.5t2 22.5q0 38 -21 59t-57 21q-40 0 -63.5 -25t-24.5 -73h-44q0 66 36.5 101.5t96.5 35.5q56 0 90 -33.5t34 -84.5q0 -23 -7.5 -42.5t-15 -31t-28 -27.5t-28.5 -21t-34 -21
q-23 -14 -33.5 -21t-27.5 -21.5t-26 -30t-12 -33.5h210v-39h-265z" />
    <glyph glyph-name="threesuperior" unicode="&#xb3;" horiz-adv-x="339" 
d="M170 279q-64 0 -103.5 36t-39.5 96h46q1 -45 26.5 -69t68.5 -24t66.5 21.5t23.5 60.5q0 38 -23.5 58.5t-66.5 20.5h-28v37h27q37 0 57.5 19t20.5 51q0 33 -21 52t-55 19q-40 0 -62 -25t-23 -65h-44q1 57 35.5 91.5t94.5 34.5q53 0 87 -28.5t34 -77.5q0 -64 -60 -86v-2
q75 -23 75 -102q0 -55 -38 -86.5t-98 -31.5z" />
    <glyph glyph-name="acute" unicode="&#xb4;" 
d="M209 588l76 127h69l-101 -127h-44z" />
    <glyph glyph-name="mu" unicode="&#xb5;" horiz-adv-x="483" 
d="M433 0h-49v79h-2q-29 -43 -67.5 -67t-98.5 -24q-77 0 -115 54h-2v-208h-49v683h49v-364q0 -62 33 -92.5t93 -30.5q68 0 113.5 46t45.5 114v327h49v-517z" />
    <glyph glyph-name="paragraph" unicode="&#xb6;" horiz-adv-x="486" 
d="M246 382h-31q-91 0 -138.5 44t-47.5 125q0 72 47 119q45 45 132 45h216v-715h-52v665h-74v-665h-52v382z" />
    <glyph glyph-name="periodcentered" unicode="&#xb7;" horiz-adv-x="143" 
d="M41 271v79h61v-79h-61z" />
    <glyph glyph-name="cedilla" unicode="&#xb8;" 
d="M219 -184q-51 0 -89 22l13 25q36 -13 67 -13q57 0 57 37q0 29 -43 29q-16 0 -39 -7l-13 22l71 69h47l-55 -50v-2q35 2 57.5 -14.5t22.5 -46.5q0 -34 -26.5 -52.5t-69.5 -18.5z" />
    <glyph glyph-name="onesuperior" unicode="&#xb9;" horiz-adv-x="232" 
d="M120 287v295h-88v32q45 1 68 17.5t29 56.5h37v-401h-46z" />
    <glyph glyph-name="ordmasculine" unicode="&#xba;" horiz-adv-x="459" 
d="M230 228q-95 0 -150 66t-55 170t55 169.5t150 65.5q94 0 149 -65.5t55 -169.5t-55 -170t-149 -66zM230 269q73 0 113.5 55t40.5 140t-40.5 140.5t-113.5 55.5q-74 0 -115 -55.5t-41 -140.5t41 -140t115 -55z" />
    <glyph glyph-name="guillemotright" unicode="&#xbb;" horiz-adv-x="402" 
d="M60 417l124 -112v-67l-124 -112v62l93 83v2l-93 82v62zM218 417l124 -112v-67l-124 -112v62l93 83v2l-93 82v62z" />
    <glyph glyph-name="onequarter" unicode="&#xbc;" horiz-adv-x="704" 
d="M126 317v295h-88v32q45 1 68 17.5t29 56.5h37v-401h-46zM60 0l512 715h53l-512 -715h-53zM568 0v99h-185v45l187 258h43v-266h60v-37h-60v-99h-45zM424 138v-2h144v198h-1z" />
    <glyph glyph-name="onehalf" unicode="&#xbd;" horiz-adv-x="743" 
d="M436 0q1 34 11 61t31.5 48.5t37.5 33.5t45 31q3 2 21 13.5t21.5 14t16.5 12t16.5 15t10 15.5t8.5 20.5t2 22.5q0 38 -21 59t-57 21q-40 0 -63.5 -25t-24.5 -73h-44q0 66 36.5 101.5t96.5 35.5q56 0 90 -33.5t34 -84.5q0 -23 -7.5 -42.5t-15 -31t-28 -27.5t-28.5 -21
t-34 -21q-23 -14 -33.5 -21t-27.5 -21.5t-26 -30t-12 -33.5h210v-39h-266zM51 0l512 715h53l-512 -715h-53zM126 317v295h-88v32q45 1 68 17.5t29 56.5h37v-401h-46z" />
    <glyph glyph-name="threequarters" unicode="&#xbe;" horiz-adv-x="770" 
d="M176 309q-64 0 -104 36t-39 96h46q1 -45 26.5 -69t68.5 -24t66.5 21.5t23.5 60.5q0 38 -23.5 58.5t-66.5 20.5h-28v37h27q37 0 57.5 19t20.5 51q0 33 -21 52t-55 19q-40 0 -62 -25t-23 -65h-44q1 57 35.5 91.5t94.5 34.5q53 0 87 -28.5t34 -77.5q0 -64 -60 -86v-2
q75 -23 75 -102q0 -55 -38 -86.5t-98 -31.5zM132 0l512 715h53l-512 -715h-53zM634 0v99h-185v45l187 258h43v-266h60v-37h-60v-99h-45zM490 138v-2h144v198h-1z" />
    <glyph glyph-name="questiondown" unicode="&#xbf;" horiz-adv-x="493" 
d="M295 415q0 -84 -21.5 -127t-79.5 -91q-31 -26 -46 -40.5t-31 -46.5t-16 -71q0 -62 39 -97.5t102 -35.5q75 0 119.5 46.5t46.5 118.5h51q-1 -86 -57.5 -148.5t-162.5 -62.5q-85 0 -138 50.5t-53 127.5q0 18 1.5 33.5t7 30t9 25t12.5 23t13.5 18.5t17 18t16 15.5t18 15.5
t17.5 14q52 44 69 78.5t17 105.5h49zM301 588v-79h-61v79h61z" />
    <glyph glyph-name="Agrave" unicode="&#xc0;" horiz-adv-x="624" 
d="M6 0l276 715h59l277 -715h-54l-88 229h-329l-88 -229h-53zM273 557l-109 -284h295l-108 284l-39 106h-2q-20 -61 -37 -106zM343 753h-44l-101 110h69z" />
    <glyph glyph-name="Aacute" unicode="&#xc1;" horiz-adv-x="624" 
d="M6 0l276 715h59l277 -715h-54l-88 229h-329l-88 -229h-53zM273 557l-109 -284h295l-108 284l-39 106h-2q-20 -61 -37 -106zM280 753l76 110h69l-101 -110h-44z" />
    <glyph glyph-name="Acircumflex" unicode="&#xc2;" horiz-adv-x="624" 
d="M6 0l276 715h59l277 -715h-54l-88 229h-329l-88 -229h-53zM273 557l-109 -284h295l-108 284l-39 106h-2q-20 -61 -37 -106zM187 752l94 101h62l94 -101h-59l-66 71h-2l-67 -71h-56z" />
    <glyph glyph-name="Atilde" unicode="&#xc3;" horiz-adv-x="624" 
d="M6 0l276 715h59l277 -715h-54l-88 229h-329l-88 -229h-53zM273 557l-109 -284h295l-108 284l-39 106h-2q-20 -61 -37 -106zM371 760q-22 0 -63 21.5t-54 21.5q-11 0 -20.5 -11t-10.5 -30h-42q4 41 23.5 62.5t49.5 21.5q23 0 62.5 -21.5t52.5 -21.5t22.5 11t10.5 30h42
q-3 -40 -23 -62t-50 -22z" />
    <glyph glyph-name="Adieresis" unicode="&#xc4;" horiz-adv-x="624" 
d="M6 0l276 715h59l277 -715h-54l-88 229h-329l-88 -229h-53zM273 557l-109 -284h295l-108 284l-39 106h-2q-20 -61 -37 -106zM212 755v80h49v-80h-49zM363 755v80h49v-80h-49z" />
    <glyph glyph-name="Aring" unicode="&#xc5;" horiz-adv-x="624" 
d="M6 0l276 715h59l277 -715h-54l-88 229h-329l-88 -229h-53zM273 557l-109 -284h295l-108 284l-39 106h-2q-20 -61 -37 -106zM312 742q-36 0 -61.5 25t-25.5 60t25.5 60t61.5 25t61.5 -25t25.5 -60t-25.5 -60t-61.5 -25zM312 775q21 0 35 15t14 37t-14 37t-35 15t-35 -15
t-14 -37t14 -37t35 -15z" />
    <glyph glyph-name="AE" unicode="&#xc6;" horiz-adv-x="945" 
d="M865 346h-348v-298h392v-48h-444v229h-308l-95 -229h-53l297 715h593v-46h-382v-278h348v-45zM465 669h-126l-164 -396h290v396z" />
    <glyph glyph-name="Ccedilla" unicode="&#xc7;" horiz-adv-x="656" 
d="M315 -184q-51 0 -89 22l13 25q36 -13 67 -13q57 0 57 37q0 29 -43 29q-16 0 -39 -7l-13 22l58 57q-136 7 -214 107t-78 261q0 167 85 270t230 103q106 0 176 -55t91 -155h-52q-15 75 -71.5 120t-143.5 45q-126 0 -193.5 -92.5t-67.5 -235.5t66.5 -233t191.5 -90
q102 0 163.5 63t71.5 163h49q-10 -111 -66 -178q-70 -84 -191 -93l-42 -38v-2q35 2 57.5 -14.5t22.5 -46.5q0 -34 -26.5 -52.5t-69.5 -18.5z" />
    <glyph glyph-name="Egrave" unicode="&#xc8;" horiz-adv-x="582" 
d="M62 0v715h474v-46h-422v-278h388v-45h-388v-298h432v-48h-484zM342 753h-44l-101 110h69z" />
    <glyph glyph-name="Eacute" unicode="&#xc9;" horiz-adv-x="582" 
d="M62 0v715h474v-46h-422v-278h388v-45h-388v-298h432v-48h-484zM279 753l76 110h69l-101 -110h-44z" />
    <glyph glyph-name="Ecircumflex" unicode="&#xca;" horiz-adv-x="582" 
d="M62 0v715h474v-46h-422v-278h388v-45h-388v-298h432v-48h-484zM186 752l94 101h62l94 -101h-59l-66 71h-2l-67 -71h-56z" />
    <glyph glyph-name="Edieresis" unicode="&#xcb;" horiz-adv-x="582" 
d="M62 0v715h474v-46h-422v-278h388v-45h-388v-298h432v-48h-484zM211 755v80h49v-80h-49zM362 755v80h49v-80h-49z" />
    <glyph glyph-name="Igrave" unicode="&#xcc;" horiz-adv-x="184" 
d="M66 0v715h52v-715h-52zM115 753h-44l-101 110h69z" />
    <glyph glyph-name="Iacute" unicode="&#xcd;" horiz-adv-x="184" 
d="M66 0v715h52v-715h-52zM68 753l76 110h69l-101 -110h-44z" />
    <glyph glyph-name="Icircumflex" unicode="&#xce;" horiz-adv-x="184" 
d="M66 0v715h52v-715h-52zM-33 752l94 101h62l94 -101h-59l-66 71h-2l-67 -71h-56z" />
    <glyph glyph-name="Idieresis" unicode="&#xcf;" horiz-adv-x="184" 
d="M66 0v715h52v-715h-52zM-8 755v80h49v-80h-49zM143 755v80h49v-80h-49z" />
    <glyph glyph-name="Eth" unicode="&#xd0;" horiz-adv-x="660" 
d="M1 336v45h71v334h250q150 0 224 -97.5t74 -262.5q0 -164 -77 -259.5t-228 -95.5h-243v336h-71zM124 46h189q126 0 189.5 81.5t63.5 227.5q0 148 -60.5 230.5t-185.5 82.5h-196v-287h258v-45h-258v-290z" />
    <glyph glyph-name="Ntilde" unicode="&#xd1;" horiz-adv-x="649" 
d="M62 0v715h58l332 -505l83 -135h2v640h50v-715h-55l-328 494l-90 143h-2v-637h-50zM401 760q-22 0 -63 21.5t-54 21.5q-11 0 -20.5 -11t-10.5 -30h-42q4 41 23.5 62.5t49.5 21.5q23 0 62.5 -21.5t52.5 -21.5t22.5 11t10.5 30h42q-3 -40 -23 -62t-50 -22z" />
    <glyph glyph-name="Ograve" unicode="&#xd2;" horiz-adv-x="710" 
d="M354 -13q-144 0 -232 105t-88 266t88 266t232 105t233 -105t89 -266t-89 -266t-233 -105zM354 34q126 0 197 92.5t71 231.5t-71 231.5t-197 92.5t-196 -92.5t-70 -231.5t70 -231.5t196 -92.5zM389 753h-44l-101 110h69z" />
    <glyph glyph-name="Oacute" unicode="&#xd3;" horiz-adv-x="710" 
d="M354 -13q-144 0 -232 105t-88 266t88 266t232 105t233 -105t89 -266t-89 -266t-233 -105zM354 34q126 0 197 92.5t71 231.5t-71 231.5t-197 92.5t-196 -92.5t-70 -231.5t70 -231.5t196 -92.5zM320 753l76 110h69l-101 -110h-44z" />
    <glyph glyph-name="Ocircumflex" unicode="&#xd4;" horiz-adv-x="710" 
d="M354 -13q-144 0 -232 105t-88 266t88 266t232 105t233 -105t89 -266t-89 -266t-233 -105zM354 34q126 0 197 92.5t71 231.5t-71 231.5t-197 92.5t-196 -92.5t-70 -231.5t70 -231.5t196 -92.5zM230 752l94 101h62l94 -101h-59l-66 71h-2l-67 -71h-56z" />
    <glyph glyph-name="Otilde" unicode="&#xd5;" horiz-adv-x="710" 
d="M354 -13q-144 0 -232 105t-88 266t88 266t232 105t233 -105t89 -266t-89 -266t-233 -105zM354 34q126 0 197 92.5t71 231.5t-71 231.5t-197 92.5t-196 -92.5t-70 -231.5t70 -231.5t196 -92.5zM414 760q-22 0 -63 21.5t-54 21.5q-11 0 -20.5 -11t-10.5 -30h-42
q4 41 23.5 62.5t49.5 21.5q23 0 62.5 -21.5t52.5 -21.5t22.5 11t10.5 30h42q-3 -40 -23 -62t-50 -22z" />
    <glyph glyph-name="Odieresis" unicode="&#xd6;" horiz-adv-x="710" 
d="M354 -13q-144 0 -232 105t-88 266t88 266t232 105t233 -105t89 -266t-89 -266t-233 -105zM354 34q126 0 197 92.5t71 231.5t-71 231.5t-197 92.5t-196 -92.5t-70 -231.5t70 -231.5t196 -92.5zM255 755v80h49v-80h-49zM406 755v80h49v-80h-49z" />
    <glyph glyph-name="multiply" unicode="&#xd7;" horiz-adv-x="507" 
d="M79 472l32 32l142 -148l143 148l32 -32l-143 -148l143 -148l-32 -32l-143 147l-142 -147l-32 32l143 148z" />
    <glyph glyph-name="Oslash" unicode="&#xd8;" horiz-adv-x="710" 
d="M51 -16l-29 27l87 98q-75 102 -75 249q0 161 88 266t232 105q133 0 222 -94l83 94l29 -27l-86 -97q74 -102 74 -247q0 -161 -89 -266t-233 -105q-132 0 -220 91zM88 358q0 -126 55 -211l400 451q-73 84 -189 84q-126 0 -196 -92.5t-70 -231.5zM354 34q126 0 197 92.5
t71 231.5q0 121 -55 208l-400 -451q73 -81 187 -81z" />
    <glyph glyph-name="Ugrave" unicode="&#xd9;" horiz-adv-x="622" 
d="M308 -11q-119 0 -185.5 60t-66.5 176v490h52v-486q0 -102 51 -148t152 -46q203 0 203 194v486h52v-490q0 -118 -69 -177t-189 -59zM342 753h-44l-101 110h69z" />
    <glyph glyph-name="Uacute" unicode="&#xda;" horiz-adv-x="622" 
d="M308 -11q-119 0 -185.5 60t-66.5 176v490h52v-486q0 -102 51 -148t152 -46q203 0 203 194v486h52v-490q0 -118 -69 -177t-189 -59zM279 753l76 110h69l-101 -110h-44z" />
    <glyph glyph-name="Ucircumflex" unicode="&#xdb;" horiz-adv-x="622" 
d="M308 -11q-119 0 -185.5 60t-66.5 176v490h52v-486q0 -102 51 -148t152 -46q203 0 203 194v486h52v-490q0 -118 -69 -177t-189 -59zM186 752l94 101h62l94 -101h-59l-66 71h-2l-67 -71h-56z" />
    <glyph glyph-name="Udieresis" unicode="&#xdc;" horiz-adv-x="622" 
d="M308 -11q-119 0 -185.5 60t-66.5 176v490h52v-486q0 -102 51 -148t152 -46q203 0 203 194v486h52v-490q0 -118 -69 -177t-189 -59zM211 755v80h49v-80h-49zM362 755v80h49v-80h-49z" />
    <glyph glyph-name="Yacute" unicode="&#xdd;" horiz-adv-x="579" 
d="M263 0v318l-258 397h57l227 -350h2l227 350h56l-259 -399v-316h-52zM257 753l76 110h69l-101 -110h-44z" />
    <glyph glyph-name="Thorn" unicode="&#xde;" horiz-adv-x="578" 
d="M114 0h-52v715h52v-138h218q107 0 166 -57q51 -50 51 -139q0 -200 -224 -200h-211v-181zM328 530h-214v-303h207q175 0 175 153q0 72 -43 111t-125 39z" />
    <glyph glyph-name="germandbls" unicode="&#xdf;" horiz-adv-x="469" 
d="M239 -5q-30 0 -58 7v42h2q24 -6 50 -6q75 0 117.5 43t42.5 123t-42 127.5t-120 47.5h-43v41h46q59 0 90.5 38t31.5 96q0 57 -34.5 92.5t-92.5 35.5q-59 0 -94.5 -37t-35.5 -103v-542h-49v544q0 83 49 131t131 48q78 0 126.5 -48.5t48.5 -119.5q0 -113 -97 -150v-2
q64 -21 100 -70.5t36 -125.5q0 -103 -56 -157.5t-149 -54.5z" />
    <glyph glyph-name="agrave" unicode="&#xe0;" horiz-adv-x="492" 
d="M446 -8q-31 0 -49.5 17.5t-18.5 52.5v18h-3q-66 -93 -187 -93q-74 0 -119.5 37.5t-45.5 106.5q0 44 15.5 74.5t47 47.5t63.5 24.5t78 12.5q96 9 123 20t27 46v18q0 112 -130 112q-145 0 -156 -116h-50q16 158 206 158q179 0 179 -157v-304q0 -36 33 -36q9 0 24 5h3v-36
q-16 -8 -40 -8zM193 28q84 0 134 47t50 109v96q-38 -19 -144 -31q-41 -5 -64.5 -10t-48.5 -17t-36 -35t-11 -58q0 -52 33 -76.5t87 -24.5zM287 588h-44l-101 127h69z" />
    <glyph glyph-name="aacute" unicode="&#xe1;" horiz-adv-x="492" 
d="M446 -8q-31 0 -49.5 17.5t-18.5 52.5v18h-3q-66 -93 -187 -93q-74 0 -119.5 37.5t-45.5 106.5q0 44 15.5 74.5t47 47.5t63.5 24.5t78 12.5q96 9 123 20t27 46v18q0 112 -130 112q-145 0 -156 -116h-50q16 158 206 158q179 0 179 -157v-304q0 -36 33 -36q9 0 24 5h3v-36
q-16 -8 -40 -8zM193 28q84 0 134 47t50 109v96q-38 -19 -144 -31q-41 -5 -64.5 -10t-48.5 -17t-36 -35t-11 -58q0 -52 33 -76.5t87 -24.5zM210 588l76 127h69l-101 -127h-44z" />
    <glyph glyph-name="acircumflex" unicode="&#xe2;" horiz-adv-x="492" 
d="M446 -8q-31 0 -49.5 17.5t-18.5 52.5v18h-3q-66 -93 -187 -93q-74 0 -119.5 37.5t-45.5 106.5q0 44 15.5 74.5t47 47.5t63.5 24.5t78 12.5q96 9 123 20t27 46v18q0 112 -130 112q-145 0 -156 -116h-50q16 158 206 158q179 0 179 -157v-304q0 -36 33 -36q9 0 24 5h3v-36
q-16 -8 -40 -8zM193 28q84 0 134 47t50 109v96q-38 -19 -144 -31q-41 -5 -64.5 -10t-48.5 -17t-36 -35t-11 -58q0 -52 33 -76.5t87 -24.5zM139 592l80 106h62l80 -106h-57l-54 76h-2l-55 -76h-54z" />
    <glyph glyph-name="atilde" unicode="&#xe3;" horiz-adv-x="492" 
d="M446 -8q-31 0 -49.5 17.5t-18.5 52.5v18h-3q-66 -93 -187 -93q-74 0 -119.5 37.5t-45.5 106.5q0 44 15.5 74.5t47 47.5t63.5 24.5t78 12.5q96 9 123 20t27 46v18q0 112 -130 112q-145 0 -156 -116h-50q16 158 206 158q179 0 179 -157v-304q0 -36 33 -36q9 0 24 5h3v-36
q-16 -8 -40 -8zM193 28q84 0 134 47t50 109v96q-38 -19 -144 -31q-41 -5 -64.5 -10t-48.5 -17t-36 -35t-11 -58q0 -52 33 -76.5t87 -24.5zM309 600q-22 0 -63 21.5t-54 21.5q-11 0 -20.5 -11t-10.5 -30h-42q4 41 23.5 62.5t49.5 21.5q23 0 62.5 -21.5t52.5 -21.5t22.5 11
t10.5 30h42q-3 -40 -23 -62t-50 -22z" />
    <glyph glyph-name="adieresis" unicode="&#xe4;" horiz-adv-x="492" 
d="M446 -8q-31 0 -49.5 17.5t-18.5 52.5v18h-3q-66 -93 -187 -93q-74 0 -119.5 37.5t-45.5 106.5q0 44 15.5 74.5t47 47.5t63.5 24.5t78 12.5q96 9 123 20t27 46v18q0 112 -130 112q-145 0 -156 -116h-50q16 158 206 158q179 0 179 -157v-304q0 -36 33 -36q9 0 24 5h3v-36
q-16 -8 -40 -8zM193 28q84 0 134 47t50 109v96q-38 -19 -144 -31q-41 -5 -64.5 -10t-48.5 -17t-36 -35t-11 -58q0 -52 33 -76.5t87 -24.5zM150 635v80h49v-80h-49zM301 635v80h49v-80h-49z" />
    <glyph glyph-name="aring" unicode="&#xe5;" horiz-adv-x="492" 
d="M446 -8q-31 0 -49.5 17.5t-18.5 52.5v18h-3q-66 -93 -187 -93q-74 0 -119.5 37.5t-45.5 106.5q0 44 15.5 74.5t47 47.5t63.5 24.5t78 12.5q96 9 123 20t27 46v18q0 112 -130 112q-145 0 -156 -116h-50q16 158 206 158q179 0 179 -157v-304q0 -36 33 -36q9 0 24 5h3v-36
q-16 -8 -40 -8zM193 28q84 0 134 47t50 109v96q-38 -19 -144 -31q-41 -5 -64.5 -10t-48.5 -17t-36 -35t-11 -58q0 -52 33 -76.5t87 -24.5zM250 576q-36 0 -61.5 25t-25.5 60t25.5 60t61.5 25t61.5 -25t25.5 -60t-25.5 -60t-61.5 -25zM250 609q21 0 35 15t14 37t-14 37
t-35 15t-35 -15t-14 -37t14 -37t35 -15z" />
    <glyph glyph-name="ae" unicode="&#xe6;" horiz-adv-x="842" 
d="M817 253h-391q1 -99 47 -161t137 -62q120 0 157 124h47q-17 -76 -69 -121.5t-135 -45.5q-144 0 -203 122h-1q-59 -122 -205 -122q-79 0 -128.5 38.5t-49.5 107.5q0 36 11.5 62.5t29 42.5t46 27t54.5 16t63 9q96 9 123 20t27 46v14q0 116 -128 116q-136 0 -151 -116h-49
q10 76 60.5 117t139.5 41q142 0 168 -112q59 112 189 112q83 0 136 -50q77 -71 75 -225zM204 29q79 0 126 46.5t47 108.5v97q-38 -19 -144 -31q-42 -5 -64.5 -9.5t-48 -16.5t-36.5 -35t-11 -58q0 -52 36.5 -77t94.5 -25zM767 293q-2 84 -41.5 138.5t-119.5 54.5t-125.5 -53
t-53.5 -140h340z" />
    <glyph glyph-name="ccedilla" unicode="&#xe7;" horiz-adv-x="472" 
d="M211 -184q-51 0 -89 22l13 25q36 -13 67 -13q57 0 57 37q0 29 -43 29q-16 0 -39 -7l-13 22l59 58q-96 9 -147 82t-51 187q0 121 59 195.5t167 74.5q82 0 134.5 -41.5t64.5 -118.5h-48q-24 118 -151 118q-89 0 -132.5 -64t-43.5 -164t44 -164t131 -64q66 0 109 40t51 105
h46q-10 -81 -59 -131.5t-129 -55.5l-41 -38v-2q35 2 57.5 -14.5t22.5 -46.5q0 -34 -26.5 -52.5t-69.5 -18.5z" />
    <glyph glyph-name="egrave" unicode="&#xe8;" horiz-adv-x="491" 
d="M466 253h-391q1 -99 47 -161t137 -62q120 0 157 124h47q-17 -76 -69 -121.5t-135 -45.5q-111 0 -172.5 74.5t-61.5 196.5q0 120 62.5 195t167.5 75q83 0 136 -50q77 -71 75 -225zM416 293q-2 84 -41.5 138.5t-119.5 54.5t-125.5 -53t-53.5 -140h340zM289 588h-44
l-101 127h69z" />
    <glyph glyph-name="eacute" unicode="&#xe9;" horiz-adv-x="491" 
d="M466 253h-391q1 -99 47 -161t137 -62q120 0 157 124h47q-17 -76 -69 -121.5t-135 -45.5q-111 0 -172.5 74.5t-61.5 196.5q0 120 62.5 195t167.5 75q83 0 136 -50q77 -71 75 -225zM416 293q-2 84 -41.5 138.5t-119.5 54.5t-125.5 -53t-53.5 -140h340zM212 588l76 127h69
l-101 -127h-44z" />
    <glyph glyph-name="ecircumflex" unicode="&#xea;" horiz-adv-x="491" 
d="M466 253h-391q1 -99 47 -161t137 -62q120 0 157 124h47q-17 -76 -69 -121.5t-135 -45.5q-111 0 -172.5 74.5t-61.5 196.5q0 120 62.5 195t167.5 75q83 0 136 -50q77 -71 75 -225zM416 293q-2 84 -41.5 138.5t-119.5 54.5t-125.5 -53t-53.5 -140h340zM141 592l80 106h62
l80 -106h-57l-54 76h-2l-55 -76h-54z" />
    <glyph glyph-name="edieresis" unicode="&#xeb;" horiz-adv-x="491" 
d="M466 253h-391q1 -99 47 -161t137 -62q120 0 157 124h47q-17 -76 -69 -121.5t-135 -45.5q-111 0 -172.5 74.5t-61.5 196.5q0 120 62.5 195t167.5 75q83 0 136 -50q77 -71 75 -225zM416 293q-2 84 -41.5 138.5t-119.5 54.5t-125.5 -53t-53.5 -140h340zM152 635v80h49v-80
h-49zM303 635v80h49v-80h-49z" />
    <glyph glyph-name="igrave" unicode="&#xec;" horiz-adv-x="155" 
d="M53 0v517h49v-517h-49zM100 588h-43l-80 127h65z" />
    <glyph glyph-name="iacute" unicode="&#xed;" horiz-adv-x="155" 
d="M53 0v517h49v-517h-49zM57 588l58 127h65l-80 -127h-43z" />
    <glyph glyph-name="icircumflex" unicode="&#xee;" horiz-adv-x="155" 
d="M53 0v517h49v-517h-49zM-18 592l64 106h62l64 -106h-52l-43 75h-2l-44 -75h-49z" />
    <glyph glyph-name="idieresis" unicode="&#xef;" horiz-adv-x="155" 
d="M53 0v517h49v-517h-49zM2 635v80h49v-80h-49zM104 635v80h49v-80h-49z" />
    <glyph glyph-name="eth" unicode="&#xf0;" horiz-adv-x="514" 
d="M160 595l122 49q-32 29 -86 71h64q39 -27 67 -53l101 41l13 -31l-88 -36q136 -142 136 -367q0 -128 -62 -205t-170 -77q-107 0 -169.5 76t-62.5 195q0 118 63.5 194t166.5 76q95 0 157 -76h1q-35 91 -105 166l-134 -54zM257 29q86 0 134 65t48 164q0 101 -48 165t-134 64
t-134 -65t-48 -164t48 -164t134 -65z" />
    <glyph glyph-name="ntilde" unicode="&#xf1;" horiz-adv-x="485" 
d="M99 517v-87h2q60 97 180 97q69 0 113.5 -41.5t44.5 -116.5v-369h-49v364q0 121 -118 121q-70 0 -121.5 -43.5t-51.5 -107.5v-334h-49v517h49zM307 600q-22 0 -63 21.5t-54 21.5q-11 0 -20.5 -11t-10.5 -30h-42q4 41 23.5 62.5t49.5 21.5q23 0 62.5 -21.5t52.5 -21.5
t22.5 11t10.5 30h42q-3 -40 -23 -62t-50 -22z" />
    <glyph glyph-name="ograve" unicode="&#xf2;" horiz-adv-x="514" 
d="M257 -13q-107 0 -169.5 76t-62.5 195t62.5 194.5t169.5 75.5t169.5 -75t62.5 -195t-62.5 -195.5t-169.5 -75.5zM257 29q86 0 134 65t48 164t-48 164t-134 65t-134 -65t-48 -164t48 -164t134 -65zM294 588h-44l-101 127h69z" />
    <glyph glyph-name="oacute" unicode="&#xf3;" horiz-adv-x="514" 
d="M257 -13q-107 0 -169.5 76t-62.5 195t62.5 194.5t169.5 75.5t169.5 -75t62.5 -195t-62.5 -195.5t-169.5 -75.5zM257 29q86 0 134 65t48 164t-48 164t-134 65t-134 -65t-48 -164t48 -164t134 -65zM217 588l76 127h69l-101 -127h-44z" />
    <glyph glyph-name="ocircumflex" unicode="&#xf4;" horiz-adv-x="514" 
d="M257 -13q-107 0 -169.5 76t-62.5 195t62.5 194.5t169.5 75.5t169.5 -75t62.5 -195t-62.5 -195.5t-169.5 -75.5zM257 29q86 0 134 65t48 164t-48 164t-134 65t-134 -65t-48 -164t48 -164t134 -65zM146 592l80 106h62l80 -106h-57l-54 76h-2l-55 -76h-54z" />
    <glyph glyph-name="otilde" unicode="&#xf5;" horiz-adv-x="514" 
d="M257 -13q-107 0 -169.5 76t-62.5 195t62.5 194.5t169.5 75.5t169.5 -75t62.5 -195t-62.5 -195.5t-169.5 -75.5zM257 29q86 0 134 65t48 164t-48 164t-134 65t-134 -65t-48 -164t48 -164t134 -65zM316 600q-22 0 -63 21.5t-54 21.5q-11 0 -20.5 -11t-10.5 -30h-42
q4 41 23.5 62.5t49.5 21.5q23 0 62.5 -21.5t52.5 -21.5t22.5 11t10.5 30h42q-3 -40 -23 -62t-50 -22z" />
    <glyph glyph-name="odieresis" unicode="&#xf6;" horiz-adv-x="514" 
d="M257 -13q-107 0 -169.5 76t-62.5 195t62.5 194.5t169.5 75.5t169.5 -75t62.5 -195t-62.5 -195.5t-169.5 -75.5zM257 29q86 0 134 65t48 164t-48 164t-134 65t-134 -65t-48 -164t48 -164t134 -65zM157 635v80h49v-80h-49zM308 635v80h49v-80h-49z" />
    <glyph glyph-name="divide" unicode="&#xf7;" horiz-adv-x="510" 
d="M56 303v46h398v-46h-398zM224 123v75h61v-75h-61zM224 454v75h61v-75h-61z" />
    <glyph glyph-name="oslash" unicode="&#xf8;" horiz-adv-x="514" 
d="M41 -15l-26 23l61 69q-51 71 -51 181q0 119 62.5 194.5t169.5 75.5q98 0 159 -63l57 65l26 -23l-61 -70q51 -73 51 -179q0 -120 -62.5 -195.5t-169.5 -75.5q-98 0 -159 63zM75 258q0 -85 34 -143l276 314q-50 58 -128 58q-86 0 -134 -65t-48 -164zM257 29q86 0 134 65
t48 164q0 84 -34 142l-276 -314q49 -57 128 -57z" />
    <glyph glyph-name="ugrave" unicode="&#xf9;" horiz-adv-x="479" 
d="M429 0h-49v79h-2q-29 -43 -67.5 -67t-98.5 -24q-73 0 -119.5 42.5t-46.5 117.5v369h49v-364q0 -62 33 -92.5t93 -30.5q68 0 113.5 46t45.5 114v327h49v-517zM277 588h-44l-101 127h69z" />
    <glyph glyph-name="uacute" unicode="&#xfa;" horiz-adv-x="479" 
d="M429 0h-49v79h-2q-29 -43 -67.5 -67t-98.5 -24q-73 0 -119.5 42.5t-46.5 117.5v369h49v-364q0 -62 33 -92.5t93 -30.5q68 0 113.5 46t45.5 114v327h49v-517zM200 588l76 127h69l-101 -127h-44z" />
    <glyph glyph-name="ucircumflex" unicode="&#xfb;" horiz-adv-x="479" 
d="M429 0h-49v79h-2q-29 -43 -67.5 -67t-98.5 -24q-73 0 -119.5 42.5t-46.5 117.5v369h49v-364q0 -62 33 -92.5t93 -30.5q68 0 113.5 46t45.5 114v327h49v-517zM129 592l80 106h62l80 -106h-57l-54 76h-2l-55 -76h-54z" />
    <glyph glyph-name="udieresis" unicode="&#xfc;" horiz-adv-x="479" 
d="M429 0h-49v79h-2q-29 -43 -67.5 -67t-98.5 -24q-73 0 -119.5 42.5t-46.5 117.5v369h49v-364q0 -62 33 -92.5t93 -30.5q68 0 113.5 46t45.5 114v327h49v-517zM140 635v80h49v-80h-49zM291 635v80h49v-80h-49z" />
    <glyph glyph-name="yacute" unicode="&#xfd;" horiz-adv-x="455" 
d="M96 -171q-17 0 -39 6v44h2q20 -5 41 -5q67 0 93 75l15 43l-198 525h51l126 -342l45 -129h2q24 77 42 129l120 342h50l-208 -579q-22 -61 -55 -85t-87 -24zM191 588l76 127h69l-101 -127h-44z" />
    <glyph glyph-name="thorn" unicode="&#xfe;" horiz-adv-x="516" 
d="M50 -166v881h49v-297h2q58 110 181 110q93 0 151 -71.5t58 -197.5q0 -118 -57.5 -194t-155.5 -76q-117 0 -177 96h-2v-251h-49zM276 30q79 0 122 65t43 163q0 105 -43.5 166.5t-122.5 61.5q-84 0 -132.5 -64.5t-48.5 -165.5q0 -104 47.5 -165t134.5 -61z" />
    <glyph glyph-name="ydieresis" unicode="&#xff;" horiz-adv-x="455" 
d="M96 -171q-17 0 -39 6v44h2q20 -5 41 -5q67 0 93 75l15 43l-198 525h51l126 -342l45 -129h2q24 77 42 129l120 342h50l-208 -579q-22 -61 -55 -85t-87 -24zM131 635v80h49v-80h-49zM282 635v80h49v-80h-49z" />
    <glyph glyph-name="Amacron" unicode="&#x100;" horiz-adv-x="624" 
d="M6 0l276 715h59l277 -715h-54l-88 229h-329l-88 -229h-53zM273 557l-109 -284h295l-108 284l-39 106h-2q-20 -61 -37 -106zM191 762v49h242v-49h-242z" />
    <glyph glyph-name="amacron" unicode="&#x101;" horiz-adv-x="492" 
d="M446 -8q-31 0 -49.5 17.5t-18.5 52.5v18h-3q-66 -93 -187 -93q-74 0 -119.5 37.5t-45.5 106.5q0 44 15.5 74.5t47 47.5t63.5 24.5t78 12.5q96 9 123 20t27 46v18q0 112 -130 112q-145 0 -156 -116h-50q16 158 206 158q179 0 179 -157v-304q0 -36 33 -36q9 0 24 5h3v-36
q-16 -8 -40 -8zM193 28q84 0 134 47t50 109v96q-38 -19 -144 -31q-41 -5 -64.5 -10t-48.5 -17t-36 -35t-11 -58q0 -52 33 -76.5t87 -24.5zM129 630v49h242v-49h-242z" />
    <glyph glyph-name="Abreve" unicode="&#x102;" horiz-adv-x="624" 
d="M6 0l276 715h59l277 -715h-54l-88 229h-329l-88 -229h-53zM273 557l-109 -284h295l-108 284l-39 106h-2q-20 -61 -37 -106zM312 753q-51 0 -83 28.5t-35 73.5h46q10 -56 72 -56t72 56h46q-3 -45 -35 -73.5t-83 -28.5z" />
    <glyph glyph-name="abreve" unicode="&#x103;" horiz-adv-x="492" 
d="M446 -8q-31 0 -49.5 17.5t-18.5 52.5v18h-3q-66 -93 -187 -93q-74 0 -119.5 37.5t-45.5 106.5q0 44 15.5 74.5t47 47.5t63.5 24.5t78 12.5q96 9 123 20t27 46v18q0 112 -130 112q-145 0 -156 -116h-50q16 158 206 158q179 0 179 -157v-304q0 -36 33 -36q9 0 24 5h3v-36
q-16 -8 -40 -8zM193 28q84 0 134 47t50 109v96q-38 -19 -144 -31q-41 -5 -64.5 -10t-48.5 -17t-36 -35t-11 -58q0 -52 33 -76.5t87 -24.5zM250 589q-50 0 -82.5 30t-35.5 76h46q5 -27 23.5 -43t48.5 -16t48.5 16t23.5 43h46q-3 -46 -35.5 -76t-82.5 -30z" />
    <glyph glyph-name="Aogonek" unicode="&#x104;" horiz-adv-x="624" 
d="M616 -125h3v-35q-24 -15 -59 -15q-42 0 -63.5 19t-21.5 51q0 60 87 111l-86 223h-329l-88 -229h-53l276 715h59l275 -710q-91 -60 -91 -107q0 -34 41 -34q23 0 50 11zM273 557l-109 -284h295l-108 284l-39 106h-2q-20 -61 -37 -106z" />
    <glyph glyph-name="aogonek" unicode="&#x105;" horiz-adv-x="492" 
d="M487 -126h3v-35q-23 -14 -59 -14q-42 0 -63.5 19t-21.5 51q0 57 74 101q-42 12 -42 66v18h-3q-66 -93 -187 -93q-74 0 -119.5 37.5t-45.5 106.5q0 44 15.5 74.5t47 47.5t63.5 24.5t78 12.5q96 9 123 20t27 46v18q0 112 -130 112q-145 0 -156 -116h-50q16 158 206 158
q179 0 179 -157v-304q0 -36 33 -36q9 0 24 5h3v-36q-40 -20 -65 -47.5t-25 -54.5q0 -35 41 -35q23 0 50 11zM193 28q84 0 134 47t50 109v96q-38 -19 -144 -31q-41 -5 -64.5 -10t-48.5 -17t-36 -35t-11 -58q0 -52 33 -76.5t87 -24.5z" />
    <glyph glyph-name="Cacute" unicode="&#x106;" horiz-adv-x="656" 
d="M346 -13q-145 0 -228.5 101t-83.5 268t85 270t230 103q106 0 176 -55t91 -155h-52q-15 75 -71.5 120t-143.5 45q-126 0 -193.5 -92.5t-67.5 -235.5t66.5 -233t191.5 -90q102 0 163.5 63t71.5 163h49q-10 -111 -66 -178q-78 -94 -218 -94zM316 753l76 110h69l-101 -110
h-44z" />
    <glyph glyph-name="cacute" unicode="&#x107;" horiz-adv-x="472" 
d="M250 -13q-108 0 -166.5 75t-58.5 196t59 195.5t167 74.5q82 0 134.5 -41.5t64.5 -118.5h-48q-24 118 -151 118q-89 0 -132.5 -64t-43.5 -164t44 -164t131 -64q66 0 109 40t51 105h46q-10 -86 -64 -137t-142 -51zM204 588l76 127h69l-101 -127h-44z" />
    <glyph glyph-name="Ccircumflex" unicode="&#x108;" horiz-adv-x="656" 
d="M346 -13q-145 0 -228.5 101t-83.5 268t85 270t230 103q106 0 176 -55t91 -155h-52q-15 75 -71.5 120t-143.5 45q-126 0 -193.5 -92.5t-67.5 -235.5t66.5 -233t191.5 -90q102 0 163.5 63t71.5 163h49q-10 -111 -66 -178q-78 -94 -218 -94zM223 752l94 101h62l94 -101h-59
l-66 71h-2l-67 -71h-56z" />
    <glyph glyph-name="ccircumflex" unicode="&#x109;" horiz-adv-x="472" 
d="M250 -13q-108 0 -166.5 75t-58.5 196t59 195.5t167 74.5q82 0 134.5 -41.5t64.5 -118.5h-48q-24 118 -151 118q-89 0 -132.5 -64t-43.5 -164t44 -164t131 -64q66 0 109 40t51 105h46q-10 -86 -64 -137t-142 -51zM133 592l80 106h62l80 -106h-57l-54 76h-2l-55 -76h-54z
" />
    <glyph glyph-name="Cdotaccent" unicode="&#x10a;" horiz-adv-x="656" 
d="M346 -13q-145 0 -228.5 101t-83.5 268t85 270t230 103q106 0 176 -55t91 -155h-52q-15 75 -71.5 120t-143.5 45q-126 0 -193.5 -92.5t-67.5 -235.5t66.5 -233t191.5 -90q102 0 163.5 63t71.5 163h49q-10 -111 -66 -178q-78 -94 -218 -94zM324 755v80h49v-80h-49z" />
    <glyph glyph-name="cdotaccent" unicode="&#x10b;" horiz-adv-x="472" 
d="M250 -13q-108 0 -166.5 75t-58.5 196t59 195.5t167 74.5q82 0 134.5 -41.5t64.5 -118.5h-48q-24 118 -151 118q-89 0 -132.5 -64t-43.5 -164t44 -164t131 -64q66 0 109 40t51 105h46q-10 -86 -64 -137t-142 -51zM220 635v80h49v-80h-49z" />
    <glyph glyph-name="Ccaron" unicode="&#x10c;" horiz-adv-x="656" 
d="M346 -13q-145 0 -228.5 101t-83.5 268t85 270t230 103q106 0 176 -55t91 -155h-52q-15 75 -71.5 120t-143.5 45q-126 0 -193.5 -92.5t-67.5 -235.5t66.5 -233t191.5 -90q102 0 163.5 63t71.5 163h49q-10 -111 -66 -178q-78 -94 -218 -94zM473 853l-94 -101h-62l-94 101
h59l66 -71h2l67 71h56z" />
    <glyph glyph-name="ccaron" unicode="&#x10d;" horiz-adv-x="472" 
d="M250 -13q-108 0 -166.5 75t-58.5 196t59 195.5t167 74.5q82 0 134.5 -41.5t64.5 -118.5h-48q-24 118 -151 118q-89 0 -132.5 -64t-43.5 -164t44 -164t131 -64q66 0 109 40t51 105h46q-10 -86 -64 -137t-142 -51zM355 698l-80 -106h-62l-80 106h57l54 -76h2l55 76h54z" />
    <glyph glyph-name="Dcaron" unicode="&#x10e;" horiz-adv-x="644" 
d="M62 0v715h250q150 0 224 -97.5t74 -262.5q0 -164 -77 -259.5t-228 -95.5h-243zM114 46h189q126 0 189.5 81.5t63.5 227.5q0 148 -60.5 230.5t-185.5 82.5h-196v-622zM416 853l-94 -101h-62l-94 101h59l66 -71h2l67 71h56z" />
    <glyph glyph-name="dcaron" unicode="&#x10f;" horiz-adv-x="518" 
d="M243 -13q-101 0 -159.5 75.5t-58.5 194.5q0 125 62 198t155 73q122 0 175 -105h2v292h49v-715h-49v86h-2q-59 -99 -174 -99zM245 28q83 0 131 62t48 166q0 101 -47 165.5t-131 64.5q-79 0 -125 -63t-46 -167q0 -99 43.5 -163.5t126.5 -64.5zM501 558v29q28 13 28 51v3
h-26v74h59v-73q0 -74 -61 -84z" />
    <glyph glyph-name="Dcroat" unicode="&#x110;" horiz-adv-x="660" 
d="M1 336v45h71v334h250q150 0 224 -97.5t74 -262.5q0 -164 -77 -259.5t-228 -95.5h-243v336h-71zM124 46h189q126 0 189.5 81.5t63.5 227.5q0 148 -60.5 230.5t-185.5 82.5h-196v-287h258v-45h-258v-290z" />
    <glyph glyph-name="dcroat" unicode="&#x111;" horiz-adv-x="518" 
d="M292 588v41h127v86h49v-86h57v-41h-57v-588h-49v86h-2q-59 -99 -174 -99q-101 0 -159.5 75.5t-58.5 194.5q0 125 62 198t155 73q122 0 175 -105h2v165h-127zM245 28q83 0 131 62t48 166q0 101 -47 165.5t-131 64.5q-79 0 -125 -63t-46 -167q0 -99 43.5 -163.5
t126.5 -64.5z" />
    <glyph glyph-name="Emacron" unicode="&#x112;" horiz-adv-x="582" 
d="M62 0v715h474v-46h-422v-278h388v-45h-388v-298h432v-48h-484zM190 762v49h242v-49h-242z" />
    <glyph glyph-name="emacron" unicode="&#x113;" horiz-adv-x="491" 
d="M466 253h-391q1 -99 47 -161t137 -62q120 0 157 124h47q-17 -76 -69 -121.5t-135 -45.5q-111 0 -172.5 74.5t-61.5 196.5q0 120 62.5 195t167.5 75q83 0 136 -50q77 -71 75 -225zM416 293q-2 84 -41.5 138.5t-119.5 54.5t-125.5 -53t-53.5 -140h340zM131 630v49h242v-49
h-242z" />
    <glyph glyph-name="Ebreve" unicode="&#x114;" horiz-adv-x="582" 
d="M62 0v715h474v-46h-422v-278h388v-45h-388v-298h432v-48h-484zM310 753q-51 0 -83 28.5t-35 73.5h46q10 -56 72 -56t72 56h46q-3 -45 -35 -73.5t-83 -28.5z" />
    <glyph glyph-name="ebreve" unicode="&#x115;" horiz-adv-x="491" 
d="M466 253h-391q1 -99 47 -161t137 -62q120 0 157 124h47q-17 -76 -69 -121.5t-135 -45.5q-111 0 -172.5 74.5t-61.5 196.5q0 120 62.5 195t167.5 75q83 0 136 -50q77 -71 75 -225zM416 293q-2 84 -41.5 138.5t-119.5 54.5t-125.5 -53t-53.5 -140h340zM251 589
q-50 0 -82.5 30t-35.5 76h46q5 -27 23.5 -43t48.5 -16t48.5 16t23.5 43h46q-3 -46 -35.5 -76t-82.5 -30z" />
    <glyph glyph-name="Edotaccent" unicode="&#x116;" horiz-adv-x="582" 
d="M62 0v715h474v-46h-422v-278h388v-45h-388v-298h432v-48h-484zM287 755v80h49v-80h-49z" />
    <glyph glyph-name="edotaccent" unicode="&#x117;" horiz-adv-x="491" 
d="M466 253h-391q1 -99 47 -161t137 -62q120 0 157 124h47q-17 -76 -69 -121.5t-135 -45.5q-111 0 -172.5 74.5t-61.5 196.5q0 120 62.5 195t167.5 75q83 0 136 -50q77 -71 75 -225zM416 293q-2 84 -41.5 138.5t-119.5 54.5t-125.5 -53t-53.5 -140h340zM228 635v80h49v-80
h-49z" />
    <glyph glyph-name="Eogonek" unicode="&#x118;" horiz-adv-x="582" 
d="M62 0v715h474v-46h-422v-278h388v-45h-388v-298h432v-48h-40q-83 -57 -83 -102q0 -34 41 -34q23 0 50 11h3v-35q-24 -15 -59 -15q-42 0 -63.5 19t-21.5 51q0 62 76 105h-387z" />
    <glyph glyph-name="eogonek" unicode="&#x119;" horiz-adv-x="491" 
d="M466 253h-391q1 -99 47 -161t137 -62q120 0 157 124h47q-11 -50 -35.5 -83t-61.5 -64q-43 -36 -63.5 -60.5t-20.5 -49.5q0 -34 41 -34q23 0 50 11h3v-35q-23 -14 -59 -14q-42 0 -63.5 19t-21.5 51q0 51 65 96q-20 -4 -38 -4q-111 0 -172.5 74.5t-61.5 196.5
q0 120 62.5 195t167.5 75q83 0 136 -50q77 -71 75 -225zM416 293q-2 84 -41.5 138.5t-119.5 54.5t-125.5 -53t-53.5 -140h340z" />
    <glyph glyph-name="Ecaron" unicode="&#x11a;" horiz-adv-x="582" 
d="M62 0v715h474v-46h-422v-278h388v-45h-388v-298h432v-48h-484zM436 853l-94 -101h-62l-94 101h59l66 -71h2l67 71h56z" />
    <glyph glyph-name="ecaron" unicode="&#x11b;" horiz-adv-x="491" 
d="M466 253h-391q1 -99 47 -161t137 -62q120 0 157 124h47q-17 -76 -69 -121.5t-135 -45.5q-111 0 -172.5 74.5t-61.5 196.5q0 120 62.5 195t167.5 75q83 0 136 -50q77 -71 75 -225zM416 293q-2 84 -41.5 138.5t-119.5 54.5t-125.5 -53t-53.5 -140h340zM363 698l-80 -106
h-62l-80 106h57l54 -76h2l55 76h54z" />
    <glyph glyph-name="Gcircumflex" unicode="&#x11c;" horiz-adv-x="709" 
d="M615 0l-6 128h-4q-75 -141 -249 -141q-155 0 -238.5 103t-83.5 268q0 164 89 267.5t245 103.5q106 0 180.5 -54.5t94.5 -161.5h-52q-17 84 -78 127.5t-145 43.5q-137 0 -208.5 -92t-71.5 -234t67.5 -233.5t200.5 -91.5q124 0 186.5 72.5t62.5 177.5v31h-240v46h290v-360
h-40zM232 752l94 101h62l94 -101h-59l-66 71h-2l-67 -71h-56z" />
    <glyph glyph-name="gcircumflex" unicode="&#x11d;" horiz-adv-x="517" 
d="M250 -187q-88 0 -140.5 37t-58.5 93h49q10 -44 50 -66t98 -22q86 0 128 43t42 116v88h-3q-58 -97 -171 -97q-102 0 -160.5 71t-58.5 188q0 124 63.5 194t158.5 70q111 0 168 -100h3v89h49v-502q0 -88 -51 -142q-60 -60 -166 -60zM246 46q83 0 129.5 58t46.5 159
q0 100 -45 161.5t-128 61.5q-79 0 -126.5 -61t-47.5 -162q0 -97 43.5 -157t127.5 -60zM145 592l80 106h62l80 -106h-57l-54 76h-2l-55 -76h-54z" />
    <glyph glyph-name="Gbreve" unicode="&#x11e;" horiz-adv-x="709" 
d="M615 0l-6 128h-4q-75 -141 -249 -141q-155 0 -238.5 103t-83.5 268q0 164 89 267.5t245 103.5q106 0 180.5 -54.5t94.5 -161.5h-52q-17 84 -78 127.5t-145 43.5q-137 0 -208.5 -92t-71.5 -234t67.5 -233.5t200.5 -91.5q124 0 186.5 72.5t62.5 177.5v31h-240v46h290v-360
h-40zM357 753q-51 0 -83 28.5t-35 73.5h46q10 -56 72 -56t72 56h46q-3 -45 -35 -73.5t-83 -28.5z" />
    <glyph glyph-name="gbreve" unicode="&#x11f;" horiz-adv-x="517" 
d="M250 -187q-88 0 -140.5 37t-58.5 93h49q10 -44 50 -66t98 -22q86 0 128 43t42 116v88h-3q-58 -97 -171 -97q-102 0 -160.5 71t-58.5 188q0 124 63.5 194t158.5 70q111 0 168 -100h3v89h49v-502q0 -88 -51 -142q-60 -60 -166 -60zM246 46q83 0 129.5 58t46.5 159
q0 100 -45 161.5t-128 61.5q-79 0 -126.5 -61t-47.5 -162q0 -97 43.5 -157t127.5 -60zM256 589q-50 0 -82.5 30t-35.5 76h46q5 -27 23.5 -43t48.5 -16t48.5 16t23.5 43h46q-3 -46 -35.5 -76t-82.5 -30z" />
    <glyph glyph-name="Gdotaccent" unicode="&#x120;" horiz-adv-x="709" 
d="M615 0l-6 128h-4q-75 -141 -249 -141q-155 0 -238.5 103t-83.5 268q0 164 89 267.5t245 103.5q106 0 180.5 -54.5t94.5 -161.5h-52q-17 84 -78 127.5t-145 43.5q-137 0 -208.5 -92t-71.5 -234t67.5 -233.5t200.5 -91.5q124 0 186.5 72.5t62.5 177.5v31h-240v46h290v-360
h-40zM333 755v80h49v-80h-49z" />
    <glyph glyph-name="gdotaccent" unicode="&#x121;" horiz-adv-x="517" 
d="M250 -187q-88 0 -140.5 37t-58.5 93h49q10 -44 50 -66t98 -22q86 0 128 43t42 116v88h-3q-58 -97 -171 -97q-102 0 -160.5 71t-58.5 188q0 124 63.5 194t158.5 70q111 0 168 -100h3v89h49v-502q0 -88 -51 -142q-60 -60 -166 -60zM246 46q83 0 129.5 58t46.5 159
q0 100 -45 161.5t-128 61.5q-79 0 -126.5 -61t-47.5 -162q0 -97 43.5 -157t127.5 -60zM232 635v80h49v-80h-49z" />
    <glyph glyph-name="Gcommaaccent" unicode="&#x122;" horiz-adv-x="709" 
d="M615 0l-6 128h-4q-75 -141 -249 -141q-155 0 -238.5 103t-83.5 268q0 164 89 267.5t245 103.5q106 0 180.5 -54.5t94.5 -161.5h-52q-17 84 -78 127.5t-145 43.5q-137 0 -208.5 -92t-71.5 -234t67.5 -233.5t200.5 -91.5q124 0 186.5 72.5t62.5 177.5v31h-240v46h290v-360
h-40zM327 -204v29q28 13 28 53v3h-26v71h59v-70q0 -76 -61 -86z" />
    <glyph glyph-name="gcommaaccent" unicode="&#x123;" horiz-adv-x="517" 
d="M250 -187q-88 0 -140.5 37t-58.5 93h49q10 -44 50 -66t98 -22q86 0 128 43t42 116v88h-3q-58 -97 -171 -97q-102 0 -160.5 71t-58.5 188q0 124 63.5 194t158.5 70q111 0 168 -100h3v89h49v-502q0 -88 -51 -142q-60 -60 -166 -60zM246 46q83 0 129.5 58t46.5 159
q0 100 -45 161.5t-128 61.5q-79 0 -126.5 -61t-47.5 -162q0 -97 43.5 -157t127.5 -60zM284 754v-29q-28 -13 -28 -53v-3h26v-71h-59v70q0 76 61 86z" />
    <glyph glyph-name="Hcircumflex" unicode="&#x124;" horiz-adv-x="648" 
d="M62 0v715h52v-313h420v313h52v-715h-52v358h-420v-358h-52zM199 752l94 101h62l94 -101h-59l-66 71h-2l-67 -71h-56z" />
    <glyph glyph-name="hcircumflex" unicode="&#x125;" horiz-adv-x="490" 
d="M104 715v-285h2q60 97 180 97q69 0 113.5 -41.5t44.5 -116.5v-369h-49v364q0 121 -118 121q-70 0 -121.5 -43.5t-51.5 -107.5v-334h-49v715h49zM124 752l94 101h62l94 -101h-59l-66 71h-2l-67 -71h-56z" />
    <glyph glyph-name="Hbar" unicode="&#x126;" horiz-adv-x="648" 
d="M-8 523v44h70v148h52v-148h420v148h52v-148h70v-44h-70v-523h-52v358h-420v-358h-52v523h-70zM114 402h420v121h-420v-121z" />
    <glyph glyph-name="hbar" unicode="&#x127;" horiz-adv-x="490" 
d="M104 715v-86h127v-41h-127v-158h2q60 97 180 97q69 0 113.5 -41.5t44.5 -116.5v-369h-49v364q0 121 -118 121q-70 0 -121.5 -43.5t-51.5 -107.5v-334h-49v588h-57v41h57v86h49z" />
    <glyph glyph-name="Itilde" unicode="&#x128;" horiz-adv-x="184" 
d="M66 0v715h52v-715h-52zM151 760q-22 0 -63 21.5t-54 21.5q-11 0 -20.5 -11t-10.5 -30h-42q4 41 23.5 62.5t49.5 21.5q23 0 62.5 -21.5t52.5 -21.5t22.5 11t10.5 30h42q-3 -40 -23 -62t-50 -22z" />
    <glyph glyph-name="itilde" unicode="&#x129;" horiz-adv-x="155" 
d="M53 0v517h49v-517h-49zM124 602q-21 0 -52.5 19.5t-39.5 19.5q-21 0 -24 -39h-42q2 41 19.5 61.5t45.5 20.5q22 0 52 -19.5t38 -19.5q23 0 26 39h42q-1 -40 -19.5 -61t-45.5 -21z" />
    <glyph glyph-name="Imacron" unicode="&#x12a;" horiz-adv-x="184" 
d="M66 0v715h52v-715h-52zM11 764v44h162v-44h-162z" />
    <glyph glyph-name="imacron" unicode="&#x12b;" horiz-adv-x="155" 
d="M53 0v517h49v-517h-49zM-4 630v49h162v-49h-162z" />
    <glyph glyph-name="Ibreve" unicode="&#x12c;" horiz-adv-x="184" 
d="M66 0v715h52v-715h-52zM92 753q-51 0 -83 28.5t-35 73.5h46q10 -56 72 -56t72 56h46q-3 -45 -35 -73.5t-83 -28.5z" />
    <glyph glyph-name="ibreve" unicode="&#x12d;" horiz-adv-x="155" 
d="M53 0v517h49v-517h-49zM77 589q-50 0 -82.5 30t-35.5 76h46q5 -27 23.5 -43t48.5 -16t48.5 16t23.5 43h46q-3 -46 -35.5 -76t-82.5 -30z" />
    <glyph glyph-name="Iogonek" unicode="&#x12e;" horiz-adv-x="184" 
d="M131 -125h3v-35q-24 -15 -57 -15q-84 0 -84 71q0 60 73 105v714h52v-713q-75 -57 -75 -104q0 -34 40 -34q21 0 48 11z" />
    <glyph glyph-name="iogonek" unicode="&#x12f;" horiz-adv-x="155" 
d="M53 2v515h49v-518q-38 -30 -56 -53t-18 -48q0 -35 39 -35q20 0 47 11h3v-34q-24 -15 -56 -15q-40 0 -61.5 19t-21.5 51q0 60 75 107zM53 635v80h49v-80h-49z" />
    <glyph glyph-name="Idotaccent" unicode="&#x130;" horiz-adv-x="184" 
d="M66 0v715h52v-715h-52zM68 755v80h49v-80h-49z" />
    <glyph glyph-name="dotlessi" unicode="&#x131;" horiz-adv-x="155" 
d="M53 0v517h49v-517h-49z" />
    <glyph glyph-name="IJ" unicode="&#x132;" horiz-adv-x="631" 
d="M66 0v715h52v-715h-52zM390 -13q-95 0 -146 49t-51 148v38h51v-36q0 -81 36.5 -116.5t110.5 -35.5q62 0 95.5 33.5t33.5 100.5v547h52v-551q0 -78 -46.5 -127.5t-135.5 -49.5z" />
    <glyph glyph-name="ij" unicode="&#x133;" horiz-adv-x="310" 
d="M53 0v517h49v-517h-49zM53 635v80h49v-80h-49zM140 -166v42h10q30 0 44 15.5t14 49.5v576h49v-577q0 -56 -25.5 -81t-78.5 -25h-13zM208 635v80h49v-80h-49z" />
    <glyph glyph-name="Jcircumflex" unicode="&#x134;" horiz-adv-x="460" 
d="M219 -13q-95 0 -146 49t-51 148v38h51v-36q0 -81 36.5 -116.5t110.5 -35.5q62 0 95.5 33.5t33.5 100.5v547h52v-551q0 -78 -46.5 -127.5t-135.5 -49.5zM250 752l94 101h62l94 -101h-59l-66 71h-2l-67 -71h-56z" />
    <glyph glyph-name="jcircumflex" unicode="&#x135;" horiz-adv-x="155" 
d="M-15 -166v42h10q30 0 44 15.5t14 49.5v576h49v-577q0 -56 -25.5 -81t-78.5 -25h-13zM-18 592l64 106h62l64 -106h-52l-43 75h-2l-44 -75h-49z" />
    <glyph glyph-name="Kcommaaccent" unicode="&#x136;" horiz-adv-x="613" 
d="M62 0v715h52v-399l409 400h69l-305 -295l319 -421h-63l-293 385l-136 -133v-252h-52zM270 -204v29q28 13 28 53v3h-26v71h59v-70q0 -76 -61 -86z" />
    <glyph glyph-name="kcommaaccent" unicode="&#x137;" horiz-adv-x="467" 
d="M407 0l-200 297l-108 -104v-193h-49v715h49v-465l278 267h62l-197 -187l221 -330h-56zM198 -204v29q28 13 28 53v3h-26v71h59v-70q0 -76 -61 -86z" />
    <glyph glyph-name="Lacute" unicode="&#x139;" horiz-adv-x="524" 
d="M62 0v715h52v-667h385v-48h-437zM68 753l76 110h69l-101 -110h-44z" />
    <glyph glyph-name="lacute" unicode="&#x13a;" horiz-adv-x="155" 
d="M53 0v715h49v-715h-49zM55 753l76 110h69l-101 -110h-44z" />
    <glyph glyph-name="Lcommaaccent" unicode="&#x13b;" horiz-adv-x="524" 
d="M62 0v715h52v-667h385v-48h-437zM240 -204v29q28 13 28 53v3h-26v71h59v-70q0 -76 -61 -86z" />
    <glyph glyph-name="lcommaaccent" unicode="&#x13c;" horiz-adv-x="155" 
d="M53 0v715h49v-715h-49zM47 -204v29q28 13 28 53v3h-26v71h59v-70q0 -76 -61 -86z" />
    <glyph glyph-name="Lcaron" unicode="&#x13d;" horiz-adv-x="524" 
d="M62 0v715h52v-667h385v-48h-437zM262 558v29q28 13 28 51v3h-26v74h59v-73q0 -74 -61 -84z" />
    <glyph glyph-name="lcaron" unicode="&#x13e;" horiz-adv-x="155" 
d="M53 0v715h49v-715h-49zM135 558v29q28 13 28 51v3h-26v74h59v-73q0 -74 -61 -84z" />
    <glyph glyph-name="Ldot" unicode="&#x13f;" horiz-adv-x="524" 
d="M62 0v715h52v-667h385v-48h-437zM341 321v79h61v-79h-61z" />
    <glyph glyph-name="ldot" unicode="&#x140;" horiz-adv-x="238" 
d="M53 0v715h49v-715h-49zM166 271v79h61v-79h-61z" />
    <glyph glyph-name="Lslash" unicode="&#x141;" horiz-adv-x="544" 
d="M-5 203v48l87 46v418h52v-390l271 144v-48l-271 -144v-229h385v-48h-437v249z" />
    <glyph glyph-name="lslash" unicode="&#x142;" horiz-adv-x="195" 
d="M5 291v53l68 58v313h49v-271l75 64v-53l-75 -64v-391h-49v349z" />
    <glyph glyph-name="Nacute" unicode="&#x143;" horiz-adv-x="649" 
d="M62 0v715h58l332 -505l83 -135h2v640h50v-715h-55l-328 494l-90 143h-2v-637h-50zM310 753l76 110h69l-101 -110h-44z" />
    <glyph glyph-name="nacute" unicode="&#x144;" horiz-adv-x="485" 
d="M99 517v-87h2q60 97 180 97q69 0 113.5 -41.5t44.5 -116.5v-369h-49v364q0 121 -118 121q-70 0 -121.5 -43.5t-51.5 -107.5v-334h-49v517h49zM208 588l76 127h69l-101 -127h-44z" />
    <glyph glyph-name="Ncommaaccent" unicode="&#x145;" horiz-adv-x="649" 
d="M62 0v715h58l332 -505l83 -135h2v640h50v-715h-55l-328 494l-90 143h-2v-637h-50zM279 -204v29q28 13 28 53v3h-26v71h59v-70q0 -76 -61 -86z" />
    <glyph glyph-name="ncommaaccent" unicode="&#x146;" horiz-adv-x="485" 
d="M99 517v-87h2q60 97 180 97q69 0 113.5 -41.5t44.5 -116.5v-369h-49v364q0 121 -118 121q-70 0 -121.5 -43.5t-51.5 -107.5v-334h-49v517h49zM218 -204v29q28 13 28 53v3h-26v71h59v-70q0 -76 -61 -86z" />
    <glyph glyph-name="Ncaron" unicode="&#x147;" horiz-adv-x="649" 
d="M62 0v715h58l332 -505l83 -135h2v640h50v-715h-55l-328 494l-90 143h-2v-637h-50zM467 853l-94 -101h-62l-94 101h59l66 -71h2l67 71h56z" />
    <glyph glyph-name="ncaron" unicode="&#x148;" horiz-adv-x="485" 
d="M99 517v-87h2q60 97 180 97q69 0 113.5 -41.5t44.5 -116.5v-369h-49v364q0 121 -118 121q-70 0 -121.5 -43.5t-51.5 -107.5v-334h-49v517h49zM359 698l-80 -106h-62l-80 106h57l54 -76h2l55 76h54z" />
    <glyph glyph-name="napostrophe" unicode="&#x149;" horiz-adv-x="485" 
d="M-3 558v29q28 13 28 51v3h-26v74h59v-73q0 -74 -61 -84zM99 517v-87h2q60 97 180 97q69 0 113.5 -41.5t44.5 -116.5v-369h-49v364q0 121 -118 121q-70 0 -121.5 -43.5t-51.5 -107.5v-334h-49v517h49z" />
    <glyph glyph-name="Omacron" unicode="&#x14c;" horiz-adv-x="710" 
d="M354 -13q-144 0 -232 105t-88 266t88 266t232 105t233 -105t89 -266t-89 -266t-233 -105zM354 34q126 0 197 92.5t71 231.5t-71 231.5t-197 92.5t-196 -92.5t-70 -231.5t70 -231.5t196 -92.5zM234 762v49h242v-49h-242z" />
    <glyph glyph-name="omacron" unicode="&#x14d;" horiz-adv-x="514" 
d="M257 -13q-107 0 -169.5 76t-62.5 195t62.5 194.5t169.5 75.5t169.5 -75t62.5 -195t-62.5 -195.5t-169.5 -75.5zM257 29q86 0 134 65t48 164t-48 164t-134 65t-134 -65t-48 -164t48 -164t134 -65zM136 630v49h242v-49h-242z" />
    <glyph glyph-name="Obreve" unicode="&#x14e;" horiz-adv-x="710" 
d="M354 -13q-144 0 -232 105t-88 266t88 266t232 105t233 -105t89 -266t-89 -266t-233 -105zM354 34q126 0 197 92.5t71 231.5t-71 231.5t-197 92.5t-196 -92.5t-70 -231.5t70 -231.5t196 -92.5zM355 753q-51 0 -83 28.5t-35 73.5h46q10 -56 72 -56t72 56h46
q-3 -45 -35 -73.5t-83 -28.5z" />
    <glyph glyph-name="obreve" unicode="&#x14f;" horiz-adv-x="514" 
d="M257 -13q-107 0 -169.5 76t-62.5 195t62.5 194.5t169.5 75.5t169.5 -75t62.5 -195t-62.5 -195.5t-169.5 -75.5zM257 29q86 0 134 65t48 164t-48 164t-134 65t-134 -65t-48 -164t48 -164t134 -65zM257 589q-50 0 -82.5 30t-35.5 76h46q5 -27 23.5 -43t48.5 -16t48.5 16
t23.5 43h46q-3 -46 -35.5 -76t-82.5 -30z" />
    <glyph glyph-name="Ohungarumlaut" unicode="&#x150;" horiz-adv-x="710" 
d="M354 -13q-144 0 -232 105t-88 266t88 266t232 105t233 -105t89 -266t-89 -266t-233 -105zM354 34q126 0 197 92.5t71 231.5t-71 231.5t-197 92.5t-196 -92.5t-70 -231.5t70 -231.5t196 -92.5zM265 753l40 110h60l-57 -110h-43zM394 753l40 110h60l-57 -110h-43z" />
    <glyph glyph-name="ohungarumlaut" unicode="&#x151;" horiz-adv-x="514" 
d="M257 -13q-107 0 -169.5 76t-62.5 195t62.5 194.5t169.5 75.5t169.5 -75t62.5 -195t-62.5 -195.5t-169.5 -75.5zM257 29q86 0 134 65t48 164t-48 164t-134 65t-134 -65t-48 -164t48 -164t134 -65zM170 588l40 127h60l-57 -127h-43zM299 588l40 127h60l-57 -127h-43z" />
    <glyph glyph-name="OE" unicode="&#x152;" horiz-adv-x="1096" 
d="M355 -13q-144 0 -232.5 105t-88.5 266t88.5 266t232.5 105q165 0 241 -138v124h454v-46h-402v-278h378v-45h-378v-298h412v-48h-464v123q-80 -136 -241 -136zM354 34q103 0 172.5 68t69.5 173v179q-4 98 -72.5 163t-169.5 65q-126 0 -196 -92.5t-70 -231.5t70 -231.5
t196 -92.5z" />
    <glyph glyph-name="oe" unicode="&#x153;" horiz-adv-x="905" 
d="M257 -13q-107 0 -169.5 76t-62.5 195t62.5 194.5t169.5 75.5q76 0 129 -39.5t78 -108.5q25 70 78 109t127 39q83 0 136 -50q77 -71 75 -225h-391q1 -99 47 -161t137 -62q120 0 157 124h47q-17 -76 -69 -121.5t-135 -45.5q-79 0 -132 39t-77 108q-25 -69 -78 -108
t-129 -39zM257 29q86 0 134 65t48 164t-48 164t-134 65t-134 -65t-48 -164t48 -164t134 -65zM830 293q-2 84 -41.5 138.5t-119.5 54.5t-125.5 -53t-53.5 -140h340z" />
    <glyph glyph-name="Racute" unicode="&#x154;" horiz-adv-x="615" 
d="M62 0v715h309q97 0 147.5 -49.5t50.5 -141.5q0 -132 -117 -169v-3q54 -18 76.5 -62.5t25.5 -132.5q5 -135 30 -153v-4h-56q-12 7 -17 37.5t-9 122.5q-4 100 -38.5 135.5t-119.5 35.5h-230v-331h-52zM114 669v-292h240q79 0 120.5 37.5t41.5 107.5q0 147 -151 147h-251z
M267 753l76 110h69l-101 -110h-44z" />
    <glyph glyph-name="racute" unicode="&#x155;" horiz-adv-x="285" 
d="M99 517v-102h2q28 56 73 82q40 23 95 23v-49q-42 1 -73 -12q-43 -19 -70 -62t-27 -98v-299h-49v517h49zM126 588l76 127h69l-101 -127h-44z" />
    <glyph glyph-name="Rcommaaccent" unicode="&#x156;" horiz-adv-x="615" 
d="M62 0v715h309q97 0 147.5 -49.5t50.5 -141.5q0 -132 -117 -169v-3q54 -18 76.5 -62.5t25.5 -132.5q5 -135 30 -153v-4h-56q-12 7 -17 37.5t-9 122.5q-4 100 -38.5 135.5t-119.5 35.5h-230v-331h-52zM114 669v-292h240q79 0 120.5 37.5t41.5 107.5q0 147 -151 147h-251z
M269 -204v29q28 13 28 53v3h-26v71h59v-70q0 -76 -61 -86z" />
    <glyph glyph-name="rcommaaccent" unicode="&#x157;" horiz-adv-x="285" 
d="M99 517v-102h2q28 56 73 82q40 23 95 23v-49q-42 1 -73 -12q-43 -19 -70 -62t-27 -98v-299h-49v517h49zM42 -204v29q28 13 28 53v3h-26v71h59v-70q0 -76 -61 -86z" />
    <glyph glyph-name="Rcaron" unicode="&#x158;" horiz-adv-x="615" 
d="M62 0v715h309q97 0 147.5 -49.5t50.5 -141.5q0 -132 -117 -169v-3q54 -18 76.5 -62.5t25.5 -132.5q5 -135 30 -153v-4h-56q-12 7 -17 37.5t-9 122.5q-4 100 -38.5 135.5t-119.5 35.5h-230v-331h-52zM114 669v-292h240q79 0 120.5 37.5t41.5 107.5q0 147 -151 147h-251z
M424 853l-94 -101h-62l-94 101h59l66 -71h2l67 71h56z" />
    <glyph glyph-name="rcaron" unicode="&#x159;" horiz-adv-x="285" 
d="M99 517v-102h2q28 56 73 82q40 23 95 23v-49q-42 1 -73 -12q-43 -19 -70 -62t-27 -98v-299h-49v517h49zM277 698l-80 -106h-62l-80 106h57l54 -76h2l55 76h54z" />
    <glyph glyph-name="Sacute" unicode="&#x15a;" horiz-adv-x="581" 
d="M302 -13q-130 0 -201.5 66t-77.5 173h53q4 -90 64.5 -141.5t160.5 -51.5q84 0 138 43t54 117q0 75 -46 105.5t-179 55.5q-111 20 -165 61t-54 125t65.5 136.5t171.5 52.5t168.5 -54.5t70.5 -144.5h-52q-7 73 -58 113t-128 40q-86 0 -135.5 -39.5t-49.5 -102.5t43.5 -92.5
t154.5 -49.5q48 -9 80 -17.5t66.5 -24t54.5 -35.5t33 -51.5t13 -73.5q0 -92 -67.5 -151t-177.5 -59zM253 753l76 110h69l-101 -110h-44z" />
    <glyph glyph-name="sacute" unicode="&#x15b;" horiz-adv-x="433" 
d="M221 -13q-96 0 -148 48.5t-56 120.5h50q5 -62 46.5 -94.5t107.5 -32.5q65 0 102 30t37 81q0 42 -28 63.5t-113 41.5q-94 22 -139.5 52t-45.5 93t50 100.5t126 37.5q163 0 184 -147h-48q-5 49 -41 76.5t-95 27.5q-61 0 -94 -26t-33 -68t33.5 -61.5t120.5 -40.5
q89 -21 130.5 -51.5t41.5 -98.5q0 -66 -50 -109t-138 -43zM178 588l76 127h69l-101 -127h-44z" />
    <glyph glyph-name="Scircumflex" unicode="&#x15c;" horiz-adv-x="581" 
d="M302 -13q-130 0 -201.5 66t-77.5 173h53q4 -90 64.5 -141.5t160.5 -51.5q84 0 138 43t54 117q0 75 -46 105.5t-179 55.5q-111 20 -165 61t-54 125t65.5 136.5t171.5 52.5t168.5 -54.5t70.5 -144.5h-52q-7 73 -58 113t-128 40q-86 0 -135.5 -39.5t-49.5 -102.5t43.5 -92.5
t154.5 -49.5q48 -9 80 -17.5t66.5 -24t54.5 -35.5t33 -51.5t13 -73.5q0 -92 -67.5 -151t-177.5 -59zM160 752l94 101h62l94 -101h-59l-66 71h-2l-67 -71h-56z" />
    <glyph glyph-name="scircumflex" unicode="&#x15d;" horiz-adv-x="433" 
d="M221 -13q-96 0 -148 48.5t-56 120.5h50q5 -62 46.5 -94.5t107.5 -32.5q65 0 102 30t37 81q0 42 -28 63.5t-113 41.5q-94 22 -139.5 52t-45.5 93t50 100.5t126 37.5q163 0 184 -147h-48q-5 49 -41 76.5t-95 27.5q-61 0 -94 -26t-33 -68t33.5 -61.5t120.5 -40.5
q89 -21 130.5 -51.5t41.5 -98.5q0 -66 -50 -109t-138 -43zM107 592l80 106h62l80 -106h-57l-54 76h-2l-55 -76h-54z" />
    <glyph glyph-name="Scedilla" unicode="&#x15e;" horiz-adv-x="581" 
d="M252 -184q-50 0 -89 22l13 25q36 -13 67 -13q57 0 57 37q0 29 -43 29q-16 0 -39 -7l-13 22l59 58q-112 9 -174 73.5t-67 163.5h53q4 -90 64.5 -141.5t160.5 -51.5q84 0 138 43t54 117q0 75 -46 105.5t-179 55.5q-111 20 -165 61t-54 125t65.5 136.5t171.5 52.5
t168.5 -54.5t70.5 -144.5h-52q-7 73 -58 113t-128 40q-86 0 -135.5 -39.5t-49.5 -102.5t43.5 -92.5t154.5 -49.5q48 -9 80 -17.5t66.5 -24t54.5 -35.5t33 -51.5t13 -73.5q0 -91 -65.5 -149.5t-173.5 -60.5l-40 -37v-2q35 2 57.5 -14.5t22.5 -46.5q0 -34 -26.5 -52.5
t-69.5 -18.5z" />
    <glyph glyph-name="scedilla" unicode="&#x15f;" horiz-adv-x="433" 
d="M185 -184q-50 0 -89 22l13 25q36 -13 67 -13q57 0 57 37q0 29 -43 29q-16 0 -39 -7l-13 22l58 57q-84 6 -130 53.5t-49 114.5h50q5 -62 46.5 -94.5t107.5 -32.5q65 0 102 30t37 81q0 42 -28 63.5t-113 41.5q-94 22 -139.5 52t-45.5 93t50 100.5t126 37.5q163 0 184 -147
h-48q-5 49 -41 76.5t-95 27.5q-61 0 -94 -26t-33 -68t33.5 -61.5t120.5 -40.5q89 -21 130.5 -51.5t41.5 -98.5q0 -61 -44 -103.5t-123 -47.5l-41 -38v-2q35 2 57.5 -14.5t22.5 -46.5q0 -34 -26.5 -52.5t-69.5 -18.5z" />
    <glyph glyph-name="Scaron" unicode="&#x160;" horiz-adv-x="581" 
d="M302 -13q-130 0 -201.5 66t-77.5 173h53q4 -90 64.5 -141.5t160.5 -51.5q84 0 138 43t54 117q0 75 -46 105.5t-179 55.5q-111 20 -165 61t-54 125t65.5 136.5t171.5 52.5t168.5 -54.5t70.5 -144.5h-52q-7 73 -58 113t-128 40q-86 0 -135.5 -39.5t-49.5 -102.5t43.5 -92.5
t154.5 -49.5q48 -9 80 -17.5t66.5 -24t54.5 -35.5t33 -51.5t13 -73.5q0 -92 -67.5 -151t-177.5 -59zM410 853l-94 -101h-62l-94 101h59l66 -71h2l67 71h56z" />
    <glyph glyph-name="scaron" unicode="&#x161;" horiz-adv-x="433" 
d="M221 -13q-96 0 -148 48.5t-56 120.5h50q5 -62 46.5 -94.5t107.5 -32.5q65 0 102 30t37 81q0 42 -28 63.5t-113 41.5q-94 22 -139.5 52t-45.5 93t50 100.5t126 37.5q163 0 184 -147h-48q-5 49 -41 76.5t-95 27.5q-61 0 -94 -26t-33 -68t33.5 -61.5t120.5 -40.5
q89 -21 130.5 -51.5t41.5 -98.5q0 -66 -50 -109t-138 -43zM329 698l-80 -106h-62l-80 106h57l54 -76h2l55 76h54z" />
    <glyph glyph-name="Tcommaaccent" unicode="&#x162;" horiz-adv-x="574" 
d="M17 668v47h540v-47h-244v-668h-52v668h-244zM257 -204v29q28 13 28 53v3h-26v71h59v-70q0 -76 -61 -86z" />
    <glyph glyph-name="tcommaaccent" unicode="&#x163;" horiz-adv-x="266" 
d="M14 476v41h80v156h49v-156h94v-41h-94v-388q0 -28 11.5 -39t37.5 -11q23 0 39 9h3v-42q-24 -9 -52 -9q-88 0 -88 88v392h-80zM129 -204v29q28 13 28 53v3h-26v71h59v-70q0 -76 -61 -86z" />
    <glyph glyph-name="Tcaron" unicode="&#x164;" horiz-adv-x="574" 
d="M17 668v47h540v-47h-244v-668h-52v668h-244zM412 853l-94 -101h-62l-94 101h59l66 -71h2l67 71h56z" />
    <glyph glyph-name="tcaron" unicode="&#x165;" horiz-adv-x="266" 
d="M14 476v41h80v156h49v-156h94v-41h-94v-388q0 -28 11.5 -39t37.5 -11q23 0 39 9h3v-42q-24 -9 -52 -9q-88 0 -88 88v392h-80zM198 558v29q28 13 28 54h-26v74h59v-73q0 -74 -61 -84z" />
    <glyph glyph-name="Tbar" unicode="&#x166;" horiz-adv-x="574" 
d="M17 668v47h540v-47h-244v-262h130v-44h-130v-362h-52v362h-130v44h130v262h-244z" />
    <glyph glyph-name="tbar" unicode="&#x167;" horiz-adv-x="266" 
d="M14 308v41h80v127h-80v41h80v156h49v-156h94v-41h-94v-127h94v-41h-94v-220q0 -28 11.5 -39t37.5 -11q23 0 39 9h3v-42q-24 -9 -52 -9q-88 0 -88 88v224h-80z" />
    <glyph glyph-name="Utilde" unicode="&#x168;" horiz-adv-x="622" 
d="M308 -11q-119 0 -185.5 60t-66.5 176v490h52v-486q0 -102 51 -148t152 -46q203 0 203 194v486h52v-490q0 -118 -69 -177t-189 -59zM370 760q-22 0 -63 21.5t-54 21.5q-11 0 -20.5 -11t-10.5 -30h-42q4 41 23.5 62.5t49.5 21.5q23 0 62.5 -21.5t52.5 -21.5t22.5 11
t10.5 30h42q-3 -40 -23 -62t-50 -22z" />
    <glyph glyph-name="utilde" unicode="&#x169;" horiz-adv-x="479" 
d="M429 0h-49v79h-2q-29 -43 -67.5 -67t-98.5 -24q-73 0 -119.5 42.5t-46.5 117.5v369h49v-364q0 -62 33 -92.5t93 -30.5q68 0 113.5 46t45.5 114v327h49v-517zM299 600q-22 0 -63 21.5t-54 21.5q-11 0 -20.5 -11t-10.5 -30h-42q4 41 23.5 62.5t49.5 21.5q23 0 62.5 -21.5
t52.5 -21.5t22.5 11t10.5 30h42q-3 -40 -23 -62t-50 -22z" />
    <glyph glyph-name="Umacron" unicode="&#x16a;" horiz-adv-x="622" 
d="M308 -11q-119 0 -185.5 60t-66.5 176v490h52v-486q0 -102 51 -148t152 -46q203 0 203 194v486h52v-490q0 -118 -69 -177t-189 -59zM190 762v49h242v-49h-242z" />
    <glyph glyph-name="umacron" unicode="&#x16b;" horiz-adv-x="479" 
d="M429 0h-49v79h-2q-29 -43 -67.5 -67t-98.5 -24q-73 0 -119.5 42.5t-46.5 117.5v369h49v-364q0 -62 33 -92.5t93 -30.5q68 0 113.5 46t45.5 114v327h49v-517zM119 630v49h242v-49h-242z" />
    <glyph glyph-name="Ubreve" unicode="&#x16c;" horiz-adv-x="622" 
d="M308 -11q-119 0 -185.5 60t-66.5 176v490h52v-486q0 -102 51 -148t152 -46q203 0 203 194v486h52v-490q0 -118 -69 -177t-189 -59zM311 753q-51 0 -83 28.5t-35 73.5h46q10 -56 72 -56t72 56h46q-3 -45 -35 -73.5t-83 -28.5z" />
    <glyph glyph-name="ubreve" unicode="&#x16d;" horiz-adv-x="479" 
d="M429 0h-49v79h-2q-29 -43 -67.5 -67t-98.5 -24q-73 0 -119.5 42.5t-46.5 117.5v369h49v-364q0 -62 33 -92.5t93 -30.5q68 0 113.5 46t45.5 114v327h49v-517zM240 589q-50 0 -82.5 30t-35.5 76h46q5 -27 23.5 -43t48.5 -16t48.5 16t23.5 43h46q-3 -46 -35.5 -76t-82.5 -30
z" />
    <glyph glyph-name="Uring" unicode="&#x16e;" horiz-adv-x="622" 
d="M308 -11q-119 0 -185.5 60t-66.5 176v490h52v-486q0 -102 51 -148t152 -46q203 0 203 194v486h52v-490q0 -118 -69 -177t-189 -59zM311 730q-36 0 -61.5 25t-25.5 60t25.5 60t61.5 25t61.5 -25t25.5 -60t-25.5 -60t-61.5 -25zM311 763q21 0 35 15t14 37t-14 37t-35 15
t-35 -15t-14 -37t14 -37t35 -15z" />
    <glyph glyph-name="uring" unicode="&#x16f;" horiz-adv-x="479" 
d="M429 0h-49v79h-2q-29 -43 -67.5 -67t-98.5 -24q-73 0 -119.5 42.5t-46.5 117.5v369h49v-364q0 -62 33 -92.5t93 -30.5q68 0 113.5 46t45.5 114v327h49v-517zM240 576q-36 0 -61.5 25t-25.5 60t25.5 60t61.5 25t61.5 -25t25.5 -60t-25.5 -60t-61.5 -25zM240 609
q21 0 35 15t14 37t-14 37t-35 15t-35 -15t-14 -37t14 -37t35 -15z" />
    <glyph glyph-name="Uhungarumlaut" unicode="&#x170;" horiz-adv-x="622" 
d="M308 -11q-119 0 -185.5 60t-66.5 176v490h52v-486q0 -102 51 -148t152 -46q203 0 203 194v486h52v-490q0 -118 -69 -177t-189 -59zM221 753l40 110h60l-57 -110h-43zM350 753l40 110h60l-57 -110h-43z" />
    <glyph glyph-name="uhungarumlaut" unicode="&#x171;" horiz-adv-x="479" 
d="M429 0h-49v79h-2q-29 -43 -67.5 -67t-98.5 -24q-73 0 -119.5 42.5t-46.5 117.5v369h49v-364q0 -62 33 -92.5t93 -30.5q68 0 113.5 46t45.5 114v327h49v-517zM153 588l40 127h60l-57 -127h-43zM282 588l40 127h60l-57 -127h-43z" />
    <glyph glyph-name="Uogonek" unicode="&#x172;" horiz-adv-x="622" 
d="M403 -125h3v-35q-24 -15 -59 -15q-42 0 -63.5 19t-21.5 51q0 53 62 94h-16q-119 0 -185.5 60t-66.5 176v490h52v-486q0 -102 51 -148t152 -46q203 0 203 194v486h52v-490q0 -157 -131 -214q-6 -3 -18.5 -8l-20 -8t-18 -9t-19.5 -13q-47 -38 -47 -75q0 -34 41 -34
q23 0 50 11z" />
    <glyph glyph-name="uogonek" unicode="&#x173;" horiz-adv-x="479" 
d="M435 -126h3v-34q-24 -15 -58 -15q-42 0 -63 18.5t-21 51.5q0 61 84 109v75h-2q-29 -43 -67.5 -67t-98.5 -24q-73 0 -119.5 42.5t-46.5 117.5v369h49v-364q0 -62 33 -92.5t93 -30.5q68 0 113.5 46t45.5 114v327h49v-516q-83 -56 -83 -103q0 -35 40 -35q22 0 49 11z" />
    <glyph glyph-name="Wcircumflex" unicode="&#x174;" horiz-adv-x="857" 
d="M204 0l-193 715h52l132 -494l37 -154h2q22 93 36 146l133 502h55l134 -500l37 -148h2q21 96 36 154l129 494h50l-190 -715h-56l-140 532l-28 121h-2q-15 -72 -28 -121l-140 -532h-58zM303 752l94 101h62l94 -101h-59l-66 71h-2l-67 -71h-56z" />
    <glyph glyph-name="wcircumflex" unicode="&#x175;" horiz-adv-x="695" 
d="M161 0l-147 517h51l88 -320l37 -152h2q23 93 37 145l89 327h55l86 -327l35 -145h2q25 96 41 152l95 320h49l-158 -517h-59l-90 342l-28 123h-2q-15 -70 -29 -123l-93 -342h-61zM235 592l80 106h62l80 -106h-57l-54 76h-2l-55 -76h-54z" />
    <glyph glyph-name="Ycircumflex" unicode="&#x176;" horiz-adv-x="579" 
d="M263 0v318l-258 397h57l227 -350h2l227 350h56l-259 -399v-316h-52zM164 752l94 101h62l94 -101h-59l-66 71h-2l-67 -71h-56z" />
    <glyph glyph-name="ycircumflex" unicode="&#x177;" horiz-adv-x="455" 
d="M96 -171q-17 0 -39 6v44h2q20 -5 41 -5q67 0 93 75l15 43l-198 525h51l126 -342l45 -129h2q24 77 42 129l120 342h50l-208 -579q-22 -61 -55 -85t-87 -24zM120 592l80 106h62l80 -106h-57l-54 76h-2l-55 -76h-54z" />
    <glyph glyph-name="Ydieresis" unicode="&#x178;" horiz-adv-x="579" 
d="M263 0v318l-258 397h57l227 -350h2l227 350h56l-259 -399v-316h-52zM189 755v80h49v-80h-49zM340 755v80h49v-80h-49z" />
    <glyph glyph-name="Zacute" unicode="&#x179;" horiz-adv-x="573" 
d="M24 0v51l442 616v3h-414v45h475v-48l-443 -618v-3h459v-46h-519zM262 753l76 110h69l-101 -110h-44z" />
    <glyph glyph-name="zacute" unicode="&#x17a;" horiz-adv-x="431" 
d="M24 0v45l312 426v3h-290v43h352v-41l-315 -430v-3h323v-43h-382zM187 588l76 127h69l-101 -127h-44z" />
    <glyph glyph-name="Zdotaccent" unicode="&#x17b;" horiz-adv-x="573" 
d="M24 0v51l442 616v3h-414v45h475v-48l-443 -618v-3h459v-46h-519zM270 755v80h49v-80h-49z" />
    <glyph glyph-name="zdotaccent" unicode="&#x17c;" horiz-adv-x="431" 
d="M24 0v45l312 426v3h-290v43h352v-41l-315 -430v-3h323v-43h-382zM203 635v80h49v-80h-49z" />
    <glyph glyph-name="Zcaron" unicode="&#x17d;" horiz-adv-x="573" 
d="M24 0v51l442 616v3h-414v45h475v-48l-443 -618v-3h459v-46h-519zM419 853l-94 -101h-62l-94 101h59l66 -71h2l67 71h56z" />
    <glyph glyph-name="zcaron" unicode="&#x17e;" horiz-adv-x="431" 
d="M24 0v45l312 426v3h-290v43h352v-41l-315 -430v-3h323v-43h-382zM338 698l-80 -106h-62l-80 106h57l54 -76h2l55 76h54z" />
    <glyph glyph-name="florin" unicode="&#x192;" horiz-adv-x="329" 
d="M44 355v41h88l26 182q15 107 115 107h38v-43h-38q-33 0 -47 -16.5t-19 -51.5l-25 -178h99v-41h-105l-57 -403q-7 -53 -36.5 -76.5t-83.5 -23.5h-15v43h15q62 0 71 61l56 399h-82z" />
    <glyph glyph-name="AEacute" unicode="&#x1fc;" horiz-adv-x="945" 
d="M865 346h-348v-298h392v-48h-444v229h-308l-95 -229h-53l297 715h593v-46h-382v-278h348v-45zM465 669h-126l-164 -396h290v396zM554 753l76 110h69l-101 -110h-44z" />
    <glyph glyph-name="aeacute" unicode="&#x1fd;" horiz-adv-x="842" 
d="M817 253h-391q1 -99 47 -161t137 -62q120 0 157 124h47q-17 -76 -69 -121.5t-135 -45.5q-144 0 -203 122h-1q-59 -122 -205 -122q-79 0 -128.5 38.5t-49.5 107.5q0 36 11.5 62.5t29 42.5t46 27t54.5 16t63 9q96 9 123 20t27 46v14q0 116 -128 116q-136 0 -151 -116h-49
q10 76 60.5 117t139.5 41q142 0 168 -112q59 112 189 112q83 0 136 -50q77 -71 75 -225zM204 29q79 0 126 46.5t47 108.5v97q-38 -19 -144 -31q-42 -5 -64.5 -9.5t-48 -16.5t-36.5 -35t-11 -58q0 -52 36.5 -77t94.5 -25zM767 293q-2 84 -41.5 138.5t-119.5 54.5t-125.5 -53
t-53.5 -140h340zM392 588l76 127h69l-101 -127h-44z" />
    <glyph glyph-name="Oslashacute" unicode="&#x1fe;" horiz-adv-x="710" 
d="M51 -16l-29 27l87 98q-75 102 -75 249q0 161 88 266t232 105q133 0 222 -94l83 94l29 -27l-86 -97q74 -102 74 -247q0 -161 -89 -266t-233 -105q-132 0 -220 91zM88 358q0 -126 55 -211l400 451q-73 84 -189 84q-126 0 -196 -92.5t-70 -231.5zM354 34q126 0 197 92.5
t71 231.5q0 121 -55 208l-400 -451q73 -81 187 -81zM323 753l76 110h69l-101 -110h-44z" />
    <glyph glyph-name="oslashacute" unicode="&#x1ff;" horiz-adv-x="514" 
d="M41 -15l-26 23l61 69q-51 71 -51 181q0 119 62.5 194.5t169.5 75.5q98 0 159 -63l57 65l26 -23l-61 -70q51 -73 51 -179q0 -120 -62.5 -195.5t-169.5 -75.5q-98 0 -159 63zM75 258q0 -85 34 -143l276 314q-50 58 -128 58q-86 0 -134 -65t-48 -164zM257 29q86 0 134 65
t48 164q0 84 -34 142l-276 -314q49 -57 128 -57zM217 588l76 127h69l-101 -127h-44z" />
    <glyph glyph-name="Scommaaccent" unicode="&#x218;" horiz-adv-x="581" 
d="M302 -13q-130 0 -201.5 66t-77.5 173h53q4 -90 64.5 -141.5t160.5 -51.5q84 0 138 43t54 117q0 75 -46 105.5t-179 55.5q-111 20 -165 61t-54 125t65.5 136.5t171.5 52.5t168.5 -54.5t70.5 -144.5h-52q-7 73 -58 113t-128 40q-86 0 -135.5 -39.5t-49.5 -102.5t43.5 -92.5
t154.5 -49.5q48 -9 80 -17.5t66.5 -24t54.5 -35.5t33 -51.5t13 -73.5q0 -92 -67.5 -151t-177.5 -59zM255 -204v29q28 13 28 53v3h-26v71h59v-70q0 -76 -61 -86z" />
    <glyph glyph-name="scommaaccent" unicode="&#x219;" horiz-adv-x="433" 
d="M221 -13q-96 0 -148 48.5t-56 120.5h50q5 -62 46.5 -94.5t107.5 -32.5q65 0 102 30t37 81q0 42 -28 63.5t-113 41.5q-94 22 -139.5 52t-45.5 93t50 100.5t126 37.5q163 0 184 -147h-48q-5 49 -41 76.5t-95 27.5q-61 0 -94 -26t-33 -68t33.5 -61.5t120.5 -40.5
q89 -21 130.5 -51.5t41.5 -98.5q0 -66 -50 -109t-138 -43zM188 -204v29q28 13 28 53v3h-26v71h59v-70q0 -76 -61 -86z" />
    <glyph glyph-name="uni021A" unicode="&#x21a;" horiz-adv-x="574" 
d="M17 668v47h540v-47h-244v-668h-52v668h-244zM257 -204v29q28 13 28 53v3h-26v71h59v-70q0 -76 -61 -86z" />
    <glyph glyph-name="uni021B" unicode="&#x21b;" horiz-adv-x="266" 
d="M14 476v41h80v156h49v-156h94v-41h-94v-388q0 -28 11.5 -39t37.5 -11q23 0 39 9h3v-42q-24 -9 -52 -9q-88 0 -88 88v392h-80zM129 -204v29q28 13 28 53v3h-26v71h59v-70q0 -76 -61 -86z" />
    <glyph glyph-name="uni0237" unicode="&#x237;" horiz-adv-x="155" 
d="M-15 -166v42h10q30 0 44 15.5t14 49.5v576h49v-577q0 -56 -25.5 -81t-78.5 -25h-13z" />
    <glyph glyph-name="circumflex" unicode="&#x2c6;" 
d="M139 592l80 106h62l80 -106h-57l-54 76h-2l-55 -76h-54z" />
    <glyph glyph-name="caron" unicode="&#x2c7;" 
d="M361 698l-80 -106h-62l-80 106h57l54 -76h2l55 76h54z" />
    <glyph glyph-name="uni02C9" unicode="&#x2c9;" 
d="M129 630v49h242v-49h-242z" />
    <glyph glyph-name="breve" unicode="&#x2d8;" 
d="M269 589q-50 0 -82.5 30t-35.5 76h46q5 -27 23.5 -43t48.5 -16t48.5 16t23.5 43h46q-3 -46 -35.5 -76t-82.5 -30z" />
    <glyph glyph-name="dotaccent" unicode="&#x2d9;" horiz-adv-x="520" 
d="M235 635v80h49v-80h-49z" />
    <glyph glyph-name="ring" unicode="&#x2da;" horiz-adv-x="509" 
d="M254 576q-36 0 -61.5 25t-25.5 60t25.5 60t61.5 25t61.5 -25t25.5 -60t-25.5 -60t-61.5 -25zM254 609q21 0 35 15t14 37t-14 37t-35 15t-35 -15t-14 -37t14 -37t35 -15z" />
    <glyph glyph-name="ogonek" unicode="&#x2db;" 
d="M285 -125h3v-35q-24 -15 -59 -15q-42 0 -63.5 19t-21.5 51q0 31 24 59t58 46h51q-83 -57 -83 -102q0 -34 41 -34q23 0 50 11z" />
    <glyph glyph-name="tilde" unicode="&#x2dc;" 
d="M308 600q-22 0 -63 21.5t-54 21.5q-11 0 -20.5 -11t-10.5 -30h-42q4 41 23.5 62.5t49.5 21.5q23 0 62.5 -21.5t52.5 -21.5t22.5 11t10.5 30h42q-3 -40 -23 -62t-50 -22z" />
    <glyph glyph-name="hungarumlaut" unicode="&#x2dd;" 
d="M154 588l40 127h60l-57 -127h-43zM283 588l40 127h60l-57 -127h-43z" />
    <glyph glyph-name="pi" unicode="&#x3c0;" horiz-adv-x="559" 
d="M525 517v-41h-81v-388q0 -28 11.5 -39t37.5 -11q23 0 39 9h3v-42q-24 -9 -52 -9q-88 0 -88 88v392h-246v-476h-49v476h-82v41h507z" />
    <glyph glyph-name="Wgrave" unicode="&#x1e80;" horiz-adv-x="857" 
d="M204 0l-193 715h52l132 -494l37 -154h2q22 93 36 146l133 502h55l134 -500l37 -148h2q21 96 36 154l129 494h50l-190 -715h-56l-140 532l-28 121h-2q-15 -72 -28 -121l-140 -532h-58zM459 753h-44l-101 110h69z" />
    <glyph glyph-name="wgrave" unicode="&#x1e81;" horiz-adv-x="695" 
d="M161 0l-147 517h51l88 -320l37 -152h2q23 93 37 145l89 327h55l86 -327l35 -145h2q25 96 41 152l95 320h49l-158 -517h-59l-90 342l-28 123h-2q-15 -70 -29 -123l-93 -342h-61zM383 588h-44l-101 127h69z" />
    <glyph glyph-name="Wacute" unicode="&#x1e82;" horiz-adv-x="857" 
d="M204 0l-193 715h52l132 -494l37 -154h2q22 93 36 146l133 502h55l134 -500l37 -148h2q21 96 36 154l129 494h50l-190 -715h-56l-140 532l-28 121h-2q-15 -72 -28 -121l-140 -532h-58zM396 753l76 110h69l-101 -110h-44z" />
    <glyph glyph-name="wacute" unicode="&#x1e83;" horiz-adv-x="695" 
d="M161 0l-147 517h51l88 -320l37 -152h2q23 93 37 145l89 327h55l86 -327l35 -145h2q25 96 41 152l95 320h49l-158 -517h-59l-90 342l-28 123h-2q-15 -70 -29 -123l-93 -342h-61zM306 588l76 127h69l-101 -127h-44z" />
    <glyph glyph-name="Wdieresis" unicode="&#x1e84;" horiz-adv-x="857" 
d="M204 0l-193 715h52l132 -494l37 -154h2q22 93 36 146l133 502h55l134 -500l37 -148h2q21 96 36 154l129 494h50l-190 -715h-56l-140 532l-28 121h-2q-15 -72 -28 -121l-140 -532h-58zM328 755v80h49v-80h-49zM479 755v80h49v-80h-49z" />
    <glyph glyph-name="wdieresis" unicode="&#x1e85;" horiz-adv-x="695" 
d="M161 0l-147 517h51l88 -320l37 -152h2q23 93 37 145l89 327h55l86 -327l35 -145h2q25 96 41 152l95 320h49l-158 -517h-59l-90 342l-28 123h-2q-15 -70 -29 -123l-93 -342h-61zM246 635v80h49v-80h-49zM397 635v80h49v-80h-49z" />
    <glyph glyph-name="Ygrave" unicode="&#x1ef2;" horiz-adv-x="579" 
d="M263 0v318l-258 397h57l227 -350h2l227 350h56l-259 -399v-316h-52zM320 753h-44l-101 110h69z" />
    <glyph glyph-name="ygrave" unicode="&#x1ef3;" horiz-adv-x="455" 
d="M96 -171q-17 0 -39 6v44h2q20 -5 41 -5q67 0 93 75l15 43l-198 525h51l126 -342l45 -129h2q24 77 42 129l120 342h50l-208 -579q-22 -61 -55 -85t-87 -24zM268 588h-44l-101 127h69z" />
    <glyph glyph-name="uni2009" unicode="&#x2009;" horiz-adv-x="55" 
 />
    <glyph glyph-name="endash" unicode="&#x2013;" horiz-adv-x="483" 
d="M38 233v43h407v-43h-407z" />
    <glyph glyph-name="emdash" unicode="&#x2014;" horiz-adv-x="743" 
d="M38 233v43h667v-43h-667z" />
    <glyph glyph-name="quoteleft" unicode="&#x2018;" horiz-adv-x="143" 
d="M42 546v85q0 76 61 86v-29q-28 -13 -28 -53v-13h26v-76h-59z" />
    <glyph glyph-name="quoteright" unicode="&#x2019;" horiz-adv-x="143" 
d="M40 544v29q28 13 28 53v13h-26v76h59v-85q0 -76 -61 -86z" />
    <glyph glyph-name="quotesinglbase" unicode="&#x201a;" horiz-adv-x="143" 
d="M40 -95v29q28 13 28 53v13h-26v76h59v-85q0 -76 -61 -86z" />
    <glyph glyph-name="quotedblleft" unicode="&#x201c;" horiz-adv-x="256" 
d="M42 546v85q0 76 61 86v-29q-28 -13 -28 -53v-13h26v-76h-59zM155 546v85q0 76 61 86v-29q-28 -13 -28 -53v-13h26v-76h-59z" />
    <glyph glyph-name="quotedblright" unicode="&#x201d;" horiz-adv-x="256" 
d="M153 544v29q28 13 28 53v13h-26v76h59v-85q0 -76 -61 -86zM40 544v29q28 13 28 53v13h-26v76h59v-85q0 -76 -61 -86z" />
    <glyph glyph-name="quotedblbase" unicode="&#x201e;" horiz-adv-x="256" 
d="M153 -95v29q28 13 28 53v13h-26v76h59v-85q0 -76 -61 -86zM40 -95v29q28 13 28 53v13h-26v76h59v-85q0 -76 -61 -86z" />
    <glyph glyph-name="dagger" unicode="&#x2020;" horiz-adv-x="496" 
d="M39 471v43h184v201h50v-201h184v-43h-184v-575h-50v575h-184z" />
    <glyph glyph-name="daggerdbl" unicode="&#x2021;" horiz-adv-x="496" 
d="M273 715v-201h184v-43h-184v-331h184v-43h-184v-201h-50v201h-184v43h184v331h-184v43h184v201h50z" />
    <glyph glyph-name="bullet" unicode="&#x2022;" horiz-adv-x="277" 
d="M139 225q-42 0 -71.5 29.5t-29.5 70.5t29.5 71t71.5 30q41 0 70.5 -30t29.5 -71t-29.5 -70.5t-70.5 -29.5z" />
    <glyph glyph-name="ellipsis" unicode="&#x2026;" horiz-adv-x="509" 
d="M41 0v79h61v-79h-61zM407 0v79h61v-79h-61zM224 0v79h61v-79h-61z" />
    <glyph glyph-name="perthousand" unicode="&#x2030;" horiz-adv-x="1124" 
d="M182 313q-64 0 -106 51.5t-42 141.5q0 91 42.5 142t105.5 51t105.5 -50.5t42.5 -142.5q0 -90 -42 -141.5t-106 -51.5zM588 -13q-64 0 -106 51.5t-42 141.5q0 91 42.5 142t105.5 51t105.5 -50.5t42.5 -142.5q0 -90 -42 -141.5t-106 -51.5zM942 -13q-64 0 -106 51.5
t-42 141.5q0 91 42.5 142t105.5 51t105.5 -50.5t42.5 -142.5q0 -90 -42 -141.5t-106 -51.5zM588 26q44 0 72.5 38.5t28.5 115.5q0 75 -29 114.5t-72 39.5q-44 0 -72.5 -38.5t-28.5 -115.5q0 -75 29 -114.5t72 -39.5zM942 26q44 0 72.5 38.5t28.5 115.5q0 75 -29 114.5
t-72 39.5q-44 0 -72.5 -38.5t-28.5 -115.5q0 -75 29 -114.5t72 -39.5zM182 352q44 0 72.5 38.5t28.5 115.5q0 75 -29 114.5t-72 39.5q-44 0 -72.5 -38.5t-28.5 -115.5q0 -75 29 -114.5t72 -39.5zM164 0l396 685h46l-396 -685h-46z" />
    <glyph glyph-name="uni2032" unicode="&#x2032;" horiz-adv-x="171" 
d="M39 501l44 214h49l-44 -214h-49z" />
    <glyph glyph-name="uni2033" unicode="&#x2033;" horiz-adv-x="296" 
d="M164 501l44 214h49l-44 -214h-49zM39 501l44 214h49l-44 -214h-49z" />
    <glyph glyph-name="guilsinglleft" unicode="&#x2039;" horiz-adv-x="254" 
d="M194 126l-134 112v67l134 112v-62l-103 -83v-2l103 -82v-62z" />
    <glyph glyph-name="guilsinglright" unicode="&#x203a;" horiz-adv-x="254" 
d="M60 417l134 -112v-67l-134 -112v62l103 83v2l-103 82v62z" />
    <glyph glyph-name="fraction" unicode="&#x2044;" horiz-adv-x="193" 
d="M-186 0l512 715h53l-512 -715h-53z" />
    <glyph glyph-name="Euro" unicode="&#x20ac;" horiz-adv-x="600" 
d="M22 382v41h69q16 127 80.5 201.5t166.5 74.5q85 0 141.5 -52.5t72.5 -148.5h-50q-29 157 -164 157q-86 0 -134 -62t-61 -170h216v-41h-219q-1 -13 -1 -40q0 -29 1 -42h219v-41h-215q13 -105 61 -166t130 -61t127.5 59.5t54.5 157.5h49q-8 -120 -69 -191t-162 -71
t-164.5 73t-79.5 199h-69v41h65q-1 13 -1 42q0 27 1 40h-65z" />
    <glyph glyph-name="uni2113" unicode="&#x2113;" horiz-adv-x="303" 
d="M268 588q0 -283 -146 -381v-94q0 -39 13 -57t47 -18q37 0 58 16h3v-42q-29 -16 -66 -16q-52 0 -78 26.5t-26 85.5v72q-28 -12 -54 -17v40q34 10 54 19v379q0 56 25.5 89t75.5 33q94 0 94 -135zM122 601v-347q8 7 23 24q78 96 78 310q0 53 -12.5 74.5t-36.5 21.5
q-52 0 -52 -83z" />
    <glyph glyph-name="trademark" unicode="&#x2122;" horiz-adv-x="634" 
d="M308 429v286h59l79 -236h1l77 236h60v-286h-38v237h-2q-17 -55 -31 -97l-47 -140h-40l-47 140l-31 97h-2v-237h-38zM34 679v36h226v-36h-93v-250h-40v250h-93z" />
    <glyph glyph-name="Omega" unicode="&#x2126;" horiz-adv-x="690" 
d="M88 371q0 -110 53.5 -198.5t147.5 -124.5v-48h-251v46h172v2q-81 42 -128.5 127.5t-47.5 195.5q0 159 85.5 258.5t224.5 99.5t225.5 -99.5t86.5 -258.5q0 -110 -47.5 -195.5t-128.5 -127.5v-2h172v-46h-251v48q97 35 149 123t52 200q0 137 -68 224t-190 87t-189 -86.5
t-67 -224.5z" />
    <glyph glyph-name="estimated" unicode="&#x212e;" horiz-adv-x="621" 
d="M591 301h-431v-215q59 -59 167 -59q169 0 218 159h42q-20 -89 -87 -143t-173 -54q-140 0 -219 88t-79 232q0 140 82 229t211 89q103 0 173 -59q98 -83 96 -267zM322 592q-104 0 -162 -61v-196h303v209q-50 48 -141 48z" />
    <glyph glyph-name="onethird" unicode="&#x2153;" horiz-adv-x="783" 
d="M126 317v295h-88v32q45 1 68 17.5t29 56.5h37v-401h-46zM60 0l512 715h53l-512 -715h-53zM609 -8q-64 0 -104 36t-39 96h46q1 -45 26.5 -69t68.5 -24t66.5 21.5t23.5 60.5q0 38 -23.5 58.5t-66.5 20.5h-28v37h27q37 0 57.5 19t20.5 51q0 33 -21 52t-55 19q-40 0 -62 -25
t-23 -65h-44q1 57 35.5 91.5t94.5 34.5q53 0 87 -28.5t34 -77.5q0 -64 -60 -86v-2q75 -22 75 -102q0 -55 -38 -86.5t-98 -31.5z" />
    <glyph glyph-name="twothirds" unicode="&#x2154;" horiz-adv-x="829" 
d="M655 -8q-64 0 -104 36t-39 96h46q1 -45 26.5 -69t68.5 -24t66.5 21.5t23.5 60.5q0 38 -23.5 58.5t-66.5 20.5h-28v37h27q37 0 57.5 19t20.5 51q0 33 -21 52t-55 19q-40 0 -62 -25t-23 -65h-44q1 57 35.5 91.5t94.5 34.5q53 0 87 -28.5t34 -77.5q0 -64 -60 -86v-2
q75 -22 75 -102q0 -55 -38 -86.5t-98 -31.5zM36 317q1 34 11 61t31.5 48.5t37.5 33.5t45 31q3 2 21 13.5t21.5 14t16.5 12t16.5 15t10 15.5t8.5 20.5t2 22.5q0 38 -21 59t-57 21q-40 0 -63.5 -25t-24.5 -73h-44q0 66 36.5 101.5t96.5 35.5q56 0 90 -33.5t34 -84.5
q0 -23 -7.5 -42.5t-15 -31t-28 -27.5t-28.5 -21t-34 -21q-23 -14 -33.5 -21t-27.5 -21.5t-26 -30t-12 -33.5h210v-39h-266zM139 0l512 715h53l-512 -715h-53z" />
    <glyph glyph-name="oneeighth" unicode="&#x215b;" horiz-adv-x="760" 
d="M126 317v295h-88v32q45 1 68 17.5t29 56.5h37v-401h-46zM50 0l512 715h53l-512 -715h-53zM579 -6q-61 0 -103 32t-42 88q0 76 76 104v2q-57 25 -57 85q0 46 35.5 74.5t89.5 28.5q56 0 90.5 -28.5t34.5 -73.5q0 -60 -58 -85v-2q35 -11 56.5 -39t21.5 -65q0 -58 -41 -89.5
t-103 -31.5zM579 31q44 0 70.5 23.5t26.5 59.5q0 38 -26 61.5t-72 23.5q-45 0 -71 -23.5t-26 -61.5q0 -37 26 -60t72 -23zM578 234q37 0 58.5 19.5t21.5 49.5t-21 49.5t-59 19.5q-37 0 -58 -19.5t-21 -49.5t20.5 -49.5t58.5 -19.5z" />
    <glyph glyph-name="threeeighths" unicode="&#x215c;" horiz-adv-x="833" 
d="M176 309q-64 0 -104 36t-39 96h46q1 -45 26.5 -69t68.5 -24t66.5 21.5t23.5 60.5q0 38 -23.5 58.5t-66.5 20.5h-28v37h27q37 0 57.5 19t20.5 51q0 33 -21 52t-55 19q-40 0 -62 -25t-23 -65h-44q1 57 35.5 91.5t94.5 34.5q53 0 87 -28.5t34 -77.5q0 -64 -60 -86v-2
q75 -23 75 -102q0 -55 -38 -86.5t-98 -31.5zM128 0l512 715h53l-512 -715h-53zM652 -6q-61 0 -103 32t-42 88q0 76 76 104v2q-57 25 -57 85q0 46 35.5 74.5t89.5 28.5q56 0 90.5 -28.5t34.5 -73.5q0 -60 -58 -85v-2q35 -11 56.5 -39t21.5 -65q0 -58 -41 -89.5t-103 -31.5z
M652 31q44 0 70.5 23.5t26.5 59.5q0 38 -26 61.5t-72 23.5q-45 0 -71 -23.5t-26 -61.5q0 -37 26 -60t72 -23zM651 234q37 0 58.5 19.5t21.5 49.5t-21 49.5t-59 19.5q-37 0 -58 -19.5t-21 -49.5t20.5 -49.5t58.5 -19.5z" />
    <glyph glyph-name="fiveeighths" unicode="&#x215d;" horiz-adv-x="820" 
d="M169 309q-57 0 -94.5 31.5t-41.5 83.5h46q10 -75 89 -75q42 0 65.5 26.5t23.5 70.5q0 43 -24 68t-62 25q-58 0 -83 -37h-43l34 213h206v-40h-173l-20 -127h1q35 30 87 30t88 -35.5t36 -97.5q0 -60 -37.5 -98t-97.5 -38zM122 0l512 715h53l-512 -715h-53zM639 -6
q-61 0 -103 32t-42 88q0 76 76 104v2q-57 25 -57 85q0 46 35.5 74.5t89.5 28.5q56 0 90.5 -28.5t34.5 -73.5q0 -60 -58 -85v-2q35 -11 56.5 -39t21.5 -65q0 -58 -41 -89.5t-103 -31.5zM639 31q44 0 70.5 23.5t26.5 59.5q0 38 -26 61.5t-72 23.5q-45 0 -71 -23.5t-26 -61.5
q0 -37 26 -60t72 -23zM638 234q37 0 58.5 19.5t21.5 49.5t-21 49.5t-59 19.5q-37 0 -58 -19.5t-21 -49.5t20.5 -49.5t58.5 -19.5z" />
    <glyph glyph-name="seveneighths" unicode="&#x215e;" horiz-adv-x="774" 
d="M593 -6q-61 0 -103 32t-42 88q0 76 76 104v2q-57 25 -57 85q0 46 35.5 74.5t89.5 28.5q56 0 90.5 -28.5t34.5 -73.5q0 -60 -58 -85v-2q35 -11 56.5 -39t21.5 -65q0 -58 -41 -89.5t-103 -31.5zM51 0l512 715h53l-512 -715h-53zM141 317h-47q5 100 48.5 197t103.5 160v1
h-218v40h266v-39q-61 -62 -102.5 -155.5t-50.5 -203.5zM593 31q44 0 70.5 23.5t26.5 59.5q0 38 -26 61.5t-72 23.5q-45 0 -71 -23.5t-26 -61.5q0 -37 26 -60t72 -23zM592 234q37 0 58.5 19.5t21.5 49.5t-21 49.5t-59 19.5q-37 0 -58 -19.5t-21 -49.5t20.5 -49.5t58.5 -19.5z
" />
    <glyph glyph-name="partialdiff" unicode="&#x2202;" horiz-adv-x="495" 
d="M411 396q-47 253 -288 281v43q78 -8 139 -36.5t98.5 -69t61.5 -94t33.5 -105.5t9.5 -108q0 -146 -59.5 -232.5t-170.5 -86.5q-94 0 -149.5 63t-55.5 163q0 118 63.5 193.5t161.5 75.5q107 0 156 -87zM84 215q0 -75 37.5 -130t113.5 -55q81 0 128.5 68t47.5 166
q0 77 -41 126t-115 49q-79 0 -125 -62t-46 -162z" />
    <glyph glyph-name="Delta" unicode="&#x2206;" horiz-adv-x="624" 
d="M22 0v41l260 674h59l261 -674v-41h-580zM273 557l-197 -513h471l-196 513l-39 106h-2q-20 -61 -37 -106z" />
    <glyph glyph-name="product" unicode="&#x220f;" horiz-adv-x="636" 
d="M517 668h-398v-768h-52v815h502v-815h-52v768z" />
    <glyph glyph-name="summation" unicode="&#x2211;" horiz-adv-x="574" 
d="M538 -100h-496v40l315 387v2l-315 334v52h496v-46h-433v-2l303 -322v-31l-303 -367v-2h433v-45z" />
    <glyph glyph-name="minus" unicode="&#x2212;" horiz-adv-x="510" 
d="M56 303v46h398v-46h-398z" />
    <glyph glyph-name="uni2215" unicode="&#x2215;" horiz-adv-x="193" 
d="M-186 0l512 715h53l-512 -715h-53z" />
    <glyph glyph-name="uni2219" unicode="&#x2219;" horiz-adv-x="143" 
d="M41 271v79h61v-79h-61z" />
    <glyph glyph-name="radical" unicode="&#x221a;" horiz-adv-x="554" 
d="M12 260v44h115l85 -217l46 -131h2q20 80 38 136l195 623h50l-256 -815h-55l-145 360h-75z" />
    <glyph glyph-name="infinity" unicode="&#x221e;" horiz-adv-x="715" 
d="M188 134q-73 0 -111.5 48.5t-38.5 122.5q0 73 38.5 121.5t111.5 48.5q56 0 95.5 -33.5t76.5 -93.5q37 61 74.5 94t91.5 33q70 0 110.5 -46.5t40.5 -123.5t-40.5 -124t-110.5 -47q-54 0 -91.5 33t-74.5 94q-37 -60 -76.5 -93.5t-95.5 -33.5zM188 434q-49 0 -74.5 -36.5
t-25.5 -92.5q0 -57 25.5 -93t74.5 -36q45 0 77 32.5t70 95.5q-18 31 -31 50t-31.5 39.5t-39.5 30.5t-45 10zM526 176q49 0 75 36t26 93q0 56 -26 92.5t-75 36.5q-23 0 -42 -9.5t-37.5 -31.5t-30 -39t-30.5 -50q26 -43 41 -65t42 -42.5t57 -20.5z" />
    <glyph glyph-name="integral" unicode="&#x222b;" horiz-adv-x="369" 
d="M209 622v-678q0 -56 -31 -88t-80 -32q-32 0 -58 11v43h3q20 -11 50 -11q31 0 49 19t18 57v678q0 56 31 88t80 32q32 0 58 -11v-43h-3q-20 11 -50 11q-31 0 -49 -19t-18 -57z" />
    <glyph glyph-name="approxequal" unicode="&#x2248;" horiz-adv-x="510" 
d="M352 332q-38 0 -106.5 26t-92.5 26q-51 0 -56 -56h-46q4 50 31 76t71 26q31 0 98 -26t100 -26q58 0 63 56h45q-8 -102 -107 -102zM352 187q-38 0 -106.5 26t-92.5 26q-51 0 -56 -56h-46q4 50 31 76t71 26q31 0 98 -26t100 -26q58 0 63 56h45q-8 -102 -107 -102z" />
    <glyph glyph-name="notequal" unicode="&#x2260;" horiz-adv-x="510" 
d="M56 361v46h222l56 118h48l-56 -118h128v-46h-150l-49 -104h199v-46h-220l-58 -123h-48l58 123h-130v46h151l49 104h-200z" />
    <glyph glyph-name="lessequal" unicode="&#x2264;" horiz-adv-x="491" 
d="M437 117l-387 166v57l387 166v-49l-343 -145v-2l343 -144v-49zM50 0v46h387v-46h-387z" />
    <glyph glyph-name="greaterequal" unicode="&#x2265;" horiz-adv-x="491" 
d="M54 506l387 -166v-57l-387 -166v49l343 145v2l-343 144v49zM54 0v46h387v-46h-387z" />
    <glyph glyph-name="uni24C5" unicode="&#x24c5;" horiz-adv-x="812" 
d="M406 -17q-154 0 -259 106t-105 266t105 266.5t259 106.5t259 -106.5t105 -266.5t-105 -266t-259 -106zM406 15q140 0 232 96.5t92 243.5t-92 244t-232 97t-232 -97t-92 -244t92 -243.5t232 -96.5zM274 136v429h170q68 0 103 -37q32 -32 32 -87q0 -60 -35.5 -92
t-101.5 -32h-120v-181h-48zM322 523v-166h114q95 0 95 84q0 40 -24 61t-68 21h-117z" />
    <glyph glyph-name="lozenge" unicode="&#x25ca;" horiz-adv-x="520" 
d="M485 356l-200 -356h-49l-201 357l200 358h49zM260 52h2l168 303l-170 308h-2l-168 -305z" />
    <glyph glyph-name="uniF8FF" unicode="&#xf8ff;" horiz-adv-x="846" 
d="M65 0v716h716v-716h-716zM183 431v-144h168v-169h144v169h168v144h-168v163h-144v-163h-168z" />
    <glyph glyph-name="idotaccent" horiz-adv-x="155" 
d="M53 0v517h49v-517h-49zM53 635v80h49v-80h-49z" />
    <glyph glyph-name="grave.cap" 
d="M291 753h-44l-101 110h69z" />
    <glyph glyph-name="acute.cap" 
d="M209 753l76 110h69l-101 -110h-44z" />
    <glyph glyph-name="circumflex.cap" 
d="M125 752l94 101h62l94 -101h-59l-66 71h-2l-67 -71h-56z" />
    <glyph glyph-name="caron.cap" 
d="M375 853l-94 -101h-62l-94 101h59l66 -71h2l67 71h56z" />
    <glyph glyph-name="caron.alt" 
d="M219 558v29q28 13 28 51v3h-26v74h59v-73q0 -74 -61 -84z" />
    <glyph glyph-name="tilde.cap" 
d="M308 760q-22 0 -63 21.5t-54 21.5q-11 0 -20.5 -11t-10.5 -30h-42q4 41 23.5 62.5t49.5 21.5q23 0 62.5 -21.5t52.5 -21.5t22.5 11t10.5 30h42q-3 -40 -23 -62t-50 -22z" />
    <glyph glyph-name="dieresis.cap" horiz-adv-x="520" 
d="M160 755v80h49v-80h-49zM311 755v80h49v-80h-49z" />
    <glyph glyph-name="macron.cap" 
d="M129 762v49h242v-49h-242z" />
    <glyph glyph-name="breve.cap" 
d="M269 753q-51 0 -83 28.5t-35 73.5h46q10 -56 72 -56t72 56h46q-3 -45 -35 -73.5t-83 -28.5z" />
    <glyph glyph-name="ring.cap" horiz-adv-x="509" 
d="M254 742q-36 0 -61.5 25t-25.5 60t25.5 60t61.5 25t61.5 -25t25.5 -60t-25.5 -60t-61.5 -25zM254 775q21 0 35 15t14 37t-14 37t-35 15t-35 -15t-14 -37t14 -37t35 -15z" />
    <glyph glyph-name="hungarumlaut.cap" 
d="M154 753l40 110h60l-57 -110h-43zM283 753l40 110h60l-57 -110h-43z" />
    <glyph glyph-name="dotaccent.cap" horiz-adv-x="520" 
d="M235 755v80h49v-80h-49z" />
    <glyph glyph-name="space_uni0326" 
d="M219 -204v29q28 13 28 53v3h-26v71h59v-70q0 -76 -61 -86z" />
    <glyph glyph-name="space_uni0326.alt" 
d="M281 754v-29q-28 -13 -28 -53v-3h26v-71h-59v70q0 76 61 86z" />
    <glyph glyph-name="R.alt" horiz-adv-x="595" 
d="M525 0l-161 322q-11 -1 -35 -1h-215v-321h-52v715h270q107 0 166 -57q51 -49 51 -139q0 -151 -134 -188l166 -331h-56zM114 669v-301h212q170 0 170 150q0 72 -43 111.5t-125 39.5h-214z" />
    <glyph glyph-name="Racute.alt" horiz-adv-x="595" 
d="M525 0l-161 322q-11 -1 -35 -1h-215v-321h-52v715h270q107 0 166 -57q51 -49 51 -139q0 -151 -134 -188l166 -331h-56zM114 669v-301h212q170 0 170 150q0 72 -43 111.5t-125 39.5h-214zM253 753l76 110h69l-101 -110h-44z" />
    <glyph glyph-name="Rcaron.alt" horiz-adv-x="595" 
d="M525 0l-161 322q-11 -1 -35 -1h-215v-321h-52v715h270q107 0 166 -57q51 -49 51 -139q0 -151 -134 -188l166 -331h-56zM114 669v-301h212q170 0 170 150q0 72 -43 111.5t-125 39.5h-214zM410 853l-94 -101h-62l-94 101h59l66 -71h2l67 71h56z" />
    <glyph glyph-name="Rcommaaccent.alt" horiz-adv-x="595" 
d="M525 0l-161 322q-11 -1 -35 -1h-215v-321h-52v715h270q107 0 166 -57q51 -49 51 -139q0 -151 -134 -188l166 -331h-56zM114 669v-301h212q170 0 170 150q0 72 -43 111.5t-125 39.5h-214zM255 -204v29q28 13 28 53v3h-26v71h59v-70q0 -76 -61 -86z" />
    <glyph glyph-name="a.alt" horiz-adv-x="476" 
d="M390 0q-12 17 -12 68v12h-3q-66 -93 -183 -93q-74 0 -121.5 38.5t-47.5 107.5q0 36 11.5 62.5t29 42.5t46 27t54.5 16t63 9q96 9 123 20t27 46v14q0 116 -128 116q-136 0 -151 -116h-49q10 76 60.5 117t139.5 41q85 0 131 -41t46 -120v-293q0 -59 16 -71v-3h-52zM197 29
q83 0 131.5 46t48.5 109v97q-38 -19 -144 -31q-42 -5 -64.5 -9.5t-48 -16.5t-36.5 -35t-11 -58q0 -52 35 -77t89 -25z" />
    <glyph glyph-name="aacute.alt" horiz-adv-x="476" 
d="M390 0q-12 17 -12 68v12h-3q-66 -93 -183 -93q-74 0 -121.5 38.5t-47.5 107.5q0 36 11.5 62.5t29 42.5t46 27t54.5 16t63 9q96 9 123 20t27 46v14q0 116 -128 116q-136 0 -151 -116h-49q10 76 60.5 117t139.5 41q85 0 131 -41t46 -120v-293q0 -59 16 -71v-3h-52zM197 29
q83 0 131.5 46t48.5 109v97q-38 -19 -144 -31q-42 -5 -64.5 -9.5t-48 -16.5t-36.5 -35t-11 -58q0 -52 35 -77t89 -25zM203 588l76 127h69l-101 -127h-44z" />
    <glyph glyph-name="abreve.alt" horiz-adv-x="476" 
d="M390 0q-12 17 -12 68v12h-3q-66 -93 -183 -93q-74 0 -121.5 38.5t-47.5 107.5q0 36 11.5 62.5t29 42.5t46 27t54.5 16t63 9q96 9 123 20t27 46v14q0 116 -128 116q-136 0 -151 -116h-49q10 76 60.5 117t139.5 41q85 0 131 -41t46 -120v-293q0 -59 16 -71v-3h-52zM197 29
q83 0 131.5 46t48.5 109v97q-38 -19 -144 -31q-42 -5 -64.5 -9.5t-48 -16.5t-36.5 -35t-11 -58q0 -52 35 -77t89 -25zM243 589q-50 0 -82.5 30t-35.5 76h46q5 -27 23.5 -43t48.5 -16t48.5 16t23.5 43h46q-3 -46 -35.5 -76t-82.5 -30z" />
    <glyph glyph-name="acircumflex.alt" horiz-adv-x="476" 
d="M390 0q-12 17 -12 68v12h-3q-66 -93 -183 -93q-74 0 -121.5 38.5t-47.5 107.5q0 36 11.5 62.5t29 42.5t46 27t54.5 16t63 9q96 9 123 20t27 46v14q0 116 -128 116q-136 0 -151 -116h-49q10 76 60.5 117t139.5 41q85 0 131 -41t46 -120v-293q0 -59 16 -71v-3h-52zM197 29
q83 0 131.5 46t48.5 109v97q-38 -19 -144 -31q-42 -5 -64.5 -9.5t-48 -16.5t-36.5 -35t-11 -58q0 -52 35 -77t89 -25zM132 592l80 106h62l80 -106h-57l-54 76h-2l-55 -76h-54z" />
    <glyph glyph-name="adieresis.alt" horiz-adv-x="476" 
d="M390 0q-12 17 -12 68v12h-3q-66 -93 -183 -93q-74 0 -121.5 38.5t-47.5 107.5q0 36 11.5 62.5t29 42.5t46 27t54.5 16t63 9q96 9 123 20t27 46v14q0 116 -128 116q-136 0 -151 -116h-49q10 76 60.5 117t139.5 41q85 0 131 -41t46 -120v-293q0 -59 16 -71v-3h-52zM197 29
q83 0 131.5 46t48.5 109v97q-38 -19 -144 -31q-42 -5 -64.5 -9.5t-48 -16.5t-36.5 -35t-11 -58q0 -52 35 -77t89 -25zM143 635v80h49v-80h-49zM294 635v80h49v-80h-49z" />
    <glyph glyph-name="agrave.alt" horiz-adv-x="476" 
d="M390 0q-12 17 -12 68v12h-3q-66 -93 -183 -93q-74 0 -121.5 38.5t-47.5 107.5q0 36 11.5 62.5t29 42.5t46 27t54.5 16t63 9q96 9 123 20t27 46v14q0 116 -128 116q-136 0 -151 -116h-49q10 76 60.5 117t139.5 41q85 0 131 -41t46 -120v-293q0 -59 16 -71v-3h-52zM197 29
q83 0 131.5 46t48.5 109v97q-38 -19 -144 -31q-42 -5 -64.5 -9.5t-48 -16.5t-36.5 -35t-11 -58q0 -52 35 -77t89 -25zM280 588h-44l-101 127h69z" />
    <glyph glyph-name="amacron.alt" horiz-adv-x="476" 
d="M390 0q-12 17 -12 68v12h-3q-66 -93 -183 -93q-74 0 -121.5 38.5t-47.5 107.5q0 36 11.5 62.5t29 42.5t46 27t54.5 16t63 9q96 9 123 20t27 46v14q0 116 -128 116q-136 0 -151 -116h-49q10 76 60.5 117t139.5 41q85 0 131 -41t46 -120v-293q0 -59 16 -71v-3h-52zM197 29
q83 0 131.5 46t48.5 109v97q-38 -19 -144 -31q-42 -5 -64.5 -9.5t-48 -16.5t-36.5 -35t-11 -58q0 -52 35 -77t89 -25zM122 630v49h242v-49h-242z" />
    <glyph glyph-name="aogonek.alt" horiz-adv-x="476" 
d="M388 6q-10 22 -10 62v12h-3q-66 -93 -183 -93q-74 0 -121.5 38.5t-47.5 107.5q0 36 11.5 62.5t29 42.5t46 27t54.5 16t63 9q96 9 123 20t27 46v14q0 116 -128 116q-136 0 -151 -116h-49q10 76 60.5 117t139.5 41q85 0 131 -41t46 -120v-293q0 -52 13 -71v-3
q-39 -20 -63.5 -47.5t-24.5 -54.5q0 -35 41 -35q23 0 50 11h3v-35q-23 -14 -59 -14q-42 0 -63.5 19t-21.5 51q0 61 87 111zM197 29q83 0 131.5 46t48.5 109v97q-38 -19 -144 -31q-42 -5 -64.5 -9.5t-48 -16.5t-36.5 -35t-11 -58q0 -52 35 -77t89 -25z" />
    <glyph glyph-name="aring.alt" horiz-adv-x="476" 
d="M390 0q-12 17 -12 68v12h-3q-66 -93 -183 -93q-74 0 -121.5 38.5t-47.5 107.5q0 36 11.5 62.5t29 42.5t46 27t54.5 16t63 9q96 9 123 20t27 46v14q0 116 -128 116q-136 0 -151 -116h-49q10 76 60.5 117t139.5 41q85 0 131 -41t46 -120v-293q0 -59 16 -71v-3h-52zM197 29
q83 0 131.5 46t48.5 109v97q-38 -19 -144 -31q-42 -5 -64.5 -9.5t-48 -16.5t-36.5 -35t-11 -58q0 -52 35 -77t89 -25zM243 576q-36 0 -61.5 25t-25.5 60t25.5 60t61.5 25t61.5 -25t25.5 -60t-25.5 -60t-61.5 -25zM243 609q21 0 35 15t14 37t-14 37t-35 15t-35 -15t-14 -37
t14 -37t35 -15z" />
    <glyph glyph-name="atilde.alt" horiz-adv-x="476" 
d="M390 0q-12 17 -12 68v12h-3q-66 -93 -183 -93q-74 0 -121.5 38.5t-47.5 107.5q0 36 11.5 62.5t29 42.5t46 27t54.5 16t63 9q96 9 123 20t27 46v14q0 116 -128 116q-136 0 -151 -116h-49q10 76 60.5 117t139.5 41q85 0 131 -41t46 -120v-293q0 -59 16 -71v-3h-52zM197 29
q83 0 131.5 46t48.5 109v97q-38 -19 -144 -31q-42 -5 -64.5 -9.5t-48 -16.5t-36.5 -35t-11 -58q0 -52 35 -77t89 -25zM302 600q-22 0 -63 21.5t-54 21.5q-11 0 -20.5 -11t-10.5 -30h-42q4 41 23.5 62.5t49.5 21.5q23 0 62.5 -21.5t52.5 -21.5t22.5 11t10.5 30h42
q-3 -40 -23 -62t-50 -22z" />
    <glyph glyph-name="Ccedilla.alt" horiz-adv-x="656" 
d="M346 -13q-145 0 -228.5 101t-83.5 268t85 270t230 103q106 0 176 -55t91 -155h-52q-15 75 -71.5 120t-143.5 45q-126 0 -193.5 -92.5t-67.5 -235.5t66.5 -233t191.5 -90q102 0 163.5 63t71.5 163h49q-10 -111 -66 -178q-78 -94 -218 -94zM315 -168v29q27 7 28 43h-26v64
h59v-57q0 -76 -61 -79z" />
    <glyph glyph-name="Scedilla.alt" horiz-adv-x="581" 
d="M255 -168v29q27 7 28 43h-26v64h59v-57q0 -76 -61 -79zM302 -13q-130 0 -201.5 66t-77.5 173h53q4 -90 64.5 -141.5t160.5 -51.5q84 0 138 43t54 117q0 75 -46 105.5t-179 55.5q-111 20 -165 61t-54 125t65.5 136.5t171.5 52.5t168.5 -54.5t70.5 -144.5h-52
q-7 73 -58 113t-128 40q-86 0 -135.5 -39.5t-49.5 -102.5t43.5 -92.5t154.5 -49.5q48 -9 80 -17.5t66.5 -24t54.5 -35.5t33 -51.5t13 -73.5q0 -92 -67.5 -151t-177.5 -59z" />
    <glyph glyph-name="ccedilla.alt" horiz-adv-x="472" 
d="M212 -168v29q27 7 28 43h-26v64h59v-57q0 -76 -61 -79zM250 -13q-108 0 -166.5 75t-58.5 196t59 195.5t167 74.5q82 0 134.5 -41.5t64.5 -118.5h-48q-24 118 -151 118q-89 0 -132.5 -64t-43.5 -164t44 -164t131 -64q66 0 109 40t51 105h46q-10 -86 -64 -137t-142 -51z
" />
    <glyph glyph-name="scedilla.alt" horiz-adv-x="433" 
d="M188 -168v29q27 7 28 43h-26v64h59v-57q0 -76 -61 -79zM221 -13q-96 0 -148 48.5t-56 120.5h50q5 -62 46.5 -94.5t107.5 -32.5q65 0 102 30t37 81q0 42 -28 63.5t-113 41.5q-94 22 -139.5 52t-45.5 93t50 100.5t126 37.5q163 0 184 -147h-48q-5 49 -41 76.5t-95 27.5
q-61 0 -94 -26t-33 -68t33.5 -61.5t120.5 -40.5q89 -21 130.5 -51.5t41.5 -98.5q0 -66 -50 -109t-138 -43z" />
    <glyph glyph-name="hyphen.cap" horiz-adv-x="328" 
d="M33 305v45h262v-45h-262z" />
    <glyph glyph-name="endash.cap" horiz-adv-x="483" 
d="M38 306v43h407v-43h-407z" />
    <glyph glyph-name="emdash.cap" horiz-adv-x="743" 
d="M38 306v43h667v-43h-667z" />
    <glyph glyph-name="questiondown.cap" horiz-adv-x="493" 
d="M295 542q0 -84 -21.5 -127t-79.5 -91q-31 -26 -46 -40.5t-31 -46.5t-16 -71q0 -62 39 -97.5t102 -35.5q75 0 119.5 46.5t46.5 118.5h51q-1 -86 -57.5 -148.5t-162.5 -62.5q-85 0 -138 50.5t-53 127.5q0 18 1.5 33.5t7 30t9 25t12.5 23t13.5 18.5t17 18t16 15.5t18 15.5
t17.5 14q52 44 69 78.5t17 105.5h49zM301 715v-79h-61v79h61z" />
    <glyph glyph-name="exclamdown.cap" horiz-adv-x="197" 
d="M116 542l10 -313v-229h-55v229l10 313h35zM129 715v-79h-61v79h61z" />
    <glyph glyph-name="parenleft.cap" horiz-adv-x="271" 
d="M206 -88q-132 203 -132 453q0 229 132 419h46q-122 -194 -122 -419q0 -252 122 -453h-46z" />
    <glyph glyph-name="parenright.cap" horiz-adv-x="271" 
d="M65 784q132 -203 132 -453q0 -229 -132 -419h-46q122 194 122 419q0 252 -122 453h46z" />
    <glyph glyph-name="bracketleft.cap" horiz-adv-x="282" 
d="M82 -88v872h165v-45h-115v-781h115v-46h-165z" />
    <glyph glyph-name="bracketright.cap" horiz-adv-x="282" 
d="M200 784v-872h-165v46h115v781h-115v45h165z" />
    <glyph glyph-name="braceleft.cap" horiz-adv-x="282" 
d="M214 -88q-121 0 -121 124v222q0 36 -15.5 53t-53.5 18v46q38 1 53.5 18t15.5 53v214q0 124 121 124h18v-45h-16q-39 0 -56 -18t-17 -62v-217q0 -73 -56 -89v-2q56 -16 56 -89v-225q0 -44 17 -61.5t56 -17.5h16v-46h-18z" />
    <glyph glyph-name="braceright.cap" horiz-adv-x="282" 
d="M68 -88h-18v46h16q39 0 56 17.5t17 61.5v225q0 73 56 89v2q-56 16 -56 89v217q0 44 -17 62t-56 18h-16v45h18q121 0 121 -124v-214q0 -36 15.5 -53t53.5 -18v-46q-38 -1 -53.5 -18t-15.5 -53v-222q0 -124 -121 -124z" />
    <glyph glyph-name="guillemotleft.cap" horiz-adv-x="402" 
d="M342 171l-124 112v67l124 112v-62l-93 -83v-2l93 -82v-62zM184 171l-124 112v67l124 112v-62l-93 -83v-2l93 -82v-62z" />
    <glyph glyph-name="guillemotright.cap" horiz-adv-x="402" 
d="M60 462l124 -112v-67l-124 -112v62l93 83v2l-93 82v62zM218 462l124 -112v-67l-124 -112v62l93 83v2l-93 82v62z" />
    <glyph glyph-name="guilsinglleft.cap" horiz-adv-x="254" 
d="M194 171l-134 112v67l134 112v-62l-103 -83v-2l103 -82v-62z" />
    <glyph glyph-name="guilsinglright.cap" horiz-adv-x="254" 
d="M60 462l134 -112v-67l-134 -112v62l103 83v2l-103 82v62z" />
    <glyph glyph-name="registered.alt" horiz-adv-x="812" 
d="M406 -17q-154 0 -259 106t-105 266t105 266.5t259 106.5t259 -106.5t105 -266.5t-105 -266t-259 -106zM406 15q140 0 232 96.5t92 243.5t-92 244t-232 97t-232 -97t-92 -244t92 -243.5t232 -96.5zM260 145v422h187q58 0 91 -31t33 -84q0 -79 -74 -101v-2q32 -10 46 -34
t17 -72q4 -88 18 -95v-3h-49q-12 6 -16 95q-2 50 -22.5 70t-66.5 20h-116v-185h-48zM308 525v-155h126q43 0 65.5 20t22.5 57q0 78 -83 78h-131z" />
    <glyph glyph-name="dollar.cap" horiz-adv-x="550" 
d="M258 -80v90q-107 9 -167.5 71.5t-65.5 156.5h50q3 -79 52.5 -128t130.5 -57v308q-108 22 -158 60.5t-50 119.5q0 77 58 127.5t150 53.5v59h41v-60q87 -7 139 -58.5t59 -131.5h-50q-6 64 -46 102t-102 44v-276q53 -11 87.5 -22.5t67 -32.5t48.5 -54.5t16 -80.5
q0 -86 -61 -142.5t-158 -59.5v-89h-41zM466 207q0 65 -36 95t-131 51v-301q73 4 120 45.5t47 109.5zM100 542q0 -57 36 -86t122 -47v269q-73 -4 -115.5 -41.5t-42.5 -94.5z" />
    <glyph glyph-name="Euro.cap" horiz-adv-x="623" 
d="M22 400v42h72q17 132 84.5 209.5t173.5 77.5q89 0 147 -54.5t75 -154.5h-51q-30 163 -171 163q-90 0 -141.5 -64.5t-64.5 -176.5h228v-42h-231q-1 -14 -1 -43q0 -30 1 -44h231v-42h-227q14 -109 65 -173t137 -64t133 62t57 164h50q-9 -126 -72 -199.5t-168 -73.5
t-171.5 76t-83.5 208h-72v42h68q-1 14 -1 44q0 29 1 43h-68z" />
    <glyph glyph-name="sterling.cap" horiz-adv-x="547" 
d="M39 328v43h72q-39 99 -39 156q0 85 56 143.5t160 58.5q94 0 154 -59.5t61 -160.5h-50q-1 88 -49 131.5t-119 43.5q-76 0 -118.5 -43.5t-42.5 -114.5q0 -15 2 -29t7.5 -33.5t8 -28t12.5 -34.5t11 -30h176v-43h-161q12 -46 12 -84q0 -118 -73 -181l1 -2q40 21 73 21
q38 0 96 -23.5t92 -23.5q51 0 108 51l29 -37q-36 -31 -65.5 -45t-74.5 -14q-49 0 -103 25t-94 25q-47 0 -113 -45l-30 44q106 78 106 198q0 44 -18 91h-87z" />
    <glyph glyph-name="yen.cap" horiz-adv-x="526" 
d="M50 299v41h174l-212 375h60l190 -344h2l192 344h58l-214 -375h174v-41h-186v-80h186v-42h-186v-177h-52v177h-186v42h186v80h-186z" />
    <glyph glyph-name="zero.cap" horiz-adv-x="594" 
d="M297 -13q-125 0 -194 99t-69 272t71.5 272t192.5 99t191.5 -98.5t70.5 -272.5q0 -173 -69 -272t-194 -99zM298 34q101 0 154.5 82t53.5 242q0 157 -54.5 240.5t-153.5 83.5q-100 0 -155 -82.5t-55 -241.5q0 -157 55.5 -240.5t154.5 -83.5z" />
    <glyph glyph-name="one.cap" horiz-adv-x="329" 
d="M181 0v551h-147v34q94 5 125 29.5t38 104.5h36v-719h-52z" />
    <glyph glyph-name="two.cap" horiz-adv-x="513" 
d="M32 0q0 52 14.5 96t32 72t54 59.5t57 45.5t65.5 42q7 4 31.5 19t30.5 19.5t25.5 17.5t25 19.5t19 20t17.5 24t11 25.5t9 32t2 36q0 76 -40.5 115.5t-110.5 39.5q-79 0 -125 -46.5t-50 -140.5h-51q1 111 65 172t162 61q94 0 148.5 -56.5t54.5 -142.5q0 -24 -3 -45t-12 -40
t-16 -33.5t-22.5 -30t-24.5 -25t-30 -24t-30.5 -20.5t-34 -21t-32.5 -20q-35 -21 -52.5 -33t-45.5 -34.5t-43 -42.5t-28 -50t-16 -64h384v-47h-441z" />
    <glyph glyph-name="three.cap" horiz-adv-x="521" 
d="M262 -13q-101 0 -167 62t-66 163h53q4 -84 53.5 -130.5t127.5 -46.5q83 0 127 43.5t44 118.5q0 76 -44 117.5t-124 41.5h-53v46h52q67 0 105.5 37.5t38.5 101.5q0 70 -39.5 106.5t-104.5 36.5q-75 0 -118 -49t-44 -127h-52q1 98 58 159.5t158 61.5q85 0 140 -50.5
t55 -135.5q0 -117 -101 -159v-3q127 -46 127 -187q0 -95 -61 -151t-165 -56z" />
    <glyph glyph-name="four.cap" horiz-adv-x="541" 
d="M355 0v190h-332v50l337 482h46v-487h108v-45h-108v-190h-51zM77 238v-3h278v395h-2z" />
    <glyph glyph-name="five.cap" horiz-adv-x="503" 
d="M246 -13q-97 0 -156.5 55t-61.5 142h51q19 -150 166 -150q81 0 126 54t45 141q0 83 -45 132.5t-118 49.5q-110 0 -157 -74h-49l52 378h341v-46h-301l-36 -267h3q61 55 154 55q88 0 149 -60t61 -170q0 -106 -61 -173t-163 -67z" />
    <glyph glyph-name="six.cap" horiz-adv-x="535" 
d="M282 -13q-91 0 -156 59q-92 82 -92 316q0 162 67 264.5t190 102.5q84 0 134.5 -48t58.5 -128h-52q-6 61 -43 95.5t-97 34.5q-104 0 -155.5 -93.5t-49.5 -262.5h2q64 128 194 128q99 0 159 -63t60 -165q0 -105 -60 -172.5t-160 -67.5zM280 32q76 0 122.5 55t46.5 139
q0 83 -45.5 133.5t-121.5 50.5t-127 -53.5t-51 -135.5q0 -85 49 -137t127 -52z" />
    <glyph glyph-name="seven.cap" horiz-adv-x="490" 
d="M139 0q16 186 91.5 368.5t182.5 298.5v2h-390v46h445v-47q-107 -112 -180.5 -287.5t-92.5 -380.5h-56z" />
    <glyph glyph-name="eight.cap" horiz-adv-x="543" 
d="M271 -13q-101 0 -170 58t-69 153q0 70 37.5 118t101.5 70v3q-50 20 -78 62t-28 96q0 79 58 130.5t147 51.5q94 0 150 -52.5t56 -129.5q0 -54 -29 -94.5t-80 -61.5v-3q62 -18 103 -70.5t41 -119.5q0 -97 -68.5 -154t-171.5 -57zM271 32q85 0 136 47.5t51 118.5
q0 72 -51.5 118.5t-138.5 46.5q-85 0 -134 -46.5t-49 -118.5t50 -119t136 -47zM268 407q71 0 113.5 40.5t42.5 97.5q0 59 -41 99.5t-113 40.5q-71 0 -112 -41t-41 -99t40 -98t111 -40z" />
    <glyph glyph-name="nine.cap" horiz-adv-x="536" 
d="M246 -13q-85 0 -139 48t-59 128h54q6 -60 44.5 -95t98.5 -35q77 0 125 48q83 84 80 307h-2q-28 -60 -78.5 -93t-114.5 -33q-99 0 -160.5 63t-61.5 165q0 103 62.5 171t160.5 68q92 0 155 -57q50 -43 70.5 -121t20.5 -197q0 -206 -91 -301q-61 -66 -165 -66zM256 307
q76 0 126 52.5t50 133.5q0 87 -48 139t-126 52q-75 0 -123 -54.5t-48 -138.5t45.5 -134t123.5 -50z" />
    <glyph glyph-name="percent.cap" horiz-adv-x="790" 
d="M182 343q-64 0 -106 51.5t-42 141.5q0 91 42.5 142t105.5 51t105.5 -50.5t42.5 -142.5q0 -90 -42 -141.5t-106 -51.5zM608 -13q-64 0 -106 51.5t-42 141.5q0 91 42.5 142t105.5 51t105.5 -50.5t42.5 -142.5q0 -90 -42 -141.5t-106 -51.5zM608 26q44 0 72.5 38.5
t28.5 115.5q0 75 -29 114.5t-72 39.5q-44 0 -72.5 -38.5t-28.5 -115.5q0 -75 29 -114.5t72 -39.5zM182 382q44 0 72.5 38.5t28.5 115.5q0 75 -29 114.5t-72 39.5q-44 0 -72.5 -38.5t-28.5 -115.5q0 -75 29 -114.5t72 -39.5zM174 0l396 715h46l-396 -715h-46z" />
    <glyph glyph-name="perthousand.cap" horiz-adv-x="1124" 
d="M182 343q-64 0 -106 51.5t-42 141.5q0 91 42.5 142t105.5 51t105.5 -50.5t42.5 -142.5q0 -90 -42 -141.5t-106 -51.5zM588 -13q-64 0 -106 51.5t-42 141.5q0 91 42.5 142t105.5 51t105.5 -50.5t42.5 -142.5q0 -90 -42 -141.5t-106 -51.5zM942 -13q-64 0 -106 51.5
t-42 141.5q0 91 42.5 142t105.5 51t105.5 -50.5t42.5 -142.5q0 -90 -42 -141.5t-106 -51.5zM588 26q44 0 72.5 38.5t28.5 115.5q0 75 -29 114.5t-72 39.5q-44 0 -72.5 -38.5t-28.5 -115.5q0 -75 29 -114.5t72 -39.5zM942 26q44 0 72.5 38.5t28.5 115.5q0 75 -29 114.5
t-72 39.5q-44 0 -72.5 -38.5t-28.5 -115.5q0 -75 29 -114.5t72 -39.5zM182 382q44 0 72.5 38.5t28.5 115.5q0 75 -29 114.5t-72 39.5q-44 0 -72.5 -38.5t-28.5 -115.5q0 -75 29 -114.5t72 -39.5zM164 0l396 715h46l-396 -715h-46z" />
    <glyph glyph-name="zero.numerator" horiz-adv-x="376" 
d="M188 309q-73 0 -113.5 55.5t-40.5 151.5t42 151.5t113 55.5q70 0 111.5 -55t41.5 -152q0 -96 -40.5 -151.5t-113.5 -55.5zM189 349q105 0 105 167q0 80 -27 124t-78 44q-52 0 -79.5 -43.5t-27.5 -124.5q0 -80 27.5 -123.5t79.5 -43.5z" />
    <glyph glyph-name="one.numerator" horiz-adv-x="258" 
d="M121 317v295h-88v32q45 1 68 17.5t29 56.5h37v-401h-46z" />
    <glyph glyph-name="two.numerator" horiz-adv-x="333" 
d="M31 317q1 34 11 61t31.5 48.5t37.5 33.5t45 31q3 2 21 13.5t21.5 14t16.5 12t16.5 15t10 15.5t8.5 20.5t2 22.5q0 38 -21 59t-57 21q-40 0 -63.5 -25t-24.5 -73h-44q0 66 36.5 101.5t96.5 35.5q56 0 90 -33.5t34 -84.5q0 -23 -7.5 -42.5t-15 -31t-28 -27.5t-28.5 -21
t-34 -21q-23 -14 -33.5 -21t-27.5 -21.5t-26 -30t-12 -33.5h210v-39h-266z" />
    <glyph glyph-name="three.numerator" horiz-adv-x="340" 
d="M171 309q-64 0 -104 36t-39 96h46q1 -45 26.5 -69t68.5 -24t66.5 21.5t23.5 60.5q0 38 -23.5 58.5t-66.5 20.5h-28v37h27q37 0 57.5 19t20.5 51q0 33 -21 52t-55 19q-40 0 -62 -25t-23 -65h-44q1 57 35.5 91.5t94.5 34.5q53 0 87 -28.5t34 -77.5q0 -64 -60 -86v-2
q75 -23 75 -102q0 -55 -38 -86.5t-98 -31.5z" />
    <glyph glyph-name="four.numerator" horiz-adv-x="338" 
d="M207 317v99h-185v45l187 258h43v-266h60v-37h-60v-99h-45zM63 455v-2h144v198h-1z" />
    <glyph glyph-name="five.numerator" horiz-adv-x="332" 
d="M164 309q-57 0 -94.5 31.5t-41.5 83.5h46q10 -75 89 -75q42 0 65.5 26.5t23.5 70.5q0 43 -24 68t-62 25q-58 0 -83 -37h-43l34 213h206v-40h-173l-20 -127h1q35 30 87 30t88 -35.5t36 -97.5q0 -60 -37.5 -98t-97.5 -38z" />
    <glyph glyph-name="six.numerator" horiz-adv-x="356" 
d="M189 309q-61 0 -99 35q-56 51 -56 174q0 94 39.5 149.5t113.5 55.5q56 0 88 -31.5t38 -78.5h-46q-3 30 -24.5 51t-53.5 21q-107 0 -110 -164h3q38 56 110 56q56 0 93 -39t37 -94q1 -56 -37.5 -95.5t-95.5 -39.5zM188 348q40 0 65.5 26t25.5 68t-26.5 69t-66.5 27
q-42 0 -70.5 -26.5t-28.5 -68.5q0 -41 29 -68t72 -27z" />
    <glyph glyph-name="seven.numerator" horiz-adv-x="311" 
d="M136 317h-47q5 100 48.5 197t103.5 160v1h-218v40h266v-39q-61 -62 -102.5 -155.5t-50.5 -203.5z" />
    <glyph glyph-name="eight.numerator" horiz-adv-x="353" 
d="M177 311q-61 0 -103 32t-42 88q0 76 76 104v2q-57 25 -57 85q0 46 35.5 74.5t89.5 28.5q56 0 90.5 -28.5t34.5 -73.5q0 -60 -58 -85v-2q35 -11 56.5 -39t21.5 -65q0 -58 -41 -89.5t-103 -31.5zM177 348q44 0 70.5 23.5t26.5 59.5q0 38 -26 61.5t-72 23.5q-45 0 -71 -23.5
t-26 -61.5q0 -37 26 -60t72 -23zM176 551q37 0 58.5 19.5t21.5 49.5t-21 49.5t-59 19.5q-37 0 -58 -19.5t-21 -49.5t20.5 -49.5t58.5 -19.5z" />
    <glyph glyph-name="nine.numerator" horiz-adv-x="357" 
d="M175 309q-59 0 -96 31t-42 85h47q3 -34 27 -55.5t62 -21.5q45 0 69 27q33 36 36 130h-2q-38 -50 -105 -50q-60 0 -98.5 38.5t-39.5 94.5q0 56 39.5 95.5t99.5 39.5q57 0 92 -29q34 -26 46.5 -67.5t12.5 -107.5q0 -130 -55 -178q-37 -32 -93 -32zM172 494q44 0 70.5 26
t27.5 69q0 41 -29 69t-69 28q-41 0 -67.5 -27t-26.5 -69q0 -43 26.5 -69.5t67.5 -26.5z" />
    <glyph glyph-name="zero.denominator" horiz-adv-x="376" 
d="M188 -8q-73 0 -113.5 55.5t-40.5 151.5t42 151.5t113 55.5q70 0 111.5 -55t41.5 -152q0 -96 -40.5 -151.5t-113.5 -55.5zM189 32q105 0 105 167q0 80 -27 124t-78 44q-52 0 -79.5 -43.5t-27.5 -124.5q0 -80 27.5 -123.5t79.5 -43.5z" />
    <glyph glyph-name="one.denominator" horiz-adv-x="258" 
d="M121 0v295h-88v32q45 1 68 17.5t29 56.5h37v-401h-46z" />
    <glyph glyph-name="two.denominator" horiz-adv-x="333" 
d="M31 0q1 34 11 61t31.5 48.5t37.5 33.5t45 31q3 2 21 13.5t21.5 14t16.5 12t16.5 15t10 15.5t8.5 20.5t2 22.5q0 38 -21 59t-57 21q-40 0 -63.5 -25t-24.5 -73h-44q0 66 36.5 101.5t96.5 35.5q56 0 90 -33.5t34 -84.5q0 -23 -7.5 -42.5t-15 -31t-28 -27.5t-28.5 -21
t-34 -21q-23 -14 -33.5 -21t-27.5 -21.5t-26 -30t-12 -33.5h210v-39h-266z" />
    <glyph glyph-name="three.denominator" horiz-adv-x="340" 
d="M171 -8q-64 0 -104 36t-39 96h46q1 -45 26.5 -69t68.5 -24t66.5 21.5t23.5 60.5q0 38 -23.5 58.5t-66.5 20.5h-28v37h27q37 0 57.5 19t20.5 51q0 33 -21 52t-55 19q-40 0 -62 -25t-23 -65h-44q1 57 35.5 91.5t94.5 34.5q53 0 87 -28.5t34 -77.5q0 -64 -60 -86v-2
q75 -22 75 -102q0 -55 -38 -86.5t-98 -31.5z" />
    <glyph glyph-name="four.denominator" horiz-adv-x="338" 
d="M207 0v99h-185v45l187 258h43v-266h60v-37h-60v-99h-45zM63 138v-2h144v198h-1z" />
    <glyph glyph-name="five.denominator" horiz-adv-x="332" 
d="M164 -8q-57 0 -94.5 31.5t-41.5 83.5h46q10 -75 89 -75q42 0 65.5 26.5t23.5 70.5q0 43 -24 68t-62 25q-58 0 -83 -37h-43l34 213h206v-40h-173l-20 -127h1q35 30 87 30t88 -35.5t36 -97.5q0 -60 -37.5 -98t-97.5 -38z" />
    <glyph glyph-name="six.denominator" horiz-adv-x="356" 
d="M189 -8q-61 0 -99 35q-56 51 -56 174q0 94 39.5 149.5t113.5 55.5q56 0 88 -31.5t38 -78.5h-46q-3 30 -24.5 51t-53.5 21q-107 0 -110 -164h3q38 56 110 56q56 0 93 -39t37 -94q1 -56 -37.5 -95.5t-95.5 -39.5zM188 31q40 0 65.5 26t25.5 68t-26.5 69t-66.5 27
q-42 0 -70.5 -26.5t-28.5 -68.5q0 -41 29 -68t72 -27z" />
    <glyph glyph-name="seven.denominator" horiz-adv-x="311" 
d="M136 0h-47q5 100 48.5 197t103.5 160v1h-218v40h266v-39q-61 -62 -102.5 -155.5t-50.5 -203.5z" />
    <glyph glyph-name="eight.denominator" horiz-adv-x="353" 
d="M177 -6q-61 0 -103 32t-42 88q0 76 76 104v2q-57 25 -57 85q0 46 35.5 74.5t89.5 28.5q56 0 90.5 -28.5t34.5 -73.5q0 -60 -58 -85v-2q35 -11 56.5 -39t21.5 -65q0 -58 -41 -89.5t-103 -31.5zM177 31q44 0 70.5 23.5t26.5 59.5q0 38 -26 61.5t-72 23.5q-45 0 -71 -23.5
t-26 -61.5q0 -37 26 -60t72 -23zM176 234q37 0 58.5 19.5t21.5 49.5t-21 49.5t-59 19.5q-37 0 -58 -19.5t-21 -49.5t20.5 -49.5t58.5 -19.5z" />
    <glyph glyph-name="nine.denominator" horiz-adv-x="357" 
d="M175 -8q-59 0 -96 31t-42 85h47q3 -34 27 -55.5t62 -21.5q45 0 69 27q33 36 36 130h-2q-38 -50 -105 -50q-60 0 -98.5 38.5t-39.5 94.5q0 57 39.5 96t99.5 39q57 0 92 -29q34 -26 46.5 -67.5t12.5 -107.5q0 -130 -55 -178q-37 -32 -93 -32zM172 177q44 0 70.5 26t27.5 69
q0 41 -29 69t-69 28q-41 0 -67.5 -27t-26.5 -69q0 -43 26.5 -69.5t67.5 -26.5z" />
    </font>
</defs>
</svg>
