<svg width="158" height="17" viewBox="0 0 158 17" fill="none" xmlns="http://www.w3.org/2000/svg">
<path fill-rule="evenodd" clip-rule="evenodd" d="M45.3994 13.0278C44.954 13.5246 44.363 13.773 43.6263 13.773C41.9818 13.773 41.1595 12.6852 41.1595 10.5096C41.1595 8.2655 41.9732 7.14345 43.6006 7.14345C44.3715 7.14345 44.9797 7.40897 45.425 7.94002C45.8704 8.45394 46.0931 9.15629 46.0931 10.0471V10.9978C46.0931 11.8372 45.8619 12.5139 45.3994 13.0278ZM46.0931 13.3105V16.4967H49.5878V0H46.0931V7.40041H45.8619C45.1767 5.12204 43.8747 3.98286 41.9561 3.98286C40.6199 3.98286 39.5835 4.54817 38.8469 5.67878C38.1103 6.79227 37.742 8.40254 37.742 10.5096C37.742 12.5481 38.1017 14.1156 38.8212 15.2119C39.5578 16.3083 40.5857 16.8565 41.9047 16.8565C42.8983 16.8565 43.7291 16.5396 44.3972 15.9057C45.0653 15.2719 45.5621 14.4068 45.8876 13.3105H46.0931ZM0 11.9486C0.411134 15.2034 2.72376 16.8393 6.93788 16.8565C11.2377 16.8565 13.3875 15.2719 13.3875 12.1027C13.3875 10.8522 12.9764 9.82438 12.1541 9.01924C11.3319 8.21411 9.80725 7.61454 7.58028 7.22053C6.17557 6.96358 5.24195 6.68092 4.77943 6.37257C4.33403 6.06422 4.11134 5.65309 4.11134 5.13917C4.11134 4.11134 4.91647 3.59742 6.52675 3.59742C7.41754 3.59742 8.05993 3.78585 8.45394 4.16273C8.86507 4.52247 9.16486 5.12204 9.35329 5.96144L13.0278 5.24195C12.531 2.22697 10.424 0.719484 6.70662 0.719484C4.63382 0.719484 3.07494 1.12205 2.02997 1.92719C0.985008 2.73232 0.462525 3.87151 0.462525 5.34474C0.462525 6.68092 0.882224 7.75158 1.72162 8.55672C2.56102 9.34473 3.99999 9.90147 6.03853 10.2269C7.46036 10.4668 8.41967 10.7409 8.91646 11.0492C9.41325 11.3576 9.66164 11.7944 9.66164 12.3597C9.66164 13.3875 8.80511 13.9015 7.09206 13.9015C5.05352 13.9015 3.86294 13.0021 3.52033 11.2034L0 11.9486ZM15.9896 7.09205V12.6681C15.9896 13.9015 16.3237 14.9122 16.9918 15.7002C17.6599 16.471 18.662 16.8565 19.9982 16.8565C20.9061 16.8565 21.8654 16.7023 22.8761 16.394L22.4907 13.2591C21.874 13.4646 21.3429 13.5674 20.8976 13.5674C20.3836 13.5674 20.0153 13.4475 19.7926 13.2077C19.5871 12.9678 19.4843 12.5995 19.4843 12.1027V7.09205H22.6963V4.3169H19.4843V1.18201H15.9896V4.3169H14.4993V7.09205H15.9896ZM32.4434 16.4967V13.2591H32.1865C31.8439 14.4239 31.3128 15.3147 30.5933 15.9314C29.891 16.5481 29.0516 16.8565 28.0751 16.8565C26.9445 16.8565 26.0794 16.4796 25.4798 15.7259C24.8803 14.9721 24.5805 13.9186 24.5805 12.5653V4.3169H28.0751V11.5888C28.0751 12.9935 28.6918 13.6959 29.9252 13.6959C30.6618 13.6959 31.2443 13.4561 31.6726 12.9764C32.1179 12.4967 32.3406 11.8715 32.3406 11.1006V4.3169H35.861V16.4967H32.4434ZM55.7337 2.59528H52.0849V0.0770862H55.7337V2.59528ZM55.6566 16.4967H52.162V4.3169H55.6566V16.4967ZM59.3114 15.1349C60.4249 16.2826 61.9667 16.8565 63.9367 16.8565C65.8725 16.8565 67.3971 16.2826 68.5106 15.1349C69.624 13.9871 70.1808 12.4111 70.1808 10.4068C70.1808 8.40254 69.6155 6.8351 68.4849 5.70448C67.3714 4.55673 65.8553 3.98286 63.9367 3.98286C61.9838 3.98286 60.4421 4.54817 59.3114 5.67878C58.198 6.8094 57.6412 8.38541 57.6412 10.4068C57.6412 12.4111 58.198 13.9871 59.3114 15.1349ZM63.911 6.91218C65.7611 6.91218 66.6862 8.0685 66.6862 10.3811C66.6862 12.7109 65.7611 13.8758 63.911 13.8758C62.0609 13.8758 61.1359 12.7109 61.1359 10.3811C61.1359 8.0685 62.0609 6.91218 63.911 6.91218ZM78.856 13.686V16.9719H75.8242L72.3144 0.461916H75.8997L78.6698 13.686H78.856ZM84.8691 0.461916V3.74781H84.6829L83.6413 8.7169H80.0837L81.8373 0.461916H84.8691ZM83.6415 8.71692L81.8878 16.9719H78.8561V13.686H79.0422L80.0839 8.71692H83.6415ZM91.071 13.686H90.885H90.8848H90.6988L89.6572 8.71692H86.0995L87.8532 16.9719H90.8848H90.885H93.9166L94.4965 14.242H99.3021L99.882 16.9719H102.914V13.686H102.728L101.686 8.71692H98.1283L98.6067 10.9687H95.1919L95.6703 8.71692H92.1126L91.071 13.686ZM96.8982 3.74781H96.7121L95.6705 8.7169H92.1129L93.8665 0.461916H96.8982H96.8983H99.9299L101.684 8.7169H98.126L97.0844 3.74781H96.8983H96.8982ZM84.8694 3.74781V0.461916H87.9012L89.6548 8.7169H86.0972L85.0581 3.74781H84.8694ZM109.113 3.74781H108.927H108.927H108.741L107.699 8.7169H104.142L105.896 0.461916H108.927H108.927H111.959L113.713 8.7169H110.155L109.113 3.74781ZM114.943 13.686H114.757L113.715 8.71692H110.158L111.911 16.9719H114.943H114.943H117.975L119.728 8.71692H116.171L115.129 13.686H114.943H114.943ZM103.1 13.686H102.914V16.9719H105.946L107.699 8.71692H104.142L103.1 13.686ZM120.956 0.461916V3.74781H120.77L119.728 8.7169H116.171L117.924 0.461916H120.956ZM127.158 13.686H126.972V16.9719H130.004L131.757 8.71692H128.2L127.158 13.686ZM132.985 3.74781H132.799L131.757 8.7169H128.2L129.953 0.461916H132.985H132.985H136.017L137.771 8.7169H134.213L133.171 3.74781H132.985H132.985ZM120.956 3.74781V0.461916H123.988L125.742 8.7169H122.184L121.142 3.74781H120.956ZM122.186 8.71692L123.94 16.9719H126.972V13.686H126.786L125.742 8.71692H122.186ZM134.213 8.71692L135.966 16.9719H138.998V13.686H138.812L137.77 8.71692H134.213ZM139.185 13.686H138.998V16.9719H142.03L143.784 8.71692H140.229L139.185 13.686ZM145.014 0.461916V3.74781H144.828L143.786 8.7169H140.229L141.982 0.461916H145.014ZM145.2 3.74781H145.014V0.461916H148.046L149.8 8.7169H146.242L145.2 3.74781ZM146.242 8.71692L147.996 16.9719H151.027V13.686H150.841L149.8 8.71692H146.242ZM154.059 16.9719H151.027V13.686H151.214L153.984 0.461916H157.569L154.059 16.9719Z" fill="white"/>
</svg>
