<?xml version="1.0" standalone="no"?>
<!DOCTYPE svg PUBLIC "-//W3C//DTD SVG 20010904//EN"
 "http://www.w3.org/TR/2001/REC-SVG-20010904/DTD/svg10.dtd">
<svg version="1.0" xmlns="http://www.w3.org/2000/svg"
 width="332.000000pt" height="332.000000pt" viewBox="0 0 332.000000 332.000000"
 preserveAspectRatio="xMidYMid meet">
<metadata>
Created by potrace 1.14, written by Peter Selinger 2001-2017
</metadata>
<g transform="translate(0.000000,332.000000) scale(0.100000,-0.100000)"
fill="#000000" stroke="none">
<path d="M1720 2900 c-300 -77 -573 -146 -607 -156 l-63 -16 0 -269 0 -268 33
-9 c17 -5 238 -60 491 -123 416 -104 484 -125 463 -145 -2 -3 -225 -60 -493
-128 l-489 -122 -3 -270 -2 -269 492 -125 c376 -95 493 -129 493 -140 0 -11
-116 -44 -492 -139 l-493 -124 0 -159 c0 -147 1 -159 18 -154 9 3 251 64 537
136 286 72 555 140 598 152 l77 20 0 269 0 269 -27 7 c-16 3 -237 59 -493 123
-345 86 -466 120 -468 132 -3 14 232 77 888 241 l95 23 3 270 2 269 -492 125
c-376 95 -493 129 -493 140 0 11 116 44 493 139 l492 124 0 158 c0 88 -3 159
-7 158 -5 0 -253 -63 -553 -139z"/>
</g>
</svg>
