<?xml version="1.0" standalone="no"?>
<!DOCTYPE svg PUBLIC "-//W3C//DTD SVG 1.1//EN" "http://www.w3.org/Graphics/SVG/1.1/DTD/svg11.dtd" >
<svg xmlns="http://www.w3.org/2000/svg" xmlns:xlink="http://www.w3.org/1999/xlink" version="1.1">
<metadata>
Created by FontForge 20170731 at Tue Mar  1 01:18:53 2022
 By Aleksey,,,
(c) Copyright OH no Type Company, LLC. 2020. All rights reserved.
</metadata>
<defs>
<font id="Degular-Semibold" horiz-adv-x="1093" >
  <font-face 
    font-family="Degular Semibold"
    font-weight="600"
    font-stretch="normal"
    units-per-em="2048"
    panose-1="4 4 6 6 6 3 3 4 3 5"
    ascent="1372"
    descent="-676"
    x-height="963"
    cap-height="1229"
    bbox="-621 -438 2636 1909"
    underline-thickness="102"
    underline-position="-675"
    unicode-range="U+0020-FB02"
  />
<missing-glyph horiz-adv-x="1751" 
d="M743 98q46 0 85.5 4t62.5 8.5t63 14t66 14.5q0 251 188 410l19 -21q-26 -68 -53 -217q210 131 210 437q0 243 -122 368t-365 125q-179 0 -298.5 -83.5t-152.5 -221.5q73 -1 123.5 -36t71.5 -85t21 -110q0 -57 -20.5 -102t-54.5 -72.5t-73 -42.5t-80 -17q2 -57 4 -157.5
t4 -153.5q42 -27 128.5 -44.5t172.5 -17.5zM745 -68q-291 0 -434 129q-10 294 17 431q-57 26 -91 80t-34 128q0 69 33.5 125.5t93.5 85.5q-11 213 149.5 351.5t431.5 138.5q307 0 465 -157.5t158 -446.5q0 -109 -22 -204.5t-67.5 -178t-120.5 -144t-175 -94.5
q-19 -108 -19 -158q-138 -86 -385 -86zM942 940q113 0 174.5 -67.5t61.5 -161.5q0 -109 -77 -184.5t-175 -75.5q-101 0 -167.5 66.5t-66.5 180.5q0 97 65.5 169.5t184.5 72.5z" />
    <glyph glyph-name=".notdef" horiz-adv-x="1751" 
d="M743 98q46 0 85.5 4t62.5 8.5t63 14t66 14.5q0 251 188 410l19 -21q-26 -68 -53 -217q210 131 210 437q0 243 -122 368t-365 125q-179 0 -298.5 -83.5t-152.5 -221.5q73 -1 123.5 -36t71.5 -85t21 -110q0 -57 -20.5 -102t-54.5 -72.5t-73 -42.5t-80 -17q2 -57 4 -157.5
t4 -153.5q42 -27 128.5 -44.5t172.5 -17.5zM745 -68q-291 0 -434 129q-10 294 17 431q-57 26 -91 80t-34 128q0 69 33.5 125.5t93.5 85.5q-11 213 149.5 351.5t431.5 138.5q307 0 465 -157.5t158 -446.5q0 -109 -22 -204.5t-67.5 -178t-120.5 -144t-175 -94.5
q-19 -108 -19 -158q-138 -86 -385 -86zM942 940q113 0 174.5 -67.5t61.5 -161.5q0 -109 -77 -184.5t-175 -75.5q-101 0 -167.5 66.5t-66.5 180.5q0 97 65.5 169.5t184.5 72.5z" />
    <glyph glyph-name=".null" horiz-adv-x="0" 
 />
    <glyph glyph-name="nonmarkingreturn" horiz-adv-x="682" 
 />
    <glyph glyph-name="space" unicode=" " horiz-adv-x="387" 
 />
    <glyph glyph-name="exclam" unicode="!" horiz-adv-x="497" 
d="M360 444h-223v785h223v-785zM121 250h256v-250h-256v250z" />
    <glyph glyph-name="quotedbl" unicode="&#x22;" horiz-adv-x="720" 
d="M76 1229h229l-31 -553h-159zM416 1229h229l-31 -553h-159z" />
    <glyph glyph-name="numbersign" unicode="#" horiz-adv-x="1394" 
d="M950 0h-176l27 283h-275l-28 -283h-174l26 283h-276v198h295l22 262h-317v199h336l26 287h187l-29 -287h266l27 287h186l-29 -287h279v-199h-299l-25 -262h324v-198h-344zM522 461h316l28 305h-311z" />
    <glyph glyph-name="dollar" unicode="$" horiz-adv-x="1142" 
d="M489 1454h189l-12 -219q177 -19 269 -107t122 -235l-232 -45q-26 113 -84.5 165t-181.5 52q-115 0 -172 -40t-57 -114q0 -48 21.5 -80t90 -61.5t193.5 -52.5q134 -25 224.5 -62t138.5 -86.5t67.5 -103t19.5 -123.5q0 -157 -102.5 -247.5t-318.5 -102.5l14 -246h-189
l15 248q-401 33 -451 381l223 47q46 -254 328 -254q124 0 186 42t62 118q0 79 -66 122.5t-243 73.5q-124 20 -210.5 54t-137 82t-73 106t-22.5 133q0 149 102 237t300 101z" />
    <glyph glyph-name="percent" unicode="%" horiz-adv-x="1538" 
d="M403 545q-157 0 -249.5 95.5t-92.5 260.5q0 162 92.5 256t249.5 94t249.5 -94t92.5 -256q0 -165 -92.5 -260.5t-249.5 -95.5zM401 694q81 0 125.5 54t44.5 153q0 96 -44.5 147.5t-123.5 51.5q-80 0 -123.5 -51.5t-43.5 -147.5q0 -99 42 -153t123 -54zM1137 -20
q-157 0 -249.5 95.5t-92.5 260.5q0 162 92 255t250 93t250 -93t92 -255q0 -165 -92.5 -260.5t-249.5 -95.5zM1137 129q80 0 124 54.5t44 152.5q0 96 -44.5 147.5t-123.5 51.5t-123.5 -51.5t-44.5 -147.5q0 -99 43.5 -153t124.5 -54zM1124 1229h306v-12l-576 -537l-45 35z
M420 0h-303v12l575 537l45 -35z" />
    <glyph glyph-name="ampersand" unicode="&#x26;" horiz-adv-x="1400" 
d="M481 911q0 -81 43 -186q138 42 205.5 99t67.5 139q0 61 -35.5 95t-108.5 34q-82 0 -127 -47.5t-45 -133.5zM1354 205l8 -209q-59 -10 -131 -10q-207 0 -414 127q-63 -63 -164 -98t-221 -35q-176 0 -281.5 84.5t-105.5 244.5q0 133 76 217t217 140q-62 140 -62 245
q0 87 30.5 154t83 107.5t118.5 60.5t141 20q174 0 259 -73t85 -197q0 -65 -27 -118.5t-67 -88t-101 -62.5t-112.5 -43.5t-118.5 -29.5q120 -202 322 -328q169 198 215 459l199 -27q-48 -295 -302 -491q121 -51 244 -51q72 0 109 2zM496 150q118 0 206 45q-203 165 -329 399
q-129 -79 -129 -236q0 -96 64 -152t188 -56z" />
    <glyph glyph-name="quotesingle" unicode="'" horiz-adv-x="380" 
d="M76 1229h229l-31 -553h-159z" />
    <glyph glyph-name="parenleft" unicode="(" horiz-adv-x="696" 
d="M330 520q0 -252 70 -455.5t241 -400.5l-141 -102q-396 375 -396 958q0 584 396 959l143 -103q-174 -192 -243.5 -397.5t-69.5 -458.5z" />
    <glyph glyph-name="parenright" unicode=")" horiz-adv-x="696" 
d="M367 520q0 253 -70 456t-242 400l144 103q395 -376 395 -959q0 -582 -395 -958l-144 102q173 193 242.5 398.5t69.5 457.5z" />
    <glyph glyph-name="asterisk" unicode="*" horiz-adv-x="1054" 
d="M410 1372h235l-72 -373h-90zM35 926l74 227l331 -184l-26 -88zM344 434l-192 139l276 261l74 -54zM905 573l-190 -139l-160 346l72 54zM948 1153l72 -225l-377 -47l-27 86z" />
    <glyph glyph-name="plus" unicode="+" horiz-adv-x="1024" 
d="M401 164v358h-344v201h344v354h222v-354h346v-201h-346v-358h-222z" />
    <glyph glyph-name="comma" unicode="," horiz-adv-x="376" 
d="M100 283h226l-211 -572h-162v13z" />
    <glyph glyph-name="hyphen" unicode="-" horiz-adv-x="716" 
d="M41 602h635v-207h-635v207z" />
    <glyph glyph-name="period" unicode="." horiz-adv-x="387" 
d="M66 250h256v-250h-256v250z" />
    <glyph glyph-name="slash" unicode="/" horiz-adv-x="655" 
d="M250 -309h-230l398 1624h225z" />
    <glyph glyph-name="zero" unicode="0" horiz-adv-x="1187" 
d="M594 1053q-153 0 -228 -114t-75 -321q0 -209 75 -326.5t226 -117.5q154 0 229.5 117t75.5 327q0 207 -75 321t-228 114zM594 1255q251 0 392.5 -168.5t141.5 -468.5q0 -304 -140 -474.5t-394 -170.5t-394.5 170.5t-140.5 474.5q0 300 142.5 468.5t392.5 168.5z" />
    <glyph glyph-name="one" unicode="1" horiz-adv-x="937" 
d="M874 0h-792v199h321v821q-131 -70 -280 -125l-72 188l445 146h131v-1030h247v-199z" />
    <glyph glyph-name="two" unicode="2" horiz-adv-x="1169" 
d="M618 1061q-132 0 -203.5 -76t-90.5 -233l-218 26q57 475 515 475q225 0 342.5 -97t117.5 -290q0 -86 -33.5 -154t-99 -117t-149.5 -83.5t-199 -62.5q-189 -51 -257.5 -106.5t-74.5 -164.5q198 21 383 21h441v-199h-1022q-2 41 -2 127q0 139 45 229.5t133.5 145.5
t240.5 98q215 60 290 118t75 156q0 87 -57.5 137t-176.5 50z" />
    <glyph glyph-name="three" unicode="3" horiz-adv-x="1150" 
d="M598 -20q-242 0 -375.5 100t-161.5 305l226 27q21 -125 92 -186.5t221 -61.5q127 0 192.5 49.5t65.5 140.5q0 95 -53.5 138t-192.5 43h-206v163h202q209 0 209 179q0 99 -54 142.5t-169 43.5q-127 0 -186.5 -56.5t-81.5 -172.5l-215 20q60 395 481 395q228 0 335 -80
t107 -247q0 -232 -270 -289v-25q181 -17 252 -81t71 -197q0 -164 -119.5 -257t-369.5 -93z" />
    <glyph glyph-name="four" unicode="4" horiz-adv-x="1187" 
d="M1145 287h-172v-287h-221v287h-709v166l651 776h279v-760h172v-182zM635 469h117v567l-15 4l-479 -577l10 -14q184 20 367 20z" />
    <glyph glyph-name="five" unicode="5" horiz-adv-x="1167" 
d="M604 162q136 0 199 54.5t63 164.5q0 101 -62.5 152t-197.5 51q-163 0 -276 -76l-183 70v651h879v-211q-352 0 -676 24v-378q136 84 326 84q205 0 311.5 -97.5t106.5 -271.5q0 -202 -127 -300.5t-365 -98.5q-219 0 -349 81.5t-187 255.5l217 62q40 -103 116 -160t205 -57z
" />
    <glyph glyph-name="six" unicode="6" horiz-adv-x="1171" 
d="M616 602q-152 0 -228.5 -61.5t-76.5 -153.5q0 -96 74 -157.5t217 -61.5q145 0 205.5 61t60.5 170q0 203 -252 203zM1096 395q0 -198 -127.5 -308t-374.5 -110q-97 0 -175.5 19.5t-145.5 65t-112 116t-70 177t-25 243.5q0 142 30.5 258t93.5 206t168.5 139.5t245.5 49.5
q119 0 203 -24.5t137.5 -75.5t83 -120t43.5 -169l-221 -26q-23 116 -77.5 170.5t-170.5 54.5q-170 0 -244.5 -123t-74.5 -389v-53l24 -4q73 253 391 253q86 0 156 -19.5t125.5 -60t86 -109.5t30.5 -161z" />
    <glyph glyph-name="seven" unicode="7" horiz-adv-x="1060" 
d="M29 1022v207h1009v-207q-406 -417 -442 -1022h-256q19 299 152.5 568t359.5 474q-205 -20 -406 -20h-417z" />
    <glyph glyph-name="eight" unicode="8" horiz-adv-x="1159" 
d="M580 -23q-266 0 -390 91t-124 254q0 117 78 190t249 98v23q-136 28 -205 98.5t-69 190.5q3 329 461 329q460 0 460 -329q0 -120 -68 -189.5t-204 -99.5v-23q171 -25 248.5 -98t77.5 -190q0 -345 -514 -345zM580 537q-285 0 -285 -189q0 -184 285 -184q284 0 284 184
q0 189 -284 189zM580 1063q-125 0 -182.5 -46.5t-59.5 -137.5q0 -95 64.5 -141t177.5 -46q114 0 177.5 46t63.5 141q0 184 -241 184z" />
    <glyph glyph-name="nine" unicode="9" horiz-adv-x="1167" 
d="M559 614q146 0 221.5 64t75.5 160q0 97 -74 160t-209 63q-141 0 -204.5 -64t-63.5 -172q0 -102 65 -156.5t189 -54.5zM567 -23q-232 0 -348.5 91.5t-148.5 269.5l219 41q22 -105 90.5 -158t193.5 -53q165 0 238.5 121.5t73.5 384.5v45l-23 4q-80 -250 -381 -250
q-87 0 -158.5 20t-127 61t-86.5 111.5t-31 165.5q0 197 126.5 308.5t366.5 111.5q98 0 177 -19.5t146.5 -64.5t112.5 -115.5t70 -176.5t25 -244q0 -142 -30.5 -258.5t-93 -206.5t-167 -139.5t-244.5 -49.5z" />
    <glyph glyph-name="colon" unicode=":" horiz-adv-x="425" 
d="M84 965h256v-250h-256v250zM84 250h256v-250h-256v250z" />
    <glyph glyph-name="semicolon" unicode=";" horiz-adv-x="444" 
d="M129 283h225l-211 -572h-161v13zM94 965h256v-250h-256v250z" />
    <glyph glyph-name="less" unicode="&#x3c;" horiz-adv-x="1052" 
d="M956 25l-895 387v227l895 389v-244l-426 -131q-86 -30 -327 -100v-55q208 -58 327 -99l426 -131v-243z" />
    <glyph glyph-name="equal" unicode="=" horiz-adv-x="1077" 
d="M975 344h-873v180h873v-180zM975 715h-873v178h873v-178z" />
    <glyph glyph-name="greater" unicode="&#x3e;" horiz-adv-x="1052" 
d="M80 27v243l426 131q103 35 330 101v55q-228 64 -330 98l-426 131v244l897 -387v-227z" />
    <glyph glyph-name="question" unicode="?" horiz-adv-x="1003" 
d="M700 565q-104 -44 -104 -143v-23h-213v35q0 93 39.5 148.5t138.5 105.5q97 46 135.5 89t38.5 114q0 84 -53 127t-154 43q-129 0 -193.5 -73.5t-84.5 -217.5l-217 31q57 450 497 450q211 0 323 -88t112 -256q0 -73 -20 -129.5t-58.5 -96t-82 -66t-104.5 -50.5zM360 250
h256v-250h-256v250z" />
    <glyph glyph-name="at" unicode="@" horiz-adv-x="1718" 
d="M819 -229q-760 0 -760 680q0 146 35.5 280.5t109 251t178 202t251 134.5t319.5 49q147 0 267 -34t202 -93.5t137.5 -142t81 -176.5t25.5 -201q0 -123 -21.5 -222.5t-59 -167.5t-89.5 -114t-111.5 -67t-126.5 -21q-132 0 -192.5 62t-60.5 169q0 32 2 52h-17
q-53 -141 -124 -212t-171 -71q-103 0 -163 71.5t-60 215.5q0 148 38.5 271t119.5 201.5t192 78.5q185 0 211 -219h15l26 200h182l-67 -512q-20 -149 96 -149q88 0 145.5 102t57.5 313q0 107 -29.5 193.5t-92.5 155.5t-174 107t-263 38q-132 0 -243 -39.5t-190 -108.5
t-134.5 -163t-82 -203t-26.5 -229q0 -272 146.5 -396.5t424.5 -124.5q102 0 222 23t196 59h16v-151q-189 -92 -438 -92zM1026 621q13 87 -28.5 137.5t-123.5 50.5q-103 0 -157.5 -100.5t-54.5 -262.5q0 -157 112 -157q91 0 159.5 85t84.5 197z" />
    <glyph glyph-name="A" unicode="A" horiz-adv-x="1208" 
d="M969 0l-107 313h-524l-107 -313h-241l456 1229h316l457 -1229h-250zM451 639l-52 -152h402l-51 152q-52 152 -123 387h-52q-64 -211 -124 -387z" />
    <glyph glyph-name="B" unicode="B" horiz-adv-x="1173" 
d="M668 528h-312v-352h324q105 0 159 47.5t54 128.5q0 88 -51.5 132t-173.5 44zM643 1047h-287v-355h277q211 0 211 182q0 89 -47.5 131t-153.5 42zM123 0v1229h516q219 0 323.5 -78t104.5 -236q0 -227 -248 -286v-21q161 -17 232 -80.5t71 -193.5q0 -157 -106 -245.5
t-330 -88.5h-563z" />
    <glyph glyph-name="C" unicode="C" horiz-adv-x="1275" 
d="M651 -27q-281 0 -436.5 171.5t-155.5 471.5q0 297 160.5 468t437.5 171q236 0 378 -123t175 -346l-223 -43q-28 153 -109.5 230.5t-224.5 77.5q-180 0 -270 -118t-90 -317q0 -209 88.5 -324.5t269.5 -115.5q150 0 230 78t112 238l221 -41q-31 -226 -176.5 -352
t-386.5 -126z" />
    <glyph glyph-name="D" unicode="D" horiz-adv-x="1298" 
d="M592 1034h-236v-841h248q211 0 307.5 109.5t96.5 322.5q0 217 -97.5 313t-318.5 96zM123 0v1229h500q618 0 618 -604q0 -292 -164.5 -458.5t-453.5 -166.5h-500z" />
    <glyph glyph-name="E" unicode="E" horiz-adv-x="1103" 
d="M123 0v1229h887v-203h-654v-303h592v-201h-592v-319h652v-203h-885z" />
    <glyph glyph-name="F" unicode="F" horiz-adv-x="1032" 
d="M911 444h-555v-444h-233v1229h848v-215h-615v-367h555v-203z" />
    <glyph glyph-name="G" unicode="G" horiz-adv-x="1312" 
d="M573 -20q-236 0 -377 159t-141 459q0 307 153 481t445 174q469 0 545 -438l-217 -45q-35 143 -113 212t-217 69q-362 0 -362 -453q0 -424 370 -424q78 0 138 16t97 42t61 63.5t33 76t9 83.5h-344v190h564v-645h-216v274h-20q-43 -134 -143.5 -214t-264.5 -80z" />
    <glyph glyph-name="H" unicode="H" horiz-adv-x="1308" 
d="M1184 0h-234v508h-594v-508h-233v1229h233v-512h594v512h234v-1229z" />
    <glyph glyph-name="I" unicode="I" horiz-adv-x="481" 
d="M356 0h-233v1229h233v-1229z" />
    <glyph glyph-name="J" unicode="J" horiz-adv-x="636" 
d="M281 344v885h233v-883q0 -172 -80.5 -267t-251.5 -95q-73 0 -159 14l10 201q89 -13 112 -13q136 0 136 158z" />
    <glyph glyph-name="K" unicode="K" horiz-adv-x="1167" 
d="M901 0l-446 485h-99v-485h-233v1229h233v-553h93l438 553h264v-23l-530 -608l550 -575v-23h-270z" />
    <glyph glyph-name="L" unicode="L" horiz-adv-x="954" 
d="M356 1229v-1020h555v-209h-788v1229h233z" />
    <glyph glyph-name="M" unicode="M" horiz-adv-x="1650" 
d="M340 569v-569h-217v1229h383l190 -531q56 -144 123 -387h33q82 280 123 396l194 522h359v-1229h-234v569q0 76 11 469h-35q-75 -271 -164 -512l-178 -456h-228l-172 465q-84 241 -155 503h-35q2 -72 2 -469z" />
    <glyph glyph-name="N" unicode="N" horiz-adv-x="1318" 
d="M887 0l-316 559q-93 171 -215 465l-37 -4q23 -341 23 -598v-422h-219v1229h334l270 -481q130 -231 238 -508l36 2q-22 319 -22 561v426h215v-1229h-307z" />
    <glyph glyph-name="O" unicode="O" horiz-adv-x="1345" 
d="M674 -27q-292 0 -453.5 174.5t-161.5 470.5q0 292 164 464.5t451 172.5q288 0 451 -172t163 -465q0 -296 -161.5 -470.5t-452.5 -174.5zM672 176q193 0 288 117t95 325q0 201 -95.5 317t-285.5 116q-192 0 -287.5 -116t-95.5 -317q0 -207 94.5 -324.5t286.5 -117.5z" />
    <glyph glyph-name="P" unicode="P" horiz-adv-x="1103" 
d="M596 1030h-240v-432h242q128 0 186 52t58 163q0 115 -56 166t-190 51zM625 406h-269v-406h-233v1229h493q455 0 455 -414q0 -181 -117.5 -295t-328.5 -114z" />
    <glyph glyph-name="Q" unicode="Q" horiz-adv-x="1347" 
d="M672 176q193 0 288 117t95 325q0 201 -95.5 317t-285.5 116q-192 0 -287.5 -116t-95.5 -317q0 -207 94.5 -324.5t286.5 -117.5zM674 -27q-292 0 -453.5 174.5t-161.5 470.5q0 292 164 464.5t451 172.5q288 0 451 -172t163 -465q0 -174 -58 -309.5t-169 -220.5l170 -260
v-23h-244l-113 195q-92 -27 -200 -27z" />
    <glyph glyph-name="R" unicode="R" horiz-adv-x="1208" 
d="M623 1032h-267v-375h262q244 0 244 193q0 96 -54.5 139t-184.5 43zM891 0l-305 461h-230v-461h-233v1229h516q453 0 453 -373q0 -143 -70.5 -237.5t-200.5 -133.5l342 -462v-23h-272z" />
    <glyph glyph-name="S" unicode="S" horiz-adv-x="1153" 
d="M596 -27q-488 3 -543 402l223 47q46 -258 328 -258q124 0 186 42.5t62 119.5q0 80 -66 124t-243 74q-124 20 -210.5 54.5t-137 83t-73 106.5t-22.5 133q0 168 119.5 261t351.5 93q115 0 202.5 -26t144 -75t90 -113t49.5 -148l-232 -45q-26 115 -84.5 168t-181.5 53
q-115 0 -172 -40.5t-57 -115.5q0 -48 21.5 -80.5t90 -62.5t193.5 -53q108 -20 187.5 -49t129.5 -62.5t80 -77t41.5 -88t11.5 -100.5q0 -175 -119 -271t-370 -96z" />
    <glyph glyph-name="T" unicode="T" horiz-adv-x="1048" 
d="M29 1014v215h991v-215h-379v-1014h-233v1014h-379z" />
    <glyph glyph-name="U" unicode="U" horiz-adv-x="1290" 
d="M653 182q155 0 219 77t64 226v744h231v-760q0 -240 -132 -367t-382 -127q-255 0 -392.5 127t-137.5 367v760h233v-737q0 -149 68 -229.5t229 -80.5z" />
    <glyph glyph-name="V" unicode="V" horiz-adv-x="1202" 
d="M756 0h-310l-456 1229h250l217 -639q75 -217 123 -387h49q57 188 125 387l219 639h239z" />
    <glyph glyph-name="W" unicode="W" horiz-adv-x="1734" 
d="M743 516l-106 -516h-330l-311 1229h250l123 -559q62 -303 88 -469h55q54 325 86 467l131 561h297l129 -561q50 -232 86 -467h51q31 181 90 469l117 559h240l-307 -1229h-345l-106 516q-70 343 -96 516h-43q-42 -239 -99 -516z" />
    <glyph glyph-name="X" unicode="X" horiz-adv-x="1148" 
d="M877 0l-295 510h-33l-291 -510h-242v23l394 606l-390 577v23h256l289 -496h41l277 496h243v-23l-389 -602l396 -581v-23h-256z" />
    <glyph glyph-name="Y" unicode="Y" horiz-adv-x="1105" 
d="M670 0h-234v408l-454 798v23h254l301 -627h34l306 627h247v-23l-454 -803v-403z" />
    <glyph glyph-name="Z" unicode="Z" horiz-adv-x="1173" 
d="M1087 213v-213h-1017v209l725 807l-15 26q-228 -26 -389 -26h-299v213h989v-207l-729 -809l13 -29q271 29 397 29h325z" />
    <glyph glyph-name="bracketleft" unicode="[" horiz-adv-x="620" 
d="M119 -385v1802h459v-184h-238v-1421h238v-197h-459z" />
    <glyph glyph-name="backslash" unicode="\" horiz-adv-x="655" 
d="M420 -309l-391 1624h225l395 -1624h-229z" />
    <glyph glyph-name="bracketright" unicode="]" horiz-adv-x="620" 
d="M43 -385v184h238v1422h-238v196h459v-1802h-459z" />
    <glyph glyph-name="asciicircum" unicode="^" horiz-adv-x="1007" 
d="M846 506l-342 364l-342 -364l-107 94l394 490h108l395 -490z" />
    <glyph glyph-name="underscore" unicode="_" horiz-adv-x="942" 
d="M0 0h942v-182h-942v182z" />
    <glyph glyph-name="grave" unicode="`" horiz-adv-x="649" 
d="M549 1061l-508 225l86 160l477 -277z" />
    <glyph glyph-name="a" unicode="a" horiz-adv-x="1019" 
d="M436 152q114 0 185 59t71 151v39h-250q-84 0 -129 -30.5t-45 -89.5q0 -58 40 -93.5t128 -35.5zM702 0v229h-22q-37 -119 -121 -184t-209 -65q-135 0 -214 67t-79 203t86.5 216.5t262.5 80.5h286v65q0 97 -44 147t-142 50q-165 0 -203 -170l-209 47q29 141 134.5 220
t285.5 79q205 0 301 -93.5t96 -277.5v-614h-209z" />
    <glyph glyph-name="b" unicode="b" 
d="M580 168q121 0 179 77.5t58 233.5q0 158 -57 233.5t-178 75.5q-114 0 -181 -74t-67 -200v-74q0 -122 68 -197t178 -75zM334 1315v-602h14q40 130 123 202t209 72q171 0 262.5 -131t91.5 -377q0 -243 -92.5 -374.5t-257.5 -131.5q-128 0 -213.5 76t-122.5 207h-14v-256
h-219v1315h219z" />
    <glyph glyph-name="c" unicode="c" horiz-adv-x="1050" 
d="M778 588q-24 101 -77 153t-160 52q-121 0 -188.5 -78.5t-67.5 -233.5q0 -148 67.5 -230.5t194.5 -82.5q108 0 160 56t77 157l203 -49q-63 -359 -438 -359q-230 0 -360 130t-130 370q0 241 131.5 377.5t354.5 136.5q201 0 305.5 -91t134.5 -269z" />
    <glyph glyph-name="d" unicode="d" 
d="M514 170q111 0 178.5 73t67.5 195v74q0 125 -67 200.5t-179 75.5q-120 0 -179 -76.5t-59 -234.5q0 -156 58 -231.5t180 -75.5zM760 0v254h-15q-38 -129 -124 -205t-211 -76q-167 0 -259 130.5t-92 373.5q0 246 93.5 379t263.5 131q126 1 208.5 -72t120.5 -204h15v604h219
v-1315h-219z" />
    <glyph glyph-name="e" unicode="e" horiz-adv-x="1040" 
d="M539 817q-229 0 -258 -252h493q-6 126 -63.5 189t-171.5 63zM545 -25q-225 0 -355.5 128t-130.5 366q0 244 129.5 381t356.5 137q213 0 322.5 -118t109.5 -322q0 -80 -4 -129h-694q24 -262 268 -262q107 0 158.5 43.5t74.5 122.5l189 -54q-76 -293 -424 -293z" />
    <glyph glyph-name="f" unicode="f" horiz-adv-x="704" 
d="M416 1012v-49h264v-179h-264v-784h-221v784h-160v179h160v53q0 151 83.5 239t245.5 88q86 0 164 -16l-8 -158q-79 11 -117 11q-147 0 -147 -168z" />
    <glyph glyph-name="g" unicode="g" horiz-adv-x="1026" 
d="M487 791q-215 0 -215 -168t217 -168q224 0 224 168q0 79 -57.5 123.5t-168.5 44.5zM504 -193q126 0 196.5 14.5t95.5 39.5t25 69t-32.5 69.5t-100.5 25.5h-338q-74 0 -115.5 -32t-41.5 -75q0 -41 25.5 -64t93.5 -35t192 -12zM997 -63q0 -101 -46.5 -162.5t-158.5 -94
t-300 -32.5q-134 0 -227 13.5t-146 40.5t-76 62.5t-23 83.5q0 61 60.5 107t161.5 68v8q-131 24 -131 129q0 77 108 129l74 41q-107 35 -163 111.5t-56 185.5q0 162 111.5 249t312.5 87h477v-170h-111q-57 0 -194 10l-2 -19q108 -21 170.5 -68.5t62.5 -135.5
q0 -130 -107.5 -203.5t-306.5 -73.5q-87 0 -161 19l-23 -35q-24 -43 -24 -62q0 -29 23 -41t71 -12q55 0 163.5 1t159.5 1q150 0 225.5 -61.5t75.5 -175.5z" />
    <glyph glyph-name="h" unicode="h" horiz-adv-x="1087" 
d="M334 545v-545h-219v1315h219v-606h16q42 134 128.5 206t211.5 72q145 0 219 -91.5t74 -252.5v-643h-219v586q0 93 -44.5 147.5t-137.5 54.5q-112 0 -180 -67t-68 -176z" />
    <glyph glyph-name="i" unicode="i" horiz-adv-x="477" 
d="M358 1126h-239v179h239v-179zM348 0h-221v963h221v-963z" />
    <glyph glyph-name="j" unicode="j" horiz-adv-x="497" 
d="M369 23q0 -168 -76.5 -261.5t-237.5 -93.5q-47 0 -92 10l10 191q50 -8 74 -8q103 0 103 135v965h219v-938zM379 1126h-240v179h240v-179z" />
    <glyph glyph-name="k" unicode="k" horiz-adv-x="1005" 
d="M342 1315v-748h88l303 396h252v-23l-381 -451l408 -466v-23h-252l-330 403h-88v-403h-221v1315h221z" />
    <glyph glyph-name="l" unicode="l" horiz-adv-x="462" 
d="M342 1315v-1315h-221v1315h221z" />
    <glyph glyph-name="m" unicode="m" horiz-adv-x="1738" 
d="M334 545v-545h-219v963h215v-254h18q40 135 127.5 206.5t210.5 71.5q132 0 203 -76t82 -213h22q36 140 121 214.5t217 74.5q149 0 225 -91.5t76 -252.5v-643h-221v586q0 93 -44.5 147.5t-137.5 54.5q-113 0 -179.5 -66.5t-66.5 -176.5v-545h-219v586q0 92 -45.5 147
t-138.5 55q-110 0 -178 -67t-68 -176z" />
    <glyph glyph-name="n" unicode="n" horiz-adv-x="1087" 
d="M334 545v-545h-219v963h215v-254h18q40 133 128 205.5t210 72.5q147 0 222 -91.5t75 -252.5v-643h-219v586q0 93 -44.5 147.5t-139.5 54.5q-110 0 -178 -67t-68 -176z" />
    <glyph glyph-name="o" unicode="o" 
d="M549 -27q-231 0 -360.5 136.5t-129.5 373.5q0 236 132 370t358 134q223 0 354 -134t131 -370q0 -237 -128.5 -373.5t-356.5 -136.5zM547 801q-132 0 -199 -82t-67 -234q0 -154 65.5 -237.5t200.5 -83.5q134 0 201 84t67 237q0 151 -68 233.5t-200 82.5z" />
    <glyph glyph-name="p" unicode="p" 
d="M580 168q121 0 179 77.5t58 233.5q0 158 -57 233.5t-178 75.5q-114 0 -181 -74t-67 -200v-74q0 -122 68 -197t178 -75zM1034 479q0 -243 -92.5 -374.5t-257.5 -131.5q-128 0 -213.5 76t-122.5 207h-14v-567h-219v1274h219v-250h14q40 130 123 202t209 72
q171 0 262.5 -131t91.5 -377z" />
    <glyph glyph-name="q" unicode="q" 
d="M514 168q110 0 178 75t68 195v74q0 127 -66.5 201.5t-179.5 74.5q-121 0 -179.5 -76.5t-58.5 -234.5q0 -156 58.5 -232.5t179.5 -76.5zM59 475q0 249 92.5 380.5t266.5 131.5q126 0 209 -74.5t121 -207.5l12 2v256h219v-1289h-219v580h-15q-37 -129 -123 -205t-214 -76
q-163 0 -256 130.5t-93 371.5z" />
    <glyph glyph-name="r" unicode="r" horiz-adv-x="696" 
d="M334 0h-219v963h209v-289l18 -2q40 168 107.5 234.5t177.5 66.5h35v-248h-54q-152 0 -213 -60t-61 -208v-457z" />
    <glyph glyph-name="s" unicode="s" horiz-adv-x="946" 
d="M496 -27q-113 0 -195.5 22t-133 65.5t-78.5 97.5t-42 127l199 41q25 -94 84 -142.5t170 -48.5q178 0 178 123q0 58 -51.5 90t-192.5 58q-190 38 -268 106t-78 190q0 134 97.5 209.5t285.5 75.5q97 0 167 -19t114.5 -57t70 -86t41.5 -116l-198 -43q-20 89 -66 126t-133 37
q-84 0 -127 -29.5t-43 -84.5t47 -90t176 -58q206 -38 288.5 -110t82.5 -191q0 -139 -97 -216t-298 -77z" />
    <glyph glyph-name="t" unicode="t" horiz-adv-x="729" 
d="M170 293v491h-135v179h135v260h221v-260h283v-179h-283v-460q0 -73 30.5 -108.5t100.5 -35.5q56 0 140 25l26 -197q-60 -19 -105 -27t-112 -8q-151 0 -226 88t-75 232z" />
    <glyph glyph-name="u" unicode="u" horiz-adv-x="1091" 
d="M762 0v254h-21q-40 -134 -127.5 -207.5t-207.5 -73.5q-148 0 -224 92.5t-76 253.5v644h222v-586q0 -93 44 -148t138 -55q112 0 179 67.5t67 176.5v545h221v-963h-215z" />
    <glyph glyph-name="v" unicode="v" horiz-adv-x="980" 
d="M637 0h-291l-356 963h239l119 -373q12 -39 40.5 -127t48 -152t36.5 -123h41q34 122 125 402l119 373h233z" />
    <glyph glyph-name="w" unicode="w" horiz-adv-x="1521" 
d="M895 963l94 -377q47 -179 92 -420h37q17 82 101 424l86 373h219l-287 -963h-289l-100 420q-51 220 -76 381h-33q-41 -225 -75 -381l-97 -420h-282l-287 963h227l97 -373q68 -256 102 -424h37q45 240 92 420l92 377h250z" />
    <glyph glyph-name="x" unicode="x" horiz-adv-x="1015" 
d="M731 0l-223 406h-29l-207 -406h-241v23l309 477l-307 440v23h250l223 -398h24l209 398h232v-23l-299 -471l307 -446v-23h-248z" />
    <glyph glyph-name="y" unicode="y" horiz-adv-x="995" 
d="M160 -358q-62 0 -152 12l35 199q77 -15 123 -15q86 0 135 34t94 138l-387 953h242l112 -349q123 -381 134 -419h32q60 199 127 415l105 353h235l-397 -975q-75 -184 -175 -265t-263 -81z" />
    <glyph glyph-name="z" unicode="z" horiz-adv-x="1009" 
d="M662 190h262v-190h-848v193l598 583l-10 23q-242 -29 -367 -29h-205v193h826v-193l-601 -586l11 -22q222 28 334 28z" />
    <glyph glyph-name="braceleft" unicode="{" horiz-adv-x="755" 
d="M705 -371q-129 -6 -168 -6q-171 0 -256.5 63.5t-83.5 178.5q0 50 18 99t43.5 89t51 78.5t43.5 82t18 85.5q0 70 -45 102.5t-144 32.5h-141v191h141q93 0 147 35.5t54 107.5q0 52 -28.5 110t-62.5 102t-62.5 106.5t-28.5 123.5q0 116 84.5 179t257.5 63q101 0 166 -6v-184
q-41 2 -109 2q-86 0 -124 -28t-38 -85q0 -38 21.5 -86t47 -87t47 -96.5t21.5 -113.5q0 -96 -67 -151t-203 -74v-23q147 -13 208.5 -63t61.5 -148q0 -57 -22 -114.5t-48.5 -97t-48.5 -87.5t-22 -86q0 -57 37 -84.5t123 -27.5q30 0 108 4z" />
    <glyph glyph-name="bar" unicode="|" horiz-adv-x="458" 
d="M338 -360h-217v1779h217v-1779z" />
    <glyph glyph-name="braceright" unicode="}" horiz-adv-x="755" 
d="M213 -385q-101 0 -168 6l2 184q41 -2 109 -2q85 0 122 28t37 85q0 38 -21.5 85.5t-47 87t-47 97t-21.5 113.5q0 96 67.5 150t205.5 75v23q-147 13 -210 63t-63 148q0 57 22.5 114.5t49.5 97t49.5 87.5t22.5 86q0 57 -37 84.5t-123 27.5q-31 0 -109 -4l-2 187q129 6 168 6
q171 0 255.5 -63t84.5 -179q0 -50 -18 -99t-43.5 -89t-51 -78.5t-43.5 -82t-18 -85.5q0 -70 43.5 -102.5t142.5 -32.5h144v-191h-142q-93 0 -146.5 -35.5t-53.5 -107.5q0 -52 28.5 -110t62.5 -102t62.5 -106.5t28.5 -123.5q0 -116 -84.5 -179t-257.5 -63z" />
    <glyph glyph-name="asciitilde" unicode="~" horiz-adv-x="1046" 
d="M725 537q-68 0 -121 32t-85.5 77.5t-60.5 90.5t-59.5 77t-68.5 32q-67 0 -92 -68.5t-19 -226.5h-131q-8 68 -8 137q0 359 233 359q58 0 105 -23t76 -58t56.5 -75t48.5 -75t50 -58t62 -23q65 0 92 72.5t20 224.5h129q9 -74 9 -135q0 -179 -60.5 -269.5t-175.5 -90.5z" />
    <glyph glyph-name="uni00A0" unicode="&#xa0;" horiz-adv-x="356" 
 />
    <glyph glyph-name="exclamdown" unicode="&#xa1;" horiz-adv-x="497" 
d="M137 518h223v-784h-223v784zM377 713h-256v250h256v-250z" />
    <glyph glyph-name="cent" unicode="&#xa2;" horiz-adv-x="1046" 
d="M446 1214h191l-14 -247q162 -15 248.5 -100t113.5 -240l-207 -39q-24 99 -76.5 149.5t-158.5 50.5q-123 0 -190.5 -77.5t-67.5 -229.5q0 -142 67.5 -225.5t194.5 -83.5q107 0 159.5 55t77.5 154l203 -49q-51 -307 -364 -336l14 -250h-191l15 252q-190 22 -296 144.5
t-106 330.5q0 210 107.5 339t294.5 153z" />
    <glyph glyph-name="sterling" unicode="&#xa3;" horiz-adv-x="1128" 
d="M1053 0h-994v193h199q18 71 18 155q0 52 -12 105h-203v168h160q-45 164 -45 272q0 166 109 261t321 95q91 0 162.5 -20.5t118.5 -55t80.5 -86t51 -105.5t28.5 -122l-203 -45q-28 128 -80 185t-158 57q-111 0 -161 -53.5t-50 -145.5q0 -81 37 -237h473v-168h-444v-23
q0 -76 -13.5 -129.5t-54.5 -107.5h660v-193z" />
    <glyph glyph-name="yen" unicode="&#xa5;" horiz-adv-x="1191" 
d="M1114 319h-401v-319h-234v319h-401v150h366l-82 143h-284v156h196l-249 438v23h254l301 -627h34l306 627h247v-23l-247 -438h194v-156h-283l-81 -143h364v-150z" />
    <glyph glyph-name="brokenbar" unicode="&#xa6;" horiz-adv-x="503" 
d="M360 -360h-217v784h217v-784zM360 612h-217v807h217v-807z" />
    <glyph glyph-name="section" unicode="&#xa7;" horiz-adv-x="1228" 
d="M629 -356q-108 0 -192.5 18t-144 50.5t-102.5 82.5t-68 108.5t-40 133.5l221 51q28 -131 107.5 -199.5t232.5 -68.5q234 0 234 147q0 48 -24.5 79t-90.5 56.5t-189 47.5q-198 38 -314 87.5t-164 112t-48 152.5q0 148 170 250q-49 66 -49 174q0 153 108.5 241t323.5 88
q123 0 210 -24.5t141 -76t84 -117t50 -160.5l-223 -41q-29 128 -89.5 187.5t-178.5 59.5q-111 0 -162 -41t-51 -110q0 -48 20.5 -79.5t93 -63.5t207.5 -56q142 -26 235.5 -58.5t146 -75t73.5 -90.5t21 -114q0 -148 -138 -241q58 -68 58 -185q0 -154 -114.5 -239.5
t-354.5 -85.5zM653 322q208 -41 314 -105q37 55 37 127q0 64 -34.5 102.5t-123 70t-266.5 67.5q-199 39 -297 106q-56 -59 -56 -135q0 -54 32 -90.5t125.5 -71.5t268.5 -71z" />
    <glyph glyph-name="dieresis" unicode="&#xa8;" horiz-adv-x="688" 
d="M55 1346h217v-211h-217v211zM414 1346h217v-211h-217v211z" />
    <glyph glyph-name="copyright" unicode="&#xa9;" horiz-adv-x="1851" 
d="M926 -47q139 0 248.5 31t184.5 87.5t124.5 139.5t71.5 183t22 222q0 153 -37 272t-113.5 207t-203 134.5t-297.5 46.5q-170 0 -296.5 -46.5t-203.5 -134.5t-114.5 -207t-37.5 -272t36.5 -272t113 -208t203.5 -136t299 -47zM926 1448q210 0 370.5 -59.5t262 -170t153 -262
t51.5 -340.5t-51 -341t-152 -263t-262 -171t-372 -60q-210 0 -371 60t-262.5 171t-153 263t-51.5 341t51.5 340.5t153.5 262t262.5 170t370.5 59.5zM1120 700q-10 93 -52 140t-136 47q-104 0 -159.5 -66.5t-55.5 -195.5t53.5 -202t159.5 -73q180 0 190 174l191 -20
q-11 -163 -103 -244.5t-276 -81.5q-194 0 -306 112.5t-112 323.5q0 208 112 326.5t306 118.5q187 0 274.5 -86t100.5 -254z" />
    <glyph glyph-name="ordfeminine" unicode="&#xaa;" horiz-adv-x="808" 
d="M356 776q79 0 129 46t50 116v29h-164q-66 0 -103 -26.5t-37 -72.5q0 -92 125 -92zM545 672v166h-15q-32 -87 -94.5 -136t-154.5 -49q-224 0 -224 193q0 85 64.5 139.5t193.5 54.5h220v74q0 60 -31 94.5t-94 34.5q-114 0 -150 -113l-172 41q26 96 109 153.5t219 57.5
q307 0 307 -270v-440h-178z" />
    <glyph glyph-name="guillemotleft" unicode="&#xab;" horiz-adv-x="1286" 
d="M723 68h-215l-471 444v33l471 444h215v-24l-457 -433v-8l457 -432v-24zM1245 68h-215l-471 444v33l471 444h215v-24l-457 -433v-8l457 -432v-24z" />
    <glyph glyph-name="registered" unicode="&#xae;" horiz-adv-x="1853" 
d="M954 877h-206v-248h208q156 0 156 123q0 67 -36 96t-122 29zM1130 211l-210 283h-172v-283h-191v817h418q328 0 328 -268q0 -98 -50.5 -161.5t-144.5 -88.5l235 -281v-18h-213zM926 -47q139 0 248.5 31t184.5 87.5t124.5 139.5t71.5 183t22 222q0 153 -37 272t-113.5 207
t-203 134.5t-297.5 46.5q-170 0 -296.5 -46.5t-203.5 -134.5t-114.5 -207t-37.5 -272t36.5 -272t113 -208t203.5 -136t299 -47zM926 -219q-210 0 -371 60t-262.5 171t-153 263t-51.5 341t51.5 340.5t153.5 262t262.5 170t370.5 59.5t370.5 -59.5t262 -170t153 -262
t51.5 -340.5t-51 -341t-152 -263t-262 -171t-372 -60z" />
    <glyph glyph-name="macron" unicode="&#xaf;" horiz-adv-x="647" 
d="M45 1294h557v-155h-557v155z" />
    <glyph glyph-name="degree" unicode="&#xb0;" horiz-adv-x="673" 
d="M625 969q0 -129 -78 -206t-209 -77q-132 0 -209.5 77t-77.5 206q0 128 77.5 204t209.5 76q131 0 209 -76.5t78 -203.5zM199 969q0 -69 36 -107.5t103 -38.5q66 0 101.5 38.5t35.5 107.5t-35.5 107t-101.5 38q-67 0 -103 -38t-36 -107z" />
    <glyph glyph-name="twosuperior" unicode="&#xb2;" horiz-adv-x="757" 
d="M395 1262q-149 0 -170 -162l-157 22q18 129 98.5 199t228.5 70q146 0 222.5 -58t76.5 -172q0 -99 -71 -150t-232 -85q-112 -26 -154 -57t-47 -89q126 17 238 17h274v-142h-657v74q0 120 61 185.5t213 103.5q124 30 167.5 60t43.5 81q0 103 -135 103z" />
    <glyph glyph-name="threesuperior" unicode="&#xb3;" horiz-adv-x="739" 
d="M371 639q-301 0 -336 231l155 29q11 -66 53 -98.5t130 -32.5q149 0 149 98q0 50 -31.5 72.5t-113.5 22.5h-111v106h109q131 0 131 94q0 99 -137 99q-76 0 -113.5 -30.5t-50.5 -92.5l-152 32q23 104 101.5 162t214.5 58q145 0 220 -51t75 -146q0 -70 -44 -110.5
t-135 -55.5v-18q109 -10 155 -48.5t46 -113.5q0 -99 -79 -153t-236 -54z" />
    <glyph glyph-name="acute" unicode="&#xb4;" horiz-adv-x="649" 
d="M96 1061l-55 108l479 277l82 -158z" />
    <glyph glyph-name="paragraph" unicode="&#xb6;" horiz-adv-x="1366" 
d="M1243 -326h-209v1555h209v-1555zM913 -326h-208v605h-144q-239 0 -371.5 118.5t-132.5 343.5q0 488 504 488h352v-1555z" />
    <glyph glyph-name="periodcentered" unicode="&#xb7;" horiz-adv-x="434" 
d="M88 625h256v-250h-256v250z" />
    <glyph glyph-name="cedilla" unicode="&#xb8;" horiz-adv-x="464" 
d="M252 -344q-125 0 -207 57l51 80q71 -47 156 -47q43 0 63.5 15.5t20.5 39.5q0 54 -80 54q-39 0 -82 -13l-63 27l65 180l94 -4l-57 -143q41 12 78 12q149 0 149 -119q0 -53 -45 -96t-143 -43z" />
    <glyph glyph-name="onesuperior" unicode="&#xb9;" horiz-adv-x="602" 
d="M580 655h-535v142h207v440q-79 -45 -178 -88l-51 129l278 96h111v-577h168v-142z" />
    <glyph glyph-name="ordmasculine" unicode="&#xba;" horiz-adv-x="794" 
d="M403 659q-165 0 -258.5 97.5t-93.5 267.5q0 168 95 263t257 95q158 0 252.5 -95.5t94.5 -262.5q0 -169 -92.5 -267t-254.5 -98zM401 1243q-91 0 -136.5 -56t-45.5 -161q0 -225 182 -225q92 0 137.5 58.5t45.5 166.5q0 104 -46 160.5t-137 56.5z" />
    <glyph glyph-name="guillemotright" unicode="&#xbb;" horiz-adv-x="1290" 
d="M782 59h-213v25l455 432v6l-455 432v27h213l471 -444v-33zM260 59h-213v25l455 432v6l-455 432v27h213l471 -444v-33z" />
    <glyph glyph-name="onequarter" unicode="&#xbc;" horiz-adv-x="1511" 
d="M367 0h-304v12l576 537l45 -35zM1071 1229h305v-12l-575 -537l-45 35zM580 655h-535v142h207v440q-79 -45 -178 -88l-51 129l278 96h111v-577h168v-142zM1116 145h41v316l-8 2l-275 -332l3 -2q134 16 239 16zM1417 20h-102v-163h-158v163h-428v105l379 448h207v-428h102
v-125z" />
    <glyph glyph-name="onehalf" unicode="&#xbd;" horiz-adv-x="1482" 
d="M348 0h-303v12l576 537l45 -35zM1053 1229h305v-12l-576 -537l-45 35zM580 655h-535v142h207v440q-79 -45 -178 -88l-51 129l278 96h111v-577h168v-142zM1098 463q-149 0 -170 -162l-158 23q18 129 99 198.5t229 69.5q146 0 222.5 -58t76.5 -172q0 -99 -71 -150t-232 -85
q-113 -26 -154.5 -56.5t-46.5 -88.5q118 16 237 16h275v-141h-657v73q0 120 61 185.5t213 103.5q124 30 167.5 60t43.5 81q0 103 -135 103z" />
    <glyph glyph-name="threequarters" unicode="&#xbe;" horiz-adv-x="1544" 
d="M424 0h-303v12l575 537l45 -35zM1128 1229h306v-12l-576 -537l-45 35zM1464 20h-102v-163h-158v163h-428v105l379 448h207v-428h102v-125zM377 639q-301 0 -336 231l156 29q11 -66 53 -98.5t129 -32.5q149 0 149 98q0 50 -31.5 72.5t-113.5 22.5h-111v106h109
q131 0 131 94q0 99 -137 99q-76 0 -113.5 -30.5t-50.5 -92.5l-152 32q23 104 101.5 162t214.5 58q145 0 220 -51t75 -146q0 -70 -43.5 -110.5t-134.5 -55.5v-18q108 -10 154 -48.5t46 -113.5q0 -99 -79 -153t-236 -54zM1163 145h41v316l-8 2l-274 -332l2 -2q134 16 239 16z
" />
    <glyph glyph-name="questiondown" unicode="&#xbf;" horiz-adv-x="1003" 
d="M303 397q105 44 105 144v22h213q2 -12 2 -37q0 -91 -40 -146.5t-141 -105.5q-97 -46 -134.5 -88.5t-37.5 -113.5q0 -170 205 -170q129 0 194 73.5t85 217.5l217 -31q-58 -451 -498 -451q-211 0 -322.5 88t-111.5 256q0 73 19.5 129t58 96t82 66.5t104.5 50.5zM643 713
h-256v250h256v-250z" />
    <glyph glyph-name="Agrave" unicode="&#xc0;" horiz-adv-x="1208" 
d="M969 0l-107 313h-524l-107 -313h-241l456 1229h316l457 -1229h-250zM768 1341l-541 140l54 168l522 -191zM451 639l-52 -152h402l-51 152q-52 152 -123 387h-52q-64 -211 -124 -387z" />
    <glyph glyph-name="Aacute" unicode="&#xc1;" horiz-adv-x="1208" 
d="M969 0l-107 313h-524l-107 -313h-241l456 1229h316l457 -1229h-250zM424 1341l-35 117l522 193l54 -172zM451 639l-52 -152h402l-51 152q-52 152 -123 387h-52q-64 -211 -124 -387z" />
    <glyph glyph-name="Acircumflex" unicode="&#xc2;" horiz-adv-x="1208" 
d="M969 0l-107 313h-524l-107 -313h-241l456 1229h316l457 -1229h-250zM844 1317l-240 166l-244 -166l-69 84l274 248h78l272 -248zM451 639l-52 -152h402l-51 152q-52 152 -123 387h-52q-64 -211 -124 -387z" />
    <glyph glyph-name="Atilde" unicode="&#xc3;" horiz-adv-x="1208" 
d="M969 0l-107 313h-524l-107 -313h-241l456 1229h316l457 -1229h-250zM459 1677q44 0 81 -19.5t61 -47.5t44.5 -56t43 -47.5t46.5 -19.5q44 0 60 42.5t14 137.5h102q7 -58 7 -92q0 -120 -44.5 -181t-123.5 -61q-40 0 -74 19.5t-57.5 47.5t-45 55.5t-46.5 47t-52 19.5
q-45 0 -61.5 -39.5t-14.5 -136.5h-102q-6 52 -6 92q0 118 45 178.5t123 60.5zM451 639l-52 -152h402l-51 152q-52 152 -123 387h-52q-64 -211 -124 -387z" />
    <glyph glyph-name="Adieresis" unicode="&#xc4;" horiz-adv-x="1208" 
d="M969 0l-107 313h-524l-107 -313h-241l456 1229h316l457 -1229h-250zM311 1563h217v-211h-217v211zM670 1563h217v-211h-217v211zM451 639l-52 -152h402l-51 152q-52 152 -123 387h-52q-64 -211 -124 -387z" />
    <glyph glyph-name="Aring" unicode="&#xc5;" horiz-adv-x="1208" 
d="M969 0l-107 313h-524l-107 -313h-241l456 1229h316l457 -1229h-250zM498 1534q0 -47 28.5 -74.5t77.5 -27.5q48 0 76.5 27.5t28.5 76.5t-28.5 76.5t-76.5 27.5q-50 0 -78 -27.5t-28 -78.5zM827 1536q0 -97 -60.5 -156t-162.5 -59q-103 0 -163 58.5t-60 154.5
q0 99 59.5 157t163.5 58q102 0 162.5 -58t60.5 -155zM451 639l-52 -152h402l-51 152q-52 152 -123 387h-52q-64 -211 -124 -387z" />
    <glyph glyph-name="AE" unicode="&#xc6;" horiz-adv-x="1765" 
d="M547 639l-88 -184h325v581h-61q-66 -165 -176 -397zM784 0v279h-409l-133 -279h-242v12l614 1217h1057v-203h-653v-303h592v-201h-592v-319h651v-203h-885z" />
    <glyph glyph-name="Ccedilla" unicode="&#xc7;" horiz-adv-x="1275" 
d="M651 -27h-10l-29 -71q40 12 78 12q150 0 150 -119q0 -53 -45.5 -96t-143.5 -43q-125 0 -207 57l52 80q71 -47 155 -47q43 0 63.5 15.5t20.5 39.5q0 54 -80 54q-39 0 -82 -13l-63 27l41 111q-235 31 -363.5 198t-128.5 438q0 297 160.5 468t437.5 171q236 0 378 -123
t175 -346l-223 -43q-28 153 -109.5 230.5t-224.5 77.5q-180 0 -270 -118t-90 -317q0 -209 88.5 -324.5t269.5 -115.5q150 0 230 78t112 238l221 -41q-31 -226 -176.5 -352t-386.5 -126z" />
    <glyph glyph-name="Egrave" unicode="&#xc8;" horiz-adv-x="1103" 
d="M123 0v1229h887v-203h-654v-303h592v-201h-592v-319h652v-203h-885zM735 1341l-540 140l53 168l522 -191z" />
    <glyph glyph-name="Eacute" unicode="&#xc9;" horiz-adv-x="1103" 
d="M123 0v1229h887v-203h-654v-303h592v-201h-592v-319h652v-203h-885zM391 1341l-35 117l523 193l53 -172z" />
    <glyph glyph-name="Ecircumflex" unicode="&#xca;" horiz-adv-x="1103" 
d="M123 0v1229h887v-203h-654v-303h592v-201h-592v-319h652v-203h-885zM811 1317l-240 166l-243 -166l-70 84l274 248h78l273 -248z" />
    <glyph glyph-name="Edieresis" unicode="&#xcb;" horiz-adv-x="1103" 
d="M123 0v1229h887v-203h-654v-303h592v-201h-592v-319h652v-203h-885zM279 1563h217v-211h-217v211zM637 1563h217v-211h-217v211z" />
    <glyph glyph-name="Igrave" unicode="&#xcc;" horiz-adv-x="481" 
d="M356 0h-233v1229h233v-1229zM406 1341l-541 140l53 168l522 -191z" />
    <glyph glyph-name="Iacute" unicode="&#xcd;" horiz-adv-x="481" 
d="M356 0h-233v1229h233v-1229zM59 1341l-34 117l522 193l53 -172z" />
    <glyph glyph-name="Icircumflex" unicode="&#xce;" horiz-adv-x="481" 
d="M356 0h-233v1229h233v-1229zM481 1317l-239 166l-244 -166l-70 84l275 248h78l272 -248z" />
    <glyph glyph-name="Idieresis" unicode="&#xcf;" horiz-adv-x="481" 
d="M356 0h-233v1229h233v-1229zM-49 1563h217v-211h-217v211zM309 1563h217v-211h-217v211z" />
    <glyph glyph-name="Eth" unicode="&#xd0;" horiz-adv-x="1359" 
d="M731 541h-313v-348h248q211 0 307 109t96 323q0 217 -97.5 313t-318.5 96h-235v-348h313v-145zM184 0v541h-139v145h139v543h500q619 0 619 -604q0 -292 -165 -458.5t-454 -166.5h-500z" />
    <glyph glyph-name="Ntilde" unicode="&#xd1;" horiz-adv-x="1318" 
d="M887 0l-316 559q-93 171 -215 465l-37 -4q23 -341 23 -598v-422h-219v1229h334l270 -481q130 -231 238 -508l36 2q-22 319 -22 561v426h215v-1229h-307zM514 1677q44 0 81 -19.5t61 -47.5t45 -56t43.5 -47.5t46.5 -19.5q44 0 59.5 42t13.5 138h103q6 -50 6 -92
q0 -120 -44.5 -181t-123.5 -61q-40 0 -74 19.5t-57.5 47.5t-45 55.5t-46.5 47t-52 19.5q-45 0 -61 -39t-14 -137h-103q-6 52 -6 92q0 118 45 178.5t123 60.5z" />
    <glyph glyph-name="Ograve" unicode="&#xd2;" horiz-adv-x="1345" 
d="M674 -27q-292 0 -453.5 174.5t-161.5 470.5q0 292 164 464.5t451 172.5q288 0 451 -172t163 -465q0 -296 -161.5 -470.5t-452.5 -174.5zM672 176q193 0 288 117t95 325q0 201 -95.5 317t-285.5 116q-192 0 -287.5 -116t-95.5 -317q0 -207 94.5 -324.5t286.5 -117.5z
M838 1341l-541 140l53 168l522 -191z" />
    <glyph glyph-name="Oacute" unicode="&#xd3;" horiz-adv-x="1345" 
d="M674 -27q-292 0 -453.5 174.5t-161.5 470.5q0 292 164 464.5t451 172.5q288 0 451 -172t163 -465q0 -296 -161.5 -470.5t-452.5 -174.5zM672 176q193 0 288 117t95 325q0 201 -95.5 317t-285.5 116q-192 0 -287.5 -116t-95.5 -317q0 -207 94.5 -324.5t286.5 -117.5z
M494 1341l-35 117l522 193l53 -172z" />
    <glyph glyph-name="Ocircumflex" unicode="&#xd4;" horiz-adv-x="1345" 
d="M672 176q193 0 288 117t95 325q0 201 -95.5 317t-285.5 116q-192 0 -287.5 -116t-95.5 -317q0 -207 94.5 -324.5t286.5 -117.5zM674 -27q-292 0 -453.5 174.5t-161.5 470.5q0 292 164 464.5t451 172.5q288 0 451 -172t163 -465q0 -296 -161.5 -470.5t-452.5 -174.5z
M913 1317l-239 166l-244 -166l-70 84l275 248h78l272 -248z" />
    <glyph glyph-name="Otilde" unicode="&#xd5;" horiz-adv-x="1345" 
d="M674 -27q-292 0 -453.5 174.5t-161.5 470.5q0 292 164 464.5t451 172.5q288 0 451 -172t163 -465q0 -296 -161.5 -470.5t-452.5 -174.5zM672 176q193 0 288 117t95 325q0 201 -95.5 317t-285.5 116q-192 0 -287.5 -116t-95.5 -317q0 -207 94.5 -324.5t286.5 -117.5z
M528 1677q44 0 81 -19.5t61 -47.5t45 -56t43.5 -47.5t46.5 -19.5q44 0 60 42.5t14 137.5h102q6 -50 6 -92q0 -120 -44.5 -181t-123.5 -61q-40 0 -74 19.5t-57.5 47.5t-45 55.5t-46 47t-51.5 19.5q-45 0 -61.5 -39.5t-14.5 -136.5h-102q-7 61 -7 92q0 118 45 178.5t123 60.5z
" />
    <glyph glyph-name="Odieresis" unicode="&#xd6;" horiz-adv-x="1345" 
d="M674 -27q-292 0 -453.5 174.5t-161.5 470.5q0 292 164 464.5t451 172.5q288 0 451 -172t163 -465q0 -296 -161.5 -470.5t-452.5 -174.5zM672 176q193 0 288 117t95 325q0 201 -95.5 317t-285.5 116q-192 0 -287.5 -116t-95.5 -317q0 -207 94.5 -324.5t286.5 -117.5z
M381 1563h217v-211h-217v211zM739 1563h217v-211h-217v211z" />
    <glyph glyph-name="multiply" unicode="&#xd7;" horiz-adv-x="1028" 
d="M791 197q-45 49 -134 146.5t-145 158.5q-211 -234 -276 -305l-158 155q137 123 309 273q-252 220 -309 272l158 156q50 -54 142.5 -156.5t135.5 -148.5q220 244 277 305l157 -156q-57 -52 -309 -272q172 -150 309 -273z" />
    <glyph glyph-name="Oslash" unicode="&#xd8;" horiz-adv-x="1343" 
d="M674 -27q-236 0 -393 119l-84 -92h-179v10l170 176q-129 170 -129 432q0 292 164 464.5t451 172.5q243 0 401 -127l90 101h172v-12l-172 -183q123 -163 123 -416q0 -296 -161.5 -470.5t-452.5 -174.5zM283 618q0 -165 57 -270l590 625q-97 84 -256 84q-131 0 -220.5 -59
t-130 -155.5t-40.5 -224.5zM672 170q197 0 295 119.5t98 328.5q0 148 -55 252l-588 -624q95 -76 250 -76z" />
    <glyph glyph-name="Ugrave" unicode="&#xd9;" horiz-adv-x="1290" 
d="M653 182q155 0 219 77t64 226v744h231v-760q0 -240 -132 -367t-382 -127q-255 0 -392.5 127t-137.5 367v760h233v-737q0 -149 68 -229.5t229 -80.5zM811 1341l-541 140l54 168l522 -191z" />
    <glyph glyph-name="Uacute" unicode="&#xda;" horiz-adv-x="1290" 
d="M653 182q155 0 219 77t64 226v744h231v-760q0 -240 -132 -367t-382 -127q-255 0 -392.5 127t-137.5 367v760h233v-737q0 -149 68 -229.5t229 -80.5zM467 1341l-35 117l522 193l54 -172z" />
    <glyph glyph-name="Ucircumflex" unicode="&#xdb;" horiz-adv-x="1290" 
d="M653 182q155 0 219 77t64 226v744h231v-760q0 -240 -132 -367t-382 -127q-255 0 -392.5 127t-137.5 367v760h233v-737q0 -149 68 -229.5t229 -80.5zM887 1317l-240 166l-244 -166l-69 84l274 248h78l272 -248z" />
    <glyph glyph-name="Udieresis" unicode="&#xdc;" horiz-adv-x="1290" 
d="M653 182q155 0 219 77t64 226v744h231v-760q0 -240 -132 -367t-382 -127q-255 0 -392.5 127t-137.5 367v760h233v-737q0 -149 68 -229.5t229 -80.5zM354 1563h217v-211h-217v211zM713 1563h217v-211h-217v211z" />
    <glyph glyph-name="Yacute" unicode="&#xdd;" horiz-adv-x="1105" 
d="M670 0h-234v408l-454 798v23h254l301 -627h34l306 627h247v-23l-454 -803v-403zM373 1341l-35 117l522 193l53 -172z" />
    <glyph glyph-name="Thorn" unicode="&#xde;" horiz-adv-x="1120" 
d="M123 1229h233v-185h279q455 0 455 -413q0 -192 -116.5 -303t-334.5 -111h-283v-217h-233v1229zM614 846h-258v-430h260q128 0 186 52t58 163q0 113 -56 164t-190 51z" />
    <glyph glyph-name="germandbls" unicode="&#xdf;" horiz-adv-x="1159" 
d="M696 -20q-93 0 -160.5 25.5t-123.5 80.5l67 188q74 -92 207 -92q97 0 144 51.5t47 145.5q0 99 -60 152t-209 53h-129v184h86q92 0 148.5 51.5t56.5 147.5q0 84 -49 136t-152 52q-122 0 -174.5 -65t-52.5 -183v-907h-221v913q0 203 116 312.5t334 109.5q203 0 308.5 -91.5
t105.5 -233.5q0 -131 -66 -204.5t-198 -100.5v-29q140 -12 222.5 -53.5t115.5 -107.5t33 -169q0 -167 -98 -266.5t-298 -99.5z" />
    <glyph glyph-name="agrave" unicode="&#xe0;" horiz-adv-x="1017" 
d="M436 152q114 0 185 59t71 151v39h-250q-84 0 -129 -30.5t-45 -89.5q0 -58 40 -93.5t128 -35.5zM702 0v229h-22q-37 -119 -121 -184t-209 -65q-135 0 -214 67t-79 203t86.5 216.5t262.5 80.5h286v65q0 97 -44 147t-142 50q-165 0 -203 -170l-209 47q29 141 134.5 220
t285.5 79q205 0 301 -93.5t96 -277.5v-614h-209zM674 1061l-508 225l86 160l477 -277z" />
    <glyph glyph-name="aacute" unicode="&#xe1;" horiz-adv-x="1017" 
d="M436 152q114 0 185 59t71 151v39h-250q-84 0 -129 -30.5t-45 -89.5q0 -58 40 -93.5t128 -35.5zM702 0v229h-22q-37 -119 -121 -184t-209 -65q-135 0 -214 67t-79 203t86.5 216.5t262.5 80.5h286v65q0 97 -44 147t-142 50q-165 0 -203 -170l-209 47q29 141 134.5 220
t285.5 79q205 0 301 -93.5t96 -277.5v-614h-209zM362 1061l-55 108l479 277l82 -158z" />
    <glyph glyph-name="acircumflex" unicode="&#xe2;" horiz-adv-x="1017" 
d="M436 152q114 0 185 59t71 151v39h-250q-84 0 -129 -30.5t-45 -89.5q0 -58 40 -93.5t128 -35.5zM702 0v229h-22q-37 -119 -121 -184t-209 -65q-135 0 -214 67t-79 203t86.5 216.5t262.5 80.5h286v65q0 97 -44 147t-142 50q-165 0 -203 -170l-209 47q29 141 134.5 220
t285.5 79q205 0 301 -93.5t96 -277.5v-614h-209zM739 1061l-233 199l-236 -199l-77 82l274 291h78l272 -291z" />
    <glyph glyph-name="atilde" unicode="&#xe3;" horiz-adv-x="1017" 
d="M436 152q114 0 185 59t71 151v39h-250q-84 0 -129 -30.5t-45 -89.5q0 -58 40 -93.5t128 -35.5zM702 0v229h-22q-37 -119 -121 -184t-209 -65q-135 0 -214 67t-79 203t86.5 216.5t262.5 80.5h286v65q0 97 -44 147t-142 50q-165 0 -203 -170l-209 47q29 141 134.5 220
t285.5 79q205 0 301 -93.5t96 -277.5v-614h-209zM360 1436q44 0 81 -19.5t61 -48t45 -56.5t43.5 -47.5t46.5 -19.5q44 0 60 42.5t14 137.5h102q6 -49 6 -92q0 -120 -44.5 -180.5t-123.5 -60.5q-40 0 -74 19.5t-57.5 47t-45 55t-46 47t-51.5 19.5q-45 0 -61.5 -39.5
t-14.5 -136.5h-102q-6 52 -6 92q0 118 45 179t122 61z" />
    <glyph glyph-name="adieresis" unicode="&#xe4;" horiz-adv-x="1017" 
d="M436 152q114 0 185 59t71 151v39h-250q-84 0 -129 -30.5t-45 -89.5q0 -58 40 -93.5t128 -35.5zM702 0v229h-22q-37 -119 -121 -184t-209 -65q-135 0 -214 67t-79 203t86.5 216.5t262.5 80.5h286v65q0 97 -44 147t-142 50q-165 0 -203 -170l-209 47q29 141 134.5 220
t285.5 79q205 0 301 -93.5t96 -277.5v-614h-209zM217 1346h217v-211h-217v211zM575 1346h218v-211h-218v211z" />
    <glyph glyph-name="aring" unicode="&#xe5;" horiz-adv-x="1017" 
d="M436 152q114 0 185 59t71 151v39h-250q-84 0 -129 -30.5t-45 -89.5q0 -58 40 -93.5t128 -35.5zM702 0v229h-22q-37 -119 -121 -184t-209 -65q-135 0 -214 67t-79 203t86.5 216.5t262.5 80.5h286v65q0 97 -44 147t-142 50q-165 0 -203 -170l-209 47q29 141 134.5 220
t285.5 79q205 0 301 -93.5t96 -277.5v-614h-209zM389 1303q0 -55 31.5 -86t85.5 -31q53 0 84 31.5t31 87.5q0 55 -31 85.5t-84 30.5q-55 0 -86 -31t-31 -87zM737 1305q0 -105 -62 -167.5t-169 -62.5q-108 0 -171 62t-63 166q0 105 63 167t171 62q107 0 169 -62t62 -165z" />
    <glyph glyph-name="ae" unicode="&#xe6;" horiz-adv-x="1671" 
d="M436 152q115 0 184.5 59t69.5 151v66h-244q-85 0 -131.5 -37.5t-46.5 -105.5q0 -60 40 -96.5t128 -36.5zM1169 817q-240 0 -260 -276h496q0 276 -236 276zM1599 279q-18 -71 -48 -124.5t-78.5 -95.5t-122.5 -64t-172 -22q-158 0 -273.5 69t-161.5 202
q-41 -130 -142 -198.5t-243 -68.5q-137 0 -219 68.5t-82 204.5q0 127 87 202.5t262 75.5h284v84q0 97 -43 146t-141 49q-166 0 -203 -168l-209 49q29 138 130.5 218.5t262.5 80.5q263 0 336 -190q106 190 353 190q213 0 323.5 -118.5t110.5 -325.5q0 -45 -6 -107h-695
q18 -280 267 -280q108 0 159 45.5t76 130.5z" />
    <glyph glyph-name="ccedilla" unicode="&#xe7;" horiz-adv-x="1060" 
d="M778 588q-24 101 -77 153t-160 52q-121 0 -188.5 -78.5t-67.5 -233.5q0 -148 67.5 -230.5t194.5 -82.5q108 0 160 56t77 157l203 -49q-63 -359 -438 -359h-25l-28 -71q40 12 77 12q150 0 150 -119q0 -53 -45 -96t-143 -43q-125 0 -207 57l51 80q71 -47 156 -47
q43 0 63 15.5t20 39.5q0 54 -79 54q-39 0 -82 -13l-64 27l41 115q-179 30 -277 155t-98 334q0 241 131.5 377.5t354.5 136.5q201 0 305.5 -91t134.5 -269z" />
    <glyph glyph-name="egrave" unicode="&#xe8;" horiz-adv-x="1040" 
d="M539 817q-229 0 -258 -252h493q-6 126 -63.5 189t-171.5 63zM545 -25q-225 0 -355.5 128t-130.5 366q0 244 129.5 381t356.5 137q213 0 322.5 -118t109.5 -322q0 -80 -4 -129h-694q24 -262 268 -262q107 0 158.5 43.5t74.5 122.5l189 -54q-76 -293 -424 -293zM696 1061
l-508 225l86 160l478 -277z" />
    <glyph glyph-name="eacute" unicode="&#xe9;" horiz-adv-x="1040" 
d="M539 817q-229 0 -258 -252h493q-6 126 -63.5 189t-171.5 63zM545 -25q-225 0 -355.5 128t-130.5 366q0 244 129.5 381t356.5 137q213 0 322.5 -118t109.5 -322q0 -80 -4 -129h-694q24 -262 268 -262q107 0 158.5 43.5t74.5 122.5l189 -54q-76 -293 -424 -293zM385 1061
l-55 108l479 277l82 -158z" />
    <glyph glyph-name="ecircumflex" unicode="&#xea;" horiz-adv-x="1040" 
d="M539 817q-229 0 -258 -252h493q-6 126 -63.5 189t-171.5 63zM545 -25q-225 0 -355.5 128t-130.5 366q0 244 129.5 381t356.5 137q213 0 322.5 -118t109.5 -322q0 -80 -4 -129h-694q24 -262 268 -262q107 0 158.5 43.5t74.5 122.5l189 -54q-76 -293 -424 -293zM764 1061
l-234 199l-235 -199l-78 82l275 291h77l273 -291z" />
    <glyph glyph-name="edieresis" unicode="&#xeb;" horiz-adv-x="1040" 
d="M539 817q-229 0 -258 -252h493q-6 126 -63.5 189t-171.5 63zM545 -25q-225 0 -355.5 128t-130.5 366q0 244 129.5 381t356.5 137q213 0 322.5 -118t109.5 -322q0 -80 -4 -129h-694q24 -262 268 -262q107 0 158.5 43.5t74.5 122.5l189 -54q-76 -293 -424 -293zM242 1346
h217v-211h-217v211zM600 1346h217v-211h-217v211z" />
    <glyph glyph-name="igrave" unicode="&#xec;" horiz-adv-x="516" 
d="M369 0h-222v963h222v-963zM426 1061l-508 225l86 160l477 -277z" />
    <glyph glyph-name="iacute" unicode="&#xed;" horiz-adv-x="516" 
d="M369 0h-222v963h222v-963zM109 1061l-56 108l479 277l82 -158z" />
    <glyph glyph-name="icircumflex" unicode="&#xee;" horiz-adv-x="516" 
d="M369 0h-222v963h222v-963zM494 1061l-234 199l-235 -199l-78 82l274 291h78l272 -291z" />
    <glyph glyph-name="idieresis" unicode="&#xef;" horiz-adv-x="516" 
d="M369 0h-222v963h222v-963zM-31 1346h217v-211h-217v211zM328 1346h217v-211h-217v211z" />
    <glyph glyph-name="eth" unicode="&#xf0;" horiz-adv-x="1077" 
d="M537 -27q-224 0 -351 126.5t-127 361.5q0 223 111 342t291 119q112 0 193 -66.5t128 -179.5l21 6q-57 225 -256 408l-266 -105l-45 117l198 78q-61 42 -151 92l69 117q149 -62 262 -142l232 90l41 -116l-160 -62q291 -263 291 -643q0 -258 -127 -400.5t-354 -142.5z
M801 471q0 137 -70 215t-201 78q-121 0 -186 -79t-65 -216q0 -146 65.5 -225.5t196.5 -79.5q124 0 192 83t68 224z" />
    <glyph glyph-name="ntilde" unicode="&#xf1;" horiz-adv-x="1087" 
d="M334 545v-545h-219v963h215v-254h18q40 133 128 205.5t210 72.5q147 0 222 -91.5t75 -252.5v-643h-219v586q0 93 -44.5 147.5t-139.5 54.5q-110 0 -178 -67t-68 -176zM403 1436q44 0 81 -19.5t61 -48t45 -56.5t43.5 -47.5t46.5 -19.5q44 0 60 42.5t14 137.5h102
q6 -49 6 -92q0 -120 -44.5 -180.5t-123.5 -60.5q-40 0 -74 19.5t-57.5 47t-45 55t-46 47t-51.5 19.5q-45 0 -61.5 -39.5t-14.5 -136.5h-102q-6 52 -6 92q0 118 45 179t122 61z" />
    <glyph glyph-name="ograve" unicode="&#xf2;" 
d="M549 -27q-231 0 -360.5 136.5t-129.5 373.5q0 236 132 370t358 134q223 0 354 -134t131 -370q0 -237 -128.5 -373.5t-356.5 -136.5zM547 801q-132 0 -199 -82t-67 -234q0 -154 65.5 -237.5t200.5 -83.5q134 0 201 84t67 237q0 151 -68 233.5t-200 82.5zM709 1061
l-508 225l86 160l477 -277z" />
    <glyph glyph-name="oacute" unicode="&#xf3;" 
d="M549 -27q-231 0 -360.5 136.5t-129.5 373.5q0 236 132 370t358 134q223 0 354 -134t131 -370q0 -237 -128.5 -373.5t-356.5 -136.5zM547 801q-132 0 -199 -82t-67 -234q0 -154 65.5 -237.5t200.5 -83.5q134 0 201 84t67 237q0 151 -68 233.5t-200 82.5zM397 1061l-55 108
l479 277l82 -158z" />
    <glyph glyph-name="ocircumflex" unicode="&#xf4;" 
d="M547 801q-132 0 -199 -82t-67 -234q0 -154 65.5 -237.5t200.5 -83.5q134 0 201 84t67 237q0 151 -68 233.5t-200 82.5zM549 -27q-231 0 -360.5 136.5t-129.5 373.5q0 236 132 370t358 134q223 0 354 -134t131 -370q0 -237 -128.5 -373.5t-356.5 -136.5zM776 1061
l-233 199l-236 -199l-78 82l275 291h78l272 -291z" />
    <glyph glyph-name="otilde" unicode="&#xf5;" 
d="M549 -27q-231 0 -360.5 136.5t-129.5 373.5q0 236 132 370t358 134q223 0 354 -134t131 -370q0 -237 -128.5 -373.5t-356.5 -136.5zM547 801q-132 0 -199 -82t-67 -234q0 -154 65.5 -237.5t200.5 -83.5q134 0 201 84t67 237q0 151 -68 233.5t-200 82.5zM397 1436
q44 0 81 -19.5t61 -48t45 -56.5t43.5 -47.5t46.5 -19.5q44 0 60 42.5t14 137.5h102q6 -49 6 -92q0 -120 -44.5 -180.5t-123.5 -60.5q-40 0 -74 19.5t-57.5 47t-45 55t-46 47t-51.5 19.5q-45 0 -61.5 -39.5t-14.5 -136.5h-102q-7 61 -7 92q0 118 45 179t123 61z" />
    <glyph glyph-name="odieresis" unicode="&#xf6;" 
d="M549 -27q-231 0 -360.5 136.5t-129.5 373.5q0 236 132 370t358 134q223 0 354 -134t131 -370q0 -237 -128.5 -373.5t-356.5 -136.5zM547 801q-132 0 -199 -82t-67 -234q0 -154 65.5 -237.5t200.5 -83.5q134 0 201 84t67 237q0 151 -68 233.5t-200 82.5zM254 1346h217
v-211h-217v211zM612 1346h217v-211h-217v211z" />
    <glyph glyph-name="divide" unicode="&#xf7;" horiz-adv-x="1005" 
d="M938 530h-872v197h872v-197zM408 1075h200v-198h-200v198zM408 391h200v-198h-200v198z" />
    <glyph glyph-name="oslash" unicode="&#xf8;" 
d="M549 -27q-189 0 -318 99l-59 -72h-166v12l144 148q-91 134 -91 323q0 236 132 370t358 134q189 0 313 -98l62 74h157v-13l-139 -145q92 -128 92 -322q0 -236 -130.5 -373t-354.5 -137zM547 813q-143 0 -215 -85t-72 -243q0 -105 31 -184l442 455q-72 57 -186 57zM547 150
q144 0 215.5 87t71.5 248q0 101 -31 174l-441 -452q69 -57 185 -57z" />
    <glyph glyph-name="ugrave" unicode="&#xf9;" horiz-adv-x="1091" 
d="M762 0v254h-21q-40 -134 -127.5 -207.5t-207.5 -73.5q-148 0 -224 92.5t-76 253.5v644h222v-586q0 -93 44 -148t138 -55q112 0 179 67.5t67 176.5v545h221v-963h-215zM711 1061l-508 225l86 160l477 -277z" />
    <glyph glyph-name="uacute" unicode="&#xfa;" horiz-adv-x="1091" 
d="M762 0v254h-21q-40 -134 -127.5 -207.5t-207.5 -73.5q-148 0 -224 92.5t-76 253.5v644h222v-586q0 -93 44 -148t138 -55q112 0 179 67.5t67 176.5v545h221v-963h-215zM399 1061l-55 108l479 277l82 -158z" />
    <glyph glyph-name="ucircumflex" unicode="&#xfb;" horiz-adv-x="1091" 
d="M762 0v254h-21q-40 -134 -127.5 -207.5t-207.5 -73.5q-148 0 -224 92.5t-76 253.5v644h222v-586q0 -93 44 -148t138 -55q112 0 179 67.5t67 176.5v545h221v-963h-215zM776 1061l-233 199l-236 -199l-78 82l275 291h78l272 -291z" />
    <glyph glyph-name="udieresis" unicode="&#xfc;" horiz-adv-x="1091" 
d="M762 0v254h-21q-40 -134 -127.5 -207.5t-207.5 -73.5q-148 0 -224 92.5t-76 253.5v644h222v-586q0 -93 44 -148t138 -55q112 0 179 67.5t67 176.5v545h221v-963h-215zM254 1346h217v-211h-217v211zM612 1346h217v-211h-217v211z" />
    <glyph glyph-name="yacute" unicode="&#xfd;" horiz-adv-x="980" 
d="M160 -358q-62 0 -152 12l35 199q77 -15 123 -15q86 0 135 34t94 138l-387 953h242l112 -349q123 -381 134 -419h32q60 199 127 415l105 353h235l-397 -975q-75 -184 -175 -265t-263 -81zM352 1061l-55 108l479 277l82 -158z" />
    <glyph glyph-name="thorn" unicode="&#xfe;" 
d="M580 168q121 0 179 77.5t58 233.5q0 158 -57 233.5t-178 75.5q-114 0 -181 -74t-67 -200v-74q0 -122 68 -197t178 -75zM334 1315v-602h14q40 130 123 202t209 72q171 0 262.5 -131t91.5 -377q0 -243 -92.5 -374.5t-257.5 -131.5q-128 0 -213.5 76t-122.5 207h-14v-567
h-219v1626h219z" />
    <glyph glyph-name="ydieresis" unicode="&#xff;" horiz-adv-x="980" 
d="M160 -358q-62 0 -152 12l35 199q77 -15 123 -15q86 0 135 34t94 138l-387 953h242l112 -349q123 -381 134 -419h32q60 199 127 415l105 353h235l-397 -975q-75 -184 -175 -265t-263 -81zM207 1346h217v-211h-217v211zM565 1346h217v-211h-217v211z" />
    <glyph glyph-name="Amacron" unicode="&#x100;" horiz-adv-x="1208" 
d="M969 0l-107 313h-524l-107 -313h-241l456 1229h316l457 -1229h-250zM324 1524h561v-156h-561v156zM451 639l-52 -152h402l-51 152q-52 152 -123 387h-52q-64 -211 -124 -387z" />
    <glyph glyph-name="amacron" unicode="&#x101;" horiz-adv-x="1017" 
d="M436 152q114 0 185 59t71 151v39h-250q-84 0 -129 -30.5t-45 -89.5q0 -58 40 -93.5t128 -35.5zM702 0v229h-22q-37 -119 -121 -184t-209 -65q-135 0 -214 67t-79 203t86.5 216.5t262.5 80.5h286v65q0 97 -44 147t-142 50q-165 0 -203 -170l-209 47q29 141 134.5 220
t285.5 79q205 0 301 -93.5t96 -277.5v-614h-209zM227 1294h557v-155h-557v155z" />
    <glyph glyph-name="Abreve" unicode="&#x102;" horiz-adv-x="1208" 
d="M969 0l-107 313h-524l-107 -313h-241l456 1229h316l457 -1229h-250zM604 1485q77 0 124.5 34.5t55.5 120.5h109q0 -303 -289 -303q-291 0 -291 303h111q8 -86 55.5 -120.5t124.5 -34.5zM451 639l-52 -152h402l-51 152q-52 152 -123 387h-52q-64 -211 -124 -387z" />
    <glyph glyph-name="abreve" unicode="&#x103;" horiz-adv-x="1017" 
d="M436 152q114 0 185 59t71 151v39h-250q-84 0 -129 -30.5t-45 -89.5q0 -58 40 -93.5t128 -35.5zM702 0v229h-22q-37 -119 -121 -184t-209 -65q-135 0 -214 67t-79 203t86.5 216.5t262.5 80.5h286v65q0 97 -44 147t-142 50q-165 0 -203 -170l-209 47q29 141 134.5 220
t285.5 79q205 0 301 -93.5t96 -277.5v-614h-209zM506 1235q165 0 180 182h109q0 -327 -289 -327q-291 0 -291 327h111q15 -182 180 -182z" />
    <glyph glyph-name="Aogonek" unicode="&#x104;" horiz-adv-x="1206" 
d="M1221 -328q-75 -10 -127 -10q-232 0 -232 152q0 66 54 113t149 73h-96l-107 313h-524l-107 -313h-241l456 1229h316l457 -1229q-118 -22 -172 -51.5t-54 -73.5q0 -68 115 -68q32 0 109 15zM451 639l-52 -152h402l-51 152q-52 152 -123 387h-52q-64 -211 -124 -387z" />
    <glyph glyph-name="aogonek" unicode="&#x105;" horiz-adv-x="1048" 
d="M436 152q114 0 185 59t71 151v39h-250q-84 0 -129 -30.5t-45 -89.5q0 -58 40 -93.5t128 -35.5zM899 -328q-75 -10 -127 -10q-231 0 -231 152q0 67 53.5 113.5t148.5 72.5h-41v229h-22q-37 -119 -121 -184t-209 -65q-135 0 -214 67t-79 203t86.5 216.5t262.5 80.5h286v65
q0 97 -44 147t-142 50q-165 0 -203 -170l-209 47q29 141 134.5 220t285.5 79q205 0 301 -93.5t96 -277.5v-614h-14q-118 -22 -171.5 -51.5t-53.5 -73.5q0 -68 114 -68q32 0 109 15z" />
    <glyph glyph-name="Cacute" unicode="&#x106;" horiz-adv-x="1275" 
d="M651 -27q-281 0 -436.5 171.5t-155.5 471.5q0 297 160.5 468t437.5 171q236 0 378 -123t175 -346l-223 -43q-28 153 -109.5 230.5t-224.5 77.5q-180 0 -270 -118t-90 -317q0 -209 88.5 -324.5t269.5 -115.5q150 0 230 78t112 238l221 -41q-31 -226 -176.5 -352
t-386.5 -126zM469 1341l-35 117l522 193l54 -172z" />
    <glyph glyph-name="cacute" unicode="&#x107;" horiz-adv-x="1050" 
d="M778 588q-24 101 -77 153t-160 52q-121 0 -188.5 -78.5t-67.5 -233.5q0 -148 67.5 -230.5t194.5 -82.5q108 0 160 56t77 157l203 -49q-63 -359 -438 -359q-230 0 -360 130t-130 370q0 241 131.5 377.5t354.5 136.5q201 0 305.5 -91t134.5 -269zM406 1061l-56 108l479 277
l82 -158z" />
    <glyph glyph-name="Ccircumflex" unicode="&#x108;" horiz-adv-x="1275" 
d="M651 -27q-281 0 -436.5 171.5t-155.5 471.5q0 297 160.5 468t437.5 171q236 0 378 -123t175 -346l-223 -43q-28 153 -109.5 230.5t-224.5 77.5q-180 0 -270 -118t-90 -317q0 -209 88.5 -324.5t269.5 -115.5q150 0 230 78t112 238l221 -41q-31 -226 -176.5 -352
t-386.5 -126zM889 1317l-240 166l-243 -166l-70 84l274 248h78l273 -248z" />
    <glyph glyph-name="ccircumflex" unicode="&#x109;" horiz-adv-x="1050" 
d="M778 588q-24 101 -77 153t-160 52q-121 0 -188.5 -78.5t-67.5 -233.5q0 -148 67.5 -230.5t194.5 -82.5q108 0 160 56t77 157l203 -49q-63 -359 -438 -359q-230 0 -360 130t-130 370q0 241 131.5 377.5t354.5 136.5q201 0 305.5 -91t134.5 -269zM774 1061l-233 199
l-236 -199l-78 82l275 291h78l272 -291z" />
    <glyph glyph-name="Cdotaccent" unicode="&#x10a;" horiz-adv-x="1275" 
d="M651 -27q-281 0 -436.5 171.5t-155.5 471.5q0 297 160.5 468t437.5 171q236 0 378 -123t175 -346l-223 -43q-28 153 -109.5 230.5t-224.5 77.5q-180 0 -270 -118t-90 -317q0 -209 88.5 -324.5t269.5 -115.5q150 0 230 78t112 238l221 -41q-31 -226 -176.5 -352
t-386.5 -126zM532 1593h232v-221h-232v221z" />
    <glyph glyph-name="cdotaccent" unicode="&#x10b;" horiz-adv-x="1050" 
d="M778 588q-24 101 -77 153t-160 52q-121 0 -188.5 -78.5t-67.5 -233.5q0 -148 67.5 -230.5t194.5 -82.5q108 0 160 56t77 157l203 -49q-63 -359 -438 -359q-230 0 -360 130t-130 370q0 241 131.5 377.5t354.5 136.5q201 0 305.5 -91t134.5 -269zM426 1364h231v-221h-231
v221z" />
    <glyph glyph-name="Ccaron" unicode="&#x10c;" horiz-adv-x="1275" 
d="M651 -27q-281 0 -436.5 171.5t-155.5 471.5q0 297 160.5 468t437.5 171q236 0 378 -123t175 -346l-223 -43q-28 153 -109.5 230.5t-224.5 77.5q-180 0 -270 -118t-90 -317q0 -209 88.5 -324.5t269.5 -115.5q150 0 230 78t112 238l221 -41q-31 -226 -176.5 -352
t-386.5 -126zM686 1325h-76l-274 248l72 84l241 -164l242 164l70 -84z" />
    <glyph glyph-name="ccaron" unicode="&#x10d;" horiz-adv-x="1050" 
d="M778 588q-24 101 -77 153t-160 52q-121 0 -188.5 -78.5t-67.5 -233.5q0 -148 67.5 -230.5t194.5 -82.5q108 0 160 56t77 157l203 -49q-63 -359 -438 -359q-230 0 -360 130t-130 370q0 241 131.5 377.5t354.5 136.5q201 0 305.5 -91t134.5 -269zM575 1079h-75l-275 291
l78 82l236 -199l233 199l78 -82z" />
    <glyph glyph-name="Dcaron" unicode="&#x10e;" horiz-adv-x="1298" 
d="M592 1034h-236v-841h248q211 0 307.5 109.5t96.5 322.5q0 217 -97.5 313t-318.5 96zM123 0v1229h500q618 0 618 -604q0 -292 -164.5 -458.5t-453.5 -166.5h-500zM682 1325h-76l-274 248l71 84l242 -164l242 164l69 -84z" />
    <glyph glyph-name="dcaron" unicode="&#x10f;" horiz-adv-x="1265" 
d="M514 170q111 0 178.5 73t67.5 195v74q0 125 -67 200.5t-179 75.5q-120 0 -179 -76.5t-59 -234.5q0 -156 58 -231.5t180 -75.5zM760 0v254h-15q-38 -129 -124 -205t-211 -76q-167 0 -259 130.5t-92 373.5q0 246 93.5 379t263.5 131q126 1 208.5 -72t120.5 -204h15v604h219
v-1315h-219zM1102 1315h172l-60 -518h-139z" />
    <glyph glyph-name="Dcroat" unicode="&#x110;" horiz-adv-x="1359" 
d="M731 541h-313v-348h248q211 0 307 109t96 323q0 217 -97.5 313t-318.5 96h-235v-348h313v-145zM184 0v541h-139v145h139v543h500q619 0 619 -604q0 -292 -165 -458.5t-454 -166.5h-500z" />
    <glyph glyph-name="dcroat" unicode="&#x111;" horiz-adv-x="1122" 
d="M514 170q111 0 178.5 73t67.5 195v74q0 125 -67 200.5t-179 75.5q-120 0 -179 -76.5t-59 -234.5q0 -156 58 -231.5t180 -75.5zM760 0v254h-15q-38 -129 -124 -205t-211 -76q-167 0 -259 130.5t-92 373.5q0 246 93.5 379t263.5 131q126 1 208.5 -72t120.5 -204h15v366
h-271v125h271v113h219v-113h117v-125h-117v-1077h-219z" />
    <glyph glyph-name="Emacron" unicode="&#x112;" horiz-adv-x="1103" 
d="M123 0v1229h887v-203h-654v-303h592v-201h-592v-319h652v-203h-885zM291 1524h561v-156h-561v156z" />
    <glyph glyph-name="emacron" unicode="&#x113;" horiz-adv-x="1040" 
d="M539 817q-229 0 -258 -252h493q-6 126 -63.5 189t-171.5 63zM545 -25q-225 0 -355.5 128t-130.5 366q0 244 129.5 381t356.5 137q213 0 322.5 -118t109.5 -322q0 -80 -4 -129h-694q24 -262 268 -262q107 0 158.5 43.5t74.5 122.5l189 -54q-76 -293 -424 -293zM250 1294
h557v-155h-557v155z" />
    <glyph glyph-name="Ebreve" unicode="&#x114;" horiz-adv-x="1103" 
d="M123 0v1229h887v-203h-654v-303h592v-201h-592v-319h652v-203h-885zM571 1485q166 0 181 155h108q0 -303 -289 -303q-290 0 -290 303h110q8 -86 55.5 -120.5t124.5 -34.5z" />
    <glyph glyph-name="ebreve" unicode="&#x115;" horiz-adv-x="1040" 
d="M539 817q-229 0 -258 -252h493q-6 126 -63.5 189t-171.5 63zM545 -25q-225 0 -355.5 128t-130.5 366q0 244 129.5 381t356.5 137q213 0 322.5 -118t109.5 -322q0 -80 -4 -129h-694q24 -262 268 -262q107 0 158.5 43.5t74.5 122.5l189 -54q-76 -293 -424 -293zM528 1235
q166 0 181 182h108q0 -327 -289 -327q-290 0 -290 327h110q15 -182 180 -182z" />
    <glyph glyph-name="Edotaccent" unicode="&#x116;" horiz-adv-x="1103" 
d="M123 0v1229h887v-203h-654v-303h592v-201h-592v-319h652v-203h-885zM457 1593h231v-221h-231v221z" />
    <glyph glyph-name="edotaccent" unicode="&#x117;" horiz-adv-x="1040" 
d="M539 817q-229 0 -258 -252h493q-6 126 -63.5 189t-171.5 63zM545 -25q-225 0 -355.5 128t-130.5 366q0 244 129.5 381t356.5 137q213 0 322.5 -118t109.5 -322q0 -80 -4 -129h-694q24 -262 268 -262q107 0 158.5 43.5t74.5 122.5l189 -54q-76 -293 -424 -293zM414 1364
h231v-221h-231v221z" />
    <glyph glyph-name="Eogonek" unicode="&#x118;" horiz-adv-x="1103" 
d="M1012 -328q-75 -10 -127 -10q-232 0 -232 152q0 66 54 113t149 73h-733v1229h887v-203h-654v-303h592v-201h-592v-319h652v-201l2 -2q-118 -22 -172 -51.5t-54 -73.5q0 -68 115 -68q32 0 109 15z" />
    <glyph glyph-name="eogonek" unicode="&#x119;" horiz-adv-x="1040" 
d="M539 817q-229 0 -258 -252h493q-6 126 -63.5 189t-171.5 63zM545 -25q-225 0 -355.5 128t-130.5 366q0 244 129.5 381t356.5 137q213 0 322.5 -118t109.5 -322q0 -80 -4 -129h-694q24 -262 268 -262q107 0 158.5 43.5t74.5 122.5l185 -52l4 6l-2 -8h2q-23 -84 -62 -139
q-47 -70 -121 -123q-94 -70 -94 -141q0 -42 35 -62t92 -20q44 0 113 16l4 -168q-68 -12 -125 -12q-132 0 -196 46t-64 124q0 66 48.5 116.5t125.5 94.5q-80 -25 -180 -25z" />
    <glyph glyph-name="Ecaron" unicode="&#x11a;" horiz-adv-x="1103" 
d="M123 0v1229h887v-203h-654v-303h592v-201h-592v-319h652v-203h-885zM608 1325h-76l-274 248l72 84l241 -164l242 164l70 -84z" />
    <glyph glyph-name="ecaron" unicode="&#x11b;" horiz-adv-x="1040" 
d="M539 817q-229 0 -258 -252h493q-6 126 -63.5 189t-171.5 63zM545 -25q-225 0 -355.5 128t-130.5 366q0 244 129.5 381t356.5 137q213 0 322.5 -118t109.5 -322q0 -80 -4 -129h-694q24 -262 268 -262q107 0 158.5 43.5t74.5 122.5l189 -54q-76 -293 -424 -293zM567 1079
h-75l-275 291l78 82l235 -199l234 199l78 -82z" />
    <glyph glyph-name="Gcircumflex" unicode="&#x11c;" horiz-adv-x="1312" 
d="M573 -20q-236 0 -377 159t-141 459q0 307 153 481t445 174q469 0 545 -438l-217 -45q-35 143 -113 212t-217 69q-362 0 -362 -453q0 -424 370 -424q78 0 138 16t97 42t61 63.5t33 76t9 83.5h-344v190h564v-645h-216v274h-20q-43 -134 -143.5 -214t-264.5 -80zM887 1317
l-240 166l-244 -166l-69 84l274 248h78l272 -248z" />
    <glyph glyph-name="gcircumflex" unicode="&#x11d;" horiz-adv-x="1026" 
d="M487 791q-215 0 -215 -168t217 -168q224 0 224 168q0 79 -57.5 123.5t-168.5 44.5zM504 -193q126 0 196.5 14.5t95.5 39.5t25 69t-32.5 69.5t-100.5 25.5h-338q-74 0 -115.5 -32t-41.5 -75q0 -41 25.5 -64t93.5 -35t192 -12zM997 -63q0 -101 -46.5 -162.5t-158.5 -94
t-300 -32.5q-134 0 -227 13.5t-146 40.5t-76 62.5t-23 83.5q0 61 60.5 107t161.5 68v8q-131 24 -131 129q0 77 108 129l74 41q-107 35 -163 111.5t-56 185.5q0 162 111.5 249t312.5 87h477v-170h-111q-57 0 -194 10l-2 -19q108 -21 170.5 -68.5t62.5 -135.5
q0 -130 -107.5 -203.5t-306.5 -73.5q-87 0 -161 19l-23 -35q-24 -43 -24 -62q0 -29 23 -41t71 -12q55 0 163.5 1t159.5 1q150 0 225.5 -61.5t75.5 -175.5zM735 1061l-233 199l-236 -199l-78 82l275 291h78l272 -291z" />
    <glyph glyph-name="Gbreve" unicode="&#x11e;" horiz-adv-x="1312" 
d="M573 -20q-236 0 -377 159t-141 459q0 307 153 481t445 174q469 0 545 -438l-217 -45q-35 143 -113 212t-217 69q-362 0 -362 -453q0 -424 370 -424q78 0 138 16t97 42t61 63.5t33 76t9 83.5h-344v190h564v-645h-216v274h-20q-43 -134 -143.5 -214t-264.5 -80zM645 1485
q77 0 124.5 34.5t55.5 120.5h109q0 -303 -289 -303q-291 0 -291 303h111q8 -86 55.5 -120.5t124.5 -34.5z" />
    <glyph glyph-name="gbreve" unicode="&#x11f;" horiz-adv-x="1026" 
d="M487 791q-215 0 -215 -168t217 -168q224 0 224 168q0 79 -57.5 123.5t-168.5 44.5zM504 -193q126 0 196.5 14.5t95.5 39.5t25 69t-32.5 69.5t-100.5 25.5h-338q-74 0 -115.5 -32t-41.5 -75q0 -41 25.5 -64t93.5 -35t192 -12zM997 -63q0 -101 -46.5 -162.5t-158.5 -94
t-300 -32.5q-134 0 -227 13.5t-146 40.5t-76 62.5t-23 83.5q0 61 60.5 107t161.5 68v8q-131 24 -131 129q0 77 108 129l74 41q-107 35 -163 111.5t-56 185.5q0 162 111.5 249t312.5 87h477v-170h-111q-57 0 -194 10l-2 -19q108 -21 170.5 -68.5t62.5 -135.5
q0 -130 -107.5 -203.5t-306.5 -73.5q-87 0 -161 19l-23 -35q-24 -43 -24 -62q0 -29 23 -41t71 -12q55 0 163.5 1t159.5 1q150 0 225.5 -61.5t75.5 -175.5zM500 1235q165 0 180 182h108q0 -169 -73 -248t-215 -79q-291 0 -291 327h110q15 -182 181 -182z" />
    <glyph glyph-name="Gdotaccent" unicode="&#x120;" horiz-adv-x="1312" 
d="M573 -20q-236 0 -377 159t-141 459q0 307 153 481t445 174q469 0 545 -438l-217 -45q-35 143 -113 212t-217 69q-362 0 -362 -453q0 -424 370 -424q78 0 138 16t97 42t61 63.5t33 76t9 83.5h-344v190h564v-645h-216v274h-20q-43 -134 -143.5 -214t-264.5 -80zM530 1593
h232v-221h-232v221z" />
    <glyph glyph-name="gdotaccent" unicode="&#x121;" horiz-adv-x="1026" 
d="M487 791q-215 0 -215 -168t217 -168q224 0 224 168q0 79 -57.5 123.5t-168.5 44.5zM504 -193q126 0 196.5 14.5t95.5 39.5t25 69t-32.5 69.5t-100.5 25.5h-338q-74 0 -115.5 -32t-41.5 -75q0 -41 25.5 -64t93.5 -35t192 -12zM997 -63q0 -101 -46.5 -162.5t-158.5 -94
t-300 -32.5q-134 0 -227 13.5t-146 40.5t-76 62.5t-23 83.5q0 61 60.5 107t161.5 68v8q-131 24 -131 129q0 77 108 129l74 41q-107 35 -163 111.5t-56 185.5q0 162 111.5 249t312.5 87h477v-170h-111q-57 0 -194 10l-2 -19q108 -21 170.5 -68.5t62.5 -135.5
q0 -130 -107.5 -203.5t-306.5 -73.5q-87 0 -161 19l-23 -35q-24 -43 -24 -62q0 -29 23 -41t71 -12q55 0 163.5 1t159.5 1q150 0 225.5 -61.5t75.5 -175.5zM385 1364h231v-221h-231v221z" />
    <glyph glyph-name="uni0122" unicode="&#x122;" horiz-adv-x="1312" 
d="M573 -20q-236 0 -377 159t-141 459q0 307 153 481t445 174q469 0 545 -438l-217 -45q-35 143 -113 212t-217 69q-362 0 -362 -453q0 -424 370 -424q78 0 138 16t97 42t61 63.5t33 76t9 83.5h-344v190h564v-645h-216v274h-20q-43 -134 -143.5 -214t-264.5 -80zM596 -109
h176l-121 -313h-139v19z" />
    <glyph glyph-name="uni0123" unicode="&#x123;" horiz-adv-x="1026" 
d="M571 1092h-176l121 311h141v-19zM487 791q-215 0 -215 -168t217 -168q224 0 224 168q0 79 -57.5 123.5t-168.5 44.5zM504 -193q126 0 196.5 14.5t95.5 39.5t25 69t-32.5 69.5t-100.5 25.5h-338q-74 0 -115.5 -32t-41.5 -75q0 -41 25.5 -64t93.5 -35t192 -12zM997 -63
q0 -101 -46.5 -162.5t-158.5 -94t-300 -32.5q-134 0 -227 13.5t-146 40.5t-76 62.5t-23 83.5q0 61 60.5 107t161.5 68v8q-131 24 -131 129q0 77 108 129l74 41q-107 35 -163 111.5t-56 185.5q0 162 111.5 249t312.5 87h477v-170h-111q-57 0 -194 10l-2 -19
q108 -21 170.5 -68.5t62.5 -135.5q0 -130 -107.5 -203.5t-306.5 -73.5q-87 0 -161 19l-23 -35q-24 -43 -24 -62q0 -29 23 -41t71 -12q55 0 163.5 1t159.5 1q150 0 225.5 -61.5t75.5 -175.5z" />
    <glyph glyph-name="Hcircumflex" unicode="&#x124;" horiz-adv-x="1308" 
d="M1184 0h-234v508h-594v-508h-233v1229h233v-512h594v512h234v-1229zM895 1317l-240 166l-243 -166l-70 84l274 248h78l273 -248z" />
    <glyph glyph-name="hcircumflex" unicode="&#x125;" horiz-adv-x="1087" 
d="M334 545v-545h-219v1315h219v-606h16q42 134 128.5 206t211.5 72q145 0 219 -91.5t74 -252.5v-643h-219v586q0 93 -44.5 147.5t-137.5 54.5q-112 0 -180 -67t-68 -176zM469 1335l-240 166l-243 -166l-70 84l274 248h78l273 -248z" />
    <glyph glyph-name="Hbar" unicode="&#x126;" horiz-adv-x="1404" 
d="M999 666v196h-596v-196h596zM1231 0h-232v467h-596v-467h-231v862h-137v156h137v211h231v-211h596v211h232v-211h139v-156h-139v-862z" />
    <glyph glyph-name="hbar" unicode="&#x127;" horiz-adv-x="1112" 
d="M354 545v-545h-219v1077h-110v125h110v113h219v-113h297v-125h-297v-368h17q42 134 128.5 206t211.5 72q145 0 219 -91.5t74 -252.5v-643h-220v586q0 93 -44.5 147.5t-137.5 54.5q-112 0 -180 -67t-68 -176z" />
    <glyph glyph-name="Itilde" unicode="&#x128;" horiz-adv-x="481" 
d="M356 0h-233v1229h233v-1229zM96 1677q44 0 81 -19.5t61 -47.5t45 -56t43.5 -47.5t46.5 -19.5q44 0 59.5 42t13.5 138h103q6 -50 6 -92q0 -120 -44.5 -181t-123.5 -61q-40 0 -74 19.5t-57.5 47.5t-45 55.5t-46 47t-51.5 19.5q-45 0 -61.5 -39.5t-14.5 -136.5h-103
q-6 52 -6 92q0 118 45 178.5t123 60.5z" />
    <glyph glyph-name="itilde" unicode="&#x129;" horiz-adv-x="516" 
d="M369 0h-222v963h222v-963zM113 1436q44 0 81 -19.5t61 -48t44.5 -56.5t43 -47.5t46.5 -19.5q44 0 60 42.5t14 137.5h102q6 -49 6 -92q0 -120 -44.5 -180.5t-123.5 -60.5q-40 0 -74 19.5t-57.5 47t-45 55t-46 47t-51.5 19.5q-45 0 -61.5 -39.5t-14.5 -136.5h-102
q-6 52 -6 92q0 118 45 179t123 61z" />
    <glyph glyph-name="Imacron" unicode="&#x12a;" horiz-adv-x="481" 
d="M356 0h-233v1229h233v-1229zM-41 1524h561v-156h-561v156z" />
    <glyph glyph-name="imacron" unicode="&#x12b;" horiz-adv-x="516" 
d="M369 0h-222v963h222v-963zM-20 1294h557v-155h-557v155z" />
    <glyph glyph-name="Ibreve" unicode="&#x12c;" horiz-adv-x="481" 
d="M356 0h-233v1229h233v-1229zM240 1485q77 0 124.5 34.5t55.5 120.5h108q0 -303 -288 -303q-291 0 -291 303h110q15 -155 181 -155z" />
    <glyph glyph-name="ibreve" unicode="&#x12d;" horiz-adv-x="516" 
d="M369 0h-222v963h222v-963zM258 1235q165 0 180 182h109q0 -327 -289 -327q-291 0 -291 327h111q15 -182 180 -182z" />
    <glyph glyph-name="Iogonek" unicode="&#x12e;" horiz-adv-x="481" 
d="M356 0q-118 -22 -171.5 -51.5t-53.5 -73.5q0 -68 115 -68q31 0 108 15l4 -150q-75 -10 -127 -10q-231 0 -231 152q0 66 54 113t149 73h-80v1229h233v-1229z" />
    <glyph glyph-name="iogonek" unicode="&#x12f;" horiz-adv-x="477" 
d="M358 1126h-239v179h239v-179zM348 0q-118 -22 -171.5 -51.5t-53.5 -73.5q0 -68 115 -68q31 0 108 15l4 -150q-75 -10 -127 -10q-231 0 -231 152q0 66 54 113t149 73h-68v963h221v-963z" />
    <glyph glyph-name="Idotaccent" unicode="&#x130;" horiz-adv-x="481" 
d="M356 0h-233v1229h233v-1229zM125 1593h231v-221h-231v221z" />
    <glyph glyph-name="dotlessi" unicode="&#x131;" horiz-adv-x="516" 
d="M369 0h-222v963h222v-963z" />
    <glyph glyph-name="IJ" unicode="&#x132;" horiz-adv-x="1118" 
d="M356 0h-233v1229h233v-1229zM762 344v885h233v-883q0 -172 -80 -267t-251 -95q-74 0 -160 14l10 201q89 -13 113 -13q135 0 135 158z" />
    <glyph glyph-name="ij" unicode="&#x133;" horiz-adv-x="972" 
d="M358 1126h-239v179h239v-179zM348 0h-221v963h221v-963zM846 23q0 -168 -76.5 -261.5t-237.5 -93.5q-47 0 -92 10l11 191q50 -8 73 -8q103 0 103 135v965h219v-938zM856 1126h-240v179h240v-179z" />
    <glyph glyph-name="Jcircumflex" unicode="&#x134;" horiz-adv-x="636" 
d="M281 344v885h233v-883q0 -172 -80.5 -267t-251.5 -95q-73 0 -159 14l10 201q89 -13 112 -13q136 0 136 158zM645 1317l-239 166l-244 -166l-70 84l275 248h77l273 -248z" />
    <glyph glyph-name="jcircumflex" unicode="&#x135;" horiz-adv-x="505" 
d="M369 6q0 -352 -314 -352q-56 0 -92 8l10 193q44 -7 74 -7q103 0 103 136v977h219v-955zM449 1090l-191 165l-190 -165l-72 77l223 248h78l223 -248z" />
    <glyph glyph-name="uni0136" unicode="&#x136;" horiz-adv-x="1167" 
d="M901 0l-446 485h-99v-485h-233v1229h233v-553h93l438 553h264v-23l-530 -608l550 -575v-23h-270zM559 -109h176l-121 -313h-139v19z" />
    <glyph glyph-name="uni0137" unicode="&#x137;" horiz-adv-x="1005" 
d="M342 1315v-748h88l303 396h252v-23l-381 -451l408 -466v-23h-252l-330 403h-88v-403h-221v1315h221zM473 -109h176l-121 -313h-139v19z" />
    <glyph glyph-name="kgreenlandic" unicode="&#x138;" horiz-adv-x="1005" 
d="M760 0l-330 403h-88v-403h-221v963h221v-396h88l303 396h252v-23l-381 -451l408 -466v-23h-252z" />
    <glyph glyph-name="Lacute" unicode="&#x139;" horiz-adv-x="954" 
d="M197 1341l-35 117l522 193l53 -172zM356 1229v-1020h555v-209h-788v1229h233z" />
    <glyph glyph-name="lacute" unicode="&#x13a;" horiz-adv-x="462" 
d="M342 1315v-1315h-221v1315h221zM70 1401l-35 117l522 192l53 -172z" />
    <glyph glyph-name="uni013B" unicode="&#x13b;" horiz-adv-x="954" 
d="M356 1229v-1020h555v-209h-788v1229h233zM477 -109h176l-121 -313h-139v19z" />
    <glyph glyph-name="uni013C" unicode="&#x13c;" horiz-adv-x="462" 
d="M342 1315v-1315h-221v1315h221zM178 -109h176l-121 -313h-139v19z" />
    <glyph glyph-name="Lcaron" unicode="&#x13d;" horiz-adv-x="954" 
d="M737 1243h172l-59 -518h-139zM356 1229v-1020h555v-209h-788v1229h233z" />
    <glyph glyph-name="lcaron" unicode="&#x13e;" horiz-adv-x="645" 
d="M342 1315v-1315h-221v1315h221zM471 1315h172l-59 -518h-140z" />
    <glyph glyph-name="Ldot" unicode="&#x13f;" horiz-adv-x="954" 
d="M662 813h227v-217h-227v217zM356 1229v-1020h555v-209h-788v1229h233z" />
    <glyph glyph-name="ldot" unicode="&#x140;" horiz-adv-x="729" 
d="M342 1315v-1315h-221v1315h221zM467 643h231v-221h-231v221z" />
    <glyph glyph-name="Lslash" unicode="&#x141;" horiz-adv-x="995" 
d="M397 1229v-518l308 145l-3 -151l-305 -144v-352h555v-209h-788v451l-129 -62v150l129 61v629h233z" />
    <glyph glyph-name="lslash" unicode="&#x142;" horiz-adv-x="561" 
d="M391 1315v-598l154 82v-150l-154 -82v-567h-221v451l-152 -80v147l152 80v717h221z" />
    <glyph glyph-name="Nacute" unicode="&#x143;" horiz-adv-x="1318" 
d="M887 0l-316 559q-93 171 -215 465l-37 -4q23 -341 23 -598v-422h-219v1229h334l270 -481q130 -231 238 -508l36 2q-22 319 -22 561v426h215v-1229h-307zM479 1341l-35 117l523 193l53 -172z" />
    <glyph glyph-name="nacute" unicode="&#x144;" horiz-adv-x="1087" 
d="M334 545v-545h-219v963h215v-254h18q40 133 128 205.5t210 72.5q147 0 222 -91.5t75 -252.5v-643h-219v586q0 93 -44.5 147.5t-139.5 54.5q-110 0 -178 -67t-68 -176zM406 1061l-56 108l479 277l82 -158z" />
    <glyph glyph-name="uni0145" unicode="&#x145;" horiz-adv-x="1318" 
d="M887 0l-316 559q-93 171 -215 465l-37 -4q23 -341 23 -598v-422h-219v1229h334l270 -481q130 -231 238 -508l36 2q-22 319 -22 561v426h215v-1229h-307zM606 -109h176l-120 -313h-140v19z" />
    <glyph glyph-name="uni0146" unicode="&#x146;" horiz-adv-x="1087" 
d="M334 545v-545h-219v963h215v-254h18q40 133 128 205.5t210 72.5q147 0 222 -91.5t75 -252.5v-643h-219v586q0 93 -44.5 147.5t-139.5 54.5q-110 0 -178 -67t-68 -176zM496 -109h176l-121 -313h-139v19z" />
    <glyph glyph-name="Ncaron" unicode="&#x147;" horiz-adv-x="1318" 
d="M887 0l-316 559q-93 171 -215 465l-37 -4q23 -341 23 -598v-422h-219v1229h334l270 -481q130 -231 238 -508l36 2q-22 319 -22 561v426h215v-1229h-307zM698 1325h-75l-275 248l72 84l242 -164l241 164l70 -84z" />
    <glyph glyph-name="ncaron" unicode="&#x148;" horiz-adv-x="1087" 
d="M334 545v-545h-219v963h215v-254h18q40 133 128 205.5t210 72.5q147 0 222 -91.5t75 -252.5v-643h-219v586q0 93 -44.5 147.5t-139.5 54.5q-110 0 -178 -67t-68 -176zM586 1079h-76l-274 291l77 82l236 -199l233 199l78 -82z" />
    <glyph glyph-name="napostrophe" unicode="&#x149;" horiz-adv-x="1374" 
d="M141 1229h228l-189 -567h-123v12zM578 545v-545h-220v963h215v-254h19q40 133 128 205.5t210 72.5q147 0 222 -91.5t75 -252.5v-643h-219v586q0 93 -45 147.5t-140 54.5q-110 0 -177.5 -67t-67.5 -176z" />
    <glyph glyph-name="Eng" unicode="&#x14a;" horiz-adv-x="1318" 
d="M123 0v1229h334l303 -488q97 -160 213 -419l24 2q-18 284 -18 489v416h217v-1217q0 -344 -334 -344q-64 0 -160 15l13 188q79 -14 123 -14q70 0 101.5 35.5t31.5 105.5v4l-363 553q-119 183 -254 459h-35q21 -312 21 -592v-422h-217z" />
    <glyph glyph-name="eng" unicode="&#x14b;" horiz-adv-x="1087" 
d="M764 -2v588q0 202 -184 202q-110 0 -178 -67t-68 -176v-545h-219v963h215v-254h18q40 133 128 205.5t210 72.5q147 0 222 -91.5t75 -252.5v-620q0 -169 -76 -262t-237 -93q-47 0 -92 10l10 193q38 -6 71 -6q105 0 105 133z" />
    <glyph glyph-name="Omacron" unicode="&#x14c;" horiz-adv-x="1345" 
d="M674 -27q-292 0 -453.5 174.5t-161.5 470.5q0 292 164 464.5t451 172.5q288 0 451 -172t163 -465q0 -296 -161.5 -470.5t-452.5 -174.5zM672 176q193 0 288 117t95 325q0 201 -95.5 317t-285.5 116q-192 0 -287.5 -116t-95.5 -317q0 -207 94.5 -324.5t286.5 -117.5z
M393 1524h561v-156h-561v156z" />
    <glyph glyph-name="omacron" unicode="&#x14d;" 
d="M549 -27q-231 0 -360.5 136.5t-129.5 373.5q0 236 132 370t358 134q223 0 354 -134t131 -370q0 -237 -128.5 -373.5t-356.5 -136.5zM547 801q-132 0 -199 -82t-67 -234q0 -154 65.5 -237.5t200.5 -83.5q134 0 201 84t67 237q0 151 -68 233.5t-200 82.5zM264 1294h557
v-155h-557v155z" />
    <glyph glyph-name="Obreve" unicode="&#x14e;" horiz-adv-x="1345" 
d="M674 -27q-292 0 -453.5 174.5t-161.5 470.5q0 292 164 464.5t451 172.5q288 0 451 -172t163 -465q0 -296 -161.5 -470.5t-452.5 -174.5zM672 176q193 0 288 117t95 325q0 201 -95.5 317t-285.5 116q-192 0 -287.5 -116t-95.5 -317q0 -207 94.5 -324.5t286.5 -117.5z
M674 1485q77 0 124.5 34.5t55.5 120.5h109q0 -303 -289 -303q-291 0 -291 303h111q8 -86 55.5 -120.5t124.5 -34.5z" />
    <glyph glyph-name="obreve" unicode="&#x14f;" 
d="M549 -27q-231 0 -360.5 136.5t-129.5 373.5q0 236 132 370t358 134q223 0 354 -134t131 -370q0 -237 -128.5 -373.5t-356.5 -136.5zM547 801q-132 0 -199 -82t-67 -234q0 -154 65.5 -237.5t200.5 -83.5q134 0 201 84t67 237q0 151 -68 233.5t-200 82.5zM543 1235
q165 0 180 182h108q0 -169 -73 -248t-215 -79q-291 0 -291 327h110q15 -182 181 -182z" />
    <glyph glyph-name="Ohungarumlaut" unicode="&#x150;" horiz-adv-x="1345" 
d="M674 -27q-292 0 -453.5 174.5t-161.5 470.5q0 292 164 464.5t451 172.5q288 0 451 -172t163 -465q0 -296 -161.5 -470.5t-452.5 -174.5zM672 176q193 0 288 117t95 325q0 201 -95.5 317t-285.5 116q-192 0 -287.5 -116t-95.5 -317q0 -207 94.5 -324.5t286.5 -117.5z
M543 1315l-103 59l191 318l143 -88zM829 1315l-96 69l209 308l137 -97z" />
    <glyph glyph-name="ohungarumlaut" unicode="&#x151;" 
d="M549 -27q-231 0 -360.5 136.5t-129.5 373.5q0 236 132 370t358 134q223 0 354 -134t131 -370q0 -237 -128.5 -373.5t-356.5 -136.5zM547 801q-132 0 -199 -82t-67 -234q0 -154 65.5 -237.5t200.5 -83.5q134 0 201 84t67 237q0 151 -68 233.5t-200 82.5zM397 1065l-98 57
l180 338l137 -82zM674 1067l-94 66l202 325l133 -90z" />
    <glyph glyph-name="OE" unicode="&#x152;" horiz-adv-x="1812" 
d="M686 203h148v823h-148q-193 0 -294 -109t-101 -299q0 -196 100.5 -305.5t294.5 -109.5zM686 0q-294 0 -460.5 165.5t-166.5 452.5q0 283 169.5 447t457.5 164h1034v-203h-653v-303h592v-201h-592v-319h651v-203h-1032z" />
    <glyph glyph-name="oe" unicode="&#x153;" horiz-adv-x="1796" 
d="M547 801q-132 0 -199 -82t-67 -234q0 -154 65.5 -237.5t200.5 -83.5q134 0 201 84t67 237q0 151 -68 233.5t-200 82.5zM1292 817q-235 0 -258 -272h496q-3 272 -238 272zM1329 -27q-155 0 -257 76.5t-142 222.5h-12q-40 -143 -140.5 -221t-251.5 -78q-220 0 -343.5 136
t-123.5 374q0 236 126 370t341 134q149 0 251 -78.5t143 -224.5h12q40 147 140.5 225t252.5 78q199 0 303.5 -118.5t104.5 -321.5q0 -68 -4 -109h-695q15 -282 266 -282q108 0 159.5 45.5t76.5 130.5l188 -53q-77 -306 -395 -306z" />
    <glyph glyph-name="Racute" unicode="&#x154;" horiz-adv-x="1208" 
d="M623 1032h-267v-375h262q244 0 244 193q0 96 -54.5 139t-184.5 43zM891 0l-305 461h-230v-461h-233v1229h516q453 0 453 -373q0 -143 -70.5 -237.5t-200.5 -133.5l342 -462v-23h-272zM406 1341l-35 117l522 193l53 -172z" />
    <glyph glyph-name="racute" unicode="&#x155;" horiz-adv-x="696" 
d="M334 0h-219v963h209v-289l18 -2q40 168 107.5 234.5t177.5 66.5h35v-248h-54q-152 0 -213 -60t-61 -208v-457zM242 1061l-56 108l480 277l82 -158z" />
    <glyph glyph-name="uni0156" unicode="&#x156;" horiz-adv-x="1208" 
d="M557 -109h176l-121 -313h-139v19zM623 1032h-267v-375h262q244 0 244 193q0 96 -54.5 139t-184.5 43zM891 0l-305 461h-230v-461h-233v1229h516q453 0 453 -373q0 -143 -70.5 -237.5t-200.5 -133.5l342 -462v-23h-272z" />
    <glyph glyph-name="uni0157" unicode="&#x157;" horiz-adv-x="696" 
d="M334 0h-219v963h209v-289l18 -2q40 168 107.5 234.5t177.5 66.5h35v-248h-54q-152 0 -213 -60t-61 -208v-457zM174 -109h176l-121 -313h-139v19z" />
    <glyph glyph-name="Rcaron" unicode="&#x158;" horiz-adv-x="1208" 
d="M623 1032h-267v-375h262q244 0 244 193q0 96 -54.5 139t-184.5 43zM891 0l-305 461h-230v-461h-233v1229h516q453 0 453 -373q0 -143 -70.5 -237.5t-200.5 -133.5l342 -462v-23h-272zM625 1325h-76l-275 248l72 84l242 -164l241 164l70 -84z" />
    <glyph glyph-name="rcaron" unicode="&#x159;" horiz-adv-x="696" 
d="M334 0h-219v963h209v-289l18 -2q40 168 107.5 234.5t177.5 66.5h35v-248h-54q-152 0 -213 -60t-61 -208v-457zM422 1079h-76l-274 291l78 82l235 -199l233 199l78 -82z" />
    <glyph glyph-name="Sacute" unicode="&#x15a;" horiz-adv-x="1153" 
d="M596 -27q-488 3 -543 402l223 47q46 -258 328 -258q124 0 186 42.5t62 119.5q0 80 -66 124t-243 74q-124 20 -210.5 54.5t-137 83t-73 106.5t-22.5 133q0 168 119.5 261t351.5 93q115 0 202.5 -26t144 -75t90 -113t49.5 -148l-232 -45q-26 115 -84.5 168t-181.5 53
q-115 0 -172 -40.5t-57 -115.5q0 -48 21.5 -80.5t90 -62.5t193.5 -53q108 -20 187.5 -49t129.5 -62.5t80 -77t41.5 -88t11.5 -100.5q0 -175 -119 -271t-370 -96zM373 1341l-35 117l522 193l53 -172z" />
    <glyph glyph-name="sacute" unicode="&#x15b;" horiz-adv-x="954" 
d="M496 -27q-113 0 -195.5 22t-133 65.5t-78.5 97.5t-42 127l199 41q25 -94 84 -142.5t170 -48.5q178 0 178 123q0 58 -51.5 90t-192.5 58q-190 38 -268 106t-78 190q0 134 97.5 209.5t285.5 75.5q97 0 167 -19t114.5 -57t70 -86t41.5 -116l-198 -43q-20 89 -66 126t-133 37
q-84 0 -127 -29.5t-43 -84.5t47 -90t176 -58q206 -38 288.5 -110t82.5 -191q0 -139 -97 -216t-298 -77zM346 1061l-55 108l479 277l82 -158z" />
    <glyph glyph-name="Scircumflex" unicode="&#x15c;" horiz-adv-x="1153" 
d="M596 -27q-488 3 -543 402l223 47q46 -258 328 -258q124 0 186 42.5t62 119.5q0 80 -66 124t-243 74q-124 20 -210.5 54.5t-137 83t-73 106.5t-22.5 133q0 168 119.5 261t351.5 93q115 0 202.5 -26t144 -75t90 -113t49.5 -148l-232 -45q-26 115 -84.5 168t-181.5 53
q-115 0 -172 -40.5t-57 -115.5q0 -48 21.5 -80.5t90 -62.5t193.5 -53q108 -20 187.5 -49t129.5 -62.5t80 -77t41.5 -88t11.5 -100.5q0 -175 -119 -271t-370 -96zM809 1317l-240 166l-243 -166l-70 84l274 248h78l273 -248z" />
    <glyph glyph-name="scircumflex" unicode="&#x15d;" horiz-adv-x="954" 
d="M496 -27q-113 0 -195.5 22t-133 65.5t-78.5 97.5t-42 127l199 41q25 -94 84 -142.5t170 -48.5q178 0 178 123q0 58 -51.5 90t-192.5 58q-190 38 -268 106t-78 190q0 134 97.5 209.5t285.5 75.5q97 0 167 -19t114.5 -57t70 -86t41.5 -116l-198 -43q-20 89 -66 126t-133 37
q-84 0 -127 -29.5t-43 -84.5t47 -90t176 -58q206 -38 288.5 -110t82.5 -191q0 -139 -97 -216t-298 -77zM717 1061l-234 199l-235 -199l-78 82l274 291h78l273 -291z" />
    <glyph glyph-name="uni015E" unicode="&#x15e;" horiz-adv-x="1153" 
d="M596 -27h-12l-29 -71q41 12 78 12q149 0 149 -119q0 -53 -45 -96t-143 -43q-125 0 -207 57l51 80q71 -47 156 -47q43 0 63.5 15.5t20.5 39.5q0 54 -80 54q-39 0 -82 -13l-63 27l41 111q-391 41 -441 395l223 47q46 -258 328 -258q124 0 186 42.5t62 119.5q0 80 -66 124
t-243 74q-124 20 -210.5 54.5t-137 83t-73 106.5t-22.5 133q0 168 119.5 261t351.5 93q115 0 202.5 -26t144 -75t90 -113t49.5 -148l-232 -45q-26 115 -84.5 168t-181.5 53q-115 0 -172 -40.5t-57 -115.5q0 -48 21.5 -80.5t90 -62.5t193.5 -53q108 -20 187.5 -49
t129.5 -62.5t80 -77t41.5 -88t11.5 -100.5q0 -175 -119 -271t-370 -96z" />
    <glyph glyph-name="uni015F" unicode="&#x15f;" horiz-adv-x="954" 
d="M496 -27h-19l-28 -71q41 12 77 12q150 0 150 -119q0 -53 -45.5 -96t-143.5 -43q-124 0 -206 57l51 80q71 -47 155 -47q43 0 63.5 15.5t20.5 39.5q0 54 -79 54q-39 0 -82 -13l-64 27l41 111q-161 19 -238 96t-102 209l199 41q25 -94 84 -142.5t170 -48.5q178 0 178 123
q0 58 -51.5 90t-192.5 58q-190 38 -268 106t-78 190q0 134 97.5 209.5t285.5 75.5q97 0 167 -19t114.5 -57t70 -86t41.5 -116l-198 -43q-20 89 -66 126t-133 37q-84 0 -127 -29.5t-43 -84.5t47 -90t176 -58q206 -38 288.5 -110t82.5 -191q0 -139 -97 -216t-298 -77z" />
    <glyph glyph-name="Scaron" unicode="&#x160;" horiz-adv-x="1153" 
d="M596 -27q-488 3 -543 402l223 47q46 -258 328 -258q124 0 186 42.5t62 119.5q0 80 -66 124t-243 74q-124 20 -210.5 54.5t-137 83t-73 106.5t-22.5 133q0 168 119.5 261t351.5 93q115 0 202.5 -26t144 -75t90 -113t49.5 -148l-232 -45q-26 115 -84.5 168t-181.5 53
q-115 0 -172 -40.5t-57 -115.5q0 -48 21.5 -80.5t90 -62.5t193.5 -53q108 -20 187.5 -49t129.5 -62.5t80 -77t41.5 -88t11.5 -100.5q0 -175 -119 -271t-370 -96zM608 1325h-76l-274 248l72 84l241 -164l242 164l70 -84z" />
    <glyph glyph-name="scaron" unicode="&#x161;" horiz-adv-x="954" 
d="M496 -27q-113 0 -195.5 22t-133 65.5t-78.5 97.5t-42 127l199 41q25 -94 84 -142.5t170 -48.5q178 0 178 123q0 58 -51.5 90t-192.5 58q-190 38 -268 106t-78 190q0 134 97.5 209.5t285.5 75.5q97 0 167 -19t114.5 -57t70 -86t41.5 -116l-198 -43q-20 89 -66 126t-133 37
q-84 0 -127 -29.5t-43 -84.5t47 -90t176 -58q206 -38 288.5 -110t82.5 -191q0 -139 -97 -216t-298 -77zM518 1079h-76l-274 291l78 82l235 -199l234 199l78 -82z" />
    <glyph glyph-name="Tcommaaccent" unicode="&#x162;" horiz-adv-x="1048" 
d="M29 1014v215h991v-215h-379v-1014h-109l-38 -98q40 12 77 12q150 0 150 -119q0 -53 -45.5 -96t-143.5 -43q-124 0 -206 57l51 80q71 -47 155 -47q43 0 63.5 15.5t20.5 39.5q0 54 -79 54q-39 0 -82 -13l-64 27l47 131h-30v1014h-379z" />
    <glyph glyph-name="tcommaaccent" unicode="&#x163;" horiz-adv-x="729" 
d="M170 293v491h-135v179h135v260h221v-260h283v-179h-283v-460q0 -73 30.5 -108.5t100.5 -35.5q56 0 140 25l26 -197q-60 -19 -105 -27t-112 -8q-34 0 -74 7l-32 -78q41 12 77 12q150 0 150 -119q0 -53 -45.5 -96t-143.5 -43q-124 0 -206 57l51 80q71 -47 155 -47
q43 0 63.5 15.5t20.5 39.5q0 54 -79 54q-39 0 -82 -13l-64 27l51 139q-72 39 -107.5 113t-35.5 172z" />
    <glyph glyph-name="Tcaron" unicode="&#x164;" horiz-adv-x="1048" 
d="M1020 1014h-379v-1014h-233v1014h-379v215h991v-215zM563 1325h-76l-274 248l72 84l241 -164l242 164l70 -84z" />
    <glyph glyph-name="tcaron" unicode="&#x165;" horiz-adv-x="739" 
d="M573 1393h166l-43 -330h-131zM170 293v491h-135v179h135v260h221v-260h283v-179h-283v-460q0 -73 30.5 -108.5t100.5 -35.5q56 0 140 25l26 -197q-60 -19 -105 -27t-112 -8q-151 0 -226 88t-75 232z" />
    <glyph glyph-name="Tbar" unicode="&#x166;" horiz-adv-x="1054" 
d="M35 1014v215h991v-215h-379v-404h273v-137h-273v-473h-233v473h-275v137h275v404h-379z" />
    <glyph glyph-name="tbar" unicode="&#x167;" horiz-adv-x="729" 
d="M170 293v158h-107v127h107v206h-135v179h135v260h221v-260h283v-179h-283v-206h252v-127h-252v-127q0 -73 30.5 -108.5t100.5 -35.5q56 0 140 25l26 -197q-60 -19 -105 -27t-112 -8q-151 0 -226 88t-75 232z" />
    <glyph glyph-name="Utilde" unicode="&#x168;" horiz-adv-x="1290" 
d="M653 182q155 0 219 77t64 226v744h231v-760q0 -240 -132 -367t-382 -127q-255 0 -392.5 127t-137.5 367v760h233v-737q0 -149 68 -229.5t229 -80.5zM502 1677q44 0 81 -19.5t61 -47.5t44.5 -56t43 -47.5t46.5 -19.5q44 0 60 42.5t14 137.5h102q7 -58 7 -92
q0 -120 -44.5 -181t-123.5 -61q-40 0 -74 19.5t-57.5 47.5t-45 55.5t-46.5 47t-52 19.5q-45 0 -61.5 -39.5t-14.5 -136.5h-102q-6 52 -6 92q0 118 45 178.5t123 60.5z" />
    <glyph glyph-name="utilde" unicode="&#x169;" horiz-adv-x="1091" 
d="M762 0v254h-21q-40 -134 -127.5 -207.5t-207.5 -73.5q-148 0 -224 92.5t-76 253.5v644h222v-586q0 -93 44 -148t138 -55q112 0 179 67.5t67 176.5v545h221v-963h-215zM397 1436q44 0 81 -19.5t61 -48t45 -56.5t43.5 -47.5t46.5 -19.5q44 0 60 42.5t14 137.5h102
q6 -49 6 -92q0 -120 -44.5 -180.5t-123.5 -60.5q-40 0 -74 19.5t-57.5 47t-45 55t-46 47t-51.5 19.5q-45 0 -61.5 -39.5t-14.5 -136.5h-102q-7 61 -7 92q0 118 45 179t123 61z" />
    <glyph glyph-name="Umacron" unicode="&#x16a;" horiz-adv-x="1290" 
d="M653 182q155 0 219 77t64 226v744h231v-760q0 -240 -132 -367t-382 -127q-255 0 -392.5 127t-137.5 367v760h233v-737q0 -149 68 -229.5t229 -80.5zM365 1524h561v-156h-561v156z" />
    <glyph glyph-name="umacron" unicode="&#x16b;" horiz-adv-x="1091" 
d="M762 0v254h-21q-40 -134 -127.5 -207.5t-207.5 -73.5q-148 0 -224 92.5t-76 253.5v644h222v-586q0 -93 44 -148t138 -55q112 0 179 67.5t67 176.5v545h221v-963h-215zM262 1294h557v-155h-557v155z" />
    <glyph glyph-name="Ubreve" unicode="&#x16c;" horiz-adv-x="1290" 
d="M653 182q155 0 219 77t64 226v744h231v-760q0 -240 -132 -367t-382 -127q-255 0 -392.5 127t-137.5 367v760h233v-737q0 -149 68 -229.5t229 -80.5zM645 1485q77 0 124.5 34.5t55.5 120.5h109q0 -303 -289 -303q-291 0 -291 303h111q8 -86 55.5 -120.5t124.5 -34.5z" />
    <glyph glyph-name="ubreve" unicode="&#x16d;" horiz-adv-x="1091" 
d="M762 0v254h-21q-40 -134 -127.5 -207.5t-207.5 -73.5q-148 0 -224 92.5t-76 253.5v644h222v-586q0 -93 44 -148t138 -55q112 0 179 67.5t67 176.5v545h221v-963h-215zM543 1235q165 0 180 182h108q0 -169 -73 -248t-215 -79q-291 0 -291 327h110q15 -182 181 -182z" />
    <glyph glyph-name="Uring" unicode="&#x16e;" horiz-adv-x="1290" 
d="M653 182q155 0 219 77t64 226v744h231v-760q0 -240 -132 -367t-382 -127q-255 0 -392.5 127t-137.5 367v760h233v-737q0 -149 68 -229.5t229 -80.5zM870 1536q0 -97 -60.5 -156t-162.5 -59q-103 0 -163 58.5t-60 154.5q0 99 59.5 157t163.5 58q102 0 162.5 -58t60.5 -155
zM541 1534q0 -47 28.5 -74.5t77.5 -27.5q48 0 76.5 27.5t28.5 76.5t-28.5 76.5t-76.5 27.5q-50 0 -78 -27.5t-28 -78.5z" />
    <glyph glyph-name="uring" unicode="&#x16f;" horiz-adv-x="1091" 
d="M762 0v254h-21q-40 -134 -127.5 -207.5t-207.5 -73.5q-148 0 -224 92.5t-76 253.5v644h222v-586q0 -93 44 -148t138 -55q112 0 179 67.5t67 176.5v545h221v-963h-215zM426 1303q0 -55 31.5 -86t85.5 -31q53 0 83.5 31.5t30.5 87.5q0 55 -30.5 85.5t-83.5 30.5
q-55 0 -86 -31t-31 -87zM774 1305q0 -105 -62 -167.5t-169 -62.5q-108 0 -171 62t-63 166q0 105 63 167t171 62q107 0 169 -62t62 -165z" />
    <glyph glyph-name="Uhungarumlaut" unicode="&#x170;" horiz-adv-x="1290" 
d="M653 182q155 0 219 77t64 226v744h231v-760q0 -240 -132 -367t-382 -127q-255 0 -392.5 127t-137.5 367v760h233v-737q0 -149 68 -229.5t229 -80.5zM514 1315l-102 59l190 318l143 -88zM801 1315l-96 69l208 308l138 -97z" />
    <glyph glyph-name="uhungarumlaut" unicode="&#x171;" horiz-adv-x="1091" 
d="M762 0v254h-21q-40 -134 -127.5 -207.5t-207.5 -73.5q-148 0 -224 92.5t-76 253.5v644h222v-586q0 -93 44 -148t138 -55q112 0 179 67.5t67 176.5v545h221v-963h-215zM676 1067l-94 66l202 325l134 -90zM399 1065l-98 57l180 338l137 -82z" />
    <glyph glyph-name="Uogonek" unicode="&#x172;" horiz-adv-x="1290" 
d="M653 182q155 0 219 77t64 226v744h231v-760q0 -210 -102 -333.5t-297 -151.5q-76 -20 -111.5 -46.5t-35.5 -62.5q0 -68 114 -68q32 0 109 15l4 -150q-75 -10 -127 -10q-232 0 -232 152q0 104 134 161q-240 8 -370 135t-130 359v760h233v-737q0 -149 68 -229.5t229 -80.5z
" />
    <glyph glyph-name="uogonek" unicode="&#x173;" horiz-adv-x="1091" 
d="M979 -328q-75 -10 -127 -10q-231 0 -231 152q0 67 53.5 113.5t148.5 72.5h-61v254h-21q-40 -134 -127.5 -207.5t-207.5 -73.5q-148 0 -224 92.5t-76 253.5v644h222v-586q0 -93 44 -148t138 -55q112 0 179 67.5t67 176.5v545h221v-963q-118 -22 -171.5 -51.5t-53.5 -73.5
q0 -68 114 -68q32 0 109 15z" />
    <glyph glyph-name="Wcircumflex" unicode="&#x174;" horiz-adv-x="1734" 
d="M743 516l-106 -516h-330l-311 1229h250l123 -559q62 -303 88 -469h55q54 325 86 467l131 561h297l129 -561q50 -232 86 -467h51q31 181 90 469l117 559h240l-307 -1229h-345l-106 516q-70 343 -96 516h-43q-42 -239 -99 -516zM1108 1317l-240 166l-243 -166l-70 84
l274 248h78l273 -248z" />
    <glyph glyph-name="wcircumflex" unicode="&#x175;" horiz-adv-x="1521" 
d="M895 963l94 -377q47 -179 92 -420h37q17 82 101 424l86 373h219l-287 -963h-289l-100 420q-51 220 -76 381h-33q-41 -225 -75 -381l-97 -420h-282l-287 963h227l97 -373q68 -256 102 -424h37q45 240 92 420l92 377h250zM997 1061l-233 199l-236 -199l-77 82l274 291h78
l272 -291z" />
    <glyph glyph-name="Ycircumflex" unicode="&#x176;" horiz-adv-x="1105" 
d="M670 0h-234v408l-454 798v23h254l301 -627h34l306 627h247v-23l-454 -803v-403zM793 1317l-240 166l-244 -166l-69 84l274 248h78l272 -248z" />
    <glyph glyph-name="ycircumflex" unicode="&#x177;" horiz-adv-x="980" 
d="M160 -358q-62 0 -152 12l35 199q77 -15 123 -15q86 0 135 34t94 138l-387 953h242l112 -349q123 -381 134 -419h32q60 199 127 415l105 353h235l-397 -975q-75 -184 -175 -265t-263 -81zM729 1061l-233 199l-236 -199l-78 82l275 291h78l272 -291z" />
    <glyph glyph-name="Ydieresis" unicode="&#x178;" horiz-adv-x="1105" 
d="M670 0h-234v408l-454 798v23h254l301 -627h34l306 627h247v-23l-454 -803v-403zM260 1563h217v-211h-217v211zM618 1563h218v-211h-218v211z" />
    <glyph glyph-name="Zacute" unicode="&#x179;" horiz-adv-x="1173" 
d="M1087 213v-213h-1017v209l725 807l-15 26q-228 -26 -389 -26h-299v213h989v-207l-729 -809l13 -29q271 29 397 29h325zM399 1341l-34 117l522 193l53 -172z" />
    <glyph glyph-name="zacute" unicode="&#x17a;" horiz-adv-x="1009" 
d="M662 190h262v-190h-848v193l598 583l-10 23q-242 -29 -367 -29h-205v193h826v-193l-601 -586l11 -22q222 28 334 28zM356 1061l-55 108l479 277l82 -158z" />
    <glyph glyph-name="Zdotaccent" unicode="&#x17b;" horiz-adv-x="1173" 
d="M1087 213v-213h-1017v209l725 807l-15 26q-228 -26 -389 -26h-299v213h989v-207l-729 -809l13 -29q271 29 397 29h325zM463 1593h231v-221h-231v221z" />
    <glyph glyph-name="zdotaccent" unicode="&#x17c;" horiz-adv-x="1009" 
d="M662 190h262v-190h-848v193l598 583l-10 23q-242 -29 -367 -29h-205v193h826v-193l-601 -586l11 -22q222 28 334 28zM385 1364h231v-221h-231v221z" />
    <glyph glyph-name="Zcaron" unicode="&#x17d;" horiz-adv-x="1173" 
d="M1087 213v-213h-1017v209l725 807l-15 26q-228 -26 -389 -26h-299v213h989v-207l-729 -809l13 -29q271 29 397 29h325zM616 1325h-75l-275 248l72 84l242 -164l241 164l70 -84z" />
    <glyph glyph-name="zcaron" unicode="&#x17e;" horiz-adv-x="1009" 
d="M662 190h262v-190h-848v193l598 583l-10 23q-242 -29 -367 -29h-205v193h826v-193l-601 -586l11 -22q222 28 334 28zM539 1079h-76l-275 291l78 82l236 -199l233 199l78 -82z" />
    <glyph glyph-name="Aringacute" unicode="&#x1fa;" horiz-adv-x="1206" 
d="M438 1610l-32 112l512 187l51 -168zM496 1350q0 -51 29.5 -80t80.5 -29q48 0 77.5 29.5t29.5 81.5q0 50 -29.5 79t-77.5 29q-51 0 -80.5 -29t-29.5 -81zM451 639l-52 -152h402l-51 152q-52 152 -123 387h-52q-64 -211 -124 -387zM969 0l-107 313h-524l-107 -313h-241
l442 1192q-55 61 -55 158q0 103 61 164t168 61q104 0 166 -61t62 -162q0 -98 -58 -162l443 -1190h-250z" />
    <glyph glyph-name="aringacute" unicode="&#x1fb;" horiz-adv-x="1017" 
d="M360 1540l-34 111l497 184l51 -168zM434 156q114 0 185 59.5t71 151.5v39h-250q-84 0 -129 -31t-45 -90q0 -58 40 -93.5t128 -35.5zM700 4v229h-22q-37 -119 -121 -184t-209 -65q-135 0 -214 67t-79 203t86 216.5t262 80.5h287v65q0 97 -44 147t-142 50q-165 0 -203 -170
l-209 47q29 141 134.5 220t285.5 79q205 0 301 -93.5t96 -277.5v-614h-209zM401 1272q0 -47 29 -75t78 -28q48 0 76 28t28 77t-28 76.5t-76 27.5q-50 0 -78.5 -27.5t-28.5 -78.5zM731 1274q0 -97 -60.5 -156t-162.5 -59q-103 0 -163 58.5t-60 154.5q0 99 59.5 157t163.5 58
q102 0 162.5 -58t60.5 -155z" />
    <glyph glyph-name="AEacute" unicode="&#x1fc;" horiz-adv-x="1765" 
d="M723 1341l-35 117l522 193l54 -172zM784 0v279h-409l-133 -279h-242v12l614 1217h1057v-203h-653v-303h592v-201h-592v-319h651v-203h-885zM547 639l-88 -184h325v581h-61q-66 -165 -176 -397z" />
    <glyph glyph-name="aeacute" unicode="&#x1fd;" horiz-adv-x="1673" 
d="M436 152q115 0 184.5 59t69.5 151v66h-244q-85 0 -131.5 -37.5t-46.5 -105.5q0 -60 40 -96.5t128 -36.5zM1169 817q-240 0 -260 -276h496q0 276 -236 276zM1599 279q-18 -71 -48 -124.5t-78.5 -95.5t-122.5 -64t-172 -22q-158 0 -273.5 69t-161.5 202
q-41 -130 -142 -198.5t-243 -68.5q-137 0 -219 68.5t-82 204.5q0 127 87 202.5t262 75.5h284v84q0 97 -43 146t-141 49q-166 0 -203 -168l-209 49q29 138 130.5 218.5t262.5 80.5q263 0 336 -190q106 190 353 190q213 0 323.5 -118.5t110.5 -325.5q0 -45 -6 -107h-695
q18 -280 267 -280q108 0 159 45.5t76 130.5zM690 1061l-55 108l479 277l82 -158z" />
    <glyph glyph-name="Oslashacute" unicode="&#x1fe;" horiz-adv-x="1343" 
d="M674 -27q-236 0 -393 119l-84 -92h-179v10l170 176q-129 170 -129 432q0 292 164 464.5t451 172.5q243 0 401 -127l90 101h172v-12l-172 -183q123 -163 123 -416q0 -296 -161.5 -470.5t-452.5 -174.5zM283 618q0 -165 57 -270l590 625q-97 84 -256 84q-131 0 -220.5 -59
t-130 -155.5t-40.5 -224.5zM498 1341l-35 117l522 193l53 -172zM672 170q197 0 295 119.5t98 328.5q0 148 -55 252l-588 -624q95 -76 250 -76z" />
    <glyph glyph-name="oslashacute" unicode="&#x1ff;" 
d="M549 -27q-189 0 -318 99l-59 -72h-166v12l144 148q-91 134 -91 323q0 236 132 370t358 134q189 0 313 -98l62 74h157v-13l-139 -145q92 -128 92 -322q0 -236 -130.5 -373t-354.5 -137zM547 813q-143 0 -215 -85t-72 -243q0 -105 31 -184l442 455q-72 57 -186 57z
M412 1061l-56 108l480 277l82 -158zM547 150q144 0 215.5 87t71.5 248q0 101 -31 174l-441 -452q69 -57 185 -57z" />
    <glyph glyph-name="uni0218" unicode="&#x218;" horiz-adv-x="1153" 
d="M596 -27q-488 3 -543 402l223 47q46 -258 328 -258q124 0 186 42.5t62 119.5q0 80 -66 124t-243 74q-124 20 -210.5 54.5t-137 83t-73 106.5t-22.5 133q0 168 119.5 261t351.5 93q115 0 202.5 -26t144 -75t90 -113t49.5 -148l-232 -45q-26 115 -84.5 168t-181.5 53
q-115 0 -172 -40.5t-57 -115.5q0 -48 21.5 -80.5t90 -62.5t193.5 -53q108 -20 187.5 -49t129.5 -62.5t80 -77t41.5 -88t11.5 -100.5q0 -175 -119 -271t-370 -96zM510 -109h176l-121 -313h-139v19z" />
    <glyph glyph-name="uni0219" unicode="&#x219;" horiz-adv-x="954" 
d="M496 -27q-113 0 -195.5 22t-133 65.5t-78.5 97.5t-42 127l199 41q25 -94 84 -142.5t170 -48.5q178 0 178 123q0 58 -51.5 90t-192.5 58q-190 38 -268 106t-78 190q0 134 97.5 209.5t285.5 75.5q97 0 167 -19t114.5 -57t70 -86t41.5 -116l-198 -43q-20 89 -66 126t-133 37
q-84 0 -127 -29.5t-43 -84.5t47 -90t176 -58q206 -38 288.5 -110t82.5 -191q0 -139 -97 -216t-298 -77zM422 -109h176l-121 -313h-139v19z" />
    <glyph glyph-name="uni021A" unicode="&#x21a;" horiz-adv-x="1048" 
d="M29 1014v215h991v-215h-379v-1014h-233v1014h-379zM471 -109h176l-121 -313h-139v19z" />
    <glyph glyph-name="uni021B" unicode="&#x21b;" horiz-adv-x="729" 
d="M170 293v491h-135v179h135v260h221v-260h283v-179h-283v-460q0 -73 30.5 -108.5t100.5 -35.5q56 0 140 25l26 -197q-60 -19 -105 -27t-112 -8q-151 0 -226 88t-75 232zM328 -109h176l-121 -313h-139v19z" />
    <glyph glyph-name="circumflex" unicode="&#x2c6;" horiz-adv-x="706" 
d="M588 1061l-234 199l-235 -199l-78 82l274 291h78l273 -291z" />
    <glyph glyph-name="caron" unicode="&#x2c7;" horiz-adv-x="706" 
d="M391 1079h-76l-274 291l78 82l235 -199l234 199l78 -82z" />
    <glyph glyph-name="breve" unicode="&#x2d8;" horiz-adv-x="669" 
d="M340 1235q165 0 180 182h109q0 -327 -289 -327q-291 0 -291 327h111q15 -182 180 -182z" />
    <glyph glyph-name="dotaccent" unicode="&#x2d9;" horiz-adv-x="350" 
d="M59 1364h232v-221h-232v221z" />
    <glyph glyph-name="ring" unicode="&#x2da;" horiz-adv-x="600" 
d="M532 1305q0 -105 -62 -167.5t-169 -62.5q-108 0 -170.5 62t-62.5 166q0 105 62.5 167t170.5 62q107 0 169 -62t62 -165zM184 1303q0 -55 31.5 -86t85.5 -31q53 0 84 31.5t31 87.5q0 55 -31 85.5t-84 30.5q-55 0 -86 -31t-31 -87z" />
    <glyph glyph-name="ogonek" unicode="&#x2db;" horiz-adv-x="444" 
d="M367 23l34 -23q-118 -22 -171.5 -51.5t-53.5 -73.5q0 -68 115 -68q31 0 108 15l4 -150q-75 -10 -127 -10q-231 0 -231 152q0 86 87.5 138.5t234.5 70.5z" />
    <glyph glyph-name="tilde" unicode="&#x2dc;" horiz-adv-x="712" 
d="M215 1436q44 0 81 -19.5t61 -48t45 -56.5t43.5 -47.5t46.5 -19.5q44 0 59.5 42t13.5 138h103q6 -49 6 -92q0 -120 -44.5 -180.5t-123.5 -60.5q-40 0 -74 19.5t-57.5 47t-45 55t-46.5 47t-52 19.5q-45 0 -61 -39t-14 -137h-103q-6 52 -6 92q0 118 45 179t123 61z" />
    <glyph glyph-name="hungarumlaut" unicode="&#x2dd;" horiz-adv-x="704" 
d="M154 1065l-99 57l181 338l137 -82zM430 1067l-94 66l203 325l133 -90z" />
    <glyph glyph-name="Wgrave" unicode="&#x1e80;" horiz-adv-x="1734" 
d="M743 516l-106 -516h-330l-311 1229h250l123 -559q62 -303 88 -469h55q54 325 86 467l131 561h297l129 -561q50 -232 86 -467h51q31 181 90 469l117 559h240l-307 -1229h-345l-106 516q-70 343 -96 516h-43q-42 -239 -99 -516zM1032 1341l-540 140l53 168l522 -191z" />
    <glyph glyph-name="wgrave" unicode="&#x1e81;" horiz-adv-x="1521" 
d="M895 963l94 -377q47 -179 92 -420h37q17 82 101 424l86 373h219l-287 -963h-289l-100 420q-51 220 -76 381h-33q-41 -225 -75 -381l-97 -420h-282l-287 963h227l97 -373q68 -256 102 -424h37q45 240 92 420l92 377h250zM932 1061l-508 225l86 160l477 -277z" />
    <glyph glyph-name="Wacute" unicode="&#x1e82;" horiz-adv-x="1734" 
d="M743 516l-106 -516h-330l-311 1229h250l123 -559q62 -303 88 -469h55q54 325 86 467l131 561h297l129 -561q50 -232 86 -467h51q31 181 90 469l117 559h240l-307 -1229h-345l-106 516q-70 343 -96 516h-43q-42 -239 -99 -516zM688 1341l-35 117l523 193l53 -172z" />
    <glyph glyph-name="wacute" unicode="&#x1e83;" horiz-adv-x="1521" 
d="M895 963l94 -377q47 -179 92 -420h37q17 82 101 424l86 373h219l-287 -963h-289l-100 420q-51 220 -76 381h-33q-41 -225 -75 -381l-97 -420h-282l-287 963h227l97 -373q68 -256 102 -424h37q45 240 92 420l92 377h250zM621 1061l-56 108l479 277l82 -158z" />
    <glyph glyph-name="Wdieresis" unicode="&#x1e84;" horiz-adv-x="1734" 
d="M743 516l-106 -516h-330l-311 1229h250l123 -559q62 -303 88 -469h55q54 325 86 467l131 561h297l129 -561q50 -232 86 -467h51q31 181 90 469l117 559h240l-307 -1229h-345l-106 516q-70 343 -96 516h-43q-42 -239 -99 -516zM575 1563h218v-211h-218v211zM934 1563h217
v-211h-217v211z" />
    <glyph glyph-name="wdieresis" unicode="&#x1e85;" horiz-adv-x="1521" 
d="M895 963l94 -377q47 -179 92 -420h37q17 82 101 424l86 373h219l-287 -963h-289l-100 420q-51 220 -76 381h-33q-41 -225 -75 -381l-97 -420h-282l-287 963h227l97 -373q68 -256 102 -424h37q45 240 92 420l92 377h250zM475 1346h217v-211h-217v211zM834 1346h217v-211
h-217v211z" />
    <glyph glyph-name="uni1E9E" unicode="&#x1e9e;" horiz-adv-x="1232" 
d="M819 -20q-121 0 -208 40t-134 111l80 176q89 -129 264 -129q146 0 146 115q0 57 -42 91t-130 71q-118 50 -162 83q-97 72 -98 185q0 105 82 181.5t210 125.5l-6 23q-116 -19 -252 -19q-109 0 -161 -60.5t-52 -170.5v-803h-233v813q0 202 122.5 309t356.5 107h426v-191
q-287 -129 -287 -262q0 -54 40.5 -88t121.5 -70q66 -31 107.5 -56t83.5 -63.5t62 -90t20 -117.5q0 -148 -89.5 -229.5t-267.5 -81.5z" />
    <glyph glyph-name="endash" unicode="&#x2013;" horiz-adv-x="974" 
d="M41 602h893v-203h-893v203z" />
    <glyph glyph-name="emdash" unicode="&#x2014;" horiz-adv-x="1761" 
d="M41 602h1679v-203h-1679v203z" />
    <glyph glyph-name="quoteleft" unicode="&#x2018;" horiz-adv-x="415" 
d="M276 662h-227l187 567h124v-12z" />
    <glyph glyph-name="quoteright" unicode="&#x2019;" horiz-adv-x="415" 
d="M141 1229h228l-189 -567h-123v12z" />
    <glyph glyph-name="quotesinglbase" unicode="&#x201a;" horiz-adv-x="411" 
d="M137 279h228l-189 -568h-123v13z" />
    <glyph glyph-name="quotedblleft" unicode="&#x201c;" horiz-adv-x="765" 
d="M287 662h-228l187 567h125v-12zM635 662h-227l186 567h125v-12z" />
    <glyph glyph-name="quotedblright" unicode="&#x201d;" horiz-adv-x="768" 
d="M141 1229h228l-189 -567h-123v12zM492 1229h227l-189 -567h-122v12z" />
    <glyph glyph-name="quotedblbase" unicode="&#x201e;" horiz-adv-x="753" 
d="M117 279h227l-188 -568h-123v13zM467 279h227l-188 -568h-123v13z" />
    <glyph glyph-name="dagger" unicode="&#x2020;" horiz-adv-x="1193" 
d="M713 -430h-232v1218h-239v-370h-187v545h426v409h232v-409h426v-545h-187v370h-239v-1218z" />
    <glyph glyph-name="daggerdbl" unicode="&#x2021;" horiz-adv-x="1224" 
d="M496 1372h233v-350h424v-393h-186v217h-238v-672h238v219h186v-393h-424v-430h-233v430h-424v393h186v-219h238v672h-238v-217h-186v393h424v350z" />
    <glyph glyph-name="bullet" unicode="&#x2022;" horiz-adv-x="569" 
d="M92 692h385v-375h-385v375z" />
    <glyph glyph-name="ellipsis" unicode="&#x2026;" horiz-adv-x="1198" 
d="M66 250h256v-250h-256v250zM473 250h256v-250h-256v250zM883 250h256v-250h-256v250z" />
    <glyph glyph-name="perthousand" unicode="&#x2030;" horiz-adv-x="2267" 
d="M1892 -20q-157 0 -249.5 95.5t-92.5 260.5q0 162 92 255t250 93t250 -93t92 -255q0 -165 -92.5 -260.5t-249.5 -95.5zM1892 129q80 0 124 54.5t44 152.5q0 96 -44.5 147.5t-123.5 51.5t-123.5 -51.5t-44.5 -147.5q0 -99 43.5 -153t124.5 -54zM403 545q-157 0 -249.5 95.5
t-92.5 260.5q0 162 92.5 256t249.5 94t249.5 -94t92.5 -256q0 -165 -92.5 -260.5t-249.5 -95.5zM401 694q81 0 125.5 54t44.5 153q0 96 -44.5 147.5t-123.5 51.5q-80 0 -123.5 -51.5t-43.5 -147.5q0 -99 42 -153t123 -54zM1137 -20q-157 0 -249.5 95.5t-92.5 260.5
q0 162 92 255t250 93t250 -93t92 -255q0 -165 -92.5 -260.5t-249.5 -95.5zM1137 129q80 0 124 54.5t44 152.5q0 96 -44.5 147.5t-123.5 51.5t-123.5 -51.5t-44.5 -147.5q0 -99 43.5 -153t124.5 -54zM1124 1229h306v-12l-576 -537l-45 35zM420 0h-303v12l575 537l45 -35z" />
    <glyph glyph-name="guilsinglleft" unicode="&#x2039;" horiz-adv-x="763" 
d="M723 68h-215l-471 444v33l471 444h215v-24l-457 -433v-8l457 -432v-24z" />
    <glyph glyph-name="guilsinglright" unicode="&#x203a;" horiz-adv-x="768" 
d="M260 59h-213v25l455 434v6l-455 432v25h213l471 -444v-33z" />
    <glyph glyph-name="fraction" unicode="&#x2044;" horiz-adv-x="69" 
d="M387 1229h305v-12l-575 -537l-45 35zM-317 0h-304v12l576 537l45 -35z" />
    <glyph glyph-name="Euro" unicode="&#x20ac;" horiz-adv-x="1345" 
d="M729 -27q-226 0 -368.5 123.5t-182.5 347.5h-137v99h125q-2 25 -2 73q0 42 2 60h-125v98h135q38 228 184.5 354.5t374.5 126.5t365 -122.5t170 -346.5l-223 -43q-30 156 -106 234t-212 78q-268 0 -323 -281h305v-98h-318q-2 -18 -2 -60q0 -50 2 -73h318v-99h-303
q28 -133 108 -203.5t211 -70.5q144 0 219 79.5t107 242.5l221 -41q-31 -226 -171.5 -352t-373.5 -126z" />
    <glyph glyph-name="uni2116" unicode="&#x2116;" horiz-adv-x="2209" 
d="M1368 352h727v-194h-727v194zM1733 635q95 0 142.5 60t47.5 165t-47.5 163t-142.5 58t-144 -58t-49 -163t48 -165t145 -60zM1733 467q-179 0 -283 105t-104 288q0 182 104 285.5t283 103.5q178 0 281.5 -103.5t103.5 -285.5t-103.5 -287.5t-281.5 -105.5zM887 0l-316 559
q-93 171 -215 465l-37 -4q23 -341 23 -598v-422h-219v1229h334l270 -481q130 -231 238 -508l36 2q-22 319 -22 561v426h215v-1229h-307z" />
    <glyph glyph-name="trademark" unicode="&#x2122;" horiz-adv-x="1847" 
d="M43 1077v152h647v-152h-235v-555h-176v555h-236zM944 778v-256h-149v707h290l72 -193q77 -199 109 -299h28q46 142 109 299l76 193h272v-707h-176v256q0 31 6 301h-29q-56 -155 -120 -311l-93 -223h-155l-88 219q-74 181 -123 315h-33q4 -180 4 -301z" />
    <glyph glyph-name="uni2190" unicode="&#x2190;" horiz-adv-x="1566" 
d="M70 549v82l643 586l139 -170q-277 -218 -508 -369l4 -12q272 26 676 26h455v-205h-455q-394 0 -676 27l-4 -12q221 -142 508 -369l-141 -168z" />
    <glyph glyph-name="arrowup" unicode="&#x2191;" horiz-adv-x="1449" 
d="M682 1331h82l586 -641l-170 -139q-207 260 -369 508l-12 -4q26 -269 26 -678v-453h-204v453q0 409 26 678l-12 4q-152 -237 -369 -508l-168 139z" />
    <glyph glyph-name="uni2192" unicode="&#x2192;" horiz-adv-x="1566" 
d="M1495 635v-82l-641 -586l-139 170q260 207 508 369l-4 12q-269 -26 -678 -26h-453v204h453q409 0 678 -26l4 12q-237 152 -508 369l139 168z" />
    <glyph glyph-name="arrowdown" unicode="&#x2193;" horiz-adv-x="1449" 
d="M766 -94h-80l-588 643l170 139q223 -283 369 -510l12 4q-26 272 -26 678v453h206v-453q0 -386 -28 -678l12 -4q186 284 371 510l168 -141z" />
    <glyph glyph-name="minus" unicode="&#x2212;" horiz-adv-x="1005" 
d="M938 532h-872v197h872v-197z" />
    <glyph glyph-name="uni25A0" unicode="&#x25a0;" horiz-adv-x="1843" 
d="M74 -244q4 283 4 848t-4 848q283 -6 848 -6q564 0 847 6q-4 -283 -4 -848t4 -848q-424 6 -847 6t-848 -6z" />
    <glyph glyph-name="uni25B2" unicode="&#x25b2;" horiz-adv-x="1843" 
d="M154 0v8l768 1264h8l762 -1264v-8h-1538z" />
    <glyph glyph-name="uni25B3" unicode="&#x25b3;" horiz-adv-x="1843" 
d="M154 0v8l768 1264h8l762 -1264v-8h-1538zM926 193q146 0 448 -25l6 14q-260 371 -446 779h-14q-189 -408 -449 -779l6 -14q275 25 449 25z" />
    <glyph glyph-name="uni25B6" unicode="&#x25b6;" horiz-adv-x="1843" 
d="M369 1391h8l1263 -768v-9l-1263 -761h-8v1538z" />
    <glyph glyph-name="uni25B7" unicode="&#x25b7;" horiz-adv-x="1843" 
d="M369 1391h8l1263 -768v-9l-1263 -761h-8v1538zM561 618q0 -158 -24 -448l14 -6q373 262 778 446v15q-409 189 -778 448l-14 -6q24 -264 24 -449z" />
    <glyph glyph-name="uni25BC" unicode="&#x25bc;" horiz-adv-x="1843" 
d="M1690 1229v-8l-768 -1264h-9l-761 1264v8h1538z" />
    <glyph glyph-name="uni25BD" unicode="&#x25bd;" horiz-adv-x="1843" 
d="M1370 1047l-6 14q-275 -25 -449 -25q-146 0 -448 25l-6 -14q260 -371 446 -779h15q190 412 448 779zM150 1229h1538v-8l-768 -1264h-9l-761 1264v8z" />
    <glyph glyph-name="uni25C0" unicode="&#x25c0;" horiz-adv-x="1843" 
d="M1475 1391h-9l-1263 -768v-9l1263 -761h9v1538z" />
    <glyph glyph-name="uni25C1" unicode="&#x25c1;" horiz-adv-x="1843" 
d="M1466 1391h9v-1538h-9l-1263 761v9zM1282 618q0 174 25 449l-15 6q-369 -259 -778 -448v-15q405 -184 778 -446l15 6q-25 302 -25 448z" />
    <glyph glyph-name="uni25C6" unicode="&#x25c6;" horiz-adv-x="1843" 
d="M922 -395q-483 521 -990 989q540 502 990 989q457 -493 989 -989q-500 -461 -989 -989z" />
    <glyph glyph-name="uni25CF" unicode="&#x25cf;" horiz-adv-x="1843" 
d="M-6 602q0 284 112.5 494t323 322t494.5 112q427 0 676 -249.5t249 -678.5t-249 -678.5t-676 -249.5q-284 0 -494.5 112t-323 322t-112.5 494z" />
    <glyph glyph-name="uni2605" unicode="&#x2605;" horiz-adv-x="1843" 
d="M1448 -160l-526 305l-523 -305l-6 4l125 592l-450 404l2 8l604 63l244 553h8l243 -553l605 -63l2 -8l-451 -404l125 -592z" />
    <glyph glyph-name="uni2610" unicode="&#x2610;" horiz-adv-x="1843" 
d="M1489 0h-1133v1133h1133v-1133zM924 166q179 0 411 -10q-12 206 -12 411q0 206 12 412q-278 -12 -411 -12q-134 0 -412 12q10 -232 10 -412q0 -183 -10 -411q232 10 412 10z" />
    <glyph glyph-name="uni2611" unicode="&#x2611;" horiz-adv-x="1843" 
d="M633 639l121 123q134 -147 209 -262q80 144 183.5 306t179.5 272t204 290l162 -119q-213 -258 -378 -486t-308 -474h-91q-111 179 -282 350zM356 0v1133h844v-7l-102 -157q-28 0 -87 -1t-87 -1q-64 0 -412 10q10 -338 10 -410q0 -69 -10 -411q232 10 412 10
q183 0 411 -10q-1 48 -4.5 135t-5.5 158t-2 135l160 213h6v-797h-1133z" />
    <glyph glyph-name="uni2612" unicode="&#x2612;" horiz-adv-x="1843" 
d="M1489 0h-1133v1133h1133v-1133zM1126 268q-88 93 -204 228q-144 -168 -199 -228l-105 101q120 110 230 200q-120 98 -230 199l105 102q112 -126 201 -229q86 103 202 229l101 -102q-190 -167 -230 -199q110 -90 230 -200zM924 166q179 0 411 -10q-12 206 -12 411
q0 206 12 412q-278 -12 -411 -12q-134 0 -412 12q10 -232 10 -412q0 -183 -10 -411q232 10 412 10z" />
    <glyph glyph-name="uni2661" unicode="&#x2661;" horiz-adv-x="1843" 
d="M629 432q197 -128 299 -270q102 142 299 270q152 100 231.5 204t79.5 230q0 125 -62 197t-190 72q-253 0 -328 -367h-61q-75 367 -326 367q-128 0 -191 -72.5t-63 -196.5q0 -125 79.5 -229.5t232.5 -204.5zM920 -111q-61 107 -154 193.5t-246 198.5q-78 55 -138 105.5
t-114 110t-89.5 118.5t-56 128t-20.5 142q0 204 108 318t296 114q164 0 260.5 -78t146.5 -244h19q48 165 144.5 243.5t262.5 78.5q185 0 293.5 -114.5t108.5 -317.5q0 -91 -30 -174t-88.5 -157.5t-129 -138.5t-168.5 -134q-152 -110 -245 -197t-152 -195h-8z" />
    <glyph glyph-name="uni2726" unicode="&#x2726;" horiz-adv-x="1843" 
d="M1690 616v-24q-276 -85 -473.5 -284.5t-284.5 -471.5h-23q-88 272 -284.5 471.5t-472.5 284.5v24q276 85 472.5 284.5t284.5 471.5h23q87 -272 284.5 -471.5t473.5 -284.5z" />
    <glyph glyph-name="uni2727" unicode="&#x2727;" horiz-adv-x="1843" 
d="M1692 606v-8q-276 -85 -476.5 -287.5t-287.5 -474.5h-8q-87 272 -288.5 475.5t-477.5 288.5v8q276 85 476 288t288 476h8q88 -273 289 -477t477 -289zM1380 596v16q-178 56 -286.5 163t-163.5 286h-15q-57 -180 -164 -286.5t-286 -162.5v-16q178 -56 286.5 -163
t163.5 -286h15q57 180 164 286.5t286 162.5z" />
    <glyph glyph-name="uni2728" unicode="&#x2728;" horiz-adv-x="1843" 
d="M1255 424v-8q-225 -70 -387.5 -234.5t-232.5 -386.5h-10q-70 222 -234.5 387.5t-390.5 235.5v8q226 70 390 235t235 388h8q72 -223 235 -389t387 -236zM623 43h8q47 146 138.5 237t238.5 138v10q-147 50 -238.5 141t-138.5 236h-8q-47 -145 -138 -236t-237 -141v-10
q145 -47 236.5 -138t138.5 -237zM1194 1204v-10q-103 -32 -176.5 -107.5t-106.5 -179.5h-10q-31 103 -105.5 179t-179.5 110v8q104 32 177 108t108 181h8q33 -104 107.5 -180.5t177.5 -108.5zM1079 1198v6q-68 22 -108 62t-62 108h-6q-22 -68 -62 -109t-106 -61v-6
q66 -22 106 -62t62 -106h6q22 66 62.5 106t107.5 62zM1843 784q-170 -52 -293 -176t-176 -293h-8q-53 169 -177 293t-296 178v9q171 52 293.5 176.5t177.5 294.5h8q53 -169 177 -294t294 -179v-9zM1657 786v11q-112 35 -181 103t-104 179h-8q-35 -110 -104 -178.5
t-179 -103.5v-11q110 -35 179 -103.5t104 -178.5h8q35 111 104 179t181 103z" />
    <glyph glyph-name="uni2764" unicode="&#x2764;" horiz-adv-x="1843" 
d="M920 -111q-61 107 -154 193.5t-246 198.5q-78 55 -138 105.5t-114 110t-89.5 118.5t-56 128t-20.5 142q0 204 108 318t296 114q164 0 260.5 -78t146.5 -244h19q48 165 144.5 243.5t262.5 78.5q185 0 293.5 -114.5t108.5 -317.5q0 -91 -30 -174t-88.5 -157.5t-129 -138.5
t-168.5 -134q-152 -110 -245 -197t-152 -195h-8z" />
    <glyph glyph-name="uni2780" unicode="&#x2780;" horiz-adv-x="1771" 
d="M885 -33q159 0 283 49t202.5 137.5t119 208.5t40.5 265q0 144 -40.5 263t-119.5 206.5t-202.5 135.5t-282.5 48q-158 0 -281.5 -48t-202.5 -135.5t-120 -206.5t-41 -263q0 -145 40.5 -265t119 -208.5t202.5 -137.5t283 -49zM885 1448q195 0 351.5 -61t258.5 -170.5
t156.5 -260t54.5 -329.5q0 -144 -34 -270.5t-102 -229t-165.5 -175.5t-230 -113t-289.5 -40q-195 0 -351.5 61.5t-259 172t-157 262t-54.5 332.5q0 179 54.5 329.5t157 260t259 170.5t351.5 61zM1204 188h-629v156h250v561q-81 -42 -219 -90l-59 148l356 106h105v-725h196
v-156z" />
    <glyph glyph-name="uni2781" unicode="&#x2781;" horiz-adv-x="1771" 
d="M885 -33q159 0 283 49t202.5 137.5t119 208.5t40.5 265q0 144 -40.5 263t-119.5 206.5t-202.5 135.5t-282.5 48q-158 0 -281.5 -48t-202.5 -135.5t-120 -206.5t-41 -263q0 -145 40.5 -265t119 -208.5t202.5 -137.5t283 -49zM885 1448q195 0 351.5 -61t258.5 -170.5
t156.5 -260t54.5 -329.5q0 -144 -34 -270.5t-102 -229t-165.5 -175.5t-230 -113t-289.5 -40q-195 0 -351.5 61.5t-259 172t-157 262t-54.5 332.5q0 179 54.5 329.5t157 260t259 170.5t351.5 61zM903 940q-100 0 -153.5 -52t-71.5 -151l-178 23q56 332 403 332
q173 0 265 -70.5t92 -212.5q0 -120 -96.5 -189.5t-278.5 -109.5q-142 -35 -193 -69.5t-57 -106.5q150 16 315 16h316v-155h-793q0 15 -1 46.5t-1 49.5q0 145 75.5 220.5t248.5 119.5q169 44 223.5 80.5t54.5 103.5q0 125 -170 125z" />
    <glyph glyph-name="uni2782" unicode="&#x2782;" horiz-adv-x="1771" 
d="M885 -33q159 0 283 49t202.5 137.5t119 208.5t40.5 265q0 144 -40.5 263t-119.5 206.5t-202.5 135.5t-282.5 48q-158 0 -281.5 -48t-202.5 -135.5t-120 -206.5t-41 -263q0 -145 40.5 -265t119 -208.5t202.5 -137.5t283 -49zM885 1448q195 0 351.5 -61t258.5 -170.5
t156.5 -260t54.5 -329.5q0 -144 -34 -270.5t-102 -229t-165.5 -175.5t-230 -113t-289.5 -40q-195 0 -351.5 61.5t-259 172t-157 262t-54.5 332.5q0 179 54.5 329.5t157 260t259 170.5t351.5 61zM885 174q-182 0 -284.5 69t-129.5 216l186 24q22 -85 72.5 -126.5t157.5 -41.5
q194 0 194 129q0 63 -38.5 91t-141.5 28h-160v129h158q154 0 154 119q0 65 -39.5 95t-126.5 30q-95 0 -140 -39.5t-65 -122.5l-174 17q50 292 377 292q178 0 261 -58.5t83 -176.5q0 -87 -54 -137.5t-161 -71.5v-16q143 -12 199.5 -58t56.5 -141q0 -116 -94.5 -183
t-290.5 -67z" />
    <glyph glyph-name="uni2783" unicode="&#x2783;" horiz-adv-x="1771" 
d="M885 -33q159 0 283 49t202.5 137.5t119 208.5t40.5 265q0 144 -40.5 263t-119.5 206.5t-202.5 135.5t-282.5 48q-158 0 -281.5 -48t-202.5 -135.5t-120 -206.5t-41 -263q0 -145 40.5 -265t119 -208.5t202.5 -137.5t283 -49zM885 1448q195 0 351.5 -61t258.5 -170.5
t156.5 -260t54.5 -329.5q0 -144 -34 -270.5t-102 -229t-165.5 -175.5t-230 -113t-289.5 -40q-195 0 -351.5 61.5t-259 172t-157 262t-54.5 332.5q0 179 54.5 329.5t157 260t259 170.5t351.5 61zM1257 395h-129v-202h-184v202h-538v125l493 553h229v-534h129v-144zM897 539
h47v387l-14 4l-346 -400l6 -8q185 17 307 17z" />
    <glyph glyph-name="uni2784" unicode="&#x2784;" horiz-adv-x="1771" 
d="M885 -33q159 0 283 49t202.5 137.5t119 208.5t40.5 265q0 144 -40.5 263t-119.5 206.5t-202.5 135.5t-282.5 48q-158 0 -281.5 -48t-202.5 -135.5t-120 -206.5t-41 -263q0 -145 40.5 -265t119 -208.5t202.5 -137.5t283 -49zM885 1448q195 0 351.5 -61t258.5 -170.5
t156.5 -260t54.5 -329.5q0 -144 -34 -270.5t-102 -229t-165.5 -175.5t-230 -113t-289.5 -40q-195 0 -351.5 61.5t-259 172t-157 262t-54.5 332.5q0 179 54.5 329.5t157 260t259 170.5t351.5 61zM893 317q104 0 148 36.5t44 107.5q0 137 -192 137q-128 0 -211 -51l-145 51
v471h682v-166q-262 0 -519 17v-258q100 63 252 63q157 0 238.5 -70.5t81.5 -195.5q0 -145 -95.5 -215t-287.5 -70q-167 0 -266.5 57t-149.5 177l176 51q22 -44 50.5 -73t78 -49t115.5 -20z" />
    <glyph glyph-name="uni2785" unicode="&#x2785;" horiz-adv-x="1771" 
d="M899 616q-113 0 -169 -40.5t-56 -102.5q0 -65 54.5 -106t160.5 -41q108 0 153 40.5t45 112.5q0 137 -188 137zM885 -33q159 0 283 49t202.5 137.5t119 208.5t40.5 265q0 144 -40.5 263t-119.5 206.5t-202.5 135.5t-282.5 48q-158 0 -281.5 -48t-202.5 -135.5t-120 -206.5
t-41 -263q0 -145 40.5 -265t119 -208.5t202.5 -137.5t283 -49zM885 1448q195 0 351.5 -61t258.5 -170.5t156.5 -260t54.5 -329.5q0 -144 -34 -270.5t-102 -229t-165.5 -175.5t-230 -113t-289.5 -40q-195 0 -351.5 61.5t-259 172t-157 262t-54.5 332.5q0 179 54.5 329.5
t157 260t259 170.5t351.5 61zM1272 475q0 -142 -98 -219.5t-289 -77.5q-95 0 -167.5 22.5t-128.5 72t-85 136.5t-29 209q0 102 24 186t73 149.5t131 102t192 36.5q178 0 257 -69.5t99 -211.5l-180 -20q-16 78 -55.5 113.5t-124.5 35.5q-128 0 -184 -86t-56 -276v-13l21 -2
q67 162 297 162q138 0 220.5 -60t82.5 -190z" />
    <glyph glyph-name="uni2786" unicode="&#x2786;" horiz-adv-x="1771" 
d="M885 -33q159 0 283 49t202.5 137.5t119 208.5t40.5 265q0 144 -40.5 263t-119.5 206.5t-202.5 135.5t-282.5 48q-158 0 -281.5 -48t-202.5 -135.5t-120 -206.5t-41 -263q0 -145 40.5 -265t119 -208.5t202.5 -137.5t283 -49zM885 1448q195 0 351.5 -61t258.5 -170.5
t156.5 -260t54.5 -329.5q0 -144 -34 -270.5t-102 -229t-165.5 -175.5t-230 -113t-289.5 -40q-195 0 -351.5 61.5t-259 172t-157 262t-54.5 332.5q0 179 54.5 329.5t157 260t259 170.5t351.5 61zM492 905v164h780v-164q-306 -289 -334 -717h-211q12 212 115.5 401t279.5 333
q-217 -17 -344 -17h-286z" />
    <glyph glyph-name="uni2787" unicode="&#x2787;" horiz-adv-x="1771" 
d="M883 569q-209 0 -209 -127q0 -125 209 -125q211 0 211 125q0 59 -47 93t-164 34zM883 940q-93 0 -135.5 -30.5t-42.5 -92.5q0 -124 178 -127q178 3 178 127q0 62 -42.5 92.5t-135.5 30.5zM885 -33q159 0 283 49t202.5 137.5t119 208.5t40.5 265q0 144 -40.5 263
t-119.5 206.5t-202.5 135.5t-282.5 48q-158 0 -281.5 -48t-202.5 -135.5t-120 -206.5t-41 -263q0 -145 40.5 -265t119 -208.5t202.5 -137.5t283 -49zM885 1448q195 0 351.5 -61t258.5 -170.5t156.5 -260t54.5 -329.5q0 -144 -34 -270.5t-102 -229t-165.5 -175.5t-230 -113
t-289.5 -40q-195 0 -351.5 61.5t-259 172t-157 262t-54.5 332.5q0 179 54.5 329.5t157 260t259 170.5t351.5 61zM883 174q-398 0 -398 248q0 84 60.5 135.5t193.5 69.5v16q-107 23 -160.5 72t-52.5 135q0 237 357 237q358 0 358 -237q0 -87 -53 -135.5t-160 -71.5v-16
q133 -18 193.5 -69.5t60.5 -135.5q0 -248 -399 -248z" />
    <glyph glyph-name="uni2788" unicode="&#x2788;" horiz-adv-x="1771" 
d="M870 635q109 0 164.5 43t55.5 110q0 65 -54 106.5t-155 41.5t-150 -44t-49 -114q0 -69 48 -106t140 -37zM885 -33q159 0 283 49t202.5 137.5t119 208.5t40.5 265q0 144 -40.5 263t-119.5 206.5t-202.5 135.5t-282.5 48q-158 0 -281.5 -48t-202.5 -135.5t-120 -206.5
t-41 -263q0 -145 40.5 -265t119 -208.5t202.5 -137.5t283 -49zM885 1448q195 0 351.5 -61t258.5 -170.5t156.5 -260t54.5 -329.5q0 -144 -34 -270.5t-102 -229t-165.5 -175.5t-230 -113t-289.5 -40q-195 0 -351.5 61.5t-259 172t-157 262t-54.5 332.5q0 179 54.5 329.5
t157 260t259 170.5t351.5 61zM877 174q-182 0 -271 67.5t-112 194.5l180 31q29 -143 207 -143q124 0 177.5 85t53.5 273v6l-18 2q-72 -166 -291 -166q-137 0 -220 62.5t-83 195.5q0 142 98 223.5t281 81.5q96 0 168.5 -22.5t128 -72.5t84 -137.5t28.5 -209.5
q0 -102 -23.5 -185.5t-71 -148.5t-128 -101t-188.5 -36z" />
    <glyph glyph-name="uni2789" unicode="&#x2789;" horiz-adv-x="1763" 
d="M819 207h-393v133h147v573q-57 -31 -129 -59l-45 123l238 72h78v-709h104v-133zM1106 930q-129 0 -129 -301q0 -307 127 -307q129 0 129 307q0 301 -127 301zM1106 1067q131 0 201.5 -113t70.5 -325q0 -213 -70 -327t-202 -114t-203.5 114.5t-71.5 326.5
q0 211 72.5 324.5t202.5 113.5zM885 -33q159 0 283 49t202.5 137.5t119 208.5t40.5 265q0 144 -40.5 263t-119.5 206.5t-202.5 135.5t-282.5 48q-158 0 -281.5 -48t-202.5 -135.5t-120 -206.5t-41 -263q0 -145 40.5 -265t119 -208.5t202.5 -137.5t283 -49zM885 1448
q195 0 351.5 -61t258.5 -170.5t156.5 -260t54.5 -329.5q0 -144 -34 -270.5t-102 -229t-165.5 -175.5t-230 -113t-289.5 -40q-195 0 -351.5 61.5t-259 172t-157 262t-54.5 332.5q0 179 54.5 329.5t157 260t259 170.5t351.5 61z" />
    <glyph glyph-name="uni278A" unicode="&#x278a;" horiz-adv-x="1771" 
d="M575 344v-156h629v156h-196v725h-105l-356 -106l61 -148q152 54 217 86v-557h-250zM885 1448q195 0 351.5 -61t258.5 -170.5t156.5 -260t54.5 -329.5q0 -144 -34 -270.5t-102 -229t-165.5 -175.5t-230 -113t-289.5 -40q-195 0 -351.5 61.5t-259 172t-157 262t-54.5 332.5
q0 179 54.5 329.5t157 260t259 170.5t351.5 61z" />
    <glyph glyph-name="uni278B" unicode="&#x278b;" horiz-adv-x="1771" 
d="M897 942q170 0 170 -125q0 -66 -55 -103.5t-224 -82.5q-115 -28 -183.5 -68t-104 -105.5t-35.5 -164.5q0 -32 4 -98h791v155h-316q-159 0 -313 -14q6 71 57.5 106.5t192.5 69.5q179 38 275.5 108.5t96.5 190.5q0 142 -91.5 212.5t-264.5 70.5q-347 0 -403 -334l178 -23
q20 101 72.5 153t152.5 52zM885 1448q195 0 351.5 -61t258.5 -170.5t156.5 -260t54.5 -329.5q0 -144 -34 -270.5t-102 -229t-165.5 -175.5t-230 -113t-289.5 -40q-195 0 -351.5 61.5t-259 172t-157 262t-54.5 332.5q0 179 54.5 329.5t157 260t259 170.5t351.5 61z" />
    <glyph glyph-name="uni278C" unicode="&#x278c;" horiz-adv-x="1771" 
d="M885 174q196 0 289.5 67t93.5 183q0 95 -55.5 141t-198.5 58v18q107 21 161 70.5t54 136.5q0 118 -83 176.5t-261 58.5q-171 0 -262 -75t-117 -217l176 -17q20 84 64.5 124t140.5 40q87 0 126.5 -31t39.5 -96q0 -119 -154 -119h-158v-127h160q102 0 141 -29t39 -92
q0 -127 -194 -127q-108 0 -159 41t-73 125l-184 -22q27 -149 129.5 -218t284.5 -69zM885 1448q195 0 351.5 -61t258.5 -170.5t156.5 -260t54.5 -329.5q0 -144 -34 -270.5t-102 -229t-165.5 -175.5t-230 -113t-289.5 -40q-195 0 -351.5 61.5t-259 172t-157 262t-54.5 332.5
q0 179 54.5 329.5t157 260t259 170.5t351.5 61z" />
    <glyph glyph-name="uni278D" unicode="&#x278d;" horiz-adv-x="1771" 
d="M1257 393v144h-129v534h-229l-493 -551v-127h538v-203h184v203h129zM858 537q-75 0 -266 -17l-12 15l352 393l12 -4v-387h-86zM885 1448q195 0 351.5 -61t258.5 -170.5t156.5 -260t54.5 -329.5q0 -144 -34 -270.5t-102 -229t-165.5 -175.5t-230 -113t-289.5 -40
q-195 0 -351.5 61.5t-259 172t-157 262t-54.5 332.5q0 179 54.5 329.5t157 260t259 170.5t351.5 61z" />
    <glyph glyph-name="uni278E" unicode="&#x278e;" horiz-adv-x="1771" 
d="M893 317q-96 0 -152.5 37.5t-91.5 104.5l-176 -51q50 -120 149.5 -177t266.5 -57q383 0 383 287q0 124 -82 195t-238 71q-146 0 -252 -65v260q241 -19 519 -19v166h-682v-469l145 -53q83 51 211 51q192 0 192 -137q0 -70 -44 -107t-148 -37zM885 1448q195 0 351.5 -61
t258.5 -170.5t156.5 -260t54.5 -329.5q0 -144 -34 -270.5t-102 -229t-165.5 -175.5t-230 -113t-289.5 -40q-195 0 -351.5 61.5t-259 172t-157 262t-54.5 332.5q0 179 54.5 329.5t157 260t259 170.5t351.5 61z" />
    <glyph glyph-name="uni278F" unicode="&#x278f;" horiz-adv-x="1771" 
d="M1272 475q0 129 -83 189.5t-220 60.5q-233 0 -295 -164l-23 4q1 204 56 289.5t184 85.5q85 0 124.5 -36t55.5 -113l180 20q-10 69 -31.5 118t-62 86.5t-105.5 56t-157 18.5q-110 0 -192 -36t-131 -101.5t-73 -149t-24 -185.5q0 -122 29 -209.5t85 -137.5t128.5 -72.5
t167.5 -22.5q191 0 289 78t98 221zM899 614q99 0 143.5 -34.5t44.5 -102.5q0 -71 -45 -111t-153 -40q-105 0 -160 40.5t-55 104.5q0 63 55.5 103t169.5 40zM885 1448q195 0 351.5 -61t258.5 -170.5t156.5 -260t54.5 -329.5q0 -144 -34 -270.5t-102 -229t-165.5 -175.5
t-230 -113t-289.5 -40q-195 0 -351.5 61.5t-259 172t-157 262t-54.5 332.5q0 179 54.5 329.5t157 260t259 170.5t351.5 61z" />
    <glyph glyph-name="uni2790" unicode="&#x2790;" horiz-adv-x="1771" 
d="M492 905h286q142 0 342 17q-174 -144 -277 -333.5t-116 -402.5h211q25 430 334 719v162h-780v-162zM885 1448q195 0 351.5 -61t258.5 -170.5t156.5 -260t54.5 -329.5q0 -144 -34 -270.5t-102 -229t-165.5 -175.5t-230 -113t-289.5 -40q-195 0 -351.5 61.5t-259 172
t-157 262t-54.5 332.5q0 179 54.5 329.5t157 260t259 170.5t351.5 61z" />
    <glyph glyph-name="uni2791" unicode="&#x2791;" horiz-adv-x="1771" 
d="M883 174q399 0 399 248q0 85 -60 136t-194 69v18q106 21 159.5 70t53.5 135q0 237 -358 237q-354 0 -357 -237q0 -86 53.5 -135t159.5 -70v-18q-134 -18 -194 -69t-60 -136q0 -248 398 -248zM883 940q94 0 136 -30.5t42 -92.5q0 -124 -178 -127q-178 3 -178 127
q0 123 178 123zM883 569q118 0 164.5 -33.5t46.5 -91.5q0 -127 -211 -127q-209 0 -209 127q0 125 209 125zM885 1448q195 0 351.5 -61t258.5 -170.5t156.5 -260t54.5 -329.5q0 -144 -34 -270.5t-102 -229t-165.5 -175.5t-230 -113t-289.5 -40q-195 0 -351.5 61.5t-259 172
t-157 262t-54.5 332.5q0 179 54.5 329.5t157 260t259 170.5t351.5 61z" />
    <glyph glyph-name="uni2792" unicode="&#x2792;" horiz-adv-x="1771" 
d="M1288 645q0 122 -28.5 209.5t-84 137.5t-128 72.5t-168.5 22.5q-183 0 -281 -82t-98 -223q0 -133 83 -195.5t220 -62.5q217 0 289 166l20 -2q-2 -196 -53.5 -280t-177.5 -84q-178 0 -207 143l-180 -31q23 -127 112 -194.5t271 -67.5q108 0 188.5 36t128 101t71 148.5
t23.5 185.5zM870 635q-92 0 -140 37t-48 106q0 70 49 114t150 44q102 0 155.5 -42t53.5 -108t-56 -108.5t-164 -42.5zM885 1448q195 0 351.5 -61t258.5 -170.5t156.5 -260t54.5 -329.5q0 -144 -34 -270.5t-102 -229t-165.5 -175.5t-230 -113t-289.5 -40q-195 0 -351.5 61.5
t-259 172t-157 262t-54.5 332.5q0 179 54.5 329.5t157 260t259 170.5t351.5 61z" />
    <glyph glyph-name="uni2793" unicode="&#x2793;" horiz-adv-x="1763" 
d="M1106 1067q-130 0 -201 -113.5t-71 -324.5q0 -213 70 -327t202 -114t202 114t70 327q0 212 -70.5 325t-201.5 113zM416 340v-133h393v133h-104v709h-78l-238 -72l45 -123q76 26 129 53v-567h-147zM1106 930q127 0 127 -301q0 -307 -127 -307t-127 307q0 301 127 301z
M885 1448q195 0 351.5 -61t258.5 -170.5t156.5 -260t54.5 -329.5q0 -144 -34 -270.5t-102 -229t-165.5 -175.5t-230 -113t-289.5 -40q-195 0 -351.5 61.5t-259 172t-157 262t-54.5 332.5q0 179 54.5 329.5t157 260t259 170.5t351.5 61z" />
    <glyph glyph-name="uni279A" unicode="&#x279a;" horiz-adv-x="1843" 
d="M1303 739v-739h-1076v1075h758v-6l-154 -160q-123 0 -442 13q12 -238 12 -357q0 -133 -12 -403q228 10 404 10q118 0 356 -8q-10 333 -10 397l159 178h5zM1593 1382l39 -39v-765h-176q8 273 49 565l-14 8q-274 -307 -543 -576l-241 -239l-123 123l239 241
q218 218 580 541l-6 12q-232 -37 -549 -47v176h745z" />
    <glyph glyph-name="uni2B1B" unicode="&#x2b1b;" horiz-adv-x="1843" 
d="M1489 0h-1133v1133h1133v-1133z" />
    <glyph glyph-name="uni2B1C" unicode="&#x2b1c;" horiz-adv-x="1843" 
d="M1489 0h-1133v1133h1133v-1133zM924 166q179 0 411 -10q-12 206 -12 411q0 206 12 412q-278 -12 -411 -12q-134 0 -412 12q10 -232 10 -412q0 -183 -10 -411q232 10 412 10z" />
    <glyph glyph-name="commaaccent" unicode="&#xf6c3;" horiz-adv-x="364" 
d="M127 -109h176l-121 -313h-139v19z" />
    <glyph glyph-name="uniF8FF" unicode="&#xf8ff;" horiz-adv-x="2635" 
d="M1942 16q-13 -30 -123 -30l-50 2q9 212 13 508.5t8 406.5q-52 -160 -110.5 -387t-93.5 -364.5t-48 -147.5q-14 -12 -43 -12q-13 0 -50.5 5t-64.5 7q4 127 4 420q-63 2 -190 2q2 -51 2 -164q0 -244 -20 -256q-12 -10 -54 -10q-22 0 -59 3t-45 3h-6q14 232 14 422
q-30 0 -84 -1t-78 -1v-92q0 -57 1 -146.5t1 -111.5q0 -37 -2 -41q-10 -26 -39 -33.5t-123 -9.5q-2 59 -2 162q0 71 5 266q-114 -4 -132 -4q-54 -92 -120 -214.5t-95 -193.5q-14 4 -45 4q-20 0 -41.5 -2.5t-33.5 -5.5l-11 -2q-5 51 -32 102q-8 16 -98 156t-95 160
q-4 16 -4 24q0 34 27 90q-11 22 -11 50q0 35 17 98q12 38 47.5 121.5t93 213t92.5 212.5q68 0 144 20q90 -231 180 -667q10 -1 121 -5v25q0 41 -1 160t-1 182q0 239 16 262q16 29 147 31q-6 -123 -6 -236q0 -70 2 -191t2 -171v-64q25 0 78 -1t80 -1q0 183 -3 357.5t-3 185.5
q0 52 4 69.5t16 26.5q16 13 78 13h64q0 -27 -1 -78.5t-1 -75.5q0 -168 10 -496q114 3 194 9q0 53 -1 149.5t-1 138.5q0 321 17 344q20 29 86 29q14 0 40.5 -2t35.5 -2q-17 -121 -17 -541v-164q203 673 250 697q16 8 61 8l95 -6q-6 -147 -6 -350q0 -132 3 -370.5t3 -315.5
q0 -166 -8 -179zM2359 948q-24 -71 -68.5 -181t-71 -181.5t-26.5 -96.5v-4q2 -29 70 -141.5t80 -140.5q29 68 59 143t45 116l15 40q-23 127 -60.5 273.5t-42.5 172.5zM143 520q0 -16 24.5 -60.5t64.5 -116t65 -128.5q24 63 58 136.5t52.5 115.5t18.5 61v4q-1 23 -36 178.5
t-60 252.5q-187 -404 -187 -443zM2292 1245q24 -12 57 -12q40 0 61 24q149 -474 226 -763q-187 -488 -246 -500q-6 -2 -18 -2q-46 0 -136 37q-1 35 -23 87.5t-45 91t-58.5 94.5t-43.5 69q-22 40 -22 61q0 12 4.5 21.5t12.5 18.5t10 13q6 9 6 21q0 28 -35 37q187 458 250 702
z" />
    <glyph glyph-name="fi" unicode="&#xfb01;" horiz-adv-x="1173" 
d="M416 1012v-49h264v-179h-264v-784h-221v784h-160v179h160v53q0 151 83.5 239t245.5 88q86 0 164 -16l-8 -158q-79 11 -117 11q-147 0 -147 -168zM1047 0h-222v963h222v-963zM1057 1126h-240v179h240v-179z" />
    <glyph glyph-name="fl" unicode="&#xfb02;" horiz-adv-x="1163" 
d="M416 1012v-49h264v-179h-264v-784h-221v784h-160v179h160v53q0 151 83.5 239t245.5 88q86 0 164 -16l-8 -158q-79 11 -117 11q-147 0 -147 -168zM1042 1315v-1315h-221v1315h221z" />
    <glyph glyph-name="exclamdown.case" horiz-adv-x="497" 
d="M137 784h223v-784h-223v784zM377 979h-256v250h256v-250z" />
    <glyph glyph-name="questiondown.case" horiz-adv-x="1003" 
d="M303 664q105 44 105 143v22h213q2 -12 2 -36q0 -91 -40 -146.5t-141 -105.5q-97 -46 -134.5 -88.5t-37.5 -114.5q0 -170 205 -170q129 0 194 73.5t85 217.5l217 -31q-58 -451 -498 -451q-211 0 -322.5 88.5t-111.5 256.5q0 73 19.5 129t58 96t82 66.5t104.5 50.5z
M643 979h-256v250h256v-250z" />
    <glyph glyph-name="periodcentered.case" horiz-adv-x="434" 
d="M88 748h256v-250h-256v250z" />
    <glyph glyph-name="bullet.case" horiz-adv-x="569" 
d="M92 815h385v-375h-385v375z" />
    <glyph glyph-name="guillemotleft.case" horiz-adv-x="1290" 
d="M723 170h-215l-471 444v33l471 445h215v-25l-457 -432v-8l457 -432v-25zM1245 170h-215l-471 444v33l471 445h215v-25l-457 -432v-8l457 -432v-25z" />
    <glyph glyph-name="guillemotright.case" horiz-adv-x="1290" 
d="M782 164h-213v24l455 433v6l-455 432v26h213l471 -444v-33zM260 164h-213v24l455 433v6l-455 432v26h213l471 -444v-33z" />
    <glyph glyph-name="guilsinglleft.case" horiz-adv-x="772" 
d="M723 172h-215l-471 444v33l471 445h215v-25l-457 -432v-8l457 -432v-25z" />
    <glyph glyph-name="guilsinglright.case" horiz-adv-x="768" 
d="M260 162h-213v24l455 435v6l-455 432v24h213l471 -444v-33z" />
    <glyph glyph-name="hyphen.case" horiz-adv-x="716" 
d="M41 727h635v-207h-635v207z" />
    <glyph glyph-name="endash.case" horiz-adv-x="974" 
d="M41 727h893v-203h-893v203z" />
    <glyph glyph-name="emdash.case" horiz-adv-x="1761" 
d="M41 727h1679v-203h-1679v203z" />
    <glyph glyph-name="parenleft.case" horiz-adv-x="692" 
d="M104 616q0 502 373 859l144 -105q-157 -176 -224 -358.5t-67 -395.5q0 -216 66.5 -397.5t224.5 -357.5l-144 -105q-373 357 -373 860z" />
    <glyph glyph-name="parenright.case" horiz-adv-x="688" 
d="M592 621q0 -502 -373 -859l-143 105q157 176 223 358t66 396q0 216 -65.5 397.5t-223.5 357.5l143 105q373 -357 373 -860z" />
    <glyph glyph-name="bracketleft.case" horiz-adv-x="620" 
d="M119 -178v1585h459v-184h-238v-1205h238v-196h-459z" />
    <glyph glyph-name="bracketright.case" horiz-adv-x="620" 
d="M43 -168v184h238v1205h-238v196h459v-1585h-459z" />
    <glyph glyph-name="braceleft.case" horiz-adv-x="755" 
d="M705 -221q-129 -6 -168 -6q-168 0 -252 59.5t-84 167.5q0 46 18 90.5t44 80.5t52 70.5t44 74t18 77.5q0 63 -46 93t-149 30h-141v191h141q93 0 147 35.5t54 107.5q0 43 -27.5 91.5t-60.5 86t-60.5 91.5t-27.5 108q0 107 83.5 166t252.5 59q101 0 166 -6v-184
q-41 2 -109 2q-84 0 -120 -25t-36 -76q0 -32 20.5 -72t45 -72.5t45 -80t20.5 -92.5q0 -95 -67.5 -148.5t-204.5 -70.5v-27q148 -12 210 -60.5t62 -142.5q0 -49 -21.5 -99t-47 -84.5t-47 -76.5t-21.5 -76q0 -51 36.5 -75.5t119.5 -24.5q30 0 108 4z" />
    <glyph glyph-name="braceright.case" horiz-adv-x="755" 
d="M51 1462q129 6 168 6q168 0 251 -59t83 -168q0 -46 -18 -90.5t-43.5 -80.5t-51 -70.5t-43.5 -74t-18 -77.5q0 -63 45.5 -93t146.5 -30h144v-190h-142q-93 0 -146.5 -36t-53.5 -110q0 -36 18 -73t44 -70t52 -67.5t44 -77.5t18 -87q0 -108 -83 -166.5t-253 -58.5
q-101 0 -168 6l2 185q61 -3 109 -3q83 0 119 25t36 76q0 32 -21 72t-45.5 72.5t-45.5 80t-21 92.5q0 95 68 148.5t207 70.5v27q-149 12 -212 60t-63 143q0 48 21.5 98t47 84.5t47 77t21.5 76.5q0 51 -35 75.5t-118 24.5q-31 0 -109 -4z" />
    <glyph glyph-name="zero.osf" horiz-adv-x="1167" 
d="M586 909q-147 0 -219 -99.5t-72 -268.5q0 -178 70 -275.5t219 -97.5q151 0 223 98t72 275q0 169 -72 268.5t-221 99.5zM586 1106q250 0 387 -147t137 -418t-136 -419.5t-388 -148.5q-253 0 -389 148.5t-136 419.5q0 270 138.5 417.5t386.5 147.5z" />
    <glyph glyph-name="one.osf" horiz-adv-x="937" 
d="M879 0h-797v186h324v721q-120 -75 -287 -139l-68 174l428 141h148v-897h252v-186z" />
    <glyph glyph-name="two.osf" horiz-adv-x="1155" 
d="M614 920q-257 0 -282 -283l-215 27q20 205 142 321.5t355 116.5q447 0 447 -340q0 -74 -26 -128t-85.5 -95.5t-138.5 -71.5t-201 -61q-207 -52 -275.5 -97t-72.5 -137q211 25 481 25h324v-197h-987q-2 41 -2 127t23 147t77 106.5t125.5 76.5t183.5 63q146 40 219.5 74.5
t99 69.5t25.5 90q0 166 -217 166z" />
    <glyph glyph-name="three.osf" horiz-adv-x="1157" 
d="M598 -162q-482 0 -537 406l226 26q21 -125 92 -186t221 -61q127 0 192.5 49.5t65.5 140.5q0 95 -53 137.5t-193 42.5h-206v164h202q209 0 209 178q0 99 -54 143t-169 44q-127 0 -186.5 -57t-81.5 -173l-215 21q60 395 481 395q227 0 334.5 -80.5t107.5 -247.5
q0 -231 -270 -288v-25q181 -17 252 -81.5t71 -197.5q0 -164 -119.5 -257t-369.5 -93z" />
    <glyph glyph-name="four.osf" horiz-adv-x="1187" 
d="M1159 141h-172v-286h-221v286h-709v166l652 776h278v-759h172v-183zM649 324h117v567l-14 4l-480 -578l11 -14q194 21 366 21z" />
    <glyph glyph-name="five.osf" horiz-adv-x="1169" 
d="M602 16q136 0 199 54.5t63 165.5q0 101 -62.5 151.5t-197.5 50.5q-163 0 -276 -76l-183 70v651h879v-211q-338 0 -676 25v-379q136 84 326 84q205 0 311.5 -97.5t106.5 -271.5q0 -202 -127 -300.5t-365 -98.5q-219 0 -349.5 82t-187.5 256l218 61q40 -103 116 -160
t205 -57z" />
    <glyph glyph-name="six.osf" horiz-adv-x="1173" 
d="M618 602q-152 0 -228.5 -61.5t-76.5 -153.5q0 -96 74 -157.5t217 -61.5q145 0 205.5 61t60.5 170q0 203 -252 203zM1098 395q0 -198 -127.5 -308t-374.5 -110q-97 0 -175.5 19.5t-145.5 65t-112 116t-70 177t-25 243.5q0 142 30.5 258t93.5 206t168.5 139.5t245.5 49.5
q119 0 203 -24.5t137.5 -75.5t83 -120t43.5 -169l-221 -26q-23 116 -77.5 170.5t-170.5 54.5q-170 0 -244.5 -123t-74.5 -389v-53l24 -4q73 253 391 253q86 0 156 -19.5t125.5 -60t86 -109.5t30.5 -161z" />
    <glyph glyph-name="seven.osf" horiz-adv-x="1079" 
d="M35 877v206h1009v-206q-406 -417 -442 -1022h-256q19 299 152.5 568t359.5 474q-205 -20 -405 -20h-418z" />
    <glyph glyph-name="eight.osf" horiz-adv-x="1169" 
d="M584 -23q-266 0 -390 91t-124 254q0 117 78 190t249 98v23q-136 28 -205 98.5t-69 190.5q3 329 461 329q460 0 460 -329q0 -120 -68 -189.5t-204 -99.5v-23q171 -25 248.5 -98t77.5 -190q0 -345 -514 -345zM584 537q-285 0 -285 -189q0 -184 285 -184q284 0 284 184
q0 189 -284 189zM584 1063q-125 0 -182.5 -46.5t-59.5 -137.5q0 -95 64.5 -141t177.5 -46q114 0 177.5 46t63.5 141q0 184 -241 184z" />
    <glyph glyph-name="nine.osf" horiz-adv-x="1165" 
d="M553 473q146 0 221.5 63.5t75.5 159.5q0 97 -74 160.5t-209 63.5q-141 0 -204.5 -64t-63.5 -172q0 -102 65 -156.5t189 -54.5zM561 -164q-232 0 -349 91.5t-149 269.5l220 41q22 -105 90.5 -158t193.5 -53q165 0 238.5 121.5t73.5 383.5v46l-23 4q-80 -250 -381 -250
q-87 0 -158.5 20t-127 61t-86.5 111.5t-31 165.5q0 197 126.5 308.5t366.5 111.5q123 0 217 -32t166.5 -102.5t110 -193t37.5 -293.5q0 -142 -30.5 -258t-93 -206t-167 -139.5t-244.5 -49.5z" />
    <glyph glyph-name="zero.tf" horiz-adv-x="1224" 
d="M612 1053q-153 0 -228 -114t-75 -321q0 -209 75 -326.5t226 -117.5q154 0 229.5 117t75.5 327q0 207 -75 321t-228 114zM612 1255q251 0 393 -168.5t142 -468.5q0 -304 -140.5 -474.5t-394.5 -170.5t-394 170.5t-140 474.5q0 300 142 468.5t392 168.5z" />
    <glyph glyph-name="one.tf" horiz-adv-x="1249" 
d="M1124 0h-993v199h434v819q-175 -96 -375 -168l-75 194l544 185h127v-1030h338v-199z" />
    <glyph glyph-name="two.tf" horiz-adv-x="1249" 
d="M657 1061q-132 0 -204 -76.5t-91 -232.5l-217 26q57 475 514 475q225 0 343 -97t118 -290q0 -86 -33.5 -154t-99 -117t-149.5 -83.5t-199 -62.5q-189 -51 -257.5 -106.5t-74.5 -164.5q198 21 383 21h440v-199h-1021q-3 62 -3 127q0 104 23.5 179.5t77 131t129.5 93
t190 69.5q215 60 290 118t75 156q0 87 -57.5 137t-176.5 50z" />
    <glyph glyph-name="three.tf" horiz-adv-x="1249" 
d="M645 -20q-242 0 -375 100t-161 305l225 27q21 -125 92 -186.5t221 -61.5q127 0 192.5 49.5t65.5 140.5q0 95 -53.5 138t-192.5 43h-206v163h202q209 0 209 179q0 99 -54 142.5t-169 43.5q-127 0 -186.5 -56.5t-81.5 -172.5l-215 20q60 395 481 395q228 0 335 -80
t107 -247q0 -232 -270 -289v-25q182 -17 253 -81t71 -197q0 -164 -120 -257t-370 -93z" />
    <glyph glyph-name="four.tf" horiz-adv-x="1212" 
d="M1159 287h-172v-287h-221v287h-709v166l652 776h278v-760h172v-182zM649 469h117v567l-14 4l-480 -577l11 -14q184 20 366 20z" />
    <glyph glyph-name="five.tf" horiz-adv-x="1249" 
d="M637 162q136 0 199 54.5t63 164.5q0 101 -62.5 152t-197.5 51q-82 0 -155 -21.5t-122 -54.5l-182 70v651h879v-211q-352 0 -676 24v-378q136 84 326 84q205 0 311 -97.5t106 -271.5q0 -202 -126.5 -300.5t-364.5 -98.5q-219 0 -349.5 81.5t-187.5 255.5l217 62
q40 -103 116.5 -160t205.5 -57z" />
    <glyph glyph-name="six.tf" horiz-adv-x="1249" 
d="M659 602q-152 0 -228.5 -61.5t-76.5 -153.5q0 -96 74 -157.5t217 -61.5q145 0 205.5 61t60.5 170q0 203 -252 203zM1139 395q0 -198 -127.5 -308t-374.5 -110q-97 0 -175.5 19.5t-145.5 65t-112 116t-70 177t-25 243.5q0 142 30.5 258t93.5 206t168.5 139.5t245.5 49.5
q119 0 203 -24.5t137.5 -75.5t83 -120t43.5 -169l-221 -26q-23 116 -77.5 170.5t-170.5 54.5q-170 0 -244.5 -123t-74.5 -389v-53l24 -4q73 253 391 253q86 0 156 -19.5t125.5 -60t86 -109.5t30.5 -161z" />
    <glyph glyph-name="seven.tf" horiz-adv-x="1249" 
d="M127 1022v207h1010v-207q-407 -418 -443 -1022h-256q19 299 152.5 568t359.5 474q-205 -20 -405 -20h-418z" />
    <glyph glyph-name="eight.tf" horiz-adv-x="1249" 
d="M625 -23q-266 0 -390 91t-124 254q0 117 78 190t249 98v23q-136 28 -205 98.5t-69 190.5q3 329 461 329q460 0 460 -329q0 -120 -68 -189.5t-204 -99.5v-23q171 -25 248.5 -98t77.5 -190q0 -345 -514 -345zM625 537q-285 0 -285 -189q0 -184 285 -184q284 0 284 184
q0 189 -284 189zM625 1063q-125 0 -182.5 -46.5t-59.5 -137.5q0 -95 64.5 -141t177.5 -46q114 0 177.5 46t63.5 141q0 184 -241 184z" />
    <glyph glyph-name="nine.tf" horiz-adv-x="1249" 
d="M588 614q146 0 221.5 64t75.5 160q0 97 -74 160t-209 63q-141 0 -204.5 -64t-63.5 -172q0 -102 65 -156.5t189 -54.5zM596 -23q-232 0 -349 91.5t-149 269.5l219 41q22 -105 91 -158t194 -53q165 0 238 121.5t73 384.5v45l-22 4q-80 -250 -381 -250q-182 0 -293 87
t-111 271q0 197 127 308.5t367 111.5q98 0 177 -19.5t146 -64.5t112 -115.5t70 -176.5t25 -244q0 -113 -18.5 -210t-59.5 -179.5t-102.5 -140.5t-151.5 -91t-202 -33z" />
    <glyph glyph-name="zero.tosf" horiz-adv-x="1243" 
d="M621 909q-147 0 -219 -99.5t-72 -268.5q0 -373 288 -373q151 0 223 98t72 275q0 169 -71.5 268.5t-220.5 99.5zM621 1106q250 0 387 -147t137 -418t-136 -419.5t-388 -148.5q-253 0 -389 148.5t-136 419.5q0 270 138.5 417.5t386.5 147.5z" />
    <glyph glyph-name="one.tosf" horiz-adv-x="1249" 
d="M1126 0h-993v186h440v725q-160 -95 -399 -166l-51 179l524 159h150v-897h329v-186z" />
    <glyph glyph-name="two.tosf" horiz-adv-x="1249" 
d="M662 920q-258 0 -283 -283l-215 27q20 205 142 321.5t356 116.5q446 0 446 -340q0 -74 -26 -128t-85.5 -95.5t-138.5 -71.5t-201 -61q-207 -52 -275.5 -97t-72.5 -137q211 25 482 25h323v-197h-987q-2 41 -2 127t23.5 147t77.5 106.5t125.5 76.5t183.5 63
q146 40 219.5 74.5t99 69.5t25.5 90q0 166 -217 166z" />
    <glyph glyph-name="three.tosf" horiz-adv-x="1249" 
d="M645 -162q-242 0 -375 100.5t-161 305.5l225 26q21 -125 92 -186t221 -61q127 0 192.5 49.5t65.5 140.5q0 95 -53 137.5t-193 42.5h-206v164h202q209 0 209 178q0 99 -54 143t-169 44q-127 0 -186.5 -57t-81.5 -173l-215 21q60 395 481 395q227 0 334.5 -80.5
t107.5 -247.5q0 -231 -270 -288v-25q181 -17 252.5 -81.5t71.5 -197.5q0 -164 -120 -257t-370 -93z" />
    <glyph glyph-name="four.tosf" horiz-adv-x="1249" 
d="M1159 141h-172v-286h-221v286h-709v166l652 776h278v-759h172v-183zM649 324h117v567l-14 4l-480 -578l11 -14q194 21 366 21z" />
    <glyph glyph-name="five.tosf" horiz-adv-x="1249" 
d="M637 16q136 0 199 54.5t63 165.5q0 101 -62.5 151.5t-197.5 50.5q-82 0 -155 -21.5t-122 -54.5l-182 70v651h879v-211q-339 0 -676 25v-379q136 84 326 84q205 0 311 -97.5t106 -271.5q0 -202 -126.5 -300.5t-364.5 -98.5q-219 0 -349.5 82t-187.5 256l217 61
q40 -103 116.5 -160t205.5 -57z" />
    <glyph glyph-name="six.tosf" horiz-adv-x="1249" 
d="M659 602q-152 0 -228.5 -61.5t-76.5 -153.5q0 -96 74 -157.5t217 -61.5q145 0 205.5 61t60.5 170q0 203 -252 203zM1139 395q0 -198 -127.5 -308t-374.5 -110q-97 0 -175.5 19.5t-145.5 65t-112 116t-70 177t-25 243.5q0 142 30.5 258t93.5 206t168.5 139.5t245.5 49.5
q119 0 203 -24.5t137.5 -75.5t83 -120t43.5 -169l-221 -26q-23 116 -77.5 170.5t-170.5 54.5q-170 0 -244.5 -123t-74.5 -389v-53l24 -4q73 253 391 253q86 0 156 -19.5t125.5 -60t86 -109.5t30.5 -161z" />
    <glyph glyph-name="seven.tosf" horiz-adv-x="1249" 
d="M127 877v206h1010v-206q-407 -418 -443 -1022h-256q19 299 152.5 568t359.5 474q-205 -20 -405 -20h-418z" />
    <glyph glyph-name="eight.tosf" horiz-adv-x="1249" 
d="M625 -23q-266 0 -390 91t-124 254q0 117 78 190t249 98v23q-136 28 -205 98.5t-69 190.5q3 329 461 329q460 0 460 -329q0 -120 -68 -189.5t-204 -99.5v-23q171 -25 248.5 -98t77.5 -190q0 -345 -514 -345zM625 537q-285 0 -285 -189q0 -184 285 -184q284 0 284 184
q0 189 -284 189zM625 1063q-125 0 -182.5 -46.5t-59.5 -137.5q0 -95 64.5 -141t177.5 -46q114 0 177.5 46t63.5 141q0 184 -241 184z" />
    <glyph glyph-name="nine.tosf" horiz-adv-x="1249" 
d="M588 473q146 0 221.5 63.5t75.5 159.5q0 97 -74 160.5t-209 63.5q-141 0 -204.5 -64t-63.5 -172q0 -102 65 -156.5t189 -54.5zM596 -164q-232 0 -349 91.5t-149 269.5l219 41q22 -105 91 -158t194 -53q165 0 238 121t73 384v46l-22 4q-80 -250 -381 -250q-182 0 -293 87
t-111 271q0 197 127 308.5t367 111.5q123 0 217 -32t166 -102.5t109.5 -193t37.5 -293.5q0 -142 -30 -258t-92.5 -206t-167 -139.5t-244.5 -49.5z" />
    <glyph glyph-name="dollar.osf" horiz-adv-x="1040" 
d="M457 1319h155l-10 -238q163 -14 243.5 -90t110.5 -209l-219 -45q-22 97 -73 140t-150 43q-92 0 -140 -32.5t-48 -94.5q0 -58 53 -96.5t201 -65.5q119 -22 199 -53.5t124.5 -74t63 -90t18.5 -110.5q0 -139 -94.5 -221t-290.5 -92l12 -244h-157l12 246q-103 7 -180 34.5
t-124.5 73t-74 100.5t-37.5 126l217 45q49 -215 281 -215q203 0 203 135q0 65 -56.5 101t-208.5 63q-216 43 -304.5 119t-88.5 206q0 134 95 213.5t278 89.5z" />
    <glyph glyph-name="sterling.osf" horiz-adv-x="1122" 
d="M1053 0h-994v193h199q18 78 18 165q0 24 -8 70h-207v121h168q-45 129 -45 219q0 152 104.5 244t303.5 92q88 0 157 -18.5t114.5 -49.5t78.5 -76t50 -92t26 -104l-205 -41q-23 100 -72 147t-147 48q-98 0 -144.5 -49.5t-46.5 -125.5q0 -69 37 -194h465v-121h-436
q2 -8 2 -27q0 -111 -57 -208h639v-193z" />
    <glyph glyph-name="Euro.osf" horiz-adv-x="1220" 
d="M664 -27q-204 0 -331 108.5t-163 305.5h-135v98h123q-2 18 -2 58q0 43 2 63h-123v99h137q38 191 168.5 297t329.5 106q205 0 329 -109t152 -307l-203 -41q-27 139 -95 207t-191 68q-228 0 -283 -221h311v-99h-325q-3 -30 -3 -63q0 -31 3 -58h325v-98h-313
q54 -235 285 -235q129 0 195 67.5t97 210.5l201 -33q-28 -202 -154.5 -313t-336.5 -111z" />
    <glyph glyph-name="yen.osf" horiz-adv-x="1191" 
d="M1114 270h-401v-270h-234v270h-401v121h379l-99 154h-280v125h201l-244 383v22h258l285 -547h38l289 547h252v-22l-244 -383h201v-125h-278l-99 -154h377v-121z" />
    <glyph glyph-name="a.sc" horiz-adv-x="1128" 
d="M893 0l-94 264h-480l-94 -264h-233l418 1083h309l416 -1083h-242zM426 563l-47 -133h362l-47 133q-56 161 -106 328h-53q-55 -173 -109 -328z" />
    <glyph glyph-name="b.sc" 
d="M623 461h-281v-295h291q94 0 141 39.5t47 107.5q0 74 -44.5 111t-153.5 37zM600 911h-258v-297h248q92 0 140 36t48 118q0 74 -42 108.5t-136 34.5zM115 0v1083h479q207 0 304 -68t97 -208q0 -205 -233 -254v-16q151 -14 218 -70.5t67 -171.5q0 -139 -99 -217t-309 -78
h-524z" />
    <glyph glyph-name="c.sc" horiz-adv-x="1185" 
d="M604 -25q-259 0 -403 152t-144 418q0 263 148 412t407 149q218 0 349 -108t159 -306l-215 -41q-27 131 -98.5 196.5t-200.5 65.5q-162 0 -242.5 -100t-80.5 -268q0 -180 79.5 -278.5t241.5 -98.5q135 0 206.5 66t100.5 202l215 -37q-30 -202 -163.5 -313t-358.5 -111z
" />
    <glyph glyph-name="d.sc" horiz-adv-x="1208" 
d="M553 899h-211v-715h221q192 0 278.5 92t86.5 277q0 184 -88 265t-287 81zM115 0v1083h465q573 0 573 -530q0 -258 -152.5 -405.5t-420.5 -147.5h-465z" />
    <glyph glyph-name="e.sc" horiz-adv-x="1030" 
d="M115 0v1083h827v-192h-600v-260h545v-164h-545v-274h598v-193h-825z" />
    <glyph glyph-name="f.sc" horiz-adv-x="966" 
d="M856 385h-512v-385h-225v1083h790v-202h-565v-312h512v-184z" />
    <glyph glyph-name="g.sc" horiz-adv-x="1218" 
d="M526 -20q-214 0 -343.5 141t-129.5 407q0 273 140.5 425.5t412.5 152.5q434 0 504 -385l-213 -43q-30 121 -98.5 178t-196.5 57q-168 0 -244.5 -99t-76.5 -286q0 -366 331 -366q301 0 301 241l2 -8v11h-309v159h520v-565h-206v240h-21q-42 -119 -133 -189.5t-240 -70.5z
" />
    <glyph glyph-name="h.sc" horiz-adv-x="1216" 
d="M1102 0h-225v440h-535v-440h-227v1083h227v-444h535v444h225v-1083z" />
    <glyph glyph-name="i.sc" horiz-adv-x="456" 
d="M342 0h-227v1083h227v-1083z" />
    <glyph glyph-name="j.sc" horiz-adv-x="595" 
d="M256 311v772h227v-772q0 -154 -76 -239.5t-237 -85.5q-56 0 -150 12l13 190q62 -10 102 -10q121 0 121 133z" />
    <glyph glyph-name="k.sc" horiz-adv-x="1091" 
d="M829 0l-393 422h-94v-422h-227v1083h227v-483h86l389 483h258v-20l-479 -537l496 -506v-20h-263z" />
    <glyph glyph-name="l.sc" horiz-adv-x="890" 
d="M115 1083h227v-897h508v-186h-735v1083z" />
    <glyph glyph-name="m.sc" horiz-adv-x="1540" 
d="M326 487v-487h-211v1083h372l170 -454q57 -165 103 -338h43q65 247 102 346l170 446h350v-1083h-227v487q0 75 3.5 228.5t4.5 187.5h-35q-78 -262 -147 -454l-156 -388h-219l-151 394q-91 271 -142 448h-32q2 -129 2 -416z" />
    <glyph glyph-name="n.sc" horiz-adv-x="1230" 
d="M813 0l-281 475q-87 156 -188 406l-39 -4q21 -276 21 -519v-358h-211v1083h325l246 -409q109 -194 201 -434l39 2q-21 270 -21 477v364h209v-1083h-301z" />
    <glyph glyph-name="o.sc" horiz-adv-x="1249" 
d="M625 -25q-270 0 -420 154t-150 416q0 259 152.5 410t417.5 151q267 0 418 -150.5t151 -410.5q0 -262 -149 -416t-420 -154zM625 168q174 0 259 99.5t85 277.5q0 172 -85.5 270t-258.5 98t-258.5 -98.5t-85.5 -269.5q0 -178 85 -277.5t259 -99.5z" />
    <glyph glyph-name="p.sc" horiz-adv-x="1032" 
d="M553 895h-211v-369h215q115 0 167 45t52 140q0 97 -50.5 140.5t-172.5 43.5zM582 344h-240v-344h-227v1083h458q428 0 428 -370q0 -162 -111 -265.5t-308 -103.5z" />
    <glyph glyph-name="q.sc" horiz-adv-x="1251" 
d="M625 168q174 0 259 99.5t85 277.5q0 172 -85.5 270t-258.5 98t-258.5 -98.5t-85.5 -269.5q0 -178 85 -277.5t259 -99.5zM625 -25q-270 0 -420 154t-150 416q0 259 152.5 410t417.5 151q267 0 418 -150.5t151 -410.5q0 -154 -53 -273.5t-154 -191.5l158 -230v-20h-238
l-100 166q-96 -21 -182 -21z" />
    <glyph glyph-name="r.sc" horiz-adv-x="1126" 
d="M580 897h-238v-332h242q111 0 160 39.5t49 124.5q0 87 -48.5 127.5t-164.5 40.5zM823 0l-276 397h-205v-397h-227v1083h483q208 0 314 -89t106 -259q0 -247 -242 -315l307 -400v-20h-260z" />
    <glyph glyph-name="s.sc" horiz-adv-x="1075" 
d="M555 -25q-453 3 -504 353l217 45q43 -217 295 -217q221 0 221 133q0 67 -60.5 104.5t-221.5 61.5q-224 37 -317 119.5t-93 216.5q0 150 111 232.5t329 82.5q211 0 317 -83t136 -235l-225 -43q-23 98 -75 142.5t-163 44.5q-207 0 -207 -129q0 -30 10.5 -52t39.5 -43
t84.5 -38.5t142.5 -32.5q101 -17 175.5 -42.5t121 -55.5t75 -68.5t39.5 -78.5t11 -89q0 -157 -112 -242.5t-347 -85.5z" />
    <glyph glyph-name="t.sc" horiz-adv-x="976" 
d="M31 881v202h917v-202h-346v-881h-227v881h-344z" />
    <glyph glyph-name="u.sc" horiz-adv-x="1202" 
d="M608 172q140 0 197 65.5t57 192.5v653h228v-667q0 -213 -124 -326t-358 -113q-237 0 -365 113t-128 326v667h227v-647q0 -128 60 -196t206 -68z" />
    <glyph glyph-name="v.sc" horiz-adv-x="1122" 
d="M713 0h-303l-418 1083h244l196 -563q65 -187 107 -327h49q65 204 110 327l199 563h233z" />
    <glyph glyph-name="w.sc" horiz-adv-x="1613" 
d="M696 455l-92 -455h-321l-287 1083h246l108 -485q49 -221 80 -408h49q53 300 78 408l117 485h289l114 -487q37 -168 76 -406h47q19 111 80 408l104 485h232l-281 -1083h-334l-96 455q-60 292 -84 442h-39q-22 -134 -86 -442z" />
    <glyph glyph-name="x.sc" horiz-adv-x="1071" 
d="M807 0l-264 442h-37l-256 -442h-234v20l355 535l-351 508v20h248l260 -432h39l246 432h236v-20l-349 -531l355 -512v-20h-248z" />
    <glyph glyph-name="y.sc" horiz-adv-x="1032" 
d="M631 0h-228v352l-419 711v20h247l269 -542h35l272 542h242v-20l-418 -711v-352z" />
    <glyph glyph-name="z.sc" 
d="M1014 203v-203h-946v188l655 695l-12 22q-230 -24 -353 -24h-270v202h920v-186l-662 -700l10 -21q233 27 361 27h297z" />
    <glyph glyph-name="aacute.sc" horiz-adv-x="1128" 
d="M893 0l-94 264h-480l-94 -264h-233l418 1083h309l416 -1083h-242zM420 1169l-55 109l479 276l82 -157zM426 563l-47 -133h362l-47 133q-56 161 -106 328h-53q-55 -173 -109 -328z" />
    <glyph glyph-name="abreve.sc" horiz-adv-x="1128" 
d="M893 0l-94 264h-480l-94 -264h-233l418 1083h309l416 -1083h-242zM563 1343q164 0 180 183h109q0 -328 -289 -328q-291 0 -291 328h111q16 -183 180 -183zM426 563l-47 -133h362l-47 133q-56 161 -106 328h-53q-55 -173 -109 -328z" />
    <glyph glyph-name="acircumflex.sc" horiz-adv-x="1128" 
d="M893 0l-94 264h-480l-94 -264h-233l418 1083h309l416 -1083h-242zM799 1169l-234 199l-235 -199l-78 82l274 291h78l273 -291zM426 563l-47 -133h362l-47 133q-56 161 -106 328h-53q-55 -173 -109 -328z" />
    <glyph glyph-name="adieresis.sc" horiz-adv-x="1128" 
d="M893 0l-94 264h-480l-94 -264h-233l418 1083h309l416 -1083h-242zM276 1454h218v-211h-218v211zM635 1454h217v-211h-217v211zM426 563l-47 -133h362l-47 133q-56 161 -106 328h-53q-55 -173 -109 -328z" />
    <glyph glyph-name="agrave.sc" horiz-adv-x="1128" 
d="M893 0l-94 264h-480l-94 -264h-233l418 1083h309l416 -1083h-242zM731 1169l-508 226l86 159l477 -276zM426 563l-47 -133h362l-47 133q-56 161 -106 328h-53q-55 -173 -109 -328z" />
    <glyph glyph-name="amacron.sc" horiz-adv-x="1128" 
d="M893 0l-94 264h-480l-94 -264h-233l418 1083h309l416 -1083h-242zM285 1403h557v-156h-557v156zM426 563l-47 -133h362l-47 133q-56 161 -106 328h-53q-55 -173 -109 -328z" />
    <glyph glyph-name="aogonek.sc" horiz-adv-x="1128" 
d="M1135 -328q-75 -10 -127 -10q-232 0 -232 152q0 66 54 113t149 73h-86l-94 264h-480l-94 -264h-233l418 1083h309l416 -1083h-2q-118 -22 -172 -51.5t-54 -73.5q0 -68 115 -68q31 0 108 15zM426 563l-47 -133h362l-47 133q-56 161 -106 328h-53q-55 -173 -109 -328z" />
    <glyph glyph-name="aring.sc" horiz-adv-x="1128" 
d="M893 0l-94 264h-480l-94 -264h-233l418 1083h309l416 -1083h-242zM446 1411q0 -55 31.5 -86t85.5 -31q53 0 84 31.5t31 87.5q0 55 -31 86t-84 31q-55 0 -86 -31t-31 -88zM795 1413q0 -105 -62.5 -167t-169.5 -62q-108 0 -170.5 61.5t-62.5 165.5q0 105 62.5 167t170.5 62
q107 0 169.5 -62t62.5 -165zM426 563l-47 -133h362l-47 133q-56 161 -106 328h-53q-55 -173 -109 -328z" />
    <glyph glyph-name="aringacute.sc" horiz-adv-x="1128" 
d="M381 1423l-35 111l500 184l51 -166zM455 1186q0 -47 28.5 -75t77.5 -28q48 0 76.5 28t28.5 77t-28.5 76.5t-76.5 27.5q-50 0 -78 -27.5t-28 -78.5zM784 1188q0 -88 -49 -146l400 -1042h-242l-94 264h-480l-94 -264h-233l399 1038q-53 56 -53 148q0 99 59.5 157t163.5 58
q102 0 162.5 -58t60.5 -155zM426 563l-47 -133h362l-47 133q-56 161 -106 328h-53q-55 -173 -109 -328z" />
    <glyph glyph-name="atilde.sc" horiz-adv-x="1128" 
d="M893 0l-94 264h-480l-94 -264h-233l418 1083h309l416 -1083h-242zM418 1544q44 0 81 -19.5t61 -47.5t44.5 -56t43 -47.5t46.5 -19.5q44 0 60 42.5t14 137.5h102q7 -58 7 -92q0 -120 -44.5 -181t-123.5 -61q-40 0 -74 19.5t-57.5 47t-45 55.5t-46.5 47.5t-52 19.5
q-45 0 -61.5 -40t-14.5 -137h-102q-6 53 -6 93q0 118 45 178.5t123 60.5zM426 563l-47 -133h362l-47 133q-56 161 -106 328h-53q-55 -173 -109 -328z" />
    <glyph glyph-name="ae.sc" horiz-adv-x="1611" 
d="M494 563l-72 -155h274v495h-61q-62 -169 -141 -340zM696 0v240h-350l-110 -240h-236l526 1083h998v-192h-600v-260h544v-164h-544v-274h598v-193h-826z" />
    <glyph glyph-name="aeacute.sc" horiz-adv-x="1611" 
d="M786 1163l-55 109l479 276l82 -157zM696 0v240h-350l-110 -240h-236l526 1083h998v-192h-600v-260h544v-164h-544v-274h598v-193h-826zM494 563l-72 -155h274v495h-61q-62 -169 -141 -340z" />
    <glyph glyph-name="cacute.sc" horiz-adv-x="1185" 
d="M604 -25q-259 0 -403 152t-144 418q0 263 148 412t407 149q218 0 349 -108t159 -306l-215 -41q-27 131 -98.5 196.5t-200.5 65.5q-162 0 -242.5 -100t-80.5 -268q0 -180 79.5 -278.5t241.5 -98.5q135 0 206.5 66t100.5 202l215 -37q-30 -202 -163.5 -313t-358.5 -111z
M449 1192l-56 108l479 277l82 -158z" />
    <glyph glyph-name="ccaron.sc" horiz-adv-x="1185" 
d="M604 -25q-259 0 -403 152t-144 418q0 263 148 412t407 149q218 0 349 -108t159 -306l-215 -41q-27 131 -98.5 196.5t-200.5 65.5q-162 0 -242.5 -100t-80.5 -268q0 -180 79.5 -278.5t241.5 -98.5q135 0 206.5 66t100.5 202l215 -37q-30 -202 -163.5 -313t-358.5 -111z
M631 1210h-76l-274 291l77 82l236 -199l233 199l78 -82z" />
    <glyph glyph-name="ccedilla.sc" horiz-adv-x="1185" 
d="M604 -25h-12l-31 -73q40 12 78 12q149 0 149 -119q0 -53 -45 -96t-143 -43q-125 0 -207 57l51 80q71 -47 156 -47q43 0 63.5 15.5t20.5 39.5q0 54 -80 54q-39 0 -82 -13l-63 27l41 113q-212 31 -327.5 178.5t-115.5 384.5q0 263 148 412t407 149q218 0 349 -108t159 -306
l-215 -41q-27 131 -98.5 196.5t-200.5 65.5q-162 0 -242.5 -100t-80.5 -268q0 -180 79.5 -278.5t241.5 -98.5q135 0 206.5 66t100.5 202l215 -37q-30 -202 -163.5 -313t-358.5 -111z" />
    <glyph glyph-name="ccircumflex.sc" horiz-adv-x="1185" 
d="M604 -25q-259 0 -403 152t-144 418q0 263 148 412t407 149q218 0 349 -108t159 -306l-215 -41q-27 131 -98.5 196.5t-200.5 65.5q-162 0 -242.5 -100t-80.5 -268q0 -180 79.5 -278.5t241.5 -98.5q135 0 206.5 66t100.5 202l215 -37q-30 -202 -163.5 -313t-358.5 -111z
M827 1192l-233 199l-236 -199l-77 82l274 291h78l272 -291z" />
    <glyph glyph-name="cdotaccent.sc" horiz-adv-x="1185" 
d="M604 -25q-259 0 -403 152t-144 418q0 263 148 412t407 149q218 0 349 -108t159 -306l-215 -41q-27 131 -98.5 196.5t-200.5 65.5q-162 0 -242.5 -100t-80.5 -268q0 -180 79.5 -278.5t241.5 -98.5q135 0 206.5 66t100.5 202l215 -37q-30 -202 -163.5 -313t-358.5 -111z
M477 1495h232v-221h-232v221z" />
    <glyph glyph-name="dcaron.sc" horiz-adv-x="1208" 
d="M553 899h-211v-715h221q192 0 278.5 92t86.5 277q0 184 -88 265t-287 81zM115 0v1083h465q573 0 573 -530q0 -258 -152.5 -405.5t-420.5 -147.5h-465zM649 1188h-76l-274 291l78 82l235 -199l234 199l78 -82z" />
    <glyph glyph-name="dcroat.sc" horiz-adv-x="1259" 
d="M666 471h-275v-287h221q192 0 278.5 92t86.5 277q0 184 -88 265t-287 81h-211v-287h275v-141zM164 0v471h-125v141h125v471h465q573 0 573 -530q0 -258 -152.5 -405.5t-420.5 -147.5h-465z" />
    <glyph glyph-name="eacute.sc" horiz-adv-x="1030" 
d="M115 0v1083h827v-192h-600v-260h545v-164h-545v-274h598v-193h-825zM385 1169l-55 109l479 276l82 -157z" />
    <glyph glyph-name="ebreve.sc" horiz-adv-x="1030" 
d="M115 0v1083h827v-192h-600v-260h545v-164h-545v-274h598v-193h-825zM528 1343q165 0 181 183h108q0 -328 -289 -328q-290 0 -290 328h110q16 -183 180 -183z" />
    <glyph glyph-name="ecaron.sc" horiz-adv-x="1030" 
d="M115 0v1083h827v-192h-600v-260h545v-164h-545v-274h598v-193h-825zM567 1188h-75l-275 291l78 82l235 -199l234 199l78 -82z" />
    <glyph glyph-name="ecircumflex.sc" horiz-adv-x="1030" 
d="M115 0v1083h827v-192h-600v-260h545v-164h-545v-274h598v-193h-825zM764 1169l-234 199l-235 -199l-78 82l275 291h77l273 -291z" />
    <glyph glyph-name="edieresis.sc" horiz-adv-x="1030" 
d="M115 0v1083h827v-192h-600v-260h545v-164h-545v-274h598v-193h-825zM242 1454h217v-211h-217v211zM600 1454h217v-211h-217v211z" />
    <glyph glyph-name="edotaccent.sc" horiz-adv-x="1030" 
d="M115 0v1083h827v-192h-600v-260h545v-164h-545v-274h598v-193h-825zM414 1473h231v-222h-231v222z" />
    <glyph glyph-name="egrave.sc" horiz-adv-x="1030" 
d="M115 0v1083h827v-192h-600v-260h545v-164h-545v-274h598v-193h-825zM698 1169l-508 226l86 159l478 -276z" />
    <glyph glyph-name="emacron.sc" horiz-adv-x="1030" 
d="M115 0v1083h827v-192h-600v-260h545v-164h-545v-274h598v-193h-825zM250 1403h557v-156h-557v156z" />
    <glyph glyph-name="eng.sc" horiz-adv-x="1228" 
d="M115 0v1083h325l260 -407q114 -190 205 -397l23 2q-23 278 -23 438v364h209v-1091q0 -324 -326 -324q-65 0 -157 15l12 188q79 -14 123 -14q137 0 137 137l-342 471q-84 114 -217 422l-39 -4q21 -277 21 -525v-358h-211z" />
    <glyph glyph-name="eogonek.sc" horiz-adv-x="1030" 
d="M942 -328q-75 -10 -127 -10q-231 0 -231 152q0 67 53.5 113.5t148.5 72.5h-671v1083h827v-192h-600v-260h545v-164h-545v-274h598v-193q-118 -22 -171.5 -51.5t-53.5 -73.5q0 -68 114 -68q32 0 109 15z" />
    <glyph glyph-name="eth.sc" horiz-adv-x="1259" 
d="M666 471h-275v-287h221q192 0 278.5 92t86.5 277q0 184 -88 265t-287 81h-211v-287h275v-141zM164 0v471h-125v141h125v471h465q573 0 573 -530q0 -258 -152.5 -405.5t-420.5 -147.5h-465z" />
    <glyph glyph-name="fi.sc" horiz-adv-x="1445" 
d="M856 385h-512v-385h-225v1083h790v-202h-565v-312h512v-184zM1331 0h-227v1083h227v-1083z" />
    <glyph glyph-name="fl.sc" horiz-adv-x="1882" 
d="M856 385h-512v-385h-225v1083h790v-202h-565v-312h512v-184zM1104 1083h227v-897h508v-186h-735v1083z" />
    <glyph glyph-name="gbreve.sc" horiz-adv-x="1218" 
d="M526 -20q-214 0 -343.5 141t-129.5 407q0 273 140.5 425.5t412.5 152.5q434 0 504 -385l-213 -43q-30 121 -98.5 178t-196.5 57q-168 0 -244.5 -99t-76.5 -286q0 -366 331 -366q301 0 301 241l2 -8v11h-309v159h520v-565h-206v240h-21q-42 -119 -133 -189.5t-240 -70.5z
M596 1366q165 0 180 182h109q0 -327 -289 -327q-291 0 -291 327h111q15 -182 180 -182z" />
    <glyph glyph-name="gcircumflex.sc" horiz-adv-x="1218" 
d="M526 -20q-214 0 -343.5 141t-129.5 407q0 273 140.5 425.5t412.5 152.5q434 0 504 -385l-213 -43q-30 121 -98.5 178t-196.5 57q-168 0 -244.5 -99t-76.5 -286q0 -366 331 -366q301 0 301 241l2 -8v11h-309v159h520v-565h-206v240h-21q-42 -119 -133 -189.5t-240 -70.5z
M831 1192l-233 199l-236 -199l-77 82l274 291h78l272 -291z" />
    <glyph glyph-name="gcommaaccent.sc" horiz-adv-x="1218" 
d="M526 -20q-214 0 -343.5 141t-129.5 407q0 273 140.5 425.5t412.5 152.5q434 0 504 -385l-213 -43q-30 121 -98.5 178t-196.5 57q-168 0 -244.5 -99t-76.5 -286q0 -366 331 -366q301 0 301 241l2 -8v11h-309v159h520v-565h-206v240h-21q-42 -119 -133 -189.5t-240 -70.5z
M543 -109h176l-121 -313h-139v19z" />
    <glyph glyph-name="gdotaccent.sc" horiz-adv-x="1218" 
d="M526 -20q-214 0 -343.5 141t-129.5 407q0 273 140.5 425.5t412.5 152.5q434 0 504 -385l-213 -43q-30 121 -98.5 178t-196.5 57q-168 0 -244.5 -99t-76.5 -286q0 -366 331 -366q301 0 301 241l2 -8v11h-309v159h520v-565h-206v240h-21q-42 -119 -133 -189.5t-240 -70.5z
M481 1495h232v-221h-232v221z" />
    <glyph glyph-name="hbar.sc" horiz-adv-x="1284" 
d="M905 565v174h-534v-174h534zM1133 0h-228v379h-534v-379h-226v739h-116v135h116v209h226v-209h534v209h228v-209h122v-135h-122v-739z" />
    <glyph glyph-name="hcircumflex.sc" horiz-adv-x="1216" 
d="M1102 0h-225v440h-535v-440h-227v1083h227v-444h535v444h225v-1083zM844 1169l-234 199l-235 -199l-78 82l274 291h78l273 -291z" />
    <glyph glyph-name="iacute.sc" horiz-adv-x="456" 
d="M342 0h-227v1083h227v-1083zM84 1169l-55 109l479 276l82 -157z" />
    <glyph glyph-name="ibreve.sc" horiz-adv-x="456" 
d="M342 0h-227v1083h227v-1083zM227 1343q165 0 181 183h108q0 -328 -289 -328q-290 0 -290 328h110q16 -183 180 -183z" />
    <glyph glyph-name="icircumflex.sc" horiz-adv-x="456" 
d="M342 0h-227v1083h227v-1083zM463 1169l-234 199l-235 -199l-78 82l274 291h78l273 -291z" />
    <glyph glyph-name="idieresis.sc" horiz-adv-x="456" 
d="M342 0h-227v1083h227v-1083zM-59 1454h217v-211h-217v211zM299 1454h217v-211h-217v211z" />
    <glyph glyph-name="igrave.sc" horiz-adv-x="456" 
d="M342 0h-227v1083h227v-1083zM397 1169l-508 226l86 159l478 -276z" />
    <glyph glyph-name="ij.sc" horiz-adv-x="1052" 
d="M342 0h-227v1083h227v-1083zM713 311v772h227v-772q0 -154 -76 -239.5t-237 -85.5q-56 0 -150 12l12 190q62 -10 103 -10q121 0 121 133z" />
    <glyph glyph-name="imacron.sc" horiz-adv-x="456" 
d="M342 0h-227v1083h227v-1083zM-51 1403h557v-156h-557v156z" />
    <glyph glyph-name="iogonek.sc" horiz-adv-x="456" 
d="M342 0q-118 -22 -171.5 -51.5t-53.5 -73.5q0 -68 114 -68q32 0 109 15l4 -150q-75 -10 -127 -10q-231 0 -231 152q0 67 53.5 113.5t148.5 72.5h-73v1083h227v-1083z" />
    <glyph glyph-name="itilde.sc" horiz-adv-x="456" 
d="M342 0h-227v1083h227v-1083zM82 1544q44 0 81 -19.5t61 -47.5t44.5 -56t43 -47.5t46.5 -19.5q44 0 60 42.5t14 137.5h103q6 -49 6 -92q0 -120 -44.5 -181t-123.5 -61q-40 0 -74 19.5t-57.5 47t-45 55.5t-46.5 47.5t-52 19.5q-45 0 -61 -39.5t-14 -137.5h-103q-6 52 -6 93
q0 118 45 178.5t123 60.5z" />
    <glyph glyph-name="jcircumflex.sc" horiz-adv-x="595" 
d="M256 311v772h227v-772q0 -154 -76 -239.5t-237 -85.5q-56 0 -150 12l13 190q62 -10 102 -10q121 0 121 133zM602 1169l-233 199l-236 -199l-78 82l275 291h78l272 -291z" />
    <glyph glyph-name="kcommaaccent.sc" horiz-adv-x="1091" 
d="M829 0l-393 422h-94v-422h-227v1083h227v-483h86l389 483h258v-20l-479 -537l496 -506v-20h-263zM551 -109h176l-121 -313h-139v19z" />
    <glyph glyph-name="lacute.sc" horiz-adv-x="890" 
d="M186 1169l-55 109l479 276l82 -157zM115 1083h227v-897h508v-186h-735v1083z" />
    <glyph glyph-name="lcaron.sc" horiz-adv-x="915" 
d="M668 1083h172l-60 -518h-139zM115 1083h227v-897h508v-186h-735v1083z" />
    <glyph glyph-name="lcommaaccent.sc" horiz-adv-x="890" 
d="M115 1083h227v-897h508v-186h-735v1083zM428 -109h176l-121 -313h-139v19z" />
    <glyph glyph-name="ldot.sc" horiz-adv-x="899" 
d="M575 731h218v-207h-218v207zM115 1083h227v-897h508v-186h-735v1083z" />
    <glyph glyph-name="lslash.sc" horiz-adv-x="933" 
d="M145 1083h228v-434l254 119v-145l-254 -117v-320h508v-186h-736v401l-118 -55v143l118 56v538z" />
    <glyph glyph-name="nacute.sc" horiz-adv-x="1230" 
d="M813 0l-281 475q-87 156 -188 406l-39 -4q21 -276 21 -519v-358h-211v1083h325l246 -409q109 -194 201 -434l39 2q-21 270 -21 477v364h209v-1083h-301zM471 1169l-55 109l479 276l82 -157z" />
    <glyph glyph-name="ncaron.sc" horiz-adv-x="1230" 
d="M813 0l-281 475q-87 156 -188 406l-39 -4q21 -276 21 -519v-358h-211v1083h325l246 -409q109 -194 201 -434l39 2q-21 270 -21 477v364h209v-1083h-301zM653 1188h-75l-275 291l78 82l235 -199l234 199l78 -82z" />
    <glyph glyph-name="ncommaaccent.sc" horiz-adv-x="1230" 
d="M813 0l-281 475q-87 156 -188 406l-39 -4q21 -276 21 -519v-358h-211v1083h325l246 -409q109 -194 201 -434l39 2q-21 270 -21 477v364h209v-1083h-301zM561 -109h176l-121 -313h-139v19z" />
    <glyph glyph-name="ntilde.sc" horiz-adv-x="1230" 
d="M813 0l-281 475q-87 156 -188 406l-39 -4q21 -276 21 -519v-358h-211v1083h325l246 -409q109 -194 201 -434l39 2q-21 270 -21 477v364h209v-1083h-301zM469 1544q44 0 81 -19.5t61 -47.5t44.5 -56t43 -47.5t46.5 -19.5q44 0 60 42.5t14 137.5h103q6 -49 6 -92
q0 -120 -44.5 -181t-123.5 -61q-40 0 -74 19.5t-57.5 47t-45 55.5t-46.5 47.5t-52 19.5q-45 0 -61 -39.5t-14 -137.5h-103q-6 53 -6 93q0 118 45 178.5t123 60.5z" />
    <glyph glyph-name="oacute.sc" horiz-adv-x="1249" 
d="M625 -25q-270 0 -420 154t-150 416q0 259 152.5 410t417.5 151q267 0 418 -150.5t151 -410.5q0 -262 -149 -416t-420 -154zM625 168q174 0 259 99.5t85 277.5q0 172 -85.5 270t-258.5 98t-258.5 -98.5t-85.5 -269.5q0 -178 85 -277.5t259 -99.5zM481 1192l-55 108
l479 277l82 -158z" />
    <glyph glyph-name="obreve.sc" horiz-adv-x="1249" 
d="M625 -25q-270 0 -420 154t-150 416q0 259 152.5 410t417.5 151q267 0 418 -150.5t151 -410.5q0 -262 -149 -416t-420 -154zM625 168q174 0 259 99.5t85 277.5q0 172 -85.5 270t-258.5 98t-258.5 -98.5t-85.5 -269.5q0 -178 85 -277.5t259 -99.5zM625 1366q165 0 180 182
h108q0 -169 -73 -248t-215 -79q-291 0 -291 327h110q15 -182 181 -182z" />
    <glyph glyph-name="ocircumflex.sc" horiz-adv-x="1249" 
d="M625 168q174 0 259 99.5t85 277.5q0 172 -85.5 270t-258.5 98t-258.5 -98.5t-85.5 -269.5q0 -178 85 -277.5t259 -99.5zM625 -25q-270 0 -420 154t-150 416q0 259 152.5 410t417.5 151q267 0 418 -150.5t151 -410.5q0 -262 -149 -416t-420 -154zM860 1192l-233 199
l-236 -199l-78 82l275 291h78l272 -291z" />
    <glyph glyph-name="odieresis.sc" horiz-adv-x="1249" 
d="M625 -25q-270 0 -420 154t-150 416q0 259 152.5 410t417.5 151q267 0 418 -150.5t151 -410.5q0 -262 -149 -416t-420 -154zM625 168q174 0 259 99.5t85 277.5q0 172 -85.5 270t-258.5 98t-258.5 -98.5t-85.5 -269.5q0 -178 85 -277.5t259 -99.5zM338 1477h217v-211h-217
v211zM696 1477h217v-211h-217v211z" />
    <glyph glyph-name="ograve.sc" horiz-adv-x="1249" 
d="M625 -25q-270 0 -420 154t-150 416q0 259 152.5 410t417.5 151q267 0 418 -150.5t151 -410.5q0 -262 -149 -416t-420 -154zM625 168q174 0 259 99.5t85 277.5q0 172 -85.5 270t-258.5 98t-258.5 -98.5t-85.5 -269.5q0 -178 85 -277.5t259 -99.5zM793 1192l-508 225
l86 160l477 -277z" />
    <glyph glyph-name="ohungarumlaut.sc" horiz-adv-x="1249" 
d="M625 -25q-270 0 -420 154t-150 416q0 259 152.5 410t417.5 151q267 0 418 -150.5t151 -410.5q0 -262 -149 -416t-420 -154zM625 168q174 0 259 99.5t85 277.5q0 172 -85.5 270t-258.5 98t-258.5 -98.5t-85.5 -269.5q0 -178 85 -277.5t259 -99.5zM481 1196l-98 57l180 338
l137 -82zM758 1198l-94 66l202 325l133 -90z" />
    <glyph glyph-name="omacron.sc" horiz-adv-x="1249" 
d="M625 -25q-270 0 -420 154t-150 416q0 259 152.5 410t417.5 151q267 0 418 -150.5t151 -410.5q0 -262 -149 -416t-420 -154zM625 168q174 0 259 99.5t85 277.5q0 172 -85.5 270t-258.5 98t-258.5 -98.5t-85.5 -269.5q0 -178 85 -277.5t259 -99.5zM346 1425h557v-155h-557
v155z" />
    <glyph glyph-name="oslash.sc" horiz-adv-x="1249" 
d="M268 545q0 -138 49 -232l533 547q-86 64 -225 64q-178 0 -267.5 -101.5t-89.5 -277.5zM625 -25q-217 0 -361 103l-71 -78h-170v14l149 150q-119 146 -119 381q0 259 153.5 410t418.5 151q217 0 362 -102l74 79h166v-14l-152 -151q119 -143 119 -373q0 -262 -149.5 -416
t-419.5 -154zM623 158q182 0 270 101.5t88 285.5q0 132 -49 223l-531 -549q86 -61 222 -61z" />
    <glyph glyph-name="oslashacute.sc" horiz-adv-x="1249" 
d="M268 545q0 -138 49 -232l533 547q-86 64 -225 64q-178 0 -267.5 -101.5t-89.5 -277.5zM625 -25q-217 0 -361 103l-71 -78h-170v14l149 150q-119 146 -119 381q0 259 153.5 410t418.5 151q217 0 362 -102l74 79h166v-14l-152 -151q119 -143 119 -373q0 -262 -149.5 -416
t-419.5 -154zM504 1188l-55 108l479 277l82 -158zM623 158q182 0 270 101.5t88 285.5q0 132 -49 223l-531 -549q86 -61 222 -61z" />
    <glyph glyph-name="otilde.sc" horiz-adv-x="1249" 
d="M625 -25q-270 0 -420 154t-150 416q0 259 152.5 410t417.5 151q267 0 418 -150.5t151 -410.5q0 -262 -149 -416t-420 -154zM625 168q174 0 259 99.5t85 277.5q0 172 -85.5 270t-258.5 98t-258.5 -98.5t-85.5 -269.5q0 -178 85 -277.5t259 -99.5zM479 1567q44 0 81 -19.5
t61 -47.5t45 -56.5t43.5 -48t46.5 -19.5q44 0 59.5 42t13.5 138h103q6 -50 6 -92q0 -120 -44.5 -180.5t-123.5 -60.5q-40 0 -74 19.5t-57.5 47t-45 55t-46 47t-51.5 19.5q-45 0 -61.5 -39.5t-14.5 -136.5h-103q-6 52 -6 92q0 118 45 179t123 61z" />
    <glyph glyph-name="oe.sc" horiz-adv-x="1730" 
d="M631 186h123v711h-121q-174 0 -263 -94.5t-89 -257.5q0 -169 88 -264t262 -95zM633 0q-272 0 -425 147.5t-153 397.5q0 248 155.5 393t422.5 145h948v-192h-600v-260h545v-164h-545v-274h598v-193h-946z" />
    <glyph glyph-name="racute.sc" horiz-adv-x="1126" 
d="M580 897h-238v-332h242q111 0 160 39.5t49 124.5q0 87 -48.5 127.5t-164.5 40.5zM823 0l-276 397h-205v-397h-227v1083h483q208 0 314 -89t106 -259q0 -247 -242 -315l307 -400v-20h-260zM444 1169l-55 109l479 276l82 -157z" />
    <glyph glyph-name="rcaron.sc" horiz-adv-x="1126" 
d="M580 897h-238v-332h242q111 0 160 39.5t49 124.5q0 87 -48.5 127.5t-164.5 40.5zM823 0l-276 397h-205v-397h-227v1083h483q208 0 314 -89t106 -259q0 -247 -242 -315l307 -400v-20h-260zM590 1188h-76l-274 291l77 82l236 -199l233 199l78 -82z" />
    <glyph glyph-name="rcommaaccent.sc" horiz-adv-x="1126" 
d="M535 -109h176l-121 -313h-139v19zM580 897h-238v-332h242q111 0 160 39.5t49 124.5q0 87 -48.5 127.5t-164.5 40.5zM823 0l-276 397h-205v-397h-227v1083h483q208 0 314 -89t106 -259q0 -247 -242 -315l307 -400v-20h-260z" />
    <glyph glyph-name="sacute.sc" horiz-adv-x="1075" 
d="M555 -25q-453 3 -504 353l217 45q43 -217 295 -217q221 0 221 133q0 67 -60.5 104.5t-221.5 61.5q-224 37 -317 119.5t-93 216.5q0 150 111 232.5t329 82.5q211 0 317 -83t136 -235l-225 -43q-23 98 -75 142.5t-163 44.5q-207 0 -207 -129q0 -30 10.5 -52t39.5 -43
t84.5 -38.5t142.5 -32.5q101 -17 175.5 -42.5t121 -55.5t75 -68.5t39.5 -78.5t11 -89q0 -157 -112 -242.5t-347 -85.5zM389 1192l-55 108l479 277l82 -158z" />
    <glyph glyph-name="scaron.sc" horiz-adv-x="1075" 
d="M555 -25q-453 3 -504 353l217 45q43 -217 295 -217q221 0 221 133q0 67 -60.5 104.5t-221.5 61.5q-224 37 -317 119.5t-93 216.5q0 150 111 232.5t329 82.5q211 0 317 -83t136 -235l-225 -43q-23 98 -75 142.5t-163 44.5q-207 0 -207 -129q0 -30 10.5 -52t39.5 -43
t84.5 -38.5t142.5 -32.5q101 -17 175.5 -42.5t121 -55.5t75 -68.5t39.5 -78.5t11 -89q0 -157 -112 -242.5t-347 -85.5zM569 1210h-75l-275 291l78 82l235 -199l234 199l78 -82z" />
    <glyph glyph-name="scedilla.sc" horiz-adv-x="1075" 
d="M555 -25h-23l-30 -73q40 12 78 12q149 0 149 -119q0 -53 -45 -96t-143 -43q-125 0 -207 57l51 80q71 -47 156 -47q43 0 63.5 15.5t20.5 39.5q0 54 -80 54q-39 0 -82 -13l-64 27l41 113q-346 44 -389 346l217 45q43 -217 295 -217q221 0 221 133q0 67 -60.5 104.5
t-221.5 61.5q-224 37 -317 119.5t-93 216.5q0 150 111 232.5t329 82.5q211 0 317 -83t136 -235l-225 -43q-23 98 -75 142.5t-163 44.5q-207 0 -207 -129q0 -30 10.5 -52t39.5 -43t84.5 -38.5t142.5 -32.5q101 -17 175.5 -42.5t121 -55.5t75 -68.5t39.5 -78.5t11 -89
q0 -157 -112 -242.5t-347 -85.5z" />
    <glyph glyph-name="scircumflex.sc" horiz-adv-x="1075" 
d="M555 -25q-453 3 -504 353l217 45q43 -217 295 -217q221 0 221 133q0 67 -60.5 104.5t-221.5 61.5q-224 37 -317 119.5t-93 216.5q0 150 111 232.5t329 82.5q211 0 317 -83t136 -235l-225 -43q-23 98 -75 142.5t-163 44.5q-207 0 -207 -129q0 -30 10.5 -52t39.5 -43
t84.5 -38.5t142.5 -32.5q101 -17 175.5 -42.5t121 -55.5t75 -68.5t39.5 -78.5t11 -89q0 -157 -112 -242.5t-347 -85.5zM766 1192l-234 199l-235 -199l-78 82l275 291h77l273 -291z" />
    <glyph glyph-name="scommaaccent.sc" horiz-adv-x="1075" 
d="M555 -25q-453 3 -504 353l217 45q43 -217 295 -217q221 0 221 133q0 67 -60.5 104.5t-221.5 61.5q-224 37 -317 119.5t-93 216.5q0 150 111 232.5t329 82.5q211 0 317 -83t136 -235l-225 -43q-23 98 -75 142.5t-163 44.5q-207 0 -207 -129q0 -30 10.5 -52t39.5 -43
t84.5 -38.5t142.5 -32.5q101 -17 175.5 -42.5t121 -55.5t75 -68.5t39.5 -78.5t11 -89q0 -157 -112 -242.5t-347 -85.5zM479 -109h176l-120 -313h-140v19z" />
    <glyph glyph-name="tbar.sc" horiz-adv-x="976" 
d="M31 881v202h917v-202h-346v-340h254v-133h-254v-408h-227v408h-252v133h252v340h-344z" />
    <glyph glyph-name="tcaron.sc" horiz-adv-x="976" 
d="M948 881h-346v-881h-227v881h-344v202h917v-202zM526 1188h-75l-275 291l78 82l235 -199l234 199l78 -82z" />
    <glyph glyph-name="tcommaaccent.sc" horiz-adv-x="976" 
d="M31 881v202h917v-202h-346v-881h-106l-39 -98q40 12 78 12q149 0 149 -119q0 -53 -45 -96t-143 -43q-125 0 -207 57l51 80q71 -47 156 -47q43 0 63.5 15.5t20.5 39.5q0 54 -80 54q-39 0 -82 -13l-64 27l47 131h-26v881h-344z" />
    <glyph glyph-name="uni021B.sc" horiz-adv-x="976" 
d="M31 881v202h917v-202h-346v-881h-227v881h-344zM436 -109h176l-120 -313h-140v19z" />
    <glyph glyph-name="thorn.sc" horiz-adv-x="1064" 
d="M115 1083h225v-161h252q428 0 428 -371q0 -173 -109.5 -273t-314.5 -100h-256v-178h-225v1083zM573 735h-233v-368h235q115 0 167.5 44t52.5 140t-51.5 140t-170.5 44z" />
    <glyph glyph-name="uacute.sc" horiz-adv-x="1202" 
d="M608 172q140 0 197 65.5t57 192.5v653h228v-667q0 -213 -124 -326t-358 -113q-237 0 -365 113t-128 326v667h227v-647q0 -128 60 -196t206 -68zM459 1169l-56 109l480 276l82 -157z" />
    <glyph glyph-name="ubreve.sc" horiz-adv-x="1202" 
d="M608 172q140 0 197 65.5t57 192.5v653h228v-667q0 -213 -124 -326t-358 -113q-237 0 -365 113t-128 326v667h227v-647q0 -128 60 -196t206 -68zM602 1343q164 0 180 183h109q0 -328 -289 -328q-291 0 -291 328h111q16 -183 180 -183z" />
    <glyph glyph-name="ucircumflex.sc" horiz-adv-x="1202" 
d="M608 172q140 0 197 65.5t57 192.5v653h228v-667q0 -213 -124 -326t-358 -113q-237 0 -365 113t-128 326v667h227v-647q0 -128 60 -196t206 -68zM836 1169l-234 199l-235 -199l-78 82l274 291h78l272 -291z" />
    <glyph glyph-name="udieresis.sc" horiz-adv-x="1202" 
d="M608 172q140 0 197 65.5t57 192.5v653h228v-667q0 -213 -124 -326t-358 -113q-237 0 -365 113t-128 326v667h227v-647q0 -128 60 -196t206 -68zM313 1454h217v-211h-217v211zM672 1454h217v-211h-217v211z" />
    <glyph glyph-name="ugrave.sc" horiz-adv-x="1202" 
d="M608 172q140 0 197 65.5t57 192.5v653h228v-667q0 -213 -124 -326t-358 -113q-237 0 -365 113t-128 326v667h227v-647q0 -128 60 -196t206 -68zM770 1169l-508 226l86 159l477 -276z" />
    <glyph glyph-name="uhungarumlaut.sc" horiz-adv-x="1202" 
d="M608 172q140 0 197 65.5t57 192.5v653h228v-667q0 -213 -124 -326t-358 -113q-237 0 -365 113t-128 326v667h227v-647q0 -128 60 -196t206 -68zM459 1174l-99 57l181 338l137 -82zM735 1176l-94 65l203 326l133 -90z" />
    <glyph glyph-name="umacron.sc" horiz-adv-x="1202" 
d="M608 172q140 0 197 65.5t57 192.5v653h228v-667q0 -213 -124 -326t-358 -113q-237 0 -365 113t-128 326v667h227v-647q0 -128 60 -196t206 -68zM324 1403h557v-156h-557v156z" />
    <glyph glyph-name="uogonek.sc" horiz-adv-x="1202" 
d="M608 172q140 0 197 65.5t57 192.5v653h228v-667q0 -196 -105 -307.5t-305 -128.5q-137 -36 -137 -105q0 -68 114 -68q32 0 109 15l4 -150q-75 -10 -127 -10q-231 0 -231 152q0 109 141 166q-212 12 -325 124t-113 312v667h227v-647q0 -128 60 -196t206 -68z" />
    <glyph glyph-name="uring.sc" horiz-adv-x="1202" 
d="M608 172q140 0 197 65.5t57 192.5v653h228v-667q0 -213 -124 -326t-358 -113q-237 0 -365 113t-128 326v667h227v-647q0 -128 60 -196t206 -68zM834 1413q0 -105 -62.5 -167t-169.5 -62q-108 0 -170.5 61.5t-62.5 165.5q0 105 62.5 167t170.5 62q107 0 169.5 -62
t62.5 -165zM485 1411q0 -55 31.5 -86t85.5 -31q53 0 84 31.5t31 87.5q0 55 -31 86t-84 31q-54 0 -85.5 -31t-31.5 -88z" />
    <glyph glyph-name="utilde.sc" horiz-adv-x="1202" 
d="M608 172q140 0 197 65.5t57 192.5v653h228v-667q0 -213 -124 -326t-358 -113q-237 0 -365 113t-128 326v667h227v-647q0 -128 60 -196t206 -68zM457 1544q44 0 81 -19.5t61 -47.5t44.5 -56t43 -47.5t46.5 -19.5q44 0 60 42.5t14 137.5h102q6 -49 6 -92q0 -120 -44 -181
t-123 -61q-40 0 -74 19.5t-57.5 47t-45 55.5t-46.5 47.5t-52 19.5q-45 0 -61.5 -40t-14.5 -137h-102q-6 53 -6 93q0 118 45 178.5t123 60.5z" />
    <glyph glyph-name="wacute.sc" horiz-adv-x="1613" 
d="M696 455l-92 -455h-321l-287 1083h246l108 -485q49 -221 80 -408h49q53 300 78 408l117 485h289l114 -487q37 -168 76 -406h47q19 111 80 408l104 485h232l-281 -1083h-334l-96 455q-60 292 -84 442h-39q-22 -134 -86 -442zM670 1169l-56 109l480 276l82 -157z" />
    <glyph glyph-name="wcircumflex.sc" horiz-adv-x="1613" 
d="M696 455l-92 -455h-321l-287 1083h246l108 -485q49 -221 80 -408h49q53 300 78 408l117 485h289l114 -487q37 -168 76 -406h47q19 111 80 408l104 485h232l-281 -1083h-334l-96 455q-60 292 -84 442h-39q-22 -134 -86 -442zM1049 1169l-234 199l-235 -199l-78 82l274 291
h78l272 -291z" />
    <glyph glyph-name="wdieresis.sc" horiz-adv-x="1613" 
d="M696 455l-92 -455h-321l-287 1083h246l108 -485q49 -221 80 -408h49q53 300 78 408l117 485h289l114 -487q37 -168 76 -406h47q19 111 80 408l104 485h232l-281 -1083h-334l-96 455q-60 292 -84 442h-39q-22 -134 -86 -442zM526 1454h217v-211h-217v211zM885 1454h217
v-211h-217v211z" />
    <glyph glyph-name="wgrave.sc" horiz-adv-x="1613" 
d="M696 455l-92 -455h-321l-287 1083h246l108 -485q49 -221 80 -408h49q53 300 78 408l117 485h289l114 -487q37 -168 76 -406h47q19 111 80 408l104 485h232l-281 -1083h-334l-96 455q-60 292 -84 442h-39q-22 -134 -86 -442zM983 1169l-508 226l86 159l477 -276z" />
    <glyph glyph-name="yacute.sc" horiz-adv-x="1032" 
d="M631 0h-228v352l-419 711v20h247l269 -542h35l272 542h242v-20l-418 -711v-352zM373 1169l-56 109l480 276l82 -157z" />
    <glyph glyph-name="ycircumflex.sc" horiz-adv-x="1032" 
d="M631 0h-228v352l-419 711v20h247l269 -542h35l272 542h242v-20l-418 -711v-352zM750 1169l-234 199l-235 -199l-78 82l274 291h78l272 -291z" />
    <glyph glyph-name="ydieresis.sc" horiz-adv-x="1032" 
d="M631 0h-228v352l-419 711v20h247l269 -542h35l272 542h242v-20l-418 -711v-352zM227 1454h217v-211h-217v211zM586 1454h217v-211h-217v211z" />
    <glyph glyph-name="zacute.sc" 
d="M1014 203v-203h-946v188l655 695l-12 22q-230 -24 -353 -24h-270v202h920v-186l-662 -700l10 -21q233 27 361 27h297zM397 1169l-55 109l479 276l82 -157z" />
    <glyph glyph-name="zcaron.sc" 
d="M1014 203v-203h-946v188l655 695l-12 22q-230 -24 -353 -24h-270v202h920v-186l-662 -700l10 -21q233 27 361 27h297zM578 1188h-76l-275 291l78 82l236 -199l233 199l78 -82z" />
    <glyph glyph-name="zdotaccent.sc" 
d="M1014 203v-203h-946v188l655 695l-12 22q-230 -24 -353 -24h-270v202h920v-186l-662 -700l10 -21q233 27 361 27h297zM424 1473h231v-222h-231v222z" />
    <glyph glyph-name="germandbls.sc" horiz-adv-x="1200" 
d="M801 -18q-233 0 -361 161l109 146q94 -124 242 -121q143 0 143 106q0 51 -38.5 81.5t-117.5 56.5q-115 37 -179 89.5t-64 141.5q0 171 256 248l-7 18q-92 -12 -241 -12q-203 0 -203 -238v-659h-225v678q0 196 111 300.5t325 104.5h446v-184q-145 -50 -207.5 -94
t-62.5 -98q0 -50 38 -79.5t122 -58.5q131 -48 193.5 -114t62.5 -181q0 -135 -87.5 -213.5t-254.5 -78.5z" />
    <glyph glyph-name="a.alt" 
d="M514 170q111 0 178.5 73t67.5 195v74q0 125 -67 200.5t-179 75.5q-120 0 -179 -76.5t-59 -234.5q0 -156 58 -231.5t180 -75.5zM59 477q0 246 93.5 379t263.5 131q127 1 209 -71.5t120 -204.5h15v252h219v-963h-219v254h-15q-37 -129 -123 -205t-212 -76
q-167 0 -259 130.5t-92 373.5z" />
    <glyph glyph-name="aacute.alt" 
d="M393 1061l-55 108l479 277l82 -158zM514 170q111 0 178.5 73t67.5 195v74q0 125 -67 200.5t-179 75.5q-120 0 -179 -76.5t-59 -234.5q0 -156 58 -231.5t180 -75.5zM59 477q0 246 93.5 379t263.5 131q127 1 209 -71.5t120 -204.5h15v252h219v-963h-219v254h-15
q-37 -129 -123 -205t-212 -76q-167 0 -259 130.5t-92 373.5z" />
    <glyph glyph-name="abreve.alt" 
d="M537 1235q165 0 180 182h108q0 -169 -73 -248t-215 -79q-291 0 -291 327h110q15 -182 181 -182zM514 170q111 0 178.5 73t67.5 195v74q0 125 -67 200.5t-179 75.5q-120 0 -179 -76.5t-59 -234.5q0 -156 58 -231.5t180 -75.5zM59 477q0 246 93.5 379t263.5 131
q127 1 209 -71.5t120 -204.5h15v252h219v-963h-219v254h-15q-37 -129 -123 -205t-212 -76q-167 0 -259 130.5t-92 373.5z" />
    <glyph glyph-name="acircumflex.alt" 
d="M766 1061l-234 199l-235 -199l-78 82l275 291h77l273 -291zM514 170q111 0 178.5 73t67.5 195v74q0 125 -67 200.5t-179 75.5q-120 0 -179 -76.5t-59 -234.5q0 -156 58 -231.5t180 -75.5zM59 477q0 246 93.5 379t263.5 131q127 1 209 -71.5t120 -204.5h15v252h219v-963
h-219v254h-15q-37 -129 -123 -205t-212 -76q-167 0 -259 130.5t-92 373.5z" />
    <glyph glyph-name="adieresis.alt" 
d="M246 1346h217v-211h-217v211zM604 1346h217v-211h-217v211zM514 170q111 0 178.5 73t67.5 195v74q0 125 -67 200.5t-179 75.5q-120 0 -179 -76.5t-59 -234.5q0 -156 58 -231.5t180 -75.5zM59 477q0 246 93.5 379t263.5 131q127 1 209 -71.5t120 -204.5h15v252h219v-963
h-219v254h-15q-37 -129 -123 -205t-212 -76q-167 0 -259 130.5t-92 373.5z" />
    <glyph glyph-name="agrave.alt" 
d="M698 1061l-508 225l86 160l478 -277zM514 170q111 0 178.5 73t67.5 195v74q0 125 -67 200.5t-179 75.5q-120 0 -179 -76.5t-59 -234.5q0 -156 58 -231.5t180 -75.5zM59 477q0 246 93.5 379t263.5 131q127 1 209 -71.5t120 -204.5h15v252h219v-963h-219v254h-15
q-37 -129 -123 -205t-212 -76q-167 0 -259 130.5t-92 373.5z" />
    <glyph glyph-name="amacron.alt" 
d="M250 1294h557v-155h-557v155zM514 170q111 0 178.5 73t67.5 195v74q0 125 -67 200.5t-179 75.5q-120 0 -179 -76.5t-59 -234.5q0 -156 58 -231.5t180 -75.5zM59 477q0 246 93.5 379t263.5 131q127 1 209 -71.5t120 -204.5h15v252h219v-963h-219v254h-15
q-37 -129 -123 -205t-212 -76q-167 0 -259 130.5t-92 373.5z" />
    <glyph glyph-name="aogonek.alt" 
d="M514 170q111 0 178.5 73t67.5 195v74q0 125 -67 200.5t-179 75.5q-120 0 -179 -76.5t-59 -234.5q0 -156 58 -231.5t180 -75.5zM59 477q0 246 93.5 379t263.5 131q127 1 209 -71.5t120 -204.5h15v252h219v-961l2 -2q-118 -22 -171.5 -51.5t-53.5 -73.5q0 -68 114 -68
q32 0 109 15l4 -150q-75 -10 -127 -10q-231 0 -231 152q0 67 53.5 113.5t148.5 72.5h-67v254h-15q-37 -129 -123 -205t-212 -76q-167 0 -259 130.5t-92 373.5z" />
    <glyph glyph-name="aring.alt" 
d="M414 1300q0 -55 31 -85.5t85 -30.5q53 0 84 31.5t31 87.5q0 55 -31 85.5t-84 30.5q-54 0 -85 -31t-31 -88zM762 1303q0 -105 -62.5 -167.5t-169.5 -62.5q-108 0 -170.5 61.5t-62.5 165.5q0 105 62.5 167.5t170.5 62.5q107 0 169.5 -62t62.5 -165zM514 170q111 0 178.5 73
t67.5 195v74q0 125 -67 200.5t-179 75.5q-120 0 -179 -76.5t-59 -234.5q0 -156 58 -231.5t180 -75.5zM59 477q0 246 93.5 379t263.5 131q127 1 209 -71.5t120 -204.5h15v252h219v-963h-219v254h-15q-37 -129 -123 -205t-212 -76q-167 0 -259 130.5t-92 373.5z" />
    <glyph glyph-name="aringacute.alt" 
d="M371 1516l-35 120l506 162l47 -160zM422 1260q0 -47 28.5 -75t77.5 -28q48 0 76.5 28t28.5 77t-28.5 76.5t-76.5 27.5q-50 0 -78 -27.5t-28 -78.5zM752 1262q0 -97 -61 -156t-163 -59q-103 0 -163 58.5t-60 154.5q0 99 59.5 157t163.5 58q103 0 163.5 -58t60.5 -155z
M514 170q111 0 178.5 73t67.5 195v74q0 125 -67 200.5t-179 75.5q-120 0 -179 -76.5t-59 -234.5q0 -156 58 -231.5t180 -75.5zM59 477q0 246 93.5 379t263.5 131q127 1 209 -71.5t120 -204.5h15v252h219v-963h-219v254h-15q-37 -129 -123 -205t-212 -76q-167 0 -259 130.5
t-92 373.5z" />
    <glyph glyph-name="atilde.alt" 
d="M383 1436q44 0 81 -19.5t61 -48t44.5 -56.5t43 -47.5t46.5 -19.5q44 0 60 42.5t14 137.5h103q6 -49 6 -92q0 -120 -44.5 -180.5t-123.5 -60.5q-40 0 -74 19.5t-57.5 47t-45 55t-46.5 47t-52 19.5q-45 0 -61 -39t-14 -137h-103q-6 52 -6 92q0 118 45 179t123 61zM514 170
q111 0 178.5 73t67.5 195v74q0 125 -67 200.5t-179 75.5q-120 0 -179 -76.5t-59 -234.5q0 -156 58 -231.5t180 -75.5zM59 477q0 246 93.5 379t263.5 131q127 1 209 -71.5t120 -204.5h15v252h219v-963h-219v254h-15q-37 -129 -123 -205t-212 -76q-167 0 -259 130.5t-92 373.5
z" />
    <glyph glyph-name="G.alt" horiz-adv-x="1277" 
d="M1217 510q0 -88 -19 -165t-61.5 -144.5t-106.5 -116t-158.5 -76.5t-212.5 -28q-293 0 -448.5 158.5t-155.5 459.5q0 307 153 481t445 174q469 0 545 -424l-217 -45q-33 135 -111 201t-217 66q-191 0 -277.5 -117t-86.5 -336q0 -426 375 -426q322 0 333 299h-344v191h564
v-152z" />
    <glyph glyph-name="Gbreve.alt" horiz-adv-x="1277" 
d="M1217 510q0 -88 -19 -165t-61.5 -144.5t-106.5 -116t-158.5 -76.5t-212.5 -28q-293 0 -448.5 158.5t-155.5 459.5q0 307 153 481t445 174q469 0 545 -424l-217 -45q-33 135 -111 201t-217 66q-191 0 -277.5 -117t-86.5 -336q0 -426 375 -426q322 0 333 299h-344v191h564
v-152zM649 1485q77 0 124.5 34.5t55.5 120.5h109q0 -303 -289 -303q-291 0 -291 303h111q8 -86 55.5 -120.5t124.5 -34.5z" />
    <glyph glyph-name="Gcircumflex.alt" horiz-adv-x="1277" 
d="M1217 510q0 -88 -19 -165t-61.5 -144.5t-106.5 -116t-158.5 -76.5t-212.5 -28q-293 0 -448.5 158.5t-155.5 459.5q0 307 153 481t445 174q469 0 545 -424l-217 -45q-33 135 -111 201t-217 66q-191 0 -277.5 -117t-86.5 -336q0 -426 375 -426q322 0 333 299h-344v191h564
v-152zM891 1317l-240 166l-243 -166l-70 84l274 248h78l273 -248z" />
    <glyph glyph-name="Gcommaaccent.alt" horiz-adv-x="1277" 
d="M1217 510q0 -88 -19 -165t-61.5 -144.5t-106.5 -116t-158.5 -76.5t-212.5 -28q-293 0 -448.5 158.5t-155.5 459.5q0 307 153 481t445 174q469 0 545 -424l-217 -45q-33 135 -111 201t-217 66q-191 0 -277.5 -117t-86.5 -336q0 -426 375 -426q322 0 333 299h-344v191h564
v-152zM598 -109h176l-121 -313h-139v19z" />
    <glyph glyph-name="Gdotaccent.alt" horiz-adv-x="1277" 
d="M1217 510q0 -88 -19 -165t-61.5 -144.5t-106.5 -116t-158.5 -76.5t-212.5 -28q-293 0 -448.5 158.5t-155.5 459.5q0 307 153 481t445 174q469 0 545 -424l-217 -45q-33 135 -111 201t-217 66q-191 0 -277.5 -117t-86.5 -336q0 -426 375 -426q322 0 333 299h-344v191h564
v-152zM535 1593h231v-221h-231v221z" />
    <glyph glyph-name="g.sc.alt" horiz-adv-x="1202" 
d="M924 426h-312v156h521v-125q0 -97 -29 -180.5t-89 -152t-162.5 -108t-238.5 -39.5q-271 0 -416 145t-145 421q0 264 141.5 413.5t411.5 149.5q440 0 510 -373l-213 -45q-27 114 -98 168.5t-199 54.5q-321 0 -321 -368q0 -375 338 -375q301 0 301 258z" />
    <glyph glyph-name="gbreve.sc.alt" horiz-adv-x="1202" 
d="M924 426h-312v156h521v-125q0 -97 -29 -180.5t-89 -152t-162.5 -108t-238.5 -39.5q-271 0 -416 145t-145 421q0 264 141.5 413.5t411.5 149.5q440 0 510 -373l-213 -45q-27 114 -98 168.5t-199 54.5q-321 0 -321 -368q0 -375 338 -375q301 0 301 258zM600 1366
q165 0 180 182h109q0 -327 -289 -327q-291 0 -291 327h111q15 -182 180 -182z" />
    <glyph glyph-name="gcircumflex.sc.alt" horiz-adv-x="1202" 
d="M924 426h-312v156h521v-125q0 -97 -29 -180.5t-89 -152t-162.5 -108t-238.5 -39.5q-271 0 -416 145t-145 421q0 264 141.5 413.5t411.5 149.5q440 0 510 -373l-213 -45q-27 114 -98 168.5t-199 54.5q-321 0 -321 -368q0 -375 338 -375q301 0 301 258zM834 1192l-234 199
l-235 -199l-78 82l274 291h78l272 -291z" />
    <glyph glyph-name="gcommaaccent.sc.alt" horiz-adv-x="1202" 
d="M924 426h-312v156h521v-125q0 -97 -29 -180.5t-89 -152t-162.5 -108t-238.5 -39.5q-271 0 -416 145t-145 421q0 264 141.5 413.5t411.5 149.5q440 0 510 -373l-213 -45q-27 114 -98 168.5t-199 54.5q-321 0 -321 -368q0 -375 338 -375q301 0 301 258zM551 -109h176
l-121 -313h-139v19z" />
    <glyph glyph-name="gdotaccent.sc.alt" horiz-adv-x="1202" 
d="M924 426h-312v156h521v-125q0 -97 -29 -180.5t-89 -152t-162.5 -108t-238.5 -39.5q-271 0 -416 145t-145 421q0 264 141.5 413.5t411.5 149.5q440 0 510 -373l-213 -45q-27 114 -98 168.5t-199 54.5q-321 0 -321 -368q0 -375 338 -375q301 0 301 258zM481 1495h232v-221
h-232v221z" />
    <glyph glyph-name="g.alt" 
d="M514 231q111 0 178.5 68t67.5 180v43q0 119 -67 192.5t-179 73.5q-238 0 -238 -280q0 -140 58.5 -208.5t179.5 -68.5zM59 504q0 237 93.5 361t263.5 122q127 1 209 -71.5t120 -204.5h15v252h219v-865q0 -209 -115 -320.5t-336 -111.5q-405 0 -462 285l219 41
q18 -74 74 -113t163 -39q133 0 185.5 64t52.5 192v205h-17q-39 -111 -124 -179.5t-205 -68.5q-170 0 -262.5 116.5t-92.5 334.5z" />
    <glyph glyph-name="gbreve.alt" 
d="M530 1235q166 0 181 182h108q0 -327 -289 -327q-290 0 -290 327h110q15 -182 180 -182zM514 231q111 0 178.5 68t67.5 180v43q0 119 -67 192.5t-179 73.5q-238 0 -238 -280q0 -140 58.5 -208.5t179.5 -68.5zM59 504q0 237 93.5 361t263.5 122q127 1 209 -71.5t120 -204.5
h15v252h219v-865q0 -209 -115 -320.5t-336 -111.5q-405 0 -462 285l219 41q18 -74 74 -113t163 -39q133 0 185.5 64t52.5 192v205h-17q-39 -111 -124 -179.5t-205 -68.5q-170 0 -262.5 116.5t-92.5 334.5z" />
    <glyph glyph-name="gcircumflex.alt" 
d="M758 1061l-234 199l-235 -199l-78 82l274 291h78l273 -291zM514 231q111 0 178.5 68t67.5 180v43q0 119 -67 192.5t-179 73.5q-238 0 -238 -280q0 -140 58.5 -208.5t179.5 -68.5zM59 504q0 237 93.5 361t263.5 122q127 1 209 -71.5t120 -204.5h15v252h219v-865
q0 -209 -115 -320.5t-336 -111.5q-405 0 -462 285l219 41q18 -74 74 -113t163 -39q133 0 185.5 64t52.5 192v205h-17q-39 -111 -124 -179.5t-205 -68.5q-170 0 -262.5 116.5t-92.5 334.5z" />
    <glyph glyph-name="gcommaaccent.alt" 
d="M590 1112h-176l121 313h139v-18zM514 231q111 0 178.5 68t67.5 180v43q0 119 -67 192.5t-179 73.5q-238 0 -238 -280q0 -140 58.5 -208.5t179.5 -68.5zM59 504q0 237 93.5 361t263.5 122q127 1 209 -71.5t120 -204.5h15v252h219v-865q0 -209 -115 -320.5t-336 -111.5
q-405 0 -462 285l219 41q18 -74 74 -113t163 -39q133 0 185.5 64t52.5 192v205h-17q-39 -111 -124 -179.5t-205 -68.5q-170 0 -262.5 116.5t-92.5 334.5z" />
    <glyph glyph-name="gdotaccent.alt" 
d="M412 1364h231v-221h-231v221zM514 231q111 0 178.5 68t67.5 180v43q0 119 -67 192.5t-179 73.5q-238 0 -238 -280q0 -140 58.5 -208.5t179.5 -68.5zM59 504q0 237 93.5 361t263.5 122q127 1 209 -71.5t120 -204.5h15v252h219v-865q0 -209 -115 -320.5t-336 -111.5
q-405 0 -462 285l219 41q18 -74 74 -113t163 -39q133 0 185.5 64t52.5 192v205h-17q-39 -111 -124 -179.5t-205 -68.5q-170 0 -262.5 116.5t-92.5 334.5z" />
    <glyph glyph-name="t.alt" horiz-adv-x="628" 
d="M391 0h-221v784h-135v179h135v260h221v-260h203v-179h-203v-784z" />
    <glyph glyph-name="tbar.alt" horiz-adv-x="628" 
d="M391 0h-221v381h-113v127h113v276h-135v179h135v260h221v-260h203v-179h-203v-276h174v-127h-174v-381z" />
    <glyph glyph-name="tcaron.alt" horiz-adv-x="641" 
d="M512 1393h156l-43 -330h-119zM391 0h-221v784h-135v179h135v260h221v-260h203v-179h-203v-784z" />
    <glyph glyph-name="tcommaaccent.alt" horiz-adv-x="628" 
d="M391 0h-100l-39 -98q40 12 78 12q149 0 149 -119q0 -53 -45 -96t-143 -43q-125 0 -207 57l51 80q71 -47 156 -47q43 0 63.5 15.5t20.5 39.5q0 54 -80 54q-39 0 -82 -13l-63 27l47 131h-27v784h-135v179h135v260h221v-260h203v-179h-203v-784z" />
    <glyph glyph-name="uni021B.alt" horiz-adv-x="628" 
d="M391 0h-221v784h-135v179h135v260h221v-260h203v-179h-203v-784zM217 -109h176l-121 -313h-139v19z" />
    <glyph glyph-name="zero.sc" horiz-adv-x="1101" 
d="M551 913q-136 0 -203 -95t-67 -273q0 -179 67 -279t201 -100q138 0 206 100t68 279q0 178 -67 273t-205 95zM551 1106q234 0 366 -147t132 -414q0 -271 -130.5 -420.5t-367.5 -149.5q-236 0 -367 150t-131 420q0 266 133 413.5t365 147.5z" />
    <glyph glyph-name="one.sc" horiz-adv-x="903" 
d="M842 0h-764v186h307v707q-109 -63 -268 -123l-70 182l418 131h137v-897h240v-186z" />
    <glyph glyph-name="two.sc" horiz-adv-x="1085" 
d="M571 924q-119 0 -183 -65t-81 -197l-211 24q26 203 140.5 311.5t336.5 108.5q210 0 320.5 -86.5t110.5 -259.5q0 -77 -31.5 -138t-92.5 -105t-139.5 -74.5t-183.5 -53.5q-172 -42 -234.5 -87t-68.5 -136q194 22 350 22h408v-188h-949q-4 74 -4 117q0 181 88.5 271
t298.5 144q135 36 207 70t99.5 71.5t27.5 92.5q0 73 -51.5 115.5t-157.5 42.5z" />
    <glyph glyph-name="three.sc" horiz-adv-x="1073" 
d="M555 -18q-225 0 -348 87t-148 269l220 24q20 -104 82.5 -155t195.5 -51q114 0 172.5 41.5t58.5 117.5q0 79 -47.5 114.5t-171.5 35.5h-192v153h190q187 0 187 150q0 83 -48.5 120.5t-152.5 37.5q-115 0 -168 -48t-72 -147l-209 21q54 350 447 350q212 0 313 -72t101 -219
q0 -206 -254 -254v-22q168 -15 234.5 -71t66.5 -173q0 -145 -111.5 -227t-345.5 -82z" />
    <glyph glyph-name="four.sc" horiz-adv-x="1103" 
d="M1061 250h-156v-250h-217v250h-647v156l592 677h272v-661h156v-172zM598 422h90v483l-14 4l-424 -495l8 -11q188 19 340 19z" />
    <glyph glyph-name="five.sc" horiz-adv-x="1085" 
d="M555 156q122 0 177.5 44.5t55.5 135.5q0 85 -55.5 128.5t-177.5 43.5q-151 0 -250 -68l-178 68v575h819v-206q-326 0 -620 20v-309q121 71 297 71q191 0 289 -86t98 -239q0 -352 -459 -352q-206 0 -326 72t-172 235l217 47q74 -180 285 -180z" />
    <glyph glyph-name="six.sc" 
d="M573 522q-136 0 -203 -51t-67 -129q0 -80 65.5 -131t192.5 -51q130 0 184 50.5t54 141.5q0 170 -226 170zM1020 348q0 -175 -118.5 -271.5t-346.5 -96.5q-114 0 -200.5 28t-154 90.5t-102.5 171t-35 260.5q0 123 28.5 225t87 181t156.5 123.5t228 44.5q111 0 189.5 -21.5
t128 -66.5t76 -106.5t38.5 -149.5l-213 -25q-22 97 -70 142t-151 45q-153 0 -219 -105t-66 -336v-41l23 -4q66 219 356 219q164 0 264.5 -74.5t100.5 -232.5z" />
    <glyph glyph-name="seven.sc" horiz-adv-x="985" 
d="M27 881v202h936v-196q-371 -362 -402 -887h-250q17 261 136 491t321 406q-174 -16 -356 -16h-385z" />
    <glyph glyph-name="eight.sc" horiz-adv-x="1079" 
d="M541 -20q-478 0 -478 305q0 210 302 254v18q-254 51 -254 254q3 293 430 293q428 0 428 -293q0 -105 -63.5 -166t-188.5 -88v-18q156 -23 227.5 -87t71.5 -167q0 -305 -475 -305zM541 467q-141 0 -197.5 -41.5t-56.5 -114.5q0 -155 254 -155q252 0 252 155
q0 73 -55.5 114.5t-196.5 41.5zM541 924q-113 0 -164 -38.5t-51 -115.5q0 -156 215 -156t215 156q0 77 -51.5 115.5t-163.5 38.5z" />
    <glyph glyph-name="nine.sc" horiz-adv-x="1089" 
d="M522 549q130 0 197 53t67 133q0 82 -65 135.5t-186 53.5q-126 0 -183 -54t-57 -143q0 -86 58 -132t169 -46zM528 -20q-216 0 -323.5 80t-136.5 237l213 37q21 -88 81 -131t170 -43q150 0 215.5 104.5t65.5 331.5v33l-22 4q-73 -217 -347 -217q-81 0 -146.5 17.5
t-116.5 54t-79 98.5t-28 145q0 175 117.5 274t340.5 99q115 0 202.5 -28t154.5 -90.5t102 -171.5t35 -261q0 -99 -17.5 -183.5t-55.5 -157t-95.5 -123.5t-141.5 -80t-188 -29z" />
    <glyph glyph-name="periodcentered.sc" horiz-adv-x="417" 
d="M80 668h256v-250h-256v250z" />
    <glyph glyph-name="bullet.sc" horiz-adv-x="569" 
d="M92 745h385v-374h-385v374z" />
    <glyph glyph-name="ampersand.sc" horiz-adv-x="1312" 
d="M455 803q0 -71 39 -160q123 34 182 82.5t59 118.5q0 51 -31.5 80.5t-95.5 29.5q-73 0 -113 -40t-40 -111zM1255 197l9 -199q-54 -10 -123 -10q-193 0 -387 114q-59 -56 -152 -88t-201 -32q-163 0 -261.5 75t-98.5 217q0 117 69.5 190.5t198.5 123.5q-55 123 -55 213
q0 78 29 138t79 95.5t111 53.5t131 18q159 0 238.5 -66t79.5 -174q0 -56 -24.5 -102t-61 -76.5t-90.5 -55.5t-102 -39t-107 -26q108 -169 290 -278q150 174 195 397l192 -27q-45 -256 -274 -426q104 -40 215 -40q65 0 100 4zM463 141q101 0 180 37q-190 146 -299 344
q-108 -70 -108 -200q0 -82 57 -131.5t170 -49.5z" />
    <glyph glyph-name="hyphen.sc" horiz-adv-x="716" 
d="M41 645h635v-207h-635v207z" />
    <glyph glyph-name="endash.sc" horiz-adv-x="974" 
d="M41 645h893v-203h-893v203z" />
    <glyph glyph-name="emdash.sc" horiz-adv-x="1761" 
d="M41 645h1679v-203h-1679v203z" />
    <glyph glyph-name="parenleft.sc" horiz-adv-x="655" 
d="M315 526q0 -218 68.5 -395t232.5 -356l-129 -103q-393 341 -393 854t389 850l129 -100q-164 -168 -230.5 -349t-66.5 -401z" />
    <glyph glyph-name="parenright.sc" horiz-adv-x="655" 
d="M340 524q0 219 -68.5 397t-232.5 357l127 102q393 -341 393 -856q0 -511 -387 -848l-129 101q164 168 230.5 348t66.5 399z" />
    <glyph glyph-name="bracketleft.sc" horiz-adv-x="589" 
d="M115 -285v1612h440v-162h-223v-1288h223v-162h-440z" />
    <glyph glyph-name="bracketright.sc" horiz-adv-x="589" 
d="M35 -281v162h225v1288h-225v162h440v-1612h-440z" />
    <glyph glyph-name="braceleft.sc" horiz-adv-x="712" 
d="M668 -276q-103 -5 -160 -5q-162 0 -241 60.5t-77 167.5q0 52 24.5 105t53.5 90t53.5 84t24.5 89q0 61 -40 90t-132 29h-133v172h131q85 0 132.5 31t47.5 94q0 42 -24.5 90.5t-54 86.5t-54 92.5t-24.5 107.5q0 107 77.5 167t239.5 60q74 0 160 -4v-160q-58 3 -105 3
q-87 0 -122 -27.5t-35 -81.5q0 -33 19.5 -74t43 -74.5t43 -81t19.5 -92.5q0 -89 -62.5 -139.5t-187.5 -71.5v-16q136 -13 193 -60t57 -141q0 -45 -20 -93t-44.5 -82t-44.5 -75t-20 -75q0 -53 35.5 -80t121.5 -27q66 0 105 2v-161z" />
    <glyph glyph-name="braceright.sc" horiz-adv-x="712" 
d="M203 -283q-87 0 -162 7v159q39 -2 104 -2q86 0 122 27t36 80q0 33 -19.5 74t-43 74.5t-43 81.5t-19.5 93q0 88 62.5 138t187.5 71v19q-137 13 -193.5 59t-56.5 139q0 45 20.5 93.5t45 82.5t45 75.5t20.5 74.5q0 54 -36 81t-123 27q-66 0 -105 -2v160q129 6 162 6
q161 0 239 -61t78 -168q-1 -42 -17 -84t-39 -76.5t-46 -67t-39 -69t-16 -70.5q0 -62 40 -90t134 -28h131v-175h-131q-83 0 -131 -30.5t-48 -91.5q0 -43 24.5 -91.5t53.5 -86.5t53.5 -92.5t24.5 -108.5q0 -107 -77.5 -167.5t-237.5 -60.5z" />
    <glyph glyph-name="dollar.sc" horiz-adv-x="1062" 
d="M451 1282h182l-10 -195q309 -31 360 -299l-225 -43q-23 96 -75 139.5t-163 43.5q-103 0 -155 -33t-52 -94q0 -39 19.5 -66t82.5 -52.5t177 -45.5q124 -22 208 -54.5t129 -77t63 -92t18 -110.5q0 -286 -389 -309l12 -219h-182l12 221q-368 30 -412 332l215 45
q43 -215 295 -215q111 0 166 35t55 98q0 65 -60 101.5t-220 62.5q-224 35 -317 117.5t-93 218.5q0 130 93 208t276 91z" />
    <glyph glyph-name="sterling.sc" horiz-adv-x="1054" 
d="M991 0h-936v182h181q18 58 18 129q0 38 -10 86h-187v158h144q-41 125 -41 229q0 147 101.5 232.5t297.5 85.5q107 0 184 -26.5t122.5 -76.5t69.5 -107.5t36 -133.5l-195 -41q-26 107 -73 154t-144 47q-188 0 -188 -168q0 -69 32 -195h437v-158h-410v-6
q0 -67 -12.5 -113.5t-50.5 -95.5h624v-182z" />
    <glyph glyph-name="yen.sc" horiz-adv-x="1107" 
d="M1036 268h-368v-268h-228v268h-366v138h336l-78 129h-258v145h174l-228 383v20h248l269 -542h34l273 542h241v-20l-225 -383h176v-145h-262l-76 -129h338v-138z" />
    <glyph glyph-name="Euro.sc" horiz-adv-x="1247" 
d="M676 -25q-209 0 -341 108.5t-169 305.5h-125v90h113q-2 20 -2 66q0 33 2 49h-113v90h123q35 201 170.5 311.5t347.5 110.5q213 0 340.5 -108t155.5 -306l-217 -43q-27 135 -94.5 202t-190.5 67q-236 0 -289 -234h272v-90h-284q-2 -16 -2 -49q0 -46 2 -66h284v-90h-270
q55 -227 285 -227q129 0 196.5 67.5t96.5 206.5l215 -37q-28 -201 -158.5 -312.5t-347.5 -111.5z" />
    <glyph glyph-name="percent.sc" horiz-adv-x="1419" 
d="M100 0v12l541 473l41 -28l-285 -457h-297zM1028 1083h299v-12l-541 -473l-41 31zM371 477q-148 0 -234 84t-86 230t86 228.5t234 82.5q147 0 232 -82.5t85 -228.5t-85 -230t-232 -84zM369 616q72 0 111.5 46t39.5 129t-39.5 126.5t-109.5 43.5q-72 0 -111 -43t-39 -127
t38 -129.5t110 -45.5zM1049 -18q-147 0 -232.5 84t-85.5 231q0 145 85.5 228t232.5 83q148 0 233.5 -82.5t85.5 -228.5q0 -147 -85.5 -231t-233.5 -84zM1049 123q72 0 111.5 45t39.5 129q0 82 -40 126t-111 44q-70 0 -110 -44t-40 -126q0 -84 39 -129t111 -45z" />
    <glyph glyph-name="plus.sc" horiz-adv-x="1024" 
d="M401 90v359h-344v200h344v355h222v-355h346v-200h-346v-359h-222z" />
    <glyph glyph-name="minus.sc" horiz-adv-x="995" 
d="M932 451h-873v196h873v-196z" />
    <glyph glyph-name="equal.sc" horiz-adv-x="1046" 
d="M961 279h-873v180h873v-180zM961 649h-873v178h873v-178z" />
    <glyph glyph-name="multiply.sc" horiz-adv-x="1028" 
d="M791 115q-45 49 -134 147t-145 158q-211 -234 -276 -305l-158 155q137 123 309 273q-252 220 -309 272l158 156q50 -54 142.5 -156.5t135.5 -148.5q220 244 277 305l157 -156q-57 -52 -309 -272q172 -150 309 -273z" />
    <glyph glyph-name="divide.sc" horiz-adv-x="995" 
d="M932 451h-873v196h873v-196zM401 995h201v-198h-201v198zM401 311h201v-198h-201v198z" />
    <glyph glyph-name="caron.alt" horiz-adv-x="282" 
d="M72 1341h172l-60 -518h-139z" />
    <glyph glyph-name="acute.case" horiz-adv-x="626" 
d="M61 1341l-34 117l522 193l53 -172z" />
    <glyph glyph-name="hungarumlaut.case" horiz-adv-x="765" 
d="M164 1315l-103 59l191 318l143 -88zM451 1315l-97 69l209 308l137 -97z" />
    <glyph glyph-name="grave.case" horiz-adv-x="630" 
d="M567 1341l-540 140l53 168l522 -191z" />
    <glyph glyph-name="circumflex.case" horiz-adv-x="706" 
d="M594 1317l-240 166l-243 -166l-70 84l274 248h78l273 -248z" />
    <glyph glyph-name="caron.case" horiz-adv-x="706" 
d="M391 1325h-76l-274 248l72 84l241 -164l242 164l70 -84z" />
    <glyph glyph-name="breve.case" horiz-adv-x="669" 
d="M340 1485q77 0 124.5 34.5t55.5 120.5h109q0 -303 -289 -303q-291 0 -291 303h111q8 -86 55.5 -120.5t124.5 -34.5z" />
    <glyph glyph-name="tilde.case" horiz-adv-x="720" 
d="M215 1677q44 0 81 -19.5t61 -47.5t45 -56t43.5 -47.5t46.5 -19.5q44 0 59.5 42t13.5 138h103q6 -50 6 -92q0 -120 -44.5 -181t-123.5 -61q-40 0 -74 19.5t-57.5 47.5t-45 55.5t-46.5 47t-52 19.5q-45 0 -61 -39t-14 -137h-103q-6 52 -6 92q0 118 45 178.5t123 60.5z" />
    <glyph glyph-name="macron.case" horiz-adv-x="643" 
d="M41 1524h561v-156h-561v156z" />
    <glyph glyph-name="dieresis.case" horiz-adv-x="694" 
d="M55 1563h217v-211h-217v211zM414 1563h217v-211h-217v211z" />
    <glyph glyph-name="dotaccent.case" horiz-adv-x="370" 
d="M70 1593h231v-221h-231v221z" />
    <glyph glyph-name="ring.case" horiz-adv-x="589" 
d="M518 1536q0 -97 -60.5 -156t-162.5 -59q-103 0 -163 58.5t-60 154.5q0 99 59.5 157t163.5 58q102 0 162.5 -58t60.5 -155zM188 1534q0 -47 28.5 -74.5t78.5 -27.5q48 0 76 27.5t28 76.5t-28 76.5t-76 27.5q-50 0 -78.5 -27.5t-28.5 -78.5z" />
    <glyph glyph-name="zero.numr" horiz-adv-x="798" 
d="M399 1255q-95 0 -142.5 -62t-47.5 -175q0 -116 47 -180t141 -64q96 0 144.5 64.5t48.5 179.5q0 112 -48.5 174.5t-142.5 62.5zM399 1391q163 0 259 -99t96 -276t-94.5 -278t-260.5 -101t-260 101t-94 278t95.5 276t258.5 99z" />
    <glyph glyph-name="one.numr" horiz-adv-x="602" 
d="M580 655h-535v142h207v440q-79 -45 -178 -88l-51 129l278 96h111v-577h168v-142z" />
    <glyph glyph-name="two.numr" horiz-adv-x="753" 
d="M395 1262q-149 0 -170 -162l-157 22q18 129 98.5 199t228.5 70q146 0 222.5 -58t76.5 -172q0 -99 -71 -150t-232 -85q-112 -26 -154 -57t-47 -89q126 17 238 17h274v-142h-657v74q0 120 61 185.5t213 103.5q124 30 167.5 60t43.5 81q0 103 -135 103z" />
    <glyph glyph-name="three.numr" horiz-adv-x="733" 
d="M371 639q-301 0 -336 231l155 29q11 -66 53 -98.5t130 -32.5q149 0 149 98q0 50 -31.5 72.5t-113.5 22.5h-111v106h109q131 0 131 94q0 99 -137 99q-76 0 -113.5 -30.5t-50.5 -92.5l-152 32q23 104 101.5 162t214.5 58q145 0 220 -51t75 -146q0 -70 -44 -110.5
t-135 -55.5v-18q109 -10 155 -48.5t46 -113.5q0 -99 -79 -153t-236 -54z" />
    <glyph glyph-name="four.numr" horiz-adv-x="749" 
d="M713 819h-103v-164h-157v164h-428v105l378 448h207v-428h103v-125zM412 944h41v316l-9 2l-274 -332l2 -2q134 16 240 16z" />
    <glyph glyph-name="five.numr" horiz-adv-x="745" 
d="M381 766q80 0 115.5 27.5t35.5 83.5q0 104 -149 104q-112 0 -170 -39l-129 47v383h563v-143q-218 0 -418 16v-198q82 47 201 47q130 0 196 -57.5t66 -159.5q0 -236 -315 -236q-286 0 -340 197l153 32q46 -104 191 -104z" />
    <glyph glyph-name="six.numr" horiz-adv-x="757" 
d="M397 989q-91 0 -136.5 -30t-45.5 -76q0 -50 44.5 -82.5t129.5 -32.5q160 0 160 115q0 106 -152 106zM199 977v-29l16 -2q47 139 242 139q115 0 183.5 -49t68.5 -155q0 -116 -82.5 -179t-241.5 -63q-163 0 -251.5 86t-88.5 285q0 170 85 274.5t261 104.5q143 0 210 -51.5
t93 -163.5l-151 -29q-18 57 -53 84.5t-101 27.5q-103 0 -146.5 -66t-43.5 -214z" />
    <glyph glyph-name="seven.numr" horiz-adv-x="684" 
d="M25 1233v139h634v-141q-238 -236 -260 -576h-180q21 341 311 590q-152 -12 -256 -12h-249z" />
    </font>
</defs>
</svg>
