<?xml version="1.0" standalone="no"?>
<!DOCTYPE svg PUBLIC "-//W3C//DTD SVG 1.1//EN" "http://www.w3.org/Graphics/SVG/1.1/DTD/svg11.dtd" >
<svg xmlns="http://www.w3.org/2000/svg" xmlns:xlink="http://www.w3.org/1999/xlink" version="1.1">
<metadata>
Created by FontForge 20170731 at Tue Mar  1 01:18:52 2022
 By Aleksey,,,
(c) Copyright OH no Type Company, LLC. 2020. All rights reserved.
</metadata>
<defs>
<font id="Degular-Bold" horiz-adv-x="1843" >
  <font-face 
    font-family="Degular"
    font-weight="700"
    font-stretch="normal"
    units-per-em="2048"
    panose-1="4 4 7 6 6 3 3 4 3 5"
    ascent="1372"
    descent="-676"
    x-height="971"
    cap-height="1229"
    bbox="-655 -446 2636 1944"
    underline-thickness="102"
    underline-position="-675"
    unicode-range="U+0020-FB02"
  />
<missing-glyph horiz-adv-x="1751" 
d="M743 127q55 0 94 5.5t88 18t74 17.5q0 60 15.5 115t35.5 92t53.5 75.5t53.5 56.5t51 44l19 -21q-19 -58 -49 -202q184 124 184 403q0 235 -118 356t-351 121q-163 0 -276.5 -74.5t-147.5 -197.5q96 -8 144.5 -74.5t48.5 -154.5q0 -104 -63 -164t-148 -70q3 -59 8 -287
q34 -25 119.5 -42t164.5 -17zM745 -68q-291 0 -438 129q-11 296 19 431q-56 27 -89.5 81.5t-33.5 128.5q0 68 33.5 124t91.5 85q-15 212 149 351t434 139q310 0 469.5 -157.5t159.5 -446.5q0 -149 -38 -271t-128 -219.5t-227 -142.5q-17 -107 -17 -146q-138 -86 -385 -86z
M942 942q113 0 173.5 -67.5t60.5 -161.5q0 -111 -76 -185.5t-176 -74.5t-166 65.5t-66 179.5q0 63 25.5 116.5t84 90.5t140.5 37z" />
    <glyph glyph-name=".notdef" horiz-adv-x="1751" 
d="M743 127q55 0 94 5.5t88 18t74 17.5q0 60 15.5 115t35.5 92t53.5 75.5t53.5 56.5t51 44l19 -21q-19 -58 -49 -202q184 124 184 403q0 235 -118 356t-351 121q-163 0 -276.5 -74.5t-147.5 -197.5q96 -8 144.5 -74.5t48.5 -154.5q0 -104 -63 -164t-148 -70q3 -59 8 -287
q34 -25 119.5 -42t164.5 -17zM745 -68q-291 0 -438 129q-11 296 19 431q-56 27 -89.5 81.5t-33.5 128.5q0 68 33.5 124t91.5 85q-15 212 149 351t434 139q310 0 469.5 -157.5t159.5 -446.5q0 -149 -38 -271t-128 -219.5t-227 -142.5q-17 -107 -17 -146q-138 -86 -385 -86z
M942 942q113 0 173.5 -67.5t60.5 -161.5q0 -111 -76 -185.5t-176 -74.5t-166 65.5t-66 179.5q0 63 25.5 116.5t84 90.5t140.5 37z" />
    <glyph glyph-name=".null" horiz-adv-x="0" 
 />
    <glyph glyph-name="nonmarkingreturn" horiz-adv-x="682" 
 />
    <glyph glyph-name="space" unicode=" " horiz-adv-x="374" 
 />
    <glyph glyph-name="exclam" unicode="!" horiz-adv-x="509" 
d="M395 455h-280v774h280v-774zM104 293h304v-293h-304v293z" />
    <glyph glyph-name="quotedbl" unicode="&#x22;" horiz-adv-x="765" 
d="M55 1229h287l-33 -561h-211zM424 1229h287l-33 -561h-211z" />
    <glyph glyph-name="numbersign" unicode="#" horiz-adv-x="1394" 
d="M981 0h-221l20 246h-241l-25 -246h-219l22 246h-243v248h266l20 229h-286v248h309l25 258h231l-27 -258h236l22 258h234l-27 -258h246v-248h-270l-23 -229h293v-248h-317zM537 471h290l27 277h-291z" />
    <glyph glyph-name="dollar" unicode="$" horiz-adv-x="1157" 
d="M469 1450h236l-15 -217q346 -37 395 -336l-292 -57q-21 97 -70.5 141.5t-155.5 44.5q-192 0 -192 -123q0 -39 17.5 -65t80 -52t178.5 -47q139 -25 232.5 -63.5t142.5 -90.5t68.5 -107.5t19.5 -127.5q0 -325 -426 -358l17 -246h-236l18 250q-399 38 -440 366l281 60
q42 -213 284 -213q101 0 153 32t52 91q0 65 -60.5 102.5t-228.5 65.5q-126 20 -212.5 54t-137 84t-72.5 110t-22 139q0 152 100.5 241.5t300.5 106.5z" />
    <glyph glyph-name="percent" unicode="%" horiz-adv-x="1560" 
d="M410 532q-165 0 -262 96.5t-97 264.5q0 166 97 262t262 96t260.5 -95.5t95.5 -262.5q0 -168 -95.5 -264.5t-260.5 -96.5zM408 715q67 0 105 46t38 132t-38 131t-103 45q-66 0 -104 -45t-38 -131t37 -132t103 -46zM1155 -20q-165 0 -260.5 97t-95.5 265q0 167 95.5 261.5
t260.5 94.5t261.5 -95t96.5 -261q0 -168 -96.5 -265t-261.5 -97zM1155 162q67 0 104 46t37 134q0 86 -37.5 130t-103.5 44t-103.5 -44t-37.5 -130q0 -88 37 -134t104 -46zM1087 1229h396v-12l-621 -543l-43 33zM485 0h-395v12l621 543l43 -31z" />
    <glyph glyph-name="ampersand" unicode="&#x26;" horiz-adv-x="1423" 
d="M520 909q0 -75 39 -164q112 34 167.5 84t55.5 121q0 51 -30 80t-90 29q-69 0 -105.5 -40.5t-36.5 -109.5zM1374 264l10 -266q-59 -12 -145 -12q-207 0 -424 129q-59 -65 -160.5 -100t-226.5 -35q-116 0 -204 36t-140.5 112.5t-52.5 184.5q0 132 75.5 215.5t215.5 139.5
q-62 140 -62 239q0 90 33 158.5t89.5 109t125.5 60.5t147 20q186 0 278.5 -75t92.5 -201q0 -65 -25.5 -117.5t-64.5 -86.5t-97 -61t-109 -41.5t-116 -27.5q115 -174 293 -280q150 193 197 428l248 -35q-53 -280 -293 -463q100 -35 201 -35q32 0 114 4zM514 186q89 0 160 31
q-186 153 -309 367q-84 -73 -84 -201q0 -89 56.5 -143t176.5 -54z" />
    <glyph glyph-name="quotesingle" unicode="'" horiz-adv-x="397" 
d="M55 1229h287l-33 -561h-211z" />
    <glyph glyph-name="parenleft" unicode="(" horiz-adv-x="712" 
d="M375 520q0 -246 64 -444.5t225 -394.5l-185 -127q-391 373 -391 966q0 594 391 967l185 -127q-163 -189 -226 -390.5t-63 -449.5z" />
    <glyph glyph-name="parenright" unicode=")" horiz-adv-x="712" 
d="M338 520q0 246 -64 445t-225 395l182 127q394 -376 394 -967q0 -590 -394 -966l-184 127q163 190 227 391t64 448z" />
    <glyph glyph-name="asterisk" unicode="*" horiz-adv-x="1073" 
d="M387 1372h297l-94 -373h-107zM35 897l92 283l326 -205l-33 -103zM377 416l-240 174l295 248l86 -64zM940 592l-240 -174l-141 356l84 64zM948 1182l90 -283l-383 -27l-32 105z" />
    <glyph glyph-name="plus" unicode="+" horiz-adv-x="1030" 
d="M375 154v342h-326v252h326v339h280v-339h326v-252h-326v-342h-280z" />
    <glyph glyph-name="comma" unicode="," horiz-adv-x="403" 
d="M84 309h281l-215 -585h-205v12z" />
    <glyph glyph-name="hyphen" unicode="-" horiz-adv-x="716" 
d="M37 629h643v-256h-643v256z" />
    <glyph glyph-name="period" unicode="." horiz-adv-x="401" 
d="M49 293h303v-293h-303v293z" />
    <glyph glyph-name="slash" unicode="/" horiz-adv-x="669" 
d="M303 -309h-293l375 1624h285z" />
    <glyph glyph-name="zero" unicode="0" horiz-adv-x="1206" 
d="M602 1001q-258 0 -258 -383q0 -189 64 -292t192 -103q132 0 196 102.5t64 292.5q0 383 -258 383zM602 1257q258 0 405.5 -165t147.5 -474q0 -312 -145.5 -479.5t-407.5 -167.5t-406.5 167t-144.5 480q0 308 148.5 473.5t402.5 165.5z" />
    <glyph glyph-name="one" unicode="1" horiz-adv-x="942" 
d="M887 0h-809v248h299v713q-109 -59 -252 -111l-92 233l459 146h163v-981h232v-248z" />
    <glyph glyph-name="two" unicode="2" horiz-adv-x="1183" 
d="M621 1014q-115 0 -175.5 -67.5t-74.5 -201.5l-277 33q51 477 529 477q485 0 485 -407q0 -171 -129.5 -271t-368.5 -147q-168 -39 -231 -80t-72 -123q217 23 355 23h450v-250h-1053q-4 49 -4 150q0 205 95 308t317 160q149 39 225 74t101.5 71.5t25.5 94.5q0 72 -49 114
t-149 42z" />
    <glyph glyph-name="three" unicode="3" horiz-adv-x="1163" 
d="M598 -20q-251 0 -385.5 95.5t-157.5 301.5l285 33q16 -102 73 -151.5t187 -49.5q108 0 161.5 41t53.5 115q0 79 -43.5 114t-159.5 35h-206v201h206q86 0 129 34t43 111q0 83 -45.5 120.5t-144.5 37.5q-113 0 -161.5 -47.5t-63.5 -147.5l-273 25q53 401 496 401
q241 0 353 -81.5t112 -247.5q0 -121 -71 -190.5t-212 -98.5v-25q186 -18 259 -81t73 -195q0 -165 -123.5 -257.5t-384.5 -92.5z" />
    <glyph glyph-name="four" unicode="4" horiz-adv-x="1191" 
d="M1153 274h-154v-274h-280v274h-680v201l600 754h360v-727h154v-228zM674 502h45v502l-19 6l-401 -516l10 -15q188 23 365 23z" />
    <glyph glyph-name="five" unicode="5" horiz-adv-x="1171" 
d="M598 207q120 0 171.5 44t51.5 132q0 172 -221 172q-141 0 -248 -72l-227 88v658h915v-266q-362 0 -659 26v-309q127 74 313 74q206 0 310 -100.5t104 -272.5q0 -401 -512 -401q-229 0 -361 80.5t-178 250.5l275 72q66 -176 266 -176z" />
    <glyph glyph-name="six" unicode="6" horiz-adv-x="1185" 
d="M616 569q-129 0 -189 -49t-60 -127q0 -80 60 -130t181 -50q126 0 177 50.5t51 137.5q0 168 -220 168zM1120 395q0 -201 -131 -310.5t-387 -109.5q-100 0 -180.5 19.5t-149.5 65.5t-115 118t-72 180.5t-26 249.5q0 137 32 251.5t96.5 204t172.5 139.5t250 50
q126 0 214 -24.5t143.5 -76.5t84.5 -122t42 -172l-281 -31q-19 97 -63 142t-142 45q-148 0 -209 -111t-61 -366v-27l24 -4q40 124 132.5 179.5t236.5 55.5q85 0 153.5 -19t122.5 -59t83.5 -108t29.5 -160z" />
    <glyph glyph-name="seven" unicode="7" horiz-adv-x="1069" 
d="M27 967v262h1017v-262q-373 -388 -401 -967h-328q15 295 144 546.5t352 442.5q-207 -22 -373 -22h-411z" />
    <glyph glyph-name="eight" unicode="8" horiz-adv-x="1175" 
d="M588 -25q-273 0 -401 93t-128 258q0 117 77.5 186.5t244.5 95.5v25q-136 30 -204 98.5t-68 188.5q2 163 116.5 248t362.5 85t363.5 -85t115.5 -248q0 -119 -67.5 -187t-202.5 -100v-25q165 -26 242 -95.5t77 -186.5q0 -165 -127 -258t-401 -93zM588 518
q-131 0 -184.5 -41t-53.5 -115t59.5 -113.5t178.5 -39.5q237 0 237 153q0 74 -52.5 115t-184.5 41zM588 1016q-105 0 -154 -38t-49 -114q0 -155 203 -155t203 155q0 76 -49 114t-154 38z" />
    <glyph glyph-name="nine" unicode="9" horiz-adv-x="1177" 
d="M571 639q121 0 182.5 53t61.5 135q0 83 -60 136t-177 53q-121 0 -174.5 -54.5t-53.5 -142.5q0 -84 55.5 -132t165.5 -48zM571 -25q-164 0 -272.5 44.5t-163 121t-74.5 191.5l277 51q21 -86 78 -127t162 -41q147 0 207.5 109.5t60.5 359.5v16l-25 5q-83 -238 -358 -238
q-88 0 -159 20t-126 61t-85 111.5t-30 165.5q0 204 130.5 316t379.5 112q129 0 226 -32t171.5 -103.5t113 -196t38.5 -300.5q0 -137 -32 -251.5t-96.5 -204.5t-172.5 -140t-250 -50z" />
    <glyph glyph-name="colon" unicode=":" horiz-adv-x="444" 
d="M70 975h303v-293h-303v293zM70 293h303v-293h-303v293z" />
    <glyph glyph-name="semicolon" unicode=";" horiz-adv-x="468" 
d="M119 309h280l-215 -585h-204v12zM84 975h303v-293h-303v293z" />
    <glyph glyph-name="less" unicode="&#x3c;" horiz-adv-x="1048" 
d="M958 16l-901 363v291l901 366v-309l-444 -109q-45 -12 -153.5 -37.5t-135.5 -31.5v-49q132 -27 289 -68l444 -106v-310z" />
    <glyph glyph-name="equal" unicode="=" horiz-adv-x="1077" 
d="M975 313h-873v224h873v-224zM975 702h-873v222h873v-222z" />
    <glyph glyph-name="greater" unicode="&#x3e;" horiz-adv-x="1048" 
d="M68 18v310l444 108q33 8 289 70v49q-132 27 -289 68l-444 106v309l903 -362v-291z" />
    <glyph glyph-name="question" unicode="?" horiz-adv-x="1011" 
d="M719 563q-88 -36 -88 -119v-24h-269v43q0 92 39.5 146t139.5 102q85 40 118 75.5t33 94.5q0 133 -164 133q-109 0 -161 -62.5t-68 -185.5l-272 39q28 217 147.5 332.5t355.5 115.5q221 0 337 -88t116 -260q0 -75 -19 -132t-57.5 -96t-82 -64.5t-105.5 -49.5zM344 293h303
v-293h-303v293z" />
    <glyph glyph-name="at" unicode="@" horiz-adv-x="1726" 
d="M827 -229q-776 0 -776 684q0 146 35.5 280t110 249.5t180.5 200.5t254.5 134t324.5 49q151 0 273.5 -34t206 -93t140 -141t82 -176t25.5 -201q0 -153 -33.5 -270t-92 -186t-132.5 -103.5t-161 -34.5q-271 0 -271 233q0 32 2 48h-20q-53 -140 -121.5 -210.5t-165.5 -70.5
q-104 0 -165.5 71.5t-61.5 215.5q0 110 23 210t66.5 177.5t111.5 123.5t151 46q95 0 143.5 -60.5t61.5 -175.5h12l29 213h227l-67 -506q-7 -62 12 -91t65 -29q71 0 118.5 93t47.5 285q0 100 -27.5 179t-88.5 142t-167.5 97.5t-254.5 34.5q-123 0 -227.5 -37t-178 -102
t-125.5 -153t-77 -191t-25 -215q0 -255 138 -370.5t402 -115.5q103 0 222.5 22t193.5 58h15v-188q-196 -92 -435 -92zM1010 602q13 82 -21.5 129t-103.5 47q-91 0 -138 -91t-47 -230q0 -133 95 -133q77 0 135.5 74t73.5 167z" />
    <glyph glyph-name="A" unicode="A" horiz-adv-x="1226" 
d="M930 0l-84 272h-475l-84 -272h-305l430 1229h405l428 -1229h-315zM485 639l-47 -152h340l-47 152q-48 152 -96 336h-49q-38 -137 -101 -336z" />
    <glyph glyph-name="B" unicode="B" horiz-adv-x="1187" 
d="M676 506h-275v-289h283q85 0 127.5 38.5t42.5 106.5q0 74 -39.5 109t-138.5 35zM645 1004h-244v-297h236q90 0 134 35.5t44 117.5q0 75 -39.5 109.5t-130.5 34.5zM106 0v1229h537q235 0 344 -76.5t109 -237.5q0 -230 -258 -288v-19q168 -17 238.5 -79t70.5 -193
q0 -158 -109.5 -247t-343.5 -89h-588z" />
    <glyph glyph-name="C" unicode="C" horiz-adv-x="1275" 
d="M653 -29q-285 0 -442.5 171t-157.5 476q0 300 163.5 469.5t445.5 169.5q242 0 384.5 -123.5t170.5 -353.5l-281 -55q-25 139 -92 206.5t-191 67.5q-155 0 -231 -104.5t-76 -276.5q0 -189 75 -291t230 -102q130 0 196 68t95 211l279 -47q-28 -231 -175.5 -358.5
t-392.5 -127.5z" />
    <glyph glyph-name="D" unicode="D" horiz-adv-x="1302" 
d="M594 985h-193v-743h203q188 0 271 94.5t83 292.5q0 194 -84 275t-280 81zM106 0v1229h525q622 0 622 -600q0 -293 -166 -461t-460 -168h-521z" />
    <glyph glyph-name="E" unicode="E" horiz-adv-x="1118" 
d="M104 0v1229h930v-256h-633v-238h582v-229h-582v-250h631v-256h-928z" />
    <glyph glyph-name="F" unicode="F" horiz-adv-x="1048" 
d="M942 393h-541v-393h-295v1229h889v-271h-594v-309h541v-256z" />
    <glyph glyph-name="G" unicode="G" horiz-adv-x="1312" 
d="M539 -20q-219 0 -354.5 159.5t-135.5 458.5q0 314 153.5 485.5t450.5 171.5q247 0 379 -104.5t170 -314.5l-276 -60q-29 114 -91.5 168.5t-183.5 54.5q-162 0 -233.5 -101.5t-71.5 -299.5q0 -186 74 -282.5t239 -96.5q82 0 140.5 19t89.5 53.5t44 72.5t13 85h-295v219
h572v-668h-271v268h-24q-43 -133 -138.5 -210.5t-250.5 -77.5z" />
    <glyph glyph-name="H" unicode="H" horiz-adv-x="1310" 
d="M1206 0h-295v479h-510v-479h-295v1229h295v-486h510v486h295v-1229z" />
    <glyph glyph-name="I" unicode="I" horiz-adv-x="505" 
d="M401 0h-295v1229h295v-1229z" />
    <glyph glyph-name="J" unicode="J" horiz-adv-x="647" 
d="M248 371v858h295v-856q0 -183 -87 -286t-272 -103q-80 0 -166 14l15 252q62 -10 100 -10q115 0 115 131z" />
    <glyph glyph-name="K" unicode="K" horiz-adv-x="1187" 
d="M854 0l-367 461h-86v-461h-295v1229h295v-531h82l367 531h336v-23l-488 -604l500 -579v-23h-344z" />
    <glyph glyph-name="L" unicode="L" horiz-adv-x="968" 
d="M401 1229v-965h527v-264h-822v1229h295z" />
    <glyph glyph-name="M" unicode="M" horiz-adv-x="1679" 
d="M377 514v-514h-273v1229h480l153 -475q47 -146 103 -379h34q58 257 103 389l153 465h443v-1229h-295v514q0 34 12 475h-30q-75 -291 -154 -528l-143 -395h-273l-137 403q-81 257 -147 520h-31q2 -150 2 -475z" />
    <glyph glyph-name="N" unicode="N" horiz-adv-x="1331" 
d="M836 0l-250 485q-102 212 -199 482l-33 -4q25 -379 25 -592v-371h-275v1229h418l215 -412q111 -217 209 -510l33 4q-25 318 -25 539v379h273v-1229h-391z" />
    <glyph glyph-name="O" unicode="O" horiz-adv-x="1345" 
d="M672 -29q-295 0 -458 173t-163 474q0 296 167 467.5t454 171.5q291 0 455.5 -171t164.5 -468q0 -301 -162 -474t-458 -173zM672 225q327 0 327 393q0 180 -80 280.5t-247 100.5q-166 0 -246 -101t-80 -280q0 -188 79.5 -290.5t246.5 -102.5z" />
    <glyph glyph-name="P" unicode="P" horiz-adv-x="1126" 
d="M592 979h-191v-379h195q112 0 162.5 46.5t50.5 144.5q0 99 -49.5 143.5t-167.5 44.5zM629 360h-228v-360h-295v1229h512q482 0 482 -438q0 -187 -125.5 -309t-345.5 -122z" />
    <glyph glyph-name="Q" unicode="Q" horiz-adv-x="1347" 
d="M672 225q327 0 327 393q0 180 -80 280.5t-247 100.5q-166 0 -246 -101t-80 -280q0 -188 79.5 -290.5t246.5 -102.5zM672 -29q-295 0 -458 173t-163 474q0 296 167 467.5t454 171.5q291 0 455.5 -171t164.5 -468q0 -350 -217 -524l178 -262v-22h-311l-104 178
q-87 -17 -166 -17z" />
    <glyph glyph-name="R" unicode="R" horiz-adv-x="1218" 
d="M623 981h-222v-328h222q107 0 155.5 39.5t48.5 126.5t-47 124.5t-157 37.5zM848 0l-260 424h-187v-424h-297v1229h539q477 0 477 -400q0 -279 -243 -368l315 -438v-23h-344z" />
    <glyph glyph-name="S" unicode="S" horiz-adv-x="1171" 
d="M600 -29q-504 3 -553 391l281 60q21 -108 94 -161.5t190 -53.5q101 0 153 32t52 91q0 67 -60 104.5t-229 65.5q-125 20 -212 54.5t-137.5 84.5t-72.5 110.5t-22 139.5q0 177 125 272.5t373 95.5q122 0 214 -26t150.5 -75.5t91.5 -113t47 -145.5l-292 -57
q-23 99 -72 143.5t-154 44.5q-192 0 -192 -123q0 -40 17.5 -66.5t80 -52.5t178.5 -47q139 -25 232.5 -63.5t142.5 -90.5t68.5 -107.5t19.5 -127.5q0 -183 -125.5 -281t-388.5 -98z" />
    <glyph glyph-name="T" unicode="T" horiz-adv-x="1056" 
d="M27 958v271h1003v-271h-354v-958h-295v958h-354z" />
    <glyph glyph-name="U" unicode="U" horiz-adv-x="1294" 
d="M651 233q135 0 189.5 66.5t54.5 198.5v731h297v-754q0 -243 -139.5 -372.5t-401.5 -129.5q-263 0 -404 129.5t-141 372.5v754h295v-727q0 -132 55.5 -200.5t194.5 -68.5z" />
    <glyph glyph-name="V" unicode="V" horiz-adv-x="1218" 
d="M809 0h-397l-430 1229h315l197 -639q48 -152 96 -336h47q62 220 98 336l199 639h303z" />
    <glyph glyph-name="W" unicode="W" horiz-adv-x="1753" 
d="M776 518l-84 -518h-409l-299 1229h317l105 -527q54 -291 75 -450h45q30 230 72 450l107 527h372l107 -527q31 -168 67 -450h45q10 77 74 450l96 527h303l-292 -1229h-430l-89 518q-44 272 -69 469h-37q-35 -240 -76 -469z" />
    <glyph glyph-name="X" unicode="X" horiz-adv-x="1159" 
d="M827 0l-241 481h-33l-238 -481h-309v23l367 610l-361 573v23h326l244 -467h32l224 467h309v-23l-361 -608l369 -575v-23h-328z" />
    <glyph glyph-name="Y" unicode="Y" horiz-adv-x="1124" 
d="M711 0h-295v389l-445 817v23h326l248 -588h35l256 588h317v-23l-442 -815v-391z" />
    <glyph glyph-name="Z" unicode="Z" horiz-adv-x="1189" 
d="M1112 270v-270h-1044v264l665 694l-14 29q-251 -29 -359 -29h-272v271h1016v-262l-672 -703l12 -22q215 28 351 28h317z" />
    <glyph glyph-name="bracketleft" unicode="[" horiz-adv-x="647" 
d="M102 -387v1806h508v-229h-227v-1331h227v-246h-508z" />
    <glyph glyph-name="backslash" unicode="\" horiz-adv-x="669" 
d="M383 -309l-365 1624h285l373 -1624h-293z" />
    <glyph glyph-name="bracketright" unicode="]" horiz-adv-x="647" 
d="M35 -387v229h229v1332h-229v245h510v-1806h-510z" />
    <glyph glyph-name="asciicircum" unicode="^" horiz-adv-x="1003" 
d="M829 502l-327 325l-328 -325l-129 119l391 485h131l391 -485z" />
    <glyph glyph-name="underscore" unicode="_" horiz-adv-x="942" 
d="M0 0h942v-227h-942v227z" />
    <glyph glyph-name="grave" unicode="`" horiz-adv-x="667" 
d="M557 1051l-516 221l102 192l482 -278z" />
    <glyph glyph-name="a" unicode="a" horiz-adv-x="1030" 
d="M451 193q94 0 150 50.5t56 129.5v39h-200q-68 0 -108 -29t-40 -80q0 -110 142 -110zM672 0v231h-25q-80 -251 -317 -251q-129 0 -207 68.5t-78 205.5q0 138 87 216.5t271 78.5h254v67q0 158 -149 158q-137 0 -164 -139l-262 59q26 139 134.5 220t301.5 81
q216 0 316 -95.5t100 -283.5v-616h-262z" />
    <glyph glyph-name="b" unicode="b" horiz-adv-x="1093" 
d="M573 217q100 0 147.5 65.5t47.5 200.5q0 134 -47 198t-146 64q-92 0 -145 -61t-53 -166v-76q0 -102 53.5 -163.5t142.5 -61.5zM377 1315v-590h18q39 130 119 201t195 71q160 0 246.5 -132t86.5 -382q0 -248 -87.5 -380t-245.5 -132q-118 0 -198 75.5t-118 207.5h-16v-254
h-279v1315h279z" />
    <glyph glyph-name="c" unicode="c" horiz-adv-x="1054" 
d="M737 575q-21 87 -63.5 133t-128.5 46q-100 0 -154.5 -66t-54.5 -201q0 -131 53.5 -201.5t159.5 -70.5q87 0 131 49.5t61 134.5l256 -61q-26 -175 -135.5 -271t-310.5 -96q-235 0 -367.5 128.5t-132.5 373.5q0 247 132.5 385.5t365.5 138.5q209 0 314 -93.5t132 -278.5z
" />
    <glyph glyph-name="d" unicode="d" horiz-adv-x="1093" 
d="M520 217q88 0 142.5 60t54.5 161v76q0 106 -53.5 168.5t-145.5 62.5q-100 0 -147 -65.5t-47 -202.5q0 -132 47 -196t149 -64zM717 0v254h-17q-38 -132 -118.5 -207.5t-198.5 -75.5q-158 0 -245 131t-87 375q0 252 87.5 386t248.5 134q115 0 193.5 -71t117.5 -201h19v590
h278v-1315h-278z" />
    <glyph glyph-name="e" unicode="e" horiz-adv-x="1044" 
d="M541 788q-97 0 -150 -53.5t-63 -171.5h405q-6 225 -192 225zM545 -27q-227 0 -360.5 125.5t-133.5 366.5q0 252 131 392t367 140q218 0 329 -118.5t111 -325.5q0 -55 -6 -131h-657q12 -116 66 -170.5t155 -54.5q90 0 132 35t64 100l234 -64q-35 -138 -136.5 -216.5
t-295.5 -78.5z" />
    <glyph glyph-name="f" unicode="f" horiz-adv-x="700" 
d="M451 1008v-37h229v-221h-229v-750h-279v750h-141v221h141v45q0 153 87.5 243.5t260.5 90.5q90 0 168 -19l-10 -192q-58 10 -103 10q-124 0 -124 -141z" />
    <glyph glyph-name="g" unicode="g" horiz-adv-x="1032" 
d="M496 760q-97 0 -142 -37t-45 -100q0 -138 187 -138q190 0 190 138q0 63 -47 100t-143 37zM508 -166q116 0 181.5 12t88.5 33.5t23 57.5q0 79 -111 79h-330q-62 0 -99.5 -25.5t-37.5 -62.5q0 -35 22.5 -54.5t85 -29.5t177.5 -10zM1016 -55q0 -105 -49.5 -170.5
t-166.5 -100t-311 -34.5q-136 0 -230 13t-147 39.5t-75.5 61t-22.5 82.5q0 63 62.5 108t165.5 66v13q-76 10 -113 45t-37 88q0 85 123 139l72 37q-110 36 -168 112t-58 189q0 162 116.5 250t324.5 88h491v-209h-106q-89 0 -187 10l-2 -22q104 -20 164 -61.5t60 -119.5
q0 -123 -112 -194.5t-314 -71.5q-87 0 -162 16l-17 -26q-18 -32 -18 -53q0 -26 20 -38t66 -12q54 0 161 3.5t156 3.5q158 0 236 -65.5t78 -186.5z" />
    <glyph glyph-name="h" unicode="h" horiz-adv-x="1087" 
d="M377 541v-541h-279v1315h279v-604h16q43 140 126.5 213t201.5 73q136 0 206 -89.5t70 -250.5v-657h-278v580q0 76 -37.5 120.5t-110.5 44.5q-89 0 -141.5 -56.5t-52.5 -147.5z" />
    <glyph glyph-name="i" unicode="i" horiz-adv-x="491" 
d="M391 1108h-291v201h291v-201zM385 0h-279v971h279v-971z" />
    <glyph glyph-name="j" unicode="j" horiz-adv-x="509" 
d="M403 55q0 -186 -82.5 -285.5t-267.5 -99.5q-32 0 -90 8l12 240q35 -6 66 -6q84 0 84 106v951h278v-914zM410 1108h-291v201h291v-201z" />
    <glyph glyph-name="k" unicode="k" horiz-adv-x="1030" 
d="M381 1315v-723h76l248 379h317v-23l-346 -450l366 -475v-23h-317l-272 389h-72v-389h-279v1315h279z" />
    <glyph glyph-name="l" unicode="l" horiz-adv-x="483" 
d="M381 1315v-1315h-279v1315h279z" />
    <glyph glyph-name="m" unicode="m" horiz-adv-x="1710" 
d="M377 541v-541h-279v971h273v-260h20q41 140 125.5 213t200.5 73q126 0 192.5 -75t75.5 -215h23q81 290 323 290q140 0 213.5 -89.5t73.5 -250.5v-657h-281v580q0 77 -36.5 121t-110.5 44q-88 0 -140.5 -56t-52.5 -148v-541h-278v580q0 76 -37.5 120.5t-110.5 44.5
q-89 0 -141.5 -56.5t-52.5 -147.5z" />
    <glyph glyph-name="n" unicode="n" horiz-adv-x="1087" 
d="M377 541v-541h-279v971h273v-260h18q42 140 127.5 213t200.5 73q137 0 208.5 -89.5t71.5 -250.5v-657h-278v580q0 76 -37 120.5t-111 44.5q-89 0 -141.5 -56.5t-52.5 -147.5z" />
    <glyph glyph-name="o" unicode="o" horiz-adv-x="1101" 
d="M553 -29q-236 0 -369 137t-133 377q0 241 134.5 376.5t367.5 135.5q229 0 363.5 -135.5t134.5 -376.5q0 -239 -133 -376.5t-365 -137.5zM551 764q-221 0 -221 -277q0 -136 53 -207t168 -71q221 0 221 278q0 277 -221 277z" />
    <glyph glyph-name="p" unicode="p" horiz-adv-x="1093" 
d="M573 217q100 0 147.5 65.5t47.5 200.5q0 134 -47 198t-146 64q-92 0 -145 -61t-53 -166v-76q0 -102 53.5 -163.5t142.5 -61.5zM1042 483q0 -248 -87.5 -380t-245.5 -132q-118 0 -198 75.5t-118 207.5h-16v-565h-279v1282h279v-246h18q39 130 119 201t195 71
q160 0 246.5 -132t86.5 -382z" />
    <glyph glyph-name="q" unicode="q" horiz-adv-x="1093" 
d="M520 217q89 0 143 60.5t54 160.5v76q0 107 -53.5 169t-145.5 62q-99 0 -146.5 -65.5t-47.5 -200.5q0 -133 47.5 -197.5t148.5 -64.5zM51 477q0 253 87 386.5t249 133.5q118 0 197.5 -74.5t117.5 -209.5l15 6v252h278v-1290h-278v573h-17q-38 -132 -119.5 -207.5
t-199.5 -75.5q-155 0 -242.5 131t-87.5 375z" />
    <glyph glyph-name="r" unicode="r" horiz-adv-x="718" 
d="M377 0h-279v971h264v-316h23q22 100 49 165t61.5 99.5t71.5 48t88 13.5h29v-319h-57q-145 0 -197.5 -49.5t-52.5 -180.5v-432z" />
    <glyph glyph-name="s" unicode="s" horiz-adv-x="960" 
d="M496 -29q-119 0 -205 22.5t-136.5 66t-76.5 96t-37 123.5l250 51q38 -162 211 -162q140 0 143 94q0 46 -44.5 74t-172.5 53q-197 42 -276.5 113.5t-79.5 197.5q0 142 102.5 219.5t304.5 77.5q104 0 178 -19t120.5 -57.5t72 -87t39.5 -116.5l-248 -51q-17 75 -55 107
t-113 32q-137 0 -137 -88q0 -45 40 -74t161 -53q112 -23 186.5 -54t115.5 -71.5t57.5 -85.5t16.5 -105q0 -303 -417 -303z" />
    <glyph glyph-name="t" unicode="t" horiz-adv-x="739" 
d="M150 305v445h-119v221h119v250h278v-250h256v-221h-256v-400q0 -60 26 -88.5t87 -28.5q50 0 127 25l30 -250q-65 -20 -110.5 -28.5t-118.5 -8.5q-160 0 -239.5 93t-79.5 241z" />
    <glyph glyph-name="u" unicode="u" horiz-adv-x="1091" 
d="M721 0v258h-21q-41 -140 -126 -213.5t-201 -73.5q-136 0 -207.5 90.5t-71.5 251.5v658h279v-580q0 -78 36.5 -123t110.5 -45q88 0 140.5 57t52.5 150v541h280v-971h-272z" />
    <glyph glyph-name="v" unicode="v" horiz-adv-x="997" 
d="M686 0h-373l-329 971h303l102 -381q14 -55 45.5 -169.5t46.5 -174.5h41q31 119 94 344l103 381h295z" />
    <glyph glyph-name="w" unicode="w" horiz-adv-x="1531" 
d="M936 971l80 -383q37 -167 69 -375h35q5 28 76 377l74 381h274l-268 -971h-365l-82 418q-36 200 -53 342h-35q-10 -80 -53 -342l-76 -418h-354l-270 971h286l86 -381q57 -246 78 -377h37q28 184 68 375l80 383h313z" />
    <glyph glyph-name="x" unicode="x" horiz-adv-x="1028" 
d="M686 0l-172 383h-35l-151 -383h-312v23l279 485l-275 440v23h320l168 -375h37l153 375h295v-23l-264 -481l277 -444v-23h-320z" />
    <glyph glyph-name="y" unicode="y" horiz-adv-x="1005" 
d="M172 -344q-71 0 -160 14l41 236q77 -15 125 -15q78 0 120.5 24t74.5 97l-365 959h305l97 -357q6 -24 41 -153t53 -199h35q78 305 88 346l90 363h299l-383 -975q-72 -182 -176.5 -261t-284.5 -79z" />
    <glyph glyph-name="z" unicode="z" horiz-adv-x="1024" 
d="M684 236h260v-236h-872v240l553 501l-11 23q-205 -29 -329 -29h-197v236h850v-240l-555 -506l8 -18q211 29 293 29z" />
    <glyph glyph-name="braceleft" unicode="{" horiz-adv-x="765" 
d="M719 -371q-71 -6 -184 -6q-367 0 -367 244q1 62 28 122.5t59 101.5t58.5 95.5t26.5 106.5q0 60 -36 88.5t-120 28.5h-145v237h143q174 0 174 131q0 44 -19 88t-46 82t-54 77t-46 88.5t-19 100.5q0 244 365 244q113 0 186 -6l-2 -231q-39 2 -105 2q-141 0 -141 -93
q0 -33 20 -76t43.5 -80t43.5 -92t20 -110q0 -98 -69 -154t-211 -73v-27q154 -13 217 -61t63 -144q0 -56 -20 -112t-44.5 -93t-44.5 -79.5t-20 -75.5q0 -47 32.5 -70.5t108.5 -23.5q27 0 105 4v-234z" />
    <glyph glyph-name="bar" unicode="|" horiz-adv-x="485" 
d="M381 -360h-279v1779h279v-1779z" />
    <glyph glyph-name="braceright" unicode="}" horiz-adv-x="765" 
d="M229 -383q-39 0 -186 6l2 234q78 -4 102 -4q144 0 144 94q0 33 -20 76t-43.5 79.5t-43.5 92t-20 110.5q0 98 69 153t211 74v25q-153 12 -216.5 60.5t-63.5 146.5q0 55 20 110.5t44.5 92.5t44.5 80.5t20 76.5q0 93 -141 93q-46 0 -105 -3v232q71 6 184 6q187 0 277 -62.5
t88 -181.5q0 -50 -17.5 -98t-42.5 -86t-50 -75t-42.5 -80.5t-17.5 -86.5q0 -59 36 -86.5t120 -27.5h145v-238h-143q-174 0 -174 -131q0 -44 19 -88t46 -82.5t54 -78t46 -89t19 -100.5q0 -244 -365 -244z" />
    <glyph glyph-name="asciitilde" unicode="~" horiz-adv-x="1030" 
d="M713 535q-67 0 -120.5 28.5t-86.5 69t-60 81t-56 69t-60 28.5q-59 0 -81 -61.5t-16 -198.5h-155q-8 71 -8 143q0 186 58 277.5t179 91.5q57 0 104 -20.5t76.5 -51.5t57 -66.5t47 -66.5t45.5 -51.5t53 -20.5q58 0 82 64t16 197h154q8 -68 8 -142q0 -186 -58 -278t-179 -92
z" />
    <glyph glyph-name="uni00A0" unicode="&#xa0;" horiz-adv-x="348" 
 />
    <glyph glyph-name="exclamdown" unicode="&#xa1;" horiz-adv-x="509" 
d="M115 516h280v-774h-280v774zM406 678h-302v293h302v-293z" />
    <glyph glyph-name="cent" unicode="&#xa2;" horiz-adv-x="1052" 
d="M426 1227h236l-19 -254q160 -18 244 -106t108 -242l-258 -50q-21 86 -63.5 131.5t-126.5 45.5q-101 0 -156 -66t-55 -199q0 -124 54.5 -197t158.5 -73q87 0 131 49t61 133l256 -61q-45 -304 -354 -340l19 -252h-236l18 254q-187 25 -290 145.5t-103 327.5
q0 211 103.5 340.5t289.5 157.5z" />
    <glyph glyph-name="sterling" unicode="&#xa3;" horiz-adv-x="1144" 
d="M1075 0h-1028v242h191q14 57 14 120q0 44 -8 80h-197v207h141q-41 132 -41 242q0 167 117 262.5t342 95.5q98 0 174.5 -21t125.5 -55.5t83.5 -86t51.5 -105t26 -119.5l-252 -57q-24 108 -69.5 155.5t-139.5 47.5t-138 -45.5t-44 -124.5q0 -58 29 -189h471v-207h-447
q-2 -62 -18 -106.5t-58 -93.5h674v-242z" />
    <glyph glyph-name="yen" unicode="&#xa5;" horiz-adv-x="1220" 
d="M1145 287h-385v-287h-295v287h-389v178h348l-72 131h-276v188h174l-230 422v23h326l248 -588h35l256 588h317v-23l-229 -422h172v-188h-275l-71 -131h346v-178z" />
    <glyph glyph-name="brokenbar" unicode="&#xa6;" horiz-adv-x="509" 
d="M393 -360h-276v786h276v-786zM393 621h-276v798h276v-798z" />
    <glyph glyph-name="section" unicode="&#xa7;" horiz-adv-x="1259" 
d="M639 -365q-142 0 -246 27.5t-167 80t-98 118t-52 153.5l280 68q27 -110 97.5 -169.5t210.5 -59.5q204 0 204 114q0 41 -22 66.5t-87 48.5t-190 45q-203 38 -320.5 87.5t-165.5 112.5t-48 154q0 153 172 254q-53 67 -53 180q0 163 115.5 252.5t344.5 89.5q108 0 189 -16.5
t135 -46t91 -78t57.5 -104.5t33.5 -133l-282 -48q-22 112 -75 164t-157 52q-93 0 -136.5 -33t-43.5 -90q0 -30 9.5 -50.5t40 -43.5t97.5 -42.5t172 -37.5q115 -20 198 -45.5t136.5 -55t85 -67.5t44 -79t12.5 -95q0 -154 -134 -246q60 -70 60 -191q0 -336 -508 -336zM674 340
q205 -39 315 -100q21 46 21 96q0 61 -31.5 96t-121.5 66.5t-279 70.5q-186 37 -285 95q-35 -52 -35 -107q0 -37 15 -63t58.5 -52.5t127 -51t215.5 -50.5z" />
    <glyph glyph-name="dieresis" unicode="&#xa8;" horiz-adv-x="712" 
d="M57 1374h248v-239h-248v239zM408 1374h247v-239h-247v239z" />
    <glyph glyph-name="copyright" unicode="&#xa9;" horiz-adv-x="1851" 
d="M926 -23q166 0 287 45.5t193.5 131t107 200t34.5 262.5t-35.5 262.5t-108.5 199t-194 129t-284 44.5q-320 0 -471.5 -167t-151.5 -468q0 -147 35 -262t108 -200.5t194 -131t286 -45.5zM926 1462q171 0 311 -39.5t240 -112.5t168 -177.5t100.5 -234t32.5 -282.5
t-32 -282.5t-100 -235t-167.5 -178.5t-240 -113t-312.5 -40q-214 0 -378 61t-267 174t-155 267.5t-52 346.5q0 153 32.5 282.5t100.5 234t168 177.5t240 112.5t311 39.5zM1090 690q-10 79 -45 120.5t-113 41.5q-176 0 -176 -227q0 -111 43.5 -174.5t132.5 -63.5
q79 0 115.5 40.5t42.5 115.5l235 -29q-12 -171 -105.5 -255.5t-287.5 -84.5q-200 0 -314 111t-114 325t114 334.5t316 120.5q99 0 171 -23.5t116.5 -70.5t68 -108.5t31.5 -145.5z" />
    <glyph glyph-name="ordfeminine" unicode="&#xaa;" horiz-adv-x="823" 
d="M371 799q64 0 102.5 37t38.5 96v37h-125q-57 0 -90 -24t-33 -66q0 -80 107 -80zM524 670v159h-16q-31 -82 -91.5 -130t-148.5 -48q-102 0 -162.5 46.5t-60.5 150.5q0 87 66 143t200 56h201v61q0 111 -100 111q-93 0 -117 -99l-217 49q23 99 108.5 158t235.5 59
q328 0 328 -282v-434h-226z" />
    <glyph glyph-name="guillemotleft" unicode="&#xab;" horiz-adv-x="1310" 
d="M739 66h-270l-438 448v29l438 448h270v-26l-417 -437l417 -436v-26zM1284 66h-270l-439 448v29l439 448h270v-26l-418 -437l418 -436v-26z" />
    <glyph glyph-name="registered" unicode="&#xae;" horiz-adv-x="1853" 
d="M944 844h-164v-213h166q133 0 133 106q0 57 -31.5 82t-103.5 25zM1090 211l-170 260h-140v-260h-235v817h426q344 0 344 -283q0 -189 -172 -247l207 -267v-20h-260zM926 -23q166 0 287 45.5t193.5 131t107 200t34.5 262.5t-35.5 262.5t-108.5 199t-194 129t-284 44.5
q-320 0 -471.5 -167t-151.5 -468q0 -147 35 -262t108 -200.5t194 -131t286 -45.5zM926 -233q-214 0 -378 61t-267 174t-155 267.5t-52 346.5q0 153 32.5 282.5t100.5 234t168 177.5t240 112.5t311 39.5t311 -39.5t240 -112.5t168 -177.5t100.5 -234t32.5 -282.5t-32 -282.5
t-100 -235t-167.5 -178.5t-240 -113t-312.5 -40z" />
    <glyph glyph-name="macron" unicode="&#xaf;" horiz-adv-x="643" 
d="M43 1323h555v-188h-555v188z" />
    <glyph glyph-name="degree" unicode="&#xb0;" horiz-adv-x="706" 
d="M662 948q0 -136 -84 -218.5t-224 -82.5q-141 0 -224 82t-83 219t83 219t224 82q140 0 224 -82.5t84 -218.5zM225 948q0 -63 33 -98t96 -35q62 0 94.5 35t32.5 98t-32.5 99t-94.5 36q-63 0 -96 -36t-33 -99z" />
    <glyph glyph-name="twosuperior" unicode="&#xb2;" horiz-adv-x="757" 
d="M391 1235q-120 0 -139 -141l-193 26q33 271 334 271q309 0 309 -236q0 -102 -70.5 -151t-236.5 -80q-98 -21 -135 -45t-43 -68q105 18 211 18h279v-174h-668q0 14 -1 43t-1 45q0 119 59.5 185t210.5 100q116 27 155.5 54t39.5 71q0 82 -111 82z" />
    <glyph glyph-name="threesuperior" unicode="&#xb3;" horiz-adv-x="737" 
d="M365 639q-309 0 -336 231l190 31q8 -53 42 -79.5t108 -26.5q120 0 120 79q0 39 -25.5 57.5t-90.5 18.5h-103v127h103q55 0 79.5 19t24.5 57q0 41 -26.5 60.5t-85.5 19.5q-67 0 -97 -25t-41 -78l-184 37q47 222 319 222q153 0 230.5 -51t77.5 -148q0 -69 -43 -108
t-135 -54v-22q108 -10 153 -47.5t45 -112.5q0 -98 -81.5 -152.5t-243.5 -54.5z" />
    <glyph glyph-name="acute" unicode="&#xb4;" horiz-adv-x="667" 
d="M111 1051l-70 135l483 278l101 -192z" />
    <glyph glyph-name="paragraph" unicode="&#xb6;" horiz-adv-x="1413" 
d="M1309 -317h-260v1546h260v-1546zM936 -317h-260v567h-111q-245 0 -380.5 122.5t-135.5 352.5q0 504 516 504h371v-1546z" />
    <glyph glyph-name="periodcentered" unicode="&#xb7;" horiz-adv-x="444" 
d="M70 645h303v-293h-303v293z" />
    <glyph glyph-name="cedilla" unicode="&#xb8;" horiz-adv-x="464" 
d="M252 -344q-127 0 -209 57l55 86q72 -45 154 -45q72 0 72 51q0 48 -72 48q-33 0 -76 -13l-72 29l66 182l106 -2l-53 -143q35 12 72 12q147 0 147 -123q0 -53 -45.5 -96t-144.5 -43z" />
    <glyph glyph-name="onesuperior" unicode="&#xb9;" horiz-adv-x="600" 
d="M580 655h-537v170h188v379q-83 -53 -155 -78l-62 154l275 94h139v-549h152v-170z" />
    <glyph glyph-name="ordmasculine" unicode="&#xba;" horiz-adv-x="804" 
d="M408 657q-168 0 -264.5 98t-96.5 269q0 169 97 265.5t264 96.5q165 0 261.5 -96.5t96.5 -265.5q0 -171 -95.5 -269t-262.5 -98zM408 1219q-156 0 -156 -193q0 -197 156 -197q153 0 153 197q0 193 -153 193z" />
    <glyph glyph-name="guillemotright" unicode="&#xbb;" horiz-adv-x="1312" 
d="M844 61h-269v27l416 432v6l-416 435v26h269l438 -450v-27zM299 61h-270v27l417 434v2l-417 437v26h270l438 -450v-27z" />
    <glyph glyph-name="onequarter" unicode="&#xbc;" horiz-adv-x="1505" 
d="M410 0h-396v12l621 543l43 -31zM1012 1229h395v-12l-621 -543l-43 33zM580 655h-537v170h188v379q-83 -53 -155 -78l-62 154l275 94h139v-549h152v-170zM1130 162v280l-8 2l-231 -294l2 -5q143 17 237 17zM1413 12h-90v-155h-193v155h-409v127l348 434h254v-411h90v-150z
" />
    <glyph glyph-name="onehalf" unicode="&#xbd;" horiz-adv-x="1474" 
d="M383 0h-395v12l620 543l43 -31zM985 1229h395v-12l-620 -543l-43 33zM580 655h-537v170h188v379q-83 -53 -155 -78l-62 154l275 94h139v-549h152v-170zM1075 436q-120 0 -139 -141l-193 27q33 270 334 270q309 0 309 -236q0 -102 -70.5 -151t-236.5 -80q-98 -21 -135 -45
t-43 -68q111 19 211 19h279v-174h-668q0 14 -1 43t-1 45q0 119 59.5 184.5t210.5 99.5q116 27 155.5 54t39.5 71q0 82 -111 82z" />
    <glyph glyph-name="threequarters" unicode="&#xbe;" horiz-adv-x="1544" 
d="M461 0h-395v12l620 543l43 -31zM1063 1229h395v-12l-620 -543l-43 33zM1454 12h-90v-155h-193v155h-409v127l348 434h254v-411h90v-150zM369 639q-309 0 -336 231l190 31q8 -53 42 -79.5t108 -26.5q121 0 121 79q0 39 -26 57.5t-91 18.5h-103v127h103q55 0 79.5 19
t24.5 57q0 41 -26.5 60.5t-85.5 19.5q-67 0 -97 -25t-41 -78l-184 37q47 222 320 222q153 0 230 -51t77 -148q0 -69 -43 -108t-135 -54v-22q108 -10 153 -47.5t45 -112.5q0 -98 -81.5 -152.5t-243.5 -54.5zM1171 162v280l-8 2l-231 -294l2 -5q143 17 237 17z" />
    <glyph glyph-name="questiondown" unicode="&#xbf;" horiz-adv-x="1011" 
d="M293 408q90 36 90 118v23h266q2 -14 2 -41q0 -93 -39.5 -146.5t-140.5 -101.5q-83 -40 -116 -76.5t-33 -95.5q0 -133 163 -133q108 0 160 63t68 185l272 -39q-26 -216 -146.5 -331.5t-357.5 -115.5q-220 0 -336 88t-116 261q0 75 19 132t57.5 96t82 64.5t105.5 49.5z
M670 678h-303v293h303v-293z" />
    <glyph glyph-name="Agrave" unicode="&#xc0;" horiz-adv-x="1226" 
d="M930 0l-84 272h-475l-84 -272h-305l430 1229h405l428 -1229h-315zM778 1331l-547 133l66 203l526 -194zM485 639l-47 -152h340l-47 152q-48 152 -96 336h-49q-38 -137 -101 -336z" />
    <glyph glyph-name="Aacute" unicode="&#xc1;" horiz-adv-x="1226" 
d="M930 0l-84 272h-475l-84 -272h-305l430 1229h405l428 -1229h-315zM436 1331l-45 142l527 196l65 -207zM485 639l-47 -152h340l-47 152q-48 152 -96 336h-49q-38 -137 -101 -336z" />
    <glyph glyph-name="Acircumflex" unicode="&#xc2;" horiz-adv-x="1226" 
d="M930 0l-84 272h-475l-84 -272h-305l430 1229h405l428 -1229h-315zM852 1309l-240 155l-239 -155l-84 100l280 258h88l279 -258zM485 639l-47 -152h340l-47 152q-48 152 -96 336h-49q-38 -137 -101 -336z" />
    <glyph glyph-name="Atilde" unicode="&#xc3;" horiz-adv-x="1226" 
d="M930 0l-84 272h-475l-84 -272h-305l430 1229h405l428 -1229h-315zM469 1686q43 0 79.5 -18t60 -43t44 -50.5t41.5 -43.5t43 -18q41 0 56.5 38.5t13.5 123.5h121q6 -50 6 -94q0 -126 -47 -191t-129 -65q-39 0 -72.5 17.5t-56.5 43t-44.5 51t-45.5 43t-50 17.5
q-39 0 -54 -36t-15 -124h-119q-6 53 -6 93q0 127 46.5 191.5t127.5 64.5zM485 639l-47 -152h340l-47 152q-48 152 -96 336h-49q-38 -137 -101 -336z" />
    <glyph glyph-name="Adieresis" unicode="&#xc4;" horiz-adv-x="1226" 
d="M930 0l-84 272h-475l-84 -272h-305l430 1229h405l428 -1229h-315zM309 1585h248v-239h-248v239zM659 1585h248v-239h-248v239zM485 639l-47 -152h340l-47 152q-48 152 -96 336h-49q-38 -137 -101 -336z" />
    <glyph glyph-name="Aring" unicode="&#xc5;" horiz-adv-x="1226" 
d="M930 0l-84 272h-475l-84 -272h-305l430 1229h405l428 -1229h-315zM516 1536q0 -43 26.5 -68.5t71.5 -25.5t72 26t27 70q0 43 -27.5 68.5t-71.5 25.5q-46 0 -72 -26t-26 -70zM848 1538q0 -101 -63.5 -162t-170.5 -61q-108 0 -170.5 60t-62.5 161q0 102 62.5 162.5
t170.5 60.5q107 0 170.5 -60.5t63.5 -160.5zM485 639l-47 -152h340l-47 152q-48 152 -96 336h-49q-38 -137 -101 -336z" />
    <glyph glyph-name="AE" unicode="&#xc6;" horiz-adv-x="1783" 
d="M569 639l-69 -164h270v512h-65q-63 -177 -136 -348zM770 0v256h-364l-111 -256h-305v12l567 1217h1143v-256h-633v-238h582v-229h-582v-250h631v-256h-928z" />
    <glyph glyph-name="Ccedilla" unicode="&#xc7;" horiz-adv-x="1275" 
d="M653 -29h-6l-24 -65q34 12 71 12q148 0 148 -123q0 -53 -46 -96t-145 -43q-127 0 -209 57l56 86q72 -45 153 -45q72 0 72 51q0 48 -72 48q-33 0 -76 -13l-71 29l39 111q-234 32 -362 198.5t-128 439.5q0 300 163.5 469.5t445.5 169.5q242 0 384.5 -123.5t170.5 -353.5
l-281 -55q-25 139 -92 206.5t-191 67.5q-155 0 -231 -104.5t-76 -276.5q0 -189 75 -291t230 -102q130 0 196 68t95 211l279 -47q-28 -231 -175.5 -358.5t-392.5 -127.5z" />
    <glyph glyph-name="Egrave" unicode="&#xc8;" horiz-adv-x="1118" 
d="M104 0v1229h930v-256h-633v-238h582v-229h-582v-250h631v-256h-928zM737 1331l-547 133l66 203l526 -194z" />
    <glyph glyph-name="Eacute" unicode="&#xc9;" horiz-adv-x="1118" 
d="M104 0v1229h930v-256h-633v-238h582v-229h-582v-250h631v-256h-928zM395 1331l-45 142l527 196l65 -207z" />
    <glyph glyph-name="Ecircumflex" unicode="&#xca;" horiz-adv-x="1118" 
d="M104 0v1229h930v-256h-633v-238h582v-229h-582v-250h631v-256h-928zM811 1309l-240 155l-239 -155l-84 100l280 258h88l279 -258z" />
    <glyph glyph-name="Edieresis" unicode="&#xcb;" horiz-adv-x="1118" 
d="M104 0v1229h930v-256h-633v-238h582v-229h-582v-250h631v-256h-928zM268 1585h248v-239h-248v239zM618 1585h248v-239h-248v239z" />
    <glyph glyph-name="Igrave" unicode="&#xcc;" horiz-adv-x="505" 
d="M401 0h-295v1229h295v-1229zM418 1331l-547 133l66 203l526 -194z" />
    <glyph glyph-name="Iacute" unicode="&#xcd;" horiz-adv-x="505" 
d="M401 0h-295v1229h295v-1229zM76 1331l-45 142l526 196l66 -207z" />
    <glyph glyph-name="Icircumflex" unicode="&#xce;" horiz-adv-x="505" 
d="M401 0h-295v1229h295v-1229zM492 1309l-240 155l-240 -155l-84 100l281 258h88l278 -258z" />
    <glyph glyph-name="Idieresis" unicode="&#xcf;" horiz-adv-x="505" 
d="M401 0h-295v1229h295v-1229zM-47 1585h248v-239h-248v239zM303 1585h248v-239h-248v239z" />
    <glyph glyph-name="Eth" unicode="&#xd0;" horiz-adv-x="1357" 
d="M727 526h-272v-284h202q188 0 271.5 94.5t83.5 292.5q0 194 -84.5 275t-280.5 81h-192v-285h272v-174zM160 0v526h-121v174h121v529h524q623 0 623 -600q0 -293 -166.5 -461t-460.5 -168h-520z" />
    <glyph glyph-name="Ntilde" unicode="&#xd1;" horiz-adv-x="1331" 
d="M836 0l-250 485q-102 212 -199 482l-33 -4q25 -379 25 -592v-371h-275v1229h418l215 -412q111 -217 209 -510l33 4q-25 318 -25 539v379h273v-1229h-391zM522 1686q43 0 79.5 -18t60.5 -43t44 -50.5t41.5 -43.5t43.5 -18q41 0 56 38t13 124h121q6 -50 6 -94
q0 -126 -47 -191t-129 -65q-39 0 -72.5 17.5t-56.5 43t-44 51t-45 43t-50 17.5q-39 0 -54.5 -36.5t-15.5 -123.5h-119q-6 53 -6 93q0 127 46.5 191.5t127.5 64.5z" />
    <glyph glyph-name="Ograve" unicode="&#xd2;" horiz-adv-x="1345" 
d="M672 -29q-295 0 -458 173t-163 474q0 296 167 467.5t454 171.5q291 0 455.5 -171t164.5 -468q0 -301 -162 -474t-458 -173zM672 225q327 0 327 393q0 180 -80 280.5t-247 100.5q-166 0 -246 -101t-80 -280q0 -188 79.5 -290.5t246.5 -102.5zM838 1331l-547 133l65 203
l527 -194z" />
    <glyph glyph-name="Oacute" unicode="&#xd3;" horiz-adv-x="1345" 
d="M672 -29q-295 0 -458 173t-163 474q0 296 167 467.5t454 171.5q291 0 455.5 -171t164.5 -468q0 -301 -162 -474t-458 -173zM672 225q327 0 327 393q0 180 -80 280.5t-247 100.5q-166 0 -246 -101t-80 -280q0 -188 79.5 -290.5t246.5 -102.5zM496 1331l-45 142l526 196
l65 -207z" />
    <glyph glyph-name="Ocircumflex" unicode="&#xd4;" horiz-adv-x="1345" 
d="M672 225q327 0 327 393q0 180 -80 280.5t-247 100.5q-166 0 -246 -101t-80 -280q0 -188 79.5 -290.5t246.5 -102.5zM672 -29q-295 0 -458 173t-163 474q0 296 167 467.5t454 171.5q291 0 455.5 -171t164.5 -468q0 -301 -162 -474t-458 -173zM911 1309l-239 155l-240 -155
l-84 100l281 258h88l278 -258z" />
    <glyph glyph-name="Otilde" unicode="&#xd5;" horiz-adv-x="1345" 
d="M672 -29q-295 0 -458 173t-163 474q0 296 167 467.5t454 171.5q291 0 455.5 -171t164.5 -468q0 -301 -162 -474t-458 -173zM672 225q327 0 327 393q0 180 -80 280.5t-247 100.5q-166 0 -246 -101t-80 -280q0 -188 79.5 -290.5t246.5 -102.5zM528 1686q43 0 79.5 -18
t60.5 -43t44 -50.5t41.5 -43.5t43.5 -18q41 0 56 38t13 124h121q6 -50 6 -94q0 -126 -47 -191t-129 -65q-39 0 -72.5 17.5t-56.5 43t-44 51t-45 43t-50 17.5q-39 0 -54.5 -36.5t-15.5 -123.5h-119q-6 53 -6 93q0 127 46.5 191.5t127.5 64.5z" />
    <glyph glyph-name="Odieresis" unicode="&#xd6;" horiz-adv-x="1345" 
d="M672 -29q-295 0 -458 173t-163 474q0 296 167 467.5t454 171.5q291 0 455.5 -171t164.5 -468q0 -301 -162 -474t-458 -173zM672 225q327 0 327 393q0 180 -80 280.5t-247 100.5q-166 0 -246 -101t-80 -280q0 -188 79.5 -290.5t246.5 -102.5zM369 1585h247v-239h-247v239z
M719 1585h248v-239h-248v239z" />
    <glyph glyph-name="multiply" unicode="&#xd7;" horiz-adv-x="1042" 
d="M778 180q-65 72 -258 285q-133 -150 -256 -285l-196 195q89 81 290 250q-219 187 -290 252l196 194q46 -50 129 -144t129 -145q248 281 256 289l197 -194q-56 -51 -291 -252q37 -32 100.5 -85.5t106.5 -90t84 -74.5z" />
    <glyph glyph-name="Oslash" unicode="&#xd8;" horiz-adv-x="1343" 
d="M672 -29q-226 0 -377 105l-66 -76h-219v12l168 174q-127 168 -127 432q0 296 167 467.5t454 171.5q232 0 385 -110l69 82h213v-12l-170 -181q123 -163 123 -418q0 -301 -162 -474t-458 -173zM332 618q0 -135 39 -223l508 551q-84 62 -207 62q-171 0 -255.5 -108
t-84.5 -282zM672 217q340 0 340 401q0 120 -39 205l-504 -551q76 -55 203 -55z" />
    <glyph glyph-name="Ugrave" unicode="&#xd9;" horiz-adv-x="1294" 
d="M651 233q135 0 189.5 66.5t54.5 198.5v731h297v-754q0 -243 -139.5 -372.5t-401.5 -129.5q-263 0 -404 129.5t-141 372.5v754h295v-727q0 -132 55.5 -200.5t194.5 -68.5zM813 1331l-547 133l66 203l526 -194z" />
    <glyph glyph-name="Uacute" unicode="&#xda;" horiz-adv-x="1294" 
d="M651 233q135 0 189.5 66.5t54.5 198.5v731h297v-754q0 -243 -139.5 -372.5t-401.5 -129.5q-263 0 -404 129.5t-141 372.5v754h295v-727q0 -132 55.5 -200.5t194.5 -68.5zM471 1331l-45 142l526 196l66 -207z" />
    <glyph glyph-name="Ucircumflex" unicode="&#xdb;" horiz-adv-x="1294" 
d="M651 233q135 0 189.5 66.5t54.5 198.5v731h297v-754q0 -243 -139.5 -372.5t-401.5 -129.5q-263 0 -404 129.5t-141 372.5v754h295v-727q0 -132 55.5 -200.5t194.5 -68.5zM887 1309l-240 155l-239 -155l-84 100l280 258h88l279 -258z" />
    <glyph glyph-name="Udieresis" unicode="&#xdc;" horiz-adv-x="1294" 
d="M651 233q135 0 189.5 66.5t54.5 198.5v731h297v-754q0 -243 -139.5 -372.5t-401.5 -129.5q-263 0 -404 129.5t-141 372.5v754h295v-727q0 -132 55.5 -200.5t194.5 -68.5zM344 1585h248v-239h-248v239zM694 1585h248v-239h-248v239z" />
    <glyph glyph-name="Yacute" unicode="&#xdd;" horiz-adv-x="1124" 
d="M711 0h-295v389l-445 817v23h326l248 -588h35l256 588h317v-23l-442 -815v-391zM385 1331l-45 142l526 196l66 -207z" />
    <glyph glyph-name="Thorn" unicode="&#xde;" horiz-adv-x="1150" 
d="M106 1229h295v-162h242q483 0 483 -438q0 -201 -123.5 -320t-353.5 -119h-248v-190h-295v1229zM618 817h-217v-377h220q113 0 163 46t50 143q0 98 -49.5 143t-166.5 45z" />
    <glyph glyph-name="germandbls" unicode="&#xdf;" horiz-adv-x="1171" 
d="M690 -20q-153 0 -254 73l70 244q67 -61 168 -61q168 0 168 161q0 81 -46 123.5t-161 42.5h-129v230h72q77 0 121 43t44 120q0 70 -41 113t-129 43q-192 0 -192 -219v-893h-279v903q0 212 123 322t353 110q214 0 326 -91t112 -234q0 -130 -68.5 -201.5t-202.5 -95.5v-33
q206 -18 287.5 -95.5t81.5 -232.5q0 -170 -104.5 -271t-319.5 -101z" />
    <glyph glyph-name="agrave" unicode="&#xe0;" horiz-adv-x="1030" 
d="M451 193q94 0 150 50.5t56 129.5v39h-200q-68 0 -108 -29t-40 -80q0 -110 142 -110zM672 0v231h-25q-80 -251 -317 -251q-129 0 -207 68.5t-78 205.5q0 138 87 216.5t271 78.5h254v67q0 158 -149 158q-137 0 -164 -139l-262 59q26 139 134.5 220t301.5 81
q216 0 316 -95.5t100 -283.5v-616h-262zM680 1051l-516 221l102 192l482 -278z" />
    <glyph glyph-name="aacute" unicode="&#xe1;" horiz-adv-x="1030" 
d="M451 193q94 0 150 50.5t56 129.5v39h-200q-68 0 -108 -29t-40 -80q0 -110 142 -110zM672 0v231h-25q-80 -251 -317 -251q-129 0 -207 68.5t-78 205.5q0 138 87 216.5t271 78.5h254v67q0 158 -149 158q-137 0 -164 -139l-262 59q26 139 134.5 220t301.5 81
q216 0 316 -95.5t100 -283.5v-616h-262zM377 1051l-70 135l484 278l100 -192z" />
    <glyph glyph-name="acircumflex" unicode="&#xe2;" horiz-adv-x="1030" 
d="M451 193q94 0 150 50.5t56 129.5v39h-200q-68 0 -108 -29t-40 -80q0 -110 142 -110zM672 0v231h-25q-80 -251 -317 -251q-129 0 -207 68.5t-78 205.5q0 138 87 216.5t271 78.5h254v67q0 158 -149 158q-137 0 -164 -139l-262 59q26 139 134.5 220t301.5 81
q216 0 316 -95.5t100 -283.5v-616h-262zM741 1053l-231 188l-231 -188l-93 98l281 299h88l279 -299z" />
    <glyph glyph-name="atilde" unicode="&#xe3;" horiz-adv-x="1030" 
d="M451 193q94 0 150 50.5t56 129.5v39h-200q-68 0 -108 -29t-40 -80q0 -110 142 -110zM672 0v231h-25q-80 -251 -317 -251q-129 0 -207 68.5t-78 205.5q0 138 87 216.5t271 78.5h254v67q0 158 -149 158q-137 0 -164 -139l-262 59q26 139 134.5 220t301.5 81
q216 0 316 -95.5t100 -283.5v-616h-262zM367 1444q43 0 79.5 -17.5t60 -43t44 -51t41.5 -43t43 -17.5q41 0 56.5 38.5t13.5 123.5h120q6 -50 6 -95q0 -126 -47 -191t-129 -65q-39 0 -72.5 17.5t-56.5 43t-44 51t-45 43t-50 17.5q-39 0 -54.5 -36t-15.5 -123h-118
q-6 53 -6 92q0 127 46.5 191.5t127.5 64.5z" />
    <glyph glyph-name="adieresis" unicode="&#xe4;" horiz-adv-x="1030" 
d="M451 193q94 0 150 50.5t56 129.5v39h-200q-68 0 -108 -29t-40 -80q0 -110 142 -110zM672 0v231h-25q-80 -251 -317 -251q-129 0 -207 68.5t-78 205.5q0 138 87 216.5t271 78.5h254v67q0 158 -149 158q-137 0 -164 -139l-262 59q26 139 134.5 220t301.5 81
q216 0 316 -95.5t100 -283.5v-616h-262zM213 1374h248v-239h-248v239zM563 1374h248v-239h-248v239z" />
    <glyph glyph-name="aring" unicode="&#xe5;" horiz-adv-x="1030" 
d="M451 193q94 0 150 50.5t56 129.5v39h-200q-68 0 -108 -29t-40 -80q0 -110 142 -110zM672 0v231h-25q-80 -251 -317 -251q-129 0 -207 68.5t-78 205.5q0 138 87 216.5t271 78.5h254v67q0 158 -149 158q-137 0 -164 -139l-262 59q26 139 134.5 220t301.5 81
q216 0 316 -95.5t100 -283.5v-616h-262zM408 1309q0 -51 27.5 -80t74.5 -29q48 0 76 29t28 80q0 50 -28 78t-76 28t-75 -27.5t-27 -78.5zM750 1309q0 -106 -65 -170t-175 -64t-174 64t-64 170t64 169.5t174 63.5t175 -63.5t65 -169.5z" />
    <glyph glyph-name="ae" unicode="&#xe6;" horiz-adv-x="1650" 
d="M451 193q94 0 150 50.5t56 129.5v51h-198q-69 0 -109.5 -32t-40.5 -87q0 -112 142 -112zM1147 788q-100 0 -152 -56.5t-61 -182.5h407q3 239 -194 239zM1585 274q-14 -55 -34.5 -98t-54.5 -82.5t-79.5 -65.5t-112 -41.5t-149.5 -15.5q-157 0 -272.5 65t-163.5 197
q-44 -126 -140.5 -192t-236.5 -66q-131 0 -215 71t-84 210q0 131 88 207t272 76h254v77q0 158 -151 158q-135 0 -162 -139l-262 59q26 136 129 218.5t272 82.5q250 0 332 -168q110 170 340 170q218 0 329 -119t111 -325q0 -76 -6 -121h-655q9 -122 62.5 -178.5t156.5 -56.5
q90 0 132.5 36.5t64.5 104.5z" />
    <glyph glyph-name="ccedilla" unicode="&#xe7;" horiz-adv-x="1060" 
d="M737 575q-21 87 -63.5 133t-128.5 46q-100 0 -154.5 -66t-54.5 -201q0 -131 53.5 -201.5t159.5 -70.5q87 0 131 49.5t61 134.5l256 -61q-26 -175 -135.5 -271t-310.5 -96h-21l-24 -65q34 12 72 12q147 0 147 -123q0 -53 -45.5 -96t-144.5 -43q-127 0 -209 57l55 86
q72 -45 154 -45q71 0 71 51q0 48 -71 48q-33 0 -76 -13l-72 29l41 113q-180 31 -278.5 156t-98.5 335q0 247 132.5 385.5t365.5 138.5q209 0 314 -93.5t132 -278.5z" />
    <glyph glyph-name="egrave" unicode="&#xe8;" horiz-adv-x="1044" 
d="M541 788q-97 0 -150 -53.5t-63 -171.5h405q-6 225 -192 225zM545 -27q-227 0 -360.5 125.5t-133.5 366.5q0 252 131 392t367 140q218 0 329 -118.5t111 -325.5q0 -55 -6 -131h-657q12 -116 66 -170.5t155 -54.5q90 0 132 35t64 100l234 -64q-35 -138 -136.5 -216.5
t-295.5 -78.5zM698 1051l-516 221l103 192l481 -278z" />
    <glyph glyph-name="eacute" unicode="&#xe9;" horiz-adv-x="1044" 
d="M541 788q-97 0 -150 -53.5t-63 -171.5h405q-6 225 -192 225zM545 -27q-227 0 -360.5 125.5t-133.5 366.5q0 252 131 392t367 140q218 0 329 -118.5t111 -325.5q0 -55 -6 -131h-657q12 -116 66 -170.5t155 -54.5q90 0 132 35t64 100l234 -64q-35 -138 -136.5 -216.5
t-295.5 -78.5zM397 1051l-69 135l483 278l100 -192z" />
    <glyph glyph-name="ecircumflex" unicode="&#xea;" horiz-adv-x="1044" 
d="M541 788q-97 0 -150 -53.5t-63 -171.5h405q-6 225 -192 225zM545 -27q-227 0 -360.5 125.5t-133.5 366.5q0 252 131 392t367 140q218 0 329 -118.5t111 -325.5q0 -55 -6 -131h-657q12 -116 66 -170.5t155 -54.5q90 0 132 35t64 100l234 -64q-35 -138 -136.5 -216.5
t-295.5 -78.5zM762 1053l-232 188l-231 -188l-92 98l280 299h88l279 -299z" />
    <glyph glyph-name="edieresis" unicode="&#xeb;" horiz-adv-x="1044" 
d="M541 788q-97 0 -150 -53.5t-63 -171.5h405q-6 225 -192 225zM545 -27q-227 0 -360.5 125.5t-133.5 366.5q0 252 131 392t367 140q218 0 329 -118.5t111 -325.5q0 -55 -6 -131h-657q12 -116 66 -170.5t155 -54.5q90 0 132 35t64 100l234 -64q-35 -138 -136.5 -216.5
t-295.5 -78.5zM233 1374h248v-239h-248v239zM584 1374h247v-239h-247v239z" />
    <glyph glyph-name="igrave" unicode="&#xec;" horiz-adv-x="512" 
d="M395 0h-278v971h278v-971zM424 1051l-516 221l102 192l482 -278z" />
    <glyph glyph-name="iacute" unicode="&#xed;" horiz-adv-x="512" 
d="M395 0h-278v971h278v-971zM113 1051l-70 135l483 278l101 -192z" />
    <glyph glyph-name="icircumflex" unicode="&#xee;" horiz-adv-x="512" 
d="M395 0h-278v971h278v-971zM487 1053l-231 188l-231 -188l-93 98l281 299h88l279 -299z" />
    <glyph glyph-name="idieresis" unicode="&#xef;" horiz-adv-x="512" 
d="M395 0h-278v971h278v-971zM-43 1374h248v-239h-248v239zM307 1374h248v-239h-248v239z" />
    <glyph glyph-name="eth" unicode="&#xf0;" horiz-adv-x="1093" 
d="M545 -29q-234 0 -364 127.5t-130 370.5q0 223 109 341t282 120q105 -1 184 -68t124 -178l22 8q-56 211 -235 387l-250 -96l-54 135l177 68q-46 33 -134 86l82 133q150 -57 267 -133l231 90l53 -139l-147 -58q280 -258 280 -643q0 -267 -129.5 -409t-367.5 -142zM766 475
q0 262 -225 262q-103 0 -158 -71t-55 -187q0 -268 221 -268q104 0 160.5 70.5t56.5 193.5z" />
    <glyph glyph-name="ntilde" unicode="&#xf1;" horiz-adv-x="1087" 
d="M377 541v-541h-279v971h273v-260h18q42 140 127.5 213t200.5 73q137 0 208.5 -89.5t71.5 -250.5v-657h-278v580q0 76 -37 120.5t-111 44.5q-89 0 -141.5 -56.5t-52.5 -147.5zM403 1444q43 0 79.5 -17.5t60.5 -43t44 -51t41.5 -43t43.5 -17.5q41 0 56 38t13 124h121
q6 -50 6 -95q0 -126 -47 -191t-129 -65q-39 0 -72.5 17.5t-56.5 43t-44 51t-45 43t-50 17.5q-39 0 -54.5 -36t-15.5 -123h-118q-7 61 -7 92q0 127 46.5 191.5t127.5 64.5z" />
    <glyph glyph-name="ograve" unicode="&#xf2;" horiz-adv-x="1101" 
d="M553 -29q-236 0 -369 137t-133 377q0 241 134.5 376.5t367.5 135.5q229 0 363.5 -135.5t134.5 -376.5q0 -239 -133 -376.5t-365 -137.5zM551 764q-221 0 -221 -277q0 -136 53 -207t168 -71q221 0 221 278q0 277 -221 277zM715 1051l-516 221l102 192l481 -278z" />
    <glyph glyph-name="oacute" unicode="&#xf3;" horiz-adv-x="1101" 
d="M553 -29q-236 0 -369 137t-133 377q0 241 134.5 376.5t367.5 135.5q229 0 363.5 -135.5t134.5 -376.5q0 -239 -133 -376.5t-365 -137.5zM551 764q-221 0 -221 -277q0 -136 53 -207t168 -71q221 0 221 278q0 277 -221 277zM414 1051l-70 135l483 278l101 -192z" />
    <glyph glyph-name="ocircumflex" unicode="&#xf4;" horiz-adv-x="1101" 
d="M551 764q-221 0 -221 -277q0 -136 53 -207t168 -71q221 0 221 278q0 277 -221 277zM553 -29q-236 0 -369 137t-133 377q0 241 134.5 376.5t367.5 135.5q229 0 363.5 -135.5t134.5 -376.5q0 -239 -133 -376.5t-365 -137.5zM780 1053l-231 188l-232 -188l-92 98l281 299h88
l278 -299z" />
    <glyph glyph-name="otilde" unicode="&#xf5;" horiz-adv-x="1101" 
d="M553 -29q-236 0 -369 137t-133 377q0 241 134.5 376.5t367.5 135.5q229 0 363.5 -135.5t134.5 -376.5q0 -239 -133 -376.5t-365 -137.5zM551 764q-221 0 -221 -277q0 -136 53 -207t168 -71q221 0 221 278q0 277 -221 277zM403 1444q43 0 79.5 -17.5t60.5 -43t44 -51
t41.5 -43t43.5 -17.5q41 0 56 38t13 124h121q6 -50 6 -95q0 -126 -47 -191t-129 -65q-39 0 -72.5 17.5t-56.5 43t-44 51t-45 43t-50 17.5q-39 0 -54.5 -36t-15.5 -123h-118q-7 61 -7 92q0 127 46.5 191.5t127.5 64.5z" />
    <glyph glyph-name="odieresis" unicode="&#xf6;" horiz-adv-x="1101" 
d="M553 -29q-236 0 -369 137t-133 377q0 241 134.5 376.5t367.5 135.5q229 0 363.5 -135.5t134.5 -376.5q0 -239 -133 -376.5t-365 -137.5zM551 764q-221 0 -221 -277q0 -136 53 -207t168 -71q221 0 221 278q0 277 -221 277zM250 1374h248v-239h-248v239zM600 1374h248v-239
h-248v239z" />
    <glyph glyph-name="divide" unicode="&#xf7;" horiz-adv-x="1001" 
d="M936 508h-873v248h873v-248zM397 1096h226v-219h-226v219zM397 397h226v-219h-226v219z" />
    <glyph glyph-name="oslash" unicode="&#xf8;" horiz-adv-x="1101" 
d="M553 -29q-184 0 -311 88l-45 -59h-199v12l143 148q-90 128 -90 325q0 241 134.5 376.5t367.5 135.5q180 0 307 -88l49 62h193v-13l-141 -149q90 -129 90 -324q0 -239 -133.5 -376.5t-364.5 -137.5zM551 782q-250 0 -250 -295q0 -81 18 -143l383 397q-59 41 -151 41z
M551 188q248 0 248 299q0 76 -19 138l-379 -398q58 -39 150 -39z" />
    <glyph glyph-name="ugrave" unicode="&#xf9;" horiz-adv-x="1091" 
d="M721 0v258h-21q-41 -140 -126 -213.5t-201 -73.5q-136 0 -207.5 90.5t-71.5 251.5v658h279v-580q0 -78 36.5 -123t110.5 -45q88 0 140.5 57t52.5 150v541h280v-971h-272zM711 1051l-516 221l102 192l481 -278z" />
    <glyph glyph-name="uacute" unicode="&#xfa;" horiz-adv-x="1091" 
d="M721 0v258h-21q-41 -140 -126 -213.5t-201 -73.5q-136 0 -207.5 90.5t-71.5 251.5v658h279v-580q0 -78 36.5 -123t110.5 -45q88 0 140.5 57t52.5 150v541h280v-971h-272zM410 1051l-70 135l483 278l101 -192z" />
    <glyph glyph-name="ucircumflex" unicode="&#xfb;" horiz-adv-x="1091" 
d="M721 0v258h-21q-41 -140 -126 -213.5t-201 -73.5q-136 0 -207.5 90.5t-71.5 251.5v658h279v-580q0 -78 36.5 -123t110.5 -45q88 0 140.5 57t52.5 150v541h280v-971h-272zM774 1053l-231 188l-232 -188l-92 98l281 299h88l278 -299z" />
    <glyph glyph-name="udieresis" unicode="&#xfc;" horiz-adv-x="1091" 
d="M721 0v258h-21q-41 -140 -126 -213.5t-201 -73.5q-136 0 -207.5 90.5t-71.5 251.5v658h279v-580q0 -78 36.5 -123t110.5 -45q88 0 140.5 57t52.5 150v541h280v-971h-272zM246 1374h248v-239h-248v239zM596 1374h248v-239h-248v239z" />
    <glyph glyph-name="yacute" unicode="&#xfd;" horiz-adv-x="993" 
d="M172 -344q-71 0 -160 14l41 236q77 -15 125 -15q78 0 120.5 24t74.5 97l-365 959h305l97 -357q6 -24 41 -153t53 -199h35q78 305 88 346l90 363h299l-383 -975q-72 -182 -176.5 -261t-284.5 -79zM369 1051l-70 135l483 278l101 -192z" />
    <glyph glyph-name="thorn" unicode="&#xfe;" horiz-adv-x="1093" 
d="M573 217q100 0 147.5 65.5t47.5 200.5q0 134 -47 198t-146 64q-92 0 -145 -61t-53 -166v-76q0 -102 53.5 -163.5t142.5 -61.5zM377 1315v-590h18q39 130 119 201t195 71q160 0 246.5 -132t86.5 -382q0 -248 -87.5 -380t-245.5 -132q-118 0 -198 75.5t-118 207.5h-16v-565
h-279v1626h279z" />
    <glyph glyph-name="ydieresis" unicode="&#xff;" horiz-adv-x="993" 
d="M172 -344q-71 0 -160 14l41 236q77 -15 125 -15q78 0 120.5 24t74.5 97l-365 959h305l97 -357q6 -24 41 -153t53 -199h35q78 305 88 346l90 363h299l-383 -975q-72 -182 -176.5 -261t-284.5 -79zM205 1374h248v-239h-248v239zM555 1374h248v-239h-248v239z" />
    <glyph glyph-name="Amacron" unicode="&#x100;" horiz-adv-x="1226" 
d="M930 0l-84 272h-475l-84 -272h-305l430 1229h405l428 -1229h-315zM332 1550h563v-188h-563v188zM485 639l-47 -152h340l-47 152q-48 152 -96 336h-49q-38 -137 -101 -336z" />
    <glyph glyph-name="amacron" unicode="&#x101;" horiz-adv-x="1030" 
d="M451 193q94 0 150 50.5t56 129.5v39h-200q-68 0 -108 -29t-40 -80q0 -110 142 -110zM672 0v231h-25q-80 -251 -317 -251q-129 0 -207 68.5t-78 205.5q0 138 87 216.5t271 78.5h254v67q0 158 -149 158q-137 0 -164 -139l-262 59q26 139 134.5 220t301.5 81
q216 0 316 -95.5t100 -283.5v-616h-262zM233 1323h555v-188h-555v188z" />
    <glyph glyph-name="Abreve" unicode="&#x102;" horiz-adv-x="1226" 
d="M930 0l-84 272h-475l-84 -272h-305l430 1229h405l428 -1229h-315zM612 1509q71 0 115.5 32.5t54.5 113.5h127q0 -168 -74 -244t-223 -76t-223 76t-74 244h127q10 -81 54.5 -113.5t115.5 -32.5zM485 639l-47 -152h340l-47 152q-48 152 -96 336h-49q-38 -137 -101 -336z
" />
    <glyph glyph-name="abreve" unicode="&#x103;" horiz-adv-x="1030" 
d="M451 193q94 0 150 50.5t56 129.5v39h-200q-68 0 -108 -29t-40 -80q0 -110 142 -110zM672 0v231h-25q-80 -251 -317 -251q-129 0 -207 68.5t-78 205.5q0 138 87 216.5t271 78.5h254v67q0 158 -149 158q-137 0 -164 -139l-262 59q26 139 134.5 220t301.5 81
q216 0 316 -95.5t100 -283.5v-616h-262zM510 1262q72 0 116 37.5t54 130.5h127q0 -180 -74 -261.5t-223 -81.5q-148 0 -222.5 82t-74.5 261h127q11 -93 55 -130.5t115 -37.5z" />
    <glyph glyph-name="Aogonek" unicode="&#x104;" horiz-adv-x="1224" 
d="M1247 -332q-75 -10 -127 -10q-239 0 -239 156q0 132 202 186h-153l-84 272h-475l-84 -272h-305l430 1229h405l428 -1229q-112 -21 -160.5 -46t-48.5 -65q0 -57 103 -57q49 0 106 14zM485 639l-47 -152h340l-47 152q-48 152 -96 336h-49q-38 -137 -101 -336z" />
    <glyph glyph-name="aogonek" unicode="&#x105;" horiz-adv-x="1073" 
d="M451 193q94 0 150 50.5t56 129.5v39h-200q-68 0 -108 -29t-40 -80q0 -110 142 -110zM918 -332q-75 -10 -127 -10q-240 0 -240 156q0 67 53.5 113.5t149.5 72.5h-82v231h-25q-80 -251 -317 -251q-129 0 -207 68.5t-78 205.5q0 138 87 216.5t271 78.5h254v67
q0 158 -149 158q-137 0 -164 -139l-262 59q26 139 134.5 220t301.5 81q216 0 316 -95.5t100 -283.5v-616h-19q-111 -21 -159.5 -46t-48.5 -65q0 -57 102 -57q49 0 106 14z" />
    <glyph glyph-name="Cacute" unicode="&#x106;" horiz-adv-x="1275" 
d="M653 -29q-285 0 -442.5 171t-157.5 476q0 300 163.5 469.5t445.5 169.5q242 0 384.5 -123.5t170.5 -353.5l-281 -55q-25 139 -92 206.5t-191 67.5q-155 0 -231 -104.5t-76 -276.5q0 -189 75 -291t230 -102q130 0 196 68t95 211l279 -47q-28 -231 -175.5 -358.5
t-392.5 -127.5zM473 1331l-45 142l526 196l66 -207z" />
    <glyph glyph-name="cacute" unicode="&#x107;" horiz-adv-x="1054" 
d="M737 575q-21 87 -63.5 133t-128.5 46q-100 0 -154.5 -66t-54.5 -201q0 -131 53.5 -201.5t159.5 -70.5q87 0 131 49.5t61 134.5l256 -61q-26 -175 -135.5 -271t-310.5 -96q-235 0 -367.5 128.5t-132.5 373.5q0 247 132.5 385.5t365.5 138.5q209 0 314 -93.5t132 -278.5z
M426 1051l-70 135l484 278l100 -192z" />
    <glyph glyph-name="Ccircumflex" unicode="&#x108;" horiz-adv-x="1275" 
d="M653 -29q-285 0 -442.5 171t-157.5 476q0 300 163.5 469.5t445.5 169.5q242 0 384.5 -123.5t170.5 -353.5l-281 -55q-25 139 -92 206.5t-191 67.5q-155 0 -231 -104.5t-76 -276.5q0 -189 75 -291t230 -102q130 0 196 68t95 211l279 -47q-28 -231 -175.5 -358.5
t-392.5 -127.5zM889 1309l-240 155l-239 -155l-84 100l280 258h88l279 -258z" />
    <glyph glyph-name="ccircumflex" unicode="&#x109;" horiz-adv-x="1054" 
d="M737 575q-21 87 -63.5 133t-128.5 46q-100 0 -154.5 -66t-54.5 -201q0 -131 53.5 -201.5t159.5 -70.5q87 0 131 49.5t61 134.5l256 -61q-26 -175 -135.5 -271t-310.5 -96q-235 0 -367.5 128.5t-132.5 373.5q0 247 132.5 385.5t365.5 138.5q209 0 314 -93.5t132 -278.5z
M774 1053l-231 188l-232 -188l-92 98l281 299h88l278 -299z" />
    <glyph glyph-name="Cdotaccent" unicode="&#x10a;" horiz-adv-x="1275" 
d="M653 -29q-285 0 -442.5 171t-157.5 476q0 300 163.5 469.5t445.5 169.5q242 0 384.5 -123.5t170.5 -353.5l-281 -55q-25 139 -92 206.5t-191 67.5q-155 0 -231 -104.5t-76 -276.5q0 -189 75 -291t230 -102q130 0 196 68t95 211l279 -47q-28 -231 -175.5 -358.5
t-392.5 -127.5zM516 1610h268v-256h-268v256z" />
    <glyph glyph-name="cdotaccent" unicode="&#x10b;" horiz-adv-x="1054" 
d="M737 575q-21 87 -63.5 133t-128.5 46q-100 0 -154.5 -66t-54.5 -201q0 -131 53.5 -201.5t159.5 -70.5q87 0 131 49.5t61 134.5l256 -61q-26 -175 -135.5 -271t-310.5 -96q-235 0 -367.5 128.5t-132.5 373.5q0 247 132.5 385.5t365.5 138.5q209 0 314 -93.5t132 -278.5z
M410 1391h268v-256h-268v256z" />
    <glyph glyph-name="Ccaron" unicode="&#x10c;" horiz-adv-x="1275" 
d="M653 -29q-285 0 -442.5 171t-157.5 476q0 300 163.5 469.5t445.5 169.5q242 0 384.5 -123.5t170.5 -353.5l-281 -55q-25 139 -92 206.5t-191 67.5q-155 0 -231 -104.5t-76 -276.5q0 -189 75 -291t230 -102q130 0 196 68t95 211l279 -47q-28 -231 -175.5 -358.5
t-392.5 -127.5zM692 1319h-88l-278 258l84 98l239 -155l240 155l84 -98z" />
    <glyph glyph-name="ccaron" unicode="&#x10d;" horiz-adv-x="1054" 
d="M737 575q-21 87 -63.5 133t-128.5 46q-100 0 -154.5 -66t-54.5 -201q0 -131 53.5 -201.5t159.5 -70.5q87 0 131 49.5t61 134.5l256 -61q-26 -175 -135.5 -271t-310.5 -96q-235 0 -367.5 128.5t-132.5 373.5q0 247 132.5 385.5t365.5 138.5q209 0 314 -93.5t132 -278.5z
M582 1075h-88l-279 297l92 98l232 -188l231 188l92 -98z" />
    <glyph glyph-name="Dcaron" unicode="&#x10e;" horiz-adv-x="1302" 
d="M594 985h-193v-743h203q188 0 271 94.5t83 292.5q0 194 -84 275t-280 81zM106 0v1229h525q622 0 622 -600q0 -293 -166 -461t-460 -168h-521zM688 1319h-88l-278 258l84 98l239 -155l240 155l84 -98z" />
    <glyph glyph-name="dcaron" unicode="&#x10f;" horiz-adv-x="1292" 
d="M520 217q88 0 142.5 60t54.5 161v76q0 106 -53.5 168.5t-145.5 62.5q-100 0 -147 -65.5t-47 -202.5q0 -132 47 -196t149 -64zM717 0v254h-17q-38 -132 -118.5 -207.5t-198.5 -75.5q-158 0 -245 131t-87 375q0 252 87.5 386t248.5 134q115 0 193.5 -71t117.5 -201h19v590
h278v-1315h-278zM1096 1313h209l-64 -516h-172z" />
    <glyph glyph-name="Dcroat" unicode="&#x110;" horiz-adv-x="1357" 
d="M727 526h-272v-284h202q188 0 271.5 94.5t83.5 292.5q0 194 -84.5 275t-280.5 81h-192v-285h272v-174zM160 0v526h-121v174h121v529h524q623 0 623 -600q0 -293 -166.5 -461t-460.5 -168h-520z" />
    <glyph glyph-name="dcroat" unicode="&#x111;" horiz-adv-x="1120" 
d="M520 217q88 0 142.5 60t54.5 161v76q0 106 -53.5 168.5t-145.5 62.5q-100 0 -147 -65.5t-47 -202.5q0 -132 47 -196t149 -64zM717 0v254h-17q-38 -132 -118.5 -207.5t-198.5 -75.5q-158 0 -245 131t-87 375q0 252 87.5 386t248.5 134q115 0 193.5 -71t117.5 -201h19v340
h-246v145h246v105h278v-105h109v-145h-109v-1065h-278z" />
    <glyph glyph-name="Emacron" unicode="&#x112;" horiz-adv-x="1118" 
d="M104 0v1229h930v-256h-633v-238h582v-229h-582v-250h631v-256h-928zM291 1550h563v-188h-563v188z" />
    <glyph glyph-name="emacron" unicode="&#x113;" horiz-adv-x="1044" 
d="M541 788q-97 0 -150 -53.5t-63 -171.5h405q-6 225 -192 225zM545 -27q-227 0 -360.5 125.5t-133.5 366.5q0 252 131 392t367 140q218 0 329 -118.5t111 -325.5q0 -55 -6 -131h-657q12 -116 66 -170.5t155 -54.5q90 0 132 35t64 100l234 -64q-35 -138 -136.5 -216.5
t-295.5 -78.5zM252 1323h555v-188h-555v188z" />
    <glyph glyph-name="Ebreve" unicode="&#x114;" horiz-adv-x="1118" 
d="M104 0v1229h930v-256h-633v-238h582v-229h-582v-250h631v-256h-928zM571 1509q71 0 115.5 32.5t54.5 113.5h127q0 -168 -74 -244t-223 -76t-223 76t-74 244h127q10 -81 54.5 -113.5t115.5 -32.5z" />
    <glyph glyph-name="ebreve" unicode="&#x115;" horiz-adv-x="1044" 
d="M541 788q-97 0 -150 -53.5t-63 -171.5h405q-6 225 -192 225zM545 -27q-227 0 -360.5 125.5t-133.5 366.5q0 252 131 392t367 140q218 0 329 -118.5t111 -325.5q0 -55 -6 -131h-657q12 -116 66 -170.5t155 -54.5q90 0 132 35t64 100l234 -64q-35 -138 -136.5 -216.5
t-295.5 -78.5zM530 1262q72 0 116 37.5t54 130.5h127q0 -180 -74 -261.5t-223 -81.5q-148 0 -222.5 82t-74.5 261h127q11 -93 55 -130.5t115 -37.5z" />
    <glyph glyph-name="Edotaccent" unicode="&#x116;" horiz-adv-x="1118" 
d="M104 0v1229h930v-256h-633v-238h582v-229h-582v-250h631v-256h-928zM440 1610h269v-256h-269v256z" />
    <glyph glyph-name="edotaccent" unicode="&#x117;" horiz-adv-x="1044" 
d="M541 788q-97 0 -150 -53.5t-63 -171.5h405q-6 225 -192 225zM545 -27q-227 0 -360.5 125.5t-133.5 366.5q0 252 131 392t367 140q218 0 329 -118.5t111 -325.5q0 -55 -6 -131h-657q12 -116 66 -170.5t155 -54.5q90 0 132 35t64 100l234 -64q-35 -138 -136.5 -216.5
t-295.5 -78.5zM397 1391h269v-256h-269v256z" />
    <glyph glyph-name="Eogonek" unicode="&#x118;" horiz-adv-x="1118" 
d="M1034 -332q-75 -10 -127 -10q-239 0 -239 156q0 132 202 186h-766v1229h930v-256h-633v-238h582v-229h-582v-250h631v-256q-112 -21 -160.5 -46t-48.5 -65q0 -57 103 -57q49 0 106 14z" />
    <glyph glyph-name="eogonek" unicode="&#x119;" horiz-adv-x="1044" 
d="M541 788q-97 0 -150 -53.5t-63 -171.5h405q-6 225 -192 225zM545 -27q-227 0 -360.5 125.5t-133.5 366.5q0 252 131 392t367 140q218 0 329 -118.5t111 -325.5q0 -55 -6 -131h-657q12 -116 66 -170.5t155 -54.5q90 0 132 35t64 100l232 -64l2 4v-4q-10 -39 -31 -86
q-46 -102 -149 -182q-78 -58 -78 -117q0 -71 112 -71q43 0 115 16l2 -205q-75 -10 -125 -10q-274 0 -274 174q0 39 16.5 72t49.5 60.5t59 44t67 38.5q-89 -29 -196 -29z" />
    <glyph glyph-name="Ecaron" unicode="&#x11a;" horiz-adv-x="1118" 
d="M104 0v1229h930v-256h-633v-238h582v-229h-582v-250h631v-256h-928zM614 1319h-88l-278 258l84 98l239 -155l240 155l84 -98z" />
    <glyph glyph-name="ecaron" unicode="&#x11b;" horiz-adv-x="1044" 
d="M541 788q-97 0 -150 -53.5t-63 -171.5h405q-6 225 -192 225zM545 -27q-227 0 -360.5 125.5t-133.5 366.5q0 252 131 392t367 140q218 0 329 -118.5t111 -325.5q0 -55 -6 -131h-657q12 -116 66 -170.5t155 -54.5q90 0 132 35t64 100l234 -64q-35 -138 -136.5 -216.5
t-295.5 -78.5zM573 1075h-88l-278 297l92 98l231 -188l232 188l92 -98z" />
    <glyph glyph-name="Gcircumflex" unicode="&#x11c;" horiz-adv-x="1312" 
d="M539 -20q-219 0 -354.5 159.5t-135.5 458.5q0 314 153.5 485.5t450.5 171.5q247 0 379 -104.5t170 -314.5l-276 -60q-29 114 -91.5 168.5t-183.5 54.5q-162 0 -233.5 -101.5t-71.5 -299.5q0 -186 74 -282.5t239 -96.5q82 0 140.5 19t89.5 53.5t44 72.5t13 85h-295v219
h572v-668h-271v268h-24q-43 -133 -138.5 -210.5t-250.5 -77.5zM885 1309l-240 155l-239 -155l-84 100l280 258h88l279 -258z" />
    <glyph glyph-name="gcircumflex" unicode="&#x11d;" horiz-adv-x="1032" 
d="M496 760q-97 0 -142 -37t-45 -100q0 -138 187 -138q190 0 190 138q0 63 -47 100t-143 37zM508 -166q116 0 181.5 12t88.5 33.5t23 57.5q0 79 -111 79h-330q-62 0 -99.5 -25.5t-37.5 -62.5q0 -35 22.5 -54.5t85 -29.5t177.5 -10zM1016 -55q0 -105 -49.5 -170.5
t-166.5 -100t-311 -34.5q-136 0 -230 13t-147 39.5t-75.5 61t-22.5 82.5q0 63 62.5 108t165.5 66v13q-76 10 -113 45t-37 88q0 85 123 139l72 37q-110 36 -168 112t-58 189q0 162 116.5 250t324.5 88h491v-209h-106q-89 0 -187 10l-2 -22q104 -20 164 -61.5t60 -119.5
q0 -123 -112 -194.5t-314 -71.5q-87 0 -162 16l-17 -26q-18 -32 -18 -53q0 -26 20 -38t66 -12q54 0 161 3.5t156 3.5q158 0 236 -65.5t78 -186.5zM733 1053l-231 188l-232 -188l-92 98l281 299h88l278 -299z" />
    <glyph glyph-name="Gbreve" unicode="&#x11e;" horiz-adv-x="1312" 
d="M539 -20q-219 0 -354.5 159.5t-135.5 458.5q0 314 153.5 485.5t450.5 171.5q247 0 379 -104.5t170 -314.5l-276 -60q-29 114 -91.5 168.5t-183.5 54.5q-162 0 -233.5 -101.5t-71.5 -299.5q0 -186 74 -282.5t239 -96.5q82 0 140.5 19t89.5 53.5t44 72.5t13 85h-295v219
h572v-668h-271v268h-24q-43 -133 -138.5 -210.5t-250.5 -77.5zM645 1509q71 0 115.5 32.5t54.5 113.5h127q0 -168 -74 -244t-223 -76t-223 76t-74 244h127q10 -81 54.5 -113.5t115.5 -32.5z" />
    <glyph glyph-name="gbreve" unicode="&#x11f;" horiz-adv-x="1032" 
d="M496 760q-97 0 -142 -37t-45 -100q0 -138 187 -138q190 0 190 138q0 63 -47 100t-143 37zM508 -166q116 0 181.5 12t88.5 33.5t23 57.5q0 79 -111 79h-330q-62 0 -99.5 -25.5t-37.5 -62.5q0 -35 22.5 -54.5t85 -29.5t177.5 -10zM1016 -55q0 -105 -49.5 -170.5
t-166.5 -100t-311 -34.5q-136 0 -230 13t-147 39.5t-75.5 61t-22.5 82.5q0 63 62.5 108t165.5 66v13q-76 10 -113 45t-37 88q0 85 123 139l72 37q-110 36 -168 112t-58 189q0 162 116.5 250t324.5 88h491v-209h-106q-89 0 -187 10l-2 -22q104 -20 164 -61.5t60 -119.5
q0 -123 -112 -194.5t-314 -71.5q-87 0 -162 16l-17 -26q-18 -32 -18 -53q0 -26 20 -38t66 -12q54 0 161 3.5t156 3.5q158 0 236 -65.5t78 -186.5zM502 1262q72 0 116 37.5t54 130.5h127q0 -180 -74 -261.5t-223 -81.5q-148 0 -222.5 82t-74.5 261h127q11 -93 55 -130.5
t115 -37.5z" />
    <glyph glyph-name="Gdotaccent" unicode="&#x120;" horiz-adv-x="1312" 
d="M539 -20q-219 0 -354.5 159.5t-135.5 458.5q0 314 153.5 485.5t450.5 171.5q247 0 379 -104.5t170 -314.5l-276 -60q-29 114 -91.5 168.5t-183.5 54.5q-162 0 -233.5 -101.5t-71.5 -299.5q0 -186 74 -282.5t239 -96.5q82 0 140.5 19t89.5 53.5t44 72.5t13 85h-295v219
h572v-668h-271v268h-24q-43 -133 -138.5 -210.5t-250.5 -77.5zM512 1610h268v-256h-268v256z" />
    <glyph glyph-name="gdotaccent" unicode="&#x121;" horiz-adv-x="1032" 
d="M496 760q-97 0 -142 -37t-45 -100q0 -138 187 -138q190 0 190 138q0 63 -47 100t-143 37zM508 -166q116 0 181.5 12t88.5 33.5t23 57.5q0 79 -111 79h-330q-62 0 -99.5 -25.5t-37.5 -62.5q0 -35 22.5 -54.5t85 -29.5t177.5 -10zM1016 -55q0 -105 -49.5 -170.5
t-166.5 -100t-311 -34.5q-136 0 -230 13t-147 39.5t-75.5 61t-22.5 82.5q0 63 62.5 108t165.5 66v13q-76 10 -113 45t-37 88q0 85 123 139l72 37q-110 36 -168 112t-58 189q0 162 116.5 250t324.5 88h491v-209h-106q-89 0 -187 10l-2 -22q104 -20 164 -61.5t60 -119.5
q0 -123 -112 -194.5t-314 -71.5q-87 0 -162 16l-17 -26q-18 -32 -18 -53q0 -26 20 -38t66 -12q54 0 161 3.5t156 3.5q158 0 236 -65.5t78 -186.5zM369 1391h268v-256h-268v256z" />
    <glyph glyph-name="uni0122" unicode="&#x122;" horiz-adv-x="1312" 
d="M539 -20q-219 0 -354.5 159.5t-135.5 458.5q0 314 153.5 485.5t450.5 171.5q247 0 379 -104.5t170 -314.5l-276 -60q-29 114 -91.5 168.5t-183.5 54.5q-162 0 -233.5 -101.5t-71.5 -299.5q0 -186 74 -282.5t239 -96.5q82 0 140.5 19t89.5 53.5t44 72.5t13 85h-295v219
h572v-668h-271v268h-24q-43 -133 -138.5 -210.5t-250.5 -77.5zM571 -104h213l-120 -316h-172v19z" />
    <glyph glyph-name="uni0123" unicode="&#x123;" horiz-adv-x="1032" 
d="M596 1092h-213l119 315h174v-18zM496 760q-97 0 -142 -37t-45 -100q0 -138 187 -138q190 0 190 138q0 63 -47 100t-143 37zM508 -166q116 0 181.5 12t88.5 33.5t23 57.5q0 79 -111 79h-330q-62 0 -99.5 -25.5t-37.5 -62.5q0 -35 22.5 -54.5t85 -29.5t177.5 -10zM1016 -55
q0 -105 -49.5 -170.5t-166.5 -100t-311 -34.5q-136 0 -230 13t-147 39.5t-75.5 61t-22.5 82.5q0 63 62.5 108t165.5 66v13q-76 10 -113 45t-37 88q0 85 123 139l72 37q-110 36 -168 112t-58 189q0 162 116.5 250t324.5 88h491v-209h-106q-89 0 -187 10l-2 -22
q104 -20 164 -61.5t60 -119.5q0 -123 -112 -194.5t-314 -71.5q-87 0 -162 16l-17 -26q-18 -32 -18 -53q0 -26 20 -38t66 -12q54 0 161 3.5t156 3.5q158 0 236 -65.5t78 -186.5z" />
    <glyph glyph-name="Hcircumflex" unicode="&#x124;" horiz-adv-x="1310" 
d="M1206 0h-295v479h-510v-479h-295v1229h295v-486h510v486h295v-1229zM895 1309l-240 155l-239 -155l-84 100l280 258h88l279 -258z" />
    <glyph glyph-name="hcircumflex" unicode="&#x125;" horiz-adv-x="1087" 
d="M377 541v-541h-279v1315h279v-604h16q43 140 126.5 213t201.5 73q136 0 206 -89.5t70 -250.5v-657h-278v580q0 76 -37.5 120.5t-110.5 44.5q-89 0 -141.5 -56.5t-52.5 -147.5zM479 1335l-239 156l-240 -156l-84 101l281 258h88l278 -258z" />
    <glyph glyph-name="Hbar" unicode="&#x126;" horiz-adv-x="1419" 
d="M963 678v170h-508v-170h508zM1260 0h-297v428h-508v-428h-297v848h-127v188h127v193h297v-193h508v193h297v-193h129v-188h-129v-848z" />
    <glyph glyph-name="hbar" unicode="&#x127;" horiz-adv-x="1110" 
d="M397 541v-541h-278v1065h-103v145h103v105h278v-105h277v-145h-277v-354h17q43 140 126 213t201 73q136 0 206.5 -89.5t70.5 -250.5v-657h-279v580q0 76 -37 120.5t-110 44.5q-89 0 -142 -56.5t-53 -147.5z" />
    <glyph glyph-name="Itilde" unicode="&#x128;" horiz-adv-x="505" 
d="M401 0h-295v1229h295v-1229zM109 1686q43 0 79.5 -18t60 -43t44 -50.5t41.5 -43.5t43 -18q41 0 56 38t13 124h121q6 -50 6 -94q0 -126 -47 -191t-129 -65q-39 0 -72.5 17.5t-56.5 43t-44 51t-45 43t-50 17.5q-39 0 -54.5 -36.5t-15.5 -123.5h-118q-7 61 -7 93
q0 127 47 191.5t128 64.5z" />
    <glyph glyph-name="itilde" unicode="&#x129;" horiz-adv-x="512" 
d="M395 0h-278v971h278v-971zM111 1444q43 0 79.5 -17.5t60 -43t44 -51t41.5 -43t43 -17.5q41 0 56.5 38.5t13.5 123.5h120q6 -50 6 -95q0 -126 -47 -191t-129 -65q-39 0 -72.5 17.5t-56.5 43t-44 51t-45 43t-50 17.5q-39 0 -54.5 -36t-15.5 -123h-118q-6 53 -6 92
q0 127 46.5 191.5t127.5 64.5z" />
    <glyph glyph-name="Imacron" unicode="&#x12a;" horiz-adv-x="505" 
d="M401 0h-295v1229h295v-1229zM-29 1550h564v-188h-564v188z" />
    <glyph glyph-name="imacron" unicode="&#x12b;" horiz-adv-x="512" 
d="M395 0h-278v971h278v-971zM-23 1323h555v-188h-555v188z" />
    <glyph glyph-name="Ibreve" unicode="&#x12c;" horiz-adv-x="505" 
d="M401 0h-295v1229h295v-1229zM252 1509q71 0 115.5 32.5t54.5 113.5h127q0 -168 -74 -244t-223 -76t-223 76t-74 244h127q10 -81 54.5 -113.5t115.5 -32.5z" />
    <glyph glyph-name="ibreve" unicode="&#x12d;" horiz-adv-x="512" 
d="M395 0h-278v971h278v-971zM256 1262q72 0 116 37.5t54 130.5h127q0 -180 -74 -261.5t-223 -81.5q-148 0 -222.5 82t-74.5 261h127q11 -93 55 -130.5t115 -37.5z" />
    <glyph glyph-name="Iogonek" unicode="&#x12e;" horiz-adv-x="505" 
d="M401 0h-2q-112 -21 -160.5 -46t-48.5 -65q0 -57 103 -57q49 0 106 14l2 -178q-75 -10 -127 -10q-239 0 -239 156q0 67 53.5 113.5t149.5 72.5h-132v1229h295v-1229z" />
    <glyph glyph-name="iogonek" unicode="&#x12f;" horiz-adv-x="491" 
d="M391 1108h-291v201h291v-201zM385 0q-112 -21 -160.5 -46t-48.5 -65q0 -57 103 -57q49 0 106 14l2 -178q-75 -10 -127 -10q-240 0 -240 156q0 67 53.5 113.5t149.5 72.5h-117v971h279v-971z" />
    <glyph glyph-name="Idotaccent" unicode="&#x130;" horiz-adv-x="505" 
d="M401 0h-295v1229h295v-1229zM121 1610h268v-256h-268v256z" />
    <glyph glyph-name="dotlessi" unicode="&#x131;" horiz-adv-x="512" 
d="M395 0h-278v971h278v-971z" />
    <glyph glyph-name="IJ" unicode="&#x132;" horiz-adv-x="1153" 
d="M401 0h-295v1229h295v-1229zM754 371v858h295v-856q0 -183 -87 -286t-272 -103q-80 0 -166 14l15 252q62 -10 100 -10q115 0 115 131z" />
    <glyph glyph-name="ij" unicode="&#x133;" horiz-adv-x="999" 
d="M391 1108h-291v201h291v-201zM385 0h-279v971h279v-971zM895 55q0 -186 -82.5 -285.5t-267.5 -99.5q-32 0 -90 8l12 240q35 -6 65 -6q84 0 84 106v951h279v-914zM901 1108h-291v201h291v-201z" />
    <glyph glyph-name="Jcircumflex" unicode="&#x134;" horiz-adv-x="647" 
d="M248 371v858h295v-856q0 -183 -87 -286t-272 -103q-80 0 -166 14l15 252q62 -10 100 -10q115 0 115 131zM639 1309l-240 155l-239 -155l-84 100l280 258h88l279 -258z" />
    <glyph glyph-name="jcircumflex" unicode="&#x135;" horiz-adv-x="522" 
d="M403 33q0 -186 -82.5 -285.5t-267.5 -99.5q-32 0 -90 8l12 242q7 -1 30 -4t36 -3q84 0 84 107v971h278v-936zM444 1081l-182 152l-180 -152l-86 93l223 247h88l221 -247z" />
    <glyph glyph-name="uni0136" unicode="&#x136;" horiz-adv-x="1187" 
d="M854 0l-367 461h-86v-461h-295v1229h295v-531h82l367 531h336v-23l-488 -604l500 -579v-23h-344zM541 -104h213l-121 -316h-172v19z" />
    <glyph glyph-name="uni0137" unicode="&#x137;" horiz-adv-x="1030" 
d="M381 1315v-723h76l248 379h317v-23l-346 -450l366 -475v-23h-317l-272 389h-72v-389h-279v1315h279zM467 -104h213l-121 -316h-172v19z" />
    <glyph glyph-name="kgreenlandic" unicode="&#x138;" horiz-adv-x="1030" 
d="M725 0l-272 389h-72v-389h-279v971h279v-379h76l248 379h317v-23l-346 -450l366 -475v-23h-317z" />
    <glyph glyph-name="Lacute" unicode="&#x139;" horiz-adv-x="968" 
d="M184 1331l-45 142l527 196l65 -207zM401 1229v-965h527v-264h-822v1229h295z" />
    <glyph glyph-name="lacute" unicode="&#x13a;" horiz-adv-x="483" 
d="M381 1315v-1315h-279v1315h279zM76 1415l-45 141l526 197l66 -207z" />
    <glyph glyph-name="uni013B" unicode="&#x13b;" horiz-adv-x="968" 
d="M401 1229v-965h527v-264h-822v1229h295zM446 -104h213l-120 -316h-172v19z" />
    <glyph glyph-name="uni013C" unicode="&#x13c;" horiz-adv-x="483" 
d="M381 1315v-1315h-279v1315h279zM170 -104h213l-121 -316h-172v19z" />
    <glyph glyph-name="Lcaron" unicode="&#x13d;" horiz-adv-x="968" 
d="M735 1241h209l-63 -516h-172zM401 1229v-965h527v-264h-822v1229h295z" />
    <glyph glyph-name="lcaron" unicode="&#x13e;" horiz-adv-x="712" 
d="M381 1315v-1315h-279v1315h279zM502 1313h209l-64 -516h-172z" />
    <glyph glyph-name="Ldot" unicode="&#x13f;" horiz-adv-x="968" 
d="M655 844h260v-250h-260v250zM401 1229v-965h527v-264h-822v1229h295z" />
    <glyph glyph-name="ldot" unicode="&#x140;" horiz-adv-x="786" 
d="M381 1315v-1315h-279v1315h279zM494 674h268v-256h-268v256z" />
    <glyph glyph-name="Lslash" unicode="&#x141;" horiz-adv-x="1019" 
d="M453 1229v-479l276 122v-182l-276 -123v-303h526v-264h-821v438l-125 -55v178l125 55v613h295z" />
    <glyph glyph-name="lslash" unicode="&#x142;" horiz-adv-x="593" 
d="M434 1315v-561l144 75v-178l-144 -73v-578h-278v434l-140 -72v175l140 71v707h278z" />
    <glyph glyph-name="Nacute" unicode="&#x143;" horiz-adv-x="1331" 
d="M836 0l-250 485q-102 212 -199 482l-33 -4q25 -379 25 -592v-371h-275v1229h418l215 -412q111 -217 209 -510l33 4q-25 318 -25 539v379h273v-1229h-391zM489 1331l-45 142l527 196l65 -207z" />
    <glyph glyph-name="nacute" unicode="&#x144;" horiz-adv-x="1087" 
d="M377 541v-541h-279v971h273v-260h18q42 140 127.5 213t200.5 73q137 0 208.5 -89.5t71.5 -250.5v-657h-278v580q0 76 -37 120.5t-111 44.5q-89 0 -141.5 -56.5t-52.5 -147.5zM414 1051l-70 135l483 278l101 -192z" />
    <glyph glyph-name="uni0145" unicode="&#x145;" horiz-adv-x="1331" 
d="M836 0l-250 485q-102 212 -199 482l-33 -4q25 -379 25 -592v-371h-275v1229h418l215 -412q111 -217 209 -510l33 4q-25 318 -25 539v379h273v-1229h-391zM594 -104h213l-121 -316h-172v19z" />
    <glyph glyph-name="uni0146" unicode="&#x146;" horiz-adv-x="1087" 
d="M377 541v-541h-279v971h273v-260h18q42 140 127.5 213t200.5 73q137 0 208.5 -89.5t71.5 -250.5v-657h-278v580q0 76 -37 120.5t-111 44.5q-89 0 -141.5 -56.5t-52.5 -147.5zM475 -104h213l-121 -316h-172v19z" />
    <glyph glyph-name="Ncaron" unicode="&#x147;" horiz-adv-x="1331" 
d="M836 0l-250 485q-102 212 -199 482l-33 -4q25 -379 25 -592v-371h-275v1229h418l215 -412q111 -217 209 -510l33 4q-25 318 -25 539v379h273v-1229h-391zM709 1319h-88l-279 258l84 98l240 -155l239 155l84 -98z" />
    <glyph glyph-name="ncaron" unicode="&#x148;" horiz-adv-x="1087" 
d="M377 541v-541h-279v971h273v-260h18q42 140 127.5 213t200.5 73q137 0 208.5 -89.5t71.5 -250.5v-657h-278v580q0 76 -37 120.5t-111 44.5q-89 0 -141.5 -56.5t-52.5 -147.5zM590 1075h-88l-279 297l92 98l232 -188l231 188l92 -98z" />
    <glyph glyph-name="napostrophe" unicode="&#x149;" horiz-adv-x="1386" 
d="M123 1229h285l-203 -582h-156v12zM649 541v-541h-278v971h272v-260h19q42 140 127 213t200 73q137 0 209 -89.5t72 -250.5v-657h-279v580q0 77 -36.5 121t-110.5 44q-89 0 -142 -56.5t-53 -147.5z" />
    <glyph glyph-name="Eng" unicode="&#x14a;" horiz-adv-x="1331" 
d="M106 0v1229h416l238 -404q89 -157 194 -411h19q-19 296 -19 450v365h273v-1196q0 -365 -359 -365q-83 0 -166 17l15 233q75 -14 114 -14q59 0 85 27t26 79l-303 469q-118 187 -258 482h-27q25 -383 25 -590v-371h-273z" />
    <glyph glyph-name="eng" unicode="&#x14b;" horiz-adv-x="1087" 
d="M719 20v560q0 78 -37 123t-111 45q-89 0 -141.5 -57t-52.5 -150v-541h-279v971h273v-260h18q42 140 127.5 213t200.5 73q137 0 208.5 -89.5t71.5 -250.5v-602q0 -186 -82.5 -285.5t-267.5 -99.5q-32 0 -90 8l12 242q60 -6 66 -6q84 0 84 106z" />
    <glyph glyph-name="Omacron" unicode="&#x14c;" horiz-adv-x="1345" 
d="M672 -29q-295 0 -458 173t-163 474q0 296 167 467.5t454 171.5q291 0 455.5 -171t164.5 -468q0 -301 -162 -474t-458 -173zM672 225q327 0 327 393q0 180 -80 280.5t-247 100.5q-166 0 -246 -101t-80 -280q0 -188 79.5 -290.5t246.5 -102.5zM391 1550h563v-188h-563v188z
" />
    <glyph glyph-name="omacron" unicode="&#x14d;" horiz-adv-x="1101" 
d="M553 -29q-236 0 -369 137t-133 377q0 241 134.5 376.5t367.5 135.5q229 0 363.5 -135.5t134.5 -376.5q0 -239 -133 -376.5t-365 -137.5zM551 764q-221 0 -221 -277q0 -136 53 -207t168 -71q221 0 221 278q0 277 -221 277zM270 1323h555v-188h-555v188z" />
    <glyph glyph-name="Obreve" unicode="&#x14e;" horiz-adv-x="1345" 
d="M672 -29q-295 0 -458 173t-163 474q0 296 167 467.5t454 171.5q291 0 455.5 -171t164.5 -468q0 -301 -162 -474t-458 -173zM672 225q327 0 327 393q0 180 -80 280.5t-247 100.5q-166 0 -246 -101t-80 -280q0 -188 79.5 -290.5t246.5 -102.5zM672 1509q71 0 115.5 32.5
t54.5 113.5h127q0 -168 -74 -244t-223 -76t-223 76t-74 244h127q10 -81 54.5 -113.5t115.5 -32.5z" />
    <glyph glyph-name="obreve" unicode="&#x14f;" horiz-adv-x="1101" 
d="M553 -29q-236 0 -369 137t-133 377q0 241 134.5 376.5t367.5 135.5q229 0 363.5 -135.5t134.5 -376.5q0 -239 -133 -376.5t-365 -137.5zM551 764q-221 0 -221 -277q0 -136 53 -207t168 -71q221 0 221 278q0 277 -221 277zM547 1262q72 0 116 37.5t54 130.5h127
q0 -180 -74 -261.5t-223 -81.5q-148 0 -222.5 82t-74.5 261h127q11 -93 55 -130.5t115 -37.5z" />
    <glyph glyph-name="Ohungarumlaut" unicode="&#x150;" horiz-adv-x="1345" 
d="M672 -29q-295 0 -458 173t-163 474q0 296 167 467.5t454 171.5q291 0 455.5 -171t164.5 -468q0 -301 -162 -474t-458 -173zM672 225q327 0 327 393q0 180 -80 280.5t-247 100.5q-166 0 -246 -101t-80 -280q0 -188 79.5 -290.5t246.5 -102.5zM557 1311l-127 73l174 320
l170 -100zM852 1311l-119 84l197 307l162 -109z" />
    <glyph glyph-name="ohungarumlaut" unicode="&#x151;" horiz-adv-x="1101" 
d="M553 -29q-236 0 -369 137t-133 377q0 241 134.5 376.5t367.5 135.5q229 0 363.5 -135.5t134.5 -376.5q0 -239 -133 -376.5t-365 -137.5zM551 764q-221 0 -221 -277q0 -136 53 -207t168 -71q221 0 221 278q0 277 -221 277zM412 1061l-119 67l174 342l162 -92zM692 1063
l-112 80l206 325l152 -102z" />
    <glyph glyph-name="OE" unicode="&#x152;" horiz-adv-x="1832" 
d="M690 254h129v719h-127q-170 0 -258 -93.5t-88 -261.5q0 -174 87.5 -269t256.5 -95zM692 0q-300 0 -470.5 163.5t-170.5 454.5q0 287 174 449t467 162h1057v-256h-633v-238h582v-229h-582v-250h631v-256h-1055z" />
    <glyph glyph-name="oe" unicode="&#x153;" horiz-adv-x="1767" 
d="M551 764q-221 0 -221 -277q0 -136 53 -207t168 -71q221 0 221 278q0 277 -221 277zM1264 788q-100 0 -152.5 -56.5t-62.5 -180.5h407q0 237 -192 237zM1309 -29q-149 0 -247.5 70t-141.5 207h-19q-43 -134 -139.5 -205.5t-239.5 -71.5q-222 0 -346.5 137t-124.5 377
q0 242 125.5 377t345.5 135q144 0 242 -72.5t141 -209.5h17q42 137 140 209.5t247 72.5q197 0 300 -119.5t103 -324.5q0 -52 -6 -119h-657q9 -123 63 -180t158 -57q90 0 132 36.5t64 104.5l234 -64q-17 -68 -45.5 -120.5t-74 -95t-114 -65t-157.5 -22.5z" />
    <glyph glyph-name="Racute" unicode="&#x154;" horiz-adv-x="1218" 
d="M623 981h-222v-328h222q107 0 155.5 39.5t48.5 126.5t-47 124.5t-157 37.5zM848 0l-260 424h-187v-424h-297v1229h539q477 0 477 -400q0 -279 -243 -368l315 -438v-23h-344zM414 1331l-45 142l526 196l66 -207z" />
    <glyph glyph-name="racute" unicode="&#x155;" horiz-adv-x="718" 
d="M377 0h-279v971h264v-316h23q22 100 49 165t61.5 99.5t71.5 48t88 13.5h29v-319h-57q-145 0 -197.5 -49.5t-52.5 -180.5v-432zM256 1051l-70 135l484 278l100 -192z" />
    <glyph glyph-name="uni0156" unicode="&#x156;" horiz-adv-x="1218" 
d="M535 -104h213l-121 -316h-172v19zM623 981h-222v-328h222q107 0 155.5 39.5t48.5 126.5t-47 124.5t-157 37.5zM848 0l-260 424h-187v-424h-297v1229h539q477 0 477 -400q0 -279 -243 -368l315 -438v-23h-344z" />
    <glyph glyph-name="uni0157" unicode="&#x157;" horiz-adv-x="718" 
d="M377 0h-279v971h264v-316h23q22 100 49 165t61.5 99.5t71.5 48t88 13.5h29v-319h-57q-145 0 -197.5 -49.5t-52.5 -180.5v-432zM164 -104h213l-121 -316h-172v19z" />
    <glyph glyph-name="Rcaron" unicode="&#x158;" horiz-adv-x="1218" 
d="M623 981h-222v-328h222q107 0 155.5 39.5t48.5 126.5t-47 124.5t-157 37.5zM848 0l-260 424h-187v-424h-297v1229h539q477 0 477 -400q0 -279 -243 -368l315 -438v-23h-344zM635 1319h-88l-279 258l84 98l240 -155l239 155l84 -98z" />
    <glyph glyph-name="rcaron" unicode="&#x159;" horiz-adv-x="718" 
d="M377 0h-279v971h264v-316h23q22 100 49 165t61.5 99.5t71.5 48t88 13.5h29v-319h-57q-145 0 -197.5 -49.5t-52.5 -180.5v-432zM432 1075h-88l-278 297l92 98l231 -188l232 188l92 -98z" />
    <glyph glyph-name="Sacute" unicode="&#x15a;" horiz-adv-x="1171" 
d="M600 -29q-504 3 -553 391l281 60q21 -108 94 -161.5t190 -53.5q101 0 153 32t52 91q0 67 -60 104.5t-229 65.5q-125 20 -212 54.5t-137.5 84.5t-72.5 110.5t-22 139.5q0 177 125 272.5t373 95.5q122 0 214 -26t150.5 -75.5t91.5 -113t47 -145.5l-292 -57
q-23 99 -72 143.5t-154 44.5q-192 0 -192 -123q0 -40 17.5 -66.5t80 -52.5t178.5 -47q139 -25 232.5 -63.5t142.5 -90.5t68.5 -107.5t19.5 -127.5q0 -183 -125.5 -281t-388.5 -98zM377 1331l-45 142l526 196l66 -207z" />
    <glyph glyph-name="sacute" unicode="&#x15b;" horiz-adv-x="970" 
d="M496 -29q-119 0 -205 22.5t-136.5 66t-76.5 96t-37 123.5l250 51q38 -162 211 -162q140 0 143 94q0 46 -44.5 74t-172.5 53q-197 42 -276.5 113.5t-79.5 197.5q0 142 102.5 219.5t304.5 77.5q104 0 178 -19t120.5 -57.5t72 -87t39.5 -116.5l-248 -51q-17 75 -55 107
t-113 32q-137 0 -137 -88q0 -45 40 -74t161 -53q112 -23 186.5 -54t115.5 -71.5t57.5 -85.5t16.5 -105q0 -303 -417 -303zM360 1051l-69 135l483 278l100 -192z" />
    <glyph glyph-name="Scircumflex" unicode="&#x15c;" horiz-adv-x="1171" 
d="M600 -29q-504 3 -553 391l281 60q21 -108 94 -161.5t190 -53.5q101 0 153 32t52 91q0 67 -60 104.5t-229 65.5q-125 20 -212 54.5t-137.5 84.5t-72.5 110.5t-22 139.5q0 177 125 272.5t373 95.5q122 0 214 -26t150.5 -75.5t91.5 -113t47 -145.5l-292 -57
q-23 99 -72 143.5t-154 44.5q-192 0 -192 -123q0 -40 17.5 -66.5t80 -52.5t178.5 -47q139 -25 232.5 -63.5t142.5 -90.5t68.5 -107.5t19.5 -127.5q0 -183 -125.5 -281t-388.5 -98zM817 1309l-239 155l-240 -155l-84 100l281 258h88l278 -258z" />
    <glyph glyph-name="scircumflex" unicode="&#x15d;" horiz-adv-x="970" 
d="M496 -29q-119 0 -205 22.5t-136.5 66t-76.5 96t-37 123.5l250 51q38 -162 211 -162q140 0 143 94q0 46 -44.5 74t-172.5 53q-197 42 -276.5 113.5t-79.5 197.5q0 142 102.5 219.5t304.5 77.5q104 0 178 -19t120.5 -57.5t72 -87t39.5 -116.5l-248 -51q-17 75 -55 107
t-113 32q-137 0 -137 -88q0 -45 40 -74t161 -53q112 -23 186.5 -54t115.5 -71.5t57.5 -85.5t16.5 -105q0 -303 -417 -303zM719 1053l-232 188l-231 -188l-92 98l280 299h88l279 -299z" />
    <glyph glyph-name="uni015E" unicode="&#x15e;" horiz-adv-x="1171" 
d="M600 -29h-2l-25 -65q35 12 72 12q148 0 148 -123q0 -53 -46 -96t-145 -43q-127 0 -209 57l56 86q72 -45 153 -45q72 0 72 51q0 48 -72 48q-33 0 -76 -13l-71 29l39 108q-402 40 -447 385l281 60q21 -108 94 -161.5t190 -53.5q101 0 153 32t52 91q0 67 -60 104.5
t-229 65.5q-125 20 -212 54.5t-137.5 84.5t-72.5 110.5t-22 139.5q0 177 125 272.5t373 95.5q122 0 214 -26t150.5 -75.5t91.5 -113t47 -145.5l-292 -57q-23 99 -72 143.5t-154 44.5q-192 0 -192 -123q0 -40 17.5 -66.5t80 -52.5t178.5 -47q139 -25 232.5 -63.5t142.5 -90.5
t68.5 -107.5t19.5 -127.5q0 -183 -125.5 -281t-388.5 -98z" />
    <glyph glyph-name="uni015F" unicode="&#x15f;" horiz-adv-x="970" 
d="M496 -29h-4l-25 -65q35 12 72 12q147 0 147 -123q0 -53 -45.5 -96t-144.5 -43q-127 0 -209 57l55 86q72 -45 154 -45q71 0 71 51q0 48 -71 48q-33 0 -76 -13l-72 29l39 108q-88 10 -152.5 36t-103.5 67t-60 89t-30 110l250 51q38 -162 211 -162q140 0 143 94
q0 46 -44.5 74t-172.5 53q-197 42 -276.5 113.5t-79.5 197.5q0 142 102.5 219.5t304.5 77.5q104 0 178 -19t120.5 -57.5t72 -87t39.5 -116.5l-248 -51q-17 75 -55 107t-113 32q-137 0 -137 -88q0 -45 40 -74t161 -53q112 -23 186.5 -54t115.5 -71.5t57.5 -85.5t16.5 -105
q0 -303 -417 -303z" />
    <glyph glyph-name="Scaron" unicode="&#x160;" horiz-adv-x="1171" 
d="M600 -29q-504 3 -553 391l281 60q21 -108 94 -161.5t190 -53.5q101 0 153 32t52 91q0 67 -60 104.5t-229 65.5q-125 20 -212 54.5t-137.5 84.5t-72.5 110.5t-22 139.5q0 177 125 272.5t373 95.5q122 0 214 -26t150.5 -75.5t91.5 -113t47 -145.5l-292 -57
q-23 99 -72 143.5t-154 44.5q-192 0 -192 -123q0 -40 17.5 -66.5t80 -52.5t178.5 -47q139 -25 232.5 -63.5t142.5 -90.5t68.5 -107.5t19.5 -127.5q0 -183 -125.5 -281t-388.5 -98zM621 1319h-89l-278 258l84 98l240 -155l239 155l84 -98z" />
    <glyph glyph-name="scaron" unicode="&#x161;" horiz-adv-x="970" 
d="M496 -29q-119 0 -205 22.5t-136.5 66t-76.5 96t-37 123.5l250 51q38 -162 211 -162q140 0 143 94q0 46 -44.5 74t-172.5 53q-197 42 -276.5 113.5t-79.5 197.5q0 142 102.5 219.5t304.5 77.5q104 0 178 -19t120.5 -57.5t72 -87t39.5 -116.5l-248 -51q-17 75 -55 107
t-113 32q-137 0 -137 -88q0 -45 40 -74t161 -53q112 -23 186.5 -54t115.5 -71.5t57.5 -85.5t16.5 -105q0 -303 -417 -303zM530 1075h-88l-278 297l92 98l231 -188l232 188l92 -98z" />
    <glyph glyph-name="Tcommaaccent" unicode="&#x162;" horiz-adv-x="1056" 
d="M27 958v271h1003v-271h-354v-958h-137l-35 -94q34 12 71 12q148 0 148 -123q0 -53 -46 -96t-145 -43q-126 0 -208 57l55 86q72 -45 153 -45q72 0 72 51q0 48 -72 48q-32 0 -75 -13l-72 29l47 131h-51v958h-354z" />
    <glyph glyph-name="tcommaaccent" unicode="&#x163;" horiz-adv-x="739" 
d="M150 305v445h-119v221h119v250h278v-250h256v-221h-256v-400q0 -60 26 -88.5t87 -28.5q50 0 127 25l30 -250q-65 -20 -110.5 -28.5t-118.5 -8.5q-41 0 -78 6l-26 -71q35 12 71 12q148 0 148 -123q0 -53 -46 -96t-145 -43q-127 0 -209 57l56 86q72 -45 153 -45q72 0 72 51
q0 48 -72 48q-33 0 -76 -13l-71 29l51 141q-74 41 -110.5 118.5t-36.5 176.5z" />
    <glyph glyph-name="Tcaron" unicode="&#x164;" horiz-adv-x="1056" 
d="M1030 958h-354v-958h-295v958h-354v271h1003v-271zM571 1319h-88l-278 258l84 98l239 -155l240 155l84 -98z" />
    <glyph glyph-name="tcaron" unicode="&#x165;" horiz-adv-x="753" 
d="M578 1401h200l-45 -328h-162zM150 305v445h-119v221h119v250h278v-250h256v-221h-256v-400q0 -60 26 -88.5t87 -28.5q50 0 127 25l30 -250q-65 -20 -110.5 -28.5t-118.5 -8.5q-160 0 -239.5 93t-79.5 241z" />
    <glyph glyph-name="Tbar" unicode="&#x166;" horiz-adv-x="1067" 
d="M35 958v271h1003v-271h-354v-354h258v-162h-258v-442h-295v442h-260v162h260v354h-354z" />
    <glyph glyph-name="tbar" unicode="&#x167;" horiz-adv-x="739" 
d="M150 305v133h-91v148h91v164h-119v221h119v250h278v-250h256v-221h-256v-164h221v-148h-221v-88q0 -60 26 -88.5t87 -28.5q50 0 127 25l30 -250q-65 -20 -110.5 -28.5t-118.5 -8.5q-160 0 -239.5 93t-79.5 241z" />
    <glyph glyph-name="Utilde" unicode="&#x168;" horiz-adv-x="1294" 
d="M651 233q135 0 189.5 66.5t54.5 198.5v731h297v-754q0 -243 -139.5 -372.5t-401.5 -129.5q-263 0 -404 129.5t-141 372.5v754h295v-727q0 -132 55.5 -200.5t194.5 -68.5zM504 1686q43 0 79.5 -18t60 -43t44 -50.5t41.5 -43.5t43 -18q41 0 56.5 38.5t13.5 123.5h121
q6 -50 6 -94q0 -126 -47 -191t-129 -65q-39 0 -72.5 17.5t-56.5 43t-44.5 51t-45.5 43t-50 17.5q-39 0 -54 -36t-15 -124h-119q-6 53 -6 93q0 127 46.5 191.5t127.5 64.5z" />
    <glyph glyph-name="utilde" unicode="&#x169;" horiz-adv-x="1091" 
d="M721 0v258h-21q-41 -140 -126 -213.5t-201 -73.5q-136 0 -207.5 90.5t-71.5 251.5v658h279v-580q0 -78 36.5 -123t110.5 -45q88 0 140.5 57t52.5 150v541h280v-971h-272zM399 1444q43 0 79.5 -17.5t60.5 -43t44 -51t41.5 -43t43.5 -17.5q41 0 56 38t13 124h121
q6 -50 6 -95q0 -126 -47 -191t-129 -65q-39 0 -72.5 17.5t-56.5 43t-44 51t-45 43t-50 17.5q-39 0 -54.5 -36t-15.5 -123h-119q-6 53 -6 92q0 127 46.5 191.5t127.5 64.5z" />
    <glyph glyph-name="Umacron" unicode="&#x16a;" horiz-adv-x="1294" 
d="M651 233q135 0 189.5 66.5t54.5 198.5v731h297v-754q0 -243 -139.5 -372.5t-401.5 -129.5q-263 0 -404 129.5t-141 372.5v754h295v-727q0 -132 55.5 -200.5t194.5 -68.5zM367 1550h563v-188h-563v188z" />
    <glyph glyph-name="umacron" unicode="&#x16b;" horiz-adv-x="1091" 
d="M721 0v258h-21q-41 -140 -126 -213.5t-201 -73.5q-136 0 -207.5 90.5t-71.5 251.5v658h279v-580q0 -78 36.5 -123t110.5 -45q88 0 140.5 57t52.5 150v541h280v-971h-272zM264 1323h555v-188h-555v188z" />
    <glyph glyph-name="Ubreve" unicode="&#x16c;" horiz-adv-x="1294" 
d="M651 233q135 0 189.5 66.5t54.5 198.5v731h297v-754q0 -243 -139.5 -372.5t-401.5 -129.5q-263 0 -404 129.5t-141 372.5v754h295v-727q0 -132 55.5 -200.5t194.5 -68.5zM647 1509q71 0 115.5 32.5t54.5 113.5h127q0 -168 -74 -244t-223 -76t-223 76t-74 244h127
q10 -81 54.5 -113.5t115.5 -32.5z" />
    <glyph glyph-name="ubreve" unicode="&#x16d;" horiz-adv-x="1091" 
d="M721 0v258h-21q-41 -140 -126 -213.5t-201 -73.5q-136 0 -207.5 90.5t-71.5 251.5v658h279v-580q0 -78 36.5 -123t110.5 -45q88 0 140.5 57t52.5 150v541h280v-971h-272zM543 1262q72 0 116 37.5t54 130.5h127q0 -180 -74 -261.5t-223 -81.5q-148 0 -222.5 82t-74.5 261
h127q11 -93 55 -130.5t115 -37.5z" />
    <glyph glyph-name="Uring" unicode="&#x16e;" horiz-adv-x="1294" 
d="M651 233q135 0 189.5 66.5t54.5 198.5v731h297v-754q0 -243 -139.5 -372.5t-401.5 -129.5q-263 0 -404 129.5t-141 372.5v754h295v-727q0 -132 55.5 -200.5t194.5 -68.5zM883 1538q0 -101 -63.5 -162t-170.5 -61q-108 0 -170.5 60t-62.5 161q0 102 62.5 162.5t170.5 60.5
q107 0 170.5 -60.5t63.5 -160.5zM551 1536q0 -43 26.5 -68.5t71.5 -25.5t72 26t27 70q0 43 -27.5 68.5t-71.5 25.5q-46 0 -72 -26t-26 -70z" />
    <glyph glyph-name="uring" unicode="&#x16f;" horiz-adv-x="1091" 
d="M721 0v258h-21q-41 -140 -126 -213.5t-201 -73.5q-136 0 -207.5 90.5t-71.5 251.5v658h279v-580q0 -78 36.5 -123t110.5 -45q88 0 140.5 57t52.5 150v541h280v-971h-272zM440 1309q0 -51 28 -80t75 -29q48 0 76 29t28 80q0 50 -28 78t-76 28t-75.5 -28t-27.5 -78z
M782 1309q0 -106 -64.5 -170t-174.5 -64t-174 64t-64 170t64 169.5t174 63.5t174.5 -63.5t64.5 -169.5z" />
    <glyph glyph-name="Uhungarumlaut" unicode="&#x170;" horiz-adv-x="1294" 
d="M651 233q135 0 189.5 66.5t54.5 198.5v731h297v-754q0 -243 -139.5 -372.5t-401.5 -129.5q-263 0 -404 129.5t-141 372.5v754h295v-727q0 -132 55.5 -200.5t194.5 -68.5zM532 1311l-126 73l174 320l170 -100zM827 1311l-118 84l196 307l162 -109z" />
    <glyph glyph-name="uhungarumlaut" unicode="&#x171;" horiz-adv-x="1091" 
d="M721 0v258h-21q-41 -140 -126 -213.5t-201 -73.5q-136 0 -207.5 90.5t-71.5 251.5v658h279v-580q0 -78 36.5 -123t110.5 -45q88 0 140.5 57t52.5 150v541h280v-971h-272zM688 1063l-113 80l207 325l152 -102zM408 1061l-119 67l174 342l162 -92z" />
    <glyph glyph-name="Uogonek" unicode="&#x172;" horiz-adv-x="1294" 
d="M651 233q135 0 189.5 66.5t54.5 198.5v731h297v-754q0 -215 -109.5 -341t-316.5 -152q-62 -17 -90.5 -39t-28.5 -54q0 -57 103 -57q49 0 106 14l2 -178q-75 -10 -127 -10q-239 0 -239 156q0 103 129 159q-249 7 -382 137t-133 365v754h295v-727q0 -132 55.5 -200.5
t194.5 -68.5z" />
    <glyph glyph-name="uogonek" unicode="&#x173;" horiz-adv-x="1091" 
d="M993 -332q-75 -10 -127 -10q-239 0 -239 156q0 132 202 186h-108v258h-21q-41 -140 -126 -213.5t-201 -73.5q-136 0 -207.5 90.5t-71.5 251.5v658h279v-580q0 -78 36.5 -123t110.5 -45q88 0 140.5 57t52.5 150v541h280v-971h-2q-112 -21 -160.5 -46t-48.5 -65
q0 -57 103 -57q49 0 106 14z" />
    <glyph glyph-name="Wcircumflex" unicode="&#x174;" horiz-adv-x="1753" 
d="M776 518l-84 -518h-409l-299 1229h317l105 -527q54 -291 75 -450h45q30 230 72 450l107 527h372l107 -527q31 -168 67 -450h45q10 77 74 450l96 527h303l-292 -1229h-430l-89 518q-44 272 -69 469h-37q-35 -240 -76 -469zM1116 1309l-239 155l-240 -155l-84 100l281 258
h88l278 -258z" />
    <glyph glyph-name="wcircumflex" unicode="&#x175;" horiz-adv-x="1531" 
d="M936 971l80 -383q37 -167 69 -375h35q5 28 76 377l74 381h274l-268 -971h-365l-82 418q-36 200 -53 342h-35q-10 -80 -53 -342l-76 -418h-354l-270 971h286l86 -381q57 -246 78 -377h37q28 184 68 375l80 383h313zM1001 1053l-231 188l-231 -188l-93 98l281 299h88
l279 -299z" />
    <glyph glyph-name="Ycircumflex" unicode="&#x176;" horiz-adv-x="1124" 
d="M711 0h-295v389l-445 817v23h326l248 -588h35l256 588h317v-23l-442 -815v-391zM801 1309l-240 155l-239 -155l-84 100l280 258h88l279 -258z" />
    <glyph glyph-name="ycircumflex" unicode="&#x177;" horiz-adv-x="993" 
d="M172 -344q-71 0 -160 14l41 236q77 -15 125 -15q78 0 120.5 24t74.5 97l-365 959h305l97 -357q6 -24 41 -153t53 -199h35q78 305 88 346l90 363h299l-383 -975q-72 -182 -176.5 -261t-284.5 -79zM735 1053l-231 188l-232 -188l-92 98l281 299h88l278 -299z" />
    <glyph glyph-name="Ydieresis" unicode="&#x178;" horiz-adv-x="1124" 
d="M711 0h-295v389l-445 817v23h326l248 -588h35l256 588h317v-23l-442 -815v-391zM258 1585h248v-239h-248v239zM608 1585h248v-239h-248v239z" />
    <glyph glyph-name="Zacute" unicode="&#x179;" horiz-adv-x="1189" 
d="M1112 270v-270h-1044v264l665 694l-14 29q-251 -29 -359 -29h-272v271h1016v-262l-672 -703l12 -22q215 28 351 28h317zM414 1331l-45 142l526 196l66 -207z" />
    <glyph glyph-name="zacute" unicode="&#x17a;" horiz-adv-x="1024" 
d="M684 236h260v-236h-872v240l553 501l-11 23q-205 -29 -329 -29h-197v236h850v-240l-555 -506l8 -18q211 29 293 29zM373 1051l-70 135l483 278l101 -192z" />
    <glyph glyph-name="Zdotaccent" unicode="&#x17b;" horiz-adv-x="1189" 
d="M1112 270v-270h-1044v264l665 694l-14 29q-251 -29 -359 -29h-272v271h1016v-262l-672 -703l12 -22q215 28 351 28h317zM457 1610h268v-256h-268v256z" />
    <glyph glyph-name="zdotaccent" unicode="&#x17c;" horiz-adv-x="1024" 
d="M684 236h260v-236h-872v240l553 501l-11 23q-205 -29 -329 -29h-197v236h850v-240l-555 -506l8 -18q211 29 293 29zM375 1391h268v-256h-268v256z" />
    <glyph glyph-name="Zcaron" unicode="&#x17d;" horiz-adv-x="1189" 
d="M1112 270v-270h-1044v264l665 694l-14 29q-251 -29 -359 -29h-272v271h1016v-262l-672 -703l12 -22q215 28 351 28h317zM633 1319h-88l-279 258l84 98l240 -155l239 155l84 -98z" />
    <glyph glyph-name="zcaron" unicode="&#x17e;" horiz-adv-x="1024" 
d="M684 236h260v-236h-872v240l553 501l-11 23q-205 -29 -329 -29h-197v236h850v-240l-555 -506l8 -18q211 29 293 29zM551 1075h-88l-279 297l92 98l232 -188l231 188l92 -98z" />
    <glyph glyph-name="Aringacute" unicode="&#x1fa;" horiz-adv-x="1224" 
d="M438 1620l-41 135l512 189l62 -197zM514 1350q0 -46 26.5 -73.5t73.5 -27.5q46 0 74.5 28t28.5 75q0 45 -28.5 72.5t-74.5 27.5q-47 0 -73.5 -27.5t-26.5 -74.5zM485 639l-47 -152h340l-47 152q-48 152 -96 336h-49q-38 -137 -101 -336zM930 0l-84 272h-475l-84 -272
h-305l426 1217q-35 56 -35 133q0 109 64.5 174t176.5 65t177 -64.5t65 -172.5q0 -79 -35 -135l424 -1217h-315z" />
    <glyph glyph-name="aringacute" unicode="&#x1fb;" horiz-adv-x="1030" 
d="M362 1548l-40 138l503 184l60 -197zM449 195q94 0 150 50.5t56 129.5v39h-200q-68 0 -108 -29t-40 -80q0 -110 142 -110zM670 2v231h-25q-80 -251 -317 -251q-129 0 -207 68.5t-78 205.5q0 138 87 216.5t271 78.5h254v67q0 158 -149 158q-137 0 -164 -139l-262 59
q26 139 134.5 220t301.5 81q216 0 316 -95.5t100 -283.5v-616h-262zM416 1282q0 -43 26.5 -68.5t71.5 -25.5q44 0 71 26t27 70q0 43 -27 68.5t-71 25.5q-46 0 -72 -26t-26 -70zM748 1284q0 -101 -63.5 -162t-170.5 -61q-108 0 -170.5 60t-62.5 161q0 102 62.5 162.5
t170.5 60.5q107 0 170.5 -60.5t63.5 -160.5z" />
    <glyph glyph-name="AEacute" unicode="&#x1fc;" horiz-adv-x="1783" 
d="M719 1331l-45 142l526 196l66 -207zM770 0v256h-364l-111 -256h-305v12l567 1217h1143v-256h-633v-238h582v-229h-582v-250h631v-256h-928zM569 639l-69 -164h270v512h-65q-63 -177 -136 -348z" />
    <glyph glyph-name="aeacute" unicode="&#x1fd;" horiz-adv-x="1650" 
d="M451 193q94 0 150 50.5t56 129.5v51h-198q-69 0 -109.5 -32t-40.5 -87q0 -112 142 -112zM1147 788q-100 0 -152 -56.5t-61 -182.5h407q3 239 -194 239zM1585 274q-14 -55 -34.5 -98t-54.5 -82.5t-79.5 -65.5t-112 -41.5t-149.5 -15.5q-157 0 -272.5 65t-163.5 197
q-44 -126 -140.5 -192t-236.5 -66q-131 0 -215 71t-84 210q0 131 88 207t272 76h254v77q0 158 -151 158q-135 0 -162 -139l-262 59q26 136 129 218.5t272 82.5q250 0 332 -168q110 170 340 170q218 0 329 -119t111 -325q0 -76 -6 -121h-655q9 -122 62.5 -178.5t156.5 -56.5
q90 0 132.5 36.5t64.5 104.5zM686 1051l-70 135l484 278l100 -192z" />
    <glyph glyph-name="Oslashacute" unicode="&#x1fe;" horiz-adv-x="1343" 
d="M672 -29q-226 0 -377 105l-66 -76h-219v12l168 174q-127 168 -127 432q0 296 167 467.5t454 171.5q232 0 385 -110l69 82h213v-12l-170 -181q123 -163 123 -418q0 -301 -162 -474t-458 -173zM332 618q0 -135 39 -223l508 551q-84 62 -207 62q-171 0 -255.5 -108
t-84.5 -282zM498 1331l-45 142l526 196l65 -207zM672 217q340 0 340 401q0 120 -39 205l-504 -551q76 -55 203 -55z" />
    <glyph glyph-name="oslashacute" unicode="&#x1ff;" horiz-adv-x="1101" 
d="M553 -29q-184 0 -311 88l-45 -59h-199v12l143 148q-90 128 -90 325q0 241 134.5 376.5t367.5 135.5q180 0 307 -88l49 62h193v-13l-141 -149q90 -129 90 -324q0 -239 -133.5 -376.5t-364.5 -137.5zM551 782q-250 0 -250 -295q0 -81 18 -143l383 397q-59 41 -151 41z
M422 1051l-70 135l484 278l100 -192zM551 188q248 0 248 299q0 76 -19 138l-379 -398q58 -39 150 -39z" />
    <glyph glyph-name="uni0218" unicode="&#x218;" horiz-adv-x="1171" 
d="M600 -29q-504 3 -553 391l281 60q21 -108 94 -161.5t190 -53.5q101 0 153 32t52 91q0 67 -60 104.5t-229 65.5q-125 20 -212 54.5t-137.5 84.5t-72.5 110.5t-22 139.5q0 177 125 272.5t373 95.5q122 0 214 -26t150.5 -75.5t91.5 -113t47 -145.5l-292 -57
q-23 99 -72 143.5t-154 44.5q-192 0 -192 -123q0 -40 17.5 -66.5t80 -52.5t178.5 -47q139 -25 232.5 -63.5t142.5 -90.5t68.5 -107.5t19.5 -127.5q0 -183 -125.5 -281t-388.5 -98zM504 -104h213l-121 -316h-172v19z" />
    <glyph glyph-name="uni0219" unicode="&#x219;" horiz-adv-x="970" 
d="M496 -29q-119 0 -205 22.5t-136.5 66t-76.5 96t-37 123.5l250 51q38 -162 211 -162q140 0 143 94q0 46 -44.5 74t-172.5 53q-197 42 -276.5 113.5t-79.5 197.5q0 142 102.5 219.5t304.5 77.5q104 0 178 -19t120.5 -57.5t72 -87t39.5 -116.5l-248 -51q-17 75 -55 107
t-113 32q-137 0 -137 -88q0 -45 40 -74t161 -53q112 -23 186.5 -54t115.5 -71.5t57.5 -85.5t16.5 -105q0 -303 -417 -303zM406 -104h212l-120 -316h-172v19z" />
    <glyph glyph-name="uni021A" unicode="&#x21a;" horiz-adv-x="1056" 
d="M27 958v271h1003v-271h-354v-958h-295v958h-354zM455 -104h213l-121 -316h-172v19z" />
    <glyph glyph-name="uni021B" unicode="&#x21b;" horiz-adv-x="739" 
d="M150 305v445h-119v221h119v250h278v-250h256v-221h-256v-400q0 -60 26 -88.5t87 -28.5q50 0 127 25l30 -250q-65 -20 -110.5 -28.5t-118.5 -8.5q-160 0 -239.5 93t-79.5 241zM311 -104h213l-121 -316h-172v19z" />
    <glyph glyph-name="circumflex" unicode="&#x2c6;" horiz-adv-x="729" 
d="M596 1053l-231 188l-232 -188l-92 98l281 299h88l278 -299z" />
    <glyph glyph-name="caron" unicode="&#x2c7;" horiz-adv-x="729" 
d="M408 1075h-89l-278 297l92 98l232 -188l231 188l92 -98z" />
    <glyph glyph-name="breve" unicode="&#x2d8;" horiz-adv-x="669" 
d="M342 1262q72 0 116 37.5t54 130.5h127q0 -180 -74 -261.5t-223 -81.5q-148 0 -222.5 82t-74.5 261h127q11 -93 55 -130.5t115 -37.5z" />
    <glyph glyph-name="dotaccent" unicode="&#x2d9;" horiz-adv-x="389" 
d="M61 1391h269v-256h-269v256z" />
    <glyph glyph-name="ring" unicode="&#x2da;" horiz-adv-x="606" 
d="M543 1309q0 -106 -65 -170t-175 -64q-109 0 -173 63.5t-64 170.5q0 106 63.5 169.5t173.5 63.5t175 -63.5t65 -169.5zM201 1309q0 -51 27.5 -80t74.5 -29q48 0 76.5 29t28.5 80q0 50 -28.5 78t-76.5 28t-75 -27.5t-27 -78.5z" />
    <glyph glyph-name="ogonek" unicode="&#x2db;" horiz-adv-x="448" 
d="M373 25l33 -25q-112 -21 -160.5 -46t-48.5 -65q0 -57 102 -57q50 0 107 14l2 -178q-75 -10 -127 -10q-240 0 -240 156q0 88 90 140.5t242 70.5z" />
    <glyph glyph-name="tilde" unicode="&#x2dc;" horiz-adv-x="722" 
d="M221 1444q43 0 79.5 -17.5t60 -43t44 -51t41.5 -43t43 -17.5q41 0 56.5 38.5t13.5 123.5h121q6 -50 6 -95q0 -126 -47 -191t-129 -65q-39 0 -72.5 17.5t-56.5 43t-44 51t-45 43t-50 17.5q-39 0 -54.5 -36t-15.5 -123h-119q-6 53 -6 92q0 127 46.5 191.5t127.5 64.5z" />
    <glyph glyph-name="hungarumlaut" unicode="&#x2dd;" horiz-adv-x="702" 
d="M164 1061l-119 67l174 342l162 -92zM444 1063l-112 80l207 325l151 -102z" />
    <glyph glyph-name="Wgrave" unicode="&#x1e80;" horiz-adv-x="1753" 
d="M776 518l-84 -518h-409l-299 1229h317l105 -527q54 -291 75 -450h45q30 230 72 450l107 527h372l107 -527q31 -168 67 -450h45q10 77 74 450l96 527h303l-292 -1229h-430l-89 518q-44 272 -69 469h-37q-35 -240 -76 -469zM1042 1331l-546 133l65 203l526 -194z" />
    <glyph glyph-name="wgrave" unicode="&#x1e81;" horiz-adv-x="1531" 
d="M936 971l80 -383q37 -167 69 -375h35q5 28 76 377l74 381h274l-268 -971h-365l-82 418q-36 200 -53 342h-35q-10 -80 -53 -342l-76 -418h-354l-270 971h286l86 -381q57 -246 78 -377h37q28 184 68 375l80 383h313zM938 1051l-516 221l102 192l482 -278z" />
    <glyph glyph-name="Wacute" unicode="&#x1e82;" horiz-adv-x="1753" 
d="M776 518l-84 -518h-409l-299 1229h317l105 -527q54 -291 75 -450h45q30 230 72 450l107 527h372l107 -527q31 -168 67 -450h45q10 77 74 450l96 527h303l-292 -1229h-430l-89 518q-44 272 -69 469h-37q-35 -240 -76 -469zM698 1331l-45 142l527 196l65 -207z" />
    <glyph glyph-name="wacute" unicode="&#x1e83;" horiz-adv-x="1531" 
d="M936 971l80 -383q37 -167 69 -375h35q5 28 76 377l74 381h274l-268 -971h-365l-82 418q-36 200 -53 342h-35q-10 -80 -53 -342l-76 -418h-354l-270 971h286l86 -381q57 -246 78 -377h37q28 184 68 375l80 383h313zM635 1051l-70 135l484 278l100 -192z" />
    <glyph glyph-name="Wdieresis" unicode="&#x1e84;" horiz-adv-x="1753" 
d="M776 518l-84 -518h-409l-299 1229h317l105 -527q54 -291 75 -450h45q30 230 72 450l107 527h372l107 -527q31 -168 67 -450h45q10 77 74 450l96 527h303l-292 -1229h-430l-89 518q-44 272 -69 469h-37q-35 -240 -76 -469zM573 1585h248v-239h-248v239zM924 1585h247v-239
h-247v239z" />
    <glyph glyph-name="wdieresis" unicode="&#x1e85;" horiz-adv-x="1531" 
d="M936 971l80 -383q37 -167 69 -375h35q5 28 76 377l74 381h274l-268 -971h-365l-82 418q-36 200 -53 342h-35q-10 -80 -53 -342l-76 -418h-354l-270 971h286l86 -381q57 -246 78 -377h37q28 184 68 375l80 383h313zM471 1374h248v-239h-248v239zM821 1374h248v-239h-248
v239z" />
    <glyph glyph-name="uni1E9E" unicode="&#x1e9e;" horiz-adv-x="1243" 
d="M813 -20q-212 0 -324 112l84 232q102 -95 244 -95q113 0 113 82q0 43 -34.5 69.5t-113.5 61.5q-35 15 -50.5 22t-47 23.5t-48 29t-39 33.5t-34 42.5t-20 50.5t-8.5 62q0 187 270 272l-2 20q-96 -14 -230 -14q-82 0 -127 -47t-45 -141v-795h-295v805q0 205 128.5 314.5
t377.5 109.5h449v-240q-266 -105 -266 -213q0 -45 32 -73t99 -60q50 -25 81 -42.5t70 -48t60.5 -62t37 -79t15.5 -104.5q0 -161 -95.5 -244t-281.5 -83z" />
    <glyph glyph-name="endash" unicode="&#x2013;" horiz-adv-x="974" 
d="M37 629h901v-254h-901v254z" />
    <glyph glyph-name="emdash" unicode="&#x2014;" horiz-adv-x="1761" 
d="M37 629h1687v-254h-1687v254z" />
    <glyph glyph-name="quoteleft" unicode="&#x2018;" horiz-adv-x="444" 
d="M319 647h-282l203 582h155v-12z" />
    <glyph glyph-name="quoteright" unicode="&#x2019;" horiz-adv-x="444" 
d="M123 1229h285l-203 -582h-156v12z" />
    <glyph glyph-name="quotesinglbase" unicode="&#x201a;" horiz-adv-x="440" 
d="M121 305h285l-203 -581h-156v12z" />
    <glyph glyph-name="quotedblleft" unicode="&#x201c;" horiz-adv-x="817" 
d="M324 647h-283l203 582h155v-12zM698 647h-282l202 582h156v-12z" />
    <glyph glyph-name="quotedblright" unicode="&#x201d;" horiz-adv-x="821" 
d="M123 1229h285l-203 -582h-156v12zM502 1229h284l-202 -582h-156v12z" />
    <glyph glyph-name="quotedblbase" unicode="&#x201e;" horiz-adv-x="813" 
d="M109 305h284l-203 -581h-155v12zM487 305h285l-203 -581h-155v12z" />
    <glyph glyph-name="dagger" unicode="&#x2020;" horiz-adv-x="1234" 
d="M764 -430h-295v1184h-193v-346h-227v563h420v401h295v-401h422v-563h-230v346h-192v-1184z" />
    <glyph glyph-name="daggerdbl" unicode="&#x2021;" horiz-adv-x="1269" 
d="M487 1372h295v-371h420v-389h-227v174h-193v-571h193v174h227v-389h-420v-430h-295v430h-419v389h227v-174h192v571h-192v-174h-227v389h419v371z" />
    <glyph glyph-name="bullet" unicode="&#x2022;" horiz-adv-x="593" 
d="M76 717h444v-426h-444v426z" />
    <glyph glyph-name="ellipsis" unicode="&#x2026;" horiz-adv-x="1255" 
d="M49 293h303v-293h-303v293zM479 293h303v-293h-303v293zM911 293h303v-293h-303v293z" />
    <glyph glyph-name="perthousand" unicode="&#x2030;" horiz-adv-x="2312" 
d="M1925 -20q-165 0 -260.5 97t-95.5 265q0 167 95.5 261.5t260.5 94.5t262 -95t97 -261q0 -168 -97 -265t-262 -97zM1925 162q67 0 104 46t37 134q0 86 -37.5 130t-103.5 44t-103.5 -44t-37.5 -130q0 -88 37 -134t104 -46zM410 532q-165 0 -262 96.5t-97 264.5
q0 166 97 262t262 96t260.5 -95.5t95.5 -262.5q0 -168 -95.5 -264.5t-260.5 -96.5zM408 715q67 0 105 46t38 132t-38 131t-103 45q-66 0 -104 -45t-38 -131t37 -132t103 -46zM1155 -20q-165 0 -260.5 97t-95.5 265q0 167 95.5 261.5t260.5 94.5t261.5 -95t96.5 -261
q0 -168 -96.5 -265t-261.5 -97zM1155 162q67 0 104 46t37 134q0 86 -37.5 130t-103.5 44t-103.5 -44t-37.5 -130q0 -88 37 -134t104 -46zM1087 1229h396v-12l-621 -543l-43 33zM485 0h-395v12l621 543l43 -31z" />
    <glyph glyph-name="guilsinglleft" unicode="&#x2039;" horiz-adv-x="765" 
d="M739 66h-270l-438 448v29l438 448h270v-26l-417 -437l417 -436v-26z" />
    <glyph glyph-name="guilsinglright" unicode="&#x203a;" horiz-adv-x="768" 
d="M299 61h-270v27l417 436l-417 437v26h270l438 -448v-29z" />
    <glyph glyph-name="fraction" unicode="&#x2044;" horiz-adv-x="79" 
d="M342 1229h395v-12l-620 -543l-43 33zM-260 0h-395v12l620 543l43 -31z" />
    <glyph glyph-name="Euro" unicode="&#x20ac;" horiz-adv-x="1357" 
d="M737 -29q-232 0 -377.5 122.5t-187.5 346.5h-131v107h119q-2 23 -2 71q0 38 2 54h-119v106h129q40 228 191 353.5t384 125.5q238 0 378.5 -123.5t168.5 -353.5l-280 -55q-26 143 -91 213t-186 70q-224 0 -276 -230h266v-106h-281q-2 -16 -2 -54q0 -48 2 -71h281v-107
h-264q54 -223 272 -223q126 0 190 70t95 217l278 -47q-28 -232 -172.5 -359t-386.5 -127z" />
    <glyph glyph-name="uni2116" unicode="&#x2116;" horiz-adv-x="2240" 
d="M1382 352h752v-243h-752v243zM1757 655q162 0 162 195q0 192 -160 192q-83 0 -123.5 -50t-40.5 -142q0 -93 40 -144t122 -51zM1759 449q-189 0 -296 106.5t-107 294.5q0 187 107 293t296 106q186 0 294 -106.5t108 -292.5q0 -187 -108.5 -294t-293.5 -107zM836 0
l-250 485q-102 212 -199 482l-33 -4q25 -379 25 -592v-371h-275v1229h418l215 -412q111 -217 209 -510l33 4q-25 318 -25 539v379h273v-1229h-391z" />
    <glyph glyph-name="trademark" unicode="&#x2122;" horiz-adv-x="1880" 
d="M39 1044v185h657v-185h-219v-522h-219v522h-219zM963 778v-256h-181v707h351l67 -193q65 -189 86 -262h25q47 151 90 262l69 193h334v-707h-217v256q0 25 6 271h-30q-60 -167 -107 -287l-90 -227h-186l-84 223q-65 171 -103 289h-32q2 -84 2 -269z" />
    <glyph glyph-name="uni2190" unicode="&#x2190;" horiz-adv-x="1579" 
d="M70 545v88l624 590l178 -215q-219 -169 -444 -312l2 -8q295 31 666 31h389v-260h-389q-381 0 -666 30l-2 -6q232 -148 444 -313l-178 -215z" />
    <glyph glyph-name="arrowup" unicode="&#x2191;" horiz-adv-x="1472" 
d="M690 1346h86l592 -625l-215 -178q-163 207 -313 444l-6 -2q30 -290 30 -666v-389h-262v389q0 348 33 666l-8 2q-139 -219 -314 -444l-213 178z" />
    <glyph glyph-name="uni2192" unicode="&#x2192;" horiz-adv-x="1579" 
d="M1509 639v-88l-624 -590l-178 215q227 173 444 311l-2 9q-295 -31 -666 -31h-389v260h389q371 0 666 -31l2 6q-226 147 -444 314l178 215z" />
    <glyph glyph-name="arrowdown" unicode="&#x2193;" horiz-adv-x="1472" 
d="M780 -104h-88l-590 624l215 178q169 -219 312 -444l8 4q-31 291 -31 666v387h260v-387q0 -384 -30 -666l8 -4q138 221 311 444l215 -178z" />
    <glyph glyph-name="minus" unicode="&#x2212;" horiz-adv-x="1001" 
d="M936 510h-873v248h873v-248z" />
    <glyph glyph-name="uni25A0" unicode="&#x25a0;" 
d="M74 -244q4 283 4 848t-4 848q283 -6 848 -6q564 0 847 6q-4 -283 -4 -848t4 -848q-424 6 -847 6t-848 -6z" />
    <glyph glyph-name="uni25B2" unicode="&#x25b2;" 
d="M154 0v8l768 1264h8l762 -1264v-8h-1538z" />
    <glyph glyph-name="uni25B3" unicode="&#x25b3;" 
d="M154 0v8l768 1264h8l762 -1264v-8h-1538zM926 240q106 0 356 -21l6 17q-206 304 -352 632h-18q-150 -331 -355 -630l8 -19q254 21 355 21z" />
    <glyph glyph-name="uni25B6" unicode="&#x25b6;" 
d="M369 1391h8l1263 -768v-9l-1263 -761h-8v1538z" />
    <glyph glyph-name="uni25B7" unicode="&#x25b7;" 
d="M369 1391h8l1263 -768v-9l-1263 -761h-8v1538zM608 618q0 -118 -20 -356l16 -6q302 205 633 352v19q-338 153 -631 354l-18 -8q20 -242 20 -355z" />
    <glyph glyph-name="uni25BC" unicode="&#x25bc;" 
d="M1690 1229v-8l-768 -1264h-9l-761 1264v8h1538z" />
    <glyph glyph-name="uni25BD" unicode="&#x25bd;" 
d="M1278 991l-8 19q-254 -21 -355 -21q-106 0 -356 21l-6 -17q205 -302 352 -633h19q153 338 354 631zM150 1229h1538v-8l-768 -1264h-9l-761 1264v8z" />
    <glyph glyph-name="uni25C0" unicode="&#x25c0;" 
d="M1475 1391h-9l-1263 -768v-9l1263 -761h9v1538z" />
    <glyph glyph-name="uni25C1" unicode="&#x25c1;" 
d="M1466 1391h9v-1538h-9l-1263 761v9zM1235 618q0 113 20 355l-18 8q-293 -201 -631 -354v-19q331 -147 633 -352l16 6q-20 238 -20 356z" />
    <glyph glyph-name="uni25C6" unicode="&#x25c6;" 
d="M922 -395q-483 521 -990 989q540 502 990 989q457 -493 989 -989q-500 -461 -989 -989z" />
    <glyph glyph-name="uni25CF" unicode="&#x25cf;" 
d="M-6 602q0 284 112.5 494t323 322t494.5 112q427 0 676 -249.5t249 -678.5t-249 -678.5t-676 -249.5q-284 0 -494.5 112t-323 322t-112.5 494z" />
    <glyph glyph-name="uni2605" unicode="&#x2605;" 
d="M1448 -160l-526 305l-523 -305l-6 4l125 592l-450 404l2 8l604 63l244 553h8l243 -553l605 -63l2 -8l-451 -404l125 -592z" />
    <glyph glyph-name="uni2610" unicode="&#x2610;" 
d="M1489 0h-1133v1133h1133v-1133zM924 205q160 0 372 -10q-10 208 -10 372q0 166 10 371q-254 -8 -372 -8q-123 0 -373 8q8 -250 8 -371q0 -122 -8 -372q208 10 373 10z" />
    <glyph glyph-name="uni2611" unicode="&#x2611;" 
d="M637 647l151 150q97 -108 175 -232q191 336 538 817l197 -147q-223 -269 -383 -487.5t-299 -456.5h-107q-108 186 -272 356zM356 0v1133h828v-7l-127 -194q-43 -2 -133 -2q-121 0 -375 8q10 -205 10 -371q0 -164 -10 -372q317 10 375 10q56 0 374 -10q-12 234 -12 348
l197 258h6v-801h-1133z" />
    <glyph glyph-name="uni2612" unicode="&#x2612;" 
d="M1489 0h-1133v1133h1133v-1133zM1104 272q-85 88 -180 203q-111 -130 -179 -203l-122 119q98 92 202 178q-122 102 -202 176l122 121q77 -83 179 -202q89 108 180 202l119 -121q-72 -67 -203 -176q113 -93 203 -178zM924 205q160 0 372 -10q-10 208 -10 372q0 166 10 371
q-254 -8 -372 -8q-123 0 -373 8q8 -250 8 -371q0 -122 -8 -372q208 10 373 10z" />
    <glyph glyph-name="uni2661" unicode="&#x2661;" 
d="M664 463q166 -103 266 -227q104 125 268 227q142 90 215.5 185t73.5 208q0 111 -55 173.5t-166 62.5q-120 0 -197 -94t-108 -255h-60q-32 163 -109 256t-198 93q-111 0 -165 -62.5t-54 -173.5q0 -114 73.5 -209t215.5 -184zM920 -111q-61 107 -154 193.5t-246 198.5
q-78 55 -138 105.5t-114 110t-89.5 118.5t-56 128t-20.5 142q0 204 108 318t296 114q164 0 260.5 -78t146.5 -244h17q48 165 145.5 243.5t263.5 78.5q185 0 293.5 -114.5t108.5 -317.5q0 -91 -30 -174t-88.5 -157.5t-129 -138.5t-168.5 -134q-152 -110 -245 -197t-152 -195
h-8z" />
    <glyph glyph-name="uni2726" unicode="&#x2726;" 
d="M1690 616v-24q-276 -85 -473.5 -284.5t-284.5 -471.5h-23q-88 272 -284.5 471.5t-472.5 284.5v24q276 85 472.5 284.5t284.5 471.5h23q87 -272 284.5 -471.5t473.5 -284.5z" />
    <glyph glyph-name="uni2727" unicode="&#x2727;" 
d="M1692 606v-8q-276 -85 -476.5 -287.5t-287.5 -474.5h-8q-87 272 -288.5 475.5t-477.5 288.5v8q276 85 476 288t288 476h8q88 -273 289 -477t477 -289zM1317 596v16q-159 43 -251 134.5t-136 250.5h-15q-43 -159 -135.5 -250.5t-251.5 -134.5v-16q159 -45 251.5 -136.5
t135.5 -248.5h15q44 158 136.5 250t250.5 135z" />
    <glyph glyph-name="uni2728" unicode="&#x2728;" 
d="M1255 424v-8q-225 -70 -387.5 -234.5t-232.5 -386.5h-10q-70 222 -234.5 387.5t-390.5 235.5v8q226 70 390 235t235 388h8q72 -223 235 -389t387 -236zM623 92h8q38 130 117 209t210 119v10q-131 40 -210 118.5t-117 209.5h-8q-38 -131 -117 -209.5t-211 -118.5v-10
q131 -40 210.5 -119t117.5 -209zM1194 1204v-10q-103 -32 -176.5 -107.5t-106.5 -179.5h-10q-31 103 -105.5 179t-179.5 110v8q104 32 177 108t108 181h8q33 -104 107.5 -180.5t177.5 -108.5zM1063 1198v6q-62 19 -98.5 56t-53.5 98h-8q-17 -62 -53.5 -98.5t-97.5 -55.5v-6
q62 -19 98 -55t53 -96h8q17 60 53.5 96t98.5 55zM1843 784q-170 -52 -293 -176t-176 -293h-8q-53 169 -177 293t-296 178v9q171 52 293.5 176.5t177.5 294.5h8q53 -169 177 -294t294 -179v-9zM1626 786v11q-103 29 -164 90t-90 162h-8q-29 -101 -90.5 -162t-161.5 -90v-11
q100 -29 161.5 -89.5t90.5 -161.5h8q29 101 90 161.5t164 89.5z" />
    <glyph glyph-name="uni2764" unicode="&#x2764;" 
d="M920 -111q-61 107 -154 193.5t-246 198.5q-78 55 -138 105.5t-114 110t-89.5 118.5t-56 128t-20.5 142q0 204 108 318t296 114q164 0 260.5 -78t146.5 -244h17q48 165 145.5 243.5t263.5 78.5q185 0 293.5 -114.5t108.5 -317.5q0 -91 -30 -174t-88.5 -157.5t-129 -138.5
t-168.5 -134q-152 -110 -245 -197t-152 -195h-8z" />
    <glyph glyph-name="uni2780" unicode="&#x2780;" horiz-adv-x="1771" 
d="M885 -2q152 0 269.5 46.5t192 131t112.5 198.5t38 253q0 138 -38 251.5t-113 196.5t-192.5 128.5t-268.5 45.5t-268.5 -45.5t-192.5 -128.5t-113.5 -196.5t-38.5 -251.5q0 -139 38.5 -253.5t113 -198.5t192.5 -130.5t269 -46.5zM885 1454q198 0 355.5 -61t261 -171.5
t158 -261.5t54.5 -333q0 -183 -54.5 -335.5t-158 -263.5t-261.5 -173t-355 -62t-355 62t-261 173t-157.5 263.5t-54.5 335.5q0 182 55 333.5t158 261.5t260.5 171t354.5 61zM1206 188h-631v191h230v485q-69 -38 -191 -80l-73 179l358 106h129v-690h178v-191z" />
    <glyph glyph-name="uni2781" unicode="&#x2781;" horiz-adv-x="1771" 
d="M885 -2q152 0 269.5 46.5t192 131t112.5 198.5t38 253q0 138 -38 251.5t-113 196.5t-192.5 128.5t-268.5 45.5t-268.5 -45.5t-192.5 -128.5t-113.5 -196.5t-38.5 -251.5q0 -139 38.5 -253.5t113 -198.5t192.5 -130.5t269 -46.5zM885 1454q198 0 355.5 -61t261 -171.5
t158 -261.5t54.5 -333q0 -183 -54.5 -335.5t-158 -263.5t-261.5 -173t-355 -62t-355 62t-261 173t-157.5 263.5t-54.5 335.5q0 182 55 333.5t158 261.5t260.5 171t354.5 61zM903 911q-85 0 -128 -45.5t-56 -134.5l-221 27q11 78 37.5 138t73.5 106t121.5 70t174.5 24
q373 0 373 -297q0 -229 -383 -299q-125 -27 -171.5 -52.5t-53.5 -76.5q144 16 278 16h330v-190h-807q-4 74 -4 112q0 147 72.5 221t240.5 113q115 29 172 52.5t76 48t19 63.5q0 49 -35.5 76.5t-108.5 27.5z" />
    <glyph glyph-name="uni2782" unicode="&#x2782;" horiz-adv-x="1771" 
d="M885 -2q152 0 269.5 46.5t192 131t112.5 198.5t38 253q0 138 -38 251.5t-113 196.5t-192.5 128.5t-268.5 45.5t-268.5 -45.5t-192.5 -128.5t-113.5 -196.5t-38.5 -251.5q0 -139 38.5 -253.5t113 -198.5t192.5 -130.5t269 -46.5zM885 1454q198 0 355.5 -61t261 -171.5
t158 -261.5t54.5 -333q0 -183 -54.5 -335.5t-158 -263.5t-261.5 -173t-355 -62t-355 62t-261 173t-157.5 263.5t-54.5 335.5q0 182 55 333.5t158 261.5t260.5 171t354.5 61zM885 174q-189 0 -291.5 66.5t-122.5 214.5l229 26q15 -68 54.5 -100.5t132.5 -32.5q157 0 157 105
q0 52 -31 75t-114 23h-158v151h158q64 0 94.5 22.5t30.5 74.5q0 56 -33 81t-106 25q-84 0 -119.5 -32t-46.5 -101l-219 16q21 144 113 219.5t270 75.5q188 0 273 -58.5t85 -178.5q0 -89 -55.5 -138.5t-165.5 -68.5v-16q144 -12 201 -58t57 -141q0 -116 -95.5 -183
t-297.5 -67z" />
    <glyph glyph-name="uni2783" unicode="&#x2783;" horiz-adv-x="1771" 
d="M885 -2q152 0 269.5 46.5t192 131t112.5 198.5t38 253q0 138 -38 251.5t-113 196.5t-192.5 128.5t-268.5 45.5t-268.5 -45.5t-192.5 -128.5t-113.5 -196.5t-38.5 -251.5q0 -139 38.5 -253.5t113 -198.5t192.5 -130.5t269 -46.5zM885 1454q198 0 355.5 -61t261 -171.5
t158 -261.5t54.5 -333q0 -183 -54.5 -335.5t-158 -263.5t-261.5 -173t-355 -62t-355 62t-261 173t-157.5 263.5t-54.5 335.5q0 182 55 333.5t158 261.5t260.5 171t354.5 61zM1262 385h-115v-192h-225v192h-512v154l446 534h291v-514h115v-174zM920 559h2v344l-15 4
l-291 -354l9 -10q141 16 295 16z" />
    <glyph glyph-name="uni2784" unicode="&#x2784;" horiz-adv-x="1771" 
d="M885 -2q152 0 269.5 46.5t192 131t112.5 198.5t38 253q0 138 -38 251.5t-113 196.5t-192.5 128.5t-268.5 45.5t-268.5 -45.5t-192.5 -128.5t-113.5 -196.5t-38.5 -251.5q0 -139 38.5 -253.5t113 -198.5t192.5 -130.5t269 -46.5zM885 1454q198 0 355.5 -61t261 -171.5
t158 -261.5t54.5 -333q0 -183 -54.5 -335.5t-158 -263.5t-261.5 -173t-355 -62t-355 62t-261 173t-157.5 263.5t-54.5 335.5q0 182 55 333.5t158 261.5t260.5 171t354.5 61zM889 348q89 0 125.5 29.5t36.5 85.5q0 112 -160 112q-111 0 -186 -45l-181 64v475h705v-205
q-248 0 -502 21v-211q98 57 242 57q154 0 232.5 -73t78.5 -197q0 -148 -98 -217.5t-295 -69.5q-176 0 -276 56.5t-138 177.5l219 55q25 -53 70 -84t127 -31z" />
    <glyph glyph-name="uni2785" unicode="&#x2785;" horiz-adv-x="1771" 
d="M893 596q-94 0 -137 -32.5t-43 -84.5q0 -53 43.5 -86t132.5 -33q91 0 127.5 33t36.5 90q0 113 -160 113zM885 -2q152 0 269.5 46.5t192 131t112.5 198.5t38 253q0 138 -38 251.5t-113 196.5t-192.5 128.5t-268.5 45.5t-268.5 -45.5t-192.5 -128.5t-113.5 -196.5
t-38.5 -251.5q0 -139 38.5 -253.5t113 -198.5t192.5 -130.5t269 -46.5zM885 1454q198 0 355.5 -61t261 -171.5t158 -261.5t54.5 -333q0 -183 -54.5 -335.5t-158 -263.5t-261.5 -173t-355 -62t-355 62t-261 173t-157.5 263.5t-54.5 335.5q0 182 55 333.5t158 261.5t260.5 171
t354.5 61zM1282 479q0 -144 -100.5 -222.5t-296.5 -78.5q-97 0 -170.5 23t-130 74t-86 140.5t-29.5 215.5q0 98 24.5 180t74 146.5t132.5 100.5t193 36q187 0 268 -68.5t99 -214.5l-224 -25q-13 64 -44.5 94.5t-102.5 30.5q-109 0 -154 -78.5t-45 -259.5v-2l21 -2
q62 156 276 156q135 0 215 -59t80 -187z" />
    <glyph glyph-name="uni2786" unicode="&#x2786;" horiz-adv-x="1771" 
d="M885 -2q152 0 269.5 46.5t192 131t112.5 198.5t38 253q0 138 -38 251.5t-113 196.5t-192.5 128.5t-268.5 45.5t-268.5 -45.5t-192.5 -128.5t-113.5 -196.5t-38.5 -251.5q0 -139 38.5 -253.5t113 -198.5t192.5 -130.5t269 -46.5zM885 1454q198 0 355.5 -61t261 -171.5
t158 -261.5t54.5 -333q0 -183 -54.5 -335.5t-158 -263.5t-261.5 -173t-355 -62t-355 62t-261 173t-157.5 263.5t-54.5 335.5q0 182 55 333.5t158 261.5t260.5 171t354.5 61zM494 868v201h776v-201q-279 -271 -297 -680h-264q10 211 108 387t266 308q-169 -15 -299 -15h-290z
" />
    <glyph glyph-name="uni2787" unicode="&#x2787;" horiz-adv-x="1771" 
d="M883 559q-94 0 -132 -27t-38 -77q0 -103 170 -103q172 0 172 103q0 50 -38 77t-134 27zM883 909q-77 0 -111.5 -24t-34.5 -76q0 -55 36.5 -80t109.5 -27q74 2 110.5 27t36.5 80q0 52 -35 76t-112 24zM885 -2q152 0 269.5 46.5t192 131t112.5 198.5t38 253
q0 138 -38 251.5t-113 196.5t-192.5 128.5t-268.5 45.5t-268.5 -45.5t-192.5 -128.5t-113.5 -196.5t-38.5 -251.5q0 -139 38.5 -253.5t113 -198.5t192.5 -130.5t269 -46.5zM885 1454q198 0 355.5 -61t261 -171.5t158 -261.5t54.5 -333q0 -183 -54.5 -335.5t-158 -263.5
t-261.5 -173t-355 -62t-355 62t-261 173t-157.5 263.5t-54.5 335.5q0 182 55 333.5t158 261.5t260.5 171t354.5 61zM883 174q-208 0 -306 67t-98 185q0 84 59 133.5t187 69.5v16q-105 23 -157 71t-52 134q0 119 88.5 179.5t278.5 60.5q192 0 281 -60.5t89 -179.5
q0 -86 -52.5 -134t-156.5 -71v-16q127 -20 185.5 -69.5t58.5 -133.5q0 -252 -405 -252z" />
    <glyph glyph-name="uni2788" unicode="&#x2788;" horiz-adv-x="1771" 
d="M877 651q88 0 132 36t44 93q0 56 -43.5 90.5t-128.5 34.5q-86 0 -125 -36.5t-39 -94.5q0 -56 40.5 -89.5t119.5 -33.5zM885 -2q152 0 269.5 46.5t192 131t112.5 198.5t38 253q0 138 -38 251.5t-113 196.5t-192.5 128.5t-268.5 45.5t-268.5 -45.5t-192.5 -128.5
t-113.5 -196.5t-38.5 -251.5q0 -139 38.5 -253.5t113 -198.5t192.5 -130.5t269 -46.5zM885 1454q198 0 355.5 -61t261 -171.5t158 -261.5t54.5 -333q0 -183 -54.5 -335.5t-158 -263.5t-261.5 -173t-355 -62t-355 62t-261 173t-157.5 263.5t-54.5 335.5q0 182 55 333.5
t158 261.5t260.5 171t354.5 61zM877 172q-127 0 -211 32.5t-124.5 87.5t-54.5 138l224 37q25 -111 170 -111q108 0 151 75t43 249l-18 2q-66 -160 -269 -160q-138 0 -219.5 62t-81.5 196q0 146 100.5 226.5t291.5 80.5q99 0 172.5 -22.5t130.5 -73t86.5 -139.5t29.5 -215
q0 -99 -24.5 -181t-73.5 -147t-131.5 -101t-191.5 -36z" />
    <glyph glyph-name="uni2789" unicode="&#x2789;" horiz-adv-x="1763" 
d="M813 213h-367v160h119v499q-46 -27 -94 -47l-53 146l221 67h92v-665h82v-160zM1094 895q-101 0 -101 -268q0 -275 101 -275q102 0 102 275q0 133 -24 200.5t-78 67.5zM1094 1059q131 0 202.5 -110t71.5 -322t-71 -323t-203 -111q-131 0 -203 111.5t-72 322.5t73.5 321.5
t201.5 110.5zM885 -2q152 0 269.5 46.5t192 131t112.5 198.5t38 253q0 138 -38 251.5t-113 196.5t-192.5 128.5t-268.5 45.5t-268.5 -45.5t-192.5 -128.5t-113.5 -196.5t-38.5 -251.5q0 -139 38.5 -253.5t113 -198.5t192.5 -130.5t269 -46.5zM885 1454q198 0 355.5 -61
t261 -171.5t158 -261.5t54.5 -333q0 -183 -54.5 -335.5t-158 -263.5t-261.5 -173t-355 -62t-355 62t-261 173t-157.5 263.5t-54.5 335.5q0 182 55 333.5t158 261.5t260.5 171t354.5 61z" />
    <glyph glyph-name="uni278A" unicode="&#x278a;" horiz-adv-x="1771" 
d="M575 379v-191h631v191h-178v690h-131l-356 -106l71 -179q124 42 191 76v-481h-228zM885 1454q198 0 355.5 -61t261 -171.5t158 -261.5t54.5 -333q0 -183 -54.5 -335.5t-158 -263.5t-261.5 -173t-355 -62t-355 62t-261 173t-157.5 263.5t-54.5 335.5q0 182 55 333.5
t158 261.5t260.5 171t354.5 61z" />
    <glyph glyph-name="uni278B" unicode="&#x278b;" horiz-adv-x="1771" 
d="M895 911q143 0 143 -104q0 -38 -19 -62t-75.5 -47.5t-171.5 -52.5q-167 -39 -240 -113.5t-73 -220.5q0 -40 4 -114h807v192h-330q-141 0 -278 -20q9 54 55 79.5t170 51.5q182 35 282.5 106.5t100.5 194.5q0 295 -373 295q-194 0 -290.5 -88t-119.5 -250l224 -25
q22 178 184 178zM885 1454q198 0 355.5 -61t261 -171.5t158 -261.5t54.5 -333q0 -183 -54.5 -335.5t-158 -263.5t-261.5 -173t-355 -62t-355 62t-261 173t-157.5 263.5t-54.5 335.5q0 182 55 333.5t158 261.5t260.5 171t354.5 61z" />
    <glyph glyph-name="uni278C" unicode="&#x278c;" horiz-adv-x="1771" 
d="M885 174q202 0 297.5 67t95.5 183q0 94 -56.5 139.5t-199.5 57.5v20q110 19 165.5 68.5t55.5 136.5q0 119 -85.5 178t-272.5 59q-180 0 -271.5 -75t-111.5 -217l217 -19q13 69 47.5 101t118.5 32q73 0 106 -25t33 -79q0 -52 -30.5 -74t-94.5 -22h-158v-154h158
q83 0 115.5 -23t32.5 -75q0 -105 -160 -105q-93 0 -132.5 33t-54.5 100l-229 -24q21 -148 123.5 -215.5t290.5 -67.5zM885 1454q198 0 355.5 -61t261 -171.5t158 -261.5t54.5 -333q0 -183 -54.5 -335.5t-158 -263.5t-261.5 -173t-355 -62t-355 62t-261 173t-157.5 263.5
t-54.5 335.5q0 182 55 333.5t158 261.5t260.5 171t354.5 61z" />
    <glyph glyph-name="uni278D" unicode="&#x278d;" horiz-adv-x="1771" 
d="M1262 385v174h-115v514h-289l-448 -534v-154h512v-192h225v192h115zM864 559q-89 0 -237 -18l-11 16l291 350l15 -4v-344h-58zM885 1454q198 0 355.5 -61t261 -171.5t158 -261.5t54.5 -333q0 -183 -54.5 -335.5t-158 -263.5t-261.5 -173t-355 -62t-355 62t-261 173
t-157.5 263.5t-54.5 335.5q0 182 55 333.5t158 261.5t260.5 171t354.5 61z" />
    <glyph glyph-name="uni278E" unicode="&#x278e;" horiz-adv-x="1771" 
d="M889 348q-144 0 -195 115l-219 -55q37 -119 136.5 -176.5t275.5 -57.5q197 0 295 70.5t98 218.5q0 123 -78 195.5t-233 72.5q-145 0 -240 -57v211q271 -21 500 -21v205h-705v-473l181 -66q74 48 186 48q160 0 160 -115q0 -55 -36.5 -85t-125.5 -30zM885 1454
q198 0 355.5 -61t261 -171.5t158 -261.5t54.5 -333q0 -183 -54.5 -335.5t-158 -263.5t-261.5 -173t-355 -62t-355 62t-261 173t-157.5 263.5t-54.5 335.5q0 182 55 333.5t158 261.5t260.5 171t354.5 61z" />
    <glyph glyph-name="uni278F" unicode="&#x278f;" horiz-adv-x="1771" 
d="M1282 477q0 129 -79.5 188.5t-215.5 59.5q-213 0 -272 -160l-25 6q2 186 46 262t153 76q71 0 102.5 -30t44.5 -93l226 23q-13 97 -48.5 157t-114 94t-206.5 34q-110 0 -193 -36t-132.5 -100.5t-74 -146.5t-24.5 -180q0 -102 20 -180t55.5 -129t88 -84t114 -46.5
t138.5 -13.5q196 0 296.5 77.5t100.5 221.5zM895 596q86 0 122 -30t36 -85q0 -56 -35.5 -88.5t-126.5 -32.5q-90 0 -133 33t-43 86q0 52 43 84.5t137 32.5zM885 1454q198 0 355.5 -61t261 -171.5t158 -261.5t54.5 -333q0 -183 -54.5 -335.5t-158 -263.5t-261.5 -173
t-355 -62t-355 62t-261 173t-157.5 263.5t-54.5 335.5q0 182 55 333.5t158 261.5t260.5 171t354.5 61z" />
    <glyph glyph-name="uni2790" unicode="&#x2790;" horiz-adv-x="1771" 
d="M494 866h292q143 0 299 19q-169 -134 -266.5 -311t-107.5 -388h262q22 413 299 680v201h-778v-201zM885 1454q198 0 355.5 -61t261 -171.5t158 -261.5t54.5 -333q0 -183 -54.5 -335.5t-158 -263.5t-261.5 -173t-355 -62t-355 62t-261 173t-157.5 263.5t-54.5 335.5
q0 182 55 333.5t158 261.5t260.5 171t354.5 61z" />
    <glyph glyph-name="uni2791" unicode="&#x2791;" horiz-adv-x="1771" 
d="M885 174q209 0 306 66.5t97 185.5q0 84 -58 133.5t-186 67.5v20q105 21 157 69.5t52 133.5q0 119 -88 179.5t-280 60.5t-280.5 -60.5t-88.5 -179.5q0 -86 52.5 -134t156.5 -69v-20q-128 -18 -186 -67t-58 -134q0 -119 97.5 -185.5t306.5 -66.5zM885 909q76 0 110.5 -24.5
t34.5 -75.5q0 -55 -36 -80t-109 -27q-74 2 -111 27t-37 80q0 53 35 76.5t113 23.5zM885 559q95 0 132.5 -27t37.5 -77q0 -103 -170 -103q-172 0 -172 103q0 50 38.5 77t133.5 27zM885 1454q198 0 355.5 -61t261 -171.5t158 -261.5t54.5 -333q0 -183 -54.5 -335.5
t-158 -263.5t-261.5 -173t-355 -62t-355 62t-261 173t-157.5 263.5t-54.5 335.5q0 182 55 333.5t158 261.5t260.5 171t354.5 61z" />
    <glyph glyph-name="uni2792" unicode="&#x2792;" horiz-adv-x="1771" 
d="M1298 637q0 126 -29.5 215t-86.5 139.5t-130.5 73t-172.5 22.5q-191 0 -291.5 -80.5t-100.5 -226.5q0 -133 83 -195.5t221 -62.5q198 0 262 162l24 -4q-2 -176 -45.5 -250t-150.5 -74q-145 0 -170 111l-224 -37q23 -125 113.5 -190.5t276.5 -65.5q109 0 191.5 36
t131.5 100t73.5 146t24.5 181zM879 651q-80 0 -121 34t-41 91t39.5 93t126.5 36q84 0 127 -34t43 -89q0 -59 -43.5 -95t-130.5 -36zM885 1454q198 0 355.5 -61t261 -171.5t158 -261.5t54.5 -333q0 -183 -54.5 -335.5t-158 -263.5t-261.5 -173t-355 -62t-355 62t-261 173
t-157.5 263.5t-54.5 335.5q0 182 55 333.5t158 261.5t260.5 171t354.5 61z" />
    <glyph glyph-name="uni2793" unicode="&#x2793;" horiz-adv-x="1763" 
d="M1096 1059q-129 0 -202 -110.5t-73 -321.5t72 -322.5t203 -111.5q130 0 202 111.5t72 322.5q0 212 -72 322t-202 110zM432 373v-160h367v160h-80v665h-94l-222 -67l54 -146q66 26 94 43v-495h-119zM1096 895q54 0 78 -67.5t24 -200.5q0 -275 -104 -275q-51 0 -76 73.5
t-25 201.5q0 268 103 268zM885 1454q198 0 355.5 -61t261 -171.5t158 -261.5t54.5 -333q0 -183 -54.5 -335.5t-158 -263.5t-261.5 -173t-355 -62t-355 62t-261 173t-157.5 263.5t-54.5 335.5q0 182 55 333.5t158 261.5t260.5 171t354.5 61z" />
    <glyph glyph-name="uni279A" unicode="&#x279a;" 
d="M1292 745v-745h-1077v1077h770v-4l-188 -199q-100 0 -377 9q8 -208 8 -312q0 -161 -10 -366q313 10 368 10q141 0 314 -10q-10 182 -10 321l196 219h6zM1583 1386l45 -45v-768h-219q10 225 51 510l-12 7q-282 -317 -498 -533l-225 -223l-154 151l226 226q231 231 536 495
l-6 13q-267 -40 -496 -50v217h752z" />
    <glyph glyph-name="uni2B1B" unicode="&#x2b1b;" 
d="M1489 0h-1133v1133h1133v-1133z" />
    <glyph glyph-name="uni2B1C" unicode="&#x2b1c;" 
d="M1489 0h-1133v1133h1133v-1133zM924 205q160 0 372 -10q-10 208 -10 372q0 166 10 371q-254 -8 -372 -8q-123 0 -373 8q8 -250 8 -371q0 -122 -8 -372q208 10 373 10z" />
    <glyph glyph-name="commaaccent" unicode="&#xf6c3;" horiz-adv-x="370" 
d="M111 -104h213l-121 -316h-172v19z" />
    <glyph glyph-name="uniF8FF" unicode="&#xf8ff;" horiz-adv-x="2635" 
d="M1942 16q-13 -30 -123 -30l-50 2q9 212 13 508.5t8 406.5q-52 -160 -110.5 -387t-93.5 -364.5t-48 -147.5q-14 -12 -43 -12q-13 0 -50.5 5t-64.5 7q4 127 4 420q-63 2 -190 2q2 -51 2 -164q0 -244 -20 -256q-12 -10 -54 -10q-22 0 -59 3t-45 3h-6q14 232 14 422
q-30 0 -84 -1t-78 -1v-92q0 -57 1 -146.5t1 -111.5q0 -37 -2 -41q-10 -26 -39 -33.5t-123 -9.5q-2 59 -2 162q0 71 5 266q-114 -4 -132 -4q-54 -92 -120 -214.5t-95 -193.5q-14 4 -45 4q-20 0 -41.5 -2.5t-33.5 -5.5l-11 -2q-5 51 -32 102q-8 16 -98 156t-95 160
q-4 16 -4 24q0 34 27 90q-11 22 -11 50q0 35 17 98q12 38 47.5 121.5t93 213t92.5 212.5q68 0 144 20q90 -231 180 -667q10 -1 121 -5v25q0 41 -1 160t-1 182q0 239 16 262q16 29 147 31q-6 -123 -6 -236q0 -70 2 -191t2 -171v-64q25 0 78 -1t80 -1q0 183 -3 357.5t-3 185.5
q0 52 4 69.5t16 26.5q16 13 78 13h64q0 -27 -1 -78.5t-1 -75.5q0 -168 10 -496q114 3 194 9q0 53 -1 149.5t-1 138.5q0 321 17 344q20 29 86 29q14 0 40.5 -2t35.5 -2q-17 -121 -17 -541v-164q203 673 250 697q16 8 61 8l95 -6q-6 -147 -6 -350q0 -132 3 -370.5t3 -315.5
q0 -166 -8 -179zM2359 948q-24 -71 -68.5 -181t-71 -181.5t-26.5 -96.5v-4q2 -29 70 -141.5t80 -140.5q29 68 59 143t45 116l15 40q-23 127 -60.5 273.5t-42.5 172.5zM143 520q0 -16 24.5 -60.5t64.5 -116t65 -128.5q24 63 58 136.5t52.5 115.5t18.5 61v4q-1 23 -36 178.5
t-60 252.5q-187 -404 -187 -443zM2292 1245q24 -12 57 -12q40 0 61 24q149 -474 226 -763q-187 -488 -246 -500q-6 -2 -18 -2q-46 0 -136 37q-1 35 -23 87.5t-45 91t-58.5 94.5t-43.5 69q-22 40 -22 61q0 12 4.5 21.5t12.5 18.5t10 13q6 9 6 21q0 28 -35 37q187 458 250 702
z" />
    <glyph glyph-name="fi" unicode="&#xfb01;" horiz-adv-x="1187" 
d="M451 1008v-37h229v-221h-229v-750h-279v750h-141v221h141v45q0 153 87.5 243.5t260.5 90.5q90 0 168 -19l-10 -192q-58 10 -103 10q-124 0 -124 -141zM1081 0h-278v971h278v-971zM1087 1108h-290v201h290v-201z" />
    <glyph glyph-name="fl" unicode="&#xfb02;" horiz-adv-x="1181" 
d="M451 1008v-37h229v-221h-229v-750h-279v750h-141v221h141v45q0 153 87.5 243.5t260.5 90.5q90 0 168 -19l-10 -192q-58 10 -103 10q-124 0 -124 -141zM1079 1315v-1315h-278v1315h278z" />
    <glyph glyph-name="exclamdown.case" horiz-adv-x="509" 
d="M115 774h280v-774h-280v774zM406 936h-302v293h302v-293z" />
    <glyph glyph-name="questiondown.case" horiz-adv-x="1011" 
d="M293 666q90 36 90 118v23h266q2 -14 2 -41q0 -93 -39.5 -146.5t-140.5 -101.5q-83 -40 -116 -76.5t-33 -95.5q0 -133 163 -133q108 0 160 63t68 185l272 -39q-26 -216 -146.5 -331.5t-357.5 -115.5q-220 0 -336 88t-116 261q0 75 19 132t57.5 96t82 64.5t105.5 49.5z
M670 936h-303v293h303v-293z" />
    <glyph glyph-name="periodcentered.case" horiz-adv-x="444" 
d="M70 772h303v-293h-303v293z" />
    <glyph glyph-name="bullet.case" horiz-adv-x="593" 
d="M76 840h444v-426h-444v426z" />
    <glyph glyph-name="guillemotleft.case" horiz-adv-x="1312" 
d="M739 168h-270l-438 448v29l438 449h270v-27l-417 -436l417 -436v-27zM1284 168h-270l-439 448v29l439 449h270v-27l-418 -436l418 -436v-27z" />
    <glyph glyph-name="guillemotright.case" horiz-adv-x="1312" 
d="M844 166h-269v27l416 432v6l-416 434v27h269l438 -451v-27zM299 166h-270v27l417 434v2l-417 436v27h270l438 -451v-27z" />
    <glyph glyph-name="guilsinglleft.case" horiz-adv-x="770" 
d="M739 170h-270l-438 448v29l438 449h270v-27l-417 -436l417 -436v-27z" />
    <glyph glyph-name="guilsinglright.case" horiz-adv-x="768" 
d="M299 164h-270v26l417 437l-417 436v27h270l438 -449v-29z" />
    <glyph glyph-name="hyphen.case" horiz-adv-x="716" 
d="M37 754h643v-256h-643v256z" />
    <glyph glyph-name="endash.case" horiz-adv-x="974" 
d="M37 754h901v-254h-901v254z" />
    <glyph glyph-name="emdash.case" horiz-adv-x="1761" 
d="M37 754h1687v-254h-1687v254z" />
    <glyph glyph-name="parenleft.case" horiz-adv-x="708" 
d="M88 618q0 519 379 875l184 -127q-152 -178 -214 -357t-62 -391t62 -391t214 -356l-184 -127q-379 361 -379 874z" />
    <glyph glyph-name="parenright.case" horiz-adv-x="704" 
d="M627 618q0 -515 -379 -874l-185 127q152 178 214.5 356.5t62.5 390.5q0 211 -62.5 390.5t-214.5 357.5l185 127q379 -361 379 -875z" />
    <glyph glyph-name="bracketleft.case" horiz-adv-x="647" 
d="M102 -188v1607h508v-229h-227v-1135h227v-243h-508z" />
    <glyph glyph-name="bracketright.case" horiz-adv-x="647" 
d="M35 -180v231h229v1133h-229v243h510v-1607h-510z" />
    <glyph glyph-name="braceleft.case" horiz-adv-x="765" 
d="M719 -223q-71 -6 -184 -6q-357 0 -357 229q0 56 26.5 111t58.5 92t58.5 85t26.5 93q0 57 -37.5 84t-126.5 27h-145v237h143q174 0 174 131q0 36 -18 72.5t-44 68.5t-52 65t-44 75.5t-18 87.5q0 229 357 229q113 0 186 -6l-2 -231q-39 2 -105 2q-135 0 -135 -84
q0 -28 19 -63.5t41.5 -66t41.5 -75t19 -88.5q0 -93 -70 -146.5t-213 -72.5v-29q154 -12 218.5 -60.5t64.5 -144.5q0 -45 -19 -91.5t-42.5 -77.5t-42.5 -68.5t-19 -67.5q0 -82 135 -82q27 0 105 4v-233z" />
    <glyph glyph-name="braceright.case" horiz-adv-x="765" 
d="M47 1466q82 7 184 7q181 0 269 -60t88 -170q0 -46 -17.5 -90t-42.5 -78t-50 -67t-42.5 -70.5t-17.5 -75.5q0 -57 37.5 -82.5t126.5 -25.5h145v-238h-143q-174 0 -174 -131q0 -36 18 -73t44 -69t52 -65.5t44 -76t18 -87.5q0 -229 -357 -229q-113 0 -186 6l2 232
q59 -3 102 -3q136 0 136 84q0 28 -18.5 63.5t-41 66t-41 75t-18.5 88.5q0 95 69.5 148.5t212.5 70.5v31q-154 12 -218 60t-64 143q0 46 19 92.5t42.5 77t42.5 68t19 67.5q0 82 -135 82q-27 0 -105 -4v233z" />
    <glyph glyph-name="zero.osf" horiz-adv-x="1177" 
d="M590 866q-126 0 -185 -88t-59 -235q0 -330 242 -330q246 0 246 330q0 146 -59.5 234.5t-184.5 88.5zM590 1116q255 0 395.5 -146t140.5 -427q0 -279 -138.5 -425.5t-397.5 -146.5t-398 146.5t-139 425.5q0 280 142 426.5t395 146.5z" />
    <glyph glyph-name="one.osf" horiz-adv-x="925" 
d="M879 0h-805v231h295v635q-121 -77 -252 -127l-82 213l422 138h192v-859h230v-231z" />
    <glyph glyph-name="two.osf" horiz-adv-x="1163" 
d="M608 881q-107 0 -165.5 -63.5t-69.5 -182.5l-269 33q18 209 141.5 325.5t364.5 116.5q467 0 467 -348q0 -78 -27 -134t-88.5 -97.5t-139 -69.5t-199.5 -58q-196 -46 -258 -79.5t-68 -104.5q227 29 471 29h307v-248h-1003q-4 98 -4 150q0 58 10 104t33.5 83t54 65t78 52.5
t99 44t124.5 40.5q138 40 205.5 71t90.5 60.5t23 77.5q0 133 -178 133z" />
    <glyph glyph-name="three.osf" horiz-adv-x="1165" 
d="M598 -152q-251 0 -385.5 96t-157.5 302l285 33q16 -102 73 -151.5t187 -49.5q108 0 161.5 40.5t53.5 114.5q0 79 -44 114.5t-159 35.5h-206v201h206q86 0 129 34t43 111q0 83 -45.5 120.5t-144.5 37.5q-113 0 -161.5 -47.5t-63.5 -147.5l-273 25q53 401 496 401
q241 0 353 -81.5t112 -248.5q0 -121 -71 -190t-212 -98v-25q186 -18 259 -81t73 -195q0 -165 -123.5 -258t-384.5 -93z" />
    <glyph glyph-name="four.osf" horiz-adv-x="1191" 
d="M1174 135h-154v-274h-281v274h-680v201l600 754h361v-728h154v-227zM694 362h45v502l-18 6l-402 -516l11 -14q180 22 364 22z" />
    <glyph glyph-name="five.osf" horiz-adv-x="1173" 
d="M596 68q120 0 171.5 44t51.5 132q0 172 -221 172q-141 0 -248 -72l-227 88v658h915v-267q-350 0 -659 27v-309q126 73 313 73q206 0 310 -100t104 -272q0 -402 -512 -402q-229 0 -361 81t-178 251l275 72q66 -176 266 -176z" />
    <glyph glyph-name="six.osf" horiz-adv-x="1187" 
d="M618 569q-129 0 -189 -49t-60 -127q0 -80 60 -130t181 -50q126 0 177 50.5t51 137.5q0 168 -220 168zM1122 395q0 -201 -131 -310.5t-387 -109.5q-100 0 -180.5 19.5t-149.5 65.5t-115 118t-72 180.5t-26 249.5q0 137 32 251.5t96.5 204t172.5 139.5t250 50
q126 0 214 -24.5t143.5 -76.5t84.5 -122t42 -172l-281 -31q-19 97 -63 142t-142 45q-148 0 -209 -111t-61 -366v-27l25 -4q40 125 132 180t236 55q85 0 153.5 -19t122.5 -59t83.5 -108t29.5 -160z" />
    <glyph glyph-name="seven.osf" horiz-adv-x="1089" 
d="M35 827v263h1018v-263q-374 -389 -402 -966h-327q15 295 144 546.5t351 442.5q-217 -23 -373 -23h-411z" />
    <glyph glyph-name="eight.osf" horiz-adv-x="1179" 
d="M590 -25q-273 0 -401 93t-128 258q0 117 77.5 186.5t244.5 95.5v25q-136 30 -204 98.5t-68 188.5q2 163 116.5 248t362.5 85t363.5 -85t115.5 -248q0 -119 -67.5 -187t-202.5 -100v-25q165 -26 242 -95.5t77 -186.5q0 -165 -127 -258t-401 -93zM590 518
q-131 0 -184.5 -41t-53.5 -115t59.5 -113.5t178.5 -39.5q237 0 237 153q0 74 -52.5 115t-184.5 41zM590 1016q-105 0 -154 -38t-49 -114q0 -155 203 -155t203 155q0 76 -49 114t-154 38z" />
    <glyph glyph-name="nine.osf" horiz-adv-x="1175" 
d="M569 508q121 0 182.5 53t61.5 135q0 83 -60.5 136t-177.5 53q-120 0 -173.5 -54.5t-53.5 -142.5q0 -84 55.5 -132t165.5 -48zM569 -156q-164 0 -272.5 44.5t-163 121t-74.5 191.5l277 51q21 -86 78 -127t161 -41q147 0 208 109.5t61 359.5v16l-25 4q-82 -237 -358 -237
q-88 0 -159 20t-126 61t-85 111.5t-30 165.5q0 204 130.5 316t379.5 112q129 0 226 -32t171.5 -104t113 -196.5t38.5 -300.5q0 -137 -32 -251.5t-96.5 -204t-172.5 -139.5t-250 -50z" />
    <glyph glyph-name="zero.tf" horiz-adv-x="1226" 
d="M612 1001q-258 0 -258 -383q0 -189 64 -292t192 -103q132 0 196 102.5t64 292.5q0 383 -258 383zM612 1257q258 0 405.5 -165t147.5 -474q0 -312 -145.5 -479.5t-407.5 -167.5t-406.5 167t-144.5 480q0 308 148.5 473.5t402.5 165.5z" />
    <glyph glyph-name="one.tf" horiz-adv-x="1249" 
d="M1141 0h-1012v248h420v713q-142 -82 -344 -156l-94 244l555 180h161v-981h314v-248z" />
    <glyph glyph-name="two.tf" horiz-adv-x="1249" 
d="M651 1014q-115 0 -175.5 -67.5t-74.5 -201.5l-276 33q24 229 150.5 353t377.5 124q486 0 486 -407q0 -171 -129.5 -271t-368.5 -147q-168 -39 -231 -80t-72 -123q217 23 354 23h451v-250h-1053q-4 49 -4 150q0 205 95 308t317 160q149 39 225 74t101.5 71.5t25.5 94.5
q0 72 -49.5 114t-149.5 42z" />
    <glyph glyph-name="three.tf" horiz-adv-x="1249" 
d="M641 -20q-251 0 -385.5 95.5t-157.5 301.5l285 33q16 -102 73 -151.5t187 -49.5q108 0 161.5 41t53.5 115q0 79 -43.5 114t-159.5 35h-206v201h206q86 0 129 34t43 111q0 83 -45.5 120.5t-144.5 37.5q-113 0 -161.5 -47.5t-63.5 -147.5l-273 25q53 401 496 401
q241 0 353 -81.5t112 -247.5q0 -121 -71 -190.5t-212 -98.5v-25q186 -18 259 -81t73 -195q0 -165 -123.5 -257.5t-384.5 -92.5z" />
    <glyph glyph-name="four.tf" horiz-adv-x="1228" 
d="M1174 274h-154v-274h-281v274h-680v201l600 754h361v-727h154v-228zM694 502h45v502l-18 6l-402 -516l11 -15q188 23 364 23z" />
    <glyph glyph-name="five.tf" horiz-adv-x="1249" 
d="M631 207q120 0 171.5 44t51.5 132q0 172 -221 172q-141 0 -248 -72l-227 88v658h915v-266q-362 0 -659 26v-309q127 74 313 74q206 0 310 -100.5t104 -272.5q0 -401 -512 -401q-229 0 -361 80.5t-178 250.5l275 72q66 -176 266 -176z" />
    <glyph glyph-name="six.tf" horiz-adv-x="1249" 
d="M653 569q-129 0 -189.5 -49t-60.5 -127q0 -80 60.5 -130t181.5 -50q126 0 176.5 50.5t50.5 137.5q0 168 -219 168zM1157 395q0 -201 -131 -310.5t-387 -109.5q-100 0 -180.5 19.5t-149.5 65.5t-115 118t-72 180.5t-26 249.5q0 137 32 251.5t96.5 204t172.5 139.5t250 50
q126 0 214 -24.5t143 -76.5t84 -122t42 -172l-280 -31q-19 97 -63 142t-142 45q-148 0 -209 -111t-61 -366v-27l24 -4q40 124 132.5 179.5t236.5 55.5q85 0 153.5 -19t122.5 -59t83.5 -108t29.5 -160z" />
    <glyph glyph-name="seven.tf" horiz-adv-x="1249" 
d="M127 967v262h1018v-262q-374 -389 -402 -967h-327q15 295 144 546.5t351 442.5q-207 -22 -372 -22h-412z" />
    <glyph glyph-name="eight.tf" horiz-adv-x="1249" 
d="M625 -25q-273 0 -401 93t-128 258q0 117 77.5 186.5t244.5 95.5v25q-136 30 -204.5 98.5t-68.5 188.5q2 163 117 248t363 85t363.5 -85t115.5 -248q0 -119 -67.5 -187t-202.5 -100v-25q165 -26 242 -95.5t77 -186.5q0 -165 -127 -258t-401 -93zM625 518
q-131 0 -184.5 -41t-53.5 -115t59.5 -113.5t178.5 -39.5q237 0 237 153q0 74 -52.5 115t-184.5 41zM625 1016q-105 0 -154 -38t-49 -114q0 -155 203 -155q100 0 151 37t51 118q0 76 -48.5 114t-153.5 38z" />
    <glyph glyph-name="nine.tf" horiz-adv-x="1249" 
d="M602 639q121 0 182.5 53t61.5 135q0 83 -60.5 136t-177.5 53q-120 0 -173.5 -54.5t-53.5 -142.5q0 -84 55.5 -132t165.5 -48zM602 -25q-164 0 -272.5 44.5t-163 121t-74.5 191.5l277 51q21 -86 78 -127t161 -41q147 0 208 109.5t61 359.5v16l-25 5q-83 -238 -358 -238
q-88 0 -159 20t-126 61t-85 111.5t-30 165.5q0 204 130.5 316t379.5 112q129 0 226 -32t171.5 -103.5t113 -196t38.5 -300.5q0 -137 -32 -251.5t-96.5 -204.5t-172.5 -140t-250 -50z" />
    <glyph glyph-name="zero.tosf" horiz-adv-x="1245" 
d="M623 866q-126 0 -185 -88t-59 -235q0 -330 242 -330q245 0 245 330q0 147 -59 235t-184 88zM623 1116q255 0 395.5 -146t140.5 -427q0 -279 -138.5 -425.5t-397.5 -146.5t-398 146.5t-139 425.5q0 280 142 426.5t395 146.5z" />
    <glyph glyph-name="one.tosf" horiz-adv-x="1249" 
d="M1143 0h-1012v231h430v646q-166 -98 -379 -154l-61 221l526 146h195v-859h301v-231z" />
    <glyph glyph-name="two.tosf" horiz-adv-x="1249" 
d="M651 881q-107 0 -165.5 -63.5t-69.5 -182.5l-269 33q18 209 141.5 325.5t364.5 116.5q467 0 467 -348q0 -78 -27 -134t-88.5 -97.5t-139 -69.5t-199.5 -58q-196 -46 -258 -79.5t-68 -104.5q227 29 471 29h307v-248h-1003q-4 98 -4 150q0 58 10 104t33.5 83t54 65t78 52.5
t99 44t124.5 40.5q138 40 205.5 71t90.5 60.5t23 77.5q0 133 -178 133z" />
    <glyph glyph-name="three.tosf" horiz-adv-x="1249" 
d="M641 -152q-251 0 -385.5 96t-157.5 302l285 33q16 -102 73 -151.5t187 -49.5q108 0 161.5 40.5t53.5 114.5q0 79 -44 114.5t-159 35.5h-206v201h206q86 0 129 34t43 111q0 83 -45.5 120.5t-144.5 37.5q-113 0 -161.5 -47.5t-63.5 -147.5l-273 25q53 401 496 401
q241 0 353 -81.5t112 -248.5q0 -121 -71 -190t-212 -98v-25q186 -18 259 -81t73 -195q0 -165 -123.5 -258t-384.5 -93z" />
    <glyph glyph-name="four.tosf" horiz-adv-x="1249" 
d="M1174 135h-154v-274h-281v274h-680v201l600 754h361v-728h154v-227zM694 362h45v502l-18 6l-402 -516l11 -14q180 22 364 22z" />
    <glyph glyph-name="five.tosf" horiz-adv-x="1249" 
d="M631 68q120 0 171.5 44t51.5 132q0 172 -221 172q-141 0 -248 -72l-227 88v658h915v-267q-350 0 -659 27v-309q126 73 313 73q206 0 310 -100t104 -272q0 -402 -512 -402q-229 0 -361 81t-178 251l275 72q66 -176 266 -176z" />
    <glyph glyph-name="six.tosf" horiz-adv-x="1249" 
d="M653 569q-129 0 -189.5 -49t-60.5 -127q0 -80 60.5 -130t181.5 -50q126 0 176.5 50.5t50.5 137.5q0 168 -219 168zM1157 395q0 -201 -131 -310.5t-387 -109.5q-100 0 -180.5 19.5t-149.5 65.5t-115 118t-72 180.5t-26 249.5q0 137 32 251.5t96.5 204t172.5 139.5t250 50
q126 0 214 -24.5t143 -76.5t84 -122t42 -172l-280 -31q-19 97 -63 142t-142 45q-148 0 -209 -111t-61 -366v-27l24 -4q40 124 132.5 179.5t236.5 55.5q85 0 153.5 -19t122.5 -59t83.5 -108t29.5 -160z" />
    <glyph glyph-name="seven.tosf" horiz-adv-x="1249" 
d="M127 827v263h1018v-263q-374 -389 -402 -966h-327q15 295 144 546.5t351 442.5q-217 -23 -372 -23h-412z" />
    <glyph glyph-name="eight.tosf" horiz-adv-x="1249" 
d="M625 -25q-273 0 -401 93t-128 258q0 117 77.5 186.5t244.5 95.5v25q-136 30 -204.5 98.5t-68.5 188.5q2 163 117 248t363 85t363.5 -85t115.5 -248q0 -119 -67.5 -187t-202.5 -100v-25q165 -26 242 -95.5t77 -186.5q0 -165 -127 -258t-401 -93zM625 518
q-131 0 -184.5 -41t-53.5 -115t59.5 -113.5t178.5 -39.5q237 0 237 153q0 74 -52.5 115t-184.5 41zM625 1016q-105 0 -154 -38t-49 -114q0 -155 203 -155q100 0 151 37t51 118q0 76 -48.5 114t-153.5 38z" />
    <glyph glyph-name="nine.tosf" horiz-adv-x="1249" 
d="M602 508q121 0 182.5 53t61.5 135q0 83 -60.5 136t-177.5 53q-120 0 -173.5 -54.5t-53.5 -142.5q0 -84 55.5 -132t165.5 -48zM602 -156q-164 0 -272.5 44.5t-163 121t-74.5 191.5l277 51q21 -86 78 -127t161 -41q147 0 208 109.5t61 359.5v16l-25 4q-82 -237 -358 -237
q-88 0 -159 20t-126 61t-85 111.5t-30 165.5q0 204 130.5 316t379.5 112q129 0 226 -32t171.5 -104t113 -196.5t38.5 -300.5q0 -137 -32 -251.5t-96.5 -204t-172.5 -139.5t-250 -50z" />
    <glyph glyph-name="dollar.osf" horiz-adv-x="1062" 
d="M451 1319h188l-12 -229q89 -9 154 -34t105.5 -65.5t64 -88t36.5 -111.5l-276 -56q-18 84 -59.5 120t-127.5 36q-75 0 -114 -25.5t-39 -72.5q0 -32 14 -53.5t66 -45t147 -43.5q125 -26 208 -59.5t128 -78t62.5 -93t17.5 -113.5q0 -295 -389 -321l14 -240h-188l12 240
q-108 8 -187 36t-126.5 72.5t-73 97.5t-35.5 121l278 58q40 -181 236 -181q162 0 162 103q0 53 -48.5 82.5t-189.5 58.5q-224 49 -312.5 126t-88.5 216q0 140 97 222t288 94z" />
    <glyph glyph-name="sterling.osf" horiz-adv-x="1136" 
d="M1075 0h-1028v242h189q16 68 16 135q0 26 -6 53h-199v139h154q-43 110 -43 203q0 154 113 247t327 93q407 0 453 -344l-258 -53q-18 83 -61 123t-130 41q-86 0 -128 -40t-42 -106q0 -51 31 -164h461v-139h-432q-1 -56 -16 -97.5t-48 -90.5h647v-242z" />
    <glyph glyph-name="Euro.osf" horiz-adv-x="1232" 
d="M668 -29q-208 0 -339.5 108.5t-168.5 307.5h-127v107h114q-2 16 -2 53t2 55h-114v107h129q40 194 174.5 300.5t339.5 106.5q215 0 342 -110t153 -316l-256 -49q-24 128 -81.5 189t-167.5 61q-191 0 -242 -182h270v-107h-286q-2 -18 -2 -55t2 -53h286v-107h-272
q47 -194 244 -194q114 0 171 60.5t83 192.5l256 -43q-26 -208 -157.5 -320t-350.5 -112z" />
    <glyph glyph-name="yen.osf" horiz-adv-x="1220" 
d="M1145 252h-387v-252h-295v252h-387v141h360l-84 135h-276v148h184l-233 379v22h331l234 -510h39l239 510h326v-22l-233 -379h182v-148h-275l-84 -135h359v-141z" />
    <glyph glyph-name="a.sc" horiz-adv-x="1146" 
d="M856 0l-72 229h-432l-73 -229h-295l393 1090h395l391 -1090h-307zM461 567l-43 -135h303l-43 135q-40 122 -84 283h-47q-59 -202 -86 -283z" />
    <glyph glyph-name="b.sc" horiz-adv-x="1110" 
d="M631 442h-248v-237h256q73 0 110 31t37 88q0 61 -34 89.5t-121 28.5zM602 879h-219v-248h211q80 0 119 30t39 99q0 62 -34.5 90.5t-115.5 28.5zM96 0v1090h504q221 0 323.5 -68t102.5 -211q0 -204 -242 -256v-16q158 -13 222.5 -68t64.5 -172q0 -299 -422 -299h-553z" />
    <glyph glyph-name="c.sc" horiz-adv-x="1185" 
d="M608 -27q-265 0 -412 152.5t-147 423.5q0 268 152 417.5t415 149.5q224 0 356 -110t158 -316l-272 -51q-24 120 -82 177.5t-170 57.5q-138 0 -205 -89.5t-67 -235.5q0 -336 272 -336q116 0 173 57t83 181l273 -45q-26 -207 -162.5 -320t-364.5 -113z" />
    <glyph glyph-name="d.sc" horiz-adv-x="1214" 
d="M555 860h-172v-633h180q169 0 243.5 81t74.5 251q0 166 -75 233.5t-251 67.5zM96 0v1090h494q577 0 577 -531q0 -260 -154 -409.5t-427 -149.5h-490z" />
    <glyph glyph-name="e.sc" horiz-adv-x="1046" 
d="M96 0v1090h871v-240h-584v-201h539v-198h-539v-211h584v-240h-871z" />
    <glyph glyph-name="f.sc" horiz-adv-x="985" 
d="M889 344h-500v-344h-289v1090h834v-254h-545v-261h500v-231z" />
    <glyph glyph-name="g.sc" horiz-adv-x="1220" 
d="M494 -20q-96 0 -177 35t-141.5 102t-94.5 173t-34 240q0 279 142.5 432.5t418.5 153.5q229 0 351.5 -95.5t156.5 -287.5l-268 -53q-28 100 -82 147t-164 47q-142 0 -204 -86.5t-62 -257.5q0 -160 65 -241.5t211 -81.5q246 0 254 182h-262v195h531v-584h-263v238h-22
q-86 -258 -356 -258z" />
    <glyph glyph-name="h.sc" horiz-adv-x="1222" 
d="M1124 0h-286v418h-455v-418h-287v1090h287v-424h455v424h286v-1090z" />
    <glyph glyph-name="i.sc" horiz-adv-x="481" 
d="M383 0h-287v1090h287v-1090z" />
    <glyph glyph-name="j.sc" horiz-adv-x="608" 
d="M223 336v754h287v-752q0 -352 -336 -352q-66 0 -156 12l13 238q64 -11 92 -11q100 0 100 111z" />
    <glyph glyph-name="k.sc" horiz-adv-x="1112" 
d="M784 0l-317 401h-84v-401h-287v1090h287v-465h78l323 465h324v-21l-436 -534l446 -515v-20h-334z" />
    <glyph glyph-name="l.sc" horiz-adv-x="907" 
d="M96 1090h287v-857h483v-233h-770v1090z" />
    <glyph glyph-name="m.sc" horiz-adv-x="1568" 
d="M362 442v-442h-266v1090h465l133 -408q35 -104 90 -332h37q52 234 88 344l131 396h433v-1090h-287v442q0 94 10 422h-33q-75 -287 -137 -471l-121 -336h-266l-119 342q-68 216 -131 465h-29q2 -133 2 -422z" />
    <glyph glyph-name="n.sc" horiz-adv-x="1245" 
d="M766 0l-217 412q-87 170 -178 426l-31 -4q22 -301 22 -519v-315h-266v1090h408l188 -349q94 -179 180 -444l33 4q-22 290 -22 465v324h264v-1090h-381z" />
    <glyph glyph-name="o.sc" horiz-adv-x="1251" 
d="M627 -27q-275 0 -426.5 154t-151.5 422q0 263 155 415t423 152t421.5 -151.5t153.5 -415.5q0 -268 -150.5 -422t-424.5 -154zM625 213q293 0 293 336q0 154 -71 239.5t-220 85.5q-150 0 -221.5 -86t-71.5 -239q0 -336 291 -336z" />
    <glyph glyph-name="p.sc" horiz-adv-x="1056" 
d="M551 856h-168v-324h172q101 0 145.5 39.5t44.5 122.5q0 84 -44 123t-150 39zM586 305h-203v-305h-287v1090h479q455 0 455 -396q0 -167 -118 -278t-326 -111z" />
    <glyph glyph-name="q.sc" horiz-adv-x="1253" 
d="M625 213q293 0 293 336q0 154 -71 239.5t-220 85.5q-150 0 -221.5 -86t-71.5 -239q0 -336 291 -336zM627 -27q-275 0 -426.5 154t-151.5 422q0 263 155 415t423 152t421.5 -151.5t153.5 -415.5q0 -313 -198 -463l165 -231v-21h-305l-94 152q-73 -13 -143 -13z" />
    <glyph glyph-name="r.sc" horiz-adv-x="1136" 
d="M580 858h-197v-287h203q96 0 136 34t40 108q0 76 -42.5 110.5t-139.5 34.5zM782 0l-233 367h-166v-367h-287v1090h506q219 0 332 -92.5t113 -274.5q0 -122 -56.5 -203t-161.5 -119l283 -381v-20h-330z" />
    <glyph glyph-name="s.sc" horiz-adv-x="1095" 
d="M559 -27q-472 3 -514 346l272 56q39 -180 254 -180q181 0 181 100q0 55 -54.5 86t-208.5 55q-227 34 -320 119t-93 229q0 159 118 245.5t351 86.5q414 0 471 -319l-285 -54q-22 83 -64.5 119.5t-136.5 36.5q-170 0 -170 -100q0 -19 4.5 -33t20 -29t42 -27t72.5 -24
t111 -22q104 -18 181 -45t124.5 -58.5t75.5 -72.5t38.5 -82.5t10.5 -92.5q0 -340 -481 -340z" />
    <glyph glyph-name="t.sc" horiz-adv-x="985" 
d="M29 836v254h929v-254h-321v-836h-287v836h-321z" />
    <glyph glyph-name="u.sc" horiz-adv-x="1208" 
d="M608 219q120 0 168.5 57t48.5 170v644h287v-666q0 -217 -130 -333t-374 -116q-247 0 -379.5 116t-132.5 333v666h287v-644q0 -112 50.5 -169.5t174.5 -57.5z" />
    <glyph glyph-name="v.sc" horiz-adv-x="1140" 
d="M764 0h-387l-393 1090h307l178 -568q34 -107 84 -282h43q52 181 86 282l178 568h297z" />
    <glyph glyph-name="w.sc" horiz-adv-x="1634" 
d="M731 459l-74 -459h-397l-274 1090h309l90 -459q46 -236 68 -395h41q29 217 63 395l94 459h363l92 -459q26 -143 59 -395h39q16 103 68 395l84 459h291l-267 -1090h-415l-76 459q-45 277 -60 405h-34q-12 -92 -64 -405z" />
    <glyph glyph-name="x.sc" horiz-adv-x="1083" 
d="M760 0l-213 420h-33l-207 -420h-299v20l332 545l-328 504v21h316l215 -408h32l195 408h301v-21l-326 -541l332 -508v-20h-317z" />
    <glyph glyph-name="y.sc" horiz-adv-x="1052" 
d="M670 0h-287v342l-408 727v21h316l219 -510h35l223 510h309v-21l-407 -727v-342z" />
    <glyph glyph-name="z.sc" horiz-adv-x="1112" 
d="M1038 254v-254h-972v233l600 605l-13 22q-226 -24 -323 -24h-248v254h950v-232l-608 -610l10 -21q218 27 316 27h288z" />
    <glyph glyph-name="aacute.sc" horiz-adv-x="1146" 
d="M856 0l-72 229h-432l-73 -229h-295l393 1090h395l391 -1090h-307zM440 1157l-69 135l483 279l100 -193zM461 567l-43 -135h303l-43 135q-40 122 -84 283h-47q-59 -202 -86 -283z" />
    <glyph glyph-name="abreve.sc" horiz-adv-x="1146" 
d="M856 0l-72 229h-432l-73 -229h-295l393 1090h395l391 -1090h-307zM573 1368q72 0 116 37.5t54 130.5h127q0 -179 -73.5 -260.5t-223.5 -81.5q-148 0 -222.5 81.5t-74.5 260.5h127q11 -93 55 -130.5t115 -37.5zM461 567l-43 -135h303l-43 135q-40 122 -84 283h-47
q-59 -202 -86 -283z" />
    <glyph glyph-name="acircumflex.sc" horiz-adv-x="1146" 
d="M856 0l-72 229h-432l-73 -229h-295l393 1090h395l391 -1090h-307zM805 1159l-232 189l-231 -189l-92 98l280 299h88l279 -299zM461 567l-43 -135h303l-43 135q-40 122 -84 283h-47q-59 -202 -86 -283z" />
    <glyph glyph-name="adieresis.sc" horiz-adv-x="1146" 
d="M856 0l-72 229h-432l-73 -229h-295l393 1090h395l391 -1090h-307zM274 1481h248v-240h-248v240zM625 1481h247v-240h-247v240zM461 567l-43 -135h303l-43 135q-40 122 -84 283h-47q-59 -202 -86 -283z" />
    <glyph glyph-name="agrave.sc" horiz-adv-x="1146" 
d="M856 0l-72 229h-432l-73 -229h-295l393 1090h395l391 -1090h-307zM741 1157l-516 221l103 193l481 -279zM461 567l-43 -135h303l-43 135q-40 122 -84 283h-47q-59 -202 -86 -283z" />
    <glyph glyph-name="amacron.sc" horiz-adv-x="1146" 
d="M856 0l-72 229h-432l-73 -229h-295l393 1090h395l391 -1090h-307zM295 1430h555v-189h-555v189zM461 567l-43 -135h303l-43 135q-40 122 -84 283h-47q-59 -202 -86 -283z" />
    <glyph glyph-name="aogonek.sc" horiz-adv-x="1146" 
d="M1163 -332q-75 -10 -127 -10q-239 0 -239 156q0 132 202 186h-143l-72 229h-432l-73 -229h-295l393 1090h395l391 -1090h-2q-112 -21 -160.5 -46t-48.5 -65q0 -57 103 -57q49 0 106 14zM461 567l-43 -135h303l-43 135q-40 122 -84 283h-47q-59 -202 -86 -283z" />
    <glyph glyph-name="aring.sc" horiz-adv-x="1146" 
d="M856 0l-72 229h-432l-73 -229h-295l393 1090h395l391 -1090h-307zM471 1415q0 -51 27.5 -79.5t74.5 -28.5q48 0 76.5 29t28.5 79t-28.5 78.5t-76.5 28.5t-75 -28t-27 -79zM813 1415q0 -106 -65 -169.5t-175 -63.5t-173.5 63.5t-63.5 169.5q0 107 64 170.5t173 63.5
q110 0 175 -64t65 -170zM461 567l-43 -135h303l-43 135q-40 122 -84 283h-47q-59 -202 -86 -283z" />
    <glyph glyph-name="aringacute.sc" horiz-adv-x="1146" 
d="M387 1419l-43 133l494 185l61 -195zM473 1184q0 -43 26.5 -68.5t71.5 -25.5t72 26t27 70q0 43 -27.5 68.5t-71.5 25.5q-46 0 -72 -26t-26 -70zM805 1186q0 -59 -27 -115l385 -1071h-307l-72 229h-432l-73 -229h-295l385 1065q-31 51 -31 119q0 102 62.5 162.5t170.5 60.5
q107 0 170.5 -60.5t63.5 -160.5zM461 567l-43 -135h303l-43 135q-40 122 -84 283h-47q-59 -202 -86 -283z" />
    <glyph glyph-name="atilde.sc" horiz-adv-x="1146" 
d="M856 0l-72 229h-432l-73 -229h-295l393 1090h395l391 -1090h-307zM428 1550q43 0 79.5 -17.5t60 -43t44 -51t41.5 -43t43 -17.5q41 0 56.5 38.5t13.5 123.5h121q6 -49 6 -94q0 -126 -47 -191t-129 -65q-39 0 -72.5 17.5t-56.5 43t-44 51t-45 43t-50 17.5
q-39 0 -54.5 -36.5t-15.5 -123.5h-119q-6 52 -6 92q0 127 46.5 191.5t127.5 64.5zM461 567l-43 -135h303l-43 135q-40 122 -84 283h-47q-59 -202 -86 -283z" />
    <glyph glyph-name="ae.sc" horiz-adv-x="1640" 
d="M520 565l-59 -145h229v446h-61q-48 -156 -109 -301zM690 0v211h-315l-88 -211h-299l491 1090h1082v-240h-584v-201h539v-198h-539v-211h584v-240h-871z" />
    <glyph glyph-name="aeacute.sc" horiz-adv-x="1640" 
d="M788 1149l-69 135l483 279l101 -193zM690 0v211h-315l-88 -211h-299l491 1090h1082v-240h-584v-201h539v-198h-539v-211h584v-240h-871zM520 565l-59 -145h229v446h-61q-48 -156 -109 -301z" />
    <glyph glyph-name="cacute.sc" horiz-adv-x="1185" 
d="M608 -27q-265 0 -412 152.5t-147 423.5q0 268 152 417.5t415 149.5q224 0 356 -110t158 -316l-272 -51q-24 120 -82 177.5t-170 57.5q-138 0 -205 -89.5t-67 -235.5q0 -336 272 -336q116 0 173 57t83 181l273 -45q-26 -207 -162.5 -320t-364.5 -113zM459 1182l-70 135
l483 278l101 -192z" />
    <glyph glyph-name="ccaron.sc" horiz-adv-x="1185" 
d="M608 -27q-265 0 -412 152.5t-147 423.5q0 268 152 417.5t415 149.5q224 0 356 -110t158 -316l-272 -51q-24 120 -82 177.5t-170 57.5q-138 0 -205 -89.5t-67 -235.5q0 -336 272 -336q116 0 173 57t83 181l273 -45q-26 -207 -162.5 -320t-364.5 -113zM635 1206h-88
l-279 297l92 99l232 -189l231 189l92 -99z" />
    <glyph glyph-name="ccedilla.sc" horiz-adv-x="1185" 
d="M608 -27h-12l-25 -67q35 12 72 12q148 0 148 -123q0 -53 -46 -96t-145 -43q-127 0 -209 57l55 86q72 -45 154 -45q72 0 72 51q0 48 -72 48q-33 0 -76 -13l-71 29l41 113q-212 32 -328.5 180t-116.5 387q0 268 152 417.5t415 149.5q224 0 356 -110t158 -316l-272 -51
q-24 120 -82 177.5t-170 57.5q-138 0 -205 -89.5t-67 -235.5q0 -336 272 -336q116 0 173 57t83 181l273 -45q-26 -207 -162.5 -320t-364.5 -113z" />
    <glyph glyph-name="ccircumflex.sc" horiz-adv-x="1185" 
d="M608 -27q-265 0 -412 152.5t-147 423.5q0 268 152 417.5t415 149.5q224 0 356 -110t158 -316l-272 -51q-24 120 -82 177.5t-170 57.5q-138 0 -205 -89.5t-67 -235.5q0 -336 272 -336q116 0 173 57t83 181l273 -45q-26 -207 -162.5 -320t-364.5 -113zM823 1184l-231 188
l-232 -188l-92 98l281 299h88l278 -299z" />
    <glyph glyph-name="cdotaccent.sc" horiz-adv-x="1185" 
d="M608 -27q-265 0 -412 152.5t-147 423.5q0 268 152 417.5t415 149.5q224 0 356 -110t158 -316l-272 -51q-24 120 -82 177.5t-170 57.5q-138 0 -205 -89.5t-67 -235.5q0 -336 272 -336q116 0 173 57t83 181l273 -45q-26 -207 -162.5 -320t-364.5 -113zM459 1522h268v-256
h-268v256z" />
    <glyph glyph-name="dcaron.sc" horiz-adv-x="1214" 
d="M555 860h-172v-633h180q169 0 243.5 81t74.5 251q0 166 -75 233.5t-251 67.5zM96 0v1090h494q577 0 577 -531q0 -260 -154 -409.5t-427 -149.5h-490zM657 1182h-88l-278 297l92 98l231 -188l232 188l92 -98z" />
    <glyph glyph-name="dcroat.sc" horiz-adv-x="1265" 
d="M666 459h-236v-232h180q169 0 243.5 81t74.5 251q0 166 -75 233.5t-251 67.5h-172v-233h236v-168zM143 0v459h-110v168h110v463h494q577 0 577 -531q0 -260 -154 -409.5t-427 -149.5h-490z" />
    <glyph glyph-name="eacute.sc" horiz-adv-x="1046" 
d="M96 0v1090h871v-240h-584v-201h539v-198h-539v-211h584v-240h-871zM399 1157l-69 135l483 279l100 -193z" />
    <glyph glyph-name="ebreve.sc" horiz-adv-x="1046" 
d="M96 0v1090h871v-240h-584v-201h539v-198h-539v-211h584v-240h-871zM532 1368q72 0 116 37.5t54 130.5h127q0 -179 -73.5 -260.5t-223.5 -81.5q-148 0 -222 81.5t-74 260.5h126q11 -93 55 -130.5t115 -37.5z" />
    <glyph glyph-name="ecaron.sc" horiz-adv-x="1046" 
d="M96 0v1090h871v-240h-584v-201h539v-198h-539v-211h584v-240h-871zM575 1182h-88l-278 297l92 98l231 -188l232 188l92 -98z" />
    <glyph glyph-name="ecircumflex.sc" horiz-adv-x="1046" 
d="M96 0v1090h871v-240h-584v-201h539v-198h-539v-211h584v-240h-871zM764 1159l-232 189l-231 -189l-92 98l280 299h89l278 -299z" />
    <glyph glyph-name="edieresis.sc" horiz-adv-x="1046" 
d="M96 0v1090h871v-240h-584v-201h539v-198h-539v-211h584v-240h-871zM233 1481h248v-240h-248v240zM584 1481h247v-240h-247v240z" />
    <glyph glyph-name="edotaccent.sc" horiz-adv-x="1046" 
d="M96 0v1090h871v-240h-584v-201h539v-198h-539v-211h584v-240h-871zM399 1497h269v-256h-269v256z" />
    <glyph glyph-name="egrave.sc" horiz-adv-x="1046" 
d="M96 0v1090h871v-240h-584v-201h539v-198h-539v-211h584v-240h-871zM700 1157l-516 221l103 193l481 -279z" />
    <glyph glyph-name="emacron.sc" horiz-adv-x="1046" 
d="M96 0v1090h871v-240h-584v-201h539v-198h-539v-211h584v-240h-871zM254 1430h555v-189h-555v189z" />
    <glyph glyph-name="eng.sc" horiz-adv-x="1245" 
d="M96 0v1090h408l201 -347q97 -179 184 -393l20 2q-26 269 -26 414v324h264v-1082q0 -340 -352 -340q-74 0 -166 15l14 235q63 -14 121 -14q107 0 115 90l-293 405q-47 65 -107 192.5t-108 254.5l-31 -4q22 -301 22 -527v-315h-266z" />
    <glyph glyph-name="eogonek.sc" horiz-adv-x="1046" 
d="M967 -332q-75 -10 -127 -10q-240 0 -240 156q0 67 53.5 113.5t149.5 72.5h-707v1090h871v-240h-584v-201h539v-198h-539v-211h584v-240h-2q-112 -21 -160.5 -46t-48.5 -65q0 -57 102 -57q50 0 107 14z" />
    <glyph glyph-name="eth.sc" horiz-adv-x="1265" 
d="M666 459h-236v-232h180q169 0 243.5 81t74.5 251q0 166 -75 233.5t-251 67.5h-172v-233h236v-168zM143 0v459h-110v168h110v463h494q577 0 577 -531q0 -260 -154 -409.5t-427 -149.5h-490z" />
    <glyph glyph-name="fi.sc" horiz-adv-x="1478" 
d="M889 344h-500v-344h-289v1090h834v-254h-545v-261h500v-231zM1380 0h-286v1090h286v-1090z" />
    <glyph glyph-name="fl.sc" horiz-adv-x="1904" 
d="M889 344h-500v-344h-289v1090h834v-254h-545v-261h500v-231zM1094 1090h286v-857h484v-233h-770v1090z" />
    <glyph glyph-name="gbreve.sc" horiz-adv-x="1220" 
d="M494 -20q-96 0 -177 35t-141.5 102t-94.5 173t-34 240q0 279 142.5 432.5t418.5 153.5q229 0 351.5 -95.5t156.5 -287.5l-268 -53q-28 100 -82 147t-164 47q-142 0 -204 -86.5t-62 -257.5q0 -160 65 -241.5t211 -81.5q246 0 254 182h-262v195h531v-584h-263v238h-22
q-86 -258 -356 -258zM594 1393q72 0 116 37.5t54 130.5h127q0 -179 -73.5 -260.5t-223.5 -81.5q-148 0 -222.5 81.5t-74.5 260.5h127q11 -93 55 -130.5t115 -37.5z" />
    <glyph glyph-name="gcircumflex.sc" horiz-adv-x="1220" 
d="M494 -20q-96 0 -177 35t-141.5 102t-94.5 173t-34 240q0 279 142.5 432.5t418.5 153.5q229 0 351.5 -95.5t156.5 -287.5l-268 -53q-28 100 -82 147t-164 47q-142 0 -204 -86.5t-62 -257.5q0 -160 65 -241.5t211 -81.5q246 0 254 182h-262v195h531v-584h-263v238h-22
q-86 -258 -356 -258zM825 1184l-231 188l-232 -188l-92 98l281 299h88l279 -299z" />
    <glyph glyph-name="gcommaaccent.sc" horiz-adv-x="1220" 
d="M494 -20q-96 0 -177 35t-141.5 102t-94.5 173t-34 240q0 279 142.5 432.5t418.5 153.5q229 0 351.5 -95.5t156.5 -287.5l-268 -53q-28 100 -82 147t-164 47q-142 0 -204 -86.5t-62 -257.5q0 -160 65 -241.5t211 -81.5q246 0 254 182h-262v195h531v-584h-263v238h-22
q-86 -258 -356 -258zM522 -104h213l-121 -316h-172v19z" />
    <glyph glyph-name="gdotaccent.sc" horiz-adv-x="1220" 
d="M494 -20q-96 0 -177 35t-141.5 102t-94.5 173t-34 240q0 279 142.5 432.5t418.5 153.5q229 0 351.5 -95.5t156.5 -287.5l-268 -53q-28 100 -82 147t-164 47q-142 0 -204 -86.5t-62 -257.5q0 -160 65 -241.5t211 -81.5q246 0 254 182h-262v195h531v-584h-263v238h-22
q-86 -258 -356 -258zM461 1522h268v-256h-268v256z" />
    <glyph glyph-name="hbar.sc" horiz-adv-x="1290" 
d="M868 582v151h-454v-151h454zM1155 0h-287v348h-454v-348h-287v733h-104v160h104v197h287v-197h454v197h287v-197h113v-160h-113v-733z" />
    <glyph glyph-name="hcircumflex.sc" horiz-adv-x="1222" 
d="M1124 0h-286v418h-455v-418h-287v1090h287v-424h455v424h286v-1090zM842 1159l-232 189l-231 -189l-92 98l280 299h88l279 -299z" />
    <glyph glyph-name="iacute.sc" horiz-adv-x="481" 
d="M383 0h-287v1090h287v-1090zM106 1157l-69 135l483 279l101 -193z" />
    <glyph glyph-name="ibreve.sc" horiz-adv-x="481" 
d="M383 0h-287v1090h287v-1090zM240 1368q72 0 116 37.5t54 130.5h127q0 -179 -73.5 -260.5t-223.5 -81.5q-148 0 -222.5 81.5t-74.5 260.5h127q11 -93 55 -130.5t115 -37.5z" />
    <glyph glyph-name="icircumflex.sc" horiz-adv-x="481" 
d="M383 0h-287v1090h287v-1090zM471 1159l-231 189l-232 -189l-92 98l281 299h88l278 -299z" />
    <glyph glyph-name="idieresis.sc" horiz-adv-x="481" 
d="M383 0h-287v1090h287v-1090zM-57 1481h247v-240h-247v240zM293 1481h248v-240h-248v240z" />
    <glyph glyph-name="igrave.sc" horiz-adv-x="481" 
d="M383 0h-287v1090h287v-1090zM408 1157l-517 221l103 193l481 -279z" />
    <glyph glyph-name="ij.sc" horiz-adv-x="1089" 
d="M383 0h-287v1090h287v-1090zM705 336v754h286v-752q0 -352 -336 -352q-65 0 -155 12l12 238q64 -11 92 -11q101 0 101 111z" />
    <glyph glyph-name="imacron.sc" horiz-adv-x="481" 
d="M383 0h-287v1090h287v-1090zM-37 1430h555v-189h-555v189z" />
    <glyph glyph-name="iogonek.sc" horiz-adv-x="481" 
d="M383 0q-112 -21 -160.5 -46t-48.5 -65q0 -57 102 -57q50 0 107 14l2 -178q-75 -10 -127 -10q-240 0 -240 156q0 67 53.5 113.5t149.5 72.5h-125v1090h287v-1090z" />
    <glyph glyph-name="itilde.sc" horiz-adv-x="481" 
d="M383 0h-287v1090h287v-1090zM96 1550q43 0 79.5 -17.5t60.5 -43t44 -51t41.5 -43t43.5 -17.5q41 0 56 38t13 124h121q6 -49 6 -94q0 -126 -47 -191t-129 -65q-39 0 -72.5 17.5t-56.5 43t-44 51t-45 43t-50 17.5q-39 0 -54.5 -36.5t-15.5 -123.5h-119q-6 52 -6 92
q0 127 46.5 191.5t127.5 64.5z" />
    <glyph glyph-name="jcircumflex.sc" horiz-adv-x="608" 
d="M223 336v754h287v-752q0 -352 -336 -352q-66 0 -156 12l13 238q64 -11 92 -11q100 0 100 111zM596 1159l-231 189l-232 -189l-92 98l281 299h88l278 -299z" />
    <glyph glyph-name="kcommaaccent.sc" horiz-adv-x="1112" 
d="M784 0l-317 401h-84v-401h-287v1090h287v-465h78l323 465h324v-21l-436 -534l446 -515v-20h-334zM535 -104h213l-121 -316h-172v19z" />
    <glyph glyph-name="lacute.sc" horiz-adv-x="907" 
d="M209 1157l-70 135l484 279l100 -193zM96 1090h287v-857h483v-233h-770v1090z" />
    <glyph glyph-name="lcaron.sc" horiz-adv-x="933" 
d="M662 1090h208l-63 -517h-172zM96 1090h287v-857h483v-233h-770v1090z" />
    <glyph glyph-name="lcommaaccent.sc" horiz-adv-x="907" 
d="M96 1090h287v-857h483v-233h-770v1090zM410 -104h213l-121 -316h-172v19z" />
    <glyph glyph-name="ldot.sc" horiz-adv-x="913" 
d="M578 768h243v-231h-243v231zM96 1090h287v-857h483v-233h-770v1090z" />
    <glyph glyph-name="lslash.sc" horiz-adv-x="946" 
d="M129 1090h287v-404l235 105v-175l-235 -102v-281h483v-233h-770v389l-106 -47v172l106 47v529z" />
    <glyph glyph-name="nacute.sc" horiz-adv-x="1245" 
d="M766 0l-217 412q-87 170 -178 426l-31 -4q22 -301 22 -519v-315h-266v1090h408l188 -349q94 -179 180 -444l33 4q-22 290 -22 465v324h264v-1090h-381zM487 1157l-69 135l483 279l100 -193z" />
    <glyph glyph-name="ncaron.sc" horiz-adv-x="1245" 
d="M766 0l-217 412q-87 170 -178 426l-31 -4q22 -301 22 -519v-315h-266v1090h408l188 -349q94 -179 180 -444l33 4q-22 290 -22 465v324h264v-1090h-381zM666 1182h-88l-279 297l92 98l232 -188l231 188l92 -98z" />
    <glyph glyph-name="ncommaaccent.sc" horiz-adv-x="1245" 
d="M766 0l-217 412q-87 170 -178 426l-31 -4q22 -301 22 -519v-315h-266v1090h408l188 -349q94 -179 180 -444l33 4q-22 290 -22 465v324h264v-1090h-381zM549 -104h213l-121 -316h-172v19z" />
    <glyph glyph-name="ntilde.sc" horiz-adv-x="1245" 
d="M766 0l-217 412q-87 170 -178 426l-31 -4q22 -301 22 -519v-315h-266v1090h408l188 -349q94 -179 180 -444l33 4q-22 290 -22 465v324h264v-1090h-381zM477 1550q43 0 79.5 -17.5t60 -43t44 -51t41.5 -43t43 -17.5q41 0 56.5 38.5t13.5 123.5h121q6 -49 6 -94
q0 -126 -47 -191t-129 -65q-39 0 -72.5 17.5t-56.5 43t-44 51t-45 43t-50 17.5q-39 0 -54.5 -36.5t-15.5 -123.5h-119q-6 52 -6 92q0 127 46.5 191.5t127.5 64.5z" />
    <glyph glyph-name="oacute.sc" horiz-adv-x="1251" 
d="M627 -27q-275 0 -426.5 154t-151.5 422q0 263 155 415t423 152t421.5 -151.5t153.5 -415.5q0 -268 -150.5 -422t-424.5 -154zM625 213q293 0 293 336q0 154 -71 239.5t-220 85.5q-150 0 -221.5 -86t-71.5 -239q0 -336 291 -336zM492 1182l-70 135l483 278l101 -192z" />
    <glyph glyph-name="obreve.sc" horiz-adv-x="1251" 
d="M627 -27q-275 0 -426.5 154t-151.5 422q0 263 155 415t423 152t421.5 -151.5t153.5 -415.5q0 -268 -150.5 -422t-424.5 -154zM625 213q293 0 293 336q0 154 -71 239.5t-220 85.5q-150 0 -221.5 -86t-71.5 -239q0 -336 291 -336zM625 1393q72 0 116 37.5t54 130.5h127
q0 -179 -73.5 -260.5t-223.5 -81.5q-148 0 -222.5 81.5t-74.5 260.5h127q11 -93 55 -130.5t115 -37.5z" />
    <glyph glyph-name="ocircumflex.sc" horiz-adv-x="1251" 
d="M625 213q293 0 293 336q0 154 -71 239.5t-220 85.5q-150 0 -221.5 -86t-71.5 -239q0 -336 291 -336zM627 -27q-275 0 -426.5 154t-151.5 422q0 263 155 415t423 152t421.5 -151.5t153.5 -415.5q0 -268 -150.5 -422t-424.5 -154zM856 1184l-231 188l-232 -188l-92 98
l281 299h88l278 -299z" />
    <glyph glyph-name="odieresis.sc" horiz-adv-x="1251" 
d="M627 -27q-275 0 -426.5 154t-151.5 422q0 263 155 415t423 152t421.5 -151.5t153.5 -415.5q0 -268 -150.5 -422t-424.5 -154zM625 213q293 0 293 336q0 154 -71 239.5t-220 85.5q-150 0 -221.5 -86t-71.5 -239q0 -336 291 -336zM328 1505h247v-239h-247v239zM678 1505
h248v-239h-248v239z" />
    <glyph glyph-name="ograve.sc" horiz-adv-x="1251" 
d="M627 -27q-275 0 -426.5 154t-151.5 422q0 263 155 415t423 152t421.5 -151.5t153.5 -415.5q0 -268 -150.5 -422t-424.5 -154zM625 213q293 0 293 336q0 154 -71 239.5t-220 85.5q-150 0 -221.5 -86t-71.5 -239q0 -336 291 -336zM793 1182l-517 221l103 192l481 -278z" />
    <glyph glyph-name="ohungarumlaut.sc" horiz-adv-x="1251" 
d="M627 -27q-275 0 -426.5 154t-151.5 422q0 263 155 415t423 152t421.5 -151.5t153.5 -415.5q0 -268 -150.5 -422t-424.5 -154zM625 213q293 0 293 336q0 154 -71 239.5t-220 85.5q-150 0 -221.5 -86t-71.5 -239q0 -336 291 -336zM489 1192l-118 68l174 342l162 -93z
M770 1194l-113 80l207 325l152 -102z" />
    <glyph glyph-name="omacron.sc" horiz-adv-x="1251" 
d="M627 -27q-275 0 -426.5 154t-151.5 422q0 263 155 415t423 152t421.5 -151.5t153.5 -415.5q0 -268 -150.5 -422t-424.5 -154zM625 213q293 0 293 336q0 154 -71 239.5t-220 85.5q-150 0 -221.5 -86t-71.5 -239q0 -336 291 -336zM348 1454h555v-188h-555v188z" />
    <glyph glyph-name="oslash.sc" horiz-adv-x="1249" 
d="M313 549q0 -113 33 -189l461 482q-70 45 -182 45q-158 0 -235 -89t-77 -249zM625 -27q-206 0 -351 93l-57 -66h-209v12l156 154q-117 151 -117 383q0 263 156 415t422 152q211 0 354 -96l61 70h205v-13l-158 -155q115 -149 115 -373q0 -267 -151.5 -421.5t-425.5 -154.5z
M623 197q313 0 313 352q0 100 -31 176l-463 -483q73 -45 181 -45z" />
    <glyph glyph-name="oslashacute.sc" horiz-adv-x="1251" 
d="M313 549q0 -113 33 -189l461 482q-70 45 -182 45q-158 0 -235 -89t-77 -249zM625 -27q-206 0 -351 93l-57 -66h-209v12l156 154q-117 151 -117 383q0 263 156 415t422 152q211 0 354 -96l61 70h205v-13l-158 -155q115 -149 115 -373q0 -267 -151.5 -421.5t-425.5 -154.5z
M500 1176l-70 135l483 278l101 -192zM623 197q313 0 313 352q0 100 -31 176l-463 -483q73 -45 181 -45z" />
    <glyph glyph-name="otilde.sc" horiz-adv-x="1251" 
d="M627 -27q-275 0 -426.5 154t-151.5 422q0 263 155 415t423 152t421.5 -151.5t153.5 -415.5q0 -268 -150.5 -422t-424.5 -154zM625 213q293 0 293 336q0 154 -71 239.5t-220 85.5q-150 0 -221.5 -86t-71.5 -239q0 -336 291 -336zM481 1575q43 0 79.5 -17.5t60.5 -43
t44 -51t41.5 -43t43.5 -17.5q41 0 56 38t13 124h121q6 -49 6 -95q0 -126 -47 -191t-129 -65q-39 0 -72.5 17.5t-56.5 43t-44 51t-45 43t-50 17.5q-39 0 -54.5 -36t-15.5 -123h-119q-6 52 -6 92q0 127 46.5 191.5t127.5 64.5z" />
    <glyph glyph-name="oe.sc" horiz-adv-x="1761" 
d="M635 233h100v623h-100q-150 0 -225.5 -81.5t-75.5 -225.5q0 -152 75 -234t226 -82zM635 0q-275 0 -430.5 147t-155.5 402q0 250 159.5 395.5t428.5 145.5h969v-240h-584v-201h539v-198h-539v-211h584v-240h-971z" />
    <glyph glyph-name="racute.sc" horiz-adv-x="1136" 
d="M580 858h-197v-287h203q96 0 136 34t40 108q0 76 -42.5 110.5t-139.5 34.5zM782 0l-233 367h-166v-367h-287v1090h506q219 0 332 -92.5t113 -274.5q0 -122 -56.5 -203t-161.5 -119l283 -381v-20h-330zM465 1157l-70 135l484 279l100 -193z" />
    <glyph glyph-name="rcaron.sc" horiz-adv-x="1136" 
d="M580 858h-197v-287h203q96 0 136 34t40 108q0 76 -42.5 110.5t-139.5 34.5zM782 0l-233 367h-166v-367h-287v1090h506q219 0 332 -92.5t113 -274.5q0 -122 -56.5 -203t-161.5 -119l283 -381v-20h-330zM602 1182h-88l-278 297l92 98l231 -188l232 188l92 -98z" />
    <glyph glyph-name="rcommaaccent.sc" horiz-adv-x="1136" 
d="M526 -104h213l-121 -316h-172v19zM580 858h-197v-287h203q96 0 136 34t40 108q0 76 -42.5 110.5t-139.5 34.5zM782 0l-233 367h-166v-367h-287v1090h506q219 0 332 -92.5t113 -274.5q0 -122 -56.5 -203t-161.5 -119l283 -381v-20h-330z" />
    <glyph glyph-name="sacute.sc" horiz-adv-x="1095" 
d="M559 -27q-472 3 -514 346l272 56q39 -180 254 -180q181 0 181 100q0 55 -54.5 86t-208.5 55q-227 34 -320 119t-93 229q0 159 118 245.5t351 86.5q414 0 471 -319l-285 -54q-22 83 -64.5 119.5t-136.5 36.5q-170 0 -170 -100q0 -19 4.5 -33t20 -29t42 -27t72.5 -24
t111 -22q104 -18 181 -45t124.5 -58.5t75.5 -72.5t38.5 -82.5t10.5 -92.5q0 -340 -481 -340zM410 1182l-70 135l483 278l101 -192z" />
    <glyph glyph-name="scaron.sc" horiz-adv-x="1095" 
d="M559 -27q-472 3 -514 346l272 56q39 -180 254 -180q181 0 181 100q0 55 -54.5 86t-208.5 55q-227 34 -320 119t-93 229q0 159 118 245.5t351 86.5q414 0 471 -319l-285 -54q-22 83 -64.5 119.5t-136.5 36.5q-170 0 -170 -100q0 -19 4.5 -33t20 -29t42 -27t72.5 -24
t111 -22q104 -18 181 -45t124.5 -58.5t75.5 -72.5t38.5 -82.5t10.5 -92.5q0 -340 -481 -340zM586 1206h-88l-279 297l92 99l232 -189l231 189l92 -99z" />
    <glyph glyph-name="scedilla.sc" horiz-adv-x="1095" 
d="M559 -27h-12l-25 -67q34 12 72 12q147 0 147 -123q0 -53 -45.5 -96t-144.5 -43q-127 0 -209 57l55 86q72 -45 154 -45q72 0 72 51q0 48 -72 48q-33 0 -76 -13l-72 29l39 111q-361 40 -397 339l272 56q39 -180 254 -180q181 0 181 100q0 55 -54.5 86t-208.5 55
q-227 34 -320 119t-93 229q0 159 118 245.5t351 86.5q414 0 471 -319l-285 -54q-22 83 -64.5 119.5t-136.5 36.5q-170 0 -170 -100q0 -19 4.5 -33t20 -29t42 -27t72.5 -24t111 -22q104 -18 181 -45t124.5 -58.5t75.5 -72.5t38.5 -82.5t10.5 -92.5q0 -340 -481 -340z" />
    <glyph glyph-name="scircumflex.sc" horiz-adv-x="1095" 
d="M559 -27q-472 3 -514 346l272 56q39 -180 254 -180q181 0 181 100q0 55 -54.5 86t-208.5 55q-227 34 -320 119t-93 229q0 159 118 245.5t351 86.5q414 0 471 -319l-285 -54q-22 83 -64.5 119.5t-136.5 36.5q-170 0 -170 -100q0 -19 4.5 -33t20 -29t42 -27t72.5 -24
t111 -22q104 -18 181 -45t124.5 -58.5t75.5 -72.5t38.5 -82.5t10.5 -92.5q0 -340 -481 -340zM774 1184l-231 188l-232 -188l-92 98l281 299h88l278 -299z" />
    <glyph glyph-name="scommaaccent.sc" horiz-adv-x="1095" 
d="M559 -27q-472 3 -514 346l272 56q39 -180 254 -180q181 0 181 100q0 55 -54.5 86t-208.5 55q-227 34 -320 119t-93 229q0 159 118 245.5t351 86.5q414 0 471 -319l-285 -54q-22 83 -64.5 119.5t-136.5 36.5q-170 0 -170 -100q0 -19 4.5 -33t20 -29t42 -27t72.5 -24
t111 -22q104 -18 181 -45t124.5 -58.5t75.5 -72.5t38.5 -82.5t10.5 -92.5q0 -340 -481 -340zM471 -104h213l-121 -316h-172v19z" />
    <glyph glyph-name="tbar.sc" horiz-adv-x="989" 
d="M29 836v254h929v-254h-321v-299h242v-158h-242v-379h-287v379h-235v158h235v299h-321z" />
    <glyph glyph-name="tcaron.sc" horiz-adv-x="985" 
d="M958 836h-321v-836h-287v836h-321v254h929v-254zM537 1182h-88l-279 297l92 98l232 -188l231 188l92 -98z" />
    <glyph glyph-name="tcommaaccent.sc" horiz-adv-x="985" 
d="M29 836v254h929v-254h-321v-836h-135l-35 -94q35 12 72 12q147 0 147 -123q0 -53 -45.5 -96t-144.5 -43q-127 0 -209 57l55 86q72 -45 154 -45q71 0 71 51q0 48 -71 48q-33 0 -76 -13l-72 29l47 131h-45v836h-321z" />
    <glyph glyph-name="uni021B.sc" horiz-adv-x="985" 
d="M29 836v254h929v-254h-321v-836h-287v836h-321zM422 -104h213l-121 -316h-172v19z" />
    <glyph glyph-name="thorn.sc" horiz-adv-x="1089" 
d="M98 1090h283v-144h219q455 0 455 -395q0 -183 -115.5 -289t-333.5 -106h-225v-156h-283v1090zM578 713h-197v-324h199q99 0 145.5 39.5t46.5 122.5t-45.5 122.5t-148.5 39.5z" />
    <glyph glyph-name="uacute.sc" horiz-adv-x="1208" 
d="M608 219q120 0 168.5 57t48.5 170v644h287v-666q0 -217 -130 -333t-374 -116q-247 0 -379.5 116t-132.5 333v666h287v-644q0 -112 50.5 -169.5t174.5 -57.5zM471 1157l-70 135l484 279l100 -193z" />
    <glyph glyph-name="ubreve.sc" horiz-adv-x="1208" 
d="M608 219q120 0 168.5 57t48.5 170v644h287v-666q0 -217 -130 -333t-374 -116q-247 0 -379.5 116t-132.5 333v666h287v-644q0 -112 50.5 -169.5t174.5 -57.5zM604 1368q72 0 116 37.5t54 130.5h127q0 -179 -73.5 -260.5t-223.5 -81.5q-148 0 -222.5 81.5t-74.5 260.5h127
q11 -93 55 -130.5t115 -37.5z" />
    <glyph glyph-name="ucircumflex.sc" horiz-adv-x="1208" 
d="M608 219q120 0 168.5 57t48.5 170v644h287v-666q0 -217 -130 -333t-374 -116q-247 0 -379.5 116t-132.5 333v666h287v-644q0 -112 50.5 -169.5t174.5 -57.5zM836 1159l-232 189l-231 -189l-92 98l280 299h88l279 -299z" />
    <glyph glyph-name="udieresis.sc" horiz-adv-x="1208" 
d="M608 219q120 0 168.5 57t48.5 170v644h287v-666q0 -217 -130 -333t-374 -116q-247 0 -379.5 116t-132.5 333v666h287v-644q0 -112 50.5 -169.5t174.5 -57.5zM307 1481h248v-240h-248v240zM657 1481h248v-240h-248v240z" />
    <glyph glyph-name="ugrave.sc" horiz-adv-x="1208" 
d="M608 219q120 0 168.5 57t48.5 170v644h287v-666q0 -217 -130 -333t-374 -116q-247 0 -379.5 116t-132.5 333v666h287v-644q0 -112 50.5 -169.5t174.5 -57.5zM772 1157l-516 221l102 193l482 -279z" />
    <glyph glyph-name="uhungarumlaut.sc" horiz-adv-x="1208" 
d="M608 219q120 0 168.5 57t48.5 170v644h287v-666q0 -217 -130 -333t-374 -116q-247 0 -379.5 116t-132.5 333v666h287v-644q0 -112 50.5 -169.5t174.5 -57.5zM469 1167l-119 68l174 342l162 -92zM750 1169l-113 80l207 326l151 -102z" />
    <glyph glyph-name="umacron.sc" horiz-adv-x="1208" 
d="M608 219q120 0 168.5 57t48.5 170v644h287v-666q0 -217 -130 -333t-374 -116q-247 0 -379.5 116t-132.5 333v666h287v-644q0 -112 50.5 -169.5t174.5 -57.5zM328 1430h555v-189h-555v189z" />
    <glyph glyph-name="uogonek.sc" horiz-adv-x="1208" 
d="M608 219q120 0 168.5 57t48.5 170v644h287v-666q0 -199 -110 -313t-318 -131q-59 -17 -86 -38.5t-27 -52.5q0 -57 103 -57q49 0 106 14l2 -178q-75 -10 -127 -10q-239 0 -239 156q0 104 135 163q-220 12 -337.5 127.5t-117.5 319.5v666h287v-644q0 -112 50.5 -169.5
t174.5 -57.5z" />
    <glyph glyph-name="uring.sc" horiz-adv-x="1208" 
d="M608 219q120 0 168.5 57t48.5 170v644h287v-666q0 -217 -130 -333t-374 -116q-247 0 -379.5 116t-132.5 333v666h287v-644q0 -112 50.5 -169.5t174.5 -57.5zM844 1415q0 -106 -65 -169.5t-175 -63.5t-173.5 63.5t-63.5 169.5q0 107 63.5 170.5t173.5 63.5t175 -64
t65 -170zM502 1415q0 -51 27.5 -79.5t74.5 -28.5q48 0 76.5 29t28.5 79t-28.5 78.5t-76.5 28.5t-75 -28t-27 -79z" />
    <glyph glyph-name="utilde.sc" horiz-adv-x="1208" 
d="M608 219q120 0 168.5 57t48.5 170v644h287v-666q0 -217 -130 -333t-374 -116q-247 0 -379.5 116t-132.5 333v666h287v-644q0 -112 50.5 -169.5t174.5 -57.5zM461 1550q43 0 79.5 -17.5t60 -43t44 -51t41.5 -43t43 -17.5q41 0 56.5 38.5t13.5 123.5h121q6 -49 6 -94
q0 -126 -47 -191t-129 -65q-39 0 -72.5 17.5t-56.5 43t-44.5 51t-45.5 43t-50 17.5q-39 0 -54 -36t-15 -124h-119q-6 52 -6 92q0 127 46.5 191.5t127.5 64.5z" />
    <glyph glyph-name="wacute.sc" horiz-adv-x="1634" 
d="M731 459l-74 -459h-397l-274 1090h309l90 -459q46 -236 68 -395h41q29 217 63 395l94 459h363l92 -459q26 -143 59 -395h39q16 103 68 395l84 459h291l-267 -1090h-415l-76 459q-45 277 -60 405h-34q-12 -92 -64 -405zM692 1157l-69 135l483 279l100 -193z" />
    <glyph glyph-name="wcircumflex.sc" horiz-adv-x="1634" 
d="M731 459l-74 -459h-397l-274 1090h309l90 -459q46 -236 68 -395h41q29 217 63 395l94 459h363l92 -459q26 -143 59 -395h39q16 103 68 395l84 459h291l-267 -1090h-415l-76 459q-45 277 -60 405h-34q-12 -92 -64 -405zM1059 1159l-232 189l-231 -189l-92 98l280 299h88
l279 -299z" />
    <glyph glyph-name="wdieresis.sc" horiz-adv-x="1634" 
d="M731 459l-74 -459h-397l-274 1090h309l90 -459q46 -236 68 -395h41q29 217 63 395l94 459h363l92 -459q26 -143 59 -395h39q16 103 68 395l84 459h291l-267 -1090h-415l-76 459q-45 277 -60 405h-34q-12 -92 -64 -405zM528 1481h248v-240h-248v240zM879 1481h247v-240
h-247v240z" />
    <glyph glyph-name="wgrave.sc" horiz-adv-x="1634" 
d="M731 459l-74 -459h-397l-274 1090h309l90 -459q46 -236 68 -395h41q29 217 63 395l94 459h363l92 -459q26 -143 59 -395h39q16 103 68 395l84 459h291l-267 -1090h-415l-76 459q-45 277 -60 405h-34q-12 -92 -64 -405zM995 1157l-516 221l103 193l481 -279z" />
    <glyph glyph-name="yacute.sc" horiz-adv-x="1052" 
d="M670 0h-287v342l-408 727v21h316l219 -510h35l223 510h309v-21l-407 -727v-342zM393 1157l-69 135l483 279l100 -193z" />
    <glyph glyph-name="ycircumflex.sc" horiz-adv-x="1052" 
d="M670 0h-287v342l-408 727v21h316l219 -510h35l223 510h309v-21l-407 -727v-342zM758 1159l-232 189l-231 -189l-92 98l280 299h88l279 -299z" />
    <glyph glyph-name="ydieresis.sc" horiz-adv-x="1052" 
d="M670 0h-287v342l-408 727v21h316l219 -510h35l223 510h309v-21l-407 -727v-342zM227 1481h248v-240h-248v240zM578 1481h247v-240h-247v240z" />
    <glyph glyph-name="zacute.sc" horiz-adv-x="1112" 
d="M1038 254v-254h-972v233l600 605l-13 22q-226 -24 -323 -24h-248v254h950v-232l-608 -610l10 -21q218 27 316 27h288zM418 1157l-70 135l483 279l101 -193z" />
    <glyph glyph-name="zcaron.sc" horiz-adv-x="1112" 
d="M1038 254v-254h-972v233l600 605l-13 22q-226 -24 -323 -24h-248v254h950v-232l-608 -610l10 -21q218 27 316 27h288zM594 1182h-88l-279 297l92 98l232 -188l231 188l92 -98z" />
    <glyph glyph-name="zdotaccent.sc" horiz-adv-x="1112" 
d="M1038 254v-254h-972v233l600 605l-13 22q-226 -24 -323 -24h-248v254h950v-232l-608 -610l10 -21q218 27 316 27h288zM418 1497h268v-256h-268v256z" />
    <glyph glyph-name="germandbls.sc" horiz-adv-x="1200" 
d="M801 -18q-217 0 -344 139l127 188q86 -96 204 -96q107 0 107 76q0 36 -30 59t-95 47q-110 37 -171.5 89.5t-61.5 138.5q0 83 59 137t172 88l-6 18q-88 -10 -217 -10q-87 0 -125.5 -50.5t-38.5 -148.5v-657h-285v682q0 198 116 303t339 105h469v-230q-130 -34 -188 -70
t-58 -83q0 -41 32.5 -66.5t108.5 -54.5q123 -48 180.5 -114t57.5 -185q0 -144 -91.5 -224.5t-260.5 -80.5z" />
    <glyph glyph-name="a.alt" horiz-adv-x="1093" 
d="M520 217q89 0 143 60t54 161v76q0 106 -53.5 168.5t-145.5 62.5q-100 0 -147 -65.5t-47 -202.5q0 -132 47 -196t149 -64zM51 477q0 252 87.5 386t248.5 134q115 0 193.5 -71t117.5 -201h19v246h278v-971h-278v254h-17q-38 -132 -118.5 -207.5t-198.5 -75.5
q-158 0 -245 131t-87 375z" />
    <glyph glyph-name="aacute.alt" horiz-adv-x="1093" 
d="M401 1051l-69 135l483 278l100 -192zM520 217q89 0 143 60t54 161v76q0 106 -53.5 168.5t-145.5 62.5q-100 0 -147 -65.5t-47 -202.5q0 -132 47 -196t149 -64zM51 477q0 252 87.5 386t248.5 134q115 0 193.5 -71t117.5 -201h19v246h278v-971h-278v254h-17
q-38 -132 -118.5 -207.5t-198.5 -75.5q-158 0 -245 131t-87 375z" />
    <glyph glyph-name="abreve.alt" horiz-adv-x="1093" 
d="M543 1262q72 0 116 37.5t54 130.5h127q0 -180 -74 -261.5t-223 -81.5q-148 0 -222.5 82t-74.5 261h127q11 -93 55 -130.5t115 -37.5zM520 217q89 0 143 60t54 161v76q0 106 -53.5 168.5t-145.5 62.5q-100 0 -147 -65.5t-47 -202.5q0 -132 47 -196t149 -64zM51 477
q0 252 87.5 386t248.5 134q115 0 193.5 -71t117.5 -201h19v246h278v-971h-278v254h-17q-38 -132 -118.5 -207.5t-198.5 -75.5q-158 0 -245 131t-87 375z" />
    <glyph glyph-name="acircumflex.alt" horiz-adv-x="1093" 
d="M766 1053l-231 188l-232 -188l-92 98l281 299h88l278 -299zM520 217q89 0 143 60t54 161v76q0 106 -53.5 168.5t-145.5 62.5q-100 0 -147 -65.5t-47 -202.5q0 -132 47 -196t149 -64zM51 477q0 252 87.5 386t248.5 134q115 0 193.5 -71t117.5 -201h19v246h278v-971h-278
v254h-17q-38 -132 -118.5 -207.5t-198.5 -75.5q-158 0 -245 131t-87 375z" />
    <glyph glyph-name="adieresis.alt" horiz-adv-x="1093" 
d="M240 1374h247v-239h-247v239zM590 1374h248v-239h-248v239zM520 217q89 0 143 60t54 161v76q0 106 -53.5 168.5t-145.5 62.5q-100 0 -147 -65.5t-47 -202.5q0 -132 47 -196t149 -64zM51 477q0 252 87.5 386t248.5 134q115 0 193.5 -71t117.5 -201h19v246h278v-971h-278
v254h-17q-38 -132 -118.5 -207.5t-198.5 -75.5q-158 0 -245 131t-87 375z" />
    <glyph glyph-name="agrave.alt" horiz-adv-x="1093" 
d="M694 1051l-516 221l103 192l481 -278zM520 217q89 0 143 60t54 161v76q0 106 -53.5 168.5t-145.5 62.5q-100 0 -147 -65.5t-47 -202.5q0 -132 47 -196t149 -64zM51 477q0 252 87.5 386t248.5 134q115 0 193.5 -71t117.5 -201h19v246h278v-971h-278v254h-17
q-38 -132 -118.5 -207.5t-198.5 -75.5q-158 0 -245 131t-87 375z" />
    <glyph glyph-name="amacron.alt" horiz-adv-x="1093" 
d="M252 1323h555v-188h-555v188zM520 217q89 0 143 60t54 161v76q0 106 -53.5 168.5t-145.5 62.5q-100 0 -147 -65.5t-47 -202.5q0 -132 47 -196t149 -64zM51 477q0 252 87.5 386t248.5 134q115 0 193.5 -71t117.5 -201h19v246h278v-971h-278v254h-17
q-38 -132 -118.5 -207.5t-198.5 -75.5q-158 0 -245 131t-87 375z" />
    <glyph glyph-name="aogonek.alt" horiz-adv-x="1093" 
d="M520 217q89 0 143 60t54 161v76q0 106 -53.5 168.5t-145.5 62.5q-100 0 -147 -65.5t-47 -202.5q0 -132 47 -196t149 -64zM51 477q0 252 87.5 386t248.5 134q115 0 193.5 -71t117.5 -201h19v246h278v-971h-2q-112 -21 -160.5 -46t-48.5 -65q0 -57 103 -57q49 0 106 14
l2 -178q-75 -10 -127 -10q-239 0 -239 156q0 132 202 186h-114v254h-17q-38 -132 -118.5 -207.5t-198.5 -75.5q-158 0 -245 131t-87 375z" />
    <glyph glyph-name="aring.alt" horiz-adv-x="1093" 
d="M430 1309q0 -51 27.5 -80t74.5 -29q48 0 76.5 29t28.5 80q0 50 -28.5 78t-76.5 28t-75 -27.5t-27 -78.5zM772 1309q0 -106 -65 -170t-175 -64t-173.5 63.5t-63.5 170.5q0 106 63.5 169.5t173.5 63.5t175 -63.5t65 -169.5zM520 217q89 0 143 60t54 161v76
q0 106 -53.5 168.5t-145.5 62.5q-100 0 -147 -65.5t-47 -202.5q0 -132 47 -196t149 -64zM51 477q0 252 87.5 386t248.5 134q115 0 193.5 -71t117.5 -201h19v246h278v-971h-278v254h-17q-38 -132 -118.5 -207.5t-198.5 -75.5q-158 0 -245 131t-87 375z" />
    <glyph glyph-name="aringacute.alt" horiz-adv-x="1093" 
d="M375 1524l-41 141l508 174l57 -192zM436 1266q0 -43 27 -69t72 -26q44 0 71 26.5t27 70.5q0 43 -27 68.5t-71 25.5q-46 0 -72.5 -26t-26.5 -70zM768 1268q0 -102 -63 -163t-170 -61q-108 0 -171 60.5t-63 161.5q0 102 63 162.5t171 60.5q107 0 170 -60.5t63 -160.5z
M520 217q89 0 143 60t54 161v76q0 106 -53.5 168.5t-145.5 62.5q-100 0 -147 -65.5t-47 -202.5q0 -132 47 -196t149 -64zM51 477q0 252 87.5 386t248.5 134q115 0 193.5 -71t117.5 -201h19v246h278v-971h-278v254h-17q-38 -132 -118.5 -207.5t-198.5 -75.5q-158 0 -245 131
t-87 375z" />
    <glyph glyph-name="atilde.alt" horiz-adv-x="1093" 
d="M389 1444q43 0 79.5 -17.5t60 -43t44 -51t41.5 -43t43 -17.5q41 0 56.5 38.5t13.5 123.5h121q6 -50 6 -95q0 -126 -47 -191t-129 -65q-39 0 -72.5 17.5t-56.5 43t-44 51t-45 43t-50 17.5q-39 0 -54.5 -36t-15.5 -123h-119q-6 53 -6 92q0 127 46.5 191.5t127.5 64.5z
M520 217q89 0 143 60t54 161v76q0 106 -53.5 168.5t-145.5 62.5q-100 0 -147 -65.5t-47 -202.5q0 -132 47 -196t149 -64zM51 477q0 252 87.5 386t248.5 134q115 0 193.5 -71t117.5 -201h19v246h278v-971h-278v254h-17q-38 -132 -118.5 -207.5t-198.5 -75.5q-158 0 -245 131
t-87 375z" />
    <glyph glyph-name="G.alt" horiz-adv-x="1277" 
d="M1223 508q0 -86 -19 -162t-62 -144t-107.5 -116.5t-161 -77t-216.5 -28.5q-299 0 -453.5 157.5t-154.5 460.5q0 312 154 484.5t450 172.5q248 0 380.5 -102t168.5 -307l-276 -60q-27 109 -90 161t-185 52q-162 0 -233.5 -101.5t-71.5 -299.5q0 -185 74.5 -279t241.5 -94
q149 0 214 62.5t70 171.5h-295v221h572v-172z" />
    <glyph glyph-name="Gbreve.alt" horiz-adv-x="1277" 
d="M1223 508q0 -86 -19 -162t-62 -144t-107.5 -116.5t-161 -77t-216.5 -28.5q-299 0 -453.5 157.5t-154.5 460.5q0 312 154 484.5t450 172.5q248 0 380.5 -102t168.5 -307l-276 -60q-27 109 -90 161t-185 52q-162 0 -233.5 -101.5t-71.5 -299.5q0 -185 74.5 -279t241.5 -94
q149 0 214 62.5t70 171.5h-295v221h572v-172zM649 1509q71 0 115.5 32.5t54.5 113.5h127q0 -168 -74 -244t-223 -76t-223 76t-74 244h127q10 -81 54.5 -113.5t115.5 -32.5z" />
    <glyph glyph-name="Gcircumflex.alt" horiz-adv-x="1277" 
d="M1223 508q0 -86 -19 -162t-62 -144t-107.5 -116.5t-161 -77t-216.5 -28.5q-299 0 -453.5 157.5t-154.5 460.5q0 312 154 484.5t450 172.5q248 0 380.5 -102t168.5 -307l-276 -60q-27 109 -90 161t-185 52q-162 0 -233.5 -101.5t-71.5 -299.5q0 -185 74.5 -279t241.5 -94
q149 0 214 62.5t70 171.5h-295v221h572v-172zM889 1309l-240 155l-239 -155l-84 100l280 258h88l279 -258z" />
    <glyph glyph-name="Gcommaaccent.alt" horiz-adv-x="1277" 
d="M1223 508q0 -86 -19 -162t-62 -144t-107.5 -116.5t-161 -77t-216.5 -28.5q-299 0 -453.5 157.5t-154.5 460.5q0 312 154 484.5t450 172.5q248 0 380.5 -102t168.5 -307l-276 -60q-27 109 -90 161t-185 52q-162 0 -233.5 -101.5t-71.5 -299.5q0 -185 74.5 -279t241.5 -94
q149 0 214 62.5t70 171.5h-295v221h572v-172zM582 -104h213l-121 -316h-172v19z" />
    <glyph glyph-name="Gdotaccent.alt" horiz-adv-x="1277" 
d="M1223 508q0 -86 -19 -162t-62 -144t-107.5 -116.5t-161 -77t-216.5 -28.5q-299 0 -453.5 157.5t-154.5 460.5q0 312 154 484.5t450 172.5q248 0 380.5 -102t168.5 -307l-276 -60q-27 109 -90 161t-185 52q-162 0 -233.5 -101.5t-71.5 -299.5q0 -185 74.5 -279t241.5 -94
q149 0 214 62.5t70 171.5h-295v221h572v-172zM518 1610h268v-256h-268v256z" />
    <glyph glyph-name="g.sc.alt" horiz-adv-x="1204" 
d="M881 420h-273v188h535v-147q0 -95 -29 -178.5t-89 -153.5t-164.5 -111t-242.5 -41q-279 0 -424 145.5t-145 424.5q0 269 143 419t418 150q231 0 355 -91t157 -273l-268 -56q-22 90 -79 132t-165 42q-270 0 -270 -323q0 -163 68.5 -247.5t222.5 -84.5q250 0 250 205z" />
    <glyph glyph-name="gbreve.sc.alt" horiz-adv-x="1204" 
d="M881 420h-273v188h535v-147q0 -95 -29 -178.5t-89 -153.5t-164.5 -111t-242.5 -41q-279 0 -424 145.5t-145 424.5q0 269 143 419t418 150q231 0 355 -91t157 -273l-268 -56q-22 90 -79 132t-165 42q-270 0 -270 -323q0 -163 68.5 -247.5t222.5 -84.5q250 0 250 205z
M602 1393q72 0 116 37.5t54 130.5h127q0 -179 -73.5 -260.5t-223.5 -81.5q-148 0 -222.5 81.5t-74.5 260.5h127q11 -93 55 -130.5t115 -37.5z" />
    <glyph glyph-name="gcircumflex.sc.alt" horiz-adv-x="1204" 
d="M881 420h-273v188h535v-147q0 -95 -29 -178.5t-89 -153.5t-164.5 -111t-242.5 -41q-279 0 -424 145.5t-145 424.5q0 269 143 419t418 150q231 0 355 -91t157 -273l-268 -56q-22 90 -79 132t-165 42q-270 0 -270 -323q0 -163 68.5 -247.5t222.5 -84.5q250 0 250 205z
M834 1184l-232 188l-231 -188l-92 98l280 299h88l279 -299z" />
    <glyph glyph-name="gcommaaccent.sc.alt" horiz-adv-x="1204" 
d="M881 420h-273v188h535v-147q0 -95 -29 -178.5t-89 -153.5t-164.5 -111t-242.5 -41q-279 0 -424 145.5t-145 424.5q0 269 143 419t418 150q231 0 355 -91t157 -273l-268 -56q-22 90 -79 132t-165 42q-270 0 -270 -323q0 -163 68.5 -247.5t222.5 -84.5q250 0 250 205z
M535 -104h213l-121 -316h-172v19z" />
    <glyph glyph-name="gdotaccent.sc.alt" horiz-adv-x="1204" 
d="M881 420h-273v188h535v-147q0 -95 -29 -178.5t-89 -153.5t-164.5 -111t-242.5 -41q-279 0 -424 145.5t-145 424.5q0 269 143 419t418 150q231 0 355 -91t157 -273l-268 -56q-22 90 -79 132t-165 42q-270 0 -270 -323q0 -163 68.5 -247.5t222.5 -84.5q250 0 250 205z
M469 1522h268v-256h-268v256z" />
    <glyph glyph-name="g.alt" horiz-adv-x="1093" 
d="M520 276q89 0 143 56t54 147v47q0 100 -53.5 159.5t-145.5 59.5q-194 0 -194 -237q0 -117 48 -174.5t148 -57.5zM51 502q0 245 87 370t249 125q115 0 193.5 -71t117.5 -201h19v246h278v-877q0 -203 -118 -315.5t-340 -112.5q-219 0 -334 71.5t-142 215.5l277 47
q14 -59 58.5 -89t129.5 -30q109 0 150 51.5t41 159.5v209h-19q-39 -111 -120 -179.5t-191 -68.5q-161 0 -248.5 115.5t-87.5 333.5z" />
    <glyph glyph-name="gbreve.alt" horiz-adv-x="1093" 
d="M535 1262q72 0 116 37.5t54 130.5h126q0 -180 -73.5 -261.5t-222.5 -81.5q-148 0 -222.5 82t-74.5 261h127q11 -93 55 -130.5t115 -37.5zM520 276q89 0 143 56t54 147v47q0 100 -53.5 159.5t-145.5 59.5q-194 0 -194 -237q0 -117 48 -174.5t148 -57.5zM51 502
q0 245 87 370t249 125q115 0 193.5 -71t117.5 -201h19v246h278v-877q0 -203 -118 -315.5t-340 -112.5q-219 0 -334 71.5t-142 215.5l277 47q14 -59 58.5 -89t129.5 -30q109 0 150 51.5t41 159.5v209h-19q-39 -111 -120 -179.5t-191 -68.5q-161 0 -248.5 115.5t-87.5 333.5z
" />
    <glyph glyph-name="gcircumflex.alt" horiz-adv-x="1093" 
d="M760 1053l-232 188l-231 -188l-92 98l280 299h88l279 -299zM520 276q89 0 143 56t54 147v47q0 100 -53.5 159.5t-145.5 59.5q-194 0 -194 -237q0 -117 48 -174.5t148 -57.5zM51 502q0 245 87 370t249 125q115 0 193.5 -71t117.5 -201h19v246h278v-877q0 -203 -118 -315.5
t-340 -112.5q-219 0 -334 71.5t-142 215.5l277 47q14 -59 58.5 -89t129.5 -30q109 0 150 51.5t41 159.5v209h-19q-39 -111 -120 -179.5t-191 -68.5q-161 0 -248.5 115.5t-87.5 333.5z" />
    <glyph glyph-name="gcommaaccent.alt" horiz-adv-x="1093" 
d="M612 1108h-213l119 315h174v-18zM520 276q89 0 143 56t54 147v47q0 100 -53.5 159.5t-145.5 59.5q-194 0 -194 -237q0 -117 48 -174.5t148 -57.5zM51 502q0 245 87 370t249 125q115 0 193.5 -71t117.5 -201h19v246h278v-877q0 -203 -118 -315.5t-340 -112.5
q-219 0 -334 71.5t-142 215.5l277 47q14 -59 58.5 -89t129.5 -30q109 0 150 51.5t41 159.5v209h-19q-39 -111 -120 -179.5t-191 -68.5q-161 0 -248.5 115.5t-87.5 333.5z" />
    <glyph glyph-name="gdotaccent.alt" horiz-adv-x="1093" 
d="M395 1391h269v-256h-269v256zM520 276q89 0 143 56t54 147v47q0 100 -53.5 159.5t-145.5 59.5q-194 0 -194 -237q0 -117 48 -174.5t148 -57.5zM51 502q0 245 87 370t249 125q115 0 193.5 -71t117.5 -201h19v246h278v-877q0 -203 -118 -315.5t-340 -112.5
q-219 0 -334 71.5t-142 215.5l277 47q14 -59 58.5 -89t129.5 -30q109 0 150 51.5t41 159.5v209h-19q-39 -111 -120 -179.5t-191 -68.5q-161 0 -248.5 115.5t-87.5 333.5z" />
    <glyph glyph-name="t.alt" horiz-adv-x="636" 
d="M428 0h-278v750h-119v221h119v250h278v-250h178v-221h-178v-750z" />
    <glyph glyph-name="tbar.alt" horiz-adv-x="636" 
d="M428 0h-278v352h-99v148h99v250h-119v221h119v250h278v-250h178v-221h-178v-250h154v-148h-154v-352z" />
    <glyph glyph-name="tcaron.alt" horiz-adv-x="655" 
d="M526 1401h183l-45 -328h-146zM428 0h-278v750h-119v221h119v250h278v-250h178v-221h-178v-750z" />
    <glyph glyph-name="tcommaaccent.alt" horiz-adv-x="636" 
d="M428 0h-129l-35 -94q34 12 72 12q147 0 147 -123q0 -53 -45.5 -96t-144.5 -43q-127 0 -209 57l55 86q72 -45 154 -45q72 0 72 51q0 48 -72 48q-33 0 -76 -13l-72 29l48 131h-43v750h-119v221h119v250h278v-250h178v-221h-178v-750z" />
    <glyph glyph-name="uni021B.alt" horiz-adv-x="636" 
d="M428 0h-278v750h-119v221h119v250h278v-250h178v-221h-178v-750zM207 -104h213l-121 -316h-172v19z" />
    <glyph glyph-name="zero.sc" horiz-adv-x="1120" 
d="M561 874q-118 0 -173.5 -82t-55.5 -243q0 -336 225 -336q231 0 231 336q0 325 -227 325zM561 1116q238 0 375 -145.5t137 -421.5q0 -279 -135 -427.5t-377 -148.5q-244 0 -379 148t-135 428q0 276 137.5 421.5t376.5 145.5z" />
    <glyph glyph-name="one.sc" horiz-adv-x="921" 
d="M866 0h-794v233h290v613q-97 -59 -243 -115l-86 225l428 134h178v-857h227v-233z" />
    <glyph glyph-name="two.sc" horiz-adv-x="1095" 
d="M571 887q-102 0 -155.5 -56t-67.5 -169l-266 28q21 204 138 314t353 110q455 0 455 -366q0 -288 -465 -371q-151 -33 -207 -65t-65 -97q184 18 319 18h418v-233h-979q-4 45 -4 139q0 123 41 204t121.5 129t216.5 81q138 35 207 65t91.5 60t22.5 78q0 61 -43 96t-131 35z
" />
    <glyph glyph-name="three.sc" horiz-adv-x="1085" 
d="M555 -18q-232 0 -356.5 84t-145.5 268l277 28q15 -83 64 -124t165 -41q189 0 189 131q0 64 -39 92.5t-140 28.5h-190v188h190q77 0 114.5 28.5t37.5 92.5q0 69 -40 100t-128 31q-102 0 -144 -39t-55 -121l-264 21q47 358 463 358q226 0 330 -72.5t104 -222.5
q0 -107 -67 -168.5t-199 -85.5v-22q173 -15 241 -71t68 -173q0 -145 -116 -228t-359 -83z" />
    <glyph glyph-name="four.sc" horiz-adv-x="1110" 
d="M1069 238h-139v-238h-273v238h-622v190l543 662h352v-637h139v-215zM635 453h22v428l-18 6l-350 -441l10 -14q159 21 336 21z" />
    <glyph glyph-name="five.sc" horiz-adv-x="1091" 
d="M555 197q105 0 149 36.5t44 108.5q0 143 -195 143q-127 0 -221 -63l-221 82v586h854v-259q-325 0 -607 23v-248q118 64 287 64q190 0 285.5 -89.5t95.5 -240.5q0 -184 -120.5 -271t-358.5 -87q-218 0 -339 71.5t-161 237.5l275 51q56 -145 233 -145z" />
    <glyph glyph-name="six.sc" horiz-adv-x="1110" 
d="M573 498q-114 0 -166.5 -41t-52.5 -107t52.5 -106.5t162.5 -40.5t153.5 41t43.5 112q0 67 -43.5 104.5t-149.5 37.5zM1044 352q0 -180 -122.5 -277.5t-360.5 -97.5q-117 0 -206 29t-157.5 93t-104.5 175.5t-36 268.5q0 121 30 221.5t90 179.5t160 123.5t232 44.5
q118 0 200 -21.5t133.5 -67.5t78 -109t37.5 -154l-270 -29q-16 80 -55 117t-128 37q-131 0 -184 -96t-53 -318v-16l24 -2q37 108 120.5 155t213.5 47q164 0 261 -73t97 -230z" />
    <glyph glyph-name="seven.sc" horiz-adv-x="993" 
d="M27 836v254h942v-246q-339 -339 -363 -844h-317q12 258 125.5 474t312.5 378q-200 -16 -324 -16h-376z" />
    <glyph glyph-name="eight.sc" horiz-adv-x="1097" 
d="M549 -23q-255 0 -373.5 82.5t-118.5 229.5q0 105 71.5 167t223.5 85v20q-125 27 -188.5 87.5t-63.5 164.5q0 299 449 299q230 0 337 -76t107 -223q0 -104 -62 -163.5t-186 -86.5v-22q152 -25 222.5 -86t70.5 -166q0 -147 -118 -229.5t-371 -82.5zM549 455
q-116 0 -162.5 -33t-46.5 -96q0 -129 209 -129q207 0 207 129q0 64 -45.5 96.5t-161.5 32.5zM549 889q-94 0 -136 -31t-42 -96q0 -68 44 -98.5t134 -30.5q89 0 133.5 31t44.5 98q0 65 -42.5 96t-135.5 31z" />
    <glyph glyph-name="nine.sc" horiz-adv-x="1099" 
d="M535 571q107 0 160 44.5t53 115.5q0 70 -52 113t-155 43q-107 0 -154 -45t-47 -117q0 -69 49.5 -111.5t145.5 -42.5zM532 -23q-223 0 -333.5 80.5t-139.5 235.5l271 47q17 -70 67 -102.5t142 -32.5q131 0 184 93.5t53 311.5v6l-24 2q-73 -204 -322 -204q-169 0 -269 76
t-100 239q0 183 121.5 283t354.5 100q119 0 209 -28.5t159.5 -92.5t105.5 -175t36 -267q0 -121 -30 -222t-90 -180.5t-161 -124.5t-234 -45z" />
    <glyph glyph-name="periodcentered.sc" horiz-adv-x="432" 
d="M63 692h304v-293h-304v293z" />
    <glyph glyph-name="bullet.sc" horiz-adv-x="593" 
d="M76 770h444v-426h-444v426z" />
    <glyph glyph-name="ampersand.sc" horiz-adv-x="1329" 
d="M494 807q0 -69 34 -141q98 30 146.5 71.5t48.5 100.5q0 43 -27.5 67.5t-81.5 24.5q-59 0 -89.5 -33.5t-30.5 -89.5zM1278 252l10 -254q-61 -10 -137 -10q-199 0 -397 116q-56 -56 -151 -89t-204 -33q-165 0 -267.5 76.5t-102.5 220.5q0 118 69 191.5t199 123.5
q-57 117 -57 209q0 80 31 142t84.5 97.5t117 53.5t135.5 18q172 0 257 -67.5t85 -180.5q0 -220 -368 -291q103 -147 264 -237q130 164 178 371l240 -35q-49 -240 -269 -402q93 -26 174 -26q51 0 109 6zM483 176q75 0 133 23q-164 131 -278 317q-68 -62 -68 -170
q0 -77 51.5 -123.5t161.5 -46.5z" />
    <glyph glyph-name="hyphen.sc" horiz-adv-x="716" 
d="M37 672h643v-256h-643v256z" />
    <glyph glyph-name="endash.sc" horiz-adv-x="974" 
d="M37 672h901v-254h-901v254z" />
    <glyph glyph-name="emdash.sc" horiz-adv-x="1761" 
d="M37 672h1687v-254h-1687v254z" />
    <glyph glyph-name="parenleft.sc" horiz-adv-x="675" 
d="M354 526q0 -213 62.5 -386t216.5 -353l-162 -125q-395 343 -395 864t391 863l164 -125q-156 -166 -216.5 -344t-60.5 -394z" />
    <glyph glyph-name="parenright.sc" horiz-adv-x="675" 
d="M322 524q0 213 -63 386.5t-216 353.5l162 127q395 -346 395 -867q0 -519 -393 -860l-164 123q156 168 217.5 345t61.5 392z" />
    <glyph glyph-name="bracketleft.sc" horiz-adv-x="614" 
d="M98 -293v1630h488v-198h-215v-1235h215v-197h-488z" />
    <glyph glyph-name="bracketright.sc" horiz-adv-x="614" 
d="M29 -291v197h215v1235h-215v196h485v-1628h-485z" />
    <glyph glyph-name="braceleft.sc" horiz-adv-x="724" 
d="M682 -283q-71 -6 -178 -6q-334 0 -334 236q0 52 24.5 104t53.5 87.5t53.5 81.5t24.5 87q0 53 -34 78t-118 25h-135v213h133q162 0 162 110q0 43 -25.5 90.5t-55.5 84.5t-55.5 91.5t-25.5 108.5q0 231 334 231q131 0 176 -4v-196q-37 2 -96 2q-78 0 -110 -24.5t-32 -69.5
q0 -29 19 -66.5t41.5 -69t41.5 -77.5t19 -89q0 -90 -64.5 -141.5t-193.5 -73.5v-20q142 -13 200 -59.5t58 -139.5q0 -44 -19.5 -90t-43 -77.5t-43 -69t-19.5 -66.5q0 -94 142 -94q63 0 100 2v-199z" />
    <glyph glyph-name="braceright.sc" horiz-adv-x="724" 
d="M219 -289q-131 0 -178 4v199q37 -2 98 -2q78 0 110 24t32 70q0 29 -19 66t-41.5 68t-41.5 76.5t-19 88.5q0 90 65 142t193 73v21q-142 13 -200 59t-58 139q0 44 19 90t42.5 78t42.5 69.5t19 67.5q0 95 -142 95q-61 0 -98 -2v196q68 6 178 6q334 0 334 -233
q0 -44 -16.5 -85.5t-39.5 -74.5t-46 -64.5t-39.5 -67t-16.5 -69.5q0 -54 35 -78t119 -24h133v-215h-133q-160 0 -160 -111q0 -35 16.5 -71.5t40 -69t47 -67t40 -77.5t16.5 -87q2 -112 -80 -173t-252 -61z" />
    <glyph glyph-name="dollar.sc" horiz-adv-x="1077" 
d="M432 1286h227l-14 -192q322 -37 367 -297l-285 -54q-20 81 -63.5 117.5t-137.5 36.5q-166 0 -166 -98q0 -32 14.5 -53t71 -43t162.5 -39q129 -22 216 -57t132.5 -82t63.5 -97t18 -115q0 -290 -395 -319l16 -219h-227l17 221q-368 37 -404 321l272 58q38 -178 252 -178
q181 0 181 98q0 55 -55 86t-208 55q-116 17 -196.5 48t-127.5 76t-67 99t-20 125q0 135 92.5 214t277.5 96z" />
    <glyph glyph-name="sterling.sc" horiz-adv-x="1069" 
d="M1008 0h-965v227h174q12 53 12 101q0 33 -6 63h-180v193h123q-35 119 -35 204q0 149 110 234.5t320 85.5q93 0 165 -19t117.5 -49.5t77.5 -76t47.5 -92t24.5 -105.5l-245 -55q-21 92 -61 131t-126 39q-162 0 -162 -146q0 -45 25 -151h434v-193h-414q-2 -50 -17 -87.5
t-54 -76.5h635v-227z" />
    <glyph glyph-name="yen.sc" horiz-adv-x="1138" 
d="M1067 244h-354v-244h-287v244h-354v166h317l-65 114h-252v174h155l-209 371v21h316l219 -510h35l223 510h309v-21l-209 -371h156v-174h-252l-65 -114h317v-166z" />
    <glyph glyph-name="Euro.sc" horiz-adv-x="1259" 
d="M684 -27q-214 0 -350 108.5t-174 307.5h-119v98h106q-2 20 -2 62q0 31 2 45h-106v98h117q38 203 178 313.5t356 110.5q222 0 353 -110t157 -316l-274 -51q-23 123 -80 182.5t-166 59.5q-197 0 -242 -189h236v-98h-250q-2 -14 -2 -45q0 -42 2 -62h250v-98h-234
q47 -184 240 -184q113 0 168.5 59t83.5 187l270 -45q-26 -207 -160 -320t-360 -113z" />
    <glyph glyph-name="percent.sc" horiz-adv-x="1437" 
d="M74 0v12l581 482l39 -27l-237 -467h-383zM989 1090h385v-11l-581 -483l-41 27zM373 467q-153 0 -243.5 86.5t-90.5 237.5q0 148 90.5 233.5t243.5 85.5q155 0 244.5 -85t89.5 -234q0 -152 -89 -238t-245 -86zM373 639q58 0 91.5 39t33.5 113q0 73 -33 110t-92 37
q-57 0 -90 -37t-33 -110q0 -74 32.5 -113t90.5 -39zM1067 -18q-155 0 -245.5 86t-90.5 237q0 149 91 234.5t245 85.5t243 -85.5t89 -234.5q0 -152 -89 -237.5t-243 -85.5zM1065 154q59 0 92 38t33 113q0 73 -33 110.5t-90 37.5q-60 0 -92.5 -37t-32.5 -111q0 -75 32.5 -113
t90.5 -38z" />
    <glyph glyph-name="plus.sc" horiz-adv-x="1030" 
d="M375 84v342h-326v252h326v340h280v-340h326v-252h-326v-342h-280z" />
    <glyph glyph-name="minus.sc" horiz-adv-x="985" 
d="M928 428h-873v248h873v-248z" />
    <glyph glyph-name="equal.sc" horiz-adv-x="1034" 
d="M954 248h-872v223h872v-223zM954 637h-872v221h872v-221z" />
    <glyph glyph-name="multiply.sc" horiz-adv-x="1042" 
d="M778 98q-65 72 -258 285q-133 -150 -256 -285l-196 195q89 81 290 250q-219 187 -290 252l196 194q46 -50 129 -144t129 -145q248 281 256 289l197 -194q-56 -51 -291 -252q37 -32 100.5 -85.5t106.5 -90t84 -74.5z" />
    <glyph glyph-name="divide.sc" horiz-adv-x="985" 
d="M928 428h-873v248h873v-248zM389 1016h225v-219h-225v219zM389 317h225v-219h-225v219z" />
    <glyph glyph-name="caron.alt" horiz-adv-x="309" 
d="M70 1352h209l-64 -516h-172z" />
    <glyph glyph-name="acute.case" horiz-adv-x="630" 
d="M66 1331l-46 142l527 196l65 -207z" />
    <glyph glyph-name="hungarumlaut.case" horiz-adv-x="776" 
d="M182 1311l-127 73l174 320l170 -100zM477 1311l-119 84l197 307l162 -109z" />
    <glyph glyph-name="grave.case" horiz-adv-x="634" 
d="M567 1331l-547 133l66 203l526 -194z" />
    <glyph glyph-name="circumflex.case" horiz-adv-x="729" 
d="M604 1309l-239 155l-240 -155l-84 100l281 258h88l278 -258z" />
    <glyph glyph-name="caron.case" horiz-adv-x="729" 
d="M408 1319h-89l-278 258l84 98l240 -155l239 155l84 -98z" />
    <glyph glyph-name="breve.case" horiz-adv-x="669" 
d="M342 1509q71 0 115.5 32.5t54.5 113.5h127q0 -168 -74 -244t-223 -76t-223 76t-74 244h127q10 -81 54.5 -113.5t115.5 -32.5z" />
    <glyph glyph-name="tilde.case" horiz-adv-x="731" 
d="M221 1686q43 0 79.5 -18t60 -43t44 -50.5t41.5 -43.5t43 -18q41 0 56.5 38.5t13.5 123.5h121q6 -50 6 -94q0 -126 -47 -191t-129 -65q-39 0 -72.5 17.5t-56.5 43t-44 51t-45 43t-50 17.5q-39 0 -54.5 -36.5t-15.5 -123.5h-119q-6 53 -6 93q0 127 46.5 191.5t127.5 64.5z
" />
    <glyph glyph-name="macron.case" horiz-adv-x="645" 
d="M41 1550h563v-188h-563v188z" />
    <glyph glyph-name="dieresis.case" horiz-adv-x="722" 
d="M57 1585h248v-239h-248v239zM408 1585h247v-239h-247v239z" />
    <glyph glyph-name="dotaccent.case" horiz-adv-x="399" 
d="M68 1610h268v-256h-268v256z" />
    <glyph glyph-name="ring.case" horiz-adv-x="600" 
d="M535 1538q0 -101 -63.5 -162t-170.5 -61q-108 0 -170.5 60t-62.5 161q0 102 62.5 162.5t170.5 60.5q107 0 170.5 -60.5t63.5 -160.5zM203 1536q0 -43 26.5 -68.5t71.5 -25.5q44 0 71 26t27 70q0 43 -27 68.5t-71 25.5q-46 0 -72 -26t-26 -70z" />
    <glyph glyph-name="zero.numr" horiz-adv-x="796" 
d="M399 1227q-161 0 -161 -211q0 -213 159 -213q162 0 162 213q0 211 -160 211zM399 1393q166 0 264.5 -99t98.5 -278t-97.5 -279t-265.5 -100q-170 0 -266 99.5t-96 279.5q0 179 97.5 278t264.5 99z" />
    <glyph glyph-name="one.numr" horiz-adv-x="600" 
d="M580 655h-537v170h188v379q-83 -53 -155 -78l-62 154l275 94h139v-549h152v-170z" />
    <glyph glyph-name="two.numr" horiz-adv-x="753" 
d="M391 1235q-120 0 -139 -141l-193 26q33 271 334 271q309 0 309 -236q0 -102 -70.5 -151t-236.5 -80q-98 -21 -135 -45t-43 -68q105 18 211 18h279v-174h-668q0 14 -1 43t-1 45q0 119 59.5 185t210.5 100q116 27 155.5 54t39.5 71q0 82 -111 82z" />
    <glyph glyph-name="three.numr" horiz-adv-x="729" 
d="M365 639q-309 0 -336 231l190 31q8 -53 42 -79.5t108 -26.5q120 0 120 79q0 39 -25.5 57.5t-90.5 18.5h-103v127h103q55 0 79.5 19t24.5 57q0 41 -26.5 60.5t-85.5 19.5q-67 0 -97 -25t-41 -78l-184 37q47 222 319 222q153 0 230.5 -51t77.5 -148q0 -69 -43 -108
t-135 -54v-22q108 -10 153 -47.5t45 -112.5q0 -98 -81.5 -152.5t-243.5 -54.5z" />
    <glyph glyph-name="four.numr" horiz-adv-x="749" 
d="M717 811h-90v-156h-193v156h-409v127l348 434h254v-411h90v-150zM434 961v280l-8 2l-231 -295l2 -4q143 17 237 17z" />
    <glyph glyph-name="five.numr" horiz-adv-x="741" 
d="M377 791q125 0 125 88q0 86 -125 86q-92 0 -148 -35l-155 55v387h579v-174q-205 0 -405 16v-159q77 43 192 43q128 0 192 -59.5t64 -159.5q0 -238 -325 -238q-294 0 -336 203l190 33q33 -86 152 -86z" />
    <glyph glyph-name="six.numr" horiz-adv-x="757" 
d="M391 975q-141 0 -141 -88q0 -41 34 -66.5t105 -25.5q129 0 129 92q0 88 -127 88zM231 967v-11l15 -4q50 133 223 133q112 0 178 -48.5t66 -153.5q0 -117 -83.5 -180.5t-246.5 -63.5q-79 0 -139.5 19t-107 61.5t-71 116.5t-24.5 178q0 167 86 271t262 104q104 0 168 -26
t95 -73.5t44 -126.5l-188 -26q-13 48 -39.5 71t-81.5 23q-87 0 -121.5 -60.5t-34.5 -203.5z" />
    <glyph glyph-name="seven.numr" horiz-adv-x="679" 
d="M23 1202v170h634v-170q-220 -220 -235 -547h-223q14 336 301 562q-131 -15 -230 -15h-247z" />
    </font>
</defs>
</svg>
