<?xml version="1.0" standalone="no"?>
<!DOCTYPE svg PUBLIC "-//W3C//DTD SVG 1.1//EN" "http://www.w3.org/Graphics/SVG/1.1/DTD/svg11.dtd" >
<svg xmlns="http://www.w3.org/2000/svg" xmlns:xlink="http://www.w3.org/1999/xlink" version="1.1">
<metadata>
Created by FontForge 20170731 at Tue Mar  1 01:18:55 2022
 By Aleksey,,,
(c) Copyright OH no Type Company, LLC. 2020. All rights reserved.
</metadata>
<defs>
<font id="Degular-LightItalic" horiz-adv-x="1089" >
  <font-face 
    font-family="Degular Light Italic"
    font-weight="300"
    font-style="italic"
    font-stretch="normal"
    units-per-em="2048"
    panose-1="4 4 3 6 6 3 3 11 3 5"
    ascent="1372"
    descent="-676"
    x-height="948"
    cap-height="1229"
    bbox="-641 -430 2636 1845"
    underline-thickness="102"
    underline-position="-446"
    unicode-range="U+0020-FB02"
  />
<missing-glyph horiz-adv-x="1751" 
d="M745 43q42 0 75.5 1.5t65 6.5t51 8.5t58.5 12t62 12.5q0 173 44.5 287t106.5 176l21 -23q-32 -72 -64 -237q128 72 194 191t66 302q0 259 -130 392t-392 133q-208 0 -339 -103.5t-161 -271.5q12 2 37 2q111 0 165 -67.5t54 -164.5q0 -59 -22.5 -105.5t-58.5 -73
t-76.5 -40.5t-81.5 -14h-21q3 -82 6.5 -201t4.5 -157q139 -66 335 -66zM745 -68q-282 0 -428 131q-9 253 15 422q-59 26 -94 80.5t-35 130.5q0 71 33.5 127t93.5 84q3 218 158.5 356t422.5 138q302 0 456.5 -157.5t154.5 -446.5q0 -141 -36.5 -257t-122 -208t-214.5 -135
q-19 -144 -19 -179q-138 -86 -385 -86zM944 936q113 0 174.5 -67t61.5 -162q0 -109 -77 -183.5t-177 -74.5t-167 66.5t-67 178.5q0 98 65.5 170t186.5 72z" />
    <glyph glyph-name=".notdef" horiz-adv-x="1751" 
d="M745 43q42 0 75.5 1.5t65 6.5t51 8.5t58.5 12t62 12.5q0 173 44.5 287t106.5 176l21 -23q-32 -72 -64 -237q128 72 194 191t66 302q0 259 -130 392t-392 133q-208 0 -339 -103.5t-161 -271.5q12 2 37 2q111 0 165 -67.5t54 -164.5q0 -59 -22.5 -105.5t-58.5 -73
t-76.5 -40.5t-81.5 -14h-21q3 -82 6.5 -201t4.5 -157q139 -66 335 -66zM745 -68q-282 0 -428 131q-9 253 15 422q-59 26 -94 80.5t-35 130.5q0 71 33.5 127t93.5 84q3 218 158.5 356t422.5 138q302 0 456.5 -157.5t154.5 -446.5q0 -141 -36.5 -257t-122 -208t-214.5 -135
q-19 -144 -19 -179q-138 -86 -385 -86zM944 936q113 0 174.5 -67t61.5 -162q0 -109 -77 -183.5t-177 -74.5t-167 66.5t-67 178.5q0 98 65.5 170t186.5 72z" />
    <glyph glyph-name=".null" horiz-adv-x="0" 
 />
    <glyph glyph-name="nonmarkingreturn" horiz-adv-x="682" 
 />
    <glyph glyph-name="space" unicode=" " horiz-adv-x="413" 
 />
    <glyph glyph-name="exclam" unicode="!" horiz-adv-x="475" 
d="M285 426h-113l141 803h113zM98 168h170l-30 -168h-168z" />
    <glyph glyph-name="quotedbl" unicode="&#x22;" horiz-adv-x="630" 
d="M246 1229h121l-119 -539h-64zM530 1229h121l-119 -539h-63z" />
    <glyph glyph-name="numbersign" unicode="#" horiz-adv-x="1392" 
d="M858 0h-88l61 352h-335l-66 -352h-88l61 352h-356l19 105h356l57 327h-356l18 105h357l59 340h98l-61 -340h330l57 340h96l-61 -340h377l-19 -105h-377l-57 -327h375l-19 -105h-374zM500 444h358l64 353h-357z" />
    <glyph glyph-name="dollar" unicode="$" horiz-adv-x="1114" 
d="M698 1462h105l-51 -229q300 -39 321 -350l-117 -23q-8 141 -76.5 211t-230.5 70q-290 0 -323 -197q-11 -47 -1 -87t42.5 -73t97.5 -61t164 -51q122 -28 202 -66.5t119.5 -86.5t51 -106.5t-2.5 -127.5q-24 -137 -139 -217t-319 -80h-6l-35 -242h-105l54 246
q-201 21 -300 128.5t-96 280.5l113 13q5 -159 94.5 -242.5t284.5 -83.5q306 0 344 215q20 112 -44 168.5t-255 99.5q-231 53 -315 144t-58 241q22 129 136.5 206t303.5 77h11z" />
    <glyph glyph-name="percent" unicode="%" horiz-adv-x="1490" 
d="M422 571q-150 0 -221.5 100.5t-40.5 264.5q26 148 120.5 230.5t231.5 82.5q149 0 220 -98.5t42 -261.5q-26 -148 -121 -233t-231 -85zM426 659q105 0 171 66.5t87 185.5q22 115 -25.5 182.5t-150.5 67.5q-105 0 -171.5 -63.5t-86.5 -179.5q-21 -119 25.5 -189t150.5 -70z
M1032 -20q-150 0 -222.5 101.5t-41.5 264.5q26 146 120.5 228.5t231.5 82.5q149 0 220 -98t42 -260q-26 -150 -120.5 -234.5t-229.5 -84.5zM1034 68q105 0 171.5 66t88.5 185q20 116 -27.5 183t-150.5 67q-104 0 -171 -63.5t-87 -179.5q-21 -119 25.5 -188.5t150.5 -69.5z
M1329 1229h137l-2 -12l-585 -527l-43 45zM221 0h-137v12l588 527l43 -45z" />
    <glyph glyph-name="ampersand" unicode="&#x26;" horiz-adv-x="1357" 
d="M492 932q-18 -110 12 -238q196 49 293.5 112.5t115.5 164.5q15 81 -28 133.5t-146 52.5q-206 0 -247 -225zM1245 94l-14 -100q-49 -8 -105 -8q-193 0 -364 125q-178 -131 -397 -131q-168 0 -258 102.5t-62 263.5q22 125 111 196.5t252 123.5q-41 155 -19 284
q26 155 121.5 227t230.5 72q107 0 176 -42t92 -105.5t9 -138.5q-8 -44 -29.5 -83t-49 -68t-69.5 -55t-79.5 -43t-89.5 -34.5t-89.5 -27.5t-89.5 -23q39 -119 112.5 -227.5t170.5 -184.5q255 227 346 516l100 -10q-44 -155 -149.5 -299.5t-245.5 -243.5q141 -90 293 -90
q34 0 96 4zM387 76q166 0 318 82q-96 87 -168 203t-111 241q-125 -38 -191 -101t-83 -161q-21 -114 43.5 -189t191.5 -75z" />
    <glyph glyph-name="quotesingle" unicode="'" horiz-adv-x="348" 
d="M246 1229h121l-119 -539h-64z" />
    <glyph glyph-name="parenleft" unicode="(" horiz-adv-x="669" 
d="M262 551q-30 -177 -26.5 -332t56 -303t157.5 -281l-70 -59q-332 378 -227 989q45 261 180.5 482t378.5 417l57 -63q-225 -195 -343.5 -398t-162.5 -452z" />
    <glyph glyph-name="parenright" unicode=")" horiz-adv-x="669" 
d="M408 489q30 177 26.5 332t-56 303t-157.5 281l70 59q332 -378 227 -989q-45 -261 -180.5 -482t-378.5 -417l-57 64q225 195 343.5 397.5t162.5 451.5z" />
    <glyph glyph-name="asterisk" unicode="*" horiz-adv-x="1017" 
d="M606 1372h123l-94 -373h-62zM129 987l43 111l330 -144l-27 -55zM279 469l-89 78l291 278l43 -34zM852 530l-102 -61l-144 322l49 30zM1051 1098l26 -115l-381 -88l-12 55z" />
    <glyph glyph-name="plus" unicode="+" horiz-adv-x="1013" 
d="M399 180l68 393h-379l16 103h381l68 385h113l-68 -385h381l-18 -103h-381l-70 -393h-111z" />
    <glyph glyph-name="comma" unicode="," horiz-adv-x="329" 
d="M92 227h117l-297 -540h-84l2 12z" />
    <glyph glyph-name="hyphen" unicode="-" horiz-adv-x="716" 
d="M61 549h619l-18 -109h-619z" />
    <glyph glyph-name="period" unicode="." horiz-adv-x="360" 
d="M41 168h170l-31 -168h-168z" />
    <glyph glyph-name="slash" unicode="/" horiz-adv-x="624" 
d="M14 -309h-114l727 1624h112z" />
    <glyph glyph-name="zero" unicode="0" horiz-adv-x="1153" 
d="M694 1149q-193 0 -316.5 -143.5t-166.5 -387.5q-25 -160 -7.5 -279.5t95.5 -189t209 -69.5q98 0 180 39.5t141 111.5t99 169t61 216q25 159 7 277.5t-95 187t-207 68.5zM696 1251q126 0 217 -48.5t138.5 -135.5t62 -207t-13.5 -264q-49 -283 -204.5 -451t-391.5 -168
q-127 0 -218.5 49.5t-138.5 137t-61 208.5t14 265q51 282 207 448t389 166z" />
    <glyph glyph-name="one" unicode="1" horiz-adv-x="925" 
d="M764 0h-754l19 102h362l180 1022q-142 -60 -362 -141l-25 100l453 146h65l-198 -1127h278z" />
    <glyph glyph-name="two" unicode="2" horiz-adv-x="1144" 
d="M727 1151q-163 0 -269 -97.5t-169 -293.5l-105 24q150 465 549 465q202 0 300.5 -104t68.5 -273q-11 -65 -42 -118t-73.5 -91.5t-109.5 -73.5t-134 -60t-163 -54q-166 -52 -252.5 -99t-132.5 -113t-68 -177q205 14 444 14h418l-16 -100h-963l13 80q18 104 56 179.5
t103.5 132t151 96t211.5 77.5q231 70 328 137t118 183q21 119 -45 192.5t-219 73.5z" />
    <glyph glyph-name="three" unicode="3" horiz-adv-x="1130" 
d="M539 -20q-239 0 -358 107t-122 312l111 17q6 -338 373 -338q158 0 253 65.5t117 184.5q23 129 -37.5 187t-246.5 58h-209l16 95h201q121 0 208 55.5t109 173.5q43 254 -254 254q-147 0 -239 -76t-150 -225l-104 18q136 381 504 381q199 0 290 -93.5t62 -262.5
q-20 -110 -92.5 -172.5t-200.5 -89.5l-4 -19q166 -21 222.5 -95t33.5 -208q-28 -157 -149.5 -243t-333.5 -86z" />
    <glyph glyph-name="four" unicode="4" horiz-adv-x="1175" 
d="M1100 311h-203l-55 -311h-113l55 311h-761l16 95l897 823h123l-146 -819h205zM551 410h250l123 688l-11 2l-747 -690l6 -19q237 19 379 19z" />
    <glyph glyph-name="five" unicode="5" horiz-adv-x="1161" 
d="M561 78q317 0 361 272q23 147 -47 219t-240 72q-97 0 -193 -25t-153 -63l-90 37l112 639h811l-18 -105q-361 0 -705 17l-90 -510q156 102 346 102q215 0 311.5 -104t65.5 -293q-29 -178 -152 -267t-321 -89q-415 0 -508 350l107 35q36 -137 137.5 -212t265.5 -75z" />
    <glyph glyph-name="six" unicode="6" horiz-adv-x="1140" 
d="M635 664q-189 0 -301.5 -77t-132.5 -192q-15 -83 16.5 -154.5t112 -117t196.5 -45.5q332 0 385 284q26 147 -47.5 224.5t-228.5 77.5zM1024 352q-31 -176 -161.5 -274t-332.5 -98q-98 0 -174.5 23t-136 73t-91.5 127.5t-39 187t20 252.5q106 606 596 606q194 0 291 -102
t100 -279l-111 -12q-8 145 -78 220t-213 75q-204 0 -323 -134t-170 -421q-13 -70 -21 -127h17q58 137 176 211t289 74q88 0 160.5 -24t124.5 -71.5t73.5 -126.5t3.5 -180z" />
    <glyph glyph-name="seven" unicode="7" horiz-adv-x="1048" 
d="M143 1124l19 105h997l-18 -105q-279 -236 -457.5 -522.5t-261.5 -601.5h-131q80 306 275.5 610t469.5 533q-260 -19 -458 -19h-435z" />
    <glyph glyph-name="eight" unicode="8" horiz-adv-x="1128" 
d="M500 -20q-260 0 -368 93.5t-79 260.5q19 108 111.5 182.5t275.5 93.5l4 23q-130 28 -187.5 108t-33.5 207q26 140 140 220.5t317 80.5q221 0 318.5 -92.5t70.5 -251.5q-39 -219 -330 -274l-4 -21q74 -9 129.5 -30.5t88 -51.5t52 -67.5t21.5 -79t-4 -86.5
q-57 -315 -522 -315zM582 573q-109 0 -189.5 -21t-126.5 -58.5t-70 -78t-32 -89.5q-21 -119 64.5 -183.5t275.5 -64.5q364 0 407 237q8 31 4.5 62t-12.5 59.5t-34.5 53.5t-61.5 43.5t-94 29t-131 10.5zM674 1151q-300 0 -346 -242q-12 -63 3 -111t53 -77t91.5 -43.5
t122.5 -15.5q142 2 239 62t119 183q20 114 -48 179t-234 65z" />
    <glyph glyph-name="nine" unicode="9" horiz-adv-x="1150" 
d="M555 571q188 0 305.5 80.5t136.5 192.5q24 131 -63 218t-266 87q-171 0 -265.5 -76.5t-117.5 -206.5q-27 -150 45 -222.5t225 -72.5zM492 -20q-217 0 -319 95.5t-110 276.5l109 17q6 -144 82.5 -217.5t237.5 -73.5q202 0 325 142.5t174 430.5q9 45 17 107l-21 2
q-56 -133 -170 -206t-287 -73q-87 0 -157.5 23t-122.5 69.5t-73 125.5t-3 182q30 169 157 268.5t337 99.5q99 0 175.5 -20.5t136 -66.5t90 -119t39 -178t-18.5 -244q-26 -146 -70 -258.5t-114 -201t-174.5 -135t-239.5 -46.5z" />
    <glyph glyph-name="colon" unicode=":" horiz-adv-x="391" 
d="M131 948h170l-31 -168h-168zM55 168h170l-30 -168h-168z" />
    <glyph glyph-name="semicolon" unicode=";" horiz-adv-x="395" 
d="M109 227h116l-297 -540h-84l2 12zM131 948h170l-31 -168h-168z" />
    <glyph glyph-name="less" unicode="&#x3c;" horiz-adv-x="1060" 
d="M874 39l-804 434l18 107l959 434l-23 -129l-418 -172q-227 -93 -436 -166l-10 -51q215 -81 379 -164l358 -174z" />
    <glyph glyph-name="equal" unicode="=" horiz-adv-x="1077" 
d="M963 401h-873l16 99h873zM1020 737h-873l19 99h872z" />
    <glyph glyph-name="greater" unicode="&#x3e;" horiz-adv-x="1060" 
d="M12 41l21 129l418 172q227 93 436 166l10 51q-219 84 -377 164l-358 174l22 119l805 -434l-18 -107z" />
    <glyph glyph-name="question" unicode="?" horiz-adv-x="989" 
d="M678 567q-58 -24 -94.5 -58.5t-49.5 -62.5t-20 -65q0 -9 -4 -21h-107q0 3 1.5 11.5t1.5 11.5q18 93 69.5 155.5t157.5 112.5q134 59 187.5 107.5t70.5 136.5q21 117 -46.5 185.5t-219.5 68.5q-301 0 -416 -373l-109 19q138 454 533 454q201 0 299.5 -99t68.5 -265
q-11 -63 -41 -114.5t-76.5 -89t-94 -63t-111.5 -51.5zM338 168h170l-31 -168h-168z" />
    <glyph glyph-name="at" unicode="@" horiz-adv-x="1703" 
d="M791 -229q-345 0 -523 162t-178 507q0 147 39 284t116 254t185 204t254.5 136.5t314.5 49.5q141 0 253.5 -34.5t187 -93.5t124.5 -142.5t71.5 -177t21.5 -201.5q0 -122 -23 -221.5t-61.5 -167t-91 -113.5t-110 -67t-120.5 -21q-220 0 -213 225q0 10 2.5 31.5t3.5 32.5
h-10q-57 -145 -130 -217t-175 -72q-104 0 -164.5 72t-60.5 221q0 146 43 266t129.5 193t200.5 73q91 0 146 -50.5t71 -135.5h10l33 178h98l-94 -524q-34 -205 125 -205q56 0 106.5 27.5t93 83.5t68 153t25.5 224q0 569 -574 569q-148 0 -276 -44t-221.5 -121.5t-160.5 -182
t-100.5 -227.5t-33.5 -255q0 -305 152 -445t454 -140q99 0 220.5 25.5t201.5 62.5h20l-4 -84q-195 -92 -446 -92zM1083 655q17 98 -34.5 153.5t-159.5 55.5q-131 0 -207 -122.5t-76 -315.5q0 -207 154 -207q114 0 197.5 106t111.5 257z" />
    <glyph glyph-name="A" unicode="A" horiz-adv-x="1171" 
d="M967 0l-90 393h-601l-227 -393h-127l725 1229h144l290 -1229h-114zM418 639l-88 -152h524l-35 152q-65 292 -92 485h-45q-107 -209 -264 -485z" />
    <glyph glyph-name="B" unicode="B" horiz-adv-x="1146" 
d="M670 569h-381l-84 -471h407q144 0 225 62t101 172q21 114 -41 175.5t-227 61.5zM748 1128h-361l-82 -462h354q272 0 314 233q42 229 -225 229zM74 0l217 1229h461q193 0 276.5 -87t56.5 -239q-20 -114 -94.5 -183t-193.5 -91l-2 -19q151 -19 214 -92t40 -207
q-26 -146 -137 -228.5t-314 -82.5h-524z" />
    <glyph glyph-name="C" unicode="C" horiz-adv-x="1275" 
d="M590 -23q-191 0 -313.5 86t-164.5 235t-8 345q52 286 224 447t436 161q231 0 355.5 -124.5t129.5 -331.5l-110 -17q-9 185 -103.5 277t-281.5 92q-222 0 -358.5 -136.5t-180.5 -383.5q-44 -252 51 -398.5t328 -146.5q192 0 311.5 97.5t186.5 287.5l104 -27
q-155 -463 -606 -463z" />
    <glyph glyph-name="D" unicode="D" horiz-adv-x="1290" 
d="M692 1128h-305l-180 -1028h342q486 0 575 504q47 264 -56 394t-376 130zM76 0l215 1229h426q312 0 442 -169t74 -476q-49 -283 -230.5 -435.5t-457.5 -150.5z" />
    <glyph glyph-name="E" unicode="E" horiz-adv-x="1077" 
d="M76 0l217 1229h803l-19 -105h-688l-78 -444h611l-19 -105h-610l-84 -471h688l-18 -104h-803z" />
    <glyph glyph-name="F" unicode="F" horiz-adv-x="1003" 
d="M860 539h-577l-95 -539h-114l217 1229h768l-19 -107h-653l-86 -479h578z" />
    <glyph glyph-name="G" unicode="G" horiz-adv-x="1312" 
d="M563 -20q-263 0 -387.5 181.5t-69.5 491.5q52 287 217.5 441.5t438.5 154.5q232 0 355 -119.5t132 -332.5l-110 -21q-12 191 -106 281t-275 90q-238 0 -367.5 -127t-173.5 -377q-46 -262 46.5 -411.5t330.5 -149.5q97 0 176 21t134 57t95.5 87t63 106.5t33.5 119.5l6 31
h-438l18 102h545l-107 -606h-106l49 285h-12q-66 -137 -187.5 -221t-300.5 -84z" />
    <glyph glyph-name="H" unicode="H" horiz-adv-x="1302" 
d="M1059 0h-115l98 561h-755l-99 -561h-114l217 1229h115l-101 -563h756l100 563h115z" />
    <glyph glyph-name="I" unicode="I" horiz-adv-x="432" 
d="M188 0h-114l217 1229h115z" />
    <glyph glyph-name="J" unicode="J" horiz-adv-x="618" 
d="M313 295l164 934h115l-164 -932q-56 -313 -328 -313q-82 0 -151 14l20 102q68 -12 129 -12q93 0 144.5 52t70.5 155z" />
    <glyph glyph-name="K" unicode="K" horiz-adv-x="1130" 
d="M913 0l-524 535h-106l-95 -535h-114l217 1229h115l-105 -594h90l692 594h136l-2 -23l-738 -618l565 -565l-4 -23h-127z" />
    <glyph glyph-name="L" unicode="L" horiz-adv-x="925" 
d="M406 1229l-199 -1125h606l-18 -104h-721l217 1229h115z" />
    <glyph glyph-name="M" unicode="M" horiz-adv-x="1597" 
d="M305 672l-119 -672h-110l217 1229h196l154 -635q18 -81 82 -401h39q160 294 223 403l385 633h201l-217 -1229h-115l119 672q16 88 88 458h-43q-132 -259 -264 -479l-353 -571h-131l-143 579q-44 180 -94 471h-35q-18 -120 -80 -458z" />
    <glyph glyph-name="N" unicode="N" horiz-adv-x="1294" 
d="M899 0l-317 696q-86 183 -166 424l-49 -2q-23 -219 -88 -602l-93 -516h-110l217 1229h168l282 -617q127 -280 195 -483h45q30 271 84 584l90 516h113l-217 -1229h-154z" />
    <glyph glyph-name="O" unicode="O" horiz-adv-x="1349" 
d="M616 -23q-198 0 -327 89t-173.5 240.5t-9.5 346.5q48 274 224.5 436t451.5 162q195 0 324 -88t175 -239.5t11 -345.5q-49 -274 -225 -437.5t-451 -163.5zM618 82q236 0 378.5 136.5t185.5 377.5q15 95 11.5 177.5t-33.5 151.5t-79.5 118t-127 76.5t-175.5 27.5
q-234 0 -376.5 -135t-184.5 -375q-15 -95 -12 -178.5t32 -153t78 -119t126.5 -77t176.5 -27.5z" />
    <glyph glyph-name="P" unicode="P" horiz-adv-x="1058" 
d="M715 1128h-328l-94 -534h332q157 0 238 58.5t106 189.5q25 150 -33.5 218t-220.5 68zM623 494h-349l-86 -494h-114l217 1229h436q206 0 296 -104t56 -298q-28 -161 -145 -247t-311 -86z" />
    <glyph glyph-name="Q" unicode="Q" horiz-adv-x="1351" 
d="M618 82q236 0 378.5 136.5t185.5 377.5q15 95 11.5 177.5t-33.5 151.5t-79.5 118t-127 76.5t-175.5 27.5q-234 0 -376.5 -135t-184.5 -375q-15 -95 -12 -178.5t32 -153t78 -119t126.5 -77t176.5 -27.5zM616 -23q-198 0 -327 89t-173.5 240.5t-9.5 346.5q48 274 224.5 436
t451.5 162q195 0 324 -88t175 -239.5t11 -345.5q-31 -173 -114 -305t-213 -207l108 -246l-4 -23h-115l-88 221q-112 -41 -250 -41z" />
    <glyph glyph-name="R" unicode="R" horiz-adv-x="1191" 
d="M729 1128h-340l-88 -495h340q147 0 240 60t114 175q23 130 -38 195t-228 65zM905 0l-305 532h-315l-95 -532h-114l217 1229h444q221 0 310 -99t57 -278q-23 -132 -124.5 -215t-262.5 -100l311 -514l-4 -23h-119z" />
    <glyph glyph-name="S" unicode="S" horiz-adv-x="1116" 
d="M541 -23q-248 0 -369.5 113t-118.5 311l113 13q3 -163 93 -248.5t286 -85.5q306 0 344 215q20 115 -43.5 174t-253.5 102q-232 52 -316.5 145.5t-58.5 246.5q24 131 137.5 209.5t300.5 78.5q109 0 188.5 -26.5t127.5 -77t72.5 -115.5t29.5 -149l-117 -23
q-8 146 -77 218.5t-234 72.5q-146 0 -225.5 -53.5t-95.5 -149.5q-20 -101 46.5 -166.5t258.5 -109.5q122 -28 202 -67.5t119 -88.5t51.5 -109.5t-2.5 -130.5q-24 -137 -139 -218t-319 -81z" />
    <glyph glyph-name="T" unicode="T" horiz-adv-x="1036" 
d="M147 1122l19 107h969l-19 -107h-428l-196 -1122h-115l196 1122h-426z" />
    <glyph glyph-name="U" unicode="U" horiz-adv-x="1282" 
d="M594 82q189 0 285 97.5t127 281.5l137 768h112l-137 -783q-41 -236 -171 -351t-355 -115q-250 0 -362.5 127t-71.5 364l133 758h115l-134 -756q-10 -67 -10 -126t20.5 -108t58 -83.5t101.5 -54t152 -19.5z" />
    <glyph glyph-name="V" unicode="V" horiz-adv-x="1171" 
d="M573 0h-143l-291 1229h115l145 -639q73 -325 95 -486h45q111 218 266 486l369 639h122z" />
    <glyph glyph-name="W" unicode="W" horiz-adv-x="1699" 
d="M684 510l-235 -510h-177l-125 1229h123l49 -623q27 -378 33 -504h56q18 44 51 125.5t52.5 129.5t49 117t57.5 130l287 625h152l65 -625q26 -271 37 -502h53q84 222 207 504l271 623h127l-557 -1229h-179l-55 510q-38 404 -43 606h-41q-123 -308 -258 -606z" />
    <glyph glyph-name="X" unicode="X" horiz-adv-x="1126" 
d="M897 0l-311 563h-19l-497 -563h-121l4 23l553 595l-338 588l4 23h113l295 -551h26l488 551h123l-5 -23l-548 -588l348 -595l-4 -23h-111z" />
    <glyph glyph-name="Y" unicode="Y" horiz-adv-x="1071" 
d="M508 0h-113l76 434l-342 772l4 23h113l286 -703h19l530 703h121l-4 -23l-612 -776z" />
    <glyph glyph-name="Z" unicode="Z" horiz-adv-x="1138" 
d="M975 106l-19 -106h-966l20 106l1010 1027l-4 12q-269 -23 -451 -23h-350l18 107h941l-19 -103l-1018 -1032l4 -10q288 22 492 22h342z" />
    <glyph glyph-name="bracketleft" unicode="[" horiz-adv-x="569" 
d="M-4 -381l317 1794h365l-19 -98h-251l-281 -1596h252l-19 -100h-364z" />
    <glyph glyph-name="backslash" unicode="\" horiz-adv-x="624" 
d="M354 -309l-153 1624h102l158 -1624h-107z" />
    <glyph glyph-name="bracketright" unicode="]" horiz-adv-x="569" 
d="M-92 -381l18 98h250l283 1596h-252l18 100h365l-318 -1794h-364z" />
    <glyph glyph-name="asciicircum" unicode="^" horiz-adv-x="1015" 
d="M889 514l-291 440l-451 -440l-53 49l484 496h65l311 -496z" />
    <glyph glyph-name="underscore" unicode="_" horiz-adv-x="942" 
d="M-84 0h942l-16 -98h-942z" />
    <glyph glyph-name="grave" unicode="`" horiz-adv-x="610" 
d="M641 1077l-448 240l55 92l424 -272z" />
    <glyph glyph-name="a" unicode="a" horiz-adv-x="1095" 
d="M436 78q146 0 251 88.5t142 239.5l9 49l14 75q19 153 -58.5 246.5t-228.5 93.5q-310 0 -377 -387q-72 -405 248 -405zM82 502q38 223 158.5 346t298.5 121q160 1 240 -79t91 -216l7 4l49 270h108l-168 -948h-108l45 260l-2 -2v12q-55 -131 -162.5 -212t-249.5 -81
q-188 0 -269.5 138t-37.5 387z" />
    <glyph glyph-name="b" unicode="b" horiz-adv-x="1097" 
d="M541 76q296 0 366 385q37 206 -26 306.5t-226 100.5q-149 0 -254 -91t-139 -247l-16 -96v2q-28 -161 52 -260.5t243 -99.5zM401 1315l-110 -625h10q58 128 155.5 203.5t237.5 75.5q196 0 280 -135t40 -383q-39 -226 -160 -350t-295 -124q-152 0 -237 77.5t-99 205.5h-8
l-47 -260h-109l234 1315h108z" />
    <glyph glyph-name="c" unicode="c" horiz-adv-x="1044" 
d="M881 610q-6 130 -70 195t-211 65q-165 0 -272 -98t-140 -291q-33 -185 43 -294t248 -109q76 0 135 19.5t101 59t70 83t57 106.5l96 -31q-68 -167 -182 -252.5t-287 -85.5q-222 0 -325 143.5t-64 377.5q38 223 179.5 347t342.5 124q372 0 385 -340z" />
    <glyph glyph-name="d" unicode="d" horiz-adv-x="1095" 
d="M436 78q146 0 251 87t140 236l11 54l14 80q17 152 -61 243.5t-230 91.5q-305 0 -375 -389q-35 -204 27 -303.5t223 -99.5zM758 0l45 258h-8q-57 -126 -163 -203.5t-243 -77.5q-189 0 -270 138t-37 387q39 227 159 348t300 119q150 1 230.5 -76t96.5 -207h11l110 629h109
l-232 -1315h-108z" />
    <glyph glyph-name="e" unicode="e" horiz-adv-x="1034" 
d="M602 874q-153 0 -257 -87t-148 -252h669q46 339 -264 339zM465 -20q-225 0 -327 138.5t-60 373.5q41 225 185 351t349 126q206 0 297.5 -120t55.5 -323q-4 -31 -17 -82h-768q-23 -174 52 -271t239 -97q140 0 221 63t133 178l93 -32q-128 -305 -453 -305z" />
    <glyph glyph-name="f" unicode="f" horiz-adv-x="712" 
d="M442 1016l-12 -68h334l-16 -98h-334l-150 -850h-108l149 850h-194l16 98h195l12 70q27 152 113.5 234.5t232.5 82.5q86 0 156 -16l-23 -92q-69 14 -137 14q-103 0 -158 -56.5t-76 -168.5z" />
    <glyph glyph-name="g" unicode="g" horiz-adv-x="1095" 
d="M453 147q151 0 256.5 88t130.5 232l12 63q20 152 -60 246t-235 94q-301 0 -362 -340q-67 -383 258 -383zM90 547q36 202 154.5 312t290.5 110q155 0 236 -76.5t97 -206.5h11l47 262h108l-151 -856q-76 -426 -480 -426q-186 0 -291.5 73t-129.5 212l104 24
q22 -101 96.5 -156.5t220.5 -56.5q92 1 158.5 24.5t109 70.5t67 106.5t40.5 142.5l33 193h-12q-57 -112 -159 -180t-234 -68q-189 0 -273.5 130t-42.5 366z" />
    <glyph glyph-name="h" unicode="h" 
d="M266 551l-98 -551h-109l234 1315h108l-108 -610h14q57 123 156 193.5t229 70.5q164 0 240.5 -100t46.5 -261l-107 -608h-108l104 596q22 124 -27 198t-179 74q-157 0 -264 -86t-132 -231z" />
    <glyph glyph-name="i" unicode="i" horiz-adv-x="448" 
d="M418 1165h-146l25 131h145zM195 0h-109l168 948h108z" />
    <glyph glyph-name="j" unicode="j" horiz-adv-x="473" 
d="M211 -41q-24 -138 -95.5 -215.5t-189.5 -77.5q-56 0 -102 8l22 99q44 -6 84 -6q140 0 172 190l174 989h109zM442 1165h-145l25 131h145z" />
    <glyph glyph-name="k" unicode="k" horiz-adv-x="958" 
d="M414 1315l-140 -795h99l489 428h133l-4 -22l-534 -449l417 -454l-2 -23h-122l-383 430h-109l-76 -430h-108l231 1315h109z" />
    <glyph glyph-name="l" unicode="l" horiz-adv-x="423" 
d="M414 1315l-232 -1315h-108l231 1315h109z" />
    <glyph glyph-name="m" unicode="m" horiz-adv-x="1794" 
d="M266 551l-98 -551h-109l168 948h107l-43 -243h16q59 125 157 194.5t230 69.5q145 0 217 -75.5t70 -207.5h16q54 133 152.5 208t243.5 75q166 0 242 -100.5t48 -262.5l-106 -606h-109l105 596q14 80 -0.5 139.5t-67.5 96t-143 36.5q-145 0 -248 -76t-137 -206l-105 -586
h-108l104 596q14 80 -0.5 139.5t-67.5 96t-143 36.5q-151 0 -258.5 -86.5t-132.5 -230.5z" />
    <glyph glyph-name="n" unicode="n" 
d="M266 551l-98 -551h-109l168 948h107l-43 -243h16q57 123 156.5 193.5t230.5 70.5q163 0 239 -100t46 -261l-107 -608h-108l104 596q22 124 -27 198t-179 74q-157 0 -264 -86t-132 -231z" />
    <glyph glyph-name="o" unicode="o" horiz-adv-x="1081" 
d="M477 -23q-226 0 -330.5 149.5t-62.5 387.5q39 222 177 338.5t341 116.5q216 0 326.5 -146.5t70.5 -378.5q-40 -224 -174.5 -345.5t-347.5 -121.5zM592 870q-163 0 -267.5 -96t-136.5 -276q-32 -190 43 -305t252 -115q168 0 273.5 101t136.5 284q33 185 -47.5 296
t-253.5 111z" />
    <glyph glyph-name="p" unicode="p" horiz-adv-x="1095" 
d="M537 76q303 0 370 387q75 405 -243 405q-149 0 -256 -87.5t-144 -239.5l-22 -125q-20 -153 61 -246.5t234 -93.5zM1014 449q-41 -230 -160.5 -351t-302.5 -121q-138 0 -223 78.5t-103 204.5h-10l-100 -573h-109l221 1261h109l-45 -258h10q57 128 154 203.5t235 75.5
q197 0 281 -136.5t43 -383.5z" />
    <glyph glyph-name="q" unicode="q" horiz-adv-x="1095" 
d="M440 76q143 0 248 90.5t141 239.5l23 133q19 152 -59.5 240.5t-229.5 88.5q-158 0 -250.5 -97t-126.5 -298q-73 -397 254 -397zM80 492q41 235 157.5 356t301.5 121q152 0 233.5 -77t95.5 -206l11 2l47 260h108l-227 -1290h-109l105 598h-8q-57 -127 -161.5 -203
t-244.5 -76q-187 0 -269.5 137.5t-39.5 377.5z" />
    <glyph glyph-name="r" unicode="r" horiz-adv-x="651" 
d="M168 0h-109l168 948h107l-43 -241h10q112 251 350 251h47l-20 -114h-41q-164 0 -255.5 -81t-123.5 -261z" />
    <glyph glyph-name="s" unicode="s" horiz-adv-x="919" 
d="M430 -23q-375 0 -399 322l106 16q4 -54 20.5 -95.5t49.5 -76t91 -53t138 -18.5q233 0 260 157q17 86 -40.5 131.5t-213.5 75.5q-169 33 -234.5 109.5t-45.5 195.5q21 107 110.5 167.5t241.5 60.5q169 0 248 -74.5t94 -206.5l-108 -20q-17 209 -240 209q-106 0 -168 -39.5
t-74 -110.5q-13 -75 39 -125t184 -74q185 -33 260.5 -110t53.5 -203q-18 -112 -111 -175t-262 -63z" />
    <glyph glyph-name="t" unicode="t" horiz-adv-x="708" 
d="M176 287l98 563h-163l16 98h166l49 281h109l-50 -281h338l-18 -98h-338l-100 -576q-36 -194 141 -194q70 0 158 24l4 -96q-108 -31 -178 -31q-141 0 -198.5 84.5t-33.5 225.5z" />
    <glyph glyph-name="u" unicode="u" 
d="M756 0l41 242h-15q-57 -123 -157 -194t-230 -71q-162 0 -238 100.5t-46 262.5l106 608h109l-105 -596q-22 -123 27.5 -197.5t179.5 -74.5q158 0 264 86t131 231l99 551h108l-168 -948h-106z" />
    <glyph glyph-name="v" unicode="v" horiz-adv-x="950" 
d="M457 0h-127l-244 948h113l86 -358q77 -324 104 -490h33q72 135 278 490l207 358h123z" />
    <glyph glyph-name="w" unicode="w" horiz-adv-x="1503" 
d="M897 948l55 -366q45 -306 56 -482h34q46 104 232 490l178 358h117l-488 -948h-143l-64 424q-28 197 -47 424h-26q-91 -219 -195 -424l-211 -424h-141l-156 948h109l55 -358q4 -27 14.5 -96.5t15.5 -104t12.5 -90.5t12 -103.5t7.5 -95.5h38q71 171 224 482l180 366h131z
" />
    <glyph glyph-name="x" unicode="x" horiz-adv-x="989" 
d="M741 0l-256 432l-393 -432h-119l4 23l451 464l-291 439l4 22h107l254 -416l391 416h117l-4 -22l-447 -451l291 -452l-4 -23h-105z" />
    <glyph glyph-name="y" unicode="y" horiz-adv-x="964" 
d="M14 -338q-63 0 -133 12l27 103q67 -13 115 -13q64 0 109.5 15.5t102.5 70.5t121 158l-266 940h117l82 -332q8 -32 37 -147.5t51 -207.5t37 -163h20q141 257 291 516l195 334h120l-589 -960q-107 -175 -207.5 -250.5t-229.5 -75.5z" />
    <glyph glyph-name="z" unicode="z" horiz-adv-x="978" 
d="M549 100h272l-18 -100h-803l18 102l811 758l-4 10q-236 -22 -438 -22h-219l16 100h777l-19 -102l-807 -758l4 -10q271 22 410 22z" />
    <glyph glyph-name="braceleft" unicode="{" horiz-adv-x="735" 
d="M526 -371q-99 -6 -127 -6q-145 0 -211.5 70t-44.5 186q10 55 49.5 115.5t81 105.5t80 101.5t47.5 103.5q15 90 -39 133t-180 43h-137l16 101h140q71 0 128.5 16.5t99.5 56t52 97.5q8 43 -1.5 92t-28 89t-36 90t-26.5 95.5t0 104.5q15 100 99 158.5t223 58.5q32 0 143 -6
l-20 -95q-43 2 -117 2q-104 0 -155.5 -35.5t-65.5 -115.5q-7 -40 1 -85t24.5 -82.5t32 -84t23 -90t-1.5 -100.5q-15 -88 -88 -138t-206 -69l-2 -19q132 -15 184 -71t33 -156q-10 -56 -46.5 -116t-75 -102.5t-74.5 -96.5t-44 -101q-14 -80 25.5 -119t140.5 -39q6 0 119 5z
" />
    <glyph glyph-name="bar" unicode="|" horiz-adv-x="407" 
d="M109 -360h-105l313 1779h105z" />
    <glyph glyph-name="braceright" unicode="}" horiz-adv-x="735" 
d="M37 -391q-26 0 -143 6l20 96q86 -4 117 -4q104 0 156.5 36t64.5 116q9 49 -5.5 106.5t-36 103t-35 110t-3.5 124.5q28 168 295 207l4 16q-133 15 -185.5 71t-33.5 157q10 56 46.5 116t75 102.5t74.5 96.5t44 100q14 80 -25.5 119t-140.5 39q-29 0 -119 -4l14 96
q105 6 127 6q145 0 211.5 -69t44.5 -187q-10 -55 -49.5 -115.5t-81 -105.5t-80 -101.5t-47.5 -103.5q-15 -90 39 -133t180 -43h140l-19 -100h-137q-110 0 -189.5 -42t-93.5 -126q-8 -44 1.5 -92t28 -91.5t36.5 -88.5t27.5 -97.5t0.5 -103.5q-18 -101 -101 -159t-222 -58z
" />
    <glyph glyph-name="asciitilde" unicode="~" horiz-adv-x="1077" 
d="M778 541q-73 0 -122 38.5t-74 93t-45.5 109t-53.5 93t-82 38.5q-83 0 -128 -84.5t-70 -279.5h-84q2 54 14 127q29 166 99 252t169 86q75 0 123.5 -38.5t72 -94t43.5 -110.5t53 -93.5t85 -38.5q163 0 205 365h80q-3 -66 -12 -121q-30 -164 -105 -253t-168 -89z" />
    <glyph glyph-name="uni00A0" unicode="&#xa0;" horiz-adv-x="368" 
 />
    <glyph glyph-name="exclamdown" unicode="&#xa1;" horiz-adv-x="475" 
d="M190 522h113l-141 -803h-113zM377 778h-170l31 170h168z" />
    <glyph glyph-name="cent" unicode="&#xa2;" horiz-adv-x="1036" 
d="M612 1192h103l-49 -236q156 -15 235.5 -101t85.5 -226l-106 -19q-6 125 -71.5 187.5t-213.5 62.5q-162 0 -268.5 -95.5t-141.5 -285.5q-31 -180 45 -285.5t248 -105.5q76 0 135.5 19t101.5 57t70 80t56 102l96 -31q-125 -314 -442 -325l-35 -244h-105l54 246
q-191 20 -279 156.5t-51 351.5q36 213 170.5 332.5t331.5 125.5z" />
    <glyph glyph-name="sterling" unicode="&#xa3;" horiz-adv-x="1095" 
d="M926 0h-924l18 100h209q46 99 68 219q11 69 8 152h-217l16 94h197q-1 10 -3 45t-2.5 49.5t-2 46t-0.5 51.5t2 48.5t4 55t8 52.5q30 160 127.5 248t263.5 88q83 0 147 -20t105 -54.5t68 -86t39 -109.5t14 -129l-106 -14q-8 162 -68 237.5t-201 75.5q-66 0 -117.5 -21
t-84 -59t-52 -82t-28.5 -98t-11 -119t-1 -97.5t6 -107.5h479l-19 -94h-454q0 -73 -11 -135q-23 -134 -86 -236h627z" />
    <glyph glyph-name="yen" unicode="&#xa5;" horiz-adv-x="1136" 
d="M1038 381h-430l-67 -381h-113l66 381h-433l17 92h407l-75 172h-301l16 94h244l-207 467l4 23h113l286 -703h19l530 703h121l-4 -23l-369 -467h240l-17 -94h-299l-135 -172h404z" />
    <glyph glyph-name="brokenbar" unicode="&#xa6;" horiz-adv-x="407" 
d="M111 -360h-105l137 780h105zM281 598h-107l145 821h107z" />
    <glyph glyph-name="section" unicode="&#xa7;" horiz-adv-x="1173" 
d="M492 -338q-240 0 -353 105.5t-121 312.5l111 14q5 -168 91 -252t274 -84q143 0 218 50t89 137q17 101 -44 159t-227 91q-270 56 -370.5 144t-73.5 228q23 125 213 219q-39 75 -20 191q22 123 123 198.5t278 75.5q105 0 180.5 -27t120.5 -80.5t69 -121t33 -158.5l-110 -12
q-13 153 -78 228t-215 75q-137 0 -210.5 -52t-86.5 -134q-8 -50 0 -88t38 -72t89.5 -59.5t151.5 -44.5q131 -27 216.5 -62.5t130 -81t57 -97.5t1.5 -120q-24 -124 -188 -213q51 -78 28 -201q-22 -123 -122.5 -195.5t-292.5 -72.5zM578 289q191 -42 270 -121q100 72 117 172
q20 110 -58 169t-301 105q-200 41 -280 134q-124 -81 -140 -173q-18 -105 66 -169t326 -117z" />
    <glyph glyph-name="dieresis" unicode="&#xa8;" horiz-adv-x="638" 
d="M193 1288h151l-27 -151h-151zM567 1288h152l-27 -151h-151z" />
    <glyph glyph-name="copyright" unicode="&#xa9;" horiz-adv-x="1851" 
d="M858 -96q663 0 782 663q21 133 17 248t-46 209t-114.5 161t-189.5 103.5t-269 36.5q-664 0 -782 -663q-21 -133 -17 -248t46 -209t114.5 -161t189.5 -103.5t269 -36.5zM1051 1419q140 0 254.5 -29.5t196.5 -84t140.5 -132t86 -173.5t33 -209t-18.5 -238
q-63 -355 -289 -549t-608 -194q-140 0 -254.5 29.5t-196.5 84t-140.5 132t-86 173.5t-33 209t18.5 238q63 355 289 549t608 194zM1221 717q2 122 -47 179.5t-170 57.5q-277 0 -330 -315q-30 -167 28 -262.5t203 -95.5q234 0 279 211l100 -11q-64 -297 -383 -297
q-189 0 -279.5 126t-52.5 341q33 192 148.5 295t290.5 103q162 0 243 -83.5t72 -240.5z" />
    <glyph glyph-name="ordfeminine" unicode="&#xaa;" horiz-adv-x="780" 
d="M373 735q109 0 189 61t97 154l3 13h-240q-165 0 -182 -107q-10 -55 20 -88t113 -33zM618 676l31 176h-10q-48 -94 -122.5 -145.5t-168.5 -51.5q-108 0 -163 55t-40 148q27 168 269 168h260l16 98q13 74 -22.5 120t-124.5 46q-84 0 -139 -36t-93 -109l-80 37
q102 192 316 192q137 0 197 -72.5t38 -193.5l-75 -432h-89z" />
    <glyph glyph-name="guillemotleft" unicode="&#xab;" horiz-adv-x="1239" 
d="M618 72h-104l-461 434l8 45l607 434h112l-6 -27l-604 -430l-2 -12l455 -424zM1096 72h-105l-461 434l9 45l606 434h112l-6 -27l-604 -430l-2 -12l455 -424z" />
    <glyph glyph-name="registered" unicode="&#xae;" horiz-adv-x="1855" 
d="M1055 940h-287l-55 -317h286q200 0 226 151q14 84 -23.5 125t-146.5 41zM1169 209l-235 332h-236l-59 -332h-107l146 819h391q156 0 219.5 -69.5t42.5 -194.5q-17 -98 -90.5 -154t-196.5 -67l244 -318l-2 -16h-117zM858 -96q663 0 782 663q21 133 17 248t-46 209
t-114.5 161t-189.5 103.5t-269 36.5q-664 0 -782 -663q-21 -133 -17 -248t46 -209t114.5 -161t189.5 -103.5t269 -36.5zM846 -190q-140 0 -254.5 29.5t-196.5 84t-140.5 132t-86 173.5t-33 209t18.5 238q63 355 289 549t608 194q140 0 254.5 -29.5t196.5 -84t140.5 -132
t86 -173.5t33 -209t-18.5 -238q-63 -355 -289 -549t-608 -194z" />
    <glyph glyph-name="macron" unicode="&#xaf;" horiz-adv-x="657" 
d="M184 1239h557l-16 -92h-557z" />
    <glyph glyph-name="degree" unicode="&#xb0;" horiz-adv-x="612" 
d="M549 1100q43 -59 24 -129t-90 -117q-76 -45 -137.5 -29.5t-97.5 84.5q-42 59 -23 128.5t90 119.5q74 44 136 28t98 -85zM303 930q25 -47 65.5 -53.5t88.5 32.5q94 85 39 170q-25 47 -66.5 53.5t-87.5 -30.5q-94 -84 -39 -172z" />
    <glyph glyph-name="twosuperior" unicode="&#xb2;" horiz-adv-x="753" 
d="M539 1311q-97 0 -158 -48.5t-98 -152.5l-84 23q92 256 344 256q139 0 207 -63t49 -169q-18 -92 -93.5 -137.5t-242.5 -87.5q-145 -38 -204 -81.5t-79 -127.5q187 14 291 14h266l-14 -82h-633q4 14 8 50q23 121 99.5 185.5t238.5 106.5q146 40 203.5 75t69.5 99
q11 64 -31.5 102t-138.5 38z" />
    <glyph glyph-name="threesuperior" unicode="&#xb3;" horiz-adv-x="743" 
d="M420 639q-148 0 -223 61t-80 172l86 15q6 -84 59 -126t164 -42q202 0 227 133q11 66 -28.5 96.5t-153.5 30.5h-121l12 70h121q178 0 199 127q12 68 -27.5 100.5t-134.5 32.5t-152.5 -40.5t-91.5 -121.5l-81 24q90 218 327 218q135 0 200 -56.5t50 -150.5
q-20 -133 -201 -158l-2 -16q104 -12 144 -55.5t28 -123.5q-34 -190 -321 -190z" />
    <glyph glyph-name="acute" unicode="&#xb4;" horiz-adv-x="610" 
d="M180 1075l-28 62l518 270l41 -88z" />
    <glyph glyph-name="paragraph" unicode="&#xb6;" horiz-adv-x="1275" 
d="M973 -338h-111l277 1567h110zM723 -338h-109l119 674h-160q-240 0 -357.5 127.5t-76.5 355.5q37 207 164 308.5t354 101.5h342z" />
    <glyph glyph-name="periodcentered" unicode="&#xb7;" horiz-adv-x="417" 
d="M141 582h170l-30 -168h-168z" />
    <glyph glyph-name="cedilla" unicode="&#xb8;" horiz-adv-x="464" 
d="M119 -344q-118 0 -203 59l49 68q68 -53 160 -53q97 0 111 61q6 32 -16 50t-68 18q-30 0 -93 -15l-47 25l99 176l67 -6l-88 -150q56 17 96 17q66 0 103 -30t26 -93q-9 -51 -58.5 -89t-137.5 -38z" />
    <glyph glyph-name="onesuperior" unicode="&#xb9;" horiz-adv-x="608" 
d="M608 655h-526l14 84h240l98 557q-105 -50 -237 -100l-23 80l311 100h54l-113 -637h197z" />
    <glyph glyph-name="ordmasculine" unicode="&#xba;" horiz-adv-x="778" 
d="M442 664q-162 0 -235.5 105.5t-42.5 279.5q27 151 127 238t239 87q153 0 230.5 -102.5t48.5 -270.5q-27 -156 -123.5 -246.5t-243.5 -90.5zM526 1290q-110 0 -181 -68t-93 -192q-24 -131 24.5 -208t167.5 -77q113 0 185 73t94 202q22 125 -30 197.5t-167 72.5z" />
    <glyph glyph-name="guillemotright" unicode="&#xbb;" horiz-adv-x="1245" 
d="M580 55h-113l6 27l602 430l2 12l-452 424l4 21h104l461 -434l-8 -46zM102 55h-112l6 27l602 430l2 12l-453 424l5 21h102l461 -434l-6 -46z" />
    <glyph glyph-name="onequarter" unicode="&#xbc;" horiz-adv-x="1519" 
d="M207 0h-137v12l587 527l43 -45zM1315 1229h137l-2 -12l-586 -527l-43 45zM608 655h-526l14 84h240l98 557q-105 -50 -237 -100l-23 80l311 100h54l-113 -637h197zM1020 115h125l65 379l-6 2l-428 -394l4 -6q148 19 240 19zM1348 35h-127l-31 -178h-90l30 178h-466l10 63
l522 475h119l-80 -458h125z" />
    <glyph glyph-name="onehalf" unicode="&#xbd;" horiz-adv-x="1497" 
d="M203 0h-137v12l587 527l43 -45zM1311 1229h137l-2 -12l-586 -527l-43 45zM608 655h-526l14 84h240l98 557q-105 -50 -237 -100l-23 80l311 100h54l-113 -637h197zM1135 512q-97 0 -158 -48.5t-98 -152.5l-84 23q92 256 344 256q139 0 207 -63t49 -169
q-18 -92 -93.5 -137.5t-242.5 -87.5q-145 -38 -204 -81.5t-79 -127.5q200 15 291 15h266l-14 -82h-633q4 15 8 49q23 121 100 186t238 107q146 40 203.5 75t69.5 99q11 64 -31.5 101.5t-138.5 37.5z" />
    <glyph glyph-name="threequarters" unicode="&#xbe;" horiz-adv-x="1542" 
d="M274 0h-137v12l588 527l43 -45zM1382 1229h138l-2 -12l-586 -527l-43 45zM1405 35h-127l-31 -178h-90l31 178h-467l10 63l522 475h119l-80 -458h125zM430 639q-148 0 -223 61t-80 172l86 15q6 -84 59 -126t164 -42q203 0 228 133q11 66 -29 96.5t-154 30.5h-121l13 70
h121q177 0 198 127q12 68 -27.5 100.5t-134.5 32.5t-152 -40.5t-91 -121.5l-82 24q90 218 327 218q135 0 200 -56.5t50 -150.5q-20 -133 -200 -158l-2 -16q104 -12 144 -55.5t28 -123.5q-34 -190 -322 -190zM1077 115h125l66 379l-6 2l-428 -394l4 -6q148 19 239 19z" />
    <glyph glyph-name="questiondown" unicode="&#xbf;" horiz-adv-x="989" 
d="M307 379q85 36 120 83t44 105q4 12 4 21h109q0 -11 -4 -23q-15 -93 -67.5 -155t-160.5 -113q-92 -42 -139 -72t-76.5 -71t-40.5 -101q-21 -119 45.5 -186.5t218.5 -67.5q160 0 260.5 96.5t157.5 276.5l107 -20q-62 -211 -193.5 -333t-337.5 -122q-201 0 -299.5 100
t-68.5 266q11 63 40.5 114t76 88t93.5 62.5t111 51.5zM647 778h-168l31 170h168z" />
    <glyph glyph-name="Agrave" unicode="&#xc0;" horiz-adv-x="1171" 
d="M967 0l-90 393h-601l-227 -393h-127l725 1229h144l290 -1229h-114zM905 1364l-504 147l43 99l488 -180zM418 639l-88 -152h524l-35 152q-65 292 -92 485h-45q-107 -209 -264 -485z" />
    <glyph glyph-name="Aacute" unicode="&#xc1;" horiz-adv-x="1171" 
d="M967 0l-90 393h-601l-227 -393h-127l725 1229h144l290 -1229h-114zM559 1364l-10 66l549 184l20 -105zM418 639l-88 -152h524l-35 152q-65 292 -92 485h-45q-107 -209 -264 -485z" />
    <glyph glyph-name="Acircumflex" unicode="&#xc2;" horiz-adv-x="1171" 
d="M967 0l-90 393h-601l-227 -393h-127l725 1229h144l290 -1229h-114zM985 1335l-211 183l-280 -183l-37 54l301 227h57l219 -227zM418 639l-88 -152h524l-35 152q-65 292 -92 485h-45q-107 -209 -264 -485z" />
    <glyph glyph-name="Atilde" unicode="&#xc3;" horiz-adv-x="1171" 
d="M967 0l-90 393h-601l-227 -393h-127l725 1229h144l290 -1229h-114zM598 1663q40 0 71.5 -16t49 -40.5t34.5 -53t30 -53t34 -40.5t47 -16q46 0 71.5 50t43.5 163h72q-1 -22 -11 -92q-18 -104 -66.5 -158.5t-113.5 -54.5q-45 0 -78 23t-52.5 55t-37 64.5t-42 55.5t-56.5 23
q-50 0 -75.5 -47t-43.5 -160h-72q3 46 9 88q18 104 66.5 156.5t119.5 52.5zM418 639l-88 -152h524l-35 152q-65 292 -92 485h-45q-107 -209 -264 -485z" />
    <glyph glyph-name="Adieresis" unicode="&#xc4;" horiz-adv-x="1171" 
d="M967 0l-90 393h-601l-227 -393h-127l725 1229h144l290 -1229h-114zM481 1520h152l-27 -152h-151zM856 1520h152l-27 -152h-152zM418 639l-88 -152h524l-35 152q-65 292 -92 485h-45q-107 -209 -264 -485z" />
    <glyph glyph-name="Aring" unicode="&#xc5;" horiz-adv-x="1171" 
d="M967 0l-90 393h-601l-227 -393h-127l725 1229h144l290 -1229h-114zM655 1536q-10 -60 16.5 -93.5t82.5 -33.5q54 0 90.5 31.5t46.5 89.5q10 60 -16.5 92.5t-83.5 32.5q-55 0 -91 -31.5t-45 -87.5zM975 1524q-15 -87 -78.5 -139t-155.5 -52q-95 0 -141 56.5t-29 150.5
q15 88 77.5 140.5t154.5 52.5q93 0 140 -57.5t32 -151.5zM418 639l-88 -152h524l-35 152q-65 292 -92 485h-45q-107 -209 -264 -485z" />
    <glyph glyph-name="AE" unicode="&#xc6;" horiz-adv-x="1732" 
d="M539 639l-164 -221h432l125 710h-43q-140 -205 -350 -489zM733 0l58 319h-490l-238 -319h-126l4 12l919 1217h893l-18 -105h-688l-78 -444h610l-18 -105h-611l-84 -471h688l-18 -104h-803z" />
    <glyph glyph-name="Ccedilla" unicode="&#xc7;" horiz-adv-x="1277" 
d="M590 -23q-26 0 -47 3l-54 -91q56 17 97 17q66 0 103 -30t26 -93q-9 -51 -59 -89t-138 -38q-118 0 -203 59l50 68q68 -53 159 -53q97 0 111 61q6 32 -16 50t-68 18q-29 0 -92 -15l-47 25l65 117q-152 24 -247 114t-126 228.5t0 314.5q52 286 224 447t436 161
q231 0 355.5 -124.5t129.5 -331.5l-110 -17q-9 185 -103.5 277t-281.5 92q-222 0 -358.5 -136.5t-180.5 -383.5q-44 -252 51 -398.5t328 -146.5q192 0 311.5 97.5t186.5 287.5l104 -27q-155 -463 -606 -463z" />
    <glyph glyph-name="Egrave" unicode="&#xc8;" horiz-adv-x="1077" 
d="M76 0l217 1229h803l-19 -105h-688l-78 -444h611l-19 -105h-610l-84 -471h688l-18 -104h-803zM887 1364l-504 147l43 99l487 -180z" />
    <glyph glyph-name="Eacute" unicode="&#xc9;" horiz-adv-x="1077" 
d="M76 0l217 1229h803l-19 -105h-688l-78 -444h611l-19 -105h-610l-84 -471h688l-18 -104h-803zM541 1364l-11 66l549 184l21 -105z" />
    <glyph glyph-name="Ecircumflex" unicode="&#xca;" horiz-adv-x="1077" 
d="M76 0l217 1229h803l-19 -105h-688l-78 -444h611l-19 -105h-610l-84 -471h688l-18 -104h-803zM969 1335l-211 183l-281 -183l-37 54l301 227h58l219 -227z" />
    <glyph glyph-name="Edieresis" unicode="&#xcb;" horiz-adv-x="1077" 
d="M76 0l217 1229h803l-19 -105h-688l-78 -444h611l-19 -105h-610l-84 -471h688l-18 -104h-803zM465 1520h151l-26 -152h-152zM840 1520h151l-26 -152h-152z" />
    <glyph glyph-name="Igrave" unicode="&#xcc;" horiz-adv-x="432" 
d="M188 0h-114l217 1229h115zM535 1364l-504 147l43 99l487 -180z" />
    <glyph glyph-name="Iacute" unicode="&#xcd;" horiz-adv-x="432" 
d="M188 0h-114l217 1229h115zM188 1364l-10 66l549 184l21 -105z" />
    <glyph glyph-name="Icircumflex" unicode="&#xce;" horiz-adv-x="432" 
d="M188 0h-114l217 1229h115zM616 1335l-210 183l-281 -183l-37 54l301 227h57l220 -227z" />
    <glyph glyph-name="Idieresis" unicode="&#xcf;" horiz-adv-x="432" 
d="M188 0h-114l217 1229h115zM111 1520h151l-26 -152h-152zM485 1520h152l-27 -152h-151z" />
    <glyph glyph-name="Eth" unicode="&#xd0;" horiz-adv-x="1363" 
d="M756 569h-391l-82 -469h342q486 0 575 504q47 264 -56 394t-376 130h-305l-82 -469h391zM152 0l100 569h-178l16 90h176l101 570h426q312 0 442 -169t74 -476q-49 -283 -230.5 -435.5t-457.5 -150.5z" />
    <glyph glyph-name="Ntilde" unicode="&#xd1;" horiz-adv-x="1294" 
d="M899 0l-317 696q-86 183 -166 424l-49 -2q-23 -219 -88 -602l-93 -516h-110l217 1229h168l282 -617q127 -280 195 -483h45q30 271 84 584l90 516h113l-217 -1229h-154zM657 1663q48 0 82.5 -22.5t54 -54.5t36.5 -64.5t40 -55t54 -22.5q46 0 71 50t43 163h72
q-2 -35 -10 -92q-18 -104 -66.5 -158.5t-113.5 -54.5q-45 0 -78 23t-53 55t-37.5 64.5t-42 55.5t-56.5 23q-50 0 -75 -46.5t-43 -160.5h-72q3 58 8 88q18 104 66.5 156.5t119.5 52.5z" />
    <glyph glyph-name="Ograve" unicode="&#xd2;" horiz-adv-x="1349" 
d="M616 -23q-198 0 -327 89t-173.5 240.5t-9.5 346.5q48 274 224.5 436t451.5 162q195 0 324 -88t175 -239.5t11 -345.5q-49 -274 -225 -437.5t-451 -163.5zM618 82q236 0 378.5 136.5t185.5 377.5q15 95 11.5 177.5t-33.5 151.5t-79.5 118t-127 76.5t-175.5 27.5
q-234 0 -376.5 -135t-184.5 -375q-15 -95 -12 -178.5t32 -153t78 -119t126.5 -77t176.5 -27.5zM993 1364l-504 147l43 99l488 -180z" />
    <glyph glyph-name="Oacute" unicode="&#xd3;" horiz-adv-x="1349" 
d="M616 -23q-198 0 -327 89t-173.5 240.5t-9.5 346.5q48 274 224.5 436t451.5 162q195 0 324 -88t175 -239.5t11 -345.5q-49 -274 -225 -437.5t-451 -163.5zM618 82q236 0 378.5 136.5t185.5 377.5q15 95 11.5 177.5t-33.5 151.5t-79.5 118t-127 76.5t-175.5 27.5
q-234 0 -376.5 -135t-184.5 -375q-15 -95 -12 -178.5t32 -153t78 -119t126.5 -77t176.5 -27.5zM647 1364l-10 66l549 184l20 -105z" />
    <glyph glyph-name="Ocircumflex" unicode="&#xd4;" horiz-adv-x="1349" 
d="M618 82q236 0 378.5 136.5t185.5 377.5q15 95 11.5 177.5t-33.5 151.5t-79.5 118t-127 76.5t-175.5 27.5q-234 0 -376.5 -135t-184.5 -375q-15 -95 -12 -178.5t32 -153t78 -119t126.5 -77t176.5 -27.5zM616 -23q-198 0 -327 89t-173.5 240.5t-9.5 346.5q48 274 224.5 436
t451.5 162q195 0 324 -88t175 -239.5t11 -345.5q-49 -274 -225 -437.5t-451 -163.5zM1075 1335l-211 183l-280 -183l-37 54l301 227h57l219 -227z" />
    <glyph glyph-name="Otilde" unicode="&#xd5;" horiz-adv-x="1349" 
d="M616 -23q-198 0 -327 89t-173.5 240.5t-9.5 346.5q48 274 224.5 436t451.5 162q195 0 324 -88t175 -239.5t11 -345.5q-49 -274 -225 -437.5t-451 -163.5zM618 82q236 0 378.5 136.5t185.5 377.5q15 95 11.5 177.5t-33.5 151.5t-79.5 118t-127 76.5t-175.5 27.5
q-234 0 -376.5 -135t-184.5 -375q-15 -95 -12 -178.5t32 -153t78 -119t126.5 -77t176.5 -27.5zM686 1663q40 0 71.5 -16t49 -40.5t34.5 -53t30 -53t34 -40.5t47 -16q46 0 71.5 50t43.5 163h72q-1 -22 -11 -92q-18 -104 -66.5 -158.5t-113.5 -54.5q-45 0 -78 23t-52.5 55
t-37 64.5t-42 55.5t-56.5 23q-50 0 -75.5 -47t-43.5 -160h-71q3 58 8 88q18 104 66.5 156.5t119.5 52.5z" />
    <glyph glyph-name="Odieresis" unicode="&#xd6;" horiz-adv-x="1349" 
d="M616 -23q-198 0 -327 89t-173.5 240.5t-9.5 346.5q48 274 224.5 436t451.5 162q195 0 324 -88t175 -239.5t11 -345.5q-49 -274 -225 -437.5t-451 -163.5zM618 82q236 0 378.5 136.5t185.5 377.5q15 95 11.5 177.5t-33.5 151.5t-79.5 118t-127 76.5t-175.5 27.5
q-234 0 -376.5 -135t-184.5 -375q-15 -95 -12 -178.5t32 -153t78 -119t126.5 -77t176.5 -27.5zM569 1520h152l-27 -152h-151zM944 1520h152l-27 -152h-151z" />
    <glyph glyph-name="multiply" unicode="&#xd7;" horiz-adv-x="999" 
d="M776 236q-47 62 -140 180.5t-120 152.5q-299 -270 -377 -340l-71 84q31 24 112.5 90.5t147 118t137.5 105.5q-60 65 -150.5 168t-130.5 147l88 74q44 -59 132 -169.5t128 -162.5q82 76 377 338l72 -86q-25 -19 -164.5 -129.5t-232.5 -181.5q55 -60 145.5 -163.5
t136.5 -152.5z" />
    <glyph glyph-name="Oslash" unicode="&#xd8;" horiz-adv-x="1341" 
d="M616 -23q-263 0 -403 156l-156 -133h-110v10l219 187q-110 182 -60 456q48 274 224.5 436t451.5 162q273 0 414 -170l170 148h102l-2 -10l-227 -199q100 -177 53 -442q-49 -274 -225 -437.5t-451 -163.5zM215 637q-40 -223 37 -367l860 740q-108 137 -332 137
q-236 0 -379.5 -134.5t-185.5 -375.5zM618 80q237 0 380 137t186 379q38 206 -31 348l-858 -739q109 -125 323 -125z" />
    <glyph glyph-name="Ugrave" unicode="&#xd9;" horiz-adv-x="1282" 
d="M594 82q189 0 285 97.5t127 281.5l137 768h112l-137 -783q-41 -236 -171 -351t-355 -115q-250 0 -362.5 127t-71.5 364l133 758h115l-134 -756q-10 -67 -10 -126t20.5 -108t58 -83.5t101.5 -54t152 -19.5zM961 1364l-504 147l43 99l487 -180z" />
    <glyph glyph-name="Uacute" unicode="&#xda;" horiz-adv-x="1282" 
d="M594 82q189 0 285 97.5t127 281.5l137 768h112l-137 -783q-41 -236 -171 -351t-355 -115q-250 0 -362.5 127t-71.5 364l133 758h115l-134 -756q-10 -67 -10 -126t20.5 -108t58 -83.5t101.5 -54t152 -19.5zM614 1364l-10 66l549 184l21 -105z" />
    <glyph glyph-name="Ucircumflex" unicode="&#xdb;" horiz-adv-x="1282" 
d="M594 82q189 0 285 97.5t127 281.5l137 768h112l-137 -783q-41 -236 -171 -351t-355 -115q-250 0 -362.5 127t-71.5 364l133 758h115l-134 -756q-10 -67 -10 -126t20.5 -108t58 -83.5t101.5 -54t152 -19.5zM1040 1335l-211 183l-280 -183l-37 54l301 227h57l220 -227z" />
    <glyph glyph-name="Udieresis" unicode="&#xdc;" horiz-adv-x="1282" 
d="M594 82q189 0 285 97.5t127 281.5l137 768h112l-137 -783q-41 -236 -171 -351t-355 -115q-250 0 -362.5 127t-71.5 364l133 758h115l-134 -756q-10 -67 -10 -126t20.5 -108t58 -83.5t101.5 -54t152 -19.5zM537 1520h151l-26 -152h-152zM911 1520h152l-27 -152h-151z" />
    <glyph glyph-name="Yacute" unicode="&#xdd;" horiz-adv-x="1071" 
d="M508 0h-113l76 434l-342 772l4 23h113l286 -703h19l530 703h121l-4 -23l-612 -776zM508 1364l-10 66l549 184l20 -105z" />
    <glyph glyph-name="Thorn" unicode="&#xde;" horiz-adv-x="1062" 
d="M291 1229h115l-39 -225h329q203 0 292.5 -102t53.5 -302q-27 -157 -141.5 -245.5t-308.5 -88.5h-356l-48 -266h-114zM680 903h-332l-94 -534h336q156 0 238.5 59t105.5 188q27 151 -31 219t-223 68z" />
    <glyph glyph-name="germandbls" unicode="&#xdf;" horiz-adv-x="1134" 
d="M637 -20q-119 0 -197.5 42t-128.5 132l72 71q38 -77 101.5 -110t156.5 -33q114 0 182.5 60.5t87.5 170.5q8 52 7 98.5t-22 85t-58 67t-101.5 44t-152.5 15.5h-133l16 98h119q128 0 211.5 61.5t107.5 192.5q20 113 -36 187.5t-195 74.5q-148 0 -224 -77.5t-104 -227.5
l-164 -932h-108l166 942q34 191 143.5 292t292.5 101q128 0 212 -52.5t113.5 -134.5t12.5 -181q-41 -225 -305 -279l-4 -20q202 -24 270.5 -118.5t38.5 -258.5q-26 -146 -120.5 -228.5t-256.5 -82.5z" />
    <glyph glyph-name="agrave" unicode="&#xe0;" horiz-adv-x="1095" 
d="M811 1077l-449 240l56 92l424 -272zM436 78q146 0 251 88.5t142 239.5l9 49l14 75q19 153 -58.5 246.5t-228.5 93.5q-310 0 -377 -387q-72 -405 248 -405zM82 502q38 223 158.5 346t298.5 121q160 1 240 -79t91 -216l7 4l49 270h108l-168 -948h-108l45 260l-2 -2v12
q-55 -131 -162.5 -212t-249.5 -81q-188 0 -269.5 138t-37.5 387z" />
    <glyph glyph-name="aacute" unicode="&#xe1;" horiz-adv-x="1095" 
d="M487 1075l-28 62l518 270l41 -88zM436 78q146 0 251 88.5t142 239.5l9 49l14 75q19 153 -58.5 246.5t-228.5 93.5q-310 0 -377 -387q-72 -405 248 -405zM82 502q38 223 158.5 346t298.5 121q160 1 240 -79t91 -216l7 4l49 270h108l-168 -948h-108l45 260l-2 -2v12
q-55 -131 -162.5 -212t-249.5 -81q-188 0 -269.5 138t-37.5 387z" />
    <glyph glyph-name="acircumflex" unicode="&#xe2;" horiz-adv-x="1095" 
d="M879 1075l-203 228l-283 -228l-45 49l311 279h58l211 -279zM436 78q146 0 251 88.5t142 239.5l9 49l14 75q19 153 -58.5 246.5t-228.5 93.5q-310 0 -377 -387q-72 -405 248 -405zM82 502q38 223 158.5 346t298.5 121q160 1 240 -79t91 -216l7 4l49 270h108l-168 -948
h-108l45 260l-2 -2v12q-55 -131 -162.5 -212t-249.5 -81q-188 0 -269.5 138t-37.5 387z" />
    <glyph glyph-name="atilde" unicode="&#xe3;" horiz-adv-x="1095" 
d="M532 1417q48 0 82.5 -22.5t54 -54.5t36.5 -64.5t40 -55t54 -22.5q46 0 71 50t43 163h72q-2 -35 -10 -92q-18 -104 -66.5 -158.5t-113.5 -54.5q-45 0 -78 23t-53 55t-37.5 64.5t-42 55.5t-56.5 23q-50 0 -75 -46.5t-43 -160.5h-72q3 58 8 88q18 104 66.5 156.5t119.5 52.5
zM436 78q146 0 251 88.5t142 239.5l9 49l14 75q19 153 -58.5 246.5t-228.5 93.5q-310 0 -377 -387q-72 -405 248 -405zM82 502q38 223 158.5 346t298.5 121q160 1 240 -79t91 -216l7 4l49 270h108l-168 -948h-108l45 260l-2 -2v12q-55 -131 -162.5 -212t-249.5 -81
q-188 0 -269.5 138t-37.5 387z" />
    <glyph glyph-name="adieresis" unicode="&#xe4;" horiz-adv-x="1095" 
d="M395 1288h152l-27 -151h-151zM770 1288h152l-27 -151h-152zM436 78q146 0 251 88.5t142 239.5l9 49l14 75q19 153 -58.5 246.5t-228.5 93.5q-310 0 -377 -387q-72 -405 248 -405zM82 502q38 223 158.5 346t298.5 121q160 1 240 -79t91 -216l7 4l49 270h108l-168 -948
h-108l45 260l-2 -2v12q-55 -131 -162.5 -212t-249.5 -81q-188 0 -269.5 138t-37.5 387z" />
    <glyph glyph-name="aring" unicode="&#xe5;" horiz-adv-x="1095" 
d="M530 1294q-12 -68 19.5 -104.5t97.5 -36.5q61 0 102.5 35t51.5 100q12 68 -19.5 105t-97.5 37q-61 0 -102.5 -35.5t-51.5 -100.5zM885 1276q-17 -95 -83 -149t-163 -54q-105 0 -158.5 65.5t-34.5 168.5q17 95 82 148.5t162 53.5q105 0 158.5 -65.5t36.5 -167.5zM436 78
q146 0 251 88.5t142 239.5l9 49l14 75q19 153 -58.5 246.5t-228.5 93.5q-310 0 -377 -387q-72 -405 248 -405zM82 502q38 223 158.5 346t298.5 121q160 1 240 -79t91 -216l7 4l49 270h108l-168 -948h-108l45 260l-2 -2v12q-55 -131 -162.5 -212t-249.5 -81
q-188 0 -269.5 138t-37.5 387z" />
    <glyph glyph-name="ae" unicode="&#xe6;" horiz-adv-x="1712" 
d="M338 76q156 0 264 75.5t129 192.5l17 88h-338q-224 0 -254 -164q-15 -82 29 -137t153 -55zM1278 874q-154 0 -258.5 -89.5t-147.5 -260.5h670q53 350 -264 350zM1595 285q-131 -308 -444 -308q-170 0 -272 77t-123 210q-57 -142 -177 -213t-266 -71q-144 0 -217 75.5
t-47 216.5q21 109 114 172.5t247 63.5h350l18 98q23 134 -26 200t-189 66q-112 0 -187.5 -56.5t-121.5 -170.5l-100 31q59 141 164.5 217t246.5 76q306 0 318 -248q127 248 403 248q206 0 299 -120t60 -323q-4 -26 -19 -82h-768q-24 -174 52 -271t243 -97q139 0 218.5 63.5
t131.5 179.5z" />
    <glyph glyph-name="ccedilla" unicode="&#xe7;" horiz-adv-x="1062" 
d="M881 610q-6 130 -70 195t-211 65q-165 0 -272 -98t-140 -291q-33 -185 43 -294t248 -109q76 0 135 19.5t101 59t70 83t57 106.5l96 -31q-68 -167 -182 -252.5t-287 -85.5q-22 0 -43 3l-53 -91q56 17 96 17q66 0 103 -30t26 -93q-9 -51 -59 -89t-138 -38q-117 0 -202 59
l49 68q68 -53 160 -53q96 0 110 61q6 32 -16 50t-68 18q-30 0 -92 -15l-47 25l65 119q-167 33 -240.5 170t-39.5 340q38 223 179.5 347t342.5 124q372 0 385 -340z" />
    <glyph glyph-name="egrave" unicode="&#xe8;" horiz-adv-x="1034" 
d="M602 874q-153 0 -257 -87t-148 -252h669q46 339 -264 339zM465 -20q-225 0 -327 138.5t-60 373.5q41 225 185 351t349 126q206 0 297.5 -120t55.5 -323q-4 -31 -17 -82h-768q-23 -174 52 -271t239 -97q140 0 221 63t133 178l93 -32q-128 -305 -453 -305zM803 1077
l-449 240l56 92l424 -272z" />
    <glyph glyph-name="eacute" unicode="&#xe9;" horiz-adv-x="1034" 
d="M602 874q-153 0 -257 -87t-148 -252h669q46 339 -264 339zM465 -20q-225 0 -327 138.5t-60 373.5q41 225 185 351t349 126q206 0 297.5 -120t55.5 -323q-4 -31 -17 -82h-768q-23 -174 52 -271t239 -97q140 0 221 63t133 178l93 -32q-128 -305 -453 -305zM473 1075l-29 62
l519 270l41 -88z" />
    <glyph glyph-name="ecircumflex" unicode="&#xea;" horiz-adv-x="1034" 
d="M602 874q-153 0 -257 -87t-148 -252h669q46 339 -264 339zM465 -20q-225 0 -327 138.5t-60 373.5q41 225 185 351t349 126q206 0 297.5 -120t55.5 -323q-4 -31 -17 -82h-768q-23 -174 52 -271t239 -97q140 0 221 63t133 178l93 -32q-128 -305 -453 -305zM879 1075
l-203 228l-283 -228l-45 49l311 279h58l211 -279z" />
    <glyph glyph-name="edieresis" unicode="&#xeb;" horiz-adv-x="1034" 
d="M602 874q-153 0 -257 -87t-148 -252h669q46 339 -264 339zM465 -20q-225 0 -327 138.5t-60 373.5q41 225 185 351t349 126q206 0 297.5 -120t55.5 -323q-4 -31 -17 -82h-768q-23 -174 52 -271t239 -97q140 0 221 63t133 178l93 -32q-128 -305 -453 -305zM397 1288h152
l-27 -151h-151zM772 1288h152l-27 -151h-152z" />
    <glyph glyph-name="igrave" unicode="&#xec;" horiz-adv-x="522" 
d="M231 0h-108l168 948h108zM539 1077l-449 240l55 92l424 -272z" />
    <glyph glyph-name="iacute" unicode="&#xed;" horiz-adv-x="522" 
d="M231 0h-108l168 948h108zM209 1075l-29 62l518 270l41 -88z" />
    <glyph glyph-name="icircumflex" unicode="&#xee;" horiz-adv-x="522" 
d="M231 0h-108l168 948h108zM616 1075l-202 228l-283 -228l-45 49l311 279h58l211 -279z" />
    <glyph glyph-name="idieresis" unicode="&#xef;" horiz-adv-x="522" 
d="M231 0h-108l168 948h108zM135 1288h152l-27 -151h-151zM510 1288h152l-27 -151h-152z" />
    <glyph glyph-name="eth" unicode="&#xf0;" horiz-adv-x="1048" 
d="M453 -23q-215 0 -316.5 130.5t-60.5 367.5q37 208 163.5 320t307.5 112q133 0 215.5 -67.5t111.5 -186.5l23 4q-12 251 -215 445l-311 -113l-27 76l266 98q-66 55 -170 113l52 78q115 -60 227 -150l246 90l24 -80l-203 -73q258 -267 191 -637q-43 -245 -181 -386
t-343 -141zM862 467q28 158 -52.5 252t-246.5 94q-153 0 -252 -90.5t-129 -265.5q-32 -184 40 -282.5t235 -98.5q158 0 266 107.5t139 283.5zM893 541q2 10 2 28l-8 -4q2 -6 2 -18z" />
    <glyph glyph-name="ntilde" unicode="&#xf1;" 
d="M266 551l-98 -551h-109l168 948h107l-43 -243h16q57 123 156.5 193.5t230.5 70.5q163 0 239 -100t46 -261l-107 -608h-108l104 596q22 124 -27 198t-179 74q-157 0 -264 -86t-132 -231zM561 1417q40 0 71.5 -16t49 -40.5t34.5 -53t30 -53t34 -40.5t47 -16q46 0 71.5 50
t43.5 163h72q-2 -35 -10 -92q-18 -104 -67 -158.5t-114 -54.5q-45 0 -78 23t-52.5 55t-37 64.5t-42 55.5t-56.5 23q-50 0 -75.5 -47t-43.5 -160h-71q3 58 8 88q18 104 66.5 156.5t119.5 52.5z" />
    <glyph glyph-name="ograve" unicode="&#xf2;" horiz-adv-x="1081" 
d="M477 -23q-226 0 -330.5 149.5t-62.5 387.5q39 222 177 338.5t341 116.5q216 0 326.5 -146.5t70.5 -378.5q-40 -224 -174.5 -345.5t-347.5 -121.5zM592 870q-163 0 -267.5 -96t-136.5 -276q-32 -190 43 -305t252 -115q168 0 273.5 101t136.5 284q33 185 -47.5 296
t-253.5 111zM805 1077l-449 240l56 92l424 -272z" />
    <glyph glyph-name="oacute" unicode="&#xf3;" horiz-adv-x="1081" 
d="M477 -23q-226 0 -330.5 149.5t-62.5 387.5q39 222 177 338.5t341 116.5q216 0 326.5 -146.5t70.5 -378.5q-40 -224 -174.5 -345.5t-347.5 -121.5zM592 870q-163 0 -267.5 -96t-136.5 -276q-32 -190 43 -305t252 -115q168 0 273.5 101t136.5 284q33 185 -47.5 296
t-253.5 111zM477 1075l-28 62l518 270l41 -88z" />
    <glyph glyph-name="ocircumflex" unicode="&#xf4;" horiz-adv-x="1081" 
d="M592 870q-163 0 -267.5 -96t-136.5 -276q-32 -190 43 -305t252 -115q168 0 273.5 101t136.5 284q33 185 -47.5 296t-253.5 111zM477 -23q-226 0 -330.5 149.5t-62.5 387.5q39 222 177 338.5t341 116.5q216 0 326.5 -146.5t70.5 -378.5q-40 -224 -174.5 -345.5
t-347.5 -121.5zM887 1075l-203 228l-283 -228l-45 49l312 279h57l211 -279z" />
    <glyph glyph-name="otilde" unicode="&#xf5;" horiz-adv-x="1081" 
d="M477 -23q-226 0 -330.5 149.5t-62.5 387.5q39 222 177 338.5t341 116.5q216 0 326.5 -146.5t70.5 -378.5q-40 -224 -174.5 -345.5t-347.5 -121.5zM592 870q-163 0 -267.5 -96t-136.5 -276q-32 -190 43 -305t252 -115q168 0 273.5 101t136.5 284q33 185 -47.5 296
t-253.5 111zM541 1417q40 0 71.5 -16t49 -40.5t34.5 -53t30 -53t34 -40.5t47 -16q46 0 71.5 50t43.5 163h71q-2 -35 -10 -92q-18 -104 -66.5 -158.5t-113.5 -54.5q-45 0 -78 23t-52.5 55t-37 64.5t-42 55.5t-56.5 23q-50 0 -75.5 -47t-43.5 -160h-72q3 58 8 88
q18 103 67 156t120 53z" />
    <glyph glyph-name="odieresis" unicode="&#xf6;" horiz-adv-x="1081" 
d="M477 -23q-226 0 -330.5 149.5t-62.5 387.5q39 222 177 338.5t341 116.5q216 0 326.5 -146.5t70.5 -378.5q-40 -224 -174.5 -345.5t-347.5 -121.5zM592 870q-163 0 -267.5 -96t-136.5 -276q-32 -190 43 -305t252 -115q168 0 273.5 101t136.5 284q33 185 -47.5 296
t-253.5 111zM403 1288h152l-27 -151h-151zM778 1288h152l-27 -151h-151z" />
    <glyph glyph-name="divide" unicode="&#xf7;" horiz-adv-x="1013" 
d="M961 571h-873l16 101h873zM530 1024h150l-27 -147h-147zM416 371h149l-26 -148h-148z" />
    <glyph glyph-name="oslash" unicode="&#xf8;" horiz-adv-x="1081" 
d="M477 -23q-205 0 -313 127l-121 -104h-109l3 12l184 158q-72 138 -37 344q36 218 175.5 336.5t342.5 118.5q200 0 309 -125l119 104h103l-3 -12l-176 -154q80 -137 45 -338q-39 -220 -174.5 -343.5t-347.5 -123.5zM592 872q-164 0 -269 -96.5t-137 -277.5
q-27 -151 17 -258l633 538q-84 94 -244 94zM483 76q170 0 276.5 101.5t137.5 285.5q28 151 -23 252l-632 -541q82 -98 241 -98z" />
    <glyph glyph-name="ugrave" unicode="&#xf9;" 
d="M756 0l41 242h-15q-57 -123 -157 -194t-230 -71q-162 0 -238 100.5t-46 262.5l106 608h109l-105 -596q-22 -123 27.5 -197.5t179.5 -74.5q158 0 264 86t131 231l99 551h108l-168 -948h-106zM817 1077l-448 240l55 92l424 -272z" />
    <glyph glyph-name="uacute" unicode="&#xfa;" 
d="M756 0l41 242h-15q-57 -123 -157 -194t-230 -71q-162 0 -238 100.5t-46 262.5l106 608h109l-105 -596q-22 -123 27.5 -197.5t179.5 -74.5q158 0 264 86t131 231l99 551h108l-168 -948h-106zM489 1075l-28 62l518 270l41 -88z" />
    <glyph glyph-name="ucircumflex" unicode="&#xfb;" 
d="M756 0l41 242h-15q-57 -123 -157 -194t-230 -71q-162 0 -238 100.5t-46 262.5l106 608h109l-105 -596q-22 -123 27.5 -197.5t179.5 -74.5q158 0 264 86t131 231l99 551h108l-168 -948h-106zM895 1075l-203 228l-282 -228l-45 49l311 279h57l211 -279z" />
    <glyph glyph-name="udieresis" unicode="&#xfc;" 
d="M756 0l41 242h-15q-57 -123 -157 -194t-230 -71q-162 0 -238 100.5t-46 262.5l106 608h109l-105 -596q-22 -123 27.5 -197.5t179.5 -74.5q158 0 264 86t131 231l99 551h108l-168 -948h-106zM412 1288h151l-26 -151h-152zM786 1288h152l-27 -151h-151z" />
    <glyph glyph-name="yacute" unicode="&#xfd;" horiz-adv-x="962" 
d="M14 -338q-63 0 -133 12l27 103q67 -13 115 -13q64 0 109.5 15.5t102.5 70.5t121 158l-266 940h117l82 -332q8 -32 37 -147.5t51 -207.5t37 -163h20q141 257 291 516l195 334h120l-589 -960q-107 -175 -207.5 -250.5t-229.5 -75.5zM430 1075l-29 62l519 270l41 -88z" />
    <glyph glyph-name="thorn" unicode="&#xfe;" horiz-adv-x="1095" 
d="M537 76q302 0 372 399q35 197 -27 295t-225 98q-149 0 -255 -91t-140 -247l-16 -96v2q-28 -160 52 -260t239 -100zM399 1315l-108 -625h10q58 128 156.5 203.5t238.5 75.5q195 0 279 -133t41 -379q-39 -229 -161.5 -354.5t-299.5 -125.5q-148 0 -232 77.5t-100 205.5h-8
l-102 -573h-109l287 1628h108z" />
    <glyph glyph-name="ydieresis" unicode="&#xff;" horiz-adv-x="962" 
d="M14 -338q-63 0 -133 12l27 103q67 -13 115 -13q64 0 109.5 15.5t102.5 70.5t121 158l-266 940h117l82 -332q8 -32 37 -147.5t51 -207.5t37 -163h20q141 257 291 516l195 334h120l-589 -960q-107 -175 -207.5 -250.5t-229.5 -75.5zM354 1288h152l-27 -151h-151zM729 1288
h152l-27 -151h-152z" />
    <glyph glyph-name="Amacron" unicode="&#x100;" horiz-adv-x="1171" 
d="M967 0l-90 393h-601l-227 -393h-127l725 1229h144l290 -1229h-114zM483 1473h557l-16 -97h-559zM418 639l-88 -152h524l-35 152q-65 292 -92 485h-45q-107 -209 -264 -485z" />
    <glyph glyph-name="amacron" unicode="&#x101;" horiz-adv-x="1095" 
d="M381 1239h557l-16 -92h-557zM436 78q146 0 251 88.5t142 239.5l9 49l14 75q19 153 -58.5 246.5t-228.5 93.5q-310 0 -377 -387q-72 -405 248 -405zM82 502q38 223 158.5 346t298.5 121q160 1 240 -79t91 -216l7 4l49 270h108l-168 -948h-108l45 260l-2 -2v12
q-55 -131 -162.5 -212t-249.5 -81q-188 0 -269.5 138t-37.5 387z" />
    <glyph glyph-name="Abreve" unicode="&#x102;" horiz-adv-x="1171" 
d="M967 0l-90 393h-601l-227 -393h-127l725 1229h144l290 -1229h-114zM752 1434q192 0 235 180h76q-23 -137 -103.5 -205t-209.5 -68q-130 0 -196 69.5t-44 203.5h76q-18 -180 166 -180zM418 639l-88 -152h524l-35 152q-65 292 -92 485h-45q-107 -209 -264 -485z" />
    <glyph glyph-name="abreve" unicode="&#x103;" horiz-adv-x="1095" 
d="M436 78q146 0 251 88.5t142 239.5l9 49l14 75q19 153 -58.5 246.5t-228.5 93.5q-310 0 -377 -387q-72 -405 248 -405zM653 1184q89 0 149.5 48.5t86.5 162.5h76q-26 -150 -107 -224.5t-207 -74.5q-132 0 -198 76.5t-41 222.5h77q-14 -112 32 -161.5t132 -49.5zM82 502
q38 223 158.5 346t298.5 121q160 1 240 -79t91 -216l7 4l49 270h108l-168 -948h-108l45 260l-2 -2v12q-55 -131 -162.5 -212t-249.5 -81q-188 0 -269.5 138t-37.5 387z" />
    <glyph glyph-name="Aogonek" unicode="&#x104;" horiz-adv-x="1171" 
d="M1030 -319q-76 -13 -129 -13q-104 0 -153 41.5t-37 112.5q23 134 254 182l-88 389h-601l-227 -393h-127l725 1229h144l290 -1229q-136 -26 -203 -62t-77 -90q-7 -44 24.5 -65t100.5 -21q30 0 114 15zM418 639l-88 -152h524l-35 152q-65 292 -92 485h-45
q-107 -209 -264 -485z" />
    <glyph glyph-name="aogonek" unicode="&#x105;" horiz-adv-x="1095" 
d="M436 78q146 0 251 88.5t142 239.5l9 49l14 75q19 153 -58.5 246.5t-228.5 93.5q-310 0 -377 -387q-72 -405 248 -405zM82 502q38 223 158.5 346t298.5 121q160 1 240 -79t91 -216l7 4l49 270h108l-168 -948h2q-136 -26 -203 -62t-77 -90q-7 -44 24.5 -65t100.5 -21
q30 0 114 15l-10 -96q-76 -13 -129 -13q-104 0 -153 41.5t-37 112.5q12 68 81 114.5t181 69.5l43 254l-2 -2v12q-55 -131 -162.5 -212t-249.5 -81q-188 0 -269.5 138t-37.5 387z" />
    <glyph glyph-name="Cacute" unicode="&#x106;" horiz-adv-x="1275" 
d="M590 -23q-191 0 -313.5 86t-164.5 235t-8 345q52 286 224 447t436 161q231 0 355.5 -124.5t129.5 -331.5l-110 -17q-9 185 -103.5 277t-281.5 92q-222 0 -358.5 -136.5t-180.5 -383.5q-44 -252 51 -398.5t328 -146.5q192 0 311.5 97.5t186.5 287.5l104 -27
q-155 -463 -606 -463zM621 1364l-11 66l549 184l21 -105z" />
    <glyph glyph-name="cacute" unicode="&#x107;" horiz-adv-x="1044" 
d="M881 610q-6 130 -70 195t-211 65q-165 0 -272 -98t-140 -291q-33 -185 43 -294t248 -109q76 0 135 19.5t101 59t70 83t57 106.5l96 -31q-68 -167 -182 -252.5t-287 -85.5q-222 0 -325 143.5t-64 377.5q38 223 179.5 347t342.5 124q372 0 385 -340zM477 1075l-28 62
l518 270l41 -88z" />
    <glyph glyph-name="Ccircumflex" unicode="&#x108;" horiz-adv-x="1275" 
d="M590 -23q-191 0 -313.5 86t-164.5 235t-8 345q52 286 224 447t436 161q231 0 355.5 -124.5t129.5 -331.5l-110 -17q-9 185 -103.5 277t-281.5 92q-222 0 -358.5 -136.5t-180.5 -383.5q-44 -252 51 -398.5t328 -146.5q192 0 311.5 97.5t186.5 287.5l104 -27
q-155 -463 -606 -463zM1044 1335l-210 183l-281 -183l-37 54l301 227h57l220 -227z" />
    <glyph glyph-name="ccircumflex" unicode="&#x109;" horiz-adv-x="1044" 
d="M881 610q-6 130 -70 195t-211 65q-165 0 -272 -98t-140 -291q-33 -185 43 -294t248 -109q76 0 135 19.5t101 59t70 83t57 106.5l96 -31q-68 -167 -182 -252.5t-287 -85.5q-222 0 -325 143.5t-64 377.5q38 223 179.5 347t342.5 124q372 0 385 -340zM891 1075l-203 228
l-282 -228l-46 49l312 279h57l211 -279z" />
    <glyph glyph-name="Cdotaccent" unicode="&#x10a;" horiz-adv-x="1275" 
d="M590 -23q-191 0 -313.5 86t-164.5 235t-8 345q52 286 224 447t436 161q231 0 355.5 -124.5t129.5 -331.5l-110 -17q-9 185 -103.5 277t-281.5 92q-222 0 -358.5 -136.5t-180.5 -383.5q-44 -252 51 -398.5t328 -146.5q192 0 311.5 97.5t186.5 287.5l104 -27
q-155 -463 -606 -463zM733 1567h158l-29 -154h-157z" />
    <glyph glyph-name="cdotaccent" unicode="&#x10b;" horiz-adv-x="1044" 
d="M881 610q-6 130 -70 195t-211 65q-165 0 -272 -98t-140 -291q-33 -185 43 -294t248 -109q76 0 135 19.5t101 59t70 83t57 106.5l96 -31q-68 -167 -182 -252.5t-287 -85.5q-222 0 -325 143.5t-64 377.5q38 223 179.5 347t342.5 124q372 0 385 -340zM604 1315h158l-29 -154
h-158z" />
    <glyph glyph-name="Ccaron" unicode="&#x10c;" horiz-adv-x="1275" 
d="M590 -23q-191 0 -313.5 86t-164.5 235t-8 345q52 286 224 447t436 161q231 0 355.5 -124.5t129.5 -331.5l-110 -17q-9 185 -103.5 277t-281.5 92q-222 0 -358.5 -136.5t-180.5 -383.5q-44 -252 51 -398.5t328 -146.5q192 0 311.5 97.5t186.5 287.5l104 -27
q-155 -463 -606 -463zM825 1341h-57l-219 228l47 53l213 -182l278 182l39 -53z" />
    <glyph glyph-name="ccaron" unicode="&#x10d;" horiz-adv-x="1044" 
d="M881 610q-6 130 -70 195t-211 65q-165 0 -272 -98t-140 -291q-33 -185 43 -294t248 -109q76 0 135 19.5t101 59t70 83t57 106.5l96 -31q-68 -167 -182 -252.5t-287 -85.5q-222 0 -325 143.5t-64 377.5q38 223 179.5 347t342.5 124q372 0 385 -340zM668 1087h-58l-211 279
l52 49l202 -223l283 223l43 -49z" />
    <glyph glyph-name="Dcaron" unicode="&#x10e;" horiz-adv-x="1290" 
d="M692 1128h-305l-180 -1028h342q486 0 575 504q47 264 -56 394t-376 130zM76 0l215 1229h426q312 0 442 -169t74 -476q-49 -283 -230.5 -435.5t-457.5 -150.5zM823 1341h-57l-219 228l47 53l213 -182l278 182l39 -53z" />
    <glyph glyph-name="dcaron" unicode="&#x10f;" horiz-adv-x="1214" 
d="M436 78q146 0 251 87t140 236l11 54l14 80q17 152 -61 243.5t-230 91.5q-305 0 -375 -389q-35 -204 27 -303.5t223 -99.5zM758 0l45 258h-8q-57 -126 -163 -203.5t-243 -77.5q-189 0 -270 138t-37 387q39 227 159 348t300 119q150 1 230.5 -76t96.5 -207h11l110 629h109
l-232 -1315h-108zM1262 1313h102l-143 -514h-74z" />
    <glyph glyph-name="Dcroat" unicode="&#x110;" horiz-adv-x="1363" 
d="M756 569h-391l-82 -469h342q486 0 575 504q47 264 -56 394t-376 130h-305l-82 -469h391zM152 0l100 569h-178l16 90h176l101 570h426q312 0 442 -169t74 -476q-49 -283 -230.5 -435.5t-457.5 -150.5z" />
    <glyph glyph-name="dcroat" unicode="&#x111;" horiz-adv-x="1124" 
d="M436 78q146 0 251 87t140 236l11 54l14 80q17 152 -61 243.5t-230 91.5q-305 0 -375 -389q-35 -204 27 -303.5t223 -99.5zM758 0l45 258h-8q-57 -126 -163 -203.5t-243 -77.5q-189 0 -270 138t-37 387q39 227 159 348t300 119q150 1 230.5 -76t96.5 -207h11l73 418h-321
l14 84h322l22 127h109l-23 -127h131l-14 -84h-131l-195 -1104h-108z" />
    <glyph glyph-name="Emacron" unicode="&#x112;" horiz-adv-x="1077" 
d="M76 0l217 1229h803l-19 -105h-688l-78 -444h611l-19 -105h-610l-84 -471h688l-18 -104h-803zM465 1473h557l-16 -97h-560z" />
    <glyph glyph-name="emacron" unicode="&#x113;" horiz-adv-x="1034" 
d="M602 874q-153 0 -257 -87t-148 -252h669q46 339 -264 339zM465 -20q-225 0 -327 138.5t-60 373.5q41 225 185 351t349 126q206 0 297.5 -120t55.5 -323q-4 -31 -17 -82h-768q-23 -174 52 -271t239 -97q140 0 221 63t133 178l93 -32q-128 -305 -453 -305zM379 1239h557
l-16 -92h-558z" />
    <glyph glyph-name="Ebreve" unicode="&#x114;" horiz-adv-x="1077" 
d="M76 0l217 1229h803l-19 -105h-688l-78 -444h611l-19 -105h-610l-84 -471h688l-18 -104h-803zM735 1434q193 0 236 180h76q-23 -137 -104 -205t-210 -68t-195.5 69.5t-43.5 203.5h75q-18 -180 166 -180z" />
    <glyph glyph-name="ebreve" unicode="&#x115;" horiz-adv-x="1034" 
d="M602 874q-153 0 -257 -87t-148 -252h669q46 339 -264 339zM465 -20q-225 0 -327 138.5t-60 373.5q41 225 185 351t349 126q206 0 297.5 -120t55.5 -323q-4 -31 -17 -82h-768q-23 -174 52 -271t239 -97q140 0 221 63t133 178l93 -32q-128 -305 -453 -305zM651 1184
q89 0 149.5 48.5t86.5 162.5h76q-26 -150 -107 -224.5t-207 -74.5q-132 0 -198 76.5t-41 222.5h77q-14 -112 32 -161.5t132 -49.5z" />
    <glyph glyph-name="Edotaccent" unicode="&#x116;" horiz-adv-x="1077" 
d="M76 0l217 1229h803l-19 -105h-688l-78 -444h611l-19 -105h-610l-84 -471h688l-18 -104h-803zM657 1567h158l-29 -154h-157z" />
    <glyph glyph-name="edotaccent" unicode="&#x117;" horiz-adv-x="1034" 
d="M602 874q-153 0 -257 -87t-148 -252h669q46 339 -264 339zM465 -20q-225 0 -327 138.5t-60 373.5q41 225 185 351t349 126q206 0 297.5 -120t55.5 -323q-4 -31 -17 -82h-768q-23 -174 52 -271t239 -97q140 0 221 63t133 178l93 -32q-128 -305 -453 -305zM594 1315h158
l-29 -154h-158z" />
    <glyph glyph-name="Eogonek" unicode="&#x118;" horiz-adv-x="1077" 
d="M825 -319q-76 -13 -129 -13q-104 0 -153 41.5t-37 112.5q10 64 72 109t161 69h-663l217 1229h803l-19 -105h-688l-78 -444h611l-19 -105h-610l-84 -471h688l-18 -104h-2q-136 -26 -203.5 -62t-77.5 -90q-7 -44 24.5 -65t100.5 -21q31 0 115 15z" />
    <glyph glyph-name="eogonek" unicode="&#x119;" horiz-adv-x="1034" 
d="M602 874q-153 0 -257 -87t-148 -252h669q46 339 -264 339zM465 -20q-225 0 -327 138.5t-60 373.5q41 225 185 351t349 126q206 0 297.5 -120t55.5 -323q-4 -31 -17 -82h-768q-23 -174 52 -271t239 -97q140 0 221 63t133 178l93 -32q-36 -90 -91.5 -153t-140.5 -116
q-142 -91 -160 -188q-8 -54 32 -77t106 -23q52 0 112 14l-10 -98q-62 -11 -125 -11q-120 0 -168.5 45t-36.5 115q17 105 178 205q-68 -18 -149 -18z" />
    <glyph glyph-name="Ecaron" unicode="&#x11a;" horiz-adv-x="1077" 
d="M76 0l217 1229h803l-19 -105h-688l-78 -444h611l-19 -105h-610l-84 -471h688l-18 -104h-803zM750 1341h-58l-219 228l47 53l213 -182l279 182l39 -53z" />
    <glyph glyph-name="ecaron" unicode="&#x11b;" horiz-adv-x="1034" 
d="M602 874q-153 0 -257 -87t-148 -252h669q46 339 -264 339zM465 -20q-225 0 -327 138.5t-60 373.5q41 225 185 351t349 126q206 0 297.5 -120t55.5 -323q-4 -31 -17 -82h-768q-23 -174 52 -271t239 -97q140 0 221 63t133 178l93 -32q-128 -305 -453 -305zM659 1087h-57
l-211 279l51 49l203 -223l283 223l43 -49z" />
    <glyph glyph-name="Gcircumflex" unicode="&#x11c;" horiz-adv-x="1312" 
d="M563 -20q-263 0 -387.5 181.5t-69.5 491.5q52 287 217.5 441.5t438.5 154.5q232 0 355 -119.5t132 -332.5l-110 -21q-12 191 -106 281t-275 90q-238 0 -367.5 -127t-173.5 -377q-46 -262 46.5 -411.5t330.5 -149.5q97 0 176 21t134 57t95.5 87t63 106.5t33.5 119.5l6 31
h-438l18 102h545l-107 -606h-106l49 285h-12q-66 -137 -187.5 -221t-300.5 -84zM1047 1335l-211 183l-281 -183l-37 54l301 227h58l219 -227z" />
    <glyph glyph-name="gcircumflex" unicode="&#x11d;" horiz-adv-x="1095" 
d="M870 1075l-202 228l-283 -228l-45 49l311 279h58l211 -279zM453 147q151 0 256.5 88t130.5 232l12 63q20 152 -60 246t-235 94q-301 0 -362 -340q-67 -383 258 -383zM90 547q36 202 154.5 312t290.5 110q155 0 236 -76.5t97 -206.5h11l47 262h108l-151 -856
q-76 -426 -480 -426q-186 0 -291.5 73t-129.5 212l104 24q22 -101 96.5 -156.5t220.5 -56.5q92 1 158.5 24.5t109 70.5t67 106.5t40.5 142.5l33 193h-12q-57 -112 -159 -180t-234 -68q-189 0 -273.5 130t-42.5 366z" />
    <glyph glyph-name="Gbreve" unicode="&#x11e;" horiz-adv-x="1312" 
d="M563 -20q-263 0 -387.5 181.5t-69.5 491.5q52 287 217.5 441.5t438.5 154.5q232 0 355 -119.5t132 -332.5l-110 -21q-12 191 -106 281t-275 90q-238 0 -367.5 -127t-173.5 -377q-46 -262 46.5 -411.5t330.5 -149.5q97 0 176 21t134 57t95.5 87t63 106.5t33.5 119.5l6 31
h-438l18 102h545l-107 -606h-106l49 285h-12q-66 -137 -187.5 -221t-300.5 -84zM813 1434q193 0 236 180h75q-23 -137 -103.5 -205t-209.5 -68q-130 0 -196 69.5t-44 203.5h76q-18 -180 166 -180z" />
    <glyph glyph-name="gbreve" unicode="&#x11f;" horiz-adv-x="1095" 
d="M649 1184q89 0 149.5 48.5t86.5 162.5h76q-26 -150 -107 -224.5t-207 -74.5q-132 0 -198 76.5t-41 222.5h77q-14 -112 32 -161.5t132 -49.5zM453 147q151 0 256.5 88t130.5 232l12 63q20 152 -60 246t-235 94q-301 0 -362 -340q-67 -383 258 -383zM90 547
q36 202 154.5 312t290.5 110q155 0 236 -76.5t97 -206.5h11l47 262h108l-151 -856q-76 -426 -480 -426q-186 0 -291.5 73t-129.5 212l104 24q22 -101 96.5 -156.5t220.5 -56.5q92 1 158.5 24.5t109 70.5t67 106.5t40.5 142.5l33 193h-12q-57 -112 -159 -180t-234 -68
q-189 0 -273.5 130t-42.5 366z" />
    <glyph glyph-name="Gdotaccent" unicode="&#x120;" horiz-adv-x="1312" 
d="M563 -20q-263 0 -387.5 181.5t-69.5 491.5q52 287 217.5 441.5t438.5 154.5q232 0 355 -119.5t132 -332.5l-110 -21q-12 191 -106 281t-275 90q-238 0 -367.5 -127t-173.5 -377q-46 -262 46.5 -411.5t330.5 -149.5q97 0 176 21t134 57t95.5 87t63 106.5t33.5 119.5l6 31
h-438l18 102h545l-107 -606h-106l49 285h-12q-66 -137 -187.5 -221t-300.5 -84zM735 1567h158l-29 -154h-157z" />
    <glyph glyph-name="gdotaccent" unicode="&#x121;" horiz-adv-x="1095" 
d="M594 1315h158l-29 -154h-158zM453 147q151 0 256.5 88t130.5 232l12 63q20 152 -60 246t-235 94q-301 0 -362 -340q-67 -383 258 -383zM90 547q36 202 154.5 312t290.5 110q155 0 236 -76.5t97 -206.5h11l47 262h108l-151 -856q-76 -426 -480 -426q-186 0 -291.5 73
t-129.5 212l104 24q22 -101 96.5 -156.5t220.5 -56.5q92 1 158.5 24.5t109 70.5t67 106.5t40.5 142.5l33 193h-12q-57 -112 -159 -180t-234 -68q-189 0 -273.5 130t-42.5 366z" />
    <glyph glyph-name="uni0122" unicode="&#x122;" horiz-adv-x="1312" 
d="M563 -20q-263 0 -387.5 181.5t-69.5 491.5q52 287 217.5 441.5t438.5 154.5q232 0 355 -119.5t132 -332.5l-110 -21q-12 191 -106 281t-275 90q-238 0 -367.5 -127t-173.5 -377q-46 -262 46.5 -411.5t330.5 -149.5q97 0 176 21t134 57t95.5 87t63 106.5t33.5 119.5l6 31
h-438l18 102h545l-107 -606h-106l49 285h-12q-66 -137 -187.5 -221t-300.5 -84zM537 -119h106l-176 -307h-78l4 18z" />
    <glyph glyph-name="uni0123" unicode="&#x123;" horiz-adv-x="1095" 
d="M653 1122h-104l174 308h78l-4 -19zM453 147q151 0 256.5 88t130.5 232l12 63q20 152 -60 246t-235 94q-301 0 -362 -340q-67 -383 258 -383zM90 547q36 202 154.5 312t290.5 110q155 0 236 -76.5t97 -206.5h11l47 262h108l-151 -856q-76 -426 -480 -426q-186 0 -291.5 73
t-129.5 212l104 24q22 -101 96.5 -156.5t220.5 -56.5q92 1 158.5 24.5t109 70.5t67 106.5t40.5 142.5l33 193h-12q-57 -112 -159 -180t-234 -68q-189 0 -273.5 130t-42.5 366z" />
    <glyph glyph-name="Hcircumflex" unicode="&#x124;" horiz-adv-x="1302" 
d="M1059 0h-115l98 561h-755l-99 -561h-114l217 1229h115l-101 -563h756l100 563h115zM1051 1335l-211 183l-281 -183l-37 54l301 227h58l219 -227z" />
    <glyph glyph-name="hcircumflex" unicode="&#x125;" 
d="M266 551l-98 -551h-109l234 1315h108l-108 -610h14q57 123 156 193.5t229 70.5q164 0 240.5 -100t46.5 -261l-107 -608h-108l104 596q22 124 -27 198t-179 74q-157 0 -264 -86t-132 -231zM604 1341l-211 183l-280 -183l-37 54l301 227h57l219 -227z" />
    <glyph glyph-name="Hbar" unicode="&#x126;" horiz-adv-x="1376" 
d="M1096 639l43 250h-756l-45 -250h758zM1096 0h-113l94 537h-758l-94 -537h-112l155 889h-153l16 94h154l43 246h114l-43 -246h756l43 246h115l-43 -246h153l-16 -94h-154z" />
    <glyph glyph-name="hbar" unicode="&#x127;" horiz-adv-x="1112" 
d="M289 551l-99 -551h-108l197 1102h-127l16 86h125l22 127h109l-23 -127h332l-16 -86h-332l-70 -397h15q57 123 156 193.5t229 70.5q164 0 240 -100t46 -261l-106 -608h-109l105 596q22 123 -27.5 197.5t-179.5 74.5q-156 0 -263 -86t-132 -231z" />
    <glyph glyph-name="Itilde" unicode="&#x128;" horiz-adv-x="432" 
d="M188 0h-114l217 1229h115zM227 1663q48 0 82.5 -22.5t54 -54.5t36.5 -64.5t40 -55t54 -22.5q46 0 71 50t43 163h72q-2 -35 -10 -92q-18 -104 -67 -158.5t-114 -54.5q-45 0 -78 23t-52.5 55t-37 64.5t-42 55.5t-56.5 23q-50 0 -75.5 -47t-43.5 -160h-71q3 58 8 88
q18 104 66.5 156.5t119.5 52.5z" />
    <glyph glyph-name="itilde" unicode="&#x129;" horiz-adv-x="522" 
d="M231 0h-108l168 948h108zM272 1417q48 0 82.5 -22.5t54 -54.5t36.5 -64.5t40 -55t54 -22.5q46 0 71 50t43 163h72q-2 -35 -10 -92q-18 -104 -66.5 -158.5t-113.5 -54.5q-45 0 -78 23t-53 55t-37.5 64.5t-42 55.5t-56.5 23q-50 0 -75 -46.5t-43 -160.5h-72q3 58 8 88
q18 104 66.5 156.5t119.5 52.5z" />
    <glyph glyph-name="Imacron" unicode="&#x12a;" horiz-adv-x="432" 
d="M188 0h-114l217 1229h115zM113 1473h557l-17 -97h-559z" />
    <glyph glyph-name="imacron" unicode="&#x12b;" horiz-adv-x="522" 
d="M231 0h-108l168 948h108zM117 1239h557l-17 -92h-557z" />
    <glyph glyph-name="Ibreve" unicode="&#x12c;" horiz-adv-x="432" 
d="M188 0h-114l217 1229h115zM381 1434q192 0 235 180h76q-23 -137 -103.5 -205t-209.5 -68q-130 0 -196 69.5t-44 203.5h76q-18 -180 166 -180z" />
    <glyph glyph-name="ibreve" unicode="&#x12d;" horiz-adv-x="522" 
d="M231 0h-108l168 948h108zM387 1184q89 0 149.5 48.5t86.5 162.5h75q-26 -151 -106.5 -225t-206.5 -74q-132 0 -198.5 76.5t-41.5 222.5h78q-14 -112 32 -161.5t132 -49.5z" />
    <glyph glyph-name="Iogonek" unicode="&#x12e;" horiz-adv-x="432" 
d="M188 0h2q-136 -26 -203 -62t-77 -90q-7 -44 24.5 -65t100.5 -21q31 0 115 15l-11 -96q-76 -13 -129 -13q-104 0 -153 41.5t-37 112.5q23 134 254 182l217 1225h115z" />
    <glyph glyph-name="iogonek" unicode="&#x12f;" horiz-adv-x="448" 
d="M418 1165h-146l25 131h145zM195 0q-136 -26 -203.5 -62t-77.5 -90q-7 -44 24.5 -65t100.5 -21q31 0 115 15l-11 -96q-76 -13 -129 -13q-104 0 -153 41.5t-37 112.5q12 68 81.5 114.5t182.5 69.5l166 942h108z" />
    <glyph glyph-name="Idotaccent" unicode="&#x130;" horiz-adv-x="432" 
d="M188 0h-114l217 1229h115zM303 1567h158l-29 -154h-158z" />
    <glyph glyph-name="dotlessi" unicode="&#x131;" horiz-adv-x="522" 
d="M231 0h-108l168 948h108z" />
    <glyph glyph-name="IJ" unicode="&#x132;" horiz-adv-x="1048" 
d="M188 0h-114l217 1229h115zM745 295l164 934h115l-164 -932q-56 -313 -328 -313q-82 0 -151 14l20 102q67 -12 129 -12q93 0 144.5 52t70.5 155z" />
    <glyph glyph-name="ij" unicode="&#x133;" horiz-adv-x="921" 
d="M418 1165h-146l25 131h145zM195 0h-109l168 948h108zM659 -41q-24 -138 -95 -215.5t-189 -77.5q-57 0 -103 8l23 99q43 -6 84 -6q140 0 172 190l174 989h109zM891 1165h-146l25 131h145z" />
    <glyph glyph-name="Jcircumflex" unicode="&#x134;" horiz-adv-x="618" 
d="M313 295l164 934h115l-164 -932q-56 -313 -328 -313q-82 0 -151 14l20 102q68 -12 129 -12q93 0 144.5 52t70.5 155zM815 1335l-211 183l-280 -183l-37 54l301 227h57l219 -227z" />
    <glyph glyph-name="jcircumflex" unicode="&#x135;" horiz-adv-x="475" 
d="M213 -41q-25 -138 -101.5 -217.5t-195.5 -79.5q-36 0 -94 10l24 99q65 -9 84 -9q139 0 172 193l174 991h109zM567 1106l-174 194l-243 -194l-39 47l270 248h57l185 -248z" />
    <glyph glyph-name="uni0136" unicode="&#x136;" horiz-adv-x="1130" 
d="M913 0l-524 535h-106l-95 -535h-114l217 1229h115l-105 -594h90l692 594h136l-2 -23l-738 -618l565 -565l-4 -23h-127zM489 -119h107l-176 -307h-78l4 18z" />
    <glyph glyph-name="uni0137" unicode="&#x137;" horiz-adv-x="958" 
d="M414 1315l-140 -795h99l489 428h133l-4 -22l-534 -449l417 -454l-2 -23h-122l-383 430h-109l-76 -430h-108l231 1315h109zM379 -119h106l-176 -307h-78l5 18z" />
    <glyph glyph-name="kgreenlandic" unicode="&#x138;" horiz-adv-x="958" 
d="M743 0l-378 430h-107l-76 -430h-108l166 948h108l-76 -428h103l493 428h127l-4 -22l-534 -449l417 -454l-2 -23h-129z" />
    <glyph glyph-name="Lacute" unicode="&#x139;" horiz-adv-x="925" 
d="M377 1364l-10 66l548 184l21 -105zM406 1229l-199 -1125h606l-18 -104h-721l217 1229h115z" />
    <glyph glyph-name="lacute" unicode="&#x13a;" horiz-adv-x="423" 
d="M414 1315l-232 -1315h-108l231 1315h109zM213 1376l-10 66l549 184l20 -104z" />
    <glyph glyph-name="uni013B" unicode="&#x13b;" horiz-adv-x="925" 
d="M406 1229l-199 -1125h606l-18 -104h-721l217 1229h115zM432 -119h107l-177 -307h-77l4 18z" />
    <glyph glyph-name="uni013C" unicode="&#x13c;" horiz-adv-x="423" 
d="M414 1315l-232 -1315h-108l231 1315h109zM90 -119h107l-177 -307h-77l4 18z" />
    <glyph glyph-name="Lcaron" unicode="&#x13d;" horiz-adv-x="925" 
d="M885 1241h102l-143 -514h-74zM406 1229l-199 -1125h606l-18 -104h-721l217 1229h115z" />
    <glyph glyph-name="lcaron" unicode="&#x13e;" horiz-adv-x="516" 
d="M414 1315l-232 -1315h-108l231 1315h109zM559 1313h103l-144 -514h-74z" />
    <glyph glyph-name="Ldot" unicode="&#x13f;" horiz-adv-x="925" 
d="M827 756h156l-29 -152h-155zM406 1229l-199 -1125h606l-18 -104h-721l217 1229h115z" />
    <glyph glyph-name="ldot" unicode="&#x140;" horiz-adv-x="622" 
d="M414 1315l-232 -1315h-108l231 1315h109zM455 586h157l-28 -154h-158z" />
    <glyph glyph-name="Lslash" unicode="&#x141;" horiz-adv-x="948" 
d="M430 1229l-104 -592l391 192l-19 -104l-391 -188l-76 -433h607l-19 -104h-721l84 475l-155 -76l18 101l156 75l114 654h115z" />
    <glyph glyph-name="lslash" unicode="&#x142;" horiz-adv-x="501" 
d="M451 1315l-119 -674l196 100l-18 -102l-197 -98l-94 -541h-108l84 479l-191 -96l19 100l190 97l129 735h109z" />
    <glyph glyph-name="Nacute" unicode="&#x143;" horiz-adv-x="1294" 
d="M899 0l-317 696q-86 183 -166 424l-49 -2q-23 -219 -88 -602l-93 -516h-110l217 1229h168l282 -617q127 -280 195 -483h45q30 271 84 584l90 516h113l-217 -1229h-154zM621 1364l-11 66l549 184l21 -105z" />
    <glyph glyph-name="nacute" unicode="&#x144;" 
d="M266 551l-98 -551h-109l168 948h107l-43 -243h16q57 123 156.5 193.5t230.5 70.5q163 0 239 -100t46 -261l-107 -608h-108l104 596q22 124 -27 198t-179 74q-157 0 -264 -86t-132 -231zM500 1075l-29 62l518 270l41 -88z" />
    <glyph glyph-name="uni0145" unicode="&#x145;" horiz-adv-x="1294" 
d="M899 0l-317 696q-86 183 -166 424l-49 -2q-23 -219 -88 -602l-93 -516h-110l217 1229h168l282 -617q127 -280 195 -483h45q30 271 84 584l90 516h113l-217 -1229h-154zM526 -119h107l-176 -307h-78l4 18z" />
    <glyph glyph-name="uni0146" unicode="&#x146;" 
d="M266 551l-98 -551h-109l168 948h107l-43 -243h16q57 123 156.5 193.5t230.5 70.5q163 0 239 -100t46 -261l-107 -608h-108l104 596q22 124 -27 198t-179 74q-157 0 -264 -86t-132 -231zM430 -119h107l-177 -307h-77l4 18z" />
    <glyph glyph-name="Ncaron" unicode="&#x147;" horiz-adv-x="1294" 
d="M899 0l-317 696q-86 183 -166 424l-49 -2q-23 -219 -88 -602l-93 -516h-110l217 1229h168l282 -617q127 -280 195 -483h45q30 271 84 584l90 516h113l-217 -1229h-154zM827 1341h-57l-219 228l47 53l213 -182l279 182l38 -53z" />
    <glyph glyph-name="ncaron" unicode="&#x148;" 
d="M266 551l-98 -551h-109l168 948h107l-43 -243h16q57 123 156.5 193.5t230.5 70.5q163 0 239 -100t46 -261l-107 -608h-108l104 596q22 124 -27 198t-179 74q-157 0 -264 -86t-132 -231zM686 1087h-57l-211 279l51 49l203 -223l282 223l43 -49z" />
    <glyph glyph-name="napostrophe" unicode="&#x149;" horiz-adv-x="1353" 
d="M307 1229h119l-252 -541h-65l2 12zM455 551l-99 -551h-108l168 948h106l-43 -243h17q57 123 156.5 193.5t230.5 70.5q163 0 238.5 -100t45.5 -261l-106 -608h-109l105 596q22 123 -27.5 197.5t-179.5 74.5q-156 0 -263 -86t-132 -231z" />
    <glyph glyph-name="Eng" unicode="&#x14a;" horiz-adv-x="1294" 
d="M74 0l217 1229h176l307 -649q77 -160 182 -435l27 2q27 240 82 568l92 514h111l-221 -1254q-53 -309 -324 -309q-73 0 -156 12l21 103q82 -14 133 -14q94 0 145 51t70 153l2 15l-348 712q-97 198 -176 418h-47q-25 -236 -91 -600l-90 -516h-112z" />
    <glyph glyph-name="eng" unicode="&#x14b;" 
d="M756 -43l112 639q12 56 5.5 106t-28 87.5t-70 59t-120.5 21.5q-151 0 -257.5 -87t-131.5 -232l-98 -551h-109l168 948h107l-43 -243h14q59 122 160.5 193t228.5 71q169 0 241.5 -99.5t43.5 -263.5l-115 -653q-24 -135 -96.5 -211t-187.5 -76q-53 0 -103 8l21 101
q36 -8 84 -8q145 0 174 190z" />
    <glyph glyph-name="Omacron" unicode="&#x14c;" horiz-adv-x="1349" 
d="M616 -23q-198 0 -327 89t-173.5 240.5t-9.5 346.5q48 274 224.5 436t451.5 162q195 0 324 -88t175 -239.5t11 -345.5q-49 -274 -225 -437.5t-451 -163.5zM618 82q236 0 378.5 136.5t185.5 377.5q15 95 11.5 177.5t-33.5 151.5t-79.5 118t-127 76.5t-175.5 27.5
q-234 0 -376.5 -135t-184.5 -375q-15 -95 -12 -178.5t32 -153t78 -119t126.5 -77t176.5 -27.5zM571 1473h557l-16 -97h-559z" />
    <glyph glyph-name="omacron" unicode="&#x14d;" horiz-adv-x="1081" 
d="M477 -23q-226 0 -330.5 149.5t-62.5 387.5q39 222 177 338.5t341 116.5q216 0 326.5 -146.5t70.5 -378.5q-40 -224 -174.5 -345.5t-347.5 -121.5zM592 870q-163 0 -267.5 -96t-136.5 -276q-32 -190 43 -305t252 -115q168 0 273.5 101t136.5 284q33 185 -47.5 296
t-253.5 111zM387 1239h557l-16 -92h-557z" />
    <glyph glyph-name="Obreve" unicode="&#x14e;" horiz-adv-x="1349" 
d="M616 -23q-198 0 -327 89t-173.5 240.5t-9.5 346.5q48 274 224.5 436t451.5 162q195 0 324 -88t175 -239.5t11 -345.5q-49 -274 -225 -437.5t-451 -163.5zM618 82q236 0 378.5 136.5t185.5 377.5q15 95 11.5 177.5t-33.5 151.5t-79.5 118t-127 76.5t-175.5 27.5
q-234 0 -376.5 -135t-184.5 -375q-15 -95 -12 -178.5t32 -153t78 -119t126.5 -77t176.5 -27.5zM840 1434q192 0 235 180h76q-23 -137 -103.5 -205t-209.5 -68q-130 0 -196 69.5t-44 203.5h76q-18 -180 166 -180z" />
    <glyph glyph-name="obreve" unicode="&#x14f;" horiz-adv-x="1081" 
d="M477 -23q-226 0 -330.5 149.5t-62.5 387.5q39 222 177 338.5t341 116.5q216 0 326.5 -146.5t70.5 -378.5q-40 -224 -174.5 -345.5t-347.5 -121.5zM592 870q-163 0 -267.5 -96t-136.5 -276q-32 -190 43 -305t252 -115q168 0 273.5 101t136.5 284q33 185 -47.5 296
t-253.5 111zM657 1184q89 0 149.5 48.5t86.5 162.5h76q-26 -150 -107 -224.5t-207 -74.5q-132 0 -198 76.5t-41 222.5h78q-26 -211 163 -211z" />
    <glyph glyph-name="Ohungarumlaut" unicode="&#x150;" horiz-adv-x="1349" 
d="M616 -23q-198 0 -327 89t-173.5 240.5t-9.5 346.5q48 274 224.5 436t451.5 162q195 0 324 -88t175 -239.5t11 -345.5q-49 -274 -225 -437.5t-451 -163.5zM618 82q236 0 378.5 136.5t185.5 377.5q15 95 11.5 177.5t-33.5 151.5t-79.5 118t-127 76.5t-175.5 27.5
q-234 0 -376.5 -135t-184.5 -375q-15 -95 -12 -178.5t32 -153t78 -119t126.5 -77t176.5 -27.5zM659 1319l-49 39l279 315l80 -67zM932 1321l-47 43l286 307l78 -69z" />
    <glyph glyph-name="ohungarumlaut" unicode="&#x151;" horiz-adv-x="1081" 
d="M477 -23q-226 0 -330.5 149.5t-62.5 387.5q39 222 177 338.5t341 116.5q216 0 326.5 -146.5t70.5 -378.5q-40 -224 -174.5 -345.5t-347.5 -121.5zM592 870q-163 0 -267.5 -96t-136.5 -276q-32 -190 43 -305t252 -115q168 0 273.5 101t136.5 284q33 185 -47.5 296
t-253.5 111zM479 1071l-53 41l246 330l82 -64zM743 1073l-49 45l256 322l78 -66z" />
    <glyph glyph-name="OE" unicode="&#x152;" horiz-adv-x="1775" 
d="M623 104h170l180 1020h-195q-239 0 -380 -127.5t-181 -353.5q-42 -248 60.5 -393.5t345.5 -145.5zM625 0q-194 0 -323.5 83.5t-178.5 233.5t-14 347q45 261 222 413t457 152h1006l-18 -105h-689l-77 -444h610l-18 -105h-611l-84 -471h688l-18 -104h-952z" />
    <glyph glyph-name="oe" unicode="&#x153;" horiz-adv-x="1851" 
d="M602 870q-164 0 -272.5 -100t-141.5 -276q-33 -192 39.5 -304t243.5 -112q172 0 282.5 108t141.5 293q32 182 -45 286.5t-248 104.5zM1421 874q-153 0 -258 -88t-149 -256h667q52 344 -260 344zM1292 -23q-171 0 -264.5 89.5t-101.5 252.5h-11q-61 -163 -175.5 -252.5
t-272.5 -89.5q-223 0 -325 143t-62 380q38 220 177 344.5t341 124.5q167 0 265.5 -90t105.5 -252h10q63 163 181.5 252.5t269.5 89.5q207 0 298 -120t56 -319q-5 -34 -17 -81h-770q-25 -175 50.5 -274t242.5 -99q73 0 130.5 18t98.5 53.5t69.5 76t53.5 95.5l95 -34
q-131 -308 -445 -308z" />
    <glyph glyph-name="Racute" unicode="&#x154;" horiz-adv-x="1191" 
d="M729 1128h-340l-88 -495h340q147 0 240 60t114 175q23 130 -38 195t-228 65zM905 0l-305 532h-315l-95 -532h-114l217 1229h444q221 0 310 -99t57 -278q-23 -132 -124.5 -215t-262.5 -100l311 -514l-4 -23h-119zM549 1364l-10 66l548 184l21 -105z" />
    <glyph glyph-name="racute" unicode="&#x155;" horiz-adv-x="651" 
d="M168 0h-109l168 948h107l-43 -241h10q112 251 350 251h47l-20 -114h-41q-164 0 -255.5 -81t-123.5 -261zM326 1075l-29 62l518 270l41 -88z" />
    <glyph glyph-name="uni0156" unicode="&#x156;" horiz-adv-x="1191" 
d="M494 -119h106l-176 -307h-78l4 18zM729 1128h-340l-88 -495h340q147 0 240 60t114 175q23 130 -38 195t-228 65zM905 0l-305 532h-315l-95 -532h-114l217 1229h444q221 0 310 -99t57 -278q-23 -132 -124.5 -215t-262.5 -100l311 -514l-4 -23h-119z" />
    <glyph glyph-name="uni0157" unicode="&#x157;" horiz-adv-x="651" 
d="M168 0h-109l168 948h107l-43 -241h10q112 251 350 251h47l-20 -114h-41q-164 0 -255.5 -81t-123.5 -261zM90 -119h107l-177 -307h-77l4 18z" />
    <glyph glyph-name="Rcaron" unicode="&#x158;" horiz-adv-x="1191" 
d="M729 1128h-340l-88 -495h340q147 0 240 60t114 175q23 130 -38 195t-228 65zM905 0l-305 532h-315l-95 -532h-114l217 1229h444q221 0 310 -99t57 -278q-23 -132 -124.5 -215t-262.5 -100l311 -514l-4 -23h-119zM760 1341h-58l-219 228l47 53l213 -182l279 182l39 -53z
" />
    <glyph glyph-name="rcaron" unicode="&#x159;" horiz-adv-x="651" 
d="M168 0h-109l168 948h107l-43 -241h10q112 251 350 251h47l-20 -114h-41q-164 0 -255.5 -81t-123.5 -261zM512 1087h-57l-211 279l51 49l203 -223l282 223l43 -49z" />
    <glyph glyph-name="Sacute" unicode="&#x15a;" horiz-adv-x="1116" 
d="M541 -23q-248 0 -369.5 113t-118.5 311l113 13q3 -163 93 -248.5t286 -85.5q306 0 344 215q20 115 -43.5 174t-253.5 102q-232 52 -316.5 145.5t-58.5 246.5q24 131 137.5 209.5t300.5 78.5q109 0 188.5 -26.5t127.5 -77t72.5 -115.5t29.5 -149l-117 -23
q-8 146 -77 218.5t-234 72.5q-146 0 -225.5 -53.5t-95.5 -149.5q-20 -101 46.5 -166.5t258.5 -109.5q122 -28 202 -67.5t119 -88.5t51.5 -109.5t-2.5 -130.5q-24 -137 -139 -218t-319 -81zM520 1364l-10 66l549 184l20 -105z" />
    <glyph glyph-name="sacute" unicode="&#x15b;" horiz-adv-x="921" 
d="M430 -23q-375 0 -399 322l106 16q4 -54 20.5 -95.5t49.5 -76t91 -53t138 -18.5q233 0 260 157q17 86 -40.5 131.5t-213.5 75.5q-169 33 -234.5 109.5t-45.5 195.5q21 107 110.5 167.5t241.5 60.5q169 0 248 -74.5t94 -206.5l-108 -20q-17 209 -240 209q-106 0 -168 -39.5
t-74 -110.5q-13 -75 39 -125t184 -74q185 -33 260.5 -110t53.5 -203q-18 -112 -111 -175t-262 -63zM434 1075l-28 62l518 270l41 -88z" />
    <glyph glyph-name="Scircumflex" unicode="&#x15c;" horiz-adv-x="1116" 
d="M541 -23q-248 0 -369.5 113t-118.5 311l113 13q3 -163 93 -248.5t286 -85.5q306 0 344 215q20 115 -43.5 174t-253.5 102q-232 52 -316.5 145.5t-58.5 246.5q24 131 137.5 209.5t300.5 78.5q109 0 188.5 -26.5t127.5 -77t72.5 -115.5t29.5 -149l-117 -23
q-8 146 -77 218.5t-234 72.5q-146 0 -225.5 -53.5t-95.5 -149.5q-20 -101 46.5 -166.5t258.5 -109.5q122 -28 202 -67.5t119 -88.5t51.5 -109.5t-2.5 -130.5q-24 -137 -139 -218t-319 -81zM950 1335l-211 183l-280 -183l-37 54l301 227h57l219 -227z" />
    <glyph glyph-name="scircumflex" unicode="&#x15d;" horiz-adv-x="921" 
d="M430 -23q-375 0 -399 322l106 16q4 -54 20.5 -95.5t49.5 -76t91 -53t138 -18.5q233 0 260 157q17 86 -40.5 131.5t-213.5 75.5q-169 33 -234.5 109.5t-45.5 195.5q21 107 110.5 167.5t241.5 60.5q169 0 248 -74.5t94 -206.5l-108 -20q-17 209 -240 209q-106 0 -168 -39.5
t-74 -110.5q-13 -75 39 -125t184 -74q185 -33 260.5 -110t53.5 -203q-18 -112 -111 -175t-262 -63zM823 1075l-202 228l-283 -228l-45 49l311 279h58l210 -279z" />
    <glyph glyph-name="uni015E" unicode="&#x15e;" horiz-adv-x="1116" 
d="M541 -23q-37 0 -72 3l-53 -91q56 17 96 17q66 0 103 -30t26 -93q-9 -51 -59 -89t-138 -38q-117 0 -202 59l49 68q68 -53 160 -53q96 0 110 61q6 32 -16 50t-68 18q-29 0 -92 -15l-47 25l65 119q-180 30 -266.5 137.5t-83.5 275.5l113 13q3 -163 93 -248.5t286 -85.5
q306 0 344 215q20 115 -43.5 174t-253.5 102q-232 52 -316.5 145.5t-58.5 246.5q24 131 137.5 209.5t300.5 78.5q109 0 188.5 -26.5t127.5 -77t72.5 -115.5t29.5 -149l-117 -23q-8 146 -77 218.5t-234 72.5q-146 0 -225.5 -53.5t-95.5 -149.5q-20 -101 46.5 -166.5
t258.5 -109.5q122 -28 202 -67.5t119 -88.5t51.5 -109.5t-2.5 -130.5q-24 -137 -139 -218t-319 -81z" />
    <glyph glyph-name="uni015F" unicode="&#x15f;" horiz-adv-x="921" 
d="M430 -23q-34 0 -68 3l-53 -91q56 17 97 17q66 0 103 -30t26 -93q-9 -51 -59 -89t-138 -38q-118 0 -203 59l49 68q68 -53 160 -53q97 0 111 61q6 32 -16 50t-68 18q-29 0 -92 -15l-48 25l68 121q-248 50 -268 309l106 16q4 -54 20.5 -95.5t49.5 -76t91 -53t138 -18.5
q233 0 260 157q17 86 -40.5 131.5t-213.5 75.5q-169 33 -234.5 109.5t-45.5 195.5q21 107 110.5 167.5t241.5 60.5q169 0 248 -74.5t94 -206.5l-108 -20q-17 209 -240 209q-106 0 -168 -39.5t-74 -110.5q-13 -75 39 -125t184 -74q185 -33 260.5 -110t53.5 -203
q-18 -112 -111 -175t-262 -63z" />
    <glyph glyph-name="Scaron" unicode="&#x160;" horiz-adv-x="1116" 
d="M541 -23q-248 0 -369.5 113t-118.5 311l113 13q3 -163 93 -248.5t286 -85.5q306 0 344 215q20 115 -43.5 174t-253.5 102q-232 52 -316.5 145.5t-58.5 246.5q24 131 137.5 209.5t300.5 78.5q109 0 188.5 -26.5t127.5 -77t72.5 -115.5t29.5 -149l-117 -23
q-8 146 -77 218.5t-234 72.5q-146 0 -225.5 -53.5t-95.5 -149.5q-20 -101 46.5 -166.5t258.5 -109.5q122 -28 202 -67.5t119 -88.5t51.5 -109.5t-2.5 -130.5q-24 -137 -139 -218t-319 -81zM735 1341h-57l-219 228l47 53l213 -182l278 182l39 -53z" />
    <glyph glyph-name="scaron" unicode="&#x161;" horiz-adv-x="921" 
d="M430 -23q-375 0 -399 322l106 16q4 -54 20.5 -95.5t49.5 -76t91 -53t138 -18.5q233 0 260 157q17 86 -40.5 131.5t-213.5 75.5q-169 33 -234.5 109.5t-45.5 195.5q21 107 110.5 167.5t241.5 60.5q169 0 248 -74.5t94 -206.5l-108 -20q-17 209 -240 209q-106 0 -168 -39.5
t-74 -110.5q-13 -75 39 -125t184 -74q185 -33 260.5 -110t53.5 -203q-18 -112 -111 -175t-262 -63zM600 1087h-57l-211 279l51 49l203 -223l282 223l43 -49z" />
    <glyph glyph-name="Tcommaaccent" unicode="&#x162;" horiz-adv-x="1036" 
d="M147 1122l19 107h969l-19 -107h-428l-196 -1122h-56l-65 -111q56 17 96 17q66 0 103 -30t26 -93q-9 -51 -59 -89t-138 -38q-117 0 -202 59l49 68q68 -53 160 -53q96 0 110 61q6 32 -16 50t-68 18q-30 0 -92 -15l-47 25l88 160l192 1093h-426z" />
    <glyph glyph-name="tcommaaccent" unicode="&#x163;" horiz-adv-x="708" 
d="M176 287l98 563h-163l16 98h166l49 281h109l-50 -281h338l-18 -98h-338l-100 -576q-36 -194 141 -194q70 0 158 24l4 -96q-108 -31 -178 -31q-47 0 -91 13l-59 -101q56 17 96 17q66 0 103 -30t26 -93q-9 -51 -58.5 -89t-137.5 -38q-118 0 -203 59l49 68q68 -53 160 -53
q96 0 110 61q6 32 -16 50t-68 18q-30 0 -92 -15l-47 25l80 145q-117 72 -84 273z" />
    <glyph glyph-name="Tcaron" unicode="&#x164;" horiz-adv-x="1036" 
d="M1116 1122h-428l-196 -1122h-115l196 1122h-426l19 107h969zM698 1341h-57l-219 228l47 53l213 -182l279 182l38 -53z" />
    <glyph glyph-name="tcaron" unicode="&#x165;" horiz-adv-x="710" 
d="M723 1376h102l-96 -332h-72zM176 287l98 563h-163l16 98h166l49 281h109l-50 -281h338l-18 -98h-338l-100 -576q-36 -194 141 -194q70 0 158 24l4 -96q-108 -31 -178 -31q-141 0 -198.5 84.5t-33.5 225.5z" />
    <glyph glyph-name="Tbar" unicode="&#x166;" horiz-adv-x="1034" 
d="M150 1122l18 107h969l-19 -107h-428l-88 -499h299l-14 -91h-299l-94 -532h-115l94 532h-305l14 91h305l88 499h-425z" />
    <glyph glyph-name="tbar" unicode="&#x167;" horiz-adv-x="708" 
d="M176 287l33 188h-137l14 88h139l49 287h-163l16 98h166l49 281h109l-50 -281h338l-18 -98h-338l-49 -287h313l-16 -88h-314l-34 -201q-36 -194 141 -194q70 0 158 24l4 -96q-108 -31 -178 -31q-141 0 -198.5 84.5t-33.5 225.5z" />
    <glyph glyph-name="Utilde" unicode="&#x168;" horiz-adv-x="1282" 
d="M594 82q189 0 285 97.5t127 281.5l137 768h112l-137 -783q-41 -236 -171 -351t-355 -115q-250 0 -362.5 127t-71.5 364l133 758h115l-134 -756q-10 -67 -10 -126t20.5 -108t58 -83.5t101.5 -54t152 -19.5zM653 1663q48 0 82.5 -22.5t54 -54.5t36.5 -64.5t40 -55t54 -22.5
q46 0 71 50t43 163h72q-2 -35 -10 -92q-18 -104 -67 -158.5t-114 -54.5q-45 0 -78 23t-52.5 55t-37 64.5t-42 55.5t-56.5 23q-50 0 -75.5 -47t-43.5 -160h-71q3 58 8 88q18 104 66.5 156.5t119.5 52.5z" />
    <glyph glyph-name="utilde" unicode="&#x169;" 
d="M756 0l41 242h-15q-57 -123 -157 -194t-230 -71q-162 0 -238 100.5t-46 262.5l106 608h109l-105 -596q-22 -123 27.5 -197.5t179.5 -74.5q158 0 264 86t131 231l99 551h108l-168 -948h-106zM549 1417q40 0 71.5 -16t49 -40.5t34.5 -53t30 -53t34 -40.5t47 -16
q46 0 71.5 50t43.5 163h71q-2 -35 -10 -92q-18 -104 -66.5 -158.5t-113.5 -54.5q-45 0 -78 23t-52.5 55t-37 64.5t-42 55.5t-56.5 23q-50 0 -75.5 -47t-43.5 -160h-72q3 58 8 88q18 103 67 156t120 53z" />
    <glyph glyph-name="Umacron" unicode="&#x16a;" horiz-adv-x="1282" 
d="M594 82q189 0 285 97.5t127 281.5l137 768h112l-137 -783q-41 -236 -171 -351t-355 -115q-250 0 -362.5 127t-71.5 364l133 758h115l-134 -756q-10 -67 -10 -126t20.5 -108t58 -83.5t101.5 -54t152 -19.5zM539 1473h557l-17 -97h-559z" />
    <glyph glyph-name="umacron" unicode="&#x16b;" 
d="M756 0l41 242h-15q-57 -123 -157 -194t-230 -71q-162 0 -238 100.5t-46 262.5l106 608h109l-105 -596q-22 -123 27.5 -197.5t179.5 -74.5q158 0 264 86t131 231l99 551h108l-168 -948h-106zM395 1239h557l-16 -92h-557z" />
    <glyph glyph-name="Ubreve" unicode="&#x16c;" horiz-adv-x="1282" 
d="M594 82q189 0 285 97.5t127 281.5l137 768h112l-137 -783q-41 -236 -171 -351t-355 -115q-250 0 -362.5 127t-71.5 364l133 758h115l-134 -756q-10 -67 -10 -126t20.5 -108t58 -83.5t101.5 -54t152 -19.5zM807 1434q192 0 235 180h76q-23 -137 -103.5 -205t-209.5 -68
q-130 0 -196 69.5t-44 203.5h76q-18 -180 166 -180z" />
    <glyph glyph-name="ubreve" unicode="&#x16d;" 
d="M756 0l41 242h-15q-57 -123 -157 -194t-230 -71q-162 0 -238 100.5t-46 262.5l106 608h109l-105 -596q-22 -123 27.5 -197.5t179.5 -74.5q158 0 264 86t131 231l99 551h108l-168 -948h-106zM666 1184q89 0 149 48.5t86 162.5h76q-26 -151 -106.5 -225t-206.5 -74
q-132 0 -198.5 76.5t-41.5 222.5h78q-14 -112 32 -161.5t132 -49.5z" />
    <glyph glyph-name="Uring" unicode="&#x16e;" horiz-adv-x="1282" 
d="M594 82q189 0 285 97.5t127 281.5l137 768h112l-137 -783q-41 -236 -171 -351t-355 -115q-250 0 -362.5 127t-71.5 364l133 758h115l-134 -756q-10 -67 -10 -126t20.5 -108t58 -83.5t101.5 -54t152 -19.5zM1030 1524q-15 -87 -78 -139t-155 -52q-95 0 -141 56.5
t-29 150.5q15 88 77 140.5t154 52.5q93 0 140 -57.5t32 -151.5zM711 1536q-10 -60 16 -93.5t82 -33.5q54 0 90.5 31.5t46.5 89.5q10 60 -16.5 92.5t-83.5 32.5q-54 0 -90 -31t-45 -88z" />
    <glyph glyph-name="uring" unicode="&#x16f;" 
d="M756 0l41 242h-15q-57 -123 -157 -194t-230 -71q-162 0 -238 100.5t-46 262.5l106 608h109l-105 -596q-22 -123 27.5 -197.5t179.5 -74.5q158 0 264 86t131 231l99 551h108l-168 -948h-106zM549 1296q-12 -68 19.5 -104.5t97.5 -36.5q61 0 102 35t51 100q12 68 -19.5 105
t-97.5 37q-61 0 -102 -35.5t-51 -100.5zM903 1278q-17 -95 -83 -149t-163 -54q-105 0 -158 65.5t-34 168.5q17 95 82 148.5t162 53.5q105 0 158 -65.5t36 -167.5z" />
    <glyph glyph-name="Uhungarumlaut" unicode="&#x170;" horiz-adv-x="1282" 
d="M594 82q189 0 285 97.5t127 281.5l137 768h112l-137 -783q-41 -236 -171 -351t-355 -115q-250 0 -362.5 127t-71.5 364l133 758h115l-134 -756q-10 -67 -10 -126t20.5 -108t58 -83.5t101.5 -54t152 -19.5zM627 1319l-49 39l278 315l80 -67zM899 1321l-47 43l287 307
l78 -69z" />
    <glyph glyph-name="uhungarumlaut" unicode="&#x171;" 
d="M756 0l41 242h-15q-57 -123 -157 -194t-230 -71q-162 0 -238 100.5t-46 262.5l106 608h109l-105 -596q-22 -123 27.5 -197.5t179.5 -74.5q158 0 264 86t131 231l99 551h108l-168 -948h-106zM756 1073l-49 45l256 322l77 -66zM492 1071l-54 41l246 330l82 -64z" />
    <glyph glyph-name="Uogonek" unicode="&#x172;" horiz-adv-x="1282" 
d="M594 82q189 0 285 97.5t127 281.5l137 768h112l-137 -783q-38 -216 -151 -330.5t-305 -133.5q-183 -45 -201 -134q-7 -44 24.5 -65t100.5 -21q30 0 114 15l-10 -96q-76 -13 -129 -13q-104 0 -153 41.5t-37 112.5q17 103 170 160q-224 12 -323.5 138t-59.5 351l133 758
h115l-134 -756q-10 -67 -10 -126t20.5 -108t58 -83.5t101.5 -54t152 -19.5z" />
    <glyph glyph-name="uogonek" unicode="&#x173;" 
d="M811 -319q-76 -13 -129 -13q-104 0 -153 41.5t-37 112.5q23 135 266 184l39 236h-15q-57 -123 -157 -194t-230 -71q-162 0 -238 100.5t-46 262.5l106 608h109l-105 -596q-22 -123 27.5 -197.5t179.5 -74.5q158 0 264 86t131 231l99 551h108l-168 -948q-136 -26 -203 -62
t-77 -90q-7 -44 24.5 -65t100.5 -21q30 0 114 15z" />
    <glyph glyph-name="Wcircumflex" unicode="&#x174;" horiz-adv-x="1699" 
d="M684 510l-235 -510h-177l-125 1229h123l49 -623q27 -378 33 -504h56q18 44 51 125.5t52.5 129.5t49 117t57.5 130l287 625h152l65 -625q26 -271 37 -502h53q84 222 207 504l271 623h127l-557 -1229h-179l-55 510q-38 404 -43 606h-41q-123 -308 -258 -606zM1249 1335
l-211 183l-280 -183l-37 54l301 227h57l219 -227z" />
    <glyph glyph-name="wcircumflex" unicode="&#x175;" horiz-adv-x="1503" 
d="M897 948l55 -366q45 -306 56 -482h34q46 104 232 490l178 358h117l-488 -948h-143l-64 424q-28 197 -47 424h-26q-91 -219 -195 -424l-211 -424h-141l-156 948h109l55 -358q4 -27 14.5 -96.5t15.5 -104t12.5 -90.5t12 -103.5t7.5 -95.5h38q71 171 224 482l180 366h131z
M1106 1075l-203 228l-282 -228l-46 49l312 279h57l211 -279z" />
    <glyph glyph-name="Ycircumflex" unicode="&#x176;" horiz-adv-x="1071" 
d="M508 0h-113l76 434l-342 772l4 23h113l286 -703h19l530 703h121l-4 -23l-612 -776zM934 1335l-211 183l-281 -183l-36 54l301 227h57l219 -227z" />
    <glyph glyph-name="ycircumflex" unicode="&#x177;" horiz-adv-x="962" 
d="M14 -338q-63 0 -133 12l27 103q67 -13 115 -13q64 0 109.5 15.5t102.5 70.5t121 158l-266 940h117l82 -332q8 -32 37 -147.5t51 -207.5t37 -163h20q141 257 291 516l195 334h120l-589 -960q-107 -175 -207.5 -250.5t-229.5 -75.5zM836 1075l-203 228l-283 -228l-45 49
l311 279h58l211 -279z" />
    <glyph glyph-name="Ydieresis" unicode="&#x178;" horiz-adv-x="1071" 
d="M508 0h-113l76 434l-342 772l4 23h113l286 -703h19l530 703h121l-4 -23l-612 -776zM430 1520h152l-27 -152h-152zM805 1520h151l-26 -152h-152z" />
    <glyph glyph-name="Zacute" unicode="&#x179;" horiz-adv-x="1138" 
d="M975 106l-19 -106h-966l20 106l1010 1027l-4 12q-269 -23 -451 -23h-350l18 107h941l-19 -103l-1018 -1032l4 -10q288 22 492 22h342zM530 1364l-10 66l549 184l21 -105z" />
    <glyph glyph-name="zacute" unicode="&#x17a;" horiz-adv-x="978" 
d="M549 100h272l-18 -100h-803l18 102l811 758l-4 10q-236 -22 -438 -22h-219l16 100h777l-19 -102l-807 -758l4 -10q271 22 410 22zM436 1075l-28 62l518 270l41 -88z" />
    <glyph glyph-name="Zdotaccent" unicode="&#x17b;" horiz-adv-x="1138" 
d="M975 106l-19 -106h-966l20 106l1010 1027l-4 12q-269 -23 -451 -23h-350l18 107h941l-19 -103l-1018 -1032l4 -10q288 22 492 22h342zM645 1567h158l-29 -154h-158z" />
    <glyph glyph-name="zdotaccent" unicode="&#x17c;" horiz-adv-x="978" 
d="M549 100h272l-18 -100h-803l18 102l811 758l-4 10q-236 -22 -438 -22h-219l16 100h777l-19 -102l-807 -758l4 -10q271 22 410 22zM555 1315h158l-29 -154h-158z" />
    <glyph glyph-name="Zcaron" unicode="&#x17d;" horiz-adv-x="1138" 
d="M975 106l-19 -106h-966l20 106l1010 1027l-4 12q-269 -23 -451 -23h-350l18 107h941l-19 -103l-1018 -1032l4 -10q288 22 492 22h342zM739 1341h-57l-219 228l47 53l213 -182l278 182l39 -53z" />
    <glyph glyph-name="zcaron" unicode="&#x17e;" horiz-adv-x="978" 
d="M549 100h272l-18 -100h-803l18 102l811 758l-4 10q-236 -22 -438 -22h-219l16 100h777l-19 -102l-807 -758l4 -10q271 22 410 22zM621 1087h-58l-211 279l51 49l203 -223l283 223l43 -49z" />
    <glyph glyph-name="Aringacute" unicode="&#x1fa;" horiz-adv-x="1171" 
d="M635 1593l-8 64l547 188l14 -112zM418 639l-88 -152h524l-35 152q-65 292 -92 485h-45q-107 -209 -264 -485zM643 1356q-10 -55 12 -88.5t68 -38.5h37q48 5 79 36t40 85q10 60 -17 93.5t-84 33.5q-54 0 -90 -32t-45 -89zM967 0l-90 393h-601l-227 -393h-127l696 1180
q-83 55 -59 180q15 89 77.5 141.5t154.5 52.5q94 0 141.5 -58t32.5 -153q-12 -67 -54 -114t-104 -68l274 -1161h-114z" />
    <glyph glyph-name="aringacute" unicode="&#x1fb;" horiz-adv-x="1095" 
d="M543 1501l-8 80l528 137l8 -94zM586 1253q-10 -60 16 -93.5t82 -33.5q54 0 90.5 31.5t46.5 89.5q10 60 -16.5 92.5t-83.5 32.5q-54 0 -90 -31t-45 -88zM905 1241q-15 -87 -78 -138.5t-155 -51.5q-95 0 -141 56t-29 150q15 88 77 140.5t154 52.5q93 0 140 -57.5t32 -151.5
zM436 78q146 0 251 88.5t142 239.5l9 49l14 75q19 153 -58.5 246.5t-228.5 93.5q-310 0 -377 -387q-72 -405 248 -405zM82 502q38 223 158.5 346t298.5 121q160 1 240 -79t91 -216l7 4l49 270h108l-168 -948h-108l45 260l-2 -2v12q-55 -131 -162.5 -212t-249.5 -81
q-188 0 -269.5 138t-37.5 387z" />
    <glyph glyph-name="AEacute" unicode="&#x1fc;" horiz-adv-x="1732" 
d="M891 1364l-10 66l549 184l20 -105zM733 0l58 319h-490l-238 -319h-126l4 12l919 1217h893l-18 -105h-688l-78 -444h610l-18 -105h-611l-84 -471h688l-18 -104h-803zM539 639l-164 -221h432l125 710h-43q-140 -205 -350 -489z" />
    <glyph glyph-name="aeacute" unicode="&#x1fd;" horiz-adv-x="1712" 
d="M338 76q156 0 264 75.5t129 192.5l17 88h-338q-224 0 -254 -164q-15 -82 29 -137t153 -55zM1278 874q-154 0 -258.5 -89.5t-147.5 -260.5h670q53 350 -264 350zM1595 285q-131 -308 -444 -308q-170 0 -272 77t-123 210q-57 -142 -177 -213t-266 -71q-144 0 -217 75.5
t-47 216.5q21 109 114 172.5t247 63.5h350l18 98q23 134 -26 200t-189 66q-112 0 -187.5 -56.5t-121.5 -170.5l-100 31q59 141 164.5 217t246.5 76q306 0 318 -248q127 248 403 248q206 0 299 -120t60 -323q-4 -26 -19 -82h-768q-24 -174 52 -271t243 -97q139 0 218.5 63.5
t131.5 179.5zM809 1075l-29 62l518 270l41 -88z" />
    <glyph glyph-name="Oslashacute" unicode="&#x1fe;" horiz-adv-x="1341" 
d="M616 -23q-263 0 -403 156l-156 -133h-110v10l219 187q-110 182 -60 456q48 274 224.5 436t451.5 162q273 0 414 -170l170 148h102l-2 -10l-227 -199q100 -177 53 -442q-49 -274 -225 -437.5t-451 -163.5zM215 637q-40 -223 37 -367l860 740q-108 137 -332 137
q-236 0 -379.5 -134.5t-185.5 -375.5zM655 1364l-10 66l549 184l20 -105zM618 80q237 0 380 137t186 379q38 206 -31 348l-858 -739q109 -125 323 -125z" />
    <glyph glyph-name="oslashacute" unicode="&#x1ff;" horiz-adv-x="1081" 
d="M477 -23q-205 0 -313 127l-121 -104h-109l3 12l184 158q-72 138 -37 344q36 218 175.5 336.5t342.5 118.5q200 0 309 -125l119 104h103l-3 -12l-176 -154q80 -137 45 -338q-39 -220 -174.5 -343.5t-347.5 -123.5zM592 872q-164 0 -269 -96.5t-137 -277.5
q-27 -151 17 -258l633 538q-84 94 -244 94zM502 1075l-29 62l518 270l41 -88zM483 76q170 0 276.5 101.5t137.5 285.5q28 151 -23 252l-632 -541q82 -98 241 -98z" />
    <glyph glyph-name="uni0218" unicode="&#x218;" horiz-adv-x="1116" 
d="M541 -23q-248 0 -369.5 113t-118.5 311l113 13q3 -163 93 -248.5t286 -85.5q306 0 344 215q20 115 -43.5 174t-253.5 102q-232 52 -316.5 145.5t-58.5 246.5q24 131 137.5 209.5t300.5 78.5q109 0 188.5 -26.5t127.5 -77t72.5 -115.5t29.5 -149l-117 -23
q-8 146 -77 218.5t-234 72.5q-146 0 -225.5 -53.5t-95.5 -149.5q-20 -101 46.5 -166.5t258.5 -109.5q122 -28 202 -67.5t119 -88.5t51.5 -109.5t-2.5 -130.5q-24 -137 -139 -218t-319 -81zM418 -119h106l-176 -307h-78l4 18z" />
    <glyph glyph-name="uni0219" unicode="&#x219;" horiz-adv-x="921" 
d="M430 -23q-375 0 -399 322l106 16q4 -54 20.5 -95.5t49.5 -76t91 -53t138 -18.5q233 0 260 157q17 86 -40.5 131.5t-213.5 75.5q-169 33 -234.5 109.5t-45.5 195.5q21 107 110.5 167.5t241.5 60.5q169 0 248 -74.5t94 -206.5l-108 -20q-17 209 -240 209q-106 0 -168 -39.5
t-74 -110.5q-13 -75 39 -125t184 -74q185 -33 260.5 -110t53.5 -203q-18 -112 -111 -175t-262 -63zM348 -119h107l-176 -307h-78l4 18z" />
    <glyph glyph-name="uni021A" unicode="&#x21a;" horiz-adv-x="1036" 
d="M147 1122l19 107h969l-19 -107h-428l-196 -1122h-115l196 1122h-426zM397 -119h107l-176 -307h-78l4 18z" />
    <glyph glyph-name="uni021B" unicode="&#x21b;" horiz-adv-x="708" 
d="M176 287l98 563h-163l16 98h166l49 281h109l-50 -281h338l-18 -98h-338l-100 -576q-36 -194 141 -194q70 0 158 24l4 -96q-108 -31 -178 -31q-141 0 -198.5 84.5t-33.5 225.5zM254 -119h106l-176 -307h-78l5 18z" />
    <glyph glyph-name="circumflex" unicode="&#x2c6;" horiz-adv-x="663" 
d="M686 1075l-203 228l-282 -228l-45 49l311 279h57l211 -279z" />
    <glyph glyph-name="caron" unicode="&#x2c7;" horiz-adv-x="663" 
d="M467 1087h-57l-211 279l51 49l203 -223l282 223l43 -49z" />
    <glyph glyph-name="breve" unicode="&#x2d8;" horiz-adv-x="665" 
d="M461 1184q89 0 149 48.5t86 162.5h76q-26 -151 -106.5 -225t-206.5 -74q-132 0 -198.5 76.5t-41.5 222.5h78q-14 -112 32 -161.5t132 -49.5z" />
    <glyph glyph-name="dotaccent" unicode="&#x2d9;" horiz-adv-x="274" 
d="M207 1315h158l-29 -154h-158z" />
    <glyph glyph-name="ring" unicode="&#x2da;" horiz-adv-x="587" 
d="M657 1278q-17 -95 -82.5 -149t-162.5 -54q-105 0 -158.5 65.5t-34.5 168.5q17 95 82 148.5t162 53.5q105 0 158 -65.5t36 -167.5zM303 1296q-12 -68 19.5 -104.5t97.5 -36.5q61 0 102 35t51 100q12 68 -19.5 105t-96.5 37q-61 0 -102.5 -35.5t-51.5 -100.5z" />
    <glyph glyph-name="ogonek" unicode="&#x2db;" horiz-adv-x="436" 
d="M272 18l35 -18q-136 -26 -203 -62t-77 -90q-7 -44 24.5 -65t100.5 -21q30 0 114 15l-10 -96q-76 -13 -129 -13q-104 0 -153 41.5t-37 112.5q13 80 102.5 129t232.5 67z" />
    <glyph glyph-name="tilde" unicode="&#x2dc;" horiz-adv-x="692" 
d="M360 1417q48 0 82.5 -22.5t54 -54.5t36.5 -64.5t40 -55t54 -22.5q46 0 71 50t43 163h72q-2 -35 -10 -92q-18 -104 -66.5 -158.5t-113.5 -54.5q-45 0 -78 23t-53 55t-37.5 64.5t-42 55.5t-56.5 23q-50 0 -75 -46.5t-43 -160.5h-72q3 58 8 88q18 104 66.5 156.5t119.5 52.5
z" />
    <glyph glyph-name="hungarumlaut" unicode="&#x2dd;" horiz-adv-x="706" 
d="M242 1071l-54 41l246 330l82 -64zM506 1073l-49 45l256 322l78 -66z" />
    <glyph glyph-name="Wgrave" unicode="&#x1e80;" horiz-adv-x="1699" 
d="M684 510l-235 -510h-177l-125 1229h123l49 -623q27 -378 33 -504h56q18 44 51 125.5t52.5 129.5t49 117t57.5 130l287 625h152l65 -625q26 -271 37 -502h53q84 222 207 504l271 623h127l-557 -1229h-179l-55 510q-38 404 -43 606h-41q-123 -308 -258 -606zM1167 1364
l-503 147l43 99l487 -180z" />
    <glyph glyph-name="wgrave" unicode="&#x1e81;" horiz-adv-x="1503" 
d="M897 948l55 -366q45 -306 56 -482h34q46 104 232 490l178 358h117l-488 -948h-143l-64 424q-28 197 -47 424h-26q-91 -219 -195 -424l-211 -424h-141l-156 948h109l55 -358q4 -27 14.5 -96.5t15.5 -104t12.5 -90.5t12 -103.5t7.5 -95.5h38q71 171 224 482l180 366h131z
M1028 1077l-448 240l55 92l424 -272z" />
    <glyph glyph-name="Wacute" unicode="&#x1e82;" horiz-adv-x="1699" 
d="M684 510l-235 -510h-177l-125 1229h123l49 -623q27 -378 33 -504h56q18 44 51 125.5t52.5 129.5t49 117t57.5 130l287 625h152l65 -625q26 -271 37 -502h53q84 222 207 504l271 623h127l-557 -1229h-179l-55 510q-38 404 -43 606h-41q-123 -308 -258 -606zM821 1364
l-10 66l549 184l20 -105z" />
    <glyph glyph-name="wacute" unicode="&#x1e83;" horiz-adv-x="1503" 
d="M897 948l55 -366q45 -306 56 -482h34q46 104 232 490l178 358h117l-488 -948h-143l-64 424q-28 197 -47 424h-26q-91 -219 -195 -424l-211 -424h-141l-156 948h109l55 -358q4 -27 14.5 -96.5t15.5 -104t12.5 -90.5t12 -103.5t7.5 -95.5h38q71 171 224 482l180 366h131z
M700 1075l-28 62l518 270l41 -88z" />
    <glyph glyph-name="Wdieresis" unicode="&#x1e84;" horiz-adv-x="1699" 
d="M684 510l-235 -510h-177l-125 1229h123l49 -623q27 -378 33 -504h56q18 44 51 125.5t52.5 129.5t49 117t57.5 130l287 625h152l65 -625q26 -271 37 -502h53q84 222 207 504l271 623h127l-557 -1229h-179l-55 510q-38 404 -43 606h-41q-123 -308 -258 -606zM745 1520h152
l-27 -152h-151zM1120 1520h152l-27 -152h-151z" />
    <glyph glyph-name="wdieresis" unicode="&#x1e85;" horiz-adv-x="1503" 
d="M897 948l55 -366q45 -306 56 -482h34q46 104 232 490l178 358h117l-488 -948h-143l-64 424q-28 197 -47 424h-26q-91 -219 -195 -424l-211 -424h-141l-156 948h109l55 -358q4 -27 14.5 -96.5t15.5 -104t12.5 -90.5t12 -103.5t7.5 -95.5h38q71 171 224 482l180 366h131z
M625 1288h151l-26 -151h-152zM999 1288h152l-27 -151h-151z" />
    <glyph glyph-name="uni1E9E" unicode="&#x1e9e;" horiz-adv-x="1210" 
d="M764 -20q-152 0 -241 61.5t-115 169.5l77 61q21 -90 93 -140t188 -50q201 0 229 166q16 84 -32 136.5t-142 92.5q-23 11 -41 20t-41 22t-38.5 25t-34.5 28.5t-30 32.5t-23.5 37.5t-15.5 43.5t-6 50t5 57q11 60 50.5 114.5t99.5 97t113 71.5t118 57l-4 22
q-143 -22 -293 -22q-83 0 -147 -26t-103.5 -71.5t-62 -98t-33.5 -116.5l-146 -821h-114l147 831q34 196 153 297t322 101h404l-17 -99q-186 -92 -277 -172.5t-106 -166.5q-7 -43 3.5 -77.5t38 -61t57.5 -45t75 -38.5q129 -58 189 -137.5t39 -198.5q-20 -114 -104 -183.5
t-234 -69.5z" />
    <glyph glyph-name="endash" unicode="&#x2013;" horiz-adv-x="974" 
d="M61 549h877l-18 -103h-877z" />
    <glyph glyph-name="emdash" unicode="&#x2014;" horiz-adv-x="1761" 
d="M61 549h1663l-18 -103h-1663z" />
    <glyph glyph-name="quoteleft" unicode="&#x2018;" horiz-adv-x="364" 
d="M227 688h-118l251 541h66l-2 -12z" />
    <glyph glyph-name="quoteright" unicode="&#x2019;" horiz-adv-x="364" 
d="M307 1229h119l-252 -541h-65l2 12z" />
    <glyph glyph-name="quotesinglbase" unicode="&#x201a;" horiz-adv-x="356" 
d="M135 227h119l-252 -540h-65l2 12z" />
    <glyph glyph-name="quotedblleft" unicode="&#x201c;" horiz-adv-x="667" 
d="M246 688h-119l252 541h65l-2 -12zM547 688h-119l252 541h65l-2 -12z" />
    <glyph glyph-name="quotedblright" unicode="&#x201d;" horiz-adv-x="665" 
d="M307 1229h119l-252 -541h-65l2 12zM606 1229h119l-252 -541h-65l2 12z" />
    <glyph glyph-name="quotedblbase" unicode="&#x201e;" horiz-adv-x="636" 
d="M125 227h119l-252 -540h-66l2 12zM424 227h119l-252 -540h-66l2 12z" />
    <glyph glyph-name="dagger" unicode="&#x2020;" horiz-adv-x="1116" 
d="M455 -430h-115l227 1282h-325l-76 -416h-105l91 512h432l75 424h113l-74 -424h432l-90 -512h-104l74 416h-330z" />
    <glyph glyph-name="daggerdbl" unicode="&#x2021;" horiz-adv-x="1138" 
d="M670 1372h114l-55 -313h432l-69 -400h-107l53 304h-325l-154 -867h328l53 303h104l-69 -399h-432l-76 -430h-115l76 430h-432l70 399h106l-55 -303h327l154 867h-326l-55 -304h-104l69 400h432z" />
    <glyph glyph-name="bullet" unicode="&#x2022;" horiz-adv-x="522" 
d="M156 633h266l-47 -264h-266z" />
    <glyph glyph-name="ellipsis" unicode="&#x2026;" 
d="M41 168h170l-31 -168h-168zM406 168h169l-30 -168h-168zM770 168h170l-31 -168h-168z" />
    <glyph glyph-name="perthousand" unicode="&#x2030;" horiz-adv-x="2179" 
d="M1755 -20q-149 0 -221 101.5t-43 264.5q28 146 122.5 228.5t231.5 82.5q147 0 218.5 -98t43.5 -260q-28 -151 -122 -235t-230 -84zM1757 68q106 0 172.5 66t87.5 185q20 116 -27.5 183t-150.5 67q-104 0 -170 -63.5t-86 -179.5q-22 -118 23.5 -188t150.5 -70zM422 571
q-150 0 -221.5 100.5t-40.5 264.5q26 148 120.5 230.5t231.5 82.5q149 0 220 -98.5t42 -261.5q-26 -148 -121 -233t-231 -85zM426 659q105 0 171 66.5t87 185.5q22 115 -25.5 182.5t-150.5 67.5q-105 0 -171.5 -63.5t-86.5 -179.5q-21 -119 25.5 -189t150.5 -70zM1032 -20
q-150 0 -222.5 101.5t-41.5 264.5q26 146 120.5 228.5t231.5 82.5q149 0 220 -98t42 -260q-26 -150 -120.5 -234.5t-229.5 -84.5zM1034 68q105 0 171.5 66t88.5 185q20 116 -27.5 183t-150.5 67q-104 0 -171 -63.5t-87 -179.5q-21 -119 25.5 -188.5t150.5 -69.5zM1329 1229
h137l-2 -12l-585 -527l-43 45zM221 0h-137v12l588 527l43 -45z" />
    <glyph glyph-name="guilsinglleft" unicode="&#x2039;" horiz-adv-x="759" 
d="M618 72h-104l-461 434l8 45l607 434h112l-6 -27l-604 -430l-2 -12l455 -424z" />
    <glyph glyph-name="guilsinglright" unicode="&#x203a;" horiz-adv-x="770" 
d="M113 55h-113l6 27l602 432l2 10l-452 426l4 21h102l461 -434l-6 -45z" />
    <glyph glyph-name="fraction" unicode="&#x2044;" horiz-adv-x="47" 
d="M604 1229h137l-2 -12l-585 -527l-43 45zM-504 0h-137v12l588 527l43 -45z" />
    <glyph glyph-name="Euro" unicode="&#x20ac;" horiz-adv-x="1325" 
d="M647 -23q-215 0 -332 128.5t-122 347.5h-156l14 82h144q2 33 14 108q4 26 8 41h-139l14 82h146q65 232 212.5 358.5t364.5 126.5q220 0 339 -124t124 -332l-111 -17q-11 186 -98.5 277.5t-265.5 91.5q-336 0 -453 -381h383l-14 -82h-391q-2 -9 -5.5 -27.5t-5.5 -27.5
q-9 -51 -12 -94h387l-14 -82h-375q3 -174 92 -272.5t258 -98.5q120 0 211 47t151 129.5t105 208.5l103 -27q-156 -463 -576 -463z" />
    <glyph glyph-name="uni2116" unicode="&#x2116;" horiz-adv-x="2152" 
d="M1319 352h678l-17 -100h-680zM1706 598q122 0 198 75t99 204q24 131 -28 203.5t-175 72.5q-120 0 -194.5 -70t-98.5 -198q-24 -133 25.5 -210t173.5 -77zM1702 502q-165 0 -247 107.5t-50 289.5q29 163 137 256.5t264 93.5q167 0 248.5 -104.5t50.5 -284.5
q-29 -165 -138 -261.5t-265 -96.5zM899 0l-317 696q-86 183 -166 424l-49 -2q-23 -219 -88 -602l-93 -516h-110l217 1229h168l282 -617q127 -280 195 -483h45q30 271 84 584l90 516h113l-217 -1229h-154z" />
    <glyph glyph-name="trademark" unicode="&#x2122;" horiz-adv-x="1787" 
d="M168 1143l14 86h631l-14 -86h-269l-108 -621h-98l110 621h-266zM963 778l-45 -256h-93l125 707h168l49 -195q7 -27 29 -108t38.5 -147t25.5 -115h22q124 219 223 370l121 195h160l-125 -707h-96l45 256q33 194 71 361h-28q-107 -194 -211 -357l-139 -219h-95l-61 215
q-94 345 -98 361h-29q-16 -119 -57 -361z" />
    <glyph glyph-name="uni2190" unicode="&#x2190;" horiz-adv-x="1540" 
d="M45 557l12 70l777 577l57 -84q-294 -217 -721 -481l4 -10q298 14 703 14h577l-18 -104h-578q-394 0 -696 18l-8 -12q262 -207 542 -484l-80 -79z" />
    <glyph glyph-name="arrowup" unicode="&#x2191;" horiz-adv-x="1406" 
d="M670 1305h67l578 -676l-82 -66q-293 350 -481 631l-13 -6q17 -289 17 -699v-579h-105v579q0 430 19 699l-15 6q-209 -309 -481 -631l-80 70z" />
    <glyph glyph-name="uni2192" unicode="&#x2192;" horiz-adv-x="1540" 
d="M1495 627l-12 -68l-776 -579l-58 86q297 216 721 479l-4 12q-275 -16 -702 -16h-578l18 104h578q394 0 696 -18l8 12q-267 211 -542 483l80 80z" />
    <glyph glyph-name="arrowdown" unicode="&#x2193;" horiz-adv-x="1406" 
d="M739 -68h-67l-578 674l82 68q282 -338 479 -631l15 6q-17 289 -17 699v577h105v-577q0 -376 -19 -699l15 -6q217 316 481 631l80 -70z" />
    <glyph glyph-name="minus" unicode="&#x2212;" horiz-adv-x="1013" 
d="M961 573h-873l16 101h873z" />
    <glyph glyph-name="uni25A0" unicode="&#x25a0;" horiz-adv-x="1843" 
d="M74 -244q4 283 4 848t-4 848q283 -6 848 -6q564 0 847 6q-4 -283 -4 -848t4 -848q-424 6 -847 6t-848 -6z" />
    <glyph glyph-name="uni25B2" unicode="&#x25b2;" horiz-adv-x="1843" 
d="M154 0v8l768 1264h8l762 -1264v-8h-1538z" />
    <glyph glyph-name="uni25B3" unicode="&#x25b3;" horiz-adv-x="1843" 
d="M154 0v8l768 1264h8l762 -1264v-8h-1538zM926 102q280 0 628 -28l5 8q-369 507 -629 1053h-8q-272 -566 -627 -1053l4 -8q373 28 627 28z" />
    <glyph glyph-name="uni25B6" unicode="&#x25b6;" horiz-adv-x="1843" 
d="M369 1391h8l1263 -768v-9l-1263 -761h-8v1538z" />
    <glyph glyph-name="uni25B7" unicode="&#x25b7;" horiz-adv-x="1843" 
d="M369 1391h8l1263 -768v-9l-1263 -761h-8v1538zM471 618q0 -267 -29 -628l9 -4q504 368 1052 628v9q-567 272 -1052 626l-9 -4q29 -386 29 -627z" />
    <glyph glyph-name="uni25BC" unicode="&#x25bc;" horiz-adv-x="1843" 
d="M1690 1229v-8l-768 -1264h-9l-761 1264v8h1538z" />
    <glyph glyph-name="uni25BD" unicode="&#x25bd;" horiz-adv-x="1843" 
d="M1546 1147l-4 8q-386 -29 -627 -29q-267 0 -628 29l-4 -8q367 -503 628 -1053h9q274 570 626 1053zM150 1229h1538v-8l-768 -1264h-9l-761 1264v8z" />
    <glyph glyph-name="uni25C0" unicode="&#x25c0;" horiz-adv-x="1843" 
d="M1475 1391h-9l-1263 -768v-9l1263 -761h9v1538z" />
    <glyph glyph-name="uni25C1" unicode="&#x25c1;" horiz-adv-x="1843" 
d="M1466 1391h9v-1538h-9l-1263 761v9zM1372 618q0 241 29 627l-8 4q-483 -352 -1053 -626v-9q550 -261 1053 -628l8 4q-29 361 -29 628z" />
    <glyph glyph-name="uni25C6" unicode="&#x25c6;" horiz-adv-x="1843" 
d="M922 -395q-483 521 -990 989q540 502 990 989q457 -493 989 -989q-500 -461 -989 -989z" />
    <glyph glyph-name="uni25CF" unicode="&#x25cf;" horiz-adv-x="1843" 
d="M-6 602q0 284 112.5 494t323 322t494.5 112q427 0 676 -249.5t249 -678.5t-249 -678.5t-676 -249.5q-284 0 -494.5 112t-323 322t-112.5 494z" />
    <glyph glyph-name="uni2605" unicode="&#x2605;" horiz-adv-x="1843" 
d="M1448 -160l-526 305l-523 -305l-6 4l125 592l-450 404l2 8l604 63l244 553h8l243 -553l605 -63l2 -8l-451 -404l125 -592z" />
    <glyph glyph-name="uni2610" unicode="&#x2610;" horiz-adv-x="1843" 
d="M1489 0h-1133v1133h1133v-1133zM451 567q0 -130 -13 -485q328 12 486 12q157 0 485 -12q-14 287 -14 485q0 203 14 486q-355 -13 -485 -13q-131 0 -486 13q13 -355 13 -486z" />
    <glyph glyph-name="uni2611" unicode="&#x2611;" horiz-adv-x="1843" 
d="M621 621l65 73q4 -5 28 -30t30 -31.5t27.5 -30t30 -32.5t27.5 -30.5t29 -33t26 -31t27 -34t23.5 -31.5t23.5 -33q85 156 205 343.5t195.5 295.5t228.5 323l92 -65q-369 -446 -692 -989h-55q-64 89 -134.5 164.5t-176.5 171.5zM356 0v1133h873v-7l-55 -84q-84 -2 -250 -2
q-128 0 -488 13q15 -304 15 -486q0 -181 -15 -485q332 12 488 12q157 0 485 -12q-14 338 -14 582l88 127h6v-791h-1133z" />
    <glyph glyph-name="uni2612" unicode="&#x2612;" horiz-adv-x="1843" 
d="M1489 0h-1133v1133h1133v-1133zM1169 262q-126 133 -245 279q-109 -131 -246 -279l-66 64q168 156 281 243q-90 69 -281 242l66 66q171 -189 246 -279q99 122 245 279l64 -66q-164 -152 -281 -242q133 -103 281 -243zM451 567q0 -130 -13 -485q328 12 486 12
q157 0 485 -12q-14 287 -14 485q0 203 14 486q-355 -13 -485 -13q-131 0 -486 13q13 -355 13 -486z" />
    <glyph glyph-name="uni2661" unicode="&#x2661;" horiz-adv-x="1843" 
d="M565 375q256 -178 357 -346h6q101 170 356 346q113 79 187 152t120.5 166t46.5 196q0 147 -76.5 237.5t-236.5 90.5q-154 0 -239.5 -102t-129.5 -300h-63q-44 198 -129.5 300t-239.5 102q-160 0 -236.5 -90.5t-76.5 -237.5q0 -103 46.5 -196t120.5 -166t187 -152z
M920 -111q-61 107 -154 193.5t-246 198.5q-78 55 -138 105.5t-114 110t-89.5 118.5t-56 128t-20.5 142q0 204 108 318t296 114q163 0 259 -78t146 -244h23q48 165 144 243.5t261 78.5q185 0 293.5 -114.5t108.5 -317.5q0 -91 -30 -174t-88.5 -157.5t-129 -138.5t-168.5 -134
q-152 -110 -245 -197t-152 -195h-8z" />
    <glyph glyph-name="uni2726" unicode="&#x2726;" horiz-adv-x="1843" 
d="M1690 616v-24q-276 -85 -473.5 -284.5t-284.5 -471.5h-23q-88 272 -284.5 471.5t-472.5 284.5v24q276 85 472.5 284.5t284.5 471.5h23q87 -272 284.5 -471.5t473.5 -284.5z" />
    <glyph glyph-name="uni2727" unicode="&#x2727;" horiz-adv-x="1843" 
d="M1692 606v-8q-276 -85 -476.5 -287.5t-287.5 -474.5h-8q-87 272 -288.5 475.5t-477.5 288.5v8q276 85 476 288t288 476h8q88 -273 289 -477t477 -289zM1501 598v14q-216 79 -355 216.5t-218 355.5h-13q-79 -218 -218 -356.5t-353 -215.5v-14q216 -79 355 -217t216 -354
h13q79 218 218 356t355 215z" />
    <glyph glyph-name="uni2728" unicode="&#x2728;" horiz-adv-x="1843" 
d="M1255 424v-8q-225 -70 -387.5 -234.5t-232.5 -386.5h-10q-70 222 -234.5 387.5t-390.5 235.5v8q226 70 390 235t235 388h8q72 -223 235 -389t387 -236zM623 -51h8q67 174 181.5 287.5t289.5 181.5v10q-176 68 -290 180.5t-181 288.5h-8q-65 -175 -178.5 -288t-288.5 -181
v-10q174 -68 287.5 -181.5t179.5 -287.5zM1194 1204v-10q-103 -32 -176.5 -107.5t-106.5 -179.5h-10q-31 103 -105.5 179t-179.5 110v8q104 32 177 108t108 181h8q33 -104 107.5 -180.5t177.5 -108.5zM1110 1198v4q-150 54 -201 201h-6q-28 -77 -75.5 -126t-120.5 -75v-4
q73 -28 120.5 -76t75.5 -123h6q26 75 74.5 123t126.5 76zM1843 784q-170 -52 -293 -176t-176 -293h-8q-53 169 -177 293t-296 178v9q171 52 293.5 176.5t177.5 294.5h8q53 -169 177 -294t294 -179v-9zM1714 786v9q-129 47 -212 130t-130 212h-6q-47 -128 -130 -211
t-210 -131v-9q127 -47 210 -130t130 -210h6q47 128 130 210.5t212 129.5z" />
    <glyph glyph-name="uni2764" unicode="&#x2764;" horiz-adv-x="1843" 
d="M920 -111q-61 107 -154 193.5t-246 198.5q-78 55 -138 105.5t-114 110t-89.5 118.5t-56 128t-20.5 142q0 204 108 318t296 114q163 0 259 -78t146 -244h23q48 165 144 243.5t261 78.5q185 0 293.5 -114.5t108.5 -317.5q0 -91 -30 -174t-88.5 -157.5t-129 -138.5
t-168.5 -134q-152 -110 -245 -197t-152 -195h-8z" />
    <glyph glyph-name="uni2780" unicode="&#x2780;" horiz-adv-x="1771" 
d="M885 -90q174 0 310 53.5t222 150t130 226.5t44 287q0 156 -44.5 285t-131 224t-222 148t-308.5 53q-172 0 -307.5 -53t-222.5 -148t-132 -224t-45 -285q0 -157 44.5 -287t130.5 -226.5t222 -150t310 -53.5zM885 1434q192 0 346 -60t255 -167.5t154.5 -255.5t53.5 -324
q0 -178 -53.5 -326.5t-154 -257t-254.5 -169t-347 -60.5q-192 0 -345.5 60.5t-254 169t-154 257t-53.5 326.5q0 176 53.5 324t154.5 255.5t254.5 167.5t344.5 60zM1198 188h-623v91h291v702q-127 -56 -272 -107l-35 87l354 108h54v-790h231v-91z" />
    <glyph glyph-name="uni2781" unicode="&#x2781;" horiz-adv-x="1771" 
d="M885 -90q174 0 310 53.5t222 150t130 226.5t44 287q0 156 -44.5 285t-131 224t-222 148t-308.5 53q-172 0 -307.5 -53t-222.5 -148t-132 -224t-45 -285q0 -157 44.5 -287t130.5 -226.5t222 -150t310 -53.5zM885 1434q192 0 346 -60t255 -167.5t154.5 -255.5t53.5 -324
q0 -178 -53.5 -326.5t-154 -257t-254.5 -169t-347 -60.5q-192 0 -345.5 60.5t-254 169t-154 257t-53.5 326.5q0 176 53.5 324t154.5 255.5t254.5 167.5t344.5 60zM901 997q-129 0 -199 -65t-98 -187l-98 19q83 321 393 321q158 0 242 -65.5t84 -192.5q0 -115 -89.5 -181.5
t-267.5 -115.5q-173 -51 -233 -103.5t-66 -160.5q163 13 381 13h291v-89h-760q0 10 -1 31t-1 33q0 143 80 220t262 130q170 49 236.5 96.5t66.5 130.5q0 166 -223 166z" />
    <glyph glyph-name="uni2782" unicode="&#x2782;" horiz-adv-x="1771" 
d="M885 -90q174 0 310 53.5t222 150t130 226.5t44 287q0 156 -44.5 285t-131 224t-222 148t-308.5 53q-172 0 -307.5 -53t-222.5 -148t-132 -224t-45 -285q0 -157 44.5 -287t130.5 -226.5t222 -150t310 -53.5zM885 1434q192 0 346 -60t255 -167.5t154.5 -255.5t53.5 -324
q0 -178 -53.5 -326.5t-154 -257t-254.5 -169t-347 -60.5q-192 0 -345.5 60.5t-254 169t-154 257t-53.5 326.5q0 176 53.5 324t154.5 255.5t254.5 167.5t344.5 60zM881 174q-167 0 -268.5 73t-141.5 222l100 18q34 -116 106.5 -173.5t203.5 -57.5q133 0 200.5 45t67.5 127
q0 87 -52 124.5t-196 37.5h-164v82h158q94 0 151.5 39t57.5 123q0 83 -51 123t-166 40q-117 0 -181 -54t-96 -165l-92 17q65 288 369 288q315 0 315 -233q0 -164 -201 -209v-14q139 -12 193.5 -58.5t54.5 -144.5q0 -117 -90.5 -183.5t-277.5 -66.5z" />
    <glyph glyph-name="uni2783" unicode="&#x2783;" horiz-adv-x="1771" 
d="M885 -90q174 0 310 53.5t222 150t130 226.5t44 287q0 156 -44.5 285t-131 224t-222 148t-308.5 53q-172 0 -307.5 -53t-222.5 -148t-132 -224t-45 -285q0 -157 44.5 -287t130.5 -226.5t222 -150t310 -53.5zM885 1434q192 0 346 -60t255 -167.5t154.5 -255.5t53.5 -324
q0 -178 -53.5 -326.5t-154 -257t-254.5 -169t-347 -60.5q-192 0 -345.5 60.5t-254 169t-154 257t-53.5 326.5q0 176 53.5 324t154.5 255.5t254.5 167.5t344.5 60zM1247 410h-155v-220h-103v220h-590v73l578 588h115v-577h155v-84zM854 494h135v469l-12 4l-465 -473l10 -15
q164 15 332 15z" />
    <glyph glyph-name="uni2784" unicode="&#x2784;" horiz-adv-x="1771" 
d="M885 -90q174 0 310 53.5t222 150t130 226.5t44 287q0 156 -44.5 285t-131 224t-222 148t-308.5 53q-172 0 -307.5 -53t-222.5 -148t-132 -224t-45 -285q0 -157 44.5 -287t130.5 -226.5t222 -150t310 -53.5zM885 1434q192 0 346 -60t255 -167.5t154.5 -255.5t53.5 -324
q0 -178 -53.5 -326.5t-154 -257t-254.5 -169t-347 -60.5q-192 0 -345.5 60.5t-254 169t-154 257t-53.5 326.5q0 176 53.5 324t154.5 255.5t254.5 167.5t344.5 60zM901 260q132 0 191 49.5t59 147.5q0 95 -61.5 138.5t-194.5 43.5q-74 0 -146.5 -17t-111.5 -40l-82 28v461
h645v-94q-275 0 -553 14v-352q119 80 275 80q160 0 245.5 -66t85.5 -196q0 -281 -358 -281q-153 0 -251.5 57t-172.5 179l92 41q37 -61 78 -101t107.5 -66t152.5 -26z" />
    <glyph glyph-name="uni2785" unicode="&#x2785;" horiz-adv-x="1771" 
d="M909 653q-150 0 -230.5 -56.5t-80.5 -137.5q0 -85 77.5 -142t213.5 -57q140 0 201 55t61 156q0 182 -242 182zM885 -90q174 0 310 53.5t222 150t130 226.5t44 287q0 156 -44.5 285t-131 224t-222 148t-308.5 53q-172 0 -307.5 -53t-222.5 -148t-132 -224t-45 -285
q0 -157 44.5 -287t130.5 -226.5t222 -150t310 -53.5zM885 1434q192 0 346 -60t255 -167.5t154.5 -255.5t53.5 -324q0 -178 -53.5 -326.5t-154 -257t-254.5 -169t-347 -60.5q-192 0 -345.5 60.5t-254 169t-154 257t-53.5 326.5q0 176 53.5 324t154.5 255.5t254.5 167.5
t344.5 60zM1253 469q0 -138 -94.5 -216.5t-273.5 -78.5q-189 0 -293.5 99t-104.5 325q0 109 22.5 195.5t70 153t128 102.5t189.5 36q161 0 237.5 -70t98.5 -202l-94 -14q-24 104 -78.5 152t-165.5 48q-163 0 -240 -101.5t-77 -311.5v-33l18 -2q34 83 118.5 129.5t219.5 46.5
q67 0 123 -14.5t101 -44t70 -80.5t25 -119z" />
    <glyph glyph-name="uni2786" unicode="&#x2786;" horiz-adv-x="1771" 
d="M885 -90q174 0 310 53.5t222 150t130 226.5t44 287q0 156 -44.5 285t-131 224t-222 148t-308.5 53q-172 0 -307.5 -53t-222.5 -148t-132 -224t-45 -285q0 -157 44.5 -287t130.5 -226.5t222 -150t310 -53.5zM885 1434q192 0 346 -60t255 -167.5t154.5 -255.5t53.5 -324
q0 -178 -53.5 -326.5t-154 -257t-254.5 -169t-347 -60.5q-192 0 -345.5 60.5t-254 169t-154 257t-53.5 326.5q0 176 53.5 324t154.5 255.5t254.5 167.5t344.5 60zM485 979v90h787v-90q-358 -323 -402 -791h-110q20 216 131 427t293 376q-179 -12 -420 -12h-279z" />
    <glyph glyph-name="uni2787" unicode="&#x2787;" horiz-adv-x="1771" 
d="M883 592q-82 0 -140 -14.5t-88 -40t-42.5 -53.5t-12.5 -62q0 -166 283 -166q284 0 284 166q0 170 -284 170zM883 999q-237 0 -240 -163q0 -161 240 -168q237 7 237 168q0 163 -237 163zM885 -90q174 0 310 53.5t222 150t130 226.5t44 287q0 156 -44.5 285t-131 224
t-222 148t-308.5 53q-172 0 -307.5 -53t-222.5 -148t-132 -224t-45 -285q0 -157 44.5 -287t130.5 -226.5t222 -150t310 -53.5zM885 1434q192 0 346 -60t255 -167.5t154.5 -255.5t53.5 -324q0 -178 -53.5 -326.5t-154 -257t-254.5 -169t-347 -60.5q-192 0 -345.5 60.5
t-254 169t-154 257t-53.5 326.5q0 176 53.5 324t154.5 255.5t254.5 167.5t344.5 60zM883 172q-385 0 -385 244q0 182 270 209v16q-224 42 -221 209q0 108 84 170.5t252 62.5q169 0 253.5 -62.5t84.5 -170.5q0 -167 -222 -209v-16q269 -27 269 -209q0 -244 -385 -244z" />
    <glyph glyph-name="uni2788" unicode="&#x2788;" horiz-adv-x="1771" 
d="M858 598q144 0 222.5 58.5t78.5 142.5q0 85 -74 140.5t-206 55.5q-131 0 -197 -58.5t-66 -152.5q0 -186 242 -186zM885 -90q174 0 310 53.5t222 150t130 226.5t44 287q0 156 -44.5 285t-131 224t-222 148t-308.5 53q-172 0 -307.5 -53t-222.5 -148t-132 -224t-45 -285
q0 -157 44.5 -287t130.5 -226.5t222 -150t310 -53.5zM885 1434q192 0 346 -60t255 -167.5t154.5 -255.5t53.5 -324q0 -178 -53.5 -326.5t-154 -257t-254.5 -169t-347 -60.5q-192 0 -345.5 60.5t-254 169t-154 257t-53.5 326.5q0 176 53.5 324t154.5 255.5t254.5 167.5
t344.5 60zM877 172q-323 0 -369 277l96 14q33 -203 275 -203q156 0 229.5 101t73.5 309v30l-17 2q-37 -80 -120 -129t-216 -49q-87 0 -155 25.5t-112 86t-44 150.5q0 131 96.5 214t266.5 83q187 0 289 -99t102 -325q0 -109 -21.5 -195.5t-67 -153t-123 -102.5t-183.5 -36z
" />
    <glyph glyph-name="uni2789" unicode="&#x2789;" horiz-adv-x="1763" 
d="M829 193h-444v86h205v706q-59 -28 -195 -78l-30 82l268 78h49v-788h147v-86zM1126 995q-178 0 -178 -362q0 -371 178 -371q177 0 177 371q0 362 -177 362zM1126 1081q134 0 202.5 -118.5t68.5 -329.5q0 -213 -69 -334t-202 -121q-135 0 -203.5 121t-68.5 334
q0 210 69 329t203 119zM885 -90q174 0 310 53.5t222 150t130 226.5t44 287q0 156 -44.5 285t-131 224t-222 148t-308.5 53q-172 0 -307.5 -53t-222.5 -148t-132 -224t-45 -285q0 -157 44.5 -287t130.5 -226.5t222 -150t310 -53.5zM885 1434q192 0 346 -60t255 -167.5
t154.5 -255.5t53.5 -324q0 -178 -53.5 -326.5t-154 -257t-254.5 -169t-347 -60.5q-192 0 -345.5 60.5t-254 169t-154 257t-53.5 326.5q0 176 53.5 324t154.5 255.5t254.5 167.5t344.5 60z" />
    <glyph glyph-name="uni278A" unicode="&#x278a;" horiz-adv-x="1771" 
d="M575 276v-88h623v88h-229v793h-56l-352 -111l35 -86q226 87 272 107v-703h-293zM885 1434q192 0 346 -60t255 -167.5t154.5 -255.5t53.5 -324q0 -178 -53.5 -326.5t-154 -257t-254.5 -169t-347 -60.5q-192 0 -345.5 60.5t-254 169t-154 257t-53.5 326.5q0 176 53.5 324
t154.5 255.5t254.5 167.5t344.5 60z" />
    <glyph glyph-name="uni278B" unicode="&#x278b;" horiz-adv-x="1771" 
d="M899 999q223 0 223 -165q0 -83 -66 -131.5t-237 -96.5q-182 -53 -261 -130t-79 -220v-66h760v91h-291q-216 0 -379 -13q4 107 64.5 159.5t232.5 104.5q178 49 267.5 115.5t89.5 181.5q0 127 -84 192.5t-242 65.5q-310 0 -393 -321l98 -18q28 121 98 186t199 65zM885 1434
q192 0 346 -60t255 -167.5t154.5 -255.5t53.5 -324q0 -178 -53.5 -326.5t-154 -257t-254.5 -169t-347 -60.5q-192 0 -345.5 60.5t-254 169t-154 257t-53.5 326.5q0 176 53.5 324t154.5 255.5t254.5 167.5t344.5 60z" />
    <glyph glyph-name="uni278C" unicode="&#x278c;" horiz-adv-x="1771" 
d="M883 172q186 0 277 67t91 183q0 98 -55.5 145.5t-194.5 57.5v16q203 42 203 209q0 231 -317 231q-305 0 -369 -286l94 -17q30 110 94.5 164.5t180.5 54.5q115 0 166 -40t51 -123q0 -84 -57.5 -123t-149.5 -39h-158v-82h162q144 0 197 -37.5t53 -124.5q0 -82 -67.5 -127
t-200.5 -45t-205.5 57t-106.5 174l-100 -20q82 -295 412 -295zM885 1434q192 0 346 -60t255 -167.5t154.5 -255.5t53.5 -324q0 -178 -53.5 -326.5t-154 -257t-254.5 -169t-347 -60.5q-192 0 -345.5 60.5t-254 169t-154 257t-53.5 326.5q0 176 53.5 324t154.5 255.5
t254.5 167.5t344.5 60z" />
    <glyph glyph-name="uni278D" unicode="&#x278d;" horiz-adv-x="1771" 
d="M1247 410v84h-155v575h-113l-580 -586v-73h590v-222h103v222h155zM846 494q-129 0 -324 -15l-10 15l469 473l8 -4v-469h-143zM885 1434q192 0 346 -60t255 -167.5t154.5 -255.5t53.5 -324q0 -178 -53.5 -326.5t-154 -257t-254.5 -169t-347 -60.5q-192 0 -345.5 60.5
t-254 169t-154 257t-53.5 326.5q0 176 53.5 324t154.5 255.5t254.5 167.5t344.5 60z" />
    <glyph glyph-name="uni278E" unicode="&#x278e;" horiz-adv-x="1771" 
d="M901 260q-128 0 -205 49t-133 144l-92 -43q75 -122 173 -179t251 -57q358 0 358 283q0 129 -85.5 194.5t-245.5 65.5q-159 0 -275 -78v350q238 -12 553 -12v92h-645v-461l82 -28q39 24 111 41.5t147 17.5q133 0 194.5 -43.5t61.5 -138.5q0 -98 -59 -147.5t-191 -49.5z
M885 1434q192 0 346 -60t255 -167.5t154.5 -255.5t53.5 -324q0 -178 -53.5 -326.5t-154 -257t-254.5 -169t-347 -60.5q-192 0 -345.5 60.5t-254 169t-154 257t-53.5 326.5q0 176 53.5 324t154.5 255.5t254.5 167.5t344.5 60z" />
    <glyph glyph-name="uni278F" unicode="&#x278f;" horiz-adv-x="1771" 
d="M1253 469q0 68 -25 119t-70 80.5t-101 44t-123 14.5q-134 0 -219.5 -47t-118.5 -129h-18q0 237 75.5 342.5t241.5 105.5q111 0 165.5 -48t78.5 -152l94 14q-22 132 -98.5 202t-237.5 70q-109 0 -189.5 -36t-128 -102.5t-70 -153t-22.5 -195.5q0 -226 104.5 -325
t293.5 -99q179 0 273.5 78.5t94.5 216.5zM909 653q242 0 242 -182q0 -101 -61 -156t-201 -55q-137 0 -214 56.5t-77 142.5q0 81 80.5 137.5t230.5 56.5zM885 1434q192 0 346 -60t255 -167.5t154.5 -255.5t53.5 -324q0 -178 -53.5 -326.5t-154 -257t-254.5 -169t-347 -60.5
q-192 0 -345.5 60.5t-254 169t-154 257t-53.5 326.5q0 176 53.5 324t154.5 255.5t254.5 167.5t344.5 60z" />
    <glyph glyph-name="uni2790" unicode="&#x2790;" horiz-adv-x="1771" 
d="M485 979h279q219 0 420 14q-183 -165 -294 -377t-130 -428h108q44 469 404 791v90h-787v-90zM885 1434q192 0 346 -60t255 -167.5t154.5 -255.5t53.5 -324q0 -178 -53.5 -326.5t-154 -257t-254.5 -169t-347 -60.5q-192 0 -345.5 60.5t-254 169t-154 257t-53.5 326.5
q0 176 53.5 324t154.5 255.5t254.5 167.5t344.5 60z" />
    <glyph glyph-name="uni2791" unicode="&#x2791;" horiz-adv-x="1771" 
d="M883 174q385 0 385 242q0 179 -269 209v16q222 43 222 209q0 108 -84.5 170.5t-253.5 62.5t-252.5 -62t-85.5 -171q-3 -166 223 -209v-16q-270 -30 -270 -209q0 -242 385 -242zM883 1001q237 0 237 -165q0 -161 -237 -168q-240 7 -240 168q3 165 240 165zM883 592
q82 0 140.5 -14.5t88 -40t42.5 -53.5t13 -62q0 -166 -284 -166q-283 0 -283 166q0 34 12.5 62t42.5 53.5t88 40t140 14.5zM885 1434q192 0 346 -60t255 -167.5t154.5 -255.5t53.5 -324q0 -178 -53.5 -326.5t-154 -257t-254.5 -169t-347 -60.5q-192 0 -345.5 60.5t-254 169
t-154 257t-53.5 326.5q0 176 53.5 324t154.5 255.5t254.5 167.5t344.5 60z" />
    <glyph glyph-name="uni2792" unicode="&#x2792;" horiz-adv-x="1771" 
d="M1272 662q0 225 -102 323t-291 98q-169 0 -265 -82.5t-96 -214.5q0 -90 44 -150.5t112 -86t155 -25.5q133 0 215.5 50.5t120.5 130.5l17 -3q-2 -232 -72.5 -337t-230.5 -105q-242 0 -275 203l-96 -14q22 -131 108 -203t261 -72q85 0 152 24t112 66.5t75 104.5t43 134.5
t13 158.5zM858 600q-242 0 -242 184q0 94 66 152.5t197 58.5q132 0 206 -55.5t74 -140.5q0 -83 -78.5 -141t-222.5 -58zM885 1434q192 0 346 -60t255 -167.5t154.5 -255.5t53.5 -324q0 -178 -53.5 -326.5t-154 -257t-254.5 -169t-347 -60.5q-192 0 -345.5 60.5t-254 169
t-154 257t-53.5 326.5q0 176 53.5 324t154.5 255.5t254.5 167.5t344.5 60z" />
    <glyph glyph-name="uni2793" unicode="&#x2793;" horiz-adv-x="1763" 
d="M1126 1081q-134 0 -203 -119t-69 -329q0 -212 69.5 -333.5t202.5 -121.5t202 121t69 334q0 211 -68.5 329.5t-202.5 118.5zM383 279v-86h444v86h-147v788h-47l-271 -78l31 -82q125 43 195 78v-706h-205zM1126 995q177 0 177 -362q0 -371 -177 -371q-178 0 -178 371
q0 362 178 362zM885 1434q192 0 346 -60t255 -167.5t154.5 -255.5t53.5 -324q0 -178 -53.5 -326.5t-154 -257t-254.5 -169t-347 -60.5q-192 0 -345.5 60.5t-254 169t-154 257t-53.5 326.5q0 176 53.5 324t154.5 255.5t254.5 167.5t344.5 60z" />
    <glyph glyph-name="uni279A" unicode="&#x279a;" horiz-adv-x="1843" 
d="M1323 725v-725h-1069v1069h731v-4l-86 -88q-183 0 -563 12q12 -290 12 -436q0 -155 -12 -471q320 12 471 12q142 0 436 -12q-14 319 -14 543l90 100h4zM1616 1374l26 -26v-764h-98q6 360 43 678l-12 4q-196 -217 -631 -656l-270 -270l-70 68l273 270q365 365 659 631
l-6 10q-163 -31 -649 -43v98h735z" />
    <glyph glyph-name="uni2B1B" unicode="&#x2b1b;" horiz-adv-x="1843" 
d="M1489 0h-1133v1133h1133v-1133z" />
    <glyph glyph-name="uni2B1C" unicode="&#x2b1c;" horiz-adv-x="1843" 
d="M1489 0h-1133v1133h1133v-1133zM451 567q0 -130 -13 -485q328 12 486 12q157 0 485 -12q-14 287 -14 485q0 203 14 486q-355 -13 -485 -13q-131 0 -486 13q13 -355 13 -486z" />
    <glyph glyph-name="commaaccent" unicode="&#xf6c3;" horiz-adv-x="352" 
d="M53 -119h107l-176 -307h-78l4 18z" />
    <glyph glyph-name="uniF8FF" unicode="&#xf8ff;" horiz-adv-x="2635" 
d="M1942 16q-13 -30 -123 -30l-50 2q9 212 13 508.5t8 406.5q-52 -160 -110.5 -387t-93.5 -364.5t-48 -147.5q-14 -12 -43 -12q-13 0 -50.5 5t-64.5 7q4 127 4 420q-63 2 -190 2q2 -51 2 -164q0 -244 -20 -256q-12 -10 -54 -10q-22 0 -59 3t-45 3h-6q14 232 14 422
q-30 0 -84 -1t-78 -1v-92q0 -57 1 -146.5t1 -111.5q0 -37 -2 -41q-10 -26 -39 -33.5t-123 -9.5q-2 59 -2 162q0 71 5 266q-114 -4 -132 -4q-54 -92 -120 -214.5t-95 -193.5q-14 4 -45 4q-20 0 -41.5 -2.5t-33.5 -5.5l-11 -2q-5 51 -32 102q-8 16 -98 156t-95 160
q-4 16 -4 24q0 34 27 90q-11 22 -11 50q0 35 17 98q12 38 47.5 121.5t93 213t92.5 212.5q68 0 144 20q90 -231 180 -667q10 -1 121 -5v25q0 41 -1 160t-1 182q0 239 16 262q16 29 147 31q-6 -123 -6 -236q0 -70 2 -191t2 -171v-64q25 0 78 -1t80 -1q0 183 -3 357.5t-3 185.5
q0 52 4 69.5t16 26.5q16 13 78 13h64q0 -27 -1 -78.5t-1 -75.5q0 -168 10 -496q114 3 194 9q0 53 -1 149.5t-1 138.5q0 321 17 344q20 29 86 29q14 0 40.5 -2t35.5 -2q-17 -121 -17 -541v-164q203 673 250 697q16 8 61 8l95 -6q-6 -147 -6 -350q0 -132 3 -370.5t3 -315.5
q0 -166 -8 -179zM2359 948q-24 -71 -68.5 -181t-71 -181.5t-26.5 -96.5v-4q2 -29 70 -141.5t80 -140.5q29 68 59 143t45 116l15 40q-23 127 -60.5 273.5t-42.5 172.5zM143 520q0 -16 24.5 -60.5t64.5 -116t65 -128.5q24 63 58 136.5t52.5 115.5t18.5 61v4q-1 23 -36 178.5
t-60 252.5q-187 -404 -187 -443zM2292 1245q24 -12 57 -12q40 0 61 24q149 -474 226 -763q-187 -488 -246 -500q-6 -2 -18 -2q-46 0 -136 37q-1 35 -23 87.5t-45 91t-58.5 94.5t-43.5 69q-22 40 -22 61q0 12 4.5 21.5t12.5 18.5t10 13q6 9 6 21q0 28 -35 37q187 458 250 702
z" />
    <glyph glyph-name="fi" unicode="&#xfb01;" horiz-adv-x="1161" 
d="M442 1016l-12 -68h334l-16 -98h-334l-150 -850h-108l149 850h-194l16 98h195l12 70q27 152 113.5 234.5t232.5 82.5q86 0 156 -16l-23 -92q-69 14 -137 14q-103 0 -158 -56.5t-76 -168.5zM907 0h-108l168 948h108zM1130 1165h-145l25 131h145z" />
    <glyph glyph-name="fl" unicode="&#xfb02;" horiz-adv-x="1138" 
d="M442 1016l-12 -68h334l-16 -98h-334l-150 -850h-108l149 850h-194l16 98h195l12 70q27 152 113.5 234.5t232.5 82.5q86 0 156 -16l-23 -92q-69 14 -137 14q-103 0 -158 -56.5t-76 -168.5zM1128 1315l-231 -1315h-109l232 1315h108z" />
    <glyph glyph-name="exclamdown.case" horiz-adv-x="475" 
d="M217 803h113l-142 -803h-112zM403 1059h-170l31 170h168z" />
    <glyph glyph-name="questiondown.case" horiz-adv-x="989" 
d="M356 659q85 36 120 83.5t44 105.5q4 12 4 20h109q0 -10 -4 -22q-15 -93 -67.5 -155t-160.5 -113q-92 -42 -139 -72t-76.5 -71t-40.5 -101q-21 -118 46 -186t219 -68q160 0 260 96t157 277l107 -21q-62 -211 -193.5 -333t-337.5 -122q-200 0 -299 100.5t-69 266.5
q11 63 40.5 114t76 88t93 62t111.5 51zM696 1059h-168l31 170h168z" />
    <glyph glyph-name="periodcentered.case" horiz-adv-x="417" 
d="M156 702h170l-31 -167h-168z" />
    <glyph glyph-name="bullet.case" horiz-adv-x="522" 
d="M180 754h266l-47 -265h-266z" />
    <glyph glyph-name="guillemotleft.case" horiz-adv-x="1245" 
d="M618 172h-104l-461 434l8 45l607 434h112l-6 -26l-604 -430l-2 -13l455 -423zM1096 172h-105l-461 434l9 45l606 434h112l-6 -26l-604 -430l-2 -13l455 -423z" />
    <glyph glyph-name="guillemotright.case" horiz-adv-x="1245" 
d="M582 158h-113l6 26l602 430l2 13l-452 424l4 20h104l461 -434l-8 -45zM104 158h-112l6 26l602 430l2 13l-452 424l4 20h102l461 -434l-6 -45z" />
    <glyph glyph-name="guilsinglleft.case" horiz-adv-x="778" 
d="M618 174h-104l-461 434l8 45l607 434h112l-6 -26l-604 -430l-2 -13l455 -423z" />
    <glyph glyph-name="guilsinglright.case" horiz-adv-x="768" 
d="M123 156h-113l6 26l602 432l3 11l-453 426l4 20h102l461 -434l-6 -45z" />
    <glyph glyph-name="hyphen.case" horiz-adv-x="716" 
d="M72 672h618l-18 -109h-619z" />
    <glyph glyph-name="endash.case" horiz-adv-x="974" 
d="M74 672h876l-18 -103h-877z" />
    <glyph glyph-name="emdash.case" horiz-adv-x="1761" 
d="M74 672h1663l-19 -103h-1663z" />
    <glyph glyph-name="parenleft.case" horiz-adv-x="659" 
d="M166 647q40 232 160.5 421.5t341.5 369.5l57 -64q-198 -171 -305.5 -351.5t-145.5 -391.5q-25 -149 -19 -282.5t54 -263.5t140 -247l-74 -59q-153 177 -203 399t-6 469z" />
    <glyph glyph-name="parenright.case" horiz-adv-x="659" 
d="M514 590q-40 -232 -160.5 -421.5t-341.5 -369.5l-57 64q199 172 307 352.5t144 390.5q25 149 19 282.5t-54 263.5t-140 247l74 59q153 -177 203 -399t6 -469z" />
    <glyph glyph-name="bracketleft.case" horiz-adv-x="569" 
d="M37 -154l270 1540h365l-17 -98h-252l-237 -1341h252l-17 -101h-364z" />
    <glyph glyph-name="bracketright.case" horiz-adv-x="569" 
d="M-45 -147l16 98h252l236 1341h-250l16 101h365l-271 -1540h-364z" />
    <glyph glyph-name="braceleft.case" horiz-adv-x="735" 
d="M553 -217q-99 -6 -123 -6q-150 0 -216.5 61.5t-47.5 165.5q10 57 49 116t80.5 100.5t79 94t45.5 97.5q13 78 -41 114.5t-182 36.5h-138l17 101h139q109 0 188 40.5t93 122.5q8 45 -10.5 99t-43.5 97t-42 102t-7 114q15 94 99.5 147.5t228.5 53.5q28 0 133 -6l-20 -95
q-43 2 -117 2q-102 0 -153.5 -31.5t-63.5 -99.5q-8 -44 7.5 -95.5t38 -92t37 -96t5.5 -107.5q-15 -84 -87.5 -131.5t-205.5 -66.5l-2 -15q132 -13 184.5 -63t38.5 -140q-10 -53 -46 -109.5t-74.5 -97t-73.5 -92t-43 -94.5q-11 -69 29.5 -102t140.5 -33q32 0 118 4z" />
    <glyph glyph-name="braceright.case" horiz-adv-x="735" 
d="M225 1452q105 6 125 6q148 0 215 -61t49 -164q-10 -57 -49 -116.5t-80.5 -101t-80 -94.5t-46.5 -98q-13 -78 42 -114.5t182 -36.5h139l-19 -101h-137q-110 0 -188 -40t-92 -123q-8 -45 9.5 -99t42 -97t41.5 -102t7 -114q-15 -94 -99 -147.5t-229 -53.5q-26 0 -131 6
l19 97q86 -4 116 -4q103 0 155 31.5t63 99.5q7 36 -2 76t-26 76t-34 73t-25.5 81t-1.5 87q15 84 88.5 131t204.5 65l2 17q-132 13 -184 62t-37 138q9 53 45 109.5t74.5 97.5t73.5 92.5t43 94.5q12 69 -28.5 103t-141.5 34q-29 0 -119 -4z" />
    <glyph glyph-name="zero.osf" horiz-adv-x="1148" 
d="M664 989q-187 0 -304 -118t-153 -324q-25 -143 -0.5 -246.5t104.5 -163t211 -59.5q186 0 302 119.5t153 326.5q38 215 -41 340t-272 125zM668 1090q247 0 357 -158t62 -426q-44 -241 -193.5 -385t-377.5 -144q-165 0 -271 74.5t-143 206.5t-6 309q42 239 193 381t379 142
z" />
    <glyph glyph-name="one.osf" horiz-adv-x="958" 
d="M799 0h-785l17 98h377l155 881q-115 -62 -383 -156l-24 97l471 151h63l-172 -973h297z" />
    <glyph glyph-name="two.osf" horiz-adv-x="1142" 
d="M694 991q-163 0 -261.5 -87t-149.5 -261l-107 14q124 433 526 433q204 0 304 -96t69 -267q-21 -117 -136.5 -189t-367.5 -135q-164 -41 -251.5 -81t-131.5 -94.5t-63 -143.5q175 16 506 16h356l-18 -100h-957q6 38 15 80q15 87 51 150.5t100.5 111t147.5 81t206 64.5
q242 61 329 113.5t104 144.5q21 113 -48.5 179.5t-222.5 66.5z" />
    <glyph glyph-name="three.osf" horiz-adv-x="1140" 
d="M537 -178q-239 0 -358 107.5t-122 312.5l111 16q6 -338 373 -338q158 0 253 65.5t117 184.5q12 62 4 108t-38.5 76.5t-92 46t-157.5 15.5h-209l16 94h201q121 0 208 55.5t109 173.5q43 254 -254 254q-147 0 -239 -76t-150 -225l-104 19q136 381 504 381q199 0 290 -93.5
t62 -263.5q-20 -110 -92.5 -172.5t-200.5 -89.5l-4 -18q166 -21 222.5 -95t33.5 -208q-28 -158 -149.5 -244t-333.5 -86z" />
    <glyph glyph-name="four.osf" horiz-adv-x="1175" 
d="M1102 152h-203l-55 -312h-113l55 312h-761l16 94l897 823h123l-146 -819h205zM553 250h250l123 688l-11 2l-747 -690l6 -19q237 19 379 19z" />
    <glyph glyph-name="five.osf" horiz-adv-x="1165" 
d="M557 -82q317 0 361 272q23 147 -47 219t-240 72q-97 0 -193 -25t-153 -63l-90 37l112 639h811l-18 -104q-381 0 -705 16l-90 -510q156 102 346 102q215 0 311.5 -104t65.5 -293q-29 -178 -152 -267t-321 -89q-415 0 -508 350l107 35q36 -137 137.5 -212t265.5 -75z" />
    <glyph glyph-name="six.osf" horiz-adv-x="1146" 
d="M641 664q-189 0 -301.5 -77t-132.5 -192q-15 -83 16.5 -154.5t112 -117t196.5 -45.5q333 0 386 284q26 147 -48 224.5t-229 77.5zM1030 352q-31 -176 -161 -274t-332 -98q-123 0 -212.5 36.5t-150 116t-74.5 205.5t15 305q106 606 596 606q194 0 291 -102t100 -279
l-111 -12q-8 145 -78 220t-213 75q-204 0 -323 -134t-170 -421q-13 -70 -21 -127h17q58 137 176 211t289 74q88 0 160.5 -24t124.5 -71.5t73.5 -126.5t3.5 -180z" />
    <glyph glyph-name="seven.osf" horiz-adv-x="1056" 
d="M143 965l19 104h997l-18 -104q-544 -461 -719 -1125h-131q80 306 275.5 610t469.5 533q-247 -18 -458 -18h-435z" />
    <glyph glyph-name="eight.osf" horiz-adv-x="1148" 
d="M510 -20q-260 0 -368 93.5t-79 260.5q19 108 112 182.5t276 93.5l4 23q-130 28 -188 108t-34 207q26 140 140 220.5t317 80.5q221 0 318.5 -92.5t70.5 -251.5q-40 -220 -329 -274l-5 -21q74 -9 129.5 -30.5t88 -51.5t52 -67.5t21.5 -79t-4 -86.5q-57 -315 -522 -315z
M592 573q-109 0 -189.5 -21t-126.5 -58.5t-70 -78t-32 -89.5q-21 -119 64.5 -183.5t275.5 -64.5q365 0 408 237q8 31 4.5 62t-12.5 59.5t-34.5 53.5t-62 43.5t-94.5 29t-131 10.5zM684 1151q-300 0 -346 -242q-12 -63 3 -111t53 -77t91.5 -43.5t122.5 -15.5q143 2 240 62
t119 183q20 114 -48 179t-235 65z" />
    <glyph glyph-name="nine.osf" horiz-adv-x="1144" 
d="M543 414q188 0 305.5 80t136.5 192q24 131 -63.5 218t-266.5 87q-171 0 -265.5 -76t-117.5 -206q-27 -150 45 -222.5t226 -72.5zM479 -178q-216 0 -318 96t-110 277l109 16q6 -144 82 -217.5t237 -73.5q202 0 325.5 143t174.5 431q6 31 16 106l-20 2q-118 -278 -457 -278
q-87 0 -157.5 23t-122.5 69t-73 125t-3 182q30 169 156.5 269t336.5 100q99 0 175.5 -21t136 -66.5t90 -119t39 -178.5t-18.5 -244q-26 -146 -70 -258.5t-114 -201t-174.5 -135t-239.5 -46.5z" />
    <glyph glyph-name="zero.tf" horiz-adv-x="1220" 
d="M729 1149q-193 0 -316.5 -143.5t-166.5 -387.5q-25 -160 -7.5 -279.5t95.5 -189t209 -69.5q98 0 180 39.5t141 111.5t99 169t61 216q25 159 7 277.5t-95 187t-207 68.5zM731 1251q126 0 217 -48.5t138.5 -135.5t62 -207t-13.5 -264q-49 -283 -204.5 -451t-391.5 -168
q-127 0 -218.5 49.5t-138.5 137t-61 208.5t14 265q51 282 207 448t389 166z" />
    <glyph glyph-name="one.tf" horiz-adv-x="1249" 
d="M1010 0h-957l19 102h458l181 1024q-135 -67 -465 -186l-29 100l563 189h62l-199 -1127h383z" />
    <glyph glyph-name="two.tf" horiz-adv-x="1249" 
d="M778 1151q-163 0 -269 -97.5t-169 -293.5l-104 24q150 465 548 465q202 0 300.5 -104t68.5 -273q-11 -65 -42 -118t-73.5 -91.5t-109.5 -73.5t-134 -60t-163 -54q-166 -52 -252.5 -99t-132.5 -113t-68 -177q205 14 445 14h417l-16 -100h-963l13 80q18 104 56 179.5
t103.5 132t151 96t211.5 77.5q231 70 328 137t118 183q21 119 -45 192.5t-219 73.5z" />
    <glyph glyph-name="three.tf" horiz-adv-x="1249" 
d="M594 -20q-239 0 -357.5 107t-121.5 312l110 17q6 -338 373 -338q158 0 253.5 65.5t117.5 184.5q23 129 -38 187t-247 58h-209l17 95h200q121 0 208.5 55.5t109.5 173.5q43 254 -254 254q-147 0 -239 -76t-150 -225l-105 18q136 381 504 381q199 0 290 -93.5t62 -262.5
q-20 -110 -92.5 -172.5t-200.5 -89.5l-4 -19q166 -21 222.5 -95t33.5 -208q-28 -157 -149.5 -243t-333.5 -86z" />
    <glyph glyph-name="four.tf" horiz-adv-x="1179" 
d="M1102 311h-203l-55 -311h-113l55 311h-761l16 95l897 823h123l-146 -819h205zM553 410h250l123 688l-11 2l-747 -690l6 -19q238 19 379 19z" />
    <glyph glyph-name="five.tf" horiz-adv-x="1249" 
d="M594 78q316 0 360 272q23 147 -47 219t-239 72q-97 0 -193 -25t-153 -63l-91 37l113 639h811l-18 -105q-361 0 -705 17l-90 -510q156 102 346 102q215 0 311.5 -104t65.5 -293q-29 -178 -152 -267t-321 -89q-415 0 -508 350l106 35q36 -137 138 -212t266 -75z" />
    <glyph glyph-name="six.tf" horiz-adv-x="1249" 
d="M690 664q-189 0 -301.5 -77t-132.5 -192q-23 -129 65 -223t261 -94q332 0 385 284q26 147 -48 224.5t-229 77.5zM1079 352q-31 -176 -161 -274t-332 -98q-123 0 -212.5 36.5t-150 116t-74.5 205.5t15 305q106 606 596 606q194 0 291 -102t100 -279l-111 -12
q-8 145 -77.5 220t-212.5 75q-204 0 -323.5 -134t-170.5 -421q-8 -42 -20 -127h16q58 137 176 211t289 74q88 0 160.5 -24t124.5 -71.5t73.5 -126.5t3.5 -180z" />
    <glyph glyph-name="seven.tf" horiz-adv-x="1249" 
d="M238 1124l18 105h997l-18 -105q-279 -236 -457.5 -522.5t-261.5 -601.5h-131q80 306 275.5 610t469.5 533q-260 -19 -458 -19h-434z" />
    <glyph glyph-name="eight.tf" horiz-adv-x="1249" 
d="M559 -20q-260 0 -367.5 93.5t-78.5 260.5q19 108 111.5 182.5t275.5 93.5l4 23q-130 28 -187.5 108t-33.5 207q26 140 139.5 220.5t316.5 80.5q221 0 318.5 -92.5t70.5 -251.5q-40 -220 -329 -274l-4 -21q176 -22 241.5 -107.5t44.5 -207.5q-57 -315 -522 -315zM641 573
q-109 0 -189.5 -21t-126.5 -58.5t-70 -78t-32 -89.5q-21 -119 64.5 -183.5t275.5 -64.5q365 0 408 237q8 31 4.5 62t-12.5 59.5t-34.5 53.5t-62 43.5t-94.5 29t-131 10.5zM733 1151q-300 0 -346 -242q-12 -63 3 -111t53 -77t91.5 -43.5t122.5 -15.5q143 2 240 62t119 183
q20 114 -48 179t-235 65z" />
    <glyph glyph-name="nine.tf" horiz-adv-x="1249" 
d="M582 571q188 0 305.5 80.5t136.5 192.5q24 131 -63.5 218t-266.5 87q-171 0 -265.5 -76.5t-117.5 -206.5q-27 -150 45 -222.5t226 -72.5zM518 -20q-216 0 -318 95.5t-110 276.5l109 17q6 -144 82 -217.5t237 -73.5q203 0 326 142.5t174 430.5q6 29 16 107l-20 2
q-56 -133 -170 -206t-287 -73q-87 0 -157.5 23t-122.5 69.5t-73 125.5t-3 182q30 169 156.5 268.5t336.5 99.5q99 0 175.5 -20.5t136 -66.5t90 -119t39 -178t-18.5 -244q-26 -146 -70 -258.5t-114 -201t-174.5 -135t-239.5 -46.5z" />
    <glyph glyph-name="zero.tosf" horiz-adv-x="1236" 
d="M700 989q-187 0 -303.5 -118t-152.5 -324q-25 -143 -0.5 -246.5t104.5 -163t211 -59.5q186 0 302 119.5t153 326.5q38 215 -41.5 340t-272.5 125zM705 1090q247 0 357 -158t62 -426q-44 -241 -193.5 -385t-377.5 -144q-165 0 -271 74.5t-143 206.5t-6 309q42 239 193 381
t379 142z" />
    <glyph glyph-name="one.tosf" horiz-adv-x="1249" 
d="M1010 0h-957l19 98h458l156 879q-151 -81 -469 -189l-27 99l560 184h65l-172 -973h383z" />
    <glyph glyph-name="two.tosf" horiz-adv-x="1249" 
d="M750 991q-163 0 -262 -87t-150 -261l-107 14q124 433 527 433q204 0 303.5 -96t68.5 -267q-21 -117 -136 -189t-367 -135q-164 -41 -251.5 -81t-132 -94.5t-63.5 -143.5q175 16 506 16h356l-18 -100h-956q8 51 14 80q15 87 51.5 150.5t100.5 111t147.5 81t206.5 64.5
q165 42 253 78t127.5 76.5t51.5 103.5q21 113 -48 179.5t-222 66.5z" />
    <glyph glyph-name="three.tosf" horiz-adv-x="1249" 
d="M594 -178q-239 0 -357.5 107.5t-121.5 312.5l110 16q6 -338 373 -338q158 0 253.5 65.5t117.5 184.5q23 129 -38 187.5t-247 58.5h-209l17 94h200q121 0 208.5 55.5t109.5 173.5q43 254 -254 254q-147 0 -239 -76t-150 -225l-105 19q136 381 504 381q199 0 290 -93.5
t62 -263.5q-20 -110 -92.5 -172.5t-200.5 -89.5l-4 -18q166 -21 222.5 -95t33.5 -208q-28 -158 -149.5 -244t-333.5 -86z" />
    <glyph glyph-name="four.tosf" horiz-adv-x="1249" 
d="M1104 152h-203l-55 -312h-113l55 312h-761l16 94l897 823h123l-145 -819h204zM555 250h250l123 688l-10 2l-748 -690l6 -19q238 19 379 19z" />
    <glyph glyph-name="five.tosf" horiz-adv-x="1249" 
d="M592 -82q316 0 360 272q23 147 -47 219t-239 72q-97 0 -193.5 -25t-153.5 -63l-90 37l113 639h811l-18 -104q-381 0 -705 16l-90 -510q156 102 346 102q215 0 311.5 -104t65.5 -293q-29 -178 -152 -267t-321 -89q-415 0 -508 350l106 35q36 -137 138 -212t266 -75z" />
    <glyph glyph-name="six.tosf" horiz-adv-x="1249" 
d="M690 664q-189 0 -301.5 -77t-132.5 -192q-23 -129 65 -223t261 -94q332 0 385 284q26 147 -48 224.5t-229 77.5zM1079 352q-31 -176 -161 -274t-332 -98q-123 0 -212.5 36.5t-150 116t-74.5 205.5t15 305q106 606 596 606q194 0 291 -102t100 -279l-111 -12
q-8 145 -77.5 220t-212.5 75q-204 0 -323.5 -134t-170.5 -421q-8 -42 -20 -127h16q58 137 176 211t289 74q88 0 160.5 -24t124.5 -71.5t73.5 -126.5t3.5 -180z" />
    <glyph glyph-name="seven.tosf" horiz-adv-x="1249" 
d="M236 965l18 104h997l-18 -104q-544 -461 -719 -1125h-131q80 306 275.5 610t469.5 533q-247 -18 -458 -18h-434z" />
    <glyph glyph-name="eight.tosf" horiz-adv-x="1249" 
d="M559 -20q-260 0 -367.5 93.5t-78.5 260.5q19 108 111.5 182.5t275.5 93.5l4 23q-130 28 -187.5 108t-33.5 207q26 140 139.5 220.5t316.5 80.5q221 0 318.5 -92.5t70.5 -251.5q-40 -220 -329 -274l-4 -21q176 -22 241.5 -107.5t44.5 -207.5q-57 -315 -522 -315zM641 573
q-109 0 -189.5 -21t-126.5 -58.5t-70 -78t-32 -89.5q-21 -119 64.5 -183.5t275.5 -64.5q365 0 408 237q8 31 4.5 62t-12.5 59.5t-34.5 53.5t-62 43.5t-94.5 29t-131 10.5zM733 1151q-300 0 -346 -242q-12 -63 3 -111t53 -77t91.5 -43.5t122.5 -15.5q143 2 240 62t119 183
q20 114 -48 179t-235 65z" />
    <glyph glyph-name="nine.tosf" horiz-adv-x="1249" 
d="M580 414q188 0 305.5 80t136.5 192q24 131 -63.5 218t-266.5 87q-171 0 -265.5 -76t-117.5 -206q-27 -150 45 -222.5t226 -72.5zM516 -178q-216 0 -318 96t-110 277l109 16q6 -144 82 -217.5t237 -73.5q202 0 325.5 143t174.5 431q6 31 16 106l-20 2q-118 -278 -457 -278
q-87 0 -157.5 23t-122.5 69t-73 125t-3 182q30 169 156.5 269t336.5 100q99 0 175.5 -21t136 -66.5t90 -119t39 -178.5t-18.5 -244q-26 -146 -70 -258.5t-114 -201t-174.5 -135t-239.5 -46.5z" />
    <glyph glyph-name="dollar.osf" horiz-adv-x="1001" 
d="M614 1319h97l-52 -252q263 -36 287 -303l-110 -16q-9 117 -72 173t-195 56q-116 0 -185.5 -41.5t-82.5 -120.5q-14 -87 44 -141.5t216 -81.5q201 -36 277.5 -119.5t52.5 -220.5q-21 -117 -124.5 -185.5t-291.5 -68.5h-6l-37 -252h-96l53 258q-168 20 -255 111t-89 237
l107 15q10 -275 331 -275q265 0 297 174q17 102 -45.5 151.5t-226.5 78.5q-191 34 -264.5 117t-50.5 212q21 114 121.5 180t263.5 66z" />
    <glyph glyph-name="sterling.osf" horiz-adv-x="1091" 
d="M926 0h-924l18 100h209q48 101 66 213q7 45 4 111h-219l16 86h197q-21 173 -2 278q25 135 120 218.5t251 83.5q93 0 159.5 -26t103.5 -74.5t55 -103.5t24 -126l-107 -19q-11 129 -64 188.5t-174 59.5q-118 0 -181.5 -63.5t-80.5 -161.5q-16 -96 0 -254h480l-17 -86h-454
q3 -52 -7 -115q-18 -108 -77 -209h622z" />
    <glyph glyph-name="Euro.osf" horiz-adv-x="1196" 
d="M592 -23q-193 0 -298.5 108.5t-113.5 299.5h-155l14 82h143q3 57 15 119q1 5 3 14t3 14h-140l15 82h145q60 185 192 289.5t322 104.5q196 0 301.5 -107.5t110.5 -292.5l-105 -14q-6 157 -83 236t-232 79q-296 0 -401 -295h389l-15 -82h-397q-7 -26 -10 -47
q-9 -54 -12 -100h393l-14 -82h-381q13 -309 319 -309q157 0 250 80.5t156 249.5l98 -27q-142 -402 -512 -402z" />
    <glyph glyph-name="yen.osf" horiz-adv-x="1136" 
d="M1026 301h-430l-53 -301h-115l53 301h-432l14 86h416l-92 184h-291l15 88h231l-190 385l4 23h112l283 -616h22l494 616h119l-2 -23l-326 -385h229l-14 -88h-289l-155 -184h411z" />
    <glyph glyph-name="a.sc" 
d="M883 0l-82 332h-559l-197 -332h-121l656 1071h139l276 -1071h-112zM377 557l-78 -131h479l-33 131q-54 205 -83 414h-48q-111 -209 -237 -414z" />
    <glyph glyph-name="b.sc" horiz-adv-x="1064" 
d="M608 492h-346l-69 -398h368q129 0 204 50.5t91 136.5q18 104 -39.5 157.5t-208.5 53.5zM682 975h-334l-69 -393h321q113 0 189 48.5t94 151.5q15 94 -33.5 143.5t-167.5 49.5zM63 0l191 1071h434q177 0 252 -76.5t51 -214.5q-17 -93 -84.5 -151.5t-173.5 -79.5l-2 -14
q273 -39 232 -273q-21 -121 -123 -191.5t-285 -70.5h-492z" />
    <glyph glyph-name="c.sc" horiz-adv-x="1181" 
d="M535 -20q-258 0 -374.5 161.5t-70.5 433.5q42 239 198 377t402 138q213 0 328 -106.5t121 -291.5l-109 -18q-16 315 -344 315q-211 0 -332.5 -114.5t-156.5 -317.5q-38 -223 48 -349t294 -126q177 0 283 81.5t171 246.5l103 -25q-143 -405 -561 -405z" />
    <glyph glyph-name="d.sc" horiz-adv-x="1196" 
d="M635 971h-289l-153 -873h303q233 0 361.5 108t164.5 318q39 225 -54 336t-333 111zM63 0l191 1071h401q280 0 401.5 -148.5t73.5 -418.5q-43 -243 -206 -373.5t-424 -130.5h-437z" />
    <glyph glyph-name="e.sc" horiz-adv-x="999" 
d="M63 0l191 1071h743l-16 -102h-635l-65 -375h563l-17 -94h-563l-69 -400h630l-18 -100h-744z" />
    <glyph glyph-name="f.sc" horiz-adv-x="931" 
d="M786 463h-528l-82 -463h-113l191 1071h711l-19 -104h-600l-72 -406h531z" />
    <glyph glyph-name="g.sc" horiz-adv-x="1214" 
d="M510 -18q-240 0 -356.5 158t-69.5 427q44 249 196.5 386t405.5 137q216 0 330 -105t123 -289l-109 -16q-9 157 -95 233t-251 76q-218 0 -335.5 -111.5t-155.5 -326.5q-20 -101 -7.5 -187t51 -149t116.5 -99t188 -36q111 0 195.5 26.5t135.5 74.5t80 104t41 125v-2l6 30
h-397l16 92h502l-94 -530h-104l45 248h-13q-61 -119 -172 -192.5t-272 -73.5z" />
    <glyph glyph-name="h.sc" horiz-adv-x="1208" 
d="M975 0h-111l86 483h-688l-86 -483h-113l191 1071h111l-86 -485h688l86 485h110z" />
    <glyph glyph-name="i.sc" horiz-adv-x="409" 
d="M176 0h-113l191 1071h111z" />
    <glyph glyph-name="j.sc" horiz-adv-x="575" 
d="M279 262l141 809h112l-143 -813q-47 -272 -301 -272q-67 0 -141 12l20 100q72 -10 121 -10q84 0 130 43.5t61 130.5z" />
    <glyph glyph-name="k.sc" horiz-adv-x="1052" 
d="M831 0l-471 461h-102l-82 -461h-113l191 1071h111l-91 -514h88l619 514h131l-2 -20l-661 -537l512 -494l-3 -20h-127z" />
    <glyph glyph-name="l.sc" horiz-adv-x="860" 
d="M254 1071h111l-170 -971h555l-19 -100h-668z" />
    <glyph glyph-name="m.sc" horiz-adv-x="1482" 
d="M274 573l-102 -573h-109l191 1071h190l146 -543q20 -79 76 -348h43q111 209 196 350l340 541h195l-191 -1071h-110l100 573q72 373 78 402h-43q-118 -217 -242 -420l-307 -487h-127l-133 493q-37 154 -86 414h-35q-10 -65 -36 -208.5t-34 -193.5z" />
    <glyph glyph-name="n.sc" horiz-adv-x="1202" 
d="M817 0l-289 592q-17 35 -33 71.5t-34.5 83t-27.5 70.5t-30.5 81.5t-25.5 68.5l-49 -2q-21 -219 -78 -525l-78 -440h-109l191 1071h170l258 -526q81 -170 172 -422l45 2q33 288 74 504l78 442h108l-188 -1071h-154z" />
    <glyph glyph-name="o.sc" horiz-adv-x="1247" 
d="M557 -20q-179 0 -296.5 78t-160 210.5t-12.5 302.5q42 241 205.5 380t417.5 139q107 0 194 -28.5t145.5 -81t95.5 -125.5t44.5 -161.5t-8.5 -189.5q-43 -243 -207 -383.5t-418 -140.5zM565 82q217 0 344 116t164 322q20 101 5 187t-57.5 148.5t-123.5 98t-192 35.5
q-217 0 -345.5 -115t-164.5 -321q-20 -101 -5 -187.5t57.5 -149.5t124 -98.5t193.5 -35.5z" />
    <glyph glyph-name="p.sc" horiz-adv-x="972" 
d="M643 971h-297l-80 -457h307q142 0 214 51t92 164q21 124 -35 183t-201 59zM582 418h-332l-74 -418h-113l187 1071h409q190 0 273.5 -95.5t52.5 -264.5q-25 -139 -129 -216t-274 -77z" />
    <glyph glyph-name="q.sc" horiz-adv-x="1247" 
d="M565 82q217 0 344 116t164 322q20 101 5 187t-57.5 148.5t-123.5 98t-192 35.5q-217 0 -345.5 -115t-164.5 -321q-20 -101 -5 -187.5t57.5 -149.5t124 -98.5t193.5 -35.5zM557 -20q-179 0 -296.5 78t-160 210.5t-12.5 302.5q42 241 205.5 380t417.5 139q107 0 194 -28.5
t145.5 -81t95.5 -125.5t44.5 -161.5t-8.5 -189.5q-28 -152 -103.5 -266.5t-191.5 -178.5l102 -215l-4 -20h-113l-81 192q-101 -36 -234 -36z" />
    <glyph glyph-name="r.sc" horiz-adv-x="1103" 
d="M666 971h-320l-74 -420h320q141 0 215.5 47t91.5 145q21 114 -32 171t-201 57zM821 0l-282 455h-283l-80 -455h-113l191 1071h428q192 0 273.5 -92t52.5 -248q-20 -119 -108.5 -189t-237.5 -83l284 -439l-4 -20h-121z" />
    <glyph glyph-name="s.sc" horiz-adv-x="1036" 
d="M489 -20q-438 3 -448 368l111 14q5 -142 85 -213t257 -71q287 0 315 176q18 96 -46 153t-231 87q-109 19 -183.5 52t-113 79t-50.5 98.5t-1 116.5q22 119 126.5 184.5t285.5 65.5q194 0 280.5 -82.5t102.5 -239.5l-109 -18q-9 65 -24.5 106.5t-46 74.5t-81 47.5
t-126.5 14.5q-271 0 -299 -164q-8 -43 0.5 -77t38.5 -65.5t91 -55.5t155 -41q88 -17 153 -43t103.5 -58t61.5 -71t26 -82t-4 -90q-46 -266 -429 -266z" />
    <glyph glyph-name="t.sc" horiz-adv-x="960" 
d="M121 967l18 104h893l-18 -104h-389l-172 -967h-111l170 967h-391z" />
    <glyph glyph-name="u.sc" horiz-adv-x="1189" 
d="M549 82q172 0 257 82.5t112 238.5l118 668h111l-121 -680q-35 -203 -157 -307t-324 -104q-229 0 -336.5 115t-69.5 329l115 647h111l-117 -657q-58 -332 301 -332z" />
    <glyph glyph-name="v.sc" horiz-adv-x="1087" 
d="M530 0h-141l-276 1071h114l138 -557q61 -246 84 -414h47q103 195 235 414l334 557h119z" />
    <glyph glyph-name="w.sc" horiz-adv-x="1574" 
d="M627 446l-209 -446h-172l-125 1071h119l51 -536q22 -265 31 -435h55q124 299 186 432l254 539h148l63 -539q28 -251 33 -432h55q89 224 184 435l242 536h119l-500 -1071h-172l-53 446q-36 286 -45 517h-37q-106 -263 -227 -517z" />
    <glyph glyph-name="x.sc" horiz-adv-x="1046" 
d="M819 0l-284 483h-31l-434 -483h-119l4 20l487 521l-301 510l2 20h107l272 -477h37l430 477h121l-4 -20l-485 -514l311 -517l-4 -20h-109z" />
    <glyph glyph-name="y.sc" horiz-adv-x="993" 
d="M469 0h-111l66 375l-322 676l4 20h109l264 -604h27l475 604h115l-2 -20l-559 -680z" />
    <glyph glyph-name="z.sc" horiz-adv-x="1056" 
d="M899 102l-18 -102h-893l18 102l912 875l-5 10q-218 -20 -413 -20h-318l19 104h868l-18 -98l-918 -881l4 -10q246 20 451 20h311z" />
    <glyph glyph-name="aacute.sc" 
d="M883 0l-82 332h-559l-197 -332h-121l656 1071h139l276 -1071h-112zM494 1188l-29 61l518 271l41 -88zM377 557l-78 -131h479l-33 131q-54 205 -83 414h-48q-111 -209 -237 -414z" />
    <glyph glyph-name="abreve.sc" 
d="M883 0l-82 332h-559l-197 -332h-121l656 1071h139l276 -1071h-112zM672 1296q89 0 149 48.5t86 162.5h76q-26 -151 -106.5 -225t-206.5 -74q-132 0 -198.5 76.5t-41.5 222.5h78q-14 -112 32 -161.5t132 -49.5zM377 557l-78 -131h479l-33 131q-54 205 -83 414h-48
q-111 -209 -237 -414z" />
    <glyph glyph-name="acircumflex.sc" 
d="M883 0l-82 332h-559l-197 -332h-121l656 1071h139l276 -1071h-112zM899 1188l-203 227l-282 -227l-45 49l311 279h57l211 -279zM377 557l-78 -131h479l-33 131q-54 205 -83 414h-48q-111 -209 -237 -414z" />
    <glyph glyph-name="adieresis.sc" 
d="M883 0l-82 332h-559l-197 -332h-121l656 1071h139l276 -1071h-112zM418 1401h151l-26 -152h-152zM793 1401h151l-26 -152h-152zM377 557l-78 -131h479l-33 131q-54 205 -83 414h-48q-111 -209 -237 -414z" />
    <glyph glyph-name="agrave.sc" 
d="M883 0l-82 332h-559l-197 -332h-121l656 1071h139l276 -1071h-112zM821 1190l-448 240l55 92l424 -273zM377 557l-78 -131h479l-33 131q-54 205 -83 414h-48q-111 -209 -237 -414z" />
    <glyph glyph-name="amacron.sc" 
d="M883 0l-82 332h-559l-197 -332h-121l656 1071h139l276 -1071h-112zM399 1352h557l-16 -92h-557zM377 557l-78 -131h479l-33 131q-54 205 -83 414h-48q-111 -209 -237 -414z" />
    <glyph glyph-name="aogonek.sc" 
d="M942 -319q-76 -13 -129 -13q-104 0 -153 41.5t-37 112.5q23 132 258 184l-80 326h-559l-197 -332h-121l656 1071h139l276 -1071h-2q-136 -26 -203 -62t-77 -90q-7 -44 24.5 -65t100.5 -21q30 0 114 15zM377 557l-78 -131h479l-33 131q-54 205 -83 414h-48
q-111 -209 -237 -414z" />
    <glyph glyph-name="aring.sc" 
d="M883 0l-82 332h-559l-197 -332h-121l656 1071h139l276 -1071h-112zM553 1409q-12 -68 19.5 -104.5t97.5 -36.5q61 0 102 35t51 100q12 68 -19 104.5t-97 36.5q-61 0 -102.5 -35t-51.5 -100zM907 1391q-17 -95 -82.5 -149t-162.5 -54q-105 0 -158.5 65t-34.5 168
q17 95 82 149t162 54q105 0 158 -65.5t36 -167.5zM377 557l-78 -131h479l-33 131q-54 205 -83 414h-48q-111 -209 -237 -414z" />
    <glyph glyph-name="aringacute.sc" 
d="M524 1430l-10 65l545 182l20 -102zM903 1184q-12 -69 -56 -117.5t-110 -65.5l258 -1001h-112l-82 332h-559l-197 -332h-121l629 1026q-74 58 -53 174q15 88 77 140.5t154 52.5q93 0 140 -57.5t32 -151.5zM584 1196q-9 -52 10.5 -84.5t62.5 -40.5h52q43 8 72 38.5t38 80.5
q10 60 -16.5 92.5t-83.5 32.5q-54 0 -90 -31t-45 -88zM377 557l-78 -131h479l-33 131q-54 205 -83 414h-48q-111 -209 -237 -414z" />
    <glyph glyph-name="atilde.sc" 
d="M883 0l-82 332h-559l-197 -332h-121l656 1071h139l276 -1071h-112zM555 1530q48 0 82.5 -22.5t54 -55t36 -64.5t39.5 -54.5t54 -22.5q46 0 71.5 50t43.5 163h72q-1 -22 -11 -92q-18 -104 -66.5 -158.5t-113.5 -54.5q-45 0 -78 23t-52.5 55.5t-37 64.5t-42 55t-56.5 23
q-50 0 -75.5 -47t-43.5 -160h-72q3 46 9 88q18 104 66.5 156.5t119.5 52.5zM377 557l-78 -131h479l-33 131q-54 205 -83 414h-48q-111 -209 -237 -414z" />
    <glyph glyph-name="ae.sc" horiz-adv-x="1556" 
d="M463 557l-125 -172h350l107 590h-50q-128 -206 -282 -418zM621 0l51 291h-402l-209 -291h-122l784 1071h831l-16 -102h-635l-65 -375h563l-17 -94h-563l-69 -400h630l-18 -100h-743z" />
    <glyph glyph-name="aeacute.sc" horiz-adv-x="1556" 
d="M893 1188l-29 61l518 271l41 -88zM621 0l51 291h-402l-209 -291h-122l784 1071h831l-16 -102h-635l-65 -375h563l-17 -94h-563l-69 -400h630l-18 -100h-743zM463 557l-125 -172h350l107 590h-50q-128 -206 -282 -418z" />
    <glyph glyph-name="cacute.sc" horiz-adv-x="1181" 
d="M535 -20q-258 0 -374.5 161.5t-70.5 433.5q42 239 198 377t402 138q213 0 328 -106.5t121 -291.5l-109 -18q-16 315 -344 315q-211 0 -332.5 -114.5t-156.5 -317.5q-38 -223 48 -349t294 -126q177 0 283 81.5t171 246.5l103 -25q-143 -405 -561 -405zM541 1208l-29 62
l518 270l41 -88z" />
    <glyph glyph-name="ccaron.sc" horiz-adv-x="1181" 
d="M535 -20q-258 0 -374.5 161.5t-70.5 433.5q42 239 198 377t402 138q213 0 328 -106.5t121 -291.5l-109 -18q-16 315 -344 315q-211 0 -332.5 -114.5t-156.5 -317.5q-38 -223 48 -349t294 -126q177 0 283 81.5t171 246.5l103 -25q-143 -405 -561 -405zM727 1221h-57
l-211 278l51 49l203 -223l282 223l43 -49z" />
    <glyph glyph-name="ccedilla.sc" horiz-adv-x="1181" 
d="M535 -20q-29 0 -43 2l-54 -93q56 17 97 17q66 0 103 -30t26 -93q-9 -51 -59 -89t-138 -38q-118 0 -203 59l49 68q68 -53 160 -53q97 0 111 61q6 32 -16 50t-68 18q-30 0 -92 -15l-48 25l66 119q-202 33 -290 189.5t-46 397.5q42 239 198 377t402 138q213 0 328 -106.5
t121 -291.5l-109 -18q-16 315 -344 315q-211 0 -332.5 -114.5t-156.5 -317.5q-38 -223 48 -349t294 -126q177 0 283 81.5t171 246.5l103 -25q-143 -405 -561 -405z" />
    <glyph glyph-name="ccircumflex.sc" horiz-adv-x="1181" 
d="M535 -20q-258 0 -374.5 161.5t-70.5 433.5q42 239 198 377t402 138q213 0 328 -106.5t121 -291.5l-109 -18q-16 315 -344 315q-211 0 -332.5 -114.5t-156.5 -317.5q-38 -223 48 -349t294 -126q177 0 283 81.5t171 246.5l103 -25q-143 -405 -561 -405zM946 1208l-203 228
l-282 -228l-45 49l311 279h57l211 -279z" />
    <glyph glyph-name="cdotaccent.sc" horiz-adv-x="1181" 
d="M535 -20q-258 0 -374.5 161.5t-70.5 433.5q42 239 198 377t402 138q213 0 328 -106.5t121 -291.5l-109 -18q-16 315 -344 315q-211 0 -332.5 -114.5t-156.5 -317.5q-38 -223 48 -349t294 -126q177 0 283 81.5t171 246.5l103 -25q-143 -405 -561 -405zM659 1448h158
l-29 -154h-157z" />
    <glyph glyph-name="dcaron.sc" horiz-adv-x="1196" 
d="M635 971h-289l-153 -873h303q233 0 361.5 108t164.5 318q39 225 -54 336t-333 111zM63 0l191 1071h401q280 0 401.5 -148.5t73.5 -418.5q-43 -243 -206 -373.5t-424 -130.5h-437zM743 1200h-57l-211 279l51 49l203 -223l283 223l43 -49z" />
    <glyph glyph-name="dcroat.sc" horiz-adv-x="1249" 
d="M672 498h-357l-69 -400h303q233 0 361.5 108t164.5 318q39 225 -54 336t-333 111h-289l-67 -387h356zM117 0l88 498h-156l17 86h155l86 487h402q280 0 401.5 -148.5t73.5 -418.5q-43 -243 -206.5 -373.5t-424.5 -130.5h-436z" />
    <glyph glyph-name="eacute.sc" horiz-adv-x="999" 
d="M63 0l191 1071h743l-16 -102h-635l-65 -375h563l-17 -94h-563l-69 -400h630l-18 -100h-744zM471 1188l-29 61l519 271l40 -88z" />
    <glyph glyph-name="ebreve.sc" horiz-adv-x="999" 
d="M63 0l191 1071h743l-16 -102h-635l-65 -375h563l-17 -94h-563l-69 -400h630l-18 -100h-744zM649 1296q89 0 149.5 48.5t86.5 162.5h76q-26 -150 -107 -224.5t-207 -74.5q-132 0 -198 76.5t-41 222.5h77q-14 -112 32 -161.5t132 -49.5z" />
    <glyph glyph-name="ecaron.sc" horiz-adv-x="999" 
d="M63 0l191 1071h743l-16 -102h-635l-65 -375h563l-17 -94h-563l-69 -400h630l-18 -100h-744zM657 1200h-57l-211 279l51 49l203 -223l283 223l43 -49z" />
    <glyph glyph-name="ecircumflex.sc" horiz-adv-x="999" 
d="M63 0l191 1071h743l-16 -102h-635l-65 -375h563l-17 -94h-563l-69 -400h630l-18 -100h-744zM877 1188l-203 227l-283 -227l-45 49l311 279h58l211 -279z" />
    <glyph glyph-name="edieresis.sc" horiz-adv-x="999" 
d="M63 0l191 1071h743l-16 -102h-635l-65 -375h563l-17 -94h-563l-69 -400h630l-18 -100h-744zM395 1401h152l-27 -152h-151zM770 1401h152l-27 -152h-152z" />
    <glyph glyph-name="edotaccent.sc" horiz-adv-x="999" 
d="M63 0l191 1071h743l-16 -102h-635l-65 -375h563l-17 -94h-563l-69 -400h630l-18 -100h-744zM592 1427h158l-29 -153h-158z" />
    <glyph glyph-name="egrave.sc" horiz-adv-x="999" 
d="M63 0l191 1071h743l-16 -102h-635l-65 -375h563l-17 -94h-563l-69 -400h630l-18 -100h-744zM799 1190l-449 240l56 92l423 -273z" />
    <glyph glyph-name="emacron.sc" horiz-adv-x="999" 
d="M63 0l191 1071h743l-16 -102h-635l-65 -375h563l-17 -94h-563l-69 -400h630l-18 -100h-744zM377 1352h557l-16 -92h-558z" />
    <glyph glyph-name="eng.sc" horiz-adv-x="1202" 
d="M63 0l191 1071h170l281 -524q105 -202 180 -410l18 2q25 248 70 490l78 442h108l-196 -1110q-53 -295 -328 -295q-67 0 -143 12l24 103q68 -12 131 -12q176 0 207 188l8 41l-325 592q-73 132 -160 371l-51 -3q-23 -237 -76 -518l-78 -440h-109z" />
    <glyph glyph-name="eogonek.sc" horiz-adv-x="999" 
d="M754 -319q-76 -13 -129 -13q-104 0 -153.5 42t-37.5 112q10 64 72 109t162 69h-605l191 1071h743l-16 -102h-635l-65 -375h563l-17 -94h-563l-69 -400h630l-18 -100h-2q-136 -26 -203.5 -62t-77.5 -90q-7 -44 24.5 -65t100.5 -21q31 0 115 15z" />
    <glyph glyph-name="eth.sc" horiz-adv-x="1249" 
d="M672 498h-357l-69 -400h303q233 0 361.5 108t164.5 318q39 225 -54 336t-333 111h-289l-67 -387h356zM117 0l88 498h-156l17 86h155l86 487h402q280 0 401.5 -148.5t73.5 -418.5q-43 -243 -206.5 -373.5t-424.5 -130.5h-436z" />
    <glyph glyph-name="fi.sc" horiz-adv-x="1384" 
d="M786 463h-528l-82 -463h-113l191 1071h711l-19 -104h-600l-72 -406h531zM1153 0h-113l191 1071h110z" />
    <glyph glyph-name="fl.sc" horiz-adv-x="1837" 
d="M786 463h-528l-82 -463h-113l191 1071h711l-19 -104h-600l-72 -406h531zM1231 1071h110l-170 -971h555l-18 -100h-668z" />
    <glyph glyph-name="gbreve.sc" horiz-adv-x="1214" 
d="M510 -18q-240 0 -356.5 158t-69.5 427q44 249 196.5 386t405.5 137q216 0 330 -105t123 -289l-109 -16q-9 157 -95 233t-251 76q-218 0 -335.5 -111.5t-155.5 -326.5q-20 -101 -7.5 -187t51 -149t116.5 -99t188 -36q111 0 195.5 26.5t135.5 74.5t80 104t41 125v-2l6 30
h-397l16 92h502l-94 -530h-104l45 248h-13q-61 -119 -172 -192.5t-272 -73.5zM727 1317q89 0 149.5 48.5t86.5 162.5h75q-26 -151 -106.5 -225t-206.5 -74q-132 0 -198.5 76.5t-41.5 222.5h78q-14 -112 32 -161.5t132 -49.5z" />
    <glyph glyph-name="gcircumflex.sc" horiz-adv-x="1214" 
d="M510 -18q-240 0 -356.5 158t-69.5 427q44 249 196.5 386t405.5 137q216 0 330 -105t123 -289l-109 -16q-9 157 -95 233t-251 76q-218 0 -335.5 -111.5t-155.5 -326.5q-20 -101 -7.5 -187t51 -149t116.5 -99t188 -36q111 0 195.5 26.5t135.5 74.5t80 104t41 125v-2l6 30
h-397l16 92h502l-94 -530h-104l45 248h-13q-61 -119 -172 -192.5t-272 -73.5zM954 1208l-202 228l-283 -228l-45 49l311 279h58l211 -279z" />
    <glyph glyph-name="gcommaaccent.sc" horiz-adv-x="1214" 
d="M510 -18q-240 0 -356.5 158t-69.5 427q44 249 196.5 386t405.5 137q216 0 330 -105t123 -289l-109 -16q-9 157 -95 233t-251 76q-218 0 -335.5 -111.5t-155.5 -326.5q-20 -101 -7.5 -187t51 -149t116.5 -99t188 -36q111 0 195.5 26.5t135.5 74.5t80 104t41 125v-2l6 30
h-397l16 92h502l-94 -530h-104l45 248h-13q-61 -119 -172 -192.5t-272 -73.5zM479 -119h107l-176 -307h-78l4 18z" />
    <glyph glyph-name="gdotaccent.sc" horiz-adv-x="1214" 
d="M510 -18q-240 0 -356.5 158t-69.5 427q44 249 196.5 386t405.5 137q216 0 330 -105t123 -289l-109 -16q-9 157 -95 233t-251 76q-218 0 -335.5 -111.5t-155.5 -326.5q-20 -101 -7.5 -187t51 -149t116.5 -99t188 -36q111 0 195.5 26.5t135.5 74.5t80 104t41 125v-2l6 30
h-397l16 92h502l-94 -530h-104l45 248h-13q-61 -119 -172 -192.5t-272 -73.5zM670 1448h157l-28 -154h-158z" />
    <glyph glyph-name="hbar.sc" horiz-adv-x="1269" 
d="M989 539l37 211h-688l-37 -211h688zM1006 0h-111l78 438h-688l-78 -438h-113l133 750h-137l14 88h140l41 233h110l-41 -233h688l41 233h111l-41 -233h139l-14 -88h-141z" />
    <glyph glyph-name="hcircumflex.sc" horiz-adv-x="1208" 
d="M975 0h-111l86 483h-688l-86 -483h-113l191 1071h111l-86 -485h688l86 485h110zM958 1188l-202 227l-283 -227l-45 49l311 279h58l211 -279z" />
    <glyph glyph-name="iacute.sc" horiz-adv-x="409" 
d="M176 0h-113l191 1071h111zM154 1188l-29 61l518 271l41 -88z" />
    <glyph glyph-name="ibreve.sc" horiz-adv-x="409" 
d="M176 0h-113l191 1071h111zM332 1296q89 0 149 48.5t86 162.5h76q-26 -151 -106.5 -225t-206.5 -74q-132 0 -198.5 76.5t-41.5 222.5h78q-14 -112 32 -161.5t132 -49.5z" />
    <glyph glyph-name="icircumflex.sc" horiz-adv-x="409" 
d="M176 0h-113l191 1071h111zM559 1188l-203 227l-282 -227l-45 49l311 279h57l211 -279z" />
    <glyph glyph-name="idieresis.sc" horiz-adv-x="409" 
d="M176 0h-113l191 1071h111zM78 1401h151l-26 -152h-152zM453 1401h151l-26 -152h-152z" />
    <glyph glyph-name="igrave.sc" horiz-adv-x="409" 
d="M176 0h-113l191 1071h111zM481 1190l-448 240l55 92l424 -273z" />
    <glyph glyph-name="ij.sc" horiz-adv-x="985" 
d="M176 0h-113l191 1071h111zM688 262l141 809h113l-143 -813q-47 -272 -301 -272q-68 0 -142 12l21 100q72 -10 121 -10q84 0 129.5 43.5t60.5 130.5z" />
    <glyph glyph-name="imacron.sc" horiz-adv-x="409" 
d="M176 0h-113l191 1071h111zM59 1352h557l-16 -92h-557z" />
    <glyph glyph-name="iogonek.sc" horiz-adv-x="409" 
d="M176 0q-136 -26 -203 -62t-77 -90q-7 -44 24.5 -65t99.5 -21q31 0 115 15l-10 -96q-76 -13 -129 -13q-104 0 -153.5 42t-37.5 112q23 132 258 184l191 1065h111z" />
    <glyph glyph-name="itilde.sc" horiz-adv-x="409" 
d="M176 0h-113l191 1071h111zM215 1530q48 0 82.5 -22.5t54 -55t36 -64.5t39.5 -54.5t54 -22.5q46 0 71.5 50t43.5 163h72q-1 -22 -11 -92q-18 -104 -66.5 -158.5t-113.5 -54.5q-45 0 -78 23t-52.5 55.5t-37 64.5t-42 55t-56.5 23q-50 0 -75.5 -47t-43.5 -160h-72q3 46 9 88
q18 104 66.5 156.5t119.5 52.5z" />
    <glyph glyph-name="jcircumflex.sc" horiz-adv-x="575" 
d="M279 262l141 809h112l-143 -813q-47 -272 -301 -272q-67 0 -141 12l20 100q72 -10 121 -10q84 0 130 43.5t61 130.5zM727 1188l-203 227l-282 -227l-45 49l311 279h57l211 -279z" />
    <glyph glyph-name="kcommaaccent.sc" horiz-adv-x="1052" 
d="M831 0l-471 461h-102l-82 -461h-113l191 1071h111l-91 -514h88l619 514h131l-2 -20l-661 -537l512 -494l-3 -20h-127zM475 -119h107l-176 -307h-78l4 18z" />
    <glyph glyph-name="lacute.sc" horiz-adv-x="860" 
d="M254 1188l-29 61l518 271l41 -88zM254 1071h111l-170 -971h555l-19 -100h-668z" />
    <glyph glyph-name="lcaron.sc" horiz-adv-x="878" 
d="M825 1069h103l-144 -514h-73zM254 1071h111l-170 -971h555l-19 -100h-668z" />
    <glyph glyph-name="lcommaaccent.sc" horiz-adv-x="860" 
d="M254 1071h111l-170 -971h555l-19 -100h-668zM360 -119h107l-176 -307h-78l4 18z" />
    <glyph glyph-name="ldot.sc" horiz-adv-x="872" 
d="M721 659h156l-29 -151h-156zM254 1071h111l-170 -971h555l-19 -100h-668z" />
    <glyph glyph-name="lslash.sc" horiz-adv-x="907" 
d="M281 1071h110l-88 -496l320 150l-17 -90l-317 -150l-68 -385h555l-18 -100h-668l76 426l-154 -72l15 90l155 74z" />
    <glyph glyph-name="nacute.sc" horiz-adv-x="1202" 
d="M817 0l-289 592q-17 35 -33 71.5t-34.5 83t-27.5 70.5t-30.5 81.5t-25.5 68.5l-49 -2q-21 -219 -78 -525l-78 -440h-109l191 1071h170l258 -526q81 -170 172 -422l45 2q33 288 74 504l78 442h108l-188 -1071h-154zM551 1188l-29 61l518 271l41 -88z" />
    <glyph glyph-name="ncaron.sc" horiz-adv-x="1202" 
d="M817 0l-289 592q-17 35 -33 71.5t-34.5 83t-27.5 70.5t-30.5 81.5t-25.5 68.5l-49 -2q-21 -219 -78 -525l-78 -440h-109l191 1071h170l258 -526q81 -170 172 -422l45 2q33 288 74 504l78 442h108l-188 -1071h-154zM737 1200h-57l-211 279l51 49l203 -223l283 223l43 -49z
" />
    <glyph glyph-name="ncommaaccent.sc" horiz-adv-x="1202" 
d="M817 0l-289 592q-17 35 -33 71.5t-34.5 83t-27.5 70.5t-30.5 81.5t-25.5 68.5l-49 -2q-21 -219 -78 -525l-78 -440h-109l191 1071h170l258 -526q81 -170 172 -422l45 2q33 288 74 504l78 442h108l-188 -1071h-154zM479 -119h107l-176 -307h-78l4 18z" />
    <glyph glyph-name="ntilde.sc" horiz-adv-x="1202" 
d="M817 0l-289 592q-17 35 -33 71.5t-34.5 83t-27.5 70.5t-30.5 81.5t-25.5 68.5l-49 -2q-21 -219 -78 -525l-78 -440h-109l191 1071h170l258 -526q81 -170 172 -422l45 2q33 288 74 504l78 442h108l-188 -1071h-154zM612 1530q48 0 82.5 -22.5t54 -55t36.5 -64.5t40 -54.5
t54 -22.5q46 0 71 50t43 163h72q-2 -35 -10 -92q-18 -104 -67 -158.5t-114 -54.5q-45 0 -78 23t-52.5 55.5t-37 64.5t-42 55t-56.5 23q-50 0 -75.5 -47t-43.5 -160h-71q3 58 8 88q18 104 66.5 156.5t119.5 52.5z" />
    <glyph glyph-name="oacute.sc" horiz-adv-x="1247" 
d="M557 -20q-179 0 -296.5 78t-160 210.5t-12.5 302.5q42 241 205.5 380t417.5 139q107 0 194 -28.5t145.5 -81t95.5 -125.5t44.5 -161.5t-8.5 -189.5q-43 -243 -207 -383.5t-418 -140.5zM565 82q217 0 344 116t164 322q20 101 5 187t-57.5 148.5t-123.5 98t-192 35.5
q-217 0 -345.5 -115t-164.5 -321q-20 -101 -5 -187.5t57.5 -149.5t124 -98.5t193.5 -35.5zM573 1208l-28 62l518 270l41 -88z" />
    <glyph glyph-name="obreve.sc" horiz-adv-x="1247" 
d="M557 -20q-179 0 -296.5 78t-160 210.5t-12.5 302.5q42 241 205.5 380t417.5 139q107 0 194 -28.5t145.5 -81t95.5 -125.5t44.5 -161.5t-8.5 -189.5q-43 -243 -207 -383.5t-418 -140.5zM565 82q217 0 344 116t164 322q20 101 5 187t-57.5 148.5t-123.5 98t-192 35.5
q-217 0 -345.5 -115t-164.5 -321q-20 -101 -5 -187.5t57.5 -149.5t124 -98.5t193.5 -35.5zM750 1317q89 0 149 48.5t86 162.5h76q-26 -151 -106.5 -225t-206.5 -74q-132 0 -198.5 76.5t-41.5 222.5h78q-14 -112 32 -161.5t132 -49.5z" />
    <glyph glyph-name="ocircumflex.sc" horiz-adv-x="1247" 
d="M565 82q217 0 344 116t164 322q20 101 5 187t-57.5 148.5t-123.5 98t-192 35.5q-217 0 -345.5 -115t-164.5 -321q-20 -101 -5 -187.5t57.5 -149.5t124 -98.5t193.5 -35.5zM557 -20q-179 0 -296.5 78t-160 210.5t-12.5 302.5q42 241 205.5 380t417.5 139q107 0 194 -28.5
t145.5 -81t95.5 -125.5t44.5 -161.5t-8.5 -189.5q-43 -243 -207 -383.5t-418 -140.5zM979 1208l-203 228l-282 -228l-45 49l311 279h57l211 -279z" />
    <glyph glyph-name="odieresis.sc" horiz-adv-x="1247" 
d="M557 -20q-179 0 -296.5 78t-160 210.5t-12.5 302.5q42 241 205.5 380t417.5 139q107 0 194 -28.5t145.5 -81t95.5 -125.5t44.5 -161.5t-8.5 -189.5q-43 -243 -207 -383.5t-418 -140.5zM565 82q217 0 344 116t164 322q20 101 5 187t-57.5 148.5t-123.5 98t-192 35.5
q-217 0 -345.5 -115t-164.5 -321q-20 -101 -5 -187.5t57.5 -149.5t124 -98.5t193.5 -35.5zM498 1421h151l-26 -151h-152zM872 1421h152l-27 -151h-151z" />
    <glyph glyph-name="ograve.sc" horiz-adv-x="1247" 
d="M557 -20q-179 0 -296.5 78t-160 210.5t-12.5 302.5q42 241 205.5 380t417.5 139q107 0 194 -28.5t145.5 -81t95.5 -125.5t44.5 -161.5t-8.5 -189.5q-43 -243 -207 -383.5t-418 -140.5zM565 82q217 0 344 116t164 322q20 101 5 187t-57.5 148.5t-123.5 98t-192 35.5
q-217 0 -345.5 -115t-164.5 -321q-20 -101 -5 -187.5t57.5 -149.5t124 -98.5t193.5 -35.5zM901 1210l-448 240l55 92l424 -272z" />
    <glyph glyph-name="ohungarumlaut.sc" horiz-adv-x="1247" 
d="M557 -20q-179 0 -296.5 78t-160 210.5t-12.5 302.5q42 241 205.5 380t417.5 139q107 0 194 -28.5t145.5 -81t95.5 -125.5t44.5 -161.5t-8.5 -189.5q-43 -243 -207 -383.5t-418 -140.5zM565 82q217 0 344 116t164 322q20 101 5 187t-57.5 148.5t-123.5 98t-192 35.5
q-217 0 -345.5 -115t-164.5 -321q-20 -101 -5 -187.5t57.5 -149.5t124 -98.5t193.5 -35.5zM575 1204l-53 41l246 330l82 -64zM840 1206l-49 45l256 322l77 -66z" />
    <glyph glyph-name="omacron.sc" horiz-adv-x="1247" 
d="M557 -20q-179 0 -296.5 78t-160 210.5t-12.5 302.5q42 241 205.5 380t417.5 139q107 0 194 -28.5t145.5 -81t95.5 -125.5t44.5 -161.5t-8.5 -189.5q-43 -243 -207 -383.5t-418 -140.5zM565 82q217 0 344 116t164 322q20 101 5 187t-57.5 148.5t-123.5 98t-192 35.5
q-217 0 -345.5 -115t-164.5 -321q-20 -101 -5 -187.5t57.5 -149.5t124 -98.5t193.5 -35.5zM479 1372h557l-16 -92h-557z" />
    <glyph glyph-name="oslash.sc" horiz-adv-x="1247" 
d="M193 553q-32 -195 36 -313l764 651q-101 98 -288 98q-217 0 -346.5 -115t-165.5 -321zM557 -20q-235 0 -362 133l-134 -113h-96l2 16l180 154q-104 158 -59 401q42 241 205.5 380t417.5 139q233 0 364 -134l129 115h94l-4 -18l-176 -150q108 -158 64 -399
q-43 -243 -207 -383.5t-418 -140.5zM565 80q217 0 345 116.5t165 323.5q32 196 -39 314l-762 -654q97 -100 291 -100z" />
    <glyph glyph-name="oslashacute.sc" horiz-adv-x="1247" 
d="M193 553q-32 -195 36 -313l764 651q-101 98 -288 98q-217 0 -346.5 -115t-165.5 -321zM557 -20q-235 0 -362 133l-134 -113h-96l2 16l180 154q-104 158 -59 401q42 241 205.5 380t417.5 139q233 0 364 -134l129 115h94l-4 -18l-176 -150q108 -158 64 -399
q-43 -243 -207 -383.5t-418 -140.5zM623 1206l-29 62l518 270l41 -88zM565 80q217 0 345 116.5t165 323.5q32 196 -39 314l-762 -654q97 -100 291 -100z" />
    <glyph glyph-name="otilde.sc" horiz-adv-x="1247" 
d="M557 -20q-179 0 -296.5 78t-160 210.5t-12.5 302.5q42 241 205.5 380t417.5 139q107 0 194 -28.5t145.5 -81t95.5 -125.5t44.5 -161.5t-8.5 -189.5q-43 -243 -207 -383.5t-418 -140.5zM565 82q217 0 344 116t164 322q20 101 5 187t-57.5 148.5t-123.5 98t-192 35.5
q-217 0 -345.5 -115t-164.5 -321q-20 -101 -5 -187.5t57.5 -149.5t124 -98.5t193.5 -35.5zM633 1550q48 0 82.5 -22.5t54 -55t36 -64.5t39.5 -54.5t54 -22.5q46 0 71.5 50t43.5 163h71q-2 -35 -10 -92q-18 -104 -66.5 -158.5t-113.5 -54.5q-45 0 -78 23t-52.5 55.5t-37 64.5
t-42 55t-56.5 23q-50 0 -75.5 -47t-43.5 -160h-72q3 58 8 88q18 103 67 156t120 53z" />
    <glyph glyph-name="oe.sc" horiz-adv-x="1673" 
d="M584 98h141l154 873h-195q-204 0 -329.5 -112t-157.5 -300q-21 -101 -5 -186t60.5 -146t129.5 -95t202 -34zM575 0q-278 0 -405 158.5t-82 419.5q39 222 199.5 357.5t402.5 135.5h950l-16 -102h-635l-65 -375h563l-17 -94h-563l-69 -400h630l-18 -100h-875z" />
    <glyph glyph-name="racute.sc" horiz-adv-x="1103" 
d="M666 971h-320l-74 -420h320q141 0 215.5 47t91.5 145q21 114 -32 171t-201 57zM821 0l-282 455h-283l-80 -455h-113l191 1071h428q192 0 273.5 -92t52.5 -248q-20 -119 -108.5 -189t-237.5 -83l284 -439l-4 -20h-121zM516 1188l-29 61l519 271l41 -88z" />
    <glyph glyph-name="rcaron.sc" horiz-adv-x="1103" 
d="M666 971h-320l-74 -420h320q141 0 215.5 47t91.5 145q21 114 -32 171t-201 57zM821 0l-282 455h-283l-80 -455h-113l191 1071h428q192 0 273.5 -92t52.5 -248q-20 -119 -108.5 -189t-237.5 -83l284 -439l-4 -20h-121zM676 1200h-58l-210 279l51 49l203 -223l282 223
l43 -49z" />
    <glyph glyph-name="rcommaaccent.sc" horiz-adv-x="1103" 
d="M446 -119h107l-176 -307h-78l4 18zM666 971h-320l-74 -420h320q141 0 215.5 47t91.5 145q21 114 -32 171t-201 57zM821 0l-282 455h-283l-80 -455h-113l191 1071h428q192 0 273.5 -92t52.5 -248q-20 -119 -108.5 -189t-237.5 -83l284 -439l-4 -20h-121z" />
    <glyph glyph-name="sacute.sc" horiz-adv-x="1036" 
d="M489 -20q-438 3 -448 368l111 14q5 -142 85 -213t257 -71q287 0 315 176q18 96 -46 153t-231 87q-109 19 -183.5 52t-113 79t-50.5 98.5t-1 116.5q22 119 126.5 184.5t285.5 65.5q194 0 280.5 -82.5t102.5 -239.5l-109 -18q-9 65 -24.5 106.5t-46 74.5t-81 47.5
t-126.5 14.5q-271 0 -299 -164q-8 -43 0.5 -77t38.5 -65.5t91 -55.5t155 -41q88 -17 153 -43t103.5 -58t61.5 -71t26 -82t-4 -90q-46 -266 -429 -266zM461 1208l-29 62l518 270l41 -88z" />
    <glyph glyph-name="scaron.sc" horiz-adv-x="1036" 
d="M489 -20q-438 3 -448 368l111 14q5 -142 85 -213t257 -71q287 0 315 176q18 96 -46 153t-231 87q-109 19 -183.5 52t-113 79t-50.5 98.5t-1 116.5q22 119 126.5 184.5t285.5 65.5q194 0 280.5 -82.5t102.5 -239.5l-109 -18q-9 65 -24.5 106.5t-46 74.5t-81 47.5
t-126.5 14.5q-271 0 -299 -164q-8 -43 0.5 -77t38.5 -65.5t91 -55.5t155 -41q88 -17 153 -43t103.5 -58t61.5 -71t26 -82t-4 -90q-46 -266 -429 -266zM647 1221h-57l-211 278l51 49l203 -223l282 223l43 -49z" />
    <glyph glyph-name="scedilla.sc" horiz-adv-x="1036" 
d="M489 -20q-25 0 -75 4l-56 -95q56 17 97 17q66 0 103 -30t26 -93q-9 -51 -59 -89t-138 -38q-118 0 -203 59l49 68q68 -53 160 -53q97 0 111 61q6 32 -16 50t-68 18q-30 0 -92 -15l-47 25l67 123q-297 54 -307 356l111 14q5 -142 85 -213t257 -71q287 0 315 176
q18 96 -46 153t-231 87q-109 19 -183.5 52t-113 79t-50.5 98.5t-1 116.5q22 119 126.5 184.5t285.5 65.5q194 0 280.5 -82.5t102.5 -239.5l-109 -18q-9 65 -24.5 106.5t-46 74.5t-81 47.5t-126.5 14.5q-271 0 -299 -164q-8 -43 0.5 -77t38.5 -65.5t91 -55.5t155 -41
q88 -17 153 -43t103.5 -58t61.5 -71t26 -82t-4 -90q-46 -266 -429 -266z" />
    <glyph glyph-name="scircumflex.sc" horiz-adv-x="1036" 
d="M489 -20q-438 3 -448 368l111 14q5 -142 85 -213t257 -71q287 0 315 176q18 96 -46 153t-231 87q-109 19 -183.5 52t-113 79t-50.5 98.5t-1 116.5q22 119 126.5 184.5t285.5 65.5q194 0 280.5 -82.5t102.5 -239.5l-109 -18q-9 65 -24.5 106.5t-46 74.5t-81 47.5
t-126.5 14.5q-271 0 -299 -164q-8 -43 0.5 -77t38.5 -65.5t91 -55.5t155 -41q88 -17 153 -43t103.5 -58t61.5 -71t26 -82t-4 -90q-46 -266 -429 -266zM866 1208l-202 228l-283 -228l-45 49l311 279h58l210 -279z" />
    <glyph glyph-name="scommaaccent.sc" horiz-adv-x="1036" 
d="M489 -20q-438 3 -448 368l111 14q5 -142 85 -213t257 -71q287 0 315 176q18 96 -46 153t-231 87q-109 19 -183.5 52t-113 79t-50.5 98.5t-1 116.5q22 119 126.5 184.5t285.5 65.5q194 0 280.5 -82.5t102.5 -239.5l-109 -18q-9 65 -24.5 106.5t-46 74.5t-81 47.5
t-126.5 14.5q-271 0 -299 -164q-8 -43 0.5 -77t38.5 -65.5t91 -55.5t155 -41q88 -17 153 -43t103.5 -58t61.5 -71t26 -82t-4 -90q-46 -266 -429 -266zM391 -119h107l-176 -307h-78l4 18z" />
    <glyph glyph-name="tbar.sc" horiz-adv-x="956" 
d="M121 967l18 104h893l-18 -104h-389l-76 -418h280l-14 -86h-280l-82 -463h-111l82 463h-287l15 86h286l74 418h-391z" />
    <glyph glyph-name="tcaron.sc" horiz-adv-x="960" 
d="M1014 967h-389l-172 -967h-111l170 967h-391l18 104h893zM616 1200h-57l-211 279l51 49l203 -223l283 223l43 -49z" />
    <glyph glyph-name="tcommaaccent.sc" horiz-adv-x="960" 
d="M121 967l18 104h893l-18 -104h-389l-172 -967h-54l-65 -111q56 17 96 17q66 0 103 -30t26 -93q-9 -51 -59 -89t-138 -38q-117 0 -202 59l49 68q68 -53 160 -53q96 0 110 61q6 32 -16 50t-68 18q-29 0 -92 -15l-47 25l92 164l164 934h-391z" />
    <glyph glyph-name="uni021B.sc" horiz-adv-x="960" 
d="M121 967l18 104h893l-18 -104h-389l-172 -967h-111l170 967h-391zM360 -119h107l-176 -307h-78l4 18z" />
    <glyph glyph-name="thorn.sc" horiz-adv-x="1015" 
d="M254 1071h111l-35 -197h297q392 0 331 -356q-24 -137 -132 -215t-285 -78h-326l-39 -225h-110zM616 776h-303l-80 -454h306q138 0 214.5 52t96.5 163q22 124 -31.5 181.5t-202.5 57.5z" />
    <glyph glyph-name="uacute.sc" horiz-adv-x="1189" 
d="M549 82q172 0 257 82.5t112 238.5l118 668h111l-121 -680q-35 -203 -157 -307t-324 -104q-229 0 -336.5 115t-69.5 329l115 647h111l-117 -657q-58 -332 301 -332zM545 1188l-29 61l518 271l41 -88z" />
    <glyph glyph-name="ubreve.sc" horiz-adv-x="1189" 
d="M549 82q172 0 257 82.5t112 238.5l118 668h111l-121 -680q-35 -203 -157 -307t-324 -104q-229 0 -336.5 115t-69.5 329l115 647h111l-117 -657q-58 -332 301 -332zM723 1296q89 0 149 48.5t86 162.5h76q-26 -151 -106.5 -225t-206.5 -74q-132 0 -198.5 76.5t-41.5 222.5
h78q-14 -112 32 -161.5t132 -49.5z" />
    <glyph glyph-name="ucircumflex.sc" horiz-adv-x="1189" 
d="M549 82q172 0 257 82.5t112 238.5l118 668h111l-121 -680q-35 -203 -157 -307t-324 -104q-229 0 -336.5 115t-69.5 329l115 647h111l-117 -657q-58 -332 301 -332zM950 1188l-202 227l-283 -227l-45 49l311 279h57l211 -279z" />
    <glyph glyph-name="udieresis.sc" horiz-adv-x="1189" 
d="M549 82q172 0 257 82.5t112 238.5l118 668h111l-121 -680q-35 -203 -157 -307t-324 -104q-229 0 -336.5 115t-69.5 329l115 647h111l-117 -657q-58 -332 301 -332zM469 1401h152l-27 -152h-152zM844 1401h151l-26 -152h-152z" />
    <glyph glyph-name="ugrave.sc" horiz-adv-x="1189" 
d="M549 82q172 0 257 82.5t112 238.5l118 668h111l-121 -680q-35 -203 -157 -307t-324 -104q-229 0 -336.5 115t-69.5 329l115 647h111l-117 -657q-58 -332 301 -332zM872 1190l-448 240l55 92l424 -273z" />
    <glyph glyph-name="uhungarumlaut.sc" horiz-adv-x="1189" 
d="M549 82q172 0 257 82.5t112 238.5l118 668h111l-121 -680q-35 -203 -157 -307t-324 -104q-229 0 -336.5 115t-69.5 329l115 647h111l-117 -657q-58 -332 301 -332zM547 1184l-53 41l245 329l82 -63zM811 1186l-49 45l256 321l78 -65z" />
    <glyph glyph-name="umacron.sc" horiz-adv-x="1189" 
d="M549 82q172 0 257 82.5t112 238.5l118 668h111l-121 -680q-35 -203 -157 -307t-324 -104q-229 0 -336.5 115t-69.5 329l115 647h111l-117 -657q-58 -332 301 -332zM451 1352h557l-17 -92h-557z" />
    <glyph glyph-name="uogonek.sc" horiz-adv-x="1189" 
d="M549 82q172 0 257 82.5t112 238.5l118 668h111l-121 -680q-34 -195 -148.5 -299.5t-304.5 -111.5q-174 -45 -192 -132q-7 -44 24.5 -65t100.5 -21q31 0 115 15l-11 -96q-76 -13 -129 -13q-104 0 -153 41.5t-37 112.5q17 104 176 162q-191 19 -277 132t-51 308l115 647
h111l-117 -657q-58 -332 301 -332z" />
    <glyph glyph-name="uring.sc" horiz-adv-x="1189" 
d="M549 82q172 0 257 82.5t112 238.5l118 668h111l-121 -680q-35 -203 -157 -307t-324 -104q-229 0 -336.5 115t-69.5 329l115 647h111l-117 -657q-58 -332 301 -332zM958 1391q-17 -95 -82.5 -149t-162.5 -54q-105 0 -158.5 65t-34.5 168q17 95 82 149t162 54
q105 0 158 -65.5t36 -167.5zM604 1409q-12 -68 19.5 -104.5t97.5 -36.5q61 0 102 35t51 100q12 68 -19 104.5t-97 36.5q-61 0 -102.5 -35t-51.5 -100z" />
    <glyph glyph-name="utilde.sc" horiz-adv-x="1189" 
d="M549 82q172 0 257 82.5t112 238.5l118 668h111l-121 -680q-35 -203 -157 -307t-324 -104q-229 0 -336.5 115t-69.5 329l115 647h111l-117 -657q-58 -332 301 -332zM606 1530q48 0 82.5 -22.5t54 -55t36 -64.5t39.5 -54.5t54 -22.5q46 0 71.5 50t43.5 163h72
q-2 -35 -10 -92q-18 -104 -67 -158.5t-114 -54.5q-45 0 -78 23t-52.5 55.5t-37 64.5t-42 55t-56.5 23q-50 0 -75.5 -47t-43.5 -160h-71q3 58 8 88q18 104 66.5 156.5t119.5 52.5z" />
    <glyph glyph-name="wacute.sc" horiz-adv-x="1574" 
d="M627 446l-209 -446h-172l-125 1071h119l51 -536q22 -265 31 -435h55q124 299 186 432l254 539h148l63 -539q28 -251 33 -432h55q89 224 184 435l242 536h119l-500 -1071h-172l-53 446q-36 286 -45 517h-37q-106 -263 -227 -517zM737 1188l-28 61l518 271l41 -88z" />
    <glyph glyph-name="wcircumflex.sc" horiz-adv-x="1574" 
d="M627 446l-209 -446h-172l-125 1071h119l51 -536q22 -265 31 -435h55q124 299 186 432l254 539h148l63 -539q28 -251 33 -432h55q89 224 184 435l242 536h119l-500 -1071h-172l-53 446q-36 286 -45 517h-37q-106 -263 -227 -517zM1143 1188l-203 227l-283 -227l-45 49
l312 279h57l211 -279z" />
    <glyph glyph-name="wdieresis.sc" horiz-adv-x="1574" 
d="M627 446l-209 -446h-172l-125 1071h119l51 -536q22 -265 31 -435h55q124 299 186 432l254 539h148l63 -539q28 -251 33 -432h55q89 224 184 435l242 536h119l-500 -1071h-172l-53 446q-36 286 -45 517h-37q-106 -263 -227 -517zM662 1401h151l-27 -152h-151zM1036 1401
h152l-27 -152h-151z" />
    <glyph glyph-name="wgrave.sc" horiz-adv-x="1574" 
d="M627 446l-209 -446h-172l-125 1071h119l51 -536q22 -265 31 -435h55q124 299 186 432l254 539h148l63 -539q28 -251 33 -432h55q89 224 184 435l242 536h119l-500 -1071h-172l-53 446q-36 286 -45 517h-37q-106 -263 -227 -517zM1065 1190l-449 240l56 92l424 -273z" />
    <glyph glyph-name="yacute.sc" horiz-adv-x="993" 
d="M469 0h-111l66 375l-322 676l4 20h109l264 -604h27l475 604h115l-2 -20l-559 -680zM446 1188l-28 61l518 271l41 -88z" />
    <glyph glyph-name="ycircumflex.sc" horiz-adv-x="993" 
d="M469 0h-111l66 375l-322 676l4 20h109l264 -604h27l475 604h115l-2 -20l-559 -680zM852 1188l-203 227l-282 -227l-45 49l311 279h57l211 -279z" />
    <glyph glyph-name="ydieresis.sc" horiz-adv-x="993" 
d="M469 0h-111l66 375l-322 676l4 20h109l264 -604h27l475 604h115l-2 -20l-559 -680zM371 1401h151l-26 -152h-152zM745 1401h152l-27 -152h-151z" />
    <glyph glyph-name="zacute.sc" horiz-adv-x="1056" 
d="M899 102l-18 -102h-893l18 102l912 875l-5 10q-218 -20 -413 -20h-318l19 104h868l-18 -98l-918 -881l4 -10q246 20 451 20h311zM469 1188l-29 61l518 271l41 -88z" />
    <glyph glyph-name="zcaron.sc" horiz-adv-x="1056" 
d="M899 102l-18 -102h-893l18 102l912 875l-5 10q-218 -20 -413 -20h-318l19 104h868l-18 -98l-918 -881l4 -10q246 20 451 20h311zM653 1200h-57l-211 279l51 49l203 -223l283 223l43 -49z" />
    <glyph glyph-name="zdotaccent.sc" horiz-adv-x="1056" 
d="M899 102l-18 -102h-893l18 102l912 875l-5 10q-218 -20 -413 -20h-318l19 104h868l-18 -98l-918 -881l4 -10q246 20 451 20h311zM588 1427h157l-28 -153h-158z" />
    <glyph glyph-name="germandbls.sc" horiz-adv-x="1196" 
d="M735 -20q-269 0 -370 206l77 64q87 -170 293 -170q210 0 234 156q8 44 -1.5 77.5t-37 57.5t-59 40t-78.5 33q-56 19 -96.5 40.5t-74.5 52.5t-47 73.5t-4 94.5q16 90 114 158t235 110l-5 18q-160 -16 -286 -16q-279 0 -336 -313l-117 -662h-113l119 674q35 193 153 295
t310 102h414l-15 -98q-187 -77 -271.5 -138t-96.5 -128q-11 -65 31.5 -101.5t138.5 -70.5q132 -47 191.5 -122t37.5 -194q-19 -107 -102.5 -173t-237.5 -66z" />
    <glyph glyph-name="a.alt" horiz-adv-x="997" 
d="M346 76q154 0 259 75t126 193l14 78h-335q-115 0 -178 -38.5t-78 -123.5q-12 -79 33 -131.5t159 -52.5zM676 0l39 225h-15q-56 -120 -155.5 -182.5t-227.5 -62.5q-148 0 -220.5 77.5t-47.5 210.5q21 115 110.5 177.5t248.5 62.5h352l18 98q23 132 -25.5 199t-185.5 67
q-115 0 -190.5 -56t-122.5 -171l-98 33q121 291 413 291q186 0 266.5 -97.5t49.5 -271.5l-107 -600h-102z" />
    <glyph glyph-name="aacute.alt" horiz-adv-x="997" 
d="M446 1075l-28 62l518 270l41 -88zM346 76q154 0 259 75t126 193l14 78h-335q-115 0 -178 -38.5t-78 -123.5q-12 -79 33 -131.5t159 -52.5zM676 0l39 225h-15q-56 -120 -155.5 -182.5t-227.5 -62.5q-148 0 -220.5 77.5t-47.5 210.5q21 115 110.5 177.5t248.5 62.5h352
l18 98q23 132 -25.5 199t-185.5 67q-115 0 -190.5 -56t-122.5 -171l-98 33q121 291 413 291q186 0 266.5 -97.5t49.5 -271.5l-107 -600h-102z" />
    <glyph glyph-name="abreve.alt" horiz-adv-x="997" 
d="M623 1184q89 0 149 48.5t86 162.5h76q-26 -151 -106.5 -225t-206.5 -74q-132 0 -198.5 76.5t-41.5 222.5h78q-14 -112 32 -161.5t132 -49.5zM346 76q154 0 259 75t126 193l14 78h-335q-115 0 -178 -38.5t-78 -123.5q-12 -79 33 -131.5t159 -52.5zM676 0l39 225h-15
q-56 -120 -155.5 -182.5t-227.5 -62.5q-148 0 -220.5 77.5t-47.5 210.5q21 115 110.5 177.5t248.5 62.5h352l18 98q23 132 -25.5 199t-185.5 67q-115 0 -190.5 -56t-122.5 -171l-98 33q121 291 413 291q186 0 266.5 -97.5t49.5 -271.5l-107 -600h-102z" />
    <glyph glyph-name="acircumflex.alt" horiz-adv-x="997" 
d="M850 1075l-203 228l-282 -228l-46 49l312 279h57l211 -279zM346 76q154 0 259 75t126 193l14 78h-335q-115 0 -178 -38.5t-78 -123.5q-12 -79 33 -131.5t159 -52.5zM676 0l39 225h-15q-56 -120 -155.5 -182.5t-227.5 -62.5q-148 0 -220.5 77.5t-47.5 210.5
q21 115 110.5 177.5t248.5 62.5h352l18 98q23 132 -25.5 199t-185.5 67q-115 0 -190.5 -56t-122.5 -171l-98 33q121 291 413 291q186 0 266.5 -97.5t49.5 -271.5l-107 -600h-102z" />
    <glyph glyph-name="adieresis.alt" horiz-adv-x="997" 
d="M369 1288h151l-26 -151h-152zM743 1288h152l-27 -151h-151zM346 76q154 0 259 75t126 193l14 78h-335q-115 0 -178 -38.5t-78 -123.5q-12 -79 33 -131.5t159 -52.5zM676 0l39 225h-15q-56 -120 -155.5 -182.5t-227.5 -62.5q-148 0 -220.5 77.5t-47.5 210.5
q21 115 110.5 177.5t248.5 62.5h352l18 98q23 132 -25.5 199t-185.5 67q-115 0 -190.5 -56t-122.5 -171l-98 33q121 291 413 291q186 0 266.5 -97.5t49.5 -271.5l-107 -600h-102z" />
    <glyph glyph-name="agrave.alt" horiz-adv-x="997" 
d="M774 1077l-448 240l55 92l424 -272zM346 76q154 0 259 75t126 193l14 78h-335q-115 0 -178 -38.5t-78 -123.5q-12 -79 33 -131.5t159 -52.5zM676 0l39 225h-15q-56 -120 -155.5 -182.5t-227.5 -62.5q-148 0 -220.5 77.5t-47.5 210.5q21 115 110.5 177.5t248.5 62.5h352
l18 98q23 132 -25.5 199t-185.5 67q-115 0 -190.5 -56t-122.5 -171l-98 33q121 291 413 291q186 0 266.5 -97.5t49.5 -271.5l-107 -600h-102z" />
    <glyph glyph-name="amacron.alt" horiz-adv-x="997" 
d="M352 1239h557l-16 -92h-557zM346 76q154 0 259 75t126 193l14 78h-335q-115 0 -178 -38.5t-78 -123.5q-12 -79 33 -131.5t159 -52.5zM676 0l39 225h-15q-56 -120 -155.5 -182.5t-227.5 -62.5q-148 0 -220.5 77.5t-47.5 210.5q21 115 110.5 177.5t248.5 62.5h352l18 98
q23 132 -25.5 199t-185.5 67q-115 0 -190.5 -56t-122.5 -171l-98 33q121 291 413 291q186 0 266.5 -97.5t49.5 -271.5l-107 -600h-102z" />
    <glyph glyph-name="aogonek.alt" horiz-adv-x="1001" 
d="M346 76q154 0 259 75t126 193l14 78h-335q-115 0 -178 -38.5t-78 -123.5q-12 -79 33 -131.5t159 -52.5zM727 -319q-76 -13 -129 -13q-104 0 -153 41.5t-37 112.5q12 69 83.5 116t186.5 70l37 217h-15q-56 -120 -155.5 -182.5t-227.5 -62.5q-148 0 -220.5 77.5
t-47.5 210.5q21 115 110.5 177.5t248.5 62.5h352l18 98q23 132 -25.5 199t-185.5 67q-115 0 -190.5 -56t-122.5 -171l-98 33q121 291 413 291q186 0 266.5 -97.5t49.5 -271.5l-107 -600q-136 -26 -203 -62t-77 -90q-7 -44 24.5 -65t100.5 -21q30 0 114 15z" />
    <glyph glyph-name="aring.alt" horiz-adv-x="997" 
d="M504 1296q-12 -68 19.5 -104.5t97.5 -36.5q61 0 102 35t51 100q12 68 -19.5 105t-97.5 37q-61 0 -102 -35.5t-51 -100.5zM858 1278q-17 -95 -83 -149t-163 -54q-105 0 -158 65.5t-34 168.5q17 95 82 148.5t162 53.5q105 0 158 -65.5t36 -167.5zM346 76q154 0 259 75
t126 193l14 78h-335q-115 0 -178 -38.5t-78 -123.5q-12 -79 33 -131.5t159 -52.5zM676 0l39 225h-15q-56 -120 -155.5 -182.5t-227.5 -62.5q-148 0 -220.5 77.5t-47.5 210.5q21 115 110.5 177.5t248.5 62.5h352l18 98q23 132 -25.5 199t-185.5 67q-115 0 -190.5 -56
t-122.5 -171l-98 33q121 291 413 291q186 0 266.5 -97.5t49.5 -271.5l-107 -600h-102z" />
    <glyph glyph-name="aringacute.alt" horiz-adv-x="997" 
d="M541 1524l-9 63l517 180l16 -110zM563 1257q-10 -60 16.5 -93.5t82.5 -33.5q54 0 90.5 31.5t46.5 89.5q10 60 -17 92.5t-84 32.5q-54 0 -90 -31t-45 -88zM883 1245q-15 -86 -78.5 -138t-155.5 -52q-95 0 -141 56.5t-29 150.5q15 88 77.5 140t154.5 52q93 0 140 -57.5
t32 -151.5zM346 76q154 0 259 75t126 193l14 78h-335q-115 0 -178 -38.5t-78 -123.5q-12 -79 33 -131.5t159 -52.5zM676 0l39 225h-15q-56 -120 -155.5 -182.5t-227.5 -62.5q-148 0 -220.5 77.5t-47.5 210.5q21 115 110.5 177.5t248.5 62.5h352l18 98q23 132 -25.5 199
t-185.5 67q-115 0 -190.5 -56t-122.5 -171l-98 33q121 291 413 291q186 0 266.5 -97.5t49.5 -271.5l-107 -600h-102z" />
    <glyph glyph-name="atilde.alt" horiz-adv-x="997" 
d="M506 1417q40 0 71.5 -16t49 -40.5t34.5 -53t30 -53t34 -40.5t47 -16q46 0 71.5 50t43.5 163h71q-2 -35 -10 -92q-18 -104 -66.5 -158.5t-113.5 -54.5q-45 0 -78 23t-52.5 55t-37 64.5t-42 55.5t-56.5 23q-50 0 -75.5 -47t-43.5 -160h-72q3 58 8 88q18 103 67 156t120 53z
M346 76q154 0 259 75t126 193l14 78h-335q-115 0 -178 -38.5t-78 -123.5q-12 -79 33 -131.5t159 -52.5zM676 0l39 225h-15q-56 -120 -155.5 -182.5t-227.5 -62.5q-148 0 -220.5 77.5t-47.5 210.5q21 115 110.5 177.5t248.5 62.5h352l18 98q23 132 -25.5 199t-185.5 67
q-115 0 -190.5 -56t-122.5 -171l-98 33q121 291 413 291q186 0 266.5 -97.5t49.5 -271.5l-107 -600h-102z" />
    <glyph glyph-name="G.alt" horiz-adv-x="1280" 
d="M1210 514q-21 -115 -67 -209.5t-119.5 -168.5t-183 -115t-246.5 -41q-287 0 -419 175.5t-75 493.5q47 276 215.5 438t438.5 162q239 0 360.5 -119.5t134.5 -332.5l-108 -17q-17 191 -110.5 279t-280.5 88q-232 0 -364.5 -135.5t-174.5 -378.5q-47 -258 49 -404.5
t342 -146.5q423 0 498 422h-436l16 102h547z" />
    <glyph glyph-name="Gbreve.alt" horiz-adv-x="1280" 
d="M1210 514q-21 -115 -67 -209.5t-119.5 -168.5t-183 -115t-246.5 -41q-287 0 -419 175.5t-75 493.5q47 276 215.5 438t438.5 162q239 0 360.5 -119.5t134.5 -332.5l-108 -17q-17 191 -110.5 279t-280.5 88q-232 0 -364.5 -135.5t-174.5 -378.5q-47 -258 49 -404.5
t342 -146.5q423 0 498 422h-436l16 102h547zM813 1434q193 0 236 180h75q-23 -137 -103.5 -205t-209.5 -68q-130 0 -196 69.5t-44 203.5h76q-18 -180 166 -180z" />
    <glyph glyph-name="Gcircumflex.alt" horiz-adv-x="1280" 
d="M1210 514q-21 -115 -67 -209.5t-119.5 -168.5t-183 -115t-246.5 -41q-287 0 -419 175.5t-75 493.5q47 276 215.5 438t438.5 162q239 0 360.5 -119.5t134.5 -332.5l-108 -17q-17 191 -110.5 279t-280.5 88q-232 0 -364.5 -135.5t-174.5 -378.5q-47 -258 49 -404.5
t342 -146.5q423 0 498 422h-436l16 102h547zM1049 1335l-211 183l-281 -183l-37 54l301 227h58l219 -227z" />
    <glyph glyph-name="Gcommaaccent.alt" horiz-adv-x="1280" 
d="M1210 514q-21 -115 -67 -209.5t-119.5 -168.5t-183 -115t-246.5 -41q-287 0 -419 175.5t-75 493.5q47 276 215.5 438t438.5 162q239 0 360.5 -119.5t134.5 -332.5l-108 -17q-17 191 -110.5 279t-280.5 88q-232 0 -364.5 -135.5t-174.5 -378.5q-47 -258 49 -404.5
t342 -146.5q423 0 498 422h-436l16 102h547zM528 -119h107l-176 -307h-78l4 18z" />
    <glyph glyph-name="Gdotaccent.alt" horiz-adv-x="1280" 
d="M1210 514q-21 -115 -67 -209.5t-119.5 -168.5t-183 -115t-246.5 -41q-287 0 -419 175.5t-75 493.5q47 276 215.5 438t438.5 162q239 0 360.5 -119.5t134.5 -332.5l-108 -17q-17 191 -110.5 279t-280.5 88q-232 0 -364.5 -135.5t-174.5 -378.5q-47 -258 49 -404.5
t342 -146.5q423 0 498 422h-436l16 102h547zM735 1567h158l-29 -154h-157z" />
    <glyph glyph-name="g.sc.alt" horiz-adv-x="1198" 
d="M1108 444q-18 -101 -58.5 -182t-107.5 -146t-169 -100.5t-232 -35.5q-260 0 -384 157.5t-73 437.5q41 236 195 375.5t401 139.5q221 0 337 -106t122 -292l-111 -16q-10 162 -97 236.5t-255 74.5q-206 0 -326 -111.5t-155 -308.5q-40 -230 47 -357.5t309 -127.5
q386 0 450 356h-387l17 92h491z" />
    <glyph glyph-name="gbreve.sc.alt" horiz-adv-x="1198" 
d="M1108 444q-18 -101 -58.5 -182t-107.5 -146t-169 -100.5t-232 -35.5q-260 0 -384 157.5t-73 437.5q41 236 195 375.5t401 139.5q221 0 337 -106t122 -292l-111 -16q-10 162 -97 236.5t-255 74.5q-206 0 -326 -111.5t-155 -308.5q-40 -230 47 -357.5t309 -127.5
q386 0 450 356h-387l17 92h491zM723 1317q89 0 149 48.5t86 162.5h76q-26 -151 -106.5 -225t-206.5 -74q-132 0 -198.5 76.5t-41.5 222.5h78q-14 -112 32 -161.5t132 -49.5z" />
    <glyph glyph-name="gcircumflex.sc.alt" horiz-adv-x="1198" 
d="M1108 444q-18 -101 -58.5 -182t-107.5 -146t-169 -100.5t-232 -35.5q-260 0 -384 157.5t-73 437.5q41 236 195 375.5t401 139.5q221 0 337 -106t122 -292l-111 -16q-10 162 -97 236.5t-255 74.5q-206 0 -326 -111.5t-155 -308.5q-40 -230 47 -357.5t309 -127.5
q386 0 450 356h-387l17 92h491zM948 1208l-203 228l-282 -228l-45 49l311 279h57l211 -279z" />
    <glyph glyph-name="gcommaaccent.sc.alt" horiz-adv-x="1198" 
d="M1108 444q-18 -101 -58.5 -182t-107.5 -146t-169 -100.5t-232 -35.5q-260 0 -384 157.5t-73 437.5q41 236 195 375.5t401 139.5q221 0 337 -106t122 -292l-111 -16q-10 162 -97 236.5t-255 74.5q-206 0 -326 -111.5t-155 -308.5q-40 -230 47 -357.5t309 -127.5
q386 0 450 356h-387l17 92h491zM477 -119h107l-176 -307h-78l4 18z" />
    <glyph glyph-name="gdotaccent.sc.alt" horiz-adv-x="1198" 
d="M1108 444q-18 -101 -58.5 -182t-107.5 -146t-169 -100.5t-232 -35.5q-260 0 -384 157.5t-73 437.5q41 236 195 375.5t401 139.5q221 0 337 -106t122 -292l-111 -16q-10 162 -97 236.5t-255 74.5q-206 0 -326 -111.5t-155 -308.5q-40 -230 47 -357.5t309 -127.5
q386 0 450 356h-387l17 92h491zM659 1448h158l-29 -154h-157z" />
    <glyph glyph-name="g.alt" horiz-adv-x="1013" 
d="M535 852q-264 0 -306 -219q-20 -108 38.5 -172t203.5 -64q140 0 217.5 55.5t97.5 168.5q19 108 -46 169.5t-205 61.5zM369 -246q146 0 231.5 19.5t119.5 53t44 89.5t-27.5 91.5t-126.5 35.5h-352q-99 0 -157 -44t-68 -101q-9 -52 17.5 -82.5t103 -46t215.5 -15.5z
M862 -98q-22 -129 -135 -184.5t-373 -55.5q-129 0 -218 16t-135.5 46.5t-63 70t-7.5 90.5q20 119 236 160v8q-41 12 -62.5 40.5t-13.5 74.5q10 56 103 111l88 57q-94 38 -132.5 119t-19.5 190q27 153 141 228t291 75h459l-19 -96h-118q-45 0 -203 14l-4 -16
q245 -53 207 -260q-53 -285 -424 -285q-98 0 -168 27l-51 -62q-19 -20 -25 -27t-14 -20t-11 -26q-6 -33 20 -48.5t79 -15.5q55 0 168 1t166 1q132 0 194.5 -63.5t44.5 -169.5z" />
    <glyph glyph-name="gbreve.alt" horiz-adv-x="1013" 
d="M623 1184q89 0 149 48.5t86 162.5h76q-26 -151 -106.5 -225t-206.5 -74q-132 0 -198.5 76.5t-41.5 222.5h78q-14 -112 32 -161.5t132 -49.5zM535 852q-264 0 -306 -219q-20 -108 38.5 -172t203.5 -64q140 0 217.5 55.5t97.5 168.5q19 108 -46 169.5t-205 61.5zM369 -246
q146 0 231.5 19.5t119.5 53t44 89.5t-27.5 91.5t-126.5 35.5h-352q-99 0 -157 -44t-68 -101q-9 -52 17.5 -82.5t103 -46t215.5 -15.5zM862 -98q-22 -129 -135 -184.5t-373 -55.5q-129 0 -218 16t-135.5 46.5t-63 70t-7.5 90.5q20 119 236 160v8q-41 12 -62.5 40.5
t-13.5 74.5q10 56 103 111l88 57q-94 38 -132.5 119t-19.5 190q27 153 141 228t291 75h459l-19 -96h-118q-45 0 -203 14l-4 -16q245 -53 207 -260q-53 -285 -424 -285q-98 0 -168 27l-51 -62q-19 -20 -25 -27t-14 -20t-11 -26q-6 -33 20 -48.5t79 -15.5q55 0 168 1t166 1
q132 0 194.5 -63.5t44.5 -169.5z" />
    <glyph glyph-name="gcircumflex.alt" horiz-adv-x="1013" 
d="M852 1075l-203 228l-282 -228l-45 49l311 279h57l211 -279zM535 852q-264 0 -306 -219q-20 -108 38.5 -172t203.5 -64q140 0 217.5 55.5t97.5 168.5q19 108 -46 169.5t-205 61.5zM369 -246q146 0 231.5 19.5t119.5 53t44 89.5t-27.5 91.5t-126.5 35.5h-352
q-99 0 -157 -44t-68 -101q-9 -52 17.5 -82.5t103 -46t215.5 -15.5zM862 -98q-22 -129 -135 -184.5t-373 -55.5q-129 0 -218 16t-135.5 46.5t-63 70t-7.5 90.5q20 119 236 160v8q-41 12 -62.5 40.5t-13.5 74.5q10 56 103 111l88 57q-94 38 -132.5 119t-19.5 190
q27 153 141 228t291 75h459l-19 -96h-118q-45 0 -203 14l-4 -16q245 -53 207 -260q-53 -285 -424 -285q-98 0 -168 27l-51 -62q-19 -20 -25 -27t-14 -20t-11 -26q-6 -33 20 -48.5t79 -15.5q55 0 168 1t166 1q132 0 194.5 -63.5t44.5 -169.5z" />
    <glyph glyph-name="gcommaaccent.alt" horiz-adv-x="1013" 
d="M631 1092h-105l176 305h76l-2 -19zM535 852q-264 0 -306 -219q-20 -108 38.5 -172t203.5 -64q140 0 217.5 55.5t97.5 168.5q19 108 -46 169.5t-205 61.5zM369 -246q146 0 231.5 19.5t119.5 53t44 89.5t-27.5 91.5t-126.5 35.5h-352q-99 0 -157 -44t-68 -101
q-9 -52 17.5 -82.5t103 -46t215.5 -15.5zM862 -98q-22 -129 -135 -184.5t-373 -55.5q-129 0 -218 16t-135.5 46.5t-63 70t-7.5 90.5q20 119 236 160v8q-41 12 -62.5 40.5t-13.5 74.5q10 56 103 111l88 57q-94 38 -132.5 119t-19.5 190q27 153 141 228t291 75h459l-19 -96
h-118q-45 0 -203 14l-4 -16q245 -53 207 -260q-53 -285 -424 -285q-98 0 -168 27l-51 -62q-19 -20 -25 -27t-14 -20t-11 -26q-6 -33 20 -48.5t79 -15.5q55 0 168 1t166 1q132 0 194.5 -63.5t44.5 -169.5z" />
    <glyph glyph-name="gdotaccent.alt" horiz-adv-x="1013" 
d="M565 1315h158l-29 -154h-157zM535 852q-264 0 -306 -219q-20 -108 38.5 -172t203.5 -64q140 0 217.5 55.5t97.5 168.5q19 108 -46 169.5t-205 61.5zM369 -246q146 0 231.5 19.5t119.5 53t44 89.5t-27.5 91.5t-126.5 35.5h-352q-99 0 -157 -44t-68 -101q-9 -52 17.5 -82.5
t103 -46t215.5 -15.5zM862 -98q-22 -129 -135 -184.5t-373 -55.5q-129 0 -218 16t-135.5 46.5t-63 70t-7.5 90.5q20 119 236 160v8q-41 12 -62.5 40.5t-13.5 74.5q10 56 103 111l88 57q-94 38 -132.5 119t-19.5 190q27 153 141 228t291 75h459l-19 -96h-118q-45 0 -203 14
l-4 -16q245 -53 207 -260q-53 -285 -424 -285q-98 0 -168 27l-51 -62q-19 -20 -25 -27t-14 -20t-11 -26q-6 -33 20 -48.5t79 -15.5q55 0 168 1t166 1q132 0 194.5 -63.5t44.5 -169.5z" />
    <glyph glyph-name="t.alt" horiz-adv-x="612" 
d="M233 0h-108l149 850h-163l16 98h166l49 281h109l-50 -281h250l-16 -98h-252z" />
    <glyph glyph-name="tbar.alt" horiz-adv-x="612" 
d="M233 0h-108l78 436h-144l17 88h141l57 326h-163l16 98h166l49 281h109l-50 -281h250l-16 -98h-252l-57 -326h219l-17 -88h-217z" />
    <glyph glyph-name="tcaron.alt" horiz-adv-x="616" 
d="M645 1376h103l-97 -332h-69zM233 0h-108l149 850h-163l16 98h166l49 281h109l-50 -281h250l-16 -98h-252z" />
    <glyph glyph-name="tcommaaccent.alt" horiz-adv-x="612" 
d="M233 0h-43l-65 -111q56 17 96 17q66 0 103 -30t26 -93q-9 -51 -58.5 -89t-137.5 -38q-118 0 -203 59l49 68q68 -53 160 -53q96 0 110 61q6 32 -16 50t-68 18q-29 0 -92 -15l-47 25l80 143l147 838h-163l16 98h166l49 281h109l-50 -281h250l-16 -98h-252z" />
    <glyph glyph-name="uni021B.alt" horiz-adv-x="612" 
d="M233 0h-108l149 850h-163l16 98h166l49 281h109l-50 -281h250l-16 -98h-252zM131 -119h107l-177 -307h-77l4 18z" />
    </font>
</defs>
</svg>
