<?xml version="1.0" standalone="no"?>
<!DOCTYPE svg PUBLIC "-//W3C//DTD SVG 1.1//EN" "http://www.w3.org/Graphics/SVG/1.1/DTD/svg11.dtd" >
<svg xmlns="http://www.w3.org/2000/svg" xmlns:xlink="http://www.w3.org/1999/xlink" version="1.1">
<metadata>
Created by FontForge 20170731 at Tue Mar  1 01:18:52 2022
 By Aleksey,,,
(c) Copyright OH no Type Company, LLC. 2020. All rights reserved.
</metadata>
<defs>
<font id="Degular-BlackItalic" horiz-adv-x="1091" >
  <font-face 
    font-family="Degular Black Italic"
    font-weight="800"
    font-style="italic"
    font-stretch="normal"
    units-per-em="2048"
    panose-1="4 4 8 6 6 3 3 11 3 5"
    ascent="1372"
    descent="-676"
    x-height="979"
    cap-height="1229"
    bbox="-780 -461 2636 1985"
    underline-thickness="102"
    underline-position="-675"
    unicode-range="U+0020-FB02"
  />
<missing-glyph horiz-adv-x="1751" 
d="M743 162q50 0 86.5 5.5t79 17t68.5 16.5q0 28 5 55.5t11 49t20 46t22.5 39.5t28.5 36.5t28.5 31t32 29t29 24t29.5 23t25 18.5l17 -21q-23 -96 -43 -188q155 115 155 367q0 225 -113 341.5t-335 116.5q-144 0 -250 -63.5t-145 -169.5q85 -18 126.5 -81t41.5 -146
q0 -97 -55.5 -156t-133.5 -74q2 -67 4 -156.5t2 -103.5q24 -26 106.5 -41.5t157.5 -15.5zM745 -68q-295 0 -442 129q-11 299 21 435q-56 27 -88.5 81.5t-32.5 127.5q0 69 33.5 124.5t91.5 83.5q-15 139 56 251t209.5 174.5t317.5 62.5q313 0 474 -157.5t161 -446.5
q0 -113 -22.5 -212t-69 -184.5t-124.5 -150t-183 -98.5q-17 -97 -17 -134q-138 -86 -385 -86zM942 944q112 0 173 -67.5t61 -161.5q0 -110 -76.5 -185t-175.5 -75q-100 0 -166 65.5t-66 179.5q0 63 25.5 116.5t84 90.5t140.5 37z" />
    <glyph glyph-name=".notdef" horiz-adv-x="1751" 
d="M743 162q50 0 86.5 5.5t79 17t68.5 16.5q0 28 5 55.5t11 49t20 46t22.5 39.5t28.5 36.5t28.5 31t32 29t29 24t29.5 23t25 18.5l17 -21q-23 -96 -43 -188q155 115 155 367q0 225 -113 341.5t-335 116.5q-144 0 -250 -63.5t-145 -169.5q85 -18 126.5 -81t41.5 -146
q0 -97 -55.5 -156t-133.5 -74q2 -67 4 -156.5t2 -103.5q24 -26 106.5 -41.5t157.5 -15.5zM745 -68q-295 0 -442 129q-11 299 21 435q-56 27 -88.5 81.5t-32.5 127.5q0 69 33.5 124.5t91.5 83.5q-15 139 56 251t209.5 174.5t317.5 62.5q313 0 474 -157.5t161 -446.5
q0 -113 -22.5 -212t-69 -184.5t-124.5 -150t-183 -98.5q-17 -97 -17 -134q-138 -86 -385 -86zM942 944q112 0 173 -67.5t61 -161.5q0 -110 -76.5 -185t-175.5 -75q-100 0 -166 65.5t-66 179.5q0 63 25.5 116.5t84 90.5t140.5 37z" />
    <glyph glyph-name=".null" horiz-adv-x="0" 
 />
    <glyph glyph-name="nonmarkingreturn" horiz-adv-x="682" 
 />
    <glyph glyph-name="space" unicode=" " horiz-adv-x="358" 
 />
    <glyph glyph-name="exclam" unicode="!" horiz-adv-x="524" 
d="M432 467h-348l135 762h348zM59 344h357l-62 -344h-356z" />
    <glyph glyph-name="quotedbl" unicode="&#x22;" horiz-adv-x="821" 
d="M162 1229h356l-139 -570h-270zM565 1229h357l-140 -570h-270z" />
    <glyph glyph-name="numbersign" unicode="#" horiz-adv-x="1392" 
d="M987 0h-274l32 203h-204l-35 -205h-275l35 205h-246l54 307h245l33 188h-246l54 308h243l39 223h285l-43 -223h199l39 223h286l-41 -223h242l-53 -308h-244l-33 -188h244l-53 -307h-246zM557 481h266l43 248h-264z" />
    <glyph glyph-name="dollar" unicode="$" horiz-adv-x="1175" 
d="M616 1446h289l-55 -215q176 -26 254 -111.5t90 -216.5l-381 -69q-5 75 -41.5 110t-120.5 35q-136 0 -147 -76q-7 -19 -0.5 -38.5t24.5 -36t66.5 -33t126.5 -29.5q91 -17 161 -43t115 -58.5t75 -72t41 -83t13 -91t-8 -96.5q-30 -157 -148 -239.5t-341 -92.5l-23 -244h-289
l66 252q-82 12 -145.5 37t-104 57.5t-67 75.5t-38 86t-14.5 94l363 76q22 -164 217 -164q141 0 156 72q5 36 -10 59.5t-70 45t-160 38.5q-231 35 -315.5 145.5t-53.5 290.5q53 296 457 326z" />
    <glyph glyph-name="percent" unicode="%" horiz-adv-x="1589" 
d="M440 516q-181 0 -270 111.5t-55 298.5q27 156 133 240.5t268 84.5q182 0 273 -111.5t59 -295.5q-29 -158 -137 -243t-271 -85zM459 737q49 0 83.5 33.5t45.5 103.5q13 76 -13.5 116t-76.5 40q-102 0 -127 -135q-13 -77 11.5 -117.5t76.5 -40.5zM1128 -20
q-180 0 -269.5 112t-55.5 299q28 156 134 241t267 85q182 0 273 -112t59 -298q-29 -157 -137 -242t-271 -85zM1147 201q48 0 83 34t46 103q13 78 -13 118t-77 40q-102 0 -127 -136q-13 -77 12 -118t76 -41zM1174 1229h499l-2 -12l-770 -549l-37 26zM473 2h-500l2 12l768 549
l39 -26z" />
    <glyph glyph-name="ampersand" unicode="&#x26;" horiz-adv-x="1452" 
d="M641 913q-12 -69 12 -147q89 30 134 64t55 88q8 44 -14 73t-72 29q-97 0 -115 -107zM1372 336l-45 -338q-59 -12 -166 -12q-213 0 -407 137q-143 -143 -392 -143q-191 0 -294 102.5t-72 282.5q12 65 42.5 115.5t80.5 87t104 62t131 50.5q-47 145 -28 264q15 86 59 149.5
t106.5 97.5t130 50t142.5 16q215 0 309.5 -86.5t69.5 -226.5q-11 -60 -43.5 -107.5t-73.5 -77t-101 -52t-109 -33.5t-114 -21q79 -136 218 -225q156 175 241 389l299 -45q-103 -260 -350 -426q72 -16 139 -16q53 0 123 6zM500 231q61 0 110 17q-138 144 -221 334
q-60 -60 -76 -150q-17 -88 26 -144.5t161 -56.5z" />
    <glyph glyph-name="quotesingle" unicode="'" horiz-adv-x="417" 
d="M162 1229h356l-139 -570h-270z" />
    <glyph glyph-name="parenleft" unicode="(" horiz-adv-x="729" 
d="M430 520q-42 -215 -17.5 -413.5t130.5 -397.5l-244 -166q-85 104 -140 232t-77.5 261.5t-21.5 266t24 264.5q22 128 62 244.5t104 236t161 234.5t224 219l201 -184q-185 -188 -274.5 -375t-131.5 -422z" />
    <glyph glyph-name="parenright" unicode=")" horiz-adv-x="729" 
d="M299 520q42 215 17.5 413.5t-130.5 397.5l244 166q86 -104 141.5 -232t77.5 -261.5t21 -266t-25 -264.5q-95 -561 -551 -934l-200 185q186 187 274.5 373t130.5 423z" />
    <glyph glyph-name="asterisk" unicode="*" horiz-adv-x="1095" 
d="M518 1372h369l-187 -373h-127zM111 883l143 329l301 -227l-61 -123zM412 397l-273 221l361 226l90 -76zM997 598l-301 -195l-84 367l113 74zM1073 1206l60 -336l-398 -6l-18 123z" />
    <glyph glyph-name="plus" unicode="+" horiz-adv-x="1036" 
d="M283 143l57 322h-303l55 313h303l58 320h348l-58 -320h304l-56 -313h-303l-57 -322h-348z" />
    <glyph glyph-name="comma" unicode="," horiz-adv-x="434" 
d="M37 344h350l-328 -604h-254l2 12z" />
    <glyph glyph-name="hyphen" unicode="-" horiz-adv-x="716" 
d="M61 662h656l-55 -318h-656z" />
    <glyph glyph-name="period" unicode="." horiz-adv-x="417" 
d="M6 344h356l-61 -344h-356z" />
    <glyph glyph-name="slash" unicode="/" horiz-adv-x="688" 
d="M231 -309h-376l630 1624h369z" />
    <glyph glyph-name="zero" unicode="0" horiz-adv-x="1228" 
d="M686 942q-102 0 -162 -75.5t-88 -233.5q-31 -171 7.5 -260.5t146.5 -89.5q193 0 250 325q61 334 -154 334zM715 1260q132 0 234 -42.5t170 -128.5t89 -216.5t-8 -307.5q-53 -295 -221.5 -445.5t-421.5 -150.5q-275 0 -407.5 179t-71.5 520q51 292 222 442t415 150z" />
    <glyph glyph-name="one" unicode="1" horiz-adv-x="950" 
d="M817 0h-833l53 307h274l103 582q-81 -43 -234 -94l-76 288l512 146h205l-162 -922h211z" />
    <glyph glyph-name="two" unicode="2" horiz-adv-x="1200" 
d="M700 961q-93 0 -147 -55t-82 -173l-338 53q55 230 196.5 350.5t397.5 120.5q263 0 384 -116.5t79 -352.5q-52 -296 -578 -380q-144 -24 -204.5 -48.5t-81.5 -72.5q200 22 317 22h465l-55 -309h-1090q10 94 23 174q36 206 148 308t339 153q158 37 234.5 65.5t101.5 54
t33 70.5q11 62 -25 99t-117 37z" />
    <glyph glyph-name="three" unicode="3" horiz-adv-x="1177" 
d="M559 -20q-277 0 -401 92t-127 297l352 39q2 -37 8 -60t24 -44.5t55 -31.5t95 -10q161 0 180 111q11 61 -18.5 88.5t-114.5 27.5h-206l43 244h208q73 0 107 22.5t43 80.5q12 66 -21 96.5t-116 30.5q-94 0 -133 -37t-62 -119l-332 43q91 399 562 399q262 0 371.5 -95
t76.5 -284q-20 -104 -105.5 -161.5t-238.5 -81.5l-4 -25q190 -18 255 -85.5t40 -203.5q-28 -156 -160 -244.5t-381 -88.5z" />
    <glyph glyph-name="four" unicode="4" horiz-adv-x="1200" 
d="M1122 258h-135l-45 -258h-348l45 258h-647l43 246l665 725h457l-121 -690h135zM360 516q167 20 328 23l76 428l-19 6l-393 -441z" />
    <glyph glyph-name="five" unicode="5" horiz-adv-x="1177" 
d="M561 260q91 0 131.5 29t50.5 84q11 69 -24 108t-133 39q-106 0 -213 -63l-262 106l118 666h957l-60 -332q-309 0 -632 29l-41 -224q121 62 274 62q111 0 192 -33t122.5 -90t57 -134t-2.5 -165q-33 -186 -171.5 -274t-381.5 -88q-232 0 -365 86.5t-160 242.5l344 78
q7 -27 18.5 -47t33 -39.5t59 -30t88.5 -10.5z" />
    <glyph glyph-name="six" unicode="6" horiz-adv-x="1206" 
d="M616 532q-179 0 -200 -120q-10 -65 29 -104.5t139 -39.5q99 0 141 34.5t51 90.5q12 64 -21 101.5t-139 37.5zM1124 352q-33 -184 -170 -281.5t-372 -97.5q-95 0 -171 14.5t-141.5 48t-108 87t-69.5 132t-26 183.5t22 240q17 96 50.5 180.5t87 158t123.5 126t164 82.5
t204 30q130 0 222.5 -28.5t145.5 -83t76.5 -125t22.5 -164.5l-357 -37q-5 70 -34.5 105.5t-102.5 35.5q-121 0 -181 -97t-101 -335l24 -4q62 118 153 165.5t214 47.5q85 0 150 -20.5t113 -66t62.5 -118.5t-0.5 -178z" />
    <glyph glyph-name="seven" unicode="7" horiz-adv-x="1077" 
d="M90 903l57 326h1027l-58 -326q-206 -183 -331.5 -404.5t-182.5 -498.5h-426q116 558 649 924q-179 -21 -333 -21h-402z" />
    <glyph glyph-name="eight" unicode="8" horiz-adv-x="1193" 
d="M541 -27q-152 0 -260 29t-165.5 81.5t-78 120t-6.5 150.5q17 107 104 168t252 88l4 27q-124 33 -178 107.5t-33 201.5q27 154 155 231.5t376 77.5q269 0 378 -97t76 -288q-20 -100 -96 -155.5t-213 -81.5l-6 -25q154 -31 217.5 -106.5t40.5 -206.5q-28 -150 -168 -236
t-399 -86zM594 496q-99 0 -143.5 -26.5t-53.5 -82.5q-11 -60 30 -92.5t134 -32.5q178 0 197 111q11 64 -24.5 93.5t-139.5 29.5zM680 963q-83 0 -124.5 -26t-51.5 -85q-12 -67 20 -96t115 -29t125 26t51 87q12 65 -20.5 94t-114.5 29z" />
    <glyph glyph-name="nine" unicode="9" horiz-adv-x="1187" 
d="M631 666q85 0 132 35t58 96q13 73 -29 118.5t-141 45.5q-163 0 -186 -130q-13 -71 28 -118t138 -47zM518 -27q-108 0 -190.5 17.5t-136 47t-88.5 74.5t-51.5 94.5t-22.5 112.5l340 74q11 -63 50.5 -92t125.5 -29q122 0 183.5 91t102.5 315l-26 4q-118 -219 -365 -219
q-175 0 -266 106t-57 297q32 189 175 289t386 100q110 0 195.5 -22.5t154 -72.5t104.5 -131.5t46.5 -199.5t-19.5 -276q-21 -122 -68.5 -223.5t-123.5 -183t-191 -127.5t-258 -46z" />
    <glyph glyph-name="colon" unicode=":" horiz-adv-x="464" 
d="M143 985h357l-62 -344h-356zM31 344h356l-61 -344h-357z" />
    <glyph glyph-name="semicolon" unicode=";" horiz-adv-x="499" 
d="M78 344h350l-328 -604h-254l2 12zM143 985h357l-62 -344h-356z" />
    <glyph glyph-name="less" unicode="&#x3c;" horiz-adv-x="1044" 
d="M879 8l-854 334l65 365l971 340l-68 -385l-483 -84q-122 -21 -250 -41l-4 -31q80 -12 236 -37l454 -78z" />
    <glyph glyph-name="equal" unicode="=" horiz-adv-x="1077" 
d="M938 279h-872l47 272h872zM1010 688h-873l49 273h873z" />
    <glyph glyph-name="greater" unicode="&#x3e;" horiz-adv-x="1044" 
d="M-47 8l67 385l484 86q36 5 122 19t128 20l4 31q-48 7 -133.5 21.5t-102.5 17.5l-454 76l67 383l854 -334l-65 -365z" />
    <glyph glyph-name="question" unicode="?" horiz-adv-x="1019" 
d="M754 555q-75 -26 -88 -84q0 -9 -4 -25h-330q5 39 8 50q15 93 65 148t158 101q76 31 107 53.5t39 63.5q9 48 -19.5 73.5t-85.5 25.5q-81 0 -123.5 -50.5t-72.5 -150.5l-330 63q63 213 195 322.5t364 109.5q242 0 354 -101.5t80 -291.5q-10 -56 -32 -101t-48.5 -75
t-67.5 -55.5t-78 -41.5t-91 -34zM299 344h356l-61 -344h-356z" />
    <glyph glyph-name="at" unicode="@" horiz-adv-x="1734" 
d="M819 -229q-381 0 -574.5 158t-193.5 501q0 192 65 361.5t184.5 298t303.5 203.5t408 75q154 0 276.5 -33.5t203.5 -91t134.5 -139t76.5 -173t23 -196.5q0 -126 -25.5 -228.5t-68.5 -172t-102 -116.5t-125 -68t-139 -21q-153 0 -218 63t-63 175q0 13 4 41h-20
q-60 -140 -129 -209.5t-162 -69.5q-103 0 -160 70.5t-57 214.5q0 150 45 278.5t131.5 208.5t196.5 80q95 0 137 -62.5t47 -191.5h16l39 225h281l-88 -499q-6 -45 7.5 -65.5t47.5 -20.5q53 0 93 85t40 259q0 70 -14 126.5t-49 108t-90 86.5t-142 55.5t-201 20.5
q-142 0 -258.5 -53t-193 -144.5t-117.5 -213.5t-41 -261q0 -221 121 -320.5t365 -99.5q101 0 222.5 22t198.5 56h13l-29 -246q-180 -77 -420 -77zM1006 582q17 74 -8 117.5t-78 43.5q-50 0 -87.5 -41t-55.5 -102t-19 -131q-3 -102 76 -102q57 0 103.5 60t63.5 132z" />
    <glyph glyph-name="A" unicode="A" horiz-adv-x="1249" 
d="M811 0l-20 223h-410l-102 -223h-394l615 1229h512l180 -1229h-381zM569 639l-69 -152h266l-14 152q-12 135 -21 274h-41q-39 -90 -121 -274z" />
    <glyph glyph-name="B" unicode="B" horiz-adv-x="1204" 
d="M684 481h-231l-39 -215h239q113 0 133 103q11 59 -10.5 85.5t-91.5 26.5zM729 954h-194l-39 -229h186q74 0 111 25t47 84q12 63 -13.5 91.5t-97.5 28.5zM-2 0l217 1229h582q236 0 334 -84.5t67 -261.5q-38 -209 -313 -260l-2 -19q171 -17 228.5 -85t29.5 -218
q-26 -141 -154 -221t-356 -80h-633z" />
    <glyph glyph-name="C" unicode="C" horiz-adv-x="1275" 
d="M610 -31q-307 0 -450 185t-86 508q51 286 231 442t451 156q261 0 389.5 -131.5t130.5 -372.5l-363 -41q2 116 -41.5 170.5t-150.5 54.5q-120 0 -190.5 -86.5t-94.5 -224.5q-62 -346 191 -346q101 0 156 55t102 182l346 -69q-132 -482 -621 -482z" />
    <glyph glyph-name="D" unicode="D" horiz-adv-x="1308" 
d="M670 928h-140l-110 -627h155q155 0 236.5 71t110.5 234q32 181 -26 251.5t-226 70.5zM4 0l205 1229h532q655 0 539 -668q-46 -260 -234.5 -410.5t-472.5 -150.5h-569z" />
    <glyph glyph-name="E" unicode="E" horiz-adv-x="1134" 
d="M-2 0l217 1229h979l-57 -318h-609l-30 -163h569l-45 -261h-569l-31 -170h610l-55 -317h-979z" />
    <glyph glyph-name="F" unicode="F" horiz-adv-x="1067" 
d="M954 336h-528l-59 -336h-369l217 1229h938l-59 -338h-570l-43 -240h529z" />
    <glyph glyph-name="G" unicode="G" horiz-adv-x="1312" 
d="M420 -23q-95 0 -170.5 42t-126.5 126t-65 210t14 294q53 294 226 451t460 157q263 0 384 -106.5t132 -304.5l-363 -49q-8 71 -47.5 107t-134.5 36q-127 0 -196.5 -80t-98.5 -242q-29 -171 14 -257.5t175 -86.5q225 0 254 168h-238l43 252h582l-121 -694h-334l45 262h-27
q-143 -285 -407 -285z" />
    <glyph glyph-name="H" unicode="H" horiz-adv-x="1314" 
d="M1145 0h-369l80 446h-410l-79 -446h-369l217 1229h369l-80 -453h409l80 453h369z" />
    <glyph glyph-name="I" unicode="I" horiz-adv-x="536" 
d="M367 0h-369l217 1229h369z" />
    <glyph glyph-name="J" unicode="J" horiz-adv-x="659" 
d="M193 403l145 826h369l-146 -826q-36 -198 -148 -308.5t-311 -110.5q-89 0 -168 14l66 313q55 -10 86 -10q43 0 71 28t36 74z" />
    <glyph glyph-name="K" unicode="K" horiz-adv-x="1210" 
d="M731 0l-227 430h-62l-75 -430h-369l217 1229h369l-90 -506h51l375 506h436l-4 -23l-547 -635l340 -548l-4 -23h-410z" />
    <glyph glyph-name="L" unicode="L" horiz-adv-x="987" 
d="M584 1229l-160 -901h496l-58 -328h-864l217 1229h369z" />
    <glyph glyph-name="M" unicode="M" horiz-adv-x="1712" 
d="M414 451l-78 -451h-338l217 1229h580l36 -410q14 -175 19 -370h27q90 245 153 385l174 395h555l-217 -1229h-368l79 451q6 36 97 481h-25q-116 -292 -240 -549l-153 -324h-332l-37 334q-29 299 -41 539h-24q-42 -253 -84 -481z" />
    <glyph glyph-name="N" unicode="N" horiz-adv-x="1347" 
d="M698 0l-106 399q-46 166 -100 508l-23 -2q-41 -392 -78 -594l-55 -311h-338l217 1229h508l90 -328q57 -202 94 -522l27 2q27 308 65 524l58 324h338l-217 -1229h-480z" />
    <glyph glyph-name="O" unicode="O" horiz-adv-x="1343" 
d="M616 -31q-311 0 -454.5 188.5t-83.5 518.5q47 275 233.5 429.5t458.5 154.5q304 0 451.5 -187.5t91.5 -515.5q-50 -278 -232.5 -433t-464.5 -155zM647 283q132 0 205 80.5t102 238.5q57 338 -213 338q-249 0 -303 -301q-65 -356 209 -356z" />
    <glyph glyph-name="P" unicode="P" horiz-adv-x="1155" 
d="M657 920h-129l-55 -316h139q96 0 143.5 33t61.5 108q28 175 -160 175zM618 305h-198l-53 -305h-369l217 1229h490q269 0 390 -134.5t79 -373.5q-33 -194 -179 -305t-377 -111z" />
    <glyph glyph-name="Q" unicode="Q" horiz-adv-x="1345" 
d="M647 283q132 0 205 80.5t102 238.5q57 338 -213 338q-249 0 -303 -301q-65 -356 209 -356zM616 -31q-311 0 -454.5 188.5t-83.5 518.5q47 275 233.5 429.5t458.5 154.5q304 0 451.5 -187.5t91.5 -515.5q-56 -312 -277 -467l129 -252l-4 -22h-393l-66 157q-58 -4 -86 -4z
" />
    <glyph glyph-name="R" unicode="R" horiz-adv-x="1230" 
d="M690 922h-160l-49 -275h181q86 0 125.5 29t50.5 94q13 82 -22.5 117t-125.5 35zM711 0l-142 379h-135l-67 -379h-369l213 1229h553q245 0 360 -123.5t74 -353.5q-41 -243 -260 -326l205 -403l-4 -23h-428z" />
    <glyph glyph-name="S" unicode="S" horiz-adv-x="1196" 
d="M551 -31q-124 0 -218.5 21t-152 54.5t-95 84.5t-53.5 102.5t-22 116.5l363 76q22 -164 221 -164q140 0 154 72q10 53 -35 84.5t-181 52.5q-126 20 -211 59.5t-127.5 96.5t-55.5 131t5 162q28 167 167.5 254.5t389.5 87.5q136 0 233 -27.5t151.5 -78.5t80 -111t31.5 -138
l-377 -69q-8 76 -43 109.5t-125 33.5q-135 0 -147 -74q-6 -21 0 -41t25 -37t66.5 -32.5t123.5 -28.5q109 -20 188 -53.5t123 -75.5t69 -94t26 -108t-7 -118q-64 -348 -567 -348z" />
    <glyph glyph-name="T" unicode="T" horiz-adv-x="1064" 
d="M96 891l60 338h1015l-59 -338h-324l-157 -891h-369l158 891h-324z" />
    <glyph glyph-name="U" unicode="U" horiz-adv-x="1300" 
d="M631 295q105 0 154 53.5t69 165.5l127 715h369l-136 -764q-42 -238 -197.5 -366t-408.5 -128q-299 0 -431 144.5t-85 414.5l123 699h369l-127 -715q-19 -106 18.5 -162.5t155.5 -56.5z" />
    <glyph glyph-name="V" unicode="V" horiz-adv-x="1239" 
d="M784 0h-501l-181 1229h385l58 -639q16 -185 20 -273h39q32 77 119 273l287 639h389z" />
    <glyph glyph-name="W" unicode="W" horiz-adv-x="1775" 
d="M823 522l-153 -522h-502l-66 1229h385l-6 -488q-4 -281 -14 -428h31q70 245 133 428l166 488h463l-11 -488q-2 -157 -24 -428h32q23 79 70.5 224t65.5 204l155 488h385l-489 -1229h-531l27 522q5 113 31 412h-27q-46 -164 -121 -412z" />
    <glyph glyph-name="X" unicode="X" horiz-adv-x="1173" 
d="M698 0l-110 449h-19l-256 -449h-403l4 23l444 616l-231 567l4 23h395l117 -432h19l239 432h404l-5 -23l-438 -618l236 -565l-4 -23h-396z" />
    <glyph glyph-name="Y" unicode="Y" horiz-adv-x="1146" 
d="M672 0h-369l66 375l-281 831l4 23h400l92 -541h32l293 541h408l-4 -23l-574 -829z" />
    <glyph glyph-name="Z" unicode="Z" horiz-adv-x="1212" 
d="M1114 336l-59 -336h-1075l57 328l692 573l-4 21q-223 -29 -330 -29h-241l59 336h1049l-58 -328l-702 -582l4 -12q208 29 301 29h307z" />
    <glyph glyph-name="bracketleft" unicode="[" horiz-adv-x="677" 
d="M-72 -389l320 1810h567l-49 -282h-219l-217 -1225h221l-55 -303h-568z" />
    <glyph glyph-name="backslash" unicode="\" horiz-adv-x="688" 
d="M203 -309l-49 1624h350l57 -1624h-358z" />
    <glyph glyph-name="bracketright" unicode="]" horiz-adv-x="677" 
d="M-133 -389l49 283h219l217 1224h-221l55 303h568l-320 -1810h-567z" />
    <glyph glyph-name="asciicircum" unicode="^" horiz-adv-x="997" 
d="M823 496l-260 282l-360 -282l-146 147l475 481h158l303 -481z" />
    <glyph glyph-name="underscore" unicode="_" horiz-adv-x="942" 
d="M-82 0h942l-49 -279h-942z" />
    <glyph glyph-name="grave" unicode="`" horiz-adv-x="692" 
d="M674 1044l-488 213l136 230l440 -281z" />
    <glyph glyph-name="a" unicode="a" 
d="M496 274q60 0 103.5 45.5t55.5 120.5v-6l4 25l11 61v-2q15 82 -16 130t-99 48q-71 0 -112 -48.5t-60 -151.5q-41 -222 113 -222zM51 522q41 237 140.5 362.5t240.5 125.5q110 0 176.5 -74t83.5 -211l17 12l43 242h348l-172 -979h-348l45 258l-9 -6l7 33
q-65 -151 -154.5 -233.5t-200.5 -82.5q-145 0 -205 144.5t-12 408.5z" />
    <glyph glyph-name="b" unicode="b" 
d="M532 274q74 0 117 50t62 153q40 219 -109 219q-64 0 -109 -47t-59 -127v2l-16 -94q-9 -72 21.5 -114t92.5 -42zM573 1315l-100 -576h16q131 271 338 271q147 0 207 -138.5t15 -392.5q-44 -248 -145.5 -379t-244.5 -131q-110 0 -174 74t-82 209h-16l-45 -252h-348
l231 1315h348z" />
    <glyph glyph-name="c" unicode="c" horiz-adv-x="1058" 
d="M702 563q-3 33 -8.5 56t-18 44.5t-36.5 32.5t-59 11q-144 0 -181 -207q-39 -230 119 -230q115 0 164 152l309 -78q-52 -181 -172 -278t-327 -97q-248 0 -368 145t-71 427q40 224 185 346.5t374 122.5q415 0 422 -389z" />
    <glyph glyph-name="d" unicode="d" 
d="M494 274q60 0 104.5 45.5t56.5 120.5v-8l4 27l11 61v-2q14 82 -16 130t-97 48q-73 0 -115 -51t-61 -158t8 -160t105 -53zM580 0l43 252h-17q-129 -283 -330 -283q-148 0 -209.5 144t-15.5 409q41 236 141 362t242 126q105 0 170.5 -70.5t85.5 -200.5h19l102 576h348
l-231 -1315h-348z" />
    <glyph glyph-name="e" unicode="e" horiz-adv-x="1048" 
d="M580 754q-73 0 -116 -43.5t-69 -149.5h303q36 193 -118 193zM473 -31q-233 0 -352.5 144t-69.5 422q40 227 183.5 351t371.5 124q161 0 261.5 -64t133.5 -169.5t9 -244.5q-3 -18 -25 -104h-612q-7 -98 26.5 -140t112.5 -42q68 0 101.5 25.5t60.5 74.5l280 -86
q-28 -64 -65 -113t-93 -91t-137.5 -64.5t-185.5 -22.5z" />
    <glyph glyph-name="f" unicode="f" horiz-adv-x="696" 
d="M582 1006l-4 -27h188l-47 -270h-189l-124 -709h-349l125 709h-119l48 270h118l7 37q28 156 133.5 247t298.5 91q99 0 172 -17l-54 -233q-46 6 -86 6q-99 0 -118 -104z" />
    <glyph glyph-name="g" unicode="g" 
d="M508 330q58 0 100.5 40.5t53.5 102.5l12 70l-2 -8q14 74 -18 117.5t-101 43.5q-134 0 -168 -182q-30 -184 123 -184zM51 530q42 238 141 359t242 121q105 0 171 -70t85 -201h19l43 240h348l-164 -930q-68 -383 -500 -383q-240 0 -352.5 72t-120.5 217l346 53
q6 -42 35.5 -61t91.5 -19q75 0 109.5 37.5t48.5 120.5l39 217h-19q-60 -112 -144.5 -180t-178.5 -68q-151 0 -216 123t-24 352z" />
    <glyph glyph-name="h" unicode="h" horiz-adv-x="1087" 
d="M436 537l-94 -537h-348l231 1315h348l-106 -600h14q147 295 363 295q124 0 175.5 -94t22.5 -263l-114 -653h-348l100 573q11 59 -11 91t-73 32q-62 0 -105 -43.5t-55 -115.5z" />
    <glyph glyph-name="i" unicode="i" horiz-adv-x="507" 
d="M532 1083h-348l41 232h348zM342 0h-348l172 979h348z" />
    <glyph glyph-name="j" unicode="j" horiz-adv-x="524" 
d="M369 55q-16 -92 -45 -159t-78.5 -119t-126.5 -78.5t-182 -26.5q-32 0 -111 9l59 294q40 -4 58 -4q63 0 73 72l166 936h348zM549 1083h-348l41 232h348z" />
    <glyph glyph-name="k" unicode="k" horiz-adv-x="1060" 
d="M573 1315l-122 -694h45l239 358h418l-4 -23l-391 -456l237 -477l-4 -23h-381l-149 373h-53l-66 -373h-348l231 1315h348z" />
    <glyph glyph-name="l" unicode="l" horiz-adv-x="507" 
d="M573 1315l-231 -1315h-348l231 1315h348z" />
    <glyph glyph-name="m" unicode="m" horiz-adv-x="1677" 
d="M436 537l-94 -537h-348l172 979h338l-47 -264h24q66 146 158.5 220.5t198.5 74.5q230 0 202 -295h25q67 147 156.5 221t195.5 74q131 0 186.5 -94t26.5 -263l-117 -653h-348l101 573q11 59 -11 91t-73 32q-62 0 -105 -43.5t-55 -115.5l-94 -537h-348l100 573
q11 59 -11 91t-73 32q-62 0 -105 -43.5t-55 -115.5z" />
    <glyph glyph-name="n" unicode="n" horiz-adv-x="1087" 
d="M436 537l-94 -537h-348l172 979h338l-47 -264h22q68 148 160 221.5t199 73.5q127 0 181 -94t25 -263l-116 -653h-348l100 573q11 59 -11 91t-73 32q-62 0 -105 -43.5t-55 -115.5z" />
    <glyph glyph-name="o" unicode="o" horiz-adv-x="1110" 
d="M498 -31q-256 0 -375 152.5t-72 419.5q38 221 188.5 345t376.5 124q253 0 372 -152t73 -420q-39 -220 -190.5 -344.5t-372.5 -124.5zM588 721q-86 0 -131.5 -53.5t-65.5 -163.5q-21 -122 9.5 -182t123.5 -60q86 0 132 52.5t65 162.5q21 122 -9.5 183t-123.5 61z" />
    <glyph glyph-name="p" unicode="p" 
d="M528 274q77 0 120.5 51t62.5 156q37 215 -107 215q-61 0 -105 -41.5t-61 -113.5l-20 -115q-6 -70 23 -111t87 -41zM1049 465q-42 -240 -146 -368t-248 -128q-108 0 -171 74t-81 209h-16l-100 -561h-348l227 1288h348l-41 -240h16q63 131 149 201t187 70q149 0 209 -142
t15 -403z" />
    <glyph glyph-name="q" unicode="q" 
d="M494 274q60 0 104.5 45.5t56.5 120.5v-6l7 37l8 49v-2q14 82 -17 130t-98 48q-71 0 -113 -51t-61 -158t8 -160t105 -53zM49 526q41 235 139.5 359.5t239.5 124.5q111 0 178 -73.5t86 -211.5l17 12l43 242h348l-228 -1288h-348l99 561h-17q-133 -283 -332 -283
q-148 0 -209.5 145.5t-15.5 411.5z" />
    <glyph glyph-name="r" unicode="r" horiz-adv-x="745" 
d="M342 0h-348l172 979h328l-62 -344h27q36 94 69.5 159.5t62 103t61.5 58.5t60.5 27t65.5 6h25l-72 -401h-65q-137 0 -185 -36t-67 -146z" />
    <glyph glyph-name="s" unicode="s" horiz-adv-x="976" 
d="M428 -31q-98 0 -172.5 16t-121.5 42t-77.5 65.5t-44.5 82t-18 95.5l319 64q12 -68 47 -97.5t99 -29.5q98 0 106 51q7 36 -25 61.5t-141 51.5q-191 46 -260 133t-43 227q51 279 465 279q109 0 186 -21.5t119.5 -63t63 -87.5t28.5 -109l-317 -63q-6 61 -30.5 86.5
t-84.5 25.5q-95 0 -104 -51q-3 -18 0.5 -30.5t18 -27.5t49 -28.5t90.5 -26.5q108 -25 179 -63t102 -84t40.5 -101.5t-4.5 -113.5q-49 -283 -469 -283z" />
    <glyph glyph-name="t" unicode="t" horiz-adv-x="751" 
d="M102 362l62 347h-101l48 270h100l43 240h348l-43 -240h223l-47 -270h-223l-57 -328q-8 -44 7.5 -64t61.5 -20q38 0 123 22l-18 -311q-52 -16 -77 -22t-66.5 -11.5t-92.5 -5.5q-73 0 -129.5 20.5t-91.5 56.5t-55.5 85.5t-22 108t7.5 122.5z" />
    <glyph glyph-name="u" unicode="u" 
d="M588 0l47 266h-23q-68 -148 -160 -222.5t-198 -74.5q-127 0 -181.5 94t-25.5 263l117 653h348l-100 -571q-11 -59 11 -92t73 -33q62 0 104.5 44.5t54.5 116.5l95 535h348l-172 -979h-338z" />
    <glyph glyph-name="v" unicode="v" horiz-adv-x="1015" 
d="M659 0h-473l-123 979h369l14 -389q10 -249 11 -277h30q3 7 109 277l154 389h376z" />
    <glyph glyph-name="w" unicode="w" horiz-adv-x="1544" 
d="M1061 979l-2 -389q-4 -212 -10 -320h28q17 55 52.5 160.5t52.5 159.5l123 389h350l-420 -979h-455l15 416q7 165 20 295h-27q-14 -48 -41.5 -147.5t-41.5 -147.5l-123 -416h-443l-76 979h349l6 -389q3 -182 -2 -320h28q56 201 97 320l133 389h387z" />
    <glyph glyph-name="x" unicode="x" horiz-adv-x="1044" 
d="M559 0l-51 354h-31l-160 -354h-403l4 23l332 495l-164 438l4 23h391l54 -348h30l160 348h383l-4 -23l-316 -493l166 -440l-4 -23h-391z" />
    <glyph glyph-name="y" unicode="y" horiz-adv-x="1017" 
d="M72 -328q-33 0 -162 11l55 284q72 -14 131 -14q65 0 100 13t62 50l-164 963h371l16 -367q4 -88 8 -272h19q40 106 98 266l137 373h383l-538 -973q-48 -87 -93.5 -145t-106 -102.5t-138 -65.5t-178.5 -21z" />
    <glyph glyph-name="z" unicode="z" horiz-adv-x="1042" 
d="M678 287h254l-51 -287h-901l53 297l565 408l-4 14q-201 -27 -287 -27h-188l49 287h881l-52 -295l-571 -414l4 -10q155 27 248 27z" />
    <glyph glyph-name="braceleft" unicode="{" horiz-adv-x="778" 
d="M586 -371q-79 -6 -207 -6q-200 0 -283 69t-61 202q9 49 33.5 93.5t54.5 78.5t59.5 67.5t53 73t30.5 80.5q8 49 -12.5 70.5t-87.5 21.5h-148l52 295h145q142 0 160 106q8 47 -3 93.5t-31.5 81.5t-40.5 80t-30 89t0 107q21 117 125.5 176t306.5 59q127 0 207 -6l-51 -286
q-37 2 -98 2q-122 0 -133 -70q-5 -28 6.5 -65.5t26 -72.5t23 -86t-0.5 -106q-19 -103 -104.5 -159.5t-249.5 -71.5l-6 -29q172 -10 233 -57t45 -142q-9 -54 -36 -106.5t-54 -86t-51 -70.5t-29 -64q-5 -34 20 -55t89 -21q24 0 98 4z" />
    <glyph glyph-name="bar" unicode="|" horiz-adv-x="516" 
d="M283 -360h-349l314 1779h348z" />
    <glyph glyph-name="braceright" unicode="}" horiz-adv-x="778" 
d="M76 -379q-128 0 -207 6l51 287q37 -2 98 -2q123 0 134 70q5 28 -6.5 65.5t-26.5 72t-23.5 85.5t0.5 106q19 103 105.5 160t249.5 72l6 28q-172 10 -233.5 57t-45.5 142q12 69 51.5 133t76.5 113t42 82q11 76 -108 76q-7 0 -99 -5l52 289q79 6 206 6q200 0 284 -68.5
t60 -201.5q-9 -49 -33 -93.5t-54 -78.5t-59.5 -67.5t-53.5 -73t-31 -80.5q-8 -48 12.5 -70t87.5 -22h148l-51 -293h-146q-142 0 -160 -107q-9 -47 2.5 -92.5t32 -84t41 -78.5t31 -91t0.5 -106q-42 -236 -434 -236z" />
    <glyph glyph-name="asciitilde" unicode="~" horiz-adv-x="1011" 
d="M707 532q-56 0 -100.5 17.5t-70.5 44t-48 57.5t-36 57.5t-32.5 44t-38.5 17.5q-50 0 -77.5 -53t-39.5 -164h-184q3 72 16 147q34 194 108.5 288.5t201.5 94.5q56 0 100.5 -17.5t70 -44t48 -57t36.5 -57t32 -44t38 -17.5q50 0 77.5 52.5t41.5 164.5h184q-6 -81 -18 -148
q-34 -194 -108 -288.5t-201 -94.5z" />
    <glyph glyph-name="uni00A0" unicode="&#xa0;" horiz-adv-x="339" 
 />
    <glyph glyph-name="exclamdown" unicode="&#xa1;" horiz-adv-x="524" 
d="M92 514h348l-135 -764h-348zM465 637h-356l61 342h356z" />
    <glyph glyph-name="cent" unicode="&#xa2;" horiz-adv-x="1058" 
d="M535 1241h288l-67 -264q269 -56 276 -356l-330 -58q-3 33 -9 56t-19 44.5t-38 32.5t-61 11q-141 0 -176 -211q-42 -226 123 -226q59 0 98 42t60 110l311 -78q-88 -309 -409 -348l-23 -250h-289l68 260q-172 40 -249.5 175.5t-39.5 348.5q35 201 153.5 315t307.5 138z" />
    <glyph glyph-name="sterling" unicode="&#xa3;" horiz-adv-x="1165" 
d="M1016 0h-1071l53 299h182q20 48 25 82q1 8 3 25.5t3 25.5h-191l46 252h118q-11 129 4 217q30 167 158.5 257.5t353.5 90.5q104 0 183 -20.5t129 -55.5t82.5 -87t46.5 -108t18 -126l-325 -57q-13 83 -44.5 119t-111.5 36q-142 0 -164 -127q-7 -54 -4 -139h469l-45 -252
h-455q-23 -69 -104 -133h694z" />
    <glyph glyph-name="yen" unicode="&#xa5;" horiz-adv-x="1255" 
d="M1139 248h-369l-43 -248h-369l43 248h-368l37 215h325l-39 112h-266l41 228h150l-138 403l4 23h400l92 -541h33l293 541h407l-4 -23l-278 -403h147l-41 -228h-264l-78 -112h322z" />
    <glyph glyph-name="brokenbar" unicode="&#xa6;" horiz-adv-x="516" 
d="M283 -360h-349l140 788h348zM457 631h-348l139 788h348z" />
    <glyph glyph-name="section" unicode="&#xa7;" horiz-adv-x="1294" 
d="M553 -375q-129 0 -227 20t-159.5 52.5t-101.5 81t-57.5 99t-23.5 112.5l352 80q9 -82 63 -130.5t181 -48.5q88 0 133.5 16t52.5 56q5 33 -10 53t-74.5 40.5t-183.5 43.5q-196 36 -306.5 92t-146.5 128t-18 174q22 139 215 229q-47 78 -25 201q28 164 159.5 250t362.5 86
q119 0 205.5 -18t139 -48.5t85 -80.5t45.5 -102.5t19 -127.5l-348 -54q-8 97 -43.5 134.5t-130.5 37.5q-140 0 -156 -81q-1 -16 -1 -31.5t16 -31t45 -30t87.5 -30t143.5 -29.5q138 -23 227.5 -59.5t131 -83.5t53.5 -107t-3 -131q-26 -140 -176 -221q53 -81 29 -215
q-30 -164 -164.5 -245t-390.5 -81zM678 360q188 -36 293 -96q12 32 16 55q7 31 2 56.5t-25 47t-66 42t-121.5 41.5t-190.5 45q-163 34 -250 86q-22 -43 -27 -70q-6 -34 3 -57.5t44.5 -50t114.5 -50.5t207 -49z" />
    <glyph glyph-name="dieresis" unicode="&#xa8;" horiz-adv-x="743" 
d="M219 1407h283l-49 -272h-281zM559 1407h283l-49 -272h-281z" />
    <glyph glyph-name="copyright" unicode="&#xa9;" horiz-adv-x="1851" 
d="M864 6q569 0 672 594q18 111 13 206t-41.5 172t-98.5 131.5t-158 84t-219 29.5q-564 0 -670 -592q-17 -110 -12.5 -205t40.5 -172.5t97 -132.5t157 -85t220 -30zM1047 1481q131 0 243 -23.5t196.5 -67t150.5 -106t106 -140t63 -169t21.5 -193.5t-19.5 -213
q-69 -395 -310 -608t-650 -213q-153 0 -279 32.5t-214.5 91.5t-152.5 142.5t-93 185.5t-35.5 220.5t18.5 247.5q70 394 309.5 603.5t645.5 209.5zM1087 680q-3 63 -25.5 96t-82.5 33t-99 -43t-57 -139q-16 -90 12 -143.5t99 -53.5q54 0 84.5 33t48.5 102l285 -47
q-32 -120 -84.5 -194t-146 -114t-232.5 -40q-205 0 -306.5 128t-62.5 347q76 426 488 426q370 0 370 -354z" />
    <glyph glyph-name="ordfeminine" unicode="&#xaa;" horiz-adv-x="841" 
d="M446 823q45 0 77.5 28.5t41.5 72.5l8 47h-92q-44 0 -71.5 -19t-32.5 -51q-7 -35 9.5 -56.5t59.5 -21.5zM532 668l27 153h-18q-41 -78 -103.5 -124t-144.5 -46q-99 0 -154.5 59t-38.5 162q28 185 297 185h191l6 41q18 90 -59 90q-68 0 -89 -84l-262 61q37 103 130 165.5
t247 62.5q192 0 270.5 -90.5t49.5 -251.5l-68 -383h-281z" />
    <glyph glyph-name="guillemotleft" unicode="&#xab;" horiz-adv-x="1341" 
d="M684 63h-336l-319 455l4 21l465 454h350l-4 -26l-443 -447l287 -428zM1257 63h-335l-320 455l4 21l465 454h350l-4 -26l-442 -447l287 -428z" />
    <glyph glyph-name="registered" unicode="&#xae;" horiz-adv-x="1851" 
d="M987 805h-110l-31 -170h115q58 0 85.5 16.5t34.5 57.5q15 96 -94 96zM991 213l-86 229h-94l-41 -229h-289l146 815h422q174 0 259 -83.5t58 -235.5q-29 -168 -182 -230l127 -243l-4 -23h-316zM864 6q569 0 672 594q18 111 13 206t-41.5 172t-98.5 131.5t-158 84
t-219 29.5q-564 0 -670 -592q-17 -110 -12.5 -205t40.5 -172.5t97 -132.5t157 -85t220 -30zM848 -252q-153 0 -279 32.5t-214.5 91.5t-152.5 142.5t-93 185.5t-35.5 220.5t18.5 247.5q70 394 309.5 603.5t645.5 209.5q131 0 243 -23.5t196.5 -67t150.5 -106t106 -140
t63 -169t21.5 -193.5t-19.5 -213q-69 -395 -310 -608t-650 -213z" />
    <glyph glyph-name="macron" unicode="&#xaf;" horiz-adv-x="636" 
d="M195 1358h553l-39 -228h-555z" />
    <glyph glyph-name="degree" unicode="&#xb0;" horiz-adv-x="745" 
d="M778 897q-25 -138 -122.5 -216.5t-239.5 -78.5q-158 0 -237.5 98.5t-51.5 255.5q25 137 120.5 215t237.5 78q159 0 240 -98t53 -254zM334 932q-10 -56 16.5 -91.5t89.5 -35.5q105 0 125 117q10 55 -16 90t-88 35q-107 0 -127 -115z" />
    <glyph glyph-name="twosuperior" unicode="&#xb2;" horiz-adv-x="761" 
d="M510 1204q-89 0 -119 -112l-225 41q70 258 362 258q165 0 242 -68.5t55 -192.5q-17 -97 -94.5 -140.5t-253.5 -69.5q-80 -12 -115 -27.5t-47 -42.5q106 16 183 16h282l-37 -211h-684q3 18 8.5 52t8.5 51q14 79 45 131.5t96.5 92t171.5 60.5q112 22 150 42.5t43 52.5
q6 32 -11 49.5t-61 17.5z" />
    <glyph glyph-name="threesuperior" unicode="&#xb3;" horiz-adv-x="735" 
d="M406 641q-170 0 -241.5 57t-76.5 172l231 35q7 -40 29 -60t78 -20q84 0 94 54q5 31 -11 46t-63 15h-94l27 150h96q42 0 60.5 11.5t23.5 37.5q5 29 -13.5 47t-62.5 18q-54 0 -78.5 -19t-37.5 -61l-215 43q79 222 354 222q160 0 234.5 -58.5t56.5 -159.5q-11 -60 -59.5 -95
t-143.5 -48l-4 -22q103 -14 140.5 -60.5t23.5 -122.5q-14 -85 -103.5 -133.5t-244.5 -48.5z" />
    <glyph glyph-name="acute" unicode="&#xb4;" horiz-adv-x="692" 
d="M227 1042l-65 166l538 273l93 -230z" />
    <glyph glyph-name="paragraph" unicode="&#xb6;" horiz-adv-x="1470" 
d="M1245 -309h-321l272 1538h322zM823 -309h-321l92 524h-51q-258 0 -380 144.5t-77 402.5q81 467 590 467h420z" />
    <glyph glyph-name="periodcentered" unicode="&#xb7;" horiz-adv-x="454" 
d="M86 672h356l-61 -344h-356z" />
    <glyph glyph-name="cedilla" unicode="&#xb8;" horiz-adv-x="464" 
d="M104 -344q-127 0 -198 55l76 96q65 -45 141 -45q60 0 67 45q5 21 -8 32t-47 11q-32 0 -72 -12l-75 31l100 186l121 -2l-78 -141q29 10 68 10q147 0 125 -127q-9 -53 -63 -96t-157 -43z" />
    <glyph glyph-name="onesuperior" unicode="&#xb9;" horiz-adv-x="598" 
d="M610 655h-540l36 207h168l52 295q-68 -38 -142 -63l-47 186l293 92h174l-90 -510h133z" />
    <glyph glyph-name="ordmasculine" unicode="&#xba;" horiz-adv-x="817" 
d="M469 657q-179 0 -267 110t-55 302q26 154 131.5 239t274.5 85q177 0 265 -108.5t56 -295.5q-29 -158 -134 -245t-271 -87zM530 1188q-61 0 -94 -38t-45 -114q-15 -87 7.5 -129.5t90.5 -42.5q61 0 93.5 37.5t44.5 114.5q15 86 -7.5 129t-89.5 43z" />
    <glyph glyph-name="guillemotright" unicode="&#xbb;" horiz-adv-x="1341" 
d="M854 63h-350l4 29l442 445l-286 430l4 26h336l319 -454l-4 -21zM281 63h-351l4 29l443 445l-287 430l4 26h336l320 -454l-5 -21z" />
    <glyph glyph-name="onequarter" unicode="&#xbc;" horiz-adv-x="1501" 
d="M373 2h-500l2 12l768 549l39 -26zM1073 1229h500l-2 -12l-770 -549l-37 26zM610 655h-540l36 207h168l52 295q-68 -38 -142 -63l-47 186l293 92h174l-90 -510h133zM848 166q89 10 190 14l43 242l-8 4l-227 -254zM1317 4h-76l-27 -147h-233l27 147h-387l26 154l387 415
h307l-69 -393h76z" />
    <glyph glyph-name="onehalf" unicode="&#xbd;" horiz-adv-x="1464" 
d="M336 2h-500l2 12l768 549l39 -26zM1036 1229h500l-2 -12l-770 -549l-37 26zM610 655h-540l36 207h168l52 295q-68 -38 -142 -63l-47 186l293 92h174l-90 -510h133zM1026 406q-89 0 -119 -113l-225 41q70 258 362 258q165 0 242 -68t55 -192q-17 -97 -94.5 -141
t-253.5 -70q-80 -12 -115 -27.5t-47 -42.5q112 17 183 17h282l-36 -211h-685q3 17 8.5 50.5t8.5 51.5q14 79 45 132t96.5 92.5t171.5 60.5q112 22 150 42t43 52q6 32 -11 50t-61 18z" />
    <glyph glyph-name="threequarters" unicode="&#xbe;" horiz-adv-x="1546" 
d="M418 2h-500l2 12l768 549l39 -26zM1118 1229h500l-2 -12l-770 -549l-37 26zM1350 4h-76l-27 -147h-233l26 147h-387l27 154l387 415h307l-69 -393h75zM406 641q-170 0 -241.5 57t-76.5 172l231 35q7 -40 29 -60t78 -20q84 0 94 54q5 31 -11 46t-63 15h-94l27 150h96
q42 0 60.5 11.5t23.5 37.5q5 29 -13.5 47t-62.5 18q-54 0 -78.5 -19t-37.5 -61l-215 43q79 222 354 222q160 0 234.5 -58.5t56.5 -159.5q-11 -60 -59.5 -95t-143.5 -48l-4 -22q103 -14 140.5 -60.5t23.5 -122.5q-14 -85 -103.5 -133.5t-244.5 -48.5zM881 166q89 10 190 14
l43 242l-8 4l-227 -254z" />
    <glyph glyph-name="questiondown" unicode="&#xbf;" horiz-adv-x="1019" 
d="M270 426q75 26 88 84q0 9 4 25h330q-4 -36 -8 -50q-15 -95 -64.5 -150t-158.5 -99q-79 -33 -108 -54.5t-36 -62.5q-10 -49 18.5 -74t84.5 -25q81 0 123.5 50t72.5 151l330 -63q-63 -214 -195 -324t-362 -110q-243 0 -355.5 101.5t-80.5 291.5q13 70 40.5 121t73.5 86
t90.5 56.5t112.5 45.5zM725 637h-356l61 342h356z" />
    <glyph glyph-name="Agrave" unicode="&#xc0;" horiz-adv-x="1249" 
d="M811 0l-20 223h-410l-102 -223h-394l615 1229h512l180 -1229h-381zM940 1317l-530 129l104 248l494 -201zM569 639l-69 -152h266l-14 152q-12 135 -21 274h-41q-39 -90 -121 -274z" />
    <glyph glyph-name="Aacute" unicode="&#xc1;" horiz-adv-x="1249" 
d="M811 0l-20 223h-410l-102 -223h-394l615 1229h512l180 -1229h-381zM602 1317l-35 174l566 201l45 -246zM569 639l-69 -152h266l-14 152q-12 135 -21 274h-41q-39 -90 -121 -274z" />
    <glyph glyph-name="Acircumflex" unicode="&#xc2;" horiz-adv-x="1249" 
d="M811 0l-20 223h-410l-102 -223h-394l615 1229h512l180 -1229h-381zM1014 1298l-211 148l-264 -148l-88 119l335 271h101l239 -271zM569 639l-69 -152h266l-14 152q-12 135 -21 274h-41q-39 -90 -121 -274z" />
    <glyph glyph-name="Atilde" unicode="&#xc3;" horiz-adv-x="1249" 
d="M811 0l-20 223h-410l-102 -223h-394l615 1229h512l180 -1229h-381zM641 1696q42 0 76 -16t55.5 -38.5t39 -45t36 -38.5t37.5 -16q38 0 56.5 33t31.5 108h139q-2 -40 -10 -96q-49 -272 -223 -272q-37 0 -68 16t-51 38.5t-38.5 44.5t-40 38t-46.5 16q-33 0 -52.5 -32.5
t-33.5 -108.5h-139q2 38 10 94q24 135 82.5 205t138.5 70zM569 639l-69 -152h266l-14 152q-12 135 -21 274h-41q-39 -90 -121 -274z" />
    <glyph glyph-name="Adieresis" unicode="&#xc4;" horiz-adv-x="1249" 
d="M811 0l-20 223h-410l-102 -223h-394l615 1229h512l180 -1229h-381zM498 1610h282l-49 -273h-280zM838 1610h282l-49 -273h-280zM569 639l-69 -152h266l-14 152q-12 135 -21 274h-41q-39 -90 -121 -274z" />
    <glyph glyph-name="Aring" unicode="&#xc5;" horiz-adv-x="1249" 
d="M811 0l-20 223h-410l-102 -223h-394l615 1229h512l180 -1229h-381zM721 1546q-7 -41 15 -65.5t65 -24.5q39 0 65.5 21t32.5 57q6 40 -16 65t-64 25q-39 0 -65.5 -21t-32.5 -57zM1053 1522q-17 -97 -91 -155t-180 -58q-119 0 -177 69.5t-36 184.5q15 94 88.5 150t180.5 56
q117 0 176 -67.5t39 -179.5zM569 639l-69 -152h266l-14 152q-12 135 -21 274h-41q-39 -90 -121 -274z" />
    <glyph glyph-name="AE" unicode="&#xc6;" horiz-adv-x="1804" 
d="M629 639l-74 -139h201l75 430h-57q-118 -242 -145 -291zM668 0l41 231h-295l-123 -231h-402l5 12l722 1217h1248l-58 -318h-608l-31 -163h570l-45 -261h-570l-30 -170h610l-55 -317h-979z" />
    <glyph glyph-name="Ccedilla" unicode="&#xc7;" horiz-adv-x="1275" 
d="M610 -31q-33 0 -47 2l-33 -59q29 10 68 10q147 0 125 -127q-9 -53 -62.5 -96t-156.5 -43q-128 0 -199 55l76 96q65 -45 141 -45q61 0 68 45q5 21 -8 32t-47 11q-32 0 -72 -12l-76 31l62 117q-225 46 -324.5 223.5t-50.5 452.5q51 286 231 442t451 156q261 0 389.5 -131.5
t130.5 -372.5l-363 -41q2 116 -41.5 170.5t-150.5 54.5q-120 0 -190.5 -86.5t-94.5 -224.5q-62 -346 191 -346q101 0 156 55t102 182l346 -69q-132 -482 -621 -482z" />
    <glyph glyph-name="Egrave" unicode="&#xc8;" horiz-adv-x="1134" 
d="M-2 0l217 1229h979l-57 -318h-609l-30 -163h569l-45 -261h-569l-31 -170h610l-55 -317h-979zM889 1317l-531 129l105 248l493 -201z" />
    <glyph glyph-name="Eacute" unicode="&#xc9;" horiz-adv-x="1134" 
d="M-2 0l217 1229h979l-57 -318h-609l-30 -163h569l-45 -261h-569l-31 -170h610l-55 -317h-979zM551 1317l-35 174l565 201l45 -246z" />
    <glyph glyph-name="Ecircumflex" unicode="&#xca;" horiz-adv-x="1134" 
d="M-2 0l217 1229h979l-57 -318h-609l-30 -163h569l-45 -261h-569l-31 -170h610l-55 -317h-979zM963 1298l-211 148l-265 -148l-88 119l336 271h101l239 -271z" />
    <glyph glyph-name="Edieresis" unicode="&#xcb;" horiz-adv-x="1134" 
d="M-2 0l217 1229h979l-57 -318h-609l-30 -163h569l-45 -261h-569l-31 -170h610l-55 -317h-979zM446 1610h283l-49 -273h-281zM786 1610h283l-49 -273h-281z" />
    <glyph glyph-name="Igrave" unicode="&#xcc;" horiz-adv-x="536" 
d="M367 0h-369l217 1229h369zM584 1317l-531 129l105 248l493 -201z" />
    <glyph glyph-name="Iacute" unicode="&#xcd;" horiz-adv-x="536" 
d="M367 0h-369l217 1229h369zM246 1317l-35 174l565 201l45 -246z" />
    <glyph glyph-name="Icircumflex" unicode="&#xce;" horiz-adv-x="536" 
d="M367 0h-369l217 1229h369zM657 1298l-211 148l-264 -148l-88 119l336 271h100l240 -271z" />
    <glyph glyph-name="Idieresis" unicode="&#xcf;" horiz-adv-x="536" 
d="M367 0h-369l217 1229h369zM147 1610h283l-49 -273h-281zM487 1610h283l-49 -273h-281z" />
    <glyph glyph-name="Eth" unicode="&#xd0;" horiz-adv-x="1353" 
d="M725 508h-223l-37 -207h156q155 0 236 71t110 234q32 181 -26 251.5t-226 70.5h-140l-36 -211h223zM49 0l84 508h-100l37 209h98l86 512h532q655 0 539 -668q-46 -260 -234.5 -410.5t-472.5 -150.5h-569z" />
    <glyph glyph-name="Ntilde" unicode="&#xd1;" horiz-adv-x="1347" 
d="M698 0l-106 399q-46 166 -100 508l-23 -2q-41 -392 -78 -594l-55 -311h-338l217 1229h508l90 -328q57 -202 94 -522l27 2q27 308 65 524l58 324h338l-217 -1229h-480zM690 1696q42 0 76 -16t55.5 -38.5t39 -45t36 -38.5t37.5 -16q38 0 56.5 33t31.5 108h139
q-2 -40 -10 -96q-49 -272 -223 -272q-37 0 -68 16t-51 38.5t-38.5 44.5t-40 38t-46.5 16q-33 0 -52.5 -32.5t-33.5 -108.5h-139q2 38 10 94q24 135 82.5 205t138.5 70z" />
    <glyph glyph-name="Ograve" unicode="&#xd2;" horiz-adv-x="1343" 
d="M616 -31q-311 0 -454.5 188.5t-83.5 518.5q47 275 233.5 429.5t458.5 154.5q304 0 451.5 -187.5t91.5 -515.5q-50 -278 -232.5 -433t-464.5 -155zM647 283q132 0 205 80.5t102 238.5q57 338 -213 338q-249 0 -303 -301q-65 -356 209 -356zM987 1317l-530 129l104 248
l494 -201z" />
    <glyph glyph-name="Oacute" unicode="&#xd3;" horiz-adv-x="1343" 
d="M616 -31q-311 0 -454.5 188.5t-83.5 518.5q47 275 233.5 429.5t458.5 154.5q304 0 451.5 -187.5t91.5 -515.5q-50 -278 -232.5 -433t-464.5 -155zM647 283q132 0 205 80.5t102 238.5q57 338 -213 338q-249 0 -303 -301q-65 -356 209 -356zM649 1317l-35 174l566 201
l45 -246z" />
    <glyph glyph-name="Ocircumflex" unicode="&#xd4;" horiz-adv-x="1343" 
d="M647 283q132 0 205 80.5t102 238.5q57 338 -213 338q-249 0 -303 -301q-65 -356 209 -356zM616 -31q-311 0 -454.5 188.5t-83.5 518.5q47 275 233.5 429.5t458.5 154.5q304 0 451.5 -187.5t91.5 -515.5q-50 -278 -232.5 -433t-464.5 -155zM1061 1298l-211 148l-264 -148
l-88 119l336 271h100l240 -271z" />
    <glyph glyph-name="Otilde" unicode="&#xd5;" horiz-adv-x="1343" 
d="M616 -31q-311 0 -454.5 188.5t-83.5 518.5q47 275 233.5 429.5t458.5 154.5q304 0 451.5 -187.5t91.5 -515.5q-50 -278 -232.5 -433t-464.5 -155zM647 283q132 0 205 80.5t102 238.5q57 338 -213 338q-249 0 -303 -301q-65 -356 209 -356zM688 1696q42 0 76 -16
t55.5 -38.5t39 -45t36 -38.5t37.5 -16q38 0 56.5 33t31.5 108h139q-2 -40 -10 -96q-49 -272 -223 -272q-37 0 -68 16t-51 38.5t-38.5 44.5t-40 38t-46.5 16q-33 0 -52.5 -32.5t-33.5 -108.5h-139q2 38 10 94q24 135 82.5 205t138.5 70z" />
    <glyph glyph-name="Odieresis" unicode="&#xd6;" horiz-adv-x="1343" 
d="M616 -31q-311 0 -454.5 188.5t-83.5 518.5q47 275 233.5 429.5t458.5 154.5q304 0 451.5 -187.5t91.5 -515.5q-50 -278 -232.5 -433t-464.5 -155zM647 283q132 0 205 80.5t102 238.5q57 338 -213 338q-249 0 -303 -301q-65 -356 209 -356zM545 1610h282l-49 -273h-280z
M885 1610h282l-49 -273h-280z" />
    <glyph glyph-name="multiply" unicode="&#xd7;" horiz-adv-x="1060" 
d="M711 164q-31 41 -187 258q-29 -28 -125 -124t-151 -146l-217 254q46 35 91.5 67.5t118 82t109.5 75.5q-188 184 -227 225l276 231q2 -2 185 -262q34 33 128.5 127.5t149.5 145.5l215 -254q-45 -35 -92 -68.5t-115 -80.5t-110 -77q31 -31 77 -76t80.5 -79.5t67.5 -69.5z
" />
    <glyph glyph-name="Oslash" unicode="&#xd8;" horiz-adv-x="1345" 
d="M616 -31q-224 0 -362 101l-70 -70h-274l2 12l217 197q-104 179 -51 467q49 275 235 429.5t457 154.5q222 0 367 -105l73 74h267l-2 -12l-218 -197q105 -181 56 -463q-50 -278 -232.5 -433t-464.5 -155zM420 641q-19 -102 -10 -172l481 449q-55 34 -146 34
q-268 0 -325 -311zM643 272q143 0 220.5 82.5t109.5 247.5q16 96 8 160l-483 -455q56 -35 145 -35z" />
    <glyph glyph-name="Ugrave" unicode="&#xd9;" horiz-adv-x="1300" 
d="M631 295q105 0 154 53.5t69 165.5l127 715h369l-136 -764q-42 -238 -197.5 -366t-408.5 -128q-299 0 -431 144.5t-85 414.5l123 699h369l-127 -715q-19 -106 18.5 -162.5t155.5 -56.5zM967 1317l-531 129l105 248l493 -201z" />
    <glyph glyph-name="Uacute" unicode="&#xda;" horiz-adv-x="1300" 
d="M631 295q105 0 154 53.5t69 165.5l127 715h369l-136 -764q-42 -238 -197.5 -366t-408.5 -128q-299 0 -431 144.5t-85 414.5l123 699h369l-127 -715q-19 -106 18.5 -162.5t155.5 -56.5zM629 1317l-35 174l565 201l45 -246z" />
    <glyph glyph-name="Ucircumflex" unicode="&#xdb;" horiz-adv-x="1300" 
d="M631 295q105 0 154 53.5t69 165.5l127 715h369l-136 -764q-42 -238 -197.5 -366t-408.5 -128q-299 0 -431 144.5t-85 414.5l123 699h369l-127 -715q-19 -106 18.5 -162.5t155.5 -56.5zM1040 1298l-211 148l-264 -148l-88 119l336 271h100l240 -271z" />
    <glyph glyph-name="Udieresis" unicode="&#xdc;" horiz-adv-x="1300" 
d="M631 295q105 0 154 53.5t69 165.5l127 715h369l-136 -764q-42 -238 -197.5 -366t-408.5 -128q-299 0 -431 144.5t-85 414.5l123 699h369l-127 -715q-19 -106 18.5 -162.5t155.5 -56.5zM524 1610h283l-49 -273h-281zM864 1610h283l-49 -273h-281z" />
    <glyph glyph-name="Yacute" unicode="&#xdd;" horiz-adv-x="1146" 
d="M672 0h-369l66 375l-281 831l4 23h400l92 -541h32l293 541h408l-4 -23l-574 -829zM551 1317l-35 174l565 201l45 -246z" />
    <glyph glyph-name="Thorn" unicode="&#xde;" horiz-adv-x="1185" 
d="M215 1229h369l-25 -135l174 -2q265 0 380 -130.5t71 -379.5q-35 -195 -174.5 -308.5t-372.5 -113.5h-242l-28 -160h-369zM668 784h-162l-57 -315h172q96 0 144 34.5t62 108.5q14 87 -22.5 129.5t-136.5 42.5z" />
    <glyph glyph-name="germandbls" unicode="&#xdf;" horiz-adv-x="1187" 
d="M631 -20q-115 0 -234 34l105 312q63 -29 139 -29q68 0 103 27.5t44 81.5q11 68 -15.5 100.5t-106.5 32.5h-117l49 282h51q59 0 96 29.5t46 77.5q10 60 -18.5 97.5t-102.5 37.5q-80 0 -118.5 -48.5t-53.5 -135.5l-156 -879h-348l158 891q38 224 173 334t371 110
q244 0 357 -104.5t84 -267.5q-18 -110 -98 -167t-222 -77l-6 -37q196 -18 263.5 -106t37.5 -259q-28 -156 -147.5 -246.5t-333.5 -90.5z" />
    <glyph glyph-name="agrave" unicode="&#xe0;" 
d="M799 1044l-488 213l135 230l441 -281zM496 274q60 0 103.5 45.5t55.5 120.5v-6l4 25l11 61v-2q15 82 -16 130t-99 48q-71 0 -112 -48.5t-60 -151.5q-41 -222 113 -222zM51 522q41 237 140.5 362.5t240.5 125.5q110 0 176.5 -74t83.5 -211l17 12l43 242h348l-172 -979
h-348l45 258l-9 -6l7 33q-65 -151 -154.5 -233.5t-200.5 -82.5q-145 0 -205 144.5t-12 408.5z" />
    <glyph glyph-name="aacute" unicode="&#xe1;" 
d="M512 1042l-66 166l539 273l92 -230zM496 274q60 0 103.5 45.5t55.5 120.5v-6l4 25l11 61v-2q15 82 -16 130t-99 48q-71 0 -112 -48.5t-60 -151.5q-41 -222 113 -222zM51 522q41 237 140.5 362.5t240.5 125.5q110 0 176.5 -74t83.5 -211l17 12l43 242h348l-172 -979h-348
l45 258l-9 -6l7 33q-65 -151 -154.5 -233.5t-200.5 -82.5q-145 0 -205 144.5t-12 408.5z" />
    <glyph glyph-name="acircumflex" unicode="&#xe2;" 
d="M877 1042l-195 172l-258 -172l-102 119l342 305h100l233 -305zM496 274q60 0 103.5 45.5t55.5 120.5v-6l4 25l11 61v-2q15 82 -16 130t-99 48q-71 0 -112 -48.5t-60 -151.5q-41 -222 113 -222zM51 522q41 237 140.5 362.5t240.5 125.5q110 0 176.5 -74t83.5 -211l17 12
l43 242h348l-172 -979h-348l45 258l-9 -6l7 33q-65 -151 -154.5 -233.5t-200.5 -82.5q-145 0 -205 144.5t-12 408.5z" />
    <glyph glyph-name="atilde" unicode="&#xe3;" 
d="M555 1456q42 0 76 -16t55.5 -38t39 -44.5t36 -38.5t37.5 -16q38 0 56.5 33t31.5 108h139q-2 -40 -10 -96q-49 -273 -223 -273q-37 0 -68 16t-51 38.5t-38.5 45t-40 38.5t-46.5 16q-33 0 -52.5 -33t-33.5 -109h-139q2 40 10 95q24 135 82.5 204.5t138.5 69.5zM496 274
q60 0 103.5 45.5t55.5 120.5v-6l4 25l11 61v-2q15 82 -16 130t-99 48q-71 0 -112 -48.5t-60 -151.5q-41 -222 113 -222zM51 522q41 237 140.5 362.5t240.5 125.5q110 0 176.5 -74t83.5 -211l17 12l43 242h348l-172 -979h-348l45 258l-9 -6l7 33q-65 -151 -154.5 -233.5
t-200.5 -82.5q-145 0 -205 144.5t-12 408.5z" />
    <glyph glyph-name="adieresis" unicode="&#xe4;" 
d="M395 1407h283l-49 -272h-281zM735 1407h283l-49 -272h-281zM496 274q60 0 103.5 45.5t55.5 120.5v-6l4 25l11 61v-2q15 82 -16 130t-99 48q-71 0 -112 -48.5t-60 -151.5q-41 -222 113 -222zM51 522q41 237 140.5 362.5t240.5 125.5q110 0 176.5 -74t83.5 -211l17 12
l43 242h348l-172 -979h-348l45 258l-9 -6l7 33q-65 -151 -154.5 -233.5t-200.5 -82.5q-145 0 -205 144.5t-12 408.5z" />
    <glyph glyph-name="aring" unicode="&#xe5;" 
d="M598 1321q-8 -45 13 -72.5t65 -27.5q39 0 64.5 24t31.5 66q8 44 -13.5 72t-64.5 28q-38 0 -64 -24.5t-32 -65.5zM926 1294q-19 -104 -90 -161.5t-179 -57.5q-119 0 -177.5 72t-37.5 186q20 105 91.5 164t177.5 59q118 0 177 -74t38 -188zM496 274q60 0 103.5 45.5
t55.5 120.5v-6l4 25l11 61v-2q15 82 -16 130t-99 48q-71 0 -112 -48.5t-60 -151.5q-41 -222 113 -222zM51 522q41 237 140.5 362.5t240.5 125.5q110 0 176.5 -74t83.5 -211l17 12l43 242h348l-172 -979h-348l45 258l-9 -6l7 33q-65 -151 -154.5 -233.5t-200.5 -82.5
q-145 0 -205 144.5t-12 408.5z" />
    <glyph glyph-name="ae" unicode="&#xe6;" horiz-adv-x="1626" 
d="M434 240q63 0 108.5 40.5t57.5 104.5l6 37h-157q-46 0 -79.5 -23.5t-39.5 -58.5q-8 -47 16 -73.5t88 -26.5zM1161 754q-75 0 -118.5 -44t-67.5 -149h301q34 193 -115 193zM1522 258q-23 -52 -46.5 -90.5t-61.5 -78t-84.5 -64.5t-114.5 -40.5t-152 -15.5
q-106 0 -190.5 24.5t-147 82.5t-82.5 147q-133 -250 -383 -250q-63 0 -116.5 20t-92.5 58.5t-54.5 102.5t-0.5 145q45 254 397 254h236l10 59q22 123 -90 123q-48 0 -79.5 -25.5t-51.5 -80.5l-312 80q30 88 83 152t143.5 105.5t208.5 41.5q248 0 321 -152q129 154 352 154
q226 0 319.5 -123.5t55.5 -339.5q-16 -80 -26 -119h-611q-7 -100 27 -141t119 -41q33 0 57.5 8t42 25.5t27.5 32t24 40.5z" />
    <glyph glyph-name="ccedilla" unicode="&#xe7;" horiz-adv-x="1058" 
d="M702 563q-3 33 -8.5 56t-18 44.5t-36.5 32.5t-59 11q-144 0 -181 -207q-39 -230 119 -230q115 0 164 152l309 -78q-52 -181 -172 -278t-327 -97q-29 0 -43 2l-33 -59q29 10 67 10q147 0 125 -127q-9 -53 -62.5 -96t-156.5 -43q-128 0 -199 55l76 96q65 -45 142 -45
q60 0 67 45q5 21 -8 32t-47 11q-32 0 -72 -12l-76 31l64 117q-171 43 -247 182.5t-36 372.5q40 224 185 346.5t374 122.5q415 0 422 -389z" />
    <glyph glyph-name="egrave" unicode="&#xe8;" horiz-adv-x="1048" 
d="M580 754q-73 0 -116 -43.5t-69 -149.5h303q36 193 -118 193zM473 -31q-233 0 -352.5 144t-69.5 422q40 227 183.5 351t371.5 124q161 0 261.5 -64t133.5 -169.5t9 -244.5q-3 -18 -25 -104h-612q-7 -98 26.5 -140t112.5 -42q68 0 101.5 25.5t60.5 74.5l280 -86
q-28 -64 -65 -113t-93 -91t-137.5 -64.5t-185.5 -22.5zM809 1044l-487 213l135 230l440 -281z" />
    <glyph glyph-name="eacute" unicode="&#xe9;" horiz-adv-x="1048" 
d="M580 754q-73 0 -116 -43.5t-69 -149.5h303q36 193 -118 193zM473 -31q-233 0 -352.5 144t-69.5 422q40 227 183.5 351t371.5 124q161 0 261.5 -64t133.5 -169.5t9 -244.5q-3 -18 -25 -104h-612q-7 -98 26.5 -140t112.5 -42q68 0 101.5 25.5t60.5 74.5l280 -86
q-28 -64 -65 -113t-93 -91t-137.5 -64.5t-185.5 -22.5zM512 1042l-66 166l539 273l92 -230z" />
    <glyph glyph-name="ecircumflex" unicode="&#xea;" horiz-adv-x="1048" 
d="M580 754q-73 0 -116 -43.5t-69 -149.5h303q36 193 -118 193zM473 -31q-233 0 -352.5 144t-69.5 422q40 227 183.5 351t371.5 124q161 0 261.5 -64t133.5 -169.5t9 -244.5q-3 -18 -25 -104h-612q-7 -98 26.5 -140t112.5 -42q68 0 101.5 25.5t60.5 74.5l280 -86
q-28 -64 -65 -113t-93 -91t-137.5 -64.5t-185.5 -22.5zM870 1044l-194 173l-258 -173l-103 119l342 305h101l233 -305z" />
    <glyph glyph-name="edieresis" unicode="&#xeb;" horiz-adv-x="1048" 
d="M580 754q-73 0 -116 -43.5t-69 -149.5h303q36 193 -118 193zM473 -31q-233 0 -352.5 144t-69.5 422q40 227 183.5 351t371.5 124q161 0 261.5 -64t133.5 -169.5t9 -244.5q-3 -18 -25 -104h-612q-7 -98 26.5 -140t112.5 -42q68 0 101.5 25.5t60.5 74.5l280 -86
q-28 -64 -65 -113t-93 -91t-137.5 -64.5t-185.5 -22.5zM383 1407h283l-50 -272h-280zM723 1407h283l-50 -272h-280z" />
    <glyph glyph-name="igrave" unicode="&#xec;" horiz-adv-x="507" 
d="M342 0h-348l172 979h348zM528 1044l-487 213l135 230l440 -281z" />
    <glyph glyph-name="iacute" unicode="&#xed;" horiz-adv-x="507" 
d="M342 0h-348l172 979h348zM219 1042l-65 166l538 273l92 -230z" />
    <glyph glyph-name="icircumflex" unicode="&#xee;" horiz-adv-x="507" 
d="M342 0h-348l172 979h348zM590 1044l-195 173l-258 -173l-102 119l342 305h100l234 -305z" />
    <glyph glyph-name="idieresis" unicode="&#xef;" horiz-adv-x="507" 
d="M342 0h-348l172 979h348zM102 1407h283l-49 -272h-281zM442 1407h283l-49 -272h-281z" />
    <glyph glyph-name="eth" unicode="&#xf0;" horiz-adv-x="1112" 
d="M487 -31q-253 0 -370 138.5t-70 404.5q19 106 61.5 189t100.5 134t126 77t142 26q106 0 174.5 -67.5t96.5 -176.5l24 8q-17 195 -145 363l-242 -86l-47 160l162 59q-37 32 -94 72l129 157q134 -47 247 -127l238 86l47 -161l-143 -51q221 -260 153 -644
q-49 -277 -200 -419t-390 -142zM725 477q21 115 -8.5 172.5t-124.5 57.5q-82 0 -136.5 -62t-68.5 -153q-40 -226 133 -226q83 0 135 55.5t70 155.5z" />
    <glyph glyph-name="ntilde" unicode="&#xf1;" horiz-adv-x="1087" 
d="M436 537l-94 -537h-348l172 979h338l-47 -264h22q68 148 160 221.5t199 73.5q127 0 181 -94t25 -263l-116 -653h-348l100 573q11 59 -11 91t-73 32q-62 0 -105 -43.5t-55 -115.5zM563 1456q42 0 76 -16t55.5 -38t39 -44.5t36 -38.5t37.5 -16q38 0 56.5 33t31.5 108h139
q-2 -40 -10 -96q-49 -273 -223 -273q-37 0 -68 16t-51 38.5t-38.5 45t-40 38.5t-46.5 16q-33 0 -52.5 -33t-33.5 -109h-139q2 40 10 95q24 135 82.5 204.5t138.5 69.5z" />
    <glyph glyph-name="ograve" unicode="&#xf2;" horiz-adv-x="1110" 
d="M498 -31q-256 0 -375 152.5t-72 419.5q38 221 188.5 345t376.5 124q253 0 372 -152t73 -420q-39 -220 -190.5 -344.5t-372.5 -124.5zM588 721q-86 0 -131.5 -53.5t-65.5 -163.5q-21 -122 9.5 -182t123.5 -60q86 0 132 52.5t65 162.5q21 122 -9.5 183t-123.5 61zM829 1044
l-487 213l135 230l441 -281z" />
    <glyph glyph-name="oacute" unicode="&#xf3;" horiz-adv-x="1110" 
d="M498 -31q-256 0 -375 152.5t-72 419.5q38 221 188.5 345t376.5 124q253 0 372 -152t73 -420q-39 -220 -190.5 -344.5t-372.5 -124.5zM588 721q-86 0 -131.5 -53.5t-65.5 -163.5q-21 -122 9.5 -182t123.5 -60q86 0 132 52.5t65 162.5q21 122 -9.5 183t-123.5 61zM532 1042
l-65 166l539 273l92 -230z" />
    <glyph glyph-name="ocircumflex" unicode="&#xf4;" horiz-adv-x="1110" 
d="M588 721q-86 0 -131.5 -53.5t-65.5 -163.5q-21 -122 9.5 -182t123.5 -60q86 0 132 52.5t65 162.5q21 122 -9.5 183t-123.5 61zM498 -31q-256 0 -375 152.5t-72 419.5q38 221 188.5 345t376.5 124q253 0 372 -152t73 -420q-39 -220 -190.5 -344.5t-372.5 -124.5zM891 1044
l-195 173l-258 -173l-102 119l342 305h100l234 -305z" />
    <glyph glyph-name="otilde" unicode="&#xf5;" horiz-adv-x="1110" 
d="M498 -31q-256 0 -375 152.5t-72 419.5q38 221 188.5 345t376.5 124q253 0 372 -152t73 -420q-39 -220 -190.5 -344.5t-372.5 -124.5zM588 721q-86 0 -131.5 -53.5t-65.5 -163.5q-21 -122 9.5 -182t123.5 -60q86 0 132 52.5t65 162.5q21 122 -9.5 183t-123.5 61zM571 1456
q42 0 76 -16t55.5 -38t39 -44.5t36 -38.5t37.5 -16q38 0 56.5 33t31.5 108h139q-2 -40 -10 -96q-49 -273 -223 -273q-37 0 -68 16t-51 38.5t-38.5 45t-40 38.5t-46.5 16q-33 0 -52.5 -33t-33.5 -109h-139q2 40 10 95q24 135 82.5 204.5t138.5 69.5z" />
    <glyph glyph-name="odieresis" unicode="&#xf6;" horiz-adv-x="1110" 
d="M498 -31q-256 0 -375 152.5t-72 419.5q38 221 188.5 345t376.5 124q253 0 372 -152t73 -420q-39 -220 -190.5 -344.5t-372.5 -124.5zM588 721q-86 0 -131.5 -53.5t-65.5 -163.5q-21 -122 9.5 -182t123.5 -60q86 0 132 52.5t65 162.5q21 122 -9.5 183t-123.5 61zM403 1407
h283l-49 -272h-281zM743 1407h283l-49 -272h-281z" />
    <glyph glyph-name="divide" unicode="&#xf7;" horiz-adv-x="995" 
d="M934 483h-873l54 308h872zM485 1116h246l-41 -239h-248zM365 399h245l-41 -239h-247z" />
    <glyph glyph-name="oslash" unicode="&#xf8;" horiz-adv-x="1110" 
d="M498 -31q-190 0 -305 86l-50 -55h-247l2 12l188 164q-75 149 -35 365q38 221 188.5 345t376.5 124q188 0 308 -88l51 57h237v-12l-188 -166q74 -143 37 -363q-40 -220 -190.5 -344.5t-372.5 -124.5zM594 743q-103 0 -159.5 -59t-78.5 -178q-10 -49 -10 -100l354 315
q-42 22 -106 22zM516 238q106 0 162 58.5t78 180.5q10 55 10 94l-350 -313q39 -20 100 -20z" />
    <glyph glyph-name="ugrave" unicode="&#xf9;" 
d="M588 0l47 266h-23q-68 -148 -160 -222.5t-198 -74.5q-127 0 -181.5 94t-25.5 263l117 653h348l-100 -571q-11 -59 11 -92t73 -33q62 0 104.5 44.5t54.5 116.5l95 535h348l-172 -979h-338zM819 1044l-487 213l135 230l440 -281z" />
    <glyph glyph-name="uacute" unicode="&#xfa;" 
d="M588 0l47 266h-23q-68 -148 -160 -222.5t-198 -74.5q-127 0 -181.5 94t-25.5 263l117 653h348l-100 -571q-11 -59 11 -92t73 -33q62 0 104.5 44.5t54.5 116.5l95 535h348l-172 -979h-338zM522 1042l-65 166l538 273l92 -230z" />
    <glyph glyph-name="ucircumflex" unicode="&#xfb;" 
d="M588 0l47 266h-23q-68 -148 -160 -222.5t-198 -74.5q-127 0 -181.5 94t-25.5 263l117 653h348l-100 -571q-11 -59 11 -92t73 -33q62 0 104.5 44.5t54.5 116.5l95 535h348l-172 -979h-338zM881 1044l-195 173l-258 -173l-102 119l342 305h100l233 -305z" />
    <glyph glyph-name="udieresis" unicode="&#xfc;" 
d="M588 0l47 266h-23q-68 -148 -160 -222.5t-198 -74.5q-127 0 -181.5 94t-25.5 263l117 653h348l-100 -571q-11 -59 11 -92t73 -33q62 0 104.5 44.5t54.5 116.5l95 535h348l-172 -979h-338zM393 1407h283l-49 -272h-281zM733 1407h283l-49 -272h-281z" />
    <glyph glyph-name="yacute" unicode="&#xfd;" horiz-adv-x="1005" 
d="M72 -328q-33 0 -162 11l55 284q72 -14 131 -14q65 0 100 13t62 50l-164 963h371l16 -367q4 -88 8 -272h19q40 106 98 266l137 373h383l-538 -973q-48 -87 -93.5 -145t-106 -102.5t-138 -65.5t-178.5 -21zM489 1042l-65 166l539 273l92 -230z" />
    <glyph glyph-name="thorn" unicode="&#xfe;" 
d="M532 274q75 0 117.5 51.5t61.5 159.5q20 106 -7 158.5t-104 52.5q-60 0 -103.5 -42t-58.5 -115l-20 -113q-8 -70 22.5 -111t91.5 -41zM573 1315l-100 -576h16q65 131 150.5 201t185.5 70q149 0 209 -141.5t13 -403.5q-42 -241 -141.5 -368.5t-237.5 -127.5
q-113 0 -179.5 74t-85.5 209h-16l-100 -561h-348l286 1624h348z" />
    <glyph glyph-name="ydieresis" unicode="&#xff;" horiz-adv-x="1005" 
d="M72 -328q-33 0 -162 11l55 284q72 -14 131 -14q65 0 100 13t62 50l-164 963h371l16 -367q4 -88 8 -272h19q40 106 98 266l137 373h383l-538 -973q-48 -87 -93.5 -145t-106 -102.5t-138 -65.5t-178.5 -21zM360 1407h283l-49 -272h-281zM700 1407h283l-49 -272h-281z" />
    <glyph glyph-name="Amacron" unicode="&#x100;" horiz-adv-x="1249" 
d="M811 0l-20 223h-410l-102 -223h-394l615 1229h512l180 -1229h-381zM535 1583h565l-41 -225h-563zM569 639l-69 -152h266l-14 152q-12 135 -21 274h-41q-39 -90 -121 -274z" />
    <glyph glyph-name="amacron" unicode="&#x101;" 
d="M410 1358h553l-39 -228h-555zM496 274q60 0 103.5 45.5t55.5 120.5v-6l4 25l11 61v-2q15 82 -16 130t-99 48q-71 0 -112 -48.5t-60 -151.5q-41 -222 113 -222zM51 522q41 237 140.5 362.5t240.5 125.5q110 0 176.5 -74t83.5 -211l17 12l43 242h348l-172 -979h-348l45 258
l-9 -6l7 33q-65 -151 -154.5 -233.5t-200.5 -82.5q-145 0 -205 144.5t-12 408.5z" />
    <glyph glyph-name="Abreve" unicode="&#x102;" horiz-adv-x="1249" 
d="M811 0l-20 223h-410l-102 -223h-394l615 1229h512l180 -1229h-381zM811 1542q65 0 110.5 28.5t69.5 102.5h148q-22 -177 -104.5 -258.5t-239.5 -81.5q-164 0 -229.5 87.5t-37.5 252.5h148q-1 -74 33.5 -102.5t101.5 -28.5zM569 639l-69 -152h266l-14 152q-12 135 -21 274
h-41q-39 -90 -121 -274z" />
    <glyph glyph-name="abreve" unicode="&#x103;" 
d="M690 1292q66 0 111.5 33t72.5 119h148q-31 -193 -110 -277t-232 -84q-330 0 -268 361h147q-3 -86 31.5 -119t99.5 -33zM496 274q60 0 103.5 45.5t55.5 120.5v-6l4 25l11 61v-2q15 82 -16 130t-99 48q-71 0 -112 -48.5t-60 -151.5q-41 -222 113 -222zM51 522
q41 237 140.5 362.5t240.5 125.5q110 0 176.5 -74t83.5 -211l17 12l43 242h348l-172 -979h-348l45 258l-9 -6l7 33q-65 -151 -154.5 -233.5t-200.5 -82.5q-145 0 -205 144.5t-12 408.5z" />
    <glyph glyph-name="Aogonek" unicode="&#x104;" horiz-adv-x="1245" 
d="M1006 -346q-125 0 -179.5 41t-42.5 119q22 128 226 186h-199l-20 223h-410l-102 -223h-394l615 1229h512l180 -1227l2 -2q-107 -18 -156 -38.5t-55 -53.5q-5 -23 16 -36t64 -13q33 0 108 14l-36 -209q-78 -10 -129 -10zM569 639l-69 -152h266l-14 152q-12 135 -21 274
h-41q-39 -90 -121 -274z" />
    <glyph glyph-name="aogonek" unicode="&#x105;" 
d="M496 274q60 0 103.5 45.5t55.5 120.5v-6l4 25l11 61v-2q15 82 -16 130t-99 48q-71 0 -112 -48.5t-60 -151.5q-41 -222 113 -222zM51 522q41 237 140.5 362.5t240.5 125.5q110 0 176.5 -74t83.5 -211l17 12l43 242h348l-172 -979q-107 -18 -156 -38.5t-55 -53.5
q-5 -23 16 -36t64 -13q33 0 108 14l-37 -209q-78 -10 -129 -10q-125 0 -179 41t-42 119q22 128 225 186h-163l45 258l-9 -6l7 33q-65 -151 -154.5 -233.5t-200.5 -82.5q-145 0 -205 144.5t-12 408.5z" />
    <glyph glyph-name="Cacute" unicode="&#x106;" horiz-adv-x="1275" 
d="M610 -31q-307 0 -450 185t-86 508q51 286 231 442t451 156q261 0 389.5 -131.5t130.5 -372.5l-363 -41q2 116 -41.5 170.5t-150.5 54.5q-120 0 -190.5 -86.5t-94.5 -224.5q-62 -346 191 -346q101 0 156 55t102 182l346 -69q-132 -482 -621 -482zM629 1317l-35 174
l565 201l45 -246z" />
    <glyph glyph-name="cacute" unicode="&#x107;" horiz-adv-x="1058" 
d="M702 563q-3 33 -8.5 56t-18 44.5t-36.5 32.5t-59 11q-144 0 -181 -207q-39 -230 119 -230q115 0 164 152l309 -78q-52 -181 -172 -278t-327 -97q-248 0 -368 145t-71 427q40 224 185 346.5t374 122.5q415 0 422 -389zM549 1042l-66 166l539 273l92 -230z" />
    <glyph glyph-name="Ccircumflex" unicode="&#x108;" horiz-adv-x="1275" 
d="M610 -31q-307 0 -450 185t-86 508q51 286 231 442t451 156q261 0 389.5 -131.5t130.5 -372.5l-363 -41q2 116 -41.5 170.5t-150.5 54.5q-120 0 -190.5 -86.5t-94.5 -224.5q-62 -346 191 -346q101 0 156 55t102 182l346 -69q-132 -482 -621 -482zM1040 1298l-211 148
l-264 -148l-88 119l336 271h100l240 -271z" />
    <glyph glyph-name="ccircumflex" unicode="&#x109;" horiz-adv-x="1058" 
d="M702 563q-3 33 -8.5 56t-18 44.5t-36.5 32.5t-59 11q-144 0 -181 -207q-39 -230 119 -230q115 0 164 152l309 -78q-52 -181 -172 -278t-327 -97q-248 0 -368 145t-71 427q40 224 185 346.5t374 122.5q415 0 422 -389zM883 1044l-195 173l-258 -173l-102 119l342 305h100
l234 -305z" />
    <glyph glyph-name="Cdotaccent" unicode="&#x10a;" horiz-adv-x="1275" 
d="M610 -31q-307 0 -450 185t-86 508q51 286 231 442t451 156q261 0 389.5 -131.5t130.5 -372.5l-363 -41q2 116 -41.5 170.5t-150.5 54.5q-120 0 -190.5 -86.5t-94.5 -224.5q-62 -346 191 -346q101 0 156 55t102 182l346 -69q-132 -482 -621 -482zM676 1628h313l-51 -299
h-313z" />
    <glyph glyph-name="cdotaccent" unicode="&#x10b;" horiz-adv-x="1058" 
d="M702 563q-3 33 -8.5 56t-18 44.5t-36.5 32.5t-59 11q-144 0 -181 -207q-39 -230 119 -230q115 0 164 152l309 -78q-52 -181 -172 -278t-327 -97q-248 0 -368 145t-71 427q40 224 185 346.5t374 122.5q415 0 422 -389zM555 1423h313l-51 -299h-313z" />
    <glyph glyph-name="Ccaron" unicode="&#x10c;" horiz-adv-x="1275" 
d="M610 -31q-307 0 -450 185t-86 508q51 286 231 442t451 156q261 0 389.5 -131.5t130.5 -372.5l-363 -41q2 116 -41.5 170.5t-150.5 54.5q-120 0 -190.5 -86.5t-94.5 -224.5q-62 -346 191 -346q101 0 156 55t102 182l346 -69q-132 -482 -621 -482zM846 1309h-101l-239 270
l115 119l210 -146l263 146l86 -119z" />
    <glyph glyph-name="ccaron" unicode="&#x10d;" horiz-adv-x="1058" 
d="M702 563q-3 33 -8.5 56t-18 44.5t-36.5 32.5t-59 11q-144 0 -181 -207q-39 -230 119 -230q115 0 164 152l309 -78q-52 -181 -172 -278t-327 -97q-248 0 -368 145t-71 427q40 224 185 346.5t374 122.5q415 0 422 -389zM694 1071h-100l-234 305l121 119l197 -174l258 174
l100 -119z" />
    <glyph glyph-name="Dcaron" unicode="&#x10e;" horiz-adv-x="1308" 
d="M670 928h-140l-110 -627h155q155 0 236.5 71t110.5 234q32 181 -26 251.5t-226 70.5zM4 0l205 1229h532q655 0 539 -668q-46 -260 -234.5 -410.5t-472.5 -150.5h-569zM842 1309h-101l-239 270l114 119l211 -146l263 146l86 -119z" />
    <glyph glyph-name="dcaron" unicode="&#x10f;" horiz-adv-x="1323" 
d="M494 274q60 0 104.5 45.5t56.5 120.5v-8l4 27l11 61v-2q14 82 -16 130t-97 48q-73 0 -115 -51t-61 -158t8 -160t105 -53zM580 0l43 252h-17q-129 -283 -330 -283q-148 0 -209.5 144t-15.5 409q41 236 141 362t242 126q105 0 170.5 -70.5t85.5 -200.5h19l102 576h348
l-231 -1315h-348zM1245 1315h252l-160 -518h-211z" />
    <glyph glyph-name="Dcroat" unicode="&#x110;" horiz-adv-x="1353" 
d="M725 508h-223l-37 -207h156q155 0 236 71t110 234q32 181 -26 251.5t-226 70.5h-140l-36 -211h223zM49 0l84 508h-100l37 209h98l86 512h532q655 0 539 -668q-46 -260 -234.5 -410.5t-472.5 -150.5h-569z" />
    <glyph glyph-name="dcroat" unicode="&#x111;" horiz-adv-x="1120" 
d="M494 274q60 0 104.5 45.5t56.5 120.5v-8l4 27l11 61v-2q14 82 -16 130t-97 48q-73 0 -115 -51t-61 -158t8 -160t105 -53zM580 0l43 252h-17q-129 -283 -330 -283q-148 0 -209.5 144t-15.5 409q41 236 141 362t242 126q105 0 170.5 -70.5t85.5 -200.5h19l55 312h-213
l31 168h213l16 96h348l-16 -96h98l-29 -168h-100l-184 -1051h-348z" />
    <glyph glyph-name="Emacron" unicode="&#x112;" horiz-adv-x="1134" 
d="M-2 0l217 1229h979l-57 -318h-609l-30 -163h569l-45 -261h-569l-31 -170h610l-55 -317h-979zM483 1583h566l-41 -225h-564z" />
    <glyph glyph-name="emacron" unicode="&#x113;" horiz-adv-x="1048" 
d="M580 754q-73 0 -116 -43.5t-69 -149.5h303q36 193 -118 193zM473 -31q-233 0 -352.5 144t-69.5 422q40 227 183.5 351t371.5 124q161 0 261.5 -64t133.5 -169.5t9 -244.5q-3 -18 -25 -104h-612q-7 -98 26.5 -140t112.5 -42q68 0 101.5 25.5t60.5 74.5l280 -86
q-28 -64 -65 -113t-93 -91t-137.5 -64.5t-185.5 -22.5zM410 1358h553l-39 -228h-555z" />
    <glyph glyph-name="Ebreve" unicode="&#x114;" horiz-adv-x="1134" 
d="M-2 0l217 1229h979l-57 -318h-609l-30 -163h569l-45 -261h-569l-31 -170h610l-55 -317h-979zM760 1542q65 0 110.5 28.5t69.5 102.5h147q-22 -177 -104.5 -258.5t-239.5 -81.5q-164 0 -229 87.5t-37 252.5h148q-1 -74 33.5 -102.5t101.5 -28.5z" />
    <glyph glyph-name="ebreve" unicode="&#x115;" horiz-adv-x="1048" 
d="M580 754q-73 0 -116 -43.5t-69 -149.5h303q36 193 -118 193zM473 -31q-233 0 -352.5 144t-69.5 422q40 227 183.5 351t371.5 124q161 0 261.5 -64t133.5 -169.5t9 -244.5q-3 -18 -25 -104h-612q-7 -98 26.5 -140t112.5 -42q68 0 101.5 25.5t60.5 74.5l280 -86
q-28 -64 -65 -113t-93 -91t-137.5 -64.5t-185.5 -22.5zM676 1292q66 0 111.5 33t72.5 119h148q-31 -193 -110 -277t-232 -84q-331 0 -269 361h148q-3 -86 31.5 -119t99.5 -33z" />
    <glyph glyph-name="Edotaccent" unicode="&#x116;" horiz-adv-x="1134" 
d="M-2 0l217 1229h979l-57 -318h-609l-30 -163h569l-45 -261h-569l-31 -170h610l-55 -317h-979zM598 1628h313l-51 -299h-313z" />
    <glyph glyph-name="edotaccent" unicode="&#x117;" horiz-adv-x="1048" 
d="M580 754q-73 0 -116 -43.5t-69 -149.5h303q36 193 -118 193zM473 -31q-233 0 -352.5 144t-69.5 422q40 227 183.5 351t371.5 124q161 0 261.5 -64t133.5 -169.5t9 -244.5q-3 -18 -25 -104h-612q-7 -98 26.5 -140t112.5 -42q68 0 101.5 25.5t60.5 74.5l280 -86
q-28 -64 -65 -113t-93 -91t-137.5 -64.5t-185.5 -22.5zM541 1423h313l-51 -299h-314z" />
    <glyph glyph-name="Eogonek" unicode="&#x118;" horiz-adv-x="1134" 
d="M920 -336q-78 -10 -129 -10q-125 0 -179.5 41t-42.5 119q22 128 226 186h-797l217 1229h979l-57 -318h-609l-30 -163h569l-45 -261h-569l-31 -170h610l-55 -315l2 -2q-107 -18 -156 -38.5t-55 -53.5q-5 -23 16 -36t64 -13q33 0 108 14z" />
    <glyph glyph-name="eogonek" unicode="&#x119;" horiz-adv-x="1048" 
d="M580 754q-73 0 -116 -43.5t-69 -149.5h303q36 193 -118 193zM473 -31q-233 0 -352.5 144t-69.5 422q40 227 183.5 351t371.5 124q161 0 261.5 -64t133.5 -169.5t9 -244.5q-3 -18 -25 -104h-612q-7 -98 26.5 -140t112.5 -42q68 0 101.5 25.5t60.5 74.5l270 -84l4 4
q0 -1 -1 -2t-1 -2l8 -2q-52 -121 -139 -188q-47 -47 -94 -78q-36 -26 -53 -45t-21 -43q-9 -60 86 -60q36 0 119 17l-43 -248q-78 -10 -129 -10q-147 0 -210.5 46t-49.5 134q7 39 30 71.5t60 58t66.5 41t72.5 34.5q-89 -21 -176 -21z" />
    <glyph glyph-name="Ecaron" unicode="&#x11a;" horiz-adv-x="1134" 
d="M-2 0l217 1229h979l-57 -318h-609l-30 -163h569l-45 -261h-569l-31 -170h610l-55 -317h-979zM768 1309h-100l-240 270l115 119l211 -146l262 146l86 -119z" />
    <glyph glyph-name="ecaron" unicode="&#x11b;" horiz-adv-x="1048" 
d="M580 754q-73 0 -116 -43.5t-69 -149.5h303q36 193 -118 193zM473 -31q-233 0 -352.5 144t-69.5 422q40 227 183.5 351t371.5 124q161 0 261.5 -64t133.5 -169.5t9 -244.5q-3 -18 -25 -104h-612q-7 -98 26.5 -140t112.5 -42q68 0 101.5 25.5t60.5 74.5l280 -86
q-28 -64 -65 -113t-93 -91t-137.5 -64.5t-185.5 -22.5zM686 1071h-100l-234 305l121 119l197 -174l258 174l100 -119z" />
    <glyph glyph-name="Gcircumflex" unicode="&#x11c;" horiz-adv-x="1312" 
d="M420 -23q-95 0 -170.5 42t-126.5 126t-65 210t14 294q53 294 226 451t460 157q263 0 384 -106.5t132 -304.5l-363 -49q-8 71 -47.5 107t-134.5 36q-127 0 -196.5 -80t-98.5 -242q-29 -171 14 -257.5t175 -86.5q225 0 254 168h-238l43 252h582l-121 -694h-334l45 262h-27
q-143 -285 -407 -285zM1034 1298l-211 148l-264 -148l-88 119l336 271h100l240 -271z" />
    <glyph glyph-name="gcircumflex" unicode="&#x11d;" 
d="M870 1044l-194 173l-258 -173l-103 119l342 305h101l233 -305zM508 330q58 0 100.5 40.5t53.5 102.5l12 70l-2 -8q14 74 -18 117.5t-101 43.5q-134 0 -168 -182q-30 -184 123 -184zM51 530q42 238 141 359t242 121q105 0 171 -70t85 -201h19l43 240h348l-164 -930
q-68 -383 -500 -383q-240 0 -352.5 72t-120.5 217l346 53q6 -42 35.5 -61t91.5 -19q75 0 109.5 37.5t48.5 120.5l39 217h-19q-60 -112 -144.5 -180t-178.5 -68q-151 0 -216 123t-24 352z" />
    <glyph glyph-name="Gbreve" unicode="&#x11e;" horiz-adv-x="1312" 
d="M420 -23q-95 0 -170.5 42t-126.5 126t-65 210t14 294q53 294 226 451t460 157q263 0 384 -106.5t132 -304.5l-363 -49q-8 71 -47.5 107t-134.5 36q-127 0 -196.5 -80t-98.5 -242q-29 -171 14 -257.5t175 -86.5q225 0 254 168h-238l43 252h582l-121 -694h-334l45 262h-27
q-143 -285 -407 -285zM831 1542q66 0 111.5 28.5t69.5 102.5h147q-22 -177 -104.5 -258.5t-239.5 -81.5q-164 0 -229 87.5t-37 252.5h147q-1 -74 33.5 -102.5t101.5 -28.5z" />
    <glyph glyph-name="gbreve" unicode="&#x11f;" 
d="M508 330q58 0 100.5 40.5t53.5 102.5l12 70l-2 -8q14 74 -18 117.5t-101 43.5q-134 0 -168 -182q-30 -184 123 -184zM682 1292q66 0 111.5 33t72.5 119h148q-31 -193 -110 -277t-232 -84q-331 0 -269 361h148q-3 -86 31.5 -119t99.5 -33zM51 530q42 238 141 359t242 121
q105 0 171 -70t85 -201h19l43 240h348l-164 -930q-68 -383 -500 -383q-240 0 -352.5 72t-120.5 217l346 53q6 -42 35.5 -61t91.5 -19q75 0 109.5 37.5t48.5 120.5l39 217h-19q-60 -112 -144.5 -180t-178.5 -68q-151 0 -216 123t-24 352z" />
    <glyph glyph-name="Gdotaccent" unicode="&#x120;" horiz-adv-x="1312" 
d="M420 -23q-95 0 -170.5 42t-126.5 126t-65 210t14 294q53 294 226 451t460 157q263 0 384 -106.5t132 -304.5l-363 -49q-8 71 -47.5 107t-134.5 36q-127 0 -196.5 -80t-98.5 -242q-29 -171 14 -257.5t175 -86.5q225 0 254 168h-238l43 252h582l-121 -694h-334l45 262h-27
q-143 -285 -407 -285zM668 1628h313l-51 -299h-314z" />
    <glyph glyph-name="gdotaccent" unicode="&#x121;" horiz-adv-x="1093" 
d="M539 1423h313l-51 -299h-314zM508 330q58 0 100.5 40.5t53.5 102.5l12 70l-2 -8q14 74 -18 117.5t-101 43.5q-134 0 -168 -182q-30 -184 123 -184zM51 530q42 238 141 359t242 121q105 0 171 -70t85 -201h19l43 240h348l-164 -930q-68 -383 -500 -383q-240 0 -352.5 72
t-120.5 217l346 53q6 -42 35.5 -61t91.5 -19q75 0 109.5 37.5t48.5 120.5l39 217h-19q-60 -112 -144.5 -180t-178.5 -68q-151 0 -216 123t-24 352z" />
    <glyph glyph-name="uni0122" unicode="&#x122;" horiz-adv-x="1312" 
d="M420 -23q-95 0 -170.5 42t-126.5 126t-65 210t14 294q53 294 226 451t460 157q263 0 384 -106.5t132 -304.5l-363 -49q-8 71 -47.5 107t-134.5 36q-127 0 -196.5 -80t-98.5 -242q-29 -171 14 -257.5t175 -86.5q225 0 254 168h-238l43 252h582l-121 -694h-334l45 262h-27
q-143 -285 -407 -285zM440 -98h256l-174 -320h-213l4 19z" />
    <glyph glyph-name="uni0123" unicode="&#x123;" 
d="M741 1102h-258l176 319h211l-2 -18zM508 330q58 0 100.5 40.5t53.5 102.5l12 70l-2 -8q14 74 -18 117.5t-101 43.5q-134 0 -168 -182q-30 -184 123 -184zM51 530q42 238 141 359t242 121q105 0 171 -70t85 -201h19l43 240h348l-164 -930q-68 -383 -500 -383
q-240 0 -352.5 72t-120.5 217l346 53q6 -42 35.5 -61t91.5 -19q75 0 109.5 37.5t48.5 120.5l39 217h-19q-60 -112 -144.5 -180t-178.5 -68q-151 0 -216 123t-24 352z" />
    <glyph glyph-name="Hcircumflex" unicode="&#x124;" horiz-adv-x="1314" 
d="M1145 0h-369l80 446h-410l-79 -446h-369l217 1229h369l-80 -453h409l80 453h369zM1047 1298l-211 148l-265 -148l-88 119l336 271h101l239 -271z" />
    <glyph glyph-name="hcircumflex" unicode="&#x125;" horiz-adv-x="1087" 
d="M436 537l-94 -537h-348l231 1315h348l-106 -600h14q147 295 363 295q124 0 175.5 -94t22.5 -263l-114 -653h-348l100 573q11 59 -11 91t-73 32q-62 0 -105 -43.5t-55 -115.5zM639 1335l-211 148l-264 -148l-88 119l336 270h100l240 -270z" />
    <glyph glyph-name="Hbar" unicode="&#x126;" horiz-adv-x="1435" 
d="M958 694l25 140h-410l-24 -140h409zM1204 0h-368l67 385h-409l-68 -385h-369l148 834h-119l39 225h119l30 170h369l-31 -170h410l31 170h368l-30 -170h120l-38 -225h-121z" />
    <glyph glyph-name="hbar" unicode="&#x127;" horiz-adv-x="1107" 
d="M453 537l-95 -537h-348l185 1051h-89l29 168h90l17 96h348l-17 -96h256l-28 -168h-258l-60 -336h15q147 295 362 295q124 0 176 -94t23 -263l-115 -653h-348l100 573q11 59 -11 91t-73 32q-62 0 -104.5 -43.5t-54.5 -115.5z" />
    <glyph glyph-name="Itilde" unicode="&#x128;" horiz-adv-x="536" 
d="M367 0h-369l217 1229h369zM285 1696q42 0 76 -16t55 -38.5t38.5 -45t36 -38.5t37.5 -16q38 0 56.5 33t31.5 108h140q-2 -28 -11 -96q-49 -272 -223 -272q-37 0 -67.5 16t-51 38.5t-38.5 44.5t-39.5 38t-46.5 16q-33 0 -52.5 -32.5t-33.5 -108.5h-140q2 38 10 94
q24 135 83 205t139 70z" />
    <glyph glyph-name="itilde" unicode="&#x129;" horiz-adv-x="507" 
d="M342 0h-348l172 979h348zM270 1456q42 0 76 -16t55.5 -38t39 -44.5t36 -38.5t37.5 -16q38 0 56.5 33t31.5 108h139q-2 -40 -10 -96q-49 -273 -223 -273q-37 0 -68 16t-51 38.5t-38.5 45t-40 38.5t-46.5 16q-33 0 -52.5 -33t-33.5 -109h-139q2 40 10 95q24 135 82.5 204.5
t138.5 69.5z" />
    <glyph glyph-name="Imacron" unicode="&#x12a;" horiz-adv-x="536" 
d="M367 0h-369l217 1229h369zM178 1583h565l-41 -225h-563z" />
    <glyph glyph-name="imacron" unicode="&#x12b;" horiz-adv-x="507" 
d="M342 0h-348l172 979h348zM131 1358h553l-39 -228h-555z" />
    <glyph glyph-name="Ibreve" unicode="&#x12c;" horiz-adv-x="536" 
d="M367 0h-369l217 1229h369zM455 1542q65 0 110.5 28.5t69.5 102.5h147q-22 -177 -104.5 -258.5t-239.5 -81.5q-164 0 -229 87.5t-37 252.5h147q-1 -74 34 -102.5t102 -28.5z" />
    <glyph glyph-name="ibreve" unicode="&#x12d;" horiz-adv-x="507" 
d="M342 0h-348l172 979h348zM395 1292q66 0 112 33t73 119h147q-31 -193 -110 -277t-232 -84q-330 0 -268 361h147q-3 -86 31.5 -119t99.5 -33z" />
    <glyph glyph-name="Iogonek" unicode="&#x12e;" horiz-adv-x="536" 
d="M180 -346q-125 0 -179 41t-42 119q22 128 225 186h-186l217 1229h369l-217 -1227l2 -2q-107 -18 -156 -38.5t-55 -53.5q-5 -23 16 -36t64 -13q33 0 108 14l-37 -209q-78 -10 -129 -10z" />
    <glyph glyph-name="iogonek" unicode="&#x12f;" horiz-adv-x="507" 
d="M532 1083h-348l41 232h348zM156 -346q-125 0 -179.5 41t-42.5 119q22 128 226 186h-166l172 979h348l-172 -977l2 -2q-107 -18 -156 -38.5t-55 -53.5q-5 -23 16 -36t64 -13q34 0 109 14l-37 -209q-78 -10 -129 -10z" />
    <glyph glyph-name="Idotaccent" unicode="&#x130;" horiz-adv-x="536" 
d="M367 0h-369l217 1229h369zM293 1628h313l-51 -299h-313z" />
    <glyph glyph-name="dotlessi" unicode="&#x131;" horiz-adv-x="507" 
d="M342 0h-348l172 979h348z" />
    <glyph glyph-name="IJ" unicode="&#x132;" horiz-adv-x="1196" 
d="M367 0h-369l217 1229h369zM729 403l145 826h369l-145 -826q-36 -198 -148 -308.5t-311 -110.5q-89 0 -168 14l66 313q55 -10 86 -10q43 0 70.5 28t35.5 74z" />
    <glyph glyph-name="ij" unicode="&#x133;" horiz-adv-x="1032" 
d="M532 1083h-348l41 232h348zM342 0h-348l172 979h348zM877 55q-16 -92 -45 -159t-78.5 -119t-127 -78.5t-182.5 -26.5q-31 0 -110 9l59 294q40 -4 58 -4q63 0 73 72l166 936h348zM1057 1083h-348l41 232h348z" />
    <glyph glyph-name="Jcircumflex" unicode="&#x134;" horiz-adv-x="659" 
d="M193 403l145 826h369l-146 -826q-36 -198 -148 -308.5t-311 -110.5q-89 0 -168 14l66 313q55 -10 86 -10q43 0 71 28t36 74zM782 1298l-211 148l-264 -148l-88 119l336 271h100l240 -271z" />
    <glyph glyph-name="jcircumflex" unicode="&#x135;" horiz-adv-x="540" 
d="M369 61q-36 -204 -145.5 -311.5t-319.5 -107.5q-46 0 -90 8l67 299q36 -4 58 -4q63 0 73 71l170 963h348zM543 1073l-148 135l-192 -135l-82 109l264 250h100l177 -250z" />
    <glyph glyph-name="uni0136" unicode="&#x136;" horiz-adv-x="1210" 
d="M731 0l-227 430h-62l-75 -430h-369l217 1229h369l-90 -506h51l375 506h436l-4 -23l-547 -635l340 -548l-4 -23h-410zM416 -98h256l-174 -320h-213l4 19z" />
    <glyph glyph-name="uni0137" unicode="&#x137;" horiz-adv-x="1060" 
d="M573 1315l-122 -694h45l239 358h418l-4 -23l-391 -456l237 -477l-4 -23h-381l-149 373h-53l-66 -373h-348l231 1315h348zM358 -98h256l-174 -320h-213l4 19z" />
    <glyph glyph-name="kgreenlandic" unicode="&#x138;" horiz-adv-x="1060" 
d="M596 0l-143 373h-45l-66 -373h-348l172 979h348l-63 -358h55l252 358h395l-4 -23l-387 -452l233 -481l-4 -23h-395z" />
    <glyph glyph-name="Lacute" unicode="&#x139;" horiz-adv-x="987" 
d="M324 1317l-35 174l565 201l45 -246zM584 1229l-160 -901h496l-58 -328h-864l217 1229h369z" />
    <glyph glyph-name="lacute" unicode="&#x13a;" horiz-adv-x="507" 
d="M573 1315l-231 -1315h-348l231 1315h348zM236 1430l-35 174l565 200l45 -245z" />
    <glyph glyph-name="uni013B" unicode="&#x13b;" horiz-adv-x="987" 
d="M584 1229l-160 -901h496l-58 -328h-864l217 1229h369zM307 -98h256l-174 -320h-213l4 19z" />
    <glyph glyph-name="uni013C" unicode="&#x13c;" horiz-adv-x="507" 
d="M573 1315l-231 -1315h-348l231 1315h348zM55 -98h256l-174 -320h-213l4 19z" />
    <glyph glyph-name="Lcaron" unicode="&#x13d;" horiz-adv-x="987" 
d="M893 1243h252l-160 -518h-211zM584 1229l-160 -901h496l-58 -328h-864l217 1229h369z" />
    <glyph glyph-name="lcaron" unicode="&#x13e;" horiz-adv-x="792" 
d="M573 1315l-231 -1315h-348l231 1315h348zM694 1315h252l-160 -518h-211z" />
    <glyph glyph-name="Ldot" unicode="&#x13f;" horiz-adv-x="987" 
d="M803 877h299l-49 -287h-299zM584 1229l-160 -901h496l-58 -328h-864l217 1229h369z" />
    <glyph glyph-name="ldot" unicode="&#x140;" horiz-adv-x="841" 
d="M573 1315l-231 -1315h-348l231 1315h348zM553 713h313l-51 -299h-313z" />
    <glyph glyph-name="Lslash" unicode="&#x141;" horiz-adv-x="1048" 
d="M645 1229l-76 -432l265 102l-41 -229l-265 -103l-43 -239h496l-57 -328h-865l74 416l-121 -47l39 225l121 47l104 588h369z" />
    <glyph glyph-name="lslash" unicode="&#x142;" horiz-adv-x="630" 
d="M635 1315l-90 -510l139 65l-39 -219l-139 -63l-103 -588h-348l72 414l-135 -64l39 215l135 64l121 686h348z" />
    <glyph glyph-name="Nacute" unicode="&#x143;" horiz-adv-x="1347" 
d="M698 0l-106 399q-46 166 -100 508l-23 -2q-41 -392 -78 -594l-55 -311h-338l217 1229h508l90 -328q57 -202 94 -522l27 2q27 308 65 524l58 324h338l-217 -1229h-480zM651 1317l-35 174l566 201l45 -246z" />
    <glyph glyph-name="nacute" unicode="&#x144;" horiz-adv-x="1087" 
d="M436 537l-94 -537h-348l172 979h338l-47 -264h22q68 148 160 221.5t199 73.5q127 0 181 -94t25 -263l-116 -653h-348l100 573q11 59 -11 91t-73 32q-62 0 -105 -43.5t-55 -115.5zM524 1042l-65 166l538 273l93 -230z" />
    <glyph glyph-name="uni0145" unicode="&#x145;" horiz-adv-x="1347" 
d="M698 0l-106 399q-46 166 -100 508l-23 -2q-41 -392 -78 -594l-55 -311h-338l217 1229h508l90 -328q57 -202 94 -522l27 2q27 308 65 524l58 324h338l-217 -1229h-480zM475 -98h256l-174 -320h-213l4 19z" />
    <glyph glyph-name="uni0146" unicode="&#x146;" horiz-adv-x="1087" 
d="M436 537l-94 -537h-348l172 979h338l-47 -264h22q68 148 160 221.5t199 73.5q127 0 181 -94t25 -263l-116 -653h-348l100 573q11 59 -11 91t-73 32q-62 0 -105 -43.5t-55 -115.5zM348 -98h256l-174 -320h-213l4 19z" />
    <glyph glyph-name="Ncaron" unicode="&#x147;" horiz-adv-x="1347" 
d="M698 0l-106 399q-46 166 -100 508l-23 -2q-41 -392 -78 -594l-55 -311h-338l217 1229h508l90 -328q57 -202 94 -522l27 2q27 308 65 524l58 324h338l-217 -1229h-480zM868 1309h-100l-240 270l115 119l211 -146l262 146l86 -119z" />
    <glyph glyph-name="ncaron" unicode="&#x148;" horiz-adv-x="1087" 
d="M436 537l-94 -537h-348l172 979h338l-47 -264h22q68 148 160 221.5t199 73.5q127 0 181 -94t25 -263l-116 -653h-348l100 573q11 59 -11 91t-73 32q-62 0 -105 -43.5t-55 -115.5zM698 1071h-100l-233 305l120 119l197 -174l258 174l100 -119z" />
    <glyph glyph-name="napostrophe" unicode="&#x149;" horiz-adv-x="1398" 
d="M233 1229h351l-328 -598h-193l3 12zM743 537l-94 -537h-348l172 979h338l-47 -264h22q68 148 160 221.5t199 73.5q127 0 181.5 -94t25.5 -263l-117 -653h-348l100 573q11 59 -11 91t-73 32q-62 0 -105 -43.5t-55 -115.5z" />
    <glyph glyph-name="Eng" unicode="&#x14a;" horiz-adv-x="1347" 
d="M-2 0l217 1229h514l109 -301q53 -144 106 -408l8 2q23 238 52 404l53 303h338l-207 -1172q-12 -68 -33 -124t-57 -106t-84.5 -84t-118.5 -53.5t-156 -19.5q-84 0 -172 15l58 288q82 -16 108 -16q81 0 92 66l-163 368q-37 82 -90 232t-89 276h-14q-37 -350 -78 -588
l-55 -311h-338z" />
    <glyph glyph-name="eng" unicode="&#x14b;" horiz-adv-x="1087" 
d="M588 47l92 526q11 59 -11 91t-73 32q-62 0 -105 -43.5t-55 -115.5l-94 -537h-348l172 979h338l-47 -264h24q66 147 160.5 221t204.5 74q125 0 177 -87.5t24 -248.5l-111 -623q-32 -191 -133 -285t-305 -94q-53 0 -109 9l66 299q50 -5 57 -5q63 0 76 72z" />
    <glyph glyph-name="Omacron" unicode="&#x14c;" horiz-adv-x="1343" 
d="M616 -31q-311 0 -454.5 188.5t-83.5 518.5q47 275 233.5 429.5t458.5 154.5q304 0 451.5 -187.5t91.5 -515.5q-50 -278 -232.5 -433t-464.5 -155zM647 283q132 0 205 80.5t102 238.5q57 338 -213 338q-249 0 -303 -301q-65 -356 209 -356zM582 1583h565l-41 -225h-563z
" />
    <glyph glyph-name="omacron" unicode="&#x14d;" horiz-adv-x="1110" 
d="M498 -31q-256 0 -375 152.5t-72 419.5q38 221 188.5 345t376.5 124q253 0 372 -152t73 -420q-39 -220 -190.5 -344.5t-372.5 -124.5zM588 721q-86 0 -131.5 -53.5t-65.5 -163.5q-21 -122 9.5 -182t123.5 -60q86 0 132 52.5t65 162.5q21 122 -9.5 183t-123.5 61zM432 1358
h553l-39 -228h-555z" />
    <glyph glyph-name="Obreve" unicode="&#x14e;" horiz-adv-x="1343" 
d="M616 -31q-311 0 -454.5 188.5t-83.5 518.5q47 275 233.5 429.5t458.5 154.5q304 0 451.5 -187.5t91.5 -515.5q-50 -278 -232.5 -433t-464.5 -155zM647 283q132 0 205 80.5t102 238.5q57 338 -213 338q-249 0 -303 -301q-65 -356 209 -356zM858 1542q65 0 110.5 28.5
t69.5 102.5h148q-22 -177 -104.5 -258.5t-239.5 -81.5q-164 0 -229.5 87.5t-37.5 252.5h148q-1 -74 33.5 -102.5t101.5 -28.5z" />
    <glyph glyph-name="obreve" unicode="&#x14f;" horiz-adv-x="1110" 
d="M498 -31q-256 0 -375 152.5t-72 419.5q38 221 188.5 345t376.5 124q253 0 372 -152t73 -420q-39 -220 -190.5 -344.5t-372.5 -124.5zM588 721q-86 0 -131.5 -53.5t-65.5 -163.5q-21 -122 9.5 -182t123.5 -60q86 0 132 52.5t65 162.5q21 122 -9.5 183t-123.5 61zM696 1292
q66 0 112 33t73 119h147q-31 -193 -110 -277t-232 -84q-330 0 -268 361h147q-3 -86 31.5 -119t99.5 -33z" />
    <glyph glyph-name="Ohungarumlaut" unicode="&#x150;" horiz-adv-x="1343" 
d="M616 -31q-311 0 -454.5 188.5t-83.5 518.5q47 275 233.5 429.5t458.5 154.5q304 0 451.5 -187.5t91.5 -515.5q-50 -278 -232.5 -433t-464.5 -155zM647 283q132 0 205 80.5t102 238.5q57 338 -213 338q-249 0 -303 -301q-65 -356 209 -356zM721 1309l-139 86l211 321
l180 -112zM1028 1309l-129 100l238 307l168 -125z" />
    <glyph glyph-name="ohungarumlaut" unicode="&#x151;" horiz-adv-x="1110" 
d="M498 -31q-256 0 -375 152.5t-72 419.5q38 221 188.5 345t376.5 124q253 0 372 -152t73 -420q-39 -220 -190.5 -344.5t-372.5 -124.5zM588 721q-86 0 -131.5 -53.5t-65.5 -163.5q-21 -122 9.5 -182t123.5 -60q86 0 132 52.5t65 162.5q21 122 -9.5 183t-123.5 61zM526 1057
l-129 80l232 346l170 -105zM815 1059l-117 96l265 326l157 -119z" />
    <glyph glyph-name="OE" unicode="&#x152;" horiz-adv-x="1857" 
d="M678 317h98l107 594h-133q-130 0 -210 -70t-102 -196q-29 -161 33 -244.5t207 -83.5zM662 0q-322 0 -479 182.5t-99 509.5q45 257 234.5 397t472.5 140h1126l-57 -318h-609l-30 -163h569l-45 -261h-569l-31 -170h610l-55 -317h-1038z" />
    <glyph glyph-name="oe" unicode="&#x153;" horiz-adv-x="1732" 
d="M594 721q-89 0 -136 -55.5t-67 -167.5q-22 -120 6.5 -178t118.5 -58q89 0 136.5 53.5t68.5 163.5q21 122 -8 182t-119 60zM1270 754q-76 0 -120.5 -43.5t-70.5 -149.5h303q36 193 -112 193zM1210 -31q-298 0 -350 248h-24q-65 -120 -165 -184t-229 -64q-226 0 -332 152
t-59 416q38 225 173.5 349t348.5 124q147 0 237 -66.5t118 -191.5h26q131 258 406 258q204 0 289 -124t47 -337q-10 -56 -27 -121h-610q-6 -99 28 -140.5t117 -41.5q65 0 97 27t59 81l268 -98q-22 -50 -46.5 -89.5t-61 -77.5t-79.5 -63.5t-102 -41t-129 -15.5z" />
    <glyph glyph-name="Racute" unicode="&#x154;" horiz-adv-x="1230" 
d="M690 922h-160l-49 -275h181q86 0 125.5 29t50.5 94q13 82 -22.5 117t-125.5 35zM711 0l-142 379h-135l-67 -379h-369l213 1229h553q245 0 360 -123.5t74 -353.5q-41 -243 -260 -326l205 -403l-4 -23h-428zM573 1317l-34 174l565 201l45 -246z" />
    <glyph glyph-name="racute" unicode="&#x155;" horiz-adv-x="745" 
d="M342 0h-348l172 979h328l-62 -344h27q36 94 69.5 159.5t62 103t61.5 58.5t60.5 27t65.5 6h25l-72 -401h-65q-137 0 -185 -36t-67 -146zM373 1042l-66 166l539 273l92 -230z" />
    <glyph glyph-name="uni0156" unicode="&#x156;" horiz-adv-x="1230" 
d="M406 -98h256l-175 -320h-213l5 19zM690 922h-160l-49 -275h181q86 0 125.5 29t50.5 94q13 82 -22.5 117t-125.5 35zM711 0l-142 379h-135l-67 -379h-369l213 1229h553q245 0 360 -123.5t74 -353.5q-41 -243 -260 -326l205 -403l-4 -23h-428z" />
    <glyph glyph-name="uni0157" unicode="&#x157;" horiz-adv-x="745" 
d="M342 0h-348l172 979h328l-62 -344h27q36 94 69.5 159.5t62 103t61.5 58.5t60.5 27t65.5 6h25l-72 -401h-65q-137 0 -185 -36t-67 -146zM47 -98h256l-174 -320h-213l4 19z" />
    <glyph glyph-name="Rcaron" unicode="&#x158;" horiz-adv-x="1230" 
d="M690 922h-160l-49 -275h181q86 0 125.5 29t50.5 94q13 82 -22.5 117t-125.5 35zM711 0l-142 379h-135l-67 -379h-369l213 1229h553q245 0 360 -123.5t74 -353.5q-41 -243 -260 -326l205 -403l-4 -23h-428zM791 1309h-101l-239 270l114 119l211 -146l262 146l86 -119z" />
    <glyph glyph-name="rcaron" unicode="&#x159;" horiz-adv-x="745" 
d="M342 0h-348l172 979h328l-62 -344h27q36 94 69.5 159.5t62 103t61.5 58.5t60.5 27t65.5 6h25l-72 -401h-65q-137 0 -185 -36t-67 -146zM547 1071h-101l-233 305l121 119l196 -174l258 174l101 -119z" />
    <glyph glyph-name="Sacute" unicode="&#x15a;" horiz-adv-x="1196" 
d="M551 -31q-124 0 -218.5 21t-152 54.5t-95 84.5t-53.5 102.5t-22 116.5l363 76q22 -164 221 -164q140 0 154 72q10 53 -35 84.5t-181 52.5q-126 20 -211 59.5t-127.5 96.5t-55.5 131t5 162q28 167 167.5 254.5t389.5 87.5q136 0 233 -27.5t151.5 -78.5t80 -111t31.5 -138
l-377 -69q-8 76 -43 109.5t-125 33.5q-135 0 -147 -74q-6 -21 0 -41t25 -37t66.5 -32.5t123.5 -28.5q109 -20 188 -53.5t123 -75.5t69 -94t26 -108t-7 -118q-64 -348 -567 -348zM535 1317l-35 174l565 201l45 -246z" />
    <glyph glyph-name="sacute" unicode="&#x15b;" horiz-adv-x="991" 
d="M428 -31q-98 0 -172.5 16t-121.5 42t-77.5 65.5t-44.5 82t-18 95.5l319 64q12 -68 47 -97.5t99 -29.5q98 0 106 51q7 36 -25 61.5t-141 51.5q-191 46 -260 133t-43 227q51 279 465 279q109 0 186 -21.5t119.5 -63t63 -87.5t28.5 -109l-317 -63q-6 61 -30.5 86.5
t-84.5 25.5q-95 0 -104 -51q-3 -18 0.5 -30.5t18 -27.5t49 -28.5t90.5 -26.5q108 -25 179 -63t102 -84t40.5 -101.5t-4.5 -113.5q-49 -283 -469 -283zM475 1042l-65 166l538 273l92 -230z" />
    <glyph glyph-name="Scircumflex" unicode="&#x15c;" horiz-adv-x="1196" 
d="M551 -31q-124 0 -218.5 21t-152 54.5t-95 84.5t-53.5 102.5t-22 116.5l363 76q22 -164 221 -164q140 0 154 72q10 53 -35 84.5t-181 52.5q-126 20 -211 59.5t-127.5 96.5t-55.5 131t5 162q28 167 167.5 254.5t389.5 87.5q136 0 233 -27.5t151.5 -78.5t80 -111t31.5 -138
l-377 -69q-8 76 -43 109.5t-125 33.5q-135 0 -147 -74q-6 -21 0 -41t25 -37t66.5 -32.5t123.5 -28.5q109 -20 188 -53.5t123 -75.5t69 -94t26 -108t-7 -118q-64 -348 -567 -348zM977 1298l-211 148l-264 -148l-88 119l336 271h100l240 -271z" />
    <glyph glyph-name="scircumflex" unicode="&#x15d;" horiz-adv-x="991" 
d="M428 -31q-98 0 -172.5 16t-121.5 42t-77.5 65.5t-44.5 82t-18 95.5l319 64q12 -68 47 -97.5t99 -29.5q98 0 106 51q7 36 -25 61.5t-141 51.5q-191 46 -260 133t-43 227q51 279 465 279q109 0 186 -21.5t119.5 -63t63 -87.5t28.5 -109l-317 -63q-6 61 -30.5 86.5
t-84.5 25.5q-95 0 -104 -51q-3 -18 0.5 -30.5t18 -27.5t49 -28.5t90.5 -26.5q108 -25 179 -63t102 -84t40.5 -101.5t-4.5 -113.5q-49 -283 -469 -283zM834 1044l-195 173l-258 -173l-102 119l342 305h100l233 -305z" />
    <glyph glyph-name="uni015E" unicode="&#x15e;" horiz-adv-x="1196" 
d="M551 -31h-27l-30 -57q29 10 67 10q147 0 125 -127q-9 -53 -62.5 -96t-156.5 -43q-128 0 -199 55l76 96q65 -45 141 -45q61 0 68 45q5 21 -8 32t-47 11q-32 0 -72 -12l-76 31l58 108q-89 11 -157.5 36.5t-111 59.5t-70.5 80.5t-41 92.5t-18 102l363 76q22 -164 221 -164
q140 0 154 72q10 53 -35 84.5t-181 52.5q-126 20 -211 59.5t-127.5 96.5t-55.5 131t5 162q28 167 167.5 254.5t389.5 87.5q136 0 233 -27.5t151.5 -78.5t80 -111t31.5 -138l-377 -69q-8 76 -43 109.5t-125 33.5q-135 0 -147 -74q-6 -21 0 -41t25 -37t66.5 -32.5t123.5 -28.5
q109 -20 188 -53.5t123 -75.5t69 -94t26 -108t-7 -118q-64 -348 -567 -348z" />
    <glyph glyph-name="uni015F" unicode="&#x15f;" horiz-adv-x="991" 
d="M428 -31h-12l-31 -57q29 10 68 10q147 0 125 -127q-9 -53 -63 -96t-157 -43q-127 0 -198 55l76 96q65 -45 141 -45q60 0 67 45q5 21 -8 32t-47 11q-32 0 -72 -12l-75 31l57 108q-160 22 -227.5 97.5t-77.5 195.5l319 64q12 -68 47 -97.5t99 -29.5q98 0 106 51
q7 36 -25 61.5t-141 51.5q-191 46 -260 133t-43 227q51 279 465 279q109 0 186 -21.5t119.5 -63t63 -87.5t28.5 -109l-317 -63q-6 61 -30.5 86.5t-84.5 25.5q-95 0 -104 -51q-3 -18 0.5 -30.5t18 -27.5t49 -28.5t90.5 -26.5q108 -25 179 -63t102 -84t40.5 -101.5
t-4.5 -113.5q-49 -283 -469 -283z" />
    <glyph glyph-name="Scaron" unicode="&#x160;" horiz-adv-x="1196" 
d="M551 -31q-124 0 -218.5 21t-152 54.5t-95 84.5t-53.5 102.5t-22 116.5l363 76q22 -164 221 -164q140 0 154 72q10 53 -35 84.5t-181 52.5q-126 20 -211 59.5t-127.5 96.5t-55.5 131t5 162q28 167 167.5 254.5t389.5 87.5q136 0 233 -27.5t151.5 -78.5t80 -111t31.5 -138
l-377 -69q-8 76 -43 109.5t-125 33.5q-135 0 -147 -74q-6 -21 0 -41t25 -37t66.5 -32.5t123.5 -28.5q109 -20 188 -53.5t123 -75.5t69 -94t26 -108t-7 -118q-64 -348 -567 -348zM782 1309h-100l-240 270l115 119l211 -146l262 146l86 -119z" />
    <glyph glyph-name="scaron" unicode="&#x161;" horiz-adv-x="991" 
d="M428 -31q-98 0 -172.5 16t-121.5 42t-77.5 65.5t-44.5 82t-18 95.5l319 64q12 -68 47 -97.5t99 -29.5q98 0 106 51q7 36 -25 61.5t-141 51.5q-191 46 -260 133t-43 227q51 279 465 279q109 0 186 -21.5t119.5 -63t63 -87.5t28.5 -109l-317 -63q-6 61 -30.5 86.5
t-84.5 25.5q-95 0 -104 -51q-3 -18 0.5 -30.5t18 -27.5t49 -28.5t90.5 -26.5q108 -25 179 -63t102 -84t40.5 -101.5t-4.5 -113.5q-49 -283 -469 -283zM649 1071h-100l-234 305l121 119l197 -174l258 174l100 -119z" />
    <glyph glyph-name="Tcommaaccent" unicode="&#x162;" horiz-adv-x="1064" 
d="M96 891l60 338h1015l-59 -338h-324l-157 -891h-170l-49 -88q29 10 67 10q147 0 125 -127q-9 -53 -62.5 -96t-156.5 -43q-128 0 -199 55l76 96q65 -45 141 -45q61 0 68 45q5 21 -8 32t-47 11q-32 0 -72 -12l-76 31l70 131h-76l158 891h-324z" />
    <glyph glyph-name="tcommaaccent" unicode="&#x163;" horiz-adv-x="751" 
d="M102 362l62 347h-101l48 270h100l43 240h348l-43 -240h223l-47 -270h-223l-57 -328q-8 -44 7.5 -64t61.5 -20q38 0 123 22l-18 -311q-52 -16 -77 -22t-66.5 -11.5t-92.5 -5.5q-43 0 -92 11l-37 -68q29 10 68 10q147 0 125 -127q-9 -53 -62.5 -96t-156.5 -43
q-128 0 -199 55l76 96q65 -45 141 -45q61 0 68 45q5 21 -8.5 32t-47.5 11q-31 0 -71 -12l-76 31l82 151q-71 51 -95.5 141t-5.5 201z" />
    <glyph glyph-name="Tcaron" unicode="&#x164;" horiz-adv-x="1064" 
d="M1112 891h-324l-157 -891h-369l158 891h-324l60 338h1015zM727 1309h-100l-240 270l115 119l211 -146l262 146l86 -119z" />
    <glyph glyph-name="tcaron" unicode="&#x165;" horiz-adv-x="772" 
d="M745 1411h240l-106 -326h-199zM102 362l62 347h-101l48 270h100l43 240h348l-43 -240h223l-47 -270h-223l-57 -328q-8 -44 7.5 -64t61.5 -20q38 0 123 22l-18 -311q-52 -16 -77 -22t-66.5 -11.5t-92.5 -5.5q-73 0 -129.5 20.5t-91.5 56.5t-55.5 85.5t-22 108t7.5 122.5z
" />
    <glyph glyph-name="Tbar" unicode="&#x166;" horiz-adv-x="1081" 
d="M106 891l60 338h1016l-60 -338h-323l-51 -293h239l-33 -192h-241l-72 -406h-369l72 406h-242l33 192h244l51 293h-324z" />
    <glyph glyph-name="tbar" unicode="&#x167;" horiz-adv-x="751" 
d="M102 362l11 62h-72l31 172h71l21 113h-101l48 270h100l43 240h348l-43 -240h223l-47 -270h-223l-20 -113h184l-31 -172h-182l-8 -43q-8 -44 7.5 -64t61.5 -20q38 0 123 22l-18 -311q-52 -16 -77 -22t-66.5 -11.5t-92.5 -5.5q-73 0 -129.5 20.5t-91.5 56.5t-55.5 85.5
t-22 108t7.5 122.5z" />
    <glyph glyph-name="Utilde" unicode="&#x168;" horiz-adv-x="1300" 
d="M631 295q105 0 154 53.5t69 165.5l127 715h369l-136 -764q-42 -238 -197.5 -366t-408.5 -128q-299 0 -431 144.5t-85 414.5l123 699h369l-127 -715q-19 -106 18.5 -162.5t155.5 -56.5zM668 1696q42 0 76 -16t55 -38.5t38.5 -45t36 -38.5t37.5 -16q38 0 56.5 33t31.5 108
h140q-2 -28 -11 -96q-49 -272 -223 -272q-37 0 -67.5 16t-51 38.5t-38.5 44.5t-39.5 38t-46.5 16q-33 0 -53 -32.5t-34 -108.5h-139q2 38 10 94q24 135 83 205t139 70z" />
    <glyph glyph-name="utilde" unicode="&#x169;" 
d="M588 0l47 266h-23q-68 -148 -160 -222.5t-198 -74.5q-127 0 -181.5 94t-25.5 263l117 653h348l-100 -571q-11 -59 11 -92t73 -33q62 0 104.5 44.5t54.5 116.5l95 535h348l-172 -979h-338zM561 1456q42 0 76 -16t55.5 -38t39 -44.5t36 -38.5t37.5 -16q38 0 56.5 33
t31.5 108h139q-2 -40 -10 -96q-49 -273 -223 -273q-37 0 -68 16t-51 38.5t-38.5 45t-40 38.5t-46.5 16q-33 0 -52.5 -33t-33.5 -109h-139q2 40 10 95q24 135 82.5 204.5t138.5 69.5z" />
    <glyph glyph-name="Umacron" unicode="&#x16a;" horiz-adv-x="1300" 
d="M631 295q105 0 154 53.5t69 165.5l127 715h369l-136 -764q-42 -238 -197.5 -366t-408.5 -128q-299 0 -431 144.5t-85 414.5l123 699h369l-127 -715q-19 -106 18.5 -162.5t155.5 -56.5zM561 1583h565l-41 -225h-563z" />
    <glyph glyph-name="umacron" unicode="&#x16b;" 
d="M588 0l47 266h-23q-68 -148 -160 -222.5t-198 -74.5q-127 0 -181.5 94t-25.5 263l117 653h348l-100 -571q-11 -59 11 -92t73 -33q62 0 104.5 44.5t54.5 116.5l95 535h348l-172 -979h-338zM422 1358h553l-39 -228h-555z" />
    <glyph glyph-name="Ubreve" unicode="&#x16c;" horiz-adv-x="1300" 
d="M631 295q105 0 154 53.5t69 165.5l127 715h369l-136 -764q-42 -238 -197.5 -366t-408.5 -128q-299 0 -431 144.5t-85 414.5l123 699h369l-127 -715q-19 -106 18.5 -162.5t155.5 -56.5zM838 1542q65 0 110.5 28.5t69.5 102.5h147q-22 -177 -104.5 -258.5t-239.5 -81.5
q-164 0 -229 87.5t-37 252.5h147q-1 -74 34 -102.5t102 -28.5z" />
    <glyph glyph-name="ubreve" unicode="&#x16d;" 
d="M588 0l47 266h-23q-68 -148 -160 -222.5t-198 -74.5q-127 0 -181.5 94t-25.5 263l117 653h348l-100 -571q-11 -59 11 -92t73 -33q62 0 104.5 44.5t54.5 116.5l95 535h348l-172 -979h-338zM686 1292q66 0 111.5 33t72.5 119h148q-31 -193 -110 -277t-232 -84
q-330 0 -268 361h147q-3 -86 31.5 -119t99.5 -33z" />
    <glyph glyph-name="Uring" unicode="&#x16e;" horiz-adv-x="1300" 
d="M631 295q105 0 154 53.5t69 165.5l127 715h369l-136 -764q-42 -238 -197.5 -366t-408.5 -128q-299 0 -431 144.5t-85 414.5l123 699h369l-127 -715q-19 -106 18.5 -162.5t155.5 -56.5zM1079 1522q-17 -97 -90.5 -155t-179.5 -58q-119 0 -177 69.5t-36 184.5q15 94 88 150
t180 56q117 0 176 -67.5t39 -179.5zM748 1546q-7 -41 14.5 -65.5t64.5 -24.5q39 0 66 21t33 57q6 40 -16 65t-64 25q-39 0 -65.5 -21t-32.5 -57z" />
    <glyph glyph-name="uring" unicode="&#x16f;" 
d="M588 0l47 266h-23q-68 -148 -160 -222.5t-198 -74.5q-127 0 -181.5 94t-25.5 263l117 653h348l-100 -571q-11 -59 11 -92t73 -33q62 0 104.5 44.5t54.5 116.5l95 535h348l-172 -979h-338zM604 1321q-8 -45 13 -72.5t65 -27.5q39 0 64.5 24t31.5 66q8 44 -13.5 72
t-64.5 28q-38 0 -64 -24.5t-32 -65.5zM932 1294q-19 -104 -89.5 -161.5t-178.5 -57.5q-119 0 -177.5 72t-37.5 186q20 105 91 164t177 59q118 0 177 -74t38 -188z" />
    <glyph glyph-name="Uhungarumlaut" unicode="&#x170;" horiz-adv-x="1300" 
d="M631 295q105 0 154 53.5t69 165.5l127 715h369l-136 -764q-42 -238 -197.5 -366t-408.5 -128q-299 0 -431 144.5t-85 414.5l123 699h369l-127 -715q-19 -106 18.5 -162.5t155.5 -56.5zM700 1309l-139 86l211 321l180 -112zM1008 1309l-129 100l237 307l168 -125z" />
    <glyph glyph-name="uhungarumlaut" unicode="&#x171;" 
d="M588 0l47 266h-23q-68 -148 -160 -222.5t-198 -74.5q-127 0 -181.5 94t-25.5 263l117 653h348l-100 -571q-11 -59 11 -92t73 -33q62 0 104.5 44.5t54.5 116.5l95 535h348l-172 -979h-338zM805 1059l-117 96l264 326l158 -119zM516 1057l-129 80l231 346l170 -105z" />
    <glyph glyph-name="Uogonek" unicode="&#x172;" horiz-adv-x="1300" 
d="M631 295q105 0 154 53.5t69 165.5l127 715h369l-136 -764q-40 -226 -182.5 -353t-374.5 -139q-78 -24 -84 -65q-5 -23 16 -36t64 -13q34 0 109 14l-37 -209q-78 -10 -129 -10q-125 0 -179 41t-42 119q17 102 151 159q-257 20 -367.5 163t-66.5 394l123 699h369l-127 -715
q-19 -106 18.5 -162.5t155.5 -56.5z" />
    <glyph glyph-name="uogonek" unicode="&#x173;" 
d="M739 -346q-125 0 -179 41t-42 119q22 128 225 186h-155l47 266h-23q-68 -148 -160 -222.5t-198 -74.5q-127 0 -181.5 94t-25.5 263l117 653h348l-100 -571q-11 -59 11 -92t73 -33q62 0 104.5 44.5t54.5 116.5l95 535h348l-172 -977l2 -2q-107 -18 -156 -38.5t-55 -53.5
q-5 -23 16 -36t64 -13q33 0 108 14l-37 -209q-78 -10 -129 -10z" />
    <glyph glyph-name="Wcircumflex" unicode="&#x174;" horiz-adv-x="1775" 
d="M823 522l-153 -522h-502l-66 1229h385l-6 -488q-4 -281 -14 -428h31q70 245 133 428l166 488h463l-11 -488q-2 -157 -24 -428h32q23 79 70.5 224t65.5 204l155 488h385l-489 -1229h-531l27 522q5 113 31 412h-27q-46 -164 -121 -412zM1278 1298l-211 148l-264 -148
l-88 119l336 271h100l240 -271z" />
    <glyph glyph-name="wcircumflex" unicode="&#x175;" horiz-adv-x="1544" 
d="M1061 979l-2 -389q-4 -212 -10 -320h28q17 55 52.5 160.5t52.5 159.5l123 389h350l-420 -979h-455l15 416q7 165 20 295h-27q-14 -48 -41.5 -147.5t-41.5 -147.5l-123 -416h-443l-76 979h349l6 -389q3 -182 -2 -320h28q56 201 97 320l133 389h387zM1114 1044l-194 173
l-258 -173l-103 119l342 305h100l234 -305z" />
    <glyph glyph-name="Ycircumflex" unicode="&#x176;" horiz-adv-x="1146" 
d="M672 0h-369l66 375l-281 831l4 23h400l92 -541h32l293 541h408l-4 -23l-574 -829zM963 1298l-211 148l-265 -148l-88 119l336 271h101l239 -271z" />
    <glyph glyph-name="ycircumflex" unicode="&#x177;" horiz-adv-x="1005" 
d="M72 -328q-33 0 -162 11l55 284q72 -14 131 -14q65 0 100 13t62 50l-164 963h371l16 -367q4 -88 8 -272h19q40 106 98 266l137 373h383l-538 -973q-48 -87 -93.5 -145t-106 -102.5t-138 -65.5t-178.5 -21zM848 1044l-195 173l-258 -173l-102 119l342 305h100l234 -305z
" />
    <glyph glyph-name="Ydieresis" unicode="&#x178;" horiz-adv-x="1146" 
d="M672 0h-369l66 375l-281 831l4 23h400l92 -541h32l293 541h408l-4 -23l-574 -829zM446 1610h283l-49 -273h-281zM786 1610h283l-49 -273h-281z" />
    <glyph glyph-name="Zacute" unicode="&#x179;" horiz-adv-x="1212" 
d="M1114 336l-59 -336h-1075l57 328l692 573l-4 21q-223 -29 -330 -29h-241l59 336h1049l-58 -328l-702 -582l4 -12q208 29 301 29h307zM580 1317l-35 174l565 201l45 -246z" />
    <glyph glyph-name="zacute" unicode="&#x17a;" horiz-adv-x="1042" 
d="M678 287h254l-51 -287h-901l53 297l565 408l-4 14q-201 -27 -287 -27h-188l49 287h881l-52 -295l-571 -414l4 -10q155 27 248 27zM494 1042l-66 166l539 273l92 -230z" />
    <glyph glyph-name="Zdotaccent" unicode="&#x17b;" horiz-adv-x="1212" 
d="M1114 336l-59 -336h-1075l57 328l692 573l-4 21q-223 -29 -330 -29h-241l59 336h1049l-58 -328l-702 -582l4 -12q208 29 301 29h307zM627 1628h313l-51 -299h-314z" />
    <glyph glyph-name="zdotaccent" unicode="&#x17c;" horiz-adv-x="1042" 
d="M678 287h254l-51 -287h-901l53 297l565 408l-4 14q-201 -27 -287 -27h-188l49 287h881l-52 -295l-571 -414l4 -10q155 27 248 27zM524 1423h314l-52 -299h-313z" />
    <glyph glyph-name="Zcaron" unicode="&#x17d;" horiz-adv-x="1212" 
d="M1114 336l-59 -336h-1075l57 328l692 573l-4 21q-223 -29 -330 -29h-241l59 336h1049l-58 -328l-702 -582l4 -12q208 29 301 29h307zM799 1309h-101l-239 270l114 119l211 -146l263 146l86 -119z" />
    <glyph glyph-name="zcaron" unicode="&#x17e;" horiz-adv-x="1042" 
d="M678 287h254l-51 -287h-901l53 297l565 408l-4 14q-201 -27 -287 -27h-188l49 287h881l-52 -295l-571 -414l4 -10q155 27 248 27zM668 1071h-101l-233 305l121 119l196 -174l258 174l101 -119z" />
    <glyph glyph-name="Aringacute" unicode="&#x1fa;" horiz-adv-x="1245" 
d="M641 1630l-20 166l544 189l29 -234zM727 1358q-9 -45 14 -71.5t68 -26.5q42 0 70 22t34 61q6 44 -17 71.5t-67 27.5q-41 0 -68.5 -23t-33.5 -61zM569 639l-69 -152h266l-14 152q-12 135 -21 274h-41q-39 -90 -121 -274zM811 0l-20 223h-410l-102 -223h-394l615 1229h75
q-22 65 -8 147q15 102 92 164t189 62q123 0 185 -74t40 -197q-12 -75 -57 -133l176 -1198h-381z" />
    <glyph glyph-name="aringacute" unicode="&#x1fb;" 
d="M565 1534l-22 166l544 188l31 -233zM637 1282q-7 -41 15 -65.5t65 -24.5q39 0 65.5 21t32.5 57q6 40 -16 65t-64 25q-39 0 -65.5 -21t-32.5 -57zM969 1257q-17 -97 -91 -155t-180 -58q-119 0 -177 69.5t-36 184.5q15 94 88.5 150.5t180.5 56.5q117 0 176 -68t39 -180z
M496 274q60 0 103.5 45.5t55.5 120.5v-6l4 25l11 61v-2q15 82 -16 130t-99 48q-71 0 -112 -48.5t-60 -151.5q-41 -222 113 -222zM51 522q41 237 140.5 362.5t240.5 125.5q110 0 176.5 -74t83.5 -211l17 12l43 242h348l-172 -979h-348l45 258l-9 -6l7 33
q-65 -151 -154.5 -233.5t-200.5 -82.5q-145 0 -205 144.5t-12 408.5z" />
    <glyph glyph-name="AEacute" unicode="&#x1fc;" horiz-adv-x="1804" 
d="M862 1317l-35 174l566 201l45 -246zM668 0l41 231h-295l-123 -231h-402l5 12l722 1217h1248l-58 -318h-608l-31 -163h570l-45 -261h-570l-30 -170h610l-55 -317h-979zM629 639l-74 -139h201l75 430h-57q-118 -242 -145 -291z" />
    <glyph glyph-name="aeacute" unicode="&#x1fd;" horiz-adv-x="1628" 
d="M434 240q63 0 108.5 40.5t57.5 104.5l6 37h-157q-46 0 -79.5 -23.5t-39.5 -58.5q-8 -47 16 -73.5t88 -26.5zM1161 754q-75 0 -118.5 -44t-67.5 -149h301q34 193 -115 193zM1522 258q-23 -52 -46.5 -90.5t-61.5 -78t-84.5 -64.5t-114.5 -40.5t-152 -15.5
q-106 0 -190.5 24.5t-147 82.5t-82.5 147q-133 -250 -383 -250q-63 0 -116.5 20t-92.5 58.5t-54.5 102.5t-0.5 145q45 254 397 254h236l10 59q22 123 -90 123q-48 0 -79.5 -25.5t-51.5 -80.5l-312 80q30 88 83 152t143.5 105.5t208.5 41.5q248 0 321 -152q129 154 352 154
q226 0 319.5 -123.5t55.5 -339.5q-16 -80 -26 -119h-611q-7 -100 27 -141t119 -41q33 0 57.5 8t42 25.5t27.5 32t24 40.5zM780 1042l-65 166l538 273l93 -230z" />
    <glyph glyph-name="Oslashacute" unicode="&#x1fe;" horiz-adv-x="1345" 
d="M616 -31q-224 0 -362 101l-70 -70h-274l2 12l217 197q-104 179 -51 467q49 275 235 429.5t457 154.5q222 0 367 -105l73 74h267l-2 -12l-218 -197q105 -181 56 -463q-50 -278 -232.5 -433t-464.5 -155zM420 641q-19 -102 -10 -172l481 449q-55 34 -146 34
q-268 0 -325 -311zM649 1317l-35 174l566 201l45 -246zM643 272q143 0 220.5 82.5t109.5 247.5q16 96 8 160l-483 -455q56 -35 145 -35z" />
    <glyph glyph-name="oslashacute" unicode="&#x1ff;" horiz-adv-x="1110" 
d="M498 -31q-190 0 -305 86l-50 -55h-247l2 12l188 164q-75 149 -35 365q38 221 188.5 345t376.5 124q188 0 308 -88l51 57h237v-12l-188 -166q74 -143 37 -363q-40 -220 -190.5 -344.5t-372.5 -124.5zM594 743q-103 0 -159.5 -59t-78.5 -178q-10 -49 -10 -100l354 315
q-42 22 -106 22zM535 1042l-66 166l539 273l92 -230zM516 238q106 0 162 58.5t78 180.5q10 55 10 94l-350 -313q39 -20 100 -20z" />
    <glyph glyph-name="uni0218" unicode="&#x218;" horiz-adv-x="1196" 
d="M551 -31q-124 0 -218.5 21t-152 54.5t-95 84.5t-53.5 102.5t-22 116.5l363 76q22 -164 221 -164q140 0 154 72q10 53 -35 84.5t-181 52.5q-126 20 -211 59.5t-127.5 96.5t-55.5 131t5 162q28 167 167.5 254.5t389.5 87.5q136 0 233 -27.5t151.5 -78.5t80 -111t31.5 -138
l-377 -69q-8 76 -43 109.5t-125 33.5q-135 0 -147 -74q-6 -21 0 -41t25 -37t66.5 -32.5t123.5 -28.5q109 -20 188 -53.5t123 -75.5t69 -94t26 -108t-7 -118q-64 -348 -567 -348zM393 -98h256l-174 -320h-213l4 19z" />
    <glyph glyph-name="uni0219" unicode="&#x219;" horiz-adv-x="991" 
d="M428 -31q-98 0 -172.5 16t-121.5 42t-77.5 65.5t-44.5 82t-18 95.5l319 64q12 -68 47 -97.5t99 -29.5q98 0 106 51q7 36 -25 61.5t-141 51.5q-191 46 -260 133t-43 227q51 279 465 279q109 0 186 -21.5t119.5 -63t63 -87.5t28.5 -109l-317 -63q-6 61 -30.5 86.5
t-84.5 25.5q-95 0 -104 -51q-3 -18 0.5 -30.5t18 -27.5t49 -28.5t90.5 -26.5q108 -25 179 -63t102 -84t40.5 -101.5t-4.5 -113.5q-49 -283 -469 -283zM285 -98h256l-174 -320h-213l4 19z" />
    <glyph glyph-name="uni021A" unicode="&#x21a;" horiz-adv-x="1064" 
d="M96 891l60 338h1015l-59 -338h-324l-157 -891h-369l158 891h-324zM334 -98h256l-174 -320h-213l4 19z" />
    <glyph glyph-name="uni021B" unicode="&#x21b;" horiz-adv-x="751" 
d="M102 362l62 347h-101l48 270h100l43 240h348l-43 -240h223l-47 -270h-223l-57 -328q-8 -44 7.5 -64t61.5 -20q38 0 123 22l-18 -311q-52 -16 -77 -22t-66.5 -11.5t-92.5 -5.5q-73 0 -129.5 20.5t-91.5 56.5t-55.5 85.5t-22 108t7.5 122.5zM188 -98h256l-174 -320h-213
l4 19z" />
    <glyph glyph-name="circumflex" unicode="&#x2c6;" horiz-adv-x="757" 
d="M715 1044l-195 173l-258 -173l-102 119l342 305h100l234 -305z" />
    <glyph glyph-name="caron" unicode="&#x2c7;" horiz-adv-x="757" 
d="M530 1071h-100l-233 305l120 119l197 -174l258 174l100 -119z" />
    <glyph glyph-name="breve" unicode="&#x2d8;" horiz-adv-x="671" 
d="M487 1292q66 0 112 33t73 119h147q-31 -193 -110 -277t-232 -84q-330 0 -268 361h147q-3 -86 31.5 -119t99.5 -33z" />
    <glyph glyph-name="dotaccent" unicode="&#x2d9;" horiz-adv-x="436" 
d="M225 1423h314l-52 -299h-313z" />
    <glyph glyph-name="ring" unicode="&#x2da;" horiz-adv-x="614" 
d="M694 1294q-19 -104 -89.5 -161.5t-178.5 -57.5q-119 0 -177.5 72t-37.5 186q20 105 91 164t177 59q118 0 177 -74t38 -188zM367 1321q-8 -45 12.5 -72.5t64.5 -27.5q39 0 65 24t32 66q8 44 -13.5 72t-64.5 28q-38 0 -64 -24.5t-32 -65.5z" />
    <glyph glyph-name="ogonek" unicode="&#x2db;" horiz-adv-x="454" 
d="M299 29l29 -29q-107 -18 -156 -38.5t-55 -53.5q-5 -23 16 -36t64 -13q33 0 108 14l-37 -209q-78 -10 -129 -10q-125 0 -179 41t-42 119q16 91 119.5 145t261.5 70z" />
    <glyph glyph-name="tilde" unicode="&#x2dc;" horiz-adv-x="733" 
d="M389 1456q42 0 76 -16t55.5 -38t39 -44.5t36 -38.5t37.5 -16q38 0 56.5 33t31.5 108h139q-2 -40 -10 -96q-49 -273 -223 -273q-37 0 -68 16t-51 38.5t-38.5 45t-40 38.5t-46.5 16q-33 0 -52.5 -33t-33.5 -109h-139q2 40 10 95q24 135 82.5 204.5t138.5 69.5z" />
    <glyph glyph-name="hungarumlaut" unicode="&#x2dd;" horiz-adv-x="700" 
d="M274 1057l-129 80l232 346l170 -105zM563 1059l-117 96l265 326l157 -119z" />
    <glyph glyph-name="Wgrave" unicode="&#x1e80;" horiz-adv-x="1775" 
d="M823 522l-153 -522h-502l-66 1229h385l-6 -488q-4 -281 -14 -428h31q70 245 133 428l166 488h463l-11 -488q-2 -157 -24 -428h32q23 79 70.5 224t65.5 204l155 488h385l-489 -1229h-531l27 522q5 113 31 412h-27q-46 -164 -121 -412zM1202 1317l-530 129l104 248
l494 -201z" />
    <glyph glyph-name="wgrave" unicode="&#x1e81;" horiz-adv-x="1544" 
d="M1061 979l-2 -389q-4 -212 -10 -320h28q17 55 52.5 160.5t52.5 159.5l123 389h350l-420 -979h-455l15 416q7 165 20 295h-27q-14 -48 -41.5 -147.5t-41.5 -147.5l-123 -416h-443l-76 979h349l6 -389q3 -182 -2 -320h28q56 201 97 320l133 389h387zM1051 1044l-488 213
l135 230l441 -281z" />
    <glyph glyph-name="Wacute" unicode="&#x1e82;" horiz-adv-x="1775" 
d="M823 522l-153 -522h-502l-66 1229h385l-6 -488q-4 -281 -14 -428h31q70 245 133 428l166 488h463l-11 -488q-2 -157 -24 -428h32q23 79 70.5 224t65.5 204l155 488h385l-489 -1229h-531l27 522q5 113 31 412h-27q-46 -164 -121 -412zM864 1317l-35 174l566 201l45 -246z
" />
    <glyph glyph-name="wacute" unicode="&#x1e83;" horiz-adv-x="1544" 
d="M1061 979l-2 -389q-4 -212 -10 -320h28q17 55 52.5 160.5t52.5 159.5l123 389h350l-420 -979h-455l15 416q7 165 20 295h-27q-14 -48 -41.5 -147.5t-41.5 -147.5l-123 -416h-443l-76 979h349l6 -389q3 -182 -2 -320h28q56 201 97 320l133 389h387zM754 1042l-66 166
l539 273l92 -230z" />
    <glyph glyph-name="Wdieresis" unicode="&#x1e84;" horiz-adv-x="1775" 
d="M823 522l-153 -522h-502l-66 1229h385l-6 -488q-4 -281 -14 -428h31q70 245 133 428l166 488h463l-11 -488q-2 -157 -24 -428h32q23 79 70.5 224t65.5 204l155 488h385l-489 -1229h-531l27 522q5 113 31 412h-27q-46 -164 -121 -412zM762 1610h282l-49 -273h-280z
M1102 1610h282l-49 -273h-280z" />
    <glyph glyph-name="wdieresis" unicode="&#x1e85;" horiz-adv-x="1544" 
d="M1061 979l-2 -389q-4 -212 -10 -320h28q17 55 52.5 160.5t52.5 159.5l123 389h350l-420 -979h-455l15 416q7 165 20 295h-27q-14 -48 -41.5 -147.5t-41.5 -147.5l-123 -416h-443l-76 979h349l6 -389q3 -182 -2 -320h28q56 201 97 320l133 389h387zM625 1407h282l-49 -272
h-280zM965 1407h282l-49 -272h-280z" />
    <glyph glyph-name="uni1E9E" unicode="&#x1e9e;" horiz-adv-x="1257" 
d="M754 -20q-201 0 -312 63l117 307q104 -61 217 -61q40 0 59 8.5t23 30.5q6 27 -18.5 49t-83.5 53q-17 9 -28.5 15t-28.5 16t-28.5 18.5t-26.5 20.5t-24.5 24t-20 27t-16 32t-9.5 36t-3.5 41.5t4.5 46.5q12 75 78 122.5t205 81.5v21q-90 -8 -207 -8q-120 0 -147 -140
l-137 -784h-369l139 795q37 211 178.5 322.5t382.5 111.5h531l-53 -297q-258 -76 -271 -156q-5 -32 14 -53t66 -49q32 -19 54 -34t47.5 -36.5t41 -42.5t30 -49.5t20 -61t5.5 -74.5t-9 -91q-53 -305 -420 -305z" />
    <glyph glyph-name="endash" unicode="&#x2013;" horiz-adv-x="974" 
d="M61 662h914l-55 -318h-914z" />
    <glyph glyph-name="emdash" unicode="&#x2014;" horiz-adv-x="1761" 
d="M61 662h1700l-55 -318h-1700z" />
    <glyph glyph-name="quoteleft" unicode="&#x2018;" horiz-adv-x="475" 
d="M387 631h-350l328 598h192l-2 -12z" />
    <glyph glyph-name="quoteright" unicode="&#x2019;" horiz-adv-x="475" 
d="M233 1229h351l-328 -598h-193l3 12z" />
    <glyph glyph-name="quotesinglbase" unicode="&#x201a;" horiz-adv-x="475" 
d="M70 338h350l-328 -598h-192l2 12z" />
    <glyph glyph-name="quotedblleft" unicode="&#x201c;" horiz-adv-x="878" 
d="M387 631h-350l328 598h192l-2 -12zM791 631h-351l328 598h193l-3 -12z" />
    <glyph glyph-name="quotedblright" unicode="&#x201d;" horiz-adv-x="884" 
d="M233 1229h351l-328 -598h-193l3 12zM643 1229h350l-327 -598h-193l2 12z" />
    <glyph glyph-name="quotedblbase" unicode="&#x201e;" horiz-adv-x="884" 
d="M72 338h350l-328 -598h-192l2 12zM481 338h350l-327 -598h-193l2 12z" />
    <glyph glyph-name="dagger" unicode="&#x2020;" horiz-adv-x="1282" 
d="M664 -430h-369l201 1145h-136l-57 -318h-278l102 582h416l69 393h369l-70 -393h416l-102 -582h-279l55 318h-137z" />
    <glyph glyph-name="daggerdbl" unicode="&#x2021;" horiz-adv-x="1323" 
d="M633 1372h368l-69 -393h416l-68 -385h-279l21 121h-137l-78 -451h137l21 121h278l-67 -385h-416l-76 -430h-369l76 430h-416l68 385h279l-23 -121h139l78 451h-135l-23 -121h-278l67 385h416z" />
    <glyph glyph-name="bullet" unicode="&#x2022;" horiz-adv-x="624" 
d="M102 743h506l-86 -483h-506z" />
    <glyph glyph-name="ellipsis" unicode="&#x2026;" horiz-adv-x="1323" 
d="M6 344h356l-61 -344h-356zM465 344h356l-61 -344h-357zM922 344h356l-61 -344h-357z" />
    <glyph glyph-name="perthousand" unicode="&#x2030;" horiz-adv-x="2359" 
d="M1907 -20q-181 0 -270.5 112t-55.5 299q28 156 134 241t267 85q182 0 273 -112t59 -298q-29 -157 -136.5 -242t-270.5 -85zM1925 201q48 0 83 34t46 103q13 78 -13 118t-77 40q-102 0 -127 -136q-13 -77 12 -118t76 -41zM440 516q-181 0 -270 111.5t-55 298.5
q27 156 133 240.5t268 84.5q182 0 273 -111.5t59 -295.5q-29 -158 -137 -243t-271 -85zM459 737q49 0 83.5 33.5t45.5 103.5q13 76 -13.5 116t-76.5 40q-102 0 -127 -135q-13 -77 11.5 -117.5t76.5 -40.5zM1128 -20q-180 0 -269.5 112t-55.5 299q28 156 134 241t267 85
q182 0 273 -112t59 -298q-29 -157 -137 -242t-271 -85zM1147 201q48 0 83 34t46 103q13 78 -13 118t-77 40q-102 0 -127 -136q-13 -77 12 -118t76 -41zM1174 1229h499l-2 -12l-770 -549l-37 26zM473 2h-500l2 12l768 549l39 -26z" />
    <glyph glyph-name="guilsinglleft" unicode="&#x2039;" horiz-adv-x="768" 
d="M684 63h-336l-319 455l4 21l465 454h350l-4 -26l-443 -447l287 -428z" />
    <glyph glyph-name="guilsinglright" unicode="&#x203a;" horiz-adv-x="768" 
d="M293 63h-350l4 29l442 445l-287 430l4 26h336l320 -454l-4 -21z" />
    <glyph glyph-name="fraction" unicode="&#x2044;" horiz-adv-x="94" 
d="M420 1229h500l-2 -12l-771 -549l-36 26zM-281 2h-499l2 12l768 549l39 -26z" />
    <glyph glyph-name="Euro" unicode="&#x20ac;" horiz-adv-x="1370" 
d="M705 -31q-240 0 -379 123.5t-158 341.5h-137l22 119h115q3 61 12 113h-108l22 118h115q67 235 231 355.5t404 120.5q266 0 394 -127.5t126 -374.5l-358 -41q0 114 -45 168.5t-154 54.5q-156 0 -232 -156h222l-23 -118h-235q-1 -3 -2 -9.5t-2 -9.5q-11 -59 -13 -94h234
l-23 -119h-205q31 -151 189 -151q101 0 156 55t102 182l346 -69q-136 -482 -616 -482z" />
    <glyph glyph-name="uni2116" unicode="&#x2116;" horiz-adv-x="2277" 
d="M1374 354h783l-54 -303h-782zM1827 680q120 0 149 158q26 159 -102 159q-123 0 -152 -159q-26 -158 105 -158zM1788 428q-200 0 -295.5 115t-60.5 315q32 184 160 287.5t321 103.5q197 0 293 -116t61 -318q-32 -182 -160.5 -284.5t-318.5 -102.5zM698 0l-106 399
q-46 166 -100 508l-23 -2q-41 -392 -78 -594l-55 -311h-338l217 1229h508l90 -328q57 -202 94 -522l27 2q27 308 65 524l58 324h338l-217 -1229h-480z" />
    <glyph glyph-name="trademark" unicode="&#x2122;" horiz-adv-x="1918" 
d="M125 1004l41 225h668l-41 -225h-199l-86 -482h-266l86 482h-203zM1036 778l-45 -256h-217l125 707h416l24 -193q19 -143 25 -217h18q28 65 105 219l96 191h412l-125 -707h-266l47 256q17 104 45 234h-31q-61 -123 -135 -258l-125 -232h-225l-37 228q-28 176 -37 260h-31
q-5 -33 -19 -112t-20 -120z" />
    <glyph glyph-name="uni2190" unicode="&#x2190;" horiz-adv-x="1595" 
d="M41 541l16 94l711 596l176 -268q-213 -139 -412 -246v-2q273 35 660 35h311l-57 -324h-311q-365 0 -648 35q184 -128 324 -248l-270 -268z" />
    <glyph glyph-name="arrowup" unicode="&#x2191;" horiz-adv-x="1499" 
d="M698 1364h95l596 -606l-269 -223q-139 186 -246 370l-2 -2q35 -266 35 -653v-311h-323v311q0 372 34 653q-128 -209 -247 -368l-269 223z" />
    <glyph glyph-name="uni2192" unicode="&#x2192;" horiz-adv-x="1595" 
d="M1554 643l-16 -94l-711 -596l-176 268q213 139 412 246v2q-297 -35 -660 -35h-311l58 324h311q387 0 647 -35v2q-175 118 -324 246l271 268z" />
    <glyph glyph-name="arrowdown" unicode="&#x2193;" horiz-adv-x="1499" 
d="M795 -129h-95l-596 606l269 223q130 -175 245 -368l3 2q-35 289 -35 651v311h323v-311q0 -387 -32 -651q112 188 245 366l269 -223z" />
    <glyph glyph-name="minus" unicode="&#x2212;" horiz-adv-x="995" 
d="M934 483h-873l54 308h872z" />
    <glyph glyph-name="uni25A0" unicode="&#x25a0;" horiz-adv-x="1843" 
d="M74 -244q4 283 4 848t-4 848q283 -6 848 -6q564 0 847 6q-4 -283 -4 -848t4 -848q-424 6 -847 6t-848 -6z" />
    <glyph glyph-name="uni25B2" unicode="&#x25b2;" horiz-adv-x="1843" 
d="M154 0v8l768 1264h8l762 -1264v-8h-1538z" />
    <glyph glyph-name="uni25B3" unicode="&#x25b3;" horiz-adv-x="1843" 
d="M154 0v8l768 1264h8l762 -1264v-8h-1538zM926 295q101 0 248 -14l8 16q-146 227 -244 463h-23q-104 -249 -241 -461l8 -18q147 14 244 14z" />
    <glyph glyph-name="uni25B6" unicode="&#x25b6;" horiz-adv-x="1843" 
d="M369 1391h8l1263 -768v-9l-1263 -761h-8v1538z" />
    <glyph glyph-name="uni25B7" unicode="&#x25b7;" horiz-adv-x="1843" 
d="M369 1391h8l1263 -768v-9l-1263 -761h-8v1538zM664 618q0 -90 -15 -247l17 -9q229 148 462 244v23q-246 103 -460 241l-19 -8q15 -158 15 -244z" />
    <glyph glyph-name="uni25BC" unicode="&#x25bc;" horiz-adv-x="1843" 
d="M1690 1229v-8l-768 -1264h-9l-761 1264v8h1538z" />
    <glyph glyph-name="uni25BD" unicode="&#x25bd;" horiz-adv-x="1843" 
d="M1167 930l-8 18q-147 -14 -244 -14q-100 0 -247 14l-9 -16q146 -227 244 -463h23q104 249 241 461zM150 1229h1538v-8l-768 -1264h-9l-761 1264v8z" />
    <glyph glyph-name="uni25C0" unicode="&#x25c0;" horiz-adv-x="1843" 
d="M1475 1391h-9l-1263 -768v-9l1263 -761h9v1538z" />
    <glyph glyph-name="uni25C1" unicode="&#x25c1;" horiz-adv-x="1843" 
d="M1466 1391h9v-1538h-9l-1263 761v9zM1180 618q0 97 14 244l-18 8q-212 -137 -461 -241v-23q236 -98 463 -244l16 9q-14 147 -14 247z" />
    <glyph glyph-name="uni25C6" unicode="&#x25c6;" horiz-adv-x="1843" 
d="M922 -395q-483 521 -990 989q540 502 990 989q457 -493 989 -989q-500 -461 -989 -989z" />
    <glyph glyph-name="uni25CF" unicode="&#x25cf;" horiz-adv-x="1843" 
d="M-6 602q0 284 112.5 494t323 322t494.5 112q427 0 676 -249.5t249 -678.5t-249 -678.5t-676 -249.5q-284 0 -494.5 112t-323 322t-112.5 494z" />
    <glyph glyph-name="uni2605" unicode="&#x2605;" horiz-adv-x="1843" 
d="M1448 -160l-526 305l-523 -305l-6 4l125 592l-450 404l2 8l604 63l244 553h8l243 -553l605 -63l2 -8l-451 -404l125 -592z" />
    <glyph glyph-name="uni2610" unicode="&#x2610;" horiz-adv-x="1843" 
d="M1489 0h-1133v1133h1133v-1133zM924 250q105 0 327 -8q-10 182 -10 325q0 144 10 326q-222 -8 -327 -8q-106 0 -328 8q8 -218 8 -326q0 -107 -8 -325q222 8 328 8z" />
    <glyph glyph-name="uni2611" unicode="&#x2611;" horiz-adv-x="1843" 
d="M645 659l184 181q88 -104 140 -193q104 181 219 352.5t280 401.5l238 -180q-129 -157 -195 -239t-164 -210t-174 -242t-147 -235h-127q-104 194 -254 364zM356 0v1133h809v-7l-153 -239q-15 0 -44.5 -1t-43.5 -1q-106 0 -328 8q8 -218 8 -326q0 -107 -8 -325q222 8 328 8
q107 0 329 -8q-10 140 -10 252l240 311h6v-805h-1133z" />
    <glyph glyph-name="uni2612" unicode="&#x2612;" horiz-adv-x="1843" 
d="M1489 0h-1133v1133h1133v-1133zM1077 276q-51 52 -153 175q-18 -21 -48.5 -57t-55 -65t-48.5 -53l-143 144q64 61 172 149q-102 82 -172 150l143 143q24 -25 48.5 -52.5t55.5 -65t48 -56.5q96 115 153 174l142 -143q-40 -38 -175 -150q146 -122 175 -149zM924 250
q105 0 327 -8q-10 182 -10 325q0 144 10 326q-222 -8 -327 -8q-106 0 -328 8q8 -218 8 -326q0 -107 -8 -325q222 8 328 8z" />
    <glyph glyph-name="uni2661" unicode="&#x2661;" horiz-adv-x="1843" 
d="M702 500q127 -74 232 -183q99 106 229 183q262 155 262 342q0 198 -182 198q-107 0 -180.5 -89.5t-99.5 -235.5h-58q-27 147 -101 236t-181 89q-90 0 -136.5 -50.5t-46.5 -147.5q0 -187 262 -342zM920 -111q-61 107 -154 193.5t-246 198.5q-78 55 -138 105.5t-114 110
t-89.5 118.5t-56 128t-20.5 142q0 204 108 318t296 114q165 0 262 -78.5t147 -243.5h15q48 165 145.5 243.5t263.5 78.5q185 0 293.5 -114.5t108.5 -317.5q0 -91 -30 -174t-88.5 -157.5t-129 -138.5t-168.5 -134q-152 -110 -245 -197t-152 -195h-8z" />
    <glyph glyph-name="uni2726" unicode="&#x2726;" horiz-adv-x="1843" 
d="M1690 616v-24q-276 -85 -473.5 -284.5t-284.5 -471.5h-23q-88 272 -284.5 471.5t-472.5 284.5v24q276 85 472.5 284.5t284.5 471.5h23q87 -272 284.5 -471.5t473.5 -284.5z" />
    <glyph glyph-name="uni2727" unicode="&#x2727;" horiz-adv-x="1843" 
d="M1692 606v-8q-276 -85 -476.5 -287.5t-287.5 -474.5h-8q-87 272 -288.5 475.5t-477.5 288.5v8q276 85 476 288t288 476h8q88 -273 289 -477t477 -289zM1243 594v18q-135 29 -208.5 102t-102.5 208h-17q-29 -135 -102.5 -208t-208.5 -102v-18q135 -29 208.5 -101.5
t102.5 -207.5h17q29 135 102.5 207.5t208.5 101.5z" />
    <glyph glyph-name="uni2728" unicode="&#x2728;" horiz-adv-x="1843" 
d="M1255 424v-8q-225 -70 -387.5 -234.5t-232.5 -386.5h-10q-70 222 -234.5 387.5t-390.5 235.5v8q226 70 390 235t235 388h8q72 -223 235 -389t387 -236zM623 152h8q28 112 92.5 176t177.5 92v10q-113 29 -177.5 93.5t-92.5 176.5h-8q-28 -112 -93 -176.5t-178 -93.5v-10
q113 -28 178 -92t93 -176zM1194 1204v-10q-103 -32 -176.5 -107.5t-106.5 -179.5h-10q-31 103 -105.5 179t-179.5 110v8q104 32 177 108t108 181h8q33 -104 107.5 -180.5t177.5 -108.5zM1044 1198v8q-56 13 -88 45.5t-45 87.5h-8q-26 -107 -131 -133v-8q105 -26 131 -133h8
q13 55 45 87t88 46zM1843 784q-170 -52 -293 -176t-176 -293h-8q-53 169 -177 293t-296 178v9q171 52 293.5 176.5t177.5 294.5h8q53 -169 177 -294t294 -179v-9zM1589 786v11q-91 23 -142.5 74.5t-74.5 142.5h-8q-22 -90 -74 -142t-143 -75v-11q91 -22 143 -74t74 -141h8
q23 90 75 141.5t142 73.5z" />
    <glyph glyph-name="uni2764" unicode="&#x2764;" horiz-adv-x="1843" 
d="M920 -111q-61 107 -154 193.5t-246 198.5q-78 55 -138 105.5t-114 110t-89.5 118.5t-56 128t-20.5 142q0 204 108 318t296 114q165 0 262 -78.5t147 -243.5h15q48 165 145.5 243.5t263.5 78.5q185 0 293.5 -114.5t108.5 -317.5q0 -91 -30 -174t-88.5 -157.5t-129 -138.5
t-168.5 -134q-152 -110 -245 -197t-152 -195h-8z" />
    <glyph glyph-name="uni2780" unicode="&#x2780;" horiz-adv-x="1771" 
d="M885 35q143 0 253.5 43.5t180.5 122.5t105.5 186.5t35.5 239.5q0 268 -147 427.5t-428 159.5q-280 0 -427 -160t-147 -427q0 -271 146.5 -431.5t427.5 -160.5zM885 1464q200 0 359.5 -62t263.5 -174t159 -265t55 -336q0 -147 -34.5 -275.5t-104 -232.5t-169 -178.5
t-234.5 -115t-295 -40.5q-199 0 -358 62.5t-263.5 175t-159.5 266.5t-55 338q0 183 55 336t159.5 265t263.5 174t358 62zM1210 188h-632v232h200v391q-64 -31 -155 -63l-91 217l361 104h160v-649h157v-232z" />
    <glyph glyph-name="uni2781" unicode="&#x2781;" horiz-adv-x="1771" 
d="M885 35q143 0 253.5 43.5t180.5 122.5t105.5 186.5t35.5 239.5q0 268 -147 427.5t-428 159.5q-280 0 -427 -160t-147 -427q0 -271 146.5 -431.5t427.5 -160.5zM885 1464q200 0 359.5 -62t263.5 -174t159 -265t55 -336q0 -147 -34.5 -275.5t-104 -232.5t-169 -178.5
t-234.5 -115t-295 -40.5q-199 0 -358 62.5t-263.5 175t-159.5 266.5t-55 338q0 183 55 336t159.5 265t263.5 174t358 62zM905 879q-126 0 -139 -150l-270 29q14 166 110.5 255t302.5 89q394 0 394 -311q0 -126 -106 -200t-290 -102q-100 -16 -141 -30.5t-51 -40.5
q160 16 235 16h346v-233h-827q-4 43 -4 133q0 148 69.5 222t229.5 108q116 26 170.5 47t68 38.5t13.5 49.5q0 80 -111 80z" />
    <glyph glyph-name="uni2782" unicode="&#x2782;" horiz-adv-x="1771" 
d="M885 35q143 0 253.5 43.5t180.5 122.5t105.5 186.5t35.5 239.5q0 268 -147 427.5t-428 159.5q-280 0 -427 -160t-147 -427q0 -271 146.5 -431.5t427.5 -160.5zM885 1464q200 0 359.5 -62t263.5 -174t159 -265t55 -336q0 -147 -34.5 -275.5t-104 -232.5t-169 -178.5
t-234.5 -115t-295 -40.5q-199 0 -358 62.5t-263.5 175t-159.5 266.5t-55 338q0 183 55 336t159.5 265t263.5 174t358 62zM887 174q-197 0 -300 65t-116 212l283 28q7 -48 33 -71t104 -23q113 0 113 78q0 37 -23.5 54.5t-81.5 17.5h-156v182h158q52 0 71 14.5t19 54.5
q0 43 -24.5 62.5t-81.5 19.5q-71 0 -94.5 -23t-26.5 -75l-270 18q18 145 110 220t279 75q199 0 288 -58.5t89 -180.5q0 -87 -58 -136.5t-172 -68.5v-18q145 -12 202.5 -57t57.5 -138q0 -117 -97.5 -184.5t-305.5 -67.5z" />
    <glyph glyph-name="uni2783" unicode="&#x2783;" horiz-adv-x="1771" 
d="M885 35q143 0 253.5 43.5t180.5 122.5t105.5 186.5t35.5 239.5q0 268 -147 427.5t-428 159.5q-280 0 -427 -160t-147 -427q0 -271 146.5 -431.5t427.5 -160.5zM885 1464q200 0 359.5 -62t263.5 -174t159 -265t55 -336q0 -147 -34.5 -275.5t-104 -232.5t-169 -178.5
t-234.5 -115t-295 -40.5q-199 0 -358 62.5t-263.5 175t-159.5 266.5t-55 338q0 183 55 336t159.5 265t263.5 174t358 62zM1268 377h-97v-182h-276v182h-479v184l393 514h362v-487h97v-211zM668 569q130 16 227 19v293l-16 6l-222 -303z" />
    <glyph glyph-name="uni2784" unicode="&#x2784;" horiz-adv-x="1771" 
d="M885 35q143 0 253.5 43.5t180.5 122.5t105.5 186.5t35.5 239.5q0 268 -147 427.5t-428 159.5q-280 0 -427 -160t-147 -427q0 -271 146.5 -431.5t427.5 -160.5zM885 1464q200 0 359.5 -62t263.5 -174t159 -265t55 -336q0 -147 -34.5 -275.5t-104 -232.5t-169 -178.5
t-234.5 -115t-295 -40.5q-199 0 -358 62.5t-263.5 175t-159.5 266.5t-55 338q0 183 55 336t159.5 265t263.5 174t358 62zM885 385q72 0 99.5 22t27.5 60q0 86 -121 86q-91 0 -158 -43l-219 80v479h729v-250q-247 0 -479 23v-152q86 47 225 47q153 0 229 -75.5t76 -196.5
q0 -150 -102 -220.5t-307 -70.5q-185 0 -285 57t-123 177l271 59q25 -82 137 -82z" />
    <glyph glyph-name="uni2785" unicode="&#x2785;" horiz-adv-x="1771" 
d="M889 573q-72 0 -99.5 -21.5t-27.5 -62.5q0 -88 129 -88q72 0 97.5 23.5t25.5 62.5t-25.5 62.5t-99.5 23.5zM885 35q143 0 253.5 43.5t180.5 122.5t105.5 186.5t35.5 239.5q0 268 -147 427.5t-428 159.5q-280 0 -427 -160t-147 -427q0 -271 146.5 -431.5t427.5 -160.5z
M885 1464q200 0 359.5 -62t263.5 -174t159 -265t55 -336q0 -147 -34.5 -275.5t-104 -232.5t-169 -178.5t-234.5 -115t-295 -40.5q-199 0 -358 62.5t-263.5 175t-159.5 266.5t-55 338q0 183 55 336t159.5 265t263.5 174t358 62zM1294 483q0 -148 -102.5 -225.5t-304.5 -77.5
q-99 0 -173.5 23t-133 75.5t-89 144.5t-30.5 222q0 94 25.5 174t76.5 143.5t135.5 99.5t194.5 36q102 0 172 -17t113 -54.5t64.5 -89.5t29.5 -128l-277 -27q-9 47 -31 69.5t-77 22.5q-87 0 -118.5 -65.5t-31.5 -228.5l21 -5q33 83 96 116.5t156 33.5q284 0 284 -242z" />
    <glyph glyph-name="uni2786" unicode="&#x2786;" horiz-adv-x="1771" 
d="M885 35q143 0 253.5 43.5t180.5 122.5t105.5 186.5t35.5 239.5q0 268 -147 427.5t-428 159.5q-280 0 -427 -160t-147 -427q0 -271 146.5 -431.5t427.5 -160.5zM885 1464q200 0 359.5 -62t263.5 -174t159 -265t55 -336q0 -147 -34.5 -275.5t-104 -232.5t-169 -178.5
t-234.5 -115t-295 -40.5q-199 0 -358 62.5t-263.5 175t-159.5 266.5t-55 338q0 183 55 336t159.5 265t263.5 174t358 62zM500 821v246h774v-246q-246 -246 -258 -635h-324q11 400 348 650q-139 -15 -243 -15h-297z" />
    <glyph glyph-name="uni2787" unicode="&#x2787;" horiz-adv-x="1771" 
d="M885 547q-70 0 -97.5 -18t-27.5 -60q0 -78 125 -78t125 78q0 42 -27.5 60t-97.5 18zM885 874q-59 0 -85 -16.5t-26 -58.5q0 -43 26 -61.5t85 -18.5q58 0 83 18.5t25 61.5q0 42 -25 58.5t-83 16.5zM885 35q143 0 253.5 43.5t180.5 122.5t105.5 186.5t35.5 239.5
q0 268 -147 427.5t-428 159.5q-280 0 -427 -160t-147 -427q0 -271 146.5 -431.5t427.5 -160.5zM885 1464q200 0 359.5 -62t263.5 -174t159 -265t55 -336q0 -147 -34.5 -275.5t-104 -232.5t-169 -178.5t-234.5 -115t-295 -40.5q-199 0 -358 62.5t-263.5 175t-159.5 266.5
t-55 338q0 183 55 336t159.5 265t263.5 174t358 62zM885 176q-213 0 -312.5 68t-99.5 188q0 84 57 131t177 68v18q-102 23 -152.5 70t-50.5 131q0 123 90.5 183.5t290.5 60.5t290.5 -60.5t90.5 -183.5q0 -84 -50.5 -131t-152.5 -70v-18q120 -20 176.5 -67.5t56.5 -131.5
q0 -120 -99 -188t-312 -68z" />
    <glyph glyph-name="uni2788" unicode="&#x2788;" horiz-adv-x="1771" 
d="M887 676q123 0 123 100q0 94 -125 94q-69 0 -98 -27.5t-29 -68.5t31.5 -69.5t97.5 -28.5zM885 35q143 0 253.5 43.5t180.5 122.5t105.5 186.5t35.5 239.5q0 268 -147 427.5t-428 159.5q-280 0 -427 -160t-147 -427q0 -271 146.5 -431.5t427.5 -160.5zM885 1464
q200 0 359.5 -62t263.5 -174t159 -265t55 -336q0 -147 -34.5 -275.5t-104 -232.5t-169 -178.5t-234.5 -115t-295 -40.5q-199 0 -358 62.5t-263.5 175t-159.5 266.5t-55 338q0 183 55 336t159.5 265t263.5 174t358 62zM877 174q-190 0 -282.5 63.5t-115.5 186.5l275 47
q12 -39 42.5 -56.5t86.5 -17.5q87 0 118 61t33 216l-20 4q-61 -154 -240 -154q-297 0 -297 254q0 153 102 233.5t300 80.5q102 0 178 -23t135 -74.5t89 -143.5t30 -222q0 -95 -25.5 -175.5t-76.5 -144t-136 -99.5t-196 -36z" />
    <glyph glyph-name="uni2789" unicode="&#x2789;" horiz-adv-x="1763" 
d="M807 221h-334v191h82v407q-28 -16 -53 -26l-62 170l201 65h113v-616h53v-191zM1081 854q-69 0 -69 -227q0 -238 67 -238q74 0 74 238q0 227 -72 227zM1081 1049q129 0 203 -105.5t74 -316.5q0 -213 -73 -320.5t-204 -107.5q-129 0 -201.5 107.5t-72.5 320.5q0 210 74 316
t200 106zM885 35q143 0 253.5 43.5t180.5 122.5t105.5 186.5t35.5 239.5q0 268 -147 427.5t-428 159.5q-280 0 -427 -160t-147 -427q0 -271 146.5 -431.5t427.5 -160.5zM885 1464q200 0 359.5 -62t263.5 -174t159 -265t55 -336q0 -147 -34.5 -275.5t-104 -232.5t-169 -178.5
t-234.5 -115t-295 -40.5q-199 0 -358 62.5t-263.5 175t-159.5 266.5t-55 338q0 183 55 336t159.5 265t263.5 174t358 62z" />
    <glyph glyph-name="uni278A" unicode="&#x278a;" horiz-adv-x="1771" 
d="M575 420v-232h635v232h-157v649h-162l-359 -104l89 -217q104 35 157 65v-393h-203zM885 1464q200 0 359.5 -62t263.5 -174t159 -265t55 -336q0 -147 -34.5 -275.5t-104 -232.5t-169 -178.5t-234.5 -115t-295 -40.5q-199 0 -358 62.5t-263.5 175t-159.5 266.5t-55 338
q0 183 55 336t159.5 265t263.5 174t358 62z" />
    <glyph glyph-name="uni278B" unicode="&#x278b;" horiz-adv-x="1771" 
d="M893 877q111 0 111 -78q0 -32 -13.5 -49.5t-68 -39t-170.5 -48.5q-161 -35 -230 -107.5t-69 -220.5q0 -90 4 -133h827v231h-346q-115 0 -238 -20q9 29 50 44t145 31q395 60 395 301q0 312 -393 312q-206 0 -303 -89t-111 -255l271 -27q13 148 139 148zM885 1464
q200 0 359.5 -62t263.5 -174t159 -265t55 -336q0 -147 -34.5 -275.5t-104 -232.5t-169 -178.5t-234.5 -115t-295 -40.5q-199 0 -358 62.5t-263.5 175t-159.5 266.5t-55 338q0 183 55 336t159.5 265t263.5 174t358 62z" />
    <glyph glyph-name="uni278C" unicode="&#x278c;" horiz-adv-x="1771" 
d="M887 176q209 0 306 66.5t97 183.5q0 93 -57.5 138t-202.5 57v20q114 19 172 68t58 137q0 121 -89 180t-288 59q-187 0 -279 -75.5t-110 -221.5l270 -18q3 52 26.5 76t94.5 24q57 0 81.5 -19.5t24.5 -62.5q0 -40 -19 -54.5t-71 -14.5h-158v-182h156q58 0 81.5 -18
t23.5 -56q0 -76 -113 -76q-79 0 -104.5 22.5t-32.5 71.5l-283 -28q13 -148 115.5 -212.5t300.5 -64.5zM885 1464q200 0 359.5 -62t263.5 -174t159 -265t55 -336q0 -147 -34.5 -275.5t-104 -232.5t-169 -178.5t-234.5 -115t-295 -40.5q-199 0 -358 62.5t-263.5 175
t-159.5 266.5t-55 338q0 183 55 336t159.5 265t263.5 174t358 62z" />
    <glyph glyph-name="uni278D" unicode="&#x278d;" horiz-adv-x="1771" 
d="M1268 377v211h-97v487h-362l-393 -514v-184h479v-182h276v182h97zM872 586q-73 0 -202 -21l-13 19l222 301l16 -6v-293h-23zM885 1464q200 0 359.5 -62t263.5 -174t159 -265t55 -336q0 -147 -34.5 -275.5t-104 -232.5t-169 -178.5t-234.5 -115t-295 -40.5
q-199 0 -358 62.5t-263.5 175t-159.5 266.5t-55 338q0 183 55 336t159.5 265t263.5 174t358 62z" />
    <glyph glyph-name="uni278E" unicode="&#x278e;" horiz-adv-x="1771" 
d="M885 385q-116 0 -137 82l-271 -59q23 -120 123 -177t285 -57q204 0 305.5 70.5t101.5 220.5q0 121 -75.5 196.5t-229.5 75.5q-135 0 -225 -49v156q281 -25 479 -25v250h-727v-479l219 -80q64 43 156 43q121 0 121 -86q0 -38 -27 -60t-98 -22zM885 1464q200 0 359.5 -62
t263.5 -174t159 -265t55 -336q0 -147 -34.5 -275.5t-104 -232.5t-169 -178.5t-234.5 -115t-295 -40.5q-199 0 -358 62.5t-263.5 175t-159.5 266.5t-55 338q0 183 55 336t159.5 265t263.5 174t358 62z" />
    <glyph glyph-name="uni278F" unicode="&#x278f;" horiz-adv-x="1771" 
d="M1294 481q0 127 -75.5 185.5t-208.5 58.5q-93 0 -155 -33.5t-91 -118.5l-27 7q2 167 33.5 230.5t116.5 63.5q55 0 77 -22.5t31 -69.5l277 27q-8 76 -29.5 128t-64.5 89.5t-113 54.5t-172 17q-110 0 -194.5 -36t-135.5 -99.5t-76.5 -144t-25.5 -175.5q0 -130 30.5 -222
t89 -143.5t133 -74.5t173.5 -23q202 0 304.5 77t102.5 224zM889 573q74 0 99.5 -24t25.5 -62q0 -39 -25.5 -62.5t-97.5 -23.5q-129 0 -129 86q0 41 28 63.5t99 22.5zM885 1464q200 0 359.5 -62t263.5 -174t159 -265t55 -336q0 -147 -34.5 -275.5t-104 -232.5t-169 -178.5
t-234.5 -115t-295 -40.5q-199 0 -358 62.5t-263.5 175t-159.5 266.5t-55 338q0 183 55 336t159.5 265t263.5 174t358 62z" />
    <glyph glyph-name="uni2790" unicode="&#x2790;" horiz-adv-x="1771" 
d="M498 821h297q119 0 252 19q-343 -250 -357 -654h326q12 388 256 635v246h-774v-246zM885 1464q200 0 359.5 -62t263.5 -174t159 -265t55 -336q0 -147 -34.5 -275.5t-104 -232.5t-169 -178.5t-234.5 -115t-295 -40.5q-199 0 -358 62.5t-263.5 175t-159.5 266.5t-55 338
q0 183 55 336t159.5 265t263.5 174t358 62z" />
    <glyph glyph-name="uni2791" unicode="&#x2791;" horiz-adv-x="1771" 
d="M885 176q214 0 313.5 67t99.5 187q0 84 -56 131.5t-177 67.5v20q101 21 151 68t50 133q0 122 -90.5 183t-290.5 61q-199 0 -289 -61t-90 -183q0 -86 50.5 -133t152.5 -68v-20q-123 -21 -179.5 -67.5t-56.5 -131.5q0 -120 99.5 -187t312.5 -67zM885 872q59 0 84.5 -16.5
t25.5 -58.5t-26 -61t-84 -19t-83.5 19t-25.5 61t26 58.5t83 16.5zM885 545q72 0 99.5 -17.5t27.5 -58.5q0 -78 -127 -78q-125 0 -125 78q0 41 28 58.5t97 17.5zM885 1464q200 0 359.5 -62t263.5 -174t159 -265t55 -336q0 -147 -34.5 -275.5t-104 -232.5t-169 -178.5
t-234.5 -115t-295 -40.5q-199 0 -358 62.5t-263.5 175t-159.5 266.5t-55 338q0 183 55 336t159.5 265t263.5 174t358 62z" />
    <glyph glyph-name="uni2792" unicode="&#x2792;" horiz-adv-x="1771" 
d="M1311 627q0 130 -30 222t-89 144.5t-135 75.5t-178 23q-198 0 -300 -81t-102 -233q0 -133 79 -194.5t218 -61.5q176 0 234 156l26 -6q-2 -154 -33.5 -214.5t-117.5 -60.5q-57 0 -87 17t-42 57l-275 -47q23 -124 115 -187t283 -63q111 0 196 36t136 99.5t76.5 143.5
t25.5 174zM887 674q-65 0 -97 29t-32 69q0 98 127 98q125 0 125 -96q0 -100 -123 -100zM885 1464q200 0 359.5 -62t263.5 -174t159 -265t55 -336q0 -147 -34.5 -275.5t-104 -232.5t-169 -178.5t-234.5 -115t-295 -40.5q-199 0 -358 62.5t-263.5 175t-159.5 266.5t-55 338
q0 183 55 336t159.5 265t263.5 174t358 62z" />
    <glyph glyph-name="uni2793" unicode="&#x2793;" horiz-adv-x="1763" 
d="M1083 1049q-126 0 -200 -106t-74 -316q0 -213 72.5 -320.5t201.5 -107.5q131 0 204 107.5t73 320.5q0 211 -74 316.5t-203 105.5zM455 412v-191h333v191h-53v616h-112l-201 -65l61 -170q38 16 54 28v-409h-82zM1083 854q72 0 72 -227q0 -238 -74 -238q-67 0 -67 238
q0 227 69 227zM885 1464q200 0 359.5 -62t263.5 -174t159 -265t55 -336q0 -147 -34.5 -275.5t-104 -232.5t-169 -178.5t-234.5 -115t-295 -40.5q-199 0 -358 62.5t-263.5 175t-159.5 266.5t-55 338q0 183 55 336t159.5 265t263.5 174t358 62z" />
    <glyph glyph-name="uni279A" unicode="&#x279a;" horiz-adv-x="1843" 
d="M1280 754v-754h-1081v1081h786v-6l-231 -241q-157 0 -301 6q8 -115 8 -260q0 -106 -8 -324q218 8 325 8q132 0 264 -6q-8 152 -8 229l240 267h6zM1569 1393l53 -54v-768h-266q11 207 53 441l-12 6q-269 -308 -445 -481l-207 -207l-186 188l205 207q172 170 487 442l-6 11
q-274 -44 -434 -52v267h758z" />
    <glyph glyph-name="uni2B1B" unicode="&#x2b1b;" horiz-adv-x="1843" 
d="M1489 0h-1133v1133h1133v-1133z" />
    <glyph glyph-name="uni2B1C" unicode="&#x2b1c;" horiz-adv-x="1843" 
d="M1489 0h-1133v1133h1133v-1133zM924 250q105 0 327 -8q-10 182 -10 325q0 144 10 326q-222 -8 -327 -8q-106 0 -328 8q8 -218 8 -326q0 -107 -8 -325q222 8 328 8z" />
    <glyph glyph-name="commaaccent" unicode="&#xf6c3;" horiz-adv-x="376" 
d="M-12 -98h256l-174 -320h-213l4 19z" />
    <glyph glyph-name="uniF8FF" unicode="&#xf8ff;" horiz-adv-x="2635" 
d="M1942 16q-13 -30 -123 -30l-50 2q9 212 13 508.5t8 406.5q-52 -160 -110.5 -387t-93.5 -364.5t-48 -147.5q-14 -12 -43 -12q-13 0 -50.5 5t-64.5 7q4 127 4 420q-63 2 -190 2q2 -51 2 -164q0 -244 -20 -256q-12 -10 -54 -10q-22 0 -59 3t-45 3h-6q14 232 14 422
q-30 0 -84 -1t-78 -1v-92q0 -57 1 -146.5t1 -111.5q0 -37 -2 -41q-10 -26 -39 -33.5t-123 -9.5q-2 59 -2 162q0 71 5 266q-114 -4 -132 -4q-54 -92 -120 -214.5t-95 -193.5q-14 4 -45 4q-20 0 -41.5 -2.5t-33.5 -5.5l-11 -2q-5 51 -32 102q-8 16 -98 156t-95 160
q-4 16 -4 24q0 34 27 90q-11 22 -11 50q0 35 17 98q12 38 47.5 121.5t93 213t92.5 212.5q68 0 144 20q90 -231 180 -667q10 -1 121 -5v25q0 41 -1 160t-1 182q0 239 16 262q16 29 147 31q-6 -123 -6 -236q0 -70 2 -191t2 -171v-64q25 0 78 -1t80 -1q0 183 -3 357.5t-3 185.5
q0 52 4 69.5t16 26.5q16 13 78 13h64q0 -27 -1 -78.5t-1 -75.5q0 -168 10 -496q114 3 194 9q0 53 -1 149.5t-1 138.5q0 321 17 344q20 29 86 29q14 0 40.5 -2t35.5 -2q-17 -121 -17 -541v-164q203 673 250 697q16 8 61 8l95 -6q-6 -147 -6 -350q0 -132 3 -370.5t3 -315.5
q0 -166 -8 -179zM2359 948q-24 -71 -68.5 -181t-71 -181.5t-26.5 -96.5v-4q2 -29 70 -141.5t80 -140.5q29 68 59 143t45 116l15 40q-23 127 -60.5 273.5t-42.5 172.5zM143 520q0 -16 24.5 -60.5t64.5 -116t65 -128.5q24 63 58 136.5t52.5 115.5t18.5 61v4q-1 23 -36 178.5
t-60 252.5q-187 -404 -187 -443zM2292 1245q24 -12 57 -12q40 0 61 24q149 -474 226 -763q-187 -488 -246 -500q-6 -2 -18 -2q-46 0 -136 37q-1 35 -23 87.5t-45 91t-58.5 94.5t-43.5 69q-22 40 -22 61q0 12 4.5 21.5t12.5 18.5t10 13q6 9 6 21q0 28 -35 37q187 458 250 702
z" />
    <glyph glyph-name="fi" unicode="&#xfb01;" horiz-adv-x="1204" 
d="M582 1006l-4 -27h188l-47 -270h-189l-124 -709h-349l125 709h-119l48 270h118l7 37q28 156 133.5 247t298.5 91q99 0 172 -17l-54 -233q-46 6 -86 6q-99 0 -118 -104zM1038 0h-348l172 979h348zM1229 1083h-348l41 232h348z" />
    <glyph glyph-name="fl" unicode="&#xfb02;" horiz-adv-x="1204" 
d="M582 1006l-4 -27h188l-47 -270h-189l-124 -709h-349l125 709h-119l48 270h118l7 37q28 156 133.5 247t298.5 91q99 0 172 -17l-54 -233q-46 6 -86 6q-99 0 -118 -104zM1270 1315l-232 -1315h-348l232 1315h348z" />
    <glyph glyph-name="exclamdown.case" horiz-adv-x="524" 
d="M137 764h348l-135 -764h-348zM510 887h-356l61 342h356z" />
    <glyph glyph-name="questiondown.case" horiz-adv-x="1019" 
d="M328 676q75 26 88 84q0 8 4 24h330q-3 -29 -9 -49q-15 -95 -64.5 -150.5t-158.5 -99.5q-79 -33 -107.5 -54t-35.5 -62q-10 -49 18 -74t84 -25q43 0 75 14t54.5 42.5t38 62t29.5 82.5l330 -63q-63 -214 -195.5 -324.5t-362.5 -110.5q-243 0 -355.5 102t-80.5 292
q13 70 41 121t73.5 86t90.5 56.5t113 45.5zM782 887h-356l61 342h357z" />
    <glyph glyph-name="periodcentered.case" horiz-adv-x="454" 
d="M102 801h357l-62 -344h-356z" />
    <glyph glyph-name="bullet.case" horiz-adv-x="624" 
d="M131 866h506l-86 -483h-506z" />
    <glyph glyph-name="guillemotleft.case" horiz-adv-x="1341" 
d="M684 168h-336l-319 455l4 20l465 455h350l-4 -27l-443 -446l287 -428zM1257 168h-335l-320 455l4 20l465 455h350l-4 -27l-442 -446l287 -428z" />
    <glyph glyph-name="guillemotright.case" horiz-adv-x="1341" 
d="M864 168h-350l4 29l443 444l-287 430l4 27h336l319 -455l-4 -20zM291 168h-350l4 29l442 444l-287 430l4 27h336l320 -455l-4 -20z" />
    <glyph glyph-name="guilsinglleft.case" horiz-adv-x="768" 
d="M684 168h-336l-319 455l4 20l465 455h350l-4 -27l-443 -446l287 -428z" />
    <glyph glyph-name="guilsinglright.case" horiz-adv-x="768" 
d="M303 168h-350l4 29l442 444l-286 430l4 27h336l319 -455l-4 -20z" />
    <glyph glyph-name="hyphen.case" horiz-adv-x="716" 
d="M88 788h655l-55 -317h-655z" />
    <glyph glyph-name="endash.case" horiz-adv-x="974" 
d="M88 788h913l-55 -317h-913z" />
    <glyph glyph-name="emdash.case" horiz-adv-x="1761" 
d="M88 788h1700l-55 -317h-1700z" />
    <glyph glyph-name="parenleft.case" horiz-adv-x="729" 
d="M102 670q42 235 167.5 443t365.5 403l192 -193q-176 -179 -261 -342t-120 -365q-38 -188 -10 -365t137 -357l-254 -164q-315 386 -217 940z" />
    <glyph glyph-name="parenright.case" horiz-adv-x="722" 
d="M645 567q-40 -234 -166 -442.5t-366 -403.5l-193 193q176 179 261 342t120 365q38 188 10 365t-137 357l254 164q315 -384 217 -940z" />
    <glyph glyph-name="bracketleft.case" horiz-adv-x="677" 
d="M-39 -205l289 1637h567l-49 -283h-219l-187 -1049h222l-56 -305h-567z" />
    <glyph glyph-name="bracketright.case" horiz-adv-x="677" 
d="M-92 -193l49 283h219l186 1051h-221l56 303h567l-289 -1637h-567z" />
    <glyph glyph-name="braceleft.case" horiz-adv-x="778" 
d="M612 -225q-83 -6 -209 -6q-194 0 -276 65t-61 180q8 46 32 87t53.5 71t58.5 58.5t52 63t29 71.5q8 49 -15 72.5t-96 23.5h-147l51 295h145q145 0 160 104q7 38 -4 75.5t-30 71t-38 68.5t-29 80t-1 92q39 219 415 219q127 0 207 -6l-51 -286q-37 2 -98 2q-112 0 -123 -66
q-5 -29 13 -73.5t34 -99.5t6 -110q-17 -89 -95 -137t-230 -63l-7 -27q158 -13 215 -63.5t39 -147.5q-8 -42 -31.5 -83.5t-47.5 -68.5t-45 -58.5t-25 -55.5q-5 -27 18 -44.5t82 -17.5q62 0 99 2z" />
    <glyph glyph-name="braceright.case" horiz-adv-x="778" 
d="M211 1473q82 6 209 6q194 0 276.5 -65t61.5 -179q-8 -47 -32 -88t-53.5 -71t-59 -58.5t-52.5 -63t-29 -71.5q-8 -48 15.5 -72.5t95.5 -24.5h148l-52 -292h-145q-145 0 -160 -105q-7 -38 4 -76.5t30.5 -72t38.5 -68t29 -79t1 -91.5q-36 -221 -416 -221q-127 0 -207 6
l51 289q37 -2 98 -2q112 0 123 63q5 29 -13 73.5t-33.5 99.5t-4.5 110q15 91 93.5 139t230.5 62l6 28q-159 13 -215.5 62.5t-38.5 146.5q8 43 31.5 84.5t47.5 68.5t45 58t25 55q5 28 -17.5 46t-82.5 18q-24 0 -98 -4z" />
    <glyph glyph-name="zero.osf" horiz-adv-x="1187" 
d="M639 817q-168 0 -215 -256q-26 -146 4.5 -219.5t138.5 -73.5q95 0 144.5 64.5t74.5 195.5q12 80 7.5 144t-43.5 104.5t-111 40.5zM666 1126q276 0 405.5 -161.5t75.5 -468.5q-47 -262 -201.5 -394.5t-400.5 -132.5q-285 0 -411.5 160t-72.5 463q44 266 204 400t401 134z
" />
    <glyph glyph-name="one.osf" horiz-adv-x="913" 
d="M791 0h-814l52 287h262l90 514q-110 -55 -231 -96l-70 264l457 129h245l-141 -811h199z" />
    <glyph glyph-name="two.osf" horiz-adv-x="1171" 
d="M653 838q-81 0 -132 -51.5t-77 -159.5l-323 47q96 444 577 444q242 0 357.5 -103t81.5 -292q-7 -43 -24.5 -78t-39.5 -61.5t-59 -49.5t-72.5 -39.5t-92 -33.5t-104 -29t-122.5 -29q-191 -42 -248.5 -63t-71.5 -64q225 31 461 31h287l-54 -307h-1022q6 61 25 178
q15 86 47.5 146t92.5 103.5t130 72t183 61.5q142 41 205 64.5t88.5 46t31.5 59.5q10 47 -21 77t-104 30z" />
    <glyph glyph-name="three.osf" horiz-adv-x="1177" 
d="M547 -141q-277 0 -401.5 92t-127.5 297l353 39q2 -37 8 -60t24 -44.5t55 -31.5t95 -10q161 0 180 111q11 61 -18.5 89t-114.5 28h-207l43 243h209q73 0 107 22.5t43 80.5q12 66 -21.5 96.5t-116.5 30.5q-94 0 -132.5 -37t-61.5 -119l-332 43q45 197 182 298t379 101
q262 0 372 -95t77 -283q-20 -104 -105.5 -162t-238.5 -82l-4 -25q190 -18 254.5 -85t39.5 -203q-28 -156 -160 -245t-380 -89z" />
    <glyph glyph-name="four.osf" horiz-adv-x="1200" 
d="M1137 127h-136l-45 -258h-348l45 258h-647l43 246l666 725h456l-120 -690h135zM375 385q167 20 327 23l76 428l-18 6l-393 -441z" />
    <glyph glyph-name="five.osf" horiz-adv-x="1177" 
d="M547 129q91 0 131.5 29t50.5 84q11 69 -24.5 108t-133.5 39q-106 0 -213 -63l-262 106l119 666h956l-59 -332q-310 0 -633 29l-41 -224q121 62 275 62q89 0 159 -21t114 -59.5t71 -91t31 -116t-7 -134.5q-33 -186 -171.5 -274.5t-381.5 -88.5q-231 0 -364 87t-160 243
l344 78q7 -27 18.5 -47t33 -39.5t59 -30t88.5 -10.5z" />
    <glyph glyph-name="six.osf" horiz-adv-x="1204" 
d="M616 532q-179 0 -200 -120q-10 -65 29 -104.5t139 -39.5q99 0 141 34.5t51 90.5q12 64 -21 101.5t-139 37.5zM1124 352q-33 -184 -170 -281.5t-372 -97.5q-95 0 -171 14.5t-141.5 48t-108 87t-69.5 132t-26 183.5t22 240q17 96 50.5 180.5t87 158t123.5 126t164 82.5
t204 30q130 0 222.5 -28.5t145.5 -83t76.5 -125t22.5 -164.5l-357 -37q-5 70 -34.5 105.5t-102.5 35.5q-121 0 -181 -97t-101 -335l24 -4q62 118 153 165.5t214 47.5q85 0 150 -20.5t113 -66t62.5 -118.5t-0.5 -178z" />
    <glyph glyph-name="seven.osf" horiz-adv-x="1103" 
d="M100 772l58 326h1026l-58 -326q-206 -183 -331.5 -404.5t-182.5 -498.5h-426q116 558 650 924q-178 -21 -334 -21h-402z" />
    <glyph glyph-name="eight.osf" horiz-adv-x="1193" 
d="M541 -27q-152 0 -260 29t-165.5 81.5t-78 120t-6.5 150.5q17 107 104 168t252 88l4 27q-124 33 -178 107.5t-33 201.5q27 154 155 231.5t376 77.5q269 0 378 -97t76 -288q-20 -100 -96 -155.5t-213 -81.5l-6 -25q154 -31 217.5 -106.5t40.5 -206.5q-28 -150 -168 -236
t-399 -86zM594 496q-99 0 -143.5 -26.5t-53.5 -82.5q-11 -60 30 -92.5t134 -32.5q178 0 197 111q11 64 -24.5 93.5t-139.5 29.5zM680 963q-83 0 -124.5 -26t-51.5 -85q-12 -67 20 -96t115 -29t125 26t51 87q12 65 -20.5 94t-114.5 29z" />
    <glyph glyph-name="nine.osf" horiz-adv-x="1187" 
d="M602 545q85 0 132.5 35.5t58.5 95.5q13 73 -29 118.5t-141 45.5q-164 0 -187 -129q-13 -71 28 -118.5t138 -47.5zM489 -147q-108 0 -190.5 17.5t-136 47t-88.5 74.5t-51.5 94.5t-22.5 112.5l340 73q11 -63 50.5 -91.5t125.5 -28.5q122 0 184 91t103 314l-27 4
q-118 -219 -364 -219q-175 0 -266.5 106t-57.5 297q32 189 175 289.5t386 100.5q110 0 195.5 -22.5t154 -73t104.5 -132t46.5 -199.5t-19.5 -276q-21 -122 -68.5 -223.5t-123.5 -182.5t-191 -127t-258 -46z" />
    <glyph glyph-name="zero.tf" horiz-adv-x="1228" 
d="M686 942q-102 0 -162 -75.5t-88 -233.5q-31 -171 7.5 -260.5t146.5 -89.5q193 0 250 325q61 334 -154 334zM715 1260q132 0 234 -42.5t170 -128.5t89 -216.5t-8 -307.5q-53 -295 -221.5 -445.5t-421.5 -150.5q-275 0 -407.5 179t-71.5 520q51 292 222 442t415 150z" />
    <glyph glyph-name="one.tf" horiz-adv-x="1249" 
d="M1073 0h-1034l53 307h404l104 582q-139 -73 -332 -139l-80 309l615 170h205l-162 -922h280z" />
    <glyph glyph-name="two.tf" horiz-adv-x="1249" 
d="M723 961q-93 0 -147 -55t-82 -173l-338 53q55 230 196.5 350.5t397.5 120.5q263 0 383.5 -116.5t78.5 -352.5q-52 -296 -577 -380q-144 -24 -205 -48.5t-82 -72.5q200 22 318 22h464l-55 -309h-1089q12 111 22 174q36 206 148.5 308t339.5 153q158 37 234.5 65.5t101 54
t32.5 70.5q11 62 -24.5 99t-116.5 37z" />
    <glyph glyph-name="three.tf" horiz-adv-x="1249" 
d="M598 -20q-277 0 -401 92t-127 297l352 39q2 -37 8 -60t24 -44.5t55 -31.5t95 -10q161 0 180 111q11 61 -18.5 88.5t-114.5 27.5h-207l43 244h209q73 0 107 22.5t43 80.5q12 66 -21 96.5t-116 30.5q-94 0 -133 -37t-62 -119l-332 43q45 197 182 298t379 101
q262 0 372 -95.5t77 -283.5q-20 -104 -105.5 -161.5t-238.5 -81.5l-4 -25q190 -18 255 -85.5t40 -203.5q-28 -156 -160 -244.5t-381 -88.5z" />
    <glyph glyph-name="four.tf" horiz-adv-x="1249" 
d="M1147 258h-135l-45 -258h-349l46 258h-648l43 246l666 725h457l-121 -690h135zM385 516q167 20 328 23l75 428l-18 6l-393 -441z" />
    <glyph glyph-name="five.tf" horiz-adv-x="1249" 
d="M596 260q91 0 131.5 29t50.5 84q11 69 -24 108t-133 39q-106 0 -213 -63l-263 106l119 666h957l-60 -332q-310 0 -633 29l-41 -224q121 62 275 62q111 0 192 -33t122 -90t56.5 -134t-2.5 -165q-33 -186 -171 -274t-381 -88q-232 0 -365 86.5t-160 242.5l344 78
q7 -27 18.5 -47t33 -39.5t59 -30t88.5 -10.5z" />
    <glyph glyph-name="six.tf" horiz-adv-x="1249" 
d="M647 532q-180 0 -201 -120q-10 -65 29 -104.5t139 -39.5q99 0 141.5 34.5t51.5 90.5q12 64 -21 101.5t-139 37.5zM1155 352q-33 -183 -170.5 -281t-372.5 -98q-81 0 -148 10.5t-126.5 34.5t-104 62t-76.5 93.5t-47 128t-13 167.5t22 209q17 96 50.5 180.5t87 158
t123.5 126t164 82.5t204 30q105 0 185 -19t133.5 -53t87 -84.5t47.5 -110.5t13 -134l-356 -37q-5 70 -34.5 105.5t-102.5 35.5q-121 0 -181.5 -97t-101.5 -335l25 -4q62 118 152.5 165.5t213.5 47.5q85 0 150 -20.5t113.5 -66t63 -118.5t-0.5 -178z" />
    <glyph glyph-name="seven.tf" horiz-adv-x="1249" 
d="M195 903l57 326h1026l-57 -326q-206 -183 -331.5 -404.5t-182.5 -498.5h-426q116 558 649 924q-179 -21 -334 -21h-401z" />
    <glyph glyph-name="eight.tf" horiz-adv-x="1249" 
d="M569 -27q-152 0 -260 29t-165.5 81.5t-78 120t-6.5 150.5q17 107 104 168t253 88l4 27q-124 33 -178 107.5t-33 201.5q27 154 154.5 231.5t375.5 77.5q269 0 378.5 -97t76.5 -288q-20 -100 -96 -155.5t-213 -81.5l-6 -25q154 -31 217.5 -106.5t40.5 -206.5
q-28 -150 -168.5 -236t-399.5 -86zM623 496q-99 0 -143.5 -26.5t-53.5 -82.5q-11 -60 30 -92.5t134 -32.5q177 0 196 111q11 64 -24.5 93.5t-138.5 29.5zM709 963q-83 0 -125 -26t-52 -85q-12 -67 20.5 -96t115.5 -29t125 26t51 87q12 65 -20.5 94t-114.5 29z" />
    <glyph glyph-name="nine.tf" horiz-adv-x="1249" 
d="M664 666q85 0 132 35t58 96q13 73 -29 118.5t-141 45.5q-163 0 -186 -130q-13 -71 28 -118t138 -47zM551 -27q-108 0 -190.5 17.5t-136 47t-89 74.5t-52 94.5t-22.5 112.5l340 74q11 -63 51 -92t126 -29q122 0 183.5 91t102.5 315l-26 4q-118 -219 -365 -219
q-175 0 -266 106t-57 297q32 189 175 289t386 100q110 0 195.5 -22.5t154 -72.5t104.5 -131.5t46.5 -199.5t-19.5 -276q-21 -122 -68.5 -223.5t-123.5 -183t-191 -127.5t-258 -46z" />
    <glyph glyph-name="zero.tosf" horiz-adv-x="1249" 
d="M670 817q-168 0 -215 -256q-26 -146 4.5 -219.5t138.5 -73.5q95 0 144.5 64.5t74.5 195.5q12 80 7.5 144t-43.5 104.5t-111 40.5zM696 1126q276 0 406 -161.5t76 -468.5q-47 -262 -202 -394.5t-401 -132.5q-285 0 -411 160t-72 463q44 266 203.5 400t400.5 134z" />
    <glyph glyph-name="one.tosf" horiz-adv-x="1249" 
d="M1077 0h-1036l51 287h420l92 522q-212 -94 -373 -123l-49 289l576 123h246l-144 -811h268z" />
    <glyph glyph-name="two.tosf" horiz-adv-x="1249" 
d="M692 838q-81 0 -132 -51.5t-77 -159.5l-323 47q96 444 577 444q242 0 357.5 -103t81.5 -292q-7 -43 -24.5 -78t-39.5 -61.5t-59 -49.5t-72.5 -39.5t-92 -33.5t-104 -29t-122.5 -29q-191 -42 -248.5 -63t-71.5 -64q225 31 461 31h287l-54 -307h-1022q6 61 25 178
q15 86 47.5 146t92.5 103.5t130 72t183 61.5q142 41 205 64.5t88.5 46t31.5 59.5q10 47 -21 77t-104 30z" />
    <glyph glyph-name="three.tosf" horiz-adv-x="1249" 
d="M598 -141q-277 0 -401 92t-127 297l352 39q2 -37 8 -60t24 -44.5t55 -31.5t95 -10q161 0 180 111q11 61 -18.5 89t-114.5 28h-207l43 243h209q73 0 107 22.5t43 80.5q12 66 -21 96.5t-116 30.5q-94 0 -133 -37t-62 -119l-332 43q45 197 182 298t379 101q262 0 372 -95
t77 -283q-20 -104 -105.5 -162t-238.5 -82l-4 -25q190 -18 255 -85t40 -203q-28 -156 -160 -245t-381 -89z" />
    <glyph glyph-name="four.tosf" horiz-adv-x="1249" 
d="M1159 127h-135l-45 -258h-348l45 258h-647l43 246l665 725h457l-121 -690h135zM397 385q167 20 328 23l76 428l-19 6l-393 -441z" />
    <glyph glyph-name="five.tosf" horiz-adv-x="1249" 
d="M582 129q91 0 131.5 29t50.5 84q11 69 -24.5 108t-133.5 39q-106 0 -213 -63l-262 106l119 666h956l-59 -332q-310 0 -633 29l-41 -224q121 62 275 62q89 0 159 -21t114 -59.5t71 -91t31 -116t-7 -134.5q-33 -186 -171.5 -274.5t-381.5 -88.5q-231 0 -364 87t-160 243
l344 78q7 -27 18.5 -47t33 -39.5t59 -30t88.5 -10.5z" />
    <glyph glyph-name="six.tosf" horiz-adv-x="1249" 
d="M647 532q-180 0 -201 -120q-10 -65 29 -104.5t139 -39.5q99 0 141.5 34.5t51.5 90.5q12 64 -21 101.5t-139 37.5zM1155 352q-33 -183 -170.5 -281t-372.5 -98q-81 0 -148 10.5t-126.5 34.5t-104 62t-76.5 93.5t-47 128t-13 167.5t22 209q17 96 50.5 180.5t87 158
t123.5 126t164 82.5t204 30q105 0 185 -19t133.5 -53t87 -84.5t47.5 -110.5t13 -134l-356 -37q-5 70 -34.5 105.5t-102.5 35.5q-121 0 -181.5 -97t-101.5 -335l25 -4q62 118 152.5 165.5t213.5 47.5q85 0 150 -20.5t113.5 -66t63 -118.5t-0.5 -178z" />
    <glyph glyph-name="seven.tosf" horiz-adv-x="1249" 
d="M178 772l58 326h1026l-58 -326q-206 -183 -331.5 -404.5t-182.5 -498.5h-426q116 558 649 924q-179 -21 -333 -21h-402z" />
    <glyph glyph-name="eight.tosf" horiz-adv-x="1249" 
d="M569 -27q-152 0 -260 29t-165.5 81.5t-78 120t-6.5 150.5q17 107 104 168t253 88l4 27q-124 33 -178 107.5t-33 201.5q27 154 154.5 231.5t375.5 77.5q269 0 378.5 -97t76.5 -288q-20 -100 -96 -155.5t-213 -81.5l-6 -25q154 -31 217.5 -106.5t40.5 -206.5
q-28 -150 -168.5 -236t-399.5 -86zM623 496q-99 0 -143.5 -26.5t-53.5 -82.5q-11 -60 30 -92.5t134 -32.5q177 0 196 111q11 64 -24.5 93.5t-138.5 29.5zM709 963q-83 0 -125 -26t-52 -85q-12 -67 20.5 -96t115.5 -29t125 26t51 87q12 65 -20.5 94t-114.5 29z" />
    <glyph glyph-name="nine.tosf" horiz-adv-x="1249" 
d="M635 545q85 0 132 35t58 96q13 73 -29 118.5t-141 45.5q-163 0 -186 -129q-13 -71 28 -118.5t138 -47.5zM522 -147q-108 0 -190.5 17.5t-136 47t-88.5 74.5t-51.5 94.5t-22.5 112.5l340 73q11 -63 50.5 -91.5t125.5 -28.5q122 0 184 91t103 314l-27 4
q-118 -219 -365 -219q-175 0 -266 106t-57 297q32 189 175 289.5t386 100.5q110 0 195.5 -22.5t154 -73t104.5 -132t46.5 -199.5t-19.5 -276q-21 -122 -68.5 -223.5t-123.5 -182.5t-191 -127t-258 -46z" />
    <glyph glyph-name="dollar.osf" horiz-adv-x="1087" 
d="M590 1319h227l-53 -223q84 -11 143.5 -37.5t94.5 -66.5t53.5 -86t25.5 -107l-356 -66q-9 66 -37 94.5t-96 28.5q-104 0 -113 -57q-6 -16 -1 -32t19.5 -30t53.5 -29.5t102 -29.5q99 -23 170.5 -54.5t112.5 -69t63.5 -82t24 -94t-7.5 -104.5q-48 -274 -451 -294l-24 -234
h-228l58 238q-84 9 -148.5 31.5t-104 51.5t-66 68.5t-38 78t-16.5 85.5l354 70q24 -140 174 -140q106 0 115 56q3 20 -1.5 34.5t-23 30.5t-58.5 31t-103 29q-216 52 -293 145.5t-51 249.5q22 135 137 211.5t319 85.5z" />
    <glyph glyph-name="sterling.osf" horiz-adv-x="1155" 
d="M1016 0h-1071l53 299h178q24 67 29 100q4 20 4 33h-189l29 162h146q-23 125 -7 223q24 138 153 221.5t347 83.5q413 0 453 -350l-332 -67q-7 66 -38 97.5t-109 31.5q-66 0 -105 -29t-47 -78q-8 -44 0 -133h453l-29 -162h-434q-19 -61 -88 -133h657z" />
    <glyph glyph-name="Euro.osf" horiz-adv-x="1247" 
d="M618 -33q-218 0 -341.5 109.5t-135.5 312.5h-129l21 117h110q3 42 13 92h-107l21 117h112q65 200 213.5 306.5t362.5 106.5q235 0 352 -118t119 -322l-324 -57q-9 113 -53.5 166t-138.5 53q-135 0 -199 -135h227l-20 -117h-246q-1 -6 -4 -21t-4 -24q-1 -5 -2.5 -15
t-2.5 -18t-1 -14h244l-21 -117h-227q18 -149 176 -149q96 0 149 52t95 171l313 -53q-127 -443 -572 -443z" />
    <glyph glyph-name="yen.osf" horiz-adv-x="1255" 
d="M1137 233h-369l-41 -233h-369l41 233h-368l28 164h336l-47 115h-268l29 170h167l-159 379l4 22h409l95 -469h37l266 469h418l-5 -22l-292 -379h165l-28 -170h-268l-89 -115h336z" />
    <glyph glyph-name="a.sc" horiz-adv-x="1171" 
d="M735 0l-18 188h-367l-86 -188h-377l557 1098h500l168 -1098h-377zM524 571l-61 -135h229l-12 135q-12 160 -16 230h-39q-22 -54 -101 -230z" />
    <glyph glyph-name="b.sc" horiz-adv-x="1128" 
d="M623 424h-199l-31 -174h211q101 0 113 72q9 55 -10 78.5t-84 23.5zM659 840h-161l-35 -189h164q66 0 97 19t40 63q9 58 -14.5 82.5t-90.5 24.5zM-10 0l194 1098h529q234 0 331 -78t70 -238q-17 -95 -91 -150t-204 -77l-2 -14q157 -18 211.5 -83t30.5 -192
q-48 -266 -473 -266h-596z" />
    <glyph glyph-name="c.sc" horiz-adv-x="1189" 
d="M557 -29q-284 0 -416 168t-78 471q44 249 209.5 382.5t419.5 133.5q238 0 359 -119.5t123 -320.5l-349 -59q-8 108 -43 154t-129 46q-104 0 -162 -72.5t-79 -189.5q-26 -146 13.5 -222.5t154.5 -76.5q87 0 133.5 46t89.5 157l332 -55q-54 -225 -203 -334t-375 -109z" />
    <glyph glyph-name="d.sc" horiz-adv-x="1222" 
d="M614 817h-122l-95 -536h131q140 0 212.5 58t97.5 191q27 163 -24 225t-200 62zM-10 0l192 1098h498q612 0 506 -596q-40 -233 -211.5 -367.5t-431.5 -134.5h-553z" />
    <glyph glyph-name="e.sc" horiz-adv-x="1064" 
d="M-10 0l194 1098h922l-53 -297h-564l-22 -127h526l-41 -244h-528l-23 -133h564l-54 -297h-921z" />
    <glyph glyph-name="f.sc" horiz-adv-x="999" 
d="M889 297h-488l-53 -297h-358l194 1098h883l-57 -316h-523l-36 -200h487z" />
    <glyph glyph-name="g.sc" horiz-adv-x="1224" 
d="M381 -20q-120 0 -203.5 66.5t-119 200t0.5 333.5q46 263 208 404.5t419 141.5q125 0 214.5 -24.5t145 -73t85 -111t40.5 -147.5l-348 -68q-7 64 -41 94.5t-120 30.5q-106 0 -164.5 -65.5t-83.5 -202.5q-25 -150 16 -225.5t158 -75.5q99 0 147.5 38.5t57.5 94.5h-207
l41 238h542l-110 -629h-326l41 233h-26q-131 -253 -367 -253z" />
    <glyph glyph-name="h.sc" horiz-adv-x="1228" 
d="M1067 0h-358l69 393h-360l-70 -393h-358l194 1098h359l-70 -398h358l70 398h359z" />
    <glyph glyph-name="i.sc" horiz-adv-x="512" 
d="M348 0h-358l194 1098h359z" />
    <glyph glyph-name="j.sc" horiz-adv-x="620" 
d="M164 367l131 731h358l-133 -750q-31 -171 -137 -266.5t-295 -95.5q-74 0 -156 12l64 295q36 -10 78 -10q37 0 60.5 23t29.5 61z" />
    <glyph glyph-name="k.sc" horiz-adv-x="1136" 
d="M647 0l-172 379h-59l-68 -379h-358l194 1098h359l-80 -447h53l313 447h428l-4 -21l-481 -549l295 -508l-4 -20h-416z" />
    <glyph glyph-name="l.sc" horiz-adv-x="927" 
d="M184 1098h359l-144 -811h453l-49 -287h-813z" />
    <glyph glyph-name="m.sc" horiz-adv-x="1605" 
d="M387 389l-68 -389h-329l194 1098h574l28 -353q11 -118 17 -327h24q71 196 134 342l145 338h530l-194 -1098h-359l70 389q40 225 88 432h-22q-100 -254 -218 -493l-131 -275h-321l-27 281q-28 233 -39 487h-22q-46 -276 -74 -432z" />
    <glyph glyph-name="n.sc" horiz-adv-x="1263" 
d="M627 0l-88 340q-34 133 -82 463l-23 -2q-28 -305 -67 -537l-48 -264h-329l194 1098h498l72 -275q53 -205 77 -489l25 2q21 259 59 487l50 275h327l-192 -1098h-473z" />
    <glyph glyph-name="o.sc" horiz-adv-x="1253" 
d="M582 -29q-296 0 -432.5 169.5t-83.5 467.5q42 245 211 381.5t417 136.5q291 0 432.5 -165t90.5 -457q-44 -251 -211 -392t-424 -141zM600 266q116 0 177 65t85 199q51 297 -190 297q-115 0 -177 -66t-83 -190q-27 -152 17 -228.5t171 -76.5z" />
    <glyph glyph-name="p.sc" horiz-adv-x="976" 
d="M602 809h-110l-50 -270h123q82 0 123.5 29t52.5 89q12 77 -20 114.5t-119 37.5zM590 262h-195l-47 -262h-358l194 1098h475q255 0 361.5 -119.5t66.5 -349.5q-28 -157 -159.5 -262t-337.5 -105z" />
    <glyph glyph-name="q.sc" horiz-adv-x="1255" 
d="M600 266q116 0 177 65t85 199q51 297 -190 297q-115 0 -177 -66t-83 -190q-27 -152 17 -228.5t171 -76.5zM582 -29q-296 0 -432.5 169.5t-83.5 467.5q42 245 211 381.5t417 136.5q291 0 432.5 -165t90.5 -457q-50 -286 -254 -424l122 -223l-4 -21h-383l-59 137
q-18 -2 -57 -2z" />
    <glyph glyph-name="r.sc" horiz-adv-x="1150" 
d="M639 811h-147l-41 -229h153q78 0 112.5 24.5t45.5 81.5q12 66 -18 94.5t-105 28.5zM647 0l-127 330h-114l-58 -330h-358l194 1098h533q227 0 331 -102.5t66 -309.5q-39 -219 -240 -303l191 -363l-2 -20h-416z" />
    <glyph glyph-name="s.sc" horiz-adv-x="1120" 
d="M514 -29q-118 0 -207 20.5t-141.5 52t-87.5 79t-48.5 90t-19.5 96.5l344 66q10 -66 59.5 -98.5t125.5 -32.5q67 0 102 13t41 44q7 42 -37 67.5t-184 45.5q-111 16 -186 51.5t-112 86.5t-48.5 118t4.5 145q54 311 520 311q102 0 181 -17t130 -45.5t85 -71t49.5 -88
t19.5 -101.5l-359 -62q-6 66 -37.5 93.5t-109.5 27.5q-118 0 -127 -59q-6 -15 -0.5 -30.5t21 -29t59.5 -27t115 -24.5q102 -17 176 -46.5t115.5 -67t65 -84t24 -96.5t-6.5 -105q-27 -157 -158 -239.5t-368 -82.5z" />
    <glyph glyph-name="t.sc" horiz-adv-x="997" 
d="M78 782l55 316h946l-55 -316h-295l-137 -782h-359l138 782h-293z" />
    <glyph glyph-name="u.sc" horiz-adv-x="1216" 
d="M586 276q91 0 133.5 46t58.5 141l113 635h358l-123 -699q-35 -205 -179 -315.5t-378 -110.5q-281 0 -408.5 131.5t-84.5 376.5l108 617h359l-113 -637q-17 -88 16 -136.5t140 -48.5z" />
    <glyph glyph-name="v.sc" horiz-adv-x="1161" 
d="M739 0h-487l-170 1098h375l51 -572q3 -39 18 -229h33q48 117 98 229l261 572h378z" />
    <glyph glyph-name="w.sc" horiz-adv-x="1658" 
d="M766 465l-131 -465h-490l-63 1098h379l-8 -426q-3 -229 -13 -379h25q60 217 117 379l145 426h449l-13 -426q-3 -101 -20 -379h26q23 76 119 379l135 426h369l-442 -1098h-516l28 465q5 87 31 358h-25q-36 -132 -102 -358z" />
    <glyph glyph-name="x.sc" horiz-adv-x="1099" 
d="M629 0l-90 393h-15l-227 -393h-387l4 20l405 553l-215 504l5 21h389l98 -379h14l209 379h387l-4 -21l-397 -553l217 -504l-4 -20h-389z" />
    <glyph glyph-name="y.sc" horiz-adv-x="1077" 
d="M631 0h-359l60 330l-264 747l4 21h389l78 -473h28l256 473h396l-5 -21l-524 -745z" />
    <glyph glyph-name="z.sc" horiz-adv-x="1136" 
d="M1038 317l-55 -317h-1008l52 287l620 504l-6 16q-198 -25 -295 -25h-217l57 316h981l-51 -287l-629 -510l2 -8q178 24 269 24h280z" />
    <glyph glyph-name="aacute.sc" horiz-adv-x="1171" 
d="M735 0l-18 188h-367l-86 -188h-377l557 1098h500l168 -1098h-377zM563 1145l-65 166l538 272l92 -229zM524 571l-61 -135h229l-12 135q-12 160 -16 230h-39q-22 -54 -101 -230z" />
    <glyph glyph-name="abreve.sc" horiz-adv-x="1171" 
d="M735 0l-18 188h-367l-86 -188h-377l557 1098h500l168 -1098h-377zM727 1395q67 0 112 32.5t72 118.5h148q-31 -193 -110 -276.5t-232 -83.5q-329 0 -268 360h147q-3 -86 31.5 -118.5t99.5 -32.5zM524 571l-61 -135h229l-12 135q-12 160 -16 230h-39q-22 -54 -101 -230z
" />
    <glyph glyph-name="acircumflex.sc" horiz-adv-x="1171" 
d="M735 0l-18 188h-367l-86 -188h-377l557 1098h500l168 -1098h-377zM922 1147l-195 172l-258 -172l-102 119l342 305h100l233 -305zM524 571l-61 -135h229l-12 135q-12 160 -16 230h-39q-22 -54 -101 -230z" />
    <glyph glyph-name="adieresis.sc" horiz-adv-x="1171" 
d="M735 0l-18 188h-367l-86 -188h-377l557 1098h500l168 -1098h-377zM434 1509h283l-49 -272h-281zM774 1509h283l-49 -272h-281zM524 571l-61 -135h229l-12 135q-12 160 -16 230h-39q-22 -54 -101 -230z" />
    <glyph glyph-name="agrave.sc" horiz-adv-x="1171" 
d="M735 0l-18 188h-367l-86 -188h-377l557 1098h500l168 -1098h-377zM860 1147l-487 213l135 229l440 -280zM524 571l-61 -135h229l-12 135q-12 160 -16 230h-39q-22 -54 -101 -230z" />
    <glyph glyph-name="amacron.sc" horiz-adv-x="1171" 
d="M735 0l-18 188h-367l-86 -188h-377l557 1098h500l168 -1098h-377zM463 1460h553l-39 -227h-555zM524 571l-61 -135h229l-12 135q-12 160 -16 230h-39q-22 -54 -101 -230z" />
    <glyph glyph-name="aogonek.sc" horiz-adv-x="1171" 
d="M1053 -336q-78 -10 -129 -10q-125 0 -179.5 41t-42.5 119q22 128 226 186h-193l-18 188h-367l-86 -188h-377l557 1098h500l168 -1098q-107 -18 -156 -38.5t-55 -53.5q-5 -23 16 -36t64 -13q34 0 109 14zM524 571l-61 -135h229l-12 135q-12 160 -16 230h-39
q-22 -54 -101 -230z" />
    <glyph glyph-name="aring.sc" horiz-adv-x="1171" 
d="M735 0l-18 188h-367l-86 -188h-377l557 1098h500l168 -1098h-377zM645 1423q-8 -45 13 -72.5t65 -27.5q39 0 64.5 24t31.5 66q8 44 -13.5 72t-64.5 28q-38 0 -64 -24.5t-32 -65.5zM973 1397q-19 -104 -89.5 -161.5t-178.5 -57.5q-119 0 -177.5 72t-38.5 186
q20 105 91.5 164t177.5 59q118 0 177 -74t38 -188zM524 571l-61 -135h229l-12 135q-12 160 -16 230h-39q-22 -54 -101 -230z" />
    <glyph glyph-name="aringacute.sc" horiz-adv-x="1171" 
d="M532 1415l-32 160l516 182l41 -223zM680 1188q-7 -41 15 -65.5t65 -24.5q39 0 65.5 21t32.5 57q6 40 -16 65t-64 25q-39 0 -65.5 -21t-32.5 -57zM1012 1163q-11 -70 -60 -125l160 -1038h-377l-18 188h-367l-86 -188h-377l557 1098h84q-12 47 0 106q15 94 88.5 150.5
t180.5 56.5q117 0 176 -68t39 -180zM524 571l-61 -135h229l-12 135q-12 160 -16 230h-39q-22 -54 -101 -230z" />
    <glyph glyph-name="atilde.sc" horiz-adv-x="1171" 
d="M735 0l-18 188h-367l-86 -188h-377l557 1098h500l168 -1098h-377zM602 1559q42 0 76 -16t55.5 -38.5t39 -45t36 -38.5t37.5 -16q38 0 56.5 33t31.5 108h139q-2 -40 -10 -96q-49 -272 -223 -272q-37 0 -68 16t-51 38t-38.5 44.5t-40 38.5t-46.5 16q-33 0 -52.5 -32.5
t-33.5 -108.5h-139q2 38 10 94q24 135 82.5 205t138.5 70zM524 571l-61 -135h229l-12 135q-12 160 -16 230h-39q-22 -54 -101 -230z" />
    <glyph glyph-name="ae.sc" horiz-adv-x="1675" 
d="M569 569l-73 -135h182l67 389h-53q-53 -124 -123 -254zM600 0l33 180h-275l-98 -180h-373l645 1098h1184l-53 -297h-563l-23 -127h527l-41 -244h-529l-22 -133h563l-53 -297h-922z" />
    <glyph glyph-name="aeacute.sc" horiz-adv-x="1675" 
d="M893 1135l-66 165l539 273l92 -230zM600 0l33 180h-275l-98 -180h-373l645 1098h1184l-53 -297h-563l-23 -127h527l-41 -244h-529l-22 -133h563l-53 -297h-922zM569 569l-73 -135h182l67 389h-53q-53 -124 -123 -254z" />
    <glyph glyph-name="cacute.sc" horiz-adv-x="1189" 
d="M557 -29q-284 0 -416 168t-78 471q44 249 209.5 382.5t419.5 133.5q238 0 359 -119.5t123 -320.5l-349 -59q-8 108 -43 154t-129 46q-104 0 -162 -72.5t-79 -189.5q-26 -146 13.5 -222.5t154.5 -76.5q87 0 133.5 46t89.5 157l332 -55q-54 -225 -203 -334t-375 -109z
M571 1174l-65 165l538 273l93 -230z" />
    <glyph glyph-name="ccaron.sc" horiz-adv-x="1189" 
d="M557 -29q-284 0 -416 168t-78 471q44 249 209.5 382.5t419.5 133.5q238 0 359 -119.5t123 -320.5l-349 -59q-8 108 -43 154t-129 46q-104 0 -162 -72.5t-79 -189.5q-26 -146 13.5 -222.5t154.5 -76.5q87 0 133.5 46t89.5 157l332 -55q-54 -225 -203 -334t-375 -109z
M745 1202h-100l-233 305l120 119l197 -174l258 174l100 -119z" />
    <glyph glyph-name="ccedilla.sc" horiz-adv-x="1189" 
d="M557 -29q-29 0 -43 2l-33 -61q29 10 68 10q147 0 125 -127q-9 -53 -62.5 -96t-156.5 -43q-128 0 -199 55l76 96q65 -45 141 -45q61 0 68 45q5 21 -8.5 32t-47.5 11q-31 0 -71 -12l-76 31l63 119q-205 43 -294 204.5t-44 417.5q44 249 209.5 382.5t419.5 133.5
q238 0 359 -119.5t123 -320.5l-349 -59q-8 108 -43 154t-129 46q-104 0 -162 -72.5t-79 -189.5q-26 -146 13.5 -222.5t154.5 -76.5q87 0 133.5 46t89.5 157l332 -55q-54 -225 -203 -334t-375 -109z" />
    <glyph glyph-name="ccircumflex.sc" horiz-adv-x="1189" 
d="M557 -29q-284 0 -416 168t-78 471q44 249 209.5 382.5t419.5 133.5q238 0 359 -119.5t123 -320.5l-349 -59q-8 108 -43 154t-129 46q-104 0 -162 -72.5t-79 -189.5q-26 -146 13.5 -222.5t154.5 -76.5q87 0 133.5 46t89.5 157l332 -55q-54 -225 -203 -334t-375 -109z
M930 1176l-195 172l-258 -172l-102 118l342 305h100l234 -305z" />
    <glyph glyph-name="cdotaccent.sc" horiz-adv-x="1189" 
d="M557 -29q-284 0 -416 168t-78 471q44 249 209.5 382.5t419.5 133.5q238 0 359 -119.5t123 -320.5l-349 -59q-8 108 -43 154t-129 46q-104 0 -162 -72.5t-79 -189.5q-26 -146 13.5 -222.5t154.5 -76.5q87 0 133.5 46t89.5 157l332 -55q-54 -225 -203 -334t-375 -109z
M600 1554h313l-51 -299h-313z" />
    <glyph glyph-name="dcaron.sc" horiz-adv-x="1222" 
d="M614 817h-122l-95 -536h131q140 0 212.5 58t97.5 191q27 163 -24 225t-200 62zM-10 0l192 1098h498q612 0 506 -596q-40 -233 -211.5 -367.5t-431.5 -134.5h-553zM770 1174h-100l-234 305l121 118l197 -174l258 174l100 -118z" />
    <glyph glyph-name="dcroat.sc" horiz-adv-x="1271" 
d="M657 444h-188l-29 -163h131q140 0 212.5 58t97.5 191q27 163 -24 225t-200 62h-122l-31 -172h188zM33 0l78 444h-91l37 201h88l80 453h498q612 0 506 -596q-40 -233 -211.5 -367.5t-431.5 -134.5h-553z" />
    <glyph glyph-name="eacute.sc" horiz-adv-x="1064" 
d="M-10 0l194 1098h922l-53 -297h-564l-22 -127h526l-41 -244h-528l-23 -133h564l-54 -297h-921zM514 1145l-65 166l538 272l92 -229z" />
    <glyph glyph-name="ebreve.sc" horiz-adv-x="1064" 
d="M-10 0l194 1098h922l-53 -297h-564l-22 -127h526l-41 -244h-528l-23 -133h564l-54 -297h-921zM678 1395q67 0 112 32.5t72 118.5h148q-31 -193 -110 -276.5t-232 -83.5q-330 0 -269 360h148q-3 -86 31.5 -118.5t99.5 -32.5z" />
    <glyph glyph-name="ecaron.sc" horiz-adv-x="1064" 
d="M-10 0l194 1098h922l-53 -297h-564l-22 -127h526l-41 -244h-528l-23 -133h564l-54 -297h-921zM688 1174h-100l-234 305l121 118l197 -174l258 174l100 -118z" />
    <glyph glyph-name="ecircumflex.sc" horiz-adv-x="1064" 
d="M-10 0l194 1098h922l-53 -297h-564l-22 -127h526l-41 -244h-528l-23 -133h564l-54 -297h-921zM872 1147l-194 172l-258 -172l-103 119l342 305h101l233 -305z" />
    <glyph glyph-name="edieresis.sc" horiz-adv-x="1064" 
d="M-10 0l194 1098h922l-53 -297h-564l-22 -127h526l-41 -244h-528l-23 -133h564l-54 -297h-921zM385 1509h283l-50 -272h-280zM725 1509h283l-50 -272h-280z" />
    <glyph glyph-name="edotaccent.sc" horiz-adv-x="1064" 
d="M-10 0l194 1098h922l-53 -297h-564l-22 -127h526l-41 -244h-528l-23 -133h564l-54 -297h-921zM545 1526h313l-51 -299h-313z" />
    <glyph glyph-name="egrave.sc" horiz-adv-x="1064" 
d="M-10 0l194 1098h922l-53 -297h-564l-22 -127h526l-41 -244h-528l-23 -133h564l-54 -297h-921zM811 1147l-487 213l135 229l440 -280z" />
    <glyph glyph-name="emacron.sc" horiz-adv-x="1064" 
d="M-10 0l194 1098h922l-53 -297h-564l-22 -127h526l-41 -244h-528l-23 -133h564l-54 -297h-921zM414 1460h553l-39 -227h-555z" />
    <glyph glyph-name="eng.sc" horiz-adv-x="1261" 
d="M-10 0l194 1098h502l82 -275q55 -173 96 -385l13 2q13 235 38 383l50 275h327l-188 -1069q-63 -359 -447 -359q-84 0 -172 15l70 288q66 -16 111 -16q68 0 94 41l-176 324q-33 60 -68.5 199t-60.5 280l-21 -2q-28 -301 -67 -535l-48 -264h-329z" />
    <glyph glyph-name="eogonek.sc" horiz-adv-x="1064" 
d="M854 -336q-78 -10 -129 -10q-125 0 -179 41t-42 119q22 128 225 186h-739l194 1098h922l-53 -297h-564l-22 -127h526l-41 -244h-528l-23 -133h564l-54 -295l2 -2q-107 -18 -156 -38.5t-55 -53.5q-5 -23 16 -36t64 -13q34 0 109 14z" />
    <glyph glyph-name="eth.sc" horiz-adv-x="1271" 
d="M657 444h-188l-29 -163h131q140 0 212.5 58t97.5 191q27 163 -24 225t-200 62h-122l-31 -172h188zM33 0l78 444h-91l37 201h88l80 453h498q612 0 506 -596q-40 -233 -211.5 -367.5t-431.5 -134.5h-553z" />
    <glyph glyph-name="fi.sc" horiz-adv-x="1517" 
d="M889 297h-488l-53 -297h-358l194 1098h883l-57 -316h-523l-36 -200h487zM1354 0h-359l195 1098h358z" />
    <glyph glyph-name="fl.sc" horiz-adv-x="1933" 
d="M889 297h-488l-53 -297h-358l194 1098h883l-57 -316h-523l-36 -200h487zM1190 1098h358l-143 -811h453l-50 -287h-813z" />
    <glyph glyph-name="gbreve.sc" horiz-adv-x="1224" 
d="M381 -20q-120 0 -203.5 66.5t-119 200t0.5 333.5q46 263 208 404.5t419 141.5q125 0 214.5 -24.5t145 -73t85 -111t40.5 -147.5l-348 -68q-7 64 -41 94.5t-120 30.5q-106 0 -164.5 -65.5t-83.5 -202.5q-25 -150 16 -225.5t158 -75.5q99 0 147.5 38.5t57.5 94.5h-207
l41 238h542l-110 -629h-326l41 233h-26q-131 -253 -367 -253zM733 1423q66 0 112 33t73 119h147q-31 -193 -110 -277t-232 -84q-330 0 -268 361h147q-3 -86 31.5 -119t99.5 -33z" />
    <glyph glyph-name="gcircumflex.sc" horiz-adv-x="1224" 
d="M381 -20q-120 0 -203.5 66.5t-119 200t0.5 333.5q46 263 208 404.5t419 141.5q125 0 214.5 -24.5t145 -73t85 -111t40.5 -147.5l-348 -68q-7 64 -41 94.5t-120 30.5q-106 0 -164.5 -65.5t-83.5 -202.5q-25 -150 16 -225.5t158 -75.5q99 0 147.5 38.5t57.5 94.5h-207
l41 238h542l-110 -629h-326l41 233h-26q-131 -253 -367 -253zM928 1176l-195 172l-258 -172l-102 118l342 305h100l234 -305z" />
    <glyph glyph-name="gcommaaccent.sc" horiz-adv-x="1224" 
d="M381 -20q-120 0 -203.5 66.5t-119 200t0.5 333.5q46 263 208 404.5t419 141.5q125 0 214.5 -24.5t145 -73t85 -111t40.5 -147.5l-348 -68q-7 64 -41 94.5t-120 30.5q-106 0 -164.5 -65.5t-83.5 -202.5q-25 -150 16 -225.5t158 -75.5q99 0 147.5 38.5t57.5 94.5h-207
l41 238h542l-110 -629h-326l41 233h-26q-131 -253 -367 -253zM393 -98h256l-174 -320h-213l4 19z" />
    <glyph glyph-name="gdotaccent.sc" horiz-adv-x="1224" 
d="M381 -20q-120 0 -203.5 66.5t-119 200t0.5 333.5q46 263 208 404.5t419 141.5q125 0 214.5 -24.5t145 -73t85 -111t40.5 -147.5l-348 -68q-7 64 -41 94.5t-120 30.5q-106 0 -164.5 -65.5t-83.5 -202.5q-25 -150 16 -225.5t158 -75.5q99 0 147.5 38.5t57.5 94.5h-207
l41 238h542l-110 -629h-326l41 233h-26q-131 -253 -367 -253zM600 1554h313l-51 -299h-313z" />
    <glyph glyph-name="hbar.sc" horiz-adv-x="1298" 
d="M844 598l22 129h-360l-23 -129h361zM1096 0h-359l56 311h-359l-55 -311h-359l127 727h-90l33 191h92l31 180h358l-30 -180h358l33 180h358l-33 -180h101l-33 -191h-100z" />
    <glyph glyph-name="hcircumflex.sc" horiz-adv-x="1228" 
d="M1067 0h-358l69 393h-360l-70 -393h-358l194 1098h359l-70 -398h358l70 398h359zM950 1147l-194 172l-258 -172l-103 119l342 305h101l233 -305z" />
    <glyph glyph-name="iacute.sc" horiz-adv-x="512" 
d="M348 0h-358l194 1098h359zM233 1145l-65 166l539 272l92 -229z" />
    <glyph glyph-name="ibreve.sc" horiz-adv-x="512" 
d="M348 0h-358l194 1098h359zM395 1395q67 0 112.5 32.5t72.5 118.5h147q-31 -193 -110 -276.5t-232 -83.5q-329 0 -268 360h147q-3 -86 31.5 -118.5t99.5 -32.5z" />
    <glyph glyph-name="icircumflex.sc" horiz-adv-x="512" 
d="M348 0h-358l194 1098h359zM592 1147l-195 172l-258 -172l-102 119l342 305h100l234 -305z" />
    <glyph glyph-name="idieresis.sc" horiz-adv-x="512" 
d="M348 0h-358l194 1098h359zM104 1509h283l-49 -272h-281zM444 1509h283l-49 -272h-281z" />
    <glyph glyph-name="igrave.sc" horiz-adv-x="512" 
d="M348 0h-358l194 1098h359zM528 1147l-487 213l135 229l440 -280z" />
    <glyph glyph-name="ij.sc" horiz-adv-x="1132" 
d="M348 0h-358l194 1098h359zM676 367l131 731h358l-133 -750q-31 -171 -137 -266.5t-295 -95.5q-74 0 -156 12l64 295q36 -10 78 -10q37 0 60.5 23t29.5 61z" />
    <glyph glyph-name="imacron.sc" horiz-adv-x="512" 
d="M348 0h-358l194 1098h359zM131 1460h553l-39 -227h-555z" />
    <glyph glyph-name="iogonek.sc" horiz-adv-x="512" 
d="M162 -346q-125 0 -179 41t-42 119q22 128 225 186h-176l194 1098h359l-195 -1096l2 -2q-107 -18 -156 -38.5t-55 -53.5q-5 -23 16 -36t64 -13q34 0 109 14l-37 -209q-78 -10 -129 -10z" />
    <glyph glyph-name="itilde.sc" horiz-adv-x="512" 
d="M348 0h-358l194 1098h359zM272 1559q42 0 76 -16t55.5 -38.5t39 -45t36 -38.5t37.5 -16q38 0 56.5 33t31.5 108h139q-2 -40 -10 -96q-49 -272 -223 -272q-37 0 -68 16t-51 38t-38.5 44.5t-40 38.5t-46.5 16q-33 0 -52.5 -32.5t-33.5 -108.5h-139q2 38 10 94
q24 135 82.5 205t138.5 70z" />
    <glyph glyph-name="jcircumflex.sc" horiz-adv-x="620" 
d="M164 367l131 731h358l-133 -750q-31 -171 -137 -266.5t-295 -95.5q-74 0 -156 12l64 295q36 -10 78 -10q37 0 60.5 23t29.5 61zM696 1147l-194 172l-258 -172l-103 119l342 305h101l233 -305z" />
    <glyph glyph-name="kcommaaccent.sc" horiz-adv-x="1136" 
d="M647 0l-172 379h-59l-68 -379h-358l194 1098h359l-80 -447h53l313 447h428l-4 -21l-481 -549l295 -508l-4 -20h-416zM414 -98h256l-174 -320h-213l4 19z" />
    <glyph glyph-name="lacute.sc" horiz-adv-x="927" 
d="M336 1145l-66 166l539 272l92 -229zM184 1098h359l-144 -811h453l-49 -287h-813z" />
    <glyph glyph-name="lcaron.sc" horiz-adv-x="956" 
d="M813 1098h252l-160 -518h-211zM184 1098h359l-144 -811h453l-49 -287h-813z" />
    <glyph glyph-name="lcommaaccent.sc" horiz-adv-x="927" 
d="M184 1098h359l-144 -811h453l-49 -287h-813zM283 -98h256l-174 -320h-213l4 19z" />
    <glyph glyph-name="ldot.sc" horiz-adv-x="929" 
d="M721 809h272l-43 -262h-274zM184 1098h359l-144 -811h453l-49 -287h-813z" />
    <glyph glyph-name="lslash.sc" horiz-adv-x="962" 
d="M219 1098h359l-66 -369l227 88l-37 -207l-227 -86l-41 -237h453l-49 -287h-813l67 377l-100 -39l37 205l98 39z" />
    <glyph glyph-name="nacute.sc" horiz-adv-x="1263" 
d="M627 0l-88 340q-34 133 -82 463l-23 -2q-28 -305 -67 -537l-48 -264h-329l194 1098h498l72 -275q53 -205 77 -489l25 2q21 259 59 487l50 275h327l-192 -1098h-473zM608 1145l-65 166l538 272l93 -229z" />
    <glyph glyph-name="ncaron.sc" horiz-adv-x="1263" 
d="M627 0l-88 340q-34 133 -82 463l-23 -2q-28 -305 -67 -537l-48 -264h-329l194 1098h498l72 -275q53 -205 77 -489l25 2q21 259 59 487l50 275h327l-192 -1098h-473zM782 1174h-100l-233 305l120 118l197 -174l258 174l100 -118z" />
    <glyph glyph-name="ncommaaccent.sc" horiz-adv-x="1263" 
d="M627 0l-88 340q-34 133 -82 463l-23 -2q-28 -305 -67 -537l-48 -264h-329l194 1098h498l72 -275q53 -205 77 -489l25 2q21 259 59 487l50 275h327l-192 -1098h-473zM432 -98h256l-174 -320h-213l4 19z" />
    <glyph glyph-name="ntilde.sc" horiz-adv-x="1263" 
d="M627 0l-88 340q-34 133 -82 463l-23 -2q-28 -305 -67 -537l-48 -264h-329l194 1098h498l72 -275q53 -205 77 -489l25 2q21 259 59 487l50 275h327l-192 -1098h-473zM647 1559q42 0 76 -16t55.5 -38.5t39 -45t36 -38.5t37.5 -16q38 0 56.5 33t31.5 108h139q-2 -40 -10 -96
q-49 -272 -223 -272q-37 0 -68 16t-51 38t-38.5 44.5t-40 38.5t-46.5 16q-33 0 -52.5 -32.5t-33.5 -108.5h-139q2 38 10 94q24 135 82.5 205t138.5 70z" />
    <glyph glyph-name="oacute.sc" horiz-adv-x="1253" 
d="M582 -29q-296 0 -432.5 169.5t-83.5 467.5q42 245 211 381.5t417 136.5q291 0 432.5 -165t90.5 -457q-44 -251 -211 -392t-424 -141zM600 266q116 0 177 65t85 199q51 297 -190 297q-115 0 -177 -66t-83 -190q-27 -152 17 -228.5t171 -76.5zM604 1174l-65 165l538 273
l92 -230z" />
    <glyph glyph-name="obreve.sc" horiz-adv-x="1253" 
d="M582 -29q-296 0 -432.5 169.5t-83.5 467.5q42 245 211 381.5t417 136.5q291 0 432.5 -165t90.5 -457q-44 -251 -211 -392t-424 -141zM600 266q116 0 177 65t85 199q51 297 -190 297q-115 0 -177 -66t-83 -190q-27 -152 17 -228.5t171 -76.5zM768 1423q66 0 111.5 33
t72.5 119h148q-31 -193 -110 -277t-232 -84q-331 0 -269 361h148q-3 -86 31.5 -119t99.5 -33z" />
    <glyph glyph-name="ocircumflex.sc" horiz-adv-x="1253" 
d="M600 266q116 0 177 65t85 199q51 297 -190 297q-115 0 -177 -66t-83 -190q-27 -152 17 -228.5t171 -76.5zM582 -29q-296 0 -432.5 169.5t-83.5 467.5q42 245 211 381.5t417 136.5q291 0 432.5 -165t90.5 -457q-44 -251 -211 -392t-424 -141zM963 1176l-195 172l-258 -172
l-102 118l342 305h100l233 -305z" />
    <glyph glyph-name="odieresis.sc" horiz-adv-x="1253" 
d="M582 -29q-296 0 -432.5 169.5t-83.5 467.5q42 245 211 381.5t417 136.5q291 0 432.5 -165t90.5 -457q-44 -251 -211 -392t-424 -141zM600 266q116 0 177 65t85 199q51 297 -190 297q-115 0 -177 -66t-83 -190q-27 -152 17 -228.5t171 -76.5zM475 1538h283l-49 -272h-281z
M815 1538h283l-49 -272h-281z" />
    <glyph glyph-name="ograve.sc" horiz-adv-x="1253" 
d="M582 -29q-296 0 -432.5 169.5t-83.5 467.5q42 245 211 381.5t417 136.5q291 0 432.5 -165t90.5 -457q-44 -251 -211 -392t-424 -141zM600 266q116 0 177 65t85 199q51 297 -190 297q-115 0 -177 -66t-83 -190q-27 -152 17 -228.5t171 -76.5zM901 1176l-487 213l135 229
l440 -281z" />
    <glyph glyph-name="ohungarumlaut.sc" horiz-adv-x="1253" 
d="M582 -29q-296 0 -432.5 169.5t-83.5 467.5q42 245 211 381.5t417 136.5q291 0 432.5 -165t90.5 -457q-44 -251 -211 -392t-424 -141zM600 266q116 0 177 65t85 199q51 297 -190 297q-115 0 -177 -66t-83 -190q-27 -152 17 -228.5t171 -76.5zM596 1188l-129 80l231 346
l170 -105zM885 1190l-117 96l264 326l158 -119z" />
    <glyph glyph-name="omacron.sc" horiz-adv-x="1253" 
d="M582 -29q-296 0 -432.5 169.5t-83.5 467.5q42 245 211 381.5t417 136.5q291 0 432.5 -165t90.5 -457q-44 -251 -211 -392t-424 -141zM600 266q116 0 177 65t85 199q51 297 -190 297q-115 0 -177 -66t-83 -190q-27 -152 17 -228.5t171 -76.5zM504 1489h553l-39 -227h-555z
" />
    <glyph glyph-name="oslash.sc" horiz-adv-x="1251" 
d="M393 571q-13 -69 -10 -137l422 379q-53 29 -129 29q-125 0 -192.5 -70t-90.5 -201zM582 -29q-216 0 -353 95l-65 -66h-262l2 12l211 176q-95 165 -49 420q42 245 211 381.5t417 136.5q220 0 357 -96l69 68h258l-4 -11l-211 -178q97 -161 54 -405q-44 -251 -211 -392
t-424 -141zM598 252q125 0 192 69t91 207q13 79 8 129l-420 -376q53 -29 129 -29z" />
    <glyph glyph-name="oslashacute.sc" horiz-adv-x="1253" 
d="M393 571q-13 -69 -10 -137l422 379q-53 29 -129 29q-125 0 -192.5 -70t-90.5 -201zM582 -29q-216 0 -353 95l-65 -66h-262l2 12l211 176q-95 165 -49 420q42 245 211 381.5t417 136.5q220 0 357 -96l69 68h258l-4 -11l-211 -178q97 -161 54 -405q-44 -251 -211 -392
t-424 -141zM594 1163l-66 166l539 273l92 -230zM598 252q125 0 192 69t91 207q13 79 8 129l-420 -376q53 -29 129 -29z" />
    <glyph glyph-name="otilde.sc" horiz-adv-x="1253" 
d="M582 -29q-296 0 -432.5 169.5t-83.5 467.5q42 245 211 381.5t417 136.5q291 0 432.5 -165t90.5 -457q-44 -251 -211 -392t-424 -141zM600 266q116 0 177 65t85 199q51 297 -190 297q-115 0 -177 -66t-83 -190q-27 -152 17 -228.5t171 -76.5zM643 1587q42 0 76 -16
t55.5 -38.5t39 -44.5t36 -38t37.5 -16q38 0 56.5 33t31.5 108h139q-2 -40 -10 -96q-49 -273 -223 -273q-37 0 -68 16t-51 38.5t-38.5 45t-40 38.5t-46.5 16q-33 0 -52.5 -32.5t-33.5 -108.5h-139q2 38 10 94q24 135 82.5 204.5t138.5 69.5z" />
    <glyph glyph-name="oe.sc" horiz-adv-x="1796" 
d="M612 289h66l92 522h-82q-119 0 -188 -65t-90 -183q-25 -138 24 -206t178 -68zM567 0q-285 0 -421 154.5t-87 427.5q42 242 225 379t453 137h1006l-53 -297h-564l-22 -127h526l-41 -244h-528l-23 -133h564l-54 -297h-981z" />
    <glyph glyph-name="racute.sc" horiz-adv-x="1150" 
d="M639 811h-147l-41 -229h153q78 0 112.5 24.5t45.5 81.5q12 66 -18 94.5t-105 28.5zM647 0l-127 330h-114l-58 -330h-358l194 1098h533q227 0 331 -102.5t66 -309.5q-39 -219 -240 -303l191 -363l-2 -20h-416zM590 1145l-66 166l539 272l92 -229z" />
    <glyph glyph-name="rcaron.sc" horiz-adv-x="1150" 
d="M639 811h-147l-41 -229h153q78 0 112.5 24.5t45.5 81.5q12 66 -18 94.5t-105 28.5zM647 0l-127 330h-114l-58 -330h-358l194 1098h533q227 0 331 -102.5t66 -309.5q-39 -219 -240 -303l191 -363l-2 -20h-416zM719 1176h-101l-233 305l121 118l196 -174l259 174l100 -118z
" />
    <glyph glyph-name="rcommaaccent.sc" horiz-adv-x="1150" 
d="M414 -98h256l-174 -320h-213l4 19zM639 811h-147l-41 -229h153q78 0 112.5 24.5t45.5 81.5q12 66 -18 94.5t-105 28.5zM647 0l-127 330h-114l-58 -330h-358l194 1098h533q227 0 331 -102.5t66 -309.5q-39 -219 -240 -303l191 -363l-2 -20h-416z" />
    <glyph glyph-name="sacute.sc" horiz-adv-x="1120" 
d="M514 -29q-118 0 -207 20.5t-141.5 52t-87.5 79t-48.5 90t-19.5 96.5l344 66q10 -66 59.5 -98.5t125.5 -32.5q67 0 102 13t41 44q7 42 -37 67.5t-184 45.5q-111 16 -186 51.5t-112 86.5t-48.5 118t4.5 145q54 311 520 311q102 0 181 -17t130 -45.5t85 -71t49.5 -88
t19.5 -101.5l-359 -62q-6 66 -37.5 93.5t-109.5 27.5q-118 0 -127 -59q-6 -15 -0.5 -30.5t21 -29t59.5 -27t115 -24.5q102 -17 176 -46.5t115.5 -67t65 -84t24 -96.5t-6.5 -105q-27 -157 -158 -239.5t-368 -82.5zM535 1174l-66 165l539 273l92 -230z" />
    <glyph glyph-name="scaron.sc" horiz-adv-x="1120" 
d="M514 -29q-118 0 -207 20.5t-141.5 52t-87.5 79t-48.5 90t-19.5 96.5l344 66q10 -66 59.5 -98.5t125.5 -32.5q67 0 102 13t41 44q7 42 -37 67.5t-184 45.5q-111 16 -186 51.5t-112 86.5t-48.5 118t4.5 145q54 311 520 311q102 0 181 -17t130 -45.5t85 -71t49.5 -88
t19.5 -101.5l-359 -62q-6 66 -37.5 93.5t-109.5 27.5q-118 0 -127 -59q-6 -15 -0.5 -30.5t21 -29t59.5 -27t115 -24.5q102 -17 176 -46.5t115.5 -67t65 -84t24 -96.5t-6.5 -105q-27 -157 -158 -239.5t-368 -82.5zM709 1202h-101l-233 305l121 119l196 -174l258 174l101 -119
z" />
    <glyph glyph-name="scedilla.sc" horiz-adv-x="1120" 
d="M514 -29h-37l-33 -59q29 10 68 10q147 0 125 -127q-9 -53 -62.5 -96t-156.5 -43q-128 0 -199 55l76 96q65 -45 141 -45q61 0 68 45q5 21 -8 32t-47 11q-32 0 -72 -12l-76 31l61 113q-99 14 -168.5 47.5t-106 81.5t-53.5 94t-24 104l344 66q10 -66 59.5 -98.5t125.5 -32.5
q67 0 102 13t41 44q7 42 -37 67.5t-184 45.5q-111 16 -186 51.5t-112 86.5t-48.5 118t4.5 145q54 311 520 311q102 0 181 -17t130 -45.5t85 -71t49.5 -88t19.5 -101.5l-359 -62q-6 66 -37.5 93.5t-109.5 27.5q-118 0 -127 -59q-6 -15 -0.5 -30.5t21 -29t59.5 -27t115 -24.5
q102 -17 176 -46.5t115.5 -67t65 -84t24 -96.5t-6.5 -105q-27 -157 -158 -239.5t-368 -82.5z" />
    <glyph glyph-name="scircumflex.sc" horiz-adv-x="1120" 
d="M514 -29q-118 0 -207 20.5t-141.5 52t-87.5 79t-48.5 90t-19.5 96.5l344 66q10 -66 59.5 -98.5t125.5 -32.5q67 0 102 13t41 44q7 42 -37 67.5t-184 45.5q-111 16 -186 51.5t-112 86.5t-48.5 118t4.5 145q54 311 520 311q102 0 181 -17t130 -45.5t85 -71t49.5 -88
t19.5 -101.5l-359 -62q-6 66 -37.5 93.5t-109.5 27.5q-118 0 -127 -59q-6 -15 -0.5 -30.5t21 -29t59.5 -27t115 -24.5q102 -17 176 -46.5t115.5 -67t65 -84t24 -96.5t-6.5 -105q-27 -157 -158 -239.5t-368 -82.5zM893 1176l-195 172l-258 -172l-102 118l342 305h100
l234 -305z" />
    <glyph glyph-name="scommaaccent.sc" horiz-adv-x="1120" 
d="M514 -29q-118 0 -207 20.5t-141.5 52t-87.5 79t-48.5 90t-19.5 96.5l344 66q10 -66 59.5 -98.5t125.5 -32.5q67 0 102 13t41 44q7 42 -37 67.5t-184 45.5q-111 16 -186 51.5t-112 86.5t-48.5 118t4.5 145q54 311 520 311q102 0 181 -17t130 -45.5t85 -71t49.5 -88
t19.5 -101.5l-359 -62q-6 66 -37.5 93.5t-109.5 27.5q-118 0 -127 -59q-6 -15 -0.5 -30.5t21 -29t59.5 -27t115 -24.5q102 -17 176 -46.5t115.5 -67t65 -84t24 -96.5t-6.5 -105q-27 -157 -158 -239.5t-368 -82.5zM358 -98h256l-174 -320h-213l4 19z" />
    <glyph glyph-name="tbar.sc" horiz-adv-x="1001" 
d="M78 782l55 316h946l-55 -316h-295l-45 -252h225l-32 -186h-226l-59 -344h-359l60 344h-213l33 186h213l45 252h-293z" />
    <glyph glyph-name="tcaron.sc" horiz-adv-x="997" 
d="M1024 782h-295l-137 -782h-359l138 782h-293l55 316h946zM651 1176h-100l-234 305l121 118l197 -174l258 174l100 -118z" />
    <glyph glyph-name="tcommaaccent.sc" horiz-adv-x="997" 
d="M78 782l55 316h946l-55 -316h-295l-137 -782h-168l-49 -88q29 10 67 10q147 0 125 -127q-9 -53 -62.5 -96t-156.5 -43q-127 0 -198 55l75 96q65 -45 142 -45q60 0 67 45q5 21 -8 32t-47 11q-32 0 -72 -12l-76 31l70 131h-68l138 782h-293z" />
    <glyph glyph-name="uni021B.sc" horiz-adv-x="997" 
d="M78 782l55 316h946l-55 -316h-295l-137 -782h-359l138 782h-293zM299 -98h256l-174 -320h-213l4 19z" />
    <glyph glyph-name="thorn.sc" horiz-adv-x="1120" 
d="M186 1098h353l-23 -123h154q513 0 432 -465q-32 -179 -162 -281t-354 -102h-217l-23 -127h-354zM608 686h-141l-47 -270h158q155 0 176 121q12 75 -23 112t-123 37z" />
    <glyph glyph-name="uacute.sc" horiz-adv-x="1216" 
d="M586 276q91 0 133.5 46t58.5 141l113 635h358l-123 -699q-35 -205 -179 -315.5t-378 -110.5q-281 0 -408.5 131.5t-84.5 376.5l108 617h359l-113 -637q-17 -88 16 -136.5t140 -48.5zM586 1145l-66 166l539 272l92 -229z" />
    <glyph glyph-name="ubreve.sc" horiz-adv-x="1216" 
d="M586 276q91 0 133.5 46t58.5 141l113 635h358l-123 -699q-35 -205 -179 -315.5t-378 -110.5q-281 0 -408.5 131.5t-84.5 376.5l108 617h359l-113 -637q-17 -88 16 -136.5t140 -48.5zM750 1395q67 0 112 32.5t72 118.5h147q-31 -193 -110 -276.5t-232 -83.5
q-329 0 -268 360h147q-3 -86 31.5 -118.5t100.5 -32.5z" />
    <glyph glyph-name="ucircumflex.sc" horiz-adv-x="1216" 
d="M586 276q91 0 133.5 46t58.5 141l113 635h358l-123 -699q-35 -205 -179 -315.5t-378 -110.5q-281 0 -408.5 131.5t-84.5 376.5l108 617h359l-113 -637q-17 -88 16 -136.5t140 -48.5zM946 1147l-194 172l-258 -172l-103 119l342 305h101l233 -305z" />
    <glyph glyph-name="udieresis.sc" horiz-adv-x="1216" 
d="M586 276q91 0 133.5 46t58.5 141l113 635h358l-123 -699q-35 -205 -179 -315.5t-378 -110.5q-281 0 -408.5 131.5t-84.5 376.5l108 617h359l-113 -637q-17 -88 16 -136.5t140 -48.5zM457 1509h282l-49 -272h-280zM797 1509h282l-49 -272h-280z" />
    <glyph glyph-name="ugrave.sc" horiz-adv-x="1216" 
d="M586 276q91 0 133.5 46t58.5 141l113 635h358l-123 -699q-35 -205 -179 -315.5t-378 -110.5q-281 0 -408.5 131.5t-84.5 376.5l108 617h359l-113 -637q-17 -88 16 -136.5t140 -48.5zM883 1147l-488 213l135 229l441 -280z" />
    <glyph glyph-name="uhungarumlaut.sc" horiz-adv-x="1216" 
d="M586 276q91 0 133.5 46t58.5 141l113 635h358l-123 -699q-35 -205 -179 -315.5t-378 -110.5q-281 0 -408.5 131.5t-84.5 376.5l108 617h359l-113 -637q-17 -88 16 -136.5t140 -48.5zM580 1159l-129 80l231 346l170 -104zM868 1161l-116 96l264 326l158 -119z" />
    <glyph glyph-name="umacron.sc" horiz-adv-x="1216" 
d="M586 276q91 0 133.5 46t58.5 141l113 635h358l-123 -699q-35 -205 -179 -315.5t-378 -110.5q-281 0 -408.5 131.5t-84.5 376.5l108 617h359l-113 -637q-17 -88 16 -136.5t140 -48.5zM485 1460h553l-39 -227h-555z" />
    <glyph glyph-name="uogonek.sc" horiz-adv-x="1216" 
d="M586 276q91 0 133.5 46t58.5 141l113 635h358l-123 -699q-35 -201 -173.5 -311.5t-364.5 -114.5q-79 -23 -88 -65q-5 -23 16 -36t64 -13q33 0 108 14l-37 -209q-78 -10 -129 -10q-125 0 -179 41t-42 119q17 105 162 166q-226 23 -325.5 152t-61.5 349l108 617h359
l-113 -637q-17 -88 16 -136.5t140 -48.5z" />
    <glyph glyph-name="uring.sc" horiz-adv-x="1216" 
d="M586 276q91 0 133.5 46t58.5 141l113 635h358l-123 -699q-35 -205 -179 -315.5t-378 -110.5q-281 0 -408.5 131.5t-84.5 376.5l108 617h359l-113 -637q-17 -88 16 -136.5t140 -48.5zM995 1397q-19 -104 -89.5 -161.5t-178.5 -57.5q-119 0 -177.5 72t-37.5 186
q20 105 91 164t177 59q118 0 177 -74t38 -188zM668 1423q-8 -45 12.5 -72.5t64.5 -27.5q39 0 65 24t32 66q8 44 -13.5 72t-64.5 28q-38 0 -64 -24.5t-32 -65.5z" />
    <glyph glyph-name="utilde.sc" horiz-adv-x="1216" 
d="M586 276q91 0 133.5 46t58.5 141l113 635h358l-123 -699q-35 -205 -179 -315.5t-378 -110.5q-281 0 -408.5 131.5t-84.5 376.5l108 617h359l-113 -637q-17 -88 16 -136.5t140 -48.5zM627 1559q42 0 76 -16t55 -38.5t38.5 -45t36 -38.5t37.5 -16q38 0 56.5 33t31.5 108
h140q-2 -28 -11 -96q-49 -272 -223 -272q-37 0 -67.5 16t-51 38t-38.5 44.5t-39.5 38.5t-46.5 16q-33 0 -52.5 -32.5t-33.5 -108.5h-140q2 25 11 94q24 135 82.5 205t138.5 70z" />
    <glyph glyph-name="wacute.sc" horiz-adv-x="1658" 
d="M766 465l-131 -465h-490l-63 1098h379l-8 -426q-3 -229 -13 -379h25q60 217 117 379l145 426h449l-13 -426q-3 -101 -20 -379h26q23 76 119 379l135 426h369l-442 -1098h-516l28 465q5 87 31 358h-25q-36 -132 -102 -358zM821 1145l-65 166l538 272l92 -229z" />
    <glyph glyph-name="wcircumflex.sc" horiz-adv-x="1658" 
d="M766 465l-131 -465h-490l-63 1098h379l-8 -426q-3 -229 -13 -379h25q60 217 117 379l145 426h449l-13 -426q-3 -101 -20 -379h26q23 76 119 379l135 426h369l-442 -1098h-516l28 465q5 87 31 358h-25q-36 -132 -102 -358zM1180 1147l-195 172l-258 -172l-102 119l342 305
h100l233 -305z" />
    <glyph glyph-name="wdieresis.sc" horiz-adv-x="1658" 
d="M766 465l-131 -465h-490l-63 1098h379l-8 -426q-3 -229 -13 -379h25q60 217 117 379l145 426h449l-13 -426q-3 -101 -20 -379h26q23 76 119 379l135 426h369l-442 -1098h-516l28 465q5 87 31 358h-25q-36 -132 -102 -358zM692 1509h283l-49 -272h-281zM1032 1509h283
l-49 -272h-281z" />
    <glyph glyph-name="wgrave.sc" horiz-adv-x="1658" 
d="M766 465l-131 -465h-490l-63 1098h379l-8 -426q-3 -229 -13 -379h25q60 217 117 379l145 426h449l-13 -426q-3 -101 -20 -379h26q23 76 119 379l135 426h369l-442 -1098h-516l28 465q5 87 31 358h-25q-36 -132 -102 -358zM1118 1147l-487 213l135 229l440 -280z" />
    <glyph glyph-name="yacute.sc" horiz-adv-x="1077" 
d="M631 0h-359l60 330l-264 747l4 21h389l78 -473h28l256 473h396l-5 -21l-524 -745zM516 1145l-65 166l538 272l92 -229z" />
    <glyph glyph-name="ycircumflex.sc" horiz-adv-x="1077" 
d="M631 0h-359l60 330l-264 747l4 21h389l78 -473h28l256 473h396l-5 -21l-524 -745zM874 1147l-194 172l-258 -172l-103 119l343 305h100l233 -305z" />
    <glyph glyph-name="ydieresis.sc" horiz-adv-x="1077" 
d="M631 0h-359l60 330l-264 747l4 21h389l78 -473h28l256 473h396l-5 -21l-524 -745zM387 1509h283l-49 -272h-281zM727 1509h283l-49 -272h-281z" />
    <glyph glyph-name="zacute.sc" horiz-adv-x="1136" 
d="M1038 317l-55 -317h-1008l52 287l620 504l-6 16q-198 -25 -295 -25h-217l57 316h981l-51 -287l-629 -510l2 -8q178 24 269 24h280zM543 1145l-66 166l539 272l92 -229z" />
    <glyph glyph-name="zcaron.sc" horiz-adv-x="1136" 
d="M1038 317l-55 -317h-1008l52 287l620 504l-6 16q-198 -25 -295 -25h-217l57 316h981l-51 -287l-629 -510l2 -8q178 24 269 24h280zM719 1174h-101l-233 305l121 118l196 -174l259 174l100 -118z" />
    <glyph glyph-name="zdotaccent.sc" horiz-adv-x="1136" 
d="M1038 317l-55 -317h-1008l52 287l620 504l-6 16q-198 -25 -295 -25h-217l57 316h981l-51 -287l-629 -510l2 -8q178 24 269 24h280zM573 1526h314l-51 -299h-314z" />
    <glyph glyph-name="germandbls.sc" horiz-adv-x="1204" 
d="M743 -18q-213 0 -323 118l166 238q72 -72 164 -72q61 0 67 37q3 20 -15 36.5t-65 35.5q-205 79 -176 237q12 69 69.5 112.5t166.5 72.5l-2 18q-94 -8 -193 -8q-60 0 -94 -34.5t-49 -117.5l-115 -655h-354l121 684q36 201 168.5 307.5t357.5 106.5h506l-39 -283
q-118 -17 -173 -42t-63 -64q-6 -33 16.5 -54.5t82.5 -48.5q51 -23 85 -51t57.5 -69t26.5 -94t-8 -126q-23 -137 -125.5 -210.5t-259.5 -73.5z" />
    <glyph glyph-name="a.alt" horiz-adv-x="1044" 
d="M432 240q65 0 110.5 40.5t57.5 104.5l6 37h-157q-44 0 -77.5 -24.5t-41.5 -61.5q-8 -46 15.5 -71t86.5 -25zM551 0l39 233h-27q-56 -122 -133 -187.5t-186 -65.5q-131 0 -203.5 83t-44.5 238q49 252 405 252h228l10 59q11 58 -11.5 90.5t-78.5 32.5q-92 0 -131 -104
l-314 71q107 306 467 306q252 0 349.5 -112t60.5 -314l-102 -582h-328z" />
    <glyph glyph-name="aacute.alt" horiz-adv-x="1044" 
d="M496 1042l-66 166l539 273l92 -230zM432 240q65 0 110.5 40.5t57.5 104.5l6 37h-157q-44 0 -77.5 -24.5t-41.5 -61.5q-8 -46 15.5 -71t86.5 -25zM551 0l39 233h-27q-56 -122 -133 -187.5t-186 -65.5q-131 0 -203.5 83t-44.5 238q49 252 405 252h228l10 59
q11 58 -11.5 90.5t-78.5 32.5q-92 0 -131 -104l-314 71q107 306 467 306q252 0 349.5 -112t60.5 -314l-102 -582h-328z" />
    <glyph glyph-name="abreve.alt" horiz-adv-x="1044" 
d="M659 1292q66 0 112 33t73 119h147q-31 -193 -110 -277t-232 -84q-330 0 -268 361h147q-3 -86 31.5 -119t99.5 -33zM432 240q65 0 110.5 40.5t57.5 104.5l6 37h-157q-44 0 -77.5 -24.5t-41.5 -61.5q-8 -46 15.5 -71t86.5 -25zM551 0l39 233h-27q-56 -122 -133 -187.5
t-186 -65.5q-131 0 -203.5 83t-44.5 238q49 252 405 252h228l10 59q11 58 -11.5 90.5t-78.5 32.5q-92 0 -131 -104l-314 71q107 306 467 306q252 0 349.5 -112t60.5 -314l-102 -582h-328z" />
    <glyph glyph-name="acircumflex.alt" horiz-adv-x="1044" 
d="M854 1044l-195 173l-258 -173l-102 119l342 305h100l234 -305zM432 240q65 0 110.5 40.5t57.5 104.5l6 37h-157q-44 0 -77.5 -24.5t-41.5 -61.5q-8 -46 15.5 -71t86.5 -25zM551 0l39 233h-27q-56 -122 -133 -187.5t-186 -65.5q-131 0 -203.5 83t-44.5 238q49 252 405 252
h228l10 59q11 58 -11.5 90.5t-78.5 32.5q-92 0 -131 -104l-314 71q107 306 467 306q252 0 349.5 -112t60.5 -314l-102 -582h-328z" />
    <glyph glyph-name="adieresis.alt" horiz-adv-x="1044" 
d="M367 1407h282l-49 -272h-281zM707 1407h282l-49 -272h-281zM432 240q65 0 110.5 40.5t57.5 104.5l6 37h-157q-44 0 -77.5 -24.5t-41.5 -61.5q-8 -46 15.5 -71t86.5 -25zM551 0l39 233h-27q-56 -122 -133 -187.5t-186 -65.5q-131 0 -203.5 83t-44.5 238q49 252 405 252
h228l10 59q11 58 -11.5 90.5t-78.5 32.5q-92 0 -131 -104l-314 71q107 306 467 306q252 0 349.5 -112t60.5 -314l-102 -582h-328z" />
    <glyph glyph-name="agrave.alt" horiz-adv-x="1044" 
d="M793 1044l-488 213l135 230l441 -281zM432 240q65 0 110.5 40.5t57.5 104.5l6 37h-157q-44 0 -77.5 -24.5t-41.5 -61.5q-8 -46 15.5 -71t86.5 -25zM551 0l39 233h-27q-56 -122 -133 -187.5t-186 -65.5q-131 0 -203.5 83t-44.5 238q49 252 405 252h228l10 59
q11 58 -11.5 90.5t-78.5 32.5q-92 0 -131 -104l-314 71q107 306 467 306q252 0 349.5 -112t60.5 -314l-102 -582h-328z" />
    <glyph glyph-name="amacron.alt" horiz-adv-x="1044" 
d="M393 1358h553l-39 -228h-555zM432 240q65 0 110.5 40.5t57.5 104.5l6 37h-157q-44 0 -77.5 -24.5t-41.5 -61.5q-8 -46 15.5 -71t86.5 -25zM551 0l39 233h-27q-56 -122 -133 -187.5t-186 -65.5q-131 0 -203.5 83t-44.5 238q49 252 405 252h228l10 59q11 58 -11.5 90.5
t-78.5 32.5q-92 0 -131 -104l-314 71q107 306 467 306q252 0 349.5 -112t60.5 -314l-102 -582h-328z" />
    <glyph glyph-name="aogonek.alt" horiz-adv-x="1101" 
d="M432 240q65 0 110.5 40.5t57.5 104.5l6 37h-157q-44 0 -77.5 -24.5t-41.5 -61.5q-8 -46 15.5 -71t86.5 -25zM795 -336q-78 -10 -129 -10q-125 0 -179.5 41t-42.5 119q22 128 226 186h-119l39 233h-27q-56 -122 -133 -187.5t-186 -65.5q-131 0 -203.5 83t-44.5 238
q49 252 405 252h228l10 59q11 58 -11.5 90.5t-78.5 32.5q-92 0 -131 -104l-314 71q107 306 467 306q252 0 349.5 -112t60.5 -314l-102 -582h-25q-107 -18 -156 -38.5t-55 -53.5q-5 -23 16 -36t64 -13q33 0 108 14z" />
    <glyph glyph-name="aring.alt" horiz-adv-x="1044" 
d="M578 1321q-8 -45 12.5 -72.5t64.5 -27.5q39 0 65 24t32 66q8 44 -13.5 72t-64.5 28q-38 0 -64 -24.5t-32 -65.5zM905 1294q-19 -104 -89.5 -161.5t-178.5 -57.5q-119 0 -177.5 72t-37.5 186q20 105 91 164t177 59q118 0 177 -74t38 -188zM432 240q65 0 110.5 40.5
t57.5 104.5l6 37h-157q-44 0 -77.5 -24.5t-41.5 -61.5q-8 -46 15.5 -71t86.5 -25zM551 0l39 233h-27q-56 -122 -133 -187.5t-186 -65.5q-131 0 -203.5 83t-44.5 238q49 252 405 252h228l10 59q11 58 -11.5 90.5t-78.5 32.5q-92 0 -131 -104l-314 71q107 306 467 306
q252 0 349.5 -112t60.5 -314l-102 -582h-328z" />
    <glyph glyph-name="aringacute.alt" horiz-adv-x="1044" 
d="M553 1561l-21 163l545 189l31 -232zM618 1303q-7 -41 15 -66t65 -25q39 0 66 21t33 57q6 40 -16 65t-64 25q-40 0 -66.5 -21t-32.5 -56zM950 1278q-17 -97 -90.5 -155t-179.5 -58q-119 0 -177 69.5t-36 184.5q15 94 88 150.5t180 56.5q117 0 176 -68t39 -180zM432 240
q65 0 110.5 40.5t57.5 104.5l6 37h-157q-44 0 -77.5 -24.5t-41.5 -61.5q-8 -46 15.5 -71t86.5 -25zM551 0l39 233h-27q-56 -122 -133 -187.5t-186 -65.5q-131 0 -203.5 83t-44.5 238q49 252 405 252h228l10 59q11 58 -11.5 90.5t-78.5 32.5q-92 0 -131 -104l-314 71
q107 306 467 306q252 0 349.5 -112t60.5 -314l-102 -582h-328z" />
    <glyph glyph-name="atilde.alt" horiz-adv-x="1044" 
d="M535 1456q42 0 76 -16t55 -38t38.5 -44.5t36 -38.5t37.5 -16q38 0 56.5 33t31.5 108h140q-2 -28 -11 -96q-49 -273 -223 -273q-37 0 -68 16t-51 38.5t-38.5 45t-40 38.5t-46.5 16q-33 0 -52.5 -33t-33.5 -109h-139q2 40 10 95q24 135 83 204.5t139 69.5zM432 240
q65 0 110.5 40.5t57.5 104.5l6 37h-157q-44 0 -77.5 -24.5t-41.5 -61.5q-8 -46 15.5 -71t86.5 -25zM551 0l39 233h-27q-56 -122 -133 -187.5t-186 -65.5q-131 0 -203.5 83t-44.5 238q49 252 405 252h228l10 59q11 58 -11.5 90.5t-78.5 32.5q-92 0 -131 -104l-314 71
q107 306 467 306q252 0 349.5 -112t60.5 -314l-102 -582h-328z" />
    <glyph glyph-name="G.alt" horiz-adv-x="1277" 
d="M1231 506q-15 -86 -44.5 -160t-80.5 -143.5t-120 -118t-168.5 -78t-219.5 -29.5q-313 0 -446.5 180t-77.5 500q105 603 686 603q258 0 378 -103t134 -303l-363 -59q-8 77 -46.5 111t-139.5 34q-123 0 -190 -77t-97 -240q-29 -166 20 -251t187 -85q113 0 164 40.5
t70 121.5h-238l45 251h582z" />
    <glyph glyph-name="Gbreve.alt" horiz-adv-x="1277" 
d="M1231 506q-15 -86 -44.5 -160t-80.5 -143.5t-120 -118t-168.5 -78t-219.5 -29.5q-313 0 -446.5 180t-77.5 500q105 603 686 603q258 0 378 -103t134 -303l-363 -59q-8 77 -46.5 111t-139.5 34q-123 0 -190 -77t-97 -240q-29 -166 20 -251t187 -85q113 0 164 40.5
t70 121.5h-238l45 251h582zM838 1542q65 0 110.5 28.5t69.5 102.5h147q-22 -177 -104.5 -258.5t-239.5 -81.5q-164 0 -229 87.5t-37 252.5h147q-1 -74 34 -102.5t102 -28.5z" />
    <glyph glyph-name="Gcircumflex.alt" horiz-adv-x="1277" 
d="M1231 506q-15 -86 -44.5 -160t-80.5 -143.5t-120 -118t-168.5 -78t-219.5 -29.5q-313 0 -446.5 180t-77.5 500q105 603 686 603q258 0 378 -103t134 -303l-363 -59q-8 77 -46.5 111t-139.5 34q-123 0 -190 -77t-97 -240q-29 -166 20 -251t187 -85q113 0 164 40.5
t70 121.5h-238l45 251h582zM1040 1298l-211 148l-264 -148l-88 119l336 271h100l240 -271z" />
    <glyph glyph-name="Gcommaaccent.alt" horiz-adv-x="1277" 
d="M1231 506q-15 -86 -44.5 -160t-80.5 -143.5t-120 -118t-168.5 -78t-219.5 -29.5q-313 0 -446.5 180t-77.5 500q105 603 686 603q258 0 378 -103t134 -303l-363 -59q-8 77 -46.5 111t-139.5 34q-123 0 -190 -77t-97 -240q-29 -166 20 -251t187 -85q113 0 164 40.5
t70 121.5h-238l45 251h582zM457 -98h256l-174 -320h-213l4 19z" />
    <glyph glyph-name="Gdotaccent.alt" horiz-adv-x="1277" 
d="M1231 506q-15 -86 -44.5 -160t-80.5 -143.5t-120 -118t-168.5 -78t-219.5 -29.5q-313 0 -446.5 180t-77.5 500q105 603 686 603q258 0 378 -103t134 -303l-363 -59q-8 77 -46.5 111t-139.5 34q-123 0 -190 -77t-97 -240q-29 -166 20 -251t187 -85q113 0 164 40.5
t70 121.5h-238l45 251h582zM674 1628h313l-51 -299h-313z" />
    <glyph glyph-name="g.sc.alt" horiz-adv-x="1206" 
d="M1151 455q-14 -78 -39.5 -145t-72 -130t-110 -106.5t-156 -70t-206.5 -26.5q-296 0 -427 164t-77 459q44 260 200 393t421 133q129 0 222 -24.5t149.5 -72t86 -109t38.5 -144.5l-351 -69q-6 60 -43.5 89t-126.5 29q-105 0 -161 -59.5t-78 -187.5q-26 -145 17.5 -222
t174.5 -77q180 0 203 133h-229l39 227h557z" />
    <glyph glyph-name="gbreve.sc.alt" horiz-adv-x="1206" 
d="M1151 455q-14 -78 -39.5 -145t-72 -130t-110 -106.5t-156 -70t-206.5 -26.5q-296 0 -427 164t-77 459q44 260 200 393t421 133q129 0 222 -24.5t149.5 -72t86 -109t38.5 -144.5l-351 -69q-6 60 -43.5 89t-126.5 29q-105 0 -161 -59.5t-78 -187.5q-26 -145 17.5 -222
t174.5 -77q180 0 203 133h-229l39 227h557zM748 1423q66 0 111.5 33t72.5 119h147q-31 -193 -110 -277t-232 -84q-330 0 -268 361h147q-3 -86 32 -119t100 -33z" />
    <glyph glyph-name="gcircumflex.sc.alt" horiz-adv-x="1206" 
d="M1151 455q-14 -78 -39.5 -145t-72 -130t-110 -106.5t-156 -70t-206.5 -26.5q-296 0 -427 164t-77 459q44 260 200 393t421 133q129 0 222 -24.5t149.5 -72t86 -109t38.5 -144.5l-351 -69q-6 60 -43.5 89t-126.5 29q-105 0 -161 -59.5t-78 -187.5q-26 -145 17.5 -222
t174.5 -77q180 0 203 133h-229l39 227h557zM942 1176l-194 172l-259 -172l-102 118l342 305h100l234 -305z" />
    <glyph glyph-name="gcommaaccent.sc.alt" horiz-adv-x="1206" 
d="M1151 455q-14 -78 -39.5 -145t-72 -130t-110 -106.5t-156 -70t-206.5 -26.5q-296 0 -427 164t-77 459q44 260 200 393t421 133q129 0 222 -24.5t149.5 -72t86 -109t38.5 -144.5l-351 -69q-6 60 -43.5 89t-126.5 29q-105 0 -161 -59.5t-78 -187.5q-26 -145 17.5 -222
t174.5 -77q180 0 203 133h-229l39 227h557zM412 -98h256l-174 -320h-213l4 19z" />
    <glyph glyph-name="gdotaccent.sc.alt" horiz-adv-x="1206" 
d="M1151 455q-14 -78 -39.5 -145t-72 -130t-110 -106.5t-156 -70t-206.5 -26.5q-296 0 -427 164t-77 459q44 260 200 393t421 133q129 0 222 -24.5t149.5 -72t86 -109t38.5 -144.5l-351 -69q-6 60 -43.5 89t-126.5 29q-105 0 -161 -59.5t-78 -187.5q-26 -145 17.5 -222
t174.5 -77q180 0 203 133h-229l39 227h557zM614 1554h314l-51 -299h-314z" />
    <glyph glyph-name="g.alt" horiz-adv-x="1038" 
d="M541 723q-144 0 -164 -94q-7 -46 24.5 -76.5t114.5 -30.5q146 0 162 96q8 46 -24 75.5t-113 29.5zM403 -135q151 0 210 19t67 61q5 30 -13 45.5t-61 15.5h-321q-47 0 -81 -17t-40 -44q-4 -30 11 -46t69 -25t159 -9zM942 -84q-26 -146 -156.5 -215.5t-408.5 -69.5
q-194 0 -307 28.5t-149.5 74t-24.5 112.5q9 54 81 94t179 60l2 10q-166 21 -144 150q12 82 164 141l84 37q-110 40 -157.5 124t-24.5 208q26 148 153.5 228.5t329.5 80.5h541l-45 -254h-101q-81 0 -182 8l-4 -24q95 -20 143.5 -60.5t36.5 -118.5q-17 -102 -140 -164.5
t-310 -62.5q-103 0 -187 19l-12 -19q-17 -23 -20 -47q-5 -22 9.5 -31.5t59.5 -9.5q53 0 158 3t152 3q169 0 237.5 -80t42.5 -225z" />
    <glyph glyph-name="gbreve.alt" horiz-adv-x="1038" 
d="M645 1292q66 0 111.5 33t72.5 119h148q-31 -193 -110 -277t-232 -84q-330 0 -268 361h147q-3 -86 31.5 -119t99.5 -33zM541 723q-144 0 -164 -94q-7 -46 24.5 -76.5t114.5 -30.5q146 0 162 96q8 46 -24 75.5t-113 29.5zM403 -135q151 0 210 19t67 61q5 30 -13 45.5
t-61 15.5h-321q-47 0 -81 -17t-40 -44q-4 -30 11 -46t69 -25t159 -9zM942 -84q-26 -146 -156.5 -215.5t-408.5 -69.5q-194 0 -307 28.5t-149.5 74t-24.5 112.5q9 54 81 94t179 60l2 10q-166 21 -144 150q12 82 164 141l84 37q-110 40 -157.5 124t-24.5 208
q26 148 153.5 228.5t329.5 80.5h541l-45 -254h-101q-81 0 -182 8l-4 -24q95 -20 143.5 -60.5t36.5 -118.5q-17 -102 -140 -164.5t-310 -62.5q-103 0 -187 19l-12 -19q-17 -23 -20 -47q-5 -22 9.5 -31.5t59.5 -9.5q53 0 158 3t152 3q169 0 237.5 -80t42.5 -225z" />
    <glyph glyph-name="gcircumflex.alt" horiz-adv-x="1038" 
d="M840 1044l-195 173l-258 -173l-102 119l342 305h100l234 -305zM541 723q-144 0 -164 -94q-7 -46 24.5 -76.5t114.5 -30.5q146 0 162 96q8 46 -24 75.5t-113 29.5zM403 -135q151 0 210 19t67 61q5 30 -13 45.5t-61 15.5h-321q-47 0 -81 -17t-40 -44q-4 -30 11 -46t69 -25
t159 -9zM942 -84q-26 -146 -156.5 -215.5t-408.5 -69.5q-194 0 -307 28.5t-149.5 74t-24.5 112.5q9 54 81 94t179 60l2 10q-166 21 -144 150q12 82 164 141l84 37q-110 40 -157.5 124t-24.5 208q26 148 153.5 228.5t329.5 80.5h541l-45 -254h-101q-81 0 -182 8l-4 -24
q95 -20 143.5 -60.5t36.5 -118.5q-17 -102 -140 -164.5t-310 -62.5q-103 0 -187 19l-12 -19q-17 -23 -20 -47q-5 -22 9.5 -31.5t59.5 -9.5q53 0 158 3t152 3q169 0 237.5 -80t42.5 -225z" />
    <glyph glyph-name="gcommaaccent.alt" horiz-adv-x="1038" 
d="M727 1092h-256l174 319h213l-4 -18zM541 723q-144 0 -164 -94q-7 -46 24.5 -76.5t114.5 -30.5q146 0 162 96q8 46 -24 75.5t-113 29.5zM403 -135q151 0 210 19t67 61q5 30 -13 45.5t-61 15.5h-321q-47 0 -81 -17t-40 -44q-4 -30 11 -46t69 -25t159 -9zM942 -84
q-26 -146 -156.5 -215.5t-408.5 -69.5q-194 0 -307 28.5t-149.5 74t-24.5 112.5q9 54 81 94t179 60l2 10q-166 21 -144 150q12 82 164 141l84 37q-110 40 -157.5 124t-24.5 208q26 148 153.5 228.5t329.5 80.5h541l-45 -254h-101q-81 0 -182 8l-4 -24q95 -20 143.5 -60.5
t36.5 -118.5q-17 -102 -140 -164.5t-310 -62.5q-103 0 -187 19l-12 -19q-17 -23 -20 -47q-5 -22 9.5 -31.5t59.5 -9.5q53 0 158 3t152 3q169 0 237.5 -80t42.5 -225z" />
    <glyph glyph-name="gdotaccent.alt" horiz-adv-x="1038" 
d="M512 1423h313l-51 -299h-313zM541 723q-144 0 -164 -94q-7 -46 24.5 -76.5t114.5 -30.5q146 0 162 96q8 46 -24 75.5t-113 29.5zM403 -135q151 0 210 19t67 61q5 30 -13 45.5t-61 15.5h-321q-47 0 -81 -17t-40 -44q-4 -30 11 -46t69 -25t159 -9zM942 -84
q-26 -146 -156.5 -215.5t-408.5 -69.5q-194 0 -307 28.5t-149.5 74t-24.5 112.5q9 54 81 94t179 60l2 10q-166 21 -144 150q12 82 164 141l84 37q-110 40 -157.5 124t-24.5 208q26 148 153.5 228.5t329.5 80.5h541l-45 -254h-101q-81 0 -182 8l-4 -24q95 -20 143.5 -60.5
t36.5 -118.5q-17 -102 -140 -164.5t-310 -62.5q-103 0 -187 19l-12 -19q-17 -23 -20 -47q-5 -22 9.5 -31.5t59.5 -9.5q53 0 158 3t152 3q169 0 237.5 -80t42.5 -225z" />
    <glyph glyph-name="t.alt" horiz-adv-x="647" 
d="M387 0h-348l125 709h-101l48 270h100l43 240h348l-43 -240h150l-47 -270h-150z" />
    <glyph glyph-name="tbar.alt" horiz-adv-x="647" 
d="M387 0h-348l57 319h-82l31 170h80l39 220h-101l48 270h100l43 240h348l-43 -240h150l-47 -270h-150l-39 -220h129l-31 -170h-127z" />
    <glyph glyph-name="tcaron.alt" horiz-adv-x="671" 
d="M705 1411h217l-107 -326h-176zM387 0h-348l125 709h-101l48 270h100l43 240h348l-43 -240h150l-47 -270h-150z" />
    <glyph glyph-name="tcommaaccent.alt" horiz-adv-x="647" 
d="M387 0h-164l-49 -88q29 10 68 10q147 0 125 -127q-9 -53 -63 -96t-157 -43q-127 0 -198 55l76 96q65 -45 141 -45q60 0 67 45q5 21 -8 32t-47 11q-32 0 -72 -12l-75 31l69 131h-61l125 709h-101l48 270h100l43 240h348l-43 -240h150l-47 -270h-150z" />
    <glyph glyph-name="uni021B.alt" horiz-adv-x="647" 
d="M387 0h-348l125 709h-101l48 270h100l43 240h348l-43 -240h150l-47 -270h-150zM92 -98h256l-174 -320h-213l4 19z" />
    <glyph glyph-name="zero.sc" horiz-adv-x="1140" 
d="M623 827q-89 0 -140 -62t-73 -196q-28 -149 4.5 -226t122.5 -77q172 0 219 269q51 292 -133 292zM649 1126q125 0 221.5 -38.5t159.5 -115.5t83.5 -193t-5.5 -271q-48 -268 -201.5 -402.5t-386.5 -134.5q-265 0 -391 160.5t-72 466.5q46 262 205 395t387 133z" />
    <glyph glyph-name="one.sc" horiz-adv-x="944" 
d="M811 0h-834l52 289h274l86 491q-93 -45 -231 -94l-72 281l479 131h223l-143 -809h217z" />
    <glyph glyph-name="two.sc" horiz-adv-x="1110" 
d="M625 844q-79 0 -126 -46.5t-71 -138.5l-328 50q109 415 547 415q254 0 369 -104t78 -322q-47 -271 -545 -338q-121 -18 -175.5 -36.5t-74.5 -51.5q186 19 283 19h432l-51 -291h-1016q12 109 22 166q33 184 136 275.5t311 133.5q144 31 215.5 56t92 46t26.5 56
q9 51 -22.5 81t-102.5 30z" />
    <glyph glyph-name="three.sc" horiz-adv-x="1099" 
d="M500 -18q-244 0 -357.5 85t-119.5 261l348 34q5 -58 35.5 -86t117.5 -28q136 0 152 88q8 49 -18 72.5t-97 23.5h-192l41 227h194q62 0 89.5 19t35.5 63q11 56 -18.5 81.5t-102.5 25.5q-74 0 -111 -31t-51 -92l-333 23q34 120 96.5 199t170.5 124t261 45q248 0 350.5 -86
t73.5 -248q-17 -96 -95 -149t-222 -74l-5 -22q170 -17 230.5 -79.5t38.5 -187.5q-53 -288 -512 -288z" />
    <glyph glyph-name="four.sc" horiz-adv-x="1118" 
d="M1034 227h-121l-39 -227h-339l40 227h-591l41 232l598 639h444l-106 -609h120zM342 469q139 17 279 20l65 365l-18 6l-336 -373z" />
    <glyph glyph-name="five.sc" horiz-adv-x="1097" 
d="M510 246q86 0 122.5 26t43.5 72q10 51 -19.5 84t-111.5 33q-58 0 -102 -15t-97 -45l-254 101l107 596h895l-58 -322q-305 0 -581 27l-31 -172q113 53 258 53q80 0 143.5 -19t103.5 -52.5t65 -79t29 -100t-5 -114.5q-32 -175 -158.5 -256t-355.5 -81q-243 0 -362 73
t-136 236l344 59q19 -104 160 -104z" />
    <glyph glyph-name="six.sc" horiz-adv-x="1128" 
d="M567 467q-85 0 -123.5 -25.5t-48.5 -74.5q-8 -52 24.5 -82.5t121.5 -30.5q148 0 164 102q9 50 -18 80.5t-120 30.5zM1042 317q-30 -166 -159.5 -254t-354.5 -88q-86 0 -155.5 14t-129 44.5t-99 79.5t-64 119.5t-24 164t19.5 213.5q18 106 63 197t116.5 162.5t176.5 112
t232 40.5q101 0 177 -19.5t122.5 -51.5t76 -79.5t41 -97.5t13.5 -112l-346 -33q-2 56 -29 84.5t-96 28.5q-99 0 -150 -83.5t-86 -285.5l23 -4q58 104 140.5 146t192.5 42q79 0 139 -18.5t102.5 -58t58 -106.5t-0.5 -157z" />
    <glyph glyph-name="seven.sc" horiz-adv-x="1003" 
d="M78 782l57 316h950l-55 -305q-183 -161 -294 -355.5t-161 -437.5h-421q100 484 559 797q-157 -15 -267 -15h-368z" />
    <glyph glyph-name="eight.sc" horiz-adv-x="1116" 
d="M481 -25q-137 0 -234.5 25.5t-149.5 71.5t-71 105t-6 130q17 101 97 157.5t229 80.5l4 22q-117 30 -166.5 95t-29.5 182q25 138 144 208t347 70q251 0 355.5 -81.5t76.5 -243.5q-18 -98 -88 -152t-196 -80l-5 -20q140 -28 200 -95t40 -182q-24 -137 -158.5 -215
t-388.5 -78zM549 438q-88 0 -125 -21t-45 -71q-9 -48 25 -73t112 -25q156 0 172 90q9 54 -21.5 77t-117.5 23zM621 846q-71 0 -107 -20t-45 -70q-8 -56 19.5 -79.5t99.5 -23.5q71 0 106.5 21.5t42.5 70.5q10 56 -17.5 78.5t-98.5 22.5z" />
    <glyph glyph-name="nine.sc" horiz-adv-x="1112" 
d="M575 602q151 0 168 111q10 61 -23.5 97t-119.5 36q-143 0 -162 -111q-11 -58 22 -95.5t115 -37.5zM496 -25q-128 0 -219 22.5t-143.5 66.5t-78.5 98.5t-32 128.5l321 57q11 -92 152 -92q111 0 165.5 76.5t90.5 267.5l-23 4q-106 -192 -317 -192q-170 0 -256 88.5
t-54 273.5q31 169 160.5 258.5t351.5 89.5q75 0 137.5 -9.5t117.5 -31t96 -55t70.5 -83t43.5 -113.5t13 -147.5t-19 -184.5q-19 -109 -62 -201t-112 -165.5t-172 -115t-231 -41.5z" />
    <glyph glyph-name="periodcentered.sc" horiz-adv-x="448" 
d="M86 725h356l-61 -344h-356z" />
    <glyph glyph-name="bullet.sc" horiz-adv-x="624" 
d="M111 797h505l-86 -484h-505z" />
    <glyph glyph-name="ampersand.sc" horiz-adv-x="1347" 
d="M590 823q-11 -56 12 -133q75 23 115 52.5t47 72.5q6 39 -13.5 62.5t-58.5 23.5q-87 0 -102 -78zM1274 315l-43 -317q-55 -10 -158 -10q-206 0 -399 129q-65 -62 -161 -98.5t-208 -36.5q-164 0 -256 89t-63 253q19 109 101.5 176.5t219.5 109.5q-38 126 -20 230
q13 77 51.5 133t96 88.5t124.5 47.5t146 15q194 0 280.5 -78t63.5 -208q-34 -185 -396 -252q72 -115 199 -189q140 152 227 348l275 -59q-47 -117 -131.5 -199.5t-216.5 -156.5q71 -19 143 -19q80 0 125 4zM457 217q53 0 88 6q-123 123 -201 289q-46 -49 -55 -111
q-8 -36 -2 -69.5t22.5 -58.5t54 -40.5t93.5 -15.5z" />
    </font>
</defs>
</svg>
