<?xml version="1.0" standalone="no"?>
<!DOCTYPE svg PUBLIC "-//W3C//DTD SVG 1.1//EN" "http://www.w3.org/Graphics/SVG/1.1/DTD/svg11.dtd" >
<svg xmlns="http://www.w3.org/2000/svg" xmlns:xlink="http://www.w3.org/1999/xlink" version="1.1">
<metadata>
Created by FontForge 20170731 at Tue Mar  1 01:18:54 2022
 By Aleksey,,,
(c) Copyright OH no Type Company, LLC. 2020. All rights reserved.
</metadata>
<defs>
<font id="Degular-Italic" horiz-adv-x="1249" >
  <font-face 
    font-family="Degular"
    font-weight="400"
    font-style="italic"
    font-stretch="normal"
    units-per-em="2048"
    panose-1="4 4 4 6 6 3 3 11 3 5"
    ascent="1372"
    descent="-676"
    x-height="952"
    cap-height="1229"
    bbox="-659 -430 2636 1864"
    underline-thickness="102"
    underline-position="-515"
    unicode-range="U+0020-FB02"
  />
<missing-glyph horiz-adv-x="1751" 
d="M745 59q50 0 94.5 4t63 7t73.5 15t71 15q0 165 48 276t113 171l21 -21q-32 -79 -62 -231q122 70 184 185t62 292q0 514 -512 514q-200 0 -327.5 -96.5t-155.5 -255.5h22q111 0 165 -68t54 -164q0 -78 -39 -133t-91.5 -77.5t-108.5 -22.5h-10q3 -70 8 -346
q55 -28 143.5 -46t183.5 -18zM745 -68q-284 0 -430 131q-9 255 15 424q-58 26 -92.5 80.5t-34.5 130.5q0 69 33.5 125.5t93.5 85.5q-3 215 154.5 353.5t426.5 138.5q303 0 459 -157.5t156 -446.5q0 -142 -37 -259.5t-123.5 -211t-216.5 -136.5q-19 -117 -19 -172
q-138 -86 -385 -86zM944 938q113 0 173.5 -67.5t60.5 -161.5q0 -110 -76 -185t-176 -75t-167 66.5t-67 180.5q0 97 65.5 169.5t186.5 72.5z" />
    <glyph glyph-name=".notdef" horiz-adv-x="1751" 
d="M745 59q50 0 94.5 4t63 7t73.5 15t71 15q0 165 48 276t113 171l21 -21q-32 -79 -62 -231q122 70 184 185t62 292q0 514 -512 514q-200 0 -327.5 -96.5t-155.5 -255.5h22q111 0 165 -68t54 -164q0 -78 -39 -133t-91.5 -77.5t-108.5 -22.5h-10q3 -70 8 -346
q55 -28 143.5 -46t183.5 -18zM745 -68q-284 0 -430 131q-9 255 15 424q-58 26 -92.5 80.5t-34.5 130.5q0 69 33.5 125.5t93.5 85.5q-3 215 154.5 353.5t426.5 138.5q303 0 459 -157.5t156 -446.5q0 -142 -37 -259.5t-123.5 -211t-216.5 -136.5q-19 -117 -19 -172
q-138 -86 -385 -86zM944 938q113 0 173.5 -67.5t60.5 -161.5q0 -110 -76 -185t-176 -75t-167 66.5t-67 180.5q0 97 65.5 169.5t186.5 72.5z" />
    <glyph glyph-name=".null" horiz-adv-x="0" 
 />
    <glyph glyph-name="nonmarkingreturn" horiz-adv-x="682" 
 />
    <glyph glyph-name="space" unicode=" " horiz-adv-x="405" 
 />
    <glyph glyph-name="exclam" unicode="!" horiz-adv-x="481" 
d="M303 432h-143l141 797h143zM94 193h193l-33 -193h-195z" />
    <glyph glyph-name="quotedbl" unicode="&#x22;" horiz-adv-x="657" 
d="M236 1229h151l-123 -543h-90zM535 1229h151l-123 -543h-90z" />
    <glyph glyph-name="numbersign" unicode="#" horiz-adv-x="1392" 
d="M877 0h-115l57 334h-317l-62 -334h-112l57 334h-340l23 131h340l53 307h-340l22 131h340l58 326h125l-60 -326h309l58 326h123l-58 -326h357l-23 -131h-358l-56 -307h359l-23 -131h-358zM508 449h346l59 337h-344z" />
    <glyph glyph-name="dollar" unicode="$" horiz-adv-x="1122" 
d="M688 1460h127l-49 -227q301 -41 321 -348l-149 -29q-5 65 -20.5 111.5t-48 82t-87.5 53t-133 17.5q-269 0 -301 -182q-10 -43 -0.5 -80.5t40 -68.5t94 -57.5t159.5 -47.5q123 -27 204.5 -66.5t120.5 -88.5t51.5 -109.5t-1.5 -128.5q-26 -142 -143.5 -222.5t-325.5 -80.5
l-33 -242h-129l55 248q-202 21 -297.5 126t-93.5 273l146 23q5 -150 89.5 -227.5t266.5 -77.5q286 0 319 196q19 103 -43 157t-249 95q-229 51 -313 144.5t-58 246.5q24 134 140 211.5t310 77.5z" />
    <glyph glyph-name="percent" unicode="%" horiz-adv-x="1505" 
d="M424 563q-153 0 -227 102.5t-43 268.5q26 149 122 232t236 83q153 0 227 -100t45 -266q-26 -150 -123 -235t-237 -85zM430 670q98 0 159.5 61.5t82.5 173.5q20 110 -25 175t-141 65t-158 -60t-82 -170q-20 -113 23 -179t141 -66zM1044 -20q-154 0 -228.5 102.5
t-43.5 269.5q28 147 124.5 230.5t236.5 83.5q152 0 225.5 -101t44.5 -266q-27 -151 -123.5 -235t-235.5 -84zM1049 84q98 0 160 63t81 175q20 110 -24.5 173.5t-141.5 63.5q-96 0 -157.5 -59.5t-81.5 -169.5q-20 -112 23.5 -179t140.5 -67zM1309 1229h186l-2 -12l-610 -529
l-43 41zM254 0h-184v12l612 529l41 -41z" />
    <glyph glyph-name="ampersand" unicode="&#x26;" horiz-adv-x="1370" 
d="M510 930q-18 -107 12 -228q183 47 273.5 107t107.5 154q13 77 -26.5 126.5t-135.5 49.5q-193 0 -231 -209zM1264 127l-21 -133q-52 -8 -110 -8q-202 0 -373 129q-171 -135 -395 -135q-171 0 -263 102.5t-63 265.5q11 66 41 116.5t78.5 87.5t105 63t135.5 51
q-41 159 -20 284q14 80 49 139.5t85 94t107 51t123 16.5q84 0 147 -24t97 -65t46 -92.5t1 -108.5q-8 -45 -29 -83.5t-48.5 -67.5t-68.5 -54.5t-78.5 -42.5t-88.5 -33t-88.5 -25.5t-89.5 -21.5q39 -112 111.5 -214.5t166.5 -174.5q246 225 330 501l127 -16
q-45 -153 -149 -290.5t-244 -235.5q137 -80 278 -80q68 0 101 4zM401 96q152 0 293 72q-187 173 -276 434q-110 -39 -169.5 -99t-76.5 -151q-19 -112 42 -184t187 -72z" />
    <glyph glyph-name="quotesingle" unicode="'" horiz-adv-x="356" 
d="M236 1229h151l-123 -543h-90z" />
    <glyph glyph-name="parenleft" unicode="(" horiz-adv-x="677" 
d="M285 547q-30 -173 -27.5 -325t52.5 -298t151 -280l-94 -72q-329 382 -226 993q45 261 180 483.5t379 419.5l78 -79q-221 -194 -335.5 -395t-157.5 -447z" />
    <glyph glyph-name="parenright" unicode=")" horiz-adv-x="677" 
d="M393 494q29 174 26.5 325.5t-52.5 298t-152 279.5l94 71q332 -383 226 -993q-44 -261 -179 -483.5t-379 -419.5l-77 80q220 193 334.5 394t158.5 448z" />
    <glyph glyph-name="asterisk" unicode="*" horiz-adv-x="1028" 
d="M596 1372h154l-107 -373h-70zM127 973l57 139l324 -154l-29 -65zM295 459l-111 98l301 270l47 -39zM872 541l-131 -80l-135 325l58 37zM1053 1112l32 -143l-383 -78l-14 63z" />
    <glyph glyph-name="plus" unicode="+" horiz-adv-x="1017" 
d="M383 176l68 383h-371l24 129h369l68 377h143l-68 -377h371l-22 -129h-371l-68 -383h-143z" />
    <glyph glyph-name="comma" unicode="," horiz-adv-x="342" 
d="M84 244h147l-301 -551h-106l2 12z" />
    <glyph glyph-name="hyphen" unicode="-" horiz-adv-x="716" 
d="M61 563h625l-24 -135h-625z" />
    <glyph glyph-name="period" unicode="." horiz-adv-x="368" 
d="M37 193h192l-32 -193h-195z" />
    <glyph glyph-name="slash" unicode="/" horiz-adv-x="632" 
d="M43 -309h-149l714 1624h148z" />
    <glyph glyph-name="zero" unicode="0" horiz-adv-x="1163" 
d="M694 1120q-182 0 -296 -133.5t-154 -365.5q-22 -114 -15 -208.5t38 -162.5t95.5 -106t157.5 -38q181 0 295 137t156 371q41 236 -26.5 371t-250.5 135zM700 1251q253 0 360.5 -178.5t53.5 -480.5q-51 -284 -207.5 -449.5t-394.5 -165.5q-128 0 -220.5 48t-142.5 135.5
t-64.5 210t13.5 270.5q52 283 210 446.5t392 163.5z" />
    <glyph glyph-name="one" unicode="1" horiz-adv-x="929" 
d="M772 0h-766l23 129h352l170 967q-177 -78 -344 -138l-35 125l463 146h84l-195 -1100h271z" />
    <glyph glyph-name="two" unicode="2" horiz-adv-x="1150" 
d="M723 1124q-153 0 -252.5 -91t-157.5 -275l-135 26q143 467 555 467q211 0 311.5 -106t69.5 -285q-11 -65 -42 -118t-75 -92t-111.5 -73.5t-136.5 -59t-165 -52.5q-229 -68 -314.5 -137t-115.5 -215q238 16 428 16h424l-23 -129h-979q8 59 14 92q18 104 56 180t103 132
t149.5 95.5t208.5 75.5q229 66 323.5 130t112.5 172q20 111 -41.5 179t-206.5 68z" />
    <glyph glyph-name="three" unicode="3" horiz-adv-x="1136" 
d="M541 -20q-480 0 -486 415l144 19q3 -155 87.5 -233.5t260.5 -78.5q147 0 235 61t109 171q14 80 -3 127.5t-80 73.5t-181 26h-209l20 115h201q115 0 195.5 51.5t99.5 161.5q22 118 -38 177.5t-200 59.5t-225 -70.5t-139 -211.5l-133 22q128 383 510 383q208 0 301.5 -93.5
t62.5 -266.5q-18 -107 -92.5 -169t-206.5 -89l-2 -21q169 -21 226.5 -94t33.5 -207q-29 -157 -151.5 -243t-339.5 -86z" />
    <glyph glyph-name="four" unicode="4" horiz-adv-x="1177" 
d="M1102 305h-195l-53 -305h-143l53 305h-746l21 115l864 809h168l-141 -803h194zM573 426h211l115 653l-10 4l-699 -659l7 -16q193 18 376 18z" />
    <glyph glyph-name="five" unicode="5" horiz-adv-x="1163" 
d="M561 102q298 0 336 250q47 273 -268 273q-93 0 -183 -24t-145 -62l-115 47l115 643h829l-24 -135q-334 0 -694 18l-82 -471q149 96 334 96q216 0 311.5 -105t64.5 -294q-29 -180 -153.5 -269t-329.5 -89q-206 0 -336 87.5t-174 260.5l139 41q32 -127 126.5 -197
t248.5 -70z" />
    <glyph glyph-name="six" unicode="6" horiz-adv-x="1148" 
d="M633 645q-178 0 -280.5 -70.5t-121.5 -177.5q-23 -120 59.5 -206.5t244.5 -86.5q310 0 360 263q23 136 -45 207t-217 71zM1038 352q-31 -177 -162.5 -276t-336.5 -99q-101 0 -179.5 23t-139.5 73t-93.5 128.5t-40 189.5t19.5 256q24 137 70 244.5t118 189.5t176.5 126
t236.5 44q202 0 300.5 -103t100.5 -282l-143 -14q-8 134 -72.5 203t-198.5 69q-193 0 -304 -129t-161 -409q-3 -16 -8.5 -52.5t-9.5 -56.5l18 -2q59 135 173.5 206t277.5 71q88 0 159.5 -24t123.5 -71t72.5 -125.5t2.5 -179.5z" />
    <glyph glyph-name="seven" unicode="7" horiz-adv-x="1052" 
d="M135 1096l23 133h1003l-24 -133q-529 -452 -691 -1096h-172q79 304 271 598t465 516q-202 -18 -445 -18h-430z" />
    <glyph glyph-name="eight" unicode="8" horiz-adv-x="1138" 
d="M504 -23q-265 0 -374.5 95.5t-80.5 263.5q19 108 112 180.5t273 93.5l4 23q-130 30 -187.5 109t-33.5 206q26 142 142 222.5t325 80.5q227 0 326.5 -94.5t70.5 -257.5q-36 -214 -325 -266l-4 -25q89 -12 150.5 -41.5t91 -70.5t40.5 -92.5t-2 -108.5q-58 -318 -528 -318z
M584 563q-348 0 -389 -229q-19 -111 60 -171.5t257 -60.5q170 0 265 57.5t114 164.5q7 29 4 58t-11.5 56t-32 49.5t-57.5 39.5t-87.5 26.5t-122.5 9.5zM674 1124q-283 0 -324 -223q-21 -116 49 -172.5t205 -56.5q87 0 155 23t116 75t61 129q20 107 -43 166t-219 59z" />
    <glyph glyph-name="nine" unicode="9" horiz-adv-x="1155" 
d="M565 584q175 0 283 74t127 180q23 123 -59 204.5t-250 81.5q-159 0 -247 -71.5t-110 -192.5q-24 -139 44 -207.5t212 -68.5zM496 -23q-221 0 -324.5 96t-112.5 275l140 23q8 -133 79 -200t222 -67q192 0 306.5 136t164.5 417q7 47 14 88l-18 3q-126 -271 -447 -271
q-88 0 -158 23.5t-121 71t-71 126t-2 181.5q30 171 159 271.5t343 100.5q83 0 150.5 -14.5t124.5 -46t94 -81.5t59.5 -121.5t21.5 -165t-20 -212.5q-110 -633 -604 -633z" />
    <glyph glyph-name="colon" unicode=":" horiz-adv-x="401" 
d="M133 954h193l-33 -192h-195zM53 193h193l-33 -193h-195z" />
    <glyph glyph-name="semicolon" unicode=";" horiz-adv-x="409" 
d="M104 244h148l-301 -551h-107l2 12zM133 954h193l-33 -192h-195z" />
    <glyph glyph-name="less" unicode="&#x3c;" horiz-adv-x="1058" 
d="M874 35l-811 420l25 141l961 422l-29 -162l-426 -162q-134 -53 -412 -147l-8 -51q203 -77 358 -146l371 -162z" />
    <glyph glyph-name="equal" unicode="=" horiz-adv-x="1077" 
d="M958 385h-872l20 121h873zM1020 731h-873l21 121h872z" />
    <glyph glyph-name="greater" unicode="&#x3e;" horiz-adv-x="1058" 
d="M4 37l27 162l428 161q158 62 411 148l9 51q-208 78 -359 146l-370 161l28 154l811 -420l-24 -141z" />
    <glyph glyph-name="question" unicode="?" horiz-adv-x="993" 
d="M688 565q-78 -32 -111 -75t-42 -97q0 -7 -5 -22h-137q0 10 4 26q18 94 69.5 155.5t158.5 111.5q128 58 177.5 101.5t63.5 125.5q19 108 -43 169.5t-200 61.5q-148 0 -241.5 -90t-145.5 -258l-138 25q62 212 193.5 332t341.5 120q207 0 307 -100.5t70 -269.5
q-11 -64 -40.5 -115t-76 -88t-93.5 -62t-112 -51zM334 193h192l-32 -193h-195z" />
    <glyph glyph-name="at" unicode="@" horiz-adv-x="1708" 
d="M795 -229q-351 0 -530 161t-179 508q0 147 39 284t116.5 254t185.5 204t255.5 136.5t316.5 49.5q143 0 256.5 -34.5t189.5 -93.5t126 -142t72 -176.5t22 -200.5q0 -152 -35 -269t-94 -185.5t-131 -103t-152 -34.5q-231 0 -221 227q0 22 6 60h-12q-59 -145 -131.5 -216
t-173.5 -71q-102 0 -162.5 72t-60.5 221q0 146 43.5 267t129.5 195t199 74q92 0 146.5 -52.5t68.5 -143.5h11l32 184h121l-92 -520q-30 -190 115 -190q52 0 99 26.5t86.5 80.5t63 148t23.5 216q0 78 -11.5 145t-37 129.5t-69 110.5t-104.5 84.5t-147.5 55.5t-193.5 19
q-143 0 -267 -42.5t-215 -118t-156 -177t-97.5 -221.5t-32.5 -250q0 -293 148 -428t442 -133q101 0 222 24t200 60h20l-8 -104q-198 -90 -442 -90zM1073 645q17 95 -31.5 149t-148.5 54q-123 0 -194.5 -117t-71.5 -299q0 -195 141 -192q108 0 187 99t104 239z" />
    <glyph glyph-name="A" unicode="A" horiz-adv-x="1181" 
d="M946 0l-78 371h-579l-209 -371h-162l709 1229h192l277 -1229h-150zM438 639l-86 -152h492l-33 152q-55 263 -82 459h-47q-117 -232 -244 -459z" />
    <glyph glyph-name="B" unicode="B" horiz-adv-x="1153" 
d="M672 557h-361l-78 -436h383q133 0 208.5 57t93.5 158q20 108 -36.5 164.5t-209.5 56.5zM743 1106h-335l-76 -432h332q254 0 290 217q42 215 -211 215zM63 0l218 1229h477q199 0 285 -86.5t59 -241.5q-38 -221 -293 -272l-4 -21q156 -19 218.5 -90.5t37.5 -208.5
q-26 -145 -139.5 -227t-319.5 -82h-539z" />
    <glyph glyph-name="C" unicode="C" horiz-adv-x="1275" 
d="M592 -23q-193 0 -317 85.5t-167 235t-8 347.5q51 286 224 446t440 160q235 0 359.5 -125t129.5 -338l-145 -18q-8 175 -94.5 261.5t-263.5 86.5q-210 0 -337.5 -129.5t-166.5 -361.5q-25 -157 0 -272.5t115 -180.5t237 -65q179 0 290 91.5t177 272.5l135 -31
q-153 -465 -608 -465z" />
    <glyph glyph-name="D" unicode="D" horiz-adv-x="1292" 
d="M688 1102h-282l-173 -975h320q460 0 545 477q43 252 -54.5 375t-355.5 123zM66 0l215 1229h438q315 0 445.5 -169t74.5 -478q-49 -281 -231 -433.5t-459 -150.5z" />
    <glyph glyph-name="E" unicode="E" horiz-adv-x="1083" 
d="M68 0l215 1229h827l-23 -133h-677l-72 -404h606l-24 -131h-607l-75 -428h677l-22 -133h-825z" />
    <glyph glyph-name="F" unicode="F" horiz-adv-x="1011" 
d="M872 512h-569l-90 -512h-150l218 1229h792l-24 -137h-643l-80 -449h571z" />
    <glyph glyph-name="G" unicode="G" horiz-adv-x="1312" 
d="M543 -20q-254 0 -376 182t-67 489q53 292 217.5 446t440.5 154q233 0 357 -118t138 -330l-145 -25q-13 175 -100 257.5t-256 82.5q-222 0 -343 -119t-163 -358q-43 -247 43 -391t309 -144q113 0 200 29.5t140.5 82t84.5 114.5t44 137v-4l4 27h-412l23 131h551l-109 -623
h-137l49 281h-14q-67 -137 -185.5 -219t-293.5 -82z" />
    <glyph glyph-name="H" unicode="H" horiz-adv-x="1304" 
d="M1071 0h-149l96 547h-709l-96 -547h-150l218 1229h149l-96 -549h708l97 549h149z" />
    <glyph glyph-name="I" unicode="I" horiz-adv-x="446" 
d="M213 0h-150l218 1229h149z" />
    <glyph glyph-name="J" unicode="J" horiz-adv-x="622" 
d="M297 309l162 920h147l-162 -918q-57 -327 -344 -327q-87 0 -153 14l26 131q68 -12 123 -12q87 0 135 48.5t66 143.5z" />
    <glyph glyph-name="K" unicode="K" horiz-adv-x="1140" 
d="M889 0l-479 520h-105l-92 -520h-150l218 1229h149l-102 -582h90l643 582h176l-4 -23l-707 -620l531 -563l-4 -23h-164z" />
    <glyph glyph-name="L" unicode="L" horiz-adv-x="933" 
d="M430 1229l-192 -1094h589l-22 -135h-742l218 1229h149z" />
    <glyph glyph-name="M" unicode="M" horiz-adv-x="1613" 
d="M319 643l-112 -643h-141l217 1229h247l136 -604q14 -60 73 -398h41q163 314 213 400l357 602h247l-215 -1229h-149l115 643q13 77 46.5 246.5t41.5 214.5h-39q-160 -313 -262 -488l-326 -538h-160l-127 545q-53 248 -86 481h-37q-14 -92 -80 -461z" />
    <glyph glyph-name="N" unicode="N" horiz-adv-x="1300" 
d="M872 0l-284 657q-84 189 -160 435h-45q-28 -270 -88 -603l-88 -489h-141l217 1229h215l252 -578q117 -265 184 -493l43 2q29 265 82 579l86 490h141l-217 -1229h-197z" />
    <glyph glyph-name="O" unicode="O" horiz-adv-x="1347" 
d="M616 -23q-199 0 -328.5 88t-175.5 240t-10 350q48 274 225.5 435t452.5 161q197 0 326.5 -87t176.5 -239t11 -350q-48 -275 -224.5 -436.5t-453.5 -161.5zM623 109q223 0 356 129t172 360q27 152 -3 267.5t-125.5 184t-248.5 68.5q-220 0 -353.5 -127t-174.5 -354
q-14 -91 -11.5 -171t30 -145.5t73.5 -112.5t119 -73t166 -26z" />
    <glyph glyph-name="P" unicode="P" horiz-adv-x="1071" 
d="M709 1100h-301l-91 -506h306q149 0 225.5 55t99.5 180q25 140 -31 205.5t-208 65.5zM623 469h-328l-82 -469h-150l218 1229h442q216 0 310 -107.5t59 -308.5q-28 -165 -149 -254.5t-320 -89.5z" />
    <glyph glyph-name="Q" unicode="Q" horiz-adv-x="1349" 
d="M623 109q223 0 356 129t172 360q27 152 -3 267.5t-125.5 184t-248.5 68.5q-220 0 -353.5 -127t-174.5 -354q-14 -91 -11.5 -171t30 -145.5t73.5 -112.5t119 -73t166 -26zM616 -23q-199 0 -328.5 88t-175.5 240t-10 350q48 274 225.5 435t452.5 161q197 0 326.5 -87
t176.5 -239t11 -350q-31 -172 -112 -301.5t-209 -205.5l112 -246l-4 -23h-151l-84 211q-116 -33 -230 -33z" />
    <glyph glyph-name="R" unicode="R" horiz-adv-x="1196" 
d="M727 1100h-317l-80 -459h315q139 0 225.5 55.5t106.5 163.5q21 121 -37 180.5t-213 59.5zM879 0l-281 512h-293l-90 -512h-147l215 1229h460q224 0 316 -101.5t59 -287.5q-23 -130 -119 -214t-247 -106l295 -497l-5 -23h-163z" />
    <glyph glyph-name="S" unicode="S" horiz-adv-x="1126" 
d="M543 -23q-255 0 -375.5 111t-120.5 305l146 23q6 -154 91.5 -234t266.5 -80q285 0 319 197q19 106 -42.5 162t-243.5 96q-234 51 -318.5 146t-58.5 253q24 136 141.5 215.5t313.5 79.5q112 0 194 -26.5t130.5 -77t73.5 -115t30 -147.5l-152 -29q-8 136 -72 203t-219 67
q-136 0 -211 -48t-90 -136q-10 -43 0 -81.5t41 -70t94.5 -58.5t159.5 -48q123 -27 205 -67t121 -90t51.5 -111.5t-2.5 -132.5q-26 -143 -144 -224.5t-329 -81.5z" />
    <glyph glyph-name="T" unicode="T" horiz-adv-x="1040" 
d="M141 1092l23 137h975l-25 -137h-412l-192 -1092h-150l193 1092h-412z" />
    <glyph glyph-name="U" unicode="U" horiz-adv-x="1284" 
d="M598 111q179 0 268.5 90.5t120.5 265.5l133 762h148l-138 -780q-83 -472 -536 -472q-256 0 -371.5 130t-72.5 372l131 750h149l-133 -750q-17 -80 -8 -147.5t39.5 -116.5t99 -76.5t170.5 -27.5z" />
    <glyph glyph-name="V" unicode="V" horiz-adv-x="1179" 
d="M600 0h-190l-277 1229h152l135 -639q54 -253 82 -459h47q121 240 246 459l356 639h160z" />
    <glyph glyph-name="W" unicode="W" horiz-adv-x="1710" 
d="M702 512l-223 -512h-221l-117 1229h158l41 -604q22 -370 25 -494h57q150 380 199 492l270 606h192l56 -606q20 -228 26 -492h56q48 132 194 494l256 604h160l-547 -1229h-225l-43 512q-30 352 -33 580h-43q-96 -252 -238 -580z" />
    <glyph glyph-name="X" unicode="X" horiz-adv-x="1132" 
d="M870 0l-280 547h-27l-461 -547h-157l4 23l536 598l-323 585l4 23h149l269 -535h34l451 535h160l-4 -23l-533 -592l332 -591l-4 -23h-150z" />
    <glyph glyph-name="Y" unicode="Y" horiz-adv-x="1081" 
d="M530 0h-147l74 428l-334 778l4 23h152l260 -682h22l498 682h158l-5 -23l-606 -782z" />
    <glyph glyph-name="Z" unicode="Z" horiz-adv-x="1146" 
d="M993 137l-22 -137h-981l22 135l969 963l-4 18q-242 -24 -434 -24h-336l22 137h955l-23 -133l-975 -967l4 -16q270 24 467 24h336z" />
    <glyph glyph-name="bracketleft" unicode="[" horiz-adv-x="583" 
d="M-12 -381l315 1794h393l-22 -123h-248l-272 -1544h247l-22 -127h-391z" />
    <glyph glyph-name="backslash" unicode="\" horiz-adv-x="632" 
d="M334 -309l-139 1624h135l143 -1624h-139z" />
    <glyph glyph-name="bracketright" unicode="]" horiz-adv-x="583" 
d="M-98 -381l22 123h250l270 1544h-247l22 127h391l-315 -1794h-393z" />
    <glyph glyph-name="asciicircum" unicode="^" horiz-adv-x="1013" 
d="M881 512l-289 418l-436 -420l-66 63l481 494h78l312 -494z" />
    <glyph glyph-name="underscore" unicode="_" horiz-adv-x="942" 
d="M-84 0h942l-20 -123h-942z" />
    <glyph glyph-name="grave" unicode="`" horiz-adv-x="622" 
d="M645 1073l-455 236l68 110l426 -272z" />
    <glyph glyph-name="a" unicode="a" horiz-adv-x="1095" 
d="M444 104q141 0 240 90t127 242v-4l4 23l10 65l-2 -10q28 152 -42.5 244t-217.5 92q-286 0 -350 -361q-34 -193 23.5 -287t207.5 -94zM78 504q40 225 157 348t289 123q154 0 232.5 -79.5t89.5 -215.5l10 6l45 266h141l-168 -952h-139l45 258l-4 -2v16
q-57 -133 -161.5 -214t-241.5 -81q-183 0 -261.5 138t-33.5 389z" />
    <glyph glyph-name="b" unicode="b" horiz-adv-x="1095" 
d="M539 102q278 0 342 361q34 195 -23.5 289t-208.5 94q-141 0 -240.5 -90.5t-125.5 -245.5v2l-19 -109q-14 -136 60.5 -218.5t214.5 -82.5zM424 1315l-109 -619h11q59 130 155 204.5t230 74.5q191 0 271.5 -135t37.5 -385q-41 -229 -159.5 -353.5t-289.5 -124.5
q-146 0 -227.5 77t-95.5 206h-10l-45 -260h-142l232 1315h141z" />
    <glyph glyph-name="c" unicode="c" horiz-adv-x="1046" 
d="M856 604q-6 122 -64 183t-196 61q-151 0 -249.5 -91.5t-131.5 -273.5q-30 -175 39.5 -277t228.5 -102q71 0 126 18.5t94 55.5t64.5 78t51.5 100l125 -39q-65 -167 -179.5 -253.5t-293.5 -86.5q-225 0 -330 143.5t-65 383.5q38 224 180 347.5t348 123.5q376 0 389 -348z
" />
    <glyph glyph-name="d" unicode="d" horiz-adv-x="1095" 
d="M444 104q140 0 240.5 90t126.5 242v-4l4 23l12 65l-4 -10q28 151 -43.5 243.5t-218.5 92.5q-285 0 -348 -363q-34 -192 23 -285.5t208 -93.5zM735 0l45 256h-10q-58 -127 -160.5 -203t-234.5 -76q-184 0 -262.5 138.5t-34.5 388.5q39 228 156 349.5t292 121.5
q144 0 223 -76t95 -205h14l109 621h139l-232 -1315h-139z" />
    <glyph glyph-name="e" unicode="e" horiz-adv-x="1036" 
d="M598 858q-140 0 -236 -79t-137 -234h617q46 313 -244 313zM471 -23q-227 0 -332.5 140t-64.5 383q41 223 185.5 349t350.5 126q211 0 304 -122.5t57 -330.5q-1 -5 -4.5 -21.5l-7 -33t-7.5 -31.5h-747q-19 -161 51 -249.5t221 -88.5q129 0 204 58t122 163l119 -40
q-130 -302 -451 -302z" />
    <glyph glyph-name="f" unicode="f" horiz-adv-x="710" 
d="M461 1016l-10 -64h313l-21 -121h-315l-145 -831h-142l148 831h-185l21 121h184l13 66q27 152 116 236.5t240 84.5q77 0 160 -18l-29 -111q-88 15 -131 15q-94 0 -146 -53t-71 -156z" />
    <glyph glyph-name="g" unicode="g" horiz-adv-x="1095" 
d="M459 172q135 0 231 77t125 208l12 73q20 142 -53 229t-217 87q-278 0 -336 -318q-64 -356 238 -356zM84 545q38 207 153.5 318.5t284.5 111.5q148 0 227 -76t95 -205h12l45 258h141l-151 -866q-38 -210 -157.5 -315t-325.5 -105q-194 0 -300.5 73t-127.5 212l135 29
q20 -93 89 -143.5t204 -51.5q85 1 146.5 22.5t100.5 65t62 99t37 132.5l34 195h-14q-57 -111 -157 -179.5t-228 -68.5q-183 0 -264.5 129t-40.5 365z" />
    <glyph glyph-name="h" unicode="h" horiz-adv-x="1089" 
d="M289 549l-96 -549h-142l232 1315h141l-107 -608h13q60 126 158 197t225 71q159 0 231.5 -99t42.5 -262l-106 -614h-142l105 592q20 115 -26 184.5t-167 69.5q-142 0 -240.5 -81.5t-121.5 -215.5z" />
    <glyph glyph-name="i" unicode="i" horiz-adv-x="456" 
d="M434 1155h-172l25 143h172zM213 0h-139l168 952h139z" />
    <glyph glyph-name="j" unicode="j" horiz-adv-x="479" 
d="M233 -29q-26 -145 -101.5 -225t-203.5 -80q-62 0 -104 10l29 125q36 -8 79 -8q130 0 160 176l172 981h142zM457 1155h-172l26 143h172z" />
    <glyph glyph-name="k" unicode="k" horiz-adv-x="970" 
d="M434 1315l-137 -780h98l451 417h170l-4 -22l-510 -449l389 -458l-4 -23h-156l-348 422h-107l-73 -422h-140l232 1315h139z" />
    <glyph glyph-name="l" unicode="l" horiz-adv-x="434" 
d="M434 1315l-231 -1315h-140l232 1315h139z" />
    <glyph glyph-name="m" unicode="m" horiz-adv-x="1777" 
d="M289 549l-96 -549h-142l168 952h137l-43 -245h17q61 128 159 198t226 70q141 0 210 -76t64 -209h19q119 285 389 285q161 0 234.5 -100t43.5 -263l-106 -612h-142l105 592q20 115 -26 184.5t-169 69.5q-140 0 -238.5 -81.5t-121.5 -215.5l-96 -549h-142l105 592
q20 115 -26 184.5t-169 69.5q-138 0 -237.5 -82t-122.5 -215z" />
    <glyph glyph-name="n" unicode="n" horiz-adv-x="1089" 
d="M289 549l-96 -549h-142l168 952h137l-43 -245h17q58 126 157 197t226 71q159 0 231.5 -99t42.5 -262l-106 -614h-142l105 592q20 115 -26 184.5t-167 69.5q-143 0 -241 -81t-121 -216z" />
    <glyph glyph-name="o" unicode="o" horiz-adv-x="1085" 
d="M479 -23q-229 0 -335 149t-64 390q37 223 177 341t347 118q221 0 333 -147.5t71 -385.5q-40 -222 -177.5 -343.5t-351.5 -121.5zM592 850q-153 0 -249.5 -90.5t-125.5 -261.5q-32 -179 37.5 -287.5t234.5 -108.5q157 0 254 95t127 268q31 176 -42.5 280.5t-235.5 104.5z
" />
    <glyph glyph-name="p" unicode="p" horiz-adv-x="1095" 
d="M535 102q281 0 346 363q35 193 -21.5 287t-204.5 94q-136 0 -234 -80.5t-132 -220.5l-25 -135q-15 -137 60 -222.5t211 -85.5zM1018 451q-41 -231 -159 -352.5t-294 -121.5q-135 0 -217 77.5t-100 205.5h-10l-101 -573h-141l223 1265h139l-43 -256h13q57 129 152.5 204
t228.5 75q191 0 271.5 -137t37.5 -387z" />
    <glyph glyph-name="q" unicode="q" horiz-adv-x="1095" 
d="M446 102q138 0 238.5 92.5t126.5 241.5v-2l14 82l-2 -6q28 155 -43.5 245.5t-218.5 90.5q-146 0 -231 -90.5t-119 -280.5q-64 -373 235 -373zM76 498q41 233 155.5 355t292.5 122q147 0 226.5 -76.5t93.5 -206.5h12l45 260h141l-227 -1290h-139l104 594h-10
q-58 -128 -160 -203.5t-237 -75.5q-181 0 -260.5 138t-36.5 383z" />
    <glyph glyph-name="r" unicode="r" horiz-adv-x="663" 
d="M193 0h-142l168 952h135l-45 -256h15q110 267 344 267h45l-27 -154h-45q-160 0 -246 -75t-116 -245z" />
    <glyph glyph-name="s" unicode="s" horiz-adv-x="927" 
d="M430 -25q-381 0 -405 320l135 24q10 -108 73.5 -168.5t204.5 -60.5q218 0 242 141q13 81 -40.5 124.5t-203.5 72.5q-173 34 -238 111.5t-44 199.5q21 111 114.5 173.5t251.5 62.5q90 0 156 -21t105.5 -61t60.5 -89t28 -112l-137 -24q-7 101 -62 147.5t-161 46.5
q-97 0 -154 -35t-69 -100q-11 -70 37.5 -116.5t177.5 -71.5q188 -34 261.5 -113t51.5 -205q-19 -117 -114 -181.5t-271 -64.5z" />
    <glyph glyph-name="t" unicode="t" horiz-adv-x="714" 
d="M166 297l94 534h-156l21 121h156l49 275h141l-49 -275h323l-22 -121h-322l-96 -542q-31 -180 133 -180q64 0 152 24l2 -125q-102 -31 -186 -31q-147 0 -206.5 87.5t-33.5 232.5z" />
    <glyph glyph-name="u" unicode="u" horiz-adv-x="1089" 
d="M733 0l43 246h-16q-58 -126 -157.5 -197.5t-225.5 -71.5q-158 0 -231.5 99.5t-43.5 261.5l109 614h139l-104 -594q-20 -114 26 -183t166 -69q144 0 242 81t121 216l98 549h139l-168 -952h-137z" />
    <glyph glyph-name="v" unicode="v" horiz-adv-x="958" 
d="M483 0h-174l-227 952h147l76 -362q59 -263 90 -465h37q34 64 76.5 142.5t95.5 174t82 148.5l201 362h157z" />
    <glyph glyph-name="w" unicode="w" horiz-adv-x="1507" 
d="M920 952l45 -368q33 -251 47 -465h35q36 85 215 471l170 362h147l-477 -952h-184l-54 422q-26 194 -35 414h-30q-91 -230 -181 -414l-198 -422h-182l-144 952h139l50 -362l15 -117t15.5 -123t11.5 -110t9 -121h39q82 210 207 465l174 368h166z" />
    <glyph glyph-name="x" unicode="x" horiz-adv-x="995" 
d="M717 0l-230 432l-364 -432h-158l4 23l432 469l-270 438l4 22h144l227 -417l362 417h154l-4 -22l-426 -457l272 -450l-4 -23h-143z" />
    <glyph glyph-name="y" unicode="y" horiz-adv-x="974" 
d="M12 -344q-80 0 -133 12l35 131q72 -14 117 -14q46 0 80 8t72.5 31t77 68.5t83.5 117.5l-254 942h150l73 -336q64 -270 105 -491h26q79 148 265 487l186 340h158l-586 -964q-107 -177 -211.5 -254.5t-243.5 -77.5z" />
    <glyph glyph-name="z" unicode="z" horiz-adv-x="987" 
d="M565 127h271l-23 -127h-817l22 127l781 711l-4 14q-241 -27 -420 -27h-215l22 127h791l-23 -127l-778 -708l4 -17q268 27 389 27z" />
    <glyph glyph-name="braceleft" unicode="{" horiz-adv-x="741" 
d="M535 -371q-111 -6 -140 -6q-151 0 -219.5 69.5t-46.5 188.5q10 56 49 115.5t80 103t79 99.5t46 104q15 85 -34.5 125.5t-168.5 40.5h-139l22 125h140q104 0 177 40t87 120q10 54 -7 115.5t-41.5 109.5t-40.5 115t-5 129q18 104 104 162.5t234 58.5q32 0 149 -6l-22 -121
q-43 2 -115 2q-99 0 -149 -33.5t-62 -107.5q-8 -46 6 -101t35 -99t34 -106t3 -120q-15 -90 -90.5 -141t-212.5 -70l-2 -19q138 -15 191 -69.5t34 -155.5q-8 -46 -32.5 -92t-55 -84t-60.5 -74.5t-53.5 -76.5t-29.5 -76q-12 -72 25 -109t132 -37q74 0 117 2z" />
    <glyph glyph-name="bar" unicode="|" horiz-adv-x="421" 
d="M131 -360h-137l313 1779h137z" />
    <glyph glyph-name="braceright" unicode="}" horiz-adv-x="741" 
d="M41 -389q-33 0 -150 6l23 121q86 -4 115 -4q99 0 149 33.5t62 107.5q8 46 -6 101t-35 99t-34 106.5t-3 121.5q15 90 90.5 141t212.5 70l4 18q-138 13 -191.5 68t-35.5 156q8 46 32.5 93t55 85t60.5 74t53.5 75.5t29.5 75.5q12 74 -25.5 111t-132.5 37q-30 0 -116 -4
l18 120q130 7 139 7q151 0 220 -69t47 -190q-10 -56 -49 -115.5t-79.5 -102.5t-78.5 -98.5t-47 -102.5q-15 -85 34.5 -125.5t167.5 -40.5h140l-21 -125h-139q-106 0 -179 -40t-87 -122q-10 -53 7 -114.5t41.5 -110t40.5 -115.5t5 -129q-18 -103 -103.5 -161t-234.5 -58z" />
    <glyph glyph-name="asciitilde" unicode="~" horiz-adv-x="1069" 
d="M768 539q-53 0 -93 19.5t-64.5 51t-43.5 69.5t-34.5 76t-32 69.5t-42 51t-59.5 19.5q-78 0 -121.5 -81t-66.5 -265h-98q7 88 16 131q29 169 100 255.5t174 86.5q73 0 121.5 -36.5t72 -88.5t43.5 -104t51.5 -88.5t80.5 -36.5q154 0 193 344h94q-3 -66 -12 -125
q-30 -168 -105.5 -258t-173.5 -90z" />
    <glyph glyph-name="uni00A0" unicode="&#xa0;" horiz-adv-x="364" 
 />
    <glyph glyph-name="exclamdown" unicode="&#xa1;" horiz-adv-x="481" 
d="M176 520h146l-142 -796h-143zM387 760h-192l32 192h195z" />
    <glyph glyph-name="cent" unicode="&#xa2;" horiz-adv-x="1040" 
d="M602 1198h127l-53 -240q156 -17 233.5 -103.5t83.5 -227.5l-137 -23q-6 117 -66 176.5t-196 59.5q-150 0 -248.5 -90t-130.5 -269q-30 -170 40 -269t230 -99q71 0 125.5 18t93.5 53.5t64.5 75.5t50.5 96l125 -39q-118 -310 -438 -327l-33 -244h-127l55 248
q-189 22 -275.5 158t-49.5 352q38 212 169 331t326 128z" />
    <glyph glyph-name="sterling" unicode="&#xa3;" horiz-adv-x="1103" 
d="M938 0h-944l22 127h207q43 88 62 201q11 63 8 137h-213l20 117h187q-16 208 4 329q30 161 131 249.5t276 88.5q86 0 151.5 -20t108.5 -54.5t70.5 -86t39.5 -109t15 -129.5l-137 -21q-8 153 -63.5 223t-188.5 70q-122 0 -185.5 -66.5t-80.5 -174.5q-18 -107 -6 -299h477
l-20 -117h-453q0 -59 -8 -103q-25 -137 -92 -235h635z" />
    <glyph glyph-name="yen" unicode="&#xa5;" horiz-adv-x="1150" 
d="M1053 365h-420l-66 -365h-147l63 365h-426l21 106h397l-72 166h-297l21 111h229l-196 458l4 23h151l260 -682h23l498 682h157l-4 -23l-356 -458h227l-20 -111h-293l-127 -166h391z" />
    <glyph glyph-name="brokenbar" unicode="&#xa6;" horiz-adv-x="421" 
d="M133 -360h-137l139 782h137zM303 602h-137l145 817h138z" />
    <glyph glyph-name="section" unicode="&#xa7;" horiz-adv-x="1189" 
d="M500 -344q-248 0 -363 105t-123 307l144 22q3 -155 85.5 -235t262.5 -80q261 0 291 174q15 94 -44.5 147t-226.5 86q-184 37 -289.5 90t-141 121.5t-17.5 163.5q23 125 213 221q-42 80 -21 193q23 127 128.5 203.5t289.5 76.5q111 0 189.5 -27t124.5 -80t69 -119.5
t31 -158.5l-141 -18q-6 72 -22 122.5t-47 89t-82.5 57t-125.5 18.5q-129 0 -197 -47.5t-81 -124.5q-7 -47 0.5 -82t36.5 -67.5t89 -57t154 -43.5q132 -27 218.5 -62t130.5 -81t56.5 -98.5t0.5 -121.5q-11 -66 -63 -121t-126 -94q54 -79 31 -203q-22 -128 -127.5 -202
t-306.5 -74zM592 299q190 -41 276 -121q84 69 101 158q19 107 -58.5 165t-306.5 105q-199 42 -278 127q-110 -79 -123 -160q-12 -66 16.5 -112t118 -86t254.5 -76z" />
    <glyph glyph-name="dieresis" unicode="&#xa8;" horiz-adv-x="653" 
d="M197 1307h170l-29 -170h-172zM565 1307h170l-28 -170h-172z" />
    <glyph glyph-name="copyright" unicode="&#xa9;" horiz-adv-x="1851" 
d="M860 -82q651 0 766 653q21 108 18 205t-24.5 179t-70 148t-118.5 112t-170 71t-225 25q-332 0 -521 -169.5t-245 -484.5q-21 -107 -18 -204t24 -179t70 -148t118.5 -112t170 -71t225.5 -25zM1051 1427q141 0 257 -29.5t199 -85t142 -133.5t87 -175t33.5 -210.5
t-18.5 -238.5q-63 -360 -291.5 -557t-613.5 -197q-141 0 -257.5 30t-199.5 85t-142 133.5t-87 175.5t-33.5 211t18.5 240q64 360 292.5 555.5t613.5 195.5zM1202 711q2 115 -43.5 170t-157.5 55q-257 0 -307 -299q-28 -156 26 -246t189 -90q217 0 258 201l127 -15
q-69 -305 -395 -305q-191 0 -283 126.5t-53 342.5q34 194 150 298t295 104q167 0 249 -85.5t74 -244.5z" />
    <glyph glyph-name="ordfeminine" unicode="&#xaa;" horiz-adv-x="788" 
d="M383 748q100 0 174.5 56.5t89.5 141.5l2 17h-219q-155 0 -172 -101q-8 -53 19 -83.5t106 -30.5zM606 674l31 174h-10q-49 -92 -121.5 -143.5t-165.5 -51.5q-105 0 -160.5 56t-40.5 151q28 170 273 170h250l16 92q11 69 -22 112.5t-115 43.5q-75 0 -125.5 -34.5
t-85.5 -102.5l-105 39q99 196 324 196q145 0 208 -75t40 -201l-76 -426h-115z" />
    <glyph glyph-name="guillemotleft" unicode="&#xab;" horiz-adv-x="1251" 
d="M627 70h-135l-441 438l6 41l588 438h143l-6 -26l-581 -435v-8l430 -426zM1116 70h-135l-440 438l6 41l588 438h143l-6 -26l-582 -435v-8l430 -426z" />
    <glyph glyph-name="registered" unicode="&#xae;" horiz-adv-x="1855" 
d="M1047 922h-265l-51 -297h264q186 0 209 141q14 79 -20.5 117.5t-136.5 38.5zM1147 209l-215 317h-219l-56 -317h-131l144 819h395q160 0 226 -71.5t44 -198.5q-15 -96 -84 -154.5t-184 -73.5l225 -305l-4 -16h-141zM860 -82q651 0 766 653q21 108 18 205t-24.5 179
t-70 148t-118.5 112t-170 71t-225 25q-332 0 -521 -169.5t-245 -484.5q-21 -107 -18 -204t24 -179t70 -148t118.5 -112t170 -71t225.5 -25zM846 -199q-141 0 -257.5 30t-199.5 85t-142 133.5t-87 175.5t-33.5 211t18.5 240q64 360 292.5 555.5t613.5 195.5q141 0 257 -29.5
t199 -85t142 -133.5t87 -175t33.5 -210.5t-18.5 -238.5q-63 -360 -291.5 -557t-613.5 -197z" />
    <glyph glyph-name="macron" unicode="&#xaf;" horiz-adv-x="655" 
d="M186 1255h557l-20 -110h-557z" />
    <glyph glyph-name="degree" unicode="&#xb0;" horiz-adv-x="630" 
d="M580 1073q33 -69 3 -140t-110 -114q-85 -39 -150 -12t-92 108q-33 69 -3 140t110 114q85 39 150 12t92 -108zM307 930q21 -47 59.5 -57.5t88.5 22.5q46 34 59 77t-10 87q-21 47 -58.5 57t-89.5 -22q-46 -34 -59 -77t10 -87z" />
    <glyph glyph-name="twosuperior" unicode="&#xb2;" horiz-adv-x="753" 
d="M535 1296q-90 0 -147 -45.5t-91 -144.5l-102 27q89 256 346 256q143 0 211.5 -64t48.5 -172q-16 -92 -91.5 -137.5t-244.5 -85.5q-137 -33 -192 -73.5t-74 -117.5q195 15 276 15h266l-16 -99h-639q2 10 5 29.5t5 28.5q22 121 97.5 186t236.5 105q143 38 197.5 70.5
t64.5 90.5q9 61 -29 96t-128 35z" />
    <glyph glyph-name="threesuperior" unicode="&#xb3;" horiz-adv-x="741" 
d="M418 639q-151 0 -225.5 61t-79.5 172l106 19q6 -79 54.5 -118.5t152.5 -39.5q187 0 209 121q11 62 -25.5 90.5t-140.5 28.5h-119l15 82h116q165 0 185 114q11 63 -26 94t-126 31t-141.5 -37t-83.5 -112l-101 26q90 218 332 218q138 0 204.5 -56.5t51.5 -152.5
q-23 -129 -201 -156l-4 -16q197 -22 172 -179q-35 -190 -325 -190z" />
    <glyph glyph-name="acute" unicode="&#xb4;" horiz-adv-x="622" 
d="M186 1071l-32 74l520 272l47 -108z" />
    <glyph glyph-name="paragraph" unicode="&#xb6;" horiz-adv-x="1300" 
d="M1010 -334h-140l277 1563h137zM737 -334h-137l115 653h-146q-242 0 -360.5 131t-77.5 363q38 211 168 313.5t360 102.5h355z" />
    <glyph glyph-name="periodcentered" unicode="&#xb7;" horiz-adv-x="421" 
d="M135 596h193l-33 -193h-195z" />
    <glyph glyph-name="cedilla" unicode="&#xb8;" horiz-adv-x="464" 
d="M117 -344q-118 0 -203 59l53 70q70 -51 158 -51q93 0 104 59q6 31 -14.5 47.5t-64.5 16.5q-37 0 -91 -13l-49 25l99 176l73 -4l-86 -150q44 17 90 17q68 0 104.5 -29.5t26.5 -93.5q-11 -52 -60.5 -90.5t-139.5 -38.5z" />
    <glyph glyph-name="onesuperior" unicode="&#xb9;" horiz-adv-x="606" 
d="M608 655h-528l18 101h230l92 524q-109 -54 -225 -98l-25 94l307 100h72l-111 -620h189z" />
    <glyph glyph-name="ordmasculine" unicode="&#xba;" horiz-adv-x="782" 
d="M446 662q-164 0 -239.5 106.5t-44.5 282.5q26 151 127.5 238t245.5 87q156 0 234.5 -103t49.5 -274q-28 -156 -126 -246.5t-247 -90.5zM526 1278q-103 0 -169.5 -65t-86.5 -183q-22 -125 23 -196.5t158 -71.5q105 0 171.5 68t88.5 190q22 119 -27.5 188.5t-157.5 69.5z
" />
    <glyph glyph-name="guillemotright" unicode="&#xbb;" horiz-adv-x="1257" 
d="M616 55h-143l4 27l582 434l2 8l-430 426l4 23h133l442 -438l-8 -41zM125 55h-143l6 27l581 434v8l-430 426l4 23h136l442 -438l-8 -41z" />
    <glyph glyph-name="onequarter" unicode="&#xbc;" horiz-adv-x="1517" 
d="M227 0h-184v12l612 529l41 -41zM1282 1229h186l-2 -12l-610 -529l-43 41zM608 655h-528l18 101h230l92 524q-109 -54 -225 -98l-25 94l307 100h72l-111 -620h189zM1030 123h100l66 360l-10 2l-400 -374l2 -5q174 17 242 17zM1343 31h-118l-31 -174h-111l31 174h-457
l15 75l504 467h145l-80 -450h119z" />
    <glyph glyph-name="onehalf" unicode="&#xbd;" horiz-adv-x="1492" 
d="M219 0h-184v12l612 529l41 -41zM1274 1229h186l-2 -12l-610 -529l-43 41zM608 655h-528l18 101h230l92 524q-109 -54 -225 -98l-25 94l307 100h72l-111 -620h189zM1120 498q-90 0 -146.5 -46t-90.5 -145l-103 27q89 256 346 256q143 0 211.5 -64t48.5 -172
q-16 -92 -91.5 -137.5t-243.5 -85.5q-137 -33 -192.5 -73.5t-74.5 -116.5q182 14 277 14h266l-16 -98h-639q2 10 5 29t5 28q22 121 97.5 186t236.5 105q142 38 197 70.5t65 91.5q9 61 -29.5 96t-128.5 35z" />
    <glyph glyph-name="threequarters" unicode="&#xbe;" horiz-adv-x="1542" 
d="M293 0h-184v12l612 529l41 -41zM1348 1229h186l-2 -12l-610 -529l-43 41zM1397 31h-119l-31 -174h-110l30 174h-456l14 75l504 467h145l-80 -450h119zM428 639q-151 0 -225.5 61t-79.5 172l106 19q6 -79 54.5 -118.5t152.5 -39.5q187 0 209 121q11 62 -25.5 90.5
t-140.5 28.5h-119l15 82h117q164 0 184 114q11 63 -26 94t-126 31t-141.5 -37t-83.5 -112l-100 26q90 218 331 218q138 0 204.5 -56.5t51.5 -152.5q-23 -129 -200 -156l-4 -16q197 -22 172 -179q-35 -190 -326 -190zM1083 123h101l65 360l-10 2l-399 -374l2 -5
q174 17 241 17z" />
    <glyph glyph-name="questiondown" unicode="&#xbf;" horiz-adv-x="993" 
d="M303 385q78 33 111.5 77t42.5 97q0 7 4 23h137q0 -13 -4 -29q-18 -93 -69.5 -154.5t-157.5 -109.5q-127 -57 -177.5 -102t-64.5 -126q-19 -108 43.5 -170.5t200.5 -62.5q150 0 242 90t145 260l137 -24q-62 -212 -193.5 -332.5t-341.5 -120.5q-207 0 -306.5 100t-69.5 269
q11 64 40.5 115t75.5 88t93 62t112 50zM657 760h-192l35 192h192z" />
    <glyph glyph-name="Agrave" unicode="&#xc0;" horiz-adv-x="1181" 
d="M946 0l-78 371h-579l-209 -371h-162l709 1229h192l277 -1229h-150zM909 1358l-508 145l52 119l487 -184zM438 639l-86 -152h492l-33 152q-55 263 -82 459h-47q-117 -232 -244 -459z" />
    <glyph glyph-name="Aacute" unicode="&#xc1;" horiz-adv-x="1181" 
d="M946 0l-78 371h-579l-209 -371h-162l709 1229h192l277 -1229h-150zM565 1358l-14 80l551 186l24 -125zM438 639l-86 -152h492l-33 152q-55 263 -82 459h-47q-117 -232 -244 -459z" />
    <glyph glyph-name="Acircumflex" unicode="&#xc2;" horiz-adv-x="1181" 
d="M946 0l-78 371h-579l-209 -371h-162l709 1229h192l277 -1229h-150zM991 1329l-213 178l-276 -178l-45 64l305 233h63l224 -233zM438 639l-86 -152h492l-33 152q-55 263 -82 459h-47q-117 -232 -244 -459z" />
    <glyph glyph-name="Atilde" unicode="&#xc3;" horiz-adv-x="1181" 
d="M946 0l-78 371h-579l-209 -371h-162l709 1229h192l277 -1229h-150zM604 1669q46 0 80.5 -22t54.5 -53.5t37 -62.5t39.5 -53t52.5 -22q43 0 68 48.5t43 156.5h80q-2 -35 -10 -92q-20 -109 -69.5 -165t-117.5 -56q-44 0 -76.5 21.5t-52 53t-37 62.5t-41.5 52.5t-55 21.5
q-48 0 -72.5 -44t-42.5 -153h-82q1 23 11 88q20 109 69 164t121 55zM438 639l-86 -152h492l-33 152q-55 263 -82 459h-47q-117 -232 -244 -459z" />
    <glyph glyph-name="Adieresis" unicode="&#xc4;" horiz-adv-x="1181" 
d="M946 0l-78 371h-579l-209 -371h-162l709 1229h192l277 -1229h-150zM483 1534h170l-28 -170h-172zM852 1534h170l-29 -170h-172zM438 639l-86 -152h492l-33 152q-55 263 -82 459h-47q-117 -232 -244 -459z" />
    <glyph glyph-name="Aring" unicode="&#xc5;" horiz-adv-x="1181" 
d="M946 0l-78 371h-579l-209 -371h-162l709 1229h192l277 -1229h-150zM664 1536q-10 -57 16 -89t80 -32q52 0 87 30t44 85q10 57 -16 89t-80 32q-53 0 -87.5 -30t-43.5 -85zM985 1524q-15 -88 -79.5 -141.5t-157.5 -53.5q-98 0 -146 59t-31 156q15 88 79 140.5t157 52.5
q98 0 146.5 -58t31.5 -155zM438 639l-86 -152h492l-33 152q-55 263 -82 459h-47q-117 -232 -244 -459z" />
    <glyph glyph-name="AE" unicode="&#xc6;" horiz-adv-x="1742" 
d="M551 639l-152 -211h402l117 674h-50q-138 -214 -317 -463zM725 0l53 307h-465l-219 -307h-164l2 12l895 1217h940l-22 -133h-678l-72 -404h607l-25 -131h-606l-76 -428h678l-23 -133h-825z" />
    <glyph glyph-name="Ccedilla" unicode="&#xc7;" horiz-adv-x="1277" 
d="M592 -23q-24 0 -45 3l-51 -89q44 17 90 17q68 0 104.5 -29.5t26.5 -93.5q-11 -52 -61 -90.5t-140 -38.5q-118 0 -203 59l54 70q70 -51 157 -51q94 0 105 59q6 31 -15 47.5t-65 16.5q-36 0 -90 -13l-49 25l65 117q-228 38 -325 214t-50 445q51 286 224 446t440 160
q235 0 359.5 -125t129.5 -338l-145 -18q-8 175 -94.5 261.5t-263.5 86.5q-210 0 -337.5 -129.5t-166.5 -361.5q-25 -157 0 -272.5t115 -180.5t237 -65q179 0 290 91.5t177 272.5l135 -31q-153 -465 -608 -465z" />
    <glyph glyph-name="Egrave" unicode="&#xc8;" horiz-adv-x="1083" 
d="M68 0l215 1229h827l-23 -133h-677l-72 -404h606l-24 -131h-607l-75 -428h677l-22 -133h-825zM889 1358l-508 145l51 119l488 -184z" />
    <glyph glyph-name="Eacute" unicode="&#xc9;" horiz-adv-x="1083" 
d="M68 0l215 1229h827l-23 -133h-677l-72 -404h606l-24 -131h-607l-75 -428h677l-22 -133h-825zM543 1358l-15 80l551 186l25 -125z" />
    <glyph glyph-name="Ecircumflex" unicode="&#xca;" horiz-adv-x="1083" 
d="M68 0l215 1229h827l-23 -133h-677l-72 -404h606l-24 -131h-607l-75 -428h677l-22 -133h-825zM969 1329l-213 178l-277 -178l-45 64l305 233h64l223 -233z" />
    <glyph glyph-name="Edieresis" unicode="&#xcb;" horiz-adv-x="1083" 
d="M68 0l215 1229h827l-23 -133h-677l-72 -404h606l-24 -131h-607l-75 -428h677l-22 -133h-825zM461 1534h170l-29 -170h-172zM829 1534h170l-28 -170h-172z" />
    <glyph glyph-name="Igrave" unicode="&#xcc;" horiz-adv-x="446" 
d="M213 0h-150l218 1229h149zM543 1358l-508 145l51 119l487 -184z" />
    <glyph glyph-name="Iacute" unicode="&#xcd;" horiz-adv-x="446" 
d="M213 0h-150l218 1229h149zM197 1358l-15 80l551 186l25 -125z" />
    <glyph glyph-name="Icircumflex" unicode="&#xce;" horiz-adv-x="446" 
d="M213 0h-150l218 1229h149zM623 1329l-213 178l-277 -178l-45 64l305 233h64l223 -233z" />
    <glyph glyph-name="Idieresis" unicode="&#xcf;" horiz-adv-x="446" 
d="M213 0h-150l218 1229h149zM115 1534h170l-29 -170h-172zM483 1534h170l-28 -170h-172z" />
    <glyph glyph-name="Eth" unicode="&#xd0;" horiz-adv-x="1363" 
d="M752 561h-369l-78 -434h320q459 0 544 477q43 253 -54 375.5t-355 122.5h-283l-76 -434h369zM137 0l99 561h-166l18 107h166l98 561h439q315 0 445.5 -169t74.5 -478q-49 -281 -231 -433.5t-459 -150.5z" />
    <glyph glyph-name="Ntilde" unicode="&#xd1;" horiz-adv-x="1300" 
d="M872 0l-284 657q-84 189 -160 435h-45q-28 -270 -88 -603l-88 -489h-141l217 1229h215l252 -578q117 -265 184 -493l43 2q29 265 82 579l86 490h141l-217 -1229h-197zM664 1669q46 0 80.5 -22t54.5 -53.5t37 -62.5t39.5 -53t52.5 -22q43 0 67.5 48.5t42.5 156.5h80
q-2 -35 -10 -92q-20 -109 -69 -165t-117 -56q-44 0 -76.5 21.5t-52.5 53t-37.5 62.5t-41.5 52.5t-55 21.5q-48 0 -72 -44t-42 -153h-82q2 35 10 88q20 108 69.5 163.5t121.5 55.5z" />
    <glyph glyph-name="Ograve" unicode="&#xd2;" horiz-adv-x="1347" 
d="M616 -23q-199 0 -328.5 88t-175.5 240t-10 350q48 274 225.5 435t452.5 161q197 0 326.5 -87t176.5 -239t11 -350q-48 -275 -224.5 -436.5t-453.5 -161.5zM623 109q223 0 356 129t172 360q27 152 -3 267.5t-125.5 184t-248.5 68.5q-220 0 -353.5 -127t-174.5 -354
q-14 -91 -11.5 -171t30 -145.5t73.5 -112.5t119 -73t166 -26zM993 1358l-508 145l52 119l487 -184z" />
    <glyph glyph-name="Oacute" unicode="&#xd3;" horiz-adv-x="1347" 
d="M616 -23q-199 0 -328.5 88t-175.5 240t-10 350q48 274 225.5 435t452.5 161q197 0 326.5 -87t176.5 -239t11 -350q-48 -275 -224.5 -436.5t-453.5 -161.5zM623 109q223 0 356 129t172 360q27 152 -3 267.5t-125.5 184t-248.5 68.5q-220 0 -353.5 -127t-174.5 -354
q-14 -91 -11.5 -171t30 -145.5t73.5 -112.5t119 -73t166 -26zM647 1358l-14 80l551 186l24 -125z" />
    <glyph glyph-name="Ocircumflex" unicode="&#xd4;" horiz-adv-x="1347" 
d="M623 109q223 0 356 129t172 360q27 152 -3 267.5t-125.5 184t-248.5 68.5q-220 0 -353.5 -127t-174.5 -354q-14 -91 -11.5 -171t30 -145.5t73.5 -112.5t119 -73t166 -26zM616 -23q-199 0 -328.5 88t-175.5 240t-10 350q48 274 225.5 435t452.5 161q197 0 326.5 -87
t176.5 -239t11 -350q-48 -275 -224.5 -436.5t-453.5 -161.5zM1073 1329l-213 178l-276 -178l-45 64l305 233h63l223 -233z" />
    <glyph glyph-name="Otilde" unicode="&#xd5;" horiz-adv-x="1347" 
d="M616 -23q-199 0 -328.5 88t-175.5 240t-10 350q48 274 225.5 435t452.5 161q197 0 326.5 -87t176.5 -239t11 -350q-48 -275 -224.5 -436.5t-453.5 -161.5zM623 109q223 0 356 129t172 360q27 152 -3 267.5t-125.5 184t-248.5 68.5q-220 0 -353.5 -127t-174.5 -354
q-14 -91 -11.5 -171t30 -145.5t73.5 -112.5t119 -73t166 -26zM686 1669q46 0 80.5 -22t54.5 -53.5t37 -62.5t39.5 -53t52.5 -22q43 0 68 48.5t43 156.5h80q-1 -22 -11 -92q-20 -109 -69 -165t-117 -56q-44 0 -76.5 21.5t-52 53t-37 62.5t-41.5 52.5t-55 21.5
q-48 0 -72.5 -44t-42.5 -153h-82q1 23 11 88q20 109 69 164t121 55z" />
    <glyph glyph-name="Odieresis" unicode="&#xd6;" horiz-adv-x="1347" 
d="M616 -23q-199 0 -328.5 88t-175.5 240t-10 350q48 274 225.5 435t452.5 161q197 0 326.5 -87t176.5 -239t11 -350q-48 -275 -224.5 -436.5t-453.5 -161.5zM623 109q223 0 356 129t172 360q27 152 -3 267.5t-125.5 184t-248.5 68.5q-220 0 -353.5 -127t-174.5 -354
q-14 -91 -11.5 -171t30 -145.5t73.5 -112.5t119 -73t166 -26zM565 1534h170l-28 -170h-172zM934 1534h170l-29 -170h-172z" />
    <glyph glyph-name="multiply" unicode="&#xd7;" horiz-adv-x="1007" 
d="M768 225q-34 46 -116 151t-134 175q-205 -191 -364 -332l-91 107q160 129 388 303q-58 62 -146 159.5t-129 141.5l113 96q39 -52 120.5 -156.5t129.5 -167.5q80 72 200 181t164 149l90 -108q-64 -51 -387 -301q66 -71 167 -182t108 -119z" />
    <glyph glyph-name="Oslash" unicode="&#xd8;" horiz-adv-x="1341" 
d="M616 -23q-260 0 -399 148l-143 -125h-133l2 10l219 189q-111 180 -60 456q48 274 225.5 435t452.5 161q273 0 410 -159l153 137h125l-2 -10l-225 -199q103 -179 53 -445q-48 -275 -224.5 -436.5t-453.5 -161.5zM242 637q-36 -209 30 -344l811 706q-99 123 -309 123
q-222 0 -356.5 -128t-175.5 -357zM621 106q225 0 359 129.5t175 362.5q35 190 -22 326l-811 -705q99 -113 299 -113z" />
    <glyph glyph-name="Ugrave" unicode="&#xd9;" horiz-adv-x="1284" 
d="M598 111q179 0 268.5 90.5t120.5 265.5l133 762h148l-138 -780q-83 -472 -536 -472q-256 0 -371.5 130t-72.5 372l131 750h149l-133 -750q-17 -80 -8 -147.5t39.5 -116.5t99 -76.5t170.5 -27.5zM963 1358l-508 145l51 119l487 -184z" />
    <glyph glyph-name="Uacute" unicode="&#xda;" horiz-adv-x="1284" 
d="M598 111q179 0 268.5 90.5t120.5 265.5l133 762h148l-138 -780q-83 -472 -536 -472q-256 0 -371.5 130t-72.5 372l131 750h149l-133 -750q-17 -80 -8 -147.5t39.5 -116.5t99 -76.5t170.5 -27.5zM616 1358l-14 80l551 186l25 -125z" />
    <glyph glyph-name="Ucircumflex" unicode="&#xdb;" horiz-adv-x="1284" 
d="M598 111q179 0 268.5 90.5t120.5 265.5l133 762h148l-138 -780q-83 -472 -536 -472q-256 0 -371.5 130t-72.5 372l131 750h149l-133 -750q-17 -80 -8 -147.5t39.5 -116.5t99 -76.5t170.5 -27.5zM1042 1329l-213 178l-276 -178l-45 64l305 233h64l223 -233z" />
    <glyph glyph-name="Udieresis" unicode="&#xdc;" horiz-adv-x="1284" 
d="M598 111q179 0 268.5 90.5t120.5 265.5l133 762h148l-138 -780q-83 -472 -536 -472q-256 0 -371.5 130t-72.5 372l131 750h149l-133 -750q-17 -80 -8 -147.5t39.5 -116.5t99 -76.5t170.5 -27.5zM535 1534h170l-29 -170h-172zM903 1534h170l-29 -170h-172z" />
    <glyph glyph-name="Yacute" unicode="&#xdd;" horiz-adv-x="1081" 
d="M530 0h-147l74 428l-334 778l4 23h152l260 -682h22l498 682h158l-5 -23l-606 -782zM514 1358l-14 80l551 186l24 -125z" />
    <glyph glyph-name="Thorn" unicode="&#xde;" horiz-adv-x="1079" 
d="M281 1229h149l-37 -213h307q213 -2 306 -107t55 -313q-28 -161 -146.5 -252.5t-316.5 -91.5h-340l-45 -252h-150zM680 887h-311l-88 -506h313q148 0 226 56.5t100 178.5q25 142 -29.5 206.5t-210.5 64.5z" />
    <glyph glyph-name="germandbls" unicode="&#xdf;" horiz-adv-x="1140" 
d="M635 -20q-112 0 -186.5 38t-126.5 117l77 103q37 -68 96 -97.5t146 -29.5q214 0 254 215q14 61 4 113t-40 90.5t-96.5 60.5t-166.5 22h-133l22 123h109q119 0 197 57t100 177q19 106 -34 175.5t-183 69.5q-139 0 -210.5 -73.5t-96.5 -214.5l-162 -926h-142l164 934
q34 196 147.5 298.5t303.5 102.5q100 0 175.5 -30t117.5 -81t57 -117t2 -140q-21 -116 -98 -182t-211 -91l-2 -24q103 -11 172 -42.5t102 -79t42 -112t-7 -141.5q-27 -148 -125.5 -231.5t-267.5 -83.5z" />
    <glyph glyph-name="agrave" unicode="&#xe0;" horiz-adv-x="1095" 
d="M809 1073l-455 236l68 110l426 -272zM444 104q141 0 240 90t127 242v-4l4 23l10 65l-2 -10q28 152 -42.5 244t-217.5 92q-286 0 -350 -361q-34 -193 23.5 -287t207.5 -94zM78 504q40 225 157 348t289 123q154 0 232.5 -79.5t89.5 -215.5l10 6l45 266h141l-168 -952h-139
l45 258l-4 -2v16q-57 -133 -161.5 -214t-241.5 -81q-183 0 -261.5 138t-33.5 389z" />
    <glyph glyph-name="aacute" unicode="&#xe1;" horiz-adv-x="1095" 
d="M489 1071l-32 74l520 272l47 -108zM444 104q141 0 240 90t127 242v-4l4 23l10 65l-2 -10q28 152 -42.5 244t-217.5 92q-286 0 -350 -361q-34 -193 23.5 -287t207.5 -94zM78 504q40 225 157 348t289 123q154 0 232.5 -79.5t89.5 -215.5l10 6l45 266h141l-168 -952h-139
l45 258l-4 -2v16q-57 -133 -161.5 -214t-241.5 -81q-183 0 -261.5 138t-33.5 389z" />
    <glyph glyph-name="acircumflex" unicode="&#xe2;" horiz-adv-x="1095" 
d="M879 1071l-203 219l-279 -219l-53 59l315 283h64l215 -283zM444 104q141 0 240 90t127 242v-4l4 23l10 65l-2 -10q28 152 -42.5 244t-217.5 92q-286 0 -350 -361q-34 -193 23.5 -287t207.5 -94zM78 504q40 225 157 348t289 123q154 0 232.5 -79.5t89.5 -215.5l10 6
l45 266h141l-168 -952h-139l45 258l-4 -2v16q-57 -133 -161.5 -214t-241.5 -81q-183 0 -261.5 138t-33.5 389z" />
    <glyph glyph-name="atilde" unicode="&#xe3;" horiz-adv-x="1095" 
d="M535 1423q46 0 80.5 -22t54.5 -53.5t37 -62.5t39.5 -53t52.5 -22q43 0 67.5 48.5t42.5 156.5h80q-2 -35 -10 -92q-20 -109 -69 -165t-117 -56q-44 0 -76.5 21.5t-52.5 53t-37.5 62.5t-41.5 52.5t-55 21.5q-48 0 -72 -44t-42 -153h-82q2 35 10 88q20 108 69.5 163.5
t121.5 55.5zM444 104q141 0 240 90t127 242v-4l4 23l10 65l-2 -10q28 152 -42.5 244t-217.5 92q-286 0 -350 -361q-34 -193 23.5 -287t207.5 -94zM78 504q40 225 157 348t289 123q154 0 232.5 -79.5t89.5 -215.5l10 6l45 266h141l-168 -952h-139l45 258l-4 -2v16
q-57 -133 -161.5 -214t-241.5 -81q-183 0 -261.5 138t-33.5 389z" />
    <glyph glyph-name="adieresis" unicode="&#xe4;" horiz-adv-x="1095" 
d="M395 1307h170l-28 -170h-172zM764 1307h170l-29 -170h-172zM444 104q141 0 240 90t127 242v-4l4 23l10 65l-2 -10q28 152 -42.5 244t-217.5 92q-286 0 -350 -361q-34 -193 23.5 -287t207.5 -94zM78 504q40 225 157 348t289 123q154 0 232.5 -79.5t89.5 -215.5l10 6
l45 266h141l-168 -952h-139l45 258l-4 -2v16q-57 -133 -161.5 -214t-241.5 -81q-183 0 -261.5 138t-33.5 389z" />
    <glyph glyph-name="aring" unicode="&#xe5;" horiz-adv-x="1095" 
d="M539 1298q-12 -65 18 -101t92 -36q59 0 98.5 33.5t49.5 95.5q12 65 -18.5 101t-92.5 36q-59 0 -98 -33.5t-49 -95.5zM889 1278q-17 -96 -83 -150.5t-165 -54.5q-107 0 -161 66.5t-34 169.5q17 97 83 152t163 55q106 0 161 -67t36 -171zM444 104q141 0 240 90t127 242v-4
l4 23l10 65l-2 -10q28 152 -42.5 244t-217.5 92q-286 0 -350 -361q-34 -193 23.5 -287t207.5 -94zM78 504q40 225 157 348t289 123q154 0 232.5 -79.5t89.5 -215.5l10 6l45 266h141l-168 -952h-139l45 258l-4 -2v16q-57 -133 -161.5 -214t-241.5 -81q-183 0 -261.5 138
t-33.5 389z" />
    <glyph glyph-name="ae" unicode="&#xe6;" horiz-adv-x="1699" 
d="M350 98q144 0 244 71t119 181l14 82h-313q-101 0 -162 -39.5t-74 -116.5t28.5 -127.5t143.5 -50.5zM1262 858q-142 0 -238.5 -83.5t-138.5 -246.5h620q52 330 -243 330zM1587 283q-64 -149 -172.5 -227.5t-275.5 -78.5q-168 0 -273 74.5t-127 208.5q-58 -140 -174 -211.5
t-258 -71.5q-143 0 -217 77.5t-47 219.5q19 112 112.5 176t252.5 64h335l17 92q21 124 -25 186t-174 62q-103 0 -172.5 -52.5t-112.5 -158.5l-129 37q58 141 164 218t252 77q296 0 318 -232q130 232 395 232q209 0 302 -121.5t58 -325.5q-6 -35 -18 -86h-748
q-20 -166 50 -255t227 -89q127 0 199.5 59t121.5 167z" />
    <glyph glyph-name="ccedilla" unicode="&#xe7;" horiz-adv-x="1062" 
d="M856 604q-6 122 -64 183t-196 61q-151 0 -249.5 -91.5t-131.5 -273.5q-30 -175 39.5 -277t228.5 -102q71 0 126 18.5t94 55.5t64.5 78t51.5 100l125 -39q-65 -167 -179.5 -253.5t-293.5 -86.5q-23 0 -41 3l-51 -89q44 17 90 17q68 0 104.5 -29.5t26.5 -93.5
q-11 -52 -61 -90.5t-140 -38.5q-117 0 -202 59l53 70q70 -51 158 -51q93 0 104 59q6 31 -15 47.5t-65 16.5q-36 0 -90 -13l-49 25l65 119q-168 35 -242.5 172t-39.5 344q38 224 180 347.5t348 123.5q376 0 389 -348z" />
    <glyph glyph-name="egrave" unicode="&#xe8;" horiz-adv-x="1036" 
d="M598 858q-140 0 -236 -79t-137 -234h617q46 313 -244 313zM471 -23q-227 0 -332.5 140t-64.5 383q41 223 185.5 349t350.5 126q211 0 304 -122.5t57 -330.5q-1 -5 -4.5 -21.5l-7 -33t-7.5 -31.5h-747q-19 -161 51 -249.5t221 -88.5q129 0 204 58t122 163l119 -40
q-130 -302 -451 -302zM803 1073l-455 236l68 110l426 -272z" />
    <glyph glyph-name="eacute" unicode="&#xe9;" horiz-adv-x="1036" 
d="M598 858q-140 0 -236 -79t-137 -234h617q46 313 -244 313zM471 -23q-227 0 -332.5 140t-64.5 383q41 223 185.5 349t350.5 126q211 0 304 -122.5t57 -330.5q-1 -5 -4.5 -21.5l-7 -33t-7.5 -31.5h-747q-19 -161 51 -249.5t221 -88.5q129 0 204 58t122 163l119 -40
q-130 -302 -451 -302zM479 1071l-33 74l521 272l47 -108z" />
    <glyph glyph-name="ecircumflex" unicode="&#xea;" horiz-adv-x="1036" 
d="M598 858q-140 0 -236 -79t-137 -234h617q46 313 -244 313zM471 -23q-227 0 -332.5 140t-64.5 383q41 223 185.5 349t350.5 126q211 0 304 -122.5t57 -330.5q-1 -5 -4.5 -21.5l-7 -33t-7.5 -31.5h-747q-19 -161 51 -249.5t221 -88.5q129 0 204 58t122 163l119 -40
q-130 -302 -451 -302zM879 1071l-203 219l-279 -219l-53 59l315 283h64l215 -283z" />
    <glyph glyph-name="edieresis" unicode="&#xeb;" horiz-adv-x="1036" 
d="M598 858q-140 0 -236 -79t-137 -234h617q46 313 -244 313zM471 -23q-227 0 -332.5 140t-64.5 383q41 223 185.5 349t350.5 126q211 0 304 -122.5t57 -330.5q-1 -5 -4.5 -21.5l-7 -33t-7.5 -31.5h-747q-19 -161 51 -249.5t221 -88.5q129 0 204 58t122 163l119 -40
q-130 -302 -451 -302zM395 1307h170l-28 -170h-172zM764 1307h170l-29 -170h-172z" />
    <glyph glyph-name="igrave" unicode="&#xec;" horiz-adv-x="520" 
d="M246 0h-140l168 952h140zM537 1073l-455 236l68 110l425 -272z" />
    <glyph glyph-name="iacute" unicode="&#xed;" horiz-adv-x="520" 
d="M246 0h-140l168 952h140zM211 1071l-33 74l520 272l47 -108z" />
    <glyph glyph-name="icircumflex" unicode="&#xee;" horiz-adv-x="520" 
d="M246 0h-140l168 952h140zM612 1071l-202 219l-279 -219l-53 59l315 283h64l215 -283z" />
    <glyph glyph-name="idieresis" unicode="&#xef;" horiz-adv-x="520" 
d="M246 0h-140l168 952h140zM131 1307h170l-29 -170h-172zM500 1307h170l-29 -170h-172z" />
    <glyph glyph-name="eth" unicode="&#xf0;" horiz-adv-x="1056" 
d="M457 -23q-219 0 -322.5 131t-62.5 371q37 208 162.5 320t302.5 112q129 0 210.5 -68t110.5 -186l23 5q-15 244 -207 436l-301 -109l-31 86l254 92q-72 60 -160 109l60 86q121 -59 231 -145l246 90l26 -90l-196 -72q255 -262 188 -639q-45 -248 -184.5 -388.5
t-349.5 -140.5zM844 469q26 150 -47.5 240t-229.5 90q-142 0 -235.5 -87.5t-122.5 -250.5q-31 -172 35.5 -265.5t220.5 -93.5q148 0 249.5 100.5t129.5 266.5zM877 551q0 3 1 9t1 9l-7 -2v-12z" />
    <glyph glyph-name="ntilde" unicode="&#xf1;" horiz-adv-x="1089" 
d="M289 549l-96 -549h-142l168 952h137l-43 -245h17q58 126 157 197t226 71q159 0 231.5 -99t42.5 -262l-106 -614h-142l105 592q20 115 -26 184.5t-167 69.5q-143 0 -241 -81t-121 -216zM561 1423q46 0 80.5 -22t54.5 -53.5t37 -62.5t39.5 -53t52.5 -22q43 0 68 48.5
t43 156.5h80q-2 -35 -10 -92q-20 -109 -69.5 -165t-117.5 -56q-44 0 -76.5 21.5t-52 53t-37 62.5t-41.5 52.5t-55 21.5q-48 0 -72.5 -44t-42.5 -153h-82q1 23 11 88q20 109 69 164t121 55z" />
    <glyph glyph-name="ograve" unicode="&#xf2;" horiz-adv-x="1085" 
d="M479 -23q-229 0 -335 149t-64 390q37 223 177 341t347 118q221 0 333 -147.5t71 -385.5q-40 -222 -177.5 -343.5t-351.5 -121.5zM592 850q-153 0 -249.5 -90.5t-125.5 -261.5q-32 -179 37.5 -287.5t234.5 -108.5q157 0 254 95t127 268q31 176 -42.5 280.5t-235.5 104.5z
M809 1073l-455 236l68 110l426 -272z" />
    <glyph glyph-name="oacute" unicode="&#xf3;" horiz-adv-x="1085" 
d="M479 -23q-229 0 -335 149t-64 390q37 223 177 341t347 118q221 0 333 -147.5t71 -385.5q-40 -222 -177.5 -343.5t-351.5 -121.5zM592 850q-153 0 -249.5 -90.5t-125.5 -261.5q-32 -179 37.5 -287.5t234.5 -108.5q157 0 254 95t127 268q31 176 -42.5 280.5t-235.5 104.5z
M483 1071l-32 74l520 272l47 -108z" />
    <glyph glyph-name="ocircumflex" unicode="&#xf4;" horiz-adv-x="1085" 
d="M592 850q-153 0 -249.5 -90.5t-125.5 -261.5q-32 -179 37.5 -287.5t234.5 -108.5q157 0 254 95t127 268q31 176 -42.5 280.5t-235.5 104.5zM479 -23q-229 0 -335 149t-64 390q37 223 177 341t347 118q221 0 333 -147.5t71 -385.5q-40 -222 -177.5 -343.5t-351.5 -121.5z
M887 1071l-203 219l-278 -219l-54 59l316 283h63l215 -283z" />
    <glyph glyph-name="otilde" unicode="&#xf5;" horiz-adv-x="1085" 
d="M479 -23q-229 0 -335 149t-64 390q37 223 177 341t347 118q221 0 333 -147.5t71 -385.5q-40 -222 -177.5 -343.5t-351.5 -121.5zM592 850q-153 0 -249.5 -90.5t-125.5 -261.5q-32 -179 37.5 -287.5t234.5 -108.5q157 0 254 95t127 268q31 176 -42.5 280.5t-235.5 104.5z
M545 1423q46 0 80.5 -22t54.5 -53.5t37 -62.5t39.5 -53t52.5 -22q43 0 68 48.5t43 156.5h79q-2 -35 -10 -92q-20 -109 -69 -165t-117 -56q-44 0 -76.5 21.5t-52 53t-37 62.5t-41.5 52.5t-55 21.5q-48 0 -72.5 -44t-42.5 -153h-82q2 35 10 88q20 108 69.5 163.5t121.5 55.5z
" />
    <glyph glyph-name="odieresis" unicode="&#xf6;" horiz-adv-x="1085" 
d="M479 -23q-229 0 -335 149t-64 390q37 223 177 341t347 118q221 0 333 -147.5t71 -385.5q-40 -222 -177.5 -343.5t-351.5 -121.5zM592 850q-153 0 -249.5 -90.5t-125.5 -261.5q-32 -179 37.5 -287.5t234.5 -108.5q157 0 254 95t127 268q31 176 -42.5 280.5t-235.5 104.5z
M403 1307h170l-28 -170h-172zM772 1307h170l-29 -170h-172z" />
    <glyph glyph-name="divide" unicode="&#xf7;" horiz-adv-x="1011" 
d="M956 559h-872l22 129h873zM524 1040h164l-29 -163h-163zM410 379h163l-28 -164h-164z" />
    <glyph glyph-name="oslash" unicode="&#xf8;" horiz-adv-x="1085" 
d="M479 -23q-202 0 -313 121l-111 -98h-127l2 12l187 158q-75 143 -37 346q36 220 176.5 339.5t347.5 119.5q200 0 309 -121l109 98h121v-12l-178 -156q78 -139 43 -342q-38 -220 -176.5 -342.5t-352.5 -122.5zM592 856q-156 0 -254 -92t-129 -266q-25 -144 12 -238l596 512
q-78 84 -225 84zM487 96q162 0 261.5 96.5t130.5 272.5q24 135 -15 233l-600 -516q77 -86 223 -86z" />
    <glyph glyph-name="ugrave" unicode="&#xf9;" horiz-adv-x="1089" 
d="M733 0l43 246h-16q-58 -126 -157.5 -197.5t-225.5 -71.5q-158 0 -231.5 99.5t-43.5 261.5l109 614h139l-104 -594q-20 -114 26 -183t166 -69q144 0 242 81t121 216l98 549h139l-168 -952h-137zM817 1073l-455 236l68 110l426 -272z" />
    <glyph glyph-name="uacute" unicode="&#xfa;" horiz-adv-x="1089" 
d="M733 0l43 246h-16q-58 -126 -157.5 -197.5t-225.5 -71.5q-158 0 -231.5 99.5t-43.5 261.5l109 614h139l-104 -594q-20 -114 26 -183t166 -69q144 0 242 81t121 216l98 549h139l-168 -952h-137zM494 1071l-33 74l520 272l47 -108z" />
    <glyph glyph-name="ucircumflex" unicode="&#xfb;" horiz-adv-x="1089" 
d="M733 0l43 246h-16q-58 -126 -157.5 -197.5t-225.5 -71.5q-158 0 -231.5 99.5t-43.5 261.5l109 614h139l-104 -594q-20 -114 26 -183t166 -69q144 0 242 81t121 216l98 549h139l-168 -952h-137zM893 1071l-203 219l-278 -219l-54 59l316 283h63l215 -283z" />
    <glyph glyph-name="udieresis" unicode="&#xfc;" horiz-adv-x="1089" 
d="M733 0l43 246h-16q-58 -126 -157.5 -197.5t-225.5 -71.5q-158 0 -231.5 99.5t-43.5 261.5l109 614h139l-104 -594q-20 -114 26 -183t166 -69q144 0 242 81t121 216l98 549h139l-168 -952h-137zM410 1307h170l-29 -170h-172zM778 1307h170l-28 -170h-172z" />
    <glyph glyph-name="yacute" unicode="&#xfd;" horiz-adv-x="968" 
d="M12 -344q-80 0 -133 12l35 131q72 -14 117 -14q46 0 80 8t72.5 31t77 68.5t83.5 117.5l-254 942h150l73 -336q64 -270 105 -491h26q79 148 265 487l186 340h158l-586 -964q-107 -177 -211.5 -254.5t-243.5 -77.5zM438 1071l-32 74l520 272l47 -108z" />
    <glyph glyph-name="thorn" unicode="&#xfe;" horiz-adv-x="1095" 
d="M537 102q279 0 346 373q33 186 -24 278.5t-208 92.5q-137 0 -234.5 -84.5t-131.5 -231.5l-19 -110q-20 -141 54.5 -229.5t216.5 -88.5zM424 1315l-111 -619h15q59 130 155 204.5t230 74.5q190 0 270.5 -134.5t36.5 -383.5q-41 -230 -160 -355t-291 -125q-144 0 -225.5 77
t-95.5 206h-10l-101 -573h-141l287 1628h141z" />
    <glyph glyph-name="ydieresis" unicode="&#xff;" horiz-adv-x="968" 
d="M12 -344q-80 0 -133 12l35 131q72 -14 117 -14q46 0 80 8t72.5 31t77 68.5t83.5 117.5l-254 942h150l73 -336q64 -270 105 -491h26q79 148 265 487l186 340h158l-586 -964q-107 -177 -211.5 -254.5t-243.5 -77.5zM356 1307h170l-28 -170h-172zM725 1307h170l-29 -170
h-172z" />
    <glyph glyph-name="Amacron" unicode="&#x100;" horiz-adv-x="1181" 
d="M946 0l-78 371h-579l-209 -371h-162l709 1229h192l277 -1229h-150zM489 1487h560l-21 -113h-559zM438 639l-86 -152h492l-33 152q-55 263 -82 459h-47q-117 -232 -244 -459z" />
    <glyph glyph-name="amacron" unicode="&#x101;" horiz-adv-x="1095" 
d="M385 1255h557l-20 -110h-557zM444 104q141 0 240 90t127 242v-4l4 23l10 65l-2 -10q28 152 -42.5 244t-217.5 92q-286 0 -350 -361q-34 -193 23.5 -287t207.5 -94zM78 504q40 225 157 348t289 123q154 0 232.5 -79.5t89.5 -215.5l10 6l45 266h141l-168 -952h-139l45 258
l-4 -2v16q-57 -133 -161.5 -214t-241.5 -81q-183 0 -261.5 138t-33.5 389z" />
    <glyph glyph-name="Abreve" unicode="&#x102;" horiz-adv-x="1181" 
d="M946 0l-78 371h-579l-209 -371h-162l709 1229h192l277 -1229h-150zM760 1448q184 0 227 174h86q-45 -281 -317 -281q-134 0 -200.5 71.5t-43.5 209.5h86q-16 -174 162 -174zM438 639l-86 -152h492l-33 152q-55 263 -82 459h-47q-117 -232 -244 -459z" />
    <glyph glyph-name="abreve" unicode="&#x103;" horiz-adv-x="1095" 
d="M659 1198q179 0 228 203h86q-51 -307 -318 -307q-137 0 -203.5 78t-39.5 229h88q-24 -203 159 -203zM444 104q141 0 240 90t127 242v-4l4 23l10 65l-2 -10q28 152 -42.5 244t-217.5 92q-286 0 -350 -361q-34 -193 23.5 -287t207.5 -94zM78 504q40 225 157 348t289 123
q154 0 232.5 -79.5t89.5 -215.5l10 6l45 266h141l-168 -952h-139l45 258l-4 -2v16q-57 -133 -161.5 -214t-241.5 -81q-183 0 -261.5 138t-33.5 389z" />
    <glyph glyph-name="Aogonek" unicode="&#x104;" horiz-adv-x="1181" 
d="M1044 -322q-70 -12 -129 -12q-107 0 -157 41.5t-39 114.5q23 124 231 178h-4l-78 371h-579l-209 -371h-162l709 1229h192l277 -1229q-132 -25 -197 -59t-74 -84q-7 -41 23.5 -61.5t95.5 -20.5q41 0 113 16zM438 639l-86 -152h492l-33 152q-55 263 -82 459h-47
q-117 -232 -244 -459z" />
    <glyph glyph-name="aogonek" unicode="&#x105;" horiz-adv-x="1095" 
d="M444 104q141 0 240 90t127 242v-4l4 23l10 65l-2 -10q28 152 -42.5 244t-217.5 92q-286 0 -350 -361q-34 -193 23.5 -287t207.5 -94zM78 504q40 225 157 348t289 123q154 0 232.5 -79.5t89.5 -215.5l10 6l45 266h141l-168 -952q-132 -25 -196.5 -59t-73.5 -84
q-7 -41 23.5 -61.5t95.5 -20.5q41 0 113 16l-13 -113q-71 -12 -129 -12q-107 0 -157 41.5t-39 114.5q23 125 237 180l45 256l-4 -2v16q-57 -133 -161.5 -214t-241.5 -81q-183 0 -261.5 138t-33.5 389z" />
    <glyph glyph-name="Cacute" unicode="&#x106;" horiz-adv-x="1275" 
d="M592 -23q-193 0 -317 85.5t-167 235t-8 347.5q51 286 224 446t440 160q235 0 359.5 -125t129.5 -338l-145 -18q-8 175 -94.5 261.5t-263.5 86.5q-210 0 -337.5 -129.5t-166.5 -361.5q-25 -157 0 -272.5t115 -180.5t237 -65q179 0 290 91.5t177 272.5l135 -31
q-153 -465 -608 -465zM623 1358l-15 80l551 186l25 -125z" />
    <glyph glyph-name="cacute" unicode="&#x107;" horiz-adv-x="1046" 
d="M856 604q-6 122 -64 183t-196 61q-151 0 -249.5 -91.5t-131.5 -273.5q-30 -175 39.5 -277t228.5 -102q71 0 126 18.5t94 55.5t64.5 78t51.5 100l125 -39q-65 -167 -179.5 -253.5t-293.5 -86.5q-225 0 -330 143.5t-65 383.5q38 224 180 347.5t348 123.5q376 0 389 -348z
M487 1071l-32 74l520 272l47 -108z" />
    <glyph glyph-name="Ccircumflex" unicode="&#x108;" horiz-adv-x="1275" 
d="M592 -23q-193 0 -317 85.5t-167 235t-8 347.5q51 286 224 446t440 160q235 0 359.5 -125t129.5 -338l-145 -18q-8 175 -94.5 261.5t-263.5 86.5q-210 0 -337.5 -129.5t-166.5 -361.5q-25 -157 0 -272.5t115 -180.5t237 -65q179 0 290 91.5t177 272.5l135 -31
q-153 -465 -608 -465zM1044 1329l-213 178l-276 -178l-45 64l305 233h64l223 -233z" />
    <glyph glyph-name="ccircumflex" unicode="&#x109;" horiz-adv-x="1046" 
d="M856 604q-6 122 -64 183t-196 61q-151 0 -249.5 -91.5t-131.5 -273.5q-30 -175 39.5 -277t228.5 -102q71 0 126 18.5t94 55.5t64.5 78t51.5 100l125 -39q-65 -167 -179.5 -253.5t-293.5 -86.5q-225 0 -330 143.5t-65 383.5q38 224 180 347.5t348 123.5q376 0 389 -348z
M889 1071l-203 219l-278 -219l-54 59l316 283h63l215 -283z" />
    <glyph glyph-name="Cdotaccent" unicode="&#x10a;" horiz-adv-x="1275" 
d="M592 -23q-193 0 -317 85.5t-167 235t-8 347.5q51 286 224 446t440 160q235 0 359.5 -125t129.5 -338l-145 -18q-8 175 -94.5 261.5t-263.5 86.5q-210 0 -337.5 -129.5t-166.5 -361.5q-25 -157 0 -272.5t115 -180.5t237 -65q179 0 290 91.5t177 272.5l135 -31
q-153 -465 -608 -465zM725 1575h178l-31 -174h-178z" />
    <glyph glyph-name="cdotaccent" unicode="&#x10b;" horiz-adv-x="1046" 
d="M856 604q-6 122 -64 183t-196 61q-151 0 -249.5 -91.5t-131.5 -273.5q-30 -175 39.5 -277t228.5 -102q71 0 126 18.5t94 55.5t64.5 78t51.5 100l125 -39q-65 -167 -179.5 -253.5t-293.5 -86.5q-225 0 -330 143.5t-65 383.5q38 224 180 347.5t348 123.5q376 0 389 -348z
M598 1329h178l-31 -174h-178z" />
    <glyph glyph-name="Ccaron" unicode="&#x10c;" horiz-adv-x="1275" 
d="M592 -23q-193 0 -317 85.5t-167 235t-8 347.5q51 286 224 446t440 160q235 0 359.5 -125t129.5 -338l-145 -18q-8 175 -94.5 261.5t-263.5 86.5q-210 0 -337.5 -129.5t-166.5 -361.5q-25 -157 0 -272.5t115 -180.5t237 -65q179 0 290 91.5t177 272.5l135 -31
q-153 -465 -608 -465zM827 1337h-63l-221 234l55 61l213 -178l276 178l46 -61z" />
    <glyph glyph-name="ccaron" unicode="&#x10d;" horiz-adv-x="1046" 
d="M856 604q-6 122 -64 183t-196 61q-151 0 -249.5 -91.5t-131.5 -273.5q-30 -175 39.5 -277t228.5 -102q71 0 126 18.5t94 55.5t64.5 78t51.5 100l125 -39q-65 -167 -179.5 -253.5t-293.5 -86.5q-225 0 -330 143.5t-65 383.5q38 224 180 347.5t348 123.5q376 0 389 -348z
M672 1085h-62l-215 283l62 57l198 -217l283 217l49 -57z" />
    <glyph glyph-name="Dcaron" unicode="&#x10e;" horiz-adv-x="1292" 
d="M688 1102h-282l-173 -975h320q460 0 545 477q43 252 -54.5 375t-355.5 123zM66 0l215 1229h438q315 0 445.5 -169t74.5 -478q-49 -281 -231 -433.5t-459 -150.5zM825 1337h-63l-221 234l55 61l213 -178l276 178l45 -61z" />
    <glyph glyph-name="dcaron" unicode="&#x10f;" horiz-adv-x="1228" 
d="M444 104q140 0 240.5 90t126.5 242v-4l4 23l12 65l-4 -10q28 151 -43.5 243.5t-218.5 92.5q-285 0 -348 -363q-34 -192 23 -285.5t208 -93.5zM735 0l45 256h-10q-58 -127 -160.5 -203t-234.5 -76q-184 0 -262.5 138.5t-34.5 388.5q39 228 156 349.5t292 121.5
q144 0 223 -76t95 -205h14l109 621h139l-232 -1315h-139zM1260 1313h122l-147 -514h-92z" />
    <glyph glyph-name="Dcroat" unicode="&#x110;" horiz-adv-x="1363" 
d="M752 561h-369l-78 -434h320q459 0 544 477q43 253 -54 375.5t-355 122.5h-283l-76 -434h369zM137 0l99 561h-166l18 107h166l98 561h439q315 0 445.5 -169t74.5 -478q-49 -281 -231 -433.5t-459 -150.5z" />
    <glyph glyph-name="dcroat" unicode="&#x111;" horiz-adv-x="1122" 
d="M444 104q140 0 240.5 90t126.5 242v-4l4 23l12 65l-4 -10q28 151 -43.5 243.5t-218.5 92.5q-285 0 -348 -363q-34 -192 23 -285.5t208 -93.5zM735 0l45 256h-10q-58 -127 -160.5 -203t-234.5 -76q-184 0 -262.5 138.5t-34.5 388.5q39 228 156 349.5t292 121.5
q144 0 223 -76t95 -205h14l70 402h-307l16 96h307l23 123h139l-23 -123h129l-18 -96h-127l-193 -1096h-139z" />
    <glyph glyph-name="Emacron" unicode="&#x112;" horiz-adv-x="1083" 
d="M68 0l215 1229h827l-23 -133h-677l-72 -404h606l-24 -131h-607l-75 -428h677l-22 -133h-825zM467 1487h559l-20 -113h-560z" />
    <glyph glyph-name="emacron" unicode="&#x113;" horiz-adv-x="1036" 
d="M598 858q-140 0 -236 -79t-137 -234h617q46 313 -244 313zM471 -23q-227 0 -332.5 140t-64.5 383q41 223 185.5 349t350.5 126q211 0 304 -122.5t57 -330.5q-1 -5 -4.5 -21.5l-7 -33t-7.5 -31.5h-747q-19 -161 51 -249.5t221 -88.5q129 0 204 58t122 163l119 -40
q-130 -302 -451 -302zM385 1255h557l-20 -110h-557z" />
    <glyph glyph-name="Ebreve" unicode="&#x114;" horiz-adv-x="1083" 
d="M68 0l215 1229h827l-23 -133h-677l-72 -404h606l-24 -131h-607l-75 -428h677l-22 -133h-825zM737 1448q185 0 228 174h86q-45 -281 -318 -281q-134 0 -200.5 71.5t-43.5 209.5h86q-16 -174 162 -174z" />
    <glyph glyph-name="ebreve" unicode="&#x115;" horiz-adv-x="1036" 
d="M598 858q-140 0 -236 -79t-137 -234h617q46 313 -244 313zM471 -23q-227 0 -332.5 140t-64.5 383q41 223 185.5 349t350.5 126q211 0 304 -122.5t57 -330.5q-1 -5 -4.5 -21.5l-7 -33t-7.5 -31.5h-747q-19 -161 51 -249.5t221 -88.5q129 0 204 58t122 163l119 -40
q-130 -302 -451 -302zM655 1198q179 0 228 203h86q-51 -307 -318 -307q-137 0 -203.5 78t-39.5 229h88q-24 -203 159 -203z" />
    <glyph glyph-name="Edotaccent" unicode="&#x116;" horiz-adv-x="1083" 
d="M68 0l215 1229h827l-23 -133h-677l-72 -404h606l-24 -131h-607l-75 -428h677l-22 -133h-825zM649 1575h178l-30 -174h-179z" />
    <glyph glyph-name="edotaccent" unicode="&#x117;" horiz-adv-x="1036" 
d="M598 858q-140 0 -236 -79t-137 -234h617q46 313 -244 313zM471 -23q-227 0 -332.5 140t-64.5 383q41 223 185.5 349t350.5 126q211 0 304 -122.5t57 -330.5q-1 -5 -4.5 -21.5l-7 -33t-7.5 -31.5h-747q-19 -161 51 -249.5t221 -88.5q129 0 204 58t122 163l119 -40
q-130 -302 -451 -302zM586 1329h178l-31 -174h-178z" />
    <glyph glyph-name="Eogonek" unicode="&#x118;" horiz-adv-x="1083" 
d="M840 -322q-70 -12 -129 -12q-107 0 -157.5 41.5t-39.5 114.5q23 124 231 178h-677l215 1229h827l-23 -133h-677l-72 -404h606l-24 -131h-607l-75 -428h677l-22 -133h-2q-132 -25 -196.5 -59t-73.5 -84q-7 -41 23 -61.5t95 -20.5q41 0 113 16z" />
    <glyph glyph-name="eogonek" unicode="&#x119;" horiz-adv-x="1036" 
d="M598 858q-140 0 -236 -79t-137 -234h617q46 313 -244 313zM471 -23q-227 0 -332.5 140t-64.5 383q41 223 185.5 349t350.5 126q211 0 304 -122.5t57 -330.5q-1 -5 -4.5 -21.5l-7 -33t-7.5 -31.5h-747q-19 -161 51 -249.5t221 -88.5q129 0 204 58t122 163l117 -40l2 4
q0 -2 -2 -4h2q-48 -115 -127 -185q-45 -45 -103 -82q-134 -83 -149 -174q-8 -50 30 -72t101 -22q52 0 112 14l-14 -118q-86 -11 -125 -11q-124 0 -175 45t-38 117q11 62 59 111t123 94q-71 -19 -145 -19z" />
    <glyph glyph-name="Ecaron" unicode="&#x11a;" horiz-adv-x="1083" 
d="M68 0l215 1229h827l-23 -133h-677l-72 -404h606l-24 -131h-607l-75 -428h677l-22 -133h-825zM752 1337h-64l-221 234l55 61l213 -178l277 178l45 -61z" />
    <glyph glyph-name="ecaron" unicode="&#x11b;" horiz-adv-x="1036" 
d="M598 858q-140 0 -236 -79t-137 -234h617q46 313 -244 313zM471 -23q-227 0 -332.5 140t-64.5 383q41 223 185.5 349t350.5 126q211 0 304 -122.5t57 -330.5q-1 -5 -4.5 -21.5l-7 -33t-7.5 -31.5h-747q-19 -161 51 -249.5t221 -88.5q129 0 204 58t122 163l119 -40
q-130 -302 -451 -302zM664 1085h-62l-215 283l62 57l198 -217l283 217l49 -57z" />
    <glyph glyph-name="Gcircumflex" unicode="&#x11c;" horiz-adv-x="1312" 
d="M543 -20q-254 0 -376 182t-67 489q53 292 217.5 446t440.5 154q233 0 357 -118t138 -330l-145 -25q-13 175 -100 257.5t-256 82.5q-222 0 -343 -119t-163 -358q-43 -247 43 -391t309 -144q113 0 200 29.5t140.5 82t84.5 114.5t44 137v-4l4 27h-412l23 131h551l-109 -623
h-137l49 281h-14q-67 -137 -185.5 -219t-293.5 -82zM1047 1329l-213 178l-277 -178l-45 64l305 233h64l223 -233z" />
    <glyph glyph-name="gcircumflex" unicode="&#x11d;" horiz-adv-x="1095" 
d="M870 1071l-202 219l-279 -219l-53 59l315 283h64l215 -283zM459 172q135 0 231 77t125 208l12 73q20 142 -53 229t-217 87q-278 0 -336 -318q-64 -356 238 -356zM84 545q38 207 153.5 318.5t284.5 111.5q148 0 227 -76t95 -205h12l45 258h141l-151 -866
q-38 -210 -157.5 -315t-325.5 -105q-194 0 -300.5 73t-127.5 212l135 29q20 -93 89 -143.5t204 -51.5q85 1 146.5 22.5t100.5 65t62 99t37 132.5l34 195h-14q-57 -111 -157 -179.5t-228 -68.5q-183 0 -264.5 129t-40.5 365z" />
    <glyph glyph-name="Gbreve" unicode="&#x11e;" horiz-adv-x="1312" 
d="M543 -20q-254 0 -376 182t-67 489q53 292 217.5 446t440.5 154q233 0 357 -118t138 -330l-145 -25q-13 175 -100 257.5t-256 82.5q-222 0 -343 -119t-163 -358q-43 -247 43 -391t309 -144q113 0 200 29.5t140.5 82t84.5 114.5t44 137v-4l4 27h-412l23 131h551l-109 -623
h-137l49 281h-14q-67 -137 -185.5 -219t-293.5 -82zM815 1448q184 0 227 174h86q-45 -281 -317 -281q-134 0 -200.5 71.5t-43.5 209.5h86q-16 -174 162 -174z" />
    <glyph glyph-name="gbreve" unicode="&#x11f;" horiz-adv-x="1095" 
d="M653 1198q179 0 228 203h86q-51 -307 -318 -307q-137 0 -203.5 78t-39.5 229h88q-24 -203 159 -203zM459 172q135 0 231 77t125 208l12 73q20 142 -53 229t-217 87q-278 0 -336 -318q-64 -356 238 -356zM84 545q38 207 153.5 318.5t284.5 111.5q148 0 227 -76t95 -205h12
l45 258h141l-151 -866q-38 -210 -157.5 -315t-325.5 -105q-194 0 -300.5 73t-127.5 212l135 29q20 -93 89 -143.5t204 -51.5q85 1 146.5 22.5t100.5 65t62 99t37 132.5l34 195h-14q-57 -111 -157 -179.5t-228 -68.5q-183 0 -264.5 129t-40.5 365z" />
    <glyph glyph-name="Gdotaccent" unicode="&#x120;" horiz-adv-x="1312" 
d="M543 -20q-254 0 -376 182t-67 489q53 292 217.5 446t440.5 154q233 0 357 -118t138 -330l-145 -25q-13 175 -100 257.5t-256 82.5q-222 0 -343 -119t-163 -358q-43 -247 43 -391t309 -144q113 0 200 29.5t140.5 82t84.5 114.5t44 137v-4l4 27h-412l23 131h551l-109 -623
h-137l49 281h-14q-67 -137 -185.5 -219t-293.5 -82zM725 1575h178l-31 -174h-178z" />
    <glyph glyph-name="gdotaccent" unicode="&#x121;" horiz-adv-x="1095" 
d="M586 1329h178l-31 -174h-178zM459 172q135 0 231 77t125 208l12 73q20 142 -53 229t-217 87q-278 0 -336 -318q-64 -356 238 -356zM84 545q38 207 153.5 318.5t284.5 111.5q148 0 227 -76t95 -205h12l45 258h141l-151 -866q-38 -210 -157.5 -315t-325.5 -105
q-194 0 -300.5 73t-127.5 212l135 29q20 -93 89 -143.5t204 -51.5q85 1 146.5 22.5t100.5 65t62 99t37 132.5l34 195h-14q-57 -111 -157 -179.5t-228 -68.5q-183 0 -264.5 129t-40.5 365z" />
    <glyph glyph-name="uni0122" unicode="&#x122;" horiz-adv-x="1312" 
d="M543 -20q-254 0 -376 182t-67 489q53 292 217.5 446t440.5 154q233 0 357 -118t138 -330l-145 -25q-13 175 -100 257.5t-256 82.5q-222 0 -343 -119t-163 -358q-43 -247 43 -391t309 -144q113 0 200 29.5t140.5 82t84.5 114.5t44 137v-4l4 27h-412l23 131h551l-109 -623
h-137l49 281h-14q-67 -137 -185.5 -219t-293.5 -82zM524 -117h125l-174 -307h-96l2 16z" />
    <glyph glyph-name="uni0123" unicode="&#x123;" horiz-adv-x="1095" 
d="M666 1120h-127l176 307h96l-4 -16zM459 172q135 0 231 77t125 208l12 73q20 142 -53 229t-217 87q-278 0 -336 -318q-64 -356 238 -356zM84 545q38 207 153.5 318.5t284.5 111.5q148 0 227 -76t95 -205h12l45 258h141l-151 -866q-38 -210 -157.5 -315t-325.5 -105
q-194 0 -300.5 73t-127.5 212l135 29q20 -93 89 -143.5t204 -51.5q85 1 146.5 22.5t100.5 65t62 99t37 132.5l34 195h-14q-57 -111 -157 -179.5t-228 -68.5q-183 0 -264.5 129t-40.5 365z" />
    <glyph glyph-name="Hcircumflex" unicode="&#x124;" horiz-adv-x="1304" 
d="M1071 0h-149l96 547h-709l-96 -547h-150l218 1229h149l-96 -549h708l97 549h149zM1051 1329l-213 178l-277 -178l-45 64l305 233h64l223 -233z" />
    <glyph glyph-name="hcircumflex" unicode="&#x125;" horiz-adv-x="1089" 
d="M289 549l-96 -549h-142l232 1315h141l-107 -608h13q60 126 158 197t225 71q159 0 231.5 -99t42.5 -262l-106 -614h-142l105 592q20 115 -26 184.5t-167 69.5q-142 0 -240.5 -81.5t-121.5 -215.5zM610 1339l-213 179l-276 -179l-45 64l305 233h63l224 -233z" />
    <glyph glyph-name="Hbar" unicode="&#x126;" horiz-adv-x="1384" 
d="M1077 647l41 234h-710l-41 -234h710zM1110 0h-147l92 516h-711l-92 -516h-148l156 881h-149l20 112h150l41 236h147l-41 -236h711l41 236h147l-41 -236h148l-19 -112h-149z" />
    <glyph glyph-name="hbar" unicode="&#x127;" horiz-adv-x="1112" 
d="M311 549l-96 -549h-141l192 1094h-121l19 98h119l22 123h141l-22 -123h321l-16 -98h-321l-68 -387h12q60 126 158 197t225 71q159 0 232 -99.5t43 -261.5l-107 -614h-141l104 592q20 115 -25.5 184.5t-166.5 69.5q-142 0 -241 -81.5t-122 -215.5z" />
    <glyph glyph-name="Itilde" unicode="&#x128;" horiz-adv-x="446" 
d="M213 0h-150l218 1229h149zM236 1669q46 0 80.5 -22t54.5 -53.5t37 -62.5t39.5 -53t52.5 -22q43 0 67.5 48.5t42.5 156.5h80q-2 -35 -10 -92q-20 -109 -69 -165t-117 -56q-44 0 -76.5 21.5t-52.5 53t-37.5 62.5t-41.5 52.5t-55 21.5q-48 0 -72 -44t-42 -153h-82
q2 35 10 88q20 108 69.5 163.5t121.5 55.5z" />
    <glyph glyph-name="itilde" unicode="&#x129;" horiz-adv-x="520" 
d="M246 0h-140l168 952h140zM272 1423q46 0 80.5 -22t54.5 -53.5t37.5 -62.5t40 -53t52.5 -22q43 0 67.5 48.5t42.5 156.5h80q-2 -35 -10 -92q-20 -109 -69.5 -165t-117.5 -56q-44 0 -76.5 21.5t-52 53t-37 62.5t-41.5 52.5t-55 21.5q-48 0 -72 -44t-42 -153h-82q2 35 10 88
q20 109 69 164t121 55z" />
    <glyph glyph-name="Imacron" unicode="&#x12a;" horiz-adv-x="446" 
d="M213 0h-150l218 1229h149zM121 1487h559l-21 -113h-559z" />
    <glyph glyph-name="imacron" unicode="&#x12b;" horiz-adv-x="520" 
d="M246 0h-140l168 952h140zM119 1255h557l-21 -110h-557z" />
    <glyph glyph-name="Ibreve" unicode="&#x12c;" horiz-adv-x="446" 
d="M213 0h-150l218 1229h149zM391 1448q184 0 227 174h87q-45 -281 -318 -281q-134 0 -200.5 71.5t-43.5 209.5h86q-16 -174 162 -174z" />
    <glyph glyph-name="ibreve" unicode="&#x12d;" horiz-adv-x="520" 
d="M246 0h-140l168 952h140zM389 1198q85 0 143 46.5t84 156.5h86q-51 -307 -317 -307q-137 0 -204 78t-40 229h88q-24 -203 160 -203z" />
    <glyph glyph-name="Iogonek" unicode="&#x12e;" horiz-adv-x="446" 
d="M213 0q-132 -25 -196.5 -59t-73.5 -84q-7 -41 23 -61.5t95 -20.5q41 0 113 16l-12 -113q-70 -12 -129 -12q-107 0 -157.5 41.5t-39.5 114.5q23 124 232 178h-5l218 1229h149z" />
    <glyph glyph-name="iogonek" unicode="&#x12f;" horiz-adv-x="456" 
d="M434 1155h-172l25 143h172zM35 -334q-107 0 -157.5 41.5t-39.5 114.5q12 64 74 109t162 69l168 952h139l-168 -950l2 -2q-132 -25 -196.5 -59t-73.5 -84q-7 -41 23 -61.5t95 -20.5q41 0 113 16l-12 -113q-70 -12 -129 -12z" />
    <glyph glyph-name="Idotaccent" unicode="&#x130;" horiz-adv-x="446" 
d="M213 0h-150l218 1229h149zM303 1575h178l-30 -174h-179z" />
    <glyph glyph-name="dotlessi" unicode="&#x131;" horiz-adv-x="520" 
d="M246 0h-140l168 952h140z" />
    <glyph glyph-name="IJ" unicode="&#x132;" horiz-adv-x="1069" 
d="M213 0h-150l218 1229h149zM743 309l162 920h148l-162 -918q-57 -327 -344 -327q-88 0 -154 14l27 131q68 -12 123 -12q87 0 134.5 48.5t65.5 143.5z" />
    <glyph glyph-name="ij" unicode="&#x133;" horiz-adv-x="935" 
d="M434 1155h-172l25 143h172zM213 0h-139l168 952h139zM690 -29q-26 -145 -101.5 -225t-203.5 -80q-62 0 -104 10l28 125q36 -8 80 -8q130 0 160 176l172 981h141zM913 1155h-172l27 143h172z" />
    <glyph glyph-name="Jcircumflex" unicode="&#x134;" horiz-adv-x="622" 
d="M297 309l162 920h147l-162 -918q-57 -327 -344 -327q-87 0 -153 14l26 131q68 -12 123 -12q87 0 135 48.5t66 143.5zM811 1329l-213 178l-276 -178l-46 64l306 233h63l223 -233z" />
    <glyph glyph-name="jcircumflex" unicode="&#x135;" horiz-adv-x="483" 
d="M233 -27q-27 -147 -108 -230t-211 -83q-46 0 -92 8l28 127q54 -8 82 -8q128 0 158 176l174 987h142zM563 1102l-170 186l-237 -186l-43 55l270 248h61l185 -248z" />
    <glyph glyph-name="uni0136" unicode="&#x136;" horiz-adv-x="1140" 
d="M889 0l-479 520h-105l-92 -520h-150l218 1229h149l-102 -582h90l643 582h176l-4 -23l-707 -620l531 -563l-4 -23h-164zM479 -117h125l-174 -307h-96l2 16z" />
    <glyph glyph-name="uni0137" unicode="&#x137;" horiz-adv-x="970" 
d="M434 1315l-137 -780h98l451 417h170l-4 -22l-510 -449l389 -458l-4 -23h-156l-348 422h-107l-73 -422h-140l232 1315h139zM377 -117h125l-174 -307h-97l2 16z" />
    <glyph glyph-name="kgreenlandic" unicode="&#x138;" horiz-adv-x="970" 
d="M723 0l-342 422h-105l-73 -422h-140l166 952h142l-74 -417h100l457 417h162l-4 -22l-510 -449l389 -458l-4 -23h-164z" />
    <glyph glyph-name="Lacute" unicode="&#x139;" horiz-adv-x="933" 
d="M369 1358l-15 80l551 186l25 -125zM430 1229l-192 -1094h589l-22 -135h-742l218 1229h149z" />
    <glyph glyph-name="lacute" unicode="&#x13a;" horiz-adv-x="434" 
d="M434 1315l-231 -1315h-140l232 1315h139zM217 1382l-14 80l551 187l24 -125z" />
    <glyph glyph-name="uni013B" unicode="&#x13b;" horiz-adv-x="933" 
d="M430 1229l-192 -1094h589l-22 -135h-742l218 1229h149zM416 -117h125l-174 -307h-97l2 16z" />
    <glyph glyph-name="uni013C" unicode="&#x13c;" horiz-adv-x="434" 
d="M434 1315l-231 -1315h-140l232 1315h139zM86 -117h125l-174 -307h-96l2 16z" />
    <glyph glyph-name="Lcaron" unicode="&#x13d;" horiz-adv-x="933" 
d="M885 1241h123l-148 -514h-92zM430 1229l-192 -1094h589l-22 -135h-742l218 1229h149z" />
    <glyph glyph-name="lcaron" unicode="&#x13e;" horiz-adv-x="552" 
d="M434 1315l-231 -1315h-140l232 1315h139zM578 1313h122l-147 -514h-92z" />
    <glyph glyph-name="Ldot" unicode="&#x13f;" horiz-adv-x="933" 
d="M823 774h176l-30 -172h-176zM430 1229l-192 -1094h589l-22 -135h-742l218 1229h149z" />
    <glyph glyph-name="ldot" unicode="&#x140;" horiz-adv-x="651" 
d="M434 1315l-231 -1315h-140l232 1315h139zM467 602h178l-31 -174h-178z" />
    <glyph glyph-name="Lslash" unicode="&#x141;" horiz-adv-x="962" 
d="M459 1229l-101 -570l375 179l-22 -119l-373 -176l-72 -408h590l-22 -135h-742l82 467l-149 -72l22 117l148 70l114 647h150z" />
    <glyph glyph-name="lslash" unicode="&#x142;" horiz-adv-x="518" 
d="M473 1315l-115 -651l191 96l-21 -119l-190 -94l-96 -547h-140l82 471l-182 -92l21 115l182 92l129 729h139z" />
    <glyph glyph-name="Nacute" unicode="&#x143;" horiz-adv-x="1300" 
d="M872 0l-284 657q-84 189 -160 435h-45q-28 -270 -88 -603l-88 -489h-141l217 1229h215l252 -578q117 -265 184 -493l43 2q29 265 82 579l86 490h141l-217 -1229h-197zM625 1358l-15 80l551 186l25 -125z" />
    <glyph glyph-name="nacute" unicode="&#x144;" horiz-adv-x="1089" 
d="M289 549l-96 -549h-142l168 952h137l-43 -245h17q58 126 157 197t226 71q159 0 231.5 -99t42.5 -262l-106 -614h-142l105 592q20 115 -26 184.5t-167 69.5q-143 0 -241 -81t-121 -216zM504 1071l-33 74l520 272l47 -108z" />
    <glyph glyph-name="uni0145" unicode="&#x145;" horiz-adv-x="1300" 
d="M872 0l-284 657q-84 189 -160 435h-45q-28 -270 -88 -603l-88 -489h-141l217 1229h215l252 -578q117 -265 184 -493l43 2q29 265 82 579l86 490h141l-217 -1229h-197zM520 -117h125l-174 -307h-96l2 16z" />
    <glyph glyph-name="uni0146" unicode="&#x146;" horiz-adv-x="1089" 
d="M289 549l-96 -549h-142l168 952h137l-43 -245h17q58 126 157 197t226 71q159 0 231.5 -99t42.5 -262l-106 -614h-142l105 592q20 115 -26 184.5t-167 69.5q-143 0 -241 -81t-121 -216zM420 -117h125l-174 -307h-97l2 16z" />
    <glyph glyph-name="Ncaron" unicode="&#x147;" horiz-adv-x="1300" 
d="M872 0l-284 657q-84 189 -160 435h-45q-28 -270 -88 -603l-88 -489h-141l217 1229h215l252 -578q117 -265 184 -493l43 2q29 265 82 579l86 490h141l-217 -1229h-197zM834 1337h-64l-221 234l55 61l213 -178l277 178l45 -61z" />
    <glyph glyph-name="ncaron" unicode="&#x148;" horiz-adv-x="1089" 
d="M289 549l-96 -549h-142l168 952h137l-43 -245h17q58 126 157 197t226 71q159 0 231.5 -99t42.5 -262l-106 -614h-142l105 592q20 115 -26 184.5t-167 69.5q-143 0 -241 -81t-121 -216zM688 1085h-61l-215 283l61 57l199 -217l282 217l50 -57z" />
    <glyph glyph-name="napostrophe" unicode="&#x149;" horiz-adv-x="1359" 
d="M297 1229h149l-262 -549h-82l2 12zM492 549l-97 -549h-141l168 952h137l-43 -245h16q58 126 157 197t226 71q159 0 232 -99.5t43 -261.5l-107 -614h-141l105 592q20 115 -26 184.5t-167 69.5q-143 0 -241 -81t-121 -216z" />
    <glyph glyph-name="Eng" unicode="&#x14a;" horiz-adv-x="1300" 
d="M63 0l218 1229h221l282 -604q87 -192 166 -428h29q34 301 78 546l86 486h141l-219 -1243q-54 -320 -340 -320q-79 0 -158 15l25 126q82 -14 131 -14q88 0 134.5 45.5t64.5 138.5l2 11l-326 669q-107 230 -174 430h-45q-30 -284 -86 -598l-88 -489h-142z" />
    <glyph glyph-name="eng" unicode="&#x14b;" horiz-adv-x="1089" 
d="M733 -31l111 623q20 115 -25.5 185.5t-171.5 70.5q-138 0 -236.5 -82t-121.5 -217l-96 -549h-142l168 952h137l-43 -245h17q59 125 160 196.5t225 71.5q164 0 233 -98.5t39 -262.5l-113 -649q-25 -142 -102 -220.5t-203 -78.5q-50 0 -104 8l27 127q54 -8 79 -8
q132 0 162 176z" />
    <glyph glyph-name="Omacron" unicode="&#x14c;" horiz-adv-x="1347" 
d="M616 -23q-199 0 -328.5 88t-175.5 240t-10 350q48 274 225.5 435t452.5 161q197 0 326.5 -87t176.5 -239t11 -350q-48 -275 -224.5 -436.5t-453.5 -161.5zM623 109q223 0 356 129t172 360q27 152 -3 267.5t-125.5 184t-248.5 68.5q-220 0 -353.5 -127t-174.5 -354
q-14 -91 -11.5 -171t30 -145.5t73.5 -112.5t119 -73t166 -26zM573 1487h560l-21 -113h-559z" />
    <glyph glyph-name="omacron" unicode="&#x14d;" horiz-adv-x="1085" 
d="M479 -23q-229 0 -335 149t-64 390q37 223 177 341t347 118q221 0 333 -147.5t71 -385.5q-40 -222 -177.5 -343.5t-351.5 -121.5zM592 850q-153 0 -249.5 -90.5t-125.5 -261.5q-32 -179 37.5 -287.5t234.5 -108.5q157 0 254 95t127 268q31 176 -42.5 280.5t-235.5 104.5z
M393 1255h557l-20 -110h-557z" />
    <glyph glyph-name="Obreve" unicode="&#x14e;" horiz-adv-x="1347" 
d="M616 -23q-199 0 -328.5 88t-175.5 240t-10 350q48 274 225.5 435t452.5 161q197 0 326.5 -87t176.5 -239t11 -350q-48 -275 -224.5 -436.5t-453.5 -161.5zM623 109q223 0 356 129t172 360q27 152 -3 267.5t-125.5 184t-248.5 68.5q-220 0 -353.5 -127t-174.5 -354
q-14 -91 -11.5 -171t30 -145.5t73.5 -112.5t119 -73t166 -26zM842 1448q184 0 227 174h86q-45 -281 -317 -281q-134 0 -200.5 71.5t-43.5 209.5h86q-16 -174 162 -174z" />
    <glyph glyph-name="obreve" unicode="&#x14f;" horiz-adv-x="1085" 
d="M479 -23q-229 0 -335 149t-64 390q37 223 177 341t347 118q221 0 333 -147.5t71 -385.5q-40 -222 -177.5 -343.5t-351.5 -121.5zM592 850q-153 0 -249.5 -90.5t-125.5 -261.5q-32 -179 37.5 -287.5t234.5 -108.5q157 0 254 95t127 268q31 176 -42.5 280.5t-235.5 104.5z
M664 1198q85 0 143 46.5t84 156.5h86q-51 -307 -318 -307q-137 0 -203.5 78t-39.5 229h88q-24 -203 160 -203z" />
    <glyph glyph-name="Ohungarumlaut" unicode="&#x150;" horiz-adv-x="1347" 
d="M616 -23q-199 0 -328.5 88t-175.5 240t-10 350q48 274 225.5 435t452.5 161q197 0 326.5 -87t176.5 -239t11 -350q-48 -275 -224.5 -436.5t-453.5 -161.5zM623 109q223 0 356 129t172 360q27 152 -3 267.5t-125.5 184t-248.5 68.5q-220 0 -353.5 -127t-174.5 -354
q-14 -91 -11.5 -171t30 -145.5t73.5 -112.5t119 -73t166 -26zM670 1319l-62 45l269 315l94 -73zM946 1319l-57 51l278 307l93 -78z" />
    <glyph glyph-name="ohungarumlaut" unicode="&#x151;" horiz-adv-x="1085" 
d="M479 -23q-229 0 -335 149t-64 390q37 223 177 341t347 118q221 0 333 -147.5t71 -385.5q-40 -222 -177.5 -343.5t-351.5 -121.5zM592 850q-153 0 -249.5 -90.5t-125.5 -261.5q-32 -179 37.5 -287.5t234.5 -108.5q157 0 254 95t127 268q31 176 -42.5 280.5t-235.5 104.5z
M485 1069l-61 45l242 332l94 -68zM754 1071l-60 51l258 322l88 -72z" />
    <glyph glyph-name="OE" unicode="&#x152;" horiz-adv-x="1785" 
d="M631 131h162l170 965h-189q-224 0 -357 -120.5t-169 -332.5q-41 -236 56.5 -374t326.5 -138zM629 0q-197 0 -328 83t-181.5 233.5t-15.5 349.5q47 261 225.5 412t458.5 151h1024l-22 -133h-678l-72 -404h607l-25 -131h-606l-76 -428h678l-23 -133h-966z" />
    <glyph glyph-name="oe" unicode="&#x153;" horiz-adv-x="1837" 
d="M602 850q-155 0 -255.5 -94t-131.5 -262q-32 -182 34.5 -287t227.5 -105q160 0 261.5 101t133.5 276q31 174 -39.5 272.5t-230.5 98.5zM1401 858q-142 0 -239 -81.5t-138 -241.5h618q49 323 -241 323zM1280 -23q-168 0 -262 85.5t-103 244.5h-10q-61 -158 -173.5 -244
t-268.5 -86q-223 0 -325 144t-62 385q38 219 176.5 344t341.5 125q163 0 261 -87t110 -245h10q63 159 179.5 245.5t266.5 86.5q206 0 296.5 -120.5t54.5 -322.5q-2 -22 -19 -86h-745q-23 -167 46.5 -257.5t223.5 -90.5q68 0 122 17t92 50t64.5 70.5t49.5 88.5l116 -43
q-129 -304 -442 -304z" />
    <glyph glyph-name="Racute" unicode="&#x154;" horiz-adv-x="1196" 
d="M727 1100h-317l-80 -459h315q139 0 225.5 55.5t106.5 163.5q21 121 -37 180.5t-213 59.5zM879 0l-281 512h-293l-90 -512h-147l215 1229h460q224 0 316 -101.5t59 -287.5q-23 -130 -119 -214t-247 -106l295 -497l-5 -23h-163zM553 1358l-14 80l551 186l24 -125z" />
    <glyph glyph-name="racute" unicode="&#x155;" horiz-adv-x="663" 
d="M193 0h-142l168 952h135l-45 -256h15q110 267 344 267h45l-27 -154h-45q-160 0 -246 -75t-116 -245zM332 1071l-33 74l520 272l47 -108z" />
    <glyph glyph-name="uni0156" unicode="&#x156;" horiz-adv-x="1196" 
d="M483 -117h125l-174 -307h-96l2 16zM727 1100h-317l-80 -459h315q139 0 225.5 55.5t106.5 163.5q21 121 -37 180.5t-213 59.5zM879 0l-281 512h-293l-90 -512h-147l215 1229h460q224 0 316 -101.5t59 -287.5q-23 -130 -119 -214t-247 -106l295 -497l-5 -23h-163z" />
    <glyph glyph-name="uni0157" unicode="&#x157;" horiz-adv-x="663" 
d="M193 0h-142l168 952h135l-45 -256h15q110 267 344 267h45l-27 -154h-45q-160 0 -246 -75t-116 -245zM84 -117h125l-174 -307h-96l2 16z" />
    <glyph glyph-name="Rcaron" unicode="&#x158;" horiz-adv-x="1196" 
d="M727 1100h-317l-80 -459h315q139 0 225.5 55.5t106.5 163.5q21 121 -37 180.5t-213 59.5zM879 0l-281 512h-293l-90 -512h-147l215 1229h460q224 0 316 -101.5t59 -287.5q-23 -130 -119 -214t-247 -106l295 -497l-5 -23h-163zM764 1337h-64l-221 234l56 61l213 -178
l276 178l45 -61z" />
    <glyph glyph-name="rcaron" unicode="&#x159;" horiz-adv-x="663" 
d="M193 0h-142l168 952h135l-45 -256h15q110 267 344 267h45l-27 -154h-45q-160 0 -246 -75t-116 -245zM516 1085h-61l-215 283l61 57l199 -217l282 217l49 -57z" />
    <glyph glyph-name="Sacute" unicode="&#x15a;" horiz-adv-x="1126" 
d="M543 -23q-255 0 -375.5 111t-120.5 305l146 23q6 -154 91.5 -234t266.5 -80q285 0 319 197q19 106 -42.5 162t-243.5 96q-234 51 -318.5 146t-58.5 253q24 136 141.5 215.5t313.5 79.5q112 0 194 -26.5t130.5 -77t73.5 -115t30 -147.5l-152 -29q-8 136 -72 203t-219 67
q-136 0 -211 -48t-90 -136q-10 -43 0 -81.5t41 -70t94.5 -58.5t159.5 -48q123 -27 205 -67t121 -90t51.5 -111.5t-2.5 -132.5q-26 -143 -144 -224.5t-329 -81.5zM524 1358l-14 80l551 186l24 -125z" />
    <glyph glyph-name="sacute" unicode="&#x15b;" horiz-adv-x="929" 
d="M430 -25q-381 0 -405 320l135 24q10 -108 73.5 -168.5t204.5 -60.5q218 0 242 141q13 81 -40.5 124.5t-203.5 72.5q-173 34 -238 111.5t-44 199.5q21 111 114.5 173.5t251.5 62.5q90 0 156 -21t105.5 -61t60.5 -89t28 -112l-137 -24q-7 101 -62 147.5t-161 46.5
q-97 0 -154 -35t-69 -100q-11 -70 37.5 -116.5t177.5 -71.5q188 -34 261.5 -113t51.5 -205q-19 -117 -114 -181.5t-271 -64.5zM440 1071l-32 74l520 272l47 -108z" />
    <glyph glyph-name="Scircumflex" unicode="&#x15c;" horiz-adv-x="1126" 
d="M543 -23q-255 0 -375.5 111t-120.5 305l146 23q6 -154 91.5 -234t266.5 -80q285 0 319 197q19 106 -42.5 162t-243.5 96q-234 51 -318.5 146t-58.5 253q24 136 141.5 215.5t313.5 79.5q112 0 194 -26.5t130.5 -77t73.5 -115t30 -147.5l-152 -29q-8 136 -72 203t-219 67
q-136 0 -211 -48t-90 -136q-10 -43 0 -81.5t41 -70t94.5 -58.5t159.5 -48q123 -27 205 -67t121 -90t51.5 -111.5t-2.5 -132.5q-26 -143 -144 -224.5t-329 -81.5zM956 1329l-213 178l-276 -178l-45 64l305 233h64l223 -233z" />
    <glyph glyph-name="scircumflex" unicode="&#x15d;" horiz-adv-x="929" 
d="M430 -25q-381 0 -405 320l135 24q10 -108 73.5 -168.5t204.5 -60.5q218 0 242 141q13 81 -40.5 124.5t-203.5 72.5q-173 34 -238 111.5t-44 199.5q21 111 114.5 173.5t251.5 62.5q90 0 156 -21t105.5 -61t60.5 -89t28 -112l-137 -24q-7 101 -62 147.5t-161 46.5
q-97 0 -154 -35t-69 -100q-11 -70 37.5 -116.5t177.5 -71.5q188 -34 261.5 -113t51.5 -205q-19 -117 -114 -181.5t-271 -64.5zM823 1071l-202 219l-279 -219l-53 59l315 283h64l215 -283z" />
    <glyph glyph-name="uni015E" unicode="&#x15e;" horiz-adv-x="1126" 
d="M543 -23q-36 0 -66 3l-51 -89q44 17 90 17q68 0 104.5 -29.5t26.5 -93.5q-11 -52 -61 -90.5t-140 -38.5q-117 0 -202 59l53 70q70 -51 158 -51q93 0 104 59q6 31 -15 47.5t-65 16.5q-36 0 -90 -13l-49 25l66 119q-184 28 -271.5 134t-87.5 271l146 23q6 -154 91.5 -234
t266.5 -80q285 0 319 197q19 106 -42.5 162t-243.5 96q-234 51 -318.5 146t-58.5 253q24 136 141.5 215.5t313.5 79.5q112 0 194 -26.5t130.5 -77t73.5 -115t30 -147.5l-152 -29q-8 136 -72 203t-219 67q-136 0 -211 -48t-90 -136q-10 -43 0 -81.5t41 -70t94.5 -58.5
t159.5 -48q123 -27 205 -67t121 -90t51.5 -111.5t-2.5 -132.5q-26 -143 -144 -224.5t-329 -81.5z" />
    <glyph glyph-name="uni015F" unicode="&#x15f;" horiz-adv-x="929" 
d="M430 -25q-41 0 -61 2l-50 -86q44 17 91 17q68 0 104.5 -29.5t26.5 -93.5q-11 -52 -61 -90.5t-140 -38.5q-118 0 -203 59l53 70q70 -51 158 -51q94 0 105 59q6 31 -15 47.5t-65 16.5q-36 0 -90 -13l-50 25l66 119q-254 47 -274 307l135 24q10 -108 73.5 -168.5
t204.5 -60.5q218 0 242 141q13 81 -40.5 124.5t-203.5 72.5q-173 34 -238 111.5t-44 199.5q21 111 114.5 173.5t251.5 62.5q90 0 156 -21t105.5 -61t60.5 -89t28 -112l-137 -24q-7 101 -62 147.5t-161 46.5q-97 0 -154 -35t-69 -100q-11 -70 37.5 -116.5t177.5 -71.5
q188 -34 261.5 -113t51.5 -205q-19 -117 -114 -181.5t-271 -64.5z" />
    <glyph glyph-name="Scaron" unicode="&#x160;" horiz-adv-x="1126" 
d="M543 -23q-255 0 -375.5 111t-120.5 305l146 23q6 -154 91.5 -234t266.5 -80q285 0 319 197q19 106 -42.5 162t-243.5 96q-234 51 -318.5 146t-58.5 253q24 136 141.5 215.5t313.5 79.5q112 0 194 -26.5t130.5 -77t73.5 -115t30 -147.5l-152 -29q-8 136 -72 203t-219 67
q-136 0 -211 -48t-90 -136q-10 -43 0 -81.5t41 -70t94.5 -58.5t159.5 -48q123 -27 205 -67t121 -90t51.5 -111.5t-2.5 -132.5q-26 -143 -144 -224.5t-329 -81.5zM741 1337h-63l-221 234l55 61l213 -178l276 178l46 -61z" />
    <glyph glyph-name="scaron" unicode="&#x161;" horiz-adv-x="929" 
d="M430 -25q-381 0 -405 320l135 24q10 -108 73.5 -168.5t204.5 -60.5q218 0 242 141q13 81 -40.5 124.5t-203.5 72.5q-173 34 -238 111.5t-44 199.5q21 111 114.5 173.5t251.5 62.5q90 0 156 -21t105.5 -61t60.5 -89t28 -112l-137 -24q-7 101 -62 147.5t-161 46.5
q-97 0 -154 -35t-69 -100q-11 -70 37.5 -116.5t177.5 -71.5q188 -34 261.5 -113t51.5 -205q-19 -117 -114 -181.5t-271 -64.5zM606 1085h-61l-215 283l61 57l199 -217l282 217l50 -57z" />
    <glyph glyph-name="Tcommaaccent" unicode="&#x162;" horiz-adv-x="1040" 
d="M141 1092l23 137h975l-25 -137h-412l-192 -1092h-70l-63 -109q44 17 90 17q68 0 104.5 -29.5t26.5 -93.5q-11 -52 -61 -90.5t-140 -38.5q-117 0 -202 59l53 70q70 -51 158 -51q93 0 104 59q6 31 -15 47.5t-65 16.5q-36 0 -90 -13l-49 25l74 131h-5l193 1092h-412z" />
    <glyph glyph-name="tcommaaccent" unicode="&#x163;" horiz-adv-x="714" 
d="M166 297l94 534h-156l21 121h156l49 275h141l-49 -275h323l-22 -121h-322l-96 -542q-31 -180 133 -180q64 0 152 24l2 -125q-102 -31 -186 -31q-44 0 -93 11l-55 -97q44 17 90 17q68 0 104.5 -29.5t26.5 -93.5q-11 -52 -60.5 -90.5t-139.5 -38.5q-118 0 -203 59l53 70
q70 -51 158 -51q93 0 104 59q6 31 -15 47.5t-65 16.5q-36 0 -90 -13l-49 25l82 145q-125 79 -88 283z" />
    <glyph glyph-name="Tcaron" unicode="&#x164;" horiz-adv-x="1040" 
d="M1114 1092h-412l-192 -1092h-150l193 1092h-412l23 137h975zM702 1337h-63l-221 234l55 61l213 -178l277 178l45 -61z" />
    <glyph glyph-name="tcaron" unicode="&#x165;" horiz-adv-x="718" 
d="M725 1380h123l-98 -329h-88zM166 297l94 534h-156l21 121h156l49 275h141l-49 -275h323l-22 -121h-322l-96 -542q-31 -180 133 -180q64 0 152 24l2 -125q-102 -31 -186 -31q-147 0 -206.5 87.5t-33.5 232.5z" />
    <glyph glyph-name="Tbar" unicode="&#x166;" horiz-adv-x="1040" 
d="M143 1092l23 137h975l-25 -137h-411l-84 -474h292l-18 -102h-293l-90 -516h-150l91 516h-295l18 102h295l84 474h-412z" />
    <glyph glyph-name="tbar" unicode="&#x167;" horiz-adv-x="714" 
d="M166 297l31 172h-129l16 98h129l47 264h-156l21 121h156l49 275h141l-49 -275h323l-22 -121h-322l-47 -264h297l-18 -98h-295l-33 -180q-31 -180 133 -180q64 0 152 24l2 -125q-102 -31 -186 -31q-147 0 -206.5 87.5t-33.5 232.5z" />
    <glyph glyph-name="Utilde" unicode="&#x168;" horiz-adv-x="1284" 
d="M598 111q179 0 268.5 90.5t120.5 265.5l133 762h148l-138 -780q-83 -472 -536 -472q-256 0 -371.5 130t-72.5 372l131 750h149l-133 -750q-17 -80 -8 -147.5t39.5 -116.5t99 -76.5t170.5 -27.5zM655 1669q46 0 80.5 -22t54.5 -53.5t37.5 -62.5t40 -53t52.5 -22
q43 0 67.5 48.5t42.5 156.5h80q-2 -35 -10 -92q-20 -109 -69.5 -165t-117.5 -56q-44 0 -76.5 21.5t-52 53t-37 62.5t-41.5 52.5t-55 21.5q-48 0 -72 -44t-42 -153h-82q2 35 10 88q20 109 69 164t121 55z" />
    <glyph glyph-name="utilde" unicode="&#x169;" horiz-adv-x="1089" 
d="M733 0l43 246h-16q-58 -126 -157.5 -197.5t-225.5 -71.5q-158 0 -231.5 99.5t-43.5 261.5l109 614h139l-104 -594q-20 -114 26 -183t166 -69q144 0 242 81t121 216l98 549h139l-168 -952h-137zM551 1423q46 0 80.5 -22t54.5 -53.5t37 -62.5t39.5 -53t52.5 -22
q43 0 68 48.5t43 156.5h80q-1 -22 -11 -92q-20 -109 -69 -165t-117 -56q-44 0 -76.5 21.5t-52 53t-37 62.5t-41.5 52.5t-55 21.5q-48 0 -72.5 -44t-42.5 -153h-82q2 35 10 88q20 108 69.5 163.5t121.5 55.5z" />
    <glyph glyph-name="Umacron" unicode="&#x16a;" horiz-adv-x="1284" 
d="M598 111q179 0 268.5 90.5t120.5 265.5l133 762h148l-138 -780q-83 -472 -536 -472q-256 0 -371.5 130t-72.5 372l131 750h149l-133 -750q-17 -80 -8 -147.5t39.5 -116.5t99 -76.5t170.5 -27.5zM541 1487h559l-21 -113h-559z" />
    <glyph glyph-name="umacron" unicode="&#x16b;" horiz-adv-x="1089" 
d="M733 0l43 246h-16q-58 -126 -157.5 -197.5t-225.5 -71.5q-158 0 -231.5 99.5t-43.5 261.5l109 614h139l-104 -594q-20 -114 26 -183t166 -69q144 0 242 81t121 216l98 549h139l-168 -952h-137zM399 1255h557l-20 -110h-557z" />
    <glyph glyph-name="Ubreve" unicode="&#x16c;" horiz-adv-x="1284" 
d="M598 111q179 0 268.5 90.5t120.5 265.5l133 762h148l-138 -780q-83 -472 -536 -472q-256 0 -371.5 130t-72.5 372l131 750h149l-133 -750q-17 -80 -8 -147.5t39.5 -116.5t99 -76.5t170.5 -27.5zM811 1448q184 0 227 174h86q-45 -281 -317 -281q-134 0 -200.5 71.5
t-43.5 209.5h86q-16 -174 162 -174z" />
    <glyph glyph-name="ubreve" unicode="&#x16d;" horiz-adv-x="1089" 
d="M733 0l43 246h-16q-58 -126 -157.5 -197.5t-225.5 -71.5q-158 0 -231.5 99.5t-43.5 261.5l109 614h139l-104 -594q-20 -114 26 -183t166 -69q144 0 242 81t121 216l98 549h139l-168 -952h-137zM670 1198q85 0 143 46.5t84 156.5h86q-51 -307 -317 -307q-137 0 -204 78
t-40 229h88q-24 -203 160 -203z" />
    <glyph glyph-name="Uring" unicode="&#x16e;" horiz-adv-x="1284" 
d="M598 111q179 0 268.5 90.5t120.5 265.5l133 762h148l-138 -780q-83 -472 -536 -472q-256 0 -371.5 130t-72.5 372l131 750h149l-133 -750q-17 -80 -8 -147.5t39.5 -116.5t99 -76.5t170.5 -27.5zM1036 1524q-15 -88 -79.5 -141.5t-157.5 -53.5q-98 0 -145.5 59t-30.5 156
q15 88 78.5 140.5t156.5 52.5q98 0 146.5 -58t31.5 -155zM715 1536q-10 -57 16 -89t80 -32q52 0 87 30t44 85q10 57 -16 89t-80 32q-53 0 -87.5 -30t-43.5 -85z" />
    <glyph glyph-name="uring" unicode="&#x16f;" horiz-adv-x="1089" 
d="M733 0l43 246h-16q-58 -126 -157.5 -197.5t-225.5 -71.5q-158 0 -231.5 99.5t-43.5 261.5l109 614h139l-104 -594q-20 -114 26 -183t166 -69q144 0 242 81t121 216l98 549h139l-168 -952h-137zM555 1300q-12 -65 18.5 -101t92.5 -36q59 0 98 33.5t49 95.5
q12 65 -18.5 101.5t-92.5 36.5q-59 0 -98 -34t-49 -96zM905 1280q-17 -96 -83 -150.5t-165 -54.5q-107 0 -160.5 66.5t-33.5 169.5q17 97 83 152t163 55q106 0 160.5 -67t35.5 -171z" />
    <glyph glyph-name="Uhungarumlaut" unicode="&#x170;" horiz-adv-x="1284" 
d="M598 111q179 0 268.5 90.5t120.5 265.5l133 762h148l-138 -780q-83 -472 -536 -472q-256 0 -371.5 130t-72.5 372l131 750h149l-133 -750q-17 -80 -8 -147.5t39.5 -116.5t99 -76.5t170.5 -27.5zM637 1319l-62 45l269 315l94 -73zM913 1319l-57 51l279 307l92 -78z" />
    <glyph glyph-name="uhungarumlaut" unicode="&#x171;" horiz-adv-x="1089" 
d="M733 0l43 246h-16q-58 -126 -157.5 -197.5t-225.5 -71.5q-158 0 -231.5 99.5t-43.5 261.5l109 614h139l-104 -594q-20 -114 26 -183t166 -69q144 0 242 81t121 216l98 549h139l-168 -952h-137zM762 1071l-60 51l259 322l88 -72zM494 1069l-62 45l242 332l94 -68z" />
    <glyph glyph-name="Uogonek" unicode="&#x172;" horiz-adv-x="1284" 
d="M598 111q179 0 268.5 90.5t120.5 265.5l133 762h148l-138 -780q-76 -439 -477 -469q-85 -23 -128 -52.5t-50 -70.5t23.5 -61.5t95.5 -20.5q41 0 113 16l-13 -113q-70 -12 -129 -12q-107 0 -157 41.5t-39 114.5q17 100 166 158q-225 15 -325 143t-60 356l131 750h149
l-133 -750q-17 -80 -8 -147.5t39.5 -116.5t99 -76.5t170.5 -27.5z" />
    <glyph glyph-name="uogonek" unicode="&#x173;" horiz-adv-x="1089" 
d="M819 -322q-71 -12 -129 -12q-107 0 -157 41.5t-39 114.5q23 126 239 180l43 244h-16q-58 -126 -157.5 -197.5t-225.5 -71.5q-158 0 -231.5 99.5t-43.5 261.5l109 614h139l-104 -594q-20 -114 26 -183t166 -69q144 0 242 81t121 216l98 549h139l-168 -952
q-132 -25 -196.5 -59t-73.5 -84q-7 -41 23.5 -61.5t95.5 -20.5q40 0 112 16z" />
    <glyph glyph-name="Wcircumflex" unicode="&#x174;" horiz-adv-x="1710" 
d="M702 512l-223 -512h-221l-117 1229h158l41 -604q22 -370 25 -494h57q150 380 199 492l270 606h192l56 -606q20 -228 26 -492h56q48 132 194 494l256 604h160l-547 -1229h-225l-43 512q-30 352 -33 580h-43q-96 -252 -238 -580zM1253 1329l-213 178l-276 -178l-45 64
l305 233h63l224 -233z" />
    <glyph glyph-name="wcircumflex" unicode="&#x175;" horiz-adv-x="1507" 
d="M920 952l45 -368q33 -251 47 -465h35q36 85 215 471l170 362h147l-477 -952h-184l-54 422q-26 194 -35 414h-30q-91 -230 -181 -414l-198 -422h-182l-144 952h139l50 -362l15 -117t15.5 -123t11.5 -110t9 -121h39q82 210 207 465l174 368h166zM1108 1071l-203 219
l-278 -219l-54 59l316 283h63l215 -283z" />
    <glyph glyph-name="Ycircumflex" unicode="&#x176;" horiz-adv-x="1081" 
d="M530 0h-147l74 428l-334 778l4 23h152l260 -682h22l498 682h158l-5 -23l-606 -782zM940 1329l-213 178l-276 -178l-45 64l305 233h63l223 -233z" />
    <glyph glyph-name="ycircumflex" unicode="&#x177;" horiz-adv-x="968" 
d="M12 -344q-80 0 -133 12l35 131q72 -14 117 -14q46 0 80 8t72.5 31t77 68.5t83.5 117.5l-254 942h150l73 -336q64 -270 105 -491h26q79 148 265 487l186 340h158l-586 -964q-107 -177 -211.5 -254.5t-243.5 -77.5zM838 1071l-203 219l-279 -219l-53 59l315 283h64
l215 -283z" />
    <glyph glyph-name="Ydieresis" unicode="&#x178;" horiz-adv-x="1081" 
d="M530 0h-147l74 428l-334 778l4 23h152l260 -682h22l498 682h158l-5 -23l-606 -782zM432 1534h170l-29 -170h-172zM801 1534h170l-29 -170h-172z" />
    <glyph glyph-name="Zacute" unicode="&#x179;" horiz-adv-x="1146" 
d="M993 137l-22 -137h-981l22 135l969 963l-4 18q-242 -24 -434 -24h-336l22 137h955l-23 -133l-975 -967l4 -16q270 24 467 24h336zM539 1358l-15 80l551 186l25 -125z" />
    <glyph glyph-name="zacute" unicode="&#x17a;" horiz-adv-x="987" 
d="M565 127h271l-23 -127h-817l22 127l781 711l-4 14q-241 -27 -420 -27h-215l22 127h791l-23 -127l-778 -708l4 -17q268 27 389 27zM442 1071l-32 74l520 272l47 -108z" />
    <glyph glyph-name="Zdotaccent" unicode="&#x17b;" horiz-adv-x="1146" 
d="M993 137l-22 -137h-981l22 135l969 963l-4 18q-242 -24 -434 -24h-336l22 137h955l-23 -133l-975 -967l4 -16q270 24 467 24h336zM643 1575h178l-30 -174h-179z" />
    <glyph glyph-name="zdotaccent" unicode="&#x17c;" horiz-adv-x="987" 
d="M565 127h271l-23 -127h-817l22 127l781 711l-4 14q-241 -27 -420 -27h-215l22 127h791l-23 -127l-778 -708l4 -17q268 27 389 27zM551 1329h178l-31 -174h-178z" />
    <glyph glyph-name="Zcaron" unicode="&#x17d;" horiz-adv-x="1146" 
d="M993 137l-22 -137h-981l22 135l969 963l-4 18q-242 -24 -434 -24h-336l22 137h955l-23 -133l-975 -967l4 -16q270 24 467 24h336zM748 1337h-64l-221 234l55 61l213 -178l277 178l45 -61z" />
    <glyph glyph-name="zcaron" unicode="&#x17e;" horiz-adv-x="987" 
d="M565 127h271l-23 -127h-817l22 127l781 711l-4 14q-241 -27 -420 -27h-215l22 127h791l-23 -127l-778 -708l4 -17q268 27 389 27zM627 1085h-62l-215 283l62 57l198 -217l283 217l49 -57z" />
    <glyph glyph-name="Aringacute" unicode="&#x1fa;" horiz-adv-x="1181" 
d="M635 1597l-10 78l546 189l19 -127zM653 1354q-10 -57 16.5 -90t80.5 -33q53 0 88.5 31t44.5 86q10 58 -16.5 91.5t-80.5 33.5t-89 -31t-44 -88zM438 639l-86 -152h492l-33 152q-55 263 -82 459h-47q-117 -232 -244 -459zM946 0l-78 371h-579l-209 -371h-162l686 1190
q-63 60 -45 174q15 90 80 143.5t160 53.5q98 0 147.5 -60t32.5 -160q-12 -64 -50 -111t-95 -69l262 -1161h-150z" />
    <glyph glyph-name="aringacute" unicode="&#x1fb;" horiz-adv-x="1095" 
d="M545 1505l-8 92l528 144l12 -113zM592 1255q-10 -56 15.5 -88t80.5 -32q52 0 87 29.5t44 84.5q10 57 -16 89t-80 32q-53 0 -87.5 -30t-43.5 -85zM913 1243q-15 -88 -79.5 -141t-157.5 -53q-98 0 -145.5 59t-30.5 156q15 88 78.5 140t156.5 52q98 0 146.5 -58t31.5 -155z
M444 104q141 0 240 90t127 242v-4l4 23l10 65l-2 -10q28 152 -42.5 244t-217.5 92q-286 0 -350 -361q-34 -193 23.5 -287t207.5 -94zM78 504q40 225 157 348t289 123q154 0 232.5 -79.5t89.5 -215.5l10 6l45 266h141l-168 -952h-139l45 258l-4 -2v16q-57 -133 -161.5 -214
t-241.5 -81q-183 0 -261.5 138t-33.5 389z" />
    <glyph glyph-name="AEacute" unicode="&#x1fc;" horiz-adv-x="1742" 
d="M889 1358l-15 80l551 186l25 -125zM725 0l53 307h-465l-219 -307h-164l2 12l895 1217h940l-22 -133h-678l-72 -404h607l-25 -131h-606l-76 -428h678l-23 -133h-825zM551 639l-152 -211h402l117 674h-50q-138 -214 -317 -463z" />
    <glyph glyph-name="aeacute" unicode="&#x1fd;" horiz-adv-x="1699" 
d="M350 98q144 0 244 71t119 181l14 82h-313q-101 0 -162 -39.5t-74 -116.5t28.5 -127.5t143.5 -50.5zM1262 858q-142 0 -238.5 -83.5t-138.5 -246.5h620q52 330 -243 330zM1587 283q-64 -149 -172.5 -227.5t-275.5 -78.5q-168 0 -273 74.5t-127 208.5q-58 -140 -174 -211.5
t-258 -71.5q-143 0 -217 77.5t-47 219.5q19 112 112.5 176t252.5 64h335l17 92q21 124 -25 186t-174 62q-103 0 -172.5 -52.5t-112.5 -158.5l-129 37q58 141 164 218t252 77q296 0 318 -232q130 232 395 232q209 0 302 -121.5t58 -325.5q-6 -35 -18 -86h-748
q-20 -166 50 -255t227 -89q127 0 199.5 59t121.5 167zM805 1071l-33 74l520 272l47 -108z" />
    <glyph glyph-name="Oslashacute" unicode="&#x1fe;" horiz-adv-x="1341" 
d="M616 -23q-260 0 -399 148l-143 -125h-133l2 10l219 189q-111 180 -60 456q48 274 225.5 435t452.5 161q273 0 410 -159l153 137h125l-2 -10l-225 -199q103 -179 53 -445q-48 -275 -224.5 -436.5t-453.5 -161.5zM242 637q-36 -209 30 -344l811 706q-99 123 -309 123
q-222 0 -356.5 -128t-175.5 -357zM655 1358l-14 80l551 186l25 -125zM621 106q225 0 359 129.5t175 362.5q35 190 -22 326l-811 -705q99 -113 299 -113z" />
    <glyph glyph-name="oslashacute" unicode="&#x1ff;" horiz-adv-x="1085" 
d="M479 -23q-202 0 -313 121l-111 -98h-127l2 12l187 158q-75 143 -37 346q36 220 176.5 339.5t347.5 119.5q200 0 309 -121l109 98h121v-12l-178 -156q78 -139 43 -342q-38 -220 -176.5 -342.5t-352.5 -122.5zM592 856q-156 0 -254 -92t-129 -266q-25 -144 12 -238l596 512
q-78 84 -225 84zM506 1071l-33 74l520 272l47 -108zM487 96q162 0 261.5 96.5t130.5 272.5q24 135 -15 233l-600 -516q77 -86 223 -86z" />
    <glyph glyph-name="uni0218" unicode="&#x218;" horiz-adv-x="1126" 
d="M543 -23q-255 0 -375.5 111t-120.5 305l146 23q6 -154 91.5 -234t266.5 -80q285 0 319 197q19 106 -42.5 162t-243.5 96q-234 51 -318.5 146t-58.5 253q24 136 141.5 215.5t313.5 79.5q112 0 194 -26.5t130.5 -77t73.5 -115t30 -147.5l-152 -29q-8 136 -72 203t-219 67
q-136 0 -211 -48t-90 -136q-10 -43 0 -81.5t41 -70t94.5 -58.5t159.5 -48q123 -27 205 -67t121 -90t51.5 -111.5t-2.5 -132.5q-26 -143 -144 -224.5t-329 -81.5zM416 -117h125l-174 -307h-97l2 16z" />
    <glyph glyph-name="uni0219" unicode="&#x219;" horiz-adv-x="929" 
d="M430 -25q-381 0 -405 320l135 24q10 -108 73.5 -168.5t204.5 -60.5q218 0 242 141q13 81 -40.5 124.5t-203.5 72.5q-173 34 -238 111.5t-44 199.5q21 111 114.5 173.5t251.5 62.5q90 0 156 -21t105.5 -61t60.5 -89t28 -112l-137 -24q-7 101 -62 147.5t-161 46.5
q-97 0 -154 -35t-69 -100q-11 -70 37.5 -116.5t177.5 -71.5q188 -34 261.5 -113t51.5 -205q-19 -117 -114 -181.5t-271 -64.5zM340 -117h125l-174 -307h-96l2 16z" />
    <glyph glyph-name="uni021A" unicode="&#x21a;" horiz-adv-x="1040" 
d="M141 1092l23 137h975l-25 -137h-412l-192 -1092h-150l193 1092h-412zM389 -117h125l-174 -307h-96l2 16z" />
    <glyph glyph-name="uni021B" unicode="&#x21b;" horiz-adv-x="714" 
d="M166 297l94 534h-156l21 121h156l49 275h141l-49 -275h323l-22 -121h-322l-96 -542q-31 -180 133 -180q64 0 152 24l2 -125q-102 -31 -186 -31q-147 0 -206.5 87.5t-33.5 232.5zM246 -117h125l-174 -307h-97l2 16z" />
    <glyph glyph-name="circumflex" unicode="&#x2c6;" horiz-adv-x="675" 
d="M690 1071l-203 219l-278 -219l-53 59l315 283h64l215 -283z" />
    <glyph glyph-name="caron" unicode="&#x2c7;" horiz-adv-x="675" 
d="M475 1085h-61l-215 283l61 57l199 -217l282 217l50 -57z" />
    <glyph glyph-name="breve" unicode="&#x2d8;" horiz-adv-x="667" 
d="M465 1198q85 0 143 46.5t84 156.5h86q-51 -307 -317 -307q-137 0 -204 78t-40 229h88q-24 -203 160 -203z" />
    <glyph glyph-name="dotaccent" unicode="&#x2d9;" horiz-adv-x="296" 
d="M209 1329h178l-31 -174h-178z" />
    <glyph glyph-name="ring" unicode="&#x2da;" horiz-adv-x="591" 
d="M662 1280q-17 -96 -83 -150.5t-165 -54.5q-107 0 -161 66.5t-34 169.5q17 97 83 152t163 55q106 0 161 -67t36 -171zM311 1300q-12 -65 18.5 -101t92.5 -36q59 0 98 33.5t49 95.5q12 65 -18 101.5t-92 36.5q-59 0 -98.5 -34t-49.5 -96z" />
    <glyph glyph-name="ogonek" unicode="&#x2db;" horiz-adv-x="438" 
d="M276 20l33 -20q-132 -25 -196.5 -59t-73.5 -84q-7 -41 23.5 -61.5t95.5 -20.5q40 0 112 16l-12 -113q-70 -12 -129 -12q-107 0 -157.5 41.5t-39.5 114.5q14 80 106.5 130t237.5 68z" />
    <glyph glyph-name="tilde" unicode="&#x2dc;" horiz-adv-x="696" 
d="M365 1423q46 0 80.5 -22t54.5 -53.5t37 -62.5t39.5 -53t52.5 -22q43 0 67.5 48.5t42.5 156.5h80q-2 -35 -10 -92q-20 -109 -69 -165t-117 -56q-44 0 -76.5 21.5t-52.5 53t-37.5 62.5t-41.5 52.5t-55 21.5q-48 0 -72 -44t-42 -153h-82q2 35 10 88q20 108 69.5 163.5
t121.5 55.5z" />
    <glyph glyph-name="hungarumlaut" unicode="&#x2dd;" horiz-adv-x="706" 
d="M246 1069l-62 45l242 332l94 -68zM514 1071l-59 51l258 322l88 -72z" />
    <glyph glyph-name="Wgrave" unicode="&#x1e80;" horiz-adv-x="1710" 
d="M702 512l-223 -512h-221l-117 1229h158l41 -604q22 -370 25 -494h57q150 380 199 492l270 606h192l56 -606q20 -228 26 -492h56q48 132 194 494l256 604h160l-547 -1229h-225l-43 512q-30 352 -33 580h-43q-96 -252 -238 -580zM1174 1358l-508 145l51 119l487 -184z" />
    <glyph glyph-name="wgrave" unicode="&#x1e81;" horiz-adv-x="1507" 
d="M920 952l45 -368q33 -251 47 -465h35q36 85 215 471l170 362h147l-477 -952h-184l-54 422q-26 194 -35 414h-30q-91 -230 -181 -414l-198 -422h-182l-144 952h139l50 -362l15 -117t15.5 -123t11.5 -110t9 -121h39q82 210 207 465l174 368h166zM1032 1073l-454 236l67 110
l426 -272z" />
    <glyph glyph-name="Wacute" unicode="&#x1e82;" horiz-adv-x="1710" 
d="M702 512l-223 -512h-221l-117 1229h158l41 -604q22 -370 25 -494h57q150 380 199 492l270 606h192l56 -606q20 -228 26 -492h56q48 132 194 494l256 604h160l-547 -1229h-225l-43 512q-30 352 -33 580h-43q-96 -252 -238 -580zM827 1358l-14 80l551 186l25 -125z" />
    <glyph glyph-name="wacute" unicode="&#x1e83;" horiz-adv-x="1507" 
d="M920 952l45 -368q33 -251 47 -465h35q36 85 215 471l170 362h147l-477 -952h-184l-54 422q-26 194 -35 414h-30q-91 -230 -181 -414l-198 -422h-182l-144 952h139l50 -362l15 -117t15.5 -123t11.5 -110t9 -121h39q82 210 207 465l174 368h166zM709 1071l-33 74l520 272
l47 -108z" />
    <glyph glyph-name="Wdieresis" unicode="&#x1e84;" horiz-adv-x="1710" 
d="M702 512l-223 -512h-221l-117 1229h158l41 -604q22 -370 25 -494h57q150 380 199 492l270 606h192l56 -606q20 -228 26 -492h56q48 132 194 494l256 604h160l-547 -1229h-225l-43 512q-30 352 -33 580h-43q-96 -252 -238 -580zM745 1534h170l-28 -170h-172zM1114 1534
h170l-29 -170h-172z" />
    <glyph glyph-name="wdieresis" unicode="&#x1e85;" horiz-adv-x="1507" 
d="M920 952l45 -368q33 -251 47 -465h35q36 85 215 471l170 362h147l-477 -952h-184l-54 422q-26 194 -35 414h-30q-91 -230 -181 -414l-198 -422h-182l-144 952h139l50 -362l15 -117t15.5 -123t11.5 -110t9 -121h39q82 210 207 465l174 368h166zM625 1307h170l-29 -170
h-172zM993 1307h170l-28 -170h-172z" />
    <glyph glyph-name="uni1E9E" unicode="&#x1e9e;" horiz-adv-x="1216" 
d="M762 -20q-143 0 -231.5 55.5t-118.5 152.5l82 95q25 -82 95.5 -127.5t178.5 -44.5q181 0 209 147q14 77 -30.5 125t-133.5 88q-20 9 -36 17t-36 19t-34 21t-32 23.5t-29 27t-24 31t-18.5 35t-12 39.5t-4 45t4.5 51q37 193 369 322l-5 22q-148 -20 -278 -20
q-146 0 -222.5 -80t-99.5 -209l-143 -815h-150l148 825q69 404 485 404h422l-22 -125q-180 -85 -267 -160.5t-102 -155.5q-12 -74 30.5 -118.5t131.5 -85.5q129 -61 187 -140t36 -204q-21 -119 -108.5 -189.5t-241.5 -70.5z" />
    <glyph glyph-name="endash" unicode="&#x2013;" horiz-adv-x="974" 
d="M61 563h883l-24 -129h-881z" />
    <glyph glyph-name="emdash" unicode="&#x2014;" horiz-adv-x="1761" 
d="M61 563h1670l-25 -129h-1667z" />
    <glyph glyph-name="quoteleft" unicode="&#x2018;" horiz-adv-x="380" 
d="M250 680h-152l264 549h80l-2 -12z" />
    <glyph glyph-name="quoteright" unicode="&#x2019;" horiz-adv-x="380" 
d="M297 1229h149l-262 -549h-82l2 12z" />
    <glyph glyph-name="quotesinglbase" unicode="&#x201a;" horiz-adv-x="372" 
d="M125 242h149l-262 -549h-82l2 12z" />
    <glyph glyph-name="quotedblleft" unicode="&#x201c;" horiz-adv-x="694" 
d="M264 680h-151l264 549h80l-2 -12zM580 680h-152l264 549h80l-2 -12z" />
    <glyph glyph-name="quotedblright" unicode="&#x201d;" horiz-adv-x="694" 
d="M297 1229h149l-262 -549h-82l2 12zM612 1229h150l-262 -549h-82l2 12z" />
    <glyph glyph-name="quotedblbase" unicode="&#x201e;" horiz-adv-x="669" 
d="M117 242h149l-262 -549h-82l2 12zM432 242h150l-263 -549h-81l2 12z" />
    <glyph glyph-name="dagger" unicode="&#x2020;" horiz-adv-x="1138" 
d="M483 -430h-149l223 1264h-303l-70 -404h-127l90 522h433l73 420h148l-74 -420h430l-92 -522h-129l72 404h-301z" />
    <glyph glyph-name="daggerdbl" unicode="&#x2021;" horiz-adv-x="1163" 
d="M666 1372h147l-57 -323h430l-70 -400h-129l49 281h-301l-143 -811h303l49 278h127l-70 -397h-430l-75 -430h-148l76 430h-430l69 397h130l-50 -278h301l144 811h-303l-49 -281h-127l69 400h430z" />
    <glyph glyph-name="bullet" unicode="&#x2022;" horiz-adv-x="534" 
d="M147 653h299l-51 -299h-301z" />
    <glyph glyph-name="ellipsis" unicode="&#x2026;" horiz-adv-x="1120" 
d="M37 193h192l-32 -193h-195zM414 193h192l-33 -193h-194zM791 193h192l-33 -193h-194z" />
    <glyph glyph-name="perthousand" unicode="&#x2030;" horiz-adv-x="2201" 
d="M1776 -20q-154 0 -229 102.5t-44 269.5q28 147 124.5 230.5t236.5 83.5q152 0 225.5 -101t44.5 -266q-28 -151 -123.5 -235t-234.5 -84zM1780 84q98 0 160 63t81 175q20 110 -24.5 173.5t-141.5 63.5q-96 0 -157.5 -59.5t-81.5 -169.5q-20 -112 23.5 -179t140.5 -67z
M424 563q-153 0 -227 102.5t-43 268.5q26 149 122 232t236 83q153 0 227 -100t45 -266q-26 -150 -123 -235t-237 -85zM430 670q98 0 159.5 61.5t82.5 173.5q20 110 -25 175t-141 65t-158 -60t-82 -170q-20 -113 23 -179t141 -66zM1044 -20q-154 0 -228.5 102.5t-43.5 269.5
q28 147 124.5 230.5t236.5 83.5q152 0 225.5 -101t44.5 -266q-27 -151 -123.5 -235t-235.5 -84zM1049 84q98 0 160 63t81 175q20 110 -24.5 173.5t-141.5 63.5q-96 0 -157.5 -59.5t-81.5 -169.5q-20 -112 23.5 -179t140.5 -67zM1309 1229h186l-2 -12l-610 -529l-43 41z
M254 0h-184v12l612 529l41 -41z" />
    <glyph glyph-name="guilsinglleft" unicode="&#x2039;" horiz-adv-x="761" 
d="M627 70h-135l-441 438l6 41l588 438h143l-6 -26l-581 -435v-8l430 -426z" />
    <glyph glyph-name="guilsinglright" unicode="&#x203a;" horiz-adv-x="770" 
d="M137 57h-145l6 27l582 432l2 10l-432 426l4 23h135l442 -438l-8 -41z" />
    <glyph glyph-name="fraction" unicode="&#x2044;" horiz-adv-x="53" 
d="M580 1229h186l-2 -12l-610 -529l-43 41zM-475 0h-184v12l612 529l41 -41z" />
    <glyph glyph-name="Euro" unicode="&#x20ac;" horiz-adv-x="1331" 
d="M655 -23q-218 0 -338.5 127.5t-128.5 346.5h-153l16 86h139q1 26 15 110q1 6 3 17.5t3 17.5h-135l16 86h141q67 231 217 357t369 126q226 0 346 -125t123 -338l-143 -18q-9 176 -91.5 262t-250.5 86q-312 0 -424 -350h362l-14 -86h-371q-2 -9 -5 -26t-5 -25
q-9 -51 -12 -94h366l-14 -86h-354q6 -162 89 -252t241 -90q168 0 270.5 91.5t167.5 272.5l137 -31q-154 -465 -582 -465z" />
    <glyph glyph-name="uni2116" unicode="&#x2116;" horiz-adv-x="2168" 
d="M1327 352h692l-22 -127h-692zM1722 608q115 0 185.5 70t91.5 194q24 123 -24.5 192t-164.5 69q-112 0 -182 -66.5t-92 -187.5q-23 -126 23.5 -198.5t162.5 -72.5zM1714 492q-171 0 -254 109t-51 294q29 165 140 259.5t272 94.5q170 0 253.5 -106t51.5 -289
q-29 -167 -140.5 -264.5t-271.5 -97.5zM872 0l-284 657q-84 189 -160 435h-45q-28 -270 -88 -603l-88 -489h-141l217 1229h215l252 -578q117 -265 184 -493l43 2q29 265 82 579l86 490h141l-217 -1229h-197z" />
    <glyph glyph-name="trademark" unicode="&#x2122;" horiz-adv-x="1804" 
d="M162 1124l18 105h635l-18 -105h-258l-107 -602h-119l107 602h-258zM973 778l-45 -256h-109l125 707h201l45 -195q65 -249 82 -350h26q60 111 203 350l119 195h192l-122 -707h-121l45 256q8 44 69 344h-28q-120 -213 -201 -344l-137 -221h-113l-57 217q-70 264 -90 348
h-31q-7 -51 -53 -344z" />
    <glyph glyph-name="uni2190" unicode="&#x2190;" horiz-adv-x="1548" 
d="M45 555l12 72l768 581l72 -110q-338 -244 -678 -447l2 -12q270 18 697 18h542l-22 -133h-543q-385 0 -690 21l-8 -13q268 -210 516 -450l-107 -105z" />
    <glyph glyph-name="arrowup" unicode="&#x2191;" horiz-adv-x="1419" 
d="M674 1313h71l580 -666l-106 -88q-253 302 -451 596l-12 -4q20 -297 20 -694v-543h-135v543q0 351 23 692l-15 6q-214 -310 -448 -596l-107 90z" />
    <glyph glyph-name="uni2192" unicode="&#x2192;" horiz-adv-x="1548" 
d="M1503 629l-12 -72l-768 -582l-72 111q315 229 678 446l-4 13q-285 -19 -696 -19h-543l25 133h542q397 0 690 -20l7 12q-252 198 -514 451l106 104z" />
    <glyph glyph-name="arrowdown" unicode="&#x2193;" horiz-adv-x="1419" 
d="M748 -76h-72l-582 666l109 86q246 -295 448 -594l13 4q-21 312 -21 692v543h135v-543q0 -367 -22 -690l14 -6q215 311 451 594l104 -88z" />
    <glyph glyph-name="minus" unicode="&#x2212;" horiz-adv-x="1011" 
d="M956 561h-872l22 129h873z" />
    <glyph glyph-name="uni25A0" unicode="&#x25a0;" horiz-adv-x="1843" 
d="M74 -244q4 283 4 848t-4 848q283 -6 848 -6q564 0 847 6q-4 -283 -4 -848t4 -848q-424 6 -847 6t-848 -6z" />
    <glyph glyph-name="uni25B2" unicode="&#x25b2;" horiz-adv-x="1843" 
d="M154 0v8l768 1264h8l762 -1264v-8h-1538z" />
    <glyph glyph-name="uni25B3" unicode="&#x25b3;" horiz-adv-x="1843" 
d="M154 0v8l768 1264h8l762 -1264v-8h-1538zM926 129q198 0 575 -29l6 13q-338 466 -575 972h-10q-248 -518 -578 -972l6 -13q357 29 576 29z" />
    <glyph glyph-name="uni25B6" unicode="&#x25b6;" horiz-adv-x="1843" 
d="M369 1391h8l1263 -768v-9l-1263 -761h-8v1538z" />
    <glyph glyph-name="uni25B7" unicode="&#x25b7;" horiz-adv-x="1843" 
d="M369 1391h8l1263 -768v-9l-1263 -761h-8v1538zM498 618q0 -198 -29 -575l12 -6q464 336 973 575v11q-525 252 -973 577l-12 -6q29 -357 29 -576z" />
    <glyph glyph-name="uni25BC" unicode="&#x25bc;" horiz-adv-x="1843" 
d="M1690 1229v-8l-768 -1264h-9l-761 1264v8h1538z" />
    <glyph glyph-name="uni25BD" unicode="&#x25bd;" horiz-adv-x="1843" 
d="M1497 1116l-6 12q-345 -28 -576 -28q-211 0 -575 28l-6 -12q336 -464 575 -973h11q252 525 577 973zM150 1229h1538v-8l-768 -1264h-9l-761 1264v8z" />
    <glyph glyph-name="uni25C0" unicode="&#x25c0;" horiz-adv-x="1843" 
d="M1475 1391h-9l-1263 -768v-9l1263 -761h9v1538z" />
    <glyph glyph-name="uni25C1" unicode="&#x25c1;" horiz-adv-x="1843" 
d="M1466 1391h9v-1538h-9l-1263 761v9zM1346 618q0 231 28 576l-12 6q-448 -325 -973 -577v-11q509 -239 973 -575l12 6q-28 364 -28 575z" />
    <glyph glyph-name="uni25C6" unicode="&#x25c6;" horiz-adv-x="1843" 
d="M922 -395q-483 521 -990 989q540 502 990 989q457 -493 989 -989q-500 -461 -989 -989z" />
    <glyph glyph-name="uni25CF" unicode="&#x25cf;" horiz-adv-x="1843" 
d="M-6 602q0 284 112.5 494t323 322t494.5 112q427 0 676 -249.5t249 -678.5t-249 -678.5t-676 -249.5q-284 0 -494.5 112t-323 322t-112.5 494z" />
    <glyph glyph-name="uni2605" unicode="&#x2605;" horiz-adv-x="1843" 
d="M1448 -160l-526 305l-523 -305l-6 4l125 592l-450 404l2 8l604 63l244 553h8l243 -553l605 -63l2 -8l-451 -404l125 -592z" />
    <glyph glyph-name="uni2610" unicode="&#x2610;" horiz-adv-x="1843" 
d="M1489 0h-1133v1133h1133v-1133zM471 567q0 -153 -12 -465q342 13 465 13t465 -13q-15 293 -15 465q0 171 15 463q-263 -10 -465 -10t-465 10q12 -312 12 -463z" />
    <glyph glyph-name="uni2611" unicode="&#x2611;" horiz-adv-x="1843" 
d="M625 627l80 86q179 -191 253 -301q122 223 268 442t345 494l110 -80q-384 -467 -688 -981h-65q-110 156 -303 340zM356 0v1133h865v-7l-70 -104q-76 -2 -227 -2q-227 0 -467 12q14 -273 14 -465t-14 -465q347 13 467 13q123 0 465 -13q-15 337 -15 539l109 152h6v-793
h-1133z" />
    <glyph glyph-name="uni2612" unicode="&#x2612;" horiz-adv-x="1843" 
d="M1489 0h-1133v1133h1133v-1133zM1157 264q-113 119 -233 264q-113 -136 -234 -264l-76 74q150 138 267 231q-125 98 -267 230l76 75q126 -136 234 -264q118 140 233 264l74 -75q-133 -126 -264 -230q142 -115 264 -231zM471 567q0 -153 -12 -465q342 13 465 13t465 -13
q-15 293 -15 465q0 171 15 463q-263 -10 -465 -10t-465 10q12 -312 12 -463z" />
    <glyph glyph-name="uni2661" unicode="&#x2661;" horiz-adv-x="1843" 
d="M584 391q239 -163 340 -325h4q101 162 340 325q110 75 181.5 145.5t116 159.5t44.5 187q0 140 -72.5 224.5t-224.5 84.5q-148 0 -231 -100t-124 -291h-65q-41 191 -123.5 291t-230.5 100q-152 0 -224.5 -84.5t-72.5 -224.5q0 -98 44.5 -187t116 -159.5t181.5 -145.5z
M920 -111q-61 107 -154 193.5t-246 198.5q-78 55 -138 105.5t-114 110t-89.5 118.5t-56 128t-20.5 142q0 204 108 318t296 114q163 0 259 -78t146 -244h21q48 165 145 243.5t262 78.5q185 0 293.5 -114.5t108.5 -317.5q0 -91 -30 -174t-88.5 -157.5t-129 -138.5t-168.5 -134
q-152 -110 -245 -197t-152 -195h-8z" />
    <glyph glyph-name="uni2726" unicode="&#x2726;" horiz-adv-x="1843" 
d="M1690 616v-24q-276 -85 -473.5 -284.5t-284.5 -471.5h-23q-88 272 -284.5 471.5t-472.5 284.5v24q276 85 472.5 284.5t284.5 471.5h23q87 -272 284.5 -471.5t473.5 -284.5z" />
    <glyph glyph-name="uni2727" unicode="&#x2727;" horiz-adv-x="1843" 
d="M1692 606v-8q-276 -85 -476.5 -287.5t-287.5 -474.5h-8q-87 272 -288.5 475.5t-477.5 288.5v8q276 85 476 288t288 476h8q88 -273 289 -477t477 -289zM1466 598v14q-203 71 -334 201t-204 336h-13q-72 -206 -202.5 -336t-333.5 -201v-14q204 -73 334.5 -202.5
t201.5 -334.5h13q73 207 203.5 336.5t334.5 200.5z" />
    <glyph glyph-name="uni2728" unicode="&#x2728;" horiz-adv-x="1843" 
d="M1255 424v-8q-225 -70 -387.5 -234.5t-232.5 -386.5h-10q-70 222 -234.5 387.5t-390.5 235.5v8q226 70 390 235t235 388h8q72 -223 235 -389t387 -236zM623 -25h8q61 167 169 274t275 169v10q-168 63 -275.5 169.5t-168.5 272.5h-8q-59 -166 -166.5 -272t-274.5 -170v-10
q167 -62 274 -169.5t167 -273.5zM1194 1204v-10q-103 -32 -176.5 -107.5t-106.5 -179.5h-10q-31 103 -105.5 179t-179.5 110v8q104 32 177 108t108 181h8q33 -104 107.5 -180.5t177.5 -108.5zM1100 1198v4q-74 26 -120 73t-71 120h-6q-49 -145 -188 -193v-4
q73 -27 118.5 -72t69.5 -118h6q24 73 70.5 118t120.5 72zM1843 784q-170 -52 -293 -176t-176 -293h-8q-53 169 -177 293t-296 178v9q171 52 293.5 176.5t177.5 294.5h8q53 -169 177 -294t294 -179v-9zM1698 786v9q-125 44 -203.5 122.5t-122.5 202.5h-6q-44 -124 -123 -202
t-201 -123v-9q122 -45 201 -123t123 -200h6q44 123 122.5 201t203.5 122z" />
    <glyph glyph-name="uni2764" unicode="&#x2764;" horiz-adv-x="1843" 
d="M920 -111q-61 107 -154 193.5t-246 198.5q-78 55 -138 105.5t-114 110t-89.5 118.5t-56 128t-20.5 142q0 204 108 318t296 114q163 0 259 -78t146 -244h21q48 165 145 243.5t262 78.5q185 0 293.5 -114.5t108.5 -317.5q0 -91 -30 -174t-88.5 -157.5t-129 -138.5
t-168.5 -134q-152 -110 -245 -197t-152 -195h-8z" />
    <glyph glyph-name="uni2780" unicode="&#x2780;" horiz-adv-x="1771" 
d="M885 -74q171 0 303.5 52t216.5 146.5t127 221.5t43 281q0 152 -44 278.5t-128.5 219.5t-216.5 144.5t-301 51.5t-301 -51.5t-216 -144.5t-127.5 -219t-43.5 -279q0 -154 43 -281t126.5 -221.5t216 -146.5t302.5 -52zM885 1438q193 0 347.5 -60t256 -168t155.5 -256.5
t54 -326.5q0 -179 -53.5 -328.5t-155 -258t-256.5 -169.5t-348 -61t-347.5 61t-255.5 169.5t-154.5 258t-53.5 328.5q0 178 54 326.5t155 256.5t255.5 168t346.5 60zM1200 188h-625v107h281v666q-73 -36 -258 -105l-41 105l354 108h68v-774h221v-107z" />
    <glyph glyph-name="uni2781" unicode="&#x2781;" horiz-adv-x="1771" 
d="M885 -74q171 0 303.5 52t216.5 146.5t127 221.5t43 281q0 152 -44 278.5t-128.5 219.5t-216.5 144.5t-301 51.5t-301 -51.5t-216 -144.5t-127.5 -219t-43.5 -279q0 -154 43 -281t126.5 -221.5t216 -146.5t302.5 -52zM885 1438q193 0 347.5 -60t256 -168t155.5 -256.5
t54 -326.5q0 -179 -53.5 -328.5t-155 -258t-256.5 -169.5t-348 -61t-347.5 61t-255.5 169.5t-154.5 258t-53.5 328.5q0 178 54 326.5t155 256.5t255.5 168t346.5 60zM901 981q-120 0 -185 -62t-91 -178l-121 21q75 325 395 325q163 0 249.5 -66.5t86.5 -197.5
q0 -61 -25 -109t-76 -83t-112.5 -59.5t-149.5 -47.5q-164 -44 -221 -91.5t-63 -145.5q200 12 362 12h297v-109h-770v74q0 145 78 221t258 125q169 48 232 93t63 122q0 156 -207 156z" />
    <glyph glyph-name="uni2782" unicode="&#x2782;" horiz-adv-x="1771" 
d="M885 -74q171 0 303.5 52t216.5 146.5t127 221.5t43 281q0 152 -44 278.5t-128.5 219.5t-216.5 144.5t-301 51.5t-301 -51.5t-216 -144.5t-127.5 -219t-43.5 -279q0 -154 43 -281t126.5 -221.5t216 -146.5t302.5 -52zM885 1438q193 0 347.5 -60t256 -168t155.5 -256.5
t54 -326.5q0 -179 -53.5 -328.5t-155 -258t-256.5 -169.5t-348 -61t-347.5 61t-255.5 169.5t-154.5 258t-53.5 328.5q0 178 54 326.5t155 256.5t255.5 168t346.5 60zM883 172q-340 0 -412 293l125 20q31 -107 96.5 -160t190.5 -53q124 0 185.5 42t61.5 118q0 80 -48.5 115
t-180.5 35h-162v94h158q88 0 140.5 36t52.5 113q0 78 -48 116t-155 38q-111 0 -168.5 -50t-85.5 -153l-117 17q61 288 371 288q323 0 323 -233q0 -169 -204 -207v-16q141 -12 195 -58.5t54 -144.5q0 -116 -91.5 -183t-280.5 -67z" />
    <glyph glyph-name="uni2783" unicode="&#x2783;" horiz-adv-x="1771" 
d="M885 -74q171 0 303.5 52t216.5 146.5t127 221.5t43 281q0 152 -44 278.5t-128.5 219.5t-216.5 144.5t-301 51.5t-301 -51.5t-216 -144.5t-127.5 -219t-43.5 -279q0 -154 43 -281t126.5 -221.5t216 -146.5t302.5 -52zM885 1438q193 0 347.5 -60t256 -168t155.5 -256.5
t54 -326.5q0 -179 -53.5 -328.5t-155 -258t-256.5 -169.5t-348 -61t-347.5 61t-255.5 169.5t-154.5 258t-53.5 328.5q0 178 54 326.5t155 256.5t255.5 168t346.5 60zM1249 403h-147v-215h-125v215h-576v91l553 575h148v-563h147v-103zM866 506h111v446l-10 2l-435 -452
l9 -13q185 17 325 17z" />
    <glyph glyph-name="uni2784" unicode="&#x2784;" horiz-adv-x="1771" 
d="M885 -74q171 0 303.5 52t216.5 146.5t127 221.5t43 281q0 152 -44 278.5t-128.5 219.5t-216.5 144.5t-301 51.5t-301 -51.5t-216 -144.5t-127.5 -219t-43.5 -279q0 -154 43 -281t126.5 -221.5t216 -146.5t302.5 -52zM885 1438q193 0 347.5 -60t256 -168t155.5 -256.5
t54 -326.5q0 -179 -53.5 -328.5t-155 -258t-256.5 -169.5t-348 -61t-347.5 61t-255.5 169.5t-154.5 258t-53.5 328.5q0 178 54 326.5t155 256.5t255.5 168t346.5 60zM899 276q124 0 179 46t55 135q0 88 -57.5 129t-180.5 41q-71 0 -139 -16.5t-107 -39.5l-98 35v463h655
v-113q-242 0 -544 15v-326q113 76 270 76q158 0 241.5 -67.5t83.5 -196.5q0 -283 -364 -283q-156 0 -254.5 57t-167.5 179l117 45q49 -87 120.5 -133t190.5 -46z" />
    <glyph glyph-name="uni2785" unicode="&#x2785;" horiz-adv-x="1771" 
d="M907 643q-139 0 -212.5 -52.5t-73.5 -127.5q0 -79 70.5 -131.5t197.5 -52.5q244 0 244 194q0 170 -226 170zM885 -74q171 0 303.5 52t216.5 146.5t127 221.5t43 281q0 152 -44 278.5t-128.5 219.5t-216.5 144.5t-301 51.5t-301 -51.5t-216 -144.5t-127.5 -219t-43.5 -279
q0 -154 43 -281t126.5 -221.5t216 -146.5t302.5 -52zM885 1438q193 0 347.5 -60t256 -168t155.5 -256.5t54 -326.5q0 -179 -53.5 -328.5t-155 -258t-256.5 -169.5t-348 -61t-347.5 61t-255.5 169.5t-154.5 258t-53.5 328.5q0 178 54 326.5t155 256.5t255.5 168t346.5 60z
M1260 471q0 -139 -96 -217t-279 -78q-93 0 -163.5 22t-125 70.5t-83 133t-28.5 202.5q0 106 23 191.5t70.5 152t128.5 103t190 36.5q85 0 147.5 -19t101.5 -56.5t60.5 -85.5t32.5 -113l-119 -16q-23 97 -72.5 141.5t-152.5 44.5q-153 0 -224 -97.5t-71 -301.5v-27l18 -2
q73 172 326 172q140 0 228 -62.5t88 -193.5z" />
    <glyph glyph-name="uni2786" unicode="&#x2786;" horiz-adv-x="1771" 
d="M885 -74q171 0 303.5 52t216.5 146.5t127 221.5t43 281q0 152 -44 278.5t-128.5 219.5t-216.5 144.5t-301 51.5t-301 -51.5t-216 -144.5t-127.5 -219t-43.5 -279q0 -154 43 -281t126.5 -221.5t216 -146.5t302.5 -52zM885 1438q193 0 347.5 -60t256 -168t155.5 -256.5
t54 -326.5q0 -179 -53.5 -328.5t-155 -258t-256.5 -169.5t-348 -61t-347.5 61t-255.5 169.5t-154.5 258t-53.5 328.5q0 178 54 326.5t155 256.5t255.5 168t346.5 60zM487 958v111h783v-111q-341 -311 -381 -770h-139q19 217 128 422t289 363q-216 -15 -399 -15h-281z" />
    <glyph glyph-name="uni2787" unicode="&#x2787;" horiz-adv-x="1771" 
d="M881 586q-260 0 -260 -158q0 -154 260 -154q264 0 264 154q0 158 -264 158zM881 983q-219 0 -222 -152q0 -150 222 -157q223 7 223 157q0 152 -223 152zM885 -74q171 0 303.5 52t216.5 146.5t127 221.5t43 281q0 152 -44 278.5t-128.5 219.5t-216.5 144.5t-301 51.5
t-301 -51.5t-216 -144.5t-127.5 -219t-43.5 -279q0 -154 43 -281t126.5 -221.5t216 -146.5t302.5 -52zM885 1438q193 0 347.5 -60t256 -168t155.5 -256.5t54 -326.5q0 -179 -53.5 -328.5t-155 -258t-256.5 -169.5t-348 -61t-347.5 61t-255.5 169.5t-154.5 258t-53.5 328.5
q0 178 54 326.5t155 256.5t255.5 168t346.5 60zM881 174q-387 0 -387 244q0 180 264 207v18q-222 42 -219 207q2 111 86 173t256 62q175 0 260.5 -62t85.5 -173q0 -168 -221 -207v-18q266 -27 266 -207q0 -244 -391 -244z" />
    <glyph glyph-name="uni2788" unicode="&#x2788;" horiz-adv-x="1771" 
d="M862 610q134 0 206.5 54t72.5 133t-69 130.5t-193 51.5q-122 0 -182 -54.5t-60 -142.5q0 -172 225 -172zM885 -74q171 0 303.5 52t216.5 146.5t127 221.5t43 281q0 152 -44 278.5t-128.5 219.5t-216.5 144.5t-301 51.5t-301 -51.5t-216 -144.5t-127.5 -219t-43.5 -279
q0 -154 43 -281t126.5 -221.5t216 -146.5t302.5 -52zM885 1438q193 0 347.5 -60t256 -168t155.5 -256.5t54 -326.5q0 -179 -53.5 -328.5t-155 -258t-256.5 -169.5t-348 -61t-347.5 61t-255.5 169.5t-154.5 258t-53.5 328.5q0 178 54 326.5t155 256.5t255.5 168t346.5 60z
M879 174q-121 0 -202 35.5t-120 93.5t-53 143l121 19q32 -186 254 -186q148 0 215 96t67 299v22l-16 2q-80 -174 -322 -174q-136 0 -222.5 64.5t-86.5 197.5q0 134 96.5 216.5t270.5 82.5q190 0 292.5 -100t102.5 -328q0 -107 -22 -192.5t-68 -152t-124 -102.5t-183 -36z
" />
    <glyph glyph-name="uni2789" unicode="&#x2789;" horiz-adv-x="1763" 
d="M825 197h-430v98h191v670q-50 -24 -176 -72l-35 94l260 74h55v-766h135v-98zM1120 977q-164 0 -164 -346q0 -350 164 -350q162 0 162 350q0 346 -162 346zM1120 1077q133 0 202 -117t69 -329q0 -211 -69.5 -331t-201.5 -120q-134 0 -203 119.5t-69 331.5t69.5 329
t202.5 117zM885 -74q171 0 303.5 52t216.5 146.5t127 221.5t43 281q0 152 -44 278.5t-128.5 219.5t-216.5 144.5t-301 51.5t-301 -51.5t-216 -144.5t-127.5 -219t-43.5 -279q0 -154 43 -281t126.5 -221.5t216 -146.5t302.5 -52zM885 1438q193 0 347.5 -60t256 -168
t155.5 -256.5t54 -326.5q0 -179 -53.5 -328.5t-155 -258t-256.5 -169.5t-348 -61t-347.5 61t-255.5 169.5t-154.5 258t-53.5 328.5q0 178 54 326.5t155 256.5t255.5 168t346.5 60z" />
    <glyph glyph-name="uni278A" unicode="&#x278a;" horiz-adv-x="1771" 
d="M575 297v-109h625v109h-221v772h-68l-354 -108l41 -105q179 64 258 100v-659h-281zM885 1438q193 0 347.5 -60t256 -168t155.5 -256.5t54 -326.5q0 -179 -53.5 -328.5t-155 -258t-256.5 -169.5t-348 -61t-347.5 61t-255.5 169.5t-154.5 258t-53.5 328.5q0 178 54 326.5
t155 256.5t255.5 168t346.5 60z" />
    <glyph glyph-name="uni278B" unicode="&#x278b;" horiz-adv-x="1771" 
d="M899 983q207 0 207 -156q0 -77 -63 -122t-232 -93q-180 -49 -258 -125t-78 -221v-73h770v108h-297q-190 0 -362 -14q6 98 63 145.5t221 93.5q87 23 149 47.5t112 59.5t75 83t25 109q0 131 -85.5 198t-248.5 67q-318 0 -397 -326l123 -21q25 116 90.5 178t185.5 62z
M885 1438q193 0 347.5 -60t256 -168t155.5 -256.5t54 -326.5q0 -179 -53.5 -328.5t-155 -258t-256.5 -169.5t-348 -61t-347.5 61t-255.5 169.5t-154.5 258t-53.5 328.5q0 178 54 326.5t155 256.5t255.5 168t346.5 60z" />
    <glyph glyph-name="uni278C" unicode="&#x278c;" horiz-adv-x="1771" 
d="M883 172q189 0 280.5 67t91.5 183q0 98 -54 144.5t-195 58.5v16q204 41 204 207q0 233 -323 233q-314 0 -371 -288l117 -17q28 103 85.5 153t168.5 50q107 0 155 -37.5t48 -114.5q0 -149 -193 -149h-158v-94h162q131 0 180 -36t49 -116q0 -76 -61.5 -117t-185.5 -41
q-125 0 -191.5 52.5t-95.5 158.5l-125 -20q73 -293 412 -293zM885 1438q193 0 347.5 -60t256 -168t155.5 -256.5t54 -326.5q0 -179 -53.5 -328.5t-155 -258t-256.5 -169.5t-348 -61t-347.5 61t-255.5 169.5t-154.5 258t-53.5 328.5q0 178 54 326.5t155 256.5t255.5 168
t346.5 60z" />
    <glyph glyph-name="uni278D" unicode="&#x278d;" horiz-adv-x="1771" 
d="M1249 406v100h-147v565h-146l-555 -577v-88h576v-216h125v216h147zM850 506q-132 0 -307 -14l-11 14l435 448l10 -2v-446h-127zM885 1438q193 0 347.5 -60t256 -168t155.5 -256.5t54 -326.5q0 -179 -53.5 -328.5t-155 -258t-256.5 -169.5t-348 -61t-347.5 61
t-255.5 169.5t-154.5 258t-53.5 328.5q0 178 54 326.5t155 256.5t255.5 168t346.5 60z" />
    <glyph glyph-name="uni278E" unicode="&#x278e;" horiz-adv-x="1771" 
d="M899 276q-119 0 -190.5 46t-120.5 133l-117 -45q68 -122 166.5 -179t255.5 -57q364 0 364 283q0 129 -83.5 195.5t-243.5 66.5q-152 0 -268 -74v326q231 -15 542 -15v113h-655v-463l100 -35q39 23 107 39.5t139 16.5q123 0 180.5 -41t57.5 -129q0 -89 -55 -135t-179 -46z
M885 1438q193 0 347.5 -60t256 -168t155.5 -256.5t54 -326.5q0 -179 -53.5 -328.5t-155 -258t-256.5 -169.5t-348 -61t-347.5 61t-255.5 169.5t-154.5 258t-53.5 328.5q0 178 54 326.5t155 256.5t255.5 168t346.5 60z" />
    <glyph glyph-name="uni278F" unicode="&#x278f;" horiz-adv-x="1771" 
d="M1257 471q0 68 -24.5 118.5t-68 80t-98.5 43.5t-122 14q-257 0 -326 -174l-20 2q1 227 71.5 327.5t225.5 100.5q102 0 152 -44.5t73 -141.5l119 14q-11 65 -32.5 113t-60.5 85.5t-101.5 56.5t-147.5 19q-88 0 -158 -24t-117.5 -66.5t-79 -103t-45.5 -132t-14 -155.5
q0 -118 29 -202.5t83.5 -133t125.5 -70.5t164 -22q183 0 277.5 78t94.5 217zM907 641q226 0 226 -168q0 -194 -244 -194q-128 0 -198 52.5t-70 131.5q0 75 73.5 126.5t212.5 51.5zM885 1438q193 0 347.5 -60t256 -168t155.5 -256.5t54 -326.5q0 -179 -53.5 -328.5t-155 -258
t-256.5 -169.5t-348 -61t-347.5 61t-255.5 169.5t-154.5 258t-53.5 328.5q0 178 54 326.5t155 256.5t255.5 168t346.5 60z" />
    <glyph glyph-name="uni2790" unicode="&#x2790;" horiz-adv-x="1771" 
d="M487 958h281q193 0 397 15q-180 -160 -288 -364.5t-127 -420.5h139q40 457 383 770v111h-785v-111zM885 1438q193 0 347.5 -60t256 -168t155.5 -256.5t54 -326.5q0 -179 -53.5 -328.5t-155 -258t-256.5 -169.5t-348 -61t-347.5 61t-255.5 169.5t-154.5 258t-53.5 328.5
q0 178 54 326.5t155 256.5t255.5 168t346.5 60z" />
    <glyph glyph-name="uni2791" unicode="&#x2791;" horiz-adv-x="1771" 
d="M883 174q389 0 389 244q0 176 -264 207v18q219 39 219 207q0 111 -85 173t-259 62q-173 0 -257.5 -62t-84.5 -173q-3 -168 219 -207v-18q-264 -31 -264 -207q0 -244 387 -244zM883 983q221 0 221 -152q0 -150 -221 -157q-221 7 -221 157q0 152 221 152zM883 586
q262 0 262 -158q0 -154 -262 -154t-262 154q0 158 262 158zM885 1438q193 0 347.5 -60t256 -168t155.5 -256.5t54 -326.5q0 -179 -53.5 -328.5t-155 -258t-256.5 -169.5t-348 -61t-347.5 61t-255.5 169.5t-154.5 258t-53.5 328.5q0 178 54 326.5t155 256.5t255.5 168
t346.5 60z" />
    <glyph glyph-name="uni2792" unicode="&#x2792;" horiz-adv-x="1771" 
d="M1276 655q0 118 -28 202t-82 133t-124 71t-163 22q-175 0 -271 -82t-96 -217q0 -68 24.5 -119t68 -81t98.5 -45t120 -15q126 0 205.5 48t116.5 128l16 -2q0 -221 -65.5 -320t-216.5 -99q-223 0 -256 184l-119 -19q22 -129 109.5 -199.5t263.5 -70.5q106 0 184.5 36
t124.5 102.5t68 151.5t22 191zM862 608q-108 0 -167.5 43.5t-59.5 130.5q0 88 60.5 142.5t183.5 54.5t192.5 -52t69.5 -130q0 -79 -73 -134t-206 -55zM885 1438q193 0 347.5 -60t256 -168t155.5 -256.5t54 -326.5q0 -179 -53.5 -328.5t-155 -258t-256.5 -169.5t-348 -61
t-347.5 61t-255.5 169.5t-154.5 258t-53.5 328.5q0 178 54 326.5t155 256.5t255.5 168t346.5 60z" />
    <glyph glyph-name="uni2793" unicode="&#x2793;" horiz-adv-x="1763" 
d="M1120 1077q-133 0 -202.5 -117t-69.5 -329q0 -211 69.5 -331t202.5 -120q132 0 201.5 120t69.5 331q0 212 -69 329t-202 117zM391 295v-98h430v98h-135v766h-55l-260 -74l35 -94q108 37 176 70v-668h-191zM1120 977q164 0 164 -346q0 -350 -164 -350t-164 350
q0 346 164 346zM885 1438q193 0 347.5 -60t256 -168t155.5 -256.5t54 -326.5q0 -179 -53.5 -328.5t-155 -258t-256.5 -169.5t-348 -61t-347.5 61t-255.5 169.5t-154.5 258t-53.5 328.5q0 178 54 326.5t155 256.5t255.5 168t346.5 60z" />
    <glyph glyph-name="uni279A" unicode="&#x279a;" horiz-adv-x="1843" 
d="M1317 729v-729h-1071v1071h739v-4l-104 -109q-239 0 -531 13q12 -206 12 -414q0 -225 -12 -453q334 13 453 13q113 0 414 -13q-13 364 -13 502l109 123h4zM1610 1376l30 -28v-766h-122q9 342 47 645l-13 6q-251 -275 -606 -633l-262 -260l-86 82l264 262q292 295 635 604
l-4 12q-167 -29 -621 -45v121h738z" />
    <glyph glyph-name="uni2B1B" unicode="&#x2b1b;" horiz-adv-x="1843" 
d="M1489 0h-1133v1133h1133v-1133z" />
    <glyph glyph-name="uni2B1C" unicode="&#x2b1c;" horiz-adv-x="1843" 
d="M1489 0h-1133v1133h1133v-1133zM471 567q0 -153 -12 -465q342 13 465 13t465 -13q-15 293 -15 465q0 171 15 463q-263 -10 -465 -10t-465 10q12 -312 12 -463z" />
    <glyph glyph-name="commaaccent" unicode="&#xf6c3;" horiz-adv-x="356" 
d="M45 -117h125l-174 -307h-96l2 16z" />
    <glyph glyph-name="uniF8FF" unicode="&#xf8ff;" horiz-adv-x="2635" 
d="M1942 16q-13 -30 -123 -30l-50 2q9 212 13 508.5t8 406.5q-52 -160 -110.5 -387t-93.5 -364.5t-48 -147.5q-14 -12 -43 -12q-13 0 -50.5 5t-64.5 7q4 127 4 420q-63 2 -190 2q2 -51 2 -164q0 -244 -20 -256q-12 -10 -54 -10q-22 0 -59 3t-45 3h-6q14 232 14 422
q-30 0 -84 -1t-78 -1v-92q0 -57 1 -146.5t1 -111.5q0 -37 -2 -41q-10 -26 -39 -33.5t-123 -9.5q-2 59 -2 162q0 71 5 266q-114 -4 -132 -4q-54 -92 -120 -214.5t-95 -193.5q-14 4 -45 4q-20 0 -41.5 -2.5t-33.5 -5.5l-11 -2q-5 51 -32 102q-8 16 -98 156t-95 160
q-4 16 -4 24q0 34 27 90q-11 22 -11 50q0 35 17 98q12 38 47.5 121.5t93 213t92.5 212.5q68 0 144 20q90 -231 180 -667q10 -1 121 -5v25q0 41 -1 160t-1 182q0 239 16 262q16 29 147 31q-6 -123 -6 -236q0 -70 2 -191t2 -171v-64q25 0 78 -1t80 -1q0 183 -3 357.5t-3 185.5
q0 52 4 69.5t16 26.5q16 13 78 13h64q0 -27 -1 -78.5t-1 -75.5q0 -168 10 -496q114 3 194 9q0 53 -1 149.5t-1 138.5q0 321 17 344q20 29 86 29q14 0 40.5 -2t35.5 -2q-17 -121 -17 -541v-164q203 673 250 697q16 8 61 8l95 -6q-6 -147 -6 -350q0 -132 3 -370.5t3 -315.5
q0 -166 -8 -179zM2359 948q-24 -71 -68.5 -181t-71 -181.5t-26.5 -96.5v-4q2 -29 70 -141.5t80 -140.5q29 68 59 143t45 116l15 40q-23 127 -60.5 273.5t-42.5 172.5zM143 520q0 -16 24.5 -60.5t64.5 -116t65 -128.5q24 63 58 136.5t52.5 115.5t18.5 61v4q-1 23 -36 178.5
t-60 252.5q-187 -404 -187 -443zM2292 1245q24 -12 57 -12q40 0 61 24q149 -474 226 -763q-187 -488 -246 -500q-6 -2 -18 -2q-46 0 -136 37q-1 35 -23 87.5t-45 91t-58.5 94.5t-43.5 69q-22 40 -22 61q0 12 4.5 21.5t12.5 18.5t10 13q6 9 6 21q0 28 -35 37q187 458 250 702
z" />
    <glyph glyph-name="fi" unicode="&#xfb01;" horiz-adv-x="1167" 
d="M461 1016l-10 -64h313l-21 -121h-315l-145 -831h-142l148 831h-185l21 121h184l13 66q27 152 116 236.5t240 84.5q77 0 160 -18l-29 -111q-88 15 -131 15q-94 0 -146 -53t-71 -156zM924 0h-140l168 952h140zM1145 1155h-172l24 143h172z" />
    <glyph glyph-name="fl" unicode="&#xfb02;" horiz-adv-x="1146" 
d="M461 1016l-10 -64h313l-21 -121h-315l-145 -831h-142l148 831h-185l21 121h184l13 66q27 152 116 236.5t240 84.5q77 0 160 -18l-29 -111q-88 15 -131 15q-94 0 -146 -53t-71 -156zM1147 1315l-232 -1315h-139l232 1315h139z" />
    <glyph glyph-name="exclamdown.case" horiz-adv-x="481" 
d="M207 797h145l-141 -797h-143zM418 1036h-193l33 193h195z" />
    <glyph glyph-name="questiondown.case" horiz-adv-x="993" 
d="M354 662q78 33 111.5 77t42.5 97q0 6 4 22h137q0 -13 -4 -29q-18 -93 -69.5 -154.5t-157.5 -109.5q-127 -57 -177.5 -101.5t-64.5 -125.5q-19 -108 43.5 -171t200.5 -63q150 0 242 90.5t145 260.5l137 -25q-62 -212 -193 -332.5t-341 -120.5q-207 0 -307 100t-70 269
q11 64 40.5 115t75.5 88.5t93.5 62.5t111.5 50zM709 1036h-193l35 193h192z" />
    <glyph glyph-name="periodcentered.case" horiz-adv-x="421" 
d="M147 717h193l-33 -193h-194z" />
    <glyph glyph-name="bullet.case" horiz-adv-x="534" 
d="M172 774h299l-51 -299h-301z" />
    <glyph glyph-name="guillemotleft.case" horiz-adv-x="1257" 
d="M627 170h-135l-441 438l6 41l588 438h143l-6 -26l-581 -434v-9l430 -425zM1116 170h-135l-440 438l6 41l588 438h143l-6 -26l-582 -434v-9l430 -425z" />
    <glyph glyph-name="guillemotright.case" horiz-adv-x="1257" 
d="M618 158h-143l4 26l582 434l2 9l-430 426l4 22h133l442 -438l-8 -41zM127 158h-143l6 26l581 434v9l-430 426l4 22h136l442 -438l-8 -41z" />
    <glyph glyph-name="guilsinglleft.case" horiz-adv-x="776" 
d="M627 172h-135l-441 438l6 41l588 439h143l-6 -27l-581 -434v-8l430 -426z" />
    <glyph glyph-name="guilsinglright.case" horiz-adv-x="768" 
d="M147 158h-145l6 26l582 432l2 11l-432 426l4 22h135l442 -438l-8 -41z" />
    <glyph glyph-name="hyphen.case" horiz-adv-x="716" 
d="M74 686h624l-24 -135h-625z" />
    <glyph glyph-name="endash.case" horiz-adv-x="974" 
d="M76 686h882l-24 -129h-881z" />
    <glyph glyph-name="emdash.case" horiz-adv-x="1761" 
d="M76 686h1669l-25 -129h-1667z" />
    <glyph glyph-name="parenleft.case" horiz-adv-x="669" 
d="M158 651q40 231 161 423.5t345 373.5l73 -80q-195 -173 -298.5 -351t-139.5 -388q-26 -146 -21 -277.5t52 -259t137 -246.5l-98 -73q-155 180 -205 405t-6 473z" />
    <glyph glyph-name="parenright.case" horiz-adv-x="667" 
d="M532 586q-42 -232 -163 -424t-344 -373l-74 80q195 173 299.5 351.5t140.5 387.5q25 146 20 277.5t-51.5 259t-136.5 246.5l99 73q154 -180 203.5 -404t6.5 -474z" />
    <glyph glyph-name="bracketleft.case" horiz-adv-x="583" 
d="M27 -160l274 1553h391l-22 -123h-248l-229 -1303h247l-22 -127h-391z" />
    <glyph glyph-name="bracketright.case" horiz-adv-x="583" 
d="M-51 -154l20 123h250l227 1303h-247l22 127h391l-272 -1553h-391z" />
    <glyph glyph-name="braceleft.case" horiz-adv-x="741" 
d="M561 -217q-56 -6 -135 -6q-155 0 -223.5 61t-50.5 166q10 57 48 115t79 98.5t78.5 92t45.5 96.5q12 74 -38.5 109.5t-169.5 35.5h-140l23 125h139q105 0 177.5 38t86.5 117q7 38 -3.5 78.5t-30 78t-38 76t-28.5 85t-2 92.5q18 96 104 149.5t236 53.5q30 0 141 -6
l-22 -121q-43 2 -115 2q-97 0 -145.5 -29.5t-59.5 -91.5q-8 -42 7 -91.5t36.5 -88.5t35.5 -93.5t5 -105.5q-15 -84 -89 -131t-208 -65l-2 -19q134 -13 187 -62.5t38 -140.5q-9 -52 -43.5 -106t-70.5 -92.5t-69.5 -87.5t-41.5 -90q-11 -63 27.5 -94t134.5 -31q29 0 115 4z
" />
    <glyph glyph-name="braceright.case" horiz-adv-x="741" 
d="M223 1454q56 6 135 6q155 0 224.5 -61t50.5 -166q-8 -47 -34.5 -93t-60 -83.5t-66 -73t-58.5 -75.5t-33 -77q-12 -74 39 -109.5t170 -35.5h139l-20 -125h-140q-106 0 -179 -38t-87 -117q-6 -38 5 -78.5t30 -78t37.5 -76t28.5 -85t2 -92.5q-15 -96 -102 -149.5t-238 -53.5
q-31 0 -142 6l25 121q82 -4 112 -4q97 0 145.5 30t59.5 93q8 42 -6.5 91.5t-36 88.5t-35 93.5t-4.5 105.5q13 84 87 131t208 65l2 19q-135 13 -187.5 63t-37.5 140q10 52 44.5 106t71.5 93t69.5 87.5t39.5 89.5q11 63 -26.5 94t-132.5 31q-31 0 -117 -4z" />
    <glyph glyph-name="zero.osf" horiz-adv-x="1155" 
d="M659 967q-174 0 -281.5 -112.5t-141.5 -305.5q-38 -207 34 -326t256 -119q176 0 282.5 111.5t141.5 308.5q36 205 -36.5 324t-254.5 119zM668 1094q250 0 363 -158.5t63 -431.5q-44 -244 -194 -385.5t-382 -141.5q-253 0 -364 159.5t-64 432.5q43 244 195.5 384.5
t382.5 140.5z" />
    <glyph glyph-name="one.osf" horiz-adv-x="952" 
d="M797 0h-789l23 123h362l146 833q-31 -17 -65.5 -33t-81 -34.5t-68.5 -27t-81.5 -30.5t-66.5 -24l-31 119l469 147h88l-165 -950h282z" />
    <glyph glyph-name="two.osf" horiz-adv-x="1146" 
d="M690 971q-153 0 -245.5 -82t-141.5 -248l-133 18q116 435 532 435q208 0 310 -97t71 -270q-21 -121 -136 -191.5t-369 -132.5q-233 -59 -319 -117.5t-112 -179.5q191 23 502 23h346l-22 -129h-965q5 40 15 94q30 168 143 254.5t356 147.5q162 43 246 77.5t122 73t48 96.5
q21 104 -43 166t-205 62z" />
    <glyph glyph-name="three.osf" horiz-adv-x="1144" 
d="M539 -174q-480 0 -486 416l144 18q3 -155 87.5 -233t260.5 -78q147 0 235 60.5t109 170.5q14 80 -3 127.5t-80 74t-181 26.5h-209l20 114h201q115 0 195.5 51.5t99.5 161.5q44 238 -238 238q-140 0 -225 -71t-139 -212l-133 23q128 383 510 383q208 0 301.5 -94
t62.5 -267q-18 -107 -92.5 -169t-206.5 -89l-2 -20q169 -21 226.5 -94t33.5 -207q-29 -157 -151.5 -243.5t-339.5 -86.5z" />
    <glyph glyph-name="four.osf" horiz-adv-x="1177" 
d="M1106 150h-195l-53 -306h-143l53 306h-745l20 114l864 809h168l-141 -803h194zM578 270h210l115 654l-10 4l-698 -660l6 -16q194 18 377 18z" />
    <glyph glyph-name="five.osf" horiz-adv-x="1165" 
d="M555 -53q298 0 336 250q23 136 -42.5 204t-225.5 68q-93 0 -183 -24t-145 -62l-115 47l115 643h829l-24 -135q-334 0 -694 18l-82 -471q150 97 333 97q216 0 312 -105.5t65 -294.5q-29 -180 -153.5 -269t-329.5 -89q-206 0 -336 87.5t-174 260.5l139 41
q32 -126 126.5 -196t248.5 -70z" />
    <glyph glyph-name="six.osf" horiz-adv-x="1155" 
d="M639 645q-178 0 -280 -70.5t-121 -177.5q-23 -120 59 -206.5t244 -86.5q310 0 360 263q23 136 -45 207t-217 71zM1044 352q-31 -177 -162.5 -276t-336.5 -99q-101 0 -179.5 23t-139 73t-93 128.5t-40 189.5t19.5 256q24 137 69.5 244.5t117.5 189.5t176.5 126t236.5 44
q202 0 300.5 -103t100.5 -282l-143 -14q-8 134 -72.5 203t-198.5 69q-193 0 -303.5 -129t-160.5 -409q-3 -17 -9.5 -55.5t-9.5 -53.5l19 -2q59 135 173 206t277 71q88 0 159.5 -24t123.5 -71t72.5 -125.5t2.5 -179.5z" />
    <glyph glyph-name="seven.osf" horiz-adv-x="1062" 
d="M137 940l23 133h1003l-24 -133q-527 -451 -690 -1096h-173q79 304 271 598t465 516q-203 -18 -445 -18h-430z" />
    <glyph glyph-name="eight.osf" horiz-adv-x="1155" 
d="M512 -23q-265 0 -374.5 95.5t-80.5 263.5q19 108 112 180.5t273 93.5l4 23q-130 30 -187.5 109t-33.5 206q26 142 142 222.5t325 80.5q227 0 327 -94.5t71 -257.5q-36 -214 -326 -266l-4 -25q89 -12 150.5 -41.5t91 -70.5t40.5 -92.5t-2 -108.5q-58 -318 -528 -318z
M592 563q-348 0 -389 -229q-19 -111 60 -171.5t257 -60.5q170 0 265 57.5t114 164.5q7 29 4 58t-11.5 56t-32 49.5t-57.5 39.5t-87.5 26.5t-122.5 9.5zM682 1124q-283 0 -324 -223q-21 -116 49 -172.5t205 -56.5q87 0 155 23t116 75t61 129q20 107 -43 166t-219 59z" />
    <glyph glyph-name="nine.osf" horiz-adv-x="1150" 
d="M551 430q175 0 283 74t127 180q23 123 -59.5 205t-250.5 82q-159 0 -246.5 -71t-109.5 -193q-24 -139 44 -208t212 -69zM481 -176q-221 0 -324 96t-112 275l139 22q8 -133 79 -199.5t222 -66.5q192 0 306.5 136t164.5 417q1 4 15 88l-19 2q-125 -270 -446 -270
q-88 0 -158 23.5t-121 70.5t-71 125.5t-2 181.5q30 171 158.5 272t342.5 101q83 0 150.5 -14.5t124.5 -46t94 -81.5t59.5 -121.5t21.5 -165t-20 -212.5q-110 -633 -604 -633z" />
    <glyph glyph-name="zero.tf" horiz-adv-x="1222" 
d="M723 1120q-182 0 -296.5 -133.5t-154.5 -365.5q-22 -114 -15 -208.5t38 -162.5t96 -106t158 -38q181 0 294.5 136.5t155.5 371.5q41 236 -26 371t-250 135zM729 1251q253 0 360.5 -178.5t53.5 -480.5q-51 -284 -207.5 -449.5t-394.5 -165.5q-128 0 -220.5 48
t-142.5 135.5t-64.5 210t13.5 270.5q52 283 210 446.5t392 163.5z" />
    <glyph glyph-name="one.tf" 
d="M1018 0h-967l23 129h452l170 967q-137 -70 -446 -183l-37 129l569 187h82l-194 -1100h370z" />
    <glyph glyph-name="two.tf" 
d="M770 1124q-153 0 -252.5 -91t-157.5 -275l-135 26q143 467 555 467q211 0 311.5 -106t69.5 -285q-11 -65 -42 -118t-75 -92t-111.5 -73.5t-136.5 -59t-165 -52.5q-229 -68 -314.5 -137t-115.5 -215q238 16 428 16h424l-23 -129h-979q6 43 15 92q18 104 55.5 179.5
t102.5 132t149.5 96t208.5 75.5q229 66 323.5 130t112.5 172q20 111 -41.5 179t-206.5 68z" />
    <glyph glyph-name="three.tf" 
d="M594 -20q-479 0 -485 415l143 19q3 -155 87.5 -233.5t260.5 -78.5q147 0 235 61t109 171q14 80 -3 127.5t-80 73.5t-181 26h-209l21 115h200q115 0 195.5 51.5t99.5 161.5q43 237 -237 237q-140 0 -225.5 -70.5t-139.5 -211.5l-133 22q128 383 510 383q208 0 301.5 -93.5
t62.5 -266.5q-18 -107 -92.5 -169t-206.5 -89l-2 -21q169 -21 226.5 -94t33.5 -207q-29 -157 -151.5 -243t-339.5 -86z" />
    <glyph glyph-name="four.tf" horiz-adv-x="1189" 
d="M1108 305h-195l-53 -305h-143l53 305h-745l20 115l864 809h168l-141 -803h194zM580 426h211l114 653l-10 4l-698 -659l6 -16q194 18 377 18z" />
    <glyph glyph-name="five.tf" 
d="M594 102q298 0 336 250q47 273 -268 273q-93 0 -183 -24t-145 -62l-115 47l115 643h829l-24 -135q-335 0 -695 18l-82 -471q149 96 334 96q217 0 312.5 -105t64.5 -294q-29 -180 -153.5 -269t-329.5 -89q-206 0 -336 87.5t-174 260.5l139 41q32 -127 126.5 -197
t248.5 -70z" />
    <glyph glyph-name="six.tf" 
d="M684 645q-178 0 -280 -70.5t-121 -177.5q-23 -120 59 -206.5t244 -86.5q310 0 360 263q23 136 -45 207t-217 71zM1090 352q-31 -177 -163 -276t-337 -99q-101 0 -179.5 23t-139 73t-93 128.5t-40 189.5t19.5 256q24 137 69.5 244.5t117.5 189.5t176.5 126t236.5 44
q202 0 300.5 -103t100.5 -282l-143 -14q-8 134 -72.5 203t-198.5 69q-193 0 -303.5 -129t-160.5 -409q-3 -17 -9.5 -55.5t-9.5 -53.5l19 -2q59 135 173 206t277 71q88 0 160 -24t123.5 -71t72.5 -125.5t3 -179.5z" />
    <glyph glyph-name="seven.tf" 
d="M231 1096l23 133h1003l-24 -133q-527 -451 -690 -1096h-172q79 304 271 598t464 516q-202 -18 -444 -18h-431z" />
    <glyph glyph-name="eight.tf" 
d="M559 -23q-265 0 -374.5 95.5t-80.5 263.5q19 108 112 180.5t273 93.5l5 23q-130 30 -188 109t-34 206q26 142 142 222.5t325 80.5q227 0 327 -94.5t71 -257.5q-36 -214 -326 -266l-4 -25q89 -12 150.5 -41.5t91 -70.5t40.5 -92.5t-2 -108.5q-58 -318 -528 -318zM639 563
q-348 0 -389 -229q-19 -111 60 -171.5t257 -60.5q170 0 265 57.5t114 164.5q7 29 4 58t-11.5 56t-32 49.5t-57.5 39.5t-87.5 26.5t-122.5 9.5zM729 1124q-282 0 -323 -223q-21 -116 48.5 -172.5t204.5 -56.5q87 0 155 23t116 75t61 129q20 107 -43 166t-219 59z" />
    <glyph glyph-name="nine.tf" 
d="M592 584q175 0 282.5 74t126.5 180q23 123 -59 204.5t-250 81.5q-159 0 -246.5 -71t-109.5 -193q-24 -139 44 -207.5t212 -68.5zM522 -23q-221 0 -324 96t-112 275l139 23q8 -133 79 -200t222 -67q192 0 306.5 136t164.5 417q1 4 15 88l-19 3q-126 -271 -446 -271
q-88 0 -158 23.5t-121 71t-71 126t-2 181.5q30 171 158.5 271.5t342.5 100.5q83 0 150.5 -14.5t124.5 -46t94 -81.5t59.5 -121.5t21.5 -165t-20 -212.5q-110 -633 -604 -633z" />
    <glyph glyph-name="zero.tosf" horiz-adv-x="1239" 
d="M696 967q-174 0 -282.5 -112.5t-141.5 -305.5q-38 -207 34.5 -326t256.5 -119q176 0 282.5 111.5t141.5 308.5q36 205 -36.5 324t-254.5 119zM705 1094q250 0 362.5 -158.5t62.5 -431.5q-44 -244 -193.5 -385.5t-381.5 -141.5q-253 0 -364 159.5t-64 432.5
q43 244 195.5 384.5t382.5 140.5z" />
    <glyph glyph-name="one.tosf" 
d="M1018 0h-967l23 123h456l146 829q-136 -69 -457 -178l-31 125l564 174h88l-166 -950h366z" />
    <glyph glyph-name="two.tosf" 
d="M743 971q-153 0 -245.5 -82t-141.5 -248l-133 18q116 435 533 435q208 0 310 -97t71 -270q-21 -120 -136.5 -191t-369.5 -133q-233 -59 -318.5 -117.5t-111.5 -179.5q191 23 501 23h347l-23 -129h-965q5 40 15 94q30 168 143 254.5t356 147.5q162 43 246 77.5t122 73
t48 96.5q21 104 -43 166t-205 62z" />
    <glyph glyph-name="three.tosf" 
d="M594 -174q-479 0 -485 416l143 18q3 -155 87.5 -233t260.5 -78q147 0 235 60.5t109 170.5q14 80 -3 127.5t-80 74t-181 26.5h-209l21 114h200q115 0 195.5 51.5t99.5 161.5q44 238 -237 238q-140 0 -225.5 -71t-139.5 -212l-133 23q128 383 510 383q208 0 301.5 -94
t62.5 -267q-18 -107 -92.5 -169t-206.5 -89l-2 -20q169 -21 226.5 -94t33.5 -207q-29 -157 -151.5 -243.5t-339.5 -86.5z" />
    <glyph glyph-name="four.tosf" 
d="M1110 150h-195l-53 -306h-143l53 306h-745l20 114l864 809h168l-141 -803h195zM582 270h211l114 654l-10 4l-698 -660l6 -16q193 18 377 18z" />
    <glyph glyph-name="five.tosf" 
d="M590 -53q298 0 336 250q47 272 -269 272q-93 0 -182.5 -24t-144.5 -62l-115 47l115 643h829l-24 -135q-335 0 -695 18l-82 -471q150 97 334 97q216 0 312 -105.5t65 -294.5q-29 -180 -153.5 -269t-329.5 -89q-206 0 -336 87.5t-174 260.5l139 41q32 -126 126.5 -196
t248.5 -70z" />
    <glyph glyph-name="six.tosf" 
d="M684 645q-178 0 -280 -70.5t-121 -177.5q-23 -120 59 -206.5t244 -86.5q310 0 360 263q23 136 -45 207t-217 71zM1090 352q-31 -177 -163 -276t-337 -99q-101 0 -179.5 23t-139 73t-93 128.5t-40 189.5t19.5 256q24 137 69.5 244.5t117.5 189.5t176.5 126t236.5 44
q202 0 300.5 -103t100.5 -282l-143 -14q-8 134 -72.5 203t-198.5 69q-193 0 -303.5 -129t-160.5 -409q-3 -17 -9.5 -55.5t-9.5 -53.5l19 -2q59 135 173 206t277 71q88 0 160 -24t123.5 -71t72.5 -125.5t3 -179.5z" />
    <glyph glyph-name="seven.tosf" 
d="M227 940l23 133h1003l-24 -133q-527 -451 -690 -1096h-172q79 304 271 598t464 516q-203 -18 -445 -18h-430z" />
    <glyph glyph-name="eight.tosf" 
d="M559 -23q-265 0 -374.5 95.5t-80.5 263.5q19 108 112 180.5t273 93.5l5 23q-130 30 -188 109t-34 206q26 142 142 222.5t325 80.5q227 0 327 -94.5t71 -257.5q-36 -214 -326 -266l-4 -25q89 -12 150.5 -41.5t91 -70.5t40.5 -92.5t-2 -108.5q-58 -318 -528 -318zM639 563
q-348 0 -389 -229q-19 -111 60 -171.5t257 -60.5q170 0 265 57.5t114 164.5q7 29 4 58t-11.5 56t-32 49.5t-57.5 39.5t-87.5 26.5t-122.5 9.5zM729 1124q-282 0 -323 -223q-21 -116 48.5 -172.5t204.5 -56.5q87 0 155 23t116 75t61 129q20 107 -43 166t-219 59z" />
    <glyph glyph-name="nine.tosf" 
d="M586 430q175 0 282.5 74t126.5 180q23 123 -59 205t-250 82q-159 0 -246.5 -71t-109.5 -193q-24 -139 44 -208t212 -69zM516 -176q-221 0 -324 96t-112 275l139 22q8 -133 79 -199.5t222 -66.5q192 0 306.5 136t164.5 417q1 4 15 88l-19 2q-125 -270 -446 -270
q-88 0 -158.5 23.5t-121.5 70.5t-71 125.5t-2 181.5q30 171 159 272t343 101q83 0 150.5 -14.5t124.5 -46t94 -81.5t59.5 -121.5t21.5 -165t-20 -212.5q-110 -633 -604 -633z" />
    <glyph glyph-name="dollar.osf" horiz-adv-x="1011" 
d="M612 1319h113l-53 -250q269 -33 293 -301l-144 -23q-9 110 -68 163t-182 53q-106 0 -169.5 -38t-75.5 -110q-7 -39 1 -70t35 -58t79.5 -48t131.5 -35q206 -37 282 -122.5t52 -223.5q-23 -122 -128.5 -191t-297.5 -69l-35 -250h-114l55 254q-173 20 -259 111t-89 235
l139 21q14 -256 311 -256q245 0 273 159q15 92 -43.5 138.5t-216.5 74.5q-194 37 -268.5 122t-51.5 218q20 118 123.5 185t272.5 67z" />
    <glyph glyph-name="sterling.osf" horiz-adv-x="1099" 
d="M938 0h-944l22 127h207q45 98 60 197q7 41 4 100h-215l18 96h189q-6 61 -8 89t-1 82.5t9 101.5q23 135 123 218t264 83q97 0 166 -27t108 -76t57.5 -104.5t24.5 -126.5l-137 -25q-11 122 -60.5 178t-165.5 56q-111 0 -170.5 -59t-76.5 -150q-14 -91 2 -240h473l-17 -96
h-448q0 -59 -6 -90q-20 -104 -82 -207h627z" />
    <glyph glyph-name="Euro.osf" horiz-adv-x="1204" 
d="M596 -23q-198 0 -305 107t-115 301h-153l14 88h139q2 37 14 115q1 4 2.5 12t2.5 12h-134l17 86h139q60 188 194.5 293t327.5 105q201 0 308 -109.5t112 -296.5l-133 -20q-6 151 -79 227t-220 76q-279 0 -375 -275h369l-16 -86h-377q-1 -6 -4.5 -22t-4.5 -25
q-9 -50 -12 -92h373l-14 -88h-361q13 -287 299 -287q149 0 236 76t149 238l125 -29q-136 -406 -518 -406z" />
    <glyph glyph-name="yen.osf" horiz-adv-x="1150" 
d="M1040 293h-422l-51 -293h-149l51 293h-424l18 96h404l-84 174h-289l17 99h223l-187 385l5 22h151l256 -596h29l461 596h159l-4 -22l-321 -385h223l-19 -99h-286l-146 -174h402z" />
    <glyph glyph-name="a.sc" horiz-adv-x="1099" 
d="M862 0l-71 313h-535l-182 -313h-154l641 1073h189l262 -1073h-150zM397 559l-78 -133h447l-31 133q-47 220 -71 389h-52q-113 -216 -215 -389z" />
    <glyph glyph-name="b.sc" horiz-adv-x="1073" 
d="M610 481h-325l-66 -366h348q119 0 187 46t84 124q16 98 -36 147t-192 49zM680 956h-311l-66 -364h301q231 0 262 184q15 90 -29.5 135t-156.5 45zM55 0l189 1073h448q184 0 262.5 -76.5t53.5 -216.5q-17 -93 -85.5 -151t-177.5 -80l-4 -14q138 -19 197 -86t37 -187
q-21 -122 -124 -192t-292 -70h-504z" />
    <glyph glyph-name="c.sc" horiz-adv-x="1181" 
d="M539 -20q-263 0 -382 161.5t-71 438.5q43 241 200 377.5t404 136.5q217 0 332 -108t123 -296l-141 -22q-15 299 -322 299q-197 0 -310 -108.5t-147 -301.5q-36 -211 44.5 -331t275.5 -120q165 0 263.5 77.5t158.5 234.5l133 -31q-134 -407 -561 -407z" />
    <glyph glyph-name="d.sc" horiz-adv-x="1198" 
d="M633 950h-266l-146 -827h279q222 0 342.5 100.5t154.5 300.5q37 217 -50 321.5t-314 104.5zM55 0l189 1073h413q284 0 407 -148t75 -421q-43 -242 -207.5 -373t-425.5 -131h-451z" />
    <glyph glyph-name="e.sc" horiz-adv-x="1009" 
d="M55 0l189 1073h768l-23 -127h-622l-62 -342h557l-18 -115h-559l-64 -362h623l-23 -127h-766z" />
    <glyph glyph-name="f.sc" horiz-adv-x="942" 
d="M801 440h-525l-77 -440h-144l189 1073h735l-23 -131h-589l-68 -379h524z" />
    <glyph glyph-name="g.sc" horiz-adv-x="1216" 
d="M494 -18q-234 0 -347.5 157t-66.5 430q45 251 198.5 388t407.5 137q219 0 332.5 -103t124.5 -284l-139 -25q-10 146 -89.5 215.5t-234.5 69.5q-203 0 -312.5 -105t-146.5 -309q-36 -204 43.5 -326.5t282.5 -122.5q84 0 152 16.5t113.5 44.5t78 68t50 82.5t26.5 92.5v-2
l4 26h-371l21 111h505l-96 -543h-133l43 246h-14q-63 -120 -170 -192t-262 -72z" />
    <glyph glyph-name="h.sc" horiz-adv-x="1210" 
d="M987 0h-145l84 471h-643l-84 -471h-144l189 1073h145l-84 -473h643l84 473h144z" />
    <glyph glyph-name="i.sc" horiz-adv-x="421" 
d="M199 0h-144l189 1073h145z" />
    <glyph glyph-name="j.sc" horiz-adv-x="581" 
d="M264 276l139 797h146l-143 -803q-47 -284 -318 -284q-69 0 -143 12l26 127q62 -12 115 -12q150 0 178 163z" />
    <glyph glyph-name="k.sc" horiz-adv-x="1062" 
d="M807 0l-426 451h-102l-80 -451h-144l189 1073h145l-90 -504h92l570 504h172l-5 -18l-632 -539l479 -496l-2 -20h-166z" />
    <glyph glyph-name="l.sc" horiz-adv-x="868" 
d="M244 1073h145l-168 -948h543l-23 -125h-686z" />
    <glyph glyph-name="m.sc" horiz-adv-x="1499" 
d="M289 549l-96 -549h-138l189 1073h243l127 -516q31 -120 66 -344h47q86 177 186 348l314 512h237l-188 -1073h-146l99 549q24 149 78 405h-41q-132 -250 -238 -430l-285 -458h-151l-119 464q-53 253 -78 424h-37q-10 -66 -35 -209t-34 -196z" />
    <glyph glyph-name="n.sc" horiz-adv-x="1210" 
d="M793 0l-265 557q-46 103 -139 387h-49q-22 -243 -74 -528l-73 -416h-138l189 1073h215l233 -491q74 -166 158 -430l45 2q21 218 70 501l73 418h138l-189 -1073h-194z" />
    <glyph glyph-name="o.sc" 
d="M559 -20q-181 0 -300 77.5t-162 211t-13 306.5q43 242 207.5 380.5t417.5 138.5q180 0 299.5 -76.5t164 -209t13.5 -304.5q-43 -244 -207.5 -384t-419.5 -140zM571 106q203 0 321.5 109.5t151.5 306.5q23 132 -5 230.5t-114 156.5t-225 58q-203 0 -322.5 -108.5
t-154.5 -303.5q-35 -204 51.5 -326.5t296.5 -122.5z" />
    <glyph glyph-name="p.sc" horiz-adv-x="972" 
d="M637 948h-272l-74 -430h280q134 0 202 48t87 153q19 117 -33.5 173t-189.5 56zM582 395h-314l-69 -395h-144l187 1073h417q199 0 285 -98t55 -277q-27 -141 -134.5 -222t-282.5 -81z" />
    <glyph glyph-name="q.sc" 
d="M571 106q203 0 321.5 109.5t151.5 306.5q23 132 -5 230.5t-114 156.5t-225 58q-203 0 -322.5 -108.5t-154.5 -303.5q-35 -204 51.5 -326.5t296.5 -122.5zM559 -20q-181 0 -300 77.5t-162 211t-13 306.5q43 242 207.5 380.5t417.5 138.5q180 0 299.5 -76.5t164 -209
t13.5 -304.5q-54 -307 -291 -443l106 -215l-4 -20h-147l-80 182q-98 -28 -211 -28z" />
    <glyph glyph-name="r.sc" horiz-adv-x="1110" 
d="M662 950h-295l-70 -395h297q132 0 202 44t85 138q20 106 -30.5 159.5t-188.5 53.5zM797 0l-260 438h-261l-77 -438h-144l189 1073h442q198 0 282 -92t54 -256q-22 -118 -106.5 -189.5t-225.5 -91.5l271 -424l-3 -20h-161z" />
    <glyph glyph-name="s.sc" horiz-adv-x="1046" 
d="M492 -20q-442 3 -455 362l141 23q6 -132 83 -198.5t239 -66.5q266 0 291 160q18 88 -43.5 141t-225.5 82q-212 36 -291.5 126.5t-54.5 226.5q22 124 129.5 191t296.5 67q103 0 177.5 -23t118.5 -67.5t66.5 -99.5t30.5 -130l-141 -24q-16 119 -70.5 172t-189.5 53
q-255 0 -279 -150q-7 -39 1 -70t36.5 -60.5t88 -53t149.5 -39.5q111 -21 186 -56.5t110.5 -80t48 -99.5t-0.5 -114q-46 -272 -442 -272z" />
    <glyph glyph-name="t.sc" horiz-adv-x="964" 
d="M115 942l24 131h899l-22 -131h-379l-166 -942h-143l166 942h-379z" />
    <glyph glyph-name="u.sc" horiz-adv-x="1193" 
d="M553 109q161 0 240 77t106 226l117 661h145l-121 -682q-35 -202 -160 -306.5t-331 -104.5q-236 0 -346 117t-72 335l113 641h145l-117 -653q-54 -311 281 -311z" />
    <glyph glyph-name="v.sc" horiz-adv-x="1097" 
d="M557 0h-186l-262 1073h149l125 -557q62 -285 74 -389h49q86 166 215 389l323 557h154z" />
    <glyph glyph-name="w.sc" horiz-adv-x="1585" 
d="M645 449l-199 -449h-215l-114 1073h153l41 -520q21 -310 23 -428h57q101 265 174 426l240 522h188l54 -522q19 -226 22 -426h55q51 135 174 428l228 520h153l-493 -1073h-217l-43 449q-27 269 -33 495h-39q-57 -148 -209 -495z" />
    <glyph glyph-name="x.sc" horiz-adv-x="1052" 
d="M795 0l-256 471h-37l-402 -471h-155l4 20l475 525l-289 510l4 18h144l245 -463h39l400 463h155l-4 -18l-473 -520l297 -515l-2 -20h-145z" />
    <glyph glyph-name="y.sc" horiz-adv-x="1005" 
d="M492 0h-146l66 369l-314 686l4 18h146l237 -586h31l445 586h151l-2 -18l-555 -686z" />
    <glyph glyph-name="z.sc" horiz-adv-x="1067" 
d="M918 131l-23 -131h-909l22 127l875 823l-6 15q-255 -23 -398 -23h-305l25 131h882l-22 -123l-879 -825l6 -16q271 22 424 22h308z" />
    <glyph glyph-name="aacute.sc" horiz-adv-x="1099" 
d="M862 0l-71 313h-535l-182 -313h-154l641 1073h189l262 -1073h-150zM504 1184l-33 73l520 273l47 -109zM397 559l-78 -133h447l-31 133q-47 220 -71 389h-52q-113 -216 -215 -389z" />
    <glyph glyph-name="abreve.sc" horiz-adv-x="1099" 
d="M862 0l-71 313h-535l-182 -313h-154l641 1073h189l262 -1073h-150zM678 1311q86 0 143.5 46.5t83.5 155.5h86q-51 -307 -317 -307q-137 0 -204 78t-40 229h88q-24 -202 160 -202zM397 559l-78 -133h447l-31 133q-47 220 -71 389h-52q-113 -216 -215 -389z" />
    <glyph glyph-name="acircumflex.sc" horiz-adv-x="1099" 
d="M862 0l-71 313h-535l-182 -313h-154l641 1073h189l262 -1073h-150zM903 1184l-203 219l-278 -219l-53 59l315 283h64l215 -283zM397 559l-78 -133h447l-31 133q-47 220 -71 389h-52q-113 -216 -215 -389z" />
    <glyph glyph-name="adieresis.sc" horiz-adv-x="1099" 
d="M862 0l-71 313h-535l-182 -313h-154l641 1073h189l262 -1073h-150zM420 1419h170l-29 -170h-172zM788 1419h170l-28 -170h-172zM397 559l-78 -133h447l-31 133q-47 220 -71 389h-52q-113 -216 -215 -389z" />
    <glyph glyph-name="agrave.sc" horiz-adv-x="1099" 
d="M862 0l-71 313h-535l-182 -313h-154l641 1073h189l262 -1073h-150zM827 1186l-454 235l67 111l426 -272zM397 559l-78 -133h447l-31 133q-47 220 -71 389h-52q-113 -216 -215 -389z" />
    <glyph glyph-name="amacron.sc" horiz-adv-x="1099" 
d="M862 0l-71 313h-535l-182 -313h-154l641 1073h189l262 -1073h-150zM408 1368h557l-21 -111h-557zM397 559l-78 -133h447l-31 133q-47 220 -71 389h-52q-113 -216 -215 -389z" />
    <glyph glyph-name="aogonek.sc" horiz-adv-x="1099" 
d="M956 -322q-70 -12 -129 -12q-107 0 -157 41.5t-39 114.5q23 124 231 178l-71 313h-535l-182 -313h-154l641 1073h189l262 -1073h-4q-132 -25 -197 -59t-74 -84q-7 -41 23.5 -61.5t95.5 -20.5q41 0 113 16zM397 559l-78 -133h447l-31 133q-47 220 -71 389h-52
q-113 -216 -215 -389z" />
    <glyph glyph-name="aring.sc" horiz-adv-x="1099" 
d="M862 0l-71 313h-535l-182 -313h-154l641 1073h189l262 -1073h-150zM565 1413q-12 -65 18.5 -101t92.5 -36q59 0 98 33.5t49 95.5q12 65 -18 101t-92 36q-59 0 -98.5 -33.5t-49.5 -95.5zM915 1393q-17 -96 -82.5 -150.5t-164.5 -54.5q-107 0 -161 66t-34 169q17 97 83 152
t163 55q106 0 160.5 -66.5t35.5 -170.5zM397 559l-78 -133h447l-31 133q-47 220 -71 389h-52q-113 -216 -215 -389z" />
    <glyph glyph-name="aringacute.sc" horiz-adv-x="1099" 
d="M526 1427l-14 80l541 183l24 -123zM596 1194q-10 -57 16 -89t80 -32q52 0 87 30t44 85q10 57 -16 89t-80 32q-53 0 -87.5 -30t-43.5 -85zM918 1182q-10 -65 -50.5 -112.5t-99.5 -68.5l244 -1001h-150l-71 313h-535l-182 -313h-154l621 1038q-55 61 -37 164
q15 88 78.5 140.5t156.5 52.5q98 0 147 -58t32 -155zM397 559l-78 -133h447l-31 133q-47 220 -71 389h-52q-113 -216 -215 -389z" />
    <glyph glyph-name="atilde.sc" horiz-adv-x="1099" 
d="M862 0l-71 313h-535l-182 -313h-154l641 1073h189l262 -1073h-150zM561 1536q46 0 80.5 -22t54.5 -53t37 -62.5t39.5 -53.5t52.5 -22q43 0 68 48.5t43 156.5h80q-2 -35 -10 -92q-20 -109 -69.5 -165.5t-117.5 -56.5q-44 0 -76.5 21.5t-52 53t-37 62.5t-41.5 52.5
t-55 21.5q-48 0 -72.5 -43.5t-42.5 -152.5h-82q1 23 11 88q20 109 69 164t121 55zM397 559l-78 -133h447l-31 133q-47 220 -71 389h-52q-113 -216 -215 -389z" />
    <glyph glyph-name="ae.sc" horiz-adv-x="1572" 
d="M477 559l-117 -168h328l98 563h-51q-128 -212 -258 -395zM618 0l50 276h-387l-193 -276h-158l766 1073h879l-23 -127h-622l-62 -342h557l-18 -115h-559l-64 -362h623l-23 -127h-766z" />
    <glyph glyph-name="aeacute.sc" horiz-adv-x="1572" 
d="M893 1182l-33 73l520 273l47 -109zM618 0l50 276h-387l-193 -276h-158l766 1073h879l-23 -127h-622l-62 -342h557l-18 -115h-559l-64 -362h623l-23 -127h-766zM477 559l-117 -168h328l98 563h-51q-128 -212 -258 -395z" />
    <glyph glyph-name="cacute.sc" horiz-adv-x="1181" 
d="M539 -20q-263 0 -382 161.5t-71 438.5q43 241 200 377.5t404 136.5q217 0 332 -108t123 -296l-141 -22q-15 299 -322 299q-197 0 -310 -108.5t-147 -301.5q-36 -211 44.5 -331t275.5 -120q165 0 263.5 77.5t158.5 234.5l133 -31q-134 -407 -561 -407zM545 1204l-33 74
l520 272l47 -108z" />
    <glyph glyph-name="ccaron.sc" horiz-adv-x="1181" 
d="M539 -20q-263 0 -382 161.5t-71 438.5q43 241 200 377.5t404 136.5q217 0 332 -108t123 -296l-141 -22q-15 299 -322 299q-197 0 -310 -108.5t-147 -301.5q-36 -211 44.5 -331t275.5 -120q165 0 263.5 77.5t158.5 234.5l133 -31q-134 -407 -561 -407zM729 1219h-61
l-215 282l61 58l199 -218l282 218l49 -58z" />
    <glyph glyph-name="ccedilla.sc" horiz-adv-x="1181" 
d="M539 -20q-29 0 -43 2l-52 -91q44 17 91 17q68 0 104.5 -29.5t26.5 -93.5q-11 -52 -61 -90.5t-140 -38.5q-118 0 -203 59l53 70q70 -51 158 -51q94 0 105 59q6 31 -15 47.5t-65 16.5q-36 0 -90 -13l-50 25l68 119q-205 35 -293.5 191t-46.5 401q43 241 200 377.5
t404 136.5q217 0 332 -108t123 -296l-141 -22q-15 299 -322 299q-197 0 -310 -108.5t-147 -301.5q-36 -211 44.5 -331t275.5 -120q165 0 263.5 77.5t158.5 234.5l133 -31q-134 -407 -561 -407z" />
    <glyph glyph-name="ccircumflex.sc" horiz-adv-x="1181" 
d="M539 -20q-263 0 -382 161.5t-71 438.5q43 241 200 377.5t404 136.5q217 0 332 -108t123 -296l-141 -22q-15 299 -322 299q-197 0 -310 -108.5t-147 -301.5q-36 -211 44.5 -331t275.5 -120q165 0 263.5 77.5t158.5 234.5l133 -31q-134 -407 -561 -407zM944 1204l-203 219
l-278 -219l-53 60l315 282h63l216 -282z" />
    <glyph glyph-name="cdotaccent.sc" horiz-adv-x="1181" 
d="M539 -20q-263 0 -382 161.5t-71 438.5q43 241 200 377.5t404 136.5q217 0 332 -108t123 -296l-141 -22q-15 299 -322 299q-197 0 -310 -108.5t-147 -301.5q-36 -211 44.5 -331t275.5 -120q165 0 263.5 77.5t158.5 234.5l133 -31q-134 -407 -561 -407zM651 1462h178
l-30 -174h-178z" />
    <glyph glyph-name="dcaron.sc" horiz-adv-x="1198" 
d="M633 950h-266l-146 -827h279q222 0 342.5 100.5t154.5 300.5q37 217 -50 321.5t-314 104.5zM55 0l189 1073h413q284 0 407 -148t75 -421q-43 -242 -207.5 -373t-425.5 -131h-451zM745 1198h-61l-215 283l61 57l199 -217l283 217l49 -57z" />
    <glyph glyph-name="dcroat.sc" horiz-adv-x="1253" 
d="M670 489h-332l-64 -366h279q222 0 343 100.5t155 300.5q37 217 -50.5 321.5t-314.5 104.5h-266l-64 -358h332zM109 0l86 489h-150l18 103h150l84 481h414q284 0 406.5 -148t74.5 -421q-43 -242 -207.5 -373t-425.5 -131h-450z" />
    <glyph glyph-name="eacute.sc" horiz-adv-x="1009" 
d="M55 0l189 1073h768l-23 -127h-622l-62 -342h557l-18 -115h-559l-64 -362h623l-23 -127h-766zM477 1184l-33 73l521 273l47 -109z" />
    <glyph glyph-name="ebreve.sc" horiz-adv-x="1009" 
d="M55 0l189 1073h768l-23 -127h-622l-62 -342h557l-18 -115h-559l-64 -362h623l-23 -127h-766zM653 1311q86 0 144 46.5t84 155.5h86q-51 -307 -318 -307q-137 0 -203.5 78t-39.5 229h88q-24 -202 159 -202z" />
    <glyph glyph-name="ecaron.sc" horiz-adv-x="1009" 
d="M55 0l189 1073h768l-23 -127h-622l-62 -342h557l-18 -115h-559l-64 -362h623l-23 -127h-766zM662 1198h-62l-215 283l61 57l199 -217l283 217l49 -57z" />
    <glyph glyph-name="ecircumflex.sc" horiz-adv-x="1009" 
d="M55 0l189 1073h768l-23 -127h-622l-62 -342h557l-18 -115h-559l-64 -362h623l-23 -127h-766zM877 1184l-203 219l-279 -219l-53 59l315 283h64l215 -283z" />
    <glyph glyph-name="edieresis.sc" horiz-adv-x="1009" 
d="M55 0l189 1073h768l-23 -127h-622l-62 -342h557l-18 -115h-559l-64 -362h623l-23 -127h-766zM395 1419h170l-28 -170h-172zM764 1419h170l-29 -170h-172z" />
    <glyph glyph-name="edotaccent.sc" horiz-adv-x="1009" 
d="M55 0l189 1073h768l-23 -127h-622l-62 -342h557l-18 -115h-559l-64 -362h623l-23 -127h-766zM584 1442h178l-31 -174h-178z" />
    <glyph glyph-name="egrave.sc" horiz-adv-x="1009" 
d="M55 0l189 1073h768l-23 -127h-622l-62 -342h557l-18 -115h-559l-64 -362h623l-23 -127h-766zM801 1186l-455 235l68 111l426 -272z" />
    <glyph glyph-name="emacron.sc" horiz-adv-x="1009" 
d="M55 0l189 1073h768l-23 -127h-622l-62 -342h557l-18 -115h-559l-64 -362h623l-23 -127h-766zM383 1368h557l-20 -111h-558z" />
    <glyph glyph-name="eng.sc" horiz-adv-x="1210" 
d="M55 0l189 1073h215l254 -489q97 -196 166 -406h22q27 275 64 477l73 418h138l-195 -1104q-54 -303 -344 -303q-71 0 -145 12l30 127q68 -12 127 -12q165 0 195 174l6 31l-307 557q-85 158 -154 383h-49q-22 -239 -74 -522l-73 -416h-138z" />
    <glyph glyph-name="eogonek.sc" horiz-adv-x="1009" 
d="M766 -322q-70 -12 -129 -12q-107 0 -157.5 41.5t-39.5 114.5q23 124 232 178h-617l189 1073h768l-23 -127h-622l-62 -342h557l-18 -115h-559l-64 -362h623l-23 -127h-4q-132 -25 -196.5 -59t-73.5 -84q-7 -41 23.5 -61.5t95.5 -20.5q40 0 112 16z" />
    <glyph glyph-name="eth.sc" horiz-adv-x="1253" 
d="M670 489h-332l-64 -366h279q222 0 343 100.5t155 300.5q37 217 -50.5 321.5t-314.5 104.5h-266l-64 -358h332zM109 0l86 489h-150l18 103h150l84 481h414q284 0 406.5 -148t74.5 -421q-43 -242 -207.5 -373t-425.5 -131h-450z" />
    <glyph glyph-name="fi.sc" horiz-adv-x="1402" 
d="M801 440h-525l-77 -440h-144l189 1073h735l-23 -131h-589l-68 -379h524zM1180 0h-144l189 1073h145z" />
    <glyph glyph-name="fl.sc" horiz-adv-x="1849" 
d="M801 440h-525l-77 -440h-144l189 1073h735l-23 -131h-589l-68 -379h524zM1225 1073h145l-168 -948h543l-23 -125h-686z" />
    <glyph glyph-name="gbreve.sc" horiz-adv-x="1216" 
d="M494 -18q-234 0 -347.5 157t-66.5 430q45 251 198.5 388t407.5 137q219 0 332.5 -103t124.5 -284l-139 -25q-10 146 -89.5 215.5t-234.5 69.5q-203 0 -312.5 -105t-146.5 -309q-36 -204 43.5 -326.5t282.5 -122.5q84 0 152 16.5t113.5 44.5t78 68t50 82.5t26.5 92.5v-2
l4 26h-371l21 111h505l-96 -543h-133l43 246h-14q-63 -120 -170 -192t-262 -72zM729 1331q85 0 143 46.5t84 156.5h86q-51 -307 -317 -307q-137 0 -204 78t-40 229h88q-24 -203 160 -203z" />
    <glyph glyph-name="gcircumflex.sc" horiz-adv-x="1216" 
d="M494 -18q-234 0 -347.5 157t-66.5 430q45 251 198.5 388t407.5 137q219 0 332.5 -103t124.5 -284l-139 -25q-10 146 -89.5 215.5t-234.5 69.5q-203 0 -312.5 -105t-146.5 -309q-36 -204 43.5 -326.5t282.5 -122.5q84 0 152 16.5t113.5 44.5t78 68t50 82.5t26.5 92.5v-2
l4 26h-371l21 111h505l-96 -543h-133l43 246h-14q-63 -120 -170 -192t-262 -72zM952 1204l-202 219l-279 -219l-53 60l315 282h64l215 -282z" />
    <glyph glyph-name="gcommaaccent.sc" horiz-adv-x="1216" 
d="M494 -18q-234 0 -347.5 157t-66.5 430q45 251 198.5 388t407.5 137q219 0 332.5 -103t124.5 -284l-139 -25q-10 146 -89.5 215.5t-234.5 69.5q-203 0 -312.5 -105t-146.5 -309q-36 -204 43.5 -326.5t282.5 -122.5q84 0 152 16.5t113.5 44.5t78 68t50 82.5t26.5 92.5v-2
l4 26h-371l21 111h505l-96 -543h-133l43 246h-14q-63 -120 -170 -192t-262 -72zM469 -117h125l-174 -307h-96l2 16z" />
    <glyph glyph-name="gdotaccent.sc" horiz-adv-x="1216" 
d="M494 -18q-234 0 -347.5 157t-66.5 430q45 251 198.5 388t407.5 137q219 0 332.5 -103t124.5 -284l-139 -25q-10 146 -89.5 215.5t-234.5 69.5q-203 0 -312.5 -105t-146.5 -309q-36 -204 43.5 -326.5t282.5 -122.5q84 0 152 16.5t113.5 44.5t78 68t50 82.5t26.5 92.5v-2
l4 26h-371l21 111h505l-96 -543h-133l43 246h-14q-63 -120 -170 -192t-262 -72zM659 1462h179l-31 -174h-178z" />
    <glyph glyph-name="hbar.sc" horiz-adv-x="1273" 
d="M969 547l37 201h-646l-34 -201h643zM1018 0h-146l76 422h-645l-74 -422h-145l133 748h-133l18 100h131l41 225h144l-39 -225h643l41 225h143l-39 -225h136l-19 -100h-135z" />
    <glyph glyph-name="hcircumflex.sc" horiz-adv-x="1210" 
d="M987 0h-145l84 471h-643l-84 -471h-144l189 1073h145l-84 -473h643l84 473h144zM958 1184l-202 219l-279 -219l-53 59l315 283h64l215 -283z" />
    <glyph glyph-name="iacute.sc" horiz-adv-x="421" 
d="M199 0h-144l189 1073h145zM164 1184l-33 73l520 273l47 -109z" />
    <glyph glyph-name="ibreve.sc" horiz-adv-x="421" 
d="M199 0h-144l189 1073h145zM340 1311q86 0 143.5 46.5t83.5 155.5h86q-51 -307 -317 -307q-137 0 -204 78t-40 229h88q-24 -202 160 -202z" />
    <glyph glyph-name="icircumflex.sc" horiz-adv-x="421" 
d="M199 0h-144l189 1073h145zM563 1184l-203 219l-278 -219l-53 59l315 283h64l215 -283z" />
    <glyph glyph-name="idieresis.sc" horiz-adv-x="421" 
d="M199 0h-144l189 1073h145zM82 1419h170l-29 -170h-172zM451 1419h170l-29 -170h-172z" />
    <glyph glyph-name="igrave.sc" horiz-adv-x="421" 
d="M199 0h-144l189 1073h145zM487 1186l-454 235l67 111l426 -272z" />
    <glyph glyph-name="ij.sc" horiz-adv-x="1003" 
d="M199 0h-144l189 1073h145zM686 276l139 797h146l-144 -803q-47 -284 -317 -284q-70 0 -143 12l26 127q61 -12 115 -12q150 0 178 163z" />
    <glyph glyph-name="imacron.sc" horiz-adv-x="421" 
d="M199 0h-144l189 1073h145zM70 1368h557l-21 -111h-557z" />
    <glyph glyph-name="iogonek.sc" horiz-adv-x="421" 
d="M199 0q-132 -25 -197 -59t-74 -84q-7 -41 23.5 -61.5t95.5 -20.5q41 0 113 16l-13 -113q-71 -12 -129 -12q-107 0 -157 41.5t-39 114.5q22 123 233 178l189 1073h145z" />
    <glyph glyph-name="itilde.sc" horiz-adv-x="421" 
d="M199 0h-144l189 1073h145zM223 1536q46 0 80.5 -22t54.5 -53t37 -62.5t39.5 -53.5t52.5 -22q43 0 68 48.5t43 156.5h80q-2 -35 -10 -92q-20 -109 -69.5 -165.5t-117.5 -56.5q-44 0 -76.5 21.5t-52 53t-37 62.5t-41.5 52.5t-55 21.5q-48 0 -72.5 -43.5t-42.5 -152.5h-81
q2 35 10 88q20 109 69 164t121 55z" />
    <glyph glyph-name="jcircumflex.sc" horiz-adv-x="581" 
d="M264 276l139 797h146l-143 -803q-47 -284 -318 -284q-69 0 -143 12l26 127q62 -12 115 -12q150 0 178 163zM723 1184l-203 219l-278 -219l-54 59l316 283h63l215 -283z" />
    <glyph glyph-name="kcommaaccent.sc" horiz-adv-x="1062" 
d="M807 0l-426 451h-102l-80 -451h-144l189 1073h145l-90 -504h92l570 504h172l-5 -18l-632 -539l479 -496l-2 -20h-166zM467 -117h125l-174 -307h-96l2 16z" />
    <glyph glyph-name="lacute.sc" horiz-adv-x="868" 
d="M264 1184l-33 73l521 273l47 -109zM244 1073h145l-168 -948h543l-23 -125h-686z" />
    <glyph glyph-name="lcaron.sc" horiz-adv-x="888" 
d="M823 1073h123l-147 -514h-92zM244 1073h145l-168 -948h543l-23 -125h-686z" />
    <glyph glyph-name="lcommaaccent.sc" horiz-adv-x="868" 
d="M244 1073h145l-168 -948h543l-23 -125h-686zM350 -117h125l-174 -307h-96l2 16z" />
    <glyph glyph-name="ldot.sc" horiz-adv-x="878" 
d="M721 680h174l-31 -170h-172zM244 1073h145l-168 -948h543l-23 -125h-686z" />
    <glyph glyph-name="lslash.sc" horiz-adv-x="915" 
d="M270 1073h146l-84 -477l307 141l-21 -106l-305 -139l-65 -367h543l-23 -125h-686l74 420l-148 -68l19 105l147 67z" />
    <glyph glyph-name="nacute.sc" horiz-adv-x="1210" 
d="M793 0l-265 557q-46 103 -139 387h-49q-22 -243 -74 -528l-73 -416h-138l189 1073h215l233 -491q74 -166 158 -430l45 2q21 218 70 501l73 418h138l-189 -1073h-194zM559 1184l-33 73l521 273l47 -109z" />
    <glyph glyph-name="ncaron.sc" horiz-adv-x="1210" 
d="M793 0l-265 557q-46 103 -139 387h-49q-22 -243 -74 -528l-73 -416h-138l189 1073h215l233 -491q74 -166 158 -430l45 2q21 218 70 501l73 418h138l-189 -1073h-194zM743 1198h-61l-215 283l61 57l199 -217l283 217l49 -57z" />
    <glyph glyph-name="ncommaaccent.sc" horiz-adv-x="1210" 
d="M793 0l-265 557q-46 103 -139 387h-49q-22 -243 -74 -528l-73 -416h-138l189 1073h215l233 -491q74 -166 158 -430l45 2q21 218 70 501l73 418h138l-189 -1073h-194zM473 -117h125l-174 -307h-96l2 16z" />
    <glyph glyph-name="ntilde.sc" horiz-adv-x="1210" 
d="M793 0l-265 557q-46 103 -139 387h-49q-22 -243 -74 -528l-73 -416h-138l189 1073h215l233 -491q74 -166 158 -430l45 2q21 218 70 501l73 418h138l-189 -1073h-194zM616 1536q46 0 80.5 -22t54.5 -53t37.5 -62.5t40 -53.5t52.5 -22q43 0 67.5 48.5t42.5 156.5h80
q-2 -35 -10 -92q-20 -109 -69.5 -165.5t-117.5 -56.5q-44 0 -76.5 21.5t-52 53t-37 62.5t-41.5 52.5t-55 21.5q-48 0 -72 -43.5t-42 -152.5h-82q2 35 10 88q20 109 69 164t121 55z" />
    <glyph glyph-name="oacute.sc" 
d="M559 -20q-181 0 -300 77.5t-162 211t-13 306.5q43 242 207.5 380.5t417.5 138.5q180 0 299.5 -76.5t164 -209t13.5 -304.5q-43 -244 -207.5 -384t-419.5 -140zM571 106q203 0 321.5 109.5t151.5 306.5q23 132 -5 230.5t-114 156.5t-225 58q-203 0 -322.5 -108.5
t-154.5 -303.5q-35 -204 51.5 -326.5t296.5 -122.5zM578 1204l-33 74l520 272l47 -108z" />
    <glyph glyph-name="obreve.sc" 
d="M559 -20q-181 0 -300 77.5t-162 211t-13 306.5q43 242 207.5 380.5t417.5 138.5q180 0 299.5 -76.5t164 -209t13.5 -304.5q-43 -244 -207.5 -384t-419.5 -140zM571 106q203 0 321.5 109.5t151.5 306.5q23 132 -5 230.5t-114 156.5t-225 58q-203 0 -322.5 -108.5
t-154.5 -303.5q-35 -204 51.5 -326.5t296.5 -122.5zM754 1331q85 0 143 46.5t84 156.5h86q-51 -307 -317 -307q-137 0 -204 78t-40 229h88q-24 -203 160 -203z" />
    <glyph glyph-name="ocircumflex.sc" 
d="M571 106q203 0 321.5 109.5t151.5 306.5q23 132 -5 230.5t-114 156.5t-225 58q-203 0 -322.5 -108.5t-154.5 -303.5q-35 -204 51.5 -326.5t296.5 -122.5zM559 -20q-181 0 -300 77.5t-162 211t-13 306.5q43 242 207.5 380.5t417.5 138.5q180 0 299.5 -76.5t164 -209
t13.5 -304.5q-43 -244 -207.5 -384t-419.5 -140zM977 1204l-203 219l-278 -219l-54 60l316 282h63l215 -282z" />
    <glyph glyph-name="odieresis.sc" 
d="M559 -20q-181 0 -300 77.5t-162 211t-13 306.5q43 242 207.5 380.5t417.5 138.5q180 0 299.5 -76.5t164 -209t13.5 -304.5q-43 -244 -207.5 -384t-419.5 -140zM571 106q203 0 321.5 109.5t151.5 306.5q23 132 -5 230.5t-114 156.5t-225 58q-203 0 -322.5 -108.5
t-154.5 -303.5q-35 -204 51.5 -326.5t296.5 -122.5zM494 1440h170l-29 -170h-172zM862 1440h170l-28 -170h-173z" />
    <glyph glyph-name="ograve.sc" 
d="M559 -20q-181 0 -300 77.5t-162 211t-13 306.5q43 242 207.5 380.5t417.5 138.5q180 0 299.5 -76.5t164 -209t13.5 -304.5q-43 -244 -207.5 -384t-419.5 -140zM571 106q203 0 321.5 109.5t151.5 306.5q23 132 -5 230.5t-114 156.5t-225 58q-203 0 -322.5 -108.5
t-154.5 -303.5q-35 -204 51.5 -326.5t296.5 -122.5zM901 1206l-455 236l68 110l426 -272z" />
    <glyph glyph-name="ohungarumlaut.sc" 
d="M559 -20q-181 0 -300 77.5t-162 211t-13 306.5q43 242 207.5 380.5t417.5 138.5q180 0 299.5 -76.5t164 -209t13.5 -304.5q-43 -244 -207.5 -384t-419.5 -140zM571 106q203 0 321.5 109.5t151.5 306.5q23 132 -5 230.5t-114 156.5t-225 58q-203 0 -322.5 -108.5
t-154.5 -303.5q-35 -204 51.5 -326.5t296.5 -122.5zM578 1202l-62 45l242 332l94 -68zM846 1204l-60 51l258 322l89 -72z" />
    <glyph glyph-name="omacron.sc" 
d="M559 -20q-181 0 -300 77.5t-162 211t-13 306.5q43 242 207.5 380.5t417.5 138.5q180 0 299.5 -76.5t164 -209t13.5 -304.5q-43 -244 -207.5 -384t-419.5 -140zM571 106q203 0 321.5 109.5t151.5 306.5q23 132 -5 230.5t-114 156.5t-225 58q-203 0 -322.5 -108.5
t-154.5 -303.5q-35 -204 51.5 -326.5t296.5 -122.5zM483 1389h557l-20 -111h-557z" />
    <glyph glyph-name="oslash.sc" horiz-adv-x="1247" 
d="M219 555q-30 -174 29 -293l721 619q-90 90 -269 90q-205 0 -325.5 -109.5t-155.5 -306.5zM559 -20q-234 0 -360 126l-123 -106h-119l2 16l184 156q-101 154 -59 403q43 242 207.5 380.5t417.5 138.5q232 0 362 -127l123 106h115l-4 -16l-181 -154q106 -158 62 -399
q-43 -244 -207.5 -384t-419.5 -140zM569 102q206 0 326.5 110.5t153.5 309.5q31 177 -29 289l-721 -618q94 -91 270 -91z" />
    <glyph glyph-name="oslashacute.sc" horiz-adv-x="1247" 
d="M219 555q-30 -174 29 -293l721 619q-90 90 -269 90q-205 0 -325.5 -109.5t-155.5 -306.5zM559 -20q-234 0 -360 126l-123 -106h-119l2 16l184 156q-101 154 -59 403q43 242 207.5 380.5t417.5 138.5q232 0 362 -127l123 106h115l-4 -16l-181 -154q106 -158 62 -399
q-43 -244 -207.5 -384t-419.5 -140zM618 1202l-32 74l520 272l47 -108zM569 102q206 0 326.5 110.5t153.5 309.5q31 177 -29 289l-721 -618q94 -91 270 -91z" />
    <glyph glyph-name="otilde.sc" 
d="M559 -20q-181 0 -300 77.5t-162 211t-13 306.5q43 242 207.5 380.5t417.5 138.5q180 0 299.5 -76.5t164 -209t13.5 -304.5q-43 -244 -207.5 -384t-419.5 -140zM571 106q203 0 321.5 109.5t151.5 306.5q23 132 -5 230.5t-114 156.5t-225 58q-203 0 -322.5 -108.5
t-154.5 -303.5q-35 -204 51.5 -326.5t296.5 -122.5zM635 1556q46 0 80.5 -22t54.5 -53t37 -62.5t39.5 -53.5t52.5 -22q43 0 68 48.5t43 156.5h80q-1 -22 -11 -92q-20 -109 -69 -165t-117 -56q-44 0 -76.5 21.5t-52 52.5t-37 62.5t-41.5 53t-55 21.5q-48 0 -72.5 -44
t-42.5 -153h-82q2 35 10 88q20 108 69.5 163.5t121.5 55.5z" />
    <glyph glyph-name="oe.sc" horiz-adv-x="1689" 
d="M588 125h131l143 825h-178q-192 0 -310.5 -106t-148.5 -285q-37 -201 53.5 -317.5t309.5 -116.5zM575 0q-280 0 -408 158t-83 420q40 225 203.5 360t408.5 135h957l-23 -127h-622l-62 -342h557l-18 -115h-559l-64 -362h623l-23 -127h-887z" />
    <glyph glyph-name="racute.sc" horiz-adv-x="1110" 
d="M662 950h-295l-70 -395h297q132 0 202 44t85 138q20 106 -30.5 159.5t-188.5 53.5zM797 0l-260 438h-261l-77 -438h-144l189 1073h442q198 0 282 -92t54 -256q-22 -118 -106.5 -189.5t-225.5 -91.5l271 -424l-3 -20h-161zM526 1184l-32 73l520 273l47 -109z" />
    <glyph glyph-name="rcaron.sc" horiz-adv-x="1110" 
d="M662 950h-295l-70 -395h297q132 0 202 44t85 138q20 106 -30.5 159.5t-188.5 53.5zM797 0l-260 438h-261l-77 -438h-144l189 1073h442q198 0 282 -92t54 -256q-22 -118 -106.5 -189.5t-225.5 -91.5l271 -424l-3 -20h-161zM682 1198h-61l-215 283l61 57l199 -217l282 217
l49 -57z" />
    <glyph glyph-name="rcommaaccent.sc" horiz-adv-x="1110" 
d="M442 -117h125l-174 -307h-96l2 16zM662 950h-295l-70 -395h297q132 0 202 44t85 138q20 106 -30.5 159.5t-188.5 53.5zM797 0l-260 438h-261l-77 -438h-144l189 1073h442q198 0 282 -92t54 -256q-22 -118 -106.5 -189.5t-225.5 -91.5l271 -424l-3 -20h-161z" />
    <glyph glyph-name="sacute.sc" horiz-adv-x="1046" 
d="M492 -20q-442 3 -455 362l141 23q6 -132 83 -198.5t239 -66.5q266 0 291 160q18 88 -43.5 141t-225.5 82q-212 36 -291.5 126.5t-54.5 226.5q22 124 129.5 191t296.5 67q103 0 177.5 -23t118.5 -67.5t66.5 -99.5t30.5 -130l-141 -24q-16 119 -70.5 172t-189.5 53
q-255 0 -279 -150q-7 -39 1 -70t36.5 -60.5t88 -53t149.5 -39.5q111 -21 186 -56.5t110.5 -80t48 -99.5t-0.5 -114q-46 -272 -442 -272zM471 1204l-33 74l520 272l48 -108z" />
    <glyph glyph-name="scaron.sc" horiz-adv-x="1046" 
d="M492 -20q-442 3 -455 362l141 23q6 -132 83 -198.5t239 -66.5q266 0 291 160q18 88 -43.5 141t-225.5 82q-212 36 -291.5 126.5t-54.5 226.5q22 124 129.5 191t296.5 67q103 0 177.5 -23t118.5 -67.5t66.5 -99.5t30.5 -130l-141 -24q-16 119 -70.5 172t-189.5 53
q-255 0 -279 -150q-7 -39 1 -70t36.5 -60.5t88 -53t149.5 -39.5q111 -21 186 -56.5t110.5 -80t48 -99.5t-0.5 -114q-46 -272 -442 -272zM655 1219h-61l-215 282l61 58l199 -218l283 218l49 -58z" />
    <glyph glyph-name="scedilla.sc" horiz-adv-x="1046" 
d="M492 -20q-13 0 -36 1t-32 1l-53 -91q44 17 90 17q68 0 104.5 -29.5t26.5 -93.5q-11 -52 -61 -90.5t-140 -38.5q-118 0 -203 59l54 70q70 -51 157 -51q94 0 105 59q6 31 -15 47.5t-65 16.5q-36 0 -90 -13l-49 25l67 123q-305 51 -315 350l141 23q6 -132 83 -198.5
t239 -66.5q266 0 291 160q18 88 -43.5 141t-225.5 82q-212 36 -291.5 126.5t-54.5 226.5q22 124 129.5 191t296.5 67q103 0 177.5 -23t118.5 -67.5t66.5 -99.5t30.5 -130l-141 -24q-16 119 -70.5 172t-189.5 53q-255 0 -279 -150q-7 -39 1 -70t36.5 -60.5t88 -53
t149.5 -39.5q111 -21 186 -56.5t110.5 -80t48 -99.5t-0.5 -114q-46 -272 -442 -272z" />
    <glyph glyph-name="scircumflex.sc" horiz-adv-x="1046" 
d="M492 -20q-442 3 -455 362l141 23q6 -132 83 -198.5t239 -66.5q266 0 291 160q18 88 -43.5 141t-225.5 82q-212 36 -291.5 126.5t-54.5 226.5q22 124 129.5 191t296.5 67q103 0 177.5 -23t118.5 -67.5t66.5 -99.5t30.5 -130l-141 -24q-16 119 -70.5 172t-189.5 53
q-255 0 -279 -150q-7 -39 1 -70t36.5 -60.5t88 -53t149.5 -39.5q111 -21 186 -56.5t110.5 -80t48 -99.5t-0.5 -114q-46 -272 -442 -272zM870 1204l-202 219l-279 -219l-53 60l315 282h64l215 -282z" />
    <glyph glyph-name="scommaaccent.sc" horiz-adv-x="1046" 
d="M492 -20q-442 3 -455 362l141 23q6 -132 83 -198.5t239 -66.5q266 0 291 160q18 88 -43.5 141t-225.5 82q-212 36 -291.5 126.5t-54.5 226.5q22 124 129.5 191t296.5 67q103 0 177.5 -23t118.5 -67.5t66.5 -99.5t30.5 -130l-141 -24q-16 119 -70.5 172t-189.5 53
q-255 0 -279 -150q-7 -39 1 -70t36.5 -60.5t88 -53t149.5 -39.5q111 -21 186 -56.5t110.5 -80t48 -99.5t-0.5 -114q-46 -272 -442 -272zM387 -117h125l-174 -307h-96l2 16z" />
    <glyph glyph-name="tbar.sc" horiz-adv-x="962" 
d="M115 942l24 131h899l-22 -131h-379l-70 -395h275l-19 -98h-272l-80 -449h-143l80 449h-279l18 98h277l70 395h-379z" />
    <glyph glyph-name="tcaron.sc" horiz-adv-x="964" 
d="M1016 942h-379l-166 -942h-143l166 942h-379l24 131h899zM621 1198h-62l-215 283l62 57l198 -217l283 217l49 -57z" />
    <glyph glyph-name="tcommaaccent.sc" horiz-adv-x="964" 
d="M115 942l24 131h899l-22 -131h-379l-166 -942h-68l-63 -109q44 17 90 17q68 0 104.5 -29.5t26.5 -93.5q-11 -52 -61 -90.5t-140 -38.5q-117 0 -202 59l53 70q70 -51 158 -51q93 0 104 59q6 31 -15 47.5t-65 16.5q-36 0 -90 -13l-49 25l74 133l166 940h-379z" />
    <glyph glyph-name="uni021B.sc" horiz-adv-x="964" 
d="M115 942l24 131h899l-22 -131h-379l-166 -942h-143l166 942h-379zM352 -117h125l-174 -307h-96l2 16z" />
    <glyph glyph-name="thorn.sc" horiz-adv-x="1030" 
d="M244 1073h143l-33 -184h279q202 0 290 -93t56 -278q-25 -143 -137 -225t-295 -82h-311l-37 -211h-144zM614 764h-282l-74 -430h287q129 0 200.5 49.5t90.5 153.5q22 118 -29 172.5t-193 54.5z" />
    <glyph glyph-name="uacute.sc" horiz-adv-x="1193" 
d="M553 109q161 0 240 77t106 226l117 661h145l-121 -682q-35 -202 -160 -306.5t-331 -104.5q-236 0 -346 117t-72 335l113 641h145l-117 -653q-54 -311 281 -311zM551 1184l-33 73l520 273l47 -109z" />
    <glyph glyph-name="ubreve.sc" horiz-adv-x="1193" 
d="M553 109q161 0 240 77t106 226l117 661h145l-121 -682q-35 -202 -160 -306.5t-331 -104.5q-236 0 -346 117t-72 335l113 641h145l-117 -653q-54 -311 281 -311zM727 1311q86 0 143.5 46.5t83.5 155.5h86q-51 -307 -317 -307q-137 0 -204 78t-40 229h88q-24 -202 160 -202
z" />
    <glyph glyph-name="ucircumflex.sc" horiz-adv-x="1193" 
d="M553 109q161 0 240 77t106 226l117 661h145l-121 -682q-35 -202 -160 -306.5t-331 -104.5q-236 0 -346 117t-72 335l113 641h145l-117 -653q-54 -311 281 -311zM950 1184l-202 219l-279 -219l-53 59l315 283h64l215 -283z" />
    <glyph glyph-name="udieresis.sc" horiz-adv-x="1193" 
d="M553 109q161 0 240 77t106 226l117 661h145l-121 -682q-35 -202 -160 -306.5t-331 -104.5q-236 0 -346 117t-72 335l113 641h145l-117 -653q-54 -311 281 -311zM467 1419h170l-29 -170h-172zM836 1419h170l-29 -170h-172z" />
    <glyph glyph-name="ugrave.sc" horiz-adv-x="1193" 
d="M553 109q161 0 240 77t106 226l117 661h145l-121 -682q-35 -202 -160 -306.5t-331 -104.5q-236 0 -346 117t-72 335l113 641h145l-117 -653q-54 -311 281 -311zM874 1186l-454 235l67 111l426 -272z" />
    <glyph glyph-name="uhungarumlaut.sc" horiz-adv-x="1193" 
d="M553 109q161 0 240 77t106 226l117 661h145l-121 -682q-35 -202 -160 -306.5t-331 -104.5q-236 0 -346 117t-72 335l113 641h145l-117 -653q-54 -311 281 -311zM551 1182l-62 45l242 332l94 -68zM819 1184l-59 51l258 321l88 -71z" />
    <glyph glyph-name="umacron.sc" horiz-adv-x="1193" 
d="M553 109q161 0 240 77t106 226l117 661h145l-121 -682q-35 -202 -160 -306.5t-331 -104.5q-236 0 -346 117t-72 335l113 641h145l-117 -653q-54 -311 281 -311zM457 1368h557l-21 -111h-557z" />
    <glyph glyph-name="uogonek.sc" horiz-adv-x="1193" 
d="M553 109q161 0 240 77t106 226l117 661h145l-121 -682q-34 -194 -151 -299t-311 -112q-166 -43 -181 -123q-7 -41 23.5 -61.5t95.5 -20.5q41 0 113 16l-13 -113q-70 -12 -129 -12q-107 0 -157 41.5t-39 114.5q20 106 178 162q-197 20 -285 135t-53 313l113 641h145
l-117 -653q-54 -311 281 -311z" />
    <glyph glyph-name="uring.sc" horiz-adv-x="1193" 
d="M553 109q161 0 240 77t106 226l117 661h145l-121 -682q-35 -202 -160 -306.5t-331 -104.5q-236 0 -346 117t-72 335l113 641h145l-117 -653q-54 -311 281 -311zM963 1393q-17 -96 -83 -150.5t-165 -54.5q-107 0 -161 66t-34 169q17 97 83 152t163 55q107 0 161.5 -67
t35.5 -170zM612 1413q-12 -65 18.5 -101t92.5 -36q59 0 98 33.5t49 95.5q12 65 -18 101t-92 36q-59 0 -98.5 -33.5t-49.5 -95.5z" />
    <glyph glyph-name="utilde.sc" horiz-adv-x="1193" 
d="M553 109q161 0 240 77t106 226l117 661h145l-121 -682q-35 -202 -160 -306.5t-331 -104.5q-236 0 -346 117t-72 335l113 641h145l-117 -653q-54 -311 281 -311zM608 1536q46 0 80.5 -22t54.5 -53t37 -62.5t39.5 -53.5t52.5 -22q43 0 68 48.5t43 156.5h80q-2 -35 -10 -92
q-20 -109 -69.5 -165.5t-117.5 -56.5q-44 0 -76.5 21.5t-52 53t-37 62.5t-41.5 52.5t-55 21.5q-48 0 -72.5 -43.5t-42.5 -152.5h-81q2 35 10 88q20 109 69 164t121 55z" />
    <glyph glyph-name="wacute.sc" horiz-adv-x="1585" 
d="M645 449l-199 -449h-215l-114 1073h153l41 -520q21 -310 23 -428h57q101 265 174 426l240 522h188l54 -522q19 -226 22 -426h55q51 135 174 428l228 520h153l-493 -1073h-217l-43 449q-27 269 -33 495h-39q-57 -148 -209 -495zM748 1184l-33 73l520 273l47 -109z" />
    <glyph glyph-name="wcircumflex.sc" horiz-adv-x="1585" 
d="M645 449l-199 -449h-215l-114 1073h153l41 -520q21 -310 23 -428h57q101 265 174 426l240 522h188l54 -522q19 -226 22 -426h55q51 135 174 428l228 520h153l-493 -1073h-217l-43 449q-27 269 -33 495h-39q-57 -148 -209 -495zM1147 1184l-203 219l-278 -219l-54 59
l316 283h63l215 -283z" />
    <glyph glyph-name="wdieresis.sc" horiz-adv-x="1585" 
d="M645 449l-199 -449h-215l-114 1073h153l41 -520q21 -310 23 -428h57q101 265 174 426l240 522h188l54 -522q19 -226 22 -426h55q51 135 174 428l228 520h153l-493 -1073h-217l-43 449q-27 269 -33 495h-39q-57 -148 -209 -495zM666 1419h170l-29 -170h-172zM1034 1419
h170l-28 -170h-172z" />
    <glyph glyph-name="wgrave.sc" horiz-adv-x="1585" 
d="M645 449l-199 -449h-215l-114 1073h153l41 -520q21 -310 23 -428h57q101 265 174 426l240 522h188l54 -522q19 -226 22 -426h55q51 135 174 428l228 520h153l-493 -1073h-217l-43 449q-27 269 -33 495h-39q-57 -148 -209 -495zM1073 1186l-455 235l68 111l426 -272z" />
    <glyph glyph-name="yacute.sc" horiz-adv-x="1005" 
d="M492 0h-146l66 369l-314 686l4 18h146l237 -586h31l445 586h151l-2 -18l-555 -686zM457 1184l-33 73l520 273l47 -109z" />
    <glyph glyph-name="ycircumflex.sc" horiz-adv-x="1005" 
d="M492 0h-146l66 369l-314 686l4 18h146l237 -586h31l445 586h151l-2 -18l-555 -686zM854 1184l-203 219l-278 -219l-54 59l316 283h63l215 -283z" />
    <glyph glyph-name="ydieresis.sc" horiz-adv-x="1005" 
d="M492 0h-146l66 369l-314 686l4 18h146l237 -586h31l445 586h151l-2 -18l-555 -686zM373 1419h170l-29 -170h-172zM741 1419h170l-28 -170h-172z" />
    <glyph glyph-name="zacute.sc" horiz-adv-x="1067" 
d="M918 131l-23 -131h-909l22 127l875 823l-6 15q-255 -23 -398 -23h-305l25 131h882l-22 -123l-879 -825l6 -16q271 22 424 22h308zM477 1184l-33 73l521 273l47 -109z" />
    <glyph glyph-name="zcaron.sc" horiz-adv-x="1067" 
d="M918 131l-23 -131h-909l22 127l875 823l-6 15q-255 -23 -398 -23h-305l25 131h882l-22 -123l-879 -825l6 -16q271 22 424 22h308zM662 1198h-62l-215 283l61 57l199 -217l283 217l49 -57z" />
    <glyph glyph-name="zdotaccent.sc" horiz-adv-x="1067" 
d="M918 131l-23 -131h-909l22 127l875 823l-6 15q-255 -23 -398 -23h-305l25 131h882l-22 -123l-879 -825l6 -16q271 22 424 22h308zM586 1442h178l-31 -174h-178z" />
    <glyph glyph-name="germandbls.sc" horiz-adv-x="1196" 
d="M737 -20q-264 0 -364 196l90 84q83 -156 274 -156q189 0 211 140q7 39 -2 69.5t-34.5 53t-54.5 37t-73 30.5q-54 19 -93 40.5t-72 52t-46 72t-4 93.5q29 162 334 258l-2 19q-161 -17 -276 -17q-258 0 -310 -290l-116 -662h-144l119 676q34 194 153 295.5t316 101.5h428
l-18 -121q-179 -69 -260 -125.5t-91 -119.5q-11 -61 29 -95.5t131 -68.5q129 -45 186 -120.5t35 -197.5q-20 -110 -107 -177.5t-239 -67.5z" />
    <glyph glyph-name="a.alt" horiz-adv-x="1003" 
d="M354 96q143 0 241.5 71.5t119.5 182.5l12 66h-313q-212 0 -238 -148q-12 -74 30 -123t148 -49zM659 0l39 227h-14q-57 -120 -154.5 -183.5t-222.5 -63.5q-146 0 -217.5 78.5t-48.5 215.5q21 117 113.5 181.5t255.5 64.5h333l17 88q21 122 -24 184t-171 62
q-106 0 -177 -52t-114 -159l-124 39q116 291 419 291q194 0 276.5 -99.5t51.5 -277.5l-104 -596h-134z" />
    <glyph glyph-name="aacute.alt" horiz-adv-x="1003" 
d="M453 1071l-33 74l520 272l47 -108zM354 96q143 0 241.5 71.5t119.5 182.5l12 66h-313q-212 0 -238 -148q-12 -74 30 -123t148 -49zM659 0l39 227h-14q-57 -120 -154.5 -183.5t-222.5 -63.5q-146 0 -217.5 78.5t-48.5 215.5q21 117 113.5 181.5t255.5 64.5h333l17 88
q21 122 -24 184t-171 62q-106 0 -177 -52t-114 -159l-124 39q116 291 419 291q194 0 276.5 -99.5t51.5 -277.5l-104 -596h-134z" />
    <glyph glyph-name="abreve.alt" horiz-adv-x="1003" 
d="M629 1198q85 0 143 46.5t84 156.5h86q-51 -307 -317 -307q-137 0 -204 78t-40 229h88q-24 -203 160 -203zM354 96q143 0 241.5 71.5t119.5 182.5l12 66h-313q-212 0 -238 -148q-12 -74 30 -123t148 -49zM659 0l39 227h-14q-57 -120 -154.5 -183.5t-222.5 -63.5
q-146 0 -217.5 78.5t-48.5 215.5q21 117 113.5 181.5t255.5 64.5h333l17 88q21 122 -24 184t-171 62q-106 0 -177 -52t-114 -159l-124 39q116 291 419 291q194 0 276.5 -99.5t51.5 -277.5l-104 -596h-134z" />
    <glyph glyph-name="acircumflex.alt" horiz-adv-x="1003" 
d="M852 1071l-203 219l-278 -219l-54 59l316 283h63l215 -283zM354 96q143 0 241.5 71.5t119.5 182.5l12 66h-313q-212 0 -238 -148q-12 -74 30 -123t148 -49zM659 0l39 227h-14q-57 -120 -154.5 -183.5t-222.5 -63.5q-146 0 -217.5 78.5t-48.5 215.5q21 117 113.5 181.5
t255.5 64.5h333l17 88q21 122 -24 184t-171 62q-106 0 -177 -52t-114 -159l-124 39q116 291 419 291q194 0 276.5 -99.5t51.5 -277.5l-104 -596h-134z" />
    <glyph glyph-name="adieresis.alt" horiz-adv-x="1003" 
d="M369 1307h170l-29 -170h-172zM737 1307h170l-28 -170h-172zM354 96q143 0 241.5 71.5t119.5 182.5l12 66h-313q-212 0 -238 -148q-12 -74 30 -123t148 -49zM659 0l39 227h-14q-57 -120 -154.5 -183.5t-222.5 -63.5q-146 0 -217.5 78.5t-48.5 215.5q21 117 113.5 181.5
t255.5 64.5h333l17 88q21 122 -24 184t-171 62q-106 0 -177 -52t-114 -159l-124 39q116 291 419 291q194 0 276.5 -99.5t51.5 -277.5l-104 -596h-134z" />
    <glyph glyph-name="agrave.alt" horiz-adv-x="1003" 
d="M776 1073l-454 236l67 110l426 -272zM354 96q143 0 241.5 71.5t119.5 182.5l12 66h-313q-212 0 -238 -148q-12 -74 30 -123t148 -49zM659 0l39 227h-14q-57 -120 -154.5 -183.5t-222.5 -63.5q-146 0 -217.5 78.5t-48.5 215.5q21 117 113.5 181.5t255.5 64.5h333l17 88
q21 122 -24 184t-171 62q-106 0 -177 -52t-114 -159l-124 39q116 291 419 291q194 0 276.5 -99.5t51.5 -277.5l-104 -596h-134z" />
    <glyph glyph-name="amacron.alt" horiz-adv-x="1003" 
d="M358 1255h557l-20 -110h-557zM354 96q143 0 241.5 71.5t119.5 182.5l12 66h-313q-212 0 -238 -148q-12 -74 30 -123t148 -49zM659 0l39 227h-14q-57 -120 -154.5 -183.5t-222.5 -63.5q-146 0 -217.5 78.5t-48.5 215.5q21 117 113.5 181.5t255.5 64.5h333l17 88
q21 122 -24 184t-171 62q-106 0 -177 -52t-114 -159l-124 39q116 291 419 291q194 0 276.5 -99.5t51.5 -277.5l-104 -596h-134z" />
    <glyph glyph-name="aogonek.alt" horiz-adv-x="1015" 
d="M354 96q143 0 241.5 71.5t119.5 182.5l12 66h-313q-212 0 -238 -148q-12 -74 30 -123t148 -49zM735 -322q-71 -12 -129 -12q-107 0 -157 41.5t-39 114.5q12 65 78 111.5t171 70.5l39 223h-14q-57 -120 -154.5 -183.5t-222.5 -63.5q-146 0 -217.5 78.5t-48.5 215.5
q21 117 113.5 181.5t255.5 64.5h333l17 88q21 122 -24 184t-171 62q-106 0 -177 -52t-114 -159l-124 39q116 291 419 291q194 0 276.5 -99.5t51.5 -277.5l-104 -596h-7q-132 -25 -196.5 -59t-73.5 -84q-7 -41 23.5 -61.5t95.5 -20.5q41 0 113 16z" />
    <glyph glyph-name="aring.alt" horiz-adv-x="1003" 
d="M514 1300q-12 -65 18.5 -101t92.5 -36q59 0 98 33.5t49 95.5q12 65 -18 101.5t-92 36.5q-59 0 -98.5 -34t-49.5 -96zM864 1280q-17 -96 -83 -150.5t-165 -54.5q-107 0 -160.5 66.5t-33.5 169.5q17 97 83 152t163 55q106 0 160.5 -67t35.5 -171zM354 96q143 0 241.5 71.5
t119.5 182.5l12 66h-313q-212 0 -238 -148q-12 -74 30 -123t148 -49zM659 0l39 227h-14q-57 -120 -154.5 -183.5t-222.5 -63.5q-146 0 -217.5 78.5t-48.5 215.5q21 117 113.5 181.5t255.5 64.5h333l17 88q21 122 -24 184t-171 62q-106 0 -177 -52t-114 -159l-124 39
q116 291 419 291q194 0 276.5 -99.5t51.5 -277.5l-104 -596h-134z" />
    <glyph glyph-name="aringacute.alt" horiz-adv-x="1003" 
d="M541 1528l-9 78l521 180l18 -127zM569 1262q-10 -56 16 -88.5t81 -32.5q52 0 87 29.5t44 84.5q10 56 -16 88.5t-81 32.5q-53 0 -87.5 -29.5t-43.5 -84.5zM891 1249q-15 -88 -80 -141t-158 -53q-98 0 -145.5 59t-30.5 156q15 88 78.5 140t157.5 52q98 0 146.5 -58
t31.5 -155zM354 96q143 0 241.5 71.5t119.5 182.5l12 66h-313q-212 0 -238 -148q-12 -74 30 -123t148 -49zM659 0l39 227h-14q-57 -120 -154.5 -183.5t-222.5 -63.5q-146 0 -217.5 78.5t-48.5 215.5q21 117 113.5 181.5t255.5 64.5h333l17 88q21 122 -24 184t-171 62
q-106 0 -177 -52t-114 -159l-124 39q116 291 419 291q194 0 276.5 -99.5t51.5 -277.5l-104 -596h-134z" />
    <glyph glyph-name="atilde.alt" horiz-adv-x="1003" 
d="M510 1423q46 0 80.5 -22t54.5 -53.5t37 -62.5t39.5 -53t52.5 -22q43 0 68 48.5t43 156.5h80q-1 -22 -11 -92q-20 -109 -69 -165t-117 -56q-44 0 -76.5 21.5t-52 53t-37 62.5t-41.5 52.5t-55 21.5q-48 0 -72.5 -44t-42.5 -153h-82q2 35 10 88q20 108 69.5 163.5
t121.5 55.5zM354 96q143 0 241.5 71.5t119.5 182.5l12 66h-313q-212 0 -238 -148q-12 -74 30 -123t148 -49zM659 0l39 227h-14q-57 -120 -154.5 -183.5t-222.5 -63.5q-146 0 -217.5 78.5t-48.5 215.5q21 117 113.5 181.5t255.5 64.5h333l17 88q21 122 -24 184t-171 62
q-106 0 -177 -52t-114 -159l-124 39q116 291 419 291q194 0 276.5 -99.5t51.5 -277.5l-104 -596h-134z" />
    <glyph glyph-name="G.alt" horiz-adv-x="1280" 
d="M1212 512q-20 -114 -65 -207.5t-118 -167.5t-183 -115.5t-248 -41.5q-293 0 -426 174t-76 495q49 278 218 440t440 162q241 0 362 -117t135 -329l-141 -23q-14 172 -100.5 254t-261.5 82q-421 0 -508 -489q-43 -245 46 -384t318 -139q395 0 465 388h-410l23 129h551z" />
    <glyph glyph-name="Gbreve.alt" horiz-adv-x="1280" 
d="M1212 512q-20 -114 -65 -207.5t-118 -167.5t-183 -115.5t-248 -41.5q-293 0 -426 174t-76 495q49 278 218 440t440 162q241 0 362 -117t135 -329l-141 -23q-14 172 -100.5 254t-261.5 82q-421 0 -508 -489q-43 -245 46 -384t318 -139q395 0 465 388h-410l23 129h551z
M817 1448q184 0 227 174h86q-45 -281 -317 -281q-134 0 -200.5 71.5t-43.5 209.5h86q-16 -174 162 -174z" />
    <glyph glyph-name="Gcircumflex.alt" horiz-adv-x="1280" 
d="M1212 512q-20 -114 -65 -207.5t-118 -167.5t-183 -115.5t-248 -41.5q-293 0 -426 174t-76 495q49 278 218 440t440 162q241 0 362 -117t135 -329l-141 -23q-14 172 -100.5 254t-261.5 82q-421 0 -508 -489q-43 -245 46 -384t318 -139q395 0 465 388h-410l23 129h551z
M1049 1329l-213 178l-277 -178l-45 64l305 233h64l223 -233z" />
    <glyph glyph-name="Gcommaaccent.alt" horiz-adv-x="1280" 
d="M1212 512q-20 -114 -65 -207.5t-118 -167.5t-183 -115.5t-248 -41.5q-293 0 -426 174t-76 495q49 278 218 440t440 162q241 0 362 -117t135 -329l-141 -23q-14 172 -100.5 254t-261.5 82q-421 0 -508 -489q-43 -245 46 -384t318 -139q395 0 465 388h-410l23 129h551z
M518 -117h125l-174 -307h-96l2 16z" />
    <glyph glyph-name="Gdotaccent.alt" horiz-adv-x="1280" 
d="M1212 512q-20 -114 -65 -207.5t-118 -167.5t-183 -115.5t-248 -41.5q-293 0 -426 174t-76 495q49 278 218 440t440 162q241 0 362 -117t135 -329l-141 -23q-14 172 -100.5 254t-261.5 82q-421 0 -508 -489q-43 -245 46 -384t318 -139q395 0 465 388h-410l23 129h551z
M729 1575h178l-30 -174h-179z" />
    <glyph glyph-name="g.sc.alt" horiz-adv-x="1200" 
d="M977 436h-367l21 109h499l-18 -99q-18 -100 -57.5 -181.5t-106 -147t-169.5 -101.5t-234 -36q-266 0 -390 157.5t-75 440.5q42 241 196.5 378.5t403.5 137.5q226 0 341.5 -103t123.5 -286l-144 -25q-9 149 -88.5 217t-238.5 68q-193 0 -304.5 -104t-144.5 -294
q-38 -218 43 -338t291 -120q100 0 175.5 24t123.5 69.5t76.5 102.5t42.5 131z" />
    <glyph glyph-name="gbreve.sc.alt" horiz-adv-x="1200" 
d="M977 436h-367l21 109h499l-18 -99q-18 -100 -57.5 -181.5t-106 -147t-169.5 -101.5t-234 -36q-266 0 -390 157.5t-75 440.5q42 241 196.5 378.5t403.5 137.5q226 0 341.5 -103t123.5 -286l-144 -25q-9 149 -88.5 217t-238.5 68q-193 0 -304.5 -104t-144.5 -294
q-38 -218 43 -338t291 -120q100 0 175.5 24t123.5 69.5t76.5 102.5t42.5 131zM727 1331q85 0 143 46.5t84 156.5h86q-51 -307 -317 -307q-137 0 -204 78t-40 229h88q-24 -203 160 -203z" />
    <glyph glyph-name="gcircumflex.sc.alt" horiz-adv-x="1200" 
d="M977 436h-367l21 109h499l-18 -99q-18 -100 -57.5 -181.5t-106 -147t-169.5 -101.5t-234 -36q-266 0 -390 157.5t-75 440.5q42 241 196.5 378.5t403.5 137.5q226 0 341.5 -103t123.5 -286l-144 -25q-9 149 -88.5 217t-238.5 68q-193 0 -304.5 -104t-144.5 -294
q-38 -218 43 -338t291 -120q100 0 175.5 24t123.5 69.5t76.5 102.5t42.5 131zM948 1204l-203 219l-278 -219l-53 60l315 282h64l215 -282z" />
    <glyph glyph-name="gcommaaccent.sc.alt" horiz-adv-x="1200" 
d="M977 436h-367l21 109h499l-18 -99q-18 -100 -57.5 -181.5t-106 -147t-169.5 -101.5t-234 -36q-266 0 -390 157.5t-75 440.5q42 241 196.5 378.5t403.5 137.5q226 0 341.5 -103t123.5 -286l-144 -25q-9 149 -88.5 217t-238.5 68q-193 0 -304.5 -104t-144.5 -294
q-38 -218 43 -338t291 -120q100 0 175.5 24t123.5 69.5t76.5 102.5t42.5 131zM469 -117h125l-174 -307h-96l2 16z" />
    <glyph glyph-name="gdotaccent.sc.alt" horiz-adv-x="1200" 
d="M977 436h-367l21 109h499l-18 -99q-18 -100 -57.5 -181.5t-106 -147t-169.5 -101.5t-234 -36q-266 0 -390 157.5t-75 440.5q42 241 196.5 378.5t403.5 137.5q226 0 341.5 -103t123.5 -286l-144 -25q-9 149 -88.5 217t-238.5 68q-193 0 -304.5 -104t-144.5 -294
q-38 -218 43 -338t291 -120q100 0 175.5 24t123.5 69.5t76.5 102.5t42.5 131zM653 1462h178l-30 -174h-178z" />
    <glyph glyph-name="g.alt" horiz-adv-x="1017" 
d="M535 834q-128 0 -198.5 -53.5t-86.5 -147.5q-18 -100 35.5 -159.5t191.5 -59.5q257 0 295 207q18 100 -43 156.5t-194 56.5zM373 -229q141 0 223 17.5t114.5 48.5t41.5 83q10 53 -25 85t-117 32h-350q-91 0 -145.5 -40.5t-63.5 -92.5q-14 -72 55.5 -102.5t266.5 -30.5z
M872 -96q-22 -132 -137 -189t-377 -57q-132 0 -223 15.5t-138.5 46t-64 69.5t-6.5 90q21 121 238 160v6q-46 13 -69.5 44t-14.5 79q10 59 110 115l89 53q-97 38 -136.5 118.5t-19.5 192.5q27 154 142 229.5t296 75.5h469l-20 -116h-117q-70 0 -199 12l-4 -19
q108 -22 164.5 -82t36.5 -165q-23 -135 -132.5 -206t-293.5 -71q-95 0 -172 25l-45 -56q-41 -44 -45 -69q-4 -32 19 -46t75 -14q55 0 167 1t165 1q137 0 199.5 -66t43.5 -177z" />
    <glyph glyph-name="gbreve.alt" horiz-adv-x="1017" 
d="M627 1198q85 0 143 46.5t84 156.5h86q-51 -307 -317 -307q-137 0 -204 78t-40 229h88q-24 -203 160 -203zM535 834q-128 0 -198.5 -53.5t-86.5 -147.5q-18 -100 35.5 -159.5t191.5 -59.5q257 0 295 207q18 100 -43 156.5t-194 56.5zM373 -229q141 0 223 17.5t114.5 48.5
t41.5 83q10 53 -25 85t-117 32h-350q-91 0 -145.5 -40.5t-63.5 -92.5q-14 -72 55.5 -102.5t266.5 -30.5zM872 -96q-22 -132 -137 -189t-377 -57q-132 0 -223 15.5t-138.5 46t-64 69.5t-6.5 90q21 121 238 160v6q-46 13 -69.5 44t-14.5 79q10 59 110 115l89 53
q-97 38 -136.5 118.5t-19.5 192.5q27 154 142 229.5t296 75.5h469l-20 -116h-117q-70 0 -199 12l-4 -19q108 -22 164.5 -82t36.5 -165q-23 -135 -132.5 -206t-293.5 -71q-95 0 -172 25l-45 -56q-41 -44 -45 -69q-4 -32 19 -46t75 -14q55 0 167 1t165 1q137 0 199.5 -66
t43.5 -177z" />
    <glyph glyph-name="gcircumflex.alt" horiz-adv-x="1017" 
d="M850 1071l-203 219l-278 -219l-54 59l316 283h63l215 -283zM535 834q-128 0 -198.5 -53.5t-86.5 -147.5q-18 -100 35.5 -159.5t191.5 -59.5q257 0 295 207q18 100 -43 156.5t-194 56.5zM373 -229q141 0 223 17.5t114.5 48.5t41.5 83q10 53 -25 85t-117 32h-350
q-91 0 -145.5 -40.5t-63.5 -92.5q-14 -72 55.5 -102.5t266.5 -30.5zM872 -96q-22 -132 -137 -189t-377 -57q-132 0 -223 15.5t-138.5 46t-64 69.5t-6.5 90q21 121 238 160v6q-46 13 -69.5 44t-14.5 79q10 59 110 115l89 53q-97 38 -136.5 118.5t-19.5 192.5
q27 154 142 229.5t296 75.5h469l-20 -116h-117q-70 0 -199 12l-4 -19q108 -22 164.5 -82t36.5 -165q-23 -135 -132.5 -206t-293.5 -71q-95 0 -172 25l-45 -56q-41 -44 -45 -69q-4 -32 19 -46t75 -14q55 0 167 1t165 1q137 0 199.5 -66t43.5 -177z" />
    <glyph glyph-name="gcommaaccent.alt" horiz-adv-x="1017" 
d="M645 1092h-127l176 307h97l-5 -19zM535 834q-128 0 -198.5 -53.5t-86.5 -147.5q-18 -100 35.5 -159.5t191.5 -59.5q257 0 295 207q18 100 -43 156.5t-194 56.5zM373 -229q141 0 223 17.5t114.5 48.5t41.5 83q10 53 -25 85t-117 32h-350q-91 0 -145.5 -40.5t-63.5 -92.5
q-14 -72 55.5 -102.5t266.5 -30.5zM872 -96q-22 -132 -137 -189t-377 -57q-132 0 -223 15.5t-138.5 46t-64 69.5t-6.5 90q21 121 238 160v6q-46 13 -69.5 44t-14.5 79q10 59 110 115l89 53q-97 38 -136.5 118.5t-19.5 192.5q27 154 142 229.5t296 75.5h469l-20 -116h-117
q-70 0 -199 12l-4 -19q108 -22 164.5 -82t36.5 -165q-23 -135 -132.5 -206t-293.5 -71q-95 0 -172 25l-45 -56q-41 -44 -45 -69q-4 -32 19 -46t75 -14q55 0 167 1t165 1q137 0 199.5 -66t43.5 -177z" />
    <glyph glyph-name="gdotaccent.alt" horiz-adv-x="1017" 
d="M559 1329h178l-30 -174h-179zM535 834q-128 0 -198.5 -53.5t-86.5 -147.5q-18 -100 35.5 -159.5t191.5 -59.5q257 0 295 207q18 100 -43 156.5t-194 56.5zM373 -229q141 0 223 17.5t114.5 48.5t41.5 83q10 53 -25 85t-117 32h-350q-91 0 -145.5 -40.5t-63.5 -92.5
q-14 -72 55.5 -102.5t266.5 -30.5zM872 -96q-22 -132 -137 -189t-377 -57q-132 0 -223 15.5t-138.5 46t-64 69.5t-6.5 90q21 121 238 160v6q-46 13 -69.5 44t-14.5 79q10 59 110 115l89 53q-97 38 -136.5 118.5t-19.5 192.5q27 154 142 229.5t296 75.5h469l-20 -116h-117
q-70 0 -199 12l-4 -19q108 -22 164.5 -82t36.5 -165q-23 -135 -132.5 -206t-293.5 -71q-95 0 -172 25l-45 -56q-41 -44 -45 -69q-4 -32 19 -46t75 -14q55 0 167 1t165 1q137 0 199.5 -66t43.5 -177z" />
    <glyph glyph-name="t.alt" horiz-adv-x="616" 
d="M254 0h-139l145 831h-156l21 121h158l47 275h141l-49 -275h237l-22 -121h-236z" />
    <glyph glyph-name="tbar.alt" horiz-adv-x="616" 
d="M254 0h-139l73 420h-135l19 98h133l55 313h-156l21 121h158l47 275h141l-49 -275h237l-22 -121h-236l-55 -313h205l-16 -98h-207z" />
    <glyph glyph-name="tcaron.alt" horiz-adv-x="622" 
d="M653 1380h117l-98 -329h-82zM254 0h-139l145 831h-156l21 121h158l47 275h141l-49 -275h237l-22 -121h-236z" />
    <glyph glyph-name="tcommaaccent.alt" horiz-adv-x="616" 
d="M254 0h-59l-64 -109q44 17 90 17q68 0 104.5 -29.5t26.5 -93.5q-11 -52 -60.5 -90.5t-139.5 -38.5q-118 0 -203 59l53 70q70 -51 158 -51q93 0 104 59q6 31 -15 47.5t-65 16.5q-36 0 -90 -13l-49 25l74 131h-4l145 831h-156l21 121h158l47 275h141l-49 -275h237l-22 -121
h-236z" />
    <glyph glyph-name="uni021B.alt" horiz-adv-x="616" 
d="M254 0h-139l145 831h-156l21 121h158l47 275h141l-49 -275h237l-22 -121h-236zM127 -117h125l-174 -307h-96l2 16z" />
    <glyph glyph-name="zero.sc" horiz-adv-x="1079" 
d="M621 969q-163 0 -265 -113.5t-137 -312.5q-35 -202 29.5 -320.5t230.5 -118.5q163 0 265 116t137 315q35 203 -29 318.5t-231 115.5zM627 1094q158 0 258 -73t133 -202t2 -301q-45 -253 -186.5 -395.5t-360.5 -142.5q-160 0 -259.5 74t-132 203t-1.5 302q43 251 186 393
t361 142z" />
    <glyph glyph-name="one.sc" horiz-adv-x="878" 
d="M723 0h-721l23 125h325l146 825q-127 -58 -320 -127l-31 123l428 127h86l-165 -948h249z" />
    <glyph glyph-name="two.sc" horiz-adv-x="1069" 
d="M657 973q-141 0 -232 -77t-142 -237l-131 27q64 199 187.5 303.5t322.5 104.5q195 0 291 -91.5t67 -254.5q-13 -70 -51.5 -123.5t-106 -93t-143.5 -67t-187 -56.5q-210 -57 -288.5 -118t-104.5 -188q229 21 393 21h394l-23 -123h-905l12 86q31 178 138.5 270t334.5 154
q210 58 294.5 109.5t99.5 142.5q18 93 -39 152t-181 59z" />
    <glyph glyph-name="three.sc" horiz-adv-x="1056" 
d="M494 -18q-218 0 -330.5 93.5t-118.5 270.5l139 14q9 -262 320 -262q133 0 211 52t96 147q18 98 -33.5 143t-208.5 45h-192l20 109h185q104 0 176 43t90 135q19 102 -37 152.5t-182 50.5q-125 0 -203.5 -60.5t-124.5 -179.5l-131 19q119 338 471 338q193 0 282.5 -83
t61.5 -235q-32 -176 -276 -221l-4 -18q156 -17 209.5 -81t31.5 -188q-24 -133 -136.5 -208.5t-315.5 -75.5z" />
    <glyph glyph-name="four.sc" horiz-adv-x="1093" 
d="M1010 262h-176l-48 -262h-139l45 262h-682l19 109l784 702h164l-123 -692h176zM528 381h187l96 557l-10 2l-625 -565l6 -13q226 19 346 19z" />
    </font>
</defs>
</svg>
