<?xml version="1.0" standalone="no"?>
<!DOCTYPE svg PUBLIC "-//W3C//DTD SVG 1.1//EN" "http://www.w3.org/Graphics/SVG/1.1/DTD/svg11.dtd" >
<svg xmlns="http://www.w3.org/2000/svg" xmlns:xlink="http://www.w3.org/1999/xlink" version="1.1">
<metadata>
Created by FontForge 20170731 at Tue Mar  1 01:18:56 2022
 By Aleksey,,,
(c) Copyright OH no Type Company, LLC. 2020. All rights reserved.
</metadata>
<defs>
<font id="Degular-SemiboldItalic" horiz-adv-x="1093" >
  <font-face 
    font-family="Degular Semibold Italic"
    font-weight="600"
    font-style="italic"
    font-stretch="normal"
    units-per-em="2048"
    panose-1="4 4 6 6 6 3 3 11 3 5"
    ascent="1372"
    descent="-676"
    x-height="963"
    cap-height="1229"
    bbox="-707 -440 2636 1909"
    underline-thickness="102"
    underline-position="-675"
    unicode-range="U+0020-FB02"
  />
<missing-glyph horiz-adv-x="1751" 
d="M743 98q46 0 85.5 4t62.5 8.5t63 14t66 14.5q0 251 188 410l19 -21q-26 -68 -53 -217q210 131 210 437q0 243 -122 368t-365 125q-179 0 -298.5 -83.5t-152.5 -221.5q73 -1 123.5 -36t71.5 -85t21 -110q0 -57 -20.5 -102t-54.5 -72.5t-73 -42.5t-80 -17q2 -57 4 -157.5
t4 -153.5q42 -27 128.5 -44.5t172.5 -17.5zM745 -68q-291 0 -434 129q-10 294 17 431q-57 26 -91 80t-34 128q0 69 33.5 125.5t93.5 85.5q-11 213 149.5 351.5t431.5 138.5q307 0 465 -157.5t158 -446.5q0 -109 -22 -204.5t-67.5 -178t-120.5 -144t-175 -94.5
q-19 -108 -19 -158q-138 -86 -385 -86zM942 940q113 0 174.5 -67.5t61.5 -161.5q0 -109 -77 -184.5t-175 -75.5q-101 0 -167.5 66.5t-66.5 180.5q0 97 65.5 169.5t184.5 72.5z" />
    <glyph glyph-name=".notdef" horiz-adv-x="1751" 
d="M743 98q46 0 85.5 4t62.5 8.5t63 14t66 14.5q0 251 188 410l19 -21q-26 -68 -53 -217q210 131 210 437q0 243 -122 368t-365 125q-179 0 -298.5 -83.5t-152.5 -221.5q73 -1 123.5 -36t71.5 -85t21 -110q0 -57 -20.5 -102t-54.5 -72.5t-73 -42.5t-80 -17q2 -57 4 -157.5
t4 -153.5q42 -27 128.5 -44.5t172.5 -17.5zM745 -68q-291 0 -434 129q-10 294 17 431q-57 26 -91 80t-34 128q0 69 33.5 125.5t93.5 85.5q-11 213 149.5 351.5t431.5 138.5q307 0 465 -157.5t158 -446.5q0 -109 -22 -204.5t-67.5 -178t-120.5 -144t-175 -94.5
q-19 -108 -19 -158q-138 -86 -385 -86zM942 940q113 0 174.5 -67.5t61.5 -161.5q0 -109 -77 -184.5t-175 -75.5q-101 0 -167.5 66.5t-66.5 180.5q0 97 65.5 169.5t184.5 72.5z" />
    <glyph glyph-name=".null" horiz-adv-x="0" 
 />
    <glyph glyph-name="nonmarkingreturn" horiz-adv-x="682" 
 />
    <glyph glyph-name="space" unicode=" " horiz-adv-x="387" 
 />
    <glyph glyph-name="exclam" unicode="!" horiz-adv-x="497" 
d="M354 444h-223l139 785h222zM80 250h256l-43 -250h-256z" />
    <glyph glyph-name="quotedbl" unicode="&#x22;" horiz-adv-x="720" 
d="M207 1229h229l-127 -553h-162zM547 1229h229l-127 -553h-162z" />
    <glyph glyph-name="numbersign" unicode="#" horiz-adv-x="1392" 
d="M918 0h-175l48 283h-275l-51 -283h-174l49 283h-305l35 198h305l45 262h-305l35 201h305l49 285h184l-53 -285h268l49 285h187l-52 -285h314l-35 -201h-315l-47 -262h315l-35 -198h-315zM526 461h316l53 305h-313z" />
    <glyph glyph-name="dollar" unicode="$" horiz-adv-x="1142" 
d="M659 1454h191l-53 -223q168 -23 244.5 -111.5t86.5 -228.5l-237 -43q-8 109 -62 163t-180 54q-216 0 -241 -141q-7 -37 0 -64t34 -54.5t84 -49.5t146 -41q103 -21 177.5 -52.5t118 -69.5t68 -84.5t26 -97.5t-6.5 -108q-52 -303 -477 -315l-29 -242h-191l60 250
q-376 47 -383 381l229 41q15 -250 303 -250q230 0 256 147q14 86 -42 131.5t-230 79.5q-230 44 -314 145t-55 265q24 138 139 217t314 86z" />
    <glyph glyph-name="percent" unicode="%" horiz-adv-x="1538" 
d="M430 545q-163 0 -243.5 106t-49.5 281q28 151 128 235t249 84q164 0 245 -105.5t50 -277.5q-27 -154 -128.5 -238.5t-250.5 -84.5zM440 694q78 0 130 52t69 147q18 98 -19.5 152.5t-117.5 54.5q-77 0 -127.5 -49t-67.5 -144q-19 -99 17.5 -156t115.5 -57zM1077 -20
q-164 0 -244.5 106t-48.5 281q26 151 126 234t249 83q164 0 245 -104.5t50 -276.5q-27 -154 -128 -238.5t-249 -84.5zM1085 129q79 0 130.5 51.5t68.5 147.5q18 96 -19.5 151.5t-115.5 55.5t-129 -49t-68 -144q-17 -99 19 -156t114 -57zM1255 1229h308l-2 -12l-672 -537
l-41 37zM338 0h-307l2 12l672 537l38 -35z" />
    <glyph glyph-name="ampersand" unicode="&#x26;" horiz-adv-x="1402" 
d="M561 924q-15 -92 12 -197q147 40 220.5 89.5t87.5 129.5q10 63 -23 104.5t-110 41.5q-157 0 -187 -168zM1305 207l-29 -211q-59 -10 -133 -10q-207 0 -387 133q-155 -139 -394 -139q-178 0 -273.5 102.5t-65.5 271.5q9 53 31.5 96.5t53 75t75.5 59t91 47t107 40.5
q-43 161 -23 274q15 83 53.5 144t93.5 95.5t116.5 51t130.5 16.5q185 0 266.5 -85.5t56.5 -213.5q-9 -51 -33 -93.5t-63 -73.5t-79.5 -53.5t-97 -40t-99 -28t-101.5 -22.5q82 -200 260 -328q206 206 293 457l195 -27q-97 -290 -387 -489q116 -53 233 -53q72 0 109 4z
M440 150q123 0 219 49q-172 169 -256 401q-152 -72 -176 -217q-20 -102 34.5 -167.5t178.5 -65.5z" />
    <glyph glyph-name="quotesingle" unicode="'" horiz-adv-x="380" 
d="M207 1229h229l-127 -553h-162z" />
    <glyph glyph-name="parenleft" unicode="(" horiz-adv-x="696" 
d="M340 537q-28 -164 -26.5 -308.5t46 -284.5t134.5 -274l-154 -108q-87 103 -143 224.5t-79.5 251t-22 260.5t25.5 269q45 261 178 488.5t377 425.5l123 -119q-206 -193 -310.5 -388.5t-148.5 -436.5z" />
    <glyph glyph-name="parenright" unicode=")" horiz-adv-x="696" 
d="M356 504q28 165 27 308.5t-44.5 283.5t-133.5 274l151 109q87 -103 143.5 -224.5t80 -251.5t23 -261t-24.5 -269q-92 -538 -555 -913l-125 118q207 193 311.5 389t146.5 437z" />
    <glyph glyph-name="asterisk" unicode="*" horiz-adv-x="1054" 
d="M565 1372h238l-137 -373h-93zM121 938l90 213l315 -182l-41 -88zM340 434l-174 146l323 254l66 -54zM920 561l-197 -123l-115 342l80 51zM1061 1149l43 -219l-389 -49l-15 86z" />
    <glyph glyph-name="plus" unicode="+" horiz-adv-x="1024" 
d="M344 164l64 358h-345l35 201h344l64 354h223l-63 -354h344l-35 -201h-344l-64 -358h-223z" />
    <glyph glyph-name="comma" unicode="," horiz-adv-x="376" 
d="M66 283h225l-311 -572h-162l2 13z" />
    <glyph glyph-name="hyphen" unicode="-" horiz-adv-x="716" 
d="M61 602h635l-34 -207h-637z" />
    <glyph glyph-name="period" unicode="." horiz-adv-x="387" 
d="M25 250h256l-43 -250h-256z" />
    <glyph glyph-name="slash" unicode="/" horiz-adv-x="655" 
d="M115 -309h-236l682 1624h232z" />
    <glyph glyph-name="zero" unicode="0" horiz-adv-x="1187" 
d="M690 1053q-151 0 -245 -112t-130 -316q-36 -211 20 -331t210 -120q151 0 244.5 115.5t130.5 322.5q38 209 -18.5 325t-211.5 116zM705 1255q261 0 379 -178t63 -495q-51 -288 -213 -448.5t-406 -160.5q-262 0 -378.5 180.5t-59.5 497.5q51 286 214 445t401 159z" />
    <glyph glyph-name="one" unicode="1" horiz-adv-x="937" 
d="M788 0h-790l35 199h321l146 819q-158 -74 -303 -123l-50 188l482 146h129l-183 -1030h248z" />
    <glyph glyph-name="two" unicode="2" horiz-adv-x="1169" 
d="M715 1061q-130 0 -211.5 -77.5t-128.5 -235.5l-213 38q65 226 202 346.5t367 120.5q231 0 340 -109.5t74 -309.5q-11 -65 -44 -119.5t-80 -94t-115.5 -73t-141.5 -57.5t-168 -46q-198 -51 -274.5 -104.5t-102.5 -161.5q205 21 387 21h441l-35 -199h-1022q3 34 16 125
q18 104 55.5 179.5t101 131t146.5 93t203 69.5q157 42 239.5 77t121.5 76.5t49 104.5q16 93 -35.5 149t-171.5 56z" />
    <glyph glyph-name="three" unicode="3" horiz-adv-x="1150" 
d="M549 -20q-257 0 -378 100t-124 305l223 27q3 -124 68.5 -186t216.5 -62q123 0 194.5 48t86.5 136q16 99 -29 143t-184 44h-209l28 163h205q209 0 240 170q17 98 -32.5 146.5t-168.5 48.5q-121 0 -188.5 -58t-110.5 -176l-209 31q116 389 531 389q229 0 328.5 -94
t66.5 -272q-35 -204 -316 -252l-4 -25q178 -20 238.5 -90t36.5 -205q-29 -157 -155 -244t-355 -87z" />
    <glyph glyph-name="four" unicode="4" horiz-adv-x="1187" 
d="M1110 287h-170l-51 -287h-223l51 287h-709l29 166l790 776h279l-135 -760h172zM633 469h117l100 567l-16 6l-580 -579l8 -17q188 23 371 23z" />
    <glyph glyph-name="five" unicode="5" horiz-adv-x="1167" 
d="M561 162q248 0 279 198q18 110 -37 167t-191 57q-162 0 -282 -76l-170 70l114 651h879l-37 -211q-356 0 -672 24l-67 -376q136 82 313 82q217 0 311 -110.5t62 -299.5q-63 -358 -510 -358q-216 0 -347.5 86.5t-168.5 252.5l217 56q56 -213 307 -213z" />
    <glyph glyph-name="six" unicode="6" horiz-adv-x="1171" 
d="M627 602q-147 0 -228 -55.5t-96 -143.5q-18 -99 47 -167t205 -68q257 0 295 209q19 107 -36 166t-187 59zM1071 352q-31 -179 -165 -277t-351 -98q-88 0 -159 15t-131 48.5t-99.5 87t-63.5 129t-23 175.5t21 227q23 131 69.5 236t119.5 186t180.5 125.5t241.5 44.5
q222 0 324 -103t104 -286l-226 -24q-8 110 -59 166.5t-162 56.5q-165 0 -257 -118t-138 -382q-1 -5 -10 -65l20 -4q118 253 420 253q87 0 156 -22.5t118.5 -68t68.5 -123t1 -179.5z" />
    <glyph glyph-name="seven" unicode="7" horiz-adv-x="1060" 
d="M119 1022l37 207h1011l-37 -207q-480 -416 -622 -1022h-270q71 300 255.5 569.5t452.5 472.5q-208 -20 -407 -20h-420z" />
    <glyph glyph-name="eight" unicode="8" horiz-adv-x="1159" 
d="M518 -23q-276 0 -390.5 98t-86.5 267q41 222 375 268l4 25q-261 65 -217 311q56 305 491 305q243 0 346.5 -94.5t71.5 -267.5q-35 -203 -319 -258l-5 -23q320 -52 273 -313q-26 -151 -158.5 -234.5t-384.5 -83.5zM588 537q-282 0 -316 -183q-15 -91 49 -140.5t209 -49.5
q278 0 310 178q10 39 0 74.5t-34.5 62t-80 42.5t-137.5 16zM676 1063q-235 0 -266 -180q-18 -98 37 -144.5t169 -46.5t186 45t89 140q15 92 -36.5 139t-178.5 47z" />
    <glyph glyph-name="nine" unicode="9" horiz-adv-x="1167" 
d="M590 614q141 0 225.5 59.5t99.5 147.5q20 104 -46.5 172t-209.5 68q-131 0 -201.5 -57.5t-86.5 -153.5q-22 -113 36 -174.5t183 -61.5zM504 -23q-235 0 -340.5 93t-116.5 266l217 43q9 -106 69 -158.5t185 -52.5q166 0 261 122t141 384q4 30 8 45l-25 4
q-123 -250 -414 -250q-86 0 -155.5 24.5t-118 72.5t-67.5 125.5t-1 176.5q33 179 167 279t360 100q104 0 184.5 -21.5t144 -69t96.5 -124.5t42 -187.5t-19 -258.5q-18 -107 -50 -197t-83 -168t-118.5 -132t-161 -85t-205.5 -31z" />
    <glyph glyph-name="colon" unicode=":" horiz-adv-x="425" 
d="M135 965h256l-43 -250h-256zM43 250h256l-43 -250h-256z" />
    <glyph glyph-name="semicolon" unicode=";" horiz-adv-x="444" 
d="M94 283h225l-311 -572h-162l2 13zM135 965h256l-43 -250h-256z" />
    <glyph glyph-name="less" unicode="&#x3c;" horiz-adv-x="1052" 
d="M877 25l-828 387l39 227l965 389l-43 -248l-449 -131q-89 -29 -346 -100l-10 -55q207 -62 311 -99l404 -129z" />
    <glyph glyph-name="equal" unicode="=" horiz-adv-x="1077" 
d="M950 344h-872l33 180h872zM1016 715h-873l31 178h873z" />
    <glyph glyph-name="greater" unicode="&#x3e;" horiz-adv-x="1052" 
d="M-16 27l43 247l448 132q90 28 348 100l11 55q-221 65 -314 98l-401 129l43 242l827 -387l-41 -227z" />
    <glyph glyph-name="question" unicode="?" horiz-adv-x="1003" 
d="M715 561q-114 -46 -129 -139q-1 -3 -2 -11t-2 -12h-211q0 15 4 35q17 95 68 154t157 106q108 47 151 83t54 102q15 86 -34 134t-155 48q-123 0 -196.5 -75t-118.5 -218l-211 41q64 212 195 327t350 115t324.5 -100.5t74.5 -276.5q-12 -66 -40.5 -117t-75 -87.5t-92 -60
t-111.5 -48.5zM319 250h256l-43 -250h-256z" />
    <glyph glyph-name="at" unicode="@" horiz-adv-x="1718" 
d="M805 -229q-362 0 -547.5 160.5t-185.5 504.5q0 150 39.5 288t118.5 255t189.5 204t261 136t323.5 49q148 0 265.5 -34t195 -92.5t129 -140.5t74 -174.5t22.5 -199.5q0 -123 -24.5 -224.5t-65.5 -169.5t-97 -115t-117.5 -68t-128.5 -21q-250 0 -243 231q0 16 4 52h-14
q-58 -142 -129.5 -212.5t-169.5 -70.5q-103 0 -162.5 71.5t-59.5 217.5q0 148 44 272t130.5 200.5t198.5 76.5q184 0 203 -219h14l33 200h184l-90 -512q-26 -149 90 -149q90 0 154.5 104.5t64.5 317.5q0 85 -15.5 155t-53.5 133t-97.5 106t-153.5 68t-216 25
q-165 0 -301 -60.5t-224 -164.5t-136 -240.5t-48 -290.5q0 -266 138 -387t413 -121q99 0 221 23.5t201 58.5h16l-16 -157q-186 -86 -432 -86zM1047 621q17 87 -22.5 137.5t-121.5 50.5q-104 0 -164.5 -104.5t-62.5 -258.5q0 -160 117 -157q89 0 155 84t88 198z" />
    <glyph glyph-name="A" unicode="A" horiz-adv-x="1208" 
d="M893 0l-51 313h-525l-161 -313h-250l672 1229h315l240 -1229h-240zM487 639l-77 -152h403l-25 152q-38 237 -55 387h-53q-81 -176 -193 -387z" />
    <glyph glyph-name="B" unicode="B" horiz-adv-x="1173" 
d="M676 528h-309l-64 -352h328q104 0 162.5 45.5t74.5 126.5q14 90 -28.5 135t-163.5 45zM739 1047h-282l-62 -355h275q102 0 163 41t78 135q15 90 -26 134.5t-146 44.5zM39 0l217 1229h516q213 0 304 -86t63 -248q-38 -218 -301 -270l-2 -19q160 -17 221 -88t35 -213
q-26 -143 -145 -224t-333 -81h-575z" />
    <glyph glyph-name="C" unicode="C" horiz-adv-x="1275" 
d="M598 -27q-294 0 -428.5 184t-79.5 494q51 286 226.5 445t443.5 159q245 0 372 -128.5t130 -350.5l-228 -28q-5 154 -75.5 228.5t-221.5 74.5q-174 0 -279.5 -113t-140.5 -309q-36 -214 35 -333.5t258 -119.5q148 0 237.5 78t147.5 238l217 -48q-143 -471 -614 -471z" />
    <glyph glyph-name="D" unicode="D" horiz-adv-x="1298" 
d="M682 1034h-227l-148 -841h254q206 0 319.5 103.5t149.5 307.5q38 225 -44 327.5t-304 102.5zM41 0l211 1229h477q320 0 450.5 -170t75.5 -486q-47 -273 -232 -424t-466 -149h-516z" />
    <glyph glyph-name="E" unicode="E" horiz-adv-x="1103" 
d="M45 0l217 1229h885l-37 -203h-649l-55 -303h591l-34 -201h-592l-58 -319h652l-37 -203h-883z" />
    <glyph glyph-name="F" unicode="F" horiz-adv-x="1032" 
d="M903 444h-553l-78 -444h-233l217 1229h848l-39 -215h-614l-64 -367h553z" />
    <glyph glyph-name="G" unicode="G" horiz-adv-x="1312" 
d="M494 -20q-230 0 -346 184.5t-64 480.5q55 303 218.5 455.5t447.5 152.5q238 0 363.5 -112t146.5 -320l-226 -41q-18 138 -87.5 204.5t-207.5 66.5q-185 0 -285 -100.5t-137 -313.5q-19 -99 -10.5 -184t40 -147.5t98.5 -98t163 -35.5q334 0 387 287v-8l2 10h-346l35 201
h563l-116 -662h-213l49 274h-21q-145 -294 -454 -294z" />
    <glyph glyph-name="H" unicode="H" horiz-adv-x="1308" 
d="M1100 0h-234l90 508h-596l-88 -508h-233l217 1229h231l-90 -512h596l90 512h232z" />
    <glyph glyph-name="I" unicode="I" horiz-adv-x="481" 
d="M272 0h-233l217 1229h231z" />
    <glyph glyph-name="J" unicode="J" horiz-adv-x="636" 
d="M256 344l156 885h233l-156 -883q-31 -172 -125.5 -267t-261.5 -95q-80 0 -159 14l41 201q85 -13 108 -13q138 0 164 158z" />
    <glyph glyph-name="K" unicode="K" horiz-adv-x="1167" 
d="M829 0l-374 485h-97l-86 -485h-233l217 1229h233l-98 -553h82l533 553h276l-4 -23l-641 -624l455 -559l-5 -23h-258z" />
    <glyph glyph-name="L" unicode="L" horiz-adv-x="954" 
d="M487 1229l-178 -1020h553l-37 -209h-786l217 1229h231z" />
    <glyph glyph-name="M" unicode="M" horiz-adv-x="1650" 
d="M358 569l-98 -569h-217l215 1229h373l96 -531q21 -119 51 -385h35q132 282 193 394l286 522h371l-217 -1229h-232l99 569q15 79 94 469h-35q-134 -290 -254 -512l-260 -456h-225l-90 465q-48 259 -70 503h-33q-29 -181 -82 -469z" />
    <glyph glyph-name="N" unicode="N" horiz-adv-x="1318" 
d="M805 0l-205 559q-89 248 -141 465l-41 -4q-30 -296 -84 -598l-74 -422h-217l215 1229h328l180 -481q107 -298 158 -515l39 3q29 311 77 567l74 426h217l-217 -1229h-309z" />
    <glyph glyph-name="O" unicode="O" horiz-adv-x="1345" 
d="M616 -27q-202 0 -333.5 87t-179.5 242.5t-11 361.5q50 274 230.5 432.5t453.5 158.5q198 0 329.5 -85.5t181.5 -240.5t13 -360q-48 -276 -227 -436t-457 -160zM631 176q188 0 297.5 110t146.5 312q37 206 -41.5 329.5t-271.5 123.5q-187 0 -297.5 -108.5t-145.5 -303.5
q-24 -140 -0.5 -242t102.5 -161.5t210 -59.5z" />
    <glyph glyph-name="P" unicode="P" horiz-adv-x="1103" 
d="M688 1030h-235l-76 -432h241q129 0 194.5 47t84.5 152q21 119 -28.5 176t-180.5 57zM621 406h-277l-72 -406h-233l217 1229h461q235 0 339.5 -118.5t67.5 -332.5q-31 -176 -161 -274t-342 -98z" />
    <glyph glyph-name="Q" unicode="Q" horiz-adv-x="1347" 
d="M631 176q188 0 297.5 110t146.5 312q37 206 -41.5 329.5t-271.5 123.5q-187 0 -297.5 -108.5t-145.5 -303.5q-24 -140 -0.5 -242t102.5 -161.5t210 -59.5zM616 -27q-202 0 -333.5 87t-179.5 242.5t-11 361.5q50 274 230.5 432.5t453.5 158.5q198 0 329.5 -85.5
t181.5 -240.5t13 -360q-29 -165 -106.5 -291t-196.5 -202l119 -248l-4 -23h-244l-75 187q-87 -19 -177 -19z" />
    <glyph glyph-name="R" unicode="R" horiz-adv-x="1208" 
d="M723 1032h-262l-66 -375h260q242 0 275 181q17 100 -33.5 147t-173.5 47zM815 0l-225 461h-230l-81 -461h-234l215 1229h498q229 0 330.5 -108.5t64.5 -313.5q-23 -127 -106.5 -210t-215.5 -116l256 -458l-4 -23h-268z" />
    <glyph glyph-name="S" unicode="S" horiz-adv-x="1153" 
d="M545 -27q-501 0 -512 404l229 41q15 -254 305 -254q230 0 256 147q14 87 -41 133.5t-219 79.5q-238 46 -324 148t-57 270q25 148 151.5 230.5t342.5 82.5q98 0 174 -18.5t126.5 -50t84 -78t49.5 -99t20 -116.5l-237 -45q-10 114 -62.5 167.5t-181.5 53.5
q-219 0 -241 -141q-9 -35 -0.5 -66t35 -57t83.5 -49t146 -41q103 -21 177.5 -52.5t118 -70.5t67.5 -86t26 -99.5t-6 -111.5q-27 -153 -154 -237.5t-356 -84.5z" />
    <glyph glyph-name="T" unicode="T" horiz-adv-x="1048" 
d="M123 1014l39 215h989l-37 -215h-379l-178 -1014h-233l178 1014h-379z" />
    <glyph glyph-name="U" unicode="U" horiz-adv-x="1290" 
d="M610 182q78 0 135.5 20.5t95 61.5t60 94.5t35.5 126.5l131 744h233l-137 -774q-41 -237 -183.5 -358.5t-381.5 -121.5q-271 0 -393 135.5t-78 387.5l129 731h231l-129 -737q-15 -68 -8 -124.5t33 -98t83.5 -64.5t143.5 -23z" />
    <glyph glyph-name="V" unicode="V" horiz-adv-x="1202" 
d="M672 0h-312l-239 1229h241l105 -639q38 -237 55 -387h51q81 176 193 387l330 639h247z" />
    <glyph glyph-name="W" unicode="W" horiz-adv-x="1734" 
d="M750 516l-197 -516h-330l-96 1229h244l24 -559q8 -320 6 -469h54q98 289 170 467l229 561h297l31 -561q8 -213 2 -467h53q11 33 170 469l217 559h248l-526 -1229h-342l-19 516q-7 266 -4 516h-43q-76 -221 -188 -516z" />
    <glyph glyph-name="X" unicode="X" horiz-adv-x="1148" 
d="M803 0l-209 510h-33l-379 -510h-252l4 23l500 606l-284 577l4 23h243l205 -496h39l363 496h253l-4 -23l-495 -602l295 -581l-4 -23h-246z" />
    <glyph glyph-name="Y" unicode="Y" horiz-adv-x="1105" 
d="M586 0h-234l70 408l-313 798l4 23h247l191 -627h35l415 627h254l-4 -23l-596 -800z" />
    <glyph glyph-name="Z" unicode="Z" horiz-adv-x="1173" 
d="M1040 213l-36 -213h-1018l37 209l864 809l-8 24q-232 -26 -394 -26h-299l37 213h991l-36 -207l-873 -813l8 -25q275 29 402 29h325z" />
    <glyph glyph-name="bracketleft" unicode="[" horiz-adv-x="620" 
d="M-35 -385l318 1802h458l-32 -184h-236l-250 -1421h236l-35 -197h-459z" />
    <glyph glyph-name="backslash" unicode="\" horiz-adv-x="655" 
d="M285 -309l-107 1624h219l111 -1624h-223z" />
    <glyph glyph-name="bracketright" unicode="]" horiz-adv-x="620" 
d="M-111 -385l31 184h238l250 1422h-236l35 196h459l-318 -1802h-459z" />
    <glyph glyph-name="asciicircum" unicode="^" horiz-adv-x="1007" 
d="M858 506l-278 364l-406 -364l-96 94l479 490h109l307 -490z" />
    <glyph glyph-name="underscore" unicode="_" horiz-adv-x="942" 
d="M-82 0h942l-33 -182h-942z" />
    <glyph glyph-name="grave" unicode="`" horiz-adv-x="649" 
d="M655 1063l-467 225l95 158l430 -277z" />
    <glyph glyph-name="a" unicode="a" 
d="M463 170q102 0 178 64.5t104 173.5l9 49l14 75q15 116 -41 186t-168 70q-116 0 -185 -73.5t-95 -225.5q-58 -319 184 -319zM68 512q40 229 150 353t271 122q136 1 210.5 -76.5t86.5 -214.5l13 9l45 258h221l-170 -963h-221l45 256l-4 -2l4 27q-58 -141 -157 -224.5
t-228 -83.5q-169 0 -240 140.5t-26 398.5z" />
    <glyph glyph-name="b" unicode="b" 
d="M537 168q114 0 182 74t96 227q29 161 -16 240t-168 79q-108 0 -185.5 -70t-103.5 -190l-14 -90v2q-22 -122 34.5 -197t174.5 -75zM481 1315l-106 -602h14q59 130 151.5 202t215.5 72q173 0 245.5 -136t28.5 -386q-41 -236 -153 -364t-271 -128q-133 0 -208 76t-91 207
h-12l-45 -256h-221l231 1315h221z" />
    <glyph glyph-name="c" unicode="c" horiz-adv-x="1050" 
d="M797 588q-5 101 -50.5 153t-156.5 52q-120 0 -198 -75.5t-105 -228.5q-27 -150 27 -235.5t184 -85.5q106 0 167 55.5t101 157.5l197 -53q-61 -173 -178.5 -264t-305.5 -91q-233 0 -344 144t-67 399q38 225 181 348t357 123q395 0 402 -362z" />
    <glyph glyph-name="d" unicode="d" 
d="M463 170q109 0 188 73t101 195v-4l4 23l12 65l-4 -10q23 125 -32.5 200.5t-172.5 75.5t-185.5 -74.5t-94.5 -228.5q-29 -160 16 -237.5t168 -77.5zM674 0l45 254h-12q-59 -130 -154 -205.5t-215 -75.5q-170 0 -242.5 140.5t-27.5 396.5q39 233 150 356t274 121
q129 1 201.5 -72t90.5 -204h17l104 604h221l-231 -1315h-221z" />
    <glyph glyph-name="e" unicode="e" horiz-adv-x="1040" 
d="M590 817q-226 0 -295 -252h493q35 252 -198 252zM481 -25q-232 0 -346 142.5t-69 404.5q40 219 183.5 342t356.5 123q223 0 319 -126.5t58 -344.5q-5 -34 -22 -98h-693q-18 -262 221 -262q55 0 98 13t73 38t50 53t38 66l182 -62q-30 -67 -68.5 -117.5t-92 -90.5
t-126 -60.5t-162.5 -20.5z" />
    <glyph glyph-name="f" unicode="f" horiz-adv-x="704" 
d="M508 1012l-8 -49h264l-31 -179h-266l-137 -784h-221l139 784h-160l33 179h158l10 53q28 153 123 240t262 87q86 0 164 -16l-37 -158q-75 11 -115 11q-148 0 -178 -168z" />
    <glyph glyph-name="g" unicode="g" 
d="M477 231q109 0 185.5 67.5t95.5 180.5v-6l10 51l-2 -2q22 120 -35 193t-174 73q-226 0 -272 -266q-52 -291 192 -291zM72 539q39 220 147.5 334t267.5 114q132 0 206.5 -73t92.5 -203h13l45 252h221l-158 -891q-72 -406 -489 -406q-414 0 -445 287l217 37q14 -73 68 -111
t162 -39q128 1 188.5 64t83.5 192l35 205h-14q-59 -112 -152.5 -180t-208.5 -68q-171 0 -246 127t-34 359z" />
    <glyph glyph-name="h" unicode="h" horiz-adv-x="1087" 
d="M346 545l-96 -545h-221l231 1315h221l-106 -606h14q64 134 159.5 206t215.5 72q146 0 210 -96t36 -262l-111 -629h-221l102 586q18 92 -19 147t-130 55q-113 0 -189.5 -66.5t-95.5 -176.5z" />
    <glyph glyph-name="i" unicode="i" horiz-adv-x="477" 
d="M471 1126h-240l33 179h240zM262 0h-219l168 963h221z" />
    <glyph glyph-name="j" unicode="j" horiz-adv-x="497" 
d="M285 4q-29 -163 -113.5 -249.5t-241.5 -86.5q-58 0 -106 10l41 191q50 -8 72 -8q103 0 126 135l170 965h222zM494 1126h-242l33 179h239z" />
    <glyph glyph-name="k" unicode="k" horiz-adv-x="1005" 
d="M487 1315l-131 -748h84l363 396h266l-4 -23l-463 -453l330 -464l-4 -23h-244l-264 403h-92l-72 -403h-219l231 1315h219z" />
    <glyph glyph-name="l" unicode="l" horiz-adv-x="462" 
d="M487 1315l-231 -1315h-219l231 1315h219z" />
    <glyph glyph-name="m" unicode="m" horiz-adv-x="1738" 
d="M346 545l-96 -545h-221l170 963h215l-45 -254h18q63 135 159 206.5t216 71.5q131 0 193 -76.5t53 -212.5h20q126 289 377 289q150 0 216 -96.5t38 -261.5l-113 -629h-219l103 586q16 93 -21 147.5t-131 54.5q-102 0 -175.5 -57t-101.5 -153l-102 -578h-221l102 586
q16 93 -20.5 147.5t-130.5 54.5q-109 0 -186.5 -67t-96.5 -176z" />
    <glyph glyph-name="n" unicode="n" horiz-adv-x="1087" 
d="M346 545l-96 -545h-221l170 963h215l-45 -254h18q62 134 158 206t217 72q147 0 212 -96t36 -262l-111 -629h-221l102 586q16 93 -20 147.5t-129 54.5q-113 0 -189.5 -66.5t-95.5 -176.5z" />
    <glyph glyph-name="o" unicode="o" 
d="M487 -27q-241 0 -351.5 150.5t-67.5 402.5q39 222 182.5 341.5t357.5 119.5q234 0 348.5 -148.5t71.5 -398.5q-40 -221 -182 -344t-359 -123zM590 801q-253 0 -307 -301q-27 -157 27.5 -246.5t191.5 -89.5q256 0 311 305q27 155 -30 243.5t-193 88.5z" />
    <glyph glyph-name="p" unicode="p" 
d="M532 168q116 0 185.5 75.5t97.5 227.5q29 161 -15.5 239t-164.5 78q-113 0 -192 -72t-101 -190l-14 -88v2q-22 -121 34.5 -196.5t169.5 -75.5zM1030 457q-42 -236 -154 -360t-276 -124q-126 0 -201 76.5t-90 206.5h-14l-100 -567h-222l226 1274h221l-45 -250h14
q129 274 363 274q177 0 249.5 -138.5t28.5 -391.5z" />
    <glyph glyph-name="q" unicode="q" 
d="M465 168q108 0 186.5 74.5t100.5 195.5v-4l16 88l-4 -10q23 127 -32.5 201.5t-172.5 74.5q-118 0 -186.5 -75.5t-96.5 -233.5q-55 -311 189 -311zM66 508q41 234 149.5 356.5t271.5 122.5q134 0 208.5 -75.5t90.5 -209.5l13 5l45 256h221l-227 -1289h-222l103 580h-12
q-60 -130 -154.5 -205.5t-216.5 -75.5q-169 0 -241.5 141t-28.5 394z" />
    <glyph glyph-name="r" unicode="r" horiz-adv-x="696" 
d="M250 0h-221l170 963h211l-52 -289l17 -2q64 168 144.5 234.5t191.5 66.5h37l-46 -248h-53q-150 0 -221.5 -60t-97.5 -208z" />
    <glyph glyph-name="s" unicode="s" horiz-adv-x="946" 
d="M430 -27q-90 0 -160 16t-116 43t-77 67.5t-46 85.5t-19 100l207 39q11 -93 63 -141t164 -48q171 0 189 107q11 65 -34 101t-179 63q-180 38 -247 119.5t-44 209.5q24 122 125.5 187t280.5 65q97 0 167 -21t110.5 -61t61 -87.5t27.5 -110.5l-205 -39q-7 85 -50.5 123
t-131.5 38q-159 0 -178 -102q-8 -58 33 -96.5t161 -63.5q194 -39 265.5 -123t50.5 -211q-47 -260 -418 -260z" />
    <glyph glyph-name="t" unicode="t" horiz-adv-x="729" 
d="M141 322l82 462h-135l33 179h133l47 260h219l-45 -260h285l-33 -179h-285l-80 -460q-25 -144 109 -144q41 0 139 25l-4 -197q-63 -19 -104 -27t-101 -8q-107 0 -172.5 47.5t-85.5 124.5t-2 177z" />
    <glyph glyph-name="u" unicode="u" horiz-adv-x="1091" 
d="M676 0l45 254h-16q-64 -135 -159.5 -208t-215.5 -73q-146 0 -212 97.5t-36 263.5l111 629h221l-105 -586q-16 -93 21 -148t131 -55q111 0 187 67t97 177l97 545h219l-170 -963h-215z" />
    <glyph glyph-name="v" unicode="v" horiz-adv-x="980" 
d="M551 0h-291l-186 963h233l53 -373q4 -31 25 -178t29 -224h41q11 23 196 402l185 373h239z" />
    <glyph glyph-name="w" unicode="w" horiz-adv-x="1521" 
d="M973 963l26 -377q15 -198 21 -420h35q31 81 92.5 225t83.5 199l151 373h226l-457 -963h-289l-26 420q-11 235 -9 381h-32q-82 -232 -144 -381l-170 -420h-282l-117 963h221l31 -373q24 -297 26 -424h37q90 242 166 420l160 377h250z" />
    <glyph glyph-name="x" unicode="x" horiz-adv-x="1015" 
d="M657 0l-151 406h-31l-276 -406h-254l4 23l393 477l-229 440l4 23h237l154 -398h24l279 398h244l-4 -23l-383 -471l229 -446l-4 -23h-236z" />
    <glyph glyph-name="y" unicode="y" horiz-adv-x="995" 
d="M12 -358q-78 0 -137 12l55 199q77 -15 121 -15q88 0 142.5 34t117.5 138l-221 953h234l51 -349q48 -320 59 -419h33q27 56 98.5 201.5t102.5 213.5l166 353h245l-569 -975q-108 -184 -221.5 -265t-276.5 -81z" />
    <glyph glyph-name="z" unicode="z" horiz-adv-x="1009" 
d="M608 190h264l-34 -190h-848l33 193l700 585l-4 21q-251 -29 -371 -29h-205l33 193h825l-34 -193l-703 -588l4 -20q230 28 340 28z" />
    <glyph glyph-name="braceleft" unicode="{" horiz-adv-x="755" 
d="M555 -371q-129 -6 -166 -6q-170 0 -244.5 69t-52.5 195q9 46 35.5 92t58.5 83.5t64 74t56.5 78.5t31.5 82q12 70 -27 103.5t-137 33.5h-141l33 191h141q93 0 153 34.5t72 104.5q10 54 -8 114.5t-43.5 107t-42.5 112t-6 129.5q19 108 113 166.5t262 58.5q107 0 172 -6
l-33 -184q-41 2 -109 2q-86 0 -128.5 -28t-51.5 -85q-8 -39 5 -87.5t32 -88.5t30 -99t1 -116q-17 -95 -96 -147t-226 -70l-4 -23q151 -13 207.5 -64.5t38.5 -150.5q-10 -55 -42 -111.5t-65.5 -94.5t-63.5 -84.5t-36 -84.5q-11 -58 21 -88t116 -30q29 0 111 4z" />
    <glyph glyph-name="bar" unicode="|" horiz-adv-x="458" 
d="M190 -360h-219l314 1779h219z" />
    <glyph glyph-name="braceright" unicode="}" horiz-adv-x="755" 
d="M55 -385q-107 0 -172 6l33 184q41 -2 109 -2q86 0 128.5 28t51.5 85q8 39 -5 87.5t-32 88.5t-30 99t-1 116q17 95 96 147t226 70l4 23q-151 13 -207.5 64.5t-38.5 150.5q8 45 30.5 90t50 80.5t54 69t47 68t25.5 65.5q11 59 -21 89.5t-116 30.5q-29 0 -111 -4l33 187
q129 6 164 6q170 0 244.5 -69t52.5 -195q-9 -46 -35.5 -92t-58 -83.5t-63.5 -74t-57 -78.5t-32 -82q-12 -70 27 -103.5t137 -33.5h143l-35 -191h-141q-93 0 -152.5 -34.5t-72.5 -104.5q-10 -54 8 -114.5t43.5 -107t42.5 -112t6 -129.5q-19 -108 -113 -166.5t-262 -58.5z" />
    <glyph glyph-name="asciitilde" unicode="~" horiz-adv-x="1046" 
d="M743 537q-59 0 -104 23t-69 57t-46 74.5t-37 74.5t-39.5 57t-56.5 23q-67 0 -104 -69.5t-56 -225.5h-131q2 62 17 137q62 359 286 359q52 0 92 -17t64.5 -44.5t43.5 -61t34 -67t30.5 -61t37.5 -44.5t51 -17q66 0 106.5 72.5t57.5 224.5h129q-2 -45 -15 -135
q-32 -178 -106.5 -269t-184.5 -91z" />
    <glyph glyph-name="uni00A0" unicode="&#xa0;" horiz-adv-x="356" 
 />
    <glyph glyph-name="exclamdown" unicode="&#xa1;" horiz-adv-x="497" 
d="M143 518h224l-138 -784h-223zM418 713h-256l45 250h256z" />
    <glyph glyph-name="cent" unicode="&#xa2;" horiz-adv-x="1046" 
d="M575 1214h191l-59 -247q153 -22 225.5 -112t75.5 -230l-211 -37q-5 98 -52.5 149t-156.5 51q-119 0 -197 -75t-104 -226q-27 -148 28 -231.5t185 -83.5q55 0 99 16t75 46t52.5 65t39.5 82l197 -53q-107 -310 -426 -336l-31 -246h-189l60 252q-183 29 -266 165t-45 351
q36 208 162 325t319 132z" />
    <glyph glyph-name="sterling" unicode="&#xa3;" horiz-adv-x="1128" 
d="M967 0h-992l33 193h199q30 67 47 155q9 52 6 105h-203l29 168h162q-16 172 4 286q30 163 141.5 252.5t304.5 89.5q93 0 164 -20.5t116 -55t75 -86.5t43 -109t16 -128l-209 -35q-9 127 -56 184.5t-159 57.5q-101 0 -156.5 -54.5t-70.5 -144.5q-13 -74 -4 -237h473
l-31 -168h-444q-1 -4 -2 -11.5t-2 -11.5q-12 -75 -34.5 -128.5t-74.5 -108.5h659z" />
    <glyph glyph-name="yen" unicode="&#xa5;" horiz-adv-x="1191" 
d="M1085 319h-401l-55 -319h-234l56 319h-402l25 150h366l-55 143h-285l27 156h197l-172 438l4 23h247l191 -627h35l415 627h254l-4 -23l-325 -438h196l-28 -156h-283l-109 -143h367z" />
    <glyph glyph-name="brokenbar" unicode="&#xa6;" horiz-adv-x="458" 
d="M190 -360h-217l138 784h219zM362 612h-219l144 807h219z" />
    <glyph glyph-name="section" unicode="&#xa7;" horiz-adv-x="1228" 
d="M520 -356q-139 0 -239 28.5t-158.5 82.5t-86.5 123t-34 161l223 43q6 -128 77.5 -195t232.5 -67q224 0 249 135q13 77 -42 119.5t-226 75.5q-189 38 -296.5 92t-144 123.5t-18.5 166.5q23 132 215 224q-44 78 -22 196q26 141 141 222t316 81q101 0 176.5 -18.5t123.5 -50
t79.5 -81.5t46 -104.5t20.5 -128.5l-221 -30q-11 125 -63 183t-175 58q-107 0 -163.5 -37t-67.5 -100q-6 -38 1 -65.5t34.5 -55.5t89.5 -50.5t160 -41.5q134 -25 221.5 -61t130.5 -81t56 -102t-1 -124q-24 -133 -182 -218q51 -80 28 -208q-54 -295 -481 -295zM625 322
q193 -38 290 -113q50 60 60 121q12 66 -14.5 107.5t-111 76.5t-253.5 70q-188 40 -270 110q-72 -62 -82 -123q-10 -58 15 -98t112.5 -78t253.5 -73z" />
    <glyph glyph-name="dieresis" unicode="&#xa8;" horiz-adv-x="688" 
d="M203 1346h217l-37 -211h-217zM563 1346h217l-37 -211h-217z" />
    <glyph glyph-name="copyright" unicode="&#xa9;" horiz-adv-x="1851" 
d="M862 -47q616 0 729 629q19 123 15 229t-43.5 191.5t-107 146.5t-175 94t-246.5 33q-616 0 -729 -629q-19 -122 -15 -228t43.5 -192t106.5 -147t174.5 -94t247.5 -33zM1049 1448q146 0 266 -30.5t206 -87t147 -136.5t90 -179t35 -214t-19 -242q-66 -372 -299.5 -575
t-626.5 -203q-146 0 -266.5 30.5t-205.5 87.5t-146 137t-89 179t-34.5 214.5t18.5 242.5q66 373 298 574.5t626 201.5zM1159 698q-2 95 -39 142t-129 47q-202 0 -248 -254q-24 -131 21 -207t156 -76q91 0 139.5 44.5t68.5 131.5l187 -26q-39 -165 -139.5 -243.5
t-280.5 -78.5q-197 0 -292.5 126.5t-57.5 344.5q37 201 155.5 305.5t307.5 104.5q179 0 262 -88.5t78 -249.5z" />
    <glyph glyph-name="ordfeminine" unicode="&#xaa;" horiz-adv-x="808" 
d="M408 776q79 0 136.5 46t69.5 116l4 29h-169q-131 0 -146 -90q-8 -45 16 -73t89 -28zM578 672l30 166h-14q-100 -185 -272 -185q-103 0 -158.5 56.5t-38.5 154.5q28 176 281 176h227l12 72q11 61 -15 96t-91 35q-112 0 -164 -117l-166 48q91 208 344 208q164 0 232 -80.5
t44 -220.5l-73 -409h-178z" />
    <glyph glyph-name="guillemotleft" unicode="&#xab;" horiz-adv-x="1286" 
d="M649 68h-213l-393 444l4 33l541 444h223l-4 -26l-531 -441v-4l377 -426zM1171 68h-213l-393 444l4 33l541 444h223l-4 -26l-530 -441v-4l377 -426z" />
    <glyph glyph-name="registered" unicode="&#xae;" horiz-adv-x="1853" 
d="M1024 877h-207l-43 -248h207q157 0 176 114q12 68 -18.5 101t-114.5 33zM1085 211l-161 283h-174l-50 -283h-190l143 817h406q165 0 239 -77t50 -214q-34 -184 -234 -229l184 -279l-2 -18h-211zM862 -47q616 0 729 629q19 123 15 229t-43.5 191.5t-107 146.5t-175 94
t-246.5 33q-616 0 -729 -629q-19 -122 -15 -228t43.5 -192t106.5 -147t174.5 -94t247.5 -33zM848 -219q-146 0 -266.5 30.5t-205.5 87.5t-146 137t-89 179t-34.5 214.5t18.5 242.5q66 373 298 574.5t626 201.5q146 0 266 -30.5t206 -87t147 -136.5t90 -179t35 -214t-19 -242
q-66 -372 -299.5 -575t-626.5 -203z" />
    <glyph glyph-name="macron" unicode="&#xaf;" horiz-adv-x="647" 
d="M188 1294h557l-28 -155h-555z" />
    <glyph glyph-name="degree" unicode="&#xb0;" horiz-adv-x="673" 
d="M655 1006q12 -97 -44 -170.5t-160 -98.5q-111 -26 -182 29.5t-76 165.5q-12 95 43 168.5t159 99.5q112 24 183 -30.5t77 -163.5zM317 932q9 -52 43.5 -72.5t88.5 0.5q49 22 69.5 60t9.5 86q-9 51 -42 70t-89 -1q-102 -44 -80 -143z" />
    <glyph glyph-name="twosuperior" unicode="&#xb2;" horiz-adv-x="757" 
d="M524 1262q-72 0 -117.5 -40t-72.5 -122l-150 33q82 258 353 258q151 0 222.5 -65.5t51.5 -180.5q-18 -94 -94.5 -139t-247.5 -80q-116 -26 -163 -57t-62 -89q129 17 239 17h275l-27 -142h-655l12 74q22 120 95 186.5t231 102.5q131 32 178.5 60t56.5 77q8 48 -22.5 77.5
t-102.5 29.5z" />
    <glyph glyph-name="threesuperior" unicode="&#xb3;" horiz-adv-x="739" 
d="M414 639q-302 0 -312 231l156 25q6 -64 44.5 -95.5t123.5 -31.5q148 0 164 96q9 50 -19 73.5t-110 23.5h-109l19 106h108q131 0 146 90q9 52 -20.5 77.5t-100.5 25.5q-77 0 -119.5 -30t-65.5 -93l-145 32q86 220 340 220q147 0 216 -56.5t54 -154.5q-12 -66 -60.5 -102
t-141.5 -50l-2 -20q102 -12 141 -56.5t27 -122.5q-15 -91 -99.5 -139.5t-234.5 -48.5z" />
    <glyph glyph-name="acute" unicode="&#xb4;" horiz-adv-x="649" 
d="M203 1059l-47 110l528 273l66 -156z" />
    <glyph glyph-name="paragraph" unicode="&#xb6;" horiz-adv-x="1366" 
d="M1100 -326h-209l274 1555h209zM770 -326h-207l107 605h-111q-249 0 -368.5 135.5t-77.5 378.5q77 436 553 436h378z" />
    <glyph glyph-name="periodcentered" unicode="&#xb7;" horiz-adv-x="434" 
d="M117 625h256l-43 -250h-256z" />
    <glyph glyph-name="cedilla" unicode="&#xb8;" horiz-adv-x="464" 
d="M111 -344q-122 0 -201 57l63 82q63 -49 150 -49q82 0 92 53q5 27 -13 41.5t-57 14.5q-34 0 -84 -13l-59 27l98 180l93 -4l-82 -143q43 12 79 12q68 0 104 -30t25 -95q-9 -52 -61 -92.5t-147 -40.5z" />
    <glyph glyph-name="onesuperior" unicode="&#xb9;" horiz-adv-x="602" 
d="M610 655h-534l24 142h207l78 438q-95 -48 -195 -88l-32 131l301 96h110l-100 -577h166z" />
    <glyph glyph-name="ordmasculine" unicode="&#xba;" horiz-adv-x="794" 
d="M455 659q-170 0 -250.5 108t-48.5 290q28 154 129.5 239.5t255.5 85.5q164 0 246.5 -104.5t52.5 -282.5q-28 -157 -128.5 -246.5t-256.5 -89.5zM528 1243q-174 0 -213 -211q-19 -110 18 -170.5t132 -60.5q177 0 213 217q19 106 -19.5 165.5t-130.5 59.5z" />
    <glyph glyph-name="guillemotright" unicode="&#xbb;" horiz-adv-x="1290" 
d="M707 59h-224l6 27l529 436v8l-375 426l4 25h211l395 -444l-6 -33zM184 59h-223l6 27l529 436v8l-375 426l4 25h211l395 -444l-6 -33z" />
    <glyph glyph-name="onequarter" unicode="&#xbc;" horiz-adv-x="1511" 
d="M285 0h-308l3 12l671 537l39 -35zM1202 1229h307l-2 -12l-671 -537l-41 37zM610 655h-534l24 142h207l78 438q-95 -48 -195 -88l-32 131l301 96h110l-100 -577h166zM1051 145h43l55 314l-8 4l-332 -330l2 -4q138 16 240 16zM1331 20h-102l-29 -163h-158l29 163h-428
l19 105l456 448h209l-76 -428h103z" />
    <glyph glyph-name="onehalf" unicode="&#xbd;" horiz-adv-x="1482" 
d="M266 0h-307l2 12l672 537l39 -35zM1184 1229h307l-2 -12l-672 -537l-41 37zM610 655h-534l24 142h207l78 438q-95 -48 -195 -88l-32 131l301 96h110l-100 -577h166zM1081 463q-72 0 -117.5 -40t-72.5 -122l-150 33q82 258 353 258q151 0 222.5 -65.5t51.5 -180.5
q-18 -94 -94.5 -139t-247.5 -80q-117 -26 -163.5 -56.5t-61.5 -88.5q122 16 239 16h275l-27 -141h-655l12 73q22 120 95 186.5t231 102.5q131 32 178.5 60t56.5 77q8 48 -22.5 77.5t-102.5 29.5z" />
    <glyph glyph-name="threequarters" unicode="&#xbe;" horiz-adv-x="1544" 
d="M342 0h-307l2 12l672 537l39 -35zM1260 1229h307l-2 -12l-672 -537l-41 37zM1378 20h-102l-29 -163h-157l28 163h-428l19 105l456 448h209l-76 -428h103zM420 639q-158 0 -232 59.5t-79 171.5l155 25q6 -64 44.5 -95.5t123.5 -31.5q148 0 164 96q9 50 -19 73.5t-110 23.5
h-109l19 106h108q131 0 146 90q9 52 -20.5 77.5t-100.5 25.5q-77 0 -119 -30t-65 -93l-146 32q86 220 340 220q148 0 217 -56.5t54 -154.5q-12 -66 -61 -102t-142 -50l-2 -20q102 -12 141 -56.5t27 -122.5q-15 -91 -99.5 -139.5t-234.5 -48.5zM1098 145h43l55 314l-8 4
l-332 -330l2 -4q138 16 240 16z" />
    <glyph glyph-name="questiondown" unicode="&#xbf;" horiz-adv-x="1003" 
d="M291 401q112 45 127 140q4 12 4 22h213q-1 -3 -3 -17t-3 -20q-18 -94 -68.5 -152.5t-157.5 -105.5q-108 -47 -149.5 -83t-54.5 -103q-15 -84 34 -132t156 -48q122 0 195 75t118 218l211 -41q-133 -443 -542 -443q-221 0 -326.5 100t-73.5 277q12 66 40.5 117t75 87.5
t92 60t112.5 48.5zM684 713h-256l45 250h256z" />
    <glyph glyph-name="Agrave" unicode="&#xc0;" horiz-adv-x="1208" 
d="M893 0l-51 313h-525l-161 -313h-250l672 1229h315l240 -1229h-240zM920 1341l-517 140l72 168l492 -191zM487 639l-77 -152h403l-25 152q-38 237 -55 387h-53q-81 -176 -193 -387z" />
    <glyph glyph-name="Aacute" unicode="&#xc1;" horiz-adv-x="1208" 
d="M893 0l-51 313h-525l-161 -313h-250l672 1229h315l240 -1229h-240zM578 1341l-21 117l555 191l33 -170zM487 639l-77 -152h403l-25 152q-38 237 -55 387h-53q-81 -176 -193 -387z" />
    <glyph glyph-name="Acircumflex" unicode="&#xc2;" horiz-adv-x="1208" 
d="M893 0l-51 313h-525l-161 -313h-250l672 1229h315l240 -1229h-240zM997 1317l-211 166l-272 -166l-59 84l315 248h78l229 -248zM487 639l-77 -152h403l-25 152q-38 237 -55 387h-53q-81 -176 -193 -387z" />
    <glyph glyph-name="Atilde" unicode="&#xc3;" horiz-adv-x="1208" 
d="M893 0l-51 313h-525l-161 -313h-250l672 1229h315l240 -1229h-240zM618 1677q45 0 79 -19.5t54.5 -47.5t38 -56t38 -47.5t46.5 -19.5q41 0 64 43t37 137h104q-2 -35 -10 -92q-21 -120 -73.5 -181t-127.5 -61q-41 0 -73.5 19.5t-52.5 47.5t-37.5 55.5t-41 47t-51.5 19.5
q-42 0 -64 -39t-40 -137h-102q2 33 10 92q21 119 74 179t128 60zM487 639l-77 -152h403l-25 152q-38 237 -55 387h-53q-81 -176 -193 -387z" />
    <glyph glyph-name="Adieresis" unicode="&#xc4;" horiz-adv-x="1208" 
d="M893 0l-51 313h-525l-161 -313h-250l672 1229h315l240 -1229h-240zM485 1563h217l-36 -211h-217zM846 1563h217l-37 -211h-217zM487 639l-77 -152h403l-25 152q-38 237 -55 387h-53q-81 -176 -193 -387z" />
    <glyph glyph-name="Aring" unicode="&#xc5;" horiz-adv-x="1208" 
d="M893 0l-51 313h-525l-161 -313h-250l672 1229h315l240 -1229h-240zM684 1540q-7 -51 16.5 -79.5t73.5 -28.5q48 0 80 26.5t39 73.5q9 51 -15 79.5t-75 28.5q-46 0 -78 -26.5t-41 -73.5zM1010 1522q-15 -91 -83.5 -146t-166.5 -55q-105 0 -157.5 63t-33.5 166
q15 91 82.5 145t165.5 54q106 0 159 -62t34 -165zM487 639l-77 -152h403l-25 152q-38 237 -55 387h-53q-81 -176 -193 -387z" />
    <glyph glyph-name="AE" unicode="&#xc6;" horiz-adv-x="1765" 
d="M580 639l-119 -184h325l103 581h-64q-115 -197 -245 -397zM707 0l49 279h-408l-178 -279h-254l2 12l830 1217h1060l-36 -203h-650l-55 -303h592l-35 -201h-592l-57 -319h651l-37 -203h-882z" />
    <glyph glyph-name="Ccedilla" unicode="&#xc7;" horiz-adv-x="1275" 
d="M598 -27q-31 0 -45 2l-43 -73q44 12 80 12q68 0 104 -30t25 -95q-9 -52 -61.5 -92.5t-147.5 -40.5q-122 0 -201 57l64 82q63 -49 149 -49q82 0 92 53q5 27 -12.5 41.5t-56.5 14.5q-34 0 -84 -13l-60 27l64 117q-227 41 -325 217.5t-50 447.5q51 286 226.5 445t443.5 159
q245 0 372 -128.5t130 -350.5l-228 -28q-5 154 -75.5 228.5t-221.5 74.5q-174 0 -279.5 -113t-140.5 -309q-36 -214 35 -333.5t258 -119.5q148 0 237.5 78t147.5 238l217 -48q-143 -471 -614 -471z" />
    <glyph glyph-name="Egrave" unicode="&#xc8;" horiz-adv-x="1103" 
d="M45 0l217 1229h885l-37 -203h-649l-55 -303h591l-34 -201h-592l-58 -319h652l-37 -203h-883zM887 1341l-516 140l71 168l492 -191z" />
    <glyph glyph-name="Eacute" unicode="&#xc9;" horiz-adv-x="1103" 
d="M45 0l217 1229h885l-37 -203h-649l-55 -303h591l-34 -201h-592l-58 -319h652l-37 -203h-883zM545 1341l-21 117l555 191l33 -170z" />
    <glyph glyph-name="Ecircumflex" unicode="&#xca;" horiz-adv-x="1103" 
d="M45 0l217 1229h885l-37 -203h-649l-55 -303h591l-34 -201h-592l-58 -319h652l-37 -203h-883zM965 1317l-211 166l-273 -166l-59 84l315 248h78l229 -248z" />
    <glyph glyph-name="Edieresis" unicode="&#xcb;" horiz-adv-x="1103" 
d="M45 0l217 1229h885l-37 -203h-649l-55 -303h591l-34 -201h-592l-58 -319h652l-37 -203h-883zM453 1563h217l-37 -211h-217zM813 1563h217l-37 -211h-217z" />
    <glyph glyph-name="Igrave" unicode="&#xcc;" horiz-adv-x="481" 
d="M272 0h-233l217 1229h231zM557 1341l-516 140l72 168l491 -191z" />
    <glyph glyph-name="Iacute" unicode="&#xcd;" horiz-adv-x="481" 
d="M272 0h-233l217 1229h231zM213 1341l-20 117l555 191l32 -170z" />
    <glyph glyph-name="Icircumflex" unicode="&#xce;" horiz-adv-x="481" 
d="M272 0h-233l217 1229h231zM635 1317l-211 166l-272 -166l-60 84l316 248h77l230 -248z" />
    <glyph glyph-name="Idieresis" unicode="&#xcf;" horiz-adv-x="481" 
d="M272 0h-233l217 1229h231zM125 1563h217l-37 -211h-217zM485 1563h217l-36 -211h-217z" />
    <glyph glyph-name="Eth" unicode="&#xd0;" horiz-adv-x="1359" 
d="M741 541h-313l-59 -348h254q206 0 319.5 103.5t149.5 307.5q38 225 -44.5 327.5t-304.5 102.5h-227l-61 -348h313zM102 0l93 541h-140l27 145h139l92 543h478q320 0 450.5 -170t75.5 -486q-47 -273 -232.5 -424t-466.5 -149h-516z" />
    <glyph glyph-name="Ntilde" unicode="&#xd1;" horiz-adv-x="1318" 
d="M805 0l-205 559q-89 248 -141 465l-41 -4q-30 -296 -84 -598l-74 -422h-217l215 1229h328l180 -481q107 -298 158 -515l39 3q29 311 77 567l74 426h217l-217 -1229h-309zM674 1677q45 0 79 -19.5t54.5 -47.5t38 -56t38 -47.5t46.5 -19.5q41 0 63.5 42.5t36.5 137.5h105
q-1 -22 -11 -92q-21 -121 -73 -181.5t-127 -60.5q-41 0 -73.5 19.5t-52.5 47.5t-37.5 55.5t-41 47t-51.5 19.5q-42 0 -64.5 -39.5t-40.5 -136.5h-102q2 33 10 92q21 119 74 179t129 60z" />
    <glyph glyph-name="Ograve" unicode="&#xd2;" horiz-adv-x="1345" 
d="M616 -27q-202 0 -333.5 87t-179.5 242.5t-11 361.5q50 274 230.5 432.5t453.5 158.5q198 0 329.5 -85.5t181.5 -240.5t13 -360q-48 -276 -227 -436t-457 -160zM631 176q188 0 297.5 110t146.5 312q37 206 -41.5 329.5t-271.5 123.5q-187 0 -297.5 -108.5t-145.5 -303.5
q-24 -140 -0.5 -242t102.5 -161.5t210 -59.5zM989 1341l-516 140l72 168l491 -191z" />
    <glyph glyph-name="Oacute" unicode="&#xd3;" horiz-adv-x="1345" 
d="M616 -27q-202 0 -333.5 87t-179.5 242.5t-11 361.5q50 274 230.5 432.5t453.5 158.5q198 0 329.5 -85.5t181.5 -240.5t13 -360q-48 -276 -227 -436t-457 -160zM631 176q188 0 297.5 110t146.5 312q37 206 -41.5 329.5t-271.5 123.5q-187 0 -297.5 -108.5t-145.5 -303.5
q-24 -140 -0.5 -242t102.5 -161.5t210 -59.5zM647 1341l-20 117l555 191l32 -170z" />
    <glyph glyph-name="Ocircumflex" unicode="&#xd4;" horiz-adv-x="1345" 
d="M631 176q188 0 297.5 110t146.5 312q37 206 -41.5 329.5t-271.5 123.5q-187 0 -297.5 -108.5t-145.5 -303.5q-24 -140 -0.5 -242t102.5 -161.5t210 -59.5zM616 -27q-202 0 -333.5 87t-179.5 242.5t-11 361.5q50 274 230.5 432.5t453.5 158.5q198 0 329.5 -85.5
t181.5 -240.5t13 -360q-48 -276 -227 -436t-457 -160zM1067 1317l-211 166l-272 -166l-60 84l316 248h78l229 -248z" />
    <glyph glyph-name="Otilde" unicode="&#xd5;" horiz-adv-x="1345" 
d="M616 -27q-202 0 -333.5 87t-179.5 242.5t-11 361.5q50 274 230.5 432.5t453.5 158.5q198 0 329.5 -85.5t181.5 -240.5t13 -360q-48 -276 -227 -436t-457 -160zM631 176q188 0 297.5 110t146.5 312q37 206 -41.5 329.5t-271.5 123.5q-187 0 -297.5 -108.5t-145.5 -303.5
q-24 -140 -0.5 -242t102.5 -161.5t210 -59.5zM688 1677q45 0 79 -19.5t54.5 -47.5t38 -56t38 -47.5t46.5 -19.5q41 0 63.5 42.5t36.5 137.5h105q-2 -35 -10 -92q-21 -120 -73.5 -181t-127.5 -61q-41 0 -73.5 19.5t-52.5 47.5t-37.5 55.5t-41 47t-51.5 19.5q-42 0 -64 -39
t-40 -137h-103q2 33 10 92q21 119 74 179t129 60z" />
    <glyph glyph-name="Odieresis" unicode="&#xd6;" horiz-adv-x="1345" 
d="M616 -27q-202 0 -333.5 87t-179.5 242.5t-11 361.5q50 274 230.5 432.5t453.5 158.5q198 0 329.5 -85.5t181.5 -240.5t13 -360q-48 -276 -227 -436t-457 -160zM631 176q188 0 297.5 110t146.5 312q37 206 -41.5 329.5t-271.5 123.5q-187 0 -297.5 -108.5t-145.5 -303.5
q-24 -140 -0.5 -242t102.5 -161.5t210 -59.5zM555 1563h217l-37 -211h-217zM915 1563h218l-37 -211h-217z" />
    <glyph glyph-name="multiply" unicode="&#xd7;" horiz-adv-x="1028" 
d="M745 201q-126 167 -225 303q-260 -248 -330 -311l-139 163q51 40 104.5 81t132 99t126.5 95q-132 134 -258 270l176 148q162 -215 223 -299q47 43 114 106.5t118.5 110.5t99.5 90l139 -164q-64 -50 -190 -142.5t-172 -127.5q38 -41 125 -133t133 -142z" />
    <glyph glyph-name="Oslash" unicode="&#xd8;" horiz-adv-x="1343" 
d="M616 -27q-249 0 -389 131l-110 -104h-187v10l217 191q-105 183 -55 463q50 274 230.5 432.5t453.5 158.5q256 0 395 -139l121 113h181l-3 -12l-223 -199q103 -179 53 -449q-48 -276 -227 -436t-457 -160zM311 639q-31 -173 11 -283l688 615q-83 86 -246 86
q-191 0 -304.5 -110.5t-148.5 -307.5zM629 170q193 0 305.5 111.5t150.5 316.5q29 163 -10 266l-688 -614q86 -80 242 -80z" />
    <glyph glyph-name="Ugrave" unicode="&#xd9;" horiz-adv-x="1290" 
d="M610 182q78 0 135.5 20.5t95 61.5t60 94.5t35.5 126.5l131 744h233l-137 -774q-41 -237 -183.5 -358.5t-381.5 -121.5q-271 0 -393 135.5t-78 387.5l129 731h231l-129 -737q-15 -68 -8 -124.5t33 -98t83.5 -64.5t143.5 -23zM963 1341l-517 140l72 168l492 -191z" />
    <glyph glyph-name="Uacute" unicode="&#xda;" horiz-adv-x="1290" 
d="M610 182q78 0 135.5 20.5t95 61.5t60 94.5t35.5 126.5l131 744h233l-137 -774q-41 -237 -183.5 -358.5t-381.5 -121.5q-271 0 -393 135.5t-78 387.5l129 731h231l-129 -737q-15 -68 -8 -124.5t33 -98t83.5 -64.5t143.5 -23zM621 1341l-21 117l555 191l33 -170z" />
    <glyph glyph-name="Ucircumflex" unicode="&#xdb;" horiz-adv-x="1290" 
d="M610 182q78 0 135.5 20.5t95 61.5t60 94.5t35.5 126.5l131 744h233l-137 -774q-41 -237 -183.5 -358.5t-381.5 -121.5q-271 0 -393 135.5t-78 387.5l129 731h231l-129 -737q-15 -68 -8 -124.5t33 -98t83.5 -64.5t143.5 -23zM1040 1317l-211 166l-272 -166l-59 84l315 248
h78l229 -248z" />
    <glyph glyph-name="Udieresis" unicode="&#xdc;" horiz-adv-x="1290" 
d="M610 182q78 0 135.5 20.5t95 61.5t60 94.5t35.5 126.5l131 744h233l-137 -774q-41 -237 -183.5 -358.5t-381.5 -121.5q-271 0 -393 135.5t-78 387.5l129 731h231l-129 -737q-15 -68 -8 -124.5t33 -98t83.5 -64.5t143.5 -23zM528 1563h217l-36 -211h-217zM889 1563h217
l-37 -211h-217z" />
    <glyph glyph-name="Yacute" unicode="&#xdd;" horiz-adv-x="1105" 
d="M586 0h-234l70 408l-313 798l4 23h247l191 -627h35l415 627h254l-4 -23l-596 -800zM526 1341l-20 117l555 191l33 -170z" />
    <glyph glyph-name="Thorn" unicode="&#xde;" horiz-adv-x="1120" 
d="M256 1229h233l-32 -185h256q233 0 334 -114.5t61 -339.5q-30 -174 -156.5 -273.5t-339.5 -99.5h-301l-39 -217h-233zM674 846h-252l-76 -430h258q129 0 195.5 47.5t83.5 150.5q22 121 -25.5 176.5t-183.5 55.5z" />
    <glyph glyph-name="germandbls" unicode="&#xdf;" horiz-adv-x="1159" 
d="M633 -20q-184 0 -283 108l88 184q64 -90 203 -90q185 0 213 174q11 49 3.5 91t-31 72.5t-75 47.5t-128.5 17h-127l32 184h88q95 0 157 46.5t79 137.5q15 89 -28 146t-152 57q-116 0 -175 -64.5t-79 -183.5l-162 -907h-219l162 918q72 417 485 417q216 0 315.5 -105.5
t71.5 -264.5q-20 -113 -98 -176t-215 -87l-4 -28q199 -21 267.5 -113t39.5 -258q-27 -151 -134 -237t-294 -86z" />
    <glyph glyph-name="agrave" unicode="&#xe0;" 
d="M805 1063l-467 225l94 158l430 -277zM463 170q102 0 178 64.5t104 173.5l9 49l14 75q15 116 -41 186t-168 70q-116 0 -185 -73.5t-95 -225.5q-58 -319 184 -319zM68 512q40 229 150 353t271 122q136 1 210.5 -76.5t86.5 -214.5l13 9l45 258h221l-170 -963h-221l45 256
l-4 -2l4 27q-58 -141 -157 -224.5t-228 -83.5q-169 0 -240 140.5t-26 398.5z" />
    <glyph glyph-name="aacute" unicode="&#xe1;" 
d="M500 1059l-47 110l528 273l66 -156zM463 170q102 0 178 64.5t104 173.5l9 49l14 75q15 116 -41 186t-168 70q-116 0 -185 -73.5t-95 -225.5q-58 -319 184 -319zM68 512q40 229 150 353t271 122q136 1 210.5 -76.5t86.5 -214.5l13 9l45 258h221l-170 -963h-221l45 256
l-4 -2l4 27q-58 -141 -157 -224.5t-228 -83.5q-169 0 -240 140.5t-26 398.5z" />
    <glyph glyph-name="acircumflex" unicode="&#xe2;" 
d="M877 1061l-199 199l-270 -199l-72 82l326 291h75l224 -291zM463 170q102 0 178 64.5t104 173.5l9 49l14 75q15 116 -41 186t-168 70q-116 0 -185 -73.5t-95 -225.5q-58 -319 184 -319zM68 512q40 229 150 353t271 122q136 1 210.5 -76.5t86.5 -214.5l13 9l45 258h221
l-170 -963h-221l45 256l-4 -2l4 27q-58 -141 -157 -224.5t-228 -83.5q-169 0 -240 140.5t-26 398.5z" />
    <glyph glyph-name="atilde" unicode="&#xe3;" 
d="M543 1436q45 0 79 -19.5t54.5 -48t38 -56.5t38 -47.5t46.5 -19.5q41 0 63.5 42.5t36.5 137.5h105q-1 -22 -11 -92q-21 -120 -73 -180.5t-127 -60.5q-41 0 -73.5 19.5t-52.5 47t-37.5 55t-41 47t-51.5 19.5q-42 0 -64.5 -39.5t-40.5 -136.5h-102q2 33 10 92
q21 119 74.5 179.5t128.5 60.5zM463 170q102 0 178 64.5t104 173.5l9 49l14 75q15 116 -41 186t-168 70q-116 0 -185 -73.5t-95 -225.5q-58 -319 184 -319zM68 512q40 229 150 353t271 122q136 1 210.5 -76.5t86.5 -214.5l13 9l45 258h221l-170 -963h-221l45 256l-4 -2l4 27
q-58 -141 -157 -224.5t-228 -83.5q-169 0 -240 140.5t-26 398.5z" />
    <glyph glyph-name="adieresis" unicode="&#xe4;" 
d="M393 1346h217l-37 -211h-217zM754 1346h217l-37 -211h-217zM463 170q102 0 178 64.5t104 173.5l9 49l14 75q15 116 -41 186t-168 70q-116 0 -185 -73.5t-95 -225.5q-58 -319 184 -319zM68 512q40 229 150 353t271 122q136 1 210.5 -76.5t86.5 -214.5l13 9l45 258h221
l-170 -963h-221l45 256l-4 -2l4 27q-58 -141 -157 -224.5t-228 -83.5q-169 0 -240 140.5t-26 398.5z" />
    <glyph glyph-name="aring" unicode="&#xe5;" 
d="M561 1307q-9 -57 17.5 -91t83.5 -34q50 0 83.5 29.5t42.5 84.5q9 57 -17.5 90t-80.5 33q-52 0 -86 -28.5t-43 -83.5zM903 1282q-17 -98 -85.5 -153.5t-170.5 -55.5q-111 0 -166.5 68.5t-36.5 177.5q19 100 87 155.5t169 55.5q111 0 167 -70t36 -178zM463 170
q102 0 178 64.5t104 173.5l9 49l14 75q15 116 -41 186t-168 70q-116 0 -185 -73.5t-95 -225.5q-58 -319 184 -319zM68 512q40 229 150 353t271 122q136 1 210.5 -76.5t86.5 -214.5l13 9l45 258h221l-170 -963h-221l45 256l-4 -2l4 27q-58 -141 -157 -224.5t-228 -83.5
q-169 0 -240 140.5t-26 398.5z" />
    <glyph glyph-name="ae" unicode="&#xe6;" horiz-adv-x="1671" 
d="M383 152q112 0 190.5 59t96.5 151l12 66h-256q-79 0 -128.5 -33t-59.5 -94q-11 -66 23 -107.5t122 -41.5zM1223 817q-235 0 -303 -276h497q45 276 -194 276zM1561 272q-41 -94 -94.5 -157t-144 -102.5t-212.5 -39.5q-166 0 -275 70t-133 203q-62 -132 -169 -200.5
t-244 -68.5q-139 0 -215 79.5t-49 228.5q21 114 115 178.5t261 64.5h297l15 80q18 99 -19 149t-137 50q-82 0 -136.5 -41.5t-90.5 -128.5l-199 53q53 139 159.5 218t262.5 79q276 0 324 -192q129 192 376 192q216 0 308.5 -121.5t56.5 -330.5q-13 -65 -23 -99h-694
q-27 -280 225 -280q104 0 160 46t98 132z" />
    <glyph glyph-name="ccedilla" unicode="&#xe7;" horiz-adv-x="1060" 
d="M797 588q-5 101 -50.5 153t-156.5 52q-120 0 -198 -75.5t-105 -228.5q-27 -150 27 -235.5t184 -85.5q106 0 167 55.5t101 157.5l197 -53q-61 -173 -178.5 -264t-305.5 -91q-29 0 -43 2l-43 -73q43 12 80 12q68 0 104 -30t25 -95q-9 -52 -61.5 -92.5t-147.5 -40.5
q-121 0 -200 57l63 82q63 -49 150 -49q82 0 92 53q5 27 -13 41.5t-57 14.5q-34 0 -84 -13l-59 27l63 119q-168 37 -243 174.5t-37 353.5q38 225 181 348t357 123q395 0 402 -362z" />
    <glyph glyph-name="egrave" unicode="&#xe8;" horiz-adv-x="1040" 
d="M590 817q-226 0 -295 -252h493q35 252 -198 252zM481 -25q-232 0 -346 142.5t-69 404.5q40 219 183.5 342t356.5 123q223 0 319 -126.5t58 -344.5q-5 -34 -22 -98h-693q-18 -262 221 -262q55 0 98 13t73 38t50 53t38 66l182 -62q-30 -67 -68.5 -117.5t-92 -90.5
t-126 -60.5t-162.5 -20.5zM803 1063l-467 225l94 158l430 -277z" />
    <glyph glyph-name="eacute" unicode="&#xe9;" horiz-adv-x="1040" 
d="M590 817q-226 0 -295 -252h493q35 252 -198 252zM481 -25q-232 0 -346 142.5t-69 404.5q40 219 183.5 342t356.5 123q223 0 319 -126.5t58 -344.5q-5 -34 -22 -98h-693q-18 -262 221 -262q55 0 98 13t73 38t50 53t38 66l182 -62q-30 -67 -68.5 -117.5t-92 -90.5
t-126 -60.5t-162.5 -20.5zM492 1059l-48 110l529 273l65 -156z" />
    <glyph glyph-name="ecircumflex" unicode="&#xea;" horiz-adv-x="1040" 
d="M590 817q-226 0 -295 -252h493q35 252 -198 252zM481 -25q-232 0 -346 142.5t-69 404.5q40 219 183.5 342t356.5 123q223 0 319 -126.5t58 -344.5q-5 -34 -22 -98h-693q-18 -262 221 -262q55 0 98 13t73 38t50 53t38 66l182 -62q-30 -67 -68.5 -117.5t-92 -90.5
t-126 -60.5t-162.5 -20.5zM874 1061l-198 199l-270 -199l-72 82l325 291h76l223 -291z" />
    <glyph glyph-name="edieresis" unicode="&#xeb;" horiz-adv-x="1040" 
d="M590 817q-226 0 -295 -252h493q35 252 -198 252zM481 -25q-232 0 -346 142.5t-69 404.5q40 219 183.5 342t356.5 123q223 0 319 -126.5t58 -344.5q-5 -34 -22 -98h-693q-18 -262 221 -262q55 0 98 13t73 38t50 53t38 66l182 -62q-30 -67 -68.5 -117.5t-92 -90.5
t-126 -60.5t-162.5 -20.5zM389 1346h217l-37 -211h-217zM750 1346h217l-37 -211h-217z" />
    <glyph glyph-name="igrave" unicode="&#xec;" horiz-adv-x="516" 
d="M283 0h-220l168 963h222zM532 1063l-466 225l94 158l430 -277z" />
    <glyph glyph-name="iacute" unicode="&#xed;" horiz-adv-x="516" 
d="M283 0h-220l168 963h222zM215 1059l-47 110l528 273l66 -156z" />
    <glyph glyph-name="icircumflex" unicode="&#xee;" horiz-adv-x="516" 
d="M283 0h-220l168 963h222zM604 1061l-198 199l-271 -199l-72 82l326 291h76l223 -291z" />
    <glyph glyph-name="idieresis" unicode="&#xef;" horiz-adv-x="516" 
d="M283 0h-220l168 963h222zM117 1346h217l-37 -211h-217zM477 1346h217l-37 -211h-217z" />
    <glyph glyph-name="eth" unicode="&#xf0;" horiz-adv-x="1077" 
d="M469 -27q-232 0 -341 134.5t-65 384.5q24 139 91 238t158.5 145.5t201.5 46.5q121 0 197 -68t104 -182l23 6q-14 223 -181 407l-280 -100l-37 115l219 80q-66 53 -135 94l88 115q131 -57 238 -140l241 88l35 -118l-176 -64q118 -127 163 -289t11 -350
q-46 -260 -190 -401.5t-365 -141.5zM799 471q24 137 -33 215t-188 78q-120 0 -197.5 -77.5t-101.5 -213.5q-27 -148 25 -228.5t183 -80.5q122 0 204.5 83t107.5 224z" />
    <glyph glyph-name="ntilde" unicode="&#xf1;" horiz-adv-x="1087" 
d="M346 545l-96 -545h-221l170 963h215l-45 -254h18q62 134 158 206t217 72q147 0 212 -96t36 -262l-111 -629h-221l102 586q16 93 -20 147.5t-129 54.5q-113 0 -189.5 -66.5t-95.5 -176.5zM563 1436q45 0 79 -19.5t54.5 -48t38 -56.5t38 -47.5t46.5 -19.5q41 0 64 43
t37 137h104q-2 -35 -10 -92q-21 -120 -73.5 -180.5t-127.5 -60.5q-41 0 -73.5 19.5t-52.5 47t-37.5 55t-41 47t-51.5 19.5q-42 0 -64 -39t-40 -137h-103q2 33 10 92q21 119 74.5 179.5t128.5 60.5z" />
    <glyph glyph-name="ograve" unicode="&#xf2;" 
d="M487 -27q-241 0 -351.5 150.5t-67.5 402.5q39 222 182.5 341.5t357.5 119.5q234 0 348.5 -148.5t71.5 -398.5q-40 -221 -182 -344t-359 -123zM590 801q-253 0 -307 -301q-27 -157 27.5 -246.5t191.5 -89.5q256 0 311 305q27 155 -30 243.5t-193 88.5zM815 1063l-467 225
l94 158l430 -277z" />
    <glyph glyph-name="oacute" unicode="&#xf3;" 
d="M487 -27q-241 0 -351.5 150.5t-67.5 402.5q39 222 182.5 341.5t357.5 119.5q234 0 348.5 -148.5t71.5 -398.5q-40 -221 -182 -344t-359 -123zM590 801q-253 0 -307 -301q-27 -157 27.5 -246.5t191.5 -89.5q256 0 311 305q27 155 -30 243.5t-193 88.5zM504 1059l-47 110
l528 273l66 -156z" />
    <glyph glyph-name="ocircumflex" unicode="&#xf4;" 
d="M590 801q-253 0 -307 -301q-27 -157 27.5 -246.5t191.5 -89.5q256 0 311 305q27 155 -30 243.5t-193 88.5zM487 -27q-241 0 -351.5 150.5t-67.5 402.5q39 222 182.5 341.5t357.5 119.5q234 0 348.5 -148.5t71.5 -398.5q-40 -221 -182 -344t-359 -123zM887 1061l-199 199
l-270 -199l-72 82l326 291h76l223 -291z" />
    <glyph glyph-name="otilde" unicode="&#xf5;" 
d="M487 -27q-241 0 -351.5 150.5t-67.5 402.5q39 222 182.5 341.5t357.5 119.5q234 0 348.5 -148.5t71.5 -398.5q-40 -221 -182 -344t-359 -123zM590 801q-253 0 -307 -301q-27 -157 27.5 -246.5t191.5 -89.5q256 0 311 305q27 155 -30 243.5t-193 88.5zM557 1436
q45 0 79 -19.5t54.5 -48t38 -56.5t38 -47.5t46.5 -19.5q41 0 63.5 42.5t36.5 137.5h105q-2 -35 -10 -92q-21 -120 -73.5 -180.5t-127.5 -60.5q-41 0 -73.5 19.5t-52.5 47t-37.5 55t-41 47t-51.5 19.5q-42 0 -64.5 -39.5t-40.5 -136.5h-102q2 33 10 92q21 119 74.5 179.5
t128.5 60.5z" />
    <glyph glyph-name="odieresis" unicode="&#xf6;" 
d="M487 -27q-241 0 -351.5 150.5t-67.5 402.5q39 222 182.5 341.5t357.5 119.5q234 0 348.5 -148.5t71.5 -398.5q-40 -221 -182 -344t-359 -123zM590 801q-253 0 -307 -301q-27 -157 27.5 -246.5t191.5 -89.5q256 0 311 305q27 155 -30 243.5t-193 88.5zM401 1346h217
l-36 -211h-217zM762 1346h217l-37 -211h-217z" />
    <glyph glyph-name="divide" unicode="&#xf7;" horiz-adv-x="1005" 
d="M948 530h-872l35 197h872zM508 1075h203l-35 -198h-201zM389 391h203l-35 -198h-201z" />
    <glyph glyph-name="oslash" unicode="&#xf8;" 
d="M487 -27q-201 0 -313 109l-84 -82h-174l2 12l186 160q-73 146 -36 354q38 220 182 340.5t358 120.5q197 0 312 -106l84 82h165v-13l-182 -159q78 -143 41 -351q-38 -219 -181.5 -343t-359.5 -124zM594 813q-273 0 -330 -311q-18 -111 0 -191l510 443q-62 59 -180 59z
M498 152q275 0 333 317q18 108 0 184l-509 -444q63 -57 176 -57z" />
    <glyph glyph-name="ugrave" unicode="&#xf9;" horiz-adv-x="1091" 
d="M676 0l45 254h-16q-64 -135 -159.5 -208t-215.5 -73q-146 0 -212 97.5t-36 263.5l111 629h221l-105 -586q-16 -93 21 -148t131 -55q111 0 187 67t97 177l97 545h219l-170 -963h-215zM817 1063l-467 225l94 158l430 -277z" />
    <glyph glyph-name="uacute" unicode="&#xfa;" horiz-adv-x="1091" 
d="M676 0l45 254h-16q-64 -135 -159.5 -208t-215.5 -73q-146 0 -212 97.5t-36 263.5l111 629h221l-105 -586q-16 -93 21 -148t131 -55q111 0 187 67t97 177l97 545h219l-170 -963h-215zM506 1059l-47 110l528 273l66 -156z" />
    <glyph glyph-name="ucircumflex" unicode="&#xfb;" horiz-adv-x="1091" 
d="M676 0l45 254h-16q-64 -135 -159.5 -208t-215.5 -73q-146 0 -212 97.5t-36 263.5l111 629h221l-105 -586q-16 -93 21 -148t131 -55q111 0 187 67t97 177l97 545h219l-170 -963h-215zM887 1061l-199 199l-270 -199l-72 82l326 291h76l223 -291z" />
    <glyph glyph-name="udieresis" unicode="&#xfc;" horiz-adv-x="1091" 
d="M676 0l45 254h-16q-64 -135 -159.5 -208t-215.5 -73q-146 0 -212 97.5t-36 263.5l111 629h221l-105 -586q-16 -93 21 -148t131 -55q111 0 187 67t97 177l97 545h219l-170 -963h-215zM401 1346h217l-36 -211h-217zM762 1346h217l-37 -211h-217z" />
    <glyph glyph-name="yacute" unicode="&#xfd;" horiz-adv-x="980" 
d="M12 -358q-78 0 -137 12l55 199q77 -15 121 -15q88 0 142.5 34t117.5 138l-221 953h234l51 -349q48 -320 59 -419h33q27 56 98.5 201.5t102.5 213.5l166 353h245l-569 -975q-108 -184 -221.5 -265t-276.5 -81zM459 1059l-47 110l528 273l66 -156z" />
    <glyph glyph-name="thorn" unicode="&#xfe;" 
d="M535 168q116 0 185 76.5t97 234.5q28 156 -17 232.5t-169 76.5q-110 0 -189 -74t-102 -200v4l-14 -86l2 8q-22 -122 35 -197t172 -75zM481 1315l-106 -602h14q129 274 367 274q173 0 245.5 -136.5t28.5 -389.5q-41 -235 -152 -361.5t-270 -126.5q-132 0 -208.5 76.5
t-90.5 206.5h-14l-100 -567h-222l287 1626h221z" />
    <glyph glyph-name="ydieresis" unicode="&#xff;" horiz-adv-x="980" 
d="M12 -358q-78 0 -137 12l55 199q77 -15 121 -15q88 0 142.5 34t117.5 138l-221 953h234l51 -349q48 -320 59 -419h33q27 56 98.5 201.5t102.5 213.5l166 353h245l-569 -975q-108 -184 -221.5 -265t-276.5 -81zM354 1346h217l-36 -211h-218zM715 1346h217l-37 -211h-217z
" />
    <glyph glyph-name="Amacron" unicode="&#x100;" horiz-adv-x="1208" 
d="M893 0l-51 313h-525l-161 -313h-250l672 1229h315l240 -1229h-240zM508 1524h561l-29 -156h-561zM487 639l-77 -152h403l-25 152q-38 237 -55 387h-53q-81 -176 -193 -387z" />
    <glyph glyph-name="amacron" unicode="&#x101;" 
d="M393 1294h557l-28 -155h-555zM463 170q102 0 178 64.5t104 173.5l9 49l14 75q15 116 -41 186t-168 70q-116 0 -185 -73.5t-95 -225.5q-58 -319 184 -319zM68 512q40 229 150 353t271 122q136 1 210.5 -76.5t86.5 -214.5l13 9l45 258h221l-170 -963h-221l45 256l-4 -2
l4 27q-58 -141 -157 -224.5t-228 -83.5q-169 0 -240 140.5t-26 398.5z" />
    <glyph glyph-name="Abreve" unicode="&#x102;" horiz-adv-x="1208" 
d="M893 0l-51 313h-525l-161 -313h-250l672 1229h315l240 -1229h-240zM778 1485q167 0 211 155h109q-45 -303 -328 -303q-146 0 -212 77.5t-40 225.5h111q-7 -86 32.5 -120.5t116.5 -34.5zM487 639l-77 -152h403l-25 152q-38 237 -55 387h-53q-81 -176 -193 -387z" />
    <glyph glyph-name="abreve" unicode="&#x103;" 
d="M463 170q102 0 178 64.5t104 173.5l9 49l14 75q15 116 -41 186t-168 70q-116 0 -185 -73.5t-95 -225.5q-58 -319 184 -319zM670 1235q78 0 131.5 41t79.5 141h110q-29 -169 -108.5 -248t-218.5 -79q-145 0 -212.5 81.5t-39.5 245.5h110q-18 -182 148 -182zM68 512
q40 229 150 353t271 122q136 1 210.5 -76.5t86.5 -214.5l13 9l45 258h221l-170 -963h-221l45 256l-4 -2l4 27q-58 -141 -157 -224.5t-228 -83.5q-169 0 -240 140.5t-26 398.5z" />
    <glyph glyph-name="Aogonek" unicode="&#x104;" horiz-adv-x="1206" 
d="M1079 -328q-78 -10 -129 -10q-115 0 -167 40.5t-38 115.5q23 127 230 182h-82l-51 313h-525l-161 -313h-250l672 1229h315l240 -1229q-122 -22 -180.5 -51t-65.5 -74q-12 -68 102 -68q30 0 111 15zM487 639l-77 -152h403l-25 152q-38 237 -55 387h-53q-81 -176 -193 -387
z" />
    <glyph glyph-name="aogonek" unicode="&#x105;" 
d="M463 170q102 0 178 64.5t104 173.5l9 49l14 75q15 116 -41 186t-168 70q-116 0 -185 -73.5t-95 -225.5q-58 -319 184 -319zM68 512q40 229 150 353t271 122q136 1 210.5 -76.5t86.5 -214.5l13 9l45 258h221l-170 -963q-122 -22 -180.5 -51t-65.5 -74q-12 -68 103 -68
q29 0 110 15l-20 -150q-78 -10 -129 -10q-115 0 -167 40.5t-38 115.5q23 128 229 182h-63l45 256l-4 -2l4 27q-58 -141 -157 -224.5t-228 -83.5q-169 0 -240 140.5t-26 398.5z" />
    <glyph glyph-name="Cacute" unicode="&#x106;" horiz-adv-x="1275" 
d="M598 -27q-294 0 -428.5 184t-79.5 494q51 286 226.5 445t443.5 159q245 0 372 -128.5t130 -350.5l-228 -28q-5 154 -75.5 228.5t-221.5 74.5q-174 0 -279.5 -113t-140.5 -309q-36 -214 35 -333.5t258 -119.5q148 0 237.5 78t147.5 238l217 -48q-143 -471 -614 -471z
M623 1341l-21 117l555 191l33 -170z" />
    <glyph glyph-name="cacute" unicode="&#x107;" horiz-adv-x="1050" 
d="M797 588q-5 101 -50.5 153t-156.5 52q-120 0 -198 -75.5t-105 -228.5q-27 -150 27 -235.5t184 -85.5q106 0 167 55.5t101 157.5l197 -53q-61 -173 -178.5 -264t-305.5 -91q-233 0 -344 144t-67 399q38 225 181 348t357 123q395 0 402 -362zM512 1059l-47 110l528 273
l66 -156z" />
    <glyph glyph-name="Ccircumflex" unicode="&#x108;" horiz-adv-x="1275" 
d="M598 -27q-294 0 -428.5 184t-79.5 494q51 286 226.5 445t443.5 159q245 0 372 -128.5t130 -350.5l-228 -28q-5 154 -75.5 228.5t-221.5 74.5q-174 0 -279.5 -113t-140.5 -309q-36 -214 35 -333.5t258 -119.5q148 0 237.5 78t147.5 238l217 -48q-143 -471 -614 -471z
M1042 1317l-211 166l-272 -166l-59 84l315 248h78l229 -248z" />
    <glyph glyph-name="ccircumflex" unicode="&#x109;" horiz-adv-x="1050" 
d="M797 588q-5 101 -50.5 153t-156.5 52q-120 0 -198 -75.5t-105 -228.5q-27 -150 27 -235.5t184 -85.5q106 0 167 55.5t101 157.5l197 -53q-61 -173 -178.5 -264t-305.5 -91q-233 0 -344 144t-67 399q38 225 181 348t357 123q395 0 402 -362zM885 1061l-199 199l-270 -199
l-72 82l326 291h75l224 -291z" />
    <glyph glyph-name="Cdotaccent" unicode="&#x10a;" horiz-adv-x="1275" 
d="M598 -27q-294 0 -428.5 184t-79.5 494q51 286 226.5 445t443.5 159q245 0 372 -128.5t130 -350.5l-228 -28q-5 154 -75.5 228.5t-221.5 74.5q-174 0 -279.5 -113t-140.5 -309q-36 -214 35 -333.5t258 -119.5q148 0 237.5 78t147.5 238l217 -48q-143 -471 -614 -471z
M705 1593h231l-39 -221h-231z" />
    <glyph glyph-name="cdotaccent" unicode="&#x10b;" horiz-adv-x="1050" 
d="M797 588q-5 101 -50.5 153t-156.5 52q-120 0 -198 -75.5t-105 -228.5q-27 -150 27 -235.5t184 -85.5q106 0 167 55.5t101 157.5l197 -53q-61 -173 -178.5 -264t-305.5 -91q-233 0 -344 144t-67 399q38 225 181 348t357 123q395 0 402 -362zM582 1364h231l-39 -221h-231z
" />
    <glyph glyph-name="Ccaron" unicode="&#x10c;" horiz-adv-x="1275" 
d="M598 -27q-294 0 -428.5 184t-79.5 494q51 286 226.5 445t443.5 159q245 0 372 -128.5t130 -350.5l-228 -28q-5 154 -75.5 228.5t-221.5 74.5q-174 0 -279.5 -113t-140.5 -309q-36 -214 35 -333.5t258 -119.5q148 0 237.5 78t147.5 238l217 -48q-143 -471 -614 -471z
M836 1325h-78l-230 248l80 84l211 -166l273 166l61 -84z" />
    <glyph glyph-name="ccaron" unicode="&#x10d;" horiz-adv-x="1050" 
d="M797 588q-5 101 -50.5 153t-156.5 52q-120 0 -198 -75.5t-105 -228.5q-27 -150 27 -235.5t184 -85.5q106 0 167 55.5t101 157.5l197 -53q-61 -173 -178.5 -264t-305.5 -91q-233 0 -344 144t-67 399q38 225 181 348t357 123q395 0 402 -362zM682 1079h-78l-221 291l82 82
l201 -199l270 199l72 -82z" />
    <glyph glyph-name="Dcaron" unicode="&#x10e;" horiz-adv-x="1298" 
d="M682 1034h-227l-148 -841h254q206 0 319.5 103.5t149.5 307.5q38 225 -44 327.5t-304 102.5zM41 0l211 1229h477q320 0 450.5 -170t75.5 -486q-47 -273 -232 -424t-466 -149h-516zM831 1325h-77l-230 248l80 84l211 -166l272 166l62 -84z" />
    <glyph glyph-name="dcaron" unicode="&#x10f;" horiz-adv-x="1265" 
d="M463 170q109 0 188 73t101 195v-4l4 23l12 65l-4 -10q23 125 -32.5 200.5t-172.5 75.5t-185.5 -74.5t-94.5 -228.5q-29 -160 16 -237.5t168 -77.5zM674 0l45 254h-12q-59 -130 -154 -205.5t-215 -75.5q-170 0 -242.5 140.5t-27.5 396.5q39 233 150 356t274 121
q129 1 201.5 -72t90.5 -204h17l104 604h221l-231 -1315h-221zM1253 1315h172l-151 -518h-137z" />
    <glyph glyph-name="Dcroat" unicode="&#x110;" horiz-adv-x="1359" 
d="M741 541h-313l-59 -348h254q206 0 319.5 103.5t149.5 307.5q38 225 -44.5 327.5t-304.5 102.5h-227l-61 -348h313zM102 0l93 541h-140l27 145h139l92 543h478q320 0 450.5 -170t75.5 -486q-47 -273 -232.5 -424t-466.5 -149h-516z" />
    <glyph glyph-name="dcroat" unicode="&#x111;" horiz-adv-x="1122" 
d="M463 170q109 0 188 73t101 195v-4l4 23l12 65l-4 -10q23 125 -32.5 200.5t-172.5 75.5t-185.5 -74.5t-94.5 -228.5q-29 -160 16 -237.5t168 -77.5zM674 0l45 254h-12q-59 -130 -154 -205.5t-215 -75.5q-170 0 -242.5 140.5t-27.5 396.5q39 233 150 356t274 121
q129 1 201.5 -72t90.5 -204h17l63 366h-270l22 125h269l20 113h221l-20 -113h117l-21 -125h-117l-190 -1077h-221z" />
    <glyph glyph-name="Emacron" unicode="&#x112;" horiz-adv-x="1103" 
d="M45 0l217 1229h885l-37 -203h-649l-55 -303h591l-34 -201h-592l-58 -319h652l-37 -203h-883zM475 1524h561l-28 -156h-562z" />
    <glyph glyph-name="emacron" unicode="&#x113;" horiz-adv-x="1040" 
d="M590 817q-226 0 -295 -252h493q35 252 -198 252zM481 -25q-232 0 -346 142.5t-69 404.5q40 219 183.5 342t356.5 123q223 0 319 -126.5t58 -344.5q-5 -34 -22 -98h-693q-18 -262 221 -262q55 0 98 13t73 38t50 53t38 66l182 -62q-30 -67 -68.5 -117.5t-92 -90.5
t-126 -60.5t-162.5 -20.5zM393 1294h557l-28 -155h-555z" />
    <glyph glyph-name="Ebreve" unicode="&#x114;" horiz-adv-x="1103" 
d="M45 0l217 1229h885l-37 -203h-649l-55 -303h591l-34 -201h-592l-58 -319h652l-37 -203h-883zM745 1485q167 0 211 155h109q-45 -303 -328 -303q-146 0 -212 77.5t-40 225.5h111q-7 -86 32.5 -120.5t116.5 -34.5z" />
    <glyph glyph-name="ebreve" unicode="&#x115;" horiz-adv-x="1040" 
d="M590 817q-226 0 -295 -252h493q35 252 -198 252zM481 -25q-232 0 -346 142.5t-69 404.5q40 219 183.5 342t356.5 123q223 0 319 -126.5t58 -344.5q-5 -34 -22 -98h-693q-18 -262 221 -262q55 0 98 13t73 38t50 53t38 66l182 -62q-30 -67 -68.5 -117.5t-92 -90.5
t-126 -60.5t-162.5 -20.5zM662 1235q78 0 131 41t79 141h111q-29 -169 -109 -248t-219 -79q-145 0 -212.5 81.5t-39.5 245.5h111q-18 -182 148 -182z" />
    <glyph glyph-name="Edotaccent" unicode="&#x116;" horiz-adv-x="1103" 
d="M45 0l217 1229h885l-37 -203h-649l-55 -303h591l-34 -201h-592l-58 -319h652l-37 -203h-883zM629 1593h231l-39 -221h-231z" />
    <glyph glyph-name="edotaccent" unicode="&#x117;" horiz-adv-x="1040" 
d="M590 817q-226 0 -295 -252h493q35 252 -198 252zM481 -25q-232 0 -346 142.5t-69 404.5q40 219 183.5 342t356.5 123q223 0 319 -126.5t58 -344.5q-5 -34 -22 -98h-693q-18 -262 221 -262q55 0 98 13t73 38t50 53t38 66l182 -62q-30 -67 -68.5 -117.5t-92 -90.5
t-126 -60.5t-162.5 -20.5zM569 1364h232l-39 -221h-232z" />
    <glyph glyph-name="Eogonek" unicode="&#x118;" horiz-adv-x="1103" 
d="M870 -328q-78 -10 -129 -10q-115 0 -166.5 40.5t-37.5 115.5q23 128 229 182h-721l217 1229h885l-37 -203h-649l-55 -303h591l-34 -201h-592l-58 -319h652l-37 -203h-4q-122 -22 -180.5 -51t-65.5 -74q-12 -68 102 -68q30 0 111 15z" />
    <glyph glyph-name="eogonek" unicode="&#x119;" horiz-adv-x="1040" 
d="M590 817q-226 0 -295 -252h493q35 252 -198 252zM481 -25q-232 0 -346 142.5t-69 404.5q40 219 183.5 342t356.5 123q223 0 319 -126.5t58 -344.5q-5 -34 -22 -98h-693q-18 -262 221 -262q55 0 98 13t73 38t50 53t38 66l176 -60l8 10q-4 -8 -4 -12h2q-55 -126 -148 -198
q-58 -46 -80 -60q-105 -68 -118 -141q-7 -42 24 -62t88 -20q43 0 115 16l-25 -168q-70 -12 -127 -12q-132 0 -188 46t-43 124q19 107 195 203q-73 -17 -142 -17z" />
    <glyph glyph-name="Ecaron" unicode="&#x11a;" horiz-adv-x="1103" 
d="M45 0l217 1229h885l-37 -203h-649l-55 -303h591l-34 -201h-592l-58 -319h652l-37 -203h-883zM758 1325h-78l-229 248l79 84l211 -166l273 166l61 -84z" />
    <glyph glyph-name="ecaron" unicode="&#x11b;" horiz-adv-x="1040" 
d="M590 817q-226 0 -295 -252h493q35 252 -198 252zM481 -25q-232 0 -346 142.5t-69 404.5q40 219 183.5 342t356.5 123q223 0 319 -126.5t58 -344.5q-5 -34 -22 -98h-693q-18 -262 221 -262q55 0 98 13t73 38t50 53t38 66l182 -62q-30 -67 -68.5 -117.5t-92 -90.5
t-126 -60.5t-162.5 -20.5zM674 1079h-78l-221 291l82 82l200 -199l271 199l71 -82z" />
    <glyph glyph-name="Gcircumflex" unicode="&#x11c;" horiz-adv-x="1312" 
d="M494 -20q-230 0 -346 184.5t-64 480.5q55 303 218.5 455.5t447.5 152.5q238 0 363.5 -112t146.5 -320l-226 -41q-18 138 -87.5 204.5t-207.5 66.5q-185 0 -285 -100.5t-137 -313.5q-19 -99 -10.5 -184t40 -147.5t98.5 -98t163 -35.5q334 0 387 287v-8l2 10h-346l35 201
h563l-116 -662h-213l49 274h-21q-145 -294 -454 -294zM1040 1317l-211 166l-272 -166l-59 84l315 248h78l229 -248z" />
    <glyph glyph-name="gcircumflex" unicode="&#x11d;" 
d="M868 1061l-198 199l-271 -199l-71 82l325 291h76l223 -291zM477 231q109 0 185.5 67.5t95.5 180.5v-6l10 51l-2 -2q22 120 -35 193t-174 73q-226 0 -272 -266q-52 -291 192 -291zM72 539q39 220 147.5 334t267.5 114q132 0 206.5 -73t92.5 -203h13l45 252h221l-158 -891
q-72 -406 -489 -406q-414 0 -445 287l217 37q14 -73 68 -111t162 -39q128 1 188.5 64t83.5 192l35 205h-14q-59 -112 -152.5 -180t-208.5 -68q-171 0 -246 127t-34 359z" />
    <glyph glyph-name="Gbreve" unicode="&#x11e;" horiz-adv-x="1312" 
d="M494 -20q-230 0 -346 184.5t-64 480.5q55 303 218.5 455.5t447.5 152.5q238 0 363.5 -112t146.5 -320l-226 -41q-18 138 -87.5 204.5t-207.5 66.5q-185 0 -285 -100.5t-137 -313.5q-19 -99 -10.5 -184t40 -147.5t98.5 -98t163 -35.5q334 0 387 287v-8l2 10h-346l35 201
h563l-116 -662h-213l49 274h-21q-145 -294 -454 -294zM819 1485q167 0 211 155h109q-45 -303 -328 -303q-146 0 -212 77.5t-40 225.5h111q-7 -86 32.5 -120.5t116.5 -34.5z" />
    <glyph glyph-name="gbreve" unicode="&#x11f;" 
d="M664 1235q78 0 131 41t79 141h111q-29 -169 -109 -248t-219 -79q-144 0 -211.5 81.5t-39.5 245.5h110q-18 -182 148 -182zM477 231q109 0 185.5 67.5t95.5 180.5v-6l10 51l-2 -2q22 120 -35 193t-174 73q-226 0 -272 -266q-52 -291 192 -291zM72 539q39 220 147.5 334
t267.5 114q132 0 206.5 -73t92.5 -203h13l45 252h221l-158 -891q-72 -406 -489 -406q-414 0 -445 287l217 37q14 -73 68 -111t162 -39q128 1 188.5 64t83.5 192l35 205h-14q-59 -112 -152.5 -180t-208.5 -68q-171 0 -246 127t-34 359z" />
    <glyph glyph-name="Gdotaccent" unicode="&#x120;" horiz-adv-x="1312" 
d="M494 -20q-230 0 -346 184.5t-64 480.5q55 303 218.5 455.5t447.5 152.5q238 0 363.5 -112t146.5 -320l-226 -41q-18 138 -87.5 204.5t-207.5 66.5q-185 0 -285 -100.5t-137 -313.5q-19 -99 -10.5 -184t40 -147.5t98.5 -98t163 -35.5q334 0 387 287v-8l2 10h-346l35 201
h563l-116 -662h-213l49 274h-21q-145 -294 -454 -294zM702 1593h232l-39 -221h-231z" />
    <glyph glyph-name="gdotaccent" unicode="&#x121;" 
d="M567 1364h232l-39 -221h-232zM477 231q109 0 185.5 67.5t95.5 180.5v-6l10 51l-2 -2q22 120 -35 193t-174 73q-226 0 -272 -266q-52 -291 192 -291zM72 539q39 220 147.5 334t267.5 114q132 0 206.5 -73t92.5 -203h13l45 252h221l-158 -891q-72 -406 -489 -406
q-414 0 -445 287l217 37q14 -73 68 -111t162 -39q128 1 188.5 64t83.5 192l35 205h-14q-59 -112 -152.5 -180t-208.5 -68q-171 0 -246 127t-34 359z" />
    <glyph glyph-name="uni0122" unicode="&#x122;" horiz-adv-x="1312" 
d="M494 -20q-230 0 -346 184.5t-64 480.5q55 303 218.5 455.5t447.5 152.5q238 0 363.5 -112t146.5 -320l-226 -41q-18 138 -87.5 204.5t-207.5 66.5q-185 0 -285 -100.5t-137 -313.5q-19 -99 -10.5 -184t40 -147.5t98.5 -98t163 -35.5q334 0 387 287v-8l2 10h-346l35 201
h563l-116 -662h-213l49 274h-21q-145 -294 -454 -294zM492 -109h176l-176 -313h-140l2 19z" />
    <glyph glyph-name="uni0123" unicode="&#x123;" 
d="M694 1112h-176l176 313h140l-3 -18zM477 231q109 0 185.5 67.5t95.5 180.5v-6l10 51l-2 -2q22 120 -35 193t-174 73q-226 0 -272 -266q-52 -291 192 -291zM72 539q39 220 147.5 334t267.5 114q132 0 206.5 -73t92.5 -203h13l45 252h221l-158 -891q-72 -406 -489 -406
q-414 0 -445 287l217 37q14 -73 68 -111t162 -39q128 1 188.5 64t83.5 192l35 205h-14q-59 -112 -152.5 -180t-208.5 -68q-171 0 -246 127t-34 359z" />
    <glyph glyph-name="Hcircumflex" unicode="&#x124;" horiz-adv-x="1308" 
d="M1100 0h-234l90 508h-596l-88 -508h-233l217 1229h231l-90 -512h596l90 512h232zM1049 1317l-211 166l-273 -166l-59 84l315 248h78l229 -248z" />
    <glyph glyph-name="hcircumflex" unicode="&#x125;" horiz-adv-x="1087" 
d="M346 545l-96 -545h-221l231 1315h221l-106 -606h14q64 134 159.5 206t215.5 72q146 0 210 -96t36 -262l-111 -629h-221l102 586q18 92 -19 147t-130 55q-113 0 -189.5 -66.5t-95.5 -176.5zM618 1337l-210 166l-273 -166l-59 84l315 248h78l229 -248z" />
    <glyph glyph-name="Hbar" unicode="&#x126;" horiz-adv-x="1404" 
d="M1030 666l35 196h-594l-35 -196h594zM1147 0h-234l82 467h-594l-82 -467h-233l152 862h-138l29 156h137l37 211h234l-37 -211h594l36 211h234l-37 -211h137l-26 -156h-140z" />
    <glyph glyph-name="hbar" unicode="&#x127;" horiz-adv-x="1110" 
d="M367 545l-97 -545h-221l191 1077h-109l21 125h108l21 113h221l-21 -113h297l-22 -125h-295l-66 -368h15q64 134 159 206t215 72q146 0 210 -96t36 -262l-110 -629h-222l103 586q18 92 -19.5 147t-130.5 55q-113 0 -189 -66.5t-95 -176.5z" />
    <glyph glyph-name="Itilde" unicode="&#x128;" horiz-adv-x="481" 
d="M272 0h-233l217 1229h231zM256 1677q45 0 79 -19.5t54.5 -47.5t38 -56t38 -47.5t46.5 -19.5q41 0 63.5 42.5t36.5 137.5h105q-2 -35 -10 -92q-21 -120 -73.5 -181t-127.5 -61q-41 0 -73.5 19.5t-52.5 47.5t-37.5 55.5t-41 47t-51.5 19.5q-42 0 -64.5 -39.5t-40.5 -136.5
h-102q2 33 10 92q21 119 74 179t129 60z" />
    <glyph glyph-name="itilde" unicode="&#x129;" horiz-adv-x="516" 
d="M283 0h-220l168 963h222zM272 1436q45 0 79 -19.5t54.5 -48t38 -56.5t38 -47.5t46.5 -19.5q41 0 64 43t37 137h104q-2 -35 -10 -92q-21 -120 -73.5 -180.5t-127.5 -60.5q-41 0 -73.5 19.5t-52.5 47t-37.5 55t-41 47t-51.5 19.5q-42 0 -64 -39t-40 -137h-103q1 21 11 92
q21 119 74 179.5t128 60.5z" />
    <glyph glyph-name="Imacron" unicode="&#x12a;" horiz-adv-x="481" 
d="M272 0h-233l217 1229h231zM143 1524h562l-29 -156h-561z" />
    <glyph glyph-name="imacron" unicode="&#x12b;" horiz-adv-x="516" 
d="M283 0h-220l168 963h222zM123 1294h557l-29 -155h-555z" />
    <glyph glyph-name="Ibreve" unicode="&#x12c;" horiz-adv-x="481" 
d="M272 0h-233l217 1229h231zM414 1485q167 0 211 155h108q-23 -155 -104.5 -229t-222.5 -74q-146 0 -212 77.5t-40 225.5h110q-7 -86 33 -120.5t117 -34.5z" />
    <glyph glyph-name="ibreve" unicode="&#x12d;" horiz-adv-x="516" 
d="M283 0h-220l168 963h222zM391 1235q78 0 131.5 41t79.5 141h111q-29 -169 -109 -248t-219 -79q-145 0 -212.5 81.5t-39.5 245.5h111q-18 -182 147 -182z" />
    <glyph glyph-name="Iogonek" unicode="&#x12e;" horiz-adv-x="481" 
d="M272 0h-2q-122 -22 -180 -51t-65 -74q-12 -68 102 -68q30 0 111 15l-21 -150q-78 -10 -129 -10q-115 0 -167 40.5t-38 115.5q23 127 230 182h-74l217 1229h231z" />
    <glyph glyph-name="iogonek" unicode="&#x12f;" horiz-adv-x="477" 
d="M471 1126h-240l33 179h240zM262 0q-122 -22 -180.5 -51t-65.5 -74q-12 -68 103 -68q29 0 110 15l-20 -150q-78 -10 -129 -10q-115 0 -167 40.5t-38 115.5q23 128 229 182h-61l168 963h221z" />
    <glyph glyph-name="Idotaccent" unicode="&#x130;" horiz-adv-x="481" 
d="M272 0h-233l217 1229h231zM297 1593h231l-39 -221h-231z" />
    <glyph glyph-name="dotlessi" unicode="&#x131;" horiz-adv-x="516" 
d="M283 0h-220l168 963h222z" />
    <glyph glyph-name="IJ" unicode="&#x132;" horiz-adv-x="1118" 
d="M272 0h-233l217 1229h231zM737 344l156 885h233l-155 -883q-31 -172 -125.5 -267t-261.5 -95q-81 0 -160 14l41 201q85 -13 108 -13q138 0 164 158z" />
    <glyph glyph-name="ij" unicode="&#x133;" horiz-adv-x="972" 
d="M471 1126h-240l33 179h240zM262 0h-219l168 963h221zM762 4q-29 -163 -113 -249.5t-241 -86.5q-59 0 -107 10l41 191q50 -8 72 -8q104 0 127 135l170 965h221zM971 1126h-242l33 179h239z" />
    <glyph glyph-name="Jcircumflex" unicode="&#x134;" horiz-adv-x="636" 
d="M256 344l156 885h233l-156 -883q-31 -172 -125.5 -267t-261.5 -95q-80 0 -159 14l41 201q85 -13 108 -13q138 0 164 158zM799 1317l-211 166l-273 -166l-59 84l315 248h78l230 -248z" />
    <glyph glyph-name="jcircumflex" unicode="&#x135;" horiz-adv-x="505" 
d="M285 6q-61 -352 -375 -352q-56 0 -92 8l45 193q44 -7 71 -7q104 0 127 136l172 977h222zM555 1090l-162 163l-219 -163l-59 77l268 248h78l180 -248z" />
    <glyph glyph-name="uni0136" unicode="&#x136;" horiz-adv-x="1167" 
d="M829 0l-374 485h-97l-86 -485h-233l217 1229h233l-98 -553h82l533 553h276l-4 -23l-641 -624l455 -559l-5 -23h-258zM455 -109h176l-176 -313h-140l2 19z" />
    <glyph glyph-name="uni0137" unicode="&#x137;" horiz-adv-x="1005" 
d="M487 1315l-131 -748h84l363 396h266l-4 -23l-463 -453l330 -464l-4 -23h-244l-264 403h-92l-72 -403h-219l231 1315h219zM369 -109h176l-176 -313h-140l2 19z" />
    <glyph glyph-name="kgreenlandic" unicode="&#x138;" horiz-adv-x="1005" 
d="M674 0l-258 403h-88l-72 -403h-219l168 963h221l-70 -396h88l373 396h252l-4 -23l-459 -448l326 -469l-4 -23h-254z" />
    <glyph glyph-name="Lacute" unicode="&#x139;" horiz-adv-x="954" 
d="M350 1341l-20 117l555 191l33 -170zM487 1229l-178 -1020h553l-37 -209h-786l217 1229h231z" />
    <glyph glyph-name="lacute" unicode="&#x13a;" horiz-adv-x="462" 
d="M487 1315l-231 -1315h-219l231 1315h219zM223 1401l-20 117l555 190l33 -170z" />
    <glyph glyph-name="uni013B" unicode="&#x13b;" horiz-adv-x="954" 
d="M487 1229l-178 -1020h553l-37 -209h-786l217 1229h231zM373 -109h176l-176 -313h-140l3 19z" />
    <glyph glyph-name="uni013C" unicode="&#x13c;" horiz-adv-x="462" 
d="M487 1315l-231 -1315h-219l231 1315h219zM74 -109h176l-176 -313h-140l3 19z" />
    <glyph glyph-name="Lcaron" unicode="&#x13d;" horiz-adv-x="954" 
d="M889 1243h172l-152 -518h-137zM487 1229l-178 -1020h553l-37 -209h-786l217 1229h231z" />
    <glyph glyph-name="lcaron" unicode="&#x13e;" horiz-adv-x="645" 
d="M487 1315l-231 -1315h-219l231 1315h219zM623 1315h172l-152 -518h-137z" />
    <glyph glyph-name="Ldot" unicode="&#x13f;" horiz-adv-x="954" 
d="M815 813h225l-36 -217h-228zM487 1229l-178 -1020h553l-37 -209h-786l217 1229h231z" />
    <glyph glyph-name="ldot" unicode="&#x140;" horiz-adv-x="724" 
d="M487 1315l-231 -1315h-219l231 1315h219zM500 643h231l-39 -221h-231z" />
    <glyph glyph-name="Lslash" unicode="&#x141;" horiz-adv-x="995" 
d="M528 1229l-90 -512l334 145l-31 -164l-331 -143l-60 -346h553l-37 -209h-786l78 446l-140 -61l29 160l139 61l111 623h231z" />
    <glyph glyph-name="lslash" unicode="&#x142;" horiz-adv-x="561" 
d="M537 1315l-105 -594l168 82l-27 -158l-170 -82l-98 -563h-219l78 446l-166 -79l29 155l166 82l124 711h220z" />
    <glyph glyph-name="Nacute" unicode="&#x143;" horiz-adv-x="1318" 
d="M805 0l-205 559q-89 248 -141 465l-41 -4q-30 -296 -84 -598l-74 -422h-217l215 1229h328l180 -481q107 -298 158 -515l39 3q29 311 77 567l74 426h217l-217 -1229h-309zM633 1341l-21 117l555 191l33 -170z" />
    <glyph glyph-name="nacute" unicode="&#x144;" horiz-adv-x="1087" 
d="M346 545l-96 -545h-221l170 963h215l-45 -254h18q62 134 158 206t217 72q147 0 212 -96t36 -262l-111 -629h-221l102 586q16 93 -20 147.5t-129 54.5q-113 0 -189.5 -66.5t-95.5 -176.5zM512 1059l-47 110l528 273l66 -156z" />
    <glyph glyph-name="uni0145" unicode="&#x145;" horiz-adv-x="1318" 
d="M805 0l-205 559q-89 248 -141 465l-41 -4q-30 -296 -84 -598l-74 -422h-217l215 1229h328l180 -481q107 -298 158 -515l39 3q29 311 77 567l74 426h217l-217 -1229h-309zM502 -109h176l-176 -313h-140l3 19z" />
    <glyph glyph-name="uni0146" unicode="&#x146;" horiz-adv-x="1087" 
d="M346 545l-96 -545h-221l170 963h215l-45 -254h18q62 134 158 206t217 72q147 0 212 -96t36 -262l-111 -629h-221l102 586q16 93 -20 147.5t-129 54.5q-113 0 -189.5 -66.5t-95.5 -176.5zM391 -109h176l-176 -313h-139l2 19z" />
    <glyph glyph-name="Ncaron" unicode="&#x147;" horiz-adv-x="1318" 
d="M805 0l-205 559q-89 248 -141 465l-41 -4q-30 -296 -84 -598l-74 -422h-217l215 1229h328l180 -481q107 -298 158 -515l39 3q29 311 77 567l74 426h217l-217 -1229h-309zM848 1325h-78l-229 248l80 84l210 -166l273 166l61 -84z" />
    <glyph glyph-name="ncaron" unicode="&#x148;" horiz-adv-x="1087" 
d="M346 545l-96 -545h-221l170 963h215l-45 -254h18q62 134 158 206t217 72q147 0 212 -96t36 -262l-111 -629h-221l102 586q16 93 -20 147.5t-129 54.5q-113 0 -189.5 -66.5t-95.5 -176.5zM692 1079h-78l-221 291l82 82l201 -199l270 199l72 -82z" />
    <glyph glyph-name="napostrophe" unicode="&#x149;" horiz-adv-x="1374" 
d="M272 1229h228l-287 -567h-125l2 12zM590 545l-96 -545h-222l170 963h215l-45 -254h19q62 134 158 206t217 72q147 0 212 -96t35 -262l-110 -629h-221l102 586q16 92 -20.5 147t-129.5 55q-113 0 -189 -66.5t-95 -176.5z" />
    <glyph glyph-name="Eng" unicode="&#x14a;" horiz-adv-x="1318" 
d="M39 0l217 1229h334l215 -488q72 -176 139 -422l27 5q28 279 65 489l74 416h217l-215 -1217q-28 -163 -118.5 -253.5t-262.5 -90.5q-87 0 -164 15l37 188q79 -14 123 -14q133 0 158 141v2l-262 555q-96 208 -174 459h-35q-37 -330 -84 -592l-74 -422h-217z" />
    <glyph glyph-name="eng" unicode="&#x14b;" horiz-adv-x="1087" 
d="M678 -2l102 588q16 93 -19.5 147.5t-133.5 54.5q-107 0 -184.5 -67t-96.5 -176l-96 -545h-221l170 963h215l-45 -254h18q63 134 160.5 206t218.5 72q149 0 210.5 -93t33.5 -257l-113 -639q-56 -330 -356 -330q-57 0 -105 10l41 193q37 -6 72 -6q106 0 129 133z" />
    <glyph glyph-name="Omacron" unicode="&#x14c;" horiz-adv-x="1345" 
d="M616 -27q-202 0 -333.5 87t-179.5 242.5t-11 361.5q50 274 230.5 432.5t453.5 158.5q198 0 329.5 -85.5t181.5 -240.5t13 -360q-48 -276 -227 -436t-457 -160zM631 176q188 0 297.5 110t146.5 312q37 206 -41.5 329.5t-271.5 123.5q-187 0 -297.5 -108.5t-145.5 -303.5
q-24 -140 -0.5 -242t102.5 -161.5t210 -59.5zM578 1524h561l-29 -156h-561z" />
    <glyph glyph-name="omacron" unicode="&#x14d;" 
d="M487 -27q-241 0 -351.5 150.5t-67.5 402.5q39 222 182.5 341.5t357.5 119.5q234 0 348.5 -148.5t71.5 -398.5q-40 -221 -182 -344t-359 -123zM590 801q-253 0 -307 -301q-27 -157 27.5 -246.5t191.5 -89.5q256 0 311 305q27 155 -30 243.5t-193 88.5zM408 1294h557
l-29 -155h-555z" />
    <glyph glyph-name="Obreve" unicode="&#x14e;" horiz-adv-x="1345" 
d="M616 -27q-202 0 -333.5 87t-179.5 242.5t-11 361.5q50 274 230.5 432.5t453.5 158.5q198 0 329.5 -85.5t181.5 -240.5t13 -360q-48 -276 -227 -436t-457 -160zM631 176q188 0 297.5 110t146.5 312q37 206 -41.5 329.5t-271.5 123.5q-187 0 -297.5 -108.5t-145.5 -303.5
q-24 -140 -0.5 -242t102.5 -161.5t210 -59.5zM848 1485q167 0 211 155h108q-23 -155 -104.5 -229t-222.5 -74q-146 0 -212 77.5t-40 225.5h110q-7 -86 33 -120.5t117 -34.5z" />
    <glyph glyph-name="obreve" unicode="&#x14f;" 
d="M487 -27q-241 0 -351.5 150.5t-67.5 402.5q39 222 182.5 341.5t357.5 119.5q234 0 348.5 -148.5t71.5 -398.5q-40 -221 -182 -344t-359 -123zM590 801q-253 0 -307 -301q-27 -157 27.5 -246.5t191.5 -89.5q256 0 311 305q27 155 -30 243.5t-193 88.5zM676 1235
q78 0 131.5 41t79.5 141h110q-29 -169 -108.5 -248t-218.5 -79q-145 0 -212.5 81.5t-39.5 245.5h110q-18 -182 148 -182z" />
    <glyph glyph-name="Ohungarumlaut" unicode="&#x150;" horiz-adv-x="1345" 
d="M616 -27q-202 0 -333.5 87t-179.5 242.5t-11 361.5q50 274 230.5 432.5t453.5 158.5q198 0 329.5 -85.5t181.5 -240.5t13 -360q-48 -276 -227 -436t-457 -160zM631 176q188 0 297.5 110t146.5 312q37 206 -41.5 329.5t-271.5 123.5q-187 0 -297.5 -108.5t-145.5 -303.5
q-24 -140 -0.5 -242t102.5 -161.5t210 -59.5zM688 1315l-90 61l246 316l129 -88zM977 1315l-86 69l264 308l121 -97z" />
    <glyph glyph-name="ohungarumlaut" unicode="&#x151;" 
d="M487 -27q-241 0 -351.5 150.5t-67.5 402.5q39 222 182.5 341.5t357.5 119.5q234 0 348.5 -148.5t71.5 -398.5q-40 -221 -182 -344t-359 -123zM590 801q-253 0 -307 -301q-27 -157 27.5 -246.5t191.5 -89.5q256 0 311 305q27 155 -30 243.5t-193 88.5zM502 1065l-88 59
l237 336l123 -82zM776 1067l-82 68l262 323l115 -90z" />
    <glyph glyph-name="OE" unicode="&#x152;" horiz-adv-x="1812" 
d="M649 203h142l147 823h-174q-187 0 -300 -101.5t-145 -281.5q-36 -206 48.5 -323t281.5 -117zM641 0q-306 0 -453 182t-92 494q46 260 229.5 406.5t465.5 146.5h1067l-37 -203h-650l-55 -303h592l-35 -201h-592l-57 -319h651l-37 -203h-997z" />
    <glyph glyph-name="oe" unicode="&#x153;" horiz-adv-x="1796" 
d="M598 801q-128 0 -208 -80t-107 -225q-27 -158 24.5 -245t186.5 -87q132 0 213 82.5t106 232.5q28 154 -26.5 238t-188.5 84zM1350 817q-237 0 -303 -272h493q47 272 -190 272zM1253 -27q-160 0 -251.5 76t-106.5 223h-14q-64 -144 -172.5 -221.5t-253.5 -77.5
q-223 0 -327.5 147t-61.5 396q40 223 177 347t343 124q158 0 252.5 -78.5t111.5 -224.5h17q63 147 173 225t257 78q206 0 294 -121.5t52 -326.5q-12 -59 -23 -101h-694q-27 -282 223 -282q56 0 99 13.5t73 40.5t50 56t40 70l175 -66q-130 -297 -433 -297z" />
    <glyph glyph-name="Racute" unicode="&#x154;" horiz-adv-x="1208" 
d="M723 1032h-262l-66 -375h260q242 0 275 181q17 100 -33.5 147t-173.5 47zM815 0l-225 461h-230l-81 -461h-234l215 1229h498q229 0 330.5 -108.5t64.5 -313.5q-23 -127 -106.5 -210t-215.5 -116l256 -458l-4 -23h-268zM559 1341l-20 117l555 191l32 -170z" />
    <glyph glyph-name="racute" unicode="&#x155;" horiz-adv-x="696" 
d="M250 0h-221l170 963h211l-52 -289l17 -2q64 168 144.5 234.5t191.5 66.5h37l-46 -248h-53q-150 0 -221.5 -60t-97.5 -208zM348 1059l-47 110l528 273l66 -156z" />
    <glyph glyph-name="uni0156" unicode="&#x156;" horiz-adv-x="1208" 
d="M453 -109h176l-176 -313h-140l2 19zM723 1032h-262l-66 -375h260q242 0 275 181q17 100 -33.5 147t-173.5 47zM815 0l-225 461h-230l-81 -461h-234l215 1229h498q229 0 330.5 -108.5t64.5 -313.5q-23 -127 -106.5 -210t-215.5 -116l256 -458l-4 -23h-268z" />
    <glyph glyph-name="uni0157" unicode="&#x157;" horiz-adv-x="696" 
d="M250 0h-221l170 963h211l-52 -289l17 -2q64 168 144.5 234.5t191.5 66.5h37l-46 -248h-53q-150 0 -221.5 -60t-97.5 -208zM70 -109h176l-176 -313h-140l2 19z" />
    <glyph glyph-name="Rcaron" unicode="&#x158;" horiz-adv-x="1208" 
d="M723 1032h-262l-66 -375h260q242 0 275 181q17 100 -33.5 147t-173.5 47zM815 0l-225 461h-230l-81 -461h-234l215 1229h498q229 0 330.5 -108.5t64.5 -313.5q-23 -127 -106.5 -210t-215.5 -116l256 -458l-4 -23h-268zM774 1325h-78l-229 248l80 84l211 -166l272 166
l62 -84z" />
    <glyph glyph-name="rcaron" unicode="&#x159;" horiz-adv-x="696" 
d="M250 0h-221l170 963h211l-52 -289l17 -2q64 168 144.5 234.5t191.5 66.5h37l-46 -248h-53q-150 0 -221.5 -60t-97.5 -208zM528 1079h-77l-222 291l82 82l201 -199l270 199l72 -82z" />
    <glyph glyph-name="Sacute" unicode="&#x15a;" horiz-adv-x="1153" 
d="M545 -27q-501 0 -512 404l229 41q15 -254 305 -254q230 0 256 147q14 87 -41 133.5t-219 79.5q-238 46 -324 148t-57 270q25 148 151.5 230.5t342.5 82.5q98 0 174 -18.5t126.5 -50t84 -78t49.5 -99t20 -116.5l-237 -45q-10 114 -62.5 167.5t-181.5 53.5
q-219 0 -241 -141q-9 -35 -0.5 -66t35 -57t83.5 -49t146 -41q103 -21 177.5 -52.5t118 -70.5t67.5 -86t26 -99.5t-6 -111.5q-27 -153 -154 -237.5t-356 -84.5zM526 1341l-20 117l555 191l33 -170z" />
    <glyph glyph-name="sacute" unicode="&#x15b;" horiz-adv-x="954" 
d="M430 -27q-90 0 -160 16t-116 43t-77 67.5t-46 85.5t-19 100l207 39q11 -93 63 -141t164 -48q171 0 189 107q11 65 -34 101t-179 63q-180 38 -247 119.5t-44 209.5q24 122 125.5 187t280.5 65q97 0 167 -21t110.5 -61t61 -87.5t27.5 -110.5l-205 -39q-7 85 -50.5 123
t-131.5 38q-159 0 -178 -102q-8 -58 33 -96.5t161 -63.5q194 -39 265.5 -123t50.5 -211q-47 -260 -418 -260zM453 1059l-47 110l528 273l65 -156z" />
    <glyph glyph-name="Scircumflex" unicode="&#x15c;" horiz-adv-x="1153" 
d="M545 -27q-501 0 -512 404l229 41q15 -254 305 -254q230 0 256 147q14 87 -41 133.5t-219 79.5q-238 46 -324 148t-57 270q25 148 151.5 230.5t342.5 82.5q98 0 174 -18.5t126.5 -50t84 -78t49.5 -99t20 -116.5l-237 -45q-10 114 -62.5 167.5t-181.5 53.5
q-219 0 -241 -141q-9 -35 -0.5 -66t35 -57t83.5 -49t146 -41q103 -21 177.5 -52.5t118 -70.5t67.5 -86t26 -99.5t-6 -111.5q-27 -153 -154 -237.5t-356 -84.5zM963 1317l-211 166l-273 -166l-59 84l315 248h78l229 -248z" />
    <glyph glyph-name="scircumflex" unicode="&#x15d;" horiz-adv-x="954" 
d="M430 -27q-90 0 -160 16t-116 43t-77 67.5t-46 85.5t-19 100l207 39q11 -93 63 -141t164 -48q171 0 189 107q11 65 -34 101t-179 63q-180 38 -247 119.5t-44 209.5q24 122 125.5 187t280.5 65q97 0 167 -21t110.5 -61t61 -87.5t27.5 -110.5l-205 -39q-7 85 -50.5 123
t-131.5 38q-159 0 -178 -102q-8 -58 33 -96.5t161 -63.5q194 -39 265.5 -123t50.5 -211q-47 -260 -418 -260zM827 1061l-198 199l-271 -199l-71 82l325 291h76l223 -291z" />
    <glyph glyph-name="uni015E" unicode="&#x15e;" horiz-adv-x="1153" 
d="M545 -27q-33 0 -49 2l-43 -73q43 12 79 12q68 0 104.5 -30t25.5 -95q-9 -52 -61.5 -92.5t-147.5 -40.5q-122 0 -201 57l63 82q63 -49 150 -49q82 0 92 53q5 27 -13 41.5t-57 14.5q-34 0 -84 -13l-59 27l62 113q-363 52 -373 395l229 41q15 -254 305 -254q230 0 256 147
q14 87 -41 133.5t-219 79.5q-238 46 -324 148t-57 270q25 148 151.5 230.5t342.5 82.5q98 0 174 -18.5t126.5 -50t84 -78t49.5 -99t20 -116.5l-237 -45q-10 114 -62.5 167.5t-181.5 53.5q-219 0 -241 -141q-9 -35 -0.5 -66t35 -57t83.5 -49t146 -41q103 -21 177.5 -52.5
t118 -70.5t67.5 -86t26 -99.5t-6 -111.5q-27 -153 -154 -237.5t-356 -84.5z" />
    <glyph glyph-name="uni015F" unicode="&#x15f;" horiz-adv-x="954" 
d="M430 -27h-41l-43 -71q43 12 80 12q68 0 104 -30t25 -95q-9 -52 -61.5 -92.5t-147.5 -40.5q-122 0 -201 57l64 82q63 -49 149 -49q83 0 93 53q5 27 -13 41.5t-57 14.5q-34 0 -84 -13l-59 27l61 115q-266 43 -287 301l207 39q11 -93 63 -141t164 -48q171 0 189 107
q11 65 -34 101t-179 63q-180 38 -247 119.5t-44 209.5q24 122 125.5 187t280.5 65q97 0 167 -21t110.5 -61t61 -87.5t27.5 -110.5l-205 -39q-7 85 -50.5 123t-131.5 38q-159 0 -178 -102q-8 -58 33 -96.5t161 -63.5q194 -39 265.5 -123t50.5 -211q-47 -260 -418 -260z" />
    <glyph glyph-name="Scaron" unicode="&#x160;" horiz-adv-x="1153" 
d="M545 -27q-501 0 -512 404l229 41q15 -254 305 -254q230 0 256 147q14 87 -41 133.5t-219 79.5q-238 46 -324 148t-57 270q25 148 151.5 230.5t342.5 82.5q98 0 174 -18.5t126.5 -50t84 -78t49.5 -99t20 -116.5l-237 -45q-10 114 -62.5 167.5t-181.5 53.5
q-219 0 -241 -141q-9 -35 -0.5 -66t35 -57t83.5 -49t146 -41q103 -21 177.5 -52.5t118 -70.5t67.5 -86t26 -99.5t-6 -111.5q-27 -153 -154 -237.5t-356 -84.5zM758 1325h-78l-229 248l79 84l211 -166l273 166l61 -84z" />
    <glyph glyph-name="scaron" unicode="&#x161;" horiz-adv-x="954" 
d="M430 -27q-90 0 -160 16t-116 43t-77 67.5t-46 85.5t-19 100l207 39q11 -93 63 -141t164 -48q171 0 189 107q11 65 -34 101t-179 63q-180 38 -247 119.5t-44 209.5q24 122 125.5 187t280.5 65q97 0 167 -21t110.5 -61t61 -87.5t27.5 -110.5l-205 -39q-7 85 -50.5 123
t-131.5 38q-159 0 -178 -102q-8 -58 33 -96.5t161 -63.5q194 -39 265.5 -123t50.5 -211q-47 -260 -418 -260zM625 1079h-78l-221 291l82 82l200 -199l271 199l71 -82z" />
    <glyph glyph-name="Tcommaaccent" unicode="&#x162;" horiz-adv-x="1048" 
d="M123 1014l39 215h989l-37 -215h-379l-178 -1014h-108l-58 -98q43 12 80 12q68 0 104 -30t25 -95q-9 -52 -61.5 -92.5t-147.5 -40.5q-122 0 -201 57l64 82q63 -49 149 -49q83 0 93 53q5 27 -13 41.5t-57 14.5q-34 0 -84 -13l-59 27l71 131h-30l178 1014h-379z" />
    <glyph glyph-name="tcommaaccent" unicode="&#x163;" horiz-adv-x="729" 
d="M141 322l82 462h-135l33 179h133l47 260h219l-45 -260h285l-33 -179h-285l-80 -460q-25 -144 109 -144q41 0 139 25l-4 -197q-63 -19 -104 -27t-101 -8q-43 0 -92 11l-47 -82q44 12 80 12q68 0 104 -30t25 -95q-9 -52 -61.5 -92.5t-147.5 -40.5q-122 0 -201 57l64 82
q63 -49 149 -49q83 0 93 53q5 27 -13 41.5t-57 14.5q-34 0 -84 -13l-59 27l79 147q-66 43 -88.5 123t-3.5 183z" />
    <glyph glyph-name="Tcaron" unicode="&#x164;" horiz-adv-x="1048" 
d="M1114 1014h-379l-178 -1014h-233l178 1014h-379l39 215h989zM713 1325h-78l-229 248l79 84l211 -166l273 166l61 -84z" />
    <glyph glyph-name="tcaron" unicode="&#x165;" horiz-adv-x="739" 
d="M733 1393h168l-102 -330h-129zM141 322l82 462h-135l33 179h133l47 260h219l-45 -260h285l-33 -179h-285l-80 -460q-25 -144 109 -144q41 0 139 25l-4 -197q-63 -19 -104 -27t-101 -8q-107 0 -172.5 47.5t-85.5 124.5t-2 177z" />
    <glyph glyph-name="Tbar" unicode="&#x166;" horiz-adv-x="1054" 
d="M129 1014l39 215h989l-37 -215h-379l-69 -404h270l-24 -137h-271l-84 -473h-233l84 473h-277l25 137h276l70 404h-379z" />
    <glyph glyph-name="tbar" unicode="&#x167;" horiz-adv-x="729" 
d="M141 322l23 129h-107l23 127h106l37 206h-135l33 179h133l47 260h219l-45 -260h285l-33 -179h-285l-34 -206h254l-23 -127h-254l-23 -127q-25 -144 109 -144q41 0 139 25l-4 -197q-63 -19 -104 -27t-101 -8q-107 0 -172.5 47.5t-85.5 124.5t-2 177z" />
    <glyph glyph-name="Utilde" unicode="&#x168;" horiz-adv-x="1290" 
d="M610 182q78 0 135.5 20.5t95 61.5t60 94.5t35.5 126.5l131 744h233l-137 -774q-41 -237 -183.5 -358.5t-381.5 -121.5q-271 0 -393 135.5t-78 387.5l129 731h231l-129 -737q-15 -68 -8 -124.5t33 -98t83.5 -64.5t143.5 -23zM662 1677q45 0 79 -19.5t54.5 -47.5t38 -56
t38 -47.5t46.5 -19.5q41 0 63.5 42.5t36.5 137.5h104q-2 -35 -10 -92q-21 -120 -73.5 -181t-127.5 -61q-41 0 -73.5 19.5t-52.5 47.5t-37.5 55.5t-41 47t-51.5 19.5q-42 0 -64 -39t-40 -137h-102q2 33 10 92q21 119 74 179t129 60z" />
    <glyph glyph-name="utilde" unicode="&#x169;" horiz-adv-x="1091" 
d="M676 0l45 254h-16q-64 -135 -159.5 -208t-215.5 -73q-146 0 -212 97.5t-36 263.5l111 629h221l-105 -586q-16 -93 21 -148t131 -55q111 0 187 67t97 177l97 545h219l-170 -963h-215zM557 1436q45 0 79 -19.5t54.5 -48t38 -56.5t38 -47.5t46.5 -19.5q41 0 63.5 42.5
t36.5 137.5h105q-2 -35 -10 -92q-21 -120 -73.5 -180.5t-127.5 -60.5q-41 0 -73.5 19.5t-52.5 47t-37.5 55t-41 47t-51.5 19.5q-42 0 -64.5 -39.5t-40.5 -136.5h-102q2 33 10 92q21 119 74.5 179.5t128.5 60.5z" />
    <glyph glyph-name="Umacron" unicode="&#x16a;" horiz-adv-x="1290" 
d="M610 182q78 0 135.5 20.5t95 61.5t60 94.5t35.5 126.5l131 744h233l-137 -774q-41 -237 -183.5 -358.5t-381.5 -121.5q-271 0 -393 135.5t-78 387.5l129 731h231l-129 -737q-15 -68 -8 -124.5t33 -98t83.5 -64.5t143.5 -23zM549 1524h561l-29 -156h-561z" />
    <glyph glyph-name="umacron" unicode="&#x16b;" horiz-adv-x="1091" 
d="M676 0l45 254h-16q-64 -135 -159.5 -208t-215.5 -73q-146 0 -212 97.5t-36 263.5l111 629h221l-105 -586q-16 -93 21 -148t131 -55q111 0 187 67t97 177l97 545h219l-170 -963h-215zM406 1294h557l-29 -155h-555z" />
    <glyph glyph-name="Ubreve" unicode="&#x16c;" horiz-adv-x="1290" 
d="M610 182q78 0 135.5 20.5t95 61.5t60 94.5t35.5 126.5l131 744h233l-137 -774q-41 -237 -183.5 -358.5t-381.5 -121.5q-271 0 -393 135.5t-78 387.5l129 731h231l-129 -737q-15 -68 -8 -124.5t33 -98t83.5 -64.5t143.5 -23zM819 1485q167 0 211 155h109
q-45 -303 -328 -303q-146 0 -212 77.5t-40 225.5h111q-7 -86 32.5 -120.5t116.5 -34.5z" />
    <glyph glyph-name="ubreve" unicode="&#x16d;" horiz-adv-x="1091" 
d="M676 0l45 254h-16q-64 -135 -159.5 -208t-215.5 -73q-146 0 -212 97.5t-36 263.5l111 629h221l-105 -586q-16 -93 21 -148t131 -55q111 0 187 67t97 177l97 545h219l-170 -963h-215zM676 1235q78 0 131.5 41t79.5 141h110q-29 -169 -108.5 -248t-218.5 -79
q-145 0 -212.5 81.5t-39.5 245.5h110q-18 -182 148 -182z" />
    <glyph glyph-name="Uring" unicode="&#x16e;" horiz-adv-x="1290" 
d="M610 182q78 0 135.5 20.5t95 61.5t60 94.5t35.5 126.5l131 744h233l-137 -774q-41 -237 -183.5 -358.5t-381.5 -121.5q-271 0 -393 135.5t-78 387.5l129 731h231l-129 -737q-15 -68 -8 -124.5t33 -98t83.5 -64.5t143.5 -23zM1053 1522q-15 -91 -83.5 -146t-166.5 -55
q-105 0 -157.5 63t-33.5 166q15 91 82.5 145t165.5 54q106 0 159 -62t34 -165zM727 1540q-7 -51 16.5 -79.5t73.5 -28.5q48 0 80 26.5t39 73.5q9 51 -15 79.5t-75 28.5q-46 0 -78 -26.5t-41 -73.5z" />
    <glyph glyph-name="uring" unicode="&#x16f;" horiz-adv-x="1091" 
d="M676 0l45 254h-16q-64 -135 -159.5 -208t-215.5 -73q-146 0 -212 97.5t-36 263.5l111 629h221l-105 -586q-16 -93 21 -148t131 -55q111 0 187 67t97 177l97 545h219l-170 -963h-215zM573 1309q-9 -57 17.5 -91t83.5 -34q50 0 84 29.5t43 84.5q9 57 -18 90t-81 33
q-52 0 -86 -28.5t-43 -83.5zM915 1284q-17 -98 -85.5 -153.5t-170.5 -55.5q-111 0 -166 68.5t-36 177.5q19 100 87 155.5t169 55.5q111 0 166.5 -70t35.5 -178z" />
    <glyph glyph-name="Uhungarumlaut" unicode="&#x170;" horiz-adv-x="1290" 
d="M610 182q78 0 135.5 20.5t95 61.5t60 94.5t35.5 126.5l131 744h233l-137 -774q-41 -237 -183.5 -358.5t-381.5 -121.5q-271 0 -393 135.5t-78 387.5l129 731h231l-129 -737q-15 -68 -8 -124.5t33 -98t83.5 -64.5t143.5 -23zM659 1315l-90 61l246 316l129 -88zM948 1315
l-86 69l264 308l121 -97z" />
    <glyph glyph-name="uhungarumlaut" unicode="&#x171;" horiz-adv-x="1091" 
d="M676 0l45 254h-16q-64 -135 -159.5 -208t-215.5 -73q-146 0 -212 97.5t-36 263.5l111 629h221l-105 -586q-16 -93 21 -148t131 -55q111 0 187 67t97 177l97 545h219l-170 -963h-215zM778 1067l-82 68l262 323l115 -90zM504 1065l-88 59l237 336l123 -82z" />
    <glyph glyph-name="Uogonek" unicode="&#x172;" horiz-adv-x="1290" 
d="M610 182q78 0 135.5 20.5t95 61.5t60 94.5t35.5 126.5l131 744h233l-137 -774q-38 -222 -166 -343.5t-340 -134.5q-68 -19 -102.5 -43t-40.5 -59q-12 -68 102 -68q30 0 111 15l-20 -150q-78 -10 -129 -10q-115 0 -167 40.5t-38 115.5q17 103 159 159q-238 17 -342 151
t-63 370l129 731h231l-129 -737q-15 -68 -8 -124.5t33 -98t83.5 -64.5t143.5 -23z" />
    <glyph glyph-name="uogonek" unicode="&#x173;" horiz-adv-x="1091" 
d="M838 -328q-78 -10 -129 -10q-115 0 -167 40.5t-38 115.5q23 128 229 182h-57l45 254h-16q-64 -135 -159.5 -208t-215.5 -73q-146 0 -212 97.5t-36 263.5l111 629h221l-105 -586q-16 -93 21 -148t131 -55q111 0 187 67t97 177l97 545h219l-170 -963q-122 -22 -180.5 -51
t-65.5 -74q-12 -68 103 -68q29 0 110 15z" />
    <glyph glyph-name="Wcircumflex" unicode="&#x174;" horiz-adv-x="1734" 
d="M750 516l-197 -516h-330l-96 1229h244l24 -559q8 -320 6 -469h54q98 289 170 467l229 561h297l31 -561q8 -213 2 -467h53q11 33 170 469l217 559h248l-526 -1229h-342l-19 516q-7 266 -4 516h-43q-76 -221 -188 -516zM1262 1317l-211 166l-273 -166l-59 84l315 248h78
l229 -248z" />
    <glyph glyph-name="wcircumflex" unicode="&#x175;" horiz-adv-x="1521" 
d="M973 963l26 -377q15 -198 21 -420h35q31 81 92.5 225t83.5 199l151 373h226l-457 -963h-289l-26 420q-11 235 -9 381h-32q-82 -232 -144 -381l-170 -420h-282l-117 963h221l31 -373q24 -297 26 -424h37q90 242 166 420l160 377h250zM1108 1061l-199 199l-270 -199l-72 82
l326 291h76l223 -291z" />
    <glyph glyph-name="Ycircumflex" unicode="&#x176;" horiz-adv-x="1105" 
d="M586 0h-234l70 408l-313 798l4 23h247l191 -627h35l415 627h254l-4 -23l-596 -800zM946 1317l-211 166l-272 -166l-60 84l316 248h78l229 -248z" />
    <glyph glyph-name="ycircumflex" unicode="&#x177;" horiz-adv-x="980" 
d="M12 -358q-78 0 -137 12l55 199q77 -15 121 -15q88 0 142.5 34t117.5 138l-221 953h234l51 -349q48 -320 59 -419h33q27 56 98.5 201.5t102.5 213.5l166 353h245l-569 -975q-108 -184 -221.5 -265t-276.5 -81zM840 1061l-199 199l-270 -199l-72 82l326 291h75l224 -291z
" />
    <glyph glyph-name="Ydieresis" unicode="&#x178;" horiz-adv-x="1105" 
d="M586 0h-234l70 408l-313 798l4 23h247l191 -627h35l415 627h254l-4 -23l-596 -800zM434 1563h217l-37 -211h-217zM795 1563h217l-37 -211h-217z" />
    <glyph glyph-name="Zacute" unicode="&#x179;" horiz-adv-x="1173" 
d="M1040 213l-36 -213h-1018l37 209l864 809l-8 24q-232 -26 -394 -26h-299l37 213h991l-36 -207l-873 -813l8 -25q275 29 402 29h325zM553 1341l-21 117l555 191l33 -170z" />
    <glyph glyph-name="zacute" unicode="&#x17a;" horiz-adv-x="1009" 
d="M608 190h264l-34 -190h-848l33 193l700 585l-4 21q-251 -29 -371 -29h-205l33 193h825l-34 -193l-703 -588l4 -20q230 28 340 28zM463 1059l-47 110l528 273l66 -156z" />
    <glyph glyph-name="Zdotaccent" unicode="&#x17b;" horiz-adv-x="1173" 
d="M1040 213l-36 -213h-1018l37 209l864 809l-8 24q-232 -26 -394 -26h-299l37 213h991l-36 -207l-873 -813l8 -25q275 29 402 29h325zM635 1593h231l-39 -221h-231z" />
    <glyph glyph-name="zdotaccent" unicode="&#x17c;" horiz-adv-x="1009" 
d="M608 190h264l-34 -190h-848l33 193l700 585l-4 21q-251 -29 -371 -29h-205l33 193h825l-34 -193l-703 -588l4 -20q230 28 340 28zM541 1364h231l-39 -221h-231z" />
    <glyph glyph-name="Zcaron" unicode="&#x17d;" horiz-adv-x="1173" 
d="M1040 213l-36 -213h-1018l37 209l864 809l-8 24q-232 -26 -394 -26h-299l37 213h991l-36 -207l-873 -813l8 -25q275 29 402 29h325zM766 1325h-78l-229 248l80 84l211 -166l272 166l61 -84z" />
    <glyph glyph-name="zcaron" unicode="&#x17e;" horiz-adv-x="1009" 
d="M608 190h264l-34 -190h-848l33 193l700 585l-4 21q-251 -29 -371 -29h-205l33 193h825l-34 -193l-703 -588l4 -20q230 28 340 28zM645 1079h-78l-221 291l82 82l201 -199l270 199l72 -82z" />
    <glyph glyph-name="Aringacute" unicode="&#x1fa;" horiz-adv-x="1206" 
d="M637 1610l-14 112l546 187l23 -168zM680 1356q-9 -54 16 -84.5t76 -30.5q48 0 81 28.5t40 78.5q9 53 -15.5 82.5t-76.5 29.5q-48 0 -80 -27.5t-41 -76.5zM487 639l-77 -152h403l-25 152q-38 237 -55 387h-53q-81 -176 -193 -387zM893 0l-51 313h-525l-161 -313h-250
l669 1225q-28 62 -14 141q15 95 84.5 152t169.5 57q109 0 163.5 -65.5t35.5 -174.5q-18 -109 -109 -168l228 -1167h-240z" />
    <glyph glyph-name="aringacute" unicode="&#x1fb;" 
d="M553 1516l-14 120l536 162l19 -160zM608 1266q-7 -51 16.5 -80t73.5 -29q48 0 80 26.5t39 73.5q9 51 -15 80t-75 29q-46 0 -78 -26.5t-41 -73.5zM934 1247q-15 -91 -83.5 -145.5t-166.5 -54.5q-105 0 -157 63t-33 166q15 91 82 145t165 54q106 0 159 -62.5t34 -165.5z
M463 170q102 0 178 64.5t104 173.5l9 49l14 75q15 116 -41 186t-168 70q-116 0 -185 -73.5t-95 -225.5q-58 -319 184 -319zM68 512q40 229 150 353t271 122q136 1 210.5 -76.5t86.5 -214.5l13 9l45 258h221l-170 -963h-221l45 256l-4 -2l4 27q-58 -141 -157 -224.5
t-228 -83.5q-169 0 -240 140.5t-26 398.5z" />
    <glyph glyph-name="AEacute" unicode="&#x1fc;" horiz-adv-x="1765" 
d="M877 1341l-21 117l555 191l33 -170zM707 0l49 279h-408l-178 -279h-254l2 12l830 1217h1060l-36 -203h-650l-55 -303h592l-35 -201h-592l-57 -319h651l-37 -203h-882zM580 639l-119 -184h325l103 581h-64q-115 -197 -245 -397z" />
    <glyph glyph-name="aeacute" unicode="&#x1fd;" horiz-adv-x="1673" 
d="M383 152q112 0 190.5 59t96.5 151l12 66h-256q-79 0 -128.5 -33t-59.5 -94q-11 -66 23 -107.5t122 -41.5zM1223 817q-235 0 -303 -276h497q45 276 -194 276zM1561 272q-41 -94 -94.5 -157t-144 -102.5t-212.5 -39.5q-166 0 -275 70t-133 203q-62 -132 -169 -200.5
t-244 -68.5q-139 0 -215 79.5t-49 228.5q21 114 115 178.5t261 64.5h297l15 80q18 99 -19 149t-137 50q-82 0 -136.5 -41.5t-90.5 -128.5l-199 53q53 139 159.5 218t262.5 79q276 0 324 -192q129 192 376 192q216 0 308.5 -121.5t56.5 -330.5q-13 -65 -23 -99h-694
q-27 -280 225 -280q104 0 160 46t98 132zM797 1059l-47 110l528 273l65 -156z" />
    <glyph glyph-name="Oslashacute" unicode="&#x1fe;" horiz-adv-x="1343" 
d="M616 -27q-249 0 -389 131l-110 -104h-187v10l217 191q-105 183 -55 463q50 274 230.5 432.5t453.5 158.5q256 0 395 -139l121 113h181l-3 -12l-223 -199q103 -179 53 -449q-48 -276 -227 -436t-457 -160zM311 639q-31 -173 11 -283l688 615q-83 86 -246 86
q-191 0 -304.5 -110.5t-148.5 -307.5zM651 1341l-20 117l555 191l33 -170zM629 170q193 0 305.5 111.5t150.5 316.5q29 163 -10 266l-688 -614q86 -80 242 -80z" />
    <glyph glyph-name="oslashacute" unicode="&#x1ff;" 
d="M487 -27q-201 0 -313 109l-84 -82h-174l2 12l186 160q-73 146 -36 354q38 220 182 340.5t358 120.5q197 0 312 -106l84 82h165v-13l-182 -159q78 -143 41 -351q-38 -219 -181.5 -343t-359.5 -124zM594 813q-273 0 -330 -311q-18 -111 0 -191l510 443q-62 59 -180 59z
M518 1059l-47 110l528 273l66 -156zM498 152q275 0 333 317q18 108 0 184l-509 -444q63 -57 176 -57z" />
    <glyph glyph-name="uni0218" unicode="&#x218;" horiz-adv-x="1153" 
d="M545 -27q-501 0 -512 404l229 41q15 -254 305 -254q230 0 256 147q14 87 -41 133.5t-219 79.5q-238 46 -324 148t-57 270q25 148 151.5 230.5t342.5 82.5q98 0 174 -18.5t126.5 -50t84 -78t49.5 -99t20 -116.5l-237 -45q-10 114 -62.5 167.5t-181.5 53.5
q-219 0 -241 -141q-9 -35 -0.5 -66t35 -57t83.5 -49t146 -41q103 -21 177.5 -52.5t118 -70.5t67.5 -86t26 -99.5t-6 -111.5q-27 -153 -154 -237.5t-356 -84.5zM406 -109h176l-176 -313h-140l2 19z" />
    <glyph glyph-name="uni0219" unicode="&#x219;" horiz-adv-x="954" 
d="M430 -27q-90 0 -160 16t-116 43t-77 67.5t-46 85.5t-19 100l207 39q11 -93 63 -141t164 -48q171 0 189 107q11 65 -34 101t-179 63q-180 38 -247 119.5t-44 209.5q24 122 125.5 187t280.5 65q97 0 167 -21t110.5 -61t61 -87.5t27.5 -110.5l-205 -39q-7 85 -50.5 123
t-131.5 38q-159 0 -178 -102q-8 -58 33 -96.5t161 -63.5q194 -39 265.5 -123t50.5 -211q-47 -260 -418 -260zM317 -109h177l-177 -313h-139l2 19z" />
    <glyph glyph-name="uni021A" unicode="&#x21a;" horiz-adv-x="1048" 
d="M123 1014l39 215h989l-37 -215h-379l-178 -1014h-233l178 1014h-379zM367 -109h176l-176 -313h-140l2 19z" />
    <glyph glyph-name="uni021B" unicode="&#x21b;" horiz-adv-x="729" 
d="M141 322l82 462h-135l33 179h133l47 260h219l-45 -260h285l-33 -179h-285l-80 -460q-25 -144 109 -144q41 0 139 25l-4 -197q-63 -19 -104 -27t-101 -8q-107 0 -172.5 47.5t-85.5 124.5t-2 177zM223 -109h176l-176 -313h-139l2 19z" />
    <glyph glyph-name="circumflex" unicode="&#x2c6;" horiz-adv-x="706" 
d="M698 1061l-198 199l-271 -199l-71 82l325 291h76l223 -291z" />
    <glyph glyph-name="caron" unicode="&#x2c7;" horiz-adv-x="706" 
d="M498 1079h-78l-221 291l82 82l200 -199l271 199l71 -82z" />
    <glyph glyph-name="breve" unicode="&#x2d8;" horiz-adv-x="669" 
d="M473 1235q78 0 131.5 41t79.5 141h111q-29 -169 -109 -248t-219 -79q-145 0 -212.5 81.5t-39.5 245.5h111q-18 -182 147 -182z" />
    <glyph glyph-name="dotaccent" unicode="&#x2d9;" horiz-adv-x="350" 
d="M215 1364h231l-38 -221h-232z" />
    <glyph glyph-name="ring" unicode="&#x2da;" horiz-adv-x="600" 
d="M674 1284q-17 -98 -85.5 -153.5t-170.5 -55.5q-111 0 -166.5 68.5t-36.5 177.5q19 100 87 155.5t169 55.5q111 0 167 -70t36 -178zM332 1309q-9 -58 17.5 -91.5t82.5 -33.5q50 0 84 29.5t43 84.5q9 57 -17.5 90t-80.5 33q-52 0 -86 -28.5t-43 -83.5z" />
    <glyph glyph-name="ogonek" unicode="&#x2db;" horiz-adv-x="444" 
d="M285 23l30 -23q-122 -22 -180 -51t-65 -74q-12 -68 102 -68q30 0 111 15l-21 -150q-78 -10 -129 -10q-115 0 -167 40.5t-38 115.5q14 86 110.5 137.5t246.5 67.5z" />
    <glyph glyph-name="tilde" unicode="&#x2dc;" horiz-adv-x="710" 
d="M375 1436q45 0 79 -19.5t54.5 -48t38 -56.5t38 -47.5t46.5 -19.5q41 0 63.5 42.5t36.5 137.5h105q-1 -22 -11 -92q-21 -120 -73 -180.5t-127 -60.5q-41 0 -73.5 19.5t-52.5 47t-37.5 55t-41 47t-51.5 19.5q-42 0 -64.5 -39.5t-40.5 -136.5h-102q2 33 10 92
q21 119 74.5 179.5t128.5 60.5z" />
    <glyph glyph-name="hungarumlaut" unicode="&#x2dd;" horiz-adv-x="704" 
d="M258 1065l-88 59l238 336l122 -82zM532 1067l-81 68l262 323l114 -90z" />
    <glyph glyph-name="Wgrave" unicode="&#x1e80;" horiz-adv-x="1734" 
d="M750 516l-197 -516h-330l-96 1229h244l24 -559q8 -320 6 -469h54q98 289 170 467l229 561h297l31 -561q8 -213 2 -467h53q11 33 170 469l217 559h248l-526 -1229h-342l-19 516q-7 266 -4 516h-43q-76 -221 -188 -516zM1184 1341l-516 140l71 168l492 -191z" />
    <glyph glyph-name="wgrave" unicode="&#x1e81;" horiz-adv-x="1521" 
d="M973 963l26 -377q15 -198 21 -420h35q31 81 92.5 225t83.5 199l151 373h226l-457 -963h-289l-26 420q-11 235 -9 381h-32q-82 -232 -144 -381l-170 -420h-282l-117 963h221l31 -373q24 -297 26 -424h37q90 242 166 420l160 377h250zM1038 1063l-467 225l95 158l430 -277z
" />
    <glyph glyph-name="Wacute" unicode="&#x1e82;" horiz-adv-x="1734" 
d="M750 516l-197 -516h-330l-96 1229h244l24 -559q8 -320 6 -469h54q98 289 170 467l229 561h297l31 -561q8 -213 2 -467h53q11 33 170 469l217 559h248l-526 -1229h-342l-19 516q-7 266 -4 516h-43q-76 -221 -188 -516zM842 1341l-21 117l555 191l33 -170z" />
    <glyph glyph-name="wacute" unicode="&#x1e83;" horiz-adv-x="1521" 
d="M973 963l26 -377q15 -198 21 -420h35q31 81 92.5 225t83.5 199l151 373h226l-457 -963h-289l-26 420q-11 235 -9 381h-32q-82 -232 -144 -381l-170 -420h-282l-117 963h221l31 -373q24 -297 26 -424h37q90 242 166 420l160 377h250zM727 1059l-47 110l528 273l66 -156z
" />
    <glyph glyph-name="Wdieresis" unicode="&#x1e84;" horiz-adv-x="1734" 
d="M750 516l-197 -516h-330l-96 1229h244l24 -559q8 -320 6 -469h54q98 289 170 467l229 561h297l31 -561q8 -213 2 -467h53q11 33 170 469l217 559h248l-526 -1229h-342l-19 516q-7 266 -4 516h-43q-76 -221 -188 -516zM750 1563h217l-37 -211h-217zM1110 1563h217
l-37 -211h-217z" />
    <glyph glyph-name="wdieresis" unicode="&#x1e85;" horiz-adv-x="1521" 
d="M973 963l26 -377q15 -198 21 -420h35q31 81 92.5 225t83.5 199l151 373h226l-457 -963h-289l-26 420q-11 235 -9 381h-32q-82 -232 -144 -381l-170 -420h-282l-117 963h221l31 -373q24 -297 26 -424h37q90 242 166 420l160 377h250zM623 1346h217l-37 -211h-217z
M983 1346h217l-37 -211h-217z" />
    <glyph glyph-name="uni1E9E" unicode="&#x1e9e;" horiz-adv-x="1232" 
d="M760 -20q-125 0 -211 40.5t-125 112.5l96 174q33 -60 98 -94.5t154 -34.5q139 0 160 107q10 58 -27 96.5t-114 73.5q-19 9 -33 16.5t-33 18t-32.5 20t-29.5 22.5t-27 26t-22.5 29t-18 34t-10.5 38t-4 43.5t5 49.5q32 175 334 278l-2 21q-130 -17 -250 -17
q-213 0 -254 -231l-142 -803h-233l143 813q36 203 165 309.5t349 106.5h463l-33 -191q-164 -68 -241 -128.5t-88 -125.5q-10 -59 24 -95t105 -71q40 -21 69 -39.5t58 -43.5t45.5 -51t30.5 -61.5t13 -75t-7 -91.5q-22 -132 -117.5 -204t-257.5 -72z" />
    <glyph glyph-name="endash" unicode="&#x2013;" horiz-adv-x="974" 
d="M61 602h893l-34 -203h-893z" />
    <glyph glyph-name="emdash" unicode="&#x2014;" horiz-adv-x="1761" 
d="M61 602h1680l-35 -203h-1679z" />
    <glyph glyph-name="quoteleft" unicode="&#x2018;" horiz-adv-x="415" 
d="M303 662h-227l286 567h125l-2 -12z" />
    <glyph glyph-name="quoteright" unicode="&#x2019;" horiz-adv-x="415" 
d="M272 1229h228l-287 -567h-125l2 12z" />
    <glyph glyph-name="quotesinglbase" unicode="&#x201a;" horiz-adv-x="411" 
d="M104 279h228l-287 -568h-125l2 13z" />
    <glyph glyph-name="quotedblleft" unicode="&#x201c;" horiz-adv-x="765" 
d="M313 662h-227l287 567h125l-2 -12zM662 662h-228l287 567h125l-2 -12z" />
    <glyph glyph-name="quotedblright" unicode="&#x201d;" horiz-adv-x="768" 
d="M272 1229h228l-287 -567h-125l2 12zM623 1229h227l-287 -567h-125l2 12z" />
    <glyph glyph-name="quotedblbase" unicode="&#x201e;" horiz-adv-x="753" 
d="M100 279h228l-287 -568h-125l2 13zM451 279h227l-287 -568h-125l2 13z" />
    <glyph glyph-name="dagger" unicode="&#x2020;" horiz-adv-x="1193" 
d="M553 -430h-234l216 1218h-238l-66 -370h-186l96 545h424l72 409h233l-71 -409h424l-97 -545h-186l66 370h-238z" />
    <glyph glyph-name="daggerdbl" unicode="&#x2021;" horiz-adv-x="1224" 
d="M653 1372h232l-62 -350h426l-69 -393h-187l39 217h-239l-119 -672h239l39 219h187l-70 -393h-426l-76 -430h-231l76 430h-426l69 393h187l-39 -219h239l119 672h-239l-39 -217h-187l70 393h426z" />
    <glyph glyph-name="bullet" unicode="&#x2022;" horiz-adv-x="569" 
d="M129 692h385l-65 -375h-386z" />
    <glyph glyph-name="ellipsis" unicode="&#x2026;" horiz-adv-x="1198" 
d="M25 250h256l-43 -250h-256zM432 250h256l-43 -250h-256zM842 250h256l-43 -250h-256z" />
    <glyph glyph-name="perthousand" unicode="&#x2030;" horiz-adv-x="2263" 
d="M1825 -20q-163 0 -243.5 106t-49.5 281q28 151 128 234t249 83q164 0 245 -104.5t50 -276.5q-27 -154 -128.5 -238.5t-250.5 -84.5zM1835 129q78 0 130 52t69 147q18 97 -20 152t-118 55q-77 0 -127 -49t-67 -144q-19 -99 17.5 -156t115.5 -57zM430 545
q-163 0 -243.5 106t-49.5 281q28 151 128 235t249 84q164 0 245 -105.5t50 -277.5q-27 -154 -128.5 -238.5t-250.5 -84.5zM440 694q78 0 130 52t69 147q18 98 -19.5 152.5t-117.5 54.5q-77 0 -127.5 -49t-67.5 -144q-19 -99 17.5 -156t115.5 -57zM1077 -20
q-164 0 -244.5 106t-48.5 281q26 151 126 234t249 83q164 0 245 -104.5t50 -276.5q-27 -154 -128 -238.5t-249 -84.5zM1085 129q79 0 130.5 51.5t68.5 147.5q18 96 -19.5 151.5t-115.5 55.5t-129 -49t-68 -144q-17 -99 19 -156t114 -57zM1255 1229h308l-2 -12l-672 -537
l-41 37zM338 0h-307l2 12l672 537l38 -35z" />
    <glyph glyph-name="guilsinglleft" unicode="&#x2039;" horiz-adv-x="763" 
d="M649 68h-213l-393 444l4 33l541 444h223l-4 -26l-531 -441v-4l377 -426z" />
    <glyph glyph-name="guilsinglright" unicode="&#x203a;" horiz-adv-x="768" 
d="M197 59h-224l4 27l531 440v4l-377 426l4 25h213l395 -444l-6 -33z" />
    <glyph glyph-name="fraction" unicode="&#x2044;" horiz-adv-x="69" 
d="M518 1229h307l-2 -12l-671 -537l-41 37zM-399 0h-308l2 12l672 537l39 -35z" />
    <glyph glyph-name="Euro" unicode="&#x20ac;" horiz-adv-x="1345" 
d="M674 -27q-228 0 -355.5 126t-138.5 345h-145l16 99h129q5 49 15 112q1 3 2 10.5t2 10.5h-123l16 98h131q68 233 223 357t381 124q242 0 365 -126t125 -353l-225 -26q-6 153 -73.5 227t-213.5 74q-254 0 -350 -277h309l-19 -98h-317q-3 -9 -8 -39q-9 -51 -12 -94h315
l-18 -99h-297q9 -128 77.5 -198t196.5 -70q143 0 227.5 77.5t143.5 238.5l217 -48q-148 -471 -596 -471z" />
    <glyph glyph-name="uni2116" unicode="&#x2116;" horiz-adv-x="2209" 
d="M1346 352h727l-35 -194h-727zM1763 635q94 0 151.5 59t76.5 164t-20.5 164t-135.5 59q-93 0 -150.5 -57.5t-76.5 -161.5q-19 -106 19 -166.5t136 -60.5zM1743 467q-182 0 -271 111.5t-55 302.5q31 172 149 270t292 98q180 0 268 -109.5t55 -301.5q-31 -171 -149 -271
t-289 -100zM805 0l-205 559q-89 248 -141 465l-41 -4q-30 -296 -84 -598l-74 -422h-217l215 1229h328l180 -481q107 -298 158 -515l39 3q29 311 77 567l74 426h217l-217 -1229h-309z" />
    <glyph glyph-name="trademark" unicode="&#x2122;" horiz-adv-x="1847" 
d="M147 1077l27 152h649l-26 -152h-238l-98 -555h-174l96 555h-236zM997 778l-45 -256h-151l125 707h284l37 -193q5 -23 19 -89t23.5 -116t15.5 -94h28q80 156 162 299l111 193h278l-125 -707h-176l45 256q2 12 60 301h-31q-68 -127 -174 -311l-133 -223h-154l-51 219
q-51 221 -68 315h-33q-10 -72 -47 -301z" />
    <glyph glyph-name="uni2190" unicode="&#x2190;" horiz-adv-x="1566" 
d="M43 549l14 82l746 586l112 -170q-310 -218 -575 -369l2 -12q274 26 680 26h455l-37 -205h-453q-396 0 -672 27l-6 -12q223 -164 441 -371l-168 -166z" />
    <glyph glyph-name="arrowup" unicode="&#x2191;" horiz-adv-x="1449" 
d="M682 1331h82l586 -641l-170 -139q-207 260 -369 508l-12 -4q26 -269 26 -678v-453h-204v453q0 409 26 678l-12 4q-152 -237 -369 -508l-168 139z" />
    <glyph glyph-name="uni2192" unicode="&#x2192;" horiz-adv-x="1566" 
d="M1522 635l-13 -82l-747 -586l-111 170q295 207 576 369l-2 12q-274 -26 -682 -26h-453l35 204h455q405 0 671 -26l6 12q-216 157 -442 371l170 166z" />
    <glyph glyph-name="arrowdown" unicode="&#x2193;" horiz-adv-x="1449" 
d="M766 -96h-82l-586 643l170 139q218 -277 369 -508l12 4q-26 269 -26 676v455h204v-455q0 -407 -26 -676l10 -4q162 246 371 508l168 -141z" />
    <glyph glyph-name="minus" unicode="&#x2212;" horiz-adv-x="1005" 
d="M948 532h-872l35 197h872z" />
    <glyph glyph-name="uni25A0" unicode="&#x25a0;" horiz-adv-x="1843" 
d="M74 -244q4 283 4 848t-4 848q283 -6 848 -6q564 0 847 6q-4 -283 -4 -848t4 -848q-424 6 -847 6t-848 -6z" />
    <glyph glyph-name="uni25B2" unicode="&#x25b2;" horiz-adv-x="1843" 
d="M154 0v8l768 1264h8l762 -1264v-8h-1538z" />
    <glyph glyph-name="uni25B3" unicode="&#x25b3;" horiz-adv-x="1843" 
d="M154 0v8l768 1264h8l762 -1264v-8h-1538zM926 193q146 0 448 -25l6 14q-260 371 -446 779h-14q-189 -408 -449 -779l6 -14q275 25 449 25z" />
    <glyph glyph-name="uni25B6" unicode="&#x25b6;" horiz-adv-x="1843" 
d="M369 1391h8l1263 -768v-9l-1263 -761h-8v1538z" />
    <glyph glyph-name="uni25B7" unicode="&#x25b7;" horiz-adv-x="1843" 
d="M369 1391h8l1263 -768v-9l-1263 -761h-8v1538zM561 618q0 -158 -24 -448l14 -6q373 262 778 446v15q-409 189 -778 448l-14 -6q24 -264 24 -449z" />
    <glyph glyph-name="uni25BC" unicode="&#x25bc;" horiz-adv-x="1843" 
d="M1690 1229v-8l-768 -1264h-9l-761 1264v8h1538z" />
    <glyph glyph-name="uni25BD" unicode="&#x25bd;" horiz-adv-x="1843" 
d="M1370 1047l-6 14q-275 -25 -449 -25q-146 0 -448 25l-6 -14q260 -371 446 -779h15q190 412 448 779zM150 1229h1538v-8l-768 -1264h-9l-761 1264v8z" />
    <glyph glyph-name="uni25C0" unicode="&#x25c0;" horiz-adv-x="1843" 
d="M1475 1391h-9l-1263 -768v-9l1263 -761h9v1538z" />
    <glyph glyph-name="uni25C1" unicode="&#x25c1;" horiz-adv-x="1843" 
d="M1466 1391h9v-1538h-9l-1263 761v9zM1282 618q0 174 25 449l-15 6q-369 -259 -778 -448v-15q405 -184 778 -446l15 6q-25 302 -25 448z" />
    <glyph glyph-name="uni25C6" unicode="&#x25c6;" horiz-adv-x="1843" 
d="M922 -395q-483 521 -990 989q540 502 990 989q457 -493 989 -989q-500 -461 -989 -989z" />
    <glyph glyph-name="uni25CF" unicode="&#x25cf;" horiz-adv-x="1843" 
d="M-6 602q0 284 112.5 494t323 322t494.5 112q427 0 676 -249.5t249 -678.5t-249 -678.5t-676 -249.5q-284 0 -494.5 112t-323 322t-112.5 494z" />
    <glyph glyph-name="uni2605" unicode="&#x2605;" horiz-adv-x="1843" 
d="M1448 -160l-526 305l-523 -305l-6 4l125 592l-450 404l2 8l604 63l244 553h8l243 -553l605 -63l2 -8l-451 -404l125 -592z" />
    <glyph glyph-name="uni2610" unicode="&#x2610;" horiz-adv-x="1843" 
d="M1489 0h-1133v1133h1133v-1133zM924 166q179 0 411 -10q-12 206 -12 411q0 206 12 412q-278 -12 -411 -12q-134 0 -412 12q10 -232 10 -412q0 -183 -10 -411q232 10 412 10z" />
    <glyph glyph-name="uni2611" unicode="&#x2611;" horiz-adv-x="1843" 
d="M633 639l121 123q134 -147 209 -262q80 144 183.5 306t179.5 272t204 290l162 -119q-213 -258 -378 -486t-308 -474h-91q-111 179 -282 350zM356 0v1133h844v-7l-102 -157q-28 0 -87 -1t-87 -1q-64 0 -412 10q10 -338 10 -410q0 -69 -10 -411q232 10 412 10
q183 0 411 -10q-1 48 -4.5 135t-5.5 158t-2 135l160 213h6v-797h-1133z" />
    <glyph glyph-name="uni2612" unicode="&#x2612;" horiz-adv-x="1843" 
d="M1489 0h-1133v1133h1133v-1133zM1126 268q-88 93 -204 228q-144 -168 -199 -228l-105 101q120 110 230 200q-120 98 -230 199l105 102q112 -126 201 -229q86 103 202 229l101 -102q-190 -167 -230 -199q110 -90 230 -200zM924 166q179 0 411 -10q-12 206 -12 411
q0 206 12 412q-278 -12 -411 -12q-134 0 -412 12q10 -232 10 -412q0 -183 -10 -411q232 10 412 10z" />
    <glyph glyph-name="uni2661" unicode="&#x2661;" horiz-adv-x="1843" 
d="M629 432q197 -128 299 -270q102 142 299 270q152 100 231.5 204t79.5 230q0 125 -62 197t-190 72q-253 0 -328 -367h-61q-75 367 -326 367q-128 0 -191 -72.5t-63 -196.5q0 -125 79.5 -229.5t232.5 -204.5zM920 -111q-61 107 -154 193.5t-246 198.5q-78 55 -138 105.5
t-114 110t-89.5 118.5t-56 128t-20.5 142q0 204 108 318t296 114q164 0 260.5 -78t146.5 -244h19q48 165 144.5 243.5t262.5 78.5q185 0 293.5 -114.5t108.5 -317.5q0 -91 -30 -174t-88.5 -157.5t-129 -138.5t-168.5 -134q-152 -110 -245 -197t-152 -195h-8z" />
    <glyph glyph-name="uni2726" unicode="&#x2726;" horiz-adv-x="1843" 
d="M1690 616v-24q-276 -85 -473.5 -284.5t-284.5 -471.5h-23q-88 272 -284.5 471.5t-472.5 284.5v24q276 85 472.5 284.5t284.5 471.5h23q87 -272 284.5 -471.5t473.5 -284.5z" />
    <glyph glyph-name="uni2727" unicode="&#x2727;" horiz-adv-x="1843" 
d="M1692 606v-8q-276 -85 -476.5 -287.5t-287.5 -474.5h-8q-87 272 -288.5 475.5t-477.5 288.5v8q276 85 476 288t288 476h8q88 -273 289 -477t477 -289zM1380 596v16q-178 56 -286.5 163t-163.5 286h-15q-57 -180 -164 -286.5t-286 -162.5v-16q178 -56 286.5 -163
t163.5 -286h15q57 180 164 286.5t286 162.5z" />
    <glyph glyph-name="uni2728" unicode="&#x2728;" horiz-adv-x="1843" 
d="M1255 424v-8q-225 -70 -387.5 -234.5t-232.5 -386.5h-10q-70 222 -234.5 387.5t-390.5 235.5v8q226 70 390 235t235 388h8q72 -223 235 -389t387 -236zM623 43h8q47 146 138.5 237t238.5 138v10q-147 50 -238.5 141t-138.5 236h-8q-47 -145 -138 -236t-237 -141v-10
q145 -47 236.5 -138t138.5 -237zM1194 1204v-10q-103 -32 -176.5 -107.5t-106.5 -179.5h-10q-31 103 -105.5 179t-179.5 110v8q104 32 177 108t108 181h8q33 -104 107.5 -180.5t177.5 -108.5zM1079 1198v6q-68 22 -108 62t-62 108h-6q-22 -68 -62 -109t-106 -61v-6
q66 -22 106 -62t62 -106h6q22 66 62.5 106t107.5 62zM1843 784q-170 -52 -293 -176t-176 -293h-8q-53 169 -177 293t-296 178v9q171 52 293.5 176.5t177.5 294.5h8q53 -169 177 -294t294 -179v-9zM1657 786v11q-112 35 -181 103t-104 179h-8q-35 -110 -104 -178.5
t-179 -103.5v-11q110 -35 179 -103.5t104 -178.5h8q35 111 104 179t181 103z" />
    <glyph glyph-name="uni2764" unicode="&#x2764;" horiz-adv-x="1843" 
d="M920 -111q-61 107 -154 193.5t-246 198.5q-78 55 -138 105.5t-114 110t-89.5 118.5t-56 128t-20.5 142q0 204 108 318t296 114q164 0 260.5 -78t146.5 -244h19q48 165 144.5 243.5t262.5 78.5q185 0 293.5 -114.5t108.5 -317.5q0 -91 -30 -174t-88.5 -157.5t-129 -138.5
t-168.5 -134q-152 -110 -245 -197t-152 -195h-8z" />
    <glyph glyph-name="uni2780" unicode="&#x2780;" horiz-adv-x="1771" 
d="M885 -33q159 0 283 49t202.5 137.5t119 208.5t40.5 265q0 144 -40.5 263t-119.5 206.5t-202.5 135.5t-282.5 48q-158 0 -281.5 -48t-202.5 -135.5t-120 -206.5t-41 -263q0 -145 40.5 -265t119 -208.5t202.5 -137.5t283 -49zM885 1448q195 0 351.5 -61t258.5 -170.5
t156.5 -260t54.5 -329.5q0 -144 -34 -270.5t-102 -229t-165.5 -175.5t-230 -113t-289.5 -40q-195 0 -351.5 61.5t-259 172t-157 262t-54.5 332.5q0 179 54.5 329.5t157 260t259 170.5t351.5 61zM1204 188h-629v156h250v561q-81 -42 -219 -90l-59 148l356 106h105v-725h196
v-156z" />
    <glyph glyph-name="uni2781" unicode="&#x2781;" horiz-adv-x="1771" 
d="M885 -33q159 0 283 49t202.5 137.5t119 208.5t40.5 265q0 144 -40.5 263t-119.5 206.5t-202.5 135.5t-282.5 48q-158 0 -281.5 -48t-202.5 -135.5t-120 -206.5t-41 -263q0 -145 40.5 -265t119 -208.5t202.5 -137.5t283 -49zM885 1448q195 0 351.5 -61t258.5 -170.5
t156.5 -260t54.5 -329.5q0 -144 -34 -270.5t-102 -229t-165.5 -175.5t-230 -113t-289.5 -40q-195 0 -351.5 61.5t-259 172t-157 262t-54.5 332.5q0 179 54.5 329.5t157 260t259 170.5t351.5 61zM903 940q-100 0 -153.5 -52t-71.5 -151l-178 23q56 332 403 332
q173 0 265 -70.5t92 -212.5q0 -120 -96.5 -189.5t-278.5 -109.5q-142 -35 -193 -69.5t-57 -106.5q150 16 315 16h316v-155h-793q0 15 -1 46.5t-1 49.5q0 145 75.5 220.5t248.5 119.5q169 44 223.5 80.5t54.5 103.5q0 125 -170 125z" />
    <glyph glyph-name="uni2782" unicode="&#x2782;" horiz-adv-x="1771" 
d="M885 -33q159 0 283 49t202.5 137.5t119 208.5t40.5 265q0 144 -40.5 263t-119.5 206.5t-202.5 135.5t-282.5 48q-158 0 -281.5 -48t-202.5 -135.5t-120 -206.5t-41 -263q0 -145 40.5 -265t119 -208.5t202.5 -137.5t283 -49zM885 1448q195 0 351.5 -61t258.5 -170.5
t156.5 -260t54.5 -329.5q0 -144 -34 -270.5t-102 -229t-165.5 -175.5t-230 -113t-289.5 -40q-195 0 -351.5 61.5t-259 172t-157 262t-54.5 332.5q0 179 54.5 329.5t157 260t259 170.5t351.5 61zM885 174q-182 0 -284.5 69t-129.5 216l186 24q22 -85 72.5 -126.5t157.5 -41.5
q194 0 194 129q0 63 -38.5 91t-141.5 28h-160v129h158q154 0 154 119q0 65 -39.5 95t-126.5 30q-95 0 -140 -39.5t-65 -122.5l-174 17q50 292 377 292q178 0 261 -58.5t83 -176.5q0 -87 -54 -137.5t-161 -71.5v-16q143 -12 199.5 -58t56.5 -141q0 -116 -94.5 -183
t-290.5 -67z" />
    <glyph glyph-name="uni2783" unicode="&#x2783;" horiz-adv-x="1771" 
d="M885 -33q159 0 283 49t202.5 137.5t119 208.5t40.5 265q0 144 -40.5 263t-119.5 206.5t-202.5 135.5t-282.5 48q-158 0 -281.5 -48t-202.5 -135.5t-120 -206.5t-41 -263q0 -145 40.5 -265t119 -208.5t202.5 -137.5t283 -49zM885 1448q195 0 351.5 -61t258.5 -170.5
t156.5 -260t54.5 -329.5q0 -144 -34 -270.5t-102 -229t-165.5 -175.5t-230 -113t-289.5 -40q-195 0 -351.5 61.5t-259 172t-157 262t-54.5 332.5q0 179 54.5 329.5t157 260t259 170.5t351.5 61zM1257 395h-129v-202h-184v202h-538v125l493 553h229v-534h129v-144zM897 539
h47v387l-14 4l-346 -400l6 -8q185 17 307 17z" />
    <glyph glyph-name="uni2784" unicode="&#x2784;" horiz-adv-x="1771" 
d="M885 -33q159 0 283 49t202.5 137.5t119 208.5t40.5 265q0 144 -40.5 263t-119.5 206.5t-202.5 135.5t-282.5 48q-158 0 -281.5 -48t-202.5 -135.5t-120 -206.5t-41 -263q0 -145 40.5 -265t119 -208.5t202.5 -137.5t283 -49zM885 1448q195 0 351.5 -61t258.5 -170.5
t156.5 -260t54.5 -329.5q0 -144 -34 -270.5t-102 -229t-165.5 -175.5t-230 -113t-289.5 -40q-195 0 -351.5 61.5t-259 172t-157 262t-54.5 332.5q0 179 54.5 329.5t157 260t259 170.5t351.5 61zM893 317q104 0 148 36.5t44 107.5q0 137 -192 137q-128 0 -211 -51l-145 51
v471h682v-166q-262 0 -519 17v-258q100 63 252 63q157 0 238.5 -70.5t81.5 -195.5q0 -145 -95.5 -215t-287.5 -70q-167 0 -266.5 57t-149.5 177l176 51q22 -44 50.5 -73t78 -49t115.5 -20z" />
    <glyph glyph-name="uni2785" unicode="&#x2785;" horiz-adv-x="1771" 
d="M899 616q-113 0 -169 -40.5t-56 -102.5q0 -65 54.5 -106t160.5 -41q108 0 153 40.5t45 112.5q0 137 -188 137zM885 -33q159 0 283 49t202.5 137.5t119 208.5t40.5 265q0 144 -40.5 263t-119.5 206.5t-202.5 135.5t-282.5 48q-158 0 -281.5 -48t-202.5 -135.5t-120 -206.5
t-41 -263q0 -145 40.5 -265t119 -208.5t202.5 -137.5t283 -49zM885 1448q195 0 351.5 -61t258.5 -170.5t156.5 -260t54.5 -329.5q0 -144 -34 -270.5t-102 -229t-165.5 -175.5t-230 -113t-289.5 -40q-195 0 -351.5 61.5t-259 172t-157 262t-54.5 332.5q0 179 54.5 329.5
t157 260t259 170.5t351.5 61zM1272 475q0 -142 -98 -219.5t-289 -77.5q-95 0 -167.5 22.5t-128.5 72t-85 136.5t-29 209q0 102 24 186t73 149.5t131 102t192 36.5q178 0 257 -69.5t99 -211.5l-180 -20q-16 78 -55.5 113.5t-124.5 35.5q-128 0 -184 -86t-56 -276v-13l21 -2
q67 162 297 162q138 0 220.5 -60t82.5 -190z" />
    <glyph glyph-name="uni2786" unicode="&#x2786;" horiz-adv-x="1771" 
d="M885 -33q159 0 283 49t202.5 137.5t119 208.5t40.5 265q0 144 -40.5 263t-119.5 206.5t-202.5 135.5t-282.5 48q-158 0 -281.5 -48t-202.5 -135.5t-120 -206.5t-41 -263q0 -145 40.5 -265t119 -208.5t202.5 -137.5t283 -49zM885 1448q195 0 351.5 -61t258.5 -170.5
t156.5 -260t54.5 -329.5q0 -144 -34 -270.5t-102 -229t-165.5 -175.5t-230 -113t-289.5 -40q-195 0 -351.5 61.5t-259 172t-157 262t-54.5 332.5q0 179 54.5 329.5t157 260t259 170.5t351.5 61zM492 905v164h780v-164q-306 -289 -334 -717h-211q12 212 115.5 401t279.5 333
q-217 -17 -344 -17h-286z" />
    <glyph glyph-name="uni2787" unicode="&#x2787;" horiz-adv-x="1771" 
d="M883 569q-209 0 -209 -127q0 -125 209 -125q211 0 211 125q0 59 -47 93t-164 34zM883 940q-93 0 -135.5 -30.5t-42.5 -92.5q0 -124 178 -127q178 3 178 127q0 62 -42.5 92.5t-135.5 30.5zM885 -33q159 0 283 49t202.5 137.5t119 208.5t40.5 265q0 144 -40.5 263
t-119.5 206.5t-202.5 135.5t-282.5 48q-158 0 -281.5 -48t-202.5 -135.5t-120 -206.5t-41 -263q0 -145 40.5 -265t119 -208.5t202.5 -137.5t283 -49zM885 1448q195 0 351.5 -61t258.5 -170.5t156.5 -260t54.5 -329.5q0 -144 -34 -270.5t-102 -229t-165.5 -175.5t-230 -113
t-289.5 -40q-195 0 -351.5 61.5t-259 172t-157 262t-54.5 332.5q0 179 54.5 329.5t157 260t259 170.5t351.5 61zM883 174q-398 0 -398 248q0 84 60.5 135.5t193.5 69.5v16q-107 23 -160.5 72t-52.5 135q0 237 357 237q358 0 358 -237q0 -87 -53 -135.5t-160 -71.5v-16
q133 -18 193.5 -69.5t60.5 -135.5q0 -248 -399 -248z" />
    <glyph glyph-name="uni2788" unicode="&#x2788;" horiz-adv-x="1771" 
d="M870 635q109 0 164.5 43t55.5 110q0 65 -54 106.5t-155 41.5t-150 -44t-49 -114q0 -69 48 -106t140 -37zM885 -33q159 0 283 49t202.5 137.5t119 208.5t40.5 265q0 144 -40.5 263t-119.5 206.5t-202.5 135.5t-282.5 48q-158 0 -281.5 -48t-202.5 -135.5t-120 -206.5
t-41 -263q0 -145 40.5 -265t119 -208.5t202.5 -137.5t283 -49zM885 1448q195 0 351.5 -61t258.5 -170.5t156.5 -260t54.5 -329.5q0 -144 -34 -270.5t-102 -229t-165.5 -175.5t-230 -113t-289.5 -40q-195 0 -351.5 61.5t-259 172t-157 262t-54.5 332.5q0 179 54.5 329.5
t157 260t259 170.5t351.5 61zM877 174q-182 0 -271 67.5t-112 194.5l180 31q29 -143 207 -143q124 0 177.5 85t53.5 273v6l-18 2q-72 -166 -291 -166q-137 0 -220 62.5t-83 195.5q0 142 98 223.5t281 81.5q96 0 168.5 -22.5t128 -72.5t84 -137.5t28.5 -209.5
q0 -102 -23.5 -185.5t-71 -148.5t-128 -101t-188.5 -36z" />
    <glyph glyph-name="uni2789" unicode="&#x2789;" horiz-adv-x="1763" 
d="M819 207h-393v133h147v573q-57 -31 -129 -59l-45 123l238 72h78v-709h104v-133zM1106 930q-129 0 -129 -301q0 -307 127 -307q129 0 129 307q0 301 -127 301zM1106 1067q131 0 201.5 -113t70.5 -325q0 -213 -70 -327t-202 -114t-203.5 114.5t-71.5 326.5
q0 211 72.5 324.5t202.5 113.5zM885 -33q159 0 283 49t202.5 137.5t119 208.5t40.5 265q0 144 -40.5 263t-119.5 206.5t-202.5 135.5t-282.5 48q-158 0 -281.5 -48t-202.5 -135.5t-120 -206.5t-41 -263q0 -145 40.5 -265t119 -208.5t202.5 -137.5t283 -49zM885 1448
q195 0 351.5 -61t258.5 -170.5t156.5 -260t54.5 -329.5q0 -144 -34 -270.5t-102 -229t-165.5 -175.5t-230 -113t-289.5 -40q-195 0 -351.5 61.5t-259 172t-157 262t-54.5 332.5q0 179 54.5 329.5t157 260t259 170.5t351.5 61z" />
    <glyph glyph-name="uni278A" unicode="&#x278a;" horiz-adv-x="1771" 
d="M575 344v-156h629v156h-196v725h-105l-356 -106l61 -148q152 54 217 86v-557h-250zM885 1448q195 0 351.5 -61t258.5 -170.5t156.5 -260t54.5 -329.5q0 -144 -34 -270.5t-102 -229t-165.5 -175.5t-230 -113t-289.5 -40q-195 0 -351.5 61.5t-259 172t-157 262t-54.5 332.5
q0 179 54.5 329.5t157 260t259 170.5t351.5 61z" />
    <glyph glyph-name="uni278B" unicode="&#x278b;" horiz-adv-x="1771" 
d="M897 942q170 0 170 -125q0 -66 -55 -103.5t-224 -82.5q-115 -28 -183.5 -68t-104 -105.5t-35.5 -164.5q0 -32 4 -98h791v155h-316q-159 0 -313 -14q6 71 57.5 106.5t192.5 69.5q179 38 275.5 108.5t96.5 190.5q0 142 -91.5 212.5t-264.5 70.5q-347 0 -403 -334l178 -23
q20 101 72.5 153t152.5 52zM885 1448q195 0 351.5 -61t258.5 -170.5t156.5 -260t54.5 -329.5q0 -144 -34 -270.5t-102 -229t-165.5 -175.5t-230 -113t-289.5 -40q-195 0 -351.5 61.5t-259 172t-157 262t-54.5 332.5q0 179 54.5 329.5t157 260t259 170.5t351.5 61z" />
    <glyph glyph-name="uni278C" unicode="&#x278c;" horiz-adv-x="1771" 
d="M885 174q196 0 289.5 67t93.5 183q0 95 -55.5 141t-198.5 58v18q107 21 161 70.5t54 136.5q0 118 -83 176.5t-261 58.5q-171 0 -262 -75t-117 -217l176 -17q20 84 64.5 124t140.5 40q87 0 126.5 -31t39.5 -96q0 -119 -154 -119h-158v-127h160q102 0 141 -29t39 -92
q0 -127 -194 -127q-108 0 -159 41t-73 125l-184 -22q27 -149 129.5 -218t284.5 -69zM885 1448q195 0 351.5 -61t258.5 -170.5t156.5 -260t54.5 -329.5q0 -144 -34 -270.5t-102 -229t-165.5 -175.5t-230 -113t-289.5 -40q-195 0 -351.5 61.5t-259 172t-157 262t-54.5 332.5
q0 179 54.5 329.5t157 260t259 170.5t351.5 61z" />
    <glyph glyph-name="uni278D" unicode="&#x278d;" horiz-adv-x="1771" 
d="M1257 393v144h-129v534h-229l-493 -551v-127h538v-203h184v203h129zM858 537q-75 0 -266 -17l-12 15l352 393l12 -4v-387h-86zM885 1448q195 0 351.5 -61t258.5 -170.5t156.5 -260t54.5 -329.5q0 -144 -34 -270.5t-102 -229t-165.5 -175.5t-230 -113t-289.5 -40
q-195 0 -351.5 61.5t-259 172t-157 262t-54.5 332.5q0 179 54.5 329.5t157 260t259 170.5t351.5 61z" />
    <glyph glyph-name="uni278E" unicode="&#x278e;" horiz-adv-x="1771" 
d="M893 317q-96 0 -152.5 37.5t-91.5 104.5l-176 -51q50 -120 149.5 -177t266.5 -57q383 0 383 287q0 124 -82 195t-238 71q-146 0 -252 -65v260q241 -19 519 -19v166h-682v-469l145 -53q83 51 211 51q192 0 192 -137q0 -70 -44 -107t-148 -37zM885 1448q195 0 351.5 -61
t258.5 -170.5t156.5 -260t54.5 -329.5q0 -144 -34 -270.5t-102 -229t-165.5 -175.5t-230 -113t-289.5 -40q-195 0 -351.5 61.5t-259 172t-157 262t-54.5 332.5q0 179 54.5 329.5t157 260t259 170.5t351.5 61z" />
    <glyph glyph-name="uni278F" unicode="&#x278f;" horiz-adv-x="1771" 
d="M1272 475q0 129 -83 189.5t-220 60.5q-233 0 -295 -164l-23 4q1 204 56 289.5t184 85.5q85 0 124.5 -36t55.5 -113l180 20q-10 69 -31.5 118t-62 86.5t-105.5 56t-157 18.5q-110 0 -192 -36t-131 -101.5t-73 -149t-24 -185.5q0 -122 29 -209.5t85 -137.5t128.5 -72.5
t167.5 -22.5q191 0 289 78t98 221zM899 614q99 0 143.5 -34.5t44.5 -102.5q0 -71 -45 -111t-153 -40q-105 0 -160 40.5t-55 104.5q0 63 55.5 103t169.5 40zM885 1448q195 0 351.5 -61t258.5 -170.5t156.5 -260t54.5 -329.5q0 -144 -34 -270.5t-102 -229t-165.5 -175.5
t-230 -113t-289.5 -40q-195 0 -351.5 61.5t-259 172t-157 262t-54.5 332.5q0 179 54.5 329.5t157 260t259 170.5t351.5 61z" />
    <glyph glyph-name="uni2790" unicode="&#x2790;" horiz-adv-x="1771" 
d="M492 905h286q142 0 342 17q-174 -144 -277 -333.5t-116 -402.5h211q25 430 334 719v162h-780v-162zM885 1448q195 0 351.5 -61t258.5 -170.5t156.5 -260t54.5 -329.5q0 -144 -34 -270.5t-102 -229t-165.5 -175.5t-230 -113t-289.5 -40q-195 0 -351.5 61.5t-259 172
t-157 262t-54.5 332.5q0 179 54.5 329.5t157 260t259 170.5t351.5 61z" />
    <glyph glyph-name="uni2791" unicode="&#x2791;" horiz-adv-x="1771" 
d="M883 174q399 0 399 248q0 85 -60 136t-194 69v18q106 21 159.5 70t53.5 135q0 237 -358 237q-354 0 -357 -237q0 -86 53.5 -135t159.5 -70v-18q-134 -18 -194 -69t-60 -136q0 -248 398 -248zM883 940q94 0 136 -30.5t42 -92.5q0 -124 -178 -127q-178 3 -178 127
q0 123 178 123zM883 569q118 0 164.5 -33.5t46.5 -91.5q0 -127 -211 -127q-209 0 -209 127q0 125 209 125zM885 1448q195 0 351.5 -61t258.5 -170.5t156.5 -260t54.5 -329.5q0 -144 -34 -270.5t-102 -229t-165.5 -175.5t-230 -113t-289.5 -40q-195 0 -351.5 61.5t-259 172
t-157 262t-54.5 332.5q0 179 54.5 329.5t157 260t259 170.5t351.5 61z" />
    <glyph glyph-name="uni2792" unicode="&#x2792;" horiz-adv-x="1771" 
d="M1288 645q0 122 -28.5 209.5t-84 137.5t-128 72.5t-168.5 22.5q-183 0 -281 -82t-98 -223q0 -133 83 -195.5t220 -62.5q217 0 289 166l20 -2q-2 -196 -53.5 -280t-177.5 -84q-178 0 -207 143l-180 -31q23 -127 112 -194.5t271 -67.5q108 0 188.5 36t128 101t71 148.5
t23.5 185.5zM870 635q-92 0 -140 37t-48 106q0 70 49 114t150 44q102 0 155.5 -42t53.5 -108t-56 -108.5t-164 -42.5zM885 1448q195 0 351.5 -61t258.5 -170.5t156.5 -260t54.5 -329.5q0 -144 -34 -270.5t-102 -229t-165.5 -175.5t-230 -113t-289.5 -40q-195 0 -351.5 61.5
t-259 172t-157 262t-54.5 332.5q0 179 54.5 329.5t157 260t259 170.5t351.5 61z" />
    <glyph glyph-name="uni2793" unicode="&#x2793;" horiz-adv-x="1763" 
d="M1106 1067q-130 0 -201 -113.5t-71 -324.5q0 -213 70 -327t202 -114t202 114t70 327q0 212 -70.5 325t-201.5 113zM416 340v-133h393v133h-104v709h-78l-238 -72l45 -123q76 26 129 53v-567h-147zM1106 930q127 0 127 -301q0 -307 -127 -307t-127 307q0 301 127 301z
M885 1448q195 0 351.5 -61t258.5 -170.5t156.5 -260t54.5 -329.5q0 -144 -34 -270.5t-102 -229t-165.5 -175.5t-230 -113t-289.5 -40q-195 0 -351.5 61.5t-259 172t-157 262t-54.5 332.5q0 179 54.5 329.5t157 260t259 170.5t351.5 61z" />
    <glyph glyph-name="uni279A" unicode="&#x279a;" horiz-adv-x="1843" 
d="M1303 739v-739h-1076v1075h758v-6l-154 -160q-123 0 -442 13q12 -238 12 -357q0 -133 -12 -403q228 10 404 10q118 0 356 -8q-10 333 -10 397l159 178h5zM1593 1382l39 -39v-765h-176q8 273 49 565l-14 8q-274 -307 -543 -576l-241 -239l-123 123l239 241
q218 218 580 541l-6 12q-232 -37 -549 -47v176h745z" />
    <glyph glyph-name="uni2B1B" unicode="&#x2b1b;" horiz-adv-x="1843" 
d="M1489 0h-1133v1133h1133v-1133z" />
    <glyph glyph-name="uni2B1C" unicode="&#x2b1c;" horiz-adv-x="1843" 
d="M1489 0h-1133v1133h1133v-1133zM924 166q179 0 411 -10q-12 206 -12 411q0 206 12 412q-278 -12 -411 -12q-134 0 -412 12q10 -232 10 -412q0 -183 -10 -411q232 10 412 10z" />
    <glyph glyph-name="commaaccent" unicode="&#xf6c3;" horiz-adv-x="364" 
d="M23 -109h176l-176 -313h-140l2 19z" />
    <glyph glyph-name="uniF8FF" unicode="&#xf8ff;" horiz-adv-x="2635" 
d="M1942 16q-13 -30 -123 -30l-50 2q9 212 13 508.5t8 406.5q-52 -160 -110.5 -387t-93.5 -364.5t-48 -147.5q-14 -12 -43 -12q-13 0 -50.5 5t-64.5 7q4 127 4 420q-63 2 -190 2q2 -51 2 -164q0 -244 -20 -256q-12 -10 -54 -10q-22 0 -59 3t-45 3h-6q14 232 14 422
q-30 0 -84 -1t-78 -1v-92q0 -57 1 -146.5t1 -111.5q0 -37 -2 -41q-10 -26 -39 -33.5t-123 -9.5q-2 59 -2 162q0 71 5 266q-114 -4 -132 -4q-54 -92 -120 -214.5t-95 -193.5q-14 4 -45 4q-20 0 -41.5 -2.5t-33.5 -5.5l-11 -2q-5 51 -32 102q-8 16 -98 156t-95 160
q-4 16 -4 24q0 34 27 90q-11 22 -11 50q0 35 17 98q12 38 47.5 121.5t93 213t92.5 212.5q68 0 144 20q90 -231 180 -667q10 -1 121 -5v25q0 41 -1 160t-1 182q0 239 16 262q16 29 147 31q-6 -123 -6 -236q0 -70 2 -191t2 -171v-64q25 0 78 -1t80 -1q0 183 -3 357.5t-3 185.5
q0 52 4 69.5t16 26.5q16 13 78 13h64q0 -27 -1 -78.5t-1 -75.5q0 -168 10 -496q114 3 194 9q0 53 -1 149.5t-1 138.5q0 321 17 344q20 29 86 29q14 0 40.5 -2t35.5 -2q-17 -121 -17 -541v-164q203 673 250 697q16 8 61 8l95 -6q-6 -147 -6 -350q0 -132 3 -370.5t3 -315.5
q0 -166 -8 -179zM2359 948q-24 -71 -68.5 -181t-71 -181.5t-26.5 -96.5v-4q2 -29 70 -141.5t80 -140.5q29 68 59 143t45 116l15 40q-23 127 -60.5 273.5t-42.5 172.5zM143 520q0 -16 24.5 -60.5t64.5 -116t65 -128.5q24 63 58 136.5t52.5 115.5t18.5 61v4q-1 23 -36 178.5
t-60 252.5q-187 -404 -187 -443zM2292 1245q24 -12 57 -12q40 0 61 24q149 -474 226 -763q-187 -488 -246 -500q-6 -2 -18 -2q-46 0 -136 37q-1 35 -23 87.5t-45 91t-58.5 94.5t-43.5 69q-22 40 -22 61q0 12 4.5 21.5t12.5 18.5t10 13q6 9 6 21q0 28 -35 37q187 458 250 702
z" />
    <glyph glyph-name="fi" unicode="&#xfb01;" horiz-adv-x="1181" 
d="M508 1012l-8 -49h264l-31 -179h-266l-137 -784h-221l139 784h-160l33 179h158l10 53q28 153 123 240t262 87q86 0 164 -16l-37 -158q-75 11 -115 11q-148 0 -178 -168zM967 0h-219l167 963h222zM1176 1126h-240l33 179h239z" />
    <glyph glyph-name="fl" unicode="&#xfb02;" horiz-adv-x="1167" 
d="M508 1012l-8 -49h264l-31 -179h-266l-137 -784h-221l139 784h-160l33 179h158l10 53q28 153 123 240t262 87q86 0 164 -16l-37 -158q-75 11 -115 11q-148 0 -178 -168zM1194 1315l-231 -1315h-220l232 1315h219z" />
    <glyph glyph-name="exclamdown.case" horiz-adv-x="497" 
d="M178 784h223l-137 -784h-223zM453 979h-256l45 250h256z" />
    <glyph glyph-name="questiondown.case" horiz-adv-x="1003" 
d="M344 668q112 45 127 139q4 12 4 22h213l-6 -36q-18 -94 -68 -153t-157 -105q-108 -47 -150 -83.5t-55 -103.5q-15 -84 34 -132t156 -48q122 0 196 75.5t118 217.5l211 -41q-133 -443 -543 -443q-221 0 -326 100t-73 277q12 66 40.5 117t74.5 87.5t92 60.5t112 49z
M737 979h-256l45 250h256z" />
    <glyph glyph-name="periodcentered.case" horiz-adv-x="434" 
d="M131 748h256l-43 -250h-256z" />
    <glyph glyph-name="bullet.case" horiz-adv-x="569" 
d="M156 815h385l-66 -375h-385z" />
    <glyph glyph-name="guillemotleft.case" horiz-adv-x="1290" 
d="M649 170h-213l-393 444l4 33l541 445h223l-4 -27l-531 -440v-4l377 -426zM1171 170h-213l-393 444l4 33l541 445h223l-4 -27l-530 -440v-4l377 -426z" />
    <glyph glyph-name="guillemotright.case" horiz-adv-x="1290" 
d="M713 164h-224l7 26l528 437v8l-375 426l4 24h211l396 -444l-7 -33zM190 164h-223l6 26l529 437v8l-375 426l4 24h211l395 -444l-6 -33z" />
    <glyph glyph-name="guilsinglleft.case" horiz-adv-x="772" 
d="M649 172h-213l-393 444l4 33l541 445h223l-4 -27l-531 -440v-4l377 -426z" />
    <glyph glyph-name="guilsinglright.case" horiz-adv-x="768" 
d="M207 162h-223l4 26l530 441v4l-377 426l4 24h213l396 -444l-6 -33z" />
    <glyph glyph-name="hyphen.case" horiz-adv-x="716" 
d="M78 727h635l-35 -207h-637z" />
    <glyph glyph-name="endash.case" horiz-adv-x="974" 
d="M80 727h893l-35 -203h-893z" />
    <glyph glyph-name="emdash.case" horiz-adv-x="1761" 
d="M80 727h1679l-35 -203h-1679z" />
    <glyph glyph-name="parenleft.case" horiz-adv-x="692" 
d="M137 657q41 234 164 433t352 385l119 -125q-188 -175 -284.5 -347t-131.5 -378q-42 -203 -7.5 -393t159.5 -367l-158 -109q-160 188 -209 419.5t-4 481.5z" />
    <glyph glyph-name="parenright.case" horiz-adv-x="688" 
d="M575 580q-41 -234 -164 -433t-352 -385l-120 125q188 175 284.5 347t132.5 378q24 141 21 266.5t-45.5 250t-126.5 243.5l157 109q158 -188 207.5 -419.5t5.5 -481.5z" />
    <glyph glyph-name="bracketleft.case" horiz-adv-x="620" 
d="M2 -178l279 1585h458l-30 -184h-238l-213 -1205h238l-35 -196h-459z" />
    <glyph glyph-name="bracketright.case" horiz-adv-x="620" 
d="M-68 -168l33 184h238l211 1205h-236l33 196h461l-281 -1585h-459z" />
    <glyph glyph-name="braceleft.case" horiz-adv-x="755" 
d="M580 -221q-129 -6 -162 -6q-171 0 -245 63t-54 172q8 47 33.5 91t57 78.5t63 67t56 70t31.5 74.5q11 64 -29.5 95.5t-142.5 31.5h-141l33 191h141q93 0 153 33.5t72 101.5q7 38 -3.5 77.5t-30 75.5t-38 73t-28.5 83t-2 92q18 100 110 154.5t259 54.5q101 0 166 -6
l-33 -184q-41 2 -109 2q-83 0 -124 -25t-50 -76q-6 -34 7.5 -77t32 -79t30 -86.5t2.5 -97.5q-15 -86 -90.5 -134t-216.5 -66l-4 -21q144 -13 198 -63t39 -142q-8 -48 -38.5 -97.5t-62 -84t-60.5 -76.5t-35 -76q-8 -50 24 -76t113 -26q28 0 110 4z" />
    <glyph glyph-name="braceright.case" horiz-adv-x="755" 
d="M219 1462q129 6 164 6q169 0 243 -63t56 -172q-9 -47 -35 -91t-57.5 -78.5t-63.5 -67.5t-56.5 -70.5t-31.5 -75.5q-11 -63 30 -94t142 -31h144l-33 -190h-143q-92 0 -152 -34t-72 -102q-7 -38 4 -77.5t30 -75.5t38 -73t29 -83t2 -92q-18 -101 -110.5 -155t-260.5 -54
q-101 0 -166 6l35 185q59 -3 108 -3q158 0 173 101q6 34 -7 77t-31.5 79t-30 86.5t-3.5 97.5q15 86 90.5 134t216.5 66l4 21q-144 13 -198 63t-39 142q9 48 39.5 97.5t62 84t60 76.5t34.5 76q9 49 -23 75.5t-114 26.5q-27 0 -109 -4z" />
    <glyph glyph-name="zero.osf" horiz-adv-x="1167" 
d="M651 909q-143 0 -229 -96t-115 -260q-33 -183 24 -284t212 -101q280 0 344 358q31 174 -26.5 278.5t-209.5 104.5zM666 1106q261 0 380 -159.5t68 -446.5q-44 -250 -196.5 -388.5t-389.5 -138.5q-264 0 -381.5 160.5t-66.5 444.5q42 252 197.5 390t388.5 138z" />
    <glyph glyph-name="one.osf" horiz-adv-x="937" 
d="M795 0h-797l33 186h321l127 713q-87 -47 -313 -133l-45 176l463 141h149l-158 -897h252z" />
    <glyph glyph-name="two.osf" horiz-adv-x="1155" 
d="M676 920q-125 0 -202 -70.5t-116 -214.5l-206 31q111 439 548 436q222 0 329 -99t75 -278q-9 -53 -35.5 -95t-65.5 -73.5t-102 -59t-133 -48.5t-172 -46q-219 -52 -294 -95.5t-93 -135.5q214 25 485 25h324l-35 -197h-987q6 57 18 127t38 123.5t63.5 93t96 72t124.5 56.5
t160 50q153 41 230.5 72t110.5 63t42 82q14 83 -36.5 132t-166.5 49z" />
    <glyph glyph-name="three.osf" horiz-adv-x="1157" 
d="M543 -162q-256 0 -377.5 100.5t-124.5 305.5l223 26q3 -124 68.5 -185.5t216.5 -61.5q123 0 194 48t86 136q16 98 -29 142t-184 44h-208l28 164h205q209 0 240 170q17 98 -32.5 146.5t-168.5 48.5q-121 0 -188.5 -58t-110.5 -176l-209 31q116 389 530 389
q229 0 329 -94.5t67 -272.5q-35 -204 -316 -252l-4 -24q178 -20 238.5 -90t36.5 -205q-29 -157 -155.5 -244.5t-354.5 -87.5z" />
    <glyph glyph-name="four.osf" horiz-adv-x="1187" 
d="M1118 141h-170l-51 -286h-223l51 286h-709l29 166l791 776h278l-135 -759h172zM641 324h117l100 567l-16 6l-580 -580l8 -16q188 23 371 23z" />
    <glyph glyph-name="five.osf" horiz-adv-x="1169" 
d="M551 16q247 0 278 199q18 110 -36.5 166.5t-190.5 56.5q-163 0 -283 -76l-169 70l114 651h879l-37 -211q-343 0 -672 25l-67 -377q136 82 313 82q217 0 311 -110t62 -299q-63 -359 -510 -359q-216 0 -347.5 87t-168.5 253l217 55q56 -213 307 -213z" />
    <glyph glyph-name="six.osf" horiz-adv-x="1173" 
d="M629 602q-147 0 -228 -55.5t-96 -143.5q-18 -99 47 -167t205 -68q257 0 295 209q19 107 -36 166t-187 59zM1073 352q-31 -179 -165 -277t-351 -98q-88 0 -159 15t-131 48.5t-99.5 87t-63.5 129t-23 175.5t21 227q23 131 69.5 236t119.5 186t180.5 125.5t241.5 44.5
q222 0 324 -103t104 -286l-226 -24q-8 110 -59 166.5t-162 56.5q-165 0 -257 -118t-138 -382q-1 -5 -10 -65l20 -4q118 253 420 253q87 0 156 -22.5t118.5 -68t68.5 -123t1 -179.5z" />
    <glyph glyph-name="seven.osf" horiz-adv-x="1079" 
d="M125 877l37 206h1012l-37 -206q-481 -417 -623 -1022h-270q71 300 255.5 569.5t452.5 472.5q-208 -20 -407 -20h-420z" />
    <glyph glyph-name="eight.osf" horiz-adv-x="1169" 
d="M522 -23q-276 0 -390.5 98t-86.5 267q41 222 375 268l4 25q-261 65 -217 311q56 305 491 305q243 0 346.5 -94.5t71.5 -267.5q-35 -203 -319 -258l-4 -23q319 -52 272 -313q-26 -151 -158.5 -234.5t-384.5 -83.5zM592 537q-282 0 -316 -183q-15 -91 49.5 -140.5
t209.5 -49.5q277 0 309 178q10 39 0 74.5t-34.5 62t-80 42.5t-137.5 16zM680 1063q-235 0 -266 -180q-18 -98 37.5 -144.5t169.5 -46.5t185.5 45t88.5 140q15 92 -36.5 139t-178.5 47z" />
    <glyph glyph-name="nine.osf" horiz-adv-x="1165" 
d="M569 473q142 0 226.5 59.5t99.5 147.5q20 104 -46.5 172t-209.5 68q-131 0 -202 -57.5t-87 -153.5q-22 -113 36 -174.5t183 -61.5zM483 -164q-235 0 -340 93t-116 266l217 43q9 -106 69 -158.5t185 -52.5q165 0 260 121.5t141 383.5q5 33 8 46l-24 4q-123 -250 -414 -250
q-86 0 -155.5 24.5t-118 72.5t-67.5 125.5t-1 176.5q33 179 167 279t359 100q87 0 157 -14.5t129 -47t97.5 -84t62.5 -125t23 -170.5t-20 -220q-23 -135 -68.5 -242.5t-118.5 -192.5t-183 -131.5t-249 -46.5z" />
    <glyph glyph-name="zero.tf" horiz-adv-x="1224" 
d="M709 1053q-151 0 -245 -112t-130 -316q-22 -138 -8.5 -238t74 -156.5t163.5 -56.5q151 0 244.5 115.5t130.5 322.5q38 210 -18.5 325.5t-210.5 115.5zM723 1255q261 0 379 -178t63 -495q-51 -288 -212.5 -448.5t-405.5 -160.5q-262 0 -378.5 180.5t-59.5 497.5
q51 286 214 445t400 159z" />
    <glyph glyph-name="one.tf" horiz-adv-x="1249" 
d="M1038 0h-991l35 199h432l145 819q-176 -90 -403 -168l-53 199l588 180h129l-183 -1030h336z" />
    <glyph glyph-name="two.tf" horiz-adv-x="1249" 
d="M752 1061q-130 0 -211.5 -77.5t-128.5 -235.5l-213 38q65 226 202 346.5t367 120.5q231 0 340 -109.5t74 -309.5q-11 -65 -44 -119.5t-80 -94t-115.5 -73t-141.5 -57.5t-168 -46q-198 -51 -274.5 -104.5t-102.5 -161.5q205 21 387 21h440l-34 -199h-1022q3 34 16 125
q18 104 55.5 179.5t101 131t146.5 93t203 69.5q229 61 311.5 113.5t97.5 144.5q16 94 -35 149.5t-171 55.5z" />
    <glyph glyph-name="three.tf" horiz-adv-x="1249" 
d="M596 -20q-257 0 -378 100t-124 305l223 27q3 -124 68.5 -186t216.5 -62q123 0 194.5 48t86.5 136q16 99 -29 143t-184 44h-209l28 163h205q209 0 240 170q17 98 -32.5 146.5t-168.5 48.5q-121 0 -188.5 -58t-110.5 -176l-209 31q116 389 531 389q229 0 328.5 -94
t66.5 -272q-35 -204 -315 -252l-5 -25q178 -20 238.5 -90t36.5 -205q-29 -157 -155 -244t-355 -87z" />
    <glyph glyph-name="four.tf" horiz-adv-x="1212" 
d="M1122 287h-170l-51 -287h-223l51 287h-709l29 166l791 776h278l-135 -760h172zM645 469h117l100 567l-16 6l-580 -579l8 -17q188 23 371 23z" />
    <glyph glyph-name="five.tf" horiz-adv-x="1249" 
d="M594 162q129 0 196 50t82 148q18 110 -36.5 167t-190.5 57q-163 0 -283 -76l-169 70l114 651h879l-37 -211q-356 0 -672 24l-67 -376q136 82 313 82q217 0 311 -110.5t62 -299.5q-63 -358 -510 -358q-216 0 -347.5 86.5t-168.5 252.5l217 56q56 -213 307 -213z" />
    <glyph glyph-name="six.tf" horiz-adv-x="1249" 
d="M670 602q-147 0 -228 -55.5t-96 -143.5q-18 -99 47 -167t205 -68q257 0 295 209q19 107 -36 166t-187 59zM1114 352q-31 -179 -165 -277t-351 -98q-88 0 -159 15t-131 48.5t-99.5 87t-63.5 129t-23 175.5t21 227q23 131 69.5 236t119.5 186t180.5 125.5t241.5 44.5
q222 0 324 -103t104 -286l-226 -24q-8 110 -59 166.5t-162 56.5q-165 0 -257 -118t-138 -382q-1 -5 -10 -65l20 -4q118 253 420 253q87 0 156 -22.5t118.5 -68t68.5 -123t1 -179.5z" />
    <glyph glyph-name="seven.tf" horiz-adv-x="1249" 
d="M217 1022l37 207h1012l-37 -207q-481 -417 -623 -1022h-270q71 300 255.5 569.5t452.5 472.5q-208 -20 -407 -20h-420z" />
    <glyph glyph-name="eight.tf" horiz-adv-x="1249" 
d="M563 -23q-276 0 -390.5 98t-86.5 267q41 222 375 268l4 25q-261 65 -217 311q56 305 491 305q243 0 346.5 -94.5t71.5 -267.5q-35 -203 -319 -258l-4 -23q319 -52 272 -313q-26 -151 -158.5 -234.5t-384.5 -83.5zM633 537q-282 0 -316 -183q-15 -91 49 -140.5t209 -49.5
q278 0 310 178q10 39 0 74.5t-34.5 62t-80 42.5t-137.5 16zM721 1063q-235 0 -266 -180q-18 -98 37.5 -144.5t169.5 -46.5t185.5 45t88.5 140q15 92 -36.5 139t-178.5 47z" />
    <glyph glyph-name="nine.tf" horiz-adv-x="1249" 
d="M618 614q142 0 226.5 59.5t99.5 147.5q20 104 -46.5 172t-209.5 68q-131 0 -202 -57.5t-87 -153.5q-22 -113 36 -174.5t183 -61.5zM532 -23q-235 0 -340 93t-116 266l217 43q9 -106 69 -158.5t185 -52.5q165 0 260 121.5t141 384.5q4 30 8 45l-24 4q-123 -250 -414 -250
q-86 0 -155.5 24.5t-118 72.5t-67.5 125.5t-1 176.5q33 179 167 279t359 100q87 0 157 -14.5t129 -47t97.5 -84t62.5 -125t23 -170.5t-20 -220q-23 -135 -68.5 -242.5t-118.5 -192.5t-183 -131.5t-249 -46.5z" />
    <glyph glyph-name="zero.tosf" horiz-adv-x="1243" 
d="M686 909q-143 0 -229 -96t-115 -260q-33 -183 24 -284t212 -101q280 0 344 358q31 174 -26.5 278.5t-209.5 104.5zM700 1106q261 0 380.5 -159.5t68.5 -446.5q-44 -250 -196.5 -388.5t-389.5 -138.5q-264 0 -381.5 160.5t-66.5 444.5q42 252 197 390t388 138z" />
    <glyph glyph-name="one.tosf" horiz-adv-x="1249" 
d="M1040 0h-993l33 186h442l125 711q-181 -88 -424 -158l-37 189l568 155h149l-160 -897h330z" />
    <glyph glyph-name="two.tosf" horiz-adv-x="1249" 
d="M723 920q-125 0 -201.5 -70.5t-115.5 -214.5l-207 31q111 439 549 436q222 0 328.5 -99t74.5 -278q-9 -53 -35.5 -95t-65.5 -73.5t-102 -59t-133 -48.5t-172 -46q-219 -52 -294 -95.5t-93 -135.5q214 25 485 25h324l-35 -197h-987q6 57 18 127t38 123.5t63.5 93t96 72
t124.5 56.5t160 50q153 41 230.5 72t110.5 63t42 82q14 83 -36.5 132t-166.5 49z" />
    <glyph glyph-name="three.tosf" horiz-adv-x="1249" 
d="M596 -162q-256 0 -377.5 100.5t-124.5 305.5l223 26q3 -124 68.5 -185.5t216.5 -61.5q123 0 194.5 48t86.5 136q16 98 -29 142t-184 44h-209l28 164h205q209 0 240 170q17 98 -32.5 146.5t-168.5 48.5q-121 0 -188.5 -58t-110.5 -176l-209 31q116 389 531 389
q228 0 328 -94.5t67 -272.5q-35 -204 -315 -252l-5 -24q178 -20 238.5 -90t36.5 -205q-29 -157 -155.5 -244.5t-354.5 -87.5z" />
    <glyph glyph-name="four.tosf" horiz-adv-x="1249" 
d="M1128 141h-170l-51 -286h-223l51 286h-708l28 166l791 776h278l-135 -759h172zM651 324h117l100 567l-16 6l-580 -580l9 -16q188 23 370 23z" />
    <glyph glyph-name="five.tosf" horiz-adv-x="1249" 
d="M586 16q247 0 278 199q18 110 -36.5 166.5t-190.5 56.5q-163 0 -283 -76l-170 70l115 651h879l-37 -211q-343 0 -672 25l-68 -377q136 82 314 82q217 0 310.5 -110t61.5 -299q-63 -359 -509 -359q-216 0 -348 87t-169 253l218 55q56 -213 307 -213z" />
    <glyph glyph-name="six.tosf" horiz-adv-x="1249" 
d="M670 602q-147 0 -228 -55.5t-96 -143.5q-18 -99 47 -167t205 -68q257 0 295 209q19 107 -36 166t-187 59zM1114 352q-31 -179 -165 -277t-351 -98q-88 0 -159 15t-131 48.5t-99.5 87t-63.5 129t-23 175.5t21 227q23 131 69.5 236t119.5 186t180.5 125.5t241.5 44.5
q222 0 324 -103t104 -286l-226 -24q-8 110 -59 166.5t-162 56.5q-165 0 -257 -118t-138 -382q-1 -5 -10 -65l20 -4q118 253 420 253q87 0 156 -22.5t118.5 -68t68.5 -123t1 -179.5z" />
    <glyph glyph-name="seven.tosf" horiz-adv-x="1249" 
d="M209 877l37 206h1011l-36 -206q-481 -417 -623 -1022h-270q71 300 255.5 569.5t452.5 472.5q-208 -20 -407 -20h-420z" />
    <glyph glyph-name="eight.tosf" horiz-adv-x="1249" 
d="M563 -23q-276 0 -390.5 98t-86.5 267q41 222 375 268l4 25q-261 65 -217 311q56 305 491 305q243 0 346.5 -94.5t71.5 -267.5q-35 -203 -319 -258l-4 -23q319 -52 272 -313q-26 -151 -158.5 -234.5t-384.5 -83.5zM633 537q-282 0 -316 -183q-15 -91 49 -140.5t209 -49.5
q278 0 310 178q10 39 0 74.5t-34.5 62t-80 42.5t-137.5 16zM721 1063q-235 0 -266 -180q-18 -98 37.5 -144.5t169.5 -46.5t185.5 45t88.5 140q15 92 -36.5 139t-178.5 47z" />
    <glyph glyph-name="nine.tosf" horiz-adv-x="1249" 
d="M604 473q142 0 226.5 59.5t99.5 147.5q20 104 -46.5 172t-209.5 68q-131 0 -202 -57.5t-87 -153.5q-22 -113 36 -174.5t183 -61.5zM518 -164q-235 0 -340.5 93t-116.5 266l218 43q9 -106 68.5 -158.5t184.5 -52.5q166 0 261 121.5t141 383.5q5 33 8 46l-24 4
q-123 -250 -414 -250q-86 0 -155.5 24.5t-118 72.5t-67.5 125.5t-1 176.5q33 179 167 279t359 100q87 0 157 -14.5t129 -47t97.5 -84t62.5 -125t23 -170.5t-20 -220q-23 -135 -68.5 -242.5t-118.5 -192.5t-183 -131.5t-249 -46.5z" />
    <glyph glyph-name="dollar.osf" horiz-adv-x="1040" 
d="M604 1319h156l-53 -240q151 -21 220.5 -97.5t82.5 -201.5l-226 -39q-9 93 -55.5 136t-148.5 43q-85 0 -136 -29t-61 -84q-10 -65 35 -107t186 -69q112 -22 187 -58t111.5 -82.5t48.5 -104.5t-3 -124q-21 -125 -129 -196.5t-305 -77.5l-33 -242h-155l55 248
q-344 39 -358 334l223 39q16 -211 258 -211q189 0 211 118q12 73 -38 113.5t-194 67.5q-204 43 -278.5 131t-50.5 229q22 125 128.5 195.5t290.5 74.5z" />
    <glyph glyph-name="sterling.osf" horiz-adv-x="1122" 
d="M967 0h-992l33 193h197q31 68 49 159q7 42 4 76h-205l21 121h172q-20 149 -2 254q24 135 135 218t295 83q87 0 154.5 -19.5t109.5 -51t70.5 -77.5t41 -91.5t17.5 -100.5l-211 -41q-10 100 -52.5 147.5t-144.5 47.5q-93 0 -144.5 -48t-63.5 -122t0 -199h467l-23 -121h-438
q0 -13 -4 -37q-16 -98 -91 -198h639z" />
    <glyph glyph-name="Euro.osf" horiz-adv-x="1220" 
d="M604 -27q-205 0 -319 108.5t-123 305.5h-144l19 98h125q8 70 14 107q0 2 1 7t1 7h-121l19 99h129q61 192 200 297.5t340 105.5q215 0 326.5 -112.5t114.5 -305.5l-207 -35q-8 136 -69.5 203.5t-188.5 67.5q-221 0 -307 -221h315l-18 -99h-326q-7 -26 -10 -47
q-8 -51 -10 -74h325l-18 -98h-310q15 -235 252 -235q128 0 202.5 67t129.5 213l197 -39q-130 -420 -539 -420z" />
    <glyph glyph-name="yen.osf" horiz-adv-x="1191" 
d="M1077 270h-401l-47 -270h-234l47 270h-403l22 121h379l-71 154h-281l23 125h200l-176 383l4 22h252l189 -547h38l383 547h259l-3 -22l-309 -383h199l-23 -125h-278l-125 -154h377z" />
    <glyph glyph-name="a.sc" horiz-adv-x="1128" 
d="M813 0l-47 264h-479l-140 -264h-239l608 1083h307l228 -1083h-238zM446 563l-71 -133h362l-22 133q-35 205 -49 328h-54q-72 -147 -166 -328z" />
    <glyph glyph-name="b.sc" 
d="M614 461h-276l-53 -295h297q91 0 144.5 35.5t64.5 97.5q14 82 -26 122t-151 40zM672 911h-256l-51 -297h247q190 0 215 146q12 77 -24 114t-131 37zM29 0l192 1083h479q202 0 288 -77t61 -226q-33 -183 -275 -229l-2 -14q145 -19 201.5 -84.5t34.5 -188.5
q-23 -124 -130.5 -194t-308.5 -70h-540z" />
    <glyph glyph-name="c.sc" horiz-adv-x="1185" 
d="M545 -25q-270 0 -394 165t-73 452q43 244 202.5 379t409.5 135q225 0 342.5 -112.5t122.5 -305.5l-221 -37q-8 132 -69.5 197t-194.5 65q-159 0 -251 -95t-122 -257q-33 -187 31.5 -290t228.5 -103q136 0 214 65t132 203l211 -39q-62 -208 -205.5 -315t-363.5 -107z" />
    <glyph glyph-name="d.sc" horiz-adv-x="1208" 
d="M625 899h-211l-125 -715h221q191 0 293 84t133 258q34 197 -39.5 285t-271.5 88zM29 0l192 1083h445q295 0 417 -150t74 -431q-43 -237 -210.5 -369.5t-428.5 -132.5h-489z" />
    <glyph glyph-name="e.sc" horiz-adv-x="1030" 
d="M29 0l192 1083h828l-35 -192h-602l-45 -260h546l-28 -164h-547l-47 -274h600l-35 -193h-827z" />
    <glyph glyph-name="f.sc" horiz-adv-x="962" 
d="M836 385h-512l-68 -385h-227l192 1083h791l-35 -202h-565l-56 -312h510z" />
    <glyph glyph-name="g.sc" horiz-adv-x="1218" 
d="M449 -20q-215 0 -321 157t-56 436q46 255 202.5 394t411.5 139q437 0 467 -375l-219 -41q-8 114 -70 168.5t-190 54.5q-167 0 -257 -90t-122 -268q-32 -183 32.5 -288t235.5 -105q209 0 295 127l8 16q26 44 35 96l2 15h-309l29 159h520l-101 -575h-208l43 240h-19
q-62 -118 -164 -189t-245 -71z" />
    <glyph glyph-name="h.sc" horiz-adv-x="1216" 
d="M1018 0h-227l77 440h-534l-78 -440h-227l192 1083h225l-77 -444h534l78 444h227z" />
    <glyph glyph-name="i.sc" horiz-adv-x="456" 
d="M256 0h-227l192 1083h225z" />
    <glyph glyph-name="j.sc" horiz-adv-x="595" 
d="M225 311l137 772h226l-137 -784q-58 -313 -363 -313q-57 0 -147 12l39 190q62 -10 102 -10q121 0 143 133z" />
    <glyph glyph-name="k.sc" horiz-adv-x="1091" 
d="M745 0l-319 422h-96l-74 -422h-227l192 1083h225l-84 -483h84l465 483h269l-2 -20l-572 -543l404 -500l-2 -20h-263z" />
    <glyph glyph-name="l.sc" horiz-adv-x="890" 
d="M221 1083h225l-157 -897h508l-33 -186h-735z" />
    <glyph glyph-name="m.sc" horiz-adv-x="1540" 
d="M328 487l-86 -487h-213l192 1083h369l90 -454q25 -128 45 -338h43q92 209 164 346l248 446h350l-191 -1083h-227l86 487q46 236 84 416h-37q-93 -203 -227 -454l-225 -388h-218l-83 394q-32 193 -62 448h-33q-16 -112 -69 -416z" />
    <glyph glyph-name="n.sc" horiz-adv-x="1230" 
d="M727 0l-195 473q-36 96 -116 418l-39 -4q-29 -287 -72 -529l-63 -358h-213l192 1083h324l170 -409q57 -152 127 -453l39 2q24 265 65 496l64 364h211l-191 -1083h-303z" />
    <glyph glyph-name="o.sc" horiz-adv-x="1249" 
d="M567 -25q-280 0 -409.5 167.5t-79.5 445.5q41 243 207 380.5t417 137.5q278 0 411 -164t85 -438q-45 -247 -210.5 -388t-420.5 -141zM582 168q330 0 393 356q31 179 -39.5 284t-247.5 105q-168 0 -265.5 -92.5t-127.5 -259.5q-32 -183 38.5 -288t248.5 -105z" />
    <glyph glyph-name="p.sc" horiz-adv-x="974" 
d="M625 895h-211l-64 -369h219q114 0 171.5 40.5t72.5 127.5q18 102 -26 151.5t-162 49.5zM586 344h-269l-61 -344h-227l190 1083h440q221 0 315 -106t58 -305q-26 -146 -143 -237t-303 -91z" />
    <glyph glyph-name="q.sc" horiz-adv-x="1251" 
d="M582 168q330 0 393 356q31 179 -39.5 284t-247.5 105q-168 0 -265.5 -92.5t-127.5 -259.5q-32 -183 38.5 -288t248.5 -105zM567 -25q-280 0 -409.5 167.5t-79.5 445.5q41 243 207 380.5t417 137.5q278 0 411 -164t85 -438q-26 -146 -96.5 -257t-179.5 -179l112 -218
l-4 -20h-239l-70 160q-71 -15 -154 -15z" />
    <glyph glyph-name="r.sc" horiz-adv-x="1126" 
d="M653 897h-239l-58 -332h242q112 0 168 37t70 117q15 92 -27 135t-156 43zM739 0l-204 397h-209l-70 -397h-227l192 1083h477q209 0 301 -96t60 -276q-40 -231 -293 -293l235 -398l-4 -20h-258z" />
    <glyph glyph-name="s.sc" horiz-adv-x="1075" 
d="M500 -25q-130 1 -222.5 28.5t-144.5 78t-76.5 111t-29.5 137.5l219 39q15 -213 268 -213q215 0 236 120q13 71 -41.5 113.5t-208.5 67.5q-214 34 -293 128.5t-53 241.5q24 135 140 207t322 72q112 0 193 -23.5t128 -69t70.5 -101t30.5 -128.5l-227 -39q-11 99 -56.5 143
t-158.5 44q-200 0 -221 -115q-6 -32 0.5 -56t30.5 -47.5t76.5 -42.5t135.5 -34q95 -17 164.5 -44.5t109.5 -62t63 -77t25 -88.5t-5 -97q-49 -293 -475 -293z" />
    <glyph glyph-name="t.sc" horiz-adv-x="976" 
d="M100 881l37 202h918l-37 -202h-346l-154 -881h-227l155 881h-346z" />
    <glyph glyph-name="u.sc" horiz-adv-x="1202" 
d="M565 172q134 0 199.5 65.5t87.5 192.5l117 653h225l-121 -688q-35 -203 -167.5 -310.5t-348.5 -107.5q-254 0 -371 123t-77 351l112 632h225l-112 -647q-12 -57 -5.5 -105.5t30 -83.5t76 -55t130.5 -20z" />
    <glyph glyph-name="v.sc" horiz-adv-x="1122" 
d="M629 0h-303l-228 1083h236l96 -563q41 -244 51 -327h49q63 129 166 327l299 563h240z" />
    <glyph glyph-name="w.sc" horiz-adv-x="1613" 
d="M692 455l-174 -455h-319l-97 1083h240l25 -485q8 -278 6 -408h51q87 260 147 408l203 485h289l29 -487q7 -218 4 -406h49q34 103 149 408l193 485h235l-473 -1083h-334l-14 455q-8 273 -6 442h-39q-36 -105 -164 -442z" />
    <glyph glyph-name="x.sc" horiz-adv-x="1071" 
d="M731 0l-188 442h-35l-332 -442h-244l5 20l446 535l-260 508l4 20h240l184 -432h41l317 432h244l-2 -20l-442 -533l264 -510l-4 -20h-238z" />
    <glyph glyph-name="y.sc" horiz-adv-x="1032" 
d="M545 0h-228l64 354l-295 709l4 20h240l174 -542h35l368 542h246l-2 -20l-545 -713z" />
    <glyph glyph-name="z.sc" 
d="M965 203l-37 -203h-946l34 188l777 697l-9 20q-230 -24 -356 -24h-270l35 202h921l-33 -186l-784 -700l6 -21q237 27 365 27h297z" />
    <glyph glyph-name="aacute.sc" horiz-adv-x="1128" 
d="M813 0l-47 264h-479l-140 -264h-239l608 1083h307l228 -1083h-238zM526 1167l-47 111l529 272l65 -155zM446 563l-71 -133h362l-22 133q-35 205 -49 328h-54q-72 -147 -166 -328z" />
    <glyph glyph-name="abreve.sc" horiz-adv-x="1128" 
d="M813 0l-47 264h-479l-140 -264h-239l608 1083h307l228 -1083h-238zM696 1343q78 0 131.5 41.5t79.5 141.5h111q-29 -169 -109 -248.5t-219 -79.5q-144 0 -212 82t-40 246h111q-18 -183 147 -183zM446 563l-71 -133h362l-22 133q-35 205 -49 328h-54q-72 -147 -166 -328z
" />
    <glyph glyph-name="acircumflex.sc" horiz-adv-x="1128" 
d="M813 0l-47 264h-479l-140 -264h-239l608 1083h307l228 -1083h-238zM909 1169l-198 199l-271 -199l-71 82l325 291h76l223 -291zM446 563l-71 -133h362l-22 133q-35 205 -49 328h-54q-72 -147 -166 -328z" />
    <glyph glyph-name="adieresis.sc" horiz-adv-x="1128" 
d="M813 0l-47 264h-479l-140 -264h-239l608 1083h307l228 -1083h-238zM424 1454h217l-37 -211h-217zM784 1454h217l-36 -211h-217zM446 563l-71 -133h362l-22 133q-35 205 -49 328h-54q-72 -147 -166 -328z" />
    <glyph glyph-name="agrave.sc" horiz-adv-x="1128" 
d="M813 0l-47 264h-479l-140 -264h-239l608 1083h307l228 -1083h-238zM838 1171l-467 226l94 157l430 -276zM446 563l-71 -133h362l-22 133q-35 205 -49 328h-54q-72 -147 -166 -328z" />
    <glyph glyph-name="amacron.sc" horiz-adv-x="1128" 
d="M813 0l-47 264h-479l-140 -264h-239l608 1083h307l228 -1083h-238zM428 1403h557l-29 -156h-555zM446 563l-71 -133h362l-22 133q-35 205 -49 328h-54q-72 -147 -166 -328z" />
    <glyph glyph-name="aogonek.sc" horiz-adv-x="1128" 
d="M993 -328q-78 -10 -129 -10q-115 0 -167 40.5t-38 115.5q23 127 230 182h-76l-47 264h-479l-140 -264h-239l608 1083h307l228 -1083h-4q-122 -22 -180.5 -51t-65.5 -74q-12 -68 102 -68q30 0 111 15zM446 563l-71 -133h362l-22 133q-35 205 -49 328h-54
q-72 -147 -166 -328z" />
    <glyph glyph-name="aring.sc" horiz-adv-x="1128" 
d="M813 0l-47 264h-479l-140 -264h-239l608 1083h307l228 -1083h-238zM594 1417q-9 -58 17.5 -91.5t82.5 -33.5q50 0 84 30t43 85q9 57 -17.5 90t-80.5 33q-52 0 -86 -29t-43 -84zM936 1393q-17 -98 -85.5 -153.5t-170.5 -55.5q-111 0 -166.5 68.5t-36.5 177.5
q19 99 86.5 154.5t169.5 55.5q112 0 167.5 -69.5t35.5 -177.5zM446 563l-71 -133h362l-22 133q-35 205 -49 328h-54q-72 -147 -166 -328z" />
    <glyph glyph-name="aringacute.sc" horiz-adv-x="1128" 
d="M526 1423l-18 111l530 182l31 -164zM627 1192q-7 -51 16.5 -80t73.5 -29q47 0 79.5 27t39.5 74q9 51 -15.5 79.5t-75.5 28.5q-46 0 -77.5 -26.5t-40.5 -73.5zM952 1174q-18 -110 -112 -166l211 -1008h-238l-47 264h-479l-140 -264h-239l608 1083h2q-18 50 -6 119
q15 91 82.5 145t165.5 54q106 0 158.5 -62t33.5 -165zM446 563l-71 -133h362l-22 133q-35 205 -49 328h-54q-72 -147 -166 -328z" />
    <glyph glyph-name="atilde.sc" horiz-adv-x="1128" 
d="M813 0l-47 264h-479l-140 -264h-239l608 1083h307l228 -1083h-238zM578 1544q45 0 79 -19.5t54.5 -47.5t38 -56t38 -47.5t46.5 -19.5q41 0 63.5 42.5t36.5 137.5h104q-2 -35 -10 -92q-21 -120 -73.5 -181t-127.5 -61q-35 0 -63.5 14t-46.5 35t-35.5 45.5t-31.5 45.5
t-34.5 35t-44.5 14q-42 0 -64 -39.5t-40 -137.5h-102q2 35 10 93q21 119 74 179t129 60zM446 563l-71 -133h362l-22 133q-35 205 -49 328h-54q-72 -147 -166 -328z" />
    <glyph glyph-name="ae.sc" horiz-adv-x="1611" 
d="M512 563l-98 -155h268l88 495h-57q-72 -135 -201 -340zM610 0l43 240h-348l-151 -240h-240l719 1083h997l-35 -192h-602l-45 -260h547l-29 -164h-546l-48 -274h601l-35 -193h-828z" />
    <glyph glyph-name="aeacute.sc" horiz-adv-x="1611" 
d="M893 1161l-47 111l528 272l66 -155zM610 0l43 240h-348l-151 -240h-240l719 1083h997l-35 -192h-602l-45 -260h547l-29 -164h-546l-48 -274h601l-35 -193h-828zM512 563l-98 -155h268l88 495h-57q-72 -135 -201 -340z" />
    <glyph glyph-name="cacute.sc" horiz-adv-x="1185" 
d="M545 -25q-270 0 -394 165t-73 452q43 244 202.5 379t409.5 135q225 0 342.5 -112.5t122.5 -305.5l-221 -37q-8 132 -69.5 197t-194.5 65q-159 0 -251 -95t-122 -257q-33 -187 31.5 -290t228.5 -103q136 0 214 65t132 203l211 -39q-62 -208 -205.5 -315t-363.5 -107z
M555 1190l-47 110l528 273l66 -156z" />
    <glyph glyph-name="ccaron.sc" horiz-adv-x="1185" 
d="M545 -25q-270 0 -394 165t-73 452q43 244 202.5 379t409.5 135q225 0 342.5 -112.5t122.5 -305.5l-221 -37q-8 132 -69.5 197t-194.5 65q-159 0 -251 -95t-122 -257q-33 -187 31.5 -290t228.5 -103q136 0 214 65t132 203l211 -39q-62 -208 -205.5 -315t-363.5 -107z
M737 1210h-78l-221 291l82 82l201 -199l270 199l72 -82z" />
    <glyph glyph-name="ccedilla.sc" horiz-adv-x="1185" 
d="M545 -25q-29 0 -43 2l-43 -75q43 12 80 12q68 0 104 -30t25 -95q-9 -52 -61.5 -92.5t-147.5 -40.5q-122 0 -201 57l64 82q63 -49 149 -49q82 0 92 53q5 27 -12.5 41.5t-56.5 14.5q-34 0 -84 -13l-60 27l64 119q-204 38 -292 196.5t-44 407.5q43 244 202.5 379t409.5 135
q225 0 342.5 -112.5t122.5 -305.5l-221 -37q-8 132 -69.5 197t-194.5 65q-159 0 -251 -95t-122 -257q-33 -187 31.5 -290t228.5 -103q136 0 214 65t132 203l211 -39q-62 -208 -205.5 -315t-363.5 -107z" />
    <glyph glyph-name="ccircumflex.sc" horiz-adv-x="1185" 
d="M545 -25q-270 0 -394 165t-73 452q43 244 202.5 379t409.5 135q225 0 342.5 -112.5t122.5 -305.5l-221 -37q-8 132 -69.5 197t-194.5 65q-159 0 -251 -95t-122 -257q-33 -187 31.5 -290t228.5 -103q136 0 214 65t132 203l211 -39q-62 -208 -205.5 -315t-363.5 -107z
M938 1192l-199 199l-270 -199l-72 82l326 291h76l223 -291z" />
    <glyph glyph-name="cdotaccent.sc" horiz-adv-x="1185" 
d="M545 -25q-270 0 -394 165t-73 452q43 244 202.5 379t409.5 135q225 0 342.5 -112.5t122.5 -305.5l-221 -37q-8 132 -69.5 197t-194.5 65q-159 0 -251 -95t-122 -257q-33 -187 31.5 -290t228.5 -103q136 0 214 65t132 203l211 -39q-62 -208 -205.5 -315t-363.5 -107z
M633 1495h231l-39 -221h-231z" />
    <glyph glyph-name="dcaron.sc" horiz-adv-x="1208" 
d="M625 899h-211l-125 -715h221q191 0 293 84t133 258q34 197 -39.5 285t-271.5 88zM29 0l192 1083h445q295 0 417 -150t74 -431q-43 -237 -210.5 -369.5t-428.5 -132.5h-489zM756 1188h-78l-221 291l82 82l200 -199l271 199l71 -82z" />
    <glyph glyph-name="dcroat.sc" horiz-adv-x="1259" 
d="M666 471h-277l-51 -287h221q191 0 293 84t133 258q34 197 -39.5 285t-271.5 88h-211l-49 -287h276zM78 0l84 471h-125l24 141h125l84 471h445q295 0 417 -150t74 -431q-43 -237 -210.5 -369.5t-428.5 -132.5h-489z" />
    <glyph glyph-name="eacute.sc" horiz-adv-x="1030" 
d="M29 0l192 1083h828l-35 -192h-602l-45 -260h546l-28 -164h-547l-47 -274h600l-35 -193h-827zM492 1167l-48 111l529 272l65 -155z" />
    <glyph glyph-name="ebreve.sc" horiz-adv-x="1030" 
d="M29 0l192 1083h828l-35 -192h-602l-45 -260h546l-28 -164h-547l-47 -274h600l-35 -193h-827zM662 1343q78 0 131 41.5t79 141.5h111q-29 -169 -109 -248.5t-219 -79.5q-144 0 -212 82t-40 246h111q-18 -183 148 -183z" />
    <glyph glyph-name="ecaron.sc" horiz-adv-x="1030" 
d="M29 0l192 1083h828l-35 -192h-602l-45 -260h546l-28 -164h-547l-47 -274h600l-35 -193h-827zM674 1188h-78l-221 291l82 82l200 -199l271 199l71 -82z" />
    <glyph glyph-name="ecircumflex.sc" horiz-adv-x="1030" 
d="M29 0l192 1083h828l-35 -192h-602l-45 -260h546l-28 -164h-547l-47 -274h600l-35 -193h-827zM874 1169l-198 199l-270 -199l-72 82l325 291h76l223 -291z" />
    <glyph glyph-name="edieresis.sc" horiz-adv-x="1030" 
d="M29 0l192 1083h828l-35 -192h-602l-45 -260h546l-28 -164h-547l-47 -274h600l-35 -193h-827zM389 1454h217l-37 -211h-217zM750 1454h217l-37 -211h-217z" />
    <glyph glyph-name="edotaccent.sc" horiz-adv-x="1030" 
d="M29 0l192 1083h828l-35 -192h-602l-45 -260h546l-28 -164h-547l-47 -274h600l-35 -193h-827zM569 1473h232l-39 -222h-232z" />
    <glyph glyph-name="egrave.sc" horiz-adv-x="1030" 
d="M29 0l192 1083h828l-35 -192h-602l-45 -260h546l-28 -164h-547l-47 -274h600l-35 -193h-827zM805 1171l-467 226l94 157l430 -276z" />
    <glyph glyph-name="emacron.sc" horiz-adv-x="1030" 
d="M29 0l192 1083h828l-35 -192h-602l-45 -260h546l-28 -164h-547l-47 -274h600l-35 -193h-827zM393 1403h557l-28 -156h-555z" />
    <glyph glyph-name="eng.sc" horiz-adv-x="1228" 
d="M29 0l192 1083h326l186 -407q73 -169 135 -397l25 2q23 277 53 438l64 364h211l-193 -1091q-57 -324 -383 -324q-64 0 -156 15l46 188q75 -14 120 -14q139 0 162 139l-258 469q-72 126 -143 422l-39 -4q-22 -220 -72 -525l-63 -358h-213z" />
    <glyph glyph-name="eogonek.sc" horiz-adv-x="1030" 
d="M801 -328q-78 -10 -129 -10q-115 0 -167 40.5t-38 115.5q23 128 229 182h-667l192 1083h828l-35 -192h-602l-45 -260h546l-28 -164h-547l-47 -274h600l-35 -193h-2q-122 -22 -180.5 -51t-65.5 -74q-12 -68 103 -68q29 0 110 15z" />
    <glyph glyph-name="eth.sc" horiz-adv-x="1259" 
d="M666 471h-277l-51 -287h221q191 0 293 84t133 258q34 197 -39.5 285t-271.5 88h-211l-49 -287h276zM78 0l84 471h-125l24 141h125l84 471h445q295 0 417 -150t74 -431q-43 -237 -210.5 -369.5t-428.5 -132.5h-489z" />
    <glyph glyph-name="fi.sc" horiz-adv-x="1445" 
d="M836 385h-512l-68 -385h-227l192 1083h791l-35 -202h-565l-56 -312h510zM1245 0h-227l192 1083h226z" />
    <glyph glyph-name="fl.sc" horiz-adv-x="1882" 
d="M836 385h-512l-68 -385h-227l192 1083h791l-35 -202h-565l-56 -312h510zM1210 1083h226l-158 -897h508l-33 -186h-735z" />
    <glyph glyph-name="gbreve.sc" horiz-adv-x="1218" 
d="M449 -20q-215 0 -321 157t-56 436q46 255 202.5 394t411.5 139q437 0 467 -375l-219 -41q-8 114 -70 168.5t-190 54.5q-167 0 -257 -90t-122 -268q-32 -183 32.5 -288t235.5 -105q209 0 295 127l8 16q26 44 35 96l2 15h-309l29 159h520l-101 -575h-208l43 240h-19
q-62 -118 -164 -189t-245 -71zM729 1366q78 0 131.5 41t79.5 141h111q-29 -169 -109 -248t-219 -79q-145 0 -212.5 81.5t-39.5 245.5h111q-18 -182 147 -182z" />
    <glyph glyph-name="gcircumflex.sc" horiz-adv-x="1218" 
d="M449 -20q-215 0 -321 157t-56 436q46 255 202.5 394t411.5 139q437 0 467 -375l-219 -41q-8 114 -70 168.5t-190 54.5q-167 0 -257 -90t-122 -268q-32 -183 32.5 -288t235.5 -105q209 0 295 127l8 16q26 44 35 96l2 15h-309l29 159h520l-101 -575h-208l43 240h-19
q-62 -118 -164 -189t-245 -71zM942 1192l-199 199l-270 -199l-72 82l326 291h76l223 -291z" />
    <glyph glyph-name="gcommaaccent.sc" horiz-adv-x="1218" 
d="M449 -20q-215 0 -321 157t-56 436q46 255 202.5 394t411.5 139q437 0 467 -375l-219 -41q-8 114 -70 168.5t-190 54.5q-167 0 -257 -90t-122 -268q-32 -183 32.5 -288t235.5 -105q209 0 295 127l8 16q26 44 35 96l2 15h-309l29 159h520l-101 -575h-208l43 240h-19
q-62 -118 -164 -189t-245 -71zM438 -109h176l-176 -313h-139l2 19z" />
    <glyph glyph-name="gdotaccent.sc" horiz-adv-x="1218" 
d="M449 -20q-215 0 -321 157t-56 436q46 255 202.5 394t411.5 139q437 0 467 -375l-219 -41q-8 114 -70 168.5t-190 54.5q-167 0 -257 -90t-122 -268q-32 -183 32.5 -288t235.5 -105q209 0 295 127l8 16q26 44 35 96l2 15h-309l29 159h520l-101 -575h-208l43 240h-19
q-62 -118 -164 -189t-245 -71zM637 1495h231l-39 -221h-231z" />
    <glyph glyph-name="hbar.sc" horiz-adv-x="1284" 
d="M922 565l28 174h-534l-29 -174h535zM1047 0h-226l68 379h-535l-67 -379h-228l129 739h-114l24 135h115l37 209h227l-37 -209h535l37 209h227l-37 -209h121l-23 -135h-122z" />
    <glyph glyph-name="hcircumflex.sc" horiz-adv-x="1216" 
d="M1018 0h-227l77 440h-534l-78 -440h-227l192 1083h225l-77 -444h534l78 444h227zM954 1169l-198 199l-271 -199l-71 82l325 291h76l223 -291z" />
    <glyph glyph-name="iacute.sc" horiz-adv-x="456" 
d="M256 0h-227l192 1083h225zM190 1167l-47 111l529 272l65 -155z" />
    <glyph glyph-name="ibreve.sc" horiz-adv-x="456" 
d="M256 0h-227l192 1083h225zM360 1343q78 0 131.5 41.5t79.5 141.5h111q-29 -169 -109 -248.5t-219 -79.5q-144 0 -212 82t-40 246h111q-18 -183 147 -183z" />
    <glyph glyph-name="icircumflex.sc" horiz-adv-x="456" 
d="M256 0h-227l192 1083h225zM573 1169l-198 199l-271 -199l-71 82l325 291h76l223 -291z" />
    <glyph glyph-name="idieresis.sc" horiz-adv-x="456" 
d="M256 0h-227l192 1083h225zM88 1454h217l-37 -211h-217zM449 1454h217l-37 -211h-217z" />
    <glyph glyph-name="igrave.sc" horiz-adv-x="456" 
d="M256 0h-227l192 1083h225zM504 1171l-467 226l94 157l430 -276z" />
    <glyph glyph-name="ij.sc" horiz-adv-x="1052" 
d="M256 0h-227l192 1083h225zM682 311l137 772h225l-137 -784q-58 -313 -362 -313q-58 0 -148 12l39 190q62 -10 103 -10q121 0 143 133z" />
    <glyph glyph-name="imacron.sc" horiz-adv-x="456" 
d="M256 0h-227l192 1083h225zM92 1403h557l-28 -156h-555z" />
    <glyph glyph-name="iogonek.sc" horiz-adv-x="456" 
d="M256 0q-122 -22 -180.5 -51t-65.5 -74q-12 -68 103 -68q29 0 110 15l-20 -150q-78 -10 -129 -10q-115 0 -167 40.5t-38 115.5q23 128 229 182h-69l192 1083h225z" />
    <glyph glyph-name="itilde.sc" horiz-adv-x="456" 
d="M256 0h-227l192 1083h225zM242 1544q45 0 79 -19.5t54.5 -47.5t38 -56t38 -47.5t46.5 -19.5q41 0 63.5 42.5t36.5 137.5h104q-2 -35 -10 -92q-21 -121 -73 -181.5t-127 -60.5q-35 0 -63.5 14t-46.5 35t-35.5 45.5t-31.5 45.5t-34.5 35t-44.5 14q-42 0 -64.5 -39.5
t-40.5 -137.5h-102q2 35 10 93q21 119 74 179t129 60z" />
    <glyph glyph-name="jcircumflex.sc" horiz-adv-x="595" 
d="M225 311l137 772h226l-137 -784q-58 -313 -363 -313q-57 0 -147 12l39 190q62 -10 102 -10q121 0 143 133zM713 1169l-199 199l-270 -199l-72 82l326 291h75l224 -291z" />
    <glyph glyph-name="kcommaaccent.sc" horiz-adv-x="1091" 
d="M745 0l-319 422h-96l-74 -422h-227l192 1083h225l-84 -483h84l465 483h269l-2 -20l-572 -543l404 -500l-2 -20h-263zM446 -109h177l-177 -313h-139l2 19z" />
    <glyph glyph-name="lacute.sc" horiz-adv-x="890" 
d="M293 1167l-47 111l528 272l66 -155zM221 1083h225l-157 -897h508l-33 -186h-735z" />
    <glyph glyph-name="lcaron.sc" horiz-adv-x="915" 
d="M819 1083h172l-151 -518h-138zM221 1083h225l-157 -897h508l-33 -186h-735z" />
    <glyph glyph-name="lcommaaccent.sc" horiz-adv-x="890" 
d="M221 1083h225l-157 -897h508l-33 -186h-735zM324 -109h176l-176 -313h-140l2 19z" />
    <glyph glyph-name="ldot.sc" horiz-adv-x="899" 
d="M721 731h215l-35 -207h-217zM221 1083h225l-157 -897h508l-33 -186h-735z" />
    <glyph glyph-name="lslash.sc" horiz-adv-x="933" 
d="M252 1083h225l-76 -434l277 119l-27 -145l-276 -117l-56 -320h508l-32 -186h-736l72 401l-129 -55l27 143l127 56z" />
    <glyph glyph-name="nacute.sc" horiz-adv-x="1230" 
d="M727 0l-195 473q-36 96 -116 418l-39 -4q-29 -287 -72 -529l-63 -358h-213l192 1083h324l170 -409q57 -152 127 -453l39 2q24 265 65 496l64 364h211l-191 -1083h-303zM578 1167l-48 111l529 272l65 -155z" />
    <glyph glyph-name="ncaron.sc" horiz-adv-x="1230" 
d="M727 0l-195 473q-36 96 -116 418l-39 -4q-29 -287 -72 -529l-63 -358h-213l192 1083h324l170 -409q57 -152 127 -453l39 2q24 265 65 496l64 364h211l-191 -1083h-303zM760 1188h-78l-221 291l82 82l200 -199l271 199l71 -82z" />
    <glyph glyph-name="ncommaaccent.sc" horiz-adv-x="1230" 
d="M727 0l-195 473q-36 96 -116 418l-39 -4q-29 -287 -72 -529l-63 -358h-213l192 1083h324l170 -409q57 -152 127 -453l39 2q24 265 65 496l64 364h211l-191 -1083h-303zM457 -109h176l-176 -313h-140l2 19z" />
    <glyph glyph-name="ntilde.sc" horiz-adv-x="1230" 
d="M727 0l-195 473q-36 96 -116 418l-39 -4q-29 -287 -72 -529l-63 -358h-213l192 1083h324l170 -409q57 -152 127 -453l39 2q24 265 65 496l64 364h211l-191 -1083h-303zM629 1544q45 0 79 -19.5t54.5 -47.5t38 -56t38 -47.5t46.5 -19.5q41 0 63.5 42.5t36.5 137.5h105
q-1 -22 -11 -92q-21 -121 -73 -181.5t-127 -60.5q-35 0 -63.5 14t-46.5 35t-35.5 45.5t-31.5 45.5t-34.5 35t-44.5 14q-42 0 -64.5 -39.5t-40.5 -137.5h-102q2 35 10 93q21 119 74 179t129 60z" />
    <glyph glyph-name="oacute.sc" horiz-adv-x="1249" 
d="M567 -25q-280 0 -409.5 167.5t-79.5 445.5q41 243 207 380.5t417 137.5q278 0 411 -164t85 -438q-45 -247 -210.5 -388t-420.5 -141zM582 168q330 0 393 356q31 179 -39.5 284t-247.5 105q-168 0 -265.5 -92.5t-127.5 -259.5q-32 -183 38.5 -288t248.5 -105zM588 1190
l-47 110l528 273l66 -156z" />
    <glyph glyph-name="obreve.sc" horiz-adv-x="1249" 
d="M567 -25q-280 0 -409.5 167.5t-79.5 445.5q41 243 207 380.5t417 137.5q278 0 411 -164t85 -438q-45 -247 -210.5 -388t-420.5 -141zM582 168q330 0 393 356q31 179 -39.5 284t-247.5 105q-168 0 -265.5 -92.5t-127.5 -259.5q-32 -183 38.5 -288t248.5 -105zM758 1366
q78 0 131.5 41t79.5 141h110q-29 -169 -108.5 -248t-218.5 -79q-145 0 -212.5 81.5t-39.5 245.5h110q-18 -182 148 -182z" />
    <glyph glyph-name="ocircumflex.sc" horiz-adv-x="1249" 
d="M582 168q330 0 393 356q31 179 -39.5 284t-247.5 105q-168 0 -265.5 -92.5t-127.5 -259.5q-32 -183 38.5 -288t248.5 -105zM567 -25q-280 0 -409.5 167.5t-79.5 445.5q41 243 207 380.5t417 137.5q278 0 411 -164t85 -438q-45 -247 -210.5 -388t-420.5 -141zM971 1192
l-199 199l-270 -199l-72 82l326 291h75l224 -291z" />
    <glyph glyph-name="odieresis.sc" horiz-adv-x="1249" 
d="M567 -25q-280 0 -409.5 167.5t-79.5 445.5q41 243 207 380.5t417 137.5q278 0 411 -164t85 -438q-45 -247 -210.5 -388t-420.5 -141zM582 168q330 0 393 356q31 179 -39.5 284t-247.5 105q-168 0 -265.5 -92.5t-127.5 -259.5q-32 -183 38.5 -288t248.5 -105zM485 1477
h217l-36 -211h-217zM846 1477h217l-37 -211h-217z" />
    <glyph glyph-name="ograve.sc" horiz-adv-x="1249" 
d="M567 -25q-280 0 -409.5 167.5t-79.5 445.5q41 243 207 380.5t417 137.5q278 0 411 -164t85 -438q-45 -247 -210.5 -388t-420.5 -141zM582 168q330 0 393 356q31 179 -39.5 284t-247.5 105q-168 0 -265.5 -92.5t-127.5 -259.5q-32 -183 38.5 -288t248.5 -105zM899 1194
l-467 225l94 158l430 -277z" />
    <glyph glyph-name="ohungarumlaut.sc" horiz-adv-x="1249" 
d="M567 -25q-280 0 -409.5 167.5t-79.5 445.5q41 243 207 380.5t417 137.5q278 0 411 -164t85 -438q-45 -247 -210.5 -388t-420.5 -141zM582 168q330 0 393 356q31 179 -39.5 284t-247.5 105q-168 0 -265.5 -92.5t-127.5 -259.5q-32 -183 38.5 -288t248.5 -105zM586 1196
l-88 59l237 336l123 -82zM860 1198l-82 68l262 323l115 -90z" />
    <glyph glyph-name="omacron.sc" horiz-adv-x="1249" 
d="M567 -25q-280 0 -409.5 167.5t-79.5 445.5q41 243 207 380.5t417 137.5q278 0 411 -164t85 -438q-45 -247 -210.5 -388t-420.5 -141zM582 168q330 0 393 356q31 179 -39.5 284t-247.5 105q-168 0 -265.5 -92.5t-127.5 -259.5q-32 -183 38.5 -288t248.5 -105zM489 1425
h558l-29 -155h-555z" />
    <glyph glyph-name="oslash.sc" horiz-adv-x="1249" 
d="M287 561q-25 -143 8 -237l610 530q-75 66 -215 66q-174 0 -274 -94t-129 -265zM567 -25q-226 0 -360 115l-98 -90h-175l5 14l194 164q-100 157 -55 410q41 243 207 380.5t417 137.5q229 0 363 -115l100 92h170l-4 -14l-192 -164q102 -158 59 -401q-45 -247 -209.5 -388
t-421.5 -141zM580 160q339 0 405 364q25 141 -12 234l-611 -533q77 -65 218 -65z" />
    <glyph glyph-name="oslashacute.sc" horiz-adv-x="1249" 
d="M287 561q-25 -143 8 -237l610 530q-75 66 -215 66q-174 0 -274 -94t-129 -265zM567 -25q-226 0 -360 115l-98 -90h-175l5 14l194 164q-100 157 -55 410q41 243 207 380.5t417 137.5q229 0 363 -115l100 92h170l-4 -14l-192 -164q102 -158 59 -401q-45 -247 -209.5 -388
t-421.5 -141zM610 1186l-47 110l529 273l65 -156zM580 160q339 0 405 364q25 141 -12 234l-611 -533q77 -65 218 -65z" />
    <glyph glyph-name="otilde.sc" horiz-adv-x="1249" 
d="M567 -25q-280 0 -409.5 167.5t-79.5 445.5q41 243 207 380.5t417 137.5q278 0 411 -164t85 -438q-45 -247 -210.5 -388t-420.5 -141zM582 168q330 0 393 356q31 179 -39.5 284t-247.5 105q-168 0 -265.5 -92.5t-127.5 -259.5q-32 -183 38.5 -288t248.5 -105zM639 1567
q45 0 79 -19.5t54.5 -47.5t38 -56.5t38 -48t46.5 -19.5q41 0 63.5 42.5t36.5 137.5h105q-2 -35 -10 -92q-21 -120 -73.5 -180.5t-127.5 -60.5q-41 0 -73.5 19.5t-52.5 47t-37.5 55t-41 47t-51.5 19.5q-42 0 -64.5 -39.5t-40.5 -136.5h-102q2 33 10 92q21 119 74.5 179.5
t128.5 60.5z" />
    <glyph glyph-name="oe.sc" horiz-adv-x="1730" 
d="M596 186h104l127 711h-141q-164 0 -264 -90t-127 -246q-30 -177 44 -276t257 -99zM571 0q-281 0 -412 156.5t-83 423.5q40 231 211 367t426 136h975l-35 -192h-602l-45 -260h546l-28 -164h-547l-47 -274h600l-35 -193h-924z" />
    <glyph glyph-name="racute.sc" horiz-adv-x="1126" 
d="M653 897h-239l-58 -332h242q112 0 168 37t70 117q15 92 -27 135t-156 43zM739 0l-204 397h-209l-70 -397h-227l192 1083h477q209 0 301 -96t60 -276q-40 -231 -293 -293l235 -398l-4 -20h-258zM551 1167l-47 111l528 272l66 -155z" />
    <glyph glyph-name="rcaron.sc" horiz-adv-x="1126" 
d="M653 897h-239l-58 -332h242q112 0 168 37t70 117q15 92 -27 135t-156 43zM739 0l-204 397h-209l-70 -397h-227l192 1083h477q209 0 301 -96t60 -276q-40 -231 -293 -293l235 -398l-4 -20h-258zM696 1188h-78l-221 291l82 82l201 -199l270 199l72 -82z" />
    <glyph glyph-name="rcommaaccent.sc" horiz-adv-x="1126" 
d="M430 -109h176l-176 -313h-139l2 19zM653 897h-239l-58 -332h242q112 0 168 37t70 117q15 92 -27 135t-156 43zM739 0l-204 397h-209l-70 -397h-227l192 1083h477q209 0 301 -96t60 -276q-40 -231 -293 -293l235 -398l-4 -20h-258z" />
    <glyph glyph-name="sacute.sc" horiz-adv-x="1075" 
d="M500 -25q-130 1 -222.5 28.5t-144.5 78t-76.5 111t-29.5 137.5l219 39q15 -213 268 -213q215 0 236 120q13 71 -41.5 113.5t-208.5 67.5q-214 34 -293 128.5t-53 241.5q24 135 140 207t322 72q112 0 193 -23.5t128 -69t70.5 -101t30.5 -128.5l-227 -39q-11 99 -56.5 143
t-158.5 44q-200 0 -221 -115q-6 -32 0.5 -56t30.5 -47.5t76.5 -42.5t135.5 -34q95 -17 164.5 -44.5t109.5 -62t63 -77t25 -88.5t-5 -97q-49 -293 -475 -293zM496 1190l-47 110l528 273l65 -156z" />
    <glyph glyph-name="scaron.sc" horiz-adv-x="1075" 
d="M500 -25q-130 1 -222.5 28.5t-144.5 78t-76.5 111t-29.5 137.5l219 39q15 -213 268 -213q215 0 236 120q13 71 -41.5 113.5t-208.5 67.5q-214 34 -293 128.5t-53 241.5q24 135 140 207t322 72q112 0 193 -23.5t128 -69t70.5 -101t30.5 -128.5l-227 -39q-11 99 -56.5 143
t-158.5 44q-200 0 -221 -115q-6 -32 0.5 -56t30.5 -47.5t76.5 -42.5t135.5 -34q95 -17 164.5 -44.5t109.5 -62t63 -77t25 -88.5t-5 -97q-49 -293 -475 -293zM676 1210h-78l-221 291l82 82l200 -199l271 199l71 -82z" />
    <glyph glyph-name="scedilla.sc" horiz-adv-x="1075" 
d="M500 -25q-40 0 -58 2l-43 -75q44 12 80 12q68 0 104 -30t25 -95q-9 -52 -61.5 -92.5t-147.5 -40.5q-121 0 -200 57l63 82q63 -49 150 -49q82 0 92 53q5 27 -13 41.5t-57 14.5q-34 0 -84 -13l-59 27l63 117q-88 15 -151.5 47.5t-99.5 79t-54 99.5t-22 118l219 39
q15 -213 268 -213q215 0 236 120q13 71 -41.5 113.5t-208.5 67.5q-214 34 -293 128.5t-53 241.5q24 135 140 207t322 72q112 0 193 -23.5t128 -69t70.5 -101t30.5 -128.5l-227 -39q-11 99 -56.5 143t-158.5 44q-200 0 -221 -115q-6 -32 0.5 -56t30.5 -47.5t76.5 -42.5
t135.5 -34q95 -17 164.5 -44.5t109.5 -62t63 -77t25 -88.5t-5 -97q-49 -293 -475 -293z" />
    <glyph glyph-name="scircumflex.sc" horiz-adv-x="1075" 
d="M500 -25q-130 1 -222.5 28.5t-144.5 78t-76.5 111t-29.5 137.5l219 39q15 -213 268 -213q215 0 236 120q13 71 -41.5 113.5t-208.5 67.5q-214 34 -293 128.5t-53 241.5q24 135 140 207t322 72q112 0 193 -23.5t128 -69t70.5 -101t30.5 -128.5l-227 -39q-11 99 -56.5 143
t-158.5 44q-200 0 -221 -115q-6 -32 0.5 -56t30.5 -47.5t76.5 -42.5t135.5 -34q95 -17 164.5 -44.5t109.5 -62t63 -77t25 -88.5t-5 -97q-49 -293 -475 -293zM877 1192l-199 199l-270 -199l-72 82l326 291h75l224 -291z" />
    <glyph glyph-name="scommaaccent.sc" horiz-adv-x="1075" 
d="M500 -25q-130 1 -222.5 28.5t-144.5 78t-76.5 111t-29.5 137.5l219 39q15 -213 268 -213q215 0 236 120q13 71 -41.5 113.5t-208.5 67.5q-214 34 -293 128.5t-53 241.5q24 135 140 207t322 72q112 0 193 -23.5t128 -69t70.5 -101t30.5 -128.5l-227 -39q-11 99 -56.5 143
t-158.5 44q-200 0 -221 -115q-6 -32 0.5 -56t30.5 -47.5t76.5 -42.5t135.5 -34q95 -17 164.5 -44.5t109.5 -62t63 -77t25 -88.5t-5 -97q-49 -293 -475 -293zM375 -109h176l-176 -313h-139l2 19z" />
    <glyph glyph-name="tbar.sc" horiz-adv-x="976" 
d="M100 881l37 202h918l-37 -202h-346l-60 -340h254l-22 -133h-254l-72 -408h-227l71 408h-251l22 133h254l59 340h-346z" />
    <glyph glyph-name="tcaron.sc" horiz-adv-x="976" 
d="M1018 881h-346l-154 -881h-227l155 881h-346l37 202h918zM633 1188h-78l-221 291l82 82l200 -199l271 199l71 -82z" />
    <glyph glyph-name="tcommaaccent.sc" horiz-adv-x="976" 
d="M100 881l37 202h918l-37 -202h-346l-154 -881h-106l-58 -98q43 12 80 12q68 0 104 -30t25 -95q-9 -52 -61.5 -92.5t-147.5 -40.5q-121 0 -200 57l63 82q63 -49 150 -49q82 0 92 53q5 27 -13 41.5t-57 14.5q-34 0 -84 -13l-59 27l71 131h-26l155 881h-346z" />
    <glyph glyph-name="uni021B.sc" horiz-adv-x="976" 
d="M100 881l37 202h918l-37 -202h-346l-154 -881h-227l155 881h-346zM332 -109h176l-176 -313h-139l2 19z" />
    <glyph glyph-name="thorn.sc" horiz-adv-x="1064" 
d="M221 1083h225l-28 -161h229q450 0 379 -408q-29 -157 -147.5 -246.5t-317.5 -89.5h-276l-31 -178h-223zM612 735h-227l-66 -368h238q112 0 172.5 41t75.5 129q18 102 -27 150t-166 48z" />
    <glyph glyph-name="uacute.sc" horiz-adv-x="1202" 
d="M565 172q134 0 199.5 65.5t87.5 192.5l117 653h225l-121 -688q-35 -203 -167.5 -310.5t-348.5 -107.5q-254 0 -371 123t-77 351l112 632h225l-112 -647q-12 -57 -5.5 -105.5t30 -83.5t76 -55t130.5 -20zM565 1167l-47 111l529 272l65 -155z" />
    <glyph glyph-name="ubreve.sc" horiz-adv-x="1202" 
d="M565 172q134 0 199.5 65.5t87.5 192.5l117 653h225l-121 -688q-35 -203 -167.5 -310.5t-348.5 -107.5q-254 0 -371 123t-77 351l112 632h225l-112 -647q-12 -57 -5.5 -105.5t30 -83.5t76 -55t130.5 -20zM735 1343q78 0 131.5 41.5t79.5 141.5h111q-29 -169 -109 -248.5
t-219 -79.5q-144 0 -212 82t-40 246h111q-18 -183 147 -183z" />
    <glyph glyph-name="ucircumflex.sc" horiz-adv-x="1202" 
d="M565 172q134 0 199.5 65.5t87.5 192.5l117 653h225l-121 -688q-35 -203 -167.5 -310.5t-348.5 -107.5q-254 0 -371 123t-77 351l112 632h225l-112 -647q-12 -57 -5.5 -105.5t30 -83.5t76 -55t130.5 -20zM946 1169l-198 199l-271 -199l-71 82l325 291h76l223 -291z" />
    <glyph glyph-name="udieresis.sc" horiz-adv-x="1202" 
d="M565 172q134 0 199.5 65.5t87.5 192.5l117 653h225l-121 -688q-35 -203 -167.5 -310.5t-348.5 -107.5q-254 0 -371 123t-77 351l112 632h225l-112 -647q-12 -57 -5.5 -105.5t30 -83.5t76 -55t130.5 -20zM461 1454h217l-37 -211h-217zM821 1454h217l-37 -211h-217z" />
    <glyph glyph-name="ugrave.sc" horiz-adv-x="1202" 
d="M565 172q134 0 199.5 65.5t87.5 192.5l117 653h225l-121 -688q-35 -203 -167.5 -310.5t-348.5 -107.5q-254 0 -371 123t-77 351l112 632h225l-112 -647q-12 -57 -5.5 -105.5t30 -83.5t76 -55t130.5 -20zM877 1171l-467 226l94 157l430 -276z" />
    <glyph glyph-name="uhungarumlaut.sc" horiz-adv-x="1202" 
d="M565 172q134 0 199.5 65.5t87.5 192.5l117 653h225l-121 -688q-35 -203 -167.5 -310.5t-348.5 -107.5q-254 0 -371 123t-77 351l112 632h225l-112 -647q-12 -57 -5.5 -105.5t30 -83.5t76 -55t130.5 -20zM563 1174l-88 59l238 336l123 -82zM838 1176l-82 67l262 324
l115 -90z" />
    <glyph glyph-name="umacron.sc" horiz-adv-x="1202" 
d="M565 172q134 0 199.5 65.5t87.5 192.5l117 653h225l-121 -688q-35 -203 -167.5 -310.5t-348.5 -107.5q-254 0 -371 123t-77 351l112 632h225l-112 -647q-12 -57 -5.5 -105.5t30 -83.5t76 -55t130.5 -20zM467 1403h557l-29 -156h-555z" />
    <glyph glyph-name="uogonek.sc" horiz-adv-x="1202" 
d="M565 172q134 0 199.5 65.5t87.5 192.5l117 653h225l-121 -688q-34 -197 -160 -304.5t-331 -113.5q-70 -19 -105 -43t-41 -59q-12 -68 103 -68q29 0 110 15l-20 -150q-78 -10 -129 -10q-115 0 -167 40.5t-38 115.5q17 106 170 164q-207 22 -300 142.5t-56 326.5l112 632
h225l-112 -647q-12 -57 -5.5 -105.5t30 -83.5t76 -55t130.5 -20z" />
    <glyph glyph-name="uring.sc" horiz-adv-x="1202" 
d="M565 172q134 0 199.5 65.5t87.5 192.5l117 653h225l-121 -688q-35 -203 -167.5 -310.5t-348.5 -107.5q-254 0 -371 123t-77 351l112 632h225l-112 -647q-12 -57 -5.5 -105.5t30 -83.5t76 -55t130.5 -20zM975 1393q-17 -98 -85.5 -153.5t-170.5 -55.5q-111 0 -166.5 68.5
t-36.5 177.5q19 99 86.5 154.5t169.5 55.5q112 0 167.5 -69.5t35.5 -177.5zM633 1417q-9 -58 17.5 -91.5t82.5 -33.5q50 0 84 30t43 85q9 57 -17.5 90t-80.5 33q-52 0 -86 -29t-43 -84z" />
    <glyph glyph-name="utilde.sc" horiz-adv-x="1202" 
d="M565 172q134 0 199.5 65.5t87.5 192.5l117 653h225l-121 -688q-35 -203 -167.5 -310.5t-348.5 -107.5q-254 0 -371 123t-77 351l112 632h225l-112 -647q-12 -57 -5.5 -105.5t30 -83.5t76 -55t130.5 -20zM616 1544q45 0 79 -19.5t54.5 -47.5t38 -56t38 -47.5t46.5 -19.5
q41 0 64 43t37 137h104q-2 -35 -10 -92q-21 -120 -73.5 -181t-127.5 -61q-35 0 -63.5 14t-46.5 35t-35.5 45.5t-31.5 45.5t-34.5 35t-44.5 14q-42 0 -64 -39.5t-40 -137.5h-103q1 23 11 93q21 119 74 179t128 60z" />
    <glyph glyph-name="wacute.sc" horiz-adv-x="1613" 
d="M692 455l-174 -455h-319l-97 1083h240l25 -485q8 -278 6 -408h51q87 260 147 408l203 485h289l29 -487q7 -218 4 -406h49q34 103 149 408l193 485h235l-473 -1083h-334l-14 455q-8 273 -6 442h-39q-36 -105 -164 -442zM776 1167l-47 111l528 272l66 -155z" />
    <glyph glyph-name="wcircumflex.sc" horiz-adv-x="1613" 
d="M692 455l-174 -455h-319l-97 1083h240l25 -485q8 -278 6 -408h51q87 260 147 408l203 485h289l29 -487q7 -218 4 -406h49q34 103 149 408l193 485h235l-473 -1083h-334l-14 455q-8 273 -6 442h-39q-36 -105 -164 -442zM1159 1169l-198 199l-271 -199l-72 82l326 291h76
l223 -291z" />
    <glyph glyph-name="wdieresis.sc" horiz-adv-x="1613" 
d="M692 455l-174 -455h-319l-97 1083h240l25 -485q8 -278 6 -408h51q87 260 147 408l203 485h289l29 -487q7 -218 4 -406h49q34 103 149 408l193 485h235l-473 -1083h-334l-14 455q-8 273 -6 442h-39q-36 -105 -164 -442zM674 1454h217l-37 -211h-217zM1034 1454h217
l-37 -211h-217z" />
    <glyph glyph-name="wgrave.sc" horiz-adv-x="1613" 
d="M692 455l-174 -455h-319l-97 1083h240l25 -485q8 -278 6 -408h51q87 260 147 408l203 485h289l29 -487q7 -218 4 -406h49q34 103 149 408l193 485h235l-473 -1083h-334l-14 455q-8 273 -6 442h-39q-36 -105 -164 -442zM1090 1171l-467 226l94 157l430 -276z" />
    <glyph glyph-name="yacute.sc" horiz-adv-x="1032" 
d="M545 0h-228l64 354l-295 709l4 20h240l174 -542h35l368 542h246l-2 -20l-545 -713zM479 1167l-47 111l529 272l65 -155z" />
    <glyph glyph-name="ycircumflex.sc" horiz-adv-x="1032" 
d="M545 0h-228l64 354l-295 709l4 20h240l174 -542h35l368 542h246l-2 -20l-545 -713zM860 1169l-198 199l-271 -199l-72 82l326 291h76l223 -291z" />
    <glyph glyph-name="ydieresis.sc" horiz-adv-x="1032" 
d="M545 0h-228l64 354l-295 709l4 20h240l174 -542h35l368 542h246l-2 -20l-545 -713zM375 1454h217l-37 -211h-217zM735 1454h217l-37 -211h-217z" />
    <glyph glyph-name="zacute.sc" 
d="M965 203l-37 -203h-946l34 188l777 697l-9 20q-230 -24 -356 -24h-270l35 202h921l-33 -186l-784 -700l6 -21q237 27 365 27h297zM504 1167l-47 111l528 272l66 -155z" />
    <glyph glyph-name="zcaron.sc" 
d="M965 203l-37 -203h-946l34 188l777 697l-9 20q-230 -24 -356 -24h-270l35 202h921l-33 -186l-784 -700l6 -21q237 27 365 27h297zM684 1188h-78l-221 291l82 82l201 -199l270 199l72 -82z" />
    <glyph glyph-name="zdotaccent.sc" 
d="M965 203l-37 -203h-946l34 188l777 697l-9 20q-230 -24 -356 -24h-270l35 202h921l-33 -186l-784 -700l6 -21q237 27 365 27h297zM580 1473h231l-39 -222h-231z" />
    <glyph glyph-name="germandbls.sc" horiz-adv-x="1200" 
d="M739 -18q-240 0 -348 163l119 146q80 -126 231 -123q140 0 158 98q8 55 -25 87.5t-106 58.5q-108 39 -163 97t-38 153q26 152 295 229l-4 18q-94 -12 -242 -12q-201 0 -245 -238l-117 -659h-225l121 678q34 197 158.5 301t332.5 104h457l-27 -184q-154 -50 -224.5 -94
t-80.5 -98q-8 -50 24.5 -79.5t112.5 -60.5q120 -47 170.5 -122.5t26.5 -202.5q-21 -121 -113.5 -190.5t-247.5 -69.5z" />
    <glyph glyph-name="a.alt" horiz-adv-x="1019" 
d="M377 152q115 0 196 59t99 151l6 39h-252q-83 0 -133 -28.5t-60 -83.5q-10 -61 23.5 -99t120.5 -38zM616 0l41 229h-20q-58 -119 -148 -184t-204 -65q-142 0 -214 81t-46 228q21 121 119 189.5t270 68.5h288l13 65q33 197 -158 197q-165 0 -227 -172l-197 57
q51 138 160 214.5t276 76.5q216 0 304.5 -105t56.5 -294l-105 -586h-209z" />
    <glyph glyph-name="aacute.alt" horiz-adv-x="1017" 
d="M469 1059l-47 110l528 273l66 -156zM377 152q115 0 196 59t99 151l6 39h-252q-83 0 -133 -28.5t-60 -83.5q-10 -61 23.5 -99t120.5 -38zM616 0l41 229h-20q-58 -119 -148 -184t-204 -65q-142 0 -214 81t-46 228q21 121 119 189.5t270 68.5h288l13 65q33 197 -158 197
q-165 0 -227 -172l-197 57q51 138 160 214.5t276 76.5q216 0 304.5 -105t56.5 -294l-105 -586h-209z" />
    <glyph glyph-name="abreve.alt" horiz-adv-x="1017" 
d="M639 1235q78 0 131.5 41t79.5 141h111q-29 -169 -109 -248t-219 -79q-145 0 -212.5 81.5t-39.5 245.5h111q-18 -182 147 -182zM377 152q115 0 196 59t99 151l6 39h-252q-83 0 -133 -28.5t-60 -83.5q-10 -61 23.5 -99t120.5 -38zM616 0l41 229h-20q-58 -119 -148 -184
t-204 -65q-142 0 -214 81t-46 228q21 121 119 189.5t270 68.5h288l13 65q33 197 -158 197q-165 0 -227 -172l-197 57q51 138 160 214.5t276 76.5q216 0 304.5 -105t56.5 -294l-105 -586h-209z" />
    <glyph glyph-name="acircumflex.alt" horiz-adv-x="1017" 
d="M850 1061l-199 199l-270 -199l-72 82l326 291h76l223 -291zM377 152q115 0 196 59t99 151l6 39h-252q-83 0 -133 -28.5t-60 -83.5q-10 -61 23.5 -99t120.5 -38zM616 0l41 229h-20q-58 -119 -148 -184t-204 -65q-142 0 -214 81t-46 228q21 121 119 189.5t270 68.5h288
l13 65q33 197 -158 197q-165 0 -227 -172l-197 57q51 138 160 214.5t276 76.5q216 0 304.5 -105t56.5 -294l-105 -586h-209z" />
    <glyph glyph-name="adieresis.alt" horiz-adv-x="1017" 
d="M365 1346h217l-37 -211h-217zM725 1346h217l-37 -211h-217zM377 152q115 0 196 59t99 151l6 39h-252q-83 0 -133 -28.5t-60 -83.5q-10 -61 23.5 -99t120.5 -38zM616 0l41 229h-20q-58 -119 -148 -184t-204 -65q-142 0 -214 81t-46 228q21 121 119 189.5t270 68.5h288
l13 65q33 197 -158 197q-165 0 -227 -172l-197 57q51 138 160 214.5t276 76.5q216 0 304.5 -105t56.5 -294l-105 -586h-209z" />
    <glyph glyph-name="agrave.alt" horiz-adv-x="1017" 
d="M780 1063l-467 225l95 158l430 -277zM377 152q115 0 196 59t99 151l6 39h-252q-83 0 -133 -28.5t-60 -83.5q-10 -61 23.5 -99t120.5 -38zM616 0l41 229h-20q-58 -119 -148 -184t-204 -65q-142 0 -214 81t-46 228q21 121 119 189.5t270 68.5h288l13 65q33 197 -158 197
q-165 0 -227 -172l-197 57q51 138 160 214.5t276 76.5q216 0 304.5 -105t56.5 -294l-105 -586h-209z" />
    <glyph glyph-name="amacron.alt" horiz-adv-x="1017" 
d="M371 1294h557l-29 -155h-555zM377 152q115 0 196 59t99 151l6 39h-252q-83 0 -133 -28.5t-60 -83.5q-10 -61 23.5 -99t120.5 -38zM616 0l41 229h-20q-58 -119 -148 -184t-204 -65q-142 0 -214 81t-46 228q21 121 119 189.5t270 68.5h288l13 65q33 197 -158 197
q-165 0 -227 -172l-197 57q51 138 160 214.5t276 76.5q216 0 304.5 -105t56.5 -294l-105 -586h-209z" />
    <glyph glyph-name="aogonek.alt" horiz-adv-x="1048" 
d="M377 152q115 0 196 59t99 151l6 39h-252q-83 0 -133 -28.5t-60 -83.5q-10 -61 23.5 -99t120.5 -38zM758 -328q-78 -10 -129 -10q-115 0 -167 40.5t-38 115.5q23 128 229 182h-37l41 229h-20q-58 -119 -148 -184t-204 -65q-142 0 -214 81t-46 228q21 121 119 189.5
t270 68.5h288l13 65q33 197 -158 197q-165 0 -227 -172l-197 57q51 138 160 214.5t276 76.5q216 0 304.5 -105t56.5 -294l-105 -586h-14q-122 -22 -180.5 -51t-65.5 -74q-12 -68 103 -68q29 0 110 15z" />
    <glyph glyph-name="aring.alt" horiz-adv-x="1017" 
d="M537 1309q-9 -58 17.5 -91.5t82.5 -33.5q50 0 84 29.5t43 84.5q9 57 -17.5 90t-80.5 33q-52 0 -86 -28.5t-43 -83.5zM879 1284q-17 -98 -85.5 -153.5t-170.5 -55.5q-111 0 -166.5 68.5t-36.5 177.5q19 100 87 155.5t169 55.5q111 0 167 -70t36 -178zM377 152
q115 0 196 59t99 151l6 39h-252q-83 0 -133 -28.5t-60 -83.5q-10 -61 23.5 -99t120.5 -38zM616 0l41 229h-20q-58 -119 -148 -184t-204 -65q-142 0 -214 81t-46 228q21 121 119 189.5t270 68.5h288l13 65q33 197 -158 197q-165 0 -227 -172l-197 57q51 138 160 214.5
t276 76.5q216 0 304.5 -105t56.5 -294l-105 -586h-209z" />
    <glyph glyph-name="aringacute.alt" horiz-adv-x="1017" 
d="M547 1540l-15 111l531 184l20 -168zM588 1278q-7 -51 16.5 -80t73.5 -29q47 0 79.5 27t39.5 74q9 51 -15 79.5t-75 28.5q-46 0 -78 -26.5t-41 -73.5zM913 1260q-15 -91 -83 -146t-166 -55q-105 0 -157.5 63t-33.5 166q15 91 82.5 145t165.5 54q106 0 158.5 -62t33.5 -165
zM377 152q115 0 196 59t99 151l6 39h-252q-83 0 -133 -28.5t-60 -83.5q-10 -61 23.5 -99t120.5 -38zM616 0l41 229h-20q-58 -119 -148 -184t-204 -65q-142 0 -214 81t-46 228q21 121 119 189.5t270 68.5h288l13 65q33 197 -158 197q-165 0 -227 -172l-197 57
q51 138 160 214.5t276 76.5q216 0 304.5 -105t56.5 -294l-105 -586h-209z" />
    <glyph glyph-name="atilde.alt" horiz-adv-x="1017" 
d="M520 1436q45 0 79 -19.5t54.5 -48t38 -56.5t38 -47.5t46.5 -19.5q41 0 64 43t37 137h104q-2 -35 -10 -92q-21 -120 -73.5 -180.5t-127.5 -60.5q-41 0 -73.5 19.5t-52.5 47t-37.5 55t-41 47t-51.5 19.5q-42 0 -64 -39t-40 -137h-103q2 33 10 92q21 119 74.5 179.5
t128.5 60.5zM377 152q115 0 196 59t99 151l6 39h-252q-83 0 -133 -28.5t-60 -83.5q-10 -61 23.5 -99t120.5 -38zM616 0l41 229h-20q-58 -119 -148 -184t-204 -65q-142 0 -214 81t-46 228q21 121 119 189.5t270 68.5h288l13 65q33 197 -158 197q-165 0 -227 -172l-197 57
q51 138 160 214.5t276 76.5q216 0 304.5 -105t56.5 -294l-105 -586h-209z" />
    <glyph glyph-name="G.alt" horiz-adv-x="1277" 
d="M1221 510q-19 -111 -63 -203.5t-116.5 -167.5t-184 -117t-251.5 -42q-308 0 -442 171t-76 498q50 285 221 444.5t443 159.5q249 0 367 -109t138 -317l-223 -41q-8 131 -77 198t-214 67q-350 0 -430 -433q-76 -446 299 -446q322 0 381 299h-344l35 191h563z" />
    <glyph glyph-name="Gbreve.alt" horiz-adv-x="1277" 
d="M1221 510q-19 -111 -63 -203.5t-116.5 -167.5t-184 -117t-251.5 -42q-308 0 -442 171t-76 498q50 285 221 444.5t443 159.5q249 0 367 -109t138 -317l-223 -41q-8 131 -77 198t-214 67q-350 0 -430 -433q-76 -446 299 -446q322 0 381 299h-344l35 191h563zM823 1485
q167 0 211 155h109q-45 -303 -328 -303q-146 0 -212 77.5t-40 225.5h111q-7 -86 32.5 -120.5t116.5 -34.5z" />
    <glyph glyph-name="Gcircumflex.alt" horiz-adv-x="1277" 
d="M1221 510q-19 -111 -63 -203.5t-116.5 -167.5t-184 -117t-251.5 -42q-308 0 -442 171t-76 498q50 285 221 444.5t443 159.5q249 0 367 -109t138 -317l-223 -41q-8 131 -77 198t-214 67q-350 0 -430 -433q-76 -446 299 -446q322 0 381 299h-344l35 191h563zM1044 1317
l-210 166l-273 -166l-59 84l315 248h78l229 -248z" />
    <glyph glyph-name="Gcommaaccent.alt" horiz-adv-x="1277" 
d="M1221 510q-19 -111 -63 -203.5t-116.5 -167.5t-184 -117t-251.5 -42q-308 0 -442 171t-76 498q50 285 221 444.5t443 159.5q249 0 367 -109t138 -317l-223 -41q-8 131 -77 198t-214 67q-350 0 -430 -433q-76 -446 299 -446q322 0 381 299h-344l35 191h563zM494 -109h176
l-176 -313h-140l2 19z" />
    <glyph glyph-name="Gdotaccent.alt" horiz-adv-x="1277" 
d="M1221 510q-19 -111 -63 -203.5t-116.5 -167.5t-184 -117t-251.5 -42q-308 0 -442 171t-76 498q50 285 221 444.5t443 159.5q249 0 367 -109t138 -317l-223 -41q-8 131 -77 198t-214 67q-350 0 -430 -433q-76 -446 299 -446q322 0 381 299h-344l35 191h563zM707 1593h231
l-39 -221h-231z" />
    <glyph glyph-name="g.sc.alt" horiz-adv-x="1202" 
d="M1126 449q-17 -99 -56 -180.5t-105.5 -149t-171.5 -105t-240 -37.5q-277 0 -403.5 161t-75.5 448q43 249 197.5 384.5t410.5 135.5q452 0 475 -375l-221 -41q-9 115 -73 168t-195 53q-307 0 -369 -340q-33 -190 34 -293.5t247 -103.5q158 0 235.5 67.5t99.5 184.5h-315
l29 156h522z" />
    <glyph glyph-name="gbreve.sc.alt" horiz-adv-x="1202" 
d="M1126 449q-17 -99 -56 -180.5t-105.5 -149t-171.5 -105t-240 -37.5q-277 0 -403.5 161t-75.5 448q43 249 197.5 384.5t410.5 135.5q452 0 475 -375l-221 -41q-9 115 -73 168t-195 53q-307 0 -369 -340q-33 -190 34 -293.5t247 -103.5q158 0 235.5 67.5t99.5 184.5h-315
l29 156h522zM733 1366q78 0 131.5 41t79.5 141h111q-29 -169 -109 -248t-219 -79q-145 0 -212.5 81.5t-39.5 245.5h111q-18 -182 147 -182z" />
    <glyph glyph-name="gcircumflex.sc.alt" horiz-adv-x="1202" 
d="M1126 449q-17 -99 -56 -180.5t-105.5 -149t-171.5 -105t-240 -37.5q-277 0 -403.5 161t-75.5 448q43 249 197.5 384.5t410.5 135.5q452 0 475 -375l-221 -41q-9 115 -73 168t-195 53q-307 0 -369 -340q-33 -190 34 -293.5t247 -103.5q158 0 235.5 67.5t99.5 184.5h-315
l29 156h522zM944 1192l-199 199l-270 -199l-72 82l326 291h76l223 -291z" />
    <glyph glyph-name="gcommaaccent.sc.alt" horiz-adv-x="1202" 
d="M1126 449q-17 -99 -56 -180.5t-105.5 -149t-171.5 -105t-240 -37.5q-277 0 -403.5 161t-75.5 448q43 249 197.5 384.5t410.5 135.5q452 0 475 -375l-221 -41q-9 115 -73 168t-195 53q-307 0 -369 -340q-33 -190 34 -293.5t247 -103.5q158 0 235.5 67.5t99.5 184.5h-315
l29 156h522zM446 -109h177l-177 -313h-139l2 19z" />
    <glyph glyph-name="gdotaccent.sc.alt" horiz-adv-x="1202" 
d="M1126 449q-17 -99 -56 -180.5t-105.5 -149t-171.5 -105t-240 -37.5q-277 0 -403.5 161t-75.5 448q43 249 197.5 384.5t410.5 135.5q452 0 475 -375l-221 -41q-9 115 -73 168t-195 53q-307 0 -369 -340q-33 -190 34 -293.5t247 -103.5q158 0 235.5 67.5t99.5 184.5h-315
l29 156h522zM637 1495h231l-39 -221h-231z" />
    <glyph glyph-name="g.alt" horiz-adv-x="1026" 
d="M537 791q-210 0 -238 -160q-15 -78 31 -127t162 -49q217 0 243 163q14 81 -35 127t-163 46zM385 -193q126 0 199.5 14.5t103.5 40t37 68.5q6 44 -22 69.5t-95 25.5h-338q-74 0 -121 -31t-55 -74q-7 -42 14.5 -65.5t87.5 -35.5t189 -12zM899 -90q-16 -92 -71 -148
t-168 -85t-295 -29q-266 0 -368 57t-83 162q10 58 76 98.5t172 59.5v6q-126 25 -107 133q11 71 129 125l88 47q-102 40 -144 121.5t-22 199.5q26 150 146 228t309 78h498l-31 -170h-110q-58 0 -191 10l-6 -21q223 -49 194 -221q-22 -122 -136.5 -190t-299.5 -68
q-97 0 -178 23l-33 -39q-31 -43 -35 -62q-4 -29 16 -41t70 -12q53 0 162 1t160 1q149 0 214.5 -70.5t43.5 -193.5z" />
    <glyph glyph-name="gbreve.alt" horiz-adv-x="1026" 
d="M633 1235q78 0 131.5 41t79.5 141h110q-29 -169 -108.5 -248t-218.5 -79q-145 0 -212.5 81.5t-39.5 245.5h110q-18 -182 148 -182zM537 791q-210 0 -238 -160q-15 -78 31 -127t162 -49q217 0 243 163q14 81 -35 127t-163 46zM385 -193q126 0 199.5 14.5t103.5 40t37 68.5
q6 44 -22 69.5t-95 25.5h-338q-74 0 -121 -31t-55 -74q-7 -42 14.5 -65.5t87.5 -35.5t189 -12zM899 -90q-16 -92 -71 -148t-168 -85t-295 -29q-266 0 -368 57t-83 162q10 58 76 98.5t172 59.5v6q-126 25 -107 133q11 71 129 125l88 47q-102 40 -144 121.5t-22 199.5
q26 150 146 228t309 78h498l-31 -170h-110q-58 0 -191 10l-6 -21q223 -49 194 -221q-22 -122 -136.5 -190t-299.5 -68q-97 0 -178 23l-33 -39q-31 -43 -35 -62q-4 -29 16 -41t70 -12q53 0 162 1t160 1q149 0 214.5 -70.5t43.5 -193.5z" />
    <glyph glyph-name="gcircumflex.alt" horiz-adv-x="1026" 
d="M846 1061l-199 199l-270 -199l-72 82l326 291h76l223 -291zM537 791q-210 0 -238 -160q-15 -78 31 -127t162 -49q217 0 243 163q14 81 -35 127t-163 46zM385 -193q126 0 199.5 14.5t103.5 40t37 68.5q6 44 -22 69.5t-95 25.5h-338q-74 0 -121 -31t-55 -74
q-7 -42 14.5 -65.5t87.5 -35.5t189 -12zM899 -90q-16 -92 -71 -148t-168 -85t-295 -29q-266 0 -368 57t-83 162q10 58 76 98.5t172 59.5v6q-126 25 -107 133q11 71 129 125l88 47q-102 40 -144 121.5t-22 199.5q26 150 146 228t309 78h498l-31 -170h-110q-58 0 -191 10
l-6 -21q223 -49 194 -221q-22 -122 -136.5 -190t-299.5 -68q-97 0 -178 23l-33 -39q-31 -43 -35 -62q-4 -29 16 -41t70 -12q53 0 162 1t160 1q149 0 214.5 -70.5t43.5 -193.5z" />
    <glyph glyph-name="gcommaaccent.alt" horiz-adv-x="1026" 
d="M676 1092h-176l176 311h139l-2 -19zM537 791q-210 0 -238 -160q-15 -78 31 -127t162 -49q217 0 243 163q14 81 -35 127t-163 46zM385 -193q126 0 199.5 14.5t103.5 40t37 68.5q6 44 -22 69.5t-95 25.5h-338q-74 0 -121 -31t-55 -74q-7 -42 14.5 -65.5t87.5 -35.5t189 -12
zM899 -90q-16 -92 -71 -148t-168 -85t-295 -29q-266 0 -368 57t-83 162q10 58 76 98.5t172 59.5v6q-126 25 -107 133q11 71 129 125l88 47q-102 40 -144 121.5t-22 199.5q26 150 146 228t309 78h498l-31 -170h-110q-58 0 -191 10l-6 -21q223 -49 194 -221
q-22 -122 -136.5 -190t-299.5 -68q-97 0 -178 23l-33 -39q-31 -43 -35 -62q-4 -29 16 -41t70 -12q53 0 162 1t160 1q149 0 214.5 -70.5t43.5 -193.5z" />
    <glyph glyph-name="gdotaccent.alt" horiz-adv-x="1026" 
d="M541 1364h231l-39 -221h-231zM537 791q-210 0 -238 -160q-15 -78 31 -127t162 -49q217 0 243 163q14 81 -35 127t-163 46zM385 -193q126 0 199.5 14.5t103.5 40t37 68.5q6 44 -22 69.5t-95 25.5h-338q-74 0 -121 -31t-55 -74q-7 -42 14.5 -65.5t87.5 -35.5t189 -12z
M899 -90q-16 -92 -71 -148t-168 -85t-295 -29q-266 0 -368 57t-83 162q10 58 76 98.5t172 59.5v6q-126 25 -107 133q11 71 129 125l88 47q-102 40 -144 121.5t-22 199.5q26 150 146 228t309 78h498l-31 -170h-110q-58 0 -191 10l-6 -21q223 -49 194 -221
q-22 -122 -136.5 -190t-299.5 -68q-97 0 -178 23l-33 -39q-31 -43 -35 -62q-4 -29 16 -41t70 -12q53 0 162 1t160 1q149 0 214.5 -70.5t43.5 -193.5z" />
    <glyph glyph-name="t.alt" horiz-adv-x="628" 
d="M305 0h-219l137 784h-135l33 179h135l45 260h219l-45 -260h203l-31 -179h-205z" />
    <glyph glyph-name="tbar.alt" horiz-adv-x="628" 
d="M305 0h-219l68 381h-115l22 127h115l47 276h-135l33 179h135l45 260h219l-45 -260h203l-31 -179h-205l-47 -276h176l-22 -127h-176z" />
    <glyph glyph-name="tcaron.alt" horiz-adv-x="641" 
d="M674 1393h153l-100 -330h-119zM305 0h-219l137 784h-135l33 179h135l45 260h219l-45 -260h203l-31 -179h-205z" />
    <glyph glyph-name="tcommaaccent.alt" horiz-adv-x="628" 
d="M305 0h-98l-57 -98q44 12 79 12q68 0 104 -30t25 -95q-9 -52 -61 -92.5t-147 -40.5q-122 0 -201 57l63 82q63 -49 150 -49q82 0 92 53q5 27 -13 41.5t-57 14.5q-34 0 -84 -13l-59 27l72 131h-27l137 784h-135l33 179h135l45 260h219l-45 -260h203l-31 -179h-205z" />
    <glyph glyph-name="uni021B.alt" horiz-adv-x="628" 
d="M305 0h-219l137 784h-135l33 179h135l45 260h219l-45 -260h203l-31 -179h-205zM113 -109h176l-176 -313h-140l2 19z" />
    <glyph glyph-name="zero.sc" horiz-adv-x="1101" 
d="M621 913q-134 0 -216 -93.5t-112 -266.5q-32 -182 20 -284.5t189 -102.5q134 0 216.5 97t112.5 272q33 182 -19 280t-191 98zM635 1106q245 0 357 -157.5t61 -434.5q-46 -258 -191.5 -398.5t-369.5 -140.5q-249 0 -360.5 159t-61.5 439q45 255 194.5 394t370.5 139z" />
    <glyph glyph-name="one.sc" horiz-adv-x="903" 
d="M756 0h-764l35 186h305l125 701q-137 -65 -287 -117l-47 184l446 129h140l-158 -897h237z" />
    <glyph glyph-name="two.sc" horiz-adv-x="1085" 
d="M645 924q-118 0 -192 -66t-115 -199l-207 35q61 200 188 306t338 106q217 0 320 -96.5t70 -280.5q-13 -72 -54 -127.5t-110 -95.5t-151 -67t-193 -50q-180 -44 -249.5 -88t-90.5 -135q200 22 354 22h405l-32 -188h-949q5 44 19 117q31 181 136.5 272.5t324.5 145.5
q209 52 283.5 95.5t86.5 119.5q14 77 -32.5 125.5t-149.5 48.5z" />
    <glyph glyph-name="three.sc" horiz-adv-x="1073" 
d="M496 -18q-450 0 -459 356l219 22q5 -101 64.5 -152.5t191.5 -51.5q109 0 171.5 40.5t74.5 114.5q14 80 -27 117t-164 37h-192l26 153h189q187 0 213 142q15 84 -31 125t-151 41t-167.5 -49t-97.5 -146l-209 21q55 170 174 260t320 90q214 0 308.5 -84t66.5 -240
q-17 -93 -90 -147t-203 -76l-4 -20q162 -17 218.5 -80t35.5 -187q-24 -134 -142 -210t-335 -76z" />
    <glyph glyph-name="four.sc" horiz-adv-x="1103" 
d="M1020 250h-156l-43 -250h-217l43 250h-647l27 156l712 677h273l-117 -661h156zM586 422h92l84 483l-12 4l-512 -495l6 -11q195 19 342 19z" />
    <glyph glyph-name="five.sc" horiz-adv-x="1085" 
d="M502 156q230 0 258 166q18 92 -31.5 139t-171.5 47q-148 0 -258 -68l-166 68l100 575h820l-37 -206q-331 0 -617 20l-55 -309q125 71 291 71q195 0 283.5 -94.5t58.5 -259.5q-59 -323 -479 -323q-210 0 -327.5 74.5t-147.5 234.5l215 43q47 -178 264 -178z" />
    <glyph glyph-name="six.sc" 
d="M580 522q-132 0 -207 -47.5t-86 -118.5q-16 -86 41 -141t182 -55q236 0 264 178q15 90 -31 137t-163 47zM987 311q-27 -158 -150.5 -244.5t-332.5 -86.5q-527 0 -420 598q20 114 63.5 207t111.5 166t167.5 113t222.5 40q109 0 186 -25t121 -73t64.5 -108t23.5 -140
l-219 -23q-6 96 -49.5 141.5t-148.5 45.5q-146 0 -228.5 -105.5t-122.5 -335.5q-1 -5 -4 -19t-4 -22l23 -4q104 219 379 219q65 0 118.5 -12t97.5 -37.5t70 -65.5t36 -97t-5 -132z" />
    <glyph glyph-name="seven.sc" horiz-adv-x="985" 
d="M98 881l35 202h936l-35 -196q-434 -361 -559 -887h-264q62 258 223 488.5t397 408.5q-174 -16 -350 -16h-383z" />
    <glyph glyph-name="eight.sc" horiz-adv-x="1079" 
d="M467 -20q-250 0 -355 87t-79 232q36 196 340 240l4 20q-241 55 -203 272q50 273 455 273q225 0 321.5 -81.5t69.5 -231.5q-32 -186 -291 -234l-4 -20q293 -47 254 -275q-51 -282 -512 -282zM537 467q-253 0 -279 -150q-14 -78 42.5 -119.5t184.5 -41.5q125 0 195 38.5
t82 108.5q14 76 -35 120t-190 44zM616 924q-112 0 -169.5 -37t-69.5 -111q-15 -83 34.5 -122.5t151.5 -39.5q216 0 244 156q12 77 -33 115.5t-158 38.5z" />
    <glyph glyph-name="nine.sc" horiz-adv-x="1089" 
d="M537 549q127 0 201 48t87 122q14 90 -43.5 147.5t-183.5 57.5q-227 0 -258 -179q-15 -94 35 -145t162 -51zM473 -20q-116 0 -199 22t-132.5 65.5t-73.5 100t-29 131.5l205 35q6 -88 62 -131t169 -43q150 0 234.5 104.5t124.5 331.5q1 5 3 16.5t3 16.5l-23 4
q-111 -217 -379 -217q-166 0 -254.5 89t-56.5 267q28 158 150.5 245t328.5 87q80 0 145.5 -13t121.5 -41.5t92.5 -74t60 -111t23.5 -152.5t-17 -198q-21 -116 -63 -210t-109 -168t-165.5 -115t-221.5 -41z" />
    <glyph glyph-name="periodcentered.sc" horiz-adv-x="417" 
d="M113 668h256l-43 -250h-256z" />
    <glyph glyph-name="bullet.sc" horiz-adv-x="569" 
d="M133 745h385l-65 -374h-385z" />
    </font>
</defs>
</svg>
