<?xml version="1.0" standalone="no"?>
<!DOCTYPE svg PUBLIC "-//W3C//DTD SVG 1.1//EN" "http://www.w3.org/Graphics/SVG/1.1/DTD/svg11.dtd" >
<svg xmlns="http://www.w3.org/2000/svg" xmlns:xlink="http://www.w3.org/1999/xlink" version="1.1">
<metadata>
Created by FontForge 20170731 at Sun Aug  4 23:51:22 2013
 By Aleksey,,,
Copyright 2011 Schwartzco Inc dba Commercial Type.
</metadata>
<defs>
<font id="NeueHaasDisplay-Light" horiz-adv-x="500" >
  <font-face 
    font-family="Neue Haas Grotesk Display Pro"
    font-weight="400"
    font-stretch="normal"
    units-per-em="1000"
    panose-1="2 13 3 4 3 5 2 5 2 3"
    ascent="818"
    descent="-182"
    x-height="517"
    cap-height="715"
    bbox="-183 -214 1106 914"
    underline-thickness="50"
    underline-position="-350"
    unicode-range="U+0020-FB04"
  />
<missing-glyph 
 />
    <glyph glyph-name="f_f" unicode="ff" horiz-adv-x="494" 
d="M91 0v466h-75v51h75v87q0 111 121 111q30 0 34 -1v-53h-27q-37 0 -52 -14t-15 -45v-85h163v92q0 111 121 111q4 0 18.5 -0.5t16.5 -0.5v-53h-27q-37 0 -52 -14.5t-15 -44.5v-90h96v-51h-96v-466h-62v466h-163v-466h-61z" />
    <glyph glyph-name="fi" unicode="fi" horiz-adv-x="430" 
d="M91 0v466h-75v51h75v92q0 111 121 111q4 0 18.5 -0.5t16.5 -0.5v-53h-27q-38 0 -53 -14.5t-15 -44.5v-90h96v-51h-96v-466h-61zM315 0v517h62v-517h-62zM315 627v88h62v-88h-62z" />
    <glyph glyph-name="fl" unicode="fl" horiz-adv-x="433" 
d="M91 0v466h-75v51h75v92q0 111 121 111q4 0 18.5 -0.5t16.5 -0.5v-53h-27q-38 0 -53 -14.5t-15 -44.5v-90h96v-51h-96v-466h-61zM316 0v715h62v-715h-62z" />
    <glyph glyph-name="f_f_i" unicode="ffi" horiz-adv-x="654" 
d="M91 0v466h-75v51h75v87q0 111 121 111q30 0 34 -1v-53h-27q-37 0 -52 -14t-15 -45v-85h163v92q0 111 121 111q4 0 18.5 -0.5t16.5 -0.5v-53h-27q-37 0 -52 -14.5t-15 -44.5v-90h96v-51h-96v-466h-62v466h-163v-466h-61zM539 0v517h62v-517h-62zM539 627v88h62v-88h-62z
" />
    <glyph glyph-name="f_f_l" unicode="ffl" horiz-adv-x="657" 
d="M91 0v466h-75v51h75v87q0 111 121 111q30 0 34 -1v-53h-27q-37 0 -52 -14t-15 -45v-85h163v92q0 111 121 111q4 0 18.5 -0.5t16.5 -0.5v-53h-27q-37 0 -52 -14.5t-15 -44.5v-90h96v-51h-96v-466h-62v466h-163v-466h-61zM541 0v715h61v-715h-61z" />
    <glyph glyph-name=".notdef" 
 />
    <glyph glyph-name=".null" horiz-adv-x="0" 
 />
    <glyph glyph-name="nonmarkingreturn" horiz-adv-x="333" 
 />
    <glyph glyph-name="space" unicode=" " horiz-adv-x="150" 
 />
    <glyph glyph-name="exclam" unicode="!" horiz-adv-x="212" 
d="M87 173l-15 313v229h68v-229l-14 -313h-39zM68 0v87h76v-87h-76z" />
    <glyph glyph-name="quotedbl" unicode="&#x22;" horiz-adv-x="276" 
d="M43 501v214h59v-214h-59zM174 501v214h59v-214h-59z" />
    <glyph glyph-name="numbersign" unicode="#" horiz-adv-x="562" 
d="M107 0l28 207h-102l8 55h101l24 170h-101l8 55h101l28 199h54l-27 -199h144l28 199h55l-28 -199h101l-8 -55h-101l-24 -170h100l-8 -55h-99l-28 -207h-55l28 207h-144l-29 -207h-54zM197 262h145l23 170h-144z" />
    <glyph glyph-name="dollar" unicode="$" horiz-adv-x="555" 
d="M257 -85v87q-111 8 -171 70t-65 156h63q5 -75 49.5 -120.5t123.5 -52.5v283q-107 23 -157.5 61t-50.5 120q0 79 57 128t151 53v57h46v-57q90 -7 141.5 -56t60.5 -129h-61q-7 57 -44 91t-97 40v-257q53 -11 88 -22.5t68 -32.5t49 -54.5t16 -80.5q0 -85 -61.5 -139.5
t-159.5 -58.5v-86h-46zM257 398v249q-68 -4 -107.5 -38t-39.5 -88q0 -52 33.5 -78.5t113.5 -44.5zM303 54q68 4 112.5 41.5t44.5 99.5q0 59 -35 86.5t-122 46.5v-274z" />
    <glyph glyph-name="percent" unicode="%" horiz-adv-x="799" 
d="M184 357q43 0 69 38.5t26 109.5q0 69 -27 108t-68 39q-43 0 -69 -38t-26 -109q0 -70 26.5 -109t68.5 -39zM184 310q-68 0 -111 52.5t-43 142.5t44 142.5t110 52.5t109 -52t43 -143q0 -90 -42.5 -142.5t-109.5 -52.5zM175 0l395 685h54l-394 -685h-55zM616 34q43 0 69 38
t26 109q0 69 -26.5 108.5t-68.5 39.5t-68.5 -38.5t-26.5 -109.5q0 -69 26.5 -108t68.5 -39zM616 -14q-67 0 -110 52.5t-43 142.5q0 91 43.5 143t109.5 52t109.5 -51.5t43.5 -143.5q0 -90 -42.5 -142.5t-110.5 -52.5z" />
    <glyph glyph-name="ampersand" unicode="&#x26;" horiz-adv-x="577" 
d="M245 -13q-89 0 -151 52t-62 138q0 76 41.5 123.5t122.5 93.5l-18 23q-58 76 -58 147q0 60 43 101t107 41q62 0 104.5 -39t42.5 -107q0 -60 -35.5 -98.5t-103.5 -77.5l159 -205q27 65 28 146h57q0 -109 -46 -196l100 -129h-75l-60 77q-74 -90 -196 -90zM247 424
q57 33 82.5 64t25.5 74q0 42 -23.5 66.5t-61.5 24.5t-63 -24.5t-25 -65.5q0 -53 43 -110zM248 42q98 0 158 81l-179 230q-64 -38 -97 -76.5t-33 -99.5q0 -60 42 -97.5t109 -37.5z" />
    <glyph glyph-name="quotesingle" unicode="'" horiz-adv-x="145" 
d="M43 501v214h59v-214h-59z" />
    <glyph glyph-name="parenleft" unicode="(" horiz-adv-x="284" 
d="M210 -118q-137 212 -137 453q0 224 137 419h54q-120 -197 -120 -419q0 -247 120 -453h-54z" />
    <glyph glyph-name="parenright" unicode=")" horiz-adv-x="284" 
d="M20 -118q120 203 120 433q0 241 -120 439h54q138 -204 138 -439q0 -231 -138 -433h-54z" />
    <glyph glyph-name="asterisk" unicode="*" horiz-adv-x="360" 
d="M112 443l-35 26l64 91l-100 35l15 39l100 -35v116h47v-116l101 35l15 -39l-100 -35l64 -91l-36 -26l-67 98z" />
    <glyph glyph-name="plus" unicode="+" horiz-adv-x="530" 
d="M237 105v194h-182v54h182v192h56v-192h182v-54h-182v-194h-56z" />
    <glyph glyph-name="comma" unicode="," horiz-adv-x="160" 
d="M42 -108v36q34 13 34 68v4h-34v87h76v-90q0 -90 -76 -105z" />
    <glyph glyph-name="hyphen" unicode="-" horiz-adv-x="326" 
d="M35 252v56h256v-56h-256z" />
    <glyph glyph-name="period" unicode="." horiz-adv-x="160" 
d="M42 0v87h76v-87h-76z" />
    <glyph glyph-name="slash" unicode="/" horiz-adv-x="381" 
d="M16 0l284 715h65l-284 -715h-65z" />
    <glyph glyph-name="zero" unicode="0" horiz-adv-x="583" 
d="M292 42q92 0 139 79t47 222q0 140 -48.5 221t-137.5 81q-90 0 -138.5 -79.5t-48.5 -222.5q0 -140 48.5 -220.5t138.5 -80.5zM291 -14q-120 0 -186.5 96t-66.5 261q0 166 68.5 261.5t185.5 95.5t185 -95t68 -262q0 -166 -66.5 -261.5t-187.5 -95.5z" />
    <glyph glyph-name="one" unicode="1" horiz-adv-x="327" 
d="M177 0v515h-144v44q80 4 115.5 30.5t44.5 99.5h49v-689h-65z" />
    <glyph glyph-name="two" unicode="2" horiz-adv-x="520" 
d="M32 0q1 37 9 70t18 56.5t32 49t35 39t44.5 35.5t44 29.5l47.5 28.5q87 52 112 77q45 45 45 113t-40 107t-108 39q-73 0 -114 -44q-42 -46 -43 -135h-66q0 111 61 172q62 62 166 62q95 0 152.5 -56.5t57.5 -142.5q0 -46 -12.5 -81t-44 -64.5t-53 -44.5t-69.5 -43
q-5 -3 -7 -4.5t-6 -3.5t-7 -4q-39 -23 -61 -38t-51.5 -40t-46 -54t-21.5 -63h370v-60h-444z" />
    <glyph glyph-name="three" unicode="3" horiz-adv-x="529" 
d="M267 -14q-105 0 -173.5 61t-69.5 165h65q3 -81 50.5 -125t126.5 -44q77 0 120.5 40t43.5 110q0 68 -44.5 106t-124.5 38h-48v53h47q70 0 108.5 34t38.5 93q0 61 -39.5 95.5t-102.5 34.5q-72 0 -113.5 -46t-41.5 -118h-64q1 97 60 157t161 60q88 0 146 -49.5t58 -133.5
q0 -108 -103 -149v-3q128 -41 128 -177q0 -93 -63.5 -147.5t-165.5 -54.5z" />
    <glyph glyph-name="four" unicode="4" horiz-adv-x="537" 
d="M344 0v175h-320v60l329 457h54v-463h106v-54h-106v-175h-63zM89 229h255v354h-2l-253 -351v-3z" />
    <glyph glyph-name="five" unicode="5" horiz-adv-x="512" 
d="M252 -14q-97 0 -160.5 55.5t-65.5 143.5h64q18 -140 161 -140q75 0 118.5 48.5t43.5 127.5q0 78 -44 124t-114 46q-102 0 -150 -70h-62l61 364h341v-58h-294l-38 -234h2q60 55 151 55q89 0 151 -61t62 -168q0 -104 -62.5 -168.5t-164.5 -64.5z" />
    <glyph glyph-name="six" unicode="6" horiz-adv-x="544" 
d="M289 -14q-95 0 -159 58q-92 83 -92 303q0 158 66.5 255.5t188.5 97.5q86 0 137 -50t60 -128h-65q-5 54 -40 88t-91 34q-97 0 -145 -83.5t-47 -230.5h2q64 111 187 111q94 0 155.5 -63.5t61.5 -159.5q1 -98 -61 -165t-158 -67zM287 40q70 0 114 49.5t44 126.5
q0 76 -44 123.5t-114 47.5q-73 0 -120.5 -48.5t-47.5 -124.5q0 -78 46.5 -126t121.5 -48z" />
    <glyph glyph-name="seven" unicode="7" horiz-adv-x="489" 
d="M128 0q14 177 90.5 348.5t185.5 276.5v2h-381v58h448v-56q-108 -105 -183 -270.5t-90 -358.5h-70z" />
    <glyph glyph-name="eight" unicode="8" horiz-adv-x="547" 
d="M275 -14q-101 0 -172 54t-71 152q0 68 36.5 113t98.5 67v3q-48 19 -75 57.5t-27 91.5q0 77 59.5 126.5t148.5 49.5q92 0 150 -50t58 -126q0 -52 -27.5 -90.5t-75.5 -57.5v-3q59 -19 97.5 -67.5t38.5 -113.5q0 -99 -69 -152.5t-170 -53.5zM275 41q80 0 127 42t47 109
q0 69 -47.5 111t-129.5 42q-81 0 -127 -42t-46 -111q0 -68 46.5 -109.5t129.5 -41.5zM272 398q66 0 105.5 35t39.5 88q0 55 -38.5 90t-105.5 35t-105.5 -35t-38.5 -90q0 -54 38 -88.5t105 -34.5z" />
    <glyph glyph-name="nine" unicode="9" horiz-adv-x="543" 
d="M256 -14q-90 0 -147 49.5t-62 132.5h66q5 -58 42.5 -92t98.5 -34q76 0 118 45q69 71 71 265h-2q-61 -107 -187 -107q-94 0 -156 63.5t-62 159.5q-1 98 63 165t161 67q89 0 153 -54q51 -42 72 -116.5t21 -190.5q0 -204 -90 -293q-62 -60 -160 -60zM259 299q74 0 121 48
t47 124q0 78 -46.5 126.5t-119.5 48.5q-72 0 -117 -49.5t-45 -126.5q0 -76 44.5 -123.5t115.5 -47.5z" />
    <glyph glyph-name="colon" unicode=":" horiz-adv-x="168" 
d="M46 0v87h76v-87h-76zM46 307v87h76v-87h-76z" />
    <glyph glyph-name="semicolon" unicode=";" horiz-adv-x="168" 
d="M46 -108v36q34 13 34 68v4h-34v87h76v-90q0 -90 -76 -105zM46 307v87h76v-87h-76z" />
    <glyph glyph-name="less" unicode="&#x3c;" horiz-adv-x="499" 
d="M445 109l-395 169v67l395 169v-59l-343 -142v-2l343 -143v-59z" />
    <glyph glyph-name="equal" unicode="=" horiz-adv-x="530" 
d="M55 204v53h420v-53h-420zM55 364v53h420v-53h-420z" />
    <glyph glyph-name="greater" unicode="&#x3e;" horiz-adv-x="499" 
d="M54 109v59l343 142v2l-343 143v59l395 -169v-67z" />
    <glyph glyph-name="question" unicode="?" horiz-adv-x="497" 
d="M199 173q0 82 22 127.5t80 94.5q24 20 34 30t26 29.5t22.5 41t6.5 48.5q0 57 -37.5 92.5t-100.5 35.5q-75 0 -117 -46.5t-44 -121.5h-64q2 95 59.5 159.5t168.5 64.5q92 0 147 -52t55 -131q0 -46 -18 -83.5t-34.5 -54t-51.5 -45.5q-58 -48 -76 -82.5t-18 -106.5h-60z
M191 0v87h75v-87h-75z" />
    <glyph glyph-name="at" unicode="@" horiz-adv-x="870" 
d="M434 -102q-180 0 -288 107t-108 284q0 129 61 227.5t154.5 147t200.5 48.5q74 0 141 -24t120.5 -69t85 -115.5t31.5 -157.5q0 -115 -47 -185.5t-131 -70.5q-45 0 -72 22t-34 54h-2q-21 -38 -61 -61.5t-86 -23.5q-76 0 -120.5 52t-44.5 137q0 114 57 183.5t143 69.5
q91 0 128 -77h3l10 68h56l-34 -280q-6 -44 9 -69.5t50 -25.5q56 0 88.5 54t32.5 151q0 153 -90.5 235t-234.5 82q-149 0 -253.5 -102t-104.5 -270q0 -155 89 -248t250 -93q94 0 191 38l18 -45q-99 -43 -208 -43zM402 130q73 0 110 58t37 148q0 64 -28 101t-86 37
q-66 0 -102.5 -57.5t-36.5 -145.5q0 -64 26 -102.5t80 -38.5z" />
    <glyph glyph-name="A" unicode="A" horiz-adv-x="634" 
d="M8 0l270 715h76l272 -715h-72l-83 225h-311l-84 -225h-68zM180 280h271l-98 267l-36 104h-2q-19 -61 -35 -104z" />
    <glyph glyph-name="B" unicode="B" horiz-adv-x="623" 
d="M64 0v715h297q97 0 152 -52q52 -47 52 -128q0 -117 -109 -155v-3q64 -18 101.5 -62.5t37.5 -113.5q0 -86 -52 -140q-59 -61 -169 -61h-310zM131 61h239q78 0 121 41q36 36 36 98q0 67 -42.5 105t-114.5 38h-239v-282zM131 401h229q65 0 101 35t36 94q0 60 -36 93t-99 33
h-231v-255z" />
    <glyph glyph-name="C" unicode="C" horiz-adv-x="677" 
d="M358 -13q-148 0 -235 102t-87 268q0 165 88 269t237 104q112 0 184.5 -58t90.5 -159h-66q-15 72 -70 115.5t-140 43.5q-121 0 -187.5 -88.5t-66.5 -226.5t66.5 -224.5t186.5 -86.5q99 0 157 60t67 154h65q-6 -113 -74 -187q-77 -86 -216 -86z" />
    <glyph glyph-name="D" unicode="D" horiz-adv-x="660" 
d="M131 59h178q124 0 184.5 77.5t60.5 218.5q0 301 -238 301h-185v-597zM64 0v715h254q153 0 229.5 -97t76.5 -263q0 -164 -79.5 -259.5t-233.5 -95.5h-247z" />
    <glyph glyph-name="E" unicode="E" horiz-adv-x="598" 
d="M64 0v715h486v-59h-419v-257h384v-58h-384v-279h430v-62h-497z" />
    <glyph glyph-name="F" unicode="F" horiz-adv-x="556" 
d="M64 0v715h466v-59h-399v-254h340v-58h-340v-344h-67z" />
    <glyph glyph-name="G" unicode="G" horiz-adv-x="722" 
d="M364 -14q-153 0 -240.5 103t-87.5 268q0 163 90 267.5t248 104.5q112 0 187.5 -57t94.5 -164h-69q-16 79 -73 121t-140 42q-132 0 -200 -88t-68 -226q0 -137 68 -224.5t191 -87.5q117 0 176.5 68.5t59.5 169.5v25h-230v59h296v-367h-47l-14 114h-3q-82 -128 -239 -128z
" />
    <glyph glyph-name="H" unicode="H" horiz-adv-x="667" 
d="M64 0v715h67v-309h405v309h67v-715h-67v350h-405v-350h-67z" />
    <glyph glyph-name="I" unicode="I" horiz-adv-x="202" 
d="M67 0v715h67v-715h-67z" />
    <glyph glyph-name="J" unicode="J" horiz-adv-x="475" 
d="M224 -13q-202 0 -202 212v27h66v-24q0 -85 34 -121.5t104 -36.5q123 0 123 132v539h67v-544q0 -82 -49 -133t-143 -51z" />
    <glyph glyph-name="K" unicode="K" horiz-adv-x="625" 
d="M64 0v715h67v-381l386 381h87l-299 -291l317 -424h-80l-283 378l-128 -126v-252h-67z" />
    <glyph glyph-name="L" unicode="L" horiz-adv-x="536" 
d="M64 0v715h67v-653h381v-62h-448z" />
    <glyph glyph-name="M" unicode="M" horiz-adv-x="803" 
d="M64 0v715h91l247 -624h2l241 624h94v-715h-65v623h-2q-19 -57 -34 -97l-207 -526h-59l-209 526l-35 97h-2v-623h-62z" />
    <glyph glyph-name="N" unicode="N" horiz-adv-x="667" 
d="M64 0v715h73l329 -502q16 -24 34 -53.5t28 -47.5l9 -17h2v620h64v-715h-70l-328 496l-75 121h-2v-617h-64z" />
    <glyph glyph-name="O" unicode="O" horiz-adv-x="738" 
d="M368 46q125 0 194.5 88.5t69.5 223.5t-69.5 223.5t-194.5 88.5q-124 0 -193 -88.5t-69 -223.5t69 -223.5t193 -88.5zM368 -14q-149 0 -240.5 105t-91.5 267t91.5 267t240.5 105q150 0 242 -105t92 -267t-92 -267t-242 -105z" />
    <glyph glyph-name="P" unicode="P" horiz-adv-x="586" 
d="M64 0v715h281q109 0 168 -62q50 -53 50 -138q0 -100 -57.5 -152t-169.5 -52h-205v-311h-67zM131 368h200q164 0 164 145q0 69 -40.5 106t-117.5 37h-206v-288z" />
    <glyph glyph-name="Q" unicode="Q" horiz-adv-x="738" 
d="M368 46q72 0 126 31l-77 64l36 45l90 -73q89 84 89 245q0 135 -69.5 223.5t-194.5 88.5q-124 0 -193 -88.5t-69 -223.5t69 -223.5t193 -88.5zM649 -49l-104 85q-77 -50 -177 -50q-149 0 -240.5 105t-91.5 267t91.5 267t240.5 105q150 0 242 -105t92 -267
q0 -180 -110 -285l94 -76z" />
    <glyph glyph-name="R" unicode="R" horiz-adv-x="631" 
d="M64 0v715h319q96 0 149.5 -51.5t53.5 -141.5q0 -134 -120 -172v-3q54 -18 76.5 -61.5t26.5 -128.5q6 -136 31 -153v-4h-72q-12 8 -16.5 38t-9.5 122q-4 91 -38.5 125t-114.5 34h-218v-319h-67zM131 376h229q77 0 117 36.5t40 103.5q0 69 -35 104.5t-113 35.5h-238v-280z
" />
    <glyph glyph-name="S" unicode="S" horiz-adv-x="599" 
d="M312 -13q-135 0 -209 67.5t-80 177.5h67q5 -90 63.5 -139.5t159.5 -49.5q81 0 132 39.5t51 110.5t-47.5 101t-172.5 55q-112 22 -168.5 63t-56.5 128q0 85 66 137t173 52q115 0 178.5 -56.5t73.5 -152.5h-65q-9 74 -58.5 113.5t-127.5 39.5q-81 0 -128 -35.5t-47 -95.5
t44.5 -87.5t149.5 -47.5q49 -9 81 -17.5t68 -25t56.5 -37.5t34.5 -54t14 -77q0 -95 -69.5 -152t-182.5 -57z" />
    <glyph glyph-name="T" unicode="T" horiz-adv-x="588" 
d="M261 0v655h-242v60h550v-60h-241v-655h-67z" />
    <glyph glyph-name="U" unicode="U" horiz-adv-x="636" 
d="M316 -11q-121 0 -190.5 59.5t-69.5 178.5v488h67v-482q0 -186 196 -186q195 0 195 186v482h67v-488q0 -120 -71.5 -179t-193.5 -59z" />
    <glyph glyph-name="V" unicode="V" horiz-adv-x="604" 
d="M264 0l-256 715h70l185 -528l38 -118h2q23 77 39 121l186 525h68l-259 -715h-73z" />
    <glyph glyph-name="W" unicode="W" horiz-adv-x="880" 
d="M202 0l-190 715h69l124 -482l33 -141h2q20 86 34 137l131 486h72l131 -485l33 -138h2q20 88 33 141l125 482h67l-194 -715h-68l-136 521l-28 116h-2q-15 -70 -27 -116l-140 -521h-71z" />
    <glyph glyph-name="X" unicode="X" horiz-adv-x="590" 
d="M12 0l246 365l-232 350h77l195 -302h2l193 302h74l-231 -351l242 -364h-79l-203 316h-2l-206 -316h-76z" />
    <glyph glyph-name="Y" unicode="Y" horiz-adv-x="600" 
d="M265 0v312l-258 403h74l218 -346h2l220 346h72l-260 -405v-310h-68z" />
    <glyph glyph-name="Z" unicode="Z" horiz-adv-x="593" 
d="M26 0v65l437 590v3h-410v57h491v-57l-440 -595v-3h456v-60h-534z" />
    <glyph glyph-name="bracketleft" unicode="[" horiz-adv-x="288" 
d="M80 -118v872h175v-53h-111v-764h111v-55h-175z" />
    <glyph glyph-name="backslash" unicode="\" horiz-adv-x="381" 
d="M300 0l-284 715h65l284 -715h-65z" />
    <glyph glyph-name="bracketright" unicode="]" horiz-adv-x="288" 
d="M33 -118v55h111v764h-111v53h175v-872h-175z" />
    <glyph glyph-name="asciicircum" unicode="^" horiz-adv-x="410" 
d="M12 446l157 269h72l157 -269h-66l-126 220h-2l-127 -220h-65z" />
    <glyph glyph-name="underscore" unicode="_" horiz-adv-x="384" 
d="M-2 -166v49h388v-49h-388z" />
    <glyph glyph-name="grave" unicode="`" 
d="M237 592l-94 127h82l66 -127h-54z" />
    <glyph glyph-name="a" unicode="a" horiz-adv-x="499" 
d="M192 -12q-75 0 -122 37t-47 107q0 44 15.5 74.5t48 47.5t66 25.5t83.5 14.5q84 10 111.5 21.5t27.5 48.5v10q0 104 -124 104q-138 0 -145 -115h-61q5 77 57 121t149 44q183 0 183 -160v-281q0 -43 34 -45q5 0 23 4h3v-45q-18 -8 -42 -8q-72 0 -76 73v11h-3
q-63 -89 -181 -89zM203 38q80 0 126.5 45.5t46.5 103.5v93q-38 -21 -134 -34q-32 -4 -50.5 -8t-41 -12t-34 -19t-20 -30t-8.5 -45q0 -94 115 -94z" />
    <glyph glyph-name="b" unicode="b" horiz-adv-x="530" 
d="M287 -14q-111 0 -171 92h-2v-78h-62v715h62v-287h2q60 100 175 100q95 0 154 -72.5t59 -198.5q0 -121 -58.5 -196t-158.5 -75zM284 38q76 0 116.5 61t40.5 157q0 99 -41.5 159.5t-116.5 60.5q-83 0 -128.5 -62t-45.5 -158q0 -99 45.5 -158.5t129.5 -59.5z" />
    <glyph glyph-name="c" unicode="c" horiz-adv-x="491" 
d="M260 -13q-110 0 -172.5 76t-62.5 195t63 195t173 76q86 0 140.5 -44.5t67.5 -123.5h-62q-23 116 -146 116q-85 0 -128.5 -61.5t-43.5 -157.5t43.5 -157t127.5 -61q65 0 105 37.5t48 100.5h59q-9 -89 -65 -140t-147 -51z" />
    <glyph glyph-name="d" unicode="d" horiz-adv-x="532" 
d="M248 -14q-103 0 -163 75t-60 196q0 125 63 198t158 73q117 0 170 -97h2v284h62v-715h-62v77h-2q-59 -91 -168 -91zM250 38q83 0 128 59.5t45 158.5q0 98 -45.5 159t-127.5 61q-75 0 -118 -60.5t-43 -159.5q0 -96 41.5 -157t119.5 -61z" />
    <glyph glyph-name="e" unicode="e" horiz-adv-x="508" 
d="M266 -13q-113 0 -177 75.5t-64 195.5q0 118 65 194.5t171 76.5q60 0 104.5 -23t69.5 -64t36.5 -89.5t11.5 -105.5h-394q2 -92 47 -149.5t130 -57.5q118 0 151 116h60q-17 -78 -71.5 -123.5t-139.5 -45.5zM90 296h328q-2 81 -41.5 131.5t-115.5 50.5q-75 0 -118.5 -50
t-52.5 -132z" />
    <glyph glyph-name="f" unicode="f" horiz-adv-x="269" 
d="M91 0v466h-75v51h75v92q0 111 121 111q4 0 18.5 -0.5t16.5 -0.5v-53h-27q-38 0 -53 -14.5t-15 -44.5v-90h96v-51h-96v-466h-61z" />
    <glyph glyph-name="g" unicode="g" horiz-adv-x="527" 
d="M254 -181q-92 0 -146 37.5t-61 97.5h60q15 -84 145 -84q81 0 121.5 39t40.5 109v82h-3q-59 -90 -164 -90q-101 0 -161.5 71.5t-60.5 186.5q0 121 64 190.5t158 69.5q109 0 164 -91h3v80h61v-497q0 -86 -48 -139q-59 -62 -173 -62zM250 62q84 0 126 55.5t42 151.5
q0 95 -42.5 151t-124.5 56q-76 0 -119 -56.5t-43 -152.5q0 -92 41 -148.5t120 -56.5z" />
    <glyph glyph-name="h" unicode="h" horiz-adv-x="505" 
d="M55 0v715h62v-277h2q61 90 173 90q74 0 119.5 -42.5t45.5 -118.5v-367h-62v361q0 114 -118 114q-67 0 -113.5 -42t-46.5 -105v-328h-62z" />
    <glyph glyph-name="i" unicode="i" horiz-adv-x="169" 
d="M54 0v517h62v-517h-62zM54 627v88h62v-88h-62z" />
    <glyph glyph-name="j" unicode="j" horiz-adv-x="169" 
d="M-20 -157v52h1q4 -1 17 -1q56 0 56 59v564h62v-567q0 -60 -28 -84t-82 -24q-21 0 -26 1zM54 627v88h62v-88h-62z" />
    <glyph glyph-name="k" unicode="k" horiz-adv-x="476" 
d="M52 0v715h62v-447l257 249h79l-198 -187l222 -330h-72l-193 290l-95 -91v-199h-62z" />
    <glyph glyph-name="l" unicode="l" horiz-adv-x="172" 
d="M55 0v715h62v-715h-62z" />
    <glyph glyph-name="m" unicode="m" horiz-adv-x="784" 
d="M52 0v517h62v-78h2q56 89 157 89q49 0 86 -24.5t52 -69.5h2q54 94 166 94q68 0 112 -42.5t44 -118.5v-367h-61v362q0 56 -30 84.5t-79 28.5q-59 0 -99.5 -39.5t-40.5 -106.5v-329h-62v362q0 56 -28.5 84.5t-75.5 28.5q-57 0 -101 -42.5t-44 -103.5v-329h-62z" />
    <glyph glyph-name="n" unicode="n" horiz-adv-x="502" 
d="M52 0v517h62v-79h2q61 90 173 90q74 0 119.5 -42.5t45.5 -118.5v-367h-62v361q0 114 -118 114q-67 0 -113.5 -42t-46.5 -105v-328h-62z" />
    <glyph glyph-name="o" unicode="o" horiz-adv-x="529" 
d="M265 39q83 0 129 62t46 157t-46 157t-129 62q-84 0 -130 -62t-46 -157t46 -157t130 -62zM265 -13q-110 0 -175 76.5t-65 194.5t65 194.5t175 76.5q109 0 173.5 -76.5t64.5 -194.5t-64.5 -194.5t-173.5 -76.5z" />
    <glyph glyph-name="p" unicode="p" horiz-adv-x="530" 
d="M52 -166v683h62v-89h2q59 100 175 100q95 0 154.5 -72t59.5 -198q0 -121 -58.5 -196t-159.5 -75q-111 0 -171 88h-2v-241h-62zM284 39q76 0 117 61.5t41 156.5q0 99 -41.5 159t-117.5 60q-83 0 -128.5 -62t-45.5 -158q0 -99 44.5 -158t130.5 -59z" />
    <glyph glyph-name="q" unicode="q" horiz-adv-x="532" 
d="M418 -166v243h-2q-61 -90 -169 -90q-103 0 -161.5 74.5t-58.5 195.5q0 125 62.5 198t157.5 73q112 0 169 -93h2v82h62v-683h-62zM250 39q84 0 128.5 59t44.5 158t-44.5 159.5t-127.5 60.5q-76 0 -118.5 -60.5t-42.5 -159.5q0 -96 40.5 -156.5t119.5 -60.5z" />
    <glyph glyph-name="r" unicode="r" horiz-adv-x="308" 
d="M52 0v517h62v-96h2q53 100 158 100q9 0 17 -2v-61q-61 10 -110 -25q-67 -50 -67 -139v-294h-62z" />
    <glyph glyph-name="s" unicode="s" horiz-adv-x="451" 
d="M233 -14q-100 0 -154.5 48t-59.5 127h63q13 -122 152 -122q63 0 97 27t34 73q0 42 -28.5 62t-109.5 38q-47 11 -75 20t-57.5 25.5t-43 42t-13.5 61.5q0 64 50 102t130 38q172 0 192 -153h-62q-11 102 -130 102q-58 0 -88 -24t-30 -62q0 -41 32 -58.5t116 -37.5
q92 -19 135.5 -50.5t43.5 -104.5q0 -70 -52.5 -112t-141.5 -42z" />
    <glyph glyph-name="t" unicode="t" horiz-adv-x="282" 
d="M194 -4q-99 0 -99 93v377h-78v51h78v159h62v-159h96v-51h-96v-367q0 -27 12 -38t38 -11q23 0 41 8h3v-53q-25 -9 -57 -9z" />
    <glyph glyph-name="u" unicode="u" horiz-adv-x="495" 
d="M218 -12q-76 0 -123 43.5t-47 120.5v365h62v-361q0 -57 32 -86.5t90 -29.5q66 0 108 44t42 110v323h61v-517h-61v76h-2q-31 -42 -68 -65t-94 -23z" />
    <glyph glyph-name="v" unicode="v" horiz-adv-x="456" 
d="M189 0l-183 517h66l111 -328l42 -131h2q26 81 43 131l116 328h63l-187 -517h-73z" />
    <glyph glyph-name="w" unicode="w" horiz-adv-x="711" 
d="M164 0l-154 517h65l90 -320l33 -135h2q20 83 33 130l88 325h67l85 -325l31 -130h2q21 85 36 135l96 320h63l-163 -517h-68l-89 330l-27 117h-2q-14 -68 -27 -117l-91 -330h-70z" />
    <glyph glyph-name="x" unicode="x" horiz-adv-x="481" 
d="M8 0l194 273l-173 244h72l135 -199h2l135 199h70l-168 -239l198 -278h-73l-161 233h-2l-159 -233h-70z" />
    <glyph glyph-name="y" unicode="y" horiz-adv-x="469" 
d="M106 -171q-27 0 -53 8v55h3q21 -7 47 -7q61 0 86 70l17 46l-199 516h66l124 -334l41 -118h2q22 70 39 118l119 334h64l-213 -571q-25 -67 -57.5 -92t-85.5 -25z" />
    <glyph glyph-name="z" unicode="z" horiz-adv-x="447" 
d="M28 0v53l302 407v3h-282v54h365v-44l-308 -415v-3h317v-55h-394z" />
    <glyph glyph-name="braceleft" unicode="{" horiz-adv-x="288" 
d="M228 -118q-135 0 -135 139v204q0 35 -15.5 52t-53.5 18v54q38 1 53.5 17.5t15.5 51.5v198q0 73 34 105.5t101 32.5h18v-53h-16q-40 0 -56.5 -19t-16.5 -67v-201q0 -75 -56 -91v-2q56 -17 56 -91v-208q0 -48 16.5 -66.5t56.5 -18.5h16v-55h-18z" />
    <glyph glyph-name="bar" unicode="|" horiz-adv-x="210" 
d="M77 -118v872h56v-872h-56z" />
    <glyph glyph-name="braceright" unicode="}" horiz-adv-x="288" 
d="M42 -118v55h16q39 0 56 18t17 66v208q0 74 56 90v3q-56 16 -56 90v202q0 48 -17 67.5t-56 19.5h-16v53h18q135 0 135 -139v-198q0 -35 15 -51.5t54 -17.5v-55q-38 -1 -53.5 -17.5t-15.5 -51.5v-204q0 -73 -34 -105.5t-101 -32.5h-18z" />
    <glyph glyph-name="asciitilde" unicode="~" horiz-adv-x="385" 
d="M260 281q-29 0 -71 23q-52 26 -63 26q-33 0 -36 -48h-53q3 50 27 78t61 28q31 0 77 -28q37 -21 54 -21q36 0 38 47h53q-2 -49 -25 -77t-62 -28z" />
    <glyph glyph-name="uni00A0" unicode="&#xa0;" horiz-adv-x="150" 
 />
    <glyph glyph-name="exclamdown" unicode="&#xa1;" horiz-adv-x="212" 
d="M72 -127v229l15 313h39l14 -313v-229h-68zM68 501v87h76v-87h-76z" />
    <glyph glyph-name="cent" unicode="&#xa2;" horiz-adv-x="495" 
d="M236 -85v73q-99 10 -154.5 84t-55.5 186q0 111 55.5 185t154.5 84v64h46v-63q77 -5 126.5 -49t60.5 -118h-61q-21 105 -126 114v-434q56 6 90.5 42.5t40.5 94.5h60q-9 -84 -59 -134.5t-132 -55.5v-73h-46zM236 41v434q-73 -9 -110 -69t-37 -148t37 -148t110 -69z" />
    <glyph glyph-name="sterling" unicode="&#xa3;" horiz-adv-x="535" 
d="M370 -11q-47 0 -102 25t-93 25q-42 0 -104 -43l-37 53q103 74 103 178q0 35 -16 81h-83v51h66q-35 87 -35 146q0 83 57 138.5t158 55.5q92 0 152 -57t61 -161h-62q-1 83 -44.5 123.5t-109.5 40.5q-70 0 -108.5 -38t-38.5 -103q0 -14 2 -28t6.5 -30.5t7.5 -26.5
t10.5 -31.5t10.5 -28.5h160v-51h-144q10 -46 10 -71q0 -101 -75 -164l1 -2q39 18 74 18q37 0 91.5 -21.5t84.5 -21.5q50 0 104 48l36 -45q-67 -60 -143 -60z" />
    <glyph glyph-name="currency" unicode="&#xa4;" horiz-adv-x="486" 
d="M52 112l-35 35l71 75q-37 54 -37 128q0 73 37 125l-71 76l35 34l69 -73q51 41 122 41q70 0 121 -41l70 73l35 -34l-71 -75q36 -53 36 -126q0 -74 -37 -128l72 -75l-35 -35l-71 74q-50 -40 -120 -40q-71 0 -121 40zM243 196q62 0 96 43.5t34 110.5t-34.5 110.5t-95.5 43.5
q-62 0 -96.5 -43.5t-34.5 -110.5t34.5 -110.5t96.5 -43.5z" />
    <glyph glyph-name="yen" unicode="&#xa5;" horiz-adv-x="543" 
d="M240 0v161h-181v46h181v73h-181v46h169l-217 360h73l187 -326h2l190 326h69l-217 -360h169v-46h-181v-73h181v-46h-181v-161h-63z" />
    <glyph glyph-name="brokenbar" unicode="&#xa6;" horiz-adv-x="210" 
d="M77 -118v411h56v-411h-56zM77 359v395h56v-395h-56z" />
    <glyph glyph-name="section" unicode="&#xa7;" horiz-adv-x="562" 
d="M290 -184q-95 0 -151.5 55t-58.5 135h65q4 -62 41.5 -97.5t104.5 -35.5q53 0 80 22.5t27 63.5q0 36 -28 60.5t-109 71.5q-17 10 -26 15q-46 26 -70.5 41t-55 37.5t-45.5 41t-25.5 43.5t-10.5 53q0 100 112 136q-38 41 -38 93q0 67 48.5 108t128.5 41q86 0 136 -48
t55 -127h-65q-4 57 -37.5 87.5t-90.5 30.5q-53 0 -81 -25t-28 -64q0 -22 8 -39t33.5 -36t44.5 -30.5t69 -38.5q44 -23 68 -37t56 -36t47.5 -41t27.5 -45.5t12 -56.5q0 -105 -113 -138q43 -45 43 -96q0 -65 -46.5 -104.5t-127.5 -39.5zM382 89q88 24 88 103q0 20 -8.5 37.5
t-18.5 29.5t-38 30.5t-46.5 29t-63.5 35.5q-88 49 -115 69q-88 -20 -88 -96q0 -46 33.5 -76t135.5 -88q91 -52 121 -74z" />
    <glyph glyph-name="dieresis" unicode="&#xa8;" horiz-adv-x="512" 
d="M148 627v86h60v-86h-60zM304 627v86h60v-86h-60z" />
    <glyph glyph-name="copyright" unicode="&#xa9;" horiz-adv-x="812" 
d="M408 124q-92 0 -149 64.5t-57 166.5q0 103 56 169t152 66q73 0 119.5 -39t57.5 -103h-61q-8 41 -38 65.5t-78 24.5q-70 0 -108 -51t-38 -132q0 -80 38.5 -130t105.5 -50q54 0 87 31.5t38 82.5h59q-3 -68 -48 -113q-50 -52 -136 -52zM406 18q139 0 230.5 96t91.5 241
q0 146 -91.5 242t-230.5 96t-230.5 -96t-91.5 -242q0 -145 91.5 -241t230.5 -96zM406 -17q-155 0 -260 106t-105 266t105 266.5t260 106.5t260 -106.5t105 -266.5t-105 -266t-260 -106z" />
    <glyph glyph-name="ordfeminine" unicode="&#xaa;" horiz-adv-x="470" 
d="M191 228q-66 0 -109.5 34t-43.5 95q0 38 14 64.5t42.5 41.5t58.5 22t75 12q69 6 93 17.5t24 43.5v7q0 88 -103 88q-112 0 -123 -99h-58q6 67 52 106.5t128 39.5q162 0 162 -142v-236q0 -42 32 -42q7 0 21 4h3v-44q-19 -7 -40 -7q-68 0 -73 68v4h-2q-56 -77 -153 -77z
M201 276q69 0 107 38.5t38 88.5v76q-36 -19 -114 -28q-69 -8 -100 -26t-31 -68q0 -43 28 -62t72 -19z" />
    <glyph glyph-name="guillemotleft" unicode="&#xab;" horiz-adv-x="411" 
d="M185 121l-129 113v75l129 113v-69l-93 -81v-2l93 -80v-69zM355 121l-129 113v75l129 113v-69l-93 -81v-2l93 -80v-69z" />
    <glyph glyph-name="logicalnot" unicode="&#xac;" horiz-adv-x="530" 
d="M395 139v190h-336v53h392v-243h-56z" />
    <glyph glyph-name="uni00AD" unicode="&#xad;" horiz-adv-x="326" 
d="M35 252v56h256v-56h-256z" />
    <glyph glyph-name="registered" unicode="&#xae;" horiz-adv-x="528" 
d="M171 360v259h118q36 0 58 -20t22 -52q0 -49 -48 -62v-1q37 -10 40 -56q1 -9 2 -21l1.5 -18t1.5 -12.5t2.5 -10t3.5 -4.5v-2h-43q-7 3 -11 59q-2 49 -51 49h-52v-108h-44zM215 502h64q46 0 46 40q0 41 -45 41h-65v-81zM264 276q87 0 143 59t56 151q0 91 -56 150.5
t-143 59.5t-143 -59.5t-56 -150.5q0 -92 56 -151t143 -59zM264 244q-100 0 -168.5 69t-68.5 173t68.5 173t168.5 69t168.5 -69t68.5 -173t-68.5 -173t-168.5 -69z" />
    <glyph glyph-name="macron" unicode="&#xaf;" 
d="M126 627v56h248v-56h-248z" />
    <glyph glyph-name="degree" unicode="&#xb0;" horiz-adv-x="318" 
d="M159 500q33 0 52.5 22t19.5 57q0 34 -20 56.5t-52 22.5t-52 -22.5t-20 -56.5q0 -35 20 -57t52 -22zM159 459q-50 0 -85.5 35t-35.5 85t35.5 85.5t85.5 35.5q51 0 86 -35.5t35 -85.5t-35 -85t-86 -35z" />
    <glyph glyph-name="plusminus" unicode="&#xb1;" horiz-adv-x="530" 
d="M237 133v180h-182v54h182v178h56v-178h182v-54h-182v-180h-56zM55 0v53h420v-53h-420z" />
    <glyph glyph-name="twosuperior" unicode="&#xb2;" horiz-adv-x="339" 
d="M28 282q1 34 11.5 61t31 48.5t37 34t44.5 31.5q6 4 24.5 16t24.5 16.5t18.5 15.5t17 18.5t9 20t4.5 26.5q0 36 -20.5 56t-54.5 20q-39 0 -61 -24.5t-23 -71.5h-53q0 69 37.5 106t101.5 37q59 0 95 -35t36 -87q0 -23 -7.5 -42.5t-15 -31.5t-28 -28t-28.5 -21t-34 -22
q-28 -17 -43 -27t-33 -30t-23 -40h210v-47h-278z" />
    <glyph glyph-name="threesuperior" unicode="&#xb3;" horiz-adv-x="350" 
d="M177 273q-69 0 -110.5 37.5t-41.5 100.5h55q2 -44 26 -67.5t68 -23.5q42 0 65 20.5t23 57.5q0 36 -23.5 55.5t-66.5 19.5h-27v44h26q37 0 57.5 17.5t20.5 48.5t-20.5 49t-53.5 18q-39 0 -60.5 -24t-22.5 -63h-54q1 59 37.5 94.5t100.5 35.5q57 0 93 -29.5t36 -78.5
q0 -64 -63 -86v-2q78 -21 78 -103q0 -57 -40.5 -89t-102.5 -32z" />
    <glyph glyph-name="acute" unicode="&#xb4;" 
d="M209 592l66 127h82l-94 -127h-54z" />
    <glyph glyph-name="mu" unicode="&#xb5;" horiz-adv-x="499" 
d="M52 -166v683h62v-361q0 -57 32 -86.5t90 -29.5q65 0 107 44t42 110v323h62v-517h-62v76h-2q-30 -42 -67 -65t-93 -23q-72 0 -107 46h-2v-200h-62z" />
    <glyph glyph-name="paragraph" unicode="&#xb6;" horiz-adv-x="511" 
d="M254 0v370h-33q-94 0 -143 46t-49 129q0 74 49 123q44 47 136 47h233v-715h-61v654h-72v-654h-60z" />
    <glyph glyph-name="periodcentered" unicode="&#xb7;" horiz-adv-x="160" 
d="M43 268v87h76v-87h-76z" />
    <glyph glyph-name="cedilla" unicode="&#xb8;" 
d="M223 -187q-56 0 -97 25l15 27q33 -14 69 -14q57 0 57 35q0 28 -41 28q-21 0 -40 -7l-14 23l71 70h51l-57 -50v-2q34 3 59.5 -13t25.5 -49q0 -35 -27 -54t-72 -19z" />
    <glyph glyph-name="onesuperior" unicode="&#xb9;" horiz-adv-x="241" 
d="M121 282v292h-93v39q46 1 71.5 18t31.5 57h46v-406h-56z" />
    <glyph glyph-name="ordmasculine" unicode="&#xba;" horiz-adv-x="479" 
d="M240 276q71 0 109.5 52.5t38.5 134.5q0 83 -38.5 136t-109.5 53t-110 -53.5t-39 -135.5t39 -134.5t110 -52.5zM240 226q-97 0 -154 67t-57 170t57 170t154 67q96 0 153 -67t57 -170t-57 -170t-153 -67z" />
    <glyph glyph-name="guillemotright" unicode="&#xbb;" horiz-adv-x="411" 
d="M56 121v69l93 81v2l-93 80v69l129 -113v-75zM226 121v69l93 81v2l-93 80v69l129 -113v-75z" />
    <glyph glyph-name="onequarter" unicode="&#xbc;" horiz-adv-x="734" 
d="M589 0v97h-193v55l194 256h53v-267h62v-44h-62v-97h-54zM444 141h145v189h-2l-143 -187v-2zM125 312v292h-92v39q46 1 71 18t31 57h47v-406h-57zM77 0l489 715h60l-488 -715h-61z" />
    <glyph glyph-name="onehalf" unicode="&#xbd;" horiz-adv-x="767" 
d="M451 0q1 34 11.5 61t31 49t37 35t44.5 31q3 2 19 12t19.5 12.5t16 11t16 12.5t11 12.5t10 15.5t5 16.5t2.5 19.5q0 36 -20.5 56t-54.5 20q-39 0 -61 -24.5t-23 -70.5h-54q0 68 38 105t102 37q58 0 94.5 -35t36.5 -87q0 -26 -7.5 -46.5t-26 -38.5t-30.5 -26.5t-40 -25.5
q-7 -5 -11 -7q-28 -17 -43 -27t-33 -30t-23 -41h212v-47h-279zM125 312v292h-92v39q46 1 71 18t31 57h47v-406h-57zM67 0l489 715h60l-488 -715h-61z" />
    <glyph glyph-name="threequarters" unicode="&#xbe;" horiz-adv-x="800" 
d="M181 303q-68 0 -110 37.5t-41 100.5h54q5 -91 95 -91q42 0 65 20.5t23 57.5q0 36 -23.5 55.5t-66.5 19.5h-27v44h26q37 0 57.5 17.5t20.5 48.5t-20.5 49t-53.5 18q-39 0 -60.5 -23.5t-23.5 -63.5h-53q1 59 37.5 94.5t100.5 35.5q56 0 92 -29.5t36 -78.5q0 -64 -63 -86v-2
q79 -21 79 -103q0 -57 -40.5 -89t-103.5 -32zM655 0v97h-193v55l194 256h53v-267h62v-44h-62v-97h-54zM510 141h145v189h-2l-143 -187v-2zM151 0l489 715h60l-488 -715h-61z" />
    <glyph glyph-name="questiondown" unicode="&#xbf;" horiz-adv-x="497" 
d="M243 -140q-92 0 -147 52t-55 131q0 46 18 83.5t34.5 54t51.5 45.5q57 48 75 82.5t19 106.5h60q-1 -83 -23 -128t-80 -94q-24 -20 -34 -30t-26 -29.5t-22.5 -41t-6.5 -48.5q0 -57 38 -92.5t101 -35.5q75 0 117 46.5t44 121.5h63q-2 -95 -59 -159.5t-168 -64.5zM231 501v87
h76v-87h-76z" />
    <glyph glyph-name="Agrave" unicode="&#xc0;" horiz-adv-x="634" 
d="M8 0l270 715h76l272 -715h-72l-83 225h-311l-84 -225h-68zM180 280h271l-98 267l-36 104h-2q-19 -61 -35 -104zM299 753l-94 114h82l66 -114h-54z" />
    <glyph glyph-name="Aacute" unicode="&#xc1;" horiz-adv-x="634" 
d="M8 0l270 715h76l272 -715h-72l-83 225h-311l-84 -225h-68zM180 280h271l-98 267l-36 104h-2q-19 -61 -35 -104zM283 753l66 114h82l-94 -114h-54z" />
    <glyph glyph-name="Acircumflex" unicode="&#xc2;" horiz-adv-x="634" 
d="M8 0l270 715h76l272 -715h-72l-83 225h-311l-84 -225h-68zM180 280h271l-98 267l-36 104h-2q-19 -61 -35 -104zM187 754l94 103h74l92 -103h-70l-60 68h-2l-60 -68h-68z" />
    <glyph glyph-name="Atilde" unicode="&#xc3;" horiz-adv-x="634" 
d="M8 0l270 715h76l272 -715h-72l-83 225h-311l-84 -225h-68zM180 280h271l-98 267l-36 104h-2q-19 -61 -35 -104zM378 760q-24 0 -65 19.5t-53 19.5q-11 0 -19 -10t-9 -27h-49q8 87 74 87q25 0 63.5 -19t52.5 -19q28 0 31 36h48q-2 -40 -21.5 -63.5t-52.5 -23.5z" />
    <glyph glyph-name="Adieresis" unicode="&#xc4;" horiz-adv-x="634" 
d="M8 0l270 715h76l272 -715h-72l-83 225h-311l-84 -225h-68zM180 280h271l-98 267l-36 104h-2q-19 -61 -35 -104zM209 757v86h60v-86h-60zM365 757v86h60v-86h-60z" />
    <glyph glyph-name="Aring" unicode="&#xc5;" horiz-adv-x="634" 
d="M8 0l270 715h76l272 -715h-72l-83 225h-311l-84 -225h-68zM180 280h271l-98 267l-36 104h-2q-19 -61 -35 -104zM317 777q21 0 34.5 15t13.5 37t-13.5 36.5t-34.5 14.5t-34.5 -14.5t-13.5 -36.5t13.5 -37t34.5 -15zM317 744q-36 0 -61.5 25t-25.5 60t25.5 60t61.5 25
t61.5 -25t25.5 -60t-25.5 -60t-61.5 -25z" />
    <glyph glyph-name="AE" unicode="&#xc6;" horiz-adv-x="945" 
d="M11 0l282 715h605v-59h-378v-257h342v-58h-342v-279h389v-62h-456v225h-286l-88 -225h-68zM188 280h265v376h-117z" />
    <glyph glyph-name="Ccedilla" unicode="&#xc7;" horiz-adv-x="677" 
d="M328 -187q-56 0 -97 25l15 27q33 -14 69 -14q57 0 57 35q0 28 -41 28q-21 0 -40 -7l-14 23l58 58q-138 8 -218.5 108.5t-80.5 260.5q0 165 88 269t237 104q112 0 184.5 -58t90.5 -159h-66q-15 72 -70 115.5t-140 43.5q-121 0 -187.5 -88.5t-66.5 -226.5t66.5 -224.5
t186.5 -86.5q99 0 157 60t67 154h65q-6 -113 -74 -187q-67 -76 -189 -85l-43 -38v-2q34 3 59.5 -13t25.5 -49q0 -35 -27 -54t-72 -19z" />
    <glyph glyph-name="Egrave" unicode="&#xc8;" horiz-adv-x="598" 
d="M301 753l-94 114h82l66 -114h-54zM64 0v715h486v-59h-419v-257h384v-58h-384v-279h430v-62h-497z" />
    <glyph glyph-name="Eacute" unicode="&#xc9;" horiz-adv-x="598" 
d="M284 753l66 114h82l-94 -114h-54zM64 0v715h486v-59h-419v-257h384v-58h-384v-279h430v-62h-497z" />
    <glyph glyph-name="Ecircumflex" unicode="&#xca;" horiz-adv-x="598" 
d="M64 0v715h486v-59h-419v-257h384v-58h-384v-279h430v-62h-497zM189 754l94 103h74l92 -103h-70l-60 68h-2l-60 -68h-68z" />
    <glyph glyph-name="Edieresis" unicode="&#xcb;" horiz-adv-x="598" 
d="M211 757v86h60v-86h-60zM367 757v86h60v-86h-60zM64 0v715h486v-59h-419v-257h384v-58h-384v-279h430v-62h-497z" />
    <glyph glyph-name="Igrave" unicode="&#xcc;" horiz-adv-x="202" 
d="M67 0v715h67v-715h-67zM79 753l-94 114h82l66 -114h-54z" />
    <glyph glyph-name="Iacute" unicode="&#xcd;" horiz-adv-x="202" 
d="M67 0v715h67v-715h-67zM72 753l66 114h82l-94 -114h-54z" />
    <glyph glyph-name="Icircumflex" unicode="&#xce;" horiz-adv-x="202" 
d="M67 0v715h67v-715h-67zM-29 754l94 103h74l92 -103h-70l-60 68h-2l-60 -68h-68z" />
    <glyph glyph-name="Idieresis" unicode="&#xcf;" horiz-adv-x="202" 
d="M67 0v715h67v-715h-67zM-7 757v86h60v-86h-60zM149 757v86h60v-86h-60z" />
    <glyph glyph-name="Eth" unicode="&#xd0;" horiz-adv-x="674" 
d="M142 59h177q125 0 185.5 78t60.5 218q0 301 -239 301h-184v-269h237v-57h-237v-271zM74 0v330h-71v57h71v328h254q153 0 229.5 -97t76.5 -263q0 -164 -79.5 -259.5t-233.5 -95.5h-247z" />
    <glyph glyph-name="Ntilde" unicode="&#xd1;" horiz-adv-x="667" 
d="M411 760q-24 0 -65 19.5t-53 19.5q-11 0 -19 -10t-9 -27h-49q8 87 74 87q25 0 63.5 -19t52.5 -19q28 0 31 36h48q-2 -40 -21.5 -63.5t-52.5 -23.5zM64 0v715h73l329 -502q16 -24 34 -53.5t28 -47.5l9 -17h2v620h64v-715h-70l-328 496l-75 121h-2v-617h-64z" />
    <glyph glyph-name="Ograve" unicode="&#xd2;" horiz-adv-x="738" 
d="M353 753l-94 114h82l66 -114h-54zM368 46q125 0 194.5 88.5t69.5 223.5t-69.5 223.5t-194.5 88.5q-124 0 -193 -88.5t-69 -223.5t69 -223.5t193 -88.5zM368 -14q-149 0 -240.5 105t-91.5 267t91.5 267t240.5 105q150 0 242 -105t92 -267t-92 -267t-242 -105z" />
    <glyph glyph-name="Oacute" unicode="&#xd3;" horiz-adv-x="738" 
d="M332 753l66 114h82l-94 -114h-54zM368 46q125 0 194.5 88.5t69.5 223.5t-69.5 223.5t-194.5 88.5q-124 0 -193 -88.5t-69 -223.5t69 -223.5t193 -88.5zM368 -14q-149 0 -240.5 105t-91.5 267t91.5 267t240.5 105q150 0 242 -105t92 -267t-92 -267t-242 -105z" />
    <glyph glyph-name="Ocircumflex" unicode="&#xd4;" horiz-adv-x="738" 
d="M368 46q125 0 194.5 88.5t69.5 223.5t-69.5 223.5t-194.5 88.5q-124 0 -193 -88.5t-69 -223.5t69 -223.5t193 -88.5zM368 -14q-149 0 -240.5 105t-91.5 267t91.5 267t240.5 105q150 0 242 -105t92 -267t-92 -267t-242 -105zM239 754l94 103h74l92 -103h-70l-60 68h-2
l-60 -68h-68z" />
    <glyph glyph-name="Otilde" unicode="&#xd5;" horiz-adv-x="738" 
d="M430 760q-24 0 -65 19.5t-53 19.5q-11 0 -19 -10t-9 -27h-49q8 87 74 87q25 0 63.5 -19t52.5 -19q28 0 31 36h48q-2 -40 -21.5 -63.5t-52.5 -23.5zM368 46q125 0 194.5 88.5t69.5 223.5t-69.5 223.5t-194.5 88.5q-124 0 -193 -88.5t-69 -223.5t69 -223.5t193 -88.5z
M368 -14q-149 0 -240.5 105t-91.5 267t91.5 267t240.5 105q150 0 242 -105t92 -267t-92 -267t-242 -105z" />
    <glyph glyph-name="Odieresis" unicode="&#xd6;" horiz-adv-x="738" 
d="M261 757v86h60v-86h-60zM417 757v86h60v-86h-60zM368 46q125 0 194.5 88.5t69.5 223.5t-69.5 223.5t-194.5 88.5q-124 0 -193 -88.5t-69 -223.5t69 -223.5t193 -88.5zM368 -14q-149 0 -240.5 105t-91.5 267t91.5 267t240.5 105q150 0 242 -105t92 -267t-92 -267
t-242 -105z" />
    <glyph glyph-name="multiply" unicode="&#xd7;" horiz-adv-x="528" 
d="M113 133l-37 37l152 155l-152 155l37 36l151 -154l151 154l37 -36l-151 -155l151 -155l-37 -37l-151 154z" />
    <glyph glyph-name="Oslash" unicode="&#xd8;" horiz-adv-x="738" 
d="M61 -16l-33 30l85 94q-77 102 -77 250q0 162 91.5 267t240.5 105q135 0 228 -91l81 90l33 -30l-84 -93q76 -103 76 -248q0 -162 -92 -267t-242 -105q-135 0 -225 88zM158 157l395 435q-70 78 -185 78q-124 0 -193 -88.5t-69 -223.5q0 -121 52 -201zM368 46
q125 0 194.5 88.5t69.5 223.5q0 119 -52 199l-395 -436q73 -75 183 -75z" />
    <glyph glyph-name="Ugrave" unicode="&#xd9;" horiz-adv-x="636" 
d="M300 753l-94 114h82l66 -114h-54zM316 -11q-121 0 -190.5 59.5t-69.5 178.5v488h67v-482q0 -186 196 -186q195 0 195 186v482h67v-488q0 -120 -71.5 -179t-193.5 -59z" />
    <glyph glyph-name="Uacute" unicode="&#xda;" horiz-adv-x="636" 
d="M283 753l66 114h82l-94 -114h-54zM316 -11q-121 0 -190.5 59.5t-69.5 178.5v488h67v-482q0 -186 196 -186q195 0 195 186v482h67v-488q0 -120 -71.5 -179t-193.5 -59z" />
    <glyph glyph-name="Ucircumflex" unicode="&#xdb;" horiz-adv-x="636" 
d="M316 -11q-121 0 -190.5 59.5t-69.5 178.5v488h67v-482q0 -186 196 -186q195 0 195 186v482h67v-488q0 -120 -71.5 -179t-193.5 -59zM188 754l94 103h74l92 -103h-70l-60 68h-2l-60 -68h-68z" />
    <glyph glyph-name="Udieresis" unicode="&#xdc;" horiz-adv-x="636" 
d="M210 757v86h60v-86h-60zM366 757v86h60v-86h-60zM316 -11q-121 0 -190.5 59.5t-69.5 178.5v488h67v-482q0 -186 196 -186q195 0 195 186v482h67v-488q0 -120 -71.5 -179t-193.5 -59z" />
    <glyph glyph-name="Yacute" unicode="&#xdd;" horiz-adv-x="600" 
d="M265 0v312l-258 403h74l218 -346h2l220 346h72l-260 -405v-310h-68zM265 753l66 114h82l-94 -114h-54z" />
    <glyph glyph-name="Thorn" unicode="&#xde;" horiz-adv-x="587" 
d="M64 0v715h67v-134h214q109 0 168 -61q50 -53 50 -138q0 -100 -57.5 -152t-169.5 -52h-205v-178h-67zM131 235h200q164 0 164 145q0 69 -40.5 105.5t-117.5 36.5h-206v-287z" />
    <glyph glyph-name="germandbls" unicode="&#xdf;" horiz-adv-x="483" 
d="M245 -7q-31 0 -55 6v51h2q28 -5 51 -5q69 2 109.5 44t40.5 117q0 78 -41 123t-118 45h-37v49h40q58 0 90.5 36t32.5 93q0 54 -32.5 87t-88.5 33q-58 0 -91.5 -35t-33.5 -96v-541h-62v544q0 82 51 130.5t137 48.5q80 0 131 -48t51 -121q0 -112 -102 -149v-2
q63 -20 100 -69t37 -125q0 -103 -57.5 -159.5t-154.5 -56.5z" />
    <glyph glyph-name="agrave" unicode="&#xe0;" horiz-adv-x="499" 
d="M192 -12q-75 0 -122 37t-47 107q0 44 15.5 74.5t48 47.5t66 25.5t83.5 14.5q84 10 111.5 21.5t27.5 48.5v10q0 104 -124 104q-138 0 -145 -115h-61q5 77 57 121t149 44q183 0 183 -160v-281q0 -43 34 -45q5 0 23 4h3v-45q-18 -8 -42 -8q-72 0 -76 73v11h-3
q-63 -89 -181 -89zM203 38q80 0 126.5 45.5t46.5 103.5v93q-38 -21 -134 -34q-32 -4 -50.5 -8t-41 -12t-34 -19t-20 -30t-8.5 -45q0 -94 115 -94zM238 592l-94 127h82l66 -127h-54z" />
    <glyph glyph-name="aacute" unicode="&#xe1;" horiz-adv-x="499" 
d="M192 -12q-75 0 -122 37t-47 107q0 44 15.5 74.5t48 47.5t66 25.5t83.5 14.5q84 10 111.5 21.5t27.5 48.5v10q0 104 -124 104q-138 0 -145 -115h-61q5 77 57 121t149 44q183 0 183 -160v-281q0 -43 34 -45q5 0 23 4h3v-45q-18 -8 -42 -8q-72 0 -76 73v11h-3
q-63 -89 -181 -89zM203 38q80 0 126.5 45.5t46.5 103.5v93q-38 -21 -134 -34q-32 -4 -50.5 -8t-41 -12t-34 -19t-20 -30t-8.5 -45q0 -94 115 -94zM215 592l66 127h82l-94 -127h-54z" />
    <glyph glyph-name="acircumflex" unicode="&#xe2;" horiz-adv-x="499" 
d="M192 -12q-75 0 -122 37t-47 107q0 44 15.5 74.5t48 47.5t66 25.5t83.5 14.5q84 10 111.5 21.5t27.5 48.5v10q0 104 -124 104q-138 0 -145 -115h-61q5 77 57 121t149 44q183 0 183 -160v-281q0 -43 34 -45q5 0 23 4h3v-45q-18 -8 -42 -8q-72 0 -76 73v11h-3
q-63 -89 -181 -89zM203 38q80 0 126.5 45.5t46.5 103.5v93q-38 -21 -134 -34q-32 -4 -50.5 -8t-41 -12t-34 -19t-20 -30t-8.5 -45q0 -94 115 -94zM131 596l85 106h74l83 -106h-69l-52 71h-2l-53 -71h-66z" />
    <glyph glyph-name="atilde" unicode="&#xe3;" horiz-adv-x="499" 
d="M192 -12q-75 0 -122 37t-47 107q0 44 15.5 74.5t48 47.5t66 25.5t83.5 14.5q84 10 111.5 21.5t27.5 48.5v10q0 104 -124 104q-138 0 -145 -115h-61q5 77 57 121t149 44q183 0 183 -160v-281q0 -43 34 -45q5 0 23 4h3v-45q-18 -8 -42 -8q-72 0 -76 73v11h-3
q-63 -89 -181 -89zM203 38q80 0 126.5 45.5t46.5 103.5v93q-38 -21 -134 -34q-32 -4 -50.5 -8t-41 -12t-34 -19t-20 -30t-8.5 -45q0 -94 115 -94zM313 600q-24 0 -65 19.5t-53 19.5q-11 0 -19 -10t-9 -27h-49q8 88 74 88q25 0 63.5 -19.5t52.5 -19.5q28 0 31 37h48
q-2 -41 -21.5 -64.5t-52.5 -23.5z" />
    <glyph glyph-name="adieresis" unicode="&#xe4;" horiz-adv-x="499" 
d="M192 -12q-75 0 -122 37t-47 107q0 44 15.5 74.5t48 47.5t66 25.5t83.5 14.5q84 10 111.5 21.5t27.5 48.5v10q0 104 -124 104q-138 0 -145 -115h-61q5 77 57 121t149 44q183 0 183 -160v-281q0 -43 34 -45q5 0 23 4h3v-45q-18 -8 -42 -8q-72 0 -76 73v11h-3
q-63 -89 -181 -89zM203 38q80 0 126.5 45.5t46.5 103.5v93q-38 -21 -134 -34q-32 -4 -50.5 -8t-41 -12t-34 -19t-20 -30t-8.5 -45q0 -94 115 -94zM145 627v86h60v-86h-60zM301 627v86h60v-86h-60z" />
    <glyph glyph-name="aring" unicode="&#xe5;" horiz-adv-x="499" 
d="M192 -12q-75 0 -122 37t-47 107q0 44 15.5 74.5t48 47.5t66 25.5t83.5 14.5q84 10 111.5 21.5t27.5 48.5v10q0 104 -124 104q-138 0 -145 -115h-61q5 77 57 121t149 44q183 0 183 -160v-281q0 -43 34 -45q5 0 23 4h3v-45q-18 -8 -42 -8q-72 0 -76 73v11h-3
q-63 -89 -181 -89zM203 38q80 0 126.5 45.5t46.5 103.5v93q-38 -21 -134 -34q-32 -4 -50.5 -8t-41 -12t-34 -19t-20 -30t-8.5 -45q0 -94 115 -94zM253 603q21 0 34.5 14.5t13.5 36.5t-13.5 36.5t-34.5 14.5t-34.5 -14.5t-13.5 -36.5t13.5 -36.5t34.5 -14.5zM253 569
q-36 0 -61.5 25t-25.5 60t25.5 60t61.5 25t61.5 -25t25.5 -60t-25.5 -60t-61.5 -25z" />
    <glyph glyph-name="ae" unicode="&#xe6;" horiz-adv-x="842" 
d="M201 -12q-78 0 -128 38.5t-50 108.5q0 44 16 74t48.5 46.5t66 24.5t83.5 13q83 9 110.5 21.5t27.5 49.5v8q0 106 -122 106q-131 0 -143 -115h-61q8 77 59.5 121t144.5 44q137 0 168 -100q59 101 180 101q78 0 131 -45q87 -72 85 -237h-382q2 -93 45.5 -150t127.5 -57
q112 0 143 116h60q-15 -78 -68 -123.5t-135 -45.5q-138 0 -198 115h-2q-35 -60 -84.5 -87t-122.5 -27zM210 38q77 0 121.5 45.5t44.5 103.5v90q-40 -21 -135 -32q-40 -4 -63 -9t-46.5 -16.5t-33.5 -32.5t-10 -53q0 -50 34 -73t88 -23zM437 296h315q-2 81 -40 131.5
t-111 50.5q-74 0 -115 -50t-49 -132z" />
    <glyph glyph-name="ccedilla" unicode="&#xe7;" horiz-adv-x="491" 
d="M227 -187q-56 0 -97 25l15 27q33 -14 69 -14q57 0 57 35q0 28 -41 28q-21 0 -40 -7l-14 23l59 59q-99 9 -154.5 83t-55.5 186q0 119 63 195t173 76q86 0 140.5 -44.5t67.5 -123.5h-62q-23 116 -146 116q-85 0 -128.5 -61.5t-43.5 -157.5t43.5 -157t127.5 -61
q65 0 105 37.5t48 100.5h59q-8 -82 -57.5 -132.5t-130.5 -57.5l-43 -38v-2q34 3 59.5 -13t25.5 -49q0 -35 -27 -54t-72 -19z" />
    <glyph glyph-name="egrave" unicode="&#xe8;" horiz-adv-x="508" 
d="M266 -13q-113 0 -177 75.5t-64 195.5q0 118 65 194.5t171 76.5q60 0 104.5 -23t69.5 -64t36.5 -89.5t11.5 -105.5h-394q2 -92 47 -149.5t130 -57.5q118 0 151 116h60q-17 -78 -71.5 -123.5t-139.5 -45.5zM90 296h328q-2 81 -41.5 131.5t-115.5 50.5q-75 0 -118.5 -50
t-52.5 -132zM245 592l-94 127h82l66 -127h-54z" />
    <glyph glyph-name="eacute" unicode="&#xe9;" horiz-adv-x="508" 
d="M222 592l66 127h82l-94 -127h-54zM266 -13q-113 0 -177 75.5t-64 195.5q0 118 65 194.5t171 76.5q60 0 104.5 -23t69.5 -64t36.5 -89.5t11.5 -105.5h-394q2 -92 47 -149.5t130 -57.5q118 0 151 116h60q-17 -78 -71.5 -123.5t-139.5 -45.5zM90 296h328q-2 81 -41.5 131.5
t-115.5 50.5q-75 0 -118.5 -50t-52.5 -132z" />
    <glyph glyph-name="ecircumflex" unicode="&#xea;" horiz-adv-x="508" 
d="M138 596l85 106h74l83 -106h-69l-52 71h-2l-53 -71h-66zM266 -13q-113 0 -177 75.5t-64 195.5q0 118 65 194.5t171 76.5q60 0 104.5 -23t69.5 -64t36.5 -89.5t11.5 -105.5h-394q2 -92 47 -149.5t130 -57.5q118 0 151 116h60q-17 -78 -71.5 -123.5t-139.5 -45.5zM90 296
h328q-2 81 -41.5 131.5t-115.5 50.5q-75 0 -118.5 -50t-52.5 -132z" />
    <glyph glyph-name="edieresis" unicode="&#xeb;" horiz-adv-x="508" 
d="M151 627v86h60v-86h-60zM307 627v86h60v-86h-60zM266 -13q-113 0 -177 75.5t-64 195.5q0 118 65 194.5t171 76.5q60 0 104.5 -23t69.5 -64t36.5 -89.5t11.5 -105.5h-394q2 -92 47 -149.5t130 -57.5q118 0 151 116h60q-17 -78 -71.5 -123.5t-139.5 -45.5zM90 296h328
q-2 81 -41.5 131.5t-115.5 50.5q-75 0 -118.5 -50t-52.5 -132z" />
    <glyph glyph-name="igrave" unicode="&#xec;" horiz-adv-x="169" 
d="M54 0v517h62v-517h-62zM51 656l16 -13h-14zM37 668h12l2 -12z" />
    <glyph glyph-name="iacute" unicode="&#xed;" horiz-adv-x="169" 
d="M54 0v517h62v-517h-62zM59 592l54 127h78l-79 -127h-53z" />
    <glyph glyph-name="icircumflex" unicode="&#xee;" horiz-adv-x="169" 
d="M-22 596l70 106h74l68 -106h-64l-41 69h-2l-43 -69h-62zM54 0v517h62v-517h-62z" />
    <glyph glyph-name="idieresis" unicode="&#xef;" horiz-adv-x="169" 
d="M-4 627v86h61v-86h-61zM54 0v517h62v-517h-62zM112 627v86h61v-86h-61z" />
    <glyph glyph-name="eth" unicode="&#xf0;" horiz-adv-x="529" 
d="M170 562l-14 36l123 45q-33 31 -87 72h79q39 -27 65 -51l100 36l14 -36l-83 -30q136 -146 136 -364q0 -127 -64 -205t-174 -78t-175 76.5t-65 194.5q0 117 64 193t170 76q94 0 155 -75h1q-35 87 -106 161zM265 39q83 0 129 62.5t46 157.5q0 96 -46.5 156.5t-130.5 60.5
q-83 0 -128.5 -61.5t-45.5 -156.5t46 -157t130 -62z" />
    <glyph glyph-name="ntilde" unicode="&#xf1;" horiz-adv-x="502" 
d="M52 0v517h62v-79h2q61 90 173 90q74 0 119.5 -42.5t45.5 -118.5v-367h-62v361q0 114 -118 114q-67 0 -113.5 -42t-46.5 -105v-328h-62zM315 600q-24 0 -65 19.5t-53 19.5q-11 0 -19 -10t-9 -27h-49q8 88 74 88q25 0 63.5 -19.5t52.5 -19.5q28 0 31 37h48
q-2 -41 -21.5 -64.5t-52.5 -23.5z" />
    <glyph glyph-name="ograve" unicode="&#xf2;" horiz-adv-x="529" 
d="M265 39q83 0 129 62t46 157t-46 157t-129 62q-84 0 -130 -62t-46 -157t46 -157t130 -62zM265 -13q-110 0 -175 76.5t-65 194.5t65 194.5t175 76.5q109 0 173.5 -76.5t64.5 -194.5t-64.5 -194.5t-173.5 -76.5zM249 592l-94 127h82l66 -127h-54z" />
    <glyph glyph-name="oacute" unicode="&#xf3;" horiz-adv-x="529" 
d="M227 592l66 127h82l-94 -127h-54zM265 39q83 0 129 62t46 157t-46 157t-129 62q-84 0 -130 -62t-46 -157t46 -157t130 -62zM265 -13q-110 0 -175 76.5t-65 194.5t65 194.5t175 76.5q109 0 173.5 -76.5t64.5 -194.5t-64.5 -194.5t-173.5 -76.5z" />
    <glyph glyph-name="ocircumflex" unicode="&#xf4;" horiz-adv-x="529" 
d="M143 596l85 106h74l83 -106h-69l-52 71h-2l-53 -71h-66zM265 39q83 0 129 62t46 157t-46 157t-129 62q-84 0 -130 -62t-46 -157t46 -157t130 -62zM265 -13q-110 0 -175 76.5t-65 194.5t65 194.5t175 76.5q109 0 173.5 -76.5t64.5 -194.5t-64.5 -194.5t-173.5 -76.5z" />
    <glyph glyph-name="otilde" unicode="&#xf5;" horiz-adv-x="529" 
d="M265 39q83 0 129 62t46 157t-46 157t-129 62q-84 0 -130 -62t-46 -157t46 -157t130 -62zM265 -13q-110 0 -175 76.5t-65 194.5t65 194.5t175 76.5q109 0 173.5 -76.5t64.5 -194.5t-64.5 -194.5t-173.5 -76.5zM325 600q-24 0 -65 19.5t-53 19.5q-11 0 -19 -10t-9 -27h-49
q8 88 74 88q25 0 63.5 -19.5t52.5 -19.5q28 0 31 37h48q-2 -41 -21.5 -64.5t-52.5 -23.5z" />
    <glyph glyph-name="odieresis" unicode="&#xf6;" horiz-adv-x="529" 
d="M156 627v86h60v-86h-60zM312 627v86h60v-86h-60zM265 39q83 0 129 62t46 157t-46 157t-129 62q-84 0 -130 -62t-46 -157t46 -157t130 -62zM265 -13q-110 0 -175 76.5t-65 194.5t65 194.5t175 76.5q109 0 173.5 -76.5t64.5 -194.5t-64.5 -194.5t-173.5 -76.5z" />
    <glyph glyph-name="divide" unicode="&#xf7;" horiz-adv-x="530" 
d="M227 116v84h76v-84h-76zM55 299v54h420v-54h-420zM227 452v84h76v-84h-76z" />
    <glyph glyph-name="oslash" unicode="&#xf8;" horiz-adv-x="529" 
d="M45 -15l-27 25l60 68q-53 73 -53 180q0 118 65 194.5t175 76.5q96 0 161 -63l57 64l28 -25l-61 -68q53 -71 53 -179q0 -118 -64.5 -194.5t-173.5 -76.5q-99 0 -162 63zM120 124l267 299q-46 54 -122 54q-84 0 -130 -62t-46 -157q0 -79 31 -134zM265 39q83 0 129 62
t46 157q0 79 -31 134l-268 -299q48 -54 124 -54z" />
    <glyph glyph-name="ugrave" unicode="&#xf9;" horiz-adv-x="495" 
d="M218 -12q-76 0 -123 43.5t-47 120.5v365h62v-361q0 -57 32 -86.5t90 -29.5q66 0 108 44t42 110v323h61v-517h-61v76h-2q-31 -42 -68 -65t-94 -23zM235 592l-94 127h82l66 -127h-54z" />
    <glyph glyph-name="uacute" unicode="&#xfa;" horiz-adv-x="495" 
d="M211 592l66 127h82l-94 -127h-54zM218 -12q-76 0 -123 43.5t-47 120.5v365h62v-361q0 -57 32 -86.5t90 -29.5q66 0 108 44t42 110v323h61v-517h-61v76h-2q-31 -42 -68 -65t-94 -23z" />
    <glyph glyph-name="ucircumflex" unicode="&#xfb;" horiz-adv-x="495" 
d="M128 596l85 106h74l83 -106h-69l-52 71h-2l-53 -71h-66zM218 -12q-76 0 -123 43.5t-47 120.5v365h62v-361q0 -57 32 -86.5t90 -29.5q66 0 108 44t42 110v323h61v-517h-61v76h-2q-31 -42 -68 -65t-94 -23z" />
    <glyph glyph-name="udieresis" unicode="&#xfc;" horiz-adv-x="495" 
d="M141 627v86h60v-86h-60zM297 627v86h60v-86h-60zM218 -12q-76 0 -123 43.5t-47 120.5v365h62v-361q0 -57 32 -86.5t90 -29.5q66 0 108 44t42 110v323h61v-517h-61v76h-2q-31 -42 -68 -65t-94 -23z" />
    <glyph glyph-name="yacute" unicode="&#xfd;" horiz-adv-x="469" 
d="M106 -171q-27 0 -53 8v55h3q21 -7 47 -7q61 0 86 70l17 46l-199 516h66l124 -334l41 -118h2q22 70 39 118l119 334h64l-213 -571q-25 -67 -57.5 -92t-85.5 -25zM201 592l66 127h82l-94 -127h-54z" />
    <glyph glyph-name="thorn" unicode="&#xfe;" horiz-adv-x="530" 
d="M52 -166v881h62v-287h2q59 100 175 100q95 0 154.5 -72t59.5 -198q0 -121 -58.5 -196t-159.5 -75q-111 0 -171 88h-2v-241h-62zM284 39q76 0 117 61.5t41 156.5q0 99 -41.5 159t-117.5 60q-83 0 -128.5 -62t-45.5 -158q0 -99 44.5 -158t130.5 -59z" />
    <glyph glyph-name="ydieresis" unicode="&#xff;" horiz-adv-x="469" 
d="M106 -171q-27 0 -53 8v55h3q21 -7 47 -7q61 0 86 70l17 46l-199 516h66l124 -334l41 -118h2q22 70 39 118l119 334h64l-213 -571q-25 -67 -57.5 -92t-85.5 -25zM131 627v86h60v-86h-60zM287 627v86h60v-86h-60z" />
    <glyph glyph-name="Amacron" unicode="&#x100;" horiz-adv-x="634" 
d="M8 0l270 715h76l272 -715h-72l-83 225h-311l-84 -225h-68zM180 280h271l-98 267l-36 104h-2q-19 -61 -35 -104zM193 761v56h248v-56h-248z" />
    <glyph glyph-name="amacron" unicode="&#x101;" horiz-adv-x="499" 
d="M192 -12q-75 0 -122 37t-47 107q0 44 15.5 74.5t48 47.5t66 25.5t83.5 14.5q84 10 111.5 21.5t27.5 48.5v10q0 104 -124 104q-138 0 -145 -115h-61q5 77 57 121t149 44q183 0 183 -160v-281q0 -43 34 -45q5 0 23 4h3v-45q-18 -8 -42 -8q-72 0 -76 73v11h-3
q-63 -89 -181 -89zM203 38q80 0 126.5 45.5t46.5 103.5v93q-38 -21 -134 -34q-32 -4 -50.5 -8t-41 -12t-34 -19t-20 -30t-8.5 -45q0 -94 115 -94zM128 627v56h248v-56h-248z" />
    <glyph glyph-name="Abreve" unicode="&#x102;" horiz-adv-x="634" 
d="M8 0l270 715h76l272 -715h-72l-83 225h-311l-84 -225h-68zM180 280h271l-98 267l-36 104h-2q-19 -61 -35 -104zM317 755q-51 0 -84.5 29.5t-36.5 76.5h51q10 -53 70 -53q61 0 71 53h51q-3 -46 -36.5 -76t-85.5 -30z" />
    <glyph glyph-name="abreve" unicode="&#x103;" horiz-adv-x="499" 
d="M192 -12q-75 0 -122 37t-47 107q0 44 15.5 74.5t48 47.5t66 25.5t83.5 14.5q84 10 111.5 21.5t27.5 48.5v10q0 104 -124 104q-138 0 -145 -115h-61q5 77 57 121t149 44q183 0 183 -160v-281q0 -43 34 -45q5 0 23 4h3v-45q-18 -8 -42 -8q-72 0 -76 73v11h-3
q-63 -89 -181 -89zM203 38q80 0 126.5 45.5t46.5 103.5v93q-38 -21 -134 -34q-32 -4 -50.5 -8t-41 -12t-34 -19t-20 -30t-8.5 -45q0 -94 115 -94zM252 595q-51 0 -84.5 30.5t-36.5 77.5h51q10 -55 70 -55q30 0 48 15t23 40h51q-3 -46 -36.5 -77t-85.5 -31z" />
    <glyph glyph-name="Aogonek" unicode="&#x104;" horiz-adv-x="634" 
d="M573 -174q-45 0 -68.5 20t-23.5 54q0 56 73 101l-83 224h-311l-84 -225h-68l270 715h76l270 -708q-82 -58 -82 -100q0 -34 40 -34q24 0 45 9h3v-43q-24 -13 -57 -13zM180 280h271l-98 267l-36 104h-2q-19 -61 -35 -104z" />
    <glyph glyph-name="aogonek" unicode="&#x105;" horiz-adv-x="499" 
d="M439 -174q-44 0 -67.5 20t-23.5 54q0 56 73 98q-42 13 -45 68v11h-3q-63 -89 -181 -89q-75 0 -122 37t-47 107q0 44 15.5 74.5t48 47.5t66 25.5t83.5 14.5q84 10 111.5 21.5t27.5 48.5v10q0 104 -124 104q-138 0 -145 -115h-61q5 77 57 121t149 44q183 0 183 -160v-281
q0 -43 34 -45q5 0 23 4h3v-45q-37 -16 -61.5 -42.5t-24.5 -51.5q0 -35 41 -35q22 0 45 10h3v-44q-26 -12 -58 -12zM203 38q80 0 126.5 45.5t46.5 103.5v93q-38 -21 -134 -34q-32 -4 -50.5 -8t-41 -12t-34 -19t-20 -30t-8.5 -45q0 -94 115 -94z" />
    <glyph glyph-name="Cacute" unicode="&#x106;" horiz-adv-x="677" 
d="M358 -13q-148 0 -235 102t-87 268q0 165 88 269t237 104q112 0 184.5 -58t90.5 -159h-66q-15 72 -70 115.5t-140 43.5q-121 0 -187.5 -88.5t-66.5 -226.5t66.5 -224.5t186.5 -86.5q99 0 157 60t67 154h65q-6 -113 -74 -187q-77 -86 -216 -86zM323 753l66 114h82l-94 -114
h-54z" />
    <glyph glyph-name="cacute" unicode="&#x107;" horiz-adv-x="491" 
d="M220 592l66 127h82l-94 -127h-54zM260 -13q-110 0 -172.5 76t-62.5 195t63 195t173 76q86 0 140.5 -44.5t67.5 -123.5h-62q-23 116 -146 116q-85 0 -128.5 -61.5t-43.5 -157.5t43.5 -157t127.5 -61q65 0 105 37.5t48 100.5h59q-9 -89 -65 -140t-147 -51z" />
    <glyph glyph-name="Ccircumflex" unicode="&#x108;" horiz-adv-x="677" 
d="M358 -13q-148 0 -235 102t-87 268q0 165 88 269t237 104q112 0 184.5 -58t90.5 -159h-66q-15 72 -70 115.5t-140 43.5q-121 0 -187.5 -88.5t-66.5 -226.5t66.5 -224.5t186.5 -86.5q99 0 157 60t67 154h65q-6 -113 -74 -187q-77 -86 -216 -86zM228 754l94 103h74l92 -103
h-70l-60 68h-2l-60 -68h-68z" />
    <glyph glyph-name="ccircumflex" unicode="&#x109;" horiz-adv-x="491" 
d="M136 596l85 106h74l83 -106h-69l-52 71h-2l-53 -71h-66zM260 -13q-110 0 -172.5 76t-62.5 195t63 195t173 76q86 0 140.5 -44.5t67.5 -123.5h-62q-23 116 -146 116q-85 0 -128.5 -61.5t-43.5 -157.5t43.5 -157t127.5 -61q65 0 105 37.5t48 100.5h59q-9 -89 -65 -140
t-147 -51z" />
    <glyph glyph-name="Cdotaccent" unicode="&#x10a;" horiz-adv-x="677" 
d="M327 757v86h61v-86h-61zM358 -13q-148 0 -235 102t-87 268q0 165 88 269t237 104q112 0 184.5 -58t90.5 -159h-66q-15 72 -70 115.5t-140 43.5q-121 0 -187.5 -88.5t-66.5 -226.5t66.5 -224.5t186.5 -86.5q99 0 157 60t67 154h65q-6 -113 -74 -187q-77 -86 -216 -86z" />
    <glyph glyph-name="cdotaccent" unicode="&#x10b;" horiz-adv-x="491" 
d="M260 -13q-110 0 -172.5 76t-62.5 195t63 195t173 76q86 0 140.5 -44.5t67.5 -123.5h-62q-23 116 -146 116q-85 0 -128.5 -61.5t-43.5 -157.5t43.5 -157t127.5 -61q65 0 105 37.5t48 100.5h59q-9 -89 -65 -140t-147 -51zM227 627v88h61v-88h-61z" />
    <glyph glyph-name="Ccaron" unicode="&#x10c;" horiz-adv-x="677" 
d="M358 -13q-148 0 -235 102t-87 268q0 165 88 269t237 104q112 0 184.5 -58t90.5 -159h-66q-15 72 -70 115.5t-140 43.5q-121 0 -187.5 -88.5t-66.5 -226.5t66.5 -224.5t186.5 -86.5q99 0 157 60t67 154h65q-6 -113 -74 -187q-77 -86 -216 -86zM320 754l-92 103h70l60 -67
h2l60 67h68l-94 -103h-74z" />
    <glyph glyph-name="ccaron" unicode="&#x10d;" horiz-adv-x="491" 
d="M219 596l-83 106h69l52 -71h2l53 71h66l-85 -106h-74zM260 -13q-110 0 -172.5 76t-62.5 195t63 195t173 76q86 0 140.5 -44.5t67.5 -123.5h-62q-23 116 -146 116q-85 0 -128.5 -61.5t-43.5 -157.5t43.5 -157t127.5 -61q65 0 105 37.5t48 100.5h59q-9 -89 -65 -140
t-147 -51z" />
    <glyph glyph-name="Dcaron" unicode="&#x10e;" horiz-adv-x="660" 
d="M262 754l-92 103h70l60 -67h2l60 67h68l-94 -103h-74zM131 59h178q124 0 184.5 77.5t60.5 218.5q0 301 -238 301h-185v-597zM64 0v715h254q153 0 229.5 -97t76.5 -263q0 -164 -79.5 -259.5t-233.5 -95.5h-247z" />
    <glyph glyph-name="dcaron" unicode="&#x10f;" horiz-adv-x="532" 
d="M520 552v33q33 13 33 52v2h-32v76h70v-76q0 -76 -71 -87zM248 -14q-103 0 -163 75t-60 196q0 125 63 198t158 73q117 0 170 -97h2v284h62v-715h-62v77h-2q-59 -91 -168 -91zM250 38q83 0 128 59.5t45 158.5q0 98 -45.5 159t-127.5 61q-75 0 -118 -60.5t-43 -159.5
q0 -96 41.5 -157t119.5 -61z" />
    <glyph glyph-name="Dcroat" unicode="&#x110;" horiz-adv-x="674" 
d="M142 59h177q125 0 185.5 78t60.5 218q0 301 -239 301h-184v-269h237v-57h-237v-271zM74 0v330h-71v57h71v328h254q153 0 229.5 -97t76.5 -263q0 -164 -79.5 -259.5t-233.5 -95.5h-247z" />
    <glyph glyph-name="dcroat" unicode="&#x111;" horiz-adv-x="532" 
d="M248 -14q-103 0 -163 75t-60 196q0 125 63 198t158 73q117 0 170 -97h2v153h-130v50h130v81h62v-81h59v-50h-59v-584h-62v77h-2q-59 -91 -168 -91zM250 38q83 0 128 59.5t45 158.5q0 98 -45.5 159t-127.5 61q-75 0 -118 -60.5t-43 -159.5q0 -96 41.5 -157t119.5 -61z" />
    <glyph glyph-name="Emacron" unicode="&#x112;" horiz-adv-x="598" 
d="M195 761v56h248v-56h-248zM64 0v715h486v-59h-419v-257h384v-58h-384v-279h430v-62h-497z" />
    <glyph glyph-name="emacron" unicode="&#x113;" horiz-adv-x="508" 
d="M266 -13q-113 0 -177 75.5t-64 195.5q0 118 65 194.5t171 76.5q60 0 104.5 -23t69.5 -64t36.5 -89.5t11.5 -105.5h-394q2 -92 47 -149.5t130 -57.5q118 0 151 116h60q-17 -78 -71.5 -123.5t-139.5 -45.5zM90 296h328q-2 81 -41.5 131.5t-115.5 50.5q-75 0 -118.5 -50
t-52.5 -132zM135 627v56h248v-56h-248z" />
    <glyph glyph-name="Ebreve" unicode="&#x114;" horiz-adv-x="598" 
d="M318 755q-51 0 -84.5 29.5t-36.5 76.5h51q10 -53 70 -53q61 0 71 53h51q-3 -46 -36.5 -76t-85.5 -30zM64 0v715h486v-59h-419v-257h384v-58h-384v-279h430v-62h-497z" />
    <glyph glyph-name="ebreve" unicode="&#x115;" horiz-adv-x="508" 
d="M266 -13q-113 0 -177 75.5t-64 195.5q0 118 65 194.5t171 76.5q60 0 104.5 -23t69.5 -64t36.5 -89.5t11.5 -105.5h-394q2 -92 47 -149.5t130 -57.5q118 0 151 116h60q-17 -78 -71.5 -123.5t-139.5 -45.5zM90 296h328q-2 81 -41.5 131.5t-115.5 50.5q-75 0 -118.5 -50
t-52.5 -132zM259 595q-51 0 -84.5 30.5t-36.5 77.5h51q10 -55 70 -55q30 0 48 15t23 40h51q-3 -46 -36.5 -77t-85.5 -31z" />
    <glyph glyph-name="Edotaccent" unicode="&#x116;" horiz-adv-x="598" 
d="M288 757v86h61v-86h-61zM64 0v715h486v-59h-419v-257h384v-58h-384v-279h430v-62h-497z" />
    <glyph glyph-name="edotaccent" unicode="&#x117;" horiz-adv-x="508" 
d="M266 -13q-113 0 -177 75.5t-64 195.5q0 118 65 194.5t171 76.5q60 0 104.5 -23t69.5 -64t36.5 -89.5t11.5 -105.5h-394q2 -92 47 -149.5t130 -57.5q118 0 151 116h60q-17 -78 -71.5 -123.5t-139.5 -45.5zM90 296h328q-2 81 -41.5 131.5t-115.5 50.5q-75 0 -118.5 -50
t-52.5 -132zM229 627v88h61v-88h-61z" />
    <glyph glyph-name="Eogonek" unicode="&#x118;" horiz-adv-x="598" 
d="M471 -174q-45 0 -68.5 20t-23.5 54q0 58 70 100h-385v715h486v-59h-419v-257h384v-58h-384v-279h430v-62h-48q-73 -53 -73 -93q0 -34 40 -34q24 0 45 9h3v-43q-24 -13 -57 -13z" />
    <glyph glyph-name="eogonek" unicode="&#x119;" horiz-adv-x="508" 
d="M335 -174q-45 0 -68.5 20t-23.5 54q0 49 60 90q-17 -3 -37 -3q-113 0 -177 75.5t-64 195.5q0 118 65 194.5t171 76.5q86 0 143 -52q81 -73 79 -230h-394q2 -92 47 -149.5t130 -57.5q118 0 151 116h60q-18 -81 -90 -142q-42 -36 -62.5 -60.5t-20.5 -47.5q0 -34 40 -34
q22 0 45 10h3v-44q-26 -12 -57 -12zM90 296h328q-2 81 -41.5 131.5t-115.5 50.5q-75 0 -118.5 -50t-52.5 -132z" />
    <glyph glyph-name="Ecaron" unicode="&#x11a;" horiz-adv-x="598" 
d="M281 754l-92 103h70l60 -67h2l60 67h68l-94 -103h-74zM64 0v715h486v-59h-419v-257h384v-58h-384v-279h430v-62h-497z" />
    <glyph glyph-name="ecaron" unicode="&#x11b;" horiz-adv-x="508" 
d="M221 596l-83 106h69l52 -71h2l53 71h66l-85 -106h-74zM266 -13q-113 0 -177 75.5t-64 195.5q0 118 65 194.5t171 76.5q60 0 104.5 -23t69.5 -64t36.5 -89.5t11.5 -105.5h-394q2 -92 47 -149.5t130 -57.5q118 0 151 116h60q-17 -78 -71.5 -123.5t-139.5 -45.5zM90 296h328
q-2 81 -41.5 131.5t-115.5 50.5q-75 0 -118.5 -50t-52.5 -132z" />
    <glyph glyph-name="Gcircumflex" unicode="&#x11c;" horiz-adv-x="722" 
d="M364 -14q-153 0 -240.5 103t-87.5 268q0 163 90 267.5t248 104.5q112 0 187.5 -57t94.5 -164h-69q-16 79 -73 121t-140 42q-132 0 -200 -88t-68 -226q0 -137 68 -224.5t191 -87.5q117 0 176.5 68.5t59.5 169.5v25h-230v59h296v-367h-47l-14 114h-3q-82 -128 -239 -128z
M235 754l94 103h74l92 -103h-70l-60 68h-2l-60 -68h-68z" />
    <glyph glyph-name="gcircumflex" unicode="&#x11d;" horiz-adv-x="527" 
d="M139 596l85 106h74l83 -106h-69l-52 71h-2l-53 -71h-66zM254 -181q-92 0 -146 37.5t-61 97.5h60q15 -84 145 -84q81 0 121.5 39t40.5 109v82h-3q-59 -90 -164 -90q-101 0 -161.5 71.5t-60.5 186.5q0 121 64 190.5t158 69.5q109 0 164 -91h3v80h61v-497q0 -86 -48 -139
q-59 -62 -173 -62zM250 62q84 0 126 55.5t42 151.5q0 95 -42.5 151t-124.5 56q-76 0 -119 -56.5t-43 -152.5q0 -92 41 -148.5t120 -56.5z" />
    <glyph glyph-name="Gbreve" unicode="&#x11e;" horiz-adv-x="722" 
d="M365 755q-51 0 -84.5 29.5t-36.5 76.5h51q10 -53 70 -53q61 0 71 53h51q-3 -46 -36.5 -76t-85.5 -30zM364 -14q-153 0 -240.5 103t-87.5 268q0 163 90 267.5t248 104.5q112 0 187.5 -57t94.5 -164h-69q-16 79 -73 121t-140 42q-132 0 -200 -88t-68 -226q0 -137 68 -224.5
t191 -87.5q117 0 176.5 68.5t59.5 169.5v25h-230v59h296v-367h-47l-14 114h-3q-82 -128 -239 -128z" />
    <glyph glyph-name="gbreve" unicode="&#x11f;" horiz-adv-x="527" 
d="M254 -181q-92 0 -146 37.5t-61 97.5h60q15 -84 145 -84q81 0 121.5 39t40.5 109v82h-3q-59 -90 -164 -90q-101 0 -161.5 71.5t-60.5 186.5q0 121 64 190.5t158 69.5q109 0 164 -91h3v80h61v-497q0 -86 -48 -139q-59 -62 -173 -62zM250 62q84 0 126 55.5t42 151.5
q0 95 -42.5 151t-124.5 56q-76 0 -119 -56.5t-43 -152.5q0 -92 41 -148.5t120 -56.5zM260 595q-51 0 -84.5 30.5t-36.5 77.5h51q10 -55 70 -55q30 0 48 15t23 40h51q-3 -46 -36.5 -77t-85.5 -31z" />
    <glyph glyph-name="Gdotaccent" unicode="&#x120;" horiz-adv-x="722" 
d="M335 757v86h61v-86h-61zM364 -14q-153 0 -240.5 103t-87.5 268q0 163 90 267.5t248 104.5q112 0 187.5 -57t94.5 -164h-69q-16 79 -73 121t-140 42q-132 0 -200 -88t-68 -226q0 -137 68 -224.5t191 -87.5q117 0 176.5 68.5t59.5 169.5v25h-230v59h296v-367h-47l-14 114
h-3q-82 -128 -239 -128z" />
    <glyph glyph-name="gdotaccent" unicode="&#x121;" horiz-adv-x="527" 
d="M254 -181q-92 0 -146 37.5t-61 97.5h60q15 -84 145 -84q81 0 121.5 39t40.5 109v82h-3q-59 -90 -164 -90q-101 0 -161.5 71.5t-60.5 186.5q0 121 64 190.5t158 69.5q109 0 164 -91h3v80h61v-497q0 -86 -48 -139q-59 -62 -173 -62zM250 62q84 0 126 55.5t42 151.5
q0 95 -42.5 151t-124.5 56q-76 0 -119 -56.5t-43 -152.5q0 -92 41 -148.5t120 -56.5zM229 627v88h61v-88h-61z" />
    <glyph glyph-name="Gcommaaccent" unicode="&#x122;" horiz-adv-x="722" 
d="M330 -214v33q33 13 33 55v1h-31v79h69v-78q0 -79 -71 -90zM364 -14q-153 0 -240.5 103t-87.5 268q0 163 90 267.5t248 104.5q112 0 187.5 -57t94.5 -164h-69q-16 79 -73 121t-140 42q-132 0 -200 -88t-68 -226q0 -137 68 -224.5t191 -87.5q117 0 176.5 68.5t59.5 169.5
v25h-230v59h296v-367h-47l-14 114h-3q-82 -128 -239 -128z" />
    <glyph glyph-name="gcommaaccent" unicode="&#x123;" horiz-adv-x="527" 
d="M221 600v78q0 79 71 90v-33q-33 -13 -33 -55v-1h31v-79h-69zM254 -181q-92 0 -146 37.5t-61 97.5h60q15 -84 145 -84q81 0 121.5 39t40.5 109v82h-3q-59 -90 -164 -90q-101 0 -161.5 71.5t-60.5 186.5q0 121 64 190.5t158 69.5q109 0 164 -91h3v80h61v-497
q0 -86 -48 -139q-59 -62 -173 -62zM250 62q84 0 126 55.5t42 151.5q0 95 -42.5 151t-124.5 56q-76 0 -119 -56.5t-43 -152.5q0 -92 41 -148.5t120 -56.5z" />
    <glyph glyph-name="Hcircumflex" unicode="&#x124;" horiz-adv-x="667" 
d="M64 0v715h67v-309h405v309h67v-715h-67v350h-405v-350h-67zM203 754l94 103h74l92 -103h-70l-60 68h-2l-60 -68h-68z" />
    <glyph glyph-name="hcircumflex" unicode="&#x125;" horiz-adv-x="505" 
d="M55 0v715h62v-277h2q61 90 173 90q74 0 119.5 -42.5t45.5 -118.5v-367h-62v361q0 114 -118 114q-67 0 -113.5 -42t-46.5 -105v-328h-62zM125 754l94 103h74l92 -103h-70l-60 68h-2l-60 -68h-68z" />
    <glyph glyph-name="Hbar" unicode="&#x126;" horiz-adv-x="667" 
d="M64 0v516h-70v54h70v145h67v-145h405v145h67v-145h70v-54h-70v-516h-67v350h-405v-350h-67zM131 406h405v110h-405v-110z" />
    <glyph glyph-name="hbar" unicode="&#x127;" horiz-adv-x="505" 
d="M55 0v584h-59v50h59v81h62v-81h130v-50h-130v-146h2q61 90 173 90q74 0 119.5 -42.5t45.5 -118.5v-367h-62v361q0 114 -118 114q-67 0 -113.5 -42t-46.5 -105v-328h-62z" />
    <glyph glyph-name="Itilde" unicode="&#x128;" horiz-adv-x="202" 
d="M67 0v715h67v-715h-67zM162 760q-24 0 -65 19.5t-53 19.5q-11 0 -19 -10t-9 -27h-49q8 87 74 87q25 0 63.5 -19t52.5 -19q28 0 31 36h48q-2 -40 -21.5 -63.5t-52.5 -23.5z" />
    <glyph glyph-name="itilde" unicode="&#x129;" horiz-adv-x="169" 
d="M38 602q-6 17 -8.5 31t0 22t8.5 8q11 0 29 -17l18 -18q4 1 2 2.5t-6 8t-4 13.5q1 16 19.5 26t34.5 10q10 -25 10 -43t-10 -18q-9 0 -27 17t-20 18q-3 -1 -0.5 -2.5t6 -8t2.5 -13.5q0 -15 -18.5 -25.5t-35.5 -10.5zM54 0v517h62v-517h-62z" />
    <glyph glyph-name="Imacron" unicode="&#x12a;" horiz-adv-x="202" 
d="M67 0v715h67v-715h-67zM9 762v54h184v-54h-184z" />
    <glyph glyph-name="imacron" unicode="&#x12b;" horiz-adv-x="169" 
d="M54 0v517h62v-517h-62zM-4 627v56h176v-56h-176z" />
    <glyph glyph-name="Ibreve" unicode="&#x12c;" horiz-adv-x="202" 
d="M67 0v715h67v-715h-67zM101 755q-51 0 -84.5 29.5t-36.5 76.5h51q10 -53 70 -53q61 0 71 53h51q-3 -46 -36.5 -76t-85.5 -30z" />
    <glyph glyph-name="ibreve" unicode="&#x12d;" horiz-adv-x="169" 
d="M54 0v517h62v-517h-62zM84 595q-51 0 -84.5 30.5t-36.5 77.5h51q10 -55 70 -55q30 0 48 15t23 40h51q-3 -46 -36.5 -77t-85.5 -31z" />
    <glyph glyph-name="Iogonek" unicode="&#x12e;" horiz-adv-x="202" 
d="M95 -174q-44 0 -67.5 20t-23.5 54q0 57 68 101h-5v714h67v-713q-70 -53 -70 -95q0 -34 40 -34q23 0 44 9h3v-43q-24 -13 -56 -13z" />
    <glyph glyph-name="iogonek" unicode="&#x12f;" horiz-adv-x="169" 
d="M76 -174q-43 0 -66 20t-23 54q0 29 19.5 56t47.5 44v517h62v-517q-68 -52 -68 -93q0 -35 37 -35q20 0 43 10h3v-43q-24 -13 -55 -13zM54 627v88h62v-88h-62z" />
    <glyph glyph-name="Idotaccent" unicode="&#x130;" horiz-adv-x="202" 
d="M67 0v715h67v-715h-67zM71 757v86h61v-86h-61z" />
    <glyph glyph-name="dotlessi" unicode="&#x131;" horiz-adv-x="169" 
d="M54 0v517h62v-517h-62z" />
    <glyph glyph-name="IJ" unicode="&#x132;" horiz-adv-x="662" 
d="M67 0v715h67v-715h-67zM411 -13q-202 0 -202 212v27h66v-24q0 -85 34 -121.5t104 -36.5q123 0 123 132v539h67v-544q0 -82 -49 -133t-143 -51z" />
    <glyph glyph-name="ij" unicode="&#x133;" horiz-adv-x="339" 
d="M54 0v517h62v-517h-62zM54 627v88h62v-88h-62zM149 -157v52h1q4 -1 17 -1q56 0 56 59v564h62v-567q0 -60 -28 -84t-82 -24q-21 0 -26 1zM223 627v88h62v-88h-62z" />
    <glyph glyph-name="Jcircumflex" unicode="&#x134;" horiz-adv-x="475" 
d="M224 -13q-202 0 -202 212v27h66v-24q0 -85 34 -121.5t104 -36.5q123 0 123 132v539h67v-544q0 -82 -49 -133t-143 -51zM252 754l94 103h74l92 -103h-70l-60 68h-2l-60 -68h-68z" />
    <glyph glyph-name="jcircumflex" unicode="&#x135;" horiz-adv-x="169" 
d="M-20 -157v52h1q4 -1 17 -1q56 0 56 59v564h62v-567q0 -60 -28 -84t-82 -24q-21 0 -26 1zM-22 596l70 106h74l68 -106h-64l-41 69h-2l-43 -69h-62z" />
    <glyph glyph-name="Kcommaaccent" unicode="&#x136;" horiz-adv-x="625" 
d="M271 -214v33q33 13 33 55v1h-31v79h69v-78q0 -79 -71 -90zM64 0v715h67v-381l386 381h87l-299 -291l317 -424h-80l-283 378l-128 -126v-252h-67z" />
    <glyph glyph-name="kcommaaccent" unicode="&#x137;" horiz-adv-x="476" 
d="M203 -214v33q33 13 33 55v1h-31v79h69v-78q0 -79 -71 -90zM52 0v715h62v-447l257 249h79l-198 -187l222 -330h-72l-193 290l-95 -91v-199h-62z" />
    <glyph glyph-name="Lacute" unicode="&#x139;" horiz-adv-x="536" 
d="M71 753l66 114h82l-94 -114h-54zM64 0v715h67v-653h381v-62h-448z" />
    <glyph glyph-name="lacute" unicode="&#x13a;" horiz-adv-x="172" 
d="M59 753l66 114h82l-94 -114h-54zM55 0v715h62v-715h-62z" />
    <glyph glyph-name="Lcommaaccent" unicode="&#x13b;" horiz-adv-x="536" 
d="M248 -214v33q33 13 33 55v1h-31v79h69v-78q0 -79 -71 -90zM64 0v715h67v-653h381v-62h-448z" />
    <glyph glyph-name="lcommaaccent" unicode="&#x13c;" horiz-adv-x="172" 
d="M50 -214v33q33 13 33 55v1h-31v79h69v-78q0 -79 -71 -90zM55 0v715h62v-715h-62z" />
    <glyph glyph-name="Lcaron" unicode="&#x13d;" horiz-adv-x="536" 
d="M284 552v33q33 13 33 52v2h-32v76h70v-76q0 -76 -71 -87zM64 0v715h67v-653h381v-62h-448z" />
    <glyph glyph-name="lcaron" unicode="&#x13e;" horiz-adv-x="172" 
d="M158 552v33q33 13 33 52v2h-32v76h70v-76q0 -76 -71 -87zM55 0v715h62v-715h-62z" />
    <glyph glyph-name="Ldot" unicode="&#x13f;" horiz-adv-x="536" 
d="M64 0v715h67v-653h381v-62h-448zM349 324v87h76v-87h-76z" />
    <glyph glyph-name="ldot" unicode="&#x140;" horiz-adv-x="260" 
d="M55 0v715h62v-715h-62zM176 279v87h76v-87h-76z" />
    <glyph glyph-name="Lslash" unicode="&#x141;" horiz-adv-x="548" 
d="M76 0v245l-81 -43v60l81 43v410h67v-374l262 140v-60l-262 -140v-219h381v-62h-448z" />
    <glyph glyph-name="lslash" unicode="&#x142;" horiz-adv-x="208" 
d="M73 0v328l-68 -57v63l68 56v325h62v-273l76 64v-63l-76 -64v-379h-62z" />
    <glyph glyph-name="Nacute" unicode="&#x143;" horiz-adv-x="667" 
d="M316 753l66 114h82l-94 -114h-54zM64 0v715h73l329 -502q16 -24 34 -53.5t28 -47.5l9 -17h2v620h64v-715h-70l-328 496l-75 121h-2v-617h-64z" />
    <glyph glyph-name="nacute" unicode="&#x144;" horiz-adv-x="502" 
d="M217 592l66 127h82l-94 -127h-54zM52 0v517h62v-79h2q61 90 173 90q74 0 119.5 -42.5t45.5 -118.5v-367h-62v361q0 114 -118 114q-67 0 -113.5 -42t-46.5 -105v-328h-62z" />
    <glyph glyph-name="Ncommaaccent" unicode="&#x145;" horiz-adv-x="667" 
d="M283 -214v33q33 13 33 55v1h-31v79h69v-78q0 -79 -71 -90zM64 0v715h73l329 -502q16 -24 34 -53.5t28 -47.5l9 -17h2v620h64v-715h-70l-328 496l-75 121h-2v-617h-64z" />
    <glyph glyph-name="ncommaaccent" unicode="&#x146;" horiz-adv-x="502" 
d="M219 -214v33q33 13 33 55v1h-31v79h69v-78q0 -79 -71 -90zM52 0v517h62v-79h2q61 90 173 90q74 0 119.5 -42.5t45.5 -118.5v-367h-62v361q0 114 -118 114q-67 0 -113.5 -42t-46.5 -105v-328h-62z" />
    <glyph glyph-name="Ncaron" unicode="&#x147;" horiz-adv-x="667" 
d="M312 754l-92 103h70l60 -67h2l60 67h68l-94 -103h-74zM64 0v715h73l329 -502q16 -24 34 -53.5t28 -47.5l9 -17h2v620h64v-715h-70l-328 496l-75 121h-2v-617h-64z" />
    <glyph glyph-name="ncaron" unicode="&#x148;" horiz-adv-x="502" 
d="M216 596l-83 106h69l52 -71h2l53 71h66l-85 -106h-74zM52 0v517h62v-79h2q61 90 173 90q74 0 119.5 -42.5t45.5 -118.5v-367h-62v361q0 114 -118 114q-67 0 -113.5 -42t-46.5 -105v-328h-62z" />
    <glyph glyph-name="napostrophe" unicode="&#x149;" horiz-adv-x="502" 
d="M52 0v517h62v-79h2q61 90 173 90q74 0 119.5 -42.5t45.5 -118.5v-367h-62v361q0 114 -118 114q-67 0 -113.5 -42t-46.5 -105v-328h-62zM-7 552v33q33 13 33 52v2h-31v76h69v-76q0 -76 -71 -87z" />
    <glyph glyph-name="Omacron" unicode="&#x14c;" horiz-adv-x="738" 
d="M245 761v56h248v-56h-248zM368 46q125 0 194.5 88.5t69.5 223.5t-69.5 223.5t-194.5 88.5q-124 0 -193 -88.5t-69 -223.5t69 -223.5t193 -88.5zM368 -14q-149 0 -240.5 105t-91.5 267t91.5 267t240.5 105q150 0 242 -105t92 -267t-92 -267t-242 -105z" />
    <glyph glyph-name="omacron" unicode="&#x14d;" horiz-adv-x="529" 
d="M140 627v56h248v-56h-248zM265 39q83 0 129 62t46 157t-46 157t-129 62q-84 0 -130 -62t-46 -157t46 -157t130 -62zM265 -13q-110 0 -175 76.5t-65 194.5t65 194.5t175 76.5q109 0 173.5 -76.5t64.5 -194.5t-64.5 -194.5t-173.5 -76.5z" />
    <glyph glyph-name="Obreve" unicode="&#x14e;" horiz-adv-x="738" 
d="M368 755q-51 0 -84.5 29.5t-36.5 76.5h51q10 -53 70 -53q61 0 71 53h51q-3 -46 -36.5 -76t-85.5 -30zM368 46q125 0 194.5 88.5t69.5 223.5t-69.5 223.5t-194.5 88.5q-124 0 -193 -88.5t-69 -223.5t69 -223.5t193 -88.5zM368 -14q-149 0 -240.5 105t-91.5 267t91.5 267
t240.5 105q150 0 242 -105t92 -267t-92 -267t-242 -105z" />
    <glyph glyph-name="obreve" unicode="&#x14f;" horiz-adv-x="529" 
d="M265 39q83 0 129 62t46 157t-46 157t-129 62q-84 0 -130 -62t-46 -157t46 -157t130 -62zM265 -13q-110 0 -175 76.5t-65 194.5t65 194.5t175 76.5q109 0 173.5 -76.5t64.5 -194.5t-64.5 -194.5t-173.5 -76.5zM263 595q-51 0 -84.5 30.5t-36.5 77.5h51q10 -55 70 -55
q30 0 48 15t23 40h51q-3 -46 -36.5 -77t-85.5 -31z" />
    <glyph glyph-name="Ohungarumlaut" unicode="&#x150;" horiz-adv-x="738" 
d="M368 46q125 0 194.5 88.5t69.5 223.5t-69.5 223.5t-194.5 88.5q-124 0 -193 -88.5t-69 -223.5t69 -223.5t193 -88.5zM368 -14q-149 0 -240.5 105t-91.5 267t91.5 267t240.5 105q150 0 242 -105t92 -267t-92 -267t-242 -105zM280 753l37 117h68l-55 -117h-50zM410 753
l36 117h69l-55 -117h-50z" />
    <glyph glyph-name="ohungarumlaut" unicode="&#x151;" horiz-adv-x="529" 
d="M175 592l37 127h68l-55 -127h-50zM305 592l36 127h69l-55 -127h-50zM265 39q83 0 129 62t46 157t-46 157t-129 62q-84 0 -130 -62t-46 -157t46 -157t130 -62zM265 -13q-110 0 -175 76.5t-65 194.5t65 194.5t175 76.5q109 0 173.5 -76.5t64.5 -194.5t-64.5 -194.5
t-173.5 -76.5z" />
    <glyph glyph-name="OE" unicode="&#x152;" horiz-adv-x="1086" 
d="M360 -14q-144 0 -234 105.5t-90 266.5t90.5 266.5t233.5 105.5t217 -116v101h462v-59h-395v-257h365v-58h-365v-279h406v-62h-473v96q-74 -110 -217 -110zM360 46q90 0 153.5 55.5t63.5 141.5v238q-4 82 -66.5 135.5t-150.5 53.5q-119 0 -186.5 -88.5t-67.5 -223.5
t67 -223.5t187 -88.5z" />
    <glyph glyph-name="oe" unicode="&#x153;" horiz-adv-x="886" 
d="M255 -13q-106 0 -168 76t-62 195t62 195t168 76q138 0 195 -133q25 62 75 97.5t120 35.5q79 0 132 -45q85 -72 85 -237h-382q2 -92 45 -149.5t127 -57.5q112 0 144 116h59q-15 -78 -68 -123.5t-135 -45.5q-148 0 -202 133q-55 -133 -195 -133zM255 39q79 0 122 62t43 157
t-43 157t-122 62t-122.5 -62t-43.5 -157t43.5 -157t122.5 -62zM479 296h318q-2 82 -39.5 132t-111.5 50t-116 -50t-51 -132z" />
    <glyph glyph-name="Racute" unicode="&#x154;" horiz-adv-x="631" 
d="M64 0v715h319q96 0 149.5 -51.5t53.5 -141.5q0 -134 -120 -172v-3q54 -18 76.5 -61.5t26.5 -128.5q6 -136 31 -153v-4h-72q-12 8 -16.5 38t-9.5 122q-4 91 -38.5 125t-114.5 34h-218v-319h-67zM131 376h229q77 0 117 36.5t40 103.5q0 69 -35 104.5t-113 35.5h-238v-280z
M275 753l66 114h82l-94 -114h-54z" />
    <glyph glyph-name="racute" unicode="&#x155;" horiz-adv-x="308" 
d="M142 592l66 127h82l-94 -127h-54zM52 0v517h62v-96h2q53 100 158 100q9 0 17 -2v-61q-61 10 -110 -25q-67 -50 -67 -139v-294h-62z" />
    <glyph glyph-name="Rcommaaccent" unicode="&#x156;" horiz-adv-x="631" 
d="M282 -214v33q33 13 33 55v1h-31v79h69v-78q0 -79 -71 -90zM64 0v715h319q96 0 149.5 -51.5t53.5 -141.5q0 -134 -120 -172v-3q54 -18 76.5 -61.5t26.5 -128.5q6 -136 31 -153v-4h-72q-12 8 -16.5 38t-9.5 122q-4 91 -38.5 125t-114.5 34h-218v-319h-67zM131 376h229
q77 0 117 36.5t40 103.5q0 69 -35 104.5t-113 35.5h-238v-280z" />
    <glyph glyph-name="rcommaaccent" unicode="&#x157;" horiz-adv-x="308" 
d="M46 -214v33q33 13 33 55v1h-31v79h69v-78q0 -79 -71 -90zM52 0v517h62v-96h2q53 100 158 100q9 0 17 -2v-61q-61 10 -110 -25q-67 -50 -67 -139v-294h-62z" />
    <glyph glyph-name="Rcaron" unicode="&#x158;" horiz-adv-x="631" 
d="M272 754l-92 103h70l60 -67h2l60 67h68l-94 -103h-74zM64 0v715h319q96 0 149.5 -51.5t53.5 -141.5q0 -134 -120 -172v-3q54 -18 76.5 -61.5t26.5 -128.5q6 -136 31 -153v-4h-72q-12 8 -16.5 38t-9.5 122q-4 91 -38.5 125t-114.5 34h-218v-319h-67zM131 376h229
q77 0 117 36.5t40 103.5q0 69 -35 104.5t-113 35.5h-238v-280z" />
    <glyph glyph-name="rcaron" unicode="&#x159;" horiz-adv-x="308" 
d="M141 596l-83 106h69l52 -71h2l53 71h66l-85 -106h-74zM52 0v517h62v-96h2q53 100 158 100q9 0 17 -2v-61q-61 10 -110 -25q-67 -50 -67 -139v-294h-62z" />
    <glyph glyph-name="Sacute" unicode="&#x15a;" horiz-adv-x="599" 
d="M312 -13q-135 0 -209 67.5t-80 177.5h67q5 -90 63.5 -139.5t159.5 -49.5q81 0 132 39.5t51 110.5t-47.5 101t-172.5 55q-112 22 -168.5 63t-56.5 128q0 85 66 137t173 52q115 0 178.5 -56.5t73.5 -152.5h-65q-9 74 -58.5 113.5t-127.5 39.5q-81 0 -128 -35.5t-47 -95.5
t44.5 -87.5t149.5 -47.5q49 -9 81 -17.5t68 -25t56.5 -37.5t34.5 -54t14 -77q0 -95 -69.5 -152t-182.5 -57zM258 753l66 114h82l-94 -114h-54z" />
    <glyph glyph-name="sacute" unicode="&#x15b;" horiz-adv-x="451" 
d="M189 592l66 127h82l-94 -127h-54zM233 -14q-100 0 -154.5 48t-59.5 127h63q13 -122 152 -122q63 0 97 27t34 73q0 42 -28.5 62t-109.5 38q-47 11 -75 20t-57.5 25.5t-43 42t-13.5 61.5q0 64 50 102t130 38q172 0 192 -153h-62q-11 102 -130 102q-58 0 -88 -24t-30 -62
q0 -41 32 -58.5t116 -37.5q92 -19 135.5 -50.5t43.5 -104.5q0 -70 -52.5 -112t-141.5 -42z" />
    <glyph glyph-name="Scircumflex" unicode="&#x15c;" horiz-adv-x="599" 
d="M312 -13q-135 0 -209 67.5t-80 177.5h67q5 -90 63.5 -139.5t159.5 -49.5q81 0 132 39.5t51 110.5t-47.5 101t-172.5 55q-112 22 -168.5 63t-56.5 128q0 85 66 137t173 52q115 0 178.5 -56.5t73.5 -152.5h-65q-9 74 -58.5 113.5t-127.5 39.5q-81 0 -128 -35.5t-47 -95.5
t44.5 -87.5t149.5 -47.5q49 -9 81 -17.5t68 -25t56.5 -37.5t34.5 -54t14 -77q0 -95 -69.5 -152t-182.5 -57zM162 754l94 103h74l92 -103h-70l-60 68h-2l-60 -68h-68z" />
    <glyph glyph-name="scircumflex" unicode="&#x15d;" horiz-adv-x="451" 
d="M105 596l85 106h74l83 -106h-69l-52 71h-2l-53 -71h-66zM233 -14q-100 0 -154.5 48t-59.5 127h63q13 -122 152 -122q63 0 97 27t34 73q0 42 -28.5 62t-109.5 38q-47 11 -75 20t-57.5 25.5t-43 42t-13.5 61.5q0 64 50 102t130 38q172 0 192 -153h-62q-11 102 -130 102
q-58 0 -88 -24t-30 -62q0 -41 32 -58.5t116 -37.5q92 -19 135.5 -50.5t43.5 -104.5q0 -70 -52.5 -112t-141.5 -42z" />
    <glyph glyph-name="Scedilla" unicode="&#x15e;" horiz-adv-x="599" 
d="M270 -187q-56 0 -97 25l15 27q33 -14 69 -14q57 0 57 35q0 28 -41 28q-21 0 -40 -7l-14 23l59 59q-119 8 -184.5 74t-70.5 169h67q5 -90 63.5 -139.5t159.5 -49.5q81 0 132 39.5t51 110.5t-47.5 101t-172.5 55q-112 22 -168.5 63t-56.5 128q0 85 66 137t173 52
q115 0 178.5 -56.5t73.5 -152.5h-65q-9 74 -58.5 113.5t-127.5 39.5q-81 0 -128 -35.5t-47 -95.5t44.5 -87.5t149.5 -47.5q49 -9 81 -17.5t68 -25t56.5 -37.5t34.5 -54t14 -77q0 -92 -65.5 -148.5t-172.5 -60.5l-42 -37v-2q34 3 59.5 -13t25.5 -49q0 -35 -27 -54t-72 -19z
" />
    <glyph glyph-name="scedilla" unicode="&#x15f;" horiz-adv-x="451" 
d="M202 -187q-56 0 -97 25l15 27q33 -14 69 -14q57 0 57 35q0 28 -41 28q-21 0 -40 -7l-14 23l57 57q-88 6 -136.5 53.5t-52.5 120.5h63q13 -122 152 -122q63 0 97 27t34 73q0 42 -28.5 62t-109.5 38q-47 11 -75 20t-57.5 25.5t-43 42t-13.5 61.5q0 64 50 102t130 38
q172 0 192 -153h-62q-11 102 -130 102q-58 0 -88 -24t-30 -62q0 -41 32 -58.5t116 -37.5q92 -19 135.5 -50.5t43.5 -104.5q0 -65 -45 -106t-124 -47l-42 -37v-2q34 3 59.5 -13t25.5 -49q0 -35 -27 -54t-72 -19z" />
    <glyph glyph-name="Scaron" unicode="&#x160;" horiz-adv-x="599" 
d="M312 -13q-135 0 -209 67.5t-80 177.5h67q5 -90 63.5 -139.5t159.5 -49.5q81 0 132 39.5t51 110.5t-47.5 101t-172.5 55q-112 22 -168.5 63t-56.5 128q0 85 66 137t173 52q115 0 178.5 -56.5t73.5 -152.5h-65q-9 74 -58.5 113.5t-127.5 39.5q-81 0 -128 -35.5t-47 -95.5
t44.5 -87.5t149.5 -47.5q49 -9 81 -17.5t68 -25t56.5 -37.5t34.5 -54t14 -77q0 -95 -69.5 -152t-182.5 -57zM254 754l-92 103h70l60 -67h2l60 67h68l-94 -103h-74z" />
    <glyph glyph-name="scaron" unicode="&#x161;" horiz-adv-x="451" 
d="M188 596l-83 106h69l52 -71h2l53 71h66l-85 -106h-74zM233 -14q-100 0 -154.5 48t-59.5 127h63q13 -122 152 -122q63 0 97 27t34 73q0 42 -28.5 62t-109.5 38q-47 11 -75 20t-57.5 25.5t-43 42t-13.5 61.5q0 64 50 102t130 38q172 0 192 -153h-62q-11 102 -130 102
q-58 0 -88 -24t-30 -62q0 -41 32 -58.5t116 -37.5q92 -19 135.5 -50.5t43.5 -104.5q0 -70 -52.5 -112t-141.5 -42z" />
    <glyph glyph-name="Tcommaaccent" unicode="&#x162;" horiz-adv-x="588" 
d="M258 -214v33q33 13 33 55v1h-31v79h69v-78q0 -79 -71 -90zM261 0v655h-242v60h550v-60h-241v-655h-67z" />
    <glyph glyph-name="tcommaaccent" unicode="&#x163;" horiz-adv-x="282" 
d="M124 -214v33q33 13 33 55v1h-31v79h69v-78q0 -79 -71 -90zM194 -4q-99 0 -99 93v377h-78v51h78v159h62v-159h96v-51h-96v-367q0 -27 12 -38t38 -11q23 0 41 8h3v-53q-25 -9 -57 -9z" />
    <glyph glyph-name="Tcaron" unicode="&#x164;" horiz-adv-x="588" 
d="M256 754l-92 103h70l60 -67h2l60 67h68l-94 -103h-74zM261 0v655h-242v60h550v-60h-241v-655h-67z" />
    <glyph glyph-name="tcaron" unicode="&#x165;" horiz-adv-x="282" 
d="M194 -4q-99 0 -99 93v377h-78v51h78v159h62v-159h96v-51h-96v-367q0 -27 12 -38t38 -11q23 0 41 8h3v-53q-25 -9 -57 -9zM215 559v33q33 11 33 50h-32v73h69v-73q0 -73 -70 -83z" />
    <glyph glyph-name="Tbar" unicode="&#x166;" horiz-adv-x="588" 
d="M261 0v356h-141v53h141v246h-242v60h550v-60h-241v-246h140v-53h-140v-356h-67z" />
    <glyph glyph-name="tbar" unicode="&#x167;" horiz-adv-x="282" 
d="M194 -4q-99 0 -99 93v216h-78v51h78v110h-78v51h78v159h62v-159h96v-51h-96v-110h96v-51h-96v-206q0 -27 12 -38t38 -11q23 0 41 8h3v-53q-25 -9 -57 -9z" />
    <glyph glyph-name="Utilde" unicode="&#x168;" horiz-adv-x="636" 
d="M379 760q-24 0 -65 19.5t-53 19.5q-11 0 -19 -10t-9 -27h-49q8 87 74 87q25 0 63.5 -19t52.5 -19q28 0 31 36h48q-2 -40 -21.5 -63.5t-52.5 -23.5zM316 -11q-121 0 -190.5 59.5t-69.5 178.5v488h67v-482q0 -186 196 -186q195 0 195 186v482h67v-488q0 -120 -71.5 -179
t-193.5 -59z" />
    <glyph glyph-name="utilde" unicode="&#x169;" horiz-adv-x="495" 
d="M218 -12q-76 0 -123 43.5t-47 120.5v365h62v-361q0 -57 32 -86.5t90 -29.5q66 0 108 44t42 110v323h61v-517h-61v76h-2q-31 -42 -68 -65t-94 -23zM310 600q-24 0 -65 19.5t-53 19.5q-11 0 -19 -10t-9 -27h-49q8 88 74 88q25 0 63.5 -19.5t52.5 -19.5q28 0 31 37h48
q-2 -41 -21.5 -64.5t-52.5 -23.5z" />
    <glyph glyph-name="Umacron" unicode="&#x16a;" horiz-adv-x="636" 
d="M194 761v56h248v-56h-248zM316 -11q-121 0 -190.5 59.5t-69.5 178.5v488h67v-482q0 -186 196 -186q195 0 195 186v482h67v-488q0 -120 -71.5 -179t-193.5 -59z" />
    <glyph glyph-name="umacron" unicode="&#x16b;" horiz-adv-x="495" 
d="M218 -12q-76 0 -123 43.5t-47 120.5v365h62v-361q0 -57 32 -86.5t90 -29.5q66 0 108 44t42 110v323h61v-517h-61v76h-2q-31 -42 -68 -65t-94 -23zM125 627v56h248v-56h-248z" />
    <glyph glyph-name="Ubreve" unicode="&#x16c;" horiz-adv-x="636" 
d="M317 755q-51 0 -84.5 29.5t-36.5 76.5h51q10 -53 70 -53q61 0 71 53h51q-3 -46 -36.5 -76t-85.5 -30zM316 -11q-121 0 -190.5 59.5t-69.5 178.5v488h67v-482q0 -186 196 -186q195 0 195 186v482h67v-488q0 -120 -71.5 -179t-193.5 -59z" />
    <glyph glyph-name="ubreve" unicode="&#x16d;" horiz-adv-x="495" 
d="M218 -12q-76 0 -123 43.5t-47 120.5v365h62v-361q0 -57 32 -86.5t90 -29.5q66 0 108 44t42 110v323h61v-517h-61v76h-2q-31 -42 -68 -65t-94 -23zM249 595q-51 0 -84.5 30.5t-36.5 77.5h51q10 -55 70 -55q30 0 48 15t23 40h51q-3 -46 -36.5 -77t-85.5 -31z" />
    <glyph glyph-name="Uring" unicode="&#x16e;" horiz-adv-x="636" 
d="M316 -11q-121 0 -190.5 59.5t-69.5 178.5v488h67v-482q0 -186 196 -186q195 0 195 186v482h67v-488q0 -120 -71.5 -179t-193.5 -59zM318 765q21 0 34.5 15t13.5 37t-13.5 36.5t-34.5 14.5t-34.5 -14.5t-13.5 -36.5t13.5 -37t34.5 -15zM318 732q-36 0 -61.5 25t-25.5 60
t25.5 60t61.5 25t61.5 -25t25.5 -60t-25.5 -60t-61.5 -25z" />
    <glyph glyph-name="uring" unicode="&#x16f;" horiz-adv-x="495" 
d="M249 603q21 0 34.5 14.5t13.5 36.5t-13.5 36.5t-34.5 14.5t-34.5 -14.5t-13.5 -36.5t13.5 -36.5t34.5 -14.5zM249 569q-36 0 -61.5 25t-25.5 60t25.5 60t61.5 25t61.5 -25t25.5 -60t-25.5 -60t-61.5 -25zM218 -12q-76 0 -123 43.5t-47 120.5v365h62v-361q0 -57 32 -86.5
t90 -29.5q66 0 108 44t42 110v323h61v-517h-61v76h-2q-31 -42 -68 -65t-94 -23z" />
    <glyph glyph-name="Uhungarumlaut" unicode="&#x170;" horiz-adv-x="636" 
d="M316 -11q-121 0 -190.5 59.5t-69.5 178.5v488h67v-482q0 -186 196 -186q195 0 195 186v482h67v-488q0 -120 -71.5 -179t-193.5 -59zM229 753l37 117h68l-55 -117h-50zM359 753l36 117h69l-55 -117h-50z" />
    <glyph glyph-name="uhungarumlaut" unicode="&#x171;" horiz-adv-x="495" 
d="M218 -12q-76 0 -123 43.5t-47 120.5v365h62v-361q0 -57 32 -86.5t90 -29.5q66 0 108 44t42 110v323h61v-517h-61v76h-2q-31 -42 -68 -65t-94 -23zM159 592l37 127h68l-55 -127h-50zM289 592l36 127h69l-55 -127h-50z" />
    <glyph glyph-name="Uogonek" unicode="&#x172;" horiz-adv-x="636" 
d="M363 -174q-45 0 -68 20t-23 54q0 49 55 89h-11q-121 0 -190.5 59.5t-69.5 178.5v488h67v-482q0 -186 196 -186q195 0 195 186v482h67v-488q0 -154 -129 -213q-8 -4 -22 -10.5t-22 -10t-18.5 -10t-18.5 -12.5q-39 -31 -39 -64q0 -34 41 -34q25 0 44 9h3v-43
q-24 -13 -57 -13z" />
    <glyph glyph-name="uogonek" unicode="&#x173;" horiz-adv-x="495" 
d="M398 -174q-45 0 -68 20t-23 54q0 30 21.5 57t53.5 45v74h-2q-31 -42 -68 -65t-94 -23q-76 0 -123 43.5t-47 120.5v365h62v-361q0 -57 32 -86.5t90 -29.5q66 0 108 44t42 110v323h61v-515q-75 -52 -75 -95q0 -35 40 -35q21 0 44 10h3v-43q-24 -13 -57 -13z" />
    <glyph glyph-name="Wcircumflex" unicode="&#x174;" horiz-adv-x="880" 
d="M202 0l-190 715h69l124 -482l33 -141h2q20 86 34 137l131 486h72l131 -485l33 -138h2q20 88 33 141l125 482h67l-194 -715h-68l-136 521l-28 116h-2q-15 -70 -27 -116l-140 -521h-71zM309 754l94 103h74l92 -103h-70l-60 68h-2l-60 -68h-68z" />
    <glyph glyph-name="wcircumflex" unicode="&#x175;" horiz-adv-x="711" 
d="M233 596l85 106h74l83 -106h-69l-52 71h-2l-53 -71h-66zM164 0l-154 517h65l90 -320l33 -135h2q20 83 33 130l88 325h67l85 -325l31 -130h2q21 85 36 135l96 320h63l-163 -517h-68l-89 330l-27 117h-2q-14 -68 -27 -117l-91 -330h-70z" />
    <glyph glyph-name="Ycircumflex" unicode="&#x176;" horiz-adv-x="600" 
d="M265 0v312l-258 403h74l218 -346h2l220 346h72l-260 -405v-310h-68zM169 754l94 103h74l92 -103h-70l-60 68h-2l-60 -68h-68z" />
    <glyph glyph-name="ycircumflex" unicode="&#x177;" horiz-adv-x="469" 
d="M106 -171q-27 0 -53 8v55h3q21 -7 47 -7q61 0 86 70l17 46l-199 516h66l124 -334l41 -118h2q22 70 39 118l119 334h64l-213 -571q-25 -67 -57.5 -92t-85.5 -25zM118 596l85 106h74l83 -106h-69l-52 71h-2l-53 -71h-66z" />
    <glyph glyph-name="Ydieresis" unicode="&#x178;" horiz-adv-x="600" 
d="M265 0v312l-258 403h74l218 -346h2l220 346h72l-260 -405v-310h-68zM191 757v86h60v-86h-60zM347 757v86h60v-86h-60z" />
    <glyph glyph-name="Zacute" unicode="&#x179;" horiz-adv-x="593" 
d="M26 0v65l437 590v3h-410v57h491v-57l-440 -595v-3h456v-60h-534zM265 753l66 114h82l-94 -114h-54z" />
    <glyph glyph-name="zacute" unicode="&#x17a;" horiz-adv-x="447" 
d="M197 592l66 127h82l-94 -127h-54zM28 0v53l302 407v3h-282v54h365v-44l-308 -415v-3h317v-55h-394z" />
    <glyph glyph-name="Zdotaccent" unicode="&#x17b;" horiz-adv-x="593" 
d="M269 757v86h61v-86h-61zM26 0v65l437 590v3h-410v57h491v-57l-440 -595v-3h456v-60h-534z" />
    <glyph glyph-name="zdotaccent" unicode="&#x17c;" horiz-adv-x="447" 
d="M28 0v53l302 407v3h-282v54h365v-44l-308 -415v-3h317v-55h-394zM204 627v88h61v-88h-61z" />
    <glyph glyph-name="Zcaron" unicode="&#x17d;" horiz-adv-x="593" 
d="M261 754l-92 103h70l60 -67h2l60 67h68l-94 -103h-74zM26 0v65l437 590v3h-410v57h491v-57l-440 -595v-3h456v-60h-534z" />
    <glyph glyph-name="zcaron" unicode="&#x17e;" horiz-adv-x="447" 
d="M196 596l-83 106h69l52 -71h2l53 71h66l-85 -106h-74zM28 0v53l302 407v3h-282v54h365v-44l-308 -415v-3h317v-55h-394z" />
    <glyph glyph-name="florin" unicode="&#x192;" horiz-adv-x="335" 
d="M-20 -148v52h18q61 0 69 58l54 388h-82v50h89l26 177q16 114 126 114q34 0 40 -1v-54q-4 1 -34 1q-34 0 -50 -15.5t-21 -51.5l-24 -170h102v-50h-109l-55 -392q-8 -57 -38 -82.5t-85 -25.5q-14 0 -26 2z" />
    <glyph glyph-name="AEacute" unicode="&#x1fc;" horiz-adv-x="945" 
d="M544 753l66 114h82l-94 -114h-54zM11 0l282 715h605v-59h-378v-257h342v-58h-342v-279h389v-62h-456v225h-286l-88 -225h-68zM188 280h265v376h-117z" />
    <glyph glyph-name="aeacute" unicode="&#x1fd;" horiz-adv-x="842" 
d="M392 592l66 127h82l-94 -127h-54zM201 -12q-78 0 -128 38.5t-50 108.5q0 44 16 74t48.5 46.5t66 24.5t83.5 13q83 9 110.5 21.5t27.5 49.5v8q0 106 -122 106q-131 0 -143 -115h-61q8 77 59.5 121t144.5 44q137 0 168 -100q59 101 180 101q78 0 131 -45q87 -72 85 -237
h-382q2 -93 45.5 -150t127.5 -57q112 0 143 116h60q-15 -78 -68 -123.5t-135 -45.5q-138 0 -198 115h-2q-35 -60 -84.5 -87t-122.5 -27zM210 38q77 0 121.5 45.5t44.5 103.5v90q-40 -21 -135 -32q-40 -4 -63 -9t-46.5 -16.5t-33.5 -32.5t-10 -53q0 -50 34 -73t88 -23z
M437 296h315q-2 81 -40 131.5t-111 50.5q-74 0 -115 -50t-49 -132z" />
    <glyph glyph-name="Oslashacute" unicode="&#x1fe;" horiz-adv-x="738" 
d="M61 -16l-33 30l85 94q-77 102 -77 250q0 162 91.5 267t240.5 105q135 0 228 -91l81 90l33 -30l-84 -93q76 -103 76 -248q0 -162 -92 -267t-242 -105q-135 0 -225 88zM158 157l395 435q-70 78 -185 78q-124 0 -193 -88.5t-69 -223.5q0 -121 52 -201zM368 46
q125 0 194.5 88.5t69.5 223.5q0 119 -52 199l-395 -436q73 -75 183 -75zM334 753l66 114h82l-94 -114h-54z" />
    <glyph glyph-name="oslashacute" unicode="&#x1ff;" horiz-adv-x="529" 
d="M45 -15l-27 25l60 68q-53 73 -53 180q0 118 65 194.5t175 76.5q96 0 161 -63l57 64l28 -25l-61 -68q53 -71 53 -179q0 -118 -64.5 -194.5t-173.5 -76.5q-99 0 -162 63zM120 124l267 299q-46 54 -122 54q-84 0 -130 -62t-46 -157q0 -79 31 -134zM265 39q83 0 129 62
t46 157q0 79 -31 134l-268 -299q48 -54 124 -54zM227 592l66 127h82l-94 -127h-54z" />
    <glyph glyph-name="Scommaaccent" unicode="&#x218;" horiz-adv-x="599" 
d="M257 -214v33q33 13 33 55v1h-31v79h69v-78q0 -79 -71 -90zM312 -13q-135 0 -209 67.5t-80 177.5h67q5 -90 63.5 -139.5t159.5 -49.5q81 0 132 39.5t51 110.5t-47.5 101t-172.5 55q-112 22 -168.5 63t-56.5 128q0 85 66 137t173 52q115 0 178.5 -56.5t73.5 -152.5h-65
q-9 74 -58.5 113.5t-127.5 39.5q-81 0 -128 -35.5t-47 -95.5t44.5 -87.5t149.5 -47.5q49 -9 81 -17.5t68 -25t56.5 -37.5t34.5 -54t14 -77q0 -95 -69.5 -152t-182.5 -57z" />
    <glyph glyph-name="scommaaccent" unicode="&#x219;" horiz-adv-x="451" 
d="M191 -214v33q33 13 33 55v1h-31v79h69v-78q0 -79 -71 -90zM233 -14q-100 0 -154.5 48t-59.5 127h63q13 -122 152 -122q63 0 97 27t34 73q0 42 -28.5 62t-109.5 38q-47 11 -75 20t-57.5 25.5t-43 42t-13.5 61.5q0 64 50 102t130 38q172 0 192 -153h-62q-11 102 -130 102
q-58 0 -88 -24t-30 -62q0 -41 32 -58.5t116 -37.5q92 -19 135.5 -50.5t43.5 -104.5q0 -70 -52.5 -112t-141.5 -42z" />
    <glyph glyph-name="uni021A" unicode="&#x21a;" horiz-adv-x="588" 
d="M258 -214v33q33 13 33 55v1h-31v79h69v-78q0 -79 -71 -90zM261 0v655h-242v60h550v-60h-241v-655h-67z" />
    <glyph glyph-name="uni021B" unicode="&#x21b;" horiz-adv-x="282" 
d="M194 -4q-99 0 -99 93v377h-78v51h78v159h62v-159h96v-51h-96v-367q0 -27 12 -38t38 -11q23 0 41 8h3v-53q-25 -9 -57 -9zM124 -214v33q33 13 33 55v1h-31v79h69v-78q0 -79 -71 -90z" />
    <glyph glyph-name="uni0237" unicode="&#x237;" horiz-adv-x="169" 
d="M-20 -157v52h1q4 -1 17 -1q56 0 56 59v564h62v-567q0 -60 -28 -84t-82 -24q-21 0 -26 1z" />
    <glyph glyph-name="circumflex" unicode="&#x2c6;" 
d="M129 596l85 106h74l83 -106h-69l-52 71h-2l-53 -71h-66z" />
    <glyph glyph-name="caron" unicode="&#x2c7;" 
d="M212 596l-83 106h69l52 -71h2l53 71h66l-85 -106h-74z" />
    <glyph glyph-name="uni02C9" unicode="&#x2c9;" 
d="M126 627v56h248v-56h-248z" />
    <glyph glyph-name="breve" unicode="&#x2d8;" 
d="M261 595q-51 0 -84.5 30.5t-36.5 77.5h51q10 -55 70 -55q30 0 48 15t23 40h51q-3 -46 -36.5 -77t-85.5 -31z" />
    <glyph glyph-name="dotaccent" unicode="&#x2d9;" horiz-adv-x="512" 
d="M225 627v88h61v-88h-61z" />
    <glyph glyph-name="ring" unicode="&#x2da;" horiz-adv-x="509" 
d="M254 603q21 0 34.5 14.5t13.5 36.5t-13.5 36.5t-34.5 14.5t-34.5 -14.5t-13.5 -36.5t13.5 -36.5t34.5 -14.5zM254 569q-36 0 -61.5 25t-25.5 60t25.5 60t61.5 25t61.5 -25t25.5 -60t-25.5 -60t-61.5 -25z" />
    <glyph glyph-name="ogonek" unicode="&#x2db;" 
d="M229 -174q-45 0 -68 20t-23 54q0 31 23 57.5t55 42.5h55q-73 -53 -73 -93q0 -34 41 -34q25 0 44 9h3v-43q-24 -13 -57 -13z" />
    <glyph glyph-name="tilde" unicode="&#x2dc;" 
d="M310 600q-24 0 -65 19.5t-53 19.5q-11 0 -19 -10t-9 -27h-49q8 88 74 88q25 0 63.5 -19.5t52.5 -19.5q28 0 31 37h48q-2 -41 -21.5 -64.5t-52.5 -23.5z" />
    <glyph glyph-name="hungarumlaut" unicode="&#x2dd;" 
d="M147 592l37 127h68l-55 -127h-50zM277 592l36 127h69l-55 -127h-50z" />
    <glyph glyph-name="pi" unicode="&#x3c0;" horiz-adv-x="580" 
d="M499 -4q-45 0 -71.5 23t-26.5 70v377h-238v-466h-62v466h-81v51h528v-51h-86v-367q0 -27 12.5 -38t38.5 -11q19 0 37 8h3v-53q-24 -9 -54 -9z" />
    <glyph glyph-name="Wgrave" unicode="&#x1e80;" horiz-adv-x="880" 
d="M421 753l-94 114h82l66 -114h-54zM202 0l-190 715h69l124 -482l33 -141h2q20 86 34 137l131 486h72l131 -485l33 -138h2q20 88 33 141l125 482h67l-194 -715h-68l-136 521l-28 116h-2q-15 -70 -27 -116l-140 -521h-71z" />
    <glyph glyph-name="wgrave" unicode="&#x1e81;" horiz-adv-x="711" 
d="M164 0l-154 517h65l90 -320l33 -135h2q20 83 33 130l88 325h67l85 -325l31 -130h2q21 85 36 135l96 320h63l-163 -517h-68l-89 330l-27 117h-2q-14 -68 -27 -117l-91 -330h-70zM340 592l-94 127h82l66 -127h-54z" />
    <glyph glyph-name="Wacute" unicode="&#x1e82;" horiz-adv-x="880" 
d="M405 753l66 114h82l-94 -114h-54zM202 0l-190 715h69l124 -482l33 -141h2q20 86 34 137l131 486h72l131 -485l33 -138h2q20 88 33 141l125 482h67l-194 -715h-68l-136 521l-28 116h-2q-15 -70 -27 -116l-140 -521h-71z" />
    <glyph glyph-name="wacute" unicode="&#x1e83;" horiz-adv-x="711" 
d="M317 592l66 127h82l-94 -127h-54zM164 0l-154 517h65l90 -320l33 -135h2q20 83 33 130l88 325h67l85 -325l31 -130h2q21 85 36 135l96 320h63l-163 -517h-68l-89 330l-27 117h-2q-14 -68 -27 -117l-91 -330h-70z" />
    <glyph glyph-name="Wdieresis" unicode="&#x1e84;" horiz-adv-x="880" 
d="M331 757v86h60v-86h-60zM487 757v86h60v-86h-60zM202 0l-190 715h69l124 -482l33 -141h2q20 86 34 137l131 486h72l131 -485l33 -138h2q20 88 33 141l125 482h67l-194 -715h-68l-136 521l-28 116h-2q-15 -70 -27 -116l-140 -521h-71z" />
    <glyph glyph-name="wdieresis" unicode="&#x1e85;" horiz-adv-x="711" 
d="M246 627v86h60v-86h-60zM402 627v86h60v-86h-60zM164 0l-154 517h65l90 -320l33 -135h2q20 83 33 130l88 325h67l85 -325l31 -130h2q21 85 36 135l96 320h63l-163 -517h-68l-89 330l-27 117h-2q-14 -68 -27 -117l-91 -330h-70z" />
    <glyph glyph-name="Ygrave" unicode="&#x1ef2;" horiz-adv-x="600" 
d="M265 0v312l-258 403h74l218 -346h2l220 346h72l-260 -405v-310h-68zM281 753l-94 114h82l66 -114h-54z" />
    <glyph glyph-name="ygrave" unicode="&#x1ef3;" horiz-adv-x="469" 
d="M106 -171q-27 0 -53 8v55h3q21 -7 47 -7q61 0 86 70l17 46l-199 516h66l124 -334l41 -118h2q22 70 39 118l119 334h64l-213 -571q-25 -67 -57.5 -92t-85.5 -25zM224 592l-94 127h82l66 -127h-54z" />
    <glyph glyph-name="uni2009" unicode="&#x2009;" horiz-adv-x="55" 
 />
    <glyph glyph-name="endash" unicode="&#x2013;" horiz-adv-x="499" 
d="M42 228v53h415v-53h-415z" />
    <glyph glyph-name="emdash" unicode="&#x2014;" horiz-adv-x="767" 
d="M42 228v53h683v-53h-683z" />
    <glyph glyph-name="quoteleft" unicode="&#x2018;" horiz-adv-x="153" 
d="M42 530v91q0 85 70 96v-33q-32 -13 -32 -60v-8h31v-86h-69z" />
    <glyph glyph-name="quoteright" unicode="&#x2019;" horiz-adv-x="153" 
d="M41 528v33q32 13 32 61v7h-31v86h69v-91q0 -85 -70 -96z" />
    <glyph glyph-name="quotesinglbase" unicode="&#x201a;" horiz-adv-x="153" 
d="M41 -101v33q32 13 32 60v8h-31v86h69v-91q0 -85 -70 -96z" />
    <glyph glyph-name="quotedblleft" unicode="&#x201c;" horiz-adv-x="282" 
d="M42 530v91q0 85 70 96v-33q-32 -13 -32 -60v-8h31v-86h-69zM170 530v91q0 85 70 96v-33q-32 -13 -32 -60v-8h32v-86h-70z" />
    <glyph glyph-name="quotedblright" unicode="&#x201d;" horiz-adv-x="282" 
d="M41 528v33q32 13 32 61v7h-31v86h69v-91q0 -85 -70 -96zM169 528v33q32 13 32 61v7h-31v86h70v-91q0 -85 -71 -96z" />
    <glyph glyph-name="quotedblbase" unicode="&#x201e;" horiz-adv-x="282" 
d="M41 -101v33q32 13 32 60v8h-31v86h69v-91q0 -85 -70 -96zM169 -101v33q32 13 32 60v8h-31v86h70v-91q0 -85 -71 -96z" />
    <glyph glyph-name="dagger" unicode="&#x2020;" horiz-adv-x="516" 
d="M227 -104v569h-190v55h190v195h62v-195h190v-55h-190v-569h-62z" />
    <glyph glyph-name="daggerdbl" unicode="&#x2021;" horiz-adv-x="516" 
d="M227 -104v195h-190v55h190v319h-190v55h190v195h62v-195h190v-55h-190v-319h190v-55h-190v-195h-62z" />
    <glyph glyph-name="bullet" unicode="&#x2022;" horiz-adv-x="288" 
d="M145 218q-45 0 -77 31.5t-32 75.5t32 76t77 32q44 0 75.5 -32t31.5 -76t-31.5 -75.5t-75.5 -31.5z" />
    <glyph glyph-name="ellipsis" unicode="&#x2026;" horiz-adv-x="551" 
d="M42 0v87h76v-87h-76zM238 0v87h75v-87h-75zM434 0v87h75v-87h-75z" />
    <glyph glyph-name="perthousand" unicode="&#x2030;" horiz-adv-x="1136" 
d="M184 357q43 0 69 38.5t26 109.5q0 69 -27 108t-68 39q-43 0 -69 -38t-26 -109q0 -70 26.5 -109t68.5 -39zM184 310q-68 0 -111 52.5t-43 142.5t44 142.5t110 52.5t109 -52t43 -143q0 -90 -42.5 -142.5t-109.5 -52.5zM165 0l395 685h54l-394 -685h-55zM596 34q43 0 69 38
t26 109q0 69 -26.5 108.5t-68.5 39.5t-68.5 -38.5t-26.5 -109.5q0 -69 26.5 -108t68.5 -39zM596 -14q-67 0 -110 52.5t-43 142.5q0 91 43.5 143t109.5 52t109.5 -51.5t43.5 -143.5q0 -90 -42.5 -142.5t-110.5 -52.5zM953 34q43 0 69 38t26 109q0 69 -26.5 108.5t-68.5 39.5
q-43 0 -69 -38.5t-26 -109.5q0 -70 26.5 -108.5t68.5 -38.5zM953 -14q-68 0 -111 52.5t-43 142.5q0 91 44 143t110 52t109.5 -51.5t43.5 -143.5q0 -90 -43 -142.5t-110 -52.5z" />
    <glyph glyph-name="uni2032" unicode="&#x2032;" horiz-adv-x="166" 
d="M33 501l41 214h59l-41 -214h-59z" />
    <glyph glyph-name="uni2033" unicode="&#x2033;" horiz-adv-x="296" 
d="M33 501l41 214h59l-41 -214h-59zM164 501l40 214h59l-40 -214h-59z" />
    <glyph glyph-name="guilsinglleft" unicode="&#x2039;" horiz-adv-x="251" 
d="M195 121l-139 113v75l139 113v-69l-104 -81v-2l104 -80v-69z" />
    <glyph glyph-name="guilsinglright" unicode="&#x203a;" horiz-adv-x="251" 
d="M56 121v69l103 81v2l-103 80v69l139 -113v-75z" />
    <glyph glyph-name="fraction" unicode="&#x2044;" horiz-adv-x="183" 
d="M-183 0l489 715h60l-488 -715h-61z" />
    <glyph glyph-name="Euro" unicode="&#x20ac;" horiz-adv-x="604" 
d="M342 -14q-100 0 -167.5 72.5t-85.5 198.5h-67v46h62q-1 12 -1 39q0 25 1 38h-62v46h67q17 125 85 199.5t170 74.5q88 0 146.5 -54t72.5 -148h-63q-27 147 -157 147q-80 0 -127 -58t-61 -161h210v-46h-213q-1 -13 -1 -38q0 -27 1 -39h213v-46h-209q14 -101 61.5 -158
t126.5 -57q76 0 118.5 53.5t51.5 144.5h60q-6 -114 -68.5 -184t-163.5 -70z" />
    <glyph glyph-name="uni2113" unicode="&#x2113;" horiz-adv-x="317" 
d="M189 -4q-118 0 -118 124v71q-28 -12 -54 -17v48q34 10 54 19v357q0 58 28.5 91.5t81.5 33.5q103 0 103 -142q0 -258 -151 -358v-98q0 -40 14 -58t48 -18q37 0 66 19h3v-52q-31 -20 -75 -20zM133 280q20 18 34 41q62 85 62 261q0 92 -47 92q-49 0 -49 -76v-318z" />
    <glyph glyph-name="trademark" unicode="&#x2122;" horiz-adv-x="636" 
d="M311 429v286h67l72 -229h1l72 229h68v-286h-43v230h-2q-15 -51 -28 -91l-45 -139h-45l-45 139l-27 91h-2v-230h-43zM125 429v246h-92v40h230v-40h-92v-246h-46z" />
    <glyph glyph-name="Omega" unicode="&#x2126;" horiz-adv-x="710" 
d="M41 0v58h156v2q-76 42 -118.5 123.5t-42.5 187.5q0 160 88 259.5t230 99.5t231 -99.5t89 -259.5q0 -106 -42.5 -187.5t-118.5 -123.5v-2h156v-58h-264v59q98 26 148.5 111.5t50.5 202.5q0 133 -66 215t-184 82t-183 -82t-65 -215q0 -116 51.5 -202t147.5 -112v-59h-264z
" />
    <glyph glyph-name="estimated" unicode="&#x212e;" horiz-adv-x="621" 
d="M327 -11q-140 0 -219 88t-79 232q0 140 82 229t211 89q103 0 173 -59q98 -83 96 -267h-431v-210q60 -60 167 -60q165 0 214 155h46q-20 -89 -87 -143t-173 -54zM160 339h303v201q-50 48 -141 48q-104 0 -162 -61v-188z" />
    <glyph glyph-name="onethird" unicode="&#x2153;" horiz-adv-x="804" 
d="M125 312v292h-92v39q46 1 71 18t31 57h47v-406h-57zM77 0l489 715h60l-488 -715h-61zM626 -8q-68 0 -110 37.5t-41 100.5h54q5 -92 95 -92q42 0 65 20.5t23 58.5q0 35 -23.5 54.5t-66.5 19.5h-27v44h26q37 0 57.5 17.5t20.5 48.5q0 32 -20.5 49.5t-53.5 17.5
q-39 0 -60.5 -23.5t-23.5 -62.5h-53q1 58 38 94t100 36q56 0 92 -29.5t36 -79.5q0 -64 -63 -86v-2q79 -21 79 -103q0 -56 -40.5 -88t-103.5 -32z" />
    <glyph glyph-name="twothirds" unicode="&#x2154;" horiz-adv-x="852" 
d="M32 312q1 34 11.5 61t31 48.5t37 34t44.5 31.5q5 3 22 14t22 14.5t17 12.5t16.5 15t11 15.5t8.5 19.5t2 22q0 36 -20.5 56t-54.5 20q-39 0 -61 -24.5t-23 -71.5h-54q0 69 38 106t102 37q58 0 94.5 -35t36.5 -87q0 -26 -7.5 -46.5t-26 -38.5t-30.5 -26.5t-40 -25.5
q-7 -5 -11 -7q-20 -12 -32 -20t-28 -21t-25.5 -27t-13.5 -30h212v-47h-279zM158 0l489 715h60l-488 -715h-61zM673 -8q-68 0 -110 37.5t-41 100.5h54q5 -92 95 -92q42 0 65 20.5t23 58.5q0 35 -23.5 54.5t-66.5 19.5h-27v44h26q37 0 57.5 17.5t20.5 48.5q0 32 -20.5 49.5
t-53.5 17.5q-39 0 -60.5 -23.5t-23.5 -62.5h-53q1 58 38 94t100 36q56 0 92 -29.5t36 -79.5q0 -64 -63 -86v-2q79 -21 79 -103q0 -56 -40.5 -88t-103.5 -32z" />
    <glyph glyph-name="oneeighth" unicode="&#x215b;" horiz-adv-x="789" 
d="M125 312v292h-92v39q46 1 71 18t31 57h47v-406h-57zM69 0l489 715h60l-488 -715h-61zM602 -7q-64 0 -109 32.5t-45 90.5q0 76 78 105v2q-58 25 -58 84q0 48 38 77t95 29q59 0 96 -29t37 -75q0 -60 -58 -85v-2q35 -12 56.5 -39.5t21.5 -65.5q0 -59 -43.5 -91.5
t-108.5 -32.5zM602 37q43 0 69 22.5t26 56.5q0 37 -25.5 59.5t-70.5 22.5q-44 0 -69.5 -22.5t-25.5 -59.5q0 -36 25.5 -57.5t70.5 -21.5zM601 239q37 0 57.5 18.5t20.5 47.5t-20.5 47t-57.5 18q-36 0 -56.5 -18t-20.5 -47q0 -30 20 -48t57 -18z" />
    <glyph glyph-name="threeeighths" unicode="&#x215c;" horiz-adv-x="856" 
d="M181 303q-68 0 -110 37.5t-41 100.5h54q5 -91 95 -91q42 0 65 20.5t23 57.5q0 36 -23.5 55.5t-66.5 19.5h-27v44h26q37 0 57.5 17.5t20.5 48.5t-20.5 49t-53.5 18q-39 0 -60.5 -23.5t-23.5 -63.5h-53q1 59 37.5 94.5t100.5 35.5q56 0 92 -29.5t36 -78.5q0 -64 -63 -86v-2
q79 -21 79 -103q0 -57 -40.5 -89t-103.5 -32zM145 0l489 715h60l-488 -715h-61zM669 -7q-64 0 -109 32.5t-45 90.5q0 76 78 105v2q-58 25 -58 84q0 48 38 77t95 29q59 0 96 -29t37 -75q0 -60 -58 -85v-2q35 -12 56.5 -39.5t21.5 -65.5q0 -59 -43.5 -91.5t-108.5 -32.5z
M669 37q43 0 69 22.5t26 56.5q0 37 -25.5 59.5t-70.5 22.5q-44 0 -69.5 -22.5t-25.5 -59.5q0 -36 25.5 -57.5t70.5 -21.5zM668 239q37 0 57.5 18.5t20.5 47.5t-20.5 47t-57.5 18q-36 0 -56.5 -18t-20.5 -47q0 -30 20 -48t57 -18z" />
    <glyph glyph-name="fiveeighths" unicode="&#x215d;" horiz-adv-x="844" 
d="M176 303q-62 0 -102 33t-44 88h56q9 -73 89 -73q40 0 63 25.5t23 67.5q0 41 -23.5 65t-61.5 24q-56 0 -81 -35h-52l37 217h218v-48h-179l-20 -117h1q35 30 88 30q54 0 92.5 -37t38.5 -100q0 -62 -40 -101t-103 -39zM142 0l489 715h60l-488 -715h-61zM657 -7
q-64 0 -109 32.5t-45 90.5q0 76 78 105v2q-58 25 -58 84q0 48 38 77t95 29q59 0 96 -29t37 -75q0 -60 -58 -85v-2q35 -12 56.5 -39.5t21.5 -65.5q0 -59 -43.5 -91.5t-108.5 -32.5zM657 37q43 0 69 22.5t26 56.5q0 37 -25.5 59.5t-70.5 22.5q-44 0 -69.5 -22.5t-25.5 -59.5
q0 -36 25.5 -57.5t70.5 -21.5zM656 239q37 0 57.5 18.5t20.5 47.5t-20.5 47t-57.5 18q-36 0 -56.5 -18t-20.5 -47q0 -30 20 -48t57 -18z" />
    <glyph glyph-name="seveneighths" unicode="&#x215e;" horiz-adv-x="791" 
d="M66 0l489 715h60l-488 -715h-61zM604 -7q-64 0 -109 32.5t-45 90.5q0 76 78 105v2q-58 25 -58 84q0 48 38 77t95 29q59 0 96 -29t37 -75q0 -60 -58 -85v-2q35 -12 56.5 -39.5t21.5 -65.5q0 -59 -43.5 -91.5t-108.5 -32.5zM604 37q43 0 69 22.5t26 56.5q0 37 -25.5 59.5
t-70.5 22.5q-44 0 -69.5 -22.5t-25.5 -59.5q0 -36 25.5 -57.5t70.5 -21.5zM603 239q37 0 57.5 18.5t20.5 47.5t-20.5 47t-57.5 18q-36 0 -56.5 -18t-20.5 -47q0 -30 20 -48t57 -18zM152 312h-59q5 102 49.5 197.5t105.5 155.5v1h-220v49h279v-47q-63 -61 -105.5 -153.5
t-49.5 -202.5z" />
    <glyph glyph-name="partialdiff" unicode="&#x2202;" horiz-adv-x="517" 
d="M243 -13q-96 0 -151.5 62t-55.5 159q0 116 64 190.5t165 74.5q100 0 147 -77q-38 238 -275 270v55q97 -10 166.5 -49t107 -99t54 -127.5t16.5 -146.5q0 -137 -61.5 -224.5t-176.5 -87.5zM244 39q76 0 123 65.5t47 154.5q0 71 -39.5 116t-107.5 45q-75 0 -120.5 -59
t-45.5 -153q0 -71 36 -120t107 -49z" />
    <glyph glyph-name="Delta" unicode="&#x2206;" horiz-adv-x="634" 
d="M88 56h455l-190 492l-36 104h-2q-19 -61 -36 -104zM21 0v57l257 658h76l259 -659v-56h-592z" />
    <glyph glyph-name="product" unicode="&#x220f;" horiz-adv-x="663" 
d="M69 -100v815h525v-815h-67v755h-391v-755h-67z" />
    <glyph glyph-name="summation" unicode="&#x2211;" horiz-adv-x="591" 
d="M41 -100v60l302 362v2l-302 325v66h509v-59h-429v-2l291 -311v-35l-294 -346v-2h436v-60h-513z" />
    <glyph glyph-name="minus" unicode="&#x2212;" horiz-adv-x="530" 
d="M55 299v54h420v-54h-420z" />
    <glyph glyph-name="uni2215" unicode="&#x2215;" horiz-adv-x="183" 
d="M-183 0l489 715h60l-488 -715h-61z" />
    <glyph glyph-name="uni2219" unicode="&#x2219;" horiz-adv-x="160" 
d="M43 268v87h76v-87h-76z" />
    <glyph glyph-name="radical" unicode="&#x221a;" horiz-adv-x="564" 
d="M228 -100l-141 352h-74v56h121l82 -213l44 -127h2q20 76 37 130l191 617h63l-256 -815h-69z" />
    <glyph glyph-name="infinity" unicode="&#x221e;" horiz-adv-x="715" 
d="M187 133q-72 0 -111 49.5t-39 122.5t39 122t111 49q97 0 173 -123q36 58 75 90.5t92 32.5q69 0 110 -47t41 -124q0 -78 -41 -125t-110 -47q-53 0 -92 32.5t-75 90.5q-76 -123 -173 -123zM190 187q41 0 72.5 30.5t64.5 86.5q-33 57 -64.5 88t-72.5 31q-46 0 -69 -33.5
t-23 -84.5q0 -52 23 -85t69 -33zM524 187q46 0 69.5 33t23.5 85q0 51 -23.5 84.5t-69.5 33.5q-38 0 -67 -30.5t-63 -88.5q22 -37 37.5 -59t40.5 -40t52 -18z" />
    <glyph glyph-name="integral" unicode="&#x222b;" horiz-adv-x="356" 
d="M84 -176q-38 0 -64 11v54h3q22 -10 52 -10q68 0 68 73v662q0 61 33.5 94t86.5 33q37 0 64 -10v-55h-3q-22 10 -52 10q-67 0 -67 -73v-662q0 -62 -33.5 -94.5t-87.5 -32.5z" />
    <glyph glyph-name="approxequal" unicode="&#x2248;" horiz-adv-x="530" 
d="M45 178q3 52 30.5 79.5t73.5 27.5q37 0 113.5 -24t105.5 -24q54 0 57 54h53q-6 -108 -107 -108q-40 0 -118.5 24t-102.5 24q-48 0 -51 -53h-54zM45 328q3 52 30.5 80t73.5 28q37 0 113.5 -24t105.5 -24q54 0 57 53h53q-3 -52 -30 -79.5t-77 -27.5q-40 0 -118.5 24
t-102.5 24q-48 0 -51 -54h-54z" />
    <glyph glyph-name="notequal" unicode="&#x2260;" horiz-adv-x="530" 
d="M134 86l55 118h-134v53h158l51 107h-209v53h233l52 110h56l-52 -110h131v-53h-155l-51 -107h206v-53h-230l-55 -118h-56z" />
    <glyph glyph-name="lessequal" unicode="&#x2264;" horiz-adv-x="499" 
d="M445 113l-395 167v67l395 167v-59l-343 -140v-2l343 -141v-59zM50 0v53h395v-53h-395z" />
    <glyph glyph-name="greaterequal" unicode="&#x2265;" horiz-adv-x="499" 
d="M54 113v59l343 141v2l-343 140v59l395 -167v-67zM54 0v53h395v-53h-395z" />
    <glyph glyph-name="uni24C5" unicode="&#x24c5;" horiz-adv-x="812" 
d="M271 142v422h173q69 0 104 -38q32 -32 32 -87q0 -59 -35.5 -92t-101.5 -33h-114v-172h-58zM329 361h106q87 0 87 77t-84 77h-109v-154zM406 18q139 0 230.5 96t91.5 241q0 146 -91.5 242t-230.5 96t-230.5 -96t-91.5 -242q0 -145 91.5 -241t230.5 -96zM406 -17
q-155 0 -260 106t-105 266t105 266.5t260 106.5t260 -106.5t105 -266.5t-105 -266t-260 -106z" />
    <glyph glyph-name="lozenge" unicode="&#x25ca;" horiz-adv-x="530" 
d="M265 63h2l161 292l-163 297h-2l-161 -293zM233 0l-202 357l201 358h66l201 -359l-200 -356h-66z" />
    <glyph glyph-name="uniF8FF" unicode="&#xf8ff;" horiz-adv-x="846" 
d="M351 118h144v169h168v144h-168v163h-144v-163h-168v-144h168v-169zM65 0v716h716v-716h-716z" />
    <glyph glyph-name="idotaccent" horiz-adv-x="169" 
d="M54 0v517h62v-517h-62zM54 627v88h62v-88h-62z" />
    <glyph glyph-name="grave.cap" 
d="M237 753l-94 114h82l66 -114h-54z" />
    <glyph glyph-name="acute.cap" 
d="M209 753l66 114h82l-94 -114h-54z" />
    <glyph glyph-name="circumflex.cap" 
d="M120 754l94 103h74l92 -103h-70l-60 68h-2l-60 -68h-68z" />
    <glyph glyph-name="caron.cap" 
d="M212 754l-92 103h70l60 -67h2l60 67h68l-94 -103h-74z" />
    <glyph glyph-name="caron.alt" 
d="M214 552v33q33 13 33 52v2h-32v76h70v-76q0 -76 -71 -87z" />
    <glyph glyph-name="tilde.cap" 
d="M310 760q-24 0 -65 19.5t-53 19.5q-11 0 -19 -10t-9 -27h-49q8 87 74 87q25 0 63.5 -19t52.5 -19q28 0 31 36h48q-2 -40 -21.5 -63.5t-52.5 -23.5z" />
    <glyph glyph-name="dieresis.cap" horiz-adv-x="512" 
d="M148 757v86h60v-86h-60zM304 757v86h60v-86h-60z" />
    <glyph glyph-name="macron.cap" 
d="M126 761v56h248v-56h-248z" />
    <glyph glyph-name="breve.cap" 
d="M261 755q-51 0 -84.5 29.5t-36.5 76.5h51q10 -53 70 -53q61 0 71 53h51q-3 -46 -36.5 -76t-85.5 -30z" />
    <glyph glyph-name="ring.cap" horiz-adv-x="509" 
d="M254 777q21 0 34.5 15t13.5 37t-13.5 36.5t-34.5 14.5t-34.5 -14.5t-13.5 -36.5t13.5 -37t34.5 -15zM254 744q-36 0 -61.5 25t-25.5 60t25.5 60t61.5 25t61.5 -25t25.5 -60t-25.5 -60t-61.5 -25z" />
    <glyph glyph-name="hungarumlaut.cap" 
d="M147 753l37 117h68l-55 -117h-50zM277 753l36 117h69l-55 -117h-50z" />
    <glyph glyph-name="dotaccent.cap" horiz-adv-x="512" 
d="M225 757v86h61v-86h-61z" />
    <glyph glyph-name="space_uni0326" 
d="M214 -214v33q33 13 33 55v1h-31v79h69v-78q0 -79 -71 -90z" />
    <glyph glyph-name="space_uni0326.alt" 
d="M215 600v78q0 79 71 90v-33q-33 -13 -33 -55v-1h31v-79h-69z" />
    <glyph glyph-name="R.alt" horiz-adv-x="618" 
d="M64 0v715h291q108 0 167 -62q50 -52 50 -138q0 -75 -37 -124.5t-106 -68.5l170 -322h-74l-162 313h-232v-313h-67zM131 370h212q162 0 162 143q0 69 -40.5 106t-118.5 37h-215v-286z" />
    <glyph glyph-name="Racute.alt" horiz-adv-x="618" 
d="M64 0v715h291q108 0 167 -62q50 -52 50 -138q0 -75 -37 -124.5t-106 -68.5l170 -322h-74l-162 313h-232v-313h-67zM131 370h212q162 0 162 143q0 69 -40.5 106t-118.5 37h-215v-286zM267 753l66 114h82l-94 -114h-54z" />
    <glyph glyph-name="Rcaron.alt" horiz-adv-x="618" 
d="M64 0v715h291q108 0 167 -62q50 -52 50 -138q0 -75 -37 -124.5t-106 -68.5l170 -322h-74l-162 313h-232v-313h-67zM131 370h212q162 0 162 143q0 69 -40.5 106t-118.5 37h-215v-286zM263 754l-92 103h70l60 -67h2l60 67h68l-94 -103h-74z" />
    <glyph glyph-name="Rcommaaccent.alt" horiz-adv-x="618" 
d="M64 0v715h291q108 0 167 -62q50 -52 50 -138q0 -75 -37 -124.5t-106 -68.5l170 -322h-74l-162 313h-232v-313h-67zM131 370h212q162 0 162 143q0 69 -40.5 106t-118.5 37h-215v-286zM266 -214v33q33 13 33 55v1h-31v79h69v-78q0 -79 -71 -90z" />
    <glyph glyph-name="a.alt" horiz-adv-x="485" 
d="M196 -12q-75 0 -124 38.5t-49 108.5q0 44 16 74t48.5 46.5t66 24.5t83.5 13q83 9 110.5 21.5t27.5 49.5v8q0 106 -122 106q-131 0 -143 -115h-61q8 77 59.5 121t144.5 44q181 0 181 -163v-291q0 -59 18 -71v-3h-63q-13 15 -14 69v7h-2q-66 -88 -177 -88zM205 38
q80 0 125.5 45t45.5 104v90q-40 -21 -135 -32q-40 -4 -63 -9t-46.5 -16.5t-33.5 -32.5t-10 -53q0 -50 33.5 -73t83.5 -23z" />
    <glyph glyph-name="aacute.alt" horiz-adv-x="485" 
d="M213 592l66 127h82l-94 -127h-54zM196 -12q-75 0 -124 38.5t-49 108.5q0 44 16 74t48.5 46.5t66 24.5t83.5 13q83 9 110.5 21.5t27.5 49.5v8q0 106 -122 106q-131 0 -143 -115h-61q8 77 59.5 121t144.5 44q181 0 181 -163v-291q0 -59 18 -71v-3h-63q-13 15 -14 69v7h-2
q-66 -88 -177 -88zM205 38q80 0 125.5 45t45.5 104v90q-40 -21 -135 -32q-40 -4 -63 -9t-46.5 -16.5t-33.5 -32.5t-10 -53q0 -50 33.5 -73t83.5 -23z" />
    <glyph glyph-name="abreve.alt" horiz-adv-x="485" 
d="M196 -12q-75 0 -124 38.5t-49 108.5q0 44 16 74t48.5 46.5t66 24.5t83.5 13q83 9 110.5 21.5t27.5 49.5v8q0 106 -122 106q-131 0 -143 -115h-61q8 77 59.5 121t144.5 44q181 0 181 -163v-291q0 -59 18 -71v-3h-63q-13 15 -14 69v7h-2q-66 -88 -177 -88zM205 38
q80 0 125.5 45t45.5 104v90q-40 -21 -135 -32q-40 -4 -63 -9t-46.5 -16.5t-33.5 -32.5t-10 -53q0 -50 33.5 -73t83.5 -23zM251 595q-51 0 -84.5 30.5t-36.5 77.5h51q10 -55 70 -55q30 0 48 15t23 40h51q-3 -46 -36.5 -77t-85.5 -31z" />
    <glyph glyph-name="acircumflex.alt" horiz-adv-x="485" 
d="M129 596l85 106h74l83 -106h-69l-52 71h-2l-53 -71h-66zM196 -12q-75 0 -124 38.5t-49 108.5q0 44 16 74t48.5 46.5t66 24.5t83.5 13q83 9 110.5 21.5t27.5 49.5v8q0 106 -122 106q-131 0 -143 -115h-61q8 77 59.5 121t144.5 44q181 0 181 -163v-291q0 -59 18 -71v-3h-63
q-13 15 -14 69v7h-2q-66 -88 -177 -88zM205 38q80 0 125.5 45t45.5 104v90q-40 -21 -135 -32q-40 -4 -63 -9t-46.5 -16.5t-33.5 -32.5t-10 -53q0 -50 33.5 -73t83.5 -23z" />
    <glyph glyph-name="adieresis.alt" horiz-adv-x="485" 
d="M143 627v86h60v-86h-60zM299 627v86h60v-86h-60zM196 -12q-75 0 -124 38.5t-49 108.5q0 44 16 74t48.5 46.5t66 24.5t83.5 13q83 9 110.5 21.5t27.5 49.5v8q0 106 -122 106q-131 0 -143 -115h-61q8 77 59.5 121t144.5 44q181 0 181 -163v-291q0 -59 18 -71v-3h-63
q-13 15 -14 69v7h-2q-66 -88 -177 -88zM205 38q80 0 125.5 45t45.5 104v90q-40 -21 -135 -32q-40 -4 -63 -9t-46.5 -16.5t-33.5 -32.5t-10 -53q0 -50 33.5 -73t83.5 -23z" />
    <glyph glyph-name="agrave.alt" horiz-adv-x="485" 
d="M196 -12q-75 0 -124 38.5t-49 108.5q0 44 16 74t48.5 46.5t66 24.5t83.5 13q83 9 110.5 21.5t27.5 49.5v8q0 106 -122 106q-131 0 -143 -115h-61q8 77 59.5 121t144.5 44q181 0 181 -163v-291q0 -59 18 -71v-3h-63q-13 15 -14 69v7h-2q-66 -88 -177 -88zM205 38
q80 0 125.5 45t45.5 104v90q-40 -21 -135 -32q-40 -4 -63 -9t-46.5 -16.5t-33.5 -32.5t-10 -53q0 -50 33.5 -73t83.5 -23zM237 592l-94 127h82l66 -127h-54z" />
    <glyph glyph-name="amacron.alt" horiz-adv-x="485" 
d="M196 -12q-75 0 -124 38.5t-49 108.5q0 44 16 74t48.5 46.5t66 24.5t83.5 13q83 9 110.5 21.5t27.5 49.5v8q0 106 -122 106q-131 0 -143 -115h-61q8 77 59.5 121t144.5 44q181 0 181 -163v-291q0 -59 18 -71v-3h-63q-13 15 -14 69v7h-2q-66 -88 -177 -88zM205 38
q80 0 125.5 45t45.5 104v90q-40 -21 -135 -32q-40 -4 -63 -9t-46.5 -16.5t-33.5 -32.5t-10 -53q0 -50 33.5 -73t83.5 -23zM126 627v56h248v-56h-248z" />
    <glyph glyph-name="aogonek.alt" horiz-adv-x="485" 
d="M402 -174q-44 0 -67.5 20t-23.5 54q0 58 78 103q-13 17 -14 66v7h-2q-66 -88 -177 -88q-75 0 -124 38.5t-49 108.5q0 44 16 74t48.5 46.5t66 24.5t83.5 13q83 9 110.5 21.5t27.5 49.5v8q0 106 -122 106q-131 0 -143 -115h-61q8 77 59.5 121t144.5 44q181 0 181 -163v-291
q0 -50 15 -71v-3q-78 -46 -78 -93q0 -35 41 -35q22 0 45 10h3v-44q-26 -12 -58 -12zM205 38q80 0 125.5 45t45.5 104v90q-40 -21 -135 -32q-40 -4 -63 -9t-46.5 -16.5t-33.5 -32.5t-10 -53q0 -50 33.5 -73t83.5 -23z" />
    <glyph glyph-name="aring.alt" horiz-adv-x="485" 
d="M251 603q21 0 34.5 14.5t13.5 36.5t-13.5 36.5t-34.5 14.5t-34.5 -14.5t-13.5 -36.5t13.5 -36.5t34.5 -14.5zM251 569q-36 0 -61.5 25t-25.5 60t25.5 60t61.5 25t61.5 -25t25.5 -60t-25.5 -60t-61.5 -25zM196 -12q-75 0 -124 38.5t-49 108.5q0 44 16 74t48.5 46.5
t66 24.5t83.5 13q83 9 110.5 21.5t27.5 49.5v8q0 106 -122 106q-131 0 -143 -115h-61q8 77 59.5 121t144.5 44q181 0 181 -163v-291q0 -59 18 -71v-3h-63q-13 15 -14 69v7h-2q-66 -88 -177 -88zM205 38q80 0 125.5 45t45.5 104v90q-40 -21 -135 -32q-40 -4 -63 -9
t-46.5 -16.5t-33.5 -32.5t-10 -53q0 -50 33.5 -73t83.5 -23z" />
    <glyph glyph-name="atilde.alt" horiz-adv-x="485" 
d="M196 -12q-75 0 -124 38.5t-49 108.5q0 44 16 74t48.5 46.5t66 24.5t83.5 13q83 9 110.5 21.5t27.5 49.5v8q0 106 -122 106q-131 0 -143 -115h-61q8 77 59.5 121t144.5 44q181 0 181 -163v-291q0 -59 18 -71v-3h-63q-13 15 -14 69v7h-2q-66 -88 -177 -88zM205 38
q80 0 125.5 45t45.5 104v90q-40 -21 -135 -32q-40 -4 -63 -9t-46.5 -16.5t-33.5 -32.5t-10 -53q0 -50 33.5 -73t83.5 -23zM311 600q-24 0 -65 19.5t-53 19.5q-11 0 -19 -10t-9 -27h-49q8 88 74 88q25 0 63.5 -19.5t52.5 -19.5q28 0 31 37h48q-2 -41 -21.5 -64.5t-52.5 -23.5
z" />
    <glyph glyph-name="Ccedilla.alt" horiz-adv-x="677" 
d="M358 -13q-148 0 -235 102t-87 268q0 165 88 269t237 104q112 0 184.5 -58t90.5 -159h-66q-15 72 -70 115.5t-140 43.5q-121 0 -187.5 -88.5t-66.5 -226.5t66.5 -224.5t186.5 -86.5q99 0 157 60t67 154h65q-6 -113 -74 -187q-77 -86 -216 -86zM317 -168v30q35 5 36 42h-34
v67h70v-58q0 -78 -72 -81z" />
    <glyph glyph-name="Scedilla.alt" horiz-adv-x="599" 
d="M312 -13q-135 0 -209 67.5t-80 177.5h67q5 -90 63.5 -139.5t159.5 -49.5q81 0 132 39.5t51 110.5t-47.5 101t-172.5 55q-112 22 -168.5 63t-56.5 128q0 85 66 137t173 52q115 0 178.5 -56.5t73.5 -152.5h-65q-9 74 -58.5 113.5t-127.5 39.5q-81 0 -128 -35.5t-47 -95.5
t44.5 -87.5t149.5 -47.5q49 -9 81 -17.5t68 -25t56.5 -37.5t34.5 -54t14 -77q0 -95 -69.5 -152t-182.5 -57zM257 -168v30q35 5 36 42h-34v67h70v-58q0 -78 -72 -81z" />
    <glyph glyph-name="ccedilla.alt" horiz-adv-x="491" 
d="M260 -13q-110 0 -172.5 76t-62.5 195t63 195t173 76q86 0 140.5 -44.5t67.5 -123.5h-62q-23 116 -146 116q-85 0 -128.5 -61.5t-43.5 -157.5t43.5 -157t127.5 -61q65 0 105 37.5t48 100.5h59q-9 -89 -65 -140t-147 -51zM215 -168v30q35 5 35 42h-34v67h71v-58
q0 -78 -72 -81z" />
    <glyph glyph-name="scedilla.alt" horiz-adv-x="451" 
d="M233 -14q-100 0 -154.5 48t-59.5 127h63q13 -122 152 -122q63 0 97 27t34 73q0 42 -28.5 62t-109.5 38q-47 11 -75 20t-57.5 25.5t-43 42t-13.5 61.5q0 64 50 102t130 38q172 0 192 -153h-62q-11 102 -130 102q-58 0 -88 -24t-30 -62q0 -41 32 -58.5t116 -37.5
q92 -19 135.5 -50.5t43.5 -104.5q0 -70 -52.5 -112t-141.5 -42zM190 -168v30q35 5 36 42h-34v67h70v-58q0 -78 -72 -81z" />
    <glyph glyph-name="hyphen.cap" horiz-adv-x="342" 
d="M35 297v61h272v-61h-272z" />
    <glyph glyph-name="endash.cap" horiz-adv-x="499" 
d="M42 301v53h415v-53h-415z" />
    <glyph glyph-name="emdash.cap" horiz-adv-x="767" 
d="M42 301v53h683v-53h-683z" />
    <glyph glyph-name="questiondown.cap" horiz-adv-x="497" 
d="M243 -13q-92 0 -147 52t-55 131q0 46 18 83.5t34.5 54t51.5 45.5q57 48 75 82.5t19 106.5h60q-1 -83 -23 -128t-80 -94q-24 -20 -34 -30t-26 -29.5t-22.5 -41t-6.5 -48.5q0 -57 38 -92.5t101 -35.5q75 0 117 46.5t44 121.5h63q-2 -95 -59 -159.5t-168 -64.5zM231 628v87
h76v-87h-76z" />
    <glyph glyph-name="exclamdown.cap" horiz-adv-x="212" 
d="M72 0v229l15 313h39l14 -313v-229h-68zM68 628v87h76v-87h-76z" />
    <glyph glyph-name="parenleft.cap" horiz-adv-x="284" 
d="M210 -88q-137 212 -137 453q0 224 137 419h54q-120 -197 -120 -419q0 -247 120 -453h-54z" />
    <glyph glyph-name="parenright.cap" horiz-adv-x="284" 
d="M20 -88q120 203 120 433q0 241 -120 439h54q138 -204 138 -439q0 -231 -138 -433h-54z" />
    <glyph glyph-name="bracketleft.cap" horiz-adv-x="288" 
d="M80 -88v872h175v-53h-111v-764h111v-55h-175z" />
    <glyph glyph-name="bracketright.cap" horiz-adv-x="288" 
d="M33 -88v55h111v764h-111v53h175v-872h-175z" />
    <glyph glyph-name="braceleft.cap" horiz-adv-x="288" 
d="M228 -88q-135 0 -135 139v204q0 35 -15.5 52t-53.5 18v54q38 1 53.5 17.5t15.5 51.5v198q0 73 34 105.5t101 32.5h18v-53h-16q-40 0 -56.5 -19t-16.5 -67v-201q0 -75 -56 -91v-2q56 -17 56 -91v-208q0 -48 16.5 -66.5t56.5 -18.5h16v-55h-18z" />
    <glyph glyph-name="braceright.cap" horiz-adv-x="288" 
d="M42 -88v55h16q39 0 56 18t17 66v208q0 74 56 90v3q-56 16 -56 90v202q0 48 -17 67.5t-56 19.5h-16v53h18q135 0 135 -139v-198q0 -35 15 -51.5t54 -17.5v-55q-38 -1 -53.5 -17.5t-15.5 -51.5v-204q0 -73 -34 -105.5t-101 -32.5h-18z" />
    <glyph glyph-name="guillemotleft.cap" horiz-adv-x="411" 
d="M185 166l-129 113v75l129 113v-69l-93 -81v-2l93 -80v-69zM355 166l-129 113v75l129 113v-69l-93 -81v-2l93 -80v-69z" />
    <glyph glyph-name="guillemotright.cap" horiz-adv-x="411" 
d="M56 166v69l93 81v2l-93 80v69l129 -113v-75zM226 166v69l93 81v2l-93 80v69l129 -113v-75z" />
    <glyph glyph-name="guilsinglleft.cap" horiz-adv-x="251" 
d="M195 166l-139 113v75l139 113v-69l-104 -81v-2l104 -80v-69z" />
    <glyph glyph-name="guilsinglright.cap" horiz-adv-x="251" 
d="M56 166v69l103 81v2l-103 80v69l139 -113v-75z" />
    <glyph glyph-name="registered.alt" horiz-adv-x="812" 
d="M259 147v418h188q57 0 91.5 -31.5t34.5 -83.5q0 -79 -75 -101v-2q32 -10 45.5 -32.5t17.5 -67.5q6 -91 18 -97v-3h-57q-12 6 -16 94q-2 45 -22.5 64.5t-63.5 19.5h-104v-178h-57zM316 371h116q40 0 61.5 19t21.5 53q0 73 -79 73h-120v-145zM406 18q139 0 230.5 96
t91.5 241q0 146 -91.5 242t-230.5 96t-230.5 -96t-91.5 -242q0 -145 91.5 -241t230.5 -96zM406 -17q-155 0 -260 106t-105 266t105 266.5t260 106.5t260 -106.5t105 -266.5t-105 -266t-260 -106z" />
    <glyph glyph-name="dollar.cap" horiz-adv-x="562" 
d="M260 -79v88q-113 8 -173.5 71.5t-65.5 157.5h64q5 -77 50 -123t125 -53v288q-108 23 -159.5 61.5t-51.5 121.5q0 80 58.5 130t152.5 54v57h47v-58q91 -7 143.5 -56.5t60.5 -130.5h-62q-6 58 -44 93t-98 41v-262q54 -11 89 -22.5t68.5 -32.5t49.5 -55t16 -82
q0 -86 -62.5 -141.5t-160.5 -59.5v-87h-47zM260 410v254q-69 -4 -109 -38.5t-40 -89.5q0 -53 34.5 -81t114.5 -45zM307 61q69 4 114 42.5t45 101.5q0 60 -35.5 87.5t-123.5 47.5v-279z" />
    <glyph glyph-name="Euro.cap" horiz-adv-x="629" 
d="M356 -14q-104 0 -174.5 75.5t-89.5 206.5h-70v48h66q-2 13 -2 41q0 27 2 40h-66v48h70q19 131 89.5 208t176.5 77q93 0 153 -55.5t75 -154.5h-65q-27 152 -163 152q-84 0 -134 -60.5t-64 -166.5h220v-48h-224q-1 -13 -1 -40q0 -28 1 -41h224v-48h-219q14 -105 64.5 -164
t133.5 -59q79 0 123 55.5t53 150.5h64q-8 -120 -72.5 -192.5t-170.5 -72.5z" />
    <glyph glyph-name="sterling.cap" horiz-adv-x="556" 
d="M385 -11q-49 0 -107 26t-97 26q-45 0 -109 -45l-38 54q52 39 79.5 82.5t27.5 104.5q0 39 -17 85h-86v53h68q-36 94 -36 152q0 87 59.5 145t164.5 58q96 0 159 -59.5t64 -168.5h-65q-1 88 -46.5 130t-114.5 42q-72 0 -113 -40.5t-41 -107.5q0 -14 2 -28.5t7 -32.5t8 -28
t11.5 -32.5t10.5 -29.5h165v-53h-149q10 -40 10 -74q0 -108 -77 -173l2 -2q43 19 76 19q39 0 96 -22.5t89 -22.5q51 0 108 51l38 -47q-72 -62 -149 -62z" />
    <glyph glyph-name="yen.cap" horiz-adv-x="550" 
d="M242 0v169h-186v47h186v77h-186v47h173l-214 375h75l186 -335h2l185 335h72l-214 -375h174v-47h-187v-77h187v-47h-187v-169h-66z" />
    <glyph glyph-name="zero.cap" horiz-adv-x="613" 
d="M308 46q97 0 147.5 79.5t50.5 232.5q0 150 -51.5 231.5t-146.5 81.5q-98 0 -149.5 -80t-51.5 -233q0 -150 52 -231t149 -81zM307 -14q-128 0 -198.5 99.5t-70.5 272.5t73 272.5t197 99.5q123 0 195 -99t72 -273q0 -173 -70 -272.5t-198 -99.5z" />
    <glyph glyph-name="one.cap" horiz-adv-x="339" 
d="M183 0v539h-151v44q86 4 123 31.5t45 104.5h50v-719h-67z" />
    <glyph glyph-name="two.cap" horiz-adv-x="537" 
d="M30 0q1 52 16 96.5t34.5 74t54.5 59t60.5 46.5t68.5 42q2 1 3.5 2t3.5 2q89 54 114 78q49 48 49 121q0 72 -41 112t-112 40q-73 0 -116 -43q-47 -44 -50 -144h-68q1 120 70 184q65 60 168 60q99 0 158 -58.5t59 -149.5q0 -47 -13.5 -84t-43 -65.5t-55.5 -46.5t-70 -44
q-16 -9 -24 -14q-42 -25 -64 -40t-54 -42t-49 -57.5t-22 -66.5h386v-62h-463z" />
    <glyph glyph-name="three.cap" horiz-adv-x="550" 
d="M279 -14q-110 0 -181.5 63.5t-72.5 172.5h67q3 -85 53 -131t133 -46q81 0 125.5 41t44.5 115q0 73 -46 112t-130 39h-49v55h48q73 0 113 35t40 98q0 65 -41 100t-107 35q-76 0 -119 -47t-44 -124h-65q1 101 62.5 163.5t168.5 62.5q92 0 152 -51.5t60 -138.5
q0 -114 -108 -156v-3q134 -43 134 -185q0 -97 -65.5 -153.5t-172.5 -56.5z" />
    <glyph glyph-name="four.cap" horiz-adv-x="560" 
d="M358 0v184h-334v62l344 476h56v-483h112v-55h-112v-184h-66zM90 239h268v371h-2l-266 -368v-3z" />
    <glyph glyph-name="five.cap" horiz-adv-x="533" 
d="M262 -14q-102 0 -167 57.5t-69 149.5h67q8 -70 50.5 -108.5t117.5 -38.5q79 0 124.5 51t45.5 134q0 81 -46 129t-119 48q-109 0 -158 -74h-63l62 381h357v-59h-308l-40 -246h2q64 57 158 57q93 0 158.5 -63t65.5 -175q0 -108 -66 -175.5t-172 -67.5z" />
    <glyph glyph-name="six.cap" horiz-adv-x="563" 
d="M299 -14q-99 0 -166 61q-95 85 -95 315q0 165 69 266.5t196 101.5q91 0 144 -51.5t62 -133.5h-66q-5 58 -41.5 92.5t-96.5 34.5q-103 0 -152 -85.5t-48 -242.5h2q67 117 194 117q100 0 163 -66t63 -167q1 -103 -63 -172.5t-165 -69.5zM297 42q73 0 118.5 51.5t45.5 132.5
q0 80 -45.5 129t-118.5 49q-76 0 -126 -50.5t-50 -130.5q0 -81 49 -131t127 -50z" />
    <glyph glyph-name="seven.cap" horiz-adv-x="508" 
d="M134 0q14 185 93.5 364.5t193.5 289.5v2h-398v59h467v-57q-113 -110 -191 -283t-93 -375h-72z" />
    <glyph glyph-name="eight.cap" horiz-adv-x="570" 
d="M286 -14q-106 0 -179.5 56.5t-73.5 158.5q0 71 38.5 118t103.5 69v3q-50 20 -79 60.5t-29 95.5q0 80 61.5 131.5t155.5 51.5q97 0 157.5 -52t60.5 -131q0 -54 -29.5 -94t-80.5 -61v-3q63 -19 104 -69.5t41 -118.5q0 -104 -72.5 -159.5t-178.5 -55.5zM286 43q84 0 133 44
t49 114q0 72 -49.5 116t-135.5 44q-85 0 -133.5 -44t-48.5 -116q0 -71 49.5 -114.5t135.5 -43.5zM283 415q70 0 111.5 37t41.5 92q0 57 -40.5 93.5t-111.5 36.5q-70 0 -110.5 -36.5t-40.5 -93.5q0 -56 40 -92.5t110 -36.5z" />
    <glyph glyph-name="nine.cap" horiz-adv-x="564" 
d="M266 -14q-93 0 -153 52t-65 137h69q5 -60 44.5 -95.5t103.5 -35.5q78 0 123 47q72 75 74 277h-2q-65 -112 -195 -112q-100 0 -164 66t-64 167q-1 102 65 171.5t168 69.5q95 0 159 -56q54 -43 76.5 -121t22.5 -199q0 -213 -96 -305q-63 -63 -166 -63zM270 312
q77 0 126.5 50.5t49.5 129.5q0 81 -49 131t-125 50q-75 0 -122 -50.5t-47 -131.5t46 -130t121 -49z" />
    <glyph glyph-name="percent.cap" horiz-adv-x="799" 
d="M184 387q43 0 69 38.5t26 109.5q0 69 -27 108t-68 39q-43 0 -69 -38t-26 -109q0 -70 26.5 -109t68.5 -39zM184 340q-68 0 -111 52.5t-43 142.5t44 142.5t110 52.5t109 -52t43 -143q0 -90 -42.5 -142.5t-109.5 -52.5zM167 0l411 715h54l-410 -715h-55zM616 34q43 0 69 38
t26 109q0 69 -26.5 108.5t-68.5 39.5t-68.5 -38.5t-26.5 -109.5q0 -69 26.5 -108t68.5 -39zM616 -14q-67 0 -110 52.5t-43 142.5q0 91 43.5 143t109.5 52t109.5 -51.5t43.5 -143.5q0 -90 -42.5 -142.5t-110.5 -52.5z" />
    <glyph glyph-name="perthousand.cap" horiz-adv-x="1136" 
d="M184 387q43 0 69 38.5t26 109.5q0 69 -27 108t-68 39q-43 0 -69 -38t-26 -109q0 -70 26.5 -109t68.5 -39zM184 340q-68 0 -111 52.5t-43 142.5t44 142.5t110 52.5t109 -52t43 -143q0 -90 -42.5 -142.5t-109.5 -52.5zM157 0l411 715h54l-410 -715h-55zM596 34q43 0 69 38
t26 109q0 69 -26.5 108.5t-68.5 39.5t-68.5 -38.5t-26.5 -109.5q0 -69 26.5 -108t68.5 -39zM596 -14q-67 0 -110 52.5t-43 142.5q0 91 43.5 143t109.5 52t109.5 -51.5t43.5 -143.5q0 -90 -42.5 -142.5t-110.5 -52.5zM953 34q43 0 69 38t26 109q0 69 -26.5 108.5t-68.5 39.5
q-43 0 -69 -38.5t-26 -109.5q0 -70 26.5 -108.5t68.5 -38.5zM953 -14q-68 0 -111 52.5t-43 142.5q0 91 44 143t110 52t109.5 -51.5t43.5 -143.5q0 -90 -43 -142.5t-110 -52.5z" />
    <glyph glyph-name="zero.numerator" horiz-adv-x="384" 
d="M193 351q100 0 100 162q0 77 -25.5 120.5t-74.5 43.5q-50 0 -76 -43t-26 -121q0 -77 26 -119.5t76 -42.5zM192 303q-75 0 -117.5 56.5t-42.5 153.5q0 98 43.5 154t117.5 56q73 0 116 -56t43 -154q0 -97 -42.5 -153.5t-117.5 -56.5z" />
    <glyph glyph-name="one.numerator" horiz-adv-x="256" 
d="M121 312v292h-92v39q46 1 71 18t31 57h47v-406h-57z" />
    <glyph glyph-name="two.numerator" horiz-adv-x="339" 
d="M28 312q1 34 11.5 61t31 48.5t37 34t44.5 31.5q5 3 22 14t22 14.5t17 12.5t16.5 15t11 15.5t8.5 19.5t2 22q0 36 -20.5 56t-54.5 20q-39 0 -61 -24.5t-23 -71.5h-54q0 69 38 106t102 37q58 0 94.5 -35t36.5 -87q0 -26 -7.5 -46.5t-26 -38.5t-30.5 -26.5t-40 -25.5
q-7 -5 -11 -7q-20 -12 -32 -20t-28 -21t-25.5 -27t-13.5 -30h212v-47h-279z" />
    <glyph glyph-name="three.numerator" horiz-adv-x="351" 
d="M177 303q-68 0 -110 37.5t-41 100.5h54q5 -91 95 -91q42 0 65 20.5t23 57.5q0 36 -23.5 55.5t-66.5 19.5h-27v44h26q37 0 57.5 17.5t20.5 48.5t-20.5 49t-53.5 18q-39 0 -60.5 -23.5t-23.5 -63.5h-53q1 59 37.5 94.5t100.5 35.5q56 0 92 -29.5t36 -78.5q0 -64 -63 -86v-2
q79 -21 79 -103q0 -57 -40.5 -89t-103.5 -32z" />
    <glyph glyph-name="four.numerator" horiz-adv-x="358" 
d="M217 312v97h-193v55l194 255h53v-266h62v-44h-62v-97h-54zM72 453h145v189h-2l-143 -187v-2z" />
    <glyph glyph-name="five.numerator" horiz-adv-x="345" 
d="M172 303q-62 0 -102 33t-44 88h56q9 -73 89 -73q40 0 63 25.5t23 67.5q0 41 -23.5 65t-61.5 24q-56 0 -81 -35h-52l37 217h218v-48h-179l-20 -117h1q35 30 88 30q54 0 92.5 -37t38.5 -100q0 -62 -40 -101t-103 -39z" />
    <glyph glyph-name="six.numerator" horiz-adv-x="362" 
d="M192 303q-64 0 -104 38q-56 53 -56 172q0 95 40 152.5t118 57.5q58 0 91.5 -31.5t39.5 -78.5h-56q-3 27 -22.5 45.5t-49.5 18.5q-103 0 -105 -150h3q37 52 106 52q57 0 96 -40t39 -98t-40.5 -98t-99.5 -40zM191 349q38 0 62.5 25.5t24.5 65.5t-25 66t-63 26
q-42 0 -68 -25.5t-26 -65.5t27 -66t68 -26z" />
    <glyph glyph-name="seven.numerator" horiz-adv-x="328" 
d="M148 312h-59q5 102 49.5 197.5t105.5 155.5v1h-220v49h279v-47q-63 -61 -105.5 -153.5t-49.5 -202.5z" />
    <glyph glyph-name="eight.numerator" horiz-adv-x="367" 
d="M184 305q-64 0 -109 32t-45 90q0 77 78 106v2q-58 25 -58 84q0 48 38 77t95 29q59 0 96 -29t37 -75q0 -60 -58 -85v-2q35 -12 56.5 -39.5t21.5 -65.5q0 -59 -43.5 -91.5t-108.5 -32.5zM184 349q44 0 69.5 22t25.5 57q0 37 -25.5 59.5t-70.5 22.5q-44 0 -69.5 -22.5
t-25.5 -59.5q0 -36 25.5 -57.5t70.5 -21.5zM183 551q37 0 57.5 18t20.5 47t-20.5 47t-57.5 18t-57 -18t-20 -47t20 -47t57 -18z" />
    <glyph glyph-name="nine.numerator" horiz-adv-x="364" 
d="M178 303q-60 0 -97.5 31t-42.5 83h56q4 -29 25.5 -48.5t56.5 -19.5q44 0 66 27q31 34 34 121h-2q-38 -49 -103 -49q-61 0 -100.5 39.5t-40.5 97.5q0 58 41 98t103 40q56 0 93 -27q65 -47 65 -179q0 -134 -59 -182q-37 -32 -95 -32zM176 495q41 0 67 25t27 66
q0 40 -27.5 66t-66.5 26q-40 0 -65.5 -25.5t-25.5 -65.5q0 -41 25.5 -66.5t65.5 -25.5z" />
    <glyph glyph-name="zero.denominator" horiz-adv-x="384" 
d="M193 39q100 0 100 162q0 77 -25.5 120.5t-74.5 43.5q-50 0 -76 -43t-26 -121q0 -77 26 -119.5t76 -42.5zM192 -9q-75 0 -117.5 56.5t-42.5 153.5q0 98 43.5 154.5t117.5 56.5q73 0 116 -56.5t43 -154.5q0 -97 -42.5 -153.5t-117.5 -56.5z" />
    <glyph glyph-name="one.denominator" horiz-adv-x="256" 
d="M121 0v293h-92v38q46 1 71 18t31 57h47v-406h-57z" />
    <glyph glyph-name="two.denominator" horiz-adv-x="339" 
d="M28 0q1 34 11.5 61t31 49t37 35t44.5 31q3 2 19 12t19.5 12.5t16 11t16 12.5t11 12.5t10 15.5t5 16.5t2.5 19.5q0 36 -20.5 56t-54.5 20q-39 0 -61 -24.5t-23 -70.5h-54q0 68 38 105t102 37q58 0 94.5 -35t36.5 -87q0 -26 -7.5 -46.5t-26 -38.5t-30.5 -26.5t-40 -25.5
q-7 -5 -11 -7q-28 -17 -43 -27t-33 -30t-23 -41h212v-47h-279z" />
    <glyph glyph-name="three.denominator" horiz-adv-x="351" 
d="M177 -8q-68 0 -110 37.5t-41 100.5h54q5 -92 95 -92q42 0 65 20.5t23 58.5q0 35 -23.5 54.5t-66.5 19.5h-27v44h26q37 0 57.5 17.5t20.5 48.5q0 32 -20.5 49.5t-53.5 17.5q-39 0 -60.5 -23.5t-23.5 -62.5h-53q1 58 38 94t100 36q56 0 92 -29.5t36 -79.5q0 -64 -63 -86v-2
q79 -21 79 -103q0 -56 -40.5 -88t-103.5 -32z" />
    <glyph glyph-name="four.denominator" horiz-adv-x="358" 
d="M217 0v97h-193v55l194 256h53v-267h62v-44h-62v-97h-54zM72 141h145v189h-2l-143 -187v-2z" />
    <glyph glyph-name="five.denominator" horiz-adv-x="345" 
d="M172 -8q-62 0 -102 33t-44 87h56q10 -73 89 -73q39 0 62.5 25.5t23.5 67.5q0 41 -24 65.5t-61 24.5q-56 0 -81 -36h-52l37 217h218v-48h-179l-20 -117h1q35 30 88 30q54 0 92.5 -37t38.5 -100q0 -62 -40 -100.5t-103 -38.5z" />
    <glyph glyph-name="six.denominator" horiz-adv-x="362" 
d="M192 -9q-64 0 -104 38q-56 53 -56 172q0 95 40 152.5t118 57.5q58 0 91.5 -31t39.5 -78h-56q-3 27 -22.5 45.5t-49.5 18.5q-103 0 -105 -151h3q37 52 106 52q57 0 96 -40t39 -98t-40.5 -98t-99.5 -40zM191 37q38 0 62.5 25.5t24.5 65.5t-25 66t-63 26q-42 0 -68 -25.5
t-26 -65.5t27 -66t68 -26z" />
    <glyph glyph-name="seven.denominator" horiz-adv-x="328" 
d="M148 0h-59q5 102 49.5 197.5t105.5 155.5v1h-220v49h279v-47q-63 -61 -105.5 -153.5t-49.5 -202.5z" />
    <glyph glyph-name="eight.denominator" horiz-adv-x="367" 
d="M184 -7q-64 0 -109 32.5t-45 90.5q0 76 78 105v2q-58 25 -58 84q0 48 38 77t95 29q59 0 96 -29t37 -75q0 -60 -58 -85v-2q35 -12 56.5 -39.5t21.5 -65.5q0 -59 -43.5 -91.5t-108.5 -32.5zM184 37q43 0 69 22.5t26 56.5q0 37 -25.5 59.5t-70.5 22.5q-44 0 -69.5 -22.5
t-25.5 -59.5q0 -36 25.5 -57.5t70.5 -21.5zM183 239q37 0 57.5 18.5t20.5 47.5t-20.5 47t-57.5 18q-36 0 -56.5 -18t-20.5 -47q0 -30 20 -48t57 -18z" />
    <glyph glyph-name="nine.denominator" horiz-adv-x="364" 
d="M178 -8q-60 0 -97.5 31t-42.5 83h56q4 -30 25.5 -49.5t56.5 -19.5q44 0 66 27q31 34 34 122h-2q-39 -50 -103 -50q-61 0 -100.5 39.5t-40.5 97.5q0 59 41 99t103 40q55 0 93 -28q65 -47 65 -179q0 -133 -59 -182q-35 -31 -95 -31zM176 183q41 0 67 25t27 66
q0 40 -27.5 66.5t-66.5 26.5q-40 0 -65.5 -26t-25.5 -66q0 -41 25.5 -66.5t65.5 -25.5z" />
    </font>
</defs>
</svg>
