<?xml version="1.0" standalone="no"?>
<!DOCTYPE svg PUBLIC "-//W3C//DTD SVG 1.1//EN" "http://www.w3.org/Graphics/SVG/1.1/DTD/svg11.dtd" >
<svg xmlns="http://www.w3.org/2000/svg" xmlns:xlink="http://www.w3.org/1999/xlink" version="1.1">
<metadata>
Created by FontForge 20170731 at Sun Aug  4 23:51:18 2013
 By Aleksey,,,
Copyright 2011 Schwartzco Inc dba Commercial Type.
</metadata>
<defs>
<font id="NeueHaasDisplay-ThinItalic" horiz-adv-x="492" >
  <font-face 
    font-family="Neue Haas Grotesk Display Pro"
    font-weight="300"
    font-style="italic"
    font-stretch="normal"
    units-per-em="1000"
    panose-1="2 13 2 4 3 5 2 12 2 3"
    ascent="818"
    descent="-182"
    x-height="517"
    cap-height="715"
    bbox="-220 -204 1116 912"
    underline-thickness="50"
    underline-position="-350"
    slope="-11"
    unicode-range="U+0020-FB04"
  />
<missing-glyph 
 />
    <glyph glyph-name="f_f" unicode="ff" horiz-adv-x="454" 
d="M54 477l8 40h76l20 105q19 93 116 93h41l-8 -42h-34q-32 0 -47 -14.5t-21 -43.5l-19 -98h158l21 109q19 93 116 93h41l-8 -42h-34q-32 0 -47 -14.5t-21 -43.5l-20 -102h94l-8 -40h-94l-92 -477h-48l92 477h-158l-92 -477h-48l92 477h-76z" />
    <glyph glyph-name="fi" unicode="fi" horiz-adv-x="395" 
d="M54 477l8 40h76l21 109q19 93 116 93h41l-8 -42h-34q-32 0 -47 -14.5t-21 -43.5l-20 -102h94l-8 -40h-94l-92 -477h-48l92 477h-76zM244 0l100 517h48l-100 -517h-48zM367 636l15 79h48l-15 -79h-48z" />
    <glyph glyph-name="fl" unicode="fl" horiz-adv-x="392" 
d="M54 477l8 40h76l21 109q19 93 116 93h41l-8 -42h-34q-32 0 -47 -14.5t-21 -43.5l-20 -102h94l-8 -40h-94l-92 -477h-48l92 477h-76zM244 0l138 715h48l-138 -715h-48z" />
    <glyph glyph-name="f_f_i" unicode="ffi" horiz-adv-x="601" 
d="M54 477l8 40h76l20 105q19 93 116 93h41l-8 -42h-34q-32 0 -47 -14.5t-21 -43.5l-19 -98h158l21 109q19 93 116 93h41l-8 -42h-34q-32 0 -47 -14.5t-21 -43.5l-20 -102h94l-8 -40h-94l-92 -477h-48l92 477h-158l-92 -477h-48l92 477h-76zM450 0l100 517h48l-100 -517h-48
zM573 636l15 79h48l-15 -79h-48z" />
    <glyph glyph-name="f_f_l" unicode="ffl" horiz-adv-x="598" 
d="M54 477l8 40h76l20 105q19 93 116 93h41l-8 -42h-34q-32 0 -47 -14.5t-21 -43.5l-19 -98h158l21 109q19 93 116 93h41l-8 -42h-34q-32 0 -47 -14.5t-21 -43.5l-20 -102h94l-8 -40h-94l-92 -477h-48l92 477h-158l-92 -477h-48l92 477h-76zM450 0l138 715h48l-138 -715h-48
z" />
    <glyph glyph-name=".notdef" 
 />
    <glyph glyph-name=".null" horiz-adv-x="0" 
 />
    <glyph glyph-name="nonmarkingreturn" horiz-adv-x="333" 
 />
    <glyph glyph-name="space" unicode=" " horiz-adv-x="156" 
 />
    <glyph glyph-name="exclam" unicode="!" horiz-adv-x="194" 
d="M63 173l51 313l44 229h54l-45 -235l-70 -307h-34zM17 0l15 79h60l-15 -79h-60z" />
    <glyph glyph-name="quotedbl" unicode="&#x22;" horiz-adv-x="258" 
d="M213 501l41 214h49l-41 -214h-49zM90 501l41 214h49l-41 -214h-49z" />
    <glyph glyph-name="numbersign" unicode="#" horiz-adv-x="542" 
d="M44 257h101l49 181h-101l13 43h99l56 205h45l-55 -205h148l55 205h45l-56 -205h100l-13 -43h-98l-49 -181h97l-13 -43h-96l-58 -214h-45l58 214h-147l-58 -214h-46l58 214h-102zM239 438l-49 -181h148l49 181h-148z" />
    <glyph glyph-name="dollar" unicode="$" horiz-adv-x="530" 
d="M182 -85l18 93q-81 16 -132 71.5t-56 146.5h50q4 -75 42.5 -120t103.5 -57l58 297q-89 32 -129 69.5t-40 97.5q0 87 60 136t151 49q4 0 13 -0.5t13 -0.5l12 60h39l-13 -66q67 -16 107.5 -61.5t44.5 -117.5h-48q-3 53 -33.5 87.5t-79.5 47.5l-52 -267q89 -33 132.5 -72
t43.5 -102q0 -97 -63 -150.5t-162 -53.5h-24l-17 -87h-39zM436 204q0 42 -30.5 71.5t-103.5 57.5l-56 -289h16q77 0 125.5 39t48.5 121zM146 515q0 -41 29.5 -68.5t99.5 -53.5l50 260q-3 0 -9.5 0.5t-9.5 0.5q-69 0 -114.5 -33.5t-45.5 -105.5z" />
    <glyph glyph-name="percent" unicode="%" horiz-adv-x="777" 
d="M248 699q59 0 93 -41.5t34 -110.5q0 -96 -45.5 -165t-121.5 -69q-59 0 -94 41.5t-35 110.5q0 96 46.5 165t122.5 69zM328 547q0 51 -20 82.5t-61 31.5q-57 0 -89 -58.5t-32 -137.5q0 -50 21.5 -81.5t61.5 -32.5q56 -1 87.5 58.5t31.5 137.5zM111 0l541 685h47l-540 -685
h-48zM602 373q59 0 93 -41.5t34 -110.5q0 -96 -45.5 -165t-121.5 -69q-59 0 -94 41.5t-35 110.5q0 96 46.5 165t122.5 69zM682 221q0 51 -20 82.5t-61 31.5q-57 0 -89 -58.5t-32 -137.5q0 -50 21.5 -81.5t61.5 -32.5q56 -1 87.5 58.5t31.5 137.5z" />
    <glyph glyph-name="ampersand" unicode="&#x26;" horiz-adv-x="562" 
d="M217 -13q-86 0 -144.5 46t-58.5 136q0 44 14.5 79t45.5 62t62.5 46t81.5 42q-33 51 -47 84.5t-14 70.5q0 64 43 108t110 44q60 0 97 -35t37 -97q0 -37 -13.5 -67.5t-39.5 -53.5t-49.5 -38t-57.5 -32l135 -229q36 60 57 168h48q-20 -129 -80 -212l66 -109h-56l-43 70
q-36 -38 -88 -60.5t-106 -22.5zM68 169q0 -66 41.5 -102t108.5 -36q47 0 93.5 22t76.5 57l-150 252q-39 -18 -62 -31t-51.5 -36.5t-42.5 -54.5t-14 -71zM307 662q-45 0 -72 -30t-27 -78q0 -50 55 -136q29 15 46.5 25.5t39.5 29.5t33 43.5t11 55.5q0 39 -23 64.5t-63 25.5z
" />
    <glyph glyph-name="quotesingle" unicode="'" horiz-adv-x="135" 
d="M90 501l41 214h49l-41 -214h-49z" />
    <glyph glyph-name="parenleft" unicode="(" horiz-adv-x="267" 
d="M131 -118q-58 128 -61 273q-4 180 56 324.5t176 274.5h50q-228 -269 -228 -599q0 -143 52 -273h-45z" />
    <glyph glyph-name="parenright" unicode=")" horiz-adv-x="267" 
d="M160 754q58 -128 61 -273q4 -180 -56 -324.5t-176 -274.5h-50q228 269 228 599q0 143 -52 273h45z" />
    <glyph glyph-name="asterisk" unicode="*" horiz-adv-x="348" 
d="M279 715l-23 -121l108 30l9 -35l-109 -30l48 -98l-34 -19l-51 105l-90 -97l-26 25l83 88l-92 45l18 33l95 -46l23 120h41z" />
    <glyph glyph-name="plus" unicode="+" horiz-adv-x="502" 
d="M63 304l9 45h171l37 187h50l-37 -187h171l-9 -45h-171l-37 -190h-50l37 190h-171z" />
    <glyph glyph-name="comma" unicode="," horiz-adv-x="141" 
d="M-30 -94l6 29q29 8 38 60l1 5h-25l15 79h60l-18 -92q-7 -39 -25 -57.5t-52 -23.5z" />
    <glyph glyph-name="hyphen" unicode="-" horiz-adv-x="309" 
d="M32 261l9 43h245l-9 -43h-245z" />
    <glyph glyph-name="period" unicode="." horiz-adv-x="141" 
d="M-10 0l15 79h60l-15 -79h-60z" />
    <glyph glyph-name="slash" unicode="/" horiz-adv-x="362" 
d="M-34 0l415 715h53l-415 -715h-53z" />
    <glyph glyph-name="zero" unicode="0" horiz-adv-x="549" 
d="M249 -13q-105 0 -157 71.5t-52 188.5q0 53 9.5 111t32.5 120t56 110.5t85 79.5t115 31q101 0 152 -71.5t51 -187.5q0 -44 -6.5 -91.5t-20 -99.5t-37 -98t-54.5 -83t-76 -59t-98 -22zM93 246q0 -42 7.5 -77.5t24 -68t49 -51t76.5 -18.5q51 0 93 29t68 73.5t44 100.5
t25.5 107.5t7.5 97.5q1 90 -35 153.5t-116 63.5q-64 0 -114 -42.5t-77 -108t-40 -132t-13 -127.5z" />
    <glyph glyph-name="one" unicode="1" horiz-adv-x="295" 
d="M105 0l102 526h-138l7 35q86 5 121 30.5t55 97.5h36l-133 -689h-50z" />
    <glyph glyph-name="two" unicode="2" horiz-adv-x="484" 
d="M410 0h-421q8 48 27 89.5t40.5 69t58 56t62 44t69.5 39.5q34 19 43.5 24.5t38 23t38 27t28.5 28t25.5 35t13 39t6.5 48.5q0 61 -36 96.5t-98 35.5q-143 0 -179 -180h-51q17 114 80 169t152 55q77 0 131 -45t54 -131q0 -50 -15.5 -88.5t-53 -71.5t-63 -49.5t-81.5 -47.5
q-9 -5 -14 -8q-93 -52 -143.5 -98.5t-69.5 -112.5h367z" />
    <glyph glyph-name="three" unicode="3" horiz-adv-x="495" 
d="M229 -13q-100 0 -160 57.5t-60 158.5h51q4 -79 46.5 -124t124.5 -45q72 0 118.5 43.5t46.5 123.5q0 63 -37.5 101.5t-108.5 38.5h-36l8 44h52q70 0 112 39t42 109q0 62 -35 92.5t-93 30.5q-69 0 -115 -48t-55 -121h-52q12 94 73 153t151 59q76 0 127 -41.5t51 -122.5
q0 -65 -33 -109.5t-90 -64.5v-3q42 -19 67 -62t25 -93q0 -97 -62 -156.5t-158 -59.5z" />
    <glyph glyph-name="four" unicode="4" horiz-adv-x="510" 
d="M285 0l34 181h-313l10 49l407 462h46l-91 -467h99l-9 -44h-99l-34 -181h-50zM72 228v-3h256l72 373h-2z" />
    <glyph glyph-name="five" unicode="5" horiz-adv-x="476" 
d="M212 -13q-82 0 -140 50.5t-64 138.5h52q5 -66 45 -104t108 -38q87 0 132.5 56.5t45.5 146.5q0 73 -37 115t-105 42q-92 0 -147 -71h-50l107 362h321l-9 -46h-281l-76 -257h2q57 57 142 57q83 0 134.5 -53.5t51.5 -148.5q0 -104 -61.5 -177t-170.5 -73z" />
    <glyph glyph-name="six" unicode="6" horiz-adv-x="522" 
d="M248 -13q-77 0 -129 41q-41 33 -59 79t-18 119q0 77 18.5 157t54 152t97 118t137.5 46q77 0 122 -44t49 -125h-51q-1 57 -33.5 91t-88.5 34q-93 0 -156.5 -86t-90.5 -241h2q31 53 79.5 80.5t103.5 27.5q83 0 138.5 -53.5t55.5 -146.5q0 -106 -62 -177.5t-169 -71.5z
M93 190q0 -76 44 -118t112 -42q88 0 133 58t45 147q0 70 -39.5 114t-105.5 44q-84 0 -136.5 -60t-52.5 -143z" />
    <glyph glyph-name="seven" unicode="7" horiz-adv-x="465" 
d="M110 0q42 178 138 352t213 286v2h-364l9 45h421l-9 -46q-118 -108 -212.5 -275.5t-140.5 -363.5h-55z" />
    <glyph glyph-name="eight" unicode="8" horiz-adv-x="514" 
d="M233 -13q-83 0 -147.5 49.5t-64.5 140.5q0 149 159 198v3q-35 17 -55 51t-20 75q0 85 59 139.5t149 55.5q73 0 126.5 -43t53.5 -124q0 -121 -127 -166v-3q47 -18 76 -61t30 -98q1 -98 -64.5 -157.5t-174.5 -59.5zM74 177q0 -70 47 -108t114 -38q83 0 134.5 45.5
t50.5 127.5q-1 69 -48 106.5t-113 37.5q-80 0 -132.5 -45t-52.5 -126zM156 506q0 -53 36 -84t93 -31q66 0 111.5 36t45.5 103q0 57 -38 91.5t-92 34.5q-66 1 -111 -40.5t-45 -109.5z" />
    <glyph glyph-name="nine" unicode="9" horiz-adv-x="514" 
d="M295 699q77 0 129 -41q41 -33 59 -80.5t18 -125.5q0 -114 -35.5 -230t-103.5 -177q-65 -58 -158 -58q-80 0 -130 43t-54 126h51q1 -60 38.5 -92.5t96.5 -32.5q75 0 127 49q37 36 67.5 111t45.5 169h-2q-31 -53 -81 -81.5t-105 -28.5q-83 0 -138.5 54.5t-55.5 148.5
q0 102 65 174t166 72zM450 496q0 76 -44 118t-112 42q-82 0 -130 -59t-48 -143q0 -72 39 -116.5t102 -44.5q87 0 140 59.5t53 143.5z" />
    <glyph glyph-name="colon" unicode=":" horiz-adv-x="151" 
d="M55 309l15 79h60l-15 -79h-60zM-5 0l15 79h60l-15 -79h-60z" />
    <glyph glyph-name="semicolon" unicode=";" horiz-adv-x="151" 
d="M55 309l15 79h60l-15 -79h-60zM-25 -94l6 29q29 8 38 60l1 5h-25l15 79h60l-18 -92q-7 -39 -25 -57.5t-52 -23.5z" />
    <glyph glyph-name="less" unicode="&#x3c;" horiz-adv-x="483" 
d="M402 117l-348 170l11 57l413 162l-10 -51l-366 -142v-2l310 -147z" />
    <glyph glyph-name="equal" unicode="=" horiz-adv-x="502" 
d="M75 362l10 45h391l-9 -45h-392zM46 212l9 45h392l-9 -45h-392z" />
    <glyph glyph-name="greater" unicode="&#x3e;" horiz-adv-x="483" 
d="M101 506l348 -170l-11 -57l-413 -162l10 51l366 142v2l-310 147z" />
    <glyph glyph-name="question" unicode="?" horiz-adv-x="479" 
d="M183 173q16 90 43 130t93 88q31 23 46.5 35.5t36.5 35.5t30 49t9 58q0 54 -36.5 84t-92.5 30q-70 0 -118 -43.5t-62 -122.5h-52q13 91 75.5 151t161.5 60q74 0 125.5 -41t51.5 -118q0 -37 -10 -67t-33 -56.5t-44 -44.5t-60 -46q-54 -39 -78 -73.5t-37 -108.5h-49zM145 0
l15 79h60l-15 -79h-60z" />
    <glyph glyph-name="at" unicode="@" horiz-adv-x="849" 
d="M382 82q-71 0 -109.5 44.5t-38.5 123.5q0 64 23 125t74 105t119 44q96 0 127 -80h3l17 72h42l-59 -282q-10 -47 3.5 -75t53.5 -28t69.5 21.5t45 58t22.5 76t7 82.5q0 145 -85 222.5t-223 77.5q-163 0 -274 -115t-111 -290q0 -148 85 -235t242 -87q87 0 195 41l14 -38
q-104 -45 -209 -45q-174 0 -273.5 98t-99.5 264q0 119 53.5 221t154 165t224.5 63q149 0 251 -91t102 -251q0 -48 -10 -94.5t-31 -88.5t-60 -68t-90 -26q-50 0 -74.5 24t-26.5 56h-1q-22 -39 -64 -64.5t-88 -25.5zM383 123q77 0 119.5 60t51.5 156q6 67 -20 106t-86 39
q-54 0 -93 -37.5t-55.5 -89t-16.5 -107.5q0 -127 100 -127z" />
    <glyph glyph-name="A" unicode="A" horiz-adv-x="602" 
d="M492 0l-46 230h-315l-124 -230h-52l385 715h59l145 -715h-52zM306 556l-152 -283h283l-56 284l-19 107h-2q-28 -60 -54 -108z" />
    <glyph glyph-name="B" unicode="B" horiz-adv-x="596" 
d="M11 0l138 715h254q83 0 130 -42q49 -44 49 -121q0 -132 -127 -177v-2q106 -33 106 -153q0 -90 -50 -146q-65 -74 -207 -74h-293zM71 47h235q107 0 160 54q42 42 42 117q0 62 -34.5 97t-99.5 35h-245zM138 395h226q76 0 121 41.5t45 114.5q0 57 -33.5 87.5t-94.5 30.5
h-211z" />
    <glyph glyph-name="C" unicode="C" horiz-adv-x="641" 
d="M317 -13q-129 0 -200 81t-71 217q0 63 13.5 125t42.5 120t70.5 102t101.5 70.5t131 26.5q97 0 161 -53.5t77 -156.5h-50q-11 79 -60.5 122.5t-130.5 43.5q-77 0 -137.5 -36t-95 -95.5t-52 -127.5t-17.5 -140q0 -117 54 -185.5t165 -68.5q96 0 162 61.5t91 165.5h49
q-30 -127 -107.5 -199.5t-196.5 -72.5z" />
    <glyph glyph-name="D" unicode="D" horiz-adv-x="634" 
d="M11 0l138 715h221q132 0 194 -73.5t62 -205.5q0 -87 -21.5 -163.5t-64 -138.5t-113.5 -98t-163 -36h-253zM70 45h191q105 0 176.5 54t103 139.5t31.5 195.5q0 235 -205 235h-176z" />
    <glyph glyph-name="E" unicode="E" horiz-adv-x="559" 
d="M11 0l138 715h442l-8 -45h-391l-54 -279h369l-9 -44h-369l-58 -300h415l-9 -47h-466z" />
    <glyph glyph-name="F" unicode="F" horiz-adv-x="518" 
d="M11 0l138 715h432l-8 -45h-382l-53 -277h338l-9 -44h-337l-68 -349h-51z" />
    <glyph glyph-name="G" unicode="G" horiz-adv-x="687" 
d="M545 0l15 113h-3q-88 -126 -238 -126q-126 0 -199.5 77t-73.5 221q0 115 41.5 214.5t127.5 164.5t201 65q101 0 164.5 -55t72.5 -161h-49q-4 80 -57 126t-133 46q-100 0 -173 -58t-107 -146.5t-34 -192.5q0 -256 223 -256q113 0 178.5 68.5t85.5 173.5l8 41h-236l8 45
h286l-69 -360h-39z" />
    <glyph glyph-name="H" unicode="H" horiz-adv-x="618" 
d="M11 0l138 715h51l-60 -313h393l60 313h52l-138 -715h-52l69 358h-393l-69 -358h-51z" />
    <glyph glyph-name="I" unicode="I" horiz-adv-x="181" 
d="M15 0l138 715h51l-138 -715h-51z" />
    <glyph glyph-name="J" unicode="J" horiz-adv-x="449" 
d="M172 -13q-91 0 -138.5 53t-27.5 156l5 26h50l-4 -21q-31 -168 117 -168q120 0 145 125l108 557h52l-110 -567q-14 -73 -62.5 -117t-134.5 -44z" />
    <glyph glyph-name="K" unicode="K" horiz-adv-x="583" 
d="M480 0l-212 389l-158 -137l-48 -252h-51l138 715h51l-77 -398l450 398h69l-336 -292l230 -423h-56z" />
    <glyph glyph-name="L" unicode="L" horiz-adv-x="501" 
d="M11 0l138 715h51l-129 -668h366l-9 -47h-417z" />
    <glyph glyph-name="M" unicode="M" horiz-adv-x="758" 
d="M11 0l138 715h71l124 -644h2l360 644h79l-138 -715h-50l125 648h-2q-30 -53 -55 -99l-307 -549h-51l-105 549l-15 99h-2l-125 -648h-49z" />
    <glyph glyph-name="N" unicode="N" horiz-adv-x="627" 
d="M11 0l138 715h57l219 -505l53 -135h2l124 640h50l-138 -715h-55l-214 494l-61 148h-2l-124 -642h-49z" />
    <glyph glyph-name="O" unicode="O" horiz-adv-x="689" 
d="M328 -13q-124 0 -203.5 83t-79.5 225q0 109 39.5 206.5t121.5 162.5t190 65q124 0 204.5 -84.5t80.5 -225.5q0 -81 -22.5 -157t-65 -138t-111.5 -99.5t-154 -37.5zM99 295q0 -116 61.5 -189t169.5 -73q94 0 163 57t101.5 143t32.5 186q0 116 -63 190t-170 74
q-93 0 -162 -57t-101 -143.5t-32 -187.5z" />
    <glyph glyph-name="P" unicode="P" horiz-adv-x="556" 
d="M11 0l138 715h236q101 0 149 -48t48 -124q0 -112 -71.5 -168t-191.5 -56h-195l-62 -319h-51zM191 669l-59 -305h188q91 0 150.5 41.5t59.5 133.5q0 130 -146 130h-193z" />
    <glyph glyph-name="Q" unicode="Q" horiz-adv-x="689" 
d="M328 -13q-124 0 -203.5 83t-79.5 225q0 109 39.5 206.5t121.5 162.5t190 65q124 0 204.5 -84.5t80.5 -225.5q0 -102 -37 -197t-105 -156l74 -70l-32 -37l-82 76q-75 -48 -171 -48zM99 295q0 -116 61.5 -189t169.5 -73q75 0 134 36l-76 72l33 36l83 -79q59 53 91 139
t32 182q0 116 -63 190t-170 74q-93 0 -162 -57t-101 -143.5t-32 -187.5z" />
    <glyph glyph-name="R" unicode="R" horiz-adv-x="607" 
d="M11 0l138 715h268q90 0 137.5 -44.5t47.5 -125.5q0 -147 -141 -192v-3q88 -35 75 -169q-15 -152 12 -177v-4h-53q-25 25 -10 181q8 88 -23 119.5t-117 31.5h-219l-64 -332h-51zM191 669l-56 -292h223q193 0 193 165q0 59 -34.5 93t-104.5 34h-221z" />
    <glyph glyph-name="S" unicode="S" horiz-adv-x="559" 
d="M262 -13q-118 0 -188 59.5t-69 179.5h51q-1 -97 53.5 -146t154.5 -49q85 0 142.5 43.5t57.5 132.5q0 53 -42 84.5t-143 63.5q-104 34 -148 71.5t-44 106.5q0 90 68.5 143t168.5 53q101 0 162.5 -50t63.5 -149h-50q-2 75 -50 115t-128 40q-81 0 -132.5 -38t-51.5 -114
q0 -48 35 -76t119 -55q48 -15 75 -25.5t59.5 -27.5t49.5 -35.5t28.5 -45.5t11.5 -61q0 -104 -73 -162t-181 -58z" />
    <glyph glyph-name="T" unicode="T" horiz-adv-x="551" 
d="M94 669l9 46h517l-9 -46h-233l-129 -669h-51l129 669h-233z" />
    <glyph glyph-name="U" unicode="U" horiz-adv-x="602" 
d="M271 -11q-121 0 -182.5 63t-36.5 193l91 470h51l-91 -470q-21 -108 22 -159.5t151 -51.5q90 0 141.5 42.5t69.5 137.5l97 501h51l-98 -506q-41 -220 -266 -220z" />
    <glyph glyph-name="V" unicode="V" horiz-adv-x="569" 
d="M217 0l-133 715h51l95 -519l22 -140h2q37 79 68 138l273 521h52l-376 -715h-54z" />
    <glyph glyph-name="W" unicode="W" horiz-adv-x="838" 
d="M157 0l-65 715h50l42 -494l10 -156h2q38 95 61 148l215 502h54l49 -500l11 -150h2q36 97 61 156l206 494h50l-302 -715h-56l-49 532l-9 122h-2q-24 -69 -46 -122l-227 -532h-57z" />
    <glyph glyph-name="X" unicode="X" horiz-adv-x="524" 
d="M-49 0l301 368l-153 347h55l135 -313h2l248 313h59l-284 -354l160 -361h-56l-141 327h-2l-266 -327h-58z" />
    <glyph glyph-name="Y" unicode="Y" horiz-adv-x="546" 
d="M197 0l61 318l-176 397h54l155 -355h2l277 355h57l-319 -403l-60 -312h-51z" />
    <glyph glyph-name="Z" unicode="Z" horiz-adv-x="554" 
d="M-22 0l9 50l539 618v3h-391l8 44h454l-9 -47l-540 -620v-3h434l-8 -45h-496z" />
    <glyph glyph-name="bracketleft" unicode="[" horiz-adv-x="277" 
d="M8 -118l169 872h162l-9 -44h-113l-151 -783h113l-9 -45h-162z" />
    <glyph glyph-name="backslash" unicode="\" horiz-adv-x="362" 
d="M263 0l-174 715h48l174 -715h-48z" />
    <glyph glyph-name="bracketright" unicode="]" horiz-adv-x="277" 
d="M293 754l-169 -872h-163l9 45h114l151 783h-114l9 44h163z" />
    <glyph glyph-name="asciicircum" unicode="^" horiz-adv-x="375" 
d="M102 458h-54l191 257h56l104 -257h-50l-86 219h-2z" />
    <glyph glyph-name="underscore" unicode="_" horiz-adv-x="362" 
d="M-84 -166l8 40h365l-8 -40h-365z" />
    <glyph glyph-name="grave" unicode="`" 
d="M351 588h-42l-69 127h64z" />
    <glyph glyph-name="a" unicode="a" horiz-adv-x="481" 
d="M395 -8q-38 0 -53 22.5t-9 53.5h-3q-54 -81 -166 -81q-69 0 -117 38t-48 104q0 69 41.5 111t118.5 52q33 4 77 6.5t71 5.5t44 10q40 17 40 76q0 50 -35 73.5t-92 23.5q-134 0 -159 -117h-49q14 74 69 116t140 42q42 0 75.5 -9.5t59 -32t33.5 -58.5t-1 -89l-52 -262
q-6 -30 7.5 -41t42.5 -4h3l-6 -34q-12 -6 -32 -6zM49 129q1 -47 34 -74.5t86 -27.5q79 0 125 44.5t59 109.5l20 101q-35 -14 -115 -20.5t-97 -9.5q-61 -10 -87 -40t-25 -83z" />
    <glyph glyph-name="b" unicode="b" horiz-adv-x="508" 
d="M-1 0l138 715h48l-56 -287h2q67 100 177 100q83 0 132.5 -57t48.5 -152q-1 -85 -27 -157.5t-86 -122.5t-143 -50q-57 0 -101.5 28.5t-63.5 80.5h-2l-19 -98h-48zM86 198q-1 -80 38 -124.5t112 -44.5q68 0 116 46.5t67.5 109.5t19.5 133q0 72 -35 120.5t-105 48.5
q-66 0 -116 -46.5t-73 -110.5t-24 -132z" />
    <glyph glyph-name="c" unicode="c" horiz-adv-x="461" 
d="M221 -13q-91 0 -145 55.5t-54 161.5q0 81 27 152.5t87.5 121.5t144.5 50q74 0 120 -43t54 -117h-46q-5 49 -36.5 84t-92.5 35q-53 0 -94.5 -25.5t-65.5 -67t-36.5 -90t-12.5 -99.5q0 -81 37 -128.5t114 -47.5q61 1 105 41t61 105h47q-22 -85 -78 -136.5t-136 -51.5z" />
    <glyph glyph-name="d" unicode="d" horiz-adv-x="508" 
d="M548 715l-139 -715h-48l16 83h-2q-63 -96 -172 -96q-84 0 -134 56.5t-49 154.5q1 130 73 230t189 100q57 0 98.5 -29.5t59.5 -81.5h2l58 298h48zM423 319q1 75 -37 121.5t-108 46.5q-64 0 -113 -44.5t-72 -109t-23 -134.5q0 -76 34 -124t105 -48q66 0 116.5 47t73.5 112
t24 133z" />
    <glyph glyph-name="e" unicode="e" horiz-adv-x="477" 
d="M453 253h-379q-3 -24 -3 -48q0 -80 37 -128t115 -48q60 0 102.5 34t62.5 91h48q-25 -81 -81.5 -124t-134.5 -43q-92 0 -145 57t-53 160q0 56 16 111.5t47 104t82.5 78.5t115.5 30q85 0 131 -51q65 -71 39 -224zM281 487q-79 0 -130 -55.5t-70 -138.5h328q13 85 -19 139.5
t-109 54.5z" />
    <glyph glyph-name="f" unicode="f" horiz-adv-x="248" 
d="M54 477l8 40h76l21 109q19 93 116 93h41l-8 -42h-34q-32 0 -47 -14.5t-21 -43.5l-20 -102h94l-8 -40h-94l-92 -477h-48l92 477h-76z" />
    <glyph glyph-name="g" unicode="g" horiz-adv-x="508" 
d="M195 -187q-71 0 -124.5 31t-61.5 99h49q5 -45 45.5 -67t92.5 -22q136 0 166 149l17 86h-2q-66 -84 -170 -84q-88 0 -137.5 55.5t-48.5 151.5q1 76 30 147t90 120t140 49q116 0 160 -111h2l19 100h48l-100 -514q-17 -89 -64 -136q-54 -54 -151 -54zM71 212
q0 -77 35.5 -121.5t106.5 -44.5q66 0 115 41.5t71.5 101.5t22.5 127q0 73 -36 122t-109 49q-95 0 -150.5 -85t-55.5 -190z" />
    <glyph glyph-name="h" unicode="h" horiz-adv-x="471" 
d="M185 715l-56 -289h2q80 101 189 101q71 0 106 -42.5t20 -120.5l-70 -364h-48l70 363q12 60 -11 91.5t-77 31.5q-74 0 -131.5 -50t-71.5 -124l-60 -312h-48l138 715h48z" />
    <glyph glyph-name="i" unicode="i" horiz-adv-x="153" 
d="M2 0l100 517h48l-100 -517h-48zM125 636l15 79h48l-15 -79h-48z" />
    <glyph glyph-name="j" unicode="j" horiz-adv-x="153" 
d="M-97 -166l8 42h15q51 0 62 55l114 586h48l-114 -588q-19 -95 -110 -95h-23zM125 636l15 79h48l-15 -79h-48z" />
    <glyph glyph-name="k" unicode="k" horiz-adv-x="445" 
d="M462 517l-211 -185l151 -332h-53l-136 298l-131 -115l-35 -183h-48l138 715h48l-91 -470l304 272h64z" />
    <glyph glyph-name="l" unicode="l" horiz-adv-x="150" 
d="M2 0l138 715h48l-138 -715h-48z" />
    <glyph glyph-name="m" unicode="m" horiz-adv-x="756" 
d="M147 517l-17 -86h2q76 96 175 96q50 0 81 -27t35 -79h2q79 106 189 106q64 0 98 -43t19 -120l-70 -364h-48l70 363q12 59 -10 91t-69 32q-68 0 -121.5 -47.5t-67.5 -121.5l-61 -317h-48l70 363q12 59 -10 91t-69 32q-67 0 -121 -48t-68 -121l-61 -317h-48l100 517h48z
" />
    <glyph glyph-name="n" unicode="n" horiz-adv-x="471" 
d="M147 517l-18 -91h2q80 101 189 101q71 0 106 -42.5t20 -120.5l-70 -364h-48l70 363q12 60 -11 91.5t-77 31.5q-74 0 -131.5 -50t-71.5 -124l-60 -312h-48l100 517h48z" />
    <glyph glyph-name="o" unicode="o" horiz-adv-x="500" 
d="M224 -13q-89 0 -145.5 58.5t-56.5 157.5q0 57 15.5 113t45.5 104.5t80.5 78t114.5 29.5q89 0 144.5 -60t55.5 -160q0 -56 -15.5 -111.5t-45.5 -103t-80.5 -77t-112.5 -29.5zM71 208q0 -79 39.5 -129.5t114.5 -50.5q66 0 114 43t69 104t21 129q0 79 -38.5 131.5
t-114.5 52.5q-66 0 -114.5 -44t-69.5 -105.5t-21 -130.5z" />
    <glyph glyph-name="p" unicode="p" horiz-adv-x="508" 
d="M-34 -166l133 683h48l-18 -89h2q67 100 177 100q83 0 132.5 -57t48.5 -152q-1 -85 -27 -157.5t-86 -122.5t-143 -50q-57 0 -102.5 29t-63.5 80h-2l-51 -264h-48zM86 198q-1 -80 38 -124.5t112 -44.5q68 0 116 46.5t67.5 109.5t19.5 133q0 72 -35 120.5t-105 48.5
q-66 0 -116 -46.5t-73 -110.5t-24 -132z" />
    <glyph glyph-name="q" unicode="q" horiz-adv-x="510" 
d="M510 517l-133 -683h-47l47 249h-2q-63 -96 -172 -96q-84 0 -134 56.5t-49 154.5q1 130 73 230t189 100q57 0 98.5 -29.5t59.5 -81.5h2l20 100h48zM423 319q1 75 -37 121.5t-108 46.5q-64 0 -113 -44.5t-72 -109t-23 -134.5q0 -76 34 -124t105 -48q66 0 116.5 47t73.5 112
t24 133z" />
    <glyph glyph-name="r" unicode="r" horiz-adv-x="280" 
d="M147 517l-20 -102h2q35 56 87 83q44 22 100 22l-9 -48q-44 2 -75 -12q-105 -46 -131 -182l-54 -278h-48l100 517h48z" />
    <glyph glyph-name="s" unicode="s" horiz-adv-x="423" 
d="M192 -13q-86 0 -140 42t-55 127h48q7 -127 149 -127q62 0 98.5 29.5t36.5 83.5q0 36 -27.5 58t-98.5 49q-80 30 -113.5 60t-33.5 83q0 65 50 100.5t125 35.5q76 0 121 -39t49 -108h-46q-4 51 -37.5 78t-88.5 27t-90.5 -22t-35.5 -71q0 -35 27 -56t102 -49t110 -58t35 -87
q0 -69 -52 -112.5t-133 -43.5z" />
    <glyph glyph-name="t" unicode="t" horiz-adv-x="262" 
d="M56 477l8 40h78l30 156h49l-30 -156h92l-8 -40h-92l-74 -384q-10 -56 37 -56q26 0 43 7h3l-8 -41q-18 -7 -44 -7q-100 0 -79 103l73 378h-78z" />
    <glyph glyph-name="u" unicode="u" horiz-adv-x="465" 
d="M318 0l17 87h-2q-80 -99 -184 -99q-71 0 -105 44t-19 123l70 362h48l-70 -361q-24 -127 86 -127q74 0 130 53.5t71 133.5l58 301h48l-100 -517h-48z" />
    <glyph glyph-name="v" unicode="v" horiz-adv-x="438" 
d="M145 0l-88 517h50l53 -328l20 -146h2q42 86 71 141l174 333h50l-272 -517h-60z" />
    <glyph glyph-name="w" unicode="w" horiz-adv-x="674" 
d="M114 0l-53 517h50l31 -320l7 -152h2q39 93 62 145l143 327h54l31 -327l7 -145h2q42 98 67 154l141 318h49l-236 -517h-58l-32 342l-6 123h-2q-26 -70 -49 -123l-150 -342h-60z" />
    <glyph glyph-name="x" unicode="x" horiz-adv-x="439" 
d="M-36 0l227 279l-116 238h56l94 -208h2l164 208h56l-197 -245l134 -272h-56l-113 242h-2l-194 -242h-55z" />
    <glyph glyph-name="y" unicode="y" horiz-adv-x="448" 
d="M43 -171q-27 0 -47 6l9 44h2q20 -5 39 -5q58 0 94 71l25 48l-113 524h49l71 -340l23 -132h2q35 76 62 130l171 342h51l-302 -592q-49 -96 -136 -96z" />
    <glyph glyph-name="z" unicode="z" horiz-adv-x="413" 
d="M-26 0l8 44l378 428v3h-273l8 42h336l-8 -40l-382 -432v-3h306l-8 -42h-365z" />
    <glyph glyph-name="braceleft" unicode="{" horiz-adv-x="277" 
d="M155 -118h-16q-120 0 -96 124l43 222q7 37 -4.5 54t-49.5 18l9 45q38 1 55.5 16.5t25.5 53.5l43 222q13 65 41.5 91t89.5 26h28l-9 -44h-19q-38 0 -56 -16.5t-27 -62.5l-44 -228q-13 -66 -71 -82v-2q51 -24 36 -96l-44 -228q-7 -37 6 -52.5t47 -15.5h21z" />
    <glyph glyph-name="bar" unicode="|" horiz-adv-x="198" 
d="M98 -118v872h46v-872h-46z" />
    <glyph glyph-name="braceright" unicode="}" horiz-adv-x="277" 
d="M145 754h16q120 0 96 -124l-43 -222q-7 -37 4.5 -54t49.5 -18l-9 -45q-38 -1 -55.5 -16.5t-25.5 -53.5l-43 -222q-13 -65 -41.5 -91t-89.5 -26h-28l9 45h19q39 0 56.5 16t26.5 62l44 228q13 66 71 82v2q-51 24 -36 96l44 228q14 69 -53 69h-21z" />
    <glyph glyph-name="asciitilde" unicode="~" horiz-adv-x="373" 
d="M264 287q-30 0 -72 27t-56 27q-16 0 -28.5 -14t-16.5 -39h-45q9 48 33 73t59 25q31 0 70 -27t56 -27t29.5 13.5t16.5 38.5h45q-7 -47 -31.5 -72t-59.5 -25z" />
    <glyph glyph-name="uni00A0" unicode="&#xa0;" horiz-adv-x="156" 
 />
    <glyph glyph-name="exclamdown" unicode="&#xa1;" horiz-adv-x="194" 
d="M144 415l-51 -313l-44 -229h-54l45 235l70 307h34zM190 588l-15 -79h-60l15 79h60z" />
    <glyph glyph-name="cent" unicode="&#xa2;" horiz-adv-x="461" 
d="M221 -13h-9l-14 -72h-40l15 77q-71 13 -111 67t-40 145q0 80 27 151t87 121.5t141 51.5l12 63h40l-13 -66q60 -9 96.5 -49.5t42.5 -107.5h-47q-5 43 -29 75.5t-71 40.5l-88 -455h2q61 1 105 40.5t61 104.5l47 1q-22 -85 -78 -136.5t-136 -51.5zM71 205q0 -148 110 -172
l88 453q-66 -3 -112.5 -48t-66 -105t-19.5 -128z" />
    <glyph glyph-name="sterling" unicode="&#xa3;" horiz-adv-x="520" 
d="M60 355h61q-23 88 -23 129q0 95 61.5 155t154.5 60q95 0 146.5 -57.5t48.5 -153.5h-49q3 168 -148 168q-71 0 -116.5 -45t-45.5 -125q0 -32 22 -131h177l-9 -41h-160q5 -30 5 -54q0 -121 -105 -198l1 -2q34 17 72 17q32 0 88 -21.5t90 -21.5q47 0 104 42l25 -37
q-72 -49 -131 -49q-42 0 -102 23.5t-89 23.5q-49 0 -116 -39l-24 45q139 82 139 215q0 23 -7 56h-79z" />
    <glyph glyph-name="currency" unicode="&#xa4;" horiz-adv-x="479" 
d="M258 185q66 0 103 47t37 118q0 72 -37 119t-103 47q-67 0 -104.5 -47t-37.5 -119q0 -71 37.5 -118t104.5 -47zM30 561l30 30l73 -79q49 43 125 43q74 0 123 -43l74 79l30 -30l-75 -80q38 -53 38 -131q0 -77 -39 -133l76 -80l-30 -30l-74 79q-51 -43 -123 -43
q-75 0 -124 43l-74 -79l-30 30l75 81q-38 53 -38 132q0 77 38 130z" />
    <glyph glyph-name="yen" unicode="&#xa5;" horiz-adv-x="512" 
d="M62 286l8 40h167l-142 360h54l127 -332h2l248 332h57l-274 -360h166l-8 -40h-178l-15 -76h178l-8 -40h-177l-33 -170h-49l33 170h-179l8 40h178l15 76h-178z" />
    <glyph glyph-name="brokenbar" unicode="&#xa6;" horiz-adv-x="198" 
d="M98 -118v411h46v-411h-46zM144 754v-395h-46v395h46z" />
    <glyph glyph-name="section" unicode="&#xa7;" horiz-adv-x="539" 
d="M44 321q0 58 40.5 97.5t99.5 52.5q-21 37 -21 74q0 71 48.5 112.5t119.5 41.5q79 0 122.5 -44.5t46.5 -124.5h-50q-4 57 -34.5 91t-85.5 34q-52 0 -84 -27.5t-32 -80.5q0 -40 26.5 -71t97.5 -84q54 -41 81 -64.5t50.5 -61.5t23.5 -78q0 -109 -140 -149q29 -41 29 -86
q0 -62 -44.5 -98.5t-120.5 -36.5q-82 0 -135 50t-54 134h52q3 -66 39 -103t101 -37q111 0 111 91q0 37 -27 69.5t-102 91.5q-90 71 -124 112t-34 95zM230 155q67 -52 98 -85q51 11 83 40t32 76q0 41 -31 76.5t-101 88.5q-72 54 -101 87q-116 -24 -116 -114q0 -41 29.5 -75
t106.5 -94z" />
    <glyph glyph-name="dieresis" unicode="&#xa8;" horiz-adv-x="512" 
d="M230 635l15 80h49l-15 -80h-49zM379 635l15 80h49l-15 -80h-49z" />
    <glyph glyph-name="copyright" unicode="&#xa9;" horiz-adv-x="799" 
d="M419 -17q-154 0 -259 106t-105 266t105 266.5t259 106.5t259 -106.5t105 -266.5t-105 -266t-259 -106zM419 15q140 0 232 96.5t92 243.5t-92 244t-232 97t-232 -97t-92 -244t92 -243.5t232 -96.5zM421 122q-91 0 -147.5 65t-56.5 168q0 104 55.5 170t150.5 66
q71 0 117 -37.5t57 -101.5h-50q-8 44 -40.5 70t-83.5 26q-74 0 -114 -54.5t-40 -138.5t40 -137t112 -53q59 0 94 34.5t40 90.5h49q-5 -69 -46 -113q-50 -55 -137 -55z" />
    <glyph glyph-name="ordfeminine" unicode="&#xaa;" horiz-adv-x="456" 
d="M403 233q-33 0 -47 19.5t-10 46.5h-3q-49 -71 -142 -71q-62 0 -103 34t-41 90q0 125 148 143q17 2 42.5 4t39 3t30.5 3t28 5t20 7q30 14 30 61q0 81 -104 81q-114 0 -136 -100h-48q12 65 60.5 102.5t124.5 37.5q78 0 121 -39t26 -123l-45 -223q-4 -27 6.5 -36.5
t36.5 -3.5h3l-7 -36q-13 -5 -30 -5zM108 354q1 -40 28 -63t71 -23q67 0 105.5 37.5t51.5 95.5l16 80q-21 -8 -48 -12t-65.5 -7t-60.5 -6q-50 -8 -74 -32t-24 -70z" />
    <glyph glyph-name="guillemotleft" unicode="&#xab;" horiz-adv-x="396" 
d="M312 126l-100 116l13 66l143 109l-13 -66l-108 -77v-2l76 -87zM156 126l-100 116l13 66l143 109l-13 -66l-107 -77v-2l75 -87z" />
    <glyph glyph-name="logicalnot" unicode="&#xac;" horiz-adv-x="502" 
d="M68 326l9 45h372l-46 -236h-49l37 191h-323z" />
    <glyph glyph-name="uni00AD" unicode="&#xad;" horiz-adv-x="309" 
d="M32 261l9 43h245l-9 -43h-245z" />
    <glyph glyph-name="registered" unicode="&#xae;" horiz-adv-x="520" 
d="M304 244q-100 0 -168.5 69t-68.5 173t68.5 173t168.5 69t168.5 -69t68.5 -173t-68.5 -173t-168.5 -69zM304 274q88 0 144.5 60t56.5 152t-56.5 152t-144.5 60t-144.5 -60t-56.5 -152t56.5 -152t144.5 -60zM211 359v262h118q36 0 58 -20t22 -52q0 -50 -48 -63v-1
q37 -10 40 -59q6 -62 11 -65v-2h-39q-8 3 -11 60q-1 51 -53 51h-58v-111h-40zM251 588v-86h69q49 0 49 42q0 44 -48 44h-70z" />
    <glyph glyph-name="macron" unicode="&#xaf;" 
d="M199 631l9 48h228l-9 -48h-228z" />
    <glyph glyph-name="degree" unicode="&#xb0;" horiz-adv-x="313" 
d="M218 461q-49 0 -83.5 34.5t-34.5 84.5t34.5 84.5t83.5 34.5q50 0 84 -34.5t34 -84.5t-34 -84.5t-84 -34.5zM218 499q33 0 53 22.5t20 58.5q0 35 -20 58t-53 23t-53 -23t-20 -58q0 -36 20 -58.5t53 -22.5z" />
    <glyph glyph-name="plusminus" unicode="&#xb1;" horiz-adv-x="502" 
d="M65 314l9 45h171l35 177h50l-35 -177h171l-9 -45h-171l-35 -180h-50l35 180h-171zM5 0l8 45h392l-8 -45h-392z" />
    <glyph glyph-name="twosuperior" unicode="&#xb2;" horiz-adv-x="308" 
d="M294 287h-266q6 36 21 64t40 50t46 35.5t55 31.5q31 16 43 23.5t31 22.5t26 32t7 39q0 32 -20.5 51t-53.5 19q-37 0 -63 -25t-35 -74h-44q9 67 49 102t96 35q49 0 84 -27.5t35 -79.5q0 -28 -9.5 -50t-31.5 -40.5t-41 -30t-55 -30.5q-53 -28 -82.5 -52.5t-38.5 -57.5h215z
" />
    <glyph glyph-name="threesuperior" unicode="&#xb3;" horiz-adv-x="332" 
d="M187 279q-63 0 -102.5 35t-40.5 97h44q3 -45 28 -69.5t72 -24.5q40 0 66.5 23.5t27.5 64.5q0 34 -21.5 54t-61.5 20h-21l7 36h29q37 -1 60 19.5t23 58.5q0 31 -18.5 47.5t-49.5 16.5q-40 0 -66 -23.5t-33 -66.5h-42q9 58 47.5 92t94.5 34q48 0 80 -24.5t32 -73.5
q0 -36 -20 -61.5t-54 -36.5v-2q27 -10 43.5 -34t16.5 -53q0 -58 -40.5 -93.5t-100.5 -35.5z" />
    <glyph glyph-name="acute" unicode="&#xb4;" 
d="M273 588l75 127h68l-100 -127h-43z" />
    <glyph glyph-name="mu" unicode="&#xb5;" horiz-adv-x="465" 
d="M156 -12q-75 0 -99 54h-2l-41 -208h-48l133 683h48l-70 -361q-24 -127 86 -127q74 0 130 53.5t71 133.5l58 301h48l-100 -517h-48l17 87h-2q-38 -47 -79.5 -73t-101.5 -26z" />
    <glyph glyph-name="paragraph" unicode="&#xb6;" horiz-adv-x="475" 
d="M263 382h-19q-76 0 -120 38.5t-44 103.5q0 96 71 149q56 42 141 42h210l-138 -715h-49l129 665h-77l-129 -665h-49z" />
    <glyph glyph-name="periodcentered" unicode="&#xb7;" horiz-adv-x="141" 
d="M42 271l16 79h60l-16 -79h-60z" />
    <glyph glyph-name="cedilla" unicode="&#xb8;" 
d="M140 -184q-51 0 -88 22l14 26q35 -14 66 -14q60 0 60 39q0 27 -40 27q-16 0 -39 -7l-11 22l71 69h47l-56 -51v-2q34 2 54.5 -13t20.5 -42q0 -37 -29 -56.5t-70 -19.5z" />
    <glyph glyph-name="onesuperior" unicode="&#xb9;" horiz-adv-x="216" 
d="M113 287l57 295h-92l6 32q53 2 78 18.5t37 55.5h37l-77 -401h-46z" />
    <glyph glyph-name="ordmasculine" unicode="&#xba;" horiz-adv-x="452" 
d="M243 228q-79 0 -129 51t-50 139q0 69 23.5 131.5t76.5 106t126 43.5q78 0 127.5 -53t49.5 -140q0 -68 -23.5 -130t-76 -105t-124.5 -43zM114 421q0 -67 33 -109.5t97 -42.5q82 0 127.5 70.5t45.5 163.5q0 67 -32.5 112t-96.5 45q-56 0 -97 -37t-59 -90t-18 -112z" />
    <glyph glyph-name="guillemotright" unicode="&#xbb;" horiz-adv-x="396" 
d="M89 417l100 -116l-13 -66l-143 -109l13 66l108 77v2l-76 87zM245 417l100 -116l-13 -66l-143 -109l13 66l107 77v2l-75 87z" />
    <glyph glyph-name="onequarter" unicode="&#xbc;" horiz-adv-x="693" 
d="M128 317l57 295h-92l6 32q53 2 78 18.5t37 55.5h37l-77 -401h-46zM22 0l616 715h52l-616 -715h-52zM514 0l18 100h-195l9 43l248 259h41l-51 -267h59l-7 -35h-60l-19 -100h-43zM389 136v-1h151l38 200h-1z" />
    <glyph glyph-name="onehalf" unicode="&#xbd;" horiz-adv-x="731" 
d="M128 317l57 295h-92l6 32q53 2 78 18.5t37 55.5h37l-77 -401h-46zM13 0l616 715h52l-616 -715h-52zM639 0h-266q6 36 21 64t40 50t46 35.5t55 31.5q31 16 43 23.5t31 22.5t26 32t7 39q0 32 -20.5 51t-53.5 19q-37 0 -63 -25t-35 -74h-44q9 67 49 102t96 35q49 0 84 -27.5
t35 -79.5q0 -28 -9.5 -50t-31.5 -40.5t-41 -30t-55 -30.5q-53 -28 -82.5 -52.5t-38.5 -57.5h215z" />
    <glyph glyph-name="threequarters" unicode="&#xbe;" horiz-adv-x="758" 
d="M199 309q-63 0 -102.5 35t-40.5 97h42q6 -94 102 -94q40 0 66.5 23.5t27.5 64.5q0 34 -21.5 54t-61.5 20h-21l7 36h29q37 -1 60 19.5t23 58.5q0 31 -18.5 47.5t-49.5 16.5q-40 0 -66 -23.5t-33 -66.5h-42q9 58 47.5 92t94.5 34q48 0 80 -24.5t32 -73.5q0 -36 -20 -61.5
t-54 -36.5v-2q27 -10 43.5 -34t16.5 -53q0 -58 -40.5 -93.5t-100.5 -35.5zM93 0l616 715h52l-616 -715h-52zM579 0l18 100h-195l9 43l248 259h41l-51 -267h59l-7 -35h-60l-19 -100h-43zM454 136v-1h151l38 200h-1z" />
    <glyph glyph-name="questiondown" unicode="&#xbf;" horiz-adv-x="479" 
d="M306 415q-16 -90 -43 -130t-93 -88q-31 -23 -46.5 -35.5t-36.5 -35.5t-30 -49t-9 -58q0 -54 36.5 -84t92.5 -30q70 0 118 43.5t62 122.5h52q-13 -91 -75.5 -151t-161.5 -60q-74 0 -125.5 41t-51.5 118q0 37 10 67t33 56.5t44 44.5t60 46q54 39 78 73.5t37 108.5h49z
M344 588l-15 -79h-60l15 79h60z" />
    <glyph glyph-name="Agrave" unicode="&#xc0;" horiz-adv-x="602" 
d="M492 0l-46 230h-315l-124 -230h-52l385 715h59l145 -715h-52zM306 556l-152 -283h283l-56 284l-19 107h-2q-28 -60 -54 -108zM399 753h-43l-69 110h66z" />
    <glyph glyph-name="Aacute" unicode="&#xc1;" horiz-adv-x="602" 
d="M492 0l-46 230h-315l-124 -230h-52l385 715h59l145 -715h-52zM306 556l-152 -283h283l-56 284l-19 107h-2q-28 -60 -54 -108zM354 753l75 110h68l-99 -110h-44z" />
    <glyph glyph-name="Acircumflex" unicode="&#xc2;" horiz-adv-x="602" 
d="M492 0l-46 230h-315l-124 -230h-52l385 715h59l145 -715h-52zM306 556l-152 -283h283l-56 284l-19 107h-2q-28 -60 -54 -108zM244 752l109 101h62l73 -101h-53l-54 71h-2l-79 -71h-56z" />
    <glyph glyph-name="Atilde" unicode="&#xc3;" horiz-adv-x="602" 
d="M492 0l-46 230h-315l-124 -230h-52l385 715h59l145 -715h-52zM306 556l-152 -283h283l-56 284l-19 107h-2q-28 -60 -54 -108zM432 760q-22 0 -63 21.5t-53 21.5q-11 0 -21 -11t-14 -30h-41q8 41 29 62.5t49 21.5q23 0 63.5 -21.5t52.5 -21.5q29 0 37 41h41
q-7 -40 -29 -62t-51 -22z" />
    <glyph glyph-name="Adieresis" unicode="&#xc4;" horiz-adv-x="602" 
d="M492 0l-46 230h-315l-124 -230h-52l385 715h59l145 -715h-52zM306 556l-152 -283h283l-56 284l-19 107h-2q-28 -60 -54 -108zM270 755l16 80h49l-16 -80h-49zM419 755l16 80h49l-16 -80h-49z" />
    <glyph glyph-name="Aring" unicode="&#xc5;" horiz-adv-x="602" 
d="M492 0l-46 230h-315l-124 -230h-52l385 715h59l145 -715h-52zM306 556l-152 -283h283l-56 284l-19 107h-2q-28 -60 -54 -108zM379 742q-36 0 -61.5 25t-25.5 60t25.5 60t61.5 25t61.5 -25t25.5 -60t-25.5 -60t-61.5 -25zM379 775q21 0 35 15t14 37t-14 37t-35 15t-35 -15
t-14 -37t14 -37t35 -15z" />
    <glyph glyph-name="AE" unicode="&#xc6;" horiz-adv-x="920" 
d="M398 0l44 230h-293l-138 -230h-54l430 715h561l-8 -45h-361l-54 -279h339l-9 -44h-339l-58 -300h385l-9 -47h-436zM414 670l-239 -397h276l76 397h-113z" />
    <glyph glyph-name="Ccedilla" unicode="&#xc7;" horiz-adv-x="641" 
d="M261 -184q-51 0 -88 22l14 26q35 -14 66 -14q60 0 60 39q0 27 -40 27q-16 0 -39 -7l-11 22l59 58q-113 10 -174.5 89.5t-61.5 206.5q0 63 13.5 125t42.5 120t70.5 102t101.5 70.5t131 26.5q97 0 161 -53.5t77 -156.5h-50q-11 79 -60.5 122.5t-130.5 43.5
q-77 0 -137.5 -36t-95 -95.5t-52 -127.5t-17.5 -140q0 -117 54 -185.5t165 -68.5q96 0 162 61.5t91 165.5h49q-29 -125 -104.5 -197t-190.5 -75l-41 -38v-2q34 2 54.5 -13t20.5 -42q0 -37 -29 -56.5t-70 -19.5z" />
    <glyph glyph-name="Egrave" unicode="&#xc8;" horiz-adv-x="559" 
d="M11 0l138 715h442l-8 -45h-391l-54 -279h369l-9 -44h-369l-58 -300h415l-9 -47h-466zM413 753h-43l-69 110h66z" />
    <glyph glyph-name="Eacute" unicode="&#xc9;" horiz-adv-x="559" 
d="M11 0l138 715h442l-8 -45h-391l-54 -279h369l-9 -44h-369l-58 -300h415l-9 -47h-466zM354 753l75 110h68l-99 -110h-44z" />
    <glyph glyph-name="Ecircumflex" unicode="&#xca;" horiz-adv-x="559" 
d="M11 0l138 715h442l-8 -45h-391l-54 -279h369l-9 -44h-369l-58 -300h415l-9 -47h-466zM264 752l109 101h62l73 -101h-53l-54 71h-2l-79 -71h-56z" />
    <glyph glyph-name="Edieresis" unicode="&#xcb;" horiz-adv-x="559" 
d="M11 0l138 715h442l-8 -45h-391l-54 -279h369l-9 -44h-369l-58 -300h415l-9 -47h-466zM287 755l16 80h49l-16 -80h-49zM436 755l16 80h49l-16 -80h-49z" />
    <glyph glyph-name="Igrave" unicode="&#xcc;" horiz-adv-x="181" 
d="M15 0l138 715h51l-138 -715h-51zM205 753h-43l-69 110h66z" />
    <glyph glyph-name="Iacute" unicode="&#xcd;" horiz-adv-x="181" 
d="M15 0l138 715h51l-138 -715h-51zM163 753l75 110h68l-99 -110h-44z" />
    <glyph glyph-name="Icircumflex" unicode="&#xce;" horiz-adv-x="181" 
d="M15 0l138 715h51l-138 -715h-51zM59 752l109 101h62l73 -101h-53l-54 71h-2l-79 -71h-56z" />
    <glyph glyph-name="Idieresis" unicode="&#xcf;" horiz-adv-x="181" 
d="M15 0l138 715h51l-138 -715h-51zM82 755l16 80h49l-16 -80h-49zM231 755l16 80h49l-16 -80h-49z" />
    <glyph glyph-name="Eth" unicode="&#xd0;" horiz-adv-x="644" 
d="M21 0l65 337h-70l9 44h69l65 334h221q132 0 194 -73.5t62 -205.5q0 -87 -21.5 -163.5t-64 -138.5t-113.5 -98t-163 -36h-253zM80 45h191q105 0 176.5 54t103 139.5t31.5 195.5q0 235 -205 235h-176l-56 -288h245l-9 -44h-245z" />
    <glyph glyph-name="Ntilde" unicode="&#xd1;" horiz-adv-x="627" 
d="M11 0l138 715h57l219 -505l53 -135h2l124 640h50l-138 -715h-55l-214 494l-61 148h-2l-124 -642h-49zM484 760q-22 0 -63 21.5t-53 21.5q-11 0 -21 -11t-14 -30h-41q8 41 29 62.5t49 21.5q23 0 63.5 -21.5t52.5 -21.5q29 0 37 41h41q-7 -40 -29 -62t-51 -22z" />
    <glyph glyph-name="Ograve" unicode="&#xd2;" horiz-adv-x="689" 
d="M328 -13q-124 0 -203.5 83t-79.5 225q0 109 39.5 206.5t121.5 162.5t190 65q124 0 204.5 -84.5t80.5 -225.5q0 -81 -22.5 -157t-65 -138t-111.5 -99.5t-154 -37.5zM99 295q0 -116 61.5 -189t169.5 -73q94 0 163 57t101.5 143t32.5 186q0 116 -63 190t-170 74
q-93 0 -162 -57t-101 -143.5t-32 -187.5zM443 753h-43l-69 110h66z" />
    <glyph glyph-name="Oacute" unicode="&#xd3;" horiz-adv-x="689" 
d="M328 -13q-124 0 -203.5 83t-79.5 225q0 109 39.5 206.5t121.5 162.5t190 65q124 0 204.5 -84.5t80.5 -225.5q0 -81 -22.5 -157t-65 -138t-111.5 -99.5t-154 -37.5zM99 295q0 -116 61.5 -189t169.5 -73q94 0 163 57t101.5 143t32.5 186q0 116 -63 190t-170 74
q-93 0 -162 -57t-101 -143.5t-32 -187.5zM382 753l75 110h68l-99 -110h-44z" />
    <glyph glyph-name="Ocircumflex" unicode="&#xd4;" horiz-adv-x="689" 
d="M328 -13q-124 0 -203.5 83t-79.5 225q0 109 39.5 206.5t121.5 162.5t190 65q124 0 204.5 -84.5t80.5 -225.5q0 -81 -22.5 -157t-65 -138t-111.5 -99.5t-154 -37.5zM99 295q0 -116 61.5 -189t169.5 -73q94 0 163 57t101.5 143t32.5 186q0 116 -63 190t-170 74
q-93 0 -162 -57t-101 -143.5t-32 -187.5zM289 752l109 101h62l73 -101h-53l-54 71h-2l-79 -71h-56z" />
    <glyph glyph-name="Otilde" unicode="&#xd5;" horiz-adv-x="689" 
d="M328 -13q-124 0 -203.5 83t-79.5 225q0 109 39.5 206.5t121.5 162.5t190 65q124 0 204.5 -84.5t80.5 -225.5q0 -81 -22.5 -157t-65 -138t-111.5 -99.5t-154 -37.5zM99 295q0 -116 61.5 -189t169.5 -73q94 0 163 57t101.5 143t32.5 186q0 116 -63 190t-170 74
q-93 0 -162 -57t-101 -143.5t-32 -187.5zM474 760q-22 0 -63 21.5t-53 21.5q-11 0 -21 -11t-14 -30h-41q8 41 29 62.5t49 21.5q23 0 63.5 -21.5t52.5 -21.5q29 0 37 41h41q-7 -40 -29 -62t-51 -22z" />
    <glyph glyph-name="Odieresis" unicode="&#xd6;" horiz-adv-x="689" 
d="M328 -13q-124 0 -203.5 83t-79.5 225q0 109 39.5 206.5t121.5 162.5t190 65q124 0 204.5 -84.5t80.5 -225.5q0 -81 -22.5 -157t-65 -138t-111.5 -99.5t-154 -37.5zM99 295q0 -116 61.5 -189t169.5 -73q94 0 163 57t101.5 143t32.5 186q0 116 -63 190t-170 74
q-93 0 -162 -57t-101 -143.5t-32 -187.5zM316 755l16 80h49l-16 -80h-49zM465 755l16 80h49l-16 -80h-49z" />
    <glyph glyph-name="multiply" unicode="&#xd7;" horiz-adv-x="499" 
d="M109 476l34 28l121 -149l159 149l29 -31l-161 -151l124 -150l-34 -28l-122 148l-158 -148l-29 31l160 150z" />
    <glyph glyph-name="Oslash" unicode="&#xd8;" horiz-adv-x="689" 
d="M45 -16l-29 27l82 92q-53 78 -53 192q0 109 39.5 206.5t121.5 162.5t190 65q116 0 194 -75l67 75l29 -27l-69 -78q64 -83 64 -205q0 -81 -22.5 -157t-65 -138t-111.5 -99.5t-154 -37.5q-124 0 -204 85zM627 419q0 98 -45 166l-425 -475q64 -77 173 -77q94 0 163 57
t101.5 143t32.5 186zM99 295q0 -88 35 -152l423 474q-64 66 -163 66q-93 0 -162 -57t-101 -143.5t-32 -187.5z" />
    <glyph glyph-name="Ugrave" unicode="&#xd9;" horiz-adv-x="602" 
d="M271 -11q-121 0 -182.5 63t-36.5 193l91 470h51l-91 -470q-21 -108 22 -159.5t151 -51.5q90 0 141.5 42.5t69.5 137.5l97 501h51l-98 -506q-41 -220 -266 -220zM426 753h-43l-69 110h66z" />
    <glyph glyph-name="Uacute" unicode="&#xda;" horiz-adv-x="602" 
d="M271 -11q-121 0 -182.5 63t-36.5 193l91 470h51l-91 -470q-21 -108 22 -159.5t151 -51.5q90 0 141.5 42.5t69.5 137.5l97 501h51l-98 -506q-41 -220 -266 -220zM360 753l75 110h68l-99 -110h-44z" />
    <glyph glyph-name="Ucircumflex" unicode="&#xdb;" horiz-adv-x="602" 
d="M271 -11q-121 0 -182.5 63t-36.5 193l91 470h51l-91 -470q-21 -108 22 -159.5t151 -51.5q90 0 141.5 42.5t69.5 137.5l97 501h51l-98 -506q-41 -220 -266 -220zM270 752l109 101h62l73 -101h-53l-54 71h-2l-79 -71h-56z" />
    <glyph glyph-name="Udieresis" unicode="&#xdc;" horiz-adv-x="602" 
d="M271 -11q-121 0 -182.5 63t-36.5 193l91 470h51l-91 -470q-21 -108 22 -159.5t151 -51.5q90 0 141.5 42.5t69.5 137.5l97 501h51l-98 -506q-41 -220 -266 -220zM294 755l16 80h49l-16 -80h-49zM443 755l16 80h49l-16 -80h-49z" />
    <glyph glyph-name="Yacute" unicode="&#xdd;" horiz-adv-x="546" 
d="M197 0l61 318l-176 397h54l155 -355h2l277 355h57l-319 -403l-60 -312h-51zM330 753l75 110h68l-99 -110h-44z" />
    <glyph glyph-name="Thorn" unicode="&#xde;" horiz-adv-x="561" 
d="M200 715l-27 -138h185q101 0 149 -48t48 -124q0 -112 -71.5 -168t-191.5 -56h-195l-35 -181h-51l138 715h51zM357 531h-193l-59 -305h188q91 0 150.5 41.5t59.5 133.5q0 130 -146 130z" />
    <glyph glyph-name="germandbls" unicode="&#xdf;" horiz-adv-x="461" 
d="M206 -5q-44 0 -77 13l8 42h2q27 -13 69 -13q79 1 124.5 53t45.5 142q0 67 -34.5 107t-98.5 40h-37l8 41h32q75 0 114 41t39 108q0 52 -30 83t-78 31q-53 0 -90 -35t-49 -97l-107 -551h-48l107 556q16 77 66.5 122t123.5 45q65 0 108.5 -40.5t43.5 -112.5
q0 -65 -32.5 -108.5t-85.5 -62.5v-2q44 -18 71 -62.5t27 -100.5q0 -107 -60 -173t-162 -66z" />
    <glyph glyph-name="agrave" unicode="&#xe0;" horiz-adv-x="481" 
d="M395 -8q-38 0 -53 22.5t-9 53.5h-3q-54 -81 -166 -81q-69 0 -117 38t-48 104q0 69 41.5 111t118.5 52q33 4 77 6.5t71 5.5t44 10q40 17 40 76q0 50 -35 73.5t-92 23.5q-134 0 -159 -117h-49q14 74 69 116t140 42q42 0 75.5 -9.5t59 -32t33.5 -58.5t-1 -89l-52 -262
q-6 -30 7.5 -41t42.5 -4h3l-6 -34q-12 -6 -32 -6zM49 129q1 -47 34 -74.5t86 -27.5q79 0 125 44.5t59 109.5l20 101q-35 -14 -115 -20.5t-97 -9.5q-61 -10 -87 -40t-25 -83zM314 588h-42l-69 127h64z" />
    <glyph glyph-name="aacute" unicode="&#xe1;" horiz-adv-x="481" 
d="M395 -8q-38 0 -53 22.5t-9 53.5h-3q-54 -81 -166 -81q-69 0 -117 38t-48 104q0 69 41.5 111t118.5 52q33 4 77 6.5t71 5.5t44 10q40 17 40 76q0 50 -35 73.5t-92 23.5q-134 0 -159 -117h-49q14 74 69 116t140 42q42 0 75.5 -9.5t59 -32t33.5 -58.5t-1 -89l-52 -262
q-6 -30 7.5 -41t42.5 -4h3l-6 -34q-12 -6 -32 -6zM49 129q1 -47 34 -74.5t86 -27.5q79 0 125 44.5t59 109.5l20 101q-35 -14 -115 -20.5t-97 -9.5q-61 -10 -87 -40t-25 -83zM255 588l75 127h68l-100 -127h-43z" />
    <glyph glyph-name="acircumflex" unicode="&#xe2;" horiz-adv-x="481" 
d="M395 -8q-38 0 -53 22.5t-9 53.5h-3q-54 -81 -166 -81q-69 0 -117 38t-48 104q0 69 41.5 111t118.5 52q33 4 77 6.5t71 5.5t44 10q40 17 40 76q0 50 -35 73.5t-92 23.5q-134 0 -159 -117h-49q14 74 69 116t140 42q42 0 75.5 -9.5t59 -32t33.5 -58.5t-1 -89l-52 -262
q-6 -30 7.5 -41t42.5 -4h3l-6 -34q-12 -6 -32 -6zM49 129q1 -47 34 -74.5t86 -27.5q79 0 125 44.5t59 109.5l20 101q-35 -14 -115 -20.5t-97 -9.5q-61 -10 -87 -40t-25 -83zM167 592l96 106h62l60 -106h-53l-41 76h-2l-66 -76h-56z" />
    <glyph glyph-name="atilde" unicode="&#xe3;" horiz-adv-x="481" 
d="M395 -8q-38 0 -53 22.5t-9 53.5h-3q-54 -81 -166 -81q-69 0 -117 38t-48 104q0 69 41.5 111t118.5 52q33 4 77 6.5t71 5.5t44 10q40 17 40 76q0 50 -35 73.5t-92 23.5q-134 0 -159 -117h-49q14 74 69 116t140 42q42 0 75.5 -9.5t59 -32t33.5 -58.5t-1 -89l-52 -262
q-6 -30 7.5 -41t42.5 -4h3l-6 -34q-12 -6 -32 -6zM49 129q1 -47 34 -74.5t86 -27.5q79 0 125 44.5t59 109.5l20 101q-35 -14 -115 -20.5t-97 -9.5q-61 -10 -87 -40t-25 -83zM338 600q-22 0 -61 21.5t-52 21.5q-11 0 -21 -11t-14 -30h-41q8 41 29 62.5t49 21.5q23 0 62 -21.5
t51 -21.5q29 0 37 41h41q-7 -40 -29 -62t-51 -22z" />
    <glyph glyph-name="adieresis" unicode="&#xe4;" horiz-adv-x="481" 
d="M395 -8q-38 0 -53 22.5t-9 53.5h-3q-54 -81 -166 -81q-69 0 -117 38t-48 104q0 69 41.5 111t118.5 52q33 4 77 6.5t71 5.5t44 10q40 17 40 76q0 50 -35 73.5t-92 23.5q-134 0 -159 -117h-49q14 74 69 116t140 42q42 0 75.5 -9.5t59 -32t33.5 -58.5t-1 -89l-52 -262
q-6 -30 7.5 -41t42.5 -4h3l-6 -34q-12 -6 -32 -6zM49 129q1 -47 34 -74.5t86 -27.5q79 0 125 44.5t59 109.5l20 101q-35 -14 -115 -20.5t-97 -9.5q-61 -10 -87 -40t-25 -83zM183 635l15 80h49l-15 -80h-49zM332 635l15 80h49l-15 -80h-49z" />
    <glyph glyph-name="aring" unicode="&#xe5;" horiz-adv-x="481" 
d="M395 -8q-38 0 -53 22.5t-9 53.5h-3q-54 -81 -166 -81q-69 0 -117 38t-48 104q0 69 41.5 111t118.5 52q33 4 77 6.5t71 5.5t44 10q40 17 40 76q0 50 -35 73.5t-92 23.5q-134 0 -159 -117h-49q14 74 69 116t140 42q42 0 75.5 -9.5t59 -32t33.5 -58.5t-1 -89l-52 -262
q-6 -30 7.5 -41t42.5 -4h3l-6 -34q-12 -6 -32 -6zM49 129q1 -47 34 -74.5t86 -27.5q79 0 125 44.5t59 109.5l20 101q-35 -14 -115 -20.5t-97 -9.5q-61 -10 -87 -40t-25 -83zM286 576q-36 0 -61.5 25t-25.5 60t25.5 60t61.5 25t61.5 -25t25.5 -60t-25.5 -60t-61.5 -25z
M286 609q21 0 35 15t14 37t-14 37t-35 15t-35 -15t-14 -37t14 -37t35 -15z" />
    <glyph glyph-name="ae" unicode="&#xe6;" horiz-adv-x="811" 
d="M259 528q67 0 111.5 -27t53.5 -83q70 110 193 110q85 0 131 -51q65 -71 39 -224h-380q-3 -24 -3 -48q0 -80 37.5 -128t115.5 -48q60 0 102.5 34t62.5 91h48q-25 -81 -81.5 -124t-134.5 -43q-74 0 -121.5 38t-61.5 107q-52 -145 -210 -145q-67 0 -114.5 38.5t-47.5 103.5
q0 69 41 111t116 52q33 4 76 6.5t69 5.5t43 10q41 18 41 76q0 50 -35 73.5t-92 23.5q-130 0 -155 -117h-49q14 75 67 116.5t138 41.5zM49 129q1 -47 33.5 -74.5t83.5 -27.5q80 0 123.5 43t56.5 111l20 101q-35 -14 -111 -20t-97 -10q-59 -10 -84.5 -40t-24.5 -83zM615 487
q-79 0 -130.5 -55.5t-70.5 -138.5h329q13 85 -19 139.5t-109 54.5z" />
    <glyph glyph-name="ccedilla" unicode="&#xe7;" horiz-adv-x="461" 
d="M167 -184q-51 0 -88 22l14 26q35 -14 66 -14q60 0 60 39q0 27 -40 27q-16 0 -39 -7l-11 22l59 58q-77 9 -121.5 64t-44.5 151q0 81 27 152.5t87.5 121.5t144.5 50q74 0 120 -43t54 -117h-46q-5 49 -36.5 84t-92.5 35q-53 0 -94.5 -25.5t-65.5 -67t-36.5 -90t-12.5 -99.5
q0 -81 37 -128.5t114 -47.5q61 1 105 41t61 105h47q-21 -82 -74 -133t-128 -55l-42 -38v-2q34 2 54.5 -13t20.5 -42q0 -37 -29 -56.5t-70 -19.5z" />
    <glyph glyph-name="egrave" unicode="&#xe8;" horiz-adv-x="477" 
d="M453 253h-379q-3 -24 -3 -48q0 -80 37 -128t115 -48q60 0 102.5 34t62.5 91h48q-25 -81 -81.5 -124t-134.5 -43q-92 0 -145 57t-53 160q0 56 16 111.5t47 104t82.5 78.5t115.5 30q85 0 131 -51q65 -71 39 -224zM281 487q-79 0 -130 -55.5t-70 -138.5h328q13 85 -19 139.5
t-109 54.5zM324 588h-42l-69 127h64z" />
    <glyph glyph-name="eacute" unicode="&#xe9;" horiz-adv-x="477" 
d="M453 253h-379q-3 -24 -3 -48q0 -80 37 -128t115 -48q60 0 102.5 34t62.5 91h48q-25 -81 -81.5 -124t-134.5 -43q-92 0 -145 57t-53 160q0 56 16 111.5t47 104t82.5 78.5t115.5 30q85 0 131 -51q65 -71 39 -224zM281 487q-79 0 -130 -55.5t-70 -138.5h328q13 85 -19 139.5
t-109 54.5zM261 588l75 127h68l-100 -127h-43z" />
    <glyph glyph-name="ecircumflex" unicode="&#xea;" horiz-adv-x="477" 
d="M453 253h-379q-3 -24 -3 -48q0 -80 37 -128t115 -48q60 0 102.5 34t62.5 91h48q-25 -81 -81.5 -124t-134.5 -43q-92 0 -145 57t-53 160q0 56 16 111.5t47 104t82.5 78.5t115.5 30q85 0 131 -51q65 -71 39 -224zM281 487q-79 0 -130 -55.5t-70 -138.5h328q13 85 -19 139.5
t-109 54.5zM181 592l96 106h62l60 -106h-53l-41 76h-2l-66 -76h-56z" />
    <glyph glyph-name="edieresis" unicode="&#xeb;" horiz-adv-x="477" 
d="M453 253h-379q-3 -24 -3 -48q0 -80 37 -128t115 -48q60 0 102.5 34t62.5 91h48q-25 -81 -81.5 -124t-134.5 -43q-92 0 -145 57t-53 160q0 56 16 111.5t47 104t82.5 78.5t115.5 30q85 0 131 -51q65 -71 39 -224zM281 487q-79 0 -130 -55.5t-70 -138.5h328q13 85 -19 139.5
t-109 54.5zM199 635l15 80h49l-15 -80h-49zM348 635l15 80h49l-15 -80h-49z" />
    <glyph glyph-name="igrave" unicode="&#xec;" horiz-adv-x="153" 
d="M2 0l100 517h48l-100 -517h-48zM157 588h-42l-55 127h61z" />
    <glyph glyph-name="iacute" unicode="&#xed;" horiz-adv-x="153" 
d="M120 588l63 127h65l-86 -127h-42zM2 0l100 517h48l-100 -517h-48z" />
    <glyph glyph-name="icircumflex" unicode="&#xee;" horiz-adv-x="153" 
d="M2 0l100 517h48l-100 -517h-48zM39 592l81 106h61l45 -106h-48l-30 75h-2l-55 -75h-52z" />
    <glyph glyph-name="idieresis" unicode="&#xef;" horiz-adv-x="153" 
d="M2 0l100 517h48l-100 -517h-48zM70 635l15 80h48l-15 -80h-48zM170 635l15 80h48l-15 -80h-48z" />
    <glyph glyph-name="eth" unicode="&#xf0;" horiz-adv-x="504" 
d="M179 597l128 50q-33 35 -77 68h64q30 -22 58 -51l99 39l12 -33l-86 -34q102 -127 102 -310q0 -137 -67.5 -238t-187.5 -101q-89 0 -145.5 58.5t-56.5 157.5q0 57 16.5 113t47.5 104t83 78t116 30q85 0 133 -69h1q-32 93 -87 160l-140 -55zM71 208q0 -79 39.5 -129.5
t114.5 -50.5q66 0 114.5 43.5t70 107.5t21.5 137t-36.5 122.5t-112.5 49.5q-66 0 -116 -43.5t-72.5 -106t-22.5 -130.5z" />
    <glyph glyph-name="ntilde" unicode="&#xf1;" horiz-adv-x="471" 
d="M147 517l-18 -91h2q80 101 189 101q71 0 106 -42.5t20 -120.5l-70 -364h-48l70 363q12 60 -11 91.5t-77 31.5q-74 0 -131.5 -50t-71.5 -124l-60 -312h-48l100 517h48zM349 600q-21 0 -61 21.5t-52 21.5q-11 0 -21 -11t-14 -30h-41q8 41 29 62.5t49 21.5q23 0 62 -21.5
t51 -21.5q29 0 37 41h41q-7 -40 -29 -62t-51 -22z" />
    <glyph glyph-name="ograve" unicode="&#xf2;" horiz-adv-x="500" 
d="M224 -13q-89 0 -145.5 58.5t-56.5 157.5q0 57 15.5 113t45.5 104.5t80.5 78t114.5 29.5q89 0 144.5 -60t55.5 -160q0 -56 -15.5 -111.5t-45.5 -103t-80.5 -77t-112.5 -29.5zM71 208q0 -79 39.5 -129.5t114.5 -50.5q66 0 114 43t69 104t21 129q0 79 -38.5 131.5
t-114.5 52.5q-66 0 -114.5 -44t-69.5 -105.5t-21 -130.5zM321 588h-42l-69 127h64z" />
    <glyph glyph-name="oacute" unicode="&#xf3;" horiz-adv-x="500" 
d="M224 -13q-89 0 -145.5 58.5t-56.5 157.5q0 57 15.5 113t45.5 104.5t80.5 78t114.5 29.5q89 0 144.5 -60t55.5 -160q0 -56 -15.5 -111.5t-45.5 -103t-80.5 -77t-112.5 -29.5zM71 208q0 -79 39.5 -129.5t114.5 -50.5q66 0 114 43t69 104t21 129q0 79 -38.5 131.5
t-114.5 52.5q-66 0 -114.5 -44t-69.5 -105.5t-21 -130.5zM269 588l75 127h68l-100 -127h-43z" />
    <glyph glyph-name="ocircumflex" unicode="&#xf4;" horiz-adv-x="500" 
d="M224 -13q-89 0 -145.5 58.5t-56.5 157.5q0 57 15.5 113t45.5 104.5t80.5 78t114.5 29.5q89 0 144.5 -60t55.5 -160q0 -56 -15.5 -111.5t-45.5 -103t-80.5 -77t-112.5 -29.5zM71 208q0 -79 39.5 -129.5t114.5 -50.5q66 0 114 43t69 104t21 129q0 79 -38.5 131.5
t-114.5 52.5q-66 0 -114.5 -44t-69.5 -105.5t-21 -130.5zM188 592l96 106h62l60 -106h-53l-41 76h-2l-66 -76h-56z" />
    <glyph glyph-name="otilde" unicode="&#xf5;" horiz-adv-x="500" 
d="M224 -13q-89 0 -145.5 58.5t-56.5 157.5q0 57 15.5 113t45.5 104.5t80.5 78t114.5 29.5q89 0 144.5 -60t55.5 -160q0 -56 -15.5 -111.5t-45.5 -103t-80.5 -77t-112.5 -29.5zM71 208q0 -79 39.5 -129.5t114.5 -50.5q66 0 114 43t69 104t21 129q0 79 -38.5 131.5
t-114.5 52.5q-66 0 -114.5 -44t-69.5 -105.5t-21 -130.5zM353 600q-21 0 -61 21.5t-52 21.5q-11 0 -21 -11t-14 -30h-41q8 41 29 62.5t49 21.5q23 0 62 -21.5t51 -21.5q29 0 37 41h41q-7 -40 -29 -62t-51 -22z" />
    <glyph glyph-name="odieresis" unicode="&#xf6;" horiz-adv-x="500" 
d="M224 -13q-89 0 -145.5 58.5t-56.5 157.5q0 57 15.5 113t45.5 104.5t80.5 78t114.5 29.5q89 0 144.5 -60t55.5 -160q0 -56 -15.5 -111.5t-45.5 -103t-80.5 -77t-112.5 -29.5zM71 208q0 -79 39.5 -129.5t114.5 -50.5q66 0 114 43t69 104t21 129q0 79 -38.5 131.5
t-114.5 52.5q-66 0 -114.5 -44t-69.5 -105.5t-21 -130.5zM202 635l15 80h49l-15 -80h-49zM351 635l15 80h49l-15 -80h-49z" />
    <glyph glyph-name="divide" unicode="&#xf7;" horiz-adv-x="502" 
d="M63 304l9 45h392l-9 -45h-392zM193 124l15 75h60l-15 -75h-60zM258 454l15 75h60l-15 -75h-60z" />
    <glyph glyph-name="oslash" unicode="&#xf8;" horiz-adv-x="500" 
d="M224 -13q-87 0 -143 56l-51 -58l-26 24l55 62q-37 54 -37 132q0 57 15.5 113t45.5 104.5t80.5 78t114.5 29.5q80 0 136 -54l50 56l26 -24l-52 -60q40 -59 40 -138q0 -56 -15.5 -111.5t-45.5 -103t-80.5 -77t-112.5 -29.5zM429 304q0 58 -23 106l-295 -333q40 -49 114 -49
q66 0 114 43t69 104t21 129zM71 208q0 -55 20 -100l294 333q-39 47 -109 47q-66 0 -114.5 -44t-69.5 -105.5t-21 -130.5z" />
    <glyph glyph-name="ugrave" unicode="&#xf9;" horiz-adv-x="465" 
d="M318 0l17 87h-2q-80 -99 -184 -99q-71 0 -105 44t-19 123l70 362h48l-70 -361q-24 -127 86 -127q74 0 130 53.5t71 133.5l58 301h48l-100 -517h-48zM317 588h-42l-69 127h64z" />
    <glyph glyph-name="uacute" unicode="&#xfa;" horiz-adv-x="465" 
d="M318 0l17 87h-2q-80 -99 -184 -99q-71 0 -105 44t-19 123l70 362h48l-70 -361q-24 -127 86 -127q74 0 130 53.5t71 133.5l58 301h48l-100 -517h-48zM254 588l75 127h68l-100 -127h-43z" />
    <glyph glyph-name="ucircumflex" unicode="&#xfb;" horiz-adv-x="465" 
d="M318 0l17 87h-2q-80 -99 -184 -99q-71 0 -105 44t-19 123l70 362h48l-70 -361q-24 -127 86 -127q74 0 130 53.5t71 133.5l58 301h48l-100 -517h-48zM180 592l96 106h62l60 -106h-53l-41 76h-2l-66 -76h-56z" />
    <glyph glyph-name="udieresis" unicode="&#xfc;" horiz-adv-x="465" 
d="M318 0l17 87h-2q-80 -99 -184 -99q-71 0 -105 44t-19 123l70 362h48l-70 -361q-24 -127 86 -127q74 0 130 53.5t71 133.5l58 301h48l-100 -517h-48zM193 635l15 80h49l-15 -80h-49zM342 635l15 80h49l-15 -80h-49z" />
    <glyph glyph-name="yacute" unicode="&#xfd;" horiz-adv-x="448" 
d="M43 -171q-27 0 -47 6l9 44h2q20 -5 39 -5q58 0 94 71l25 48l-113 524h49l71 -340l23 -132h2q35 76 62 130l171 342h51l-302 -592q-49 -96 -136 -96zM246 588l75 127h68l-100 -127h-43z" />
    <glyph glyph-name="thorn" unicode="&#xfe;" horiz-adv-x="508" 
d="M-34 -166l171 881h48l-56 -287h2q67 100 177 100q83 0 132.5 -57t48.5 -152q-1 -85 -27 -157.5t-86 -122.5t-143 -50q-57 0 -102.5 29t-63.5 80h-2l-51 -264h-48zM86 198q-1 -80 38 -124.5t112 -44.5q68 0 116 46.5t67.5 109.5t19.5 133q0 72 -35 120.5t-105 48.5
q-66 0 -116 -46.5t-73 -110.5t-24 -132z" />
    <glyph glyph-name="ydieresis" unicode="&#xff;" horiz-adv-x="448" 
d="M43 -171q-27 0 -47 6l9 44h2q20 -5 39 -5q58 0 94 71l25 48l-113 524h49l71 -340l23 -132h2q35 76 62 130l171 342h51l-302 -592q-49 -96 -136 -96zM178 635l15 80h49l-15 -80h-49zM327 635l15 80h49l-15 -80h-49z" />
    <glyph glyph-name="Amacron" unicode="&#x100;" horiz-adv-x="602" 
d="M492 0l-46 230h-315l-124 -230h-52l385 715h59l145 -715h-52zM306 556l-152 -283h283l-56 284l-19 107h-2q-28 -60 -54 -108zM257 763l9 48h233l-9 -48h-233z" />
    <glyph glyph-name="amacron" unicode="&#x101;" horiz-adv-x="481" 
d="M395 -8q-38 0 -53 22.5t-9 53.5h-3q-54 -81 -166 -81q-69 0 -117 38t-48 104q0 69 41.5 111t118.5 52q33 4 77 6.5t71 5.5t44 10q40 17 40 76q0 50 -35 73.5t-92 23.5q-134 0 -159 -117h-49q14 74 69 116t140 42q42 0 75.5 -9.5t59 -32t33.5 -58.5t-1 -89l-52 -262
q-6 -30 7.5 -41t42.5 -4h3l-6 -34q-12 -6 -32 -6zM49 129q1 -47 34 -74.5t86 -27.5q79 0 125 44.5t59 109.5l20 101q-35 -14 -115 -20.5t-97 -9.5q-61 -10 -87 -40t-25 -83zM167 631l9 48h228l-9 -48h-228z" />
    <glyph glyph-name="Abreve" unicode="&#x102;" horiz-adv-x="602" 
d="M492 0l-46 230h-315l-124 -230h-52l385 715h59l145 -715h-52zM306 556l-152 -283h283l-56 284l-19 107h-2q-28 -60 -54 -108zM378 753q-49 0 -78 29t-29 73h44q5 -56 65 -56q58 0 77 56h46q-9 -45 -42.5 -73.5t-82.5 -28.5z" />
    <glyph glyph-name="abreve" unicode="&#x103;" horiz-adv-x="481" 
d="M395 -8q-38 0 -53 22.5t-9 53.5h-3q-54 -81 -166 -81q-69 0 -117 38t-48 104q0 69 41.5 111t118.5 52q33 4 77 6.5t71 5.5t44 10q40 17 40 76q0 50 -35 73.5t-92 23.5q-134 0 -159 -117h-49q14 74 69 116t140 42q42 0 75.5 -9.5t59 -32t33.5 -58.5t-1 -89l-52 -262
q-6 -30 7.5 -41t42.5 -4h3l-6 -34q-12 -6 -32 -6zM49 129q1 -47 34 -74.5t86 -27.5q79 0 125 44.5t59 109.5l20 101q-35 -14 -115 -20.5t-97 -9.5q-61 -10 -87 -40t-25 -83zM290 589q-49 0 -78 29.5t-29 76.5h44q5 -60 65 -60q59 0 77 60h46q-9 -48 -42.5 -77t-82.5 -29z
" />
    <glyph glyph-name="Aogonek" unicode="&#x104;" horiz-adv-x="602" 
d="M532 -126h3l-7 -37q-24 -12 -52 -12q-81 0 -81 66q0 64 95 118l-44 221h-315l-124 -230h-52l385 715h59l144 -711q-98 -61 -98 -108q0 -32 38 -32q25 0 49 10zM306 556l-152 -283h283l-56 284l-19 107h-2q-28 -60 -54 -108z" />
    <glyph glyph-name="aogonek" unicode="&#x105;" horiz-adv-x="481" 
d="M406 -126h3l-7 -37q-24 -12 -52 -12q-81 0 -81 66q0 63 90 109q-35 17 -26 68h-3q-54 -81 -166 -81q-69 0 -117 38t-48 104q0 69 41.5 111t118.5 52q33 4 77 6.5t71 5.5t44 10q40 17 40 76q0 50 -35 73.5t-92 23.5q-134 0 -159 -117h-49q14 74 69 116t140 42
q42 0 75.5 -9.5t59 -32t33.5 -58.5t-1 -89l-52 -262q-6 -30 7.5 -41t42.5 -4h3l-6 -34q-48 -19 -78 -47.5t-30 -54.5q0 -32 38 -32q25 0 49 10zM49 129q1 -47 34 -74.5t86 -27.5q79 0 125 44.5t59 109.5l20 101q-35 -14 -115 -20.5t-97 -9.5q-61 -10 -87 -40t-25 -83z" />
    <glyph glyph-name="Cacute" unicode="&#x106;" horiz-adv-x="641" 
d="M317 -13q-129 0 -200 81t-71 217q0 63 13.5 125t42.5 120t70.5 102t101.5 70.5t131 26.5q97 0 161 -53.5t77 -156.5h-50q-11 79 -60.5 122.5t-130.5 43.5q-77 0 -137.5 -36t-95 -95.5t-52 -127.5t-17.5 -140q0 -117 54 -185.5t165 -68.5q96 0 162 61.5t91 165.5h49
q-30 -127 -107.5 -199.5t-196.5 -72.5zM385 753l75 110h68l-99 -110h-44z" />
    <glyph glyph-name="cacute" unicode="&#x107;" horiz-adv-x="461" 
d="M221 -13q-91 0 -145 55.5t-54 161.5q0 81 27 152.5t87.5 121.5t144.5 50q74 0 120 -43t54 -117h-46q-5 49 -36.5 84t-92.5 35q-53 0 -94.5 -25.5t-65.5 -67t-36.5 -90t-12.5 -99.5q0 -81 37 -128.5t114 -47.5q61 1 105 41t61 105h47q-22 -85 -78 -136.5t-136 -51.5z
M259 588l75 127h68l-100 -127h-43z" />
    <glyph glyph-name="Ccircumflex" unicode="&#x108;" horiz-adv-x="641" 
d="M317 -13q-129 0 -200 81t-71 217q0 63 13.5 125t42.5 120t70.5 102t101.5 70.5t131 26.5q97 0 161 -53.5t77 -156.5h-50q-11 79 -60.5 122.5t-130.5 43.5q-77 0 -137.5 -36t-95 -95.5t-52 -127.5t-17.5 -140q0 -117 54 -185.5t165 -68.5q96 0 162 61.5t91 165.5h49
q-30 -127 -107.5 -199.5t-196.5 -72.5zM292 752l109 101h62l73 -101h-53l-54 71h-2l-79 -71h-56z" />
    <glyph glyph-name="ccircumflex" unicode="&#x109;" horiz-adv-x="461" 
d="M221 -13q-91 0 -145 55.5t-54 161.5q0 81 27 152.5t87.5 121.5t144.5 50q74 0 120 -43t54 -117h-46q-5 49 -36.5 84t-92.5 35q-53 0 -94.5 -25.5t-65.5 -67t-36.5 -90t-12.5 -99.5q0 -81 37 -128.5t114 -47.5q61 1 105 41t61 105h47q-22 -85 -78 -136.5t-136 -51.5z
M184 592l96 106h62l60 -106h-53l-41 76h-2l-66 -76h-56z" />
    <glyph glyph-name="Cdotaccent" unicode="&#x10a;" horiz-adv-x="641" 
d="M317 -13q-129 0 -200 81t-71 217q0 63 13.5 125t42.5 120t70.5 102t101.5 70.5t131 26.5q97 0 161 -53.5t77 -156.5h-50q-11 79 -60.5 122.5t-130.5 43.5q-77 0 -137.5 -36t-95 -95.5t-52 -127.5t-17.5 -140q0 -117 54 -185.5t165 -68.5q96 0 162 61.5t91 165.5h49
q-30 -127 -107.5 -199.5t-196.5 -72.5zM391 755l16 80h48l-16 -80h-48z" />
    <glyph glyph-name="cdotaccent" unicode="&#x10b;" horiz-adv-x="461" 
d="M221 -13q-91 0 -145 55.5t-54 161.5q0 81 27 152.5t87.5 121.5t144.5 50q74 0 120 -43t54 -117h-46q-5 49 -36.5 84t-92.5 35q-53 0 -94.5 -25.5t-65.5 -67t-36.5 -90t-12.5 -99.5q0 -81 37 -128.5t114 -47.5q61 1 105 41t61 105h47q-22 -85 -78 -136.5t-136 -51.5z
M260 635l15 80h48l-15 -80h-48z" />
    <glyph glyph-name="Ccaron" unicode="&#x10c;" horiz-adv-x="641" 
d="M317 -13q-129 0 -200 81t-71 217q0 63 13.5 125t42.5 120t70.5 102t101.5 70.5t131 26.5q97 0 161 -53.5t77 -156.5h-50q-11 79 -60.5 122.5t-130.5 43.5q-77 0 -137.5 -36t-95 -95.5t-52 -127.5t-17.5 -140q0 -117 54 -185.5t165 -68.5q96 0 162 61.5t91 165.5h49
q-30 -127 -107.5 -199.5t-196.5 -72.5zM553 852l-109 -101h-62l-73 101h53l54 -71h2l79 71h56z" />
    <glyph glyph-name="ccaron" unicode="&#x10d;" horiz-adv-x="461" 
d="M221 -13q-91 0 -145 55.5t-54 161.5q0 81 27 152.5t87.5 121.5t144.5 50q74 0 120 -43t54 -117h-46q-5 49 -36.5 84t-92.5 35q-53 0 -94.5 -25.5t-65.5 -67t-36.5 -90t-12.5 -99.5q0 -81 37 -128.5t114 -47.5q61 1 105 41t61 105h47q-22 -85 -78 -136.5t-136 -51.5z
M413 698l-96 -106h-62l-60 106h53l41 -76h2l66 76h56z" />
    <glyph glyph-name="Dcaron" unicode="&#x10e;" horiz-adv-x="634" 
d="M11 0l138 715h221q132 0 194 -73.5t62 -205.5q0 -87 -21.5 -163.5t-64 -138.5t-113.5 -98t-163 -36h-253zM70 45h191q105 0 176.5 54t103 139.5t31.5 195.5q0 235 -205 235h-176zM509 852l-109 -101h-62l-73 101h53l54 -71h2l79 71h56z" />
    <glyph glyph-name="dcaron" unicode="&#x10f;" horiz-adv-x="508" 
d="M548 715l-139 -715h-48l16 83h-2q-63 -96 -172 -96q-84 0 -134 56.5t-49 154.5q1 130 73 230t189 100q57 0 98.5 -29.5t59.5 -81.5h2l58 298h48zM423 319q1 75 -37 121.5t-108 46.5q-64 0 -113 -44.5t-72 -109t-23 -134.5q0 -76 34 -124t105 -48q66 0 116.5 47t73.5 112
t24 133zM552 560l6 29q28 11 35 47l1 5h-26l14 74h59l-15 -78q-13 -68 -74 -77z" />
    <glyph glyph-name="Dcroat" unicode="&#x110;" horiz-adv-x="644" 
d="M21 0l65 337h-70l9 44h69l65 334h221q132 0 194 -73.5t62 -205.5q0 -87 -21.5 -163.5t-64 -138.5t-113.5 -98t-163 -36h-253zM80 45h191q105 0 176.5 54t103 139.5t31.5 195.5q0 235 -205 235h-176l-56 -288h245l-9 -44h-245z" />
    <glyph glyph-name="dcroat" unicode="&#x111;" horiz-adv-x="508" 
d="M548 715l-17 -86h56l-8 -40h-56l-114 -589h-48l16 83h-2q-63 -96 -172 -96q-84 0 -134 56.5t-49 154.5q1 130 73 230t189 100q57 0 98.5 -29.5t59.5 -81.5h2l33 172h-124l8 40h124l17 86h48zM423 319q1 75 -37 121.5t-108 46.5q-64 0 -113 -44.5t-72 -109t-23 -134.5
q0 -76 34 -124t105 -48q66 0 116.5 47t73.5 112t24 133z" />
    <glyph glyph-name="Emacron" unicode="&#x112;" horiz-adv-x="559" 
d="M11 0l138 715h442l-8 -45h-391l-54 -279h369l-9 -44h-369l-58 -300h415l-9 -47h-466zM269 763l9 48h233l-9 -48h-233z" />
    <glyph glyph-name="emacron" unicode="&#x113;" horiz-adv-x="477" 
d="M453 253h-379q-3 -24 -3 -48q0 -80 37 -128t115 -48q60 0 102.5 34t62.5 91h48q-25 -81 -81.5 -124t-134.5 -43q-92 0 -145 57t-53 160q0 56 16 111.5t47 104t82.5 78.5t115.5 30q85 0 131 -51q65 -71 39 -224zM281 487q-79 0 -130 -55.5t-70 -138.5h328q13 85 -19 139.5
t-109 54.5zM176 631l9 48h228l-9 -48h-228z" />
    <glyph glyph-name="Ebreve" unicode="&#x114;" horiz-adv-x="559" 
d="M11 0l138 715h442l-8 -45h-391l-54 -279h369l-9 -44h-369l-58 -300h415l-9 -47h-466zM386 753q-49 0 -78 29t-29 73h44q5 -56 65 -56q58 0 77 56h46q-9 -45 -42.5 -73.5t-82.5 -28.5z" />
    <glyph glyph-name="ebreve" unicode="&#x115;" horiz-adv-x="477" 
d="M453 253h-379q-3 -24 -3 -48q0 -80 37 -128t115 -48q60 0 102.5 34t62.5 91h48q-25 -81 -81.5 -124t-134.5 -43q-92 0 -145 57t-53 160q0 56 16 111.5t47 104t82.5 78.5t115.5 30q85 0 131 -51q65 -71 39 -224zM281 487q-79 0 -130 -55.5t-70 -138.5h328q13 85 -19 139.5
t-109 54.5zM290 589q-49 0 -78 29.5t-29 76.5h44q5 -60 65 -60q59 0 77 60h46q-9 -48 -42.5 -77t-82.5 -29z" />
    <glyph glyph-name="Edotaccent" unicode="&#x116;" horiz-adv-x="559" 
d="M11 0l138 715h442l-8 -45h-391l-54 -279h369l-9 -44h-369l-58 -300h415l-9 -47h-466zM357 755l16 80h48l-16 -80h-48z" />
    <glyph glyph-name="edotaccent" unicode="&#x117;" horiz-adv-x="477" 
d="M453 253h-379q-3 -24 -3 -48q0 -80 37 -128t115 -48q60 0 102.5 34t62.5 91h48q-25 -81 -81.5 -124t-134.5 -43q-92 0 -145 57t-53 160q0 56 16 111.5t47 104t82.5 78.5t115.5 30q85 0 131 -51q65 -71 39 -224zM281 487q-79 0 -130 -55.5t-70 -138.5h328q13 85 -19 139.5
t-109 54.5zM267 635l15 80h48l-15 -80h-48z" />
    <glyph glyph-name="Eogonek" unicode="&#x118;" horiz-adv-x="559" 
d="M11 0l138 715h442l-8 -45h-391l-54 -279h369l-9 -44h-369l-58 -300h415l-9 -47h-62q-98 -54 -98 -104q0 -32 38 -32q25 0 49 10h3l-7 -37q-24 -12 -52 -12q-81 0 -81 66q0 31 24.5 60.5t60.5 48.5h-341z" />
    <glyph glyph-name="eogonek" unicode="&#x119;" horiz-adv-x="477" 
d="M304 -126h3l-7 -37q-24 -12 -52 -12q-81 0 -81 66q0 54 74 97q-9 -1 -21 -1q-92 0 -145 57t-53 160q0 56 16 111.5t47 104t82.5 78.5t115.5 30q85 0 131 -51q65 -71 39 -224h-379q-3 -24 -3 -48q0 -80 37 -128t115 -48q60 0 102.5 34t62.5 91h48q-25 -85 -99 -136
q-83 -58 -101.5 -79.5t-18.5 -42.5q0 -32 38 -32q25 0 49 10zM281 487q-79 0 -130 -55.5t-70 -138.5h328q13 85 -19 139.5t-109 54.5z" />
    <glyph glyph-name="Ecaron" unicode="&#x11a;" horiz-adv-x="559" 
d="M11 0l138 715h442l-8 -45h-391l-54 -279h369l-9 -44h-369l-58 -300h415l-9 -47h-466zM520 852l-109 -101h-62l-73 101h53l54 -71h2l79 71h56z" />
    <glyph glyph-name="ecaron" unicode="&#x11b;" horiz-adv-x="477" 
d="M453 253h-379q-3 -24 -3 -48q0 -80 37 -128t115 -48q60 0 102.5 34t62.5 91h48q-25 -81 -81.5 -124t-134.5 -43q-92 0 -145 57t-53 160q0 56 16 111.5t47 104t82.5 78.5t115.5 30q85 0 131 -51q65 -71 39 -224zM281 487q-79 0 -130 -55.5t-70 -138.5h328q13 85 -19 139.5
t-109 54.5zM420 698l-96 -106h-62l-60 106h53l41 -76h2l66 76h56z" />
    <glyph glyph-name="Gcircumflex" unicode="&#x11c;" horiz-adv-x="687" 
d="M549 0l15 113h-3q-88 -126 -238 -126q-126 0 -199.5 77t-73.5 221q0 115 41.5 214.5t127.5 164.5t201 65q101 0 164.5 -55t72.5 -161h-49q-4 80 -57 126t-133 46q-100 0 -173 -58t-107 -146.5t-34 -192.5q0 -256 223 -256q113 0 178.5 68.5t85.5 173.5l8 41h-236l8 45
h286l-69 -360h-39zM303 752l109 101h62l73 -101h-53l-54 71h-2l-79 -71h-56z" />
    <glyph glyph-name="gcircumflex" unicode="&#x11d;" horiz-adv-x="508" 
d="M195 -187q-71 0 -124.5 31t-61.5 99h49q5 -45 45.5 -67t92.5 -22q136 0 166 149l17 86h-2q-66 -84 -170 -84q-88 0 -137.5 55.5t-48.5 151.5q1 76 30 147t90 120t140 49q116 0 160 -111h2l19 100h48l-100 -514q-17 -89 -64 -136q-54 -54 -151 -54zM71 212
q0 -77 35.5 -121.5t106.5 -44.5q66 0 115 41.5t71.5 101.5t22.5 127q0 73 -36 122t-109 49q-95 0 -150.5 -85t-55.5 -190zM196 592l96 106h62l60 -106h-53l-41 76h-2l-66 -76h-56z" />
    <glyph glyph-name="Gbreve" unicode="&#x11e;" horiz-adv-x="687" 
d="M549 0l15 113h-3q-88 -126 -238 -126q-126 0 -199.5 77t-73.5 221q0 115 41.5 214.5t127.5 164.5t201 65q101 0 164.5 -55t72.5 -161h-49q-4 80 -57 126t-133 46q-100 0 -173 -58t-107 -146.5t-34 -192.5q0 -256 223 -256q113 0 178.5 68.5t85.5 173.5l8 41h-236l8 45
h286l-69 -360h-39zM434 753q-49 0 -78 29t-29 73h44q5 -56 65 -56q58 0 77 56h46q-9 -45 -42.5 -73.5t-82.5 -28.5z" />
    <glyph glyph-name="gbreve" unicode="&#x11f;" horiz-adv-x="508" 
d="M195 -187q-71 0 -124.5 31t-61.5 99h49q5 -45 45.5 -67t92.5 -22q136 0 166 149l17 86h-2q-66 -84 -170 -84q-88 0 -137.5 55.5t-48.5 151.5q1 76 30 147t90 120t140 49q116 0 160 -111h2l19 100h48l-100 -514q-17 -89 -64 -136q-54 -54 -151 -54zM71 212
q0 -77 35.5 -121.5t106.5 -44.5q66 0 115 41.5t71.5 101.5t22.5 127q0 73 -36 122t-109 49q-95 0 -150.5 -85t-55.5 -190zM312 589q-49 0 -78 29.5t-29 76.5h44q5 -60 65 -60q59 0 77 60h46q-9 -48 -42.5 -77t-82.5 -29z" />
    <glyph glyph-name="Gdotaccent" unicode="&#x120;" horiz-adv-x="687" 
d="M549 0l15 113h-3q-88 -126 -238 -126q-126 0 -199.5 77t-73.5 221q0 115 41.5 214.5t127.5 164.5t201 65q101 0 164.5 -55t72.5 -161h-49q-4 80 -57 126t-133 46q-100 0 -173 -58t-107 -146.5t-34 -192.5q0 -256 223 -256q113 0 178.5 68.5t85.5 173.5l8 41h-236l8 45
h286l-69 -360h-39zM399 755l16 80h48l-16 -80h-48z" />
    <glyph glyph-name="gdotaccent" unicode="&#x121;" horiz-adv-x="508" 
d="M195 -187q-71 0 -124.5 31t-61.5 99h49q5 -45 45.5 -67t92.5 -22q136 0 166 149l17 86h-2q-66 -84 -170 -84q-88 0 -137.5 55.5t-48.5 151.5q1 76 30 147t90 120t140 49q116 0 160 -111h2l19 100h48l-100 -514q-17 -89 -64 -136q-54 -54 -151 -54zM71 212
q0 -77 35.5 -121.5t106.5 -44.5q66 0 115 41.5t71.5 101.5t22.5 127q0 73 -36 122t-109 49q-95 0 -150.5 -85t-55.5 -190zM282 635l15 80h48l-15 -80h-48z" />
    <glyph glyph-name="Gcommaaccent" unicode="&#x122;" horiz-adv-x="691" 
d="M549 0l15 113h-3q-88 -126 -238 -126q-126 0 -199.5 77t-73.5 221q0 115 41.5 214.5t127.5 164.5t201 65q101 0 164.5 -55t72.5 -161h-49q-4 80 -57 126t-133 46q-100 0 -173 -58t-107 -146.5t-34 -192.5q0 -256 223 -256q113 0 178.5 68.5t85.5 173.5l8 41h-236l8 45
h286l-69 -360h-39zM253 -204l6 29q29 11 37 51l1 5h-26l14 71h59l-14 -74q-14 -73 -77 -82z" />
    <glyph glyph-name="gcommaaccent" unicode="&#x123;" horiz-adv-x="508" 
d="M195 -187q-71 0 -124.5 31t-61.5 99h49q5 -45 45.5 -67t92.5 -22q136 0 166 149l17 86h-2q-66 -84 -170 -84q-88 0 -137.5 55.5t-48.5 151.5q1 76 30 147t90 120t140 49q116 0 160 -111h2l19 100h48l-100 -514q-17 -89 -64 -136q-54 -54 -151 -54zM71 212
q0 -77 35.5 -121.5t106.5 -44.5q66 0 115 41.5t71.5 101.5t22.5 127q0 73 -36 122t-109 49q-95 0 -150.5 -85t-55.5 -190zM369 754l-6 -29q-29 -11 -37 -51l-1 -5h26l-14 -71h-59l14 74q14 73 77 82z" />
    <glyph glyph-name="Hcircumflex" unicode="&#x124;" horiz-adv-x="618" 
d="M11 0l138 715h51l-60 -313h393l60 313h52l-138 -715h-52l69 358h-393l-69 -358h-51zM280 752l109 101h62l73 -101h-53l-54 71h-2l-79 -71h-56z" />
    <glyph glyph-name="hcircumflex" unicode="&#x125;" horiz-adv-x="471" 
d="M185 715l-56 -289h2q80 101 189 101q71 0 106 -42.5t20 -120.5l-70 -364h-48l70 363q12 60 -11 91.5t-77 31.5q-74 0 -131.5 -50t-71.5 -124l-60 -312h-48l138 715h48zM199 752l109 101h62l73 -101h-53l-54 71h-2l-79 -71h-56z" />
    <glyph glyph-name="Hbar" unicode="&#x126;" horiz-adv-x="618" 
d="M11 0l101 524h-69l9 43h68l29 148h51l-29 -148h393l29 148h52l-29 -148h70l-9 -43h-69l-101 -524h-52l69 358h-393l-69 -358h-51zM140 402h393l23 122h-393z" />
    <glyph glyph-name="hbar" unicode="&#x127;" horiz-adv-x="471" 
d="M190 715l-17 -86h126l-8 -40h-126l-31 -163h2q80 101 189 101q71 0 106 -42.5t20 -120.5l-70 -364h-48l70 363q12 60 -11 91.5t-77 31.5q-74 0 -131.5 -50t-71.5 -124l-60 -312h-48l113 589h-55l8 40h55l17 86h48z" />
    <glyph glyph-name="Itilde" unicode="&#x128;" horiz-adv-x="181" 
d="M15 0l138 715h51l-138 -715h-51zM250 760q-22 0 -63 21.5t-53 21.5q-11 0 -21 -11t-14 -30h-41q8 41 29 62.5t49 21.5q23 0 63.5 -21.5t52.5 -21.5q29 0 37 41h41q-7 -40 -29 -62t-51 -22z" />
    <glyph glyph-name="itilde" unicode="&#x129;" horiz-adv-x="153" 
d="M2 0l100 517h48l-100 -517h-48zM193 602q-21 0 -50 19.5t-37 19.5q-21 0 -28 -39h-41q12 82 70 82q21 0 50 -19.5t38 -19.5q21 0 28 39h41q-5 -40 -24.5 -61t-46.5 -21z" />
    <glyph glyph-name="Imacron" unicode="&#x12a;" horiz-adv-x="181" 
d="M15 0l138 715h51l-138 -715h-51zM106 765l9 43h159l-9 -43h-159z" />
    <glyph glyph-name="imacron" unicode="&#x12b;" horiz-adv-x="153" 
d="M2 0l100 517h48l-100 -517h-48zM63 631l9 48h159l-9 -48h-159z" />
    <glyph glyph-name="Ibreve" unicode="&#x12c;" horiz-adv-x="181" 
d="M15 0l138 715h51l-138 -715h-51zM188 753q-49 0 -78 29t-29 73h44q5 -56 65 -56q58 0 77 56h46q-9 -45 -42.5 -73.5t-82.5 -28.5z" />
    <glyph glyph-name="ibreve" unicode="&#x12d;" horiz-adv-x="153" 
d="M2 0l100 517h48l-100 -517h-48zM147 589q-49 0 -78 29.5t-29 76.5h44q5 -60 65 -60q59 0 77 60h46q-9 -48 -42.5 -77t-82.5 -29z" />
    <glyph glyph-name="Iogonek" unicode="&#x12e;" horiz-adv-x="181" 
d="M57 -126h3l-7 -37q-24 -12 -52 -12q-81 0 -81 66q0 32 27.5 63t68.5 52l137 709h51l-138 -714q-96 -54 -96 -105q0 -32 38 -32q25 0 49 10z" />
    <glyph glyph-name="iogonek" unicode="&#x12f;" horiz-adv-x="153" 
d="M43 -126h3l-7 -37q-24 -12 -52 -12q-81 0 -81 66q0 33 27.5 63t69.5 52l99 511h48l-100 -517q-47 -30 -70.5 -54.5t-23.5 -49.5q0 -32 38 -32q25 0 49 10zM125 636l15 79h48l-15 -79h-48z" />
    <glyph glyph-name="Idotaccent" unicode="&#x130;" horiz-adv-x="181" 
d="M15 0l138 715h51l-138 -715h-51zM160 755l16 80h48l-16 -80h-48z" />
    <glyph glyph-name="dotlessi" unicode="&#x131;" horiz-adv-x="153" 
d="M2 0l100 517h48l-100 -517h-48z" />
    <glyph glyph-name="IJ" unicode="&#x132;" horiz-adv-x="621" 
d="M15 0l138 715h51l-138 -715h-51zM344 -13q-91 0 -138.5 53t-27.5 156l5 26h50l-4 -21q-31 -168 117 -168q120 0 145 125l108 557h52l-110 -567q-14 -73 -62.5 -117t-134.5 -44z" />
    <glyph glyph-name="ij" unicode="&#x133;" horiz-adv-x="305" 
d="M2 0l100 517h48l-100 -517h-48zM125 636l15 79h48l-15 -79h-48zM56 -166l8 42h15q51 0 62 55l114 586h48l-114 -588q-19 -95 -110 -95h-23zM278 636l15 79h48l-15 -79h-48z" />
    <glyph glyph-name="Jcircumflex" unicode="&#x134;" horiz-adv-x="449" 
d="M172 -13q-91 0 -138.5 53t-27.5 156l5 26h50l-4 -21q-31 -168 117 -168q120 0 145 125l108 557h52l-110 -567q-14 -73 -62.5 -117t-134.5 -44zM330 752l109 101h62l73 -101h-53l-54 71h-2l-79 -71h-56z" />
    <glyph glyph-name="jcircumflex" unicode="&#x135;" horiz-adv-x="153" 
d="M-97 -166l8 42h10q56 0 69 65l112 576h48l-112 -577q-11 -56 -41 -81t-81 -25h-13zM38 592l81 106h61l45 -106h-48l-30 75h-2l-55 -75h-52z" />
    <glyph glyph-name="Kcommaaccent" unicode="&#x136;" horiz-adv-x="583" 
d="M480 0l-212 389l-158 -137l-48 -252h-51l138 715h51l-77 -398l450 398h69l-336 -292l230 -423h-56zM185 -204l6 29q29 11 37 51l1 5h-26l14 71h59l-14 -74q-14 -73 -77 -82z" />
    <glyph glyph-name="kcommaaccent" unicode="&#x137;" horiz-adv-x="445" 
d="M462 517l-211 -185l151 -332h-53l-136 298l-131 -115l-35 -183h-48l138 715h48l-91 -470l304 272h64zM132 -204l6 29q29 11 37 51l1 5h-26l14 71h59l-14 -74q-14 -73 -77 -82z" />
    <glyph glyph-name="Lacute" unicode="&#x139;" horiz-adv-x="501" 
d="M11 0l138 715h51l-129 -668h366l-9 -47h-417zM158 753l75 110h68l-99 -110h-44z" />
    <glyph glyph-name="lacute" unicode="&#x13a;" horiz-adv-x="150" 
d="M2 0l138 715h48l-138 -715h-48zM150 753l75 110h68l-99 -110h-44z" />
    <glyph glyph-name="Lcommaaccent" unicode="&#x13b;" horiz-adv-x="516" 
d="M11 0l138 715h51l-129 -668h366l-9 -47h-417zM154 -204l6 29q29 11 37 51l1 5h-26l14 71h59l-14 -74q-14 -73 -77 -82z" />
    <glyph glyph-name="lcommaaccent" unicode="&#x13c;" horiz-adv-x="150" 
d="M2 0l138 715h48l-138 -715h-48zM-44 -204l6 29q29 11 37 51l1 5h-26l14 71h59l-14 -74q-14 -73 -77 -82z" />
    <glyph glyph-name="Lcaron" unicode="&#x13d;" horiz-adv-x="501" 
d="M11 0l138 715h51l-129 -668h366l-9 -47h-417zM317 560l6 29q28 11 35 47l1 5h-26l14 74h59l-15 -78q-13 -68 -74 -77z" />
    <glyph glyph-name="lcaron" unicode="&#x13e;" horiz-adv-x="150" 
d="M2 0l138 715h48l-138 -715h-48zM192 560l6 29q28 11 35 47l1 5h-26l14 74h59l-15 -78q-13 -68 -74 -77z" />
    <glyph glyph-name="Ldot" unicode="&#x13f;" horiz-adv-x="516" 
d="M11 0l138 715h51l-129 -668h366l-9 -47h-417zM346 321l16 79h60l-16 -79h-60z" />
    <glyph glyph-name="ldot" unicode="&#x140;" horiz-adv-x="234" 
d="M2 0l138 715h48l-138 -715h-48zM165 271l16 79h60l-16 -79h-60z" />
    <glyph glyph-name="Lslash" unicode="&#x141;" horiz-adv-x="521" 
d="M414 405l-279 -132l-44 -226h366l-9 -47h-417l48 247l-95 -44l11 52l94 44l80 416h51l-75 -390l280 132z" />
    <glyph glyph-name="lslash" unicode="&#x142;" horiz-adv-x="192" 
d="M232 452l-87 -61l-75 -391h-48l68 352l-78 -55l11 54l77 55l60 309h48l-52 -269l86 61z" />
    <glyph glyph-name="Nacute" unicode="&#x143;" horiz-adv-x="627" 
d="M11 0l138 715h57l219 -505l53 -135h2l124 640h50l-138 -715h-55l-214 494l-61 148h-2l-124 -642h-49zM379 753l75 110h68l-99 -110h-44z" />
    <glyph glyph-name="nacute" unicode="&#x144;" horiz-adv-x="471" 
d="M147 517l-18 -91h2q80 101 189 101q71 0 106 -42.5t20 -120.5l-70 -364h-48l70 363q12 60 -11 91.5t-77 31.5q-74 0 -131.5 -50t-71.5 -124l-60 -312h-48l100 517h48zM272 588l75 127h68l-100 -127h-43z" />
    <glyph glyph-name="Ncommaaccent" unicode="&#x145;" horiz-adv-x="627" 
d="M11 0l138 715h57l219 -505l53 -135h2l124 640h50l-138 -715h-55l-214 494l-61 148h-2l-124 -642h-49zM195 -204l6 29q29 11 37 51l1 5h-26l14 71h59l-14 -74q-14 -73 -77 -82z" />
    <glyph glyph-name="ncommaaccent" unicode="&#x146;" horiz-adv-x="471" 
d="M147 517l-18 -91h2q80 101 189 101q71 0 106 -42.5t20 -120.5l-70 -364h-48l70 363q12 60 -11 91.5t-77 31.5q-74 0 -131.5 -50t-71.5 -124l-60 -312h-48l100 517h48zM126 -204l6 29q29 11 37 51l1 5h-26l14 71h59l-14 -74q-14 -73 -77 -82z" />
    <glyph glyph-name="Ncaron" unicode="&#x147;" horiz-adv-x="627" 
d="M11 0l138 715h57l219 -505l53 -135h2l124 640h50l-138 -715h-55l-214 494l-61 148h-2l-124 -642h-49zM553 852l-109 -101h-62l-73 101h53l54 -71h2l79 71h56z" />
    <glyph glyph-name="ncaron" unicode="&#x148;" horiz-adv-x="471" 
d="M147 517l-18 -91h2q80 101 189 101q71 0 106 -42.5t20 -120.5l-70 -364h-48l70 363q12 60 -11 91.5t-77 31.5q-74 0 -131.5 -50t-71.5 -124l-60 -312h-48l100 517h48zM423 698l-96 -106h-62l-60 106h53l41 -76h2l66 76h56z" />
    <glyph glyph-name="napostrophe" unicode="&#x149;" horiz-adv-x="477" 
d="M147 517l-17 -87h2q79 97 197 97q67 0 102.5 -41.5t21.5 -116.5l-71 -369h-48l70 364q24 121 -92 121q-69 0 -128.5 -43.5t-72.5 -107.5l-64 -334h-48l100 517h48zM55 559l6 29q29 11 37 48l1 5h-26l14 74h58l-14 -74q-14 -73 -76 -82z" />
    <glyph glyph-name="Omacron" unicode="&#x14c;" horiz-adv-x="689" 
d="M328 -13q-124 0 -203.5 83t-79.5 225q0 109 39.5 206.5t121.5 162.5t190 65q124 0 204.5 -84.5t80.5 -225.5q0 -81 -22.5 -157t-65 -138t-111.5 -99.5t-154 -37.5zM99 295q0 -116 61.5 -189t169.5 -73q94 0 163 57t101.5 143t32.5 186q0 116 -63 190t-170 74
q-93 0 -162 -57t-101 -143.5t-32 -187.5zM298 763l9 48h233l-9 -48h-233z" />
    <glyph glyph-name="omacron" unicode="&#x14d;" horiz-adv-x="500" 
d="M224 -13q-89 0 -145.5 58.5t-56.5 157.5q0 57 15.5 113t45.5 104.5t80.5 78t114.5 29.5q89 0 144.5 -60t55.5 -160q0 -56 -15.5 -111.5t-45.5 -103t-80.5 -77t-112.5 -29.5zM71 208q0 -79 39.5 -129.5t114.5 -50.5q66 0 114 43t69 104t21 129q0 79 -38.5 131.5
t-114.5 52.5q-66 0 -114.5 -44t-69.5 -105.5t-21 -130.5zM185 631l9 48h228l-9 -48h-228z" />
    <glyph glyph-name="Obreve" unicode="&#x14e;" horiz-adv-x="689" 
d="M328 -13q-124 0 -203.5 83t-79.5 225q0 109 39.5 206.5t121.5 162.5t190 65q124 0 204.5 -84.5t80.5 -225.5q0 -81 -22.5 -157t-65 -138t-111.5 -99.5t-154 -37.5zM99 295q0 -116 61.5 -189t169.5 -73q94 0 163 57t101.5 143t32.5 186q0 116 -63 190t-170 74
q-93 0 -162 -57t-101 -143.5t-32 -187.5zM416 753q-49 0 -78 29t-29 73h44q5 -56 65 -56q58 0 77 56h46q-9 -45 -42.5 -73.5t-82.5 -28.5z" />
    <glyph glyph-name="obreve" unicode="&#x14f;" horiz-adv-x="500" 
d="M224 -13q-89 0 -145.5 58.5t-56.5 157.5q0 57 15.5 113t45.5 104.5t80.5 78t114.5 29.5q89 0 144.5 -60t55.5 -160q0 -56 -15.5 -111.5t-45.5 -103t-80.5 -77t-112.5 -29.5zM71 208q0 -79 39.5 -129.5t114.5 -50.5q66 0 114 43t69 104t21 129q0 79 -38.5 131.5
t-114.5 52.5q-66 0 -114.5 -44t-69.5 -105.5t-21 -130.5zM302 589q-49 0 -78 29.5t-29 76.5h44q5 -60 65 -60q59 0 77 60h46q-9 -48 -42.5 -77t-82.5 -29z" />
    <glyph glyph-name="Ohungarumlaut" unicode="&#x150;" horiz-adv-x="689" 
d="M328 -13q-124 0 -203.5 83t-79.5 225q0 109 39.5 206.5t121.5 162.5t190 65q124 0 204.5 -84.5t80.5 -225.5q0 -81 -22.5 -157t-65 -138t-111.5 -99.5t-154 -37.5zM99 295q0 -116 61.5 -189t169.5 -73q94 0 163 57t101.5 143t32.5 186q0 116 -63 190t-170 74
q-93 0 -162 -57t-101 -143.5t-32 -187.5zM316 753l46 110h58l-63 -110h-41zM442 753l47 110h58l-63 -110h-42z" />
    <glyph glyph-name="ohungarumlaut" unicode="&#x151;" horiz-adv-x="500" 
d="M224 -13q-89 0 -145.5 58.5t-56.5 157.5q0 57 15.5 113t45.5 104.5t80.5 78t114.5 29.5q89 0 144.5 -60t55.5 -160q0 -56 -15.5 -111.5t-45.5 -103t-80.5 -77t-112.5 -29.5zM71 208q0 -79 39.5 -129.5t114.5 -50.5q66 0 114 43t69 104t21 129q0 79 -38.5 131.5
t-114.5 52.5q-66 0 -114.5 -44t-69.5 -105.5t-21 -130.5zM206 588l54 127h58l-71 -127h-41zM328 588l55 127h58l-71 -127h-42z" />
    <glyph glyph-name="OE" unicode="&#x152;" horiz-adv-x="1078" 
d="M321 -13q-122 0 -194 82t-72 226q0 108 44 206t130.5 163t193.5 65q172 0 227 -141l24 127h442l-8 -45h-391l-54 -279h369l-9 -44h-369l-58 -300h415l-9 -47h-466l20 104q-92 -117 -235 -117zM109 295q0 -119 53.5 -190.5t160.5 -71.5q89 0 165.5 58.5t95.5 157.5l39 198
q20 101 -38 168.5t-163 67.5q-139 0 -226 -116.5t-87 -271.5z" />
    <glyph glyph-name="oe" unicode="&#x153;" horiz-adv-x="877" 
d="M224 -13q-89 0 -145.5 58.5t-56.5 157.5q0 57 15.5 113t45.5 104.5t80.5 78t114.5 29.5q72 0 121 -41t65 -114q31 70 86.5 112.5t132.5 42.5q85 0 131 -51q65 -71 39 -224h-379q-3 -24 -3 -48q0 -80 37 -128t115 -48q60 0 102.5 34t62.5 91h48q-25 -81 -81.5 -124
t-134.5 -43q-75 0 -122.5 38.5t-62.5 110.5q-66 -149 -211 -149zM71 208q0 -79 39.5 -129.5t114.5 -50.5q66 0 114 43t69 104t21 129q0 79 -38.5 131.5t-114.5 52.5q-66 0 -114.5 -44t-69.5 -105.5t-21 -130.5zM681 487q-79 0 -130 -55.5t-70 -138.5h328q13 85 -19 139.5
t-109 54.5z" />
    <glyph glyph-name="Racute" unicode="&#x154;" horiz-adv-x="607" 
d="M11 0l138 715h268q90 0 137.5 -44.5t47.5 -125.5q0 -147 -141 -192v-3q88 -35 75 -169q-15 -152 12 -177v-4h-53q-25 25 -10 181q8 88 -23 119.5t-117 31.5h-219l-64 -332h-51zM191 669l-56 -292h223q193 0 193 165q0 59 -34.5 93t-104.5 34h-221zM350 753l75 110h68
l-99 -110h-44z" />
    <glyph glyph-name="racute" unicode="&#x155;" horiz-adv-x="280" 
d="M147 517l-20 -102h2q35 56 87 83q44 22 100 22l-9 -48q-44 2 -75 -12q-105 -46 -131 -182l-54 -278h-48l100 517h48zM190 588l75 127h68l-100 -127h-43z" />
    <glyph glyph-name="Rcommaaccent" unicode="&#x156;" horiz-adv-x="607" 
d="M11 0l138 715h268q90 0 137.5 -44.5t47.5 -125.5q0 -147 -141 -192v-3q88 -35 75 -169q-15 -152 12 -177v-4h-53q-25 25 -10 181q8 88 -23 119.5t-117 31.5h-219l-64 -332h-51zM191 669l-56 -292h223q193 0 193 165q0 59 -34.5 93t-104.5 34h-221zM222 -204l6 29
q29 11 37 51l1 5h-26l14 71h59l-14 -74q-14 -73 -77 -82z" />
    <glyph glyph-name="rcommaaccent" unicode="&#x157;" horiz-adv-x="280" 
d="M147 517l-20 -102h2q35 56 87 83q44 22 100 22l-9 -48q-44 2 -75 -12q-105 -46 -131 -182l-54 -278h-48l100 517h48zM-46 -204l6 29q29 11 37 51l1 5h-26l14 71h59l-14 -74q-14 -73 -77 -82z" />
    <glyph glyph-name="Rcaron" unicode="&#x158;" horiz-adv-x="607" 
d="M11 0l138 715h268q90 0 137.5 -44.5t47.5 -125.5q0 -147 -141 -192v-3q88 -35 75 -169q-15 -152 12 -177v-4h-53q-25 25 -10 181q8 88 -23 119.5t-117 31.5h-219l-64 -332h-51zM191 669l-56 -292h223q193 0 193 165q0 59 -34.5 93t-104.5 34h-221zM518 852l-109 -101h-62
l-73 101h53l54 -71h2l79 71h56z" />
    <glyph glyph-name="rcaron" unicode="&#x159;" horiz-adv-x="280" 
d="M147 517l-20 -102h2q35 56 87 83q44 22 100 22l-9 -48q-44 2 -75 -12q-105 -46 -131 -182l-54 -278h-48l100 517h48zM342 698l-96 -106h-62l-60 106h53l41 -76h2l66 76h56z" />
    <glyph glyph-name="Sacute" unicode="&#x15a;" horiz-adv-x="559" 
d="M262 -13q-118 0 -188 59.5t-69 179.5h51q-1 -97 53.5 -146t154.5 -49q85 0 142.5 43.5t57.5 132.5q0 53 -42 84.5t-143 63.5q-104 34 -148 71.5t-44 106.5q0 90 68.5 143t168.5 53q101 0 162.5 -50t63.5 -149h-50q-2 75 -50 115t-128 40q-81 0 -132.5 -38t-51.5 -114
q0 -48 35 -76t119 -55q48 -15 75 -25.5t59.5 -27.5t49.5 -35.5t28.5 -45.5t11.5 -61q0 -104 -73 -162t-181 -58zM314 753l75 110h68l-99 -110h-44z" />
    <glyph glyph-name="sacute" unicode="&#x15b;" horiz-adv-x="423" 
d="M192 -13q-86 0 -140 42t-55 127h48q7 -127 149 -127q62 0 98.5 29.5t36.5 83.5q0 36 -27.5 58t-98.5 49q-80 30 -113.5 60t-33.5 83q0 65 50 100.5t125 35.5q76 0 121 -39t49 -108h-46q-4 51 -37.5 78t-88.5 27t-90.5 -22t-35.5 -71q0 -35 27 -56t102 -49t110 -58t35 -87
q0 -69 -52 -112.5t-133 -43.5zM220 588l75 127h68l-100 -127h-43z" />
    <glyph glyph-name="Scircumflex" unicode="&#x15c;" horiz-adv-x="559" 
d="M262 -13q-118 0 -188 59.5t-69 179.5h51q-1 -97 53.5 -146t154.5 -49q85 0 142.5 43.5t57.5 132.5q0 53 -42 84.5t-143 63.5q-104 34 -148 71.5t-44 106.5q0 90 68.5 143t168.5 53q101 0 162.5 -50t63.5 -149h-50q-2 75 -50 115t-128 40q-81 0 -132.5 -38t-51.5 -114
q0 -48 35 -76t119 -55q48 -15 75 -25.5t59.5 -27.5t49.5 -35.5t28.5 -45.5t11.5 -61q0 -104 -73 -162t-181 -58zM213 752l109 101h62l73 -101h-53l-54 71h-2l-79 -71h-56z" />
    <glyph glyph-name="scircumflex" unicode="&#x15d;" horiz-adv-x="423" 
d="M192 -13q-86 0 -140 42t-55 127h48q7 -127 149 -127q62 0 98.5 29.5t36.5 83.5q0 36 -27.5 58t-98.5 49q-80 30 -113.5 60t-33.5 83q0 65 50 100.5t125 35.5q76 0 121 -39t49 -108h-46q-4 51 -37.5 78t-88.5 27t-90.5 -22t-35.5 -71q0 -35 27 -56t102 -49t110 -58t35 -87
q0 -69 -52 -112.5t-133 -43.5zM137 592l96 106h62l60 -106h-53l-41 76h-2l-66 -76h-56z" />
    <glyph glyph-name="Scedilla" unicode="&#x15e;" horiz-adv-x="559" 
d="M196 -184q-51 0 -88 22l14 26q35 -14 66 -14q60 0 60 39q0 27 -40 27q-16 0 -39 -7l-11 22l60 58q-99 10 -156.5 69t-56.5 168h51q-1 -97 53.5 -146t154.5 -49q85 0 142.5 43.5t57.5 132.5q0 53 -42 84.5t-143 63.5q-104 34 -148 71.5t-44 106.5q0 90 68.5 143t168.5 53
q101 0 162.5 -50t63.5 -149h-50q-2 75 -50 115t-128 40q-81 0 -132.5 -38t-51.5 -114q0 -48 35 -76t119 -55q48 -15 75 -25.5t59.5 -27.5t49.5 -35.5t28.5 -45.5t11.5 -61q0 -104 -73 -162t-181 -58h-1l-41 -38v-2q34 2 54.5 -13t20.5 -42q0 -37 -29 -56.5t-70 -19.5z" />
    <glyph glyph-name="scedilla" unicode="&#x15f;" horiz-adv-x="423" 
d="M143 -184q-51 0 -88 22l14 26q35 -14 66 -14q60 0 60 39q0 27 -40 27q-16 0 -39 -7l-11 22l59 58q-75 6 -120.5 47.5t-46.5 119.5h48q7 -127 149 -127q62 0 98.5 29.5t36.5 83.5q0 36 -27.5 58t-98.5 49q-80 30 -113.5 60t-33.5 83q0 65 50 100.5t125 35.5q76 0 121 -39
t49 -108h-46q-4 51 -37.5 78t-88.5 27t-90.5 -22t-35.5 -71q0 -35 27 -56t102 -49t110 -58t35 -87q0 -66 -46.5 -108t-121.5 -47l-42 -39v-2q34 2 54.5 -13t20.5 -42q0 -37 -29 -56.5t-70 -19.5z" />
    <glyph glyph-name="Scaron" unicode="&#x160;" horiz-adv-x="559" 
d="M262 -13q-118 0 -188 59.5t-69 179.5h51q-1 -97 53.5 -146t154.5 -49q85 0 142.5 43.5t57.5 132.5q0 53 -42 84.5t-143 63.5q-104 34 -148 71.5t-44 106.5q0 90 68.5 143t168.5 53q101 0 162.5 -50t63.5 -149h-50q-2 75 -50 115t-128 40q-81 0 -132.5 -38t-51.5 -114
q0 -48 35 -76t119 -55q48 -15 75 -25.5t59.5 -27.5t49.5 -35.5t28.5 -45.5t11.5 -61q0 -104 -73 -162t-181 -58zM476 852l-109 -101h-62l-73 101h53l54 -71h2l79 71h56z" />
    <glyph glyph-name="scaron" unicode="&#x161;" horiz-adv-x="423" 
d="M192 -13q-86 0 -140 42t-55 127h48q7 -127 149 -127q62 0 98.5 29.5t36.5 83.5q0 36 -27.5 58t-98.5 49q-80 30 -113.5 60t-33.5 83q0 65 50 100.5t125 35.5q76 0 121 -39t49 -108h-46q-4 51 -37.5 78t-88.5 27t-90.5 -22t-35.5 -71q0 -35 27 -56t102 -49t110 -58t35 -87
q0 -69 -52 -112.5t-133 -43.5zM368 698l-96 -106h-62l-60 106h53l41 -76h2l66 76h56z" />
    <glyph glyph-name="Tcommaaccent" unicode="&#x162;" horiz-adv-x="551" 
d="M94 669l9 46h517l-9 -46h-233l-129 -669h-51l129 669h-233zM153 -204l6 29q29 11 37 51l1 5h-26l14 71h59l-14 -74q-14 -73 -77 -82z" />
    <glyph glyph-name="tcommaaccent" unicode="&#x163;" horiz-adv-x="262" 
d="M56 477l8 40h78l30 156h49l-30 -156h92l-8 -40h-92l-74 -384q-10 -56 37 -56q26 0 43 7h3l-8 -41q-18 -7 -44 -7q-100 0 -79 103l73 378h-78zM40 -204l6 29q29 11 37 51l1 5h-26l14 71h59l-14 -74q-14 -73 -77 -82z" />
    <glyph glyph-name="Tcaron" unicode="&#x164;" horiz-adv-x="551" 
d="M94 669l9 46h517l-9 -46h-233l-129 -669h-51l129 669h-233zM503 852l-109 -101h-62l-73 101h53l54 -71h2l79 71h56z" />
    <glyph glyph-name="tcaron" unicode="&#x165;" horiz-adv-x="262" 
d="M56 477l8 40h78l30 156h49l-30 -156h92l-8 -40h-92l-74 -384q-10 -56 37 -56q26 0 43 7h3l-8 -41q-18 -7 -44 -7q-100 0 -79 103l73 378h-78zM257 560l6 29q28 11 35 47l1 5h-26l14 74h59l-15 -78q-13 -68 -74 -77z" />
    <glyph glyph-name="Tbar" unicode="&#x166;" horiz-adv-x="551" 
d="M94 669l9 46h517l-9 -46h-233l-51 -263h128l-8 -43h-128l-70 -363h-51l70 363h-128l8 43h128l51 263h-233z" />
    <glyph glyph-name="tbar" unicode="&#x167;" horiz-adv-x="262" 
d="M56 477l8 40h78l30 156h49l-30 -156h92l-8 -40h-92l-25 -128h92l-8 -40h-92l-41 -216q-10 -56 37 -56q26 0 43 7h3l-8 -41q-18 -7 -44 -7q-100 0 -79 103l40 210h-78l8 40h78l25 128h-78z" />
    <glyph glyph-name="Utilde" unicode="&#x168;" horiz-adv-x="602" 
d="M271 -11q-121 0 -182.5 63t-36.5 193l91 470h51l-91 -470q-21 -108 22 -159.5t151 -51.5q90 0 141.5 42.5t69.5 137.5l97 501h51l-98 -506q-41 -220 -266 -220zM456 760q-22 0 -63 21.5t-53 21.5q-11 0 -21 -11t-14 -30h-41q8 41 29 62.5t49 21.5q23 0 63.5 -21.5
t52.5 -21.5q29 0 37 41h41q-7 -40 -29 -62t-51 -22z" />
    <glyph glyph-name="utilde" unicode="&#x169;" horiz-adv-x="465" 
d="M318 0l17 87h-2q-80 -99 -184 -99q-71 0 -105 44t-19 123l70 362h48l-70 -361q-24 -127 86 -127q74 0 130 53.5t71 133.5l58 301h48l-100 -517h-48zM354 600q-22 0 -61 21.5t-52 21.5q-11 0 -21 -11t-14 -30h-41q8 41 29 62.5t49 21.5q23 0 62 -21.5t51 -21.5q29 0 37 41
h41q-7 -40 -29 -62t-51 -22z" />
    <glyph glyph-name="Umacron" unicode="&#x16a;" horiz-adv-x="602" 
d="M271 -11q-121 0 -182.5 63t-36.5 193l91 470h51l-91 -470q-21 -108 22 -159.5t151 -51.5q90 0 141.5 42.5t69.5 137.5l97 501h51l-98 -506q-41 -220 -266 -220zM278 763l9 48h233l-9 -48h-233z" />
    <glyph glyph-name="umacron" unicode="&#x16b;" horiz-adv-x="465" 
d="M318 0l17 87h-2q-80 -99 -184 -99q-71 0 -105 44t-19 123l70 362h48l-70 -361q-24 -127 86 -127q74 0 130 53.5t71 133.5l58 301h48l-100 -517h-48zM182 631l9 48h228l-9 -48h-228z" />
    <glyph glyph-name="Ubreve" unicode="&#x16c;" horiz-adv-x="602" 
d="M271 -11q-121 0 -182.5 63t-36.5 193l91 470h51l-91 -470q-21 -108 22 -159.5t151 -51.5q90 0 141.5 42.5t69.5 137.5l97 501h51l-98 -506q-41 -220 -266 -220zM397 753q-49 0 -78 29t-29 73h44q5 -56 65 -56q58 0 77 56h46q-9 -45 -42.5 -73.5t-82.5 -28.5z" />
    <glyph glyph-name="ubreve" unicode="&#x16d;" horiz-adv-x="465" 
d="M318 0l17 87h-2q-80 -99 -184 -99q-71 0 -105 44t-19 123l70 362h48l-70 -361q-24 -127 86 -127q74 0 130 53.5t71 133.5l58 301h48l-100 -517h-48zM296 589q-49 0 -78 29.5t-29 76.5h44q5 -60 65 -60q59 0 77 60h46q-9 -48 -42.5 -77t-82.5 -29z" />
    <glyph glyph-name="Uring" unicode="&#x16e;" horiz-adv-x="602" 
d="M271 -11q-121 0 -182.5 63t-36.5 193l91 470h51l-91 -470q-21 -108 22 -159.5t151 -51.5q90 0 141.5 42.5t69.5 137.5l97 501h51l-98 -506q-41 -220 -266 -220zM393 730q-36 0 -61.5 25t-25.5 60t25.5 60t61.5 25t61.5 -25t25.5 -60t-25.5 -60t-61.5 -25zM393 763
q21 0 35 15t14 37t-14 37t-35 15t-35 -15t-14 -37t14 -37t35 -15z" />
    <glyph glyph-name="uring" unicode="&#x16f;" horiz-adv-x="465" 
d="M318 0l17 87h-2q-80 -99 -184 -99q-71 0 -105 44t-19 123l70 362h48l-70 -361q-24 -127 86 -127q74 0 130 53.5t71 133.5l58 301h48l-100 -517h-48zM292 576q-36 0 -61.5 25t-25.5 60t25.5 60t61.5 25t61.5 -25t25.5 -60t-25.5 -60t-61.5 -25zM292 609q21 0 35 15t14 37
t-14 37t-35 15t-35 -15t-14 -37t14 -37t35 -15z" />
    <glyph glyph-name="Uhungarumlaut" unicode="&#x170;" horiz-adv-x="602" 
d="M271 -11q-121 0 -182.5 63t-36.5 193l91 470h51l-91 -470q-21 -108 22 -159.5t151 -51.5q90 0 141.5 42.5t69.5 137.5l97 501h51l-98 -506q-41 -220 -266 -220zM301 753l46 110h58l-63 -110h-41zM427 753l47 110h58l-63 -110h-42z" />
    <glyph glyph-name="uhungarumlaut" unicode="&#x171;" horiz-adv-x="465" 
d="M318 0l17 87h-2q-80 -99 -184 -99q-71 0 -105 44t-19 123l70 362h48l-70 -361q-24 -127 86 -127q74 0 130 53.5t71 133.5l58 301h48l-100 -517h-48zM201 588l54 127h58l-71 -127h-41zM323 588l55 127h58l-71 -127h-42z" />
    <glyph glyph-name="Uogonek" unicode="&#x172;" horiz-adv-x="602" 
d="M323 -126h3l-7 -37q-24 -12 -52 -12q-81 0 -81 66q0 28 20.5 54t52.5 44q-115 3 -173 66t-34 190l91 470h51l-91 -470q-21 -108 22 -159.5t151 -51.5q90 0 141.5 42.5t69.5 137.5l97 501h51l-98 -506q-30 -155 -148 -200q-5 -2 -29 -10.5t-35 -13t-31.5 -15t-30.5 -20
t-18.5 -24t-8.5 -30.5q0 -32 38 -32q25 0 49 10z" />
    <glyph glyph-name="uogonek" unicode="&#x173;" horiz-adv-x="465" 
d="M319 6l16 81h-2q-80 -99 -184 -99q-71 0 -105 44t-19 123l70 362h48l-70 -361q-24 -127 86 -127q74 0 130 53.5t71 133.5l58 301h48l-100 -517q-47 -30 -70.5 -54.5t-23.5 -49.5q0 -32 38 -32q25 0 49 10h3l-7 -37q-24 -12 -52 -12q-81 0 -81 66q0 33 27.5 63t69.5 52z
" />
    <glyph glyph-name="Wcircumflex" unicode="&#x174;" horiz-adv-x="838" 
d="M157 0l-65 715h50l42 -494l10 -156h2q38 95 61 148l215 502h54l49 -500l11 -150h2q36 97 61 156l206 494h50l-302 -715h-56l-49 532l-9 122h-2q-24 -69 -46 -122l-227 -532h-57zM375 752l109 101h62l73 -101h-53l-54 71h-2l-79 -71h-56z" />
    <glyph glyph-name="wcircumflex" unicode="&#x175;" horiz-adv-x="674" 
d="M114 0l-53 517h50l31 -320l7 -152h2q39 93 62 145l143 327h54l31 -327l7 -145h2q42 98 67 154l141 318h49l-236 -517h-58l-32 342l-6 123h-2q-26 -70 -49 -123l-150 -342h-60zM282 592l96 106h62l60 -106h-53l-41 76h-2l-66 -76h-56z" />
    <glyph glyph-name="Ycircumflex" unicode="&#x176;" horiz-adv-x="546" 
d="M197 0l61 318l-176 397h54l155 -355h2l277 355h57l-319 -403l-60 -312h-51zM236 752l109 101h62l73 -101h-53l-54 71h-2l-79 -71h-56z" />
    <glyph glyph-name="ycircumflex" unicode="&#x177;" horiz-adv-x="448" 
d="M43 -171q-27 0 -47 6l9 44h2q20 -5 39 -5q58 0 94 71l25 48l-113 524h49l71 -340l23 -132h2q35 76 62 130l171 342h51l-302 -592q-49 -96 -136 -96zM166 592l96 106h62l60 -106h-53l-41 76h-2l-66 -76h-56z" />
    <glyph glyph-name="Ydieresis" unicode="&#x178;" horiz-adv-x="546" 
d="M197 0l61 318l-176 397h54l155 -355h2l277 355h57l-319 -403l-60 -312h-51zM261 755l16 80h49l-16 -80h-49zM410 755l16 80h49l-16 -80h-49z" />
    <glyph glyph-name="Zacute" unicode="&#x179;" horiz-adv-x="554" 
d="M-22 0l9 50l539 618v3h-391l8 44h454l-9 -47l-540 -620v-3h434l-8 -45h-496zM336 753l75 110h68l-99 -110h-44z" />
    <glyph glyph-name="zacute" unicode="&#x17a;" horiz-adv-x="413" 
d="M-26 0l8 44l378 428v3h-273l8 42h336l-8 -40l-382 -432v-3h306l-8 -42h-365zM228 588l75 127h68l-100 -127h-43z" />
    <glyph glyph-name="Zdotaccent" unicode="&#x17b;" horiz-adv-x="554" 
d="M-22 0l9 50l539 618v3h-391l8 44h454l-9 -47l-540 -620v-3h434l-8 -45h-496zM347 755l16 80h48l-16 -80h-48z" />
    <glyph glyph-name="zdotaccent" unicode="&#x17c;" horiz-adv-x="413" 
d="M-26 0l8 44l378 428v3h-273l8 42h336l-8 -40l-382 -432v-3h306l-8 -42h-365zM247 635l15 80h48l-15 -80h-48z" />
    <glyph glyph-name="Zcaron" unicode="&#x17d;" horiz-adv-x="554" 
d="M-22 0l9 50l539 618v3h-391l8 44h454l-9 -47l-540 -620v-3h434l-8 -45h-496zM513 852l-109 -101h-62l-73 101h53l54 -71h2l79 71h56z" />
    <glyph glyph-name="zcaron" unicode="&#x17e;" horiz-adv-x="413" 
d="M-26 0l8 44l378 428v3h-273l8 42h336l-8 -40l-382 -432v-3h306l-8 -42h-365zM399 698l-96 -106h-62l-60 106h53l41 -76h2l66 76h56z" />
    <glyph glyph-name="florin" unicode="&#x192;" horiz-adv-x="324" 
d="M62 355l7 41h84l42 182q12 54 37.5 80.5t70.5 26.5h54l-8 -43h-43q-28 0 -41 -16t-22 -52l-41 -178h101l-7 -41h-103l-92 -403q-12 -54 -39.5 -77t-74.5 -23h-31l8 43h16q60 0 73 61l91 399h-82z" />
    <glyph glyph-name="AEacute" unicode="&#x1fc;" horiz-adv-x="920" 
d="M408 0l44 230h-293l-138 -230h-54l430 715h561l-8 -45h-361l-54 -279h339l-9 -44h-339l-58 -300h385l-9 -47h-436zM424 670l-239 -397h276l76 397h-113zM658 753l75 110h68l-99 -110h-44z" />
    <glyph glyph-name="aeacute" unicode="&#x1fd;" horiz-adv-x="811" 
d="M259 528q67 0 111.5 -27t53.5 -83q70 110 193 110q85 0 131 -51q65 -71 39 -224h-380q-3 -24 -3 -48q0 -80 37.5 -128t115.5 -48q60 0 102.5 34t62.5 91h48q-25 -81 -81.5 -124t-134.5 -43q-74 0 -121.5 38t-61.5 107q-52 -145 -210 -145q-67 0 -114.5 38.5t-47.5 103.5
q0 69 41 111t116 52q33 4 76 6.5t69 5.5t43 10q41 18 41 76q0 50 -35 73.5t-92 23.5q-130 0 -155 -117h-49q14 75 67 116.5t138 41.5zM49 129q1 -47 33.5 -74.5t83.5 -27.5q80 0 123.5 43t56.5 111l20 101q-35 -14 -111 -20t-97 -10q-59 -10 -84.5 -40t-24.5 -83zM615 487
q-79 0 -130.5 -55.5t-70.5 -138.5h329q13 85 -19 139.5t-109 54.5zM424 588l75 127h68l-100 -127h-43z" />
    <glyph glyph-name="Oslashacute" unicode="&#x1fe;" horiz-adv-x="689" 
d="M45 -16l-29 27l82 92q-53 78 -53 192q0 109 39.5 206.5t121.5 162.5t190 65q116 0 194 -75l67 75l29 -27l-69 -78q64 -83 64 -205q0 -81 -22.5 -157t-65 -138t-111.5 -99.5t-154 -37.5q-124 0 -204 85zM627 419q0 98 -45 166l-425 -475q64 -77 173 -77q94 0 163 57
t101.5 143t32.5 186zM99 295q0 -88 35 -152l423 474q-64 66 -163 66q-93 0 -162 -57t-101 -143.5t-32 -187.5zM387 753l75 110h68l-99 -110h-44z" />
    <glyph glyph-name="oslashacute" unicode="&#x1ff;" horiz-adv-x="500" 
d="M224 -13q-87 0 -143 56l-51 -58l-26 24l55 62q-37 54 -37 132q0 57 15.5 113t45.5 104.5t80.5 78t114.5 29.5q80 0 136 -54l50 56l26 -24l-52 -60q40 -59 40 -138q0 -56 -15.5 -111.5t-45.5 -103t-80.5 -77t-112.5 -29.5zM429 304q0 58 -23 106l-295 -333q40 -49 114 -49
q66 0 114 43t69 104t21 129zM71 208q0 -55 20 -100l294 333q-39 47 -109 47q-66 0 -114.5 -44t-69.5 -105.5t-21 -130.5zM257 588l75 127h68l-100 -127h-43z" />
    <glyph glyph-name="Scommaaccent" unicode="&#x218;" horiz-adv-x="559" 
d="M262 -13q-118 0 -188 59.5t-69 179.5h51q-1 -97 53.5 -146t154.5 -49q85 0 142.5 43.5t57.5 132.5q0 53 -42 84.5t-143 63.5q-104 34 -148 71.5t-44 106.5q0 90 68.5 143t168.5 53q101 0 162.5 -50t63.5 -149h-50q-2 75 -50 115t-128 40q-81 0 -132.5 -38t-51.5 -114
q0 -48 35 -76t119 -55q48 -15 75 -25.5t59.5 -27.5t49.5 -35.5t28.5 -45.5t11.5 -61q0 -104 -73 -162t-181 -58zM176 -204l6 29q29 11 37 51l1 5h-26l14 71h59l-14 -74q-14 -73 -77 -82z" />
    <glyph glyph-name="scommaaccent" unicode="&#x219;" horiz-adv-x="423" 
d="M192 -13q-86 0 -140 42t-55 127h48q7 -127 149 -127q62 0 98.5 29.5t36.5 83.5q0 36 -27.5 58t-98.5 49q-80 30 -113.5 60t-33.5 83q0 65 50 100.5t125 35.5q76 0 121 -39t49 -108h-46q-4 51 -37.5 78t-88.5 27t-90.5 -22t-35.5 -71q0 -35 27 -56t102 -49t110 -58t35 -87
q0 -69 -52 -112.5t-133 -43.5zM112 -204l6 29q29 11 37 51l1 5h-26l14 71h59l-14 -74q-14 -73 -77 -82z" />
    <glyph glyph-name="uni021A" unicode="&#x21a;" horiz-adv-x="551" 
d="M94 669l9 46h517l-9 -46h-233l-129 -669h-51l129 669h-233zM153 -204l6 29q29 11 37 51l1 5h-26l14 71h59l-14 -74q-14 -73 -77 -82z" />
    <glyph glyph-name="uni021B" unicode="&#x21b;" horiz-adv-x="262" 
d="M56 477l8 40h78l30 156h49l-30 -156h92l-8 -40h-92l-74 -384q-10 -56 37 -56q26 0 43 7h3l-8 -41q-18 -7 -44 -7q-100 0 -79 103l73 378h-78zM40 -204l6 29q29 11 37 51l1 5h-26l14 71h59l-14 -74q-14 -73 -77 -82z" />
    <glyph glyph-name="uni0237" unicode="&#x237;" horiz-adv-x="153" 
d="M-97 -166l8 42h15q51 0 62 55l114 586h48l-114 -588q-19 -95 -110 -95h-23z" />
    <glyph glyph-name="circumflex" unicode="&#x2c6;" 
d="M202 592l96 106h62l60 -106h-53l-41 76h-2l-66 -76h-56z" />
    <glyph glyph-name="caron" unicode="&#x2c7;" 
d="M438 698l-96 -106h-62l-60 106h53l41 -76h2l66 76h56z" />
    <glyph glyph-name="uni02C9" unicode="&#x2c9;" 
d="M199 631l9 48h228l-9 -48h-228z" />
    <glyph glyph-name="breve" unicode="&#x2d8;" 
d="M336 589q-49 0 -78 29.5t-29 76.5h44q5 -60 65 -60q59 0 77 60h46q-9 -48 -42.5 -77t-82.5 -29z" />
    <glyph glyph-name="dotaccent" unicode="&#x2d9;" horiz-adv-x="512" 
d="M304 635l15 80h48l-15 -80h-48z" />
    <glyph glyph-name="ring" unicode="&#x2da;" horiz-adv-x="501" 
d="M327 576q-36 0 -61.5 25t-25.5 60t25.5 60t61.5 25t61.5 -25t25.5 -60t-25.5 -60t-61.5 -25zM327 609q21 0 35 15t14 37t-14 37t-35 15t-35 -15t-14 -37t14 -37t35 -15z" />
    <glyph glyph-name="ogonek" unicode="&#x2db;" 
d="M211 -126h3l-7 -37q-24 -12 -52 -12q-81 0 -81 66q0 32 26 60.5t65 48.5h57q-98 -54 -98 -104q0 -32 38 -32q25 0 49 10z" />
    <glyph glyph-name="tilde" unicode="&#x2dc;" 
d="M375 600q-21 0 -61 21.5t-52 21.5q-11 0 -21 -11t-14 -30h-41q8 41 29 62.5t49 21.5q23 0 62 -21.5t51 -21.5q29 0 37 41h41q-7 -40 -29 -62t-51 -22z" />
    <glyph glyph-name="hungarumlaut" unicode="&#x2dd;" 
d="M218 588l54 127h58l-71 -127h-41zM340 588l55 127h58l-71 -127h-42z" />
    <glyph glyph-name="pi" unicode="&#x3c0;" horiz-adv-x="550" 
d="M479 477l-74 -384q-10 -56 37 -56q26 0 43 7h3l-8 -41q-18 -7 -44 -7q-49 0 -68 27.5t-10 75.5l73 378h-242l-92 -477h-49l92 477h-80l8 40h499l-8 -40h-80z" />
    <glyph glyph-name="Wgrave" unicode="&#x1e80;" horiz-adv-x="838" 
d="M157 0l-65 715h50l42 -494l10 -156h2q38 95 61 148l215 502h54l49 -500l11 -150h2q36 97 61 156l206 494h50l-302 -715h-56l-49 532l-9 122h-2q-24 -69 -46 -122l-227 -532h-57zM525 753h-43l-69 110h66z" />
    <glyph glyph-name="wgrave" unicode="&#x1e81;" horiz-adv-x="674" 
d="M114 0l-53 517h50l31 -320l7 -152h2q39 93 62 145l143 327h54l31 -327l7 -145h2q42 98 67 154l141 318h49l-236 -517h-58l-32 342l-6 123h-2q-26 -70 -49 -123l-150 -342h-60zM410 588h-42l-69 127h64z" />
    <glyph glyph-name="Wacute" unicode="&#x1e82;" horiz-adv-x="838" 
d="M157 0l-65 715h50l42 -494l10 -156h2q38 95 61 148l215 502h54l49 -500l11 -150h2q36 97 61 156l206 494h50l-302 -715h-56l-49 532l-9 122h-2q-24 -69 -46 -122l-227 -532h-57zM483 753l75 110h68l-99 -110h-44z" />
    <glyph glyph-name="wacute" unicode="&#x1e83;" horiz-adv-x="674" 
d="M114 0l-53 517h50l31 -320l7 -152h2q39 93 62 145l143 327h54l31 -327l7 -145h2q42 98 67 154l141 318h49l-236 -517h-58l-32 342l-6 123h-2q-26 -70 -49 -123l-150 -342h-60zM372 588l75 127h68l-100 -127h-43z" />
    <glyph glyph-name="Wdieresis" unicode="&#x1e84;" horiz-adv-x="838" 
d="M157 0l-65 715h50l42 -494l10 -156h2q38 95 61 148l215 502h54l49 -500l11 -150h2q36 97 61 156l206 494h50l-302 -715h-56l-49 532l-9 122h-2q-24 -69 -46 -122l-227 -532h-57zM400 755l16 80h49l-16 -80h-49zM549 755l16 80h49l-16 -80h-49z" />
    <glyph glyph-name="wdieresis" unicode="&#x1e85;" horiz-adv-x="674" 
d="M114 0l-53 517h50l31 -320l7 -152h2q39 93 62 145l143 327h54l31 -327l7 -145h2q42 98 67 154l141 318h49l-236 -517h-58l-32 342l-6 123h-2q-26 -70 -49 -123l-150 -342h-60zM294 635l15 80h49l-15 -80h-49zM443 635l15 80h49l-15 -80h-49z" />
    <glyph glyph-name="Ygrave" unicode="&#x1ef2;" horiz-adv-x="546" 
d="M197 0l61 318l-176 397h54l155 -355h2l277 355h57l-319 -403l-60 -312h-51zM384 753h-43l-69 110h66z" />
    <glyph glyph-name="ygrave" unicode="&#x1ef3;" horiz-adv-x="448" 
d="M43 -171q-27 0 -47 6l9 44h2q20 -5 39 -5q58 0 94 71l25 48l-113 524h49l71 -340l23 -132h2q35 76 62 130l171 342h51l-302 -592q-49 -96 -136 -96zM293 588h-42l-69 127h64z" />
    <glyph glyph-name="uni2009" unicode="&#x2009;" horiz-adv-x="55" 
 />
    <glyph glyph-name="endash" unicode="&#x2013;" horiz-adv-x="475" 
d="M32 234l8 42h401l-8 -42h-401z" />
    <glyph glyph-name="emdash" unicode="&#x2014;" horiz-adv-x="731" 
d="M32 234l8 42h657l-8 -42h-657z" />
    <glyph glyph-name="quoteleft" unicode="&#x2018;" horiz-adv-x="141" 
d="M190 717l-6 -29q-16 -7 -24.5 -17.5t-12.5 -32.5l-3 -16h25l-14 -76h-58l17 88q14 74 76 83z" />
    <glyph glyph-name="quoteright" unicode="&#x2019;" horiz-adv-x="141" 
d="M94 544l6 29q16 7 24.5 17.5t12.5 32.5l3 16h-25l14 76h58l-17 -88q-14 -74 -76 -83z" />
    <glyph glyph-name="quotesinglbase" unicode="&#x201a;" horiz-adv-x="141" 
d="M-30 -95l6 29q16 7 24.5 17.5t12.5 32.5l3 16h-25l14 76h58l-17 -88q-14 -74 -76 -83z" />
    <glyph glyph-name="quotedblleft" unicode="&#x201c;" horiz-adv-x="252" 
d="M302 717l-6 -29q-16 -7 -24.5 -17.5t-12.5 -32.5l-3 -16h25l-14 -76h-58l17 88q14 74 76 83zM190 717l-6 -29q-16 -7 -24.5 -17.5t-12.5 -32.5l-3 -16h25l-14 -76h-58l17 88q14 74 76 83z" />
    <glyph glyph-name="quotedblright" unicode="&#x201d;" horiz-adv-x="252" 
d="M94 544l6 29q16 7 24.5 17.5t12.5 32.5l3 16h-25l14 76h58l-17 -88q-14 -74 -76 -83zM206 544l6 29q16 7 24.5 17.5t12.5 32.5l3 16h-25l14 76h58l-17 -88q-14 -74 -76 -83z" />
    <glyph glyph-name="quotedblbase" unicode="&#x201e;" horiz-adv-x="252" 
d="M-30 -95l6 29q16 7 24.5 17.5t12.5 32.5l3 16h-25l14 76h58l-17 -88q-14 -74 -76 -83zM82 -95l6 29q16 7 24.5 17.5t12.5 32.5l3 16h-25l14 76h58l-17 -88q-14 -74 -76 -83z" />
    <glyph glyph-name="dagger" unicode="&#x2020;" horiz-adv-x="488" 
d="M79 472l8 42h181l39 201h50l-39 -201h181l-8 -42h-181l-112 -576h-50l112 576h-181z" />
    <glyph glyph-name="daggerdbl" unicode="&#x2021;" horiz-adv-x="488" 
d="M357 715l-39 -201h181l-8 -42h-181l-64 -333h181l-9 -42h-181l-39 -201h-50l39 201h-181l9 42h181l64 333h-181l8 42h181l39 201h50z" />
    <glyph glyph-name="bullet" unicode="&#x2022;" horiz-adv-x="273" 
d="M149 225q-42 0 -71.5 29.5t-29.5 70.5t29.5 71t71.5 30q41 0 70.5 -30t29.5 -71t-29.5 -70.5t-70.5 -29.5z" />
    <glyph glyph-name="ellipsis" unicode="&#x2026;" horiz-adv-x="501" 
d="M-10 0l15 79h60l-15 -79h-60zM350 0l15 79h60l-15 -79h-60zM170 0l15 79h60l-15 -79h-60z" />
    <glyph glyph-name="perthousand" unicode="&#x2030;" horiz-adv-x="1104" 
d="M248 699q59 0 93 -41.5t34 -110.5q0 -96 -45.5 -165t-121.5 -69q-59 0 -94 41.5t-35 110.5q0 96 46.5 165t122.5 69zM328 547q0 51 -20 82.5t-61 31.5q-57 0 -89 -58.5t-32 -137.5q0 -50 21.5 -81.5t61.5 -32.5q56 -1 87.5 58.5t31.5 137.5zM101 0l541 685h47l-540 -685
h-48zM582 373q59 0 93 -41.5t34 -110.5q0 -96 -45.5 -165t-121.5 -69q-59 0 -94 41.5t-35 110.5q0 96 46.5 165t122.5 69zM662 221q0 51 -20 82.5t-61 31.5q-57 0 -89 -58.5t-32 -137.5q0 -50 21.5 -81.5t61.5 -32.5q56 -1 87.5 58.5t31.5 137.5zM929 373q59 0 93 -41.5
t34 -110.5q0 -96 -45.5 -165t-121.5 -69q-59 0 -94 41.5t-35 110.5q0 96 46.5 165t122.5 69zM1009 221q0 51 -20 82.5t-61 31.5q-57 0 -89 -58.5t-32 -137.5q0 -50 21.5 -81.5t61.5 -32.5q56 -1 87.5 58.5t31.5 137.5z" />
    <glyph glyph-name="uni2032" unicode="&#x2032;" horiz-adv-x="168" 
d="M84 501l81 214h48l-80 -214h-49z" />
    <glyph glyph-name="uni2033" unicode="&#x2033;" horiz-adv-x="291" 
d="M207 501l81 214h48l-80 -214h-49zM84 501l81 214h48l-80 -214h-49z" />
    <glyph glyph-name="guilsinglleft" unicode="&#x2039;" horiz-adv-x="250" 
d="M165 126l-110 114l13 67l154 110l-13 -66l-118 -79v-2l85 -86z" />
    <glyph glyph-name="guilsinglright" unicode="&#x203a;" horiz-adv-x="250" 
d="M90 417l110 -114l-13 -67l-154 -110l13 66l118 79v2l-85 86z" />
    <glyph glyph-name="fraction" unicode="&#x2044;" horiz-adv-x="190" 
d="M-220 0l616 715h52l-616 -715h-52z" />
    <glyph glyph-name="Euro" unicode="&#x20ac;" horiz-adv-x="590" 
d="M377 383h-220q-9 -42 -12 -83h216l-8 -40h-210v-18q0 -89 36.5 -150t120.5 -61q80 -1 134 56t78 162h48q-29 -130 -96.5 -196t-165.5 -66q-99 0 -153.5 71t-54.5 184v18h-68l8 40h63q3 41 12 83h-59l8 40h60q33 120 104 198t177 78q88 0 136.5 -53.5t52.5 -147.5h-49
q-11 158 -142 158q-87 0 -143 -65t-84 -168h219z" />
    <glyph glyph-name="uni2113" unicode="&#x2113;" horiz-adv-x="298" 
d="M327 623q0 -128 -61.5 -249.5t-156.5 -171.5l-15 -79q-16 -86 46 -86q31 0 57 15h3l-8 -44q-22 -12 -56 -12q-58 0 -80.5 33.5t-10.5 94.5l11 56q-33 -12 -57 -16l8 40q28 5 57 17l74 384q23 118 106 118q43 0 63 -27.5t20 -72.5zM187 604l-69 -354q2 1 25 22
q54 50 96.5 151t42.5 200q0 61 -38 61q-22 0 -35.5 -19t-21.5 -61z" />
    <glyph glyph-name="trademark" unicode="&#x2122;" horiz-adv-x="624" 
d="M336 429l55 286h57l33 -236h1l121 236h60l-55 -286h-38l46 239h-2q-25 -53 -49 -99l-73 -140h-40l-19 140l-12 99h-2l-46 -239h-37zM114 679l7 36h223l-7 -36h-92l-48 -250h-39l48 250h-92z" />
    <glyph glyph-name="Omega" unicode="&#x2126;" horiz-adv-x="679" 
d="M101 320q0 -92 38 -164t104 -106l-9 -50h-240l9 45h169v2q-57 41 -91.5 112.5t-34.5 159.5q0 102 39.5 194t121 154t187.5 62q129 0 204.5 -83t75.5 -210q0 -133 -59 -235t-167 -154v-2h160l-9 -45h-254l9 47q130 43 197.5 144.5t67.5 244.5q0 113 -62 180t-165 67
q-74 0 -132 -34t-91.5 -89t-50.5 -116.5t-17 -123.5z" />
    <glyph glyph-name="estimated" unicode="&#x212e;" horiz-adv-x="641" 
d="M605 301h-431v-215q59 -59 167 -59q169 0 218 159h42q-20 -89 -87 -143t-173 -54q-140 0 -219 88t-79 232q0 140 82 229t211 89q103 0 173 -59q98 -83 96 -267zM336 592q-104 0 -162 -61v-196h303v209q-50 48 -141 48z" />
    <glyph glyph-name="onethird" unicode="&#x2153;" horiz-adv-x="770" 
d="M128 317l57 295h-92l6 32q53 2 78 18.5t37 55.5h37l-77 -401h-46zM22 0l616 715h52l-616 -715h-52zM564 -8q-63 0 -102.5 35t-40.5 97h42q6 -94 102 -94q40 0 66.5 23.5t27.5 64.5q0 34 -21.5 54t-61.5 20h-21l7 36h29q37 -1 60 19.5t23 58.5q0 31 -18.5 47.5t-49.5 16.5
q-40 0 -66 -23.5t-33 -66.5h-42q9 58 47.5 92t94.5 34q48 0 80 -24.5t32 -73.5q0 -36 -20 -61.5t-54 -36.5v-2q27 -10 43.5 -34t16.5 -53q0 -58 -40.5 -93.5t-100.5 -35.5z" />
    <glyph glyph-name="twothirds" unicode="&#x2154;" horiz-adv-x="816" 
d="M299 317h-266q6 36 21 64t40 50t46 35.5t55 31.5q31 16 43 23.5t31 22.5t26 32t7 39q0 32 -20.5 51t-53.5 19q-37 0 -63 -25t-35 -74h-44q9 67 49 102t96 35q49 0 84 -27.5t35 -79.5q0 -28 -9.5 -50t-31.5 -40.5t-41 -30t-55 -30.5q-53 -28 -82.5 -52.5t-38.5 -57.5h215z
M100 0l616 715h52l-616 -715h-52zM609 -8q-63 0 -102.5 35t-40.5 97h42q6 -94 102 -94q40 0 66.5 23.5t27.5 64.5q0 34 -21.5 54t-61.5 20h-21l7 36h29q37 -1 60 19.5t23 58.5q0 31 -18.5 47.5t-49.5 16.5q-40 0 -66 -23.5t-33 -66.5h-42q9 58 47.5 92t94.5 34
q48 0 80 -24.5t32 -73.5q0 -36 -20 -61.5t-54 -36.5v-2q27 -10 43.5 -34t16.5 -53q0 -58 -40.5 -93.5t-100.5 -35.5z" />
    <glyph glyph-name="oneeighth" unicode="&#x215b;" horiz-adv-x="748" 
d="M128 317l57 295h-92l6 32q53 2 78 18.5t37 55.5h37l-77 -401h-46zM12 0l616 715h52l-616 -715h-52zM534 -6q-59 0 -99.5 28.5t-40.5 81.5q0 86 93 114v2q-45 23 -45 73q0 51 39.5 83t93.5 32q48 0 83 -26t35 -75q0 -68 -72 -93v-2q27 -12 44.5 -36t17.5 -54
q1 -60 -40.5 -94t-108.5 -34zM440 106q0 -37 26.5 -56.5t70.5 -19.5t72.5 23.5t27.5 67.5q0 37 -27 58t-64 21q-45 0 -75.5 -25t-30.5 -69zM487 291q0 -28 21.5 -42.5t52.5 -14.5q36 0 62 17.5t26 53.5q0 31 -20.5 49.5t-55.5 18.5q-38 0 -62 -22.5t-24 -59.5z" />
    <glyph glyph-name="threeeighths" unicode="&#x215c;" horiz-adv-x="820" 
d="M199 309q-63 0 -102.5 35t-40.5 97h42q6 -94 102 -94q40 0 66.5 23.5t27.5 64.5q0 34 -21.5 54t-61.5 20h-21l7 36h29q37 -1 60 19.5t23 58.5q0 31 -18.5 47.5t-49.5 16.5q-40 0 -66 -23.5t-33 -66.5h-42q9 58 47.5 92t94.5 34q48 0 80 -24.5t32 -73.5q0 -36 -20 -61.5
t-54 -36.5v-2q27 -10 43.5 -34t16.5 -53q0 -58 -40.5 -93.5t-100.5 -35.5zM89 0l616 715h52l-616 -715h-52zM605 -6q-59 0 -99.5 28.5t-40.5 81.5q0 86 93 114v2q-45 23 -45 73q0 51 39.5 83t93.5 32q48 0 83 -26t35 -75q0 -68 -72 -93v-2q27 -12 44.5 -36t17.5 -54
q1 -60 -40.5 -94t-108.5 -34zM511 106q0 -37 26.5 -56.5t70.5 -19.5t72.5 23.5t27.5 67.5q0 37 -27 58t-64 21q-45 0 -75.5 -25t-30.5 -69zM558 291q0 -28 21.5 -42.5t52.5 -14.5q36 0 62 17.5t26 53.5q0 31 -20.5 49.5t-55.5 18.5q-38 0 -62 -22.5t-24 -59.5z" />
    <glyph glyph-name="fiveeighths" unicode="&#x215d;" horiz-adv-x="807" 
d="M190 309q-52 0 -90.5 30.5t-41.5 84.5h45q3 -34 27.5 -55t62.5 -21q45 0 72 29.5t27 77.5q0 39 -21.5 62t-59.5 23q-52 0 -81 -38h-43l63 213h207l-8 -39h-170l-38 -128h1q31 30 82 30q50 0 82.5 -33t32.5 -88q0 -64 -41.5 -106t-107.5 -42zM83 0l616 715h52l-616 -715
h-52zM593 -6q-59 0 -99.5 28.5t-40.5 81.5q0 86 93 114v2q-45 23 -45 73q0 51 39.5 83t93.5 32q48 0 83 -26t35 -75q0 -68 -72 -93v-2q27 -12 44.5 -36t17.5 -54q1 -60 -40.5 -94t-108.5 -34zM499 106q0 -37 26.5 -56.5t70.5 -19.5t72.5 23.5t27.5 67.5q0 37 -27 58t-64 21
q-45 0 -75.5 -25t-30.5 -69zM546 291q0 -28 21.5 -42.5t52.5 -14.5q36 0 62 17.5t26 53.5q0 31 -20.5 49.5t-55.5 18.5q-38 0 -62 -22.5t-24 -59.5z" />
    <glyph glyph-name="seveneighths" unicode="&#x215e;" horiz-adv-x="762" 
d="M119 317q22 101 79.5 198.5t125.5 159.5v1h-218l7 39h267l-7 -38q-69 -61 -124.5 -155.5t-79.5 -204.5h-50zM13 0l616 715h52l-616 -715h-52zM547 -6q-59 0 -99.5 28.5t-40.5 81.5q0 86 93 114v2q-45 23 -45 73q0 51 39.5 83t93.5 32q48 0 83 -26t35 -75q0 -68 -72 -93
v-2q27 -12 44.5 -36t17.5 -54q1 -60 -40.5 -94t-108.5 -34zM453 106q0 -37 26.5 -56.5t70.5 -19.5t72.5 23.5t27.5 67.5q0 37 -27 58t-64 21q-45 0 -75.5 -25t-30.5 -69zM500 291q0 -28 21.5 -42.5t52.5 -14.5q36 0 62 17.5t26 53.5q0 31 -20.5 49.5t-55.5 18.5
q-38 0 -62 -22.5t-24 -59.5z" />
    <glyph glyph-name="partialdiff" unicode="&#x2202;" horiz-adv-x="495" 
d="M406 396q-47 253 -288 281v43q78 -8 139 -36.5t98.5 -69t61.5 -94t33.5 -105.5t9.5 -108q0 -146 -59.5 -232.5t-170.5 -86.5q-94 0 -149.5 63t-55.5 163q0 118 63.5 193.5t161.5 75.5q107 0 156 -87zM79 215q0 -75 37.5 -130t113.5 -55q81 0 128.5 68t47.5 166
q0 77 -41 126t-115 49q-79 0 -125 -62t-46 -162z" />
    <glyph glyph-name="Delta" unicode="&#x2206;" horiz-adv-x="614" 
d="M-28 0l7 41l373 674h59l138 -674l-7 -41h-570zM318 560l-284 -516h464l-104 516l-20 108h-2q-27 -60 -54 -108z" />
    <glyph glyph-name="product" unicode="&#x220f;" horiz-adv-x="656" 
d="M545 668h-398v-768h-52v815h502v-815h-52v768z" />
    <glyph glyph-name="summation" unicode="&#x2211;" horiz-adv-x="624" 
d="M584 -100h-496v40l315 387v2l-315 334v52h496v-46h-433v-2l303 -322v-31l-303 -367v-2h433v-45z" />
    <glyph glyph-name="minus" unicode="&#x2212;" horiz-adv-x="502" 
d="M63 304l9 45h392l-9 -45h-392z" />
    <glyph glyph-name="uni2215" unicode="&#x2215;" horiz-adv-x="190" 
d="M-220 0l616 715h52l-616 -715h-52z" />
    <glyph glyph-name="uni2219" unicode="&#x2219;" horiz-adv-x="141" 
d="M42 271l16 79h60l-16 -79h-60z" />
    <glyph glyph-name="radical" unicode="&#x221a;" horiz-adv-x="539" 
d="M32 260v44h115l85 -217l46 -131h2q20 80 38 136l195 623h50l-256 -815h-55l-145 360h-75z" />
    <glyph glyph-name="infinity" unicode="&#x221e;" horiz-adv-x="715" 
d="M194 134q-73 0 -111.5 48.5t-38.5 122.5q0 73 38.5 121.5t111.5 48.5q56 0 95.5 -33.5t76.5 -93.5q37 61 74.5 94t91.5 33q70 0 110.5 -46.5t40.5 -123.5t-40.5 -124t-110.5 -47q-54 0 -91.5 33t-74.5 94q-37 -60 -76.5 -93.5t-95.5 -33.5zM194 434q-49 0 -74.5 -36.5
t-25.5 -92.5q0 -57 25.5 -93t74.5 -36q45 0 77 32.5t70 95.5q-18 31 -31 50t-31.5 39.5t-39.5 30.5t-45 10zM532 176q49 0 75 36t26 93q0 56 -26 92.5t-75 36.5q-23 0 -42 -9.5t-37.5 -31.5t-30 -39t-30.5 -50q26 -43 41 -65t42 -42.5t57 -20.5z" />
    <glyph glyph-name="integral" unicode="&#x222b;" horiz-adv-x="369" 
d="M213 622v-678q0 -56 -31 -88t-80 -32q-32 0 -58 11v43h3q20 -11 50 -11q31 0 49 19t18 57v678q0 56 31 88t80 32q32 0 58 -11v-43h-3q-20 11 -50 11q-31 0 -49 -19t-18 -57z" />
    <glyph glyph-name="approxequal" unicode="&#x2248;" horiz-adv-x="502" 
d="M364 332q-37 0 -104.5 26t-90.5 26q-51 0 -62 -56h-45q20 102 110 102q31 0 96.5 -26t97.5 -26q57 0 68 56h45q-18 -102 -115 -102zM343 187q-37 0 -104.5 26t-90.5 26q-51 0 -62 -56h-45q20 102 110 102q31 0 96.5 -26t97.5 -26q56 0 68 56h45q-18 -102 -115 -102z" />
    <glyph glyph-name="notequal" unicode="&#x2260;" horiz-adv-x="502" 
d="M75 362l10 45h209l68 118h48l-68 -118h134l-9 -45h-151l-61 -105h192l-9 -45h-209l-71 -124h-48l71 124h-135l9 45h152l61 105h-193z" />
    <glyph glyph-name="lessequal" unicode="&#x2264;" horiz-adv-x="483" 
d="M-1 0l8 45h381l-8 -45h-381zM402 117l-348 170l11 57l413 162l-10 -51l-366 -142v-2l310 -147z" />
    <glyph glyph-name="greaterequal" unicode="&#x2265;" horiz-adv-x="483" 
d="M3 0l8 45h381l-8 -45h-381zM101 506l348 -170l-11 -57l-413 -162l10 51l366 142v2l-310 147z" />
    <glyph glyph-name="uni24C5" unicode="&#x24c5;" horiz-adv-x="799" 
d="M419 -17q-154 0 -259 106t-105 266t105 266.5t259 106.5t259 -106.5t105 -266.5t-105 -266t-259 -106zM419 15q140 0 232 96.5t92 243.5t-92 244t-232 97t-232 -97t-92 -244t92 -243.5t232 -96.5zM287 136v429h170q68 0 103 -37q32 -32 32 -87q0 -60 -35.5 -92
t-101.5 -32h-120v-181h-48zM335 523v-166h114q95 0 95 84q0 40 -24 61t-68 21h-117z" />
    <glyph glyph-name="lozenge" unicode="&#x25ca;" horiz-adv-x="520" 
d="M502 356l-200 -356h-49l-201 357l200 358h49zM277 52h2l168 303l-170 308h-2l-168 -305z" />
    <glyph glyph-name="uniF8FF" unicode="&#xf8ff;" horiz-adv-x="846" 
d="M86 0v716h716v-716h-716zM204 431v-144h168v-169h144v169h168v144h-168v163h-144v-163h-168z" />
    <glyph glyph-name="idotaccent" horiz-adv-x="153" 
d="M2 0l100 517h48l-100 -517h-48zM125 636l15 79h48l-15 -79h-48z" />
    <glyph glyph-name="grave.cap" 
d="M382 753h-43l-69 110h66z" />
    <glyph glyph-name="acute.cap" 
d="M302 753l75 110h68l-99 -110h-44z" />
    <glyph glyph-name="circumflex.cap" 
d="M219 752l109 101h62l73 -101h-53l-54 71h-2l-79 -71h-56z" />
    <glyph glyph-name="caron.cap" 
d="M478 852l-109 -101h-62l-73 101h53l54 -71h2l79 71h56z" />
    <glyph glyph-name="caron.alt" 
d="M275 560l6 29q28 11 35 47l1 5h-26l14 74h59l-15 -78q-13 -68 -74 -77z" />
    <glyph glyph-name="tilde.cap" 
d="M407 760q-21 0 -62 21.5t-54 21.5q-11 0 -21 -11t-14 -30h-41q8 41 29 62.5t49 21.5q23 0 63.5 -21.5t52.5 -21.5q29 0 37 41h41q-7 -40 -29 -62t-51 -22z" />
    <glyph glyph-name="dieresis.cap" horiz-adv-x="512" 
d="M253 755l16 80h49l-16 -80h-49zM402 755l16 80h49l-16 -80h-49z" />
    <glyph glyph-name="macron.cap" 
d="M223 763l9 48h233l-9 -48h-233z" />
    <glyph glyph-name="breve.cap" 
d="M371 753q-49 0 -78 29t-29 73h44q5 -56 65 -56q58 0 77 56h46q-9 -45 -42.5 -73.5t-82.5 -28.5z" />
    <glyph glyph-name="ring.cap" horiz-adv-x="501" 
d="M360 742q-36 0 -61.5 25t-25.5 60t25.5 60t61.5 25t61.5 -25t25.5 -60t-25.5 -60t-61.5 -25zM360 775q21 0 35 15t14 37t-14 37t-35 15t-35 -15t-14 -37t14 -37t35 -15z" />
    <glyph glyph-name="hungarumlaut.cap" 
d="M247 753l46 110h58l-63 -110h-41zM373 753l47 110h58l-63 -110h-42z" />
    <glyph glyph-name="dotaccent.cap" horiz-adv-x="512" 
d="M327 755l16 80h48l-16 -80h-48z" />
    <glyph glyph-name="space_uni0326" 
d="M125 -204l6 29q29 11 37 51l1 5h-26l14 71h59l-14 -74q-14 -73 -77 -82z" />
    <glyph glyph-name="space_uni0326.alt" 
d="M373 754l-6 -29q-29 -11 -37 -51l-1 -5h26l-14 -71h-59l14 74q14 73 77 82z" />
    <glyph glyph-name="R.alt" horiz-adv-x="579" 
d="M11 0l138 715h238q101 0 149 -48t48 -126q0 -87 -46 -139.5t-126 -70.5l112 -331h-53l-109 323q-14 -2 -43 -2h-195l-62 -321h-51zM191 669l-58 -302h187q93 0 152.5 39.5t59.5 130.5q0 62 -36 97t-110 35h-195z" />
    <glyph glyph-name="Racute.alt" horiz-adv-x="579" 
d="M11 0l138 715h238q101 0 149 -48t48 -126q0 -87 -46 -139.5t-126 -70.5l112 -331h-53l-109 323q-14 -2 -43 -2h-195l-62 -321h-51zM191 669l-58 -302h187q93 0 152.5 39.5t59.5 130.5q0 62 -36 97t-110 35h-195zM345 753l75 110h68l-99 -110h-44z" />
    <glyph glyph-name="Rcaron.alt" horiz-adv-x="579" 
d="M11 0l138 715h238q101 0 149 -48t48 -126q0 -87 -46 -139.5t-126 -70.5l112 -331h-53l-109 323q-14 -2 -43 -2h-195l-62 -321h-51zM191 669l-58 -302h187q93 0 152.5 39.5t59.5 130.5q0 62 -36 97t-110 35h-195zM512 852l-109 -101h-62l-73 101h53l54 -71h2l79 71h56z
" />
    <glyph glyph-name="Rcommaaccent.alt" horiz-adv-x="585" 
d="M11 0l138 715h238q101 0 149 -48t48 -126q0 -87 -46 -139.5t-126 -70.5l112 -331h-53l-109 323q-14 -2 -43 -2h-195l-62 -321h-51zM191 669l-58 -302h187q93 0 152.5 39.5t59.5 130.5q0 62 -36 97t-110 35h-195zM160 -204l6 29q29 11 37 51l1 5h-26l14 71h59l-14 -74
q-14 -73 -77 -82z" />
    <glyph glyph-name="a.alt" horiz-adv-x="461" 
d="M338 0q-12 27 -5 68h-2q-59 -81 -167 -81q-69 0 -117 38t-48 104q0 69 41.5 111t118.5 52q33 4 77 6.5t71 5.5t44 10q38 16 38 76q0 97 -125 97q-133 0 -158 -117h-50q14 74 69 116t140 42q42 0 75.5 -9.5t59 -32t33.5 -58.5t-1 -89l-50 -252q-6 -36 -3.5 -56.5
t8.5 -27.5v-3h-49zM49 129q1 -47 34 -74.5t86 -27.5q79 0 124.5 44.5t59.5 110.5l20 99q-35 -14 -114.5 -20t-97.5 -9q-61 -10 -87 -40t-25 -83z" />
    <glyph glyph-name="aacute.alt" horiz-adv-x="461" 
d="M338 0q-12 27 -5 68h-2q-59 -81 -167 -81q-69 0 -117 38t-48 104q0 69 41.5 111t118.5 52q33 4 77 6.5t71 5.5t44 10q38 16 38 76q0 97 -125 97q-133 0 -158 -117h-50q14 74 69 116t140 42q42 0 75.5 -9.5t59 -32t33.5 -58.5t-1 -89l-50 -252q-6 -36 -3.5 -56.5
t8.5 -27.5v-3h-49zM49 129q1 -47 34 -74.5t86 -27.5q79 0 124.5 44.5t59.5 110.5l20 99q-35 -14 -114.5 -20t-97.5 -9q-61 -10 -87 -40t-25 -83zM264 588l75 127h68l-100 -127h-43z" />
    <glyph glyph-name="abreve.alt" horiz-adv-x="461" 
d="M338 0q-12 27 -5 68h-2q-59 -81 -167 -81q-69 0 -117 38t-48 104q0 69 41.5 111t118.5 52q33 4 77 6.5t71 5.5t44 10q38 16 38 76q0 97 -125 97q-133 0 -158 -117h-50q14 74 69 116t140 42q42 0 75.5 -9.5t59 -32t33.5 -58.5t-1 -89l-50 -252q-6 -36 -3.5 -56.5
t8.5 -27.5v-3h-49zM49 129q1 -47 34 -74.5t86 -27.5q79 0 124.5 44.5t59.5 110.5l20 99q-35 -14 -114.5 -20t-97.5 -9q-61 -10 -87 -40t-25 -83zM307 589q-49 0 -78 29.5t-29 76.5h44q5 -60 65 -60q59 0 77 60h46q-9 -48 -42.5 -77t-82.5 -29z" />
    <glyph glyph-name="acircumflex.alt" horiz-adv-x="461" 
d="M338 0q-12 27 -5 68h-2q-59 -81 -167 -81q-69 0 -117 38t-48 104q0 69 41.5 111t118.5 52q33 4 77 6.5t71 5.5t44 10q38 16 38 76q0 97 -125 97q-133 0 -158 -117h-50q14 74 69 116t140 42q42 0 75.5 -9.5t59 -32t33.5 -58.5t-1 -89l-50 -252q-6 -36 -3.5 -56.5
t8.5 -27.5v-3h-49zM49 129q1 -47 34 -74.5t86 -27.5q79 0 124.5 44.5t59.5 110.5l20 99q-35 -14 -114.5 -20t-97.5 -9q-61 -10 -87 -40t-25 -83zM192 592l96 106h62l60 -106h-53l-41 76h-2l-66 -76h-56z" />
    <glyph glyph-name="adieresis.alt" horiz-adv-x="461" 
d="M338 0q-12 27 -5 68h-2q-59 -81 -167 -81q-69 0 -117 38t-48 104q0 69 41.5 111t118.5 52q33 4 77 6.5t71 5.5t44 10q38 16 38 76q0 97 -125 97q-133 0 -158 -117h-50q14 74 69 116t140 42q42 0 75.5 -9.5t59 -32t33.5 -58.5t-1 -89l-50 -252q-6 -36 -3.5 -56.5
t8.5 -27.5v-3h-49zM49 129q1 -47 34 -74.5t86 -27.5q79 0 124.5 44.5t59.5 110.5l20 99q-35 -14 -114.5 -20t-97.5 -9q-61 -10 -87 -40t-25 -83zM210 635l15 80h49l-15 -80h-49zM359 635l15 80h49l-15 -80h-49z" />
    <glyph glyph-name="agrave.alt" horiz-adv-x="461" 
d="M338 0q-12 27 -5 68h-2q-59 -81 -167 -81q-69 0 -117 38t-48 104q0 69 41.5 111t118.5 52q33 4 77 6.5t71 5.5t44 10q38 16 38 76q0 97 -125 97q-133 0 -158 -117h-50q14 74 69 116t140 42q42 0 75.5 -9.5t59 -32t33.5 -58.5t-1 -89l-50 -252q-6 -36 -3.5 -56.5
t8.5 -27.5v-3h-49zM49 129q1 -47 34 -74.5t86 -27.5q79 0 124.5 44.5t59.5 110.5l20 99q-35 -14 -114.5 -20t-97.5 -9q-61 -10 -87 -40t-25 -83zM337 588h-42l-69 127h64z" />
    <glyph glyph-name="amacron.alt" horiz-adv-x="461" 
d="M338 0q-12 27 -5 68h-2q-59 -81 -167 -81q-69 0 -117 38t-48 104q0 69 41.5 111t118.5 52q33 4 77 6.5t71 5.5t44 10q38 16 38 76q0 97 -125 97q-133 0 -158 -117h-50q14 74 69 116t140 42q42 0 75.5 -9.5t59 -32t33.5 -58.5t-1 -89l-50 -252q-6 -36 -3.5 -56.5
t8.5 -27.5v-3h-49zM49 129q1 -47 34 -74.5t86 -27.5q79 0 124.5 44.5t59.5 110.5l20 99q-35 -14 -114.5 -20t-97.5 -9q-61 -10 -87 -40t-25 -83zM189 631l9 48h228l-9 -48h-228z" />
    <glyph glyph-name="aogonek.alt" horiz-adv-x="461" 
d="M376 -126h3l-7 -37q-24 -12 -52 -12q-81 0 -81 66q0 61 97 113q-9 28 -3 64h-2q-59 -81 -167 -81q-69 0 -117 38t-48 104q0 69 41.5 111t118.5 52q33 4 77 6.5t71 5.5t44 10q38 16 38 76q0 97 -125 97q-133 0 -158 -117h-50q14 74 69 116t140 42q42 0 75.5 -9.5t59 -32
t33.5 -58.5t-1 -89l-50 -252q-6 -36 -3.5 -56.5t8.5 -27.5v-3q-98 -54 -98 -104q0 -32 38 -32q25 0 49 10zM49 129q1 -47 34 -74.5t86 -27.5q79 0 124.5 44.5t59.5 110.5l20 99q-35 -14 -114.5 -20t-97.5 -9q-61 -10 -87 -40t-25 -83z" />
    <glyph glyph-name="aring.alt" horiz-adv-x="461" 
d="M338 0q-12 27 -5 68h-2q-59 -81 -167 -81q-69 0 -117 38t-48 104q0 69 41.5 111t118.5 52q33 4 77 6.5t71 5.5t44 10q38 16 38 76q0 97 -125 97q-133 0 -158 -117h-50q14 74 69 116t140 42q42 0 75.5 -9.5t59 -32t33.5 -58.5t-1 -89l-50 -252q-6 -36 -3.5 -56.5
t8.5 -27.5v-3h-49zM49 129q1 -47 34 -74.5t86 -27.5q79 0 124.5 44.5t59.5 110.5l20 99q-35 -14 -114.5 -20t-97.5 -9q-61 -10 -87 -40t-25 -83zM313 576q-36 0 -61.5 25t-25.5 60t25.5 60t61.5 25t61.5 -25t25.5 -60t-25.5 -60t-61.5 -25zM313 609q21 0 35 15t14 37t-14 37
t-35 15t-35 -15t-14 -37t14 -37t35 -15z" />
    <glyph glyph-name="atilde.alt" horiz-adv-x="461" 
d="M338 0q-12 27 -5 68h-2q-59 -81 -167 -81q-69 0 -117 38t-48 104q0 69 41.5 111t118.5 52q33 4 77 6.5t71 5.5t44 10q38 16 38 76q0 97 -125 97q-133 0 -158 -117h-50q14 74 69 116t140 42q42 0 75.5 -9.5t59 -32t33.5 -58.5t-1 -89l-50 -252q-6 -36 -3.5 -56.5
t8.5 -27.5v-3h-49zM49 129q1 -47 34 -74.5t86 -27.5q79 0 124.5 44.5t59.5 110.5l20 99q-35 -14 -114.5 -20t-97.5 -9q-61 -10 -87 -40t-25 -83zM366 600q-22 0 -61 21.5t-52 21.5q-11 0 -21 -11t-14 -30h-41q8 41 29 62.5t49 21.5q23 0 62 -21.5t51 -21.5q29 0 37 41h41
q-7 -40 -29 -62t-51 -22z" />
    <glyph glyph-name="Ccedilla.alt" horiz-adv-x="641" 
d="M233 -168l5 29q29 3 36 43h-25l12 64h58l-12 -63q-13 -70 -74 -73zM317 -13q-129 0 -200 81t-71 217q0 63 13.5 125t42.5 120t70.5 102t101.5 70.5t131 26.5q97 0 161 -53.5t77 -156.5h-50q-11 79 -60.5 122.5t-130.5 43.5q-77 0 -137.5 -36t-95 -95.5t-52 -127.5
t-17.5 -140q0 -117 54 -185.5t165 -68.5q96 0 162 61.5t91 165.5h49q-30 -127 -107.5 -199.5t-196.5 -72.5z" />
    <glyph glyph-name="Scedilla.alt" horiz-adv-x="559" 
d="M175 -168l5 29q29 3 36 43h-25l12 64h58l-12 -63q-13 -70 -74 -73zM262 -13q-118 0 -188 59.5t-69 179.5h51q-1 -97 53.5 -146t154.5 -49q85 0 142.5 43.5t57.5 132.5q0 53 -42 84.5t-143 63.5q-104 34 -148 71.5t-44 106.5q0 90 68.5 143t168.5 53q101 0 162.5 -50
t63.5 -149h-50q-2 75 -50 115t-128 40q-81 0 -132.5 -38t-51.5 -114q0 -48 35 -76t119 -55q48 -15 75 -25.5t59.5 -27.5t49.5 -35.5t28.5 -45.5t11.5 -61q0 -104 -73 -162t-181 -58z" />
    <glyph glyph-name="ccedilla.alt" horiz-adv-x="461" 
d="M136 -168l5 29q29 3 36 43h-25l12 64h58l-12 -63q-13 -70 -74 -73zM221 -13q-91 0 -145 55.5t-54 161.5q0 81 27 152.5t87.5 121.5t144.5 50q74 0 120 -43t54 -117h-46q-5 49 -36.5 84t-92.5 35q-53 0 -94.5 -25.5t-65.5 -67t-36.5 -90t-12.5 -99.5q0 -81 37 -128.5
t114 -47.5q61 1 105 41t61 105h47q-22 -85 -78 -136.5t-136 -51.5z" />
    <glyph glyph-name="scedilla.alt" horiz-adv-x="423" 
d="M114 -168l5 29q29 3 36 43h-25l12 64h58l-12 -63q-13 -70 -74 -73zM192 -13q-86 0 -140 42t-55 127h48q7 -127 149 -127q62 0 98.5 29.5t36.5 83.5q0 36 -27.5 58t-98.5 49q-80 30 -113.5 60t-33.5 83q0 65 50 100.5t125 35.5q76 0 121 -39t49 -108h-46q-4 51 -37.5 78
t-88.5 27t-90.5 -22t-35.5 -71q0 -35 27 -56t102 -49t110 -58t35 -87q0 -69 -52 -112.5t-133 -43.5z" />
    <glyph glyph-name="hyphen.cap" horiz-adv-x="323" 
d="M41 306l9 44h258l-9 -44h-258z" />
    <glyph glyph-name="endash.cap" horiz-adv-x="475" 
d="M46 307l8 42h401l-8 -42h-401z" />
    <glyph glyph-name="emdash.cap" horiz-adv-x="731" 
d="M46 307l8 42h657l-8 -42h-657z" />
    <glyph glyph-name="questiondown.cap" horiz-adv-x="479" 
d="M333 542q-16 -90 -43 -130t-93 -88q-31 -23 -46.5 -35.5t-36.5 -35.5t-30 -49t-9 -58q0 -54 36.5 -84t92.5 -30q70 0 118 43.5t62 122.5h52q-13 -91 -75.5 -151t-161.5 -60q-74 0 -125.5 41t-51.5 118q0 37 10 67t33 56.5t44 44.5t60 46q54 39 78 73.5t37 108.5h49z
M371 715l-15 -79h-60l15 79h60z" />
    <glyph glyph-name="exclamdown.cap" horiz-adv-x="194" 
d="M169 542l-51 -313l-44 -229h-54l45 235l70 307h34zM215 715l-15 -79h-60l15 79h60z" />
    <glyph glyph-name="parenleft.cap" horiz-adv-x="267" 
d="M137 -88q-58 128 -61 273q-4 180 56 324.5t176 274.5h50q-228 -269 -228 -599q0 -143 52 -273h-45z" />
    <glyph glyph-name="parenright.cap" horiz-adv-x="267" 
d="M165 784q58 -128 61 -273q4 -180 -56 -324.5t-176 -274.5h-50q228 269 228 599q0 143 -52 273h45z" />
    <glyph glyph-name="bracketleft.cap" horiz-adv-x="277" 
d="M13 -88l170 872h162l-9 -44h-113l-152 -783h113l-9 -45h-162z" />
    <glyph glyph-name="bracketright.cap" horiz-adv-x="277" 
d="M299 784l-170 -872h-163l9 45h114l152 783h-114l9 44h163z" />
    <glyph glyph-name="braceleft.cap" horiz-adv-x="277" 
d="M160 -88h-16q-120 0 -96 124l43 222q7 37 -4.5 54t-49.5 18l9 45q38 1 55.5 16.5t25.5 53.5l43 222q13 65 41.5 91t89.5 26h28l-9 -44h-19q-38 0 -56 -16.5t-27 -62.5l-44 -228q-13 -66 -71 -82v-2q51 -24 36 -96l-44 -228q-7 -37 6 -52.5t47 -15.5h21z" />
    <glyph glyph-name="braceright.cap" horiz-adv-x="277" 
d="M150 784h16q120 0 96 -124l-43 -222q-7 -37 4.5 -54t49.5 -18l-9 -45q-38 -1 -55.5 -16.5t-25.5 -53.5l-43 -222q-13 -65 -41.5 -91t-89.5 -26h-28l9 45h19q39 0 56.5 16t26.5 62l44 228q13 66 71 82v2q-51 24 -36 96l44 228q14 69 -53 69h-21z" />
    <glyph glyph-name="guillemotleft.cap" horiz-adv-x="396" 
d="M321 171l-100 116l13 66l143 109l-13 -66l-108 -77v-2l76 -87zM165 171l-100 116l13 66l143 109l-13 -66l-107 -77v-2l75 -87z" />
    <glyph glyph-name="guillemotright.cap" horiz-adv-x="396" 
d="M98 462l100 -116l-13 -66l-143 -109l13 66l108 77v2l-76 87zM254 462l100 -116l-13 -66l-143 -109l13 66l107 77v2l-75 87z" />
    <glyph glyph-name="guilsinglleft.cap" horiz-adv-x="250" 
d="M174 171l-110 114l13 67l154 110l-13 -66l-118 -79v-2l85 -86z" />
    <glyph glyph-name="guilsinglright.cap" horiz-adv-x="250" 
d="M99 462l110 -114l-13 -67l-154 -110l13 66l118 79v2l-85 86z" />
    <glyph glyph-name="registered.alt" horiz-adv-x="799" 
d="M419 -17q-154 0 -259 106t-105 266t105 266.5t259 106.5t259 -106.5t105 -266.5t-105 -266t-259 -106zM419 15q140 0 232 96.5t92 243.5t-92 244t-232 97t-232 -97t-92 -244t92 -243.5t232 -96.5zM273 145v422h187q58 0 91 -31t33 -84q0 -79 -74 -101v-2q32 -10 46 -34
t17 -72q4 -88 18 -95v-3h-49q-12 6 -16 95q-2 50 -22.5 70t-66.5 20h-116v-185h-48zM321 525v-155h126q43 0 65.5 20t22.5 57q0 78 -83 78h-131z" />
    <glyph glyph-name="dollar.cap" horiz-adv-x="541" 
d="M188 -80l18 95q-83 16 -135 73t-57 150h51q9 -153 149 -181l59 304q-91 34 -131.5 72t-40.5 99q0 89 62 139t154 50q5 0 13 -0.5t13 -0.5l12 61h40l-13 -67q68 -16 110 -62.5t46 -120.5h-49q-3 53 -34.5 88.5t-81.5 48.5l-53 -272q91 -34 135.5 -73.5t44.5 -104.5
q0 -99 -64.5 -154t-165.5 -55q-17 0 -25 1l-17 -90h-40zM448 216q0 43 -31.5 73.5t-105.5 58.5l-58 -296h17q79 0 128.5 40t49.5 124zM151 534q0 -42 30.5 -70t101.5 -55l51 266q-3 0 -9.5 0.5t-9.5 0.5q-71 0 -117.5 -34.5t-46.5 -107.5z" />
    <glyph glyph-name="Euro.cap" horiz-adv-x="613" 
d="M395 401h-230q-9 -45 -12 -88h225l-8 -41h-220v-23q0 -40 8.5 -76t26.5 -68.5t51.5 -52t79.5 -19.5q83 -1 139.5 57.5t83.5 169.5h48q-30 -134 -101.5 -203.5t-171.5 -69.5q-102 0 -159.5 73.5t-57.5 186.5v25h-73l8 41h68q5 50 14 88h-65l8 41h67q35 125 108.5 206
t182.5 81q91 0 142 -55.5t55 -153.5h-50q-11 164 -149 164q-90 0 -149.5 -67.5t-88.5 -174.5h228z" />
    <glyph glyph-name="sterling.cap" horiz-adv-x="538" 
d="M54 371h63q-23 92 -23 133q0 100 63.5 162.5t160.5 62.5q100 0 153.5 -60t49.5 -160h-51q3 176 -154 176q-74 0 -122 -48t-48 -130q0 -33 22 -136h187l-8 -42h-171q6 -40 6 -58q0 -126 -109 -206l1 -2q38 18 77 18q34 0 94 -23.5t96 -23.5q49 0 108 44l26 -37
q-71 -51 -136 -51q-43 0 -108.5 25t-95.5 25q-49 0 -120 -42l-25 47q144 86 144 224q0 23 -7 60h-81z" />
    <glyph glyph-name="yen.cap" horiz-adv-x="518" 
d="M57 299l8 41h174l-148 375h56l132 -346h2l259 346h60l-286 -375h173l-8 -41h-186l-15 -80h185l-8 -41h-185l-34 -178h-51l34 178h-186l8 41h186l15 80h-185z" />
    <glyph glyph-name="zero.cap" horiz-adv-x="584" 
d="M261 -13q-111 0 -168 78.5t-57 199.5q0 56 10 116.5t34 123.5t58 112t88.5 80.5t119.5 31.5q108 0 164 -78t56 -198q0 -57 -9 -116.5t-31.5 -123.5t-56 -113t-87.5 -81t-121 -32zM91 264q0 -43 8.5 -81.5t27 -73.5t53 -55.5t82.5 -20.5q68 0 119 43t77.5 111t39 134.5
t12.5 129.5q0 43 -8 82t-26.5 74t-52 55.5t-78.5 20.5q-69 0 -121.5 -42.5t-79.5 -110t-40 -135t-13 -131.5z" />
    <glyph glyph-name="one.cap" horiz-adv-x="308" 
d="M112 0l107 551h-144l7 34q94 5 129 31t56 103h35l-139 -719h-51z" />
    <glyph glyph-name="two.cap" horiz-adv-x="509" 
d="M424 0h-438q8 50 27.5 93t42 72t59.5 59t64.5 47t73.5 43q7 4 30.5 17.5t31 17.5t28 16.5t28 19t23 19.5t22 22t16.5 24t14 28.5t7.5 30.5t3.5 36q0 64 -39.5 101.5t-104.5 37.5q-156 0 -191 -188h-51q18 118 85 175.5t159 57.5q81 0 138 -47t57 -137q0 -34 -7.5 -63
t-26 -54t-34 -42.5t-48 -39.5t-50 -32t-56.5 -32q-11 -6 -16 -9q-97 -55 -152 -106.5t-72 -120.5h385z" />
    <glyph glyph-name="three.cap" horiz-adv-x="513" 
d="M252 -13q-104 0 -166.5 60.5t-63.5 164.5h52q4 -85 49 -131.5t131 -46.5q75 0 124 46.5t49 129.5q0 65 -40 106t-114 41h-39l9 45h55q73 0 117 39t44 111q0 66 -37.5 99.5t-97.5 33.5q-72 0 -122 -51t-60 -126h-52q13 98 77.5 159.5t158.5 61.5q80 0 132.5 -44.5
t52.5 -129.5q0 -67 -35 -111.5t-93 -66.5v-3q43 -20 70 -65t27 -96q0 -104 -64 -165t-164 -61z" />
    <glyph glyph-name="four.cap" horiz-adv-x="532" 
d="M299 0l36 191h-326l10 49l424 482h47l-95 -487h106l-9 -44h-106l-36 -191h-51zM74 238v-3h270l77 393h-2z" />
    <glyph glyph-name="five.cap" horiz-adv-x="495" 
d="M226 -13q-87 0 -149 52.5t-69 145.5h52q5 -70 49.5 -111t117.5 -41q89 0 136 59.5t47 155.5q0 78 -39.5 121t-110.5 43q-96 0 -153 -75h-51l112 378h332l-8 -45h-292l-82 -273h3q60 60 148 60q87 0 141 -55t54 -154q0 -108 -63 -184.5t-175 -76.5z" />
    <glyph glyph-name="six.cap" horiz-adv-x="526" 
d="M254 -13q-84 0 -136 45q-42 35 -60 82t-18 123q0 81 19.5 164t56.5 158t100.5 122.5t143.5 47.5t127 -45.5t51 -130.5h-52q-1 59 -35 95t-93 36q-97 0 -164 -91t-95 -253h2q32 56 83.5 85.5t108.5 29.5q86 0 144 -55.5t58 -152.5q0 -111 -64.5 -185.5t-176.5 -74.5z
M94 199q0 -79 45 -123.5t116 -44.5q92 0 139 61t47 154q0 73 -41 119t-110 46q-88 0 -142 -62.5t-54 -149.5z" />
    <glyph glyph-name="seven.cap" horiz-adv-x="482" 
d="M102 0q43 185 144.5 367.5t223.5 300.5v2h-381l9 45h439l-9 -46q-124 -112 -222 -288t-147 -381h-57z" />
    <glyph glyph-name="eight.cap" horiz-adv-x="534" 
d="M244 -13q-55 0 -104.5 20t-85 67t-35.5 111q0 156 168 207v3q-37 18 -60 53.5t-23 77.5q0 89 62 145.5t156 57.5q76 0 133.5 -45t57.5 -129q0 -125 -132 -173v-3q49 -19 80 -63.5t32 -101.5q1 -103 -67.5 -165t-181.5 -62zM72 185q0 -73 51.5 -113.5t122.5 -40.5
q87 0 141 48.5t53 134.5q-1 73 -50.5 111.5t-118.5 38.5q-85 0 -142 -47t-57 -132zM156 528q0 -56 39.5 -89t99.5 -33q70 0 118 38t48 109q0 60 -41 96.5t-99 36.5q-69 1 -117 -43t-48 -115z" />
    <glyph glyph-name="nine.cap" horiz-adv-x="527" 
d="M297 729q85 0 137 -42q42 -35 60.5 -84.5t18.5 -132.5q0 -119 -36 -237.5t-107 -182.5q-70 -63 -166 -63q-82 0 -134.5 46t-56.5 130h53q4 -66 41 -98.5t99 -32.5q75 0 133 54q39 37 70 114.5t47 175.5h-2q-32 -55 -83.5 -84.5t-108.5 -29.5q-87 0 -146 55.5t-59 153.5
q0 107 67.5 182.5t172.5 75.5zM459 518q0 79 -46 123t-117 44q-85 0 -134.5 -62t-49.5 -151q0 -74 41 -120t107 -46q90 0 144.5 62t54.5 150z" />
    <glyph glyph-name="percent.cap" horiz-adv-x="777" 
d="M254 729q59 0 93 -41.5t34 -110.5q0 -96 -45.5 -165t-121.5 -69q-59 0 -94 41.5t-35 110.5q0 96 46.5 165t122.5 69zM334 577q0 51 -20 82.5t-61 31.5q-57 0 -89 -58.5t-32 -137.5q0 -50 21.5 -81.5t61.5 -32.5q56 -1 87.5 58.5t31.5 137.5zM111 0l547 715h47l-546 -715
h-48zM602 373q59 0 93 -41.5t34 -110.5q0 -96 -45.5 -165t-121.5 -69q-59 0 -94 41.5t-35 110.5q0 96 46.5 165t122.5 69zM682 221q0 51 -20 82.5t-61 31.5q-57 0 -89 -58.5t-32 -137.5q0 -50 21.5 -81.5t61.5 -32.5q56 -1 87.5 58.5t31.5 137.5z" />
    <glyph glyph-name="perthousand.cap" horiz-adv-x="1103" 
d="M254 729q59 0 93 -41.5t34 -110.5q0 -96 -45.5 -165t-121.5 -69q-59 0 -94 41.5t-35 110.5q0 96 46.5 165t122.5 69zM334 577q0 51 -20 82.5t-61 31.5q-57 0 -89 -58.5t-32 -137.5q0 -50 21.5 -81.5t61.5 -32.5q56 -1 87.5 58.5t31.5 137.5zM101 0l547 715h47l-546 -715
h-48zM582 373q59 0 93 -41.5t34 -110.5q0 -96 -45.5 -165t-121.5 -69q-59 0 -94 41.5t-35 110.5q0 96 46.5 165t122.5 69zM662 221q0 51 -20 82.5t-61 31.5q-57 0 -89 -58.5t-32 -137.5q0 -50 21.5 -81.5t61.5 -32.5q56 -1 87.5 58.5t31.5 137.5zM929 373q59 0 93 -41.5
t34 -110.5q0 -96 -45.5 -165t-121.5 -69q-59 0 -94 41.5t-35 110.5q0 96 46.5 165t122.5 69zM1009 221q0 51 -20 82.5t-61 31.5q-57 0 -89 -58.5t-32 -137.5q0 -50 21.5 -81.5t61.5 -32.5q56 -1 87.5 58.5t31.5 137.5z" />
    <glyph glyph-name="zero.numerator" horiz-adv-x="370" 
d="M205 309q-63 0 -98.5 42.5t-35.5 117.5q0 58 20 114.5t65 98t105 41.5q62 0 97 -40.5t35 -117.5q0 -59 -19.5 -115.5t-64 -98.5t-104.5 -42zM120 468q0 -119 88 -119q43 0 75.5 37.5t46.5 85.5t14 94q0 54 -21.5 86.5t-64.5 32.5q-44 0 -76.5 -36.5t-47 -84.5t-14.5 -96z
" />
    <glyph glyph-name="one.numerator" horiz-adv-x="216" 
d="M120 317l57 295h-92l6 32q53 2 78 18.5t37 55.5h37l-77 -401h-46z" />
    <glyph glyph-name="two.numerator" horiz-adv-x="312" 
d="M301 317h-266q6 36 21 64t40 50t46 35.5t55 31.5q31 16 43 23.5t31 22.5t26 32t7 39q0 32 -20.5 51t-53.5 19q-37 0 -63 -25t-35 -74h-44q9 67 49 102t96 35q49 0 84 -27.5t35 -79.5q0 -28 -9.5 -50t-31.5 -40.5t-41 -30t-55 -30.5q-53 -28 -82.5 -52.5t-38.5 -57.5h215z
" />
    <glyph glyph-name="three.numerator" horiz-adv-x="332" 
d="M194 309q-63 0 -102.5 35t-40.5 97h42q6 -94 102 -94q40 0 66.5 23.5t27.5 64.5q0 34 -21.5 54t-61.5 20h-21l7 36h29q37 -1 60 19.5t23 58.5q0 31 -18.5 47.5t-49.5 16.5q-40 0 -66 -23.5t-33 -66.5h-42q9 58 47.5 92t94.5 34q48 0 80 -24.5t32 -73.5q0 -36 -20 -61.5
t-54 -36.5v-2q27 -10 43.5 -34t16.5 -53q0 -58 -40.5 -93.5t-100.5 -35.5z" />
    <glyph glyph-name="four.numerator" horiz-adv-x="329" 
d="M220 317l18 100h-195l9 43l248 259h41l-51 -267h59l-7 -35h-60l-19 -100h-43zM95 453v-1h151l38 200h-1z" />
    <glyph glyph-name="five.numerator" horiz-adv-x="328" 
d="M187 309q-52 0 -90.5 30.5t-41.5 84.5h45q3 -34 27.5 -55t62.5 -21q45 0 72 29.5t27 77.5q0 39 -21.5 62t-59.5 23q-52 0 -81 -38h-43l63 213h207l-8 -39h-170l-38 -128h1q31 30 82 30q50 0 82.5 -33t32.5 -88q0 -64 -41.5 -106t-107.5 -42z" />
    <glyph glyph-name="six.numerator" horiz-adv-x="338" 
d="M198 309q-61 0 -95 36q-36 39 -36 109q0 61 18.5 120t63.5 104t106 45q105 0 111 -110h-45q-2 73 -68 73q-51 0 -86.5 -44.5t-50.5 -121.5h2q38 57 107 57q50 0 84.5 -32.5t34.5 -86.5q0 -64 -40.5 -106.5t-105.5 -42.5zM112 432q0 -39 24.5 -62t62.5 -23q47 0 74 30.5
t27 78.5q0 36 -23 59.5t-60 23.5q-46 0 -75.5 -30.5t-29.5 -76.5z" />
    <glyph glyph-name="seven.numerator" horiz-adv-x="317" 
d="M112 317q22 101 79.5 198.5t125.5 159.5v1h-218l7 39h267l-7 -38q-69 -61 -124.5 -155.5t-79.5 -204.5h-50z" />
    <glyph glyph-name="eight.numerator" horiz-adv-x="343" 
d="M199 311q-59 0 -99.5 28.5t-40.5 81.5q0 86 93 114v2q-45 23 -45 73q0 51 39.5 83t93.5 32q48 0 83 -26t35 -75q0 -68 -72 -93v-2q27 -12 44.5 -36t17.5 -54q1 -60 -40.5 -94t-108.5 -34zM105 423q0 -37 26.5 -56.5t70.5 -19.5t72.5 23.5t27.5 67.5q0 37 -27 58t-64 21
q-45 0 -75.5 -25t-30.5 -69zM152 608q0 -28 21.5 -42.5t52.5 -14.5q36 0 62 17.5t26 53.5q0 31 -20.5 49.5t-55.5 18.5q-38 0 -62 -22.5t-24 -59.5z" />
    <glyph glyph-name="nine.numerator" horiz-adv-x="345" 
d="M233 723q63 0 94 -36q37 -36 37 -110q0 -67 -21 -132.5t-61 -100.5q-41 -35 -100 -35q-51 0 -84.5 28t-37.5 88h45q4 -78 80 -78q42 0 71 28q42 42 60 137h-2q-18 -26 -47.5 -41.5t-59.5 -15.5q-50 0 -85.5 33.5t-35.5 86.5q0 63 42 105.5t105 42.5zM319 599
q0 40 -24.5 64t-62.5 24q-45 0 -73 -31.5t-28 -77.5q0 -37 23 -61t59 -24q47 0 76.5 30.5t29.5 75.5z" />
    <glyph glyph-name="zero.denominator" horiz-adv-x="370" 
d="M144 -8q-63 0 -98.5 42.5t-35.5 117.5q0 58 20 114.5t65 98t105 41.5q62 0 97 -40.5t35 -117.5q0 -59 -19.5 -115.5t-64 -98.5t-104.5 -42zM59 151q0 -119 88 -119q43 0 75.5 37.5t46.5 85.5t14 94q0 54 -21.5 86.5t-64.5 32.5q-44 0 -76.5 -36.5t-47 -84.5t-14.5 -96z
" />
    <glyph glyph-name="one.denominator" horiz-adv-x="216" 
d="M59 0l57 295h-92l6 32q53 2 78 18.5t37 55.5h37l-77 -401h-46z" />
    <glyph glyph-name="two.denominator" horiz-adv-x="312" 
d="M240 0h-266q6 36 21 64t40 50t46 35.5t55 31.5q31 16 43 23.5t31 22.5t26 32t7 39q0 32 -20.5 51t-53.5 19q-37 0 -63 -25t-35 -74h-44q9 67 49 102t96 35q49 0 84 -27.5t35 -79.5q0 -28 -9.5 -50t-31.5 -40.5t-41 -30t-55 -30.5q-53 -28 -82.5 -52.5t-38.5 -57.5h215z
" />
    <glyph glyph-name="three.denominator" horiz-adv-x="332" 
d="M133 -8q-63 0 -102.5 35t-40.5 97h42q6 -94 102 -94q40 0 66.5 23.5t27.5 64.5q0 34 -21.5 54t-61.5 20h-21l7 36h29q37 -1 60 19.5t23 58.5q0 31 -18.5 47.5t-49.5 16.5q-40 0 -66 -23.5t-33 -66.5h-42q9 58 47.5 92t94.5 34q48 0 80 -24.5t32 -73.5q0 -36 -20 -61.5
t-54 -36.5v-2q27 -10 43.5 -34t16.5 -53q0 -58 -40.5 -93.5t-100.5 -35.5z" />
    <glyph glyph-name="four.denominator" horiz-adv-x="329" 
d="M159 0l18 100h-195l9 43l248 259h41l-51 -267h59l-7 -35h-60l-19 -100h-43zM34 136v-1h151l38 200h-1z" />
    <glyph glyph-name="five.denominator" horiz-adv-x="328" 
d="M126 -8q-52 0 -90.5 30.5t-41.5 84.5h45q3 -34 27.5 -55t62.5 -21q45 0 72 29.5t27 77.5q0 39 -21.5 62t-59.5 23q-52 0 -81 -38h-43l63 213h207l-8 -39h-170l-38 -128h1q31 30 82 30q50 0 82.5 -33t32.5 -88q0 -64 -41.5 -106t-107.5 -42z" />
    <glyph glyph-name="six.denominator" horiz-adv-x="338" 
d="M137 -8q-61 0 -95 36q-36 39 -36 109q0 61 18.5 120t63.5 104t106 45q105 0 111 -110h-45q-2 73 -68 73q-51 0 -86.5 -44.5t-50.5 -121.5h2q38 57 107 57q50 0 84.5 -32.5t34.5 -86.5q0 -64 -40.5 -106.5t-105.5 -42.5zM51 115q0 -39 24.5 -62t62.5 -23q47 0 74 30.5
t27 78.5q0 36 -23 59.5t-60 23.5q-46 0 -75.5 -30.5t-29.5 -76.5z" />
    <glyph glyph-name="seven.denominator" horiz-adv-x="317" 
d="M51 0q22 101 79.5 198.5t125.5 159.5v1h-218l7 39h267l-7 -38q-69 -61 -124.5 -155.5t-79.5 -204.5h-50z" />
    <glyph glyph-name="eight.denominator" horiz-adv-x="343" 
d="M138 -6q-59 0 -99.5 28.5t-40.5 81.5q0 86 93 114v2q-45 23 -45 73q0 51 39.5 83t93.5 32q48 0 83 -26t35 -75q0 -68 -72 -93v-2q27 -12 44.5 -36t17.5 -54q1 -60 -40.5 -94t-108.5 -34zM44 106q0 -37 26.5 -56.5t70.5 -19.5t72.5 23.5t27.5 67.5q0 37 -27 58t-64 21
q-45 0 -75.5 -25t-30.5 -69zM91 291q0 -28 21.5 -42.5t52.5 -14.5q36 0 62 17.5t26 53.5q0 31 -20.5 49.5t-55.5 18.5q-38 0 -62 -22.5t-24 -59.5z" />
    <glyph glyph-name="nine.denominator" horiz-adv-x="345" 
d="M172 406q62 0 94 -36q37 -36 37 -110q0 -67 -21 -132.5t-61 -100.5q-41 -35 -100 -35q-51 0 -84.5 28t-37.5 88h45q4 -78 80 -78q42 0 71 28q42 42 60 137h-2q-18 -26 -47.5 -41.5t-59.5 -15.5q-50 0 -85.5 33.5t-35.5 86.5q0 63 42 105.5t105 42.5zM258 282
q0 40 -24.5 64t-62.5 24q-45 0 -73 -31.5t-28 -77.5q0 -37 23 -61t59 -24q47 0 76.5 30.5t29.5 75.5z" />
    </font>
</defs>
</svg>
