<?xml version="1.0" standalone="no"?>
<!DOCTYPE svg PUBLIC "-//W3C//DTD SVG 1.1//EN" "http://www.w3.org/Graphics/SVG/1.1/DTD/svg11.dtd" >
<svg xmlns="http://www.w3.org/2000/svg" xmlns:xlink="http://www.w3.org/1999/xlink" version="1.1">
<metadata>
Created by FontForge 20170731 at Sun Aug  4 23:51:50 2013
 By Aleksey,,,
Copyright 2011 Schwartzco Inc dba Commercial Type.
</metadata>
<defs>
<font id="NeueHaasDisplay-BoldItalic" horiz-adv-x="492" >
  <font-face 
    font-family="Neue Haas Grotesk Display Pro"
    font-weight="700"
    font-style="italic"
    font-stretch="normal"
    units-per-em="1000"
    panose-1="2 13 8 4 3 5 2 12 2 3"
    ascent="818"
    descent="-182"
    x-height="512"
    cap-height="715"
    bbox="-208 -263 1207 935"
    underline-thickness="50"
    underline-position="-350"
    slope="-11"
    unicode-range="U+0020-FB04"
  />
<missing-glyph 
 />
    <glyph glyph-name="f_f" unicode="ff" horiz-adv-x="639" 
d="M25 0l79 408h-65l20 104h65l8 43q16 81 63 118q50 38 143 38q32 0 70 -5l-22 -114q-22 2 -27 2q-30 0 -47.5 -12.5t-23.5 -44.5l-5 -25h138l10 48q15 81 63 118q50 38 143 38q31 0 76 -5l-22 -114q-26 2 -32 2q-32 0 -49 -12.5t-23 -44.5l-6 -30h93l-20 -104h-94
l-78 -408h-160l79 408h-138l-79 -408h-159z" />
    <glyph glyph-name="fi" unicode="fi" horiz-adv-x="578" 
d="M329 0l99 512h160l-99 -512h-160zM442 583l25 132h160l-25 -132h-160zM25 0l79 408h-65l20 104h65l9 48q17 82 63 118q50 38 137 38q43 0 82 -6l-22 -113q-24 2 -32 2q-31 0 -48.5 -12.5t-23.5 -44.5l-6 -30h94l-21 -104h-93l-79 -408h-159z" />
    <glyph glyph-name="fl" unicode="fl" horiz-adv-x="582" 
d="M330 0l138 715h163l-138 -715h-163zM25 0l79 408h-65l20 104h65l9 48q17 82 63 118q50 38 137 38q43 0 82 -6l-22 -113q-24 2 -32 2q-31 0 -48.5 -12.5t-23.5 -44.5l-6 -30h94l-21 -104h-93l-79 -408h-159z" />
    <glyph glyph-name="f_f_i" unicode="ffi" horiz-adv-x="875" 
d="M626 0l99 512h160l-99 -512h-160zM739 583l25 132h160l-25 -132h-160zM25 0l79 408h-65l20 104h65l8 43q16 81 63 118q50 38 143 38q32 0 70 -5l-22 -114q-22 2 -27 2q-30 0 -47.5 -12.5t-23.5 -44.5l-5 -25h138l10 48q15 81 63 118q50 38 143 38q31 0 76 -5l-22 -114
q-26 2 -32 2q-32 0 -49 -12.5t-23 -44.5l-6 -30h93l-20 -104h-94l-78 -408h-160l79 408h-138l-79 -408h-159z" />
    <glyph glyph-name="f_f_l" unicode="ffl" horiz-adv-x="879" 
d="M25 0l79 408h-65l20 104h65l8 43q16 81 63 118q50 38 143 38q32 0 70 -5l-22 -114q-22 2 -27 2q-30 0 -47.5 -12.5t-23.5 -44.5l-5 -25h138l10 48q15 81 63 118q50 38 143 38q31 0 76 -5l-22 -114q-26 2 -32 2q-32 0 -49 -12.5t-23 -44.5l-6 -30h93l-20 -104h-94
l-78 -408h-160l79 408h-138l-79 -408h-159zM627 0l138 715h163l-138 -715h-163z" />
    <glyph glyph-name=".notdef" 
 />
    <glyph glyph-name=".null" horiz-adv-x="0" 
 />
    <glyph glyph-name="nonmarkingreturn" horiz-adv-x="333" 
 />
    <glyph glyph-name="space" unicode=" " horiz-adv-x="155" 
 />
    <glyph glyph-name="exclam" unicode="!" horiz-adv-x="260" 
d="M82 234l21 315l32 166h166l-34 -177l-103 -304h-82zM-4 0l33 168h168l-33 -168h-168z" />
    <glyph glyph-name="quotedbl" unicode="&#x22;" horiz-adv-x="418" 
d="M76 446l52 269h139l-51 -269h-140zM276 446l51 269h139l-51 -269h-139z" />
    <glyph glyph-name="numbersign" unicode="#" horiz-adv-x="579" 
d="M58 0l48 173h-92l36 125h91l27 101h-91l36 126h91l45 161h102l-45 -161h101l45 161h103l-45 -161h92l-36 -126h-91l-28 -101h91l-36 -125h-90l-48 -173h-102l48 173h-102l-47 -173h-103zM243 298h102l27 101h-101z" />
    <glyph glyph-name="dollar" unicode="$" horiz-adv-x="602" 
d="M284 -14h-6l-17 -89h-60l18 94q-104 14 -164 71t-54 159h164q-4 -85 79 -102l31 164q-108 44 -153 86t-45 117q0 102 74.5 158t194.5 55h10l12 61h60l-13 -66q87 -14 140 -65t52 -144h-156q-1 62 -61 81l-28 -145q106 -41 155 -88t49 -123q0 -110 -79.5 -167t-202.5 -57z
M401 188q0 24 -14 39t-56 33l-28 -145q43 3 70.5 20.5t27.5 52.5zM237 509q-1 -21 13 -34.5t56 -31.5l26 131q-38 -1 -66.5 -16.5t-28.5 -48.5z" />
    <glyph glyph-name="percent" unicode="%" horiz-adv-x="846" 
d="M226 385q27 0 45.5 28.5t26 63.5t7.5 70q0 68 -47 68q-27 0 -46 -28t-26.5 -63t-7.5 -69q0 -70 48 -70zM221 299q-74 0 -118 46t-44 119q0 98 56.5 167t146.5 69q74 0 118 -45t44 -120q0 -98 -56 -167t-147 -69zM138 0l507 686h95l-507 -686h-95zM619 69q27 0 45.5 28.5
t26 63.5t7.5 70q0 69 -47 69q-27 0 -46 -28t-26.5 -63.5t-7.5 -69.5q0 -70 48 -70zM614 -17q-74 0 -117.5 46t-43.5 119q0 98 56 167t146 69q74 0 118.5 -45t44.5 -119q0 -98 -56 -167.5t-148 -69.5z" />
    <glyph glyph-name="ampersand" unicode="&#x26;" horiz-adv-x="681" 
d="M246 -12q-101 0 -168.5 50t-67.5 150q0 84 53.5 140t139.5 86q-36 56 -36 122q0 83 59.5 133t147.5 50q81 0 138 -42t57 -124q0 -120 -159 -183l68 -114q28 44 44 102h140q-29 -120 -113 -219l85 -139h-190l-24 41q-78 -53 -174 -53zM267 116q47 0 92 31l-98 166
q-36 -15 -60 -42.5t-25 -66.5q-1 -41 23.5 -64.5t67.5 -23.5zM352 456q73 34 73 91q0 24 -13 40.5t-38 16.5t-40 -18.5t-15 -47.5q0 -42 33 -82z" />
    <glyph glyph-name="quotesingle" unicode="'" horiz-adv-x="219" 
d="M76 446l52 269h139l-51 -269h-140z" />
    <glyph glyph-name="parenleft" unicode="(" horiz-adv-x="335" 
d="M112 -138q-63 140 -63 295q0 338 233 597h142q-221 -297 -221 -613q0 -142 40 -279h-131z" />
    <glyph glyph-name="parenright" unicode=")" horiz-adv-x="335" 
d="M-70 -138q221 296 221 614q0 148 -40 278h132q62 -141 62 -294q0 -336 -232 -598h-143z" />
    <glyph glyph-name="asterisk" unicode="*" horiz-adv-x="428" 
d="M308 352l-56 105l-92 -100l-62 57l91 96l-105 46l42 80l105 -47l24 126h92l-24 -129l115 31l17 -83l-123 -32l57 -102z" />
    <glyph glyph-name="plus" unicode="+" horiz-adv-x="557" 
d="M175 79l36 186h-171l26 129h170l35 185h138l-36 -185h171l-25 -129h-171l-36 -186h-137z" />
    <glyph glyph-name="comma" unicode="," horiz-adv-x="231" 
d="M-52 -179l13 70q84 19 98 109h-78l33 168h168l-31 -157q-18 -92 -65 -136q-48 -46 -138 -54z" />
    <glyph glyph-name="hyphen" unicode="-" horiz-adv-x="330" 
d="M16 183l27 137h267l-26 -137h-268z" />
    <glyph glyph-name="period" unicode="." horiz-adv-x="231" 
d="M-19 0l33 168h168l-33 -168h-168z" />
    <glyph glyph-name="slash" unicode="/" horiz-adv-x="430" 
d="M-39 0l397 715h143l-396 -715h-144z" />
    <glyph glyph-name="zero" unicode="0" horiz-adv-x="643" 
d="M306 115q45 0 79.5 31.5t52.5 81t26.5 99.5t8.5 97q0 146 -102 146q-46 0 -80.5 -33t-53 -83.5t-27 -100.5t-8.5 -95q0 -143 104 -143zM302 -16q-124 0 -196.5 78t-72.5 211q0 64 14.5 125.5t43.5 116t69.5 96t96.5 65.5t121 24q121 0 192.5 -77.5t71.5 -210.5
q0 -81 -21.5 -156t-62 -136.5t-107 -98.5t-149.5 -37z" />
    <glyph glyph-name="one" unicode="1" horiz-adv-x="391" 
d="M112 0l84 438h-144l22 114q158 5 207 139h131l-134 -691h-166z" />
    <glyph glyph-name="two" unicode="2" horiz-adv-x="571" 
d="M-29 0q15 88 55.5 144t106.5 102q42 30 114 72.5t92 56.5q73 48 73 113q0 35 -19.5 55.5t-55.5 20.5q-45 0 -78 -31q-32 -35 -43 -102h-157q15 118 75 182q76 86 214 86q100 0 166.5 -51.5t66.5 -147.5q0 -81 -41.5 -133.5t-116.5 -97.5q-24 -15 -71 -41t-80.5 -47
t-55.5 -42v-1h300l-26 -138h-519z" />
    <glyph glyph-name="three" unicode="3" horiz-adv-x="589" 
d="M282 -16q-130 0 -204.5 68t-65.5 185h159q-2 -57 25 -91t88 -34q47 0 77 27t30 72q0 42 -29 65t-84 23h-29l22 116h44q45 0 75 21t30 64q0 33 -22.5 53.5t-61.5 20.5q-49 0 -78 -28.5t-38 -77.5h-158q14 105 89.5 168t191.5 63q104 0 172.5 -46.5t68.5 -134.5
q0 -118 -125 -160v-2q100 -38 100 -146q0 -103 -79.5 -164.5t-197.5 -61.5z" />
    <glyph glyph-name="four" unicode="4" horiz-adv-x="610" 
d="M285 0l29 153h-315l31 154l387 385h162l-80 -412h98l-25 -127h-98l-29 -153h-160zM156 280h183l44 229h-2l-225 -227v-2z" />
    <glyph glyph-name="five" unicode="5" horiz-adv-x="588" 
d="M268 -16q-113 0 -188 55.5t-79 165.5h163q3 -39 32 -63t76 -24q53 0 87.5 36t34.5 94q0 46 -26 73.5t-73 27.5q-59 0 -97 -43h-152l112 379h438l-26 -135h-310l-38 -125h3q49 44 135 44q93 0 148.5 -56.5t55.5 -152.5q0 -123 -83 -199.5t-213 -76.5z" />
    <glyph glyph-name="six" unicode="6" horiz-adv-x="603" 
d="M296 -16q-122 0 -194 72t-71 202q0 99 35.5 199t103.5 162q86 80 212 80q95 0 158.5 -44.5t71.5 -138.5h-158q-3 31 -24.5 47.5t-57.5 16.5q-56 0 -96 -46.5t-61 -128.5h2q64 66 157 66q85 0 147 -58.5t61 -156.5q0 -121 -81.5 -196t-204.5 -76zM295 109q55 0 91.5 37
t36.5 97q0 46 -27.5 75.5t-76.5 29.5q-54 0 -91.5 -37t-37.5 -96q0 -48 28.5 -77t76.5 -29z" />
    <glyph glyph-name="seven" unicode="7" horiz-adv-x="536" 
d="M71 0q36 169 127.5 310.5t193.5 230.5v2h-319l27 142h499l-25 -128q-114 -98 -204 -244t-125 -313h-174z" />
    <glyph glyph-name="eight" unicode="8" horiz-adv-x="599" 
d="M281 -16q-51 0 -98 11.5t-87.5 34t-64.5 63t-24 92.5q0 137 148 186v3q-67 39 -67 121q0 94 77 149t186 55q101 0 174 -45.5t73 -134.5q0 -107 -114 -158v-3q43 -21 65.5 -59.5t22.5 -86.5q0 -109 -84.5 -168.5t-206.5 -59.5zM287 108q51 1 86 30t35 80q-1 44 -32 68
t-79 24q-50 0 -87 -28.5t-37 -80.5q0 -44 32 -68.5t82 -24.5zM338 416q45 0 74.5 22t29.5 66q-1 37 -27 58t-67 21q-44 0 -75 -22.5t-31 -66.5q-1 -39 25.5 -58.5t70.5 -19.5z" />
    <glyph glyph-name="nine" unicode="9" horiz-adv-x="607" 
d="M260 -16q-98 0 -165.5 45.5t-74.5 140.5h160q4 -30 27 -48t61 -18q116 0 156 175h-2q-70 -66 -154 -66q-91 0 -153 56.5t-62 152.5q0 124 83.5 200.5t206.5 76.5q122 0 193.5 -68.5t71.5 -199.5q0 -105 -30.5 -201t-91.5 -159q-84 -87 -226 -87zM321 337q55 0 92 35.5
t37 95.5q0 48 -28.5 77.5t-78.5 29.5q-55 0 -91.5 -37.5t-36.5 -96.5q-1 -47 28 -75.5t78 -28.5z" />
    <glyph glyph-name="colon" unicode=":" horiz-adv-x="237" 
d="M-16 0l33 168h168l-33 -168h-168zM45 310l32 168h168l-33 -168h-167z" />
    <glyph glyph-name="semicolon" unicode=";" horiz-adv-x="237" 
d="M-49 -179l13 70q84 19 98 109h-78l33 168h168l-31 -157q-18 -92 -65 -136q-48 -46 -138 -54zM45 310l32 168h168l-33 -168h-167z" />
    <glyph glyph-name="less" unicode="&#x3c;" horiz-adv-x="494" 
d="M410 63l-370 184l29 147l436 160l-28 -144l-193 -67l-101 -32v-2q51 -16 88 -31l167 -68z" />
    <glyph glyph-name="equal" unicode="=" horiz-adv-x="554" 
d="M24 141l25 125h461l-24 -125h-462zM65 353l25 125h461l-24 -125h-462z" />
    <glyph glyph-name="greater" unicode="&#x3e;" horiz-adv-x="494" 
d="M8 64l28 143l193 68l101 31v2q-51 16 -88 31l-167 69l28 146l370 -184l-29 -146z" />
    <glyph glyph-name="question" unicode="?" horiz-adv-x="544" 
d="M181 234q14 73 36 107t66 64q11 8 39 24t43 26t28.5 29.5t13.5 41.5q0 33 -21 50.5t-57 17.5q-43 0 -73.5 -26.5t-39.5 -77.5h-161q19 115 95.5 176.5t191.5 61.5q97 0 165.5 -45.5t68.5 -140.5q0 -120 -123 -188q-85 -47 -96 -56q-25 -21 -32 -64h-144zM122 0l33 168
h168l-33 -168h-168z" />
    <glyph glyph-name="at" unicode="@" horiz-adv-x="899" 
d="M433 -109q-176 0 -285.5 101t-109.5 274q0 192 128.5 320t323.5 128q168 0 281 -96t113 -263q0 -69 -22.5 -130t-76 -104t-129.5 -43q-114 0 -140 81h-2q-54 -78 -135 -78q-72 0 -111.5 46t-39.5 127q0 64 23 123t74 100t119 41q81 0 108 -72h2l13 61h137l-61 -271
q-17 -72 31 -72q57 0 85 57.5t28 130.5q0 135 -81 205.5t-218 70.5q-148 0 -248.5 -98t-100.5 -263q0 -132 78 -211.5t221 -79.5q91 0 182 37l29 -79q-92 -43 -216 -43zM428 188q48 0 74 46t26 103q0 34 -15 54.5t-42 20.5q-48 0 -73.5 -46t-25.5 -105q0 -32 14.5 -52.5
t41.5 -20.5z" />
    <glyph glyph-name="A" unicode="A" horiz-adv-x="676" 
d="M-52 0l378 715h178l125 -715h-181l-18 130h-242l-63 -130h-177zM334 429l-84 -173h164l-23 172l-10 103h-2q-28 -66 -45 -102z" />
    <glyph glyph-name="B" unicode="B" horiz-adv-x="657" 
d="M-2 0l138 715h306q101 0 158 -44q59 -47 59 -130q0 -58 -33 -100t-92 -61v-3q101 -37 101 -146q0 -107 -84 -172q-75 -59 -190 -59h-363zM198 141h158q49 0 78.5 23.5t29.5 70.5q0 37 -23.5 57t-62.5 20h-147zM254 431h142q40 0 67 19t27 63q0 29 -19 46.5t-54 17.5h-135
z" />
    <glyph glyph-name="C" unicode="C" horiz-adv-x="690" 
d="M345 -16q-145 0 -229 83t-84 228q0 114 45.5 212t135 160t204.5 62q123 0 195 -57q84 -65 92 -203h-174q-6 114 -120 114q-97 0 -148.5 -86t-51.5 -198q0 -75 33.5 -123t107.5 -48q56 0 95.5 31t55.5 89h175q-29 -130 -119 -199q-87 -65 -213 -65z" />
    <glyph glyph-name="D" unicode="D" horiz-adv-x="689" 
d="M-2 0l138 715h256q138 0 220 -80t82 -225q0 -189 -104 -301q-103 -109 -280 -109h-312zM201 148h109q98 0 152 68.5t54 184.5q0 82 -38.5 124.5t-112.5 42.5h-83z" />
    <glyph glyph-name="E" unicode="E" horiz-adv-x="608" 
d="M-2 0l138 715h519l-28 -144h-344l-25 -131h296l-26 -136h-297l-30 -155h356l-29 -149h-530z" />
    <glyph glyph-name="F" unicode="F" horiz-adv-x="582" 
d="M-2 0l138 715h513l-28 -148h-339l-28 -146h289l-28 -142h-289l-53 -279h-175z" />
    <glyph glyph-name="G" unicode="G" horiz-adv-x="720" 
d="M320 -16q-142 0 -223 98q-66 80 -66 211q0 112 47 210.5t139 162t210 63.5q122 -1 202 -62.5t85 -185.5h-171q-5 48 -37.5 75.5t-86.5 27.5q-98 0 -153.5 -85.5t-55.5 -201.5q0 -171 151 -171q64 0 107 34.5t56 94.5h-131l25 129h293l-74 -384h-122l5 80h-2
q-33 -45 -85 -70.5t-113 -25.5z" />
    <glyph glyph-name="H" unicode="H" horiz-adv-x="682" 
d="M-2 0l138 715h175l-53 -272h237l53 272h174l-138 -715h-174l57 299h-237l-57 -299h-175z" />
    <glyph glyph-name="I" unicode="I" horiz-adv-x="272" 
d="M-2 0l139 715h174l-138 -715h-175z" />
    <glyph glyph-name="J" unicode="J" horiz-adv-x="534" 
d="M222 -13q-116 0 -179 61t-39 182l10 48h159l-11 -55q-18 -91 66 -91q66 0 81 79l98 504h173l-100 -521q-17 -91 -69 -140q-70 -67 -189 -67z" />
    <glyph glyph-name="K" unicode="K" horiz-adv-x="675" 
d="M441 0l-143 314l-78 -71l-47 -243h-175l138 715h175l-51 -264l280 264h207l-314 -287l199 -428h-191z" />
    <glyph glyph-name="L" unicode="L" horiz-adv-x="546" 
d="M-2 0l138 715h175l-110 -566h308l-28 -149h-483z" />
    <glyph glyph-name="M" unicode="M" horiz-adv-x="821" 
d="M-2 0l138 715h232l23 -291l12 -187h1q36 93 74 175l140 303h240l-138 -715h-160l68 353l33 151h-2q-39 -90 -64 -144l-165 -360h-144l-28 361l-7 143h-2q-18 -103 -27 -150l-68 -354h-156z" />
    <glyph glyph-name="N" unicode="N" horiz-adv-x="687" 
d="M-2 0l138 715h175l125 -351l32 -101h2l88 452h169l-138 -715h-175l-122 341l-35 114h-2l-88 -455h-169z" />
    <glyph glyph-name="O" unicode="O" horiz-adv-x="727" 
d="M359 126q67 0 113.5 45.5t65 107t18.5 130.5q0 80 -36 129t-112 49q-67 0 -114 -47t-66 -110t-19 -133q0 -76 36.5 -123.5t113.5 -47.5zM354 -17q-143 0 -233 82.5t-89 229.5q1 117 46 215t134 158.5t204 60.5q145 0 231 -85t86 -233q0 -178 -103.5 -302.5t-275.5 -125.5
z" />
    <glyph glyph-name="P" unicode="P" horiz-adv-x="638" 
d="M-2 0l138 715h281q131 0 195 -69q53 -56 53 -148q0 -119 -75.5 -189t-197.5 -70h-171l-46 -239h-177zM248 378h129q48 0 80 27.5t32 80.5q0 81 -88 81h-116z" />
    <glyph glyph-name="Q" unicode="Q" horiz-adv-x="727" 
d="M598 -55l-77 77q-77 -38 -167 -39q-143 0 -233 82.5t-89 229.5q1 117 45.5 215t133 158.5t203.5 60.5q146 0 232.5 -85t86.5 -233q0 -190 -113 -314l66 -65zM359 125q28 0 52 6l-65 66l89 85l75 -75q46 74 46 202q0 80 -36 129t-112 49q-67 0 -114 -47t-66 -110t-19 -133
q0 -76 36.5 -124t113.5 -48z" />
    <glyph glyph-name="R" unicode="R" horiz-adv-x="659" 
d="M-2 0l138 715h296q107 0 171 -50.5t64 -140.5q0 -146 -151 -191v-3q85 -31 85 -135q0 -17 -2.5 -65.5t-2.5 -72.5q0 -39 14 -48v-9h-173q-9 12 -9 50q0 18 2 61t2 63q0 95 -98 95h-110l-51 -269h-175zM284 576l-34 -178h129q49 0 81 24.5t32 74.5q0 79 -87 79h-121z" />
    <glyph glyph-name="S" unicode="S" horiz-adv-x="627" 
d="M301 -17q-62 0 -115 13t-97.5 40t-69 75.5t-22.5 113.5h175q-1 -53 35 -78t99 -25q50 0 82.5 18.5t32.5 58.5q0 30 -30 48.5t-111 47.5q-108 38 -158.5 82t-50.5 125q0 108 75.5 167t198.5 59q55 0 103 -11.5t89 -36t63.5 -68.5t19.5 -104h-170q1 42 -28 64.5t-83 22.5
q-39 0 -69 -17t-31 -51q0 -28 24.5 -42t105.5 -42q15 -5 23 -8q103 -36 155 -82.5t52 -128.5q0 -116 -84.5 -178.5t-213.5 -62.5z" />
    <glyph glyph-name="T" unicode="T" horiz-adv-x="608" 
d="M166 0l110 567h-201l28 148h578l-28 -148h-203l-110 -567h-174z" />
    <glyph glyph-name="U" unicode="U" horiz-adv-x="673" 
d="M319 -13q-147 0 -224 72t-50 215l86 441h174l-89 -459q-12 -61 15 -94.5t93 -33.5q107 0 128 112l92 475h174l-94 -484q-47 -244 -305 -244z" />
    <glyph glyph-name="V" unicode="V" horiz-adv-x="635" 
d="M186 0l-101 715h179l40 -370l10 -132h2q29 72 55 127l174 375h179l-358 -715h-180z" />
    <glyph glyph-name="W" unicode="W" horiz-adv-x="921" 
d="M149 0l-62 715h174l14 -300l1 -180h2q36 100 65 175l120 305h161l13 -304l3 -176h2q38 109 67 182l119 298h177l-313 -715h-171l-15 344l-2 138h-2q-24 -77 -48 -138l-134 -344h-171z" />
    <glyph glyph-name="X" unicode="X" horiz-adv-x="673" 
d="M-51 0l305 382l-148 333h192l83 -213h2l159 213h196l-275 -347l161 -368h-199l-89 245h-2l-181 -245h-204z" />
    <glyph glyph-name="Y" unicode="Y" horiz-adv-x="639" 
d="M180 0l51 267l-145 448h183l52 -182l25 -111h2q35 59 68 109l124 184h189l-324 -454l-50 -261h-175z" />
    <glyph glyph-name="Z" unicode="Z" horiz-adv-x="629" 
d="M-26 0l26 137l367 371l63 60v3q-51 -1 -70 -1h-251l28 145h543l-26 -135l-356 -361l-75 -70v-3q54 1 76 1h283l-28 -147h-580z" />
    <glyph glyph-name="bracketleft" unicode="[" horiz-adv-x="389" 
d="M-21 -138l174 892h302l-25 -124h-150l-125 -645h151l-24 -123h-303z" />
    <glyph glyph-name="backslash" unicode="\" horiz-adv-x="418" 
d="M234 0l-148 715h132l148 -715h-132z" />
    <glyph glyph-name="bracketright" unicode="]" horiz-adv-x="389" 
d="M-47 -138l24 123h151l125 645h-151l24 124h303l-173 -892h-303z" />
    <glyph glyph-name="asciicircum" unicode="^" horiz-adv-x="458" 
d="M39 425l215 290h117l115 -290h-139l-55 151h-1l-109 -151h-143z" />
    <glyph glyph-name="underscore" unicode="_" horiz-adv-x="423" 
d="M-85 -169l19 100h428l-19 -100h-428z" />
    <glyph glyph-name="grave" unicode="`" 
d="M264 572l-97 148h175l43 -148h-121z" />
    <glyph glyph-name="a" unicode="a" horiz-adv-x="528" 
d="M155 -13q-70 0 -115.5 39t-45.5 109q0 87 56.5 124.5t161.5 45.5q83 6 112.5 17t29.5 46q0 22 -16.5 35.5t-47.5 13.5q-75 0 -91 -67h-149q15 82 77.5 129t170.5 47q102 0 155 -41q71 -53 49 -169l-46 -236q-11 -55 3 -73v-7h-154q-8 16 -8 56h-2q-59 -69 -140 -69z
M215 91q42 0 70 22.5t37 64.5l12 63q-29 -14 -87 -23q-2 0 -15.5 -2.5t-17.5 -3t-15.5 -3.5t-16 -6t-13 -8t-11.5 -11t-6 -15t-3 -20q0 -58 66 -58z" />
    <glyph glyph-name="b" unicode="b" horiz-adv-x="576" 
d="M313 -16q-116 0 -155 92h-2l-14 -76h-154l138 715h160l-50 -258h3q62 70 145 70t130.5 -61.5t47.5 -158.5q0 -81 -26 -152.5t-84 -121t-139 -49.5zM281 112q41 0 69 30t39 70t11 85q0 46 -19 77t-63 31q-61 0 -94.5 -56.5t-33.5 -125.5q0 -48 22 -79.5t69 -31.5z" />
    <glyph glyph-name="c" unicode="c" horiz-adv-x="532" 
d="M257 -16q-106 0 -175 57t-69 170q0 131 80.5 223t210.5 92q98 0 159 -48.5t65 -147.5h-154q-7 77 -74 77q-61 0 -94 -62t-33 -137q0 -103 87 -103q77 0 100 89h153q-19 -98 -88.5 -153.5t-167.5 -56.5z" />
    <glyph glyph-name="d" unicode="d" horiz-adv-x="582" 
d="M205 -16q-87 0 -139.5 61t-51.5 163q0 127 70.5 223t188.5 96q100 0 144 -81h3l52 269h160l-138 -715h-153l11 59h-2q-56 -75 -145 -75zM265 110q59 0 93 56t34 124q0 50 -22.5 82.5t-67.5 32.5q-59 0 -91 -57.5t-32 -127.5q0 -110 86 -110z" />
    <glyph glyph-name="e" unicode="e" horiz-adv-x="543" 
d="M522 214h-351q1 -54 21.5 -83.5t71.5 -29.5q65 0 88 52h158q-25 -77 -91 -122.5t-162 -45.5q-109 0 -176.5 61t-67.5 175q0 125 80 215.5t203 90.5q81 0 137 -34q119 -75 89 -279zM294 412q-38 0 -67 -27t-43 -74h192q2 45 -18.5 73t-63.5 28z" />
    <glyph glyph-name="f" unicode="f" horiz-adv-x="341" 
d="M25 0l79 408h-65l20 104h65l9 48q17 82 63 118q50 38 137 38q43 0 82 -6l-22 -113q-24 2 -32 2q-31 0 -48.5 -12.5t-23.5 -44.5l-6 -30h94l-21 -104h-93l-79 -408h-159z" />
    <glyph glyph-name="g" unicode="g" horiz-adv-x="562" 
d="M219 -177q-90 0 -155 41t-75 124h158q11 -51 76 -51q81 0 99 95l10 52h-3q-53 -55 -124 -56q-83 0 -136.5 57.5t-53.5 148.5q0 116 68 204.5t178 88.5q102 0 145 -78h2l12 63h153l-93 -481q-21 -106 -88 -158q-63 -50 -173 -50zM258 147q55 0 88 47.5t33 108.5
q-1 45 -23 74t-64 29q-55 0 -87 -47t-32 -111q0 -44 21.5 -72.5t63.5 -28.5z" />
    <glyph glyph-name="h" unicode="h" horiz-adv-x="556" 
d="M-12 0l138 715h160l-53 -273h3q64 85 158 85q79 0 117.5 -57.5t20.5 -154.5l-61 -315h-160l59 303q18 92 -60 92q-41 0 -69.5 -32t-38.5 -82l-54 -281h-160z" />
    <glyph glyph-name="i" unicode="i" horiz-adv-x="237" 
d="M-12 0l99 512h160l-99 -512h-160zM101 583l25 132h160l-25 -132h-160z" />
    <glyph glyph-name="j" unicode="j" horiz-adv-x="237" 
d="M-38 -172q-49 0 -86 10l21 113q44 -3 63.5 5t25.5 40l101 516h160l-103 -532q-17 -82 -60 -117q-46 -35 -122 -35zM101 583l25 132h160l-25 -132h-160z" />
    <glyph glyph-name="k" unicode="k" horiz-adv-x="540" 
d="M-12 0l138 715h158l-74 -383l176 180h186l-208 -197l133 -315h-176l-82 209l-64 -60l-29 -149h-158z" />
    <glyph glyph-name="l" unicode="l" horiz-adv-x="241" 
d="M-11 0l138 715h163l-138 -715h-163z" />
    <glyph glyph-name="m" unicode="m" horiz-adv-x="845" 
d="M-12 0l99 512h154l-15 -77h3q64 92 155 92q96 0 126 -95h2q67 95 170 95q81 0 119 -58.5t19 -157.5l-60 -311h-160l59 305q18 90 -52 90q-38 0 -63.5 -30.5t-35.5 -85.5l-54 -279h-160l59 305q8 42 -5 66t-47 24q-38 0 -63.5 -31t-35.5 -85l-54 -279h-160z" />
    <glyph glyph-name="n" unicode="n" horiz-adv-x="556" 
d="M-12 0l99 512h155l-16 -81h3q67 96 165 96q79 0 117.5 -57.5t20.5 -154.5l-61 -315h-160l59 303q18 92 -60 92q-40 0 -69 -32t-39 -82l-54 -281h-160z" />
    <glyph glyph-name="o" unicode="o" horiz-adv-x="567" 
d="M263 98q44 0 74.5 33.5t42.5 77t11 89.5q0 49 -22 81.5t-68 32.5q-43 0 -73.5 -34t-42.5 -77.5t-11 -88.5q0 -50 21.5 -82t67.5 -32zM260 -16q-104 0 -175.5 61t-71.5 174q0 129 81.5 218t211.5 89q105 0 175.5 -60.5t71.5 -172.5q0 -131 -81 -220t-212 -89z" />
    <glyph glyph-name="p" unicode="p" horiz-adv-x="578" 
d="M-45 -169l132 681h153l-12 -66h2q64 81 157 81q83 0 130.5 -62.5t47.5 -160.5q0 -59 -15 -114t-44.5 -102t-79 -75.5t-112.5 -28.5q-107 0 -150 83h-3l-46 -236h-160zM279 106q42 0 70.5 30.5t40 71t11.5 84.5q0 46 -20 77t-64 31q-59 0 -94 -57.5t-35 -125.5
q0 -46 22.5 -78.5t68.5 -32.5z" />
    <glyph glyph-name="q" unicode="q" horiz-adv-x="580" 
d="M299 -169l43 225h-2q-54 -72 -140 -72q-87 0 -137 58t-50 160q0 128 72 226.5t191 98.5q49 0 87.5 -22.5t57.5 -64.5h3l14 72h153l-132 -681h-160zM259 109q60 0 95.5 54.5t35.5 124.5q0 51 -22 82.5t-66 31.5q-61 0 -93.5 -56.5t-32.5 -128.5q0 -108 83 -108z" />
    <glyph glyph-name="r" unicode="r" horiz-adv-x="376" 
d="M-12 0l99 512h154l-17 -84h3q57 92 148 92q24 0 36 -4l-28 -144h-3q-79 12 -125 -23t-64 -125l-43 -224h-160z" />
    <glyph glyph-name="s" unicode="s" horiz-adv-x="491" 
d="M229 -16q-98 0 -166.5 46t-72.5 136h152q5 -75 90 -75q71 0 71 49q0 15 -13 26t-29.5 17t-50.5 16l-21 6q-74 22 -113 55t-39 96q0 81 61.5 126t159.5 45q91 0 152 -41t66 -123h-147q-3 28 -23 44t-54 16q-28 0 -47.5 -10.5t-19.5 -32.5q0 -11 6 -19t24 -15.5t31.5 -11.5
t49.5 -14q73 -21 115.5 -55t42.5 -99q0 -88 -59.5 -135t-165.5 -47z" />
    <glyph glyph-name="t" unicode="t" horiz-adv-x="343" 
d="M196 -6q-173 0 -141 158l50 258h-65l20 102h65l31 162h157l-32 -162h91l-20 -102h-91l-46 -239q-5 -30 4.5 -42t38.5 -12q26 0 38 2l-23 -116q-25 -9 -77 -9z" />
    <glyph glyph-name="u" unicode="u" horiz-adv-x="551" 
d="M163 -15q-83 0 -122.5 55t-20.5 152l61 320h160l-58 -298q-18 -97 56 -97q41 0 69 29.5t39 82.5l54 283h160l-99 -512h-153l15 77h-3q-62 -92 -158 -92z" />
    <glyph glyph-name="v" unicode="v" horiz-adv-x="516" 
d="M131 0l-83 512h163l27 -229l10 -107h1q22 51 47 104l108 232h162l-262 -512h-173z" />
    <glyph glyph-name="w" unicode="w" horiz-adv-x="769" 
d="M109 0l-60 512h160l15 -212l4 -103h2q24 64 42 106l91 209h135l18 -209l6 -107h2q25 63 42 104l89 212h161l-240 -512h-149l-21 233l-6 100h-2q-21 -59 -39 -100l-101 -233h-149z" />
    <glyph glyph-name="x" unicode="x" horiz-adv-x="543" 
d="M-50 0l227 273l-110 239h176l50 -144h2l98 144h178l-202 -252l120 -260h-178l-58 160h-2l-118 -160h-183z" />
    <glyph glyph-name="y" unicode="y" horiz-adv-x="521" 
d="M-15 -169l25 126h54q75 0 75 73q0 26 -13 88l-78 394h167l28 -216l12 -124h2q26 70 50 121l101 219h161l-270 -538q-38 -76 -85 -109.5t-121 -33.5h-108z" />
    <glyph glyph-name="z" unicode="z" horiz-adv-x="483" 
d="M-29 0l22 118l234 223l53 47v3q-47 -1 -63 -1h-154l24 122h410l-22 -118l-221 -211l-66 -58v-3q47 1 70 1h181l-24 -123h-444z" />
    <glyph glyph-name="braceleft" unicode="{" horiz-adv-x="389" 
d="M268 -138q-120 0 -170 47.5t-29 157.5l23 117q8 38 -6.5 56.5t-60.5 22.5l23 118q48 1 68.5 16t27.5 53l24 124q19 104 70 142t148 38h69l-25 -125h-31q-40 0 -58 -15.5t-25 -57.5l-28 -145q-8 -45 -28 -66t-57 -34v-3q31 -16 41.5 -40.5t1.5 -71.5l-28 -140
q-8 -39 9 -54t60 -15h19l-24 -125h-14z" />
    <glyph glyph-name="bar" unicode="|" horiz-adv-x="239" 
d="M91 -138v892h97v-892h-97z" />
    <glyph glyph-name="braceright" unicode="}" horiz-adv-x="389" 
d="M-47 -138l24 125h32q39 0 57.5 16t25.5 58l28 147q9 45 28.5 66t57.5 34v3q-31 16 -42 41t-2 71l27 137q8 39 -9 54t-60 15h-18l24 125h14q120 0 170 -47.5t29 -156.5l-23 -115q-7 -38 7.5 -56.5t59.5 -22.5l-23 -118q-47 -1 -68 -16.5t-28 -52.5l-24 -127
q-19 -103 -70.5 -141.5t-147.5 -38.5h-69z" />
    <glyph glyph-name="asciitilde" unicode="~" horiz-adv-x="436" 
d="M25 239q9 87 48.5 131t93.5 44q35 0 76.5 -21.5t57.5 -21.5q32 0 41 43h100q-9 -81 -42.5 -125.5t-90.5 -44.5q-36 0 -81 20.5t-61 20.5q-30 0 -41 -46h-101z" />
    <glyph glyph-name="uni00A0" unicode="&#xa0;" horiz-adv-x="155" 
 />
    <glyph glyph-name="exclamdown" unicode="&#xa1;" horiz-adv-x="260" 
d="M190 354l-21 -315l-32 -166h-166l34 177l103 304h82zM276 588l-33 -168h-168l33 168h168z" />
    <glyph glyph-name="cent" unicode="&#xa2;" horiz-adv-x="532" 
d="M173 -107l19 96q-80 15 -129.5 69.5t-49.5 150.5q0 82 34.5 153t100 115.5t148.5 47.5l14 69h60l-14 -72q76 -11 122.5 -59t48.5 -133h-152q-3 56 -43 72l-58 -298q65 10 87 90h150q-19 -99 -88.5 -153.5t-171.5 -56.5l-18 -91h-60zM169 206q0 -73 47 -95l57 294
q-51 -13 -77.5 -72.5t-26.5 -126.5z" />
    <glyph glyph-name="sterling" unicode="&#xa3;" horiz-adv-x="589" 
d="M37 289l18 92h45q-21 57 -21 97q0 105 76.5 163t188.5 58q124 0 187 -56q73 -65 63 -194h-160q8 119 -91 119q-42 0 -67 -25.5t-25 -72.5q0 -27 16 -89h140l-18 -92h-107q0 -75 -92 -140l1 -3q37 13 63 13q30 0 76.5 -12.5t71.5 -12.5q45 0 90 35l56 -128
q-70 -56 -152 -56q-49 0 -117 24.5t-101 24.5q-45 0 -111 -42l-63 121q50 28 85 72.5t35 95.5v8h-87z" />
    <glyph glyph-name="currency" unicode="&#xa4;" horiz-adv-x="512" 
d="M114 98l-84 82l64 64q-25 47 -25 105q0 57 25 104l-64 66l84 82l65 -68q42 20 93 20q50 0 92 -20l66 68l84 -82l-66 -66q26 -46 26 -104q0 -57 -25 -104l65 -65l-84 -82l-66 67q-43 -19 -92 -19q-53 0 -92 19zM272 238q41 0 63.5 30t22.5 81t-22.5 81.5t-63.5 30.5
q-42 0 -65.5 -30.5t-23.5 -81.5t23.5 -81t65.5 -30z" />
    <glyph glyph-name="yen" unicode="&#xa5;" horiz-adv-x="631" 
d="M181 0l25 128h-164l12 64h164l11 58h-164l13 64h142l-138 372h180l52 -168l27 -104h2q29 53 59 97l123 175h183l-281 -372h141l-12 -64h-166l-12 -58h166l-12 -64h-166l-24 -128h-161z" />
    <glyph glyph-name="brokenbar" unicode="&#xa6;" horiz-adv-x="230" 
d="M86 -138v383h98v-383h-98zM86 384v370h98v-370h-98z" />
    <glyph glyph-name="section" unicode="&#xa7;" horiz-adv-x="615" 
d="M588 261q0 -60 -34 -95t-98 -57q35 -41 35 -101q0 -89 -64 -139t-162 -50q-105 0 -170.5 53t-61.5 155h147q-1 -41 21.5 -63t64.5 -22q30 0 50.5 15t20.5 43t-28 48.5t-116 65.5q-81 42 -117.5 83.5t-36.5 99.5q0 117 138 155q-24 33 -24 78q0 87 63 135.5t154 48.5
q96 0 156 -46.5t58 -144.5h-140q0 73 -74 73q-28 0 -46.5 -13t-18.5 -39q0 -23 25 -42.5t101 -60.5q80 -43 118.5 -82t38.5 -98zM333 323q-58 32 -94 56q-52 -13 -52 -54q0 -22 21 -41t85 -54q12 -7 41 -24.5t43 -26.5q58 12 58 51q0 25 -21.5 43t-80.5 50z" />
    <glyph glyph-name="dieresis" unicode="&#xa8;" 
d="M121 577l25 128h150l-25 -128h-150zM342 577l25 128h150l-25 -128h-150z" />
    <glyph glyph-name="copyright" unicode="&#xa9;" horiz-adv-x="810" 
d="M428 135q-97 0 -156.5 63t-59.5 161t60 161.5t156 63.5q74 0 126 -39q57 -43 67 -123h-120q-5 25 -24 41.5t-49 16.5q-43 0 -66 -33.5t-23 -87.5q0 -53 24.5 -87t65.5 -34q32 0 52 18t24 46h120q-5 -69 -54 -117q-53 -50 -143 -50zM424 35q131 0 219 91.5t88 228.5
q0 138 -88 229.5t-219 91.5t-219 -91.5t-88 -229.5q0 -137 88 -228.5t219 -91.5zM424 -17q-156 0 -262 106.5t-106 265.5q0 160 106.5 266.5t261.5 106.5t261.5 -106.5t106.5 -266.5q0 -159 -106 -265.5t-262 -106.5z" />
    <glyph glyph-name="ordfeminine" unicode="&#xaa;" horiz-adv-x="494" 
d="M188 226q-63 0 -102.5 33t-39.5 93q0 78 51 111.5t149 40.5q68 5 93 15t25 40q0 19 -13.5 31t-39.5 12q-62 0 -77 -58h-136q13 73 68 114t152 41q83 0 132 -31q71 -48 49 -155l-40 -206q-10 -50 3 -65l-1 -6h-140q-7 14 -7 50h-2q-49 -60 -124 -60zM244 316q75 0 92 76
l11 55q-24 -11 -76 -19q-21 -3 -29.5 -5.5t-24.5 -8.5t-23 -18t-7 -29q0 -51 57 -51z" />
    <glyph glyph-name="guillemotleft" unicode="&#xab;" horiz-adv-x="433" 
d="M153 42l-125 136l30 156l176 127l-29 -146l-93 -67v-2l67 -68zM341 42l-123 136l30 156l174 127l-28 -146l-91 -67v-2l64 -68z" />
    <glyph glyph-name="logicalnot" unicode="&#xac;" horiz-adv-x="516" 
d="M300 134l32 167h-285l25 129h423l-58 -296h-137z" />
    <glyph glyph-name="uni00AD" unicode="&#xad;" horiz-adv-x="330" 
d="M16 183l27 137h267l-26 -137h-268z" />
    <glyph glyph-name="registered" unicode="&#xae;" horiz-adv-x="523" 
d="M201 360v256h126q41 0 69 -20t28 -56q0 -46 -43 -61v-2q29 -9 37 -44q2 -12 3 -29t3 -26.5t6 -11.5v-6h-74q-3 2 -5 10.5t-3.5 24.5t-2.5 24q-4 31 -37 31h-31v-90h-76zM277 503h38q34 0 34 27t-34 27h-38v-54zM307 283q83 0 138 57.5t55 145.5q0 87 -55 144.5t-138 57.5
t-138.5 -57.5t-55.5 -144.5q0 -88 55.5 -145.5t138.5 -57.5zM307 244q-101 0 -170.5 69t-69.5 173t69.5 173t170.5 69t170 -69t69 -173t-69 -173t-170 -69z" />
    <glyph glyph-name="macron" unicode="&#xaf;" 
d="M172 587l20 100h282l-20 -100h-282z" />
    <glyph glyph-name="degree" unicode="&#xb0;" horiz-adv-x="369" 
d="M239 478q31 0 50 20.5t19 50.5t-19.5 51.5t-49.5 21.5t-49 -21.5t-19 -51.5t18.5 -50.5t49.5 -20.5zM239 400q-64 0 -110 43t-46 106t46.5 107t109.5 44q64 0 110 -44t46 -107t-46 -106t-110 -43z" />
    <glyph glyph-name="plusminus" unicode="&#xb1;" horiz-adv-x="557" 
d="M194 168l27 142h-172l25 128h173l26 141h134l-27 -141h172l-25 -128h-172l-27 -142h-134zM-11 0l24 122h478l-23 -122h-479z" />
    <glyph glyph-name="twosuperior" unicode="&#xb2;" horiz-adv-x="381" 
d="M28 288q15 89 91 142q21 15 43 28.5t48.5 27.5t37.5 20q23 14 34 26.5t11 33.5q0 38 -42 38q-24 0 -41 -18.5t-24 -51.5h-110q12 77 62.5 118t123.5 41q61 0 103.5 -30t42.5 -87q0 -69 -73 -120q-21 -15 -68.5 -39t-62.5 -38h172l-18 -91h-330z" />
    <glyph glyph-name="threesuperior" unicode="&#xb3;" horiz-adv-x="387" 
d="M212 279q-74 0 -121.5 37.5t-46.5 106.5h110q0 -61 59 -61q25 0 40.5 13.5t15.5 36.5q0 44 -56 44h-24l15 74h26q26 0 42 11t16 32q0 19 -13 29t-33 10q-48 0 -61 -51h-107q11 59 58.5 95.5t118.5 36.5q63 0 105.5 -29t42.5 -81q-1 -31 -20.5 -54.5t-50.5 -34.5v-1
q56 -25 56 -83q0 -63 -51 -97t-121 -34z" />
    <glyph glyph-name="acute" unicode="&#xb4;" 
d="M229 572l76 148h185l-138 -148h-123z" />
    <glyph glyph-name="mu" unicode="&#xb5;" horiz-adv-x="558" 
d="M-45 -169l132 681h160l-58 -298q-20 -95 57 -95q41 0 69 30.5t38 82.5l54 280h160l-99 -512h-153l14 74h-3q-59 -87 -128 -87q-31 0 -50 17h-2l-33 -173h-158z" />
    <glyph glyph-name="paragraph" unicode="&#xb6;" horiz-adv-x="588" 
d="M219 0l64 335h-36q-82 0 -128 44t-46 117q0 106 74 169q56 50 157 50h320l-138 -715h-102l120 619h-63l-120 -619h-102z" />
    <glyph glyph-name="periodcentered" unicode="&#xb7;" horiz-adv-x="231" 
d="M27 234l32 168h168l-33 -168h-167z" />
    <glyph glyph-name="cedilla" unicode="&#xb8;" 
d="M148 -193q-68 0 -111 29l22 35q30 -15 67 -15q55 0 55 32q0 24 -33 24q-18 0 -35 -7l-14 24l73 71h62l-57 -47v-2q43 4 69.5 -12t26.5 -49q0 -41 -36.5 -62t-88.5 -21z" />
    <glyph glyph-name="onesuperior" unicode="&#xb9;" horiz-adv-x="269" 
d="M109 288l46 235h-89l16 80q100 5 131 86h94l-78 -401h-120z" />
    <glyph glyph-name="ordmasculine" unicode="&#xba;" horiz-adv-x="507" 
d="M273 324q54 0 81 55t27 122q0 41 -18.5 69t-57.5 28q-37 0 -62.5 -31t-35 -70t-9.5 -80q0 -40 18 -66.5t57 -26.5zM270 223q-93 0 -156 52.5t-63 151.5q0 114 72 193t186 79q93 0 156.5 -52t63.5 -150q1 -116 -71.5 -195t-187.5 -79z" />
    <glyph glyph-name="guillemotright" unicode="&#xbb;" horiz-adv-x="433" 
d="M7 42l29 146l91 67v2l-65 68l26 136l123 -136l-30 -156zM196 42l28 146l93 67v2l-66 68l26 136l125 -136l-30 -156z" />
    <glyph glyph-name="onequarter" unicode="&#xbc;" horiz-adv-x="786" 
d="M552 0l16 84h-189l18 93l230 224h116l-46 -237h58l-16 -80h-58l-16 -84h-113zM38 0l633 715h100l-632 -715h-101zM115 318l46 235h-89l15 80q101 5 131 86h94l-78 -401h-119zM483 166v-2h101l24 123h-1z" />
    <glyph glyph-name="onehalf" unicode="&#xbd;" horiz-adv-x="823" 
d="M417 0q15 87 91 142q21 15 42.5 28t50 28t37.5 20q23 14 33.5 26.5t10.5 33.5q0 18 -11 28t-30 10q-25 0 -42 -18.5t-24 -51.5h-109q11 77 61.5 118t124.5 41q60 0 102.5 -30t42.5 -87q0 -71 -73 -120q-21 -15 -68 -39t-63 -38h172l-18 -91h-330zM33 0l633 715h100
l-632 -715h-101zM115 318l46 235h-89l15 80q101 5 131 86h94l-78 -401h-119z" />
    <glyph glyph-name="threequarters" unicode="&#xbe;" horiz-adv-x="854" 
d="M620 0l16 84h-189l18 93l230 224h116l-46 -237h58l-16 -80h-58l-16 -84h-113zM221 309q-74 0 -121.5 37.5t-46.5 106.5h110q0 -61 59 -61q25 0 40.5 13.5t15.5 36.5q0 44 -56 44h-24l15 74h26q26 0 42 11t16 32q0 19 -13 29t-33 10q-48 0 -61 -51h-107q11 59 58.5 95.5
t118.5 36.5q63 0 105.5 -29t42.5 -81q-1 -31 -20.5 -54.5t-50.5 -34.5v-1q56 -25 56 -83q0 -63 -51 -97t-121 -34zM115 0l633 715h100l-632 -715h-101zM551 166v-2h101l24 123h-1z" />
    <glyph glyph-name="questiondown" unicode="&#xbf;" horiz-adv-x="538" 
d="M371 354q-14 -73 -36 -107t-66 -64q-11 -8 -39 -24t-43 -26t-28.5 -29.5t-13.5 -41.5q0 -33 21 -50.5t57 -17.5q43 0 73.5 26.5t39.5 77.5h161q-19 -115 -95.5 -176.5t-191.5 -61.5q-97 0 -165.5 45.5t-68.5 140.5q0 120 123 188q85 47 96 56q25 21 32 64h144zM430 588
l-33 -168h-168l33 168h168z" />
    <glyph glyph-name="Agrave" unicode="&#xc0;" horiz-adv-x="676" 
d="M-52 0l378 715h178l125 -715h-181l-18 130h-242l-63 -130h-177zM334 429l-84 -173h164l-23 172l-10 103h-2q-28 -66 -45 -102zM369 750l-83 130h175l29 -130h-121z" />
    <glyph glyph-name="Aacute" unicode="&#xc1;" horiz-adv-x="676" 
d="M-52 0l378 715h178l125 -715h-181l-18 130h-242l-63 -130h-177zM334 429l-84 -173h164l-23 172l-10 103h-2q-28 -66 -45 -102zM356 750l62 130h181l-121 -130h-122z" />
    <glyph glyph-name="Acircumflex" unicode="&#xc2;" horiz-adv-x="676" 
d="M-52 0l378 715h178l125 -715h-181l-18 130h-242l-63 -130h-177zM232 750l125 125h154l84 -125h-131l-36 55h-2l-52 -55h-142zM334 429l-84 -173h164l-23 172l-10 103h-2q-28 -66 -45 -102z" />
    <glyph glyph-name="Atilde" unicode="&#xc3;" horiz-adv-x="676" 
d="M-52 0l378 715h178l125 -715h-181l-18 130h-242l-63 -130h-177zM482 752q-31 0 -68 17.5t-49 17.5q-27 0 -35 -36h-83q11 65 43.5 100t76.5 35q29 0 65 -18.5t48 -18.5q26 0 36 35h83q-10 -61 -40 -96.5t-77 -35.5zM334 429l-84 -173h164l-23 172l-10 103h-2
q-28 -66 -45 -102z" />
    <glyph glyph-name="Adieresis" unicode="&#xc4;" horiz-adv-x="676" 
d="M-52 0l378 715h178l125 -715h-181l-18 130h-242l-63 -130h-177zM334 429l-84 -173h164l-23 172l-10 103h-2q-28 -66 -45 -102zM235 753l25 128h151l-25 -128h-151zM447 753l25 128h151l-25 -128h-151z" />
    <glyph glyph-name="Aring" unicode="&#xc5;" horiz-adv-x="676" 
d="M-52 0l378 715h178l125 -715h-181l-18 130h-242l-63 -130h-177zM424 739q-42 0 -72 28.5t-30 69.5t30 69.5t72 28.5t72 -28.5t30 -69.5q0 -42 -30 -70t-72 -28zM334 429l-84 -173h164l-23 172l-10 103h-2q-28 -66 -45 -102zM424 794q18 0 30 12.5t12 30.5t-12 30.5
t-30 12.5t-29.5 -12.5t-11.5 -30.5t11.5 -30.5t29.5 -12.5z" />
    <glyph glyph-name="AE" unicode="&#xc6;" horiz-adv-x="971" 
d="M-51 0l374 715h695l-28 -144h-336l-24 -131h287l-26 -136h-288l-30 -155h347l-29 -149h-521l24 127h-206l-64 -127h-175zM412 570l-163 -322h169l62 322h-68z" />
    <glyph glyph-name="Ccedilla" unicode="&#xc7;" horiz-adv-x="690" 
d="M276 -193q-68 0 -111 29l22 35q30 -15 67 -15q55 0 55 32q0 24 -33 24q-18 0 -35 -7l-14 24l60 59q-120 16 -187.5 97t-67.5 210q0 114 45.5 212t135 160t204.5 62q123 0 195 -57q84 -65 92 -203h-174q-6 114 -120 114q-97 0 -148.5 -86t-51.5 -198q0 -75 33.5 -123
t107.5 -48q56 0 95.5 31t55.5 89h175q-29 -130 -119 -199q-87 -65 -213 -65h-3l-37 -31v-2q43 4 69.5 -12t26.5 -49q0 -41 -36.5 -62t-88.5 -21z" />
    <glyph glyph-name="Egrave" unicode="&#xc8;" horiz-adv-x="608" 
d="M357 750l-83 130h175l29 -130h-121zM-2 0l138 715h519l-28 -144h-344l-25 -131h296l-26 -136h-297l-30 -155h356l-29 -149h-530z" />
    <glyph glyph-name="Eacute" unicode="&#xc9;" horiz-adv-x="608" 
d="M343 750l62 130h181l-121 -130h-122zM-2 0l138 715h519l-28 -144h-344l-25 -131h296l-26 -136h-297l-30 -155h356l-29 -149h-530z" />
    <glyph glyph-name="Ecircumflex" unicode="&#xca;" horiz-adv-x="608" 
d="M-2 0l138 715h519l-28 -144h-344l-25 -131h296l-26 -136h-297l-30 -155h356l-29 -149h-530zM224 750l125 125h154l84 -125h-131l-36 55h-2l-52 -55h-142z" />
    <glyph glyph-name="Edieresis" unicode="&#xcb;" horiz-adv-x="608" 
d="M224 753l25 128h151l-25 -128h-151zM436 753l25 128h151l-25 -128h-151zM-2 0l138 715h519l-28 -144h-344l-25 -131h296l-26 -136h-297l-30 -155h356l-29 -149h-530z" />
    <glyph glyph-name="Igrave" unicode="&#xcc;" horiz-adv-x="272" 
d="M-2 0l139 715h174l-138 -715h-175zM175 750l-83 130h175l29 -130h-121z" />
    <glyph glyph-name="Iacute" unicode="&#xcd;" horiz-adv-x="272" 
d="M-2 0l139 715h174l-138 -715h-175zM157 750l62 130h181l-121 -130h-122z" />
    <glyph glyph-name="Icircumflex" unicode="&#xce;" horiz-adv-x="272" 
d="M-2 0l139 715h174l-138 -715h-175zM40 750l125 125h154l84 -125h-131l-36 55h-2l-52 -55h-142z" />
    <glyph glyph-name="Idieresis" unicode="&#xcf;" horiz-adv-x="272" 
d="M-2 0l139 715h174l-138 -715h-175zM48 753l25 128h151l-25 -128h-151zM260 753l25 128h151l-25 -128h-151z" />
    <glyph glyph-name="Eth" unicode="&#xd0;" horiz-adv-x="700" 
d="M9 0l58 297h-54l25 134h54l55 284h256q138 0 220 -80t82 -225q0 -189 -104 -301q-103 -109 -280 -109h-312zM212 148h109q98 0 152 68.5t54 184.5q0 82 -38.5 124.5t-112.5 42.5h-83l-26 -137h151l-25 -134h-152z" />
    <glyph glyph-name="Ntilde" unicode="&#xd1;" horiz-adv-x="687" 
d="M506 752q-31 0 -68 17.5t-49 17.5q-27 0 -35 -36h-83q11 65 43.5 100t76.5 35q29 0 65 -18.5t48 -18.5q26 0 36 35h83q-10 -61 -40 -96.5t-77 -35.5zM-2 0l138 715h175l125 -351l32 -101h2l88 452h169l-138 -715h-175l-122 341l-35 114h-2l-88 -455h-169z" />
    <glyph glyph-name="Ograve" unicode="&#xd2;" horiz-adv-x="727" 
d="M378 750l-83 130h175l29 -130h-121zM359 126q67 0 113.5 45.5t65 107t18.5 130.5q0 80 -36 129t-112 49q-67 0 -114 -47t-66 -110t-19 -133q0 -76 36.5 -123.5t113.5 -47.5zM354 -17q-143 0 -233 82.5t-89 229.5q1 117 46 215t134 158.5t204 60.5q145 0 231 -85t86 -233
q0 -178 -103.5 -302.5t-275.5 -125.5z" />
    <glyph glyph-name="Oacute" unicode="&#xd3;" horiz-adv-x="727" 
d="M369 750l62 130h181l-121 -130h-122zM359 126q67 0 113.5 45.5t65 107t18.5 130.5q0 80 -36 129t-112 49q-67 0 -114 -47t-66 -110t-19 -133q0 -76 36.5 -123.5t113.5 -47.5zM354 -17q-143 0 -233 82.5t-89 229.5q1 117 46 215t134 158.5t204 60.5q145 0 231 -85t86 -233
q0 -178 -103.5 -302.5t-275.5 -125.5z" />
    <glyph glyph-name="Ocircumflex" unicode="&#xd4;" horiz-adv-x="727" 
d="M359 126q67 0 113.5 45.5t65 107t18.5 130.5q0 80 -36 129t-112 49q-67 0 -114 -47t-66 -110t-19 -133q0 -76 36.5 -123.5t113.5 -47.5zM354 -17q-143 0 -233 82.5t-89 229.5q1 117 46 215t134 158.5t204 60.5q145 0 231 -85t86 -233q0 -178 -103.5 -302.5t-275.5 -125.5
zM251 750l125 125h154l84 -125h-131l-36 55h-2l-52 -55h-142z" />
    <glyph glyph-name="Otilde" unicode="&#xd5;" horiz-adv-x="727" 
d="M494 752q-31 0 -68 17.5t-49 17.5q-27 0 -35 -36h-83q11 65 43.5 100t76.5 35q29 0 65 -18.5t48 -18.5q26 0 36 35h83q-10 -61 -40 -96.5t-77 -35.5zM359 126q67 0 113.5 45.5t65 107t18.5 130.5q0 80 -36 129t-112 49q-67 0 -114 -47t-66 -110t-19 -133
q0 -76 36.5 -123.5t113.5 -47.5zM354 -17q-143 0 -233 82.5t-89 229.5q1 117 46 215t134 158.5t204 60.5q145 0 231 -85t86 -233q0 -178 -103.5 -302.5t-275.5 -125.5z" />
    <glyph glyph-name="Odieresis" unicode="&#xd6;" horiz-adv-x="727" 
d="M252 753l25 128h151l-25 -128h-151zM464 753l25 128h151l-25 -128h-151zM359 126q67 0 113.5 45.5t65 107t18.5 130.5q0 80 -36 129t-112 49q-67 0 -114 -47t-66 -110t-19 -133q0 -76 36.5 -123.5t113.5 -47.5zM354 -17q-143 0 -233 82.5t-89 229.5q1 117 46 215
t134 158.5t204 60.5q145 0 231 -85t86 -233q0 -178 -103.5 -302.5t-275.5 -125.5z" />
    <glyph glyph-name="multiply" unicode="&#xd7;" horiz-adv-x="557" 
d="M108 82l-82 91l174 156l-122 153l101 87l121 -151l168 151l83 -90l-174 -156l122 -152l-101 -88l-121 150z" />
    <glyph glyph-name="Oslash" unicode="&#xd8;" horiz-adv-x="727" 
d="M73 -35l-53 50l73 80q-62 82 -61 200q1 117 46 215t133.5 158.5t203.5 60.5q119 0 201 -59l65 72l54 -49l-67 -73q65 -82 65 -209q0 -178 -103.5 -302.5t-275.5 -125.5q-124 0 -209 61zM359 126q52 0 92 26t62.5 68t34 90t11.5 99q0 46 -10 79l-297 -327q37 -35 107 -35z
M206 297q0 -35 8 -69l296 325q-37 34 -102 34q-68 0 -115.5 -46.5t-67 -110t-19.5 -133.5z" />
    <glyph glyph-name="Ugrave" unicode="&#xd9;" horiz-adv-x="673" 
d="M374 750l-83 130h175l29 -130h-121zM319 -13q-147 0 -224 72t-50 215l86 441h174l-89 -459q-12 -61 15 -94.5t93 -33.5q107 0 128 112l92 475h174l-94 -484q-47 -244 -305 -244z" />
    <glyph glyph-name="Uacute" unicode="&#xda;" horiz-adv-x="673" 
d="M364 750l62 130h181l-121 -130h-122zM319 -13q-147 0 -224 72t-50 215l86 441h174l-89 -459q-12 -61 15 -94.5t93 -33.5q107 0 128 112l92 475h174l-94 -484q-47 -244 -305 -244z" />
    <glyph glyph-name="Ucircumflex" unicode="&#xdb;" horiz-adv-x="673" 
d="M319 -13q-147 0 -224 72t-50 215l86 441h174l-89 -459q-12 -61 15 -94.5t93 -33.5q107 0 128 112l92 475h174l-94 -484q-47 -244 -305 -244zM242 750l125 125h154l84 -125h-131l-36 55h-2l-52 -55h-142z" />
    <glyph glyph-name="Udieresis" unicode="&#xdc;" horiz-adv-x="673" 
d="M243 753l25 128h151l-25 -128h-151zM455 753l25 128h151l-25 -128h-151zM319 -13q-147 0 -224 72t-50 215l86 441h174l-89 -459q-12 -61 15 -94.5t93 -33.5q107 0 128 112l92 475h174l-94 -484q-47 -244 -305 -244z" />
    <glyph glyph-name="Yacute" unicode="&#xdd;" horiz-adv-x="639" 
d="M180 0l51 267l-145 448h183l52 -182l25 -111h2q35 59 68 109l124 184h189l-324 -454l-50 -261h-175zM341 750l62 130h181l-121 -130h-122z" />
    <glyph glyph-name="Thorn" unicode="&#xde;" horiz-adv-x="637" 
d="M-2 0l138 715h177l-19 -99h104q123 0 186 -61q62 -60 62 -156q0 -119 -76 -189t-198 -70h-170l-27 -140h-177zM229 279h129q47 0 79.5 28t32.5 81q0 81 -88 81h-116z" />
    <glyph glyph-name="germandbls" unicode="&#xdf;" horiz-adv-x="568" 
d="M303 -9q-58 0 -102 15l23 116h1q24 -6 51 -6q51 0 83 37t32 103q0 100 -100 100h-20l18 92h19q48 0 77.5 22t29.5 69q0 30 -20 48.5t-52 18.5q-77 0 -95 -91l-100 -515h-160l101 525q19 96 86.5 150t171.5 54q88 0 152 -42.5t65 -130.5q1 -53 -28.5 -93.5t-83.5 -60.5v-3
q44 -19 69.5 -59.5t25.5 -96.5q0 -112 -67 -182t-177 -70z" />
    <glyph glyph-name="agrave" unicode="&#xe0;" horiz-adv-x="528" 
d="M155 -13q-70 0 -115.5 39t-45.5 109q0 87 56.5 124.5t161.5 45.5q83 6 112.5 17t29.5 46q0 22 -16.5 35.5t-47.5 13.5q-75 0 -91 -67h-149q15 82 77.5 129t170.5 47q102 0 155 -41q71 -53 49 -169l-46 -236q-11 -55 3 -73v-7h-154q-8 16 -8 56h-2q-59 -69 -140 -69z
M215 91q42 0 70 22.5t37 64.5l12 63q-29 -14 -87 -23q-2 0 -15.5 -2.5t-17.5 -3t-15.5 -3.5t-16 -6t-13 -8t-11.5 -11t-6 -15t-3 -20q0 -58 66 -58zM266 572l-97 148h175l43 -148h-121z" />
    <glyph glyph-name="aacute" unicode="&#xe1;" horiz-adv-x="528" 
d="M155 -13q-70 0 -115.5 39t-45.5 109q0 87 56.5 124.5t161.5 45.5q83 6 112.5 17t29.5 46q0 22 -16.5 35.5t-47.5 13.5q-75 0 -91 -67h-149q15 82 77.5 129t170.5 47q102 0 155 -41q71 -53 49 -169l-46 -236q-11 -55 3 -73v-7h-154q-8 16 -8 56h-2q-59 -69 -140 -69z
M215 91q42 0 70 22.5t37 64.5l12 63q-29 -14 -87 -23q-2 0 -15.5 -2.5t-17.5 -3t-15.5 -3.5t-16 -6t-13 -8t-11.5 -11t-6 -15t-3 -20q0 -58 66 -58zM257 572l76 148h185l-138 -148h-123z" />
    <glyph glyph-name="acircumflex" unicode="&#xe2;" horiz-adv-x="528" 
d="M155 -13q-70 0 -115.5 39t-45.5 109q0 87 56.5 124.5t161.5 45.5q83 6 112.5 17t29.5 46q0 22 -16.5 35.5t-47.5 13.5q-75 0 -91 -67h-149q15 82 77.5 129t170.5 47q102 0 155 -41q71 -53 49 -169l-46 -236q-11 -55 3 -73v-7h-154q-8 16 -8 56h-2q-59 -69 -140 -69z
M215 91q42 0 70 22.5t37 64.5l12 63q-29 -14 -87 -23q-2 0 -15.5 -2.5t-17.5 -3t-15.5 -3.5t-16 -6t-13 -8t-11.5 -11t-6 -15t-3 -20q0 -58 66 -58zM136 574l127 137h154l83 -137h-132l-34 66h-2l-55 -66h-141z" />
    <glyph glyph-name="atilde" unicode="&#xe3;" horiz-adv-x="528" 
d="M155 -13q-70 0 -115.5 39t-45.5 109q0 87 56.5 124.5t161.5 45.5q83 6 112.5 17t29.5 46q0 22 -16.5 35.5t-47.5 13.5q-75 0 -91 -67h-149q15 82 77.5 129t170.5 47q102 0 155 -41q71 -53 49 -169l-46 -236q-11 -55 3 -73v-7h-154q-8 16 -8 56h-2q-59 -69 -140 -69z
M215 91q42 0 70 22.5t37 64.5l12 63q-29 -14 -87 -23q-2 0 -15.5 -2.5t-17.5 -3t-15.5 -3.5t-16 -6t-13 -8t-11.5 -11t-6 -15t-3 -20q0 -58 66 -58zM385 572q-31 0 -65 17.5t-46 17.5q-27 0 -35 -36h-83q11 65 43.5 100t76.5 35q30 0 63 -18.5t45 -18.5q26 0 36 35h82
q-10 -61 -40 -96.5t-77 -35.5z" />
    <glyph glyph-name="adieresis" unicode="&#xe4;" horiz-adv-x="528" 
d="M155 -13q-70 0 -115.5 39t-45.5 109q0 87 56.5 124.5t161.5 45.5q83 6 112.5 17t29.5 46q0 22 -16.5 35.5t-47.5 13.5q-75 0 -91 -67h-149q15 82 77.5 129t170.5 47q102 0 155 -41q71 -53 49 -169l-46 -236q-11 -55 3 -73v-7h-154q-8 16 -8 56h-2q-59 -69 -140 -69z
M215 91q42 0 70 22.5t37 64.5l12 63q-29 -14 -87 -23q-2 0 -15.5 -2.5t-17.5 -3t-15.5 -3.5t-16 -6t-13 -8t-11.5 -11t-6 -15t-3 -20q0 -58 66 -58zM137 577l25 128h150l-25 -128h-150zM358 577l25 128h150l-25 -128h-150z" />
    <glyph glyph-name="aring" unicode="&#xe5;" horiz-adv-x="528" 
d="M155 -13q-70 0 -115.5 39t-45.5 109q0 87 56.5 124.5t161.5 45.5q83 6 112.5 17t29.5 46q0 22 -16.5 35.5t-47.5 13.5q-75 0 -91 -67h-149q15 82 77.5 129t170.5 47q102 0 155 -41q71 -53 49 -169l-46 -236q-11 -55 3 -73v-7h-154q-8 16 -8 56h-2q-59 -69 -140 -69z
M215 91q42 0 70 22.5t37 64.5l12 63q-29 -14 -87 -23q-2 0 -15.5 -2.5t-17.5 -3t-15.5 -3.5t-16 -6t-13 -8t-11.5 -11t-6 -15t-3 -20q0 -58 66 -58zM324 614q18 0 29.5 12t11.5 30t-11.5 30.5t-29.5 12.5t-30 -12.5t-12 -30.5t12 -30t30 -12zM324 558q-42 0 -72 28.5
t-30 69.5t30 70t72 29t72 -29t30 -70t-30 -69.5t-72 -28.5z" />
    <glyph glyph-name="ae" unicode="&#xe6;" horiz-adv-x="859" 
d="M298 526q115 0 160 -56q63 57 156 57q81 0 135 -34q120 -78 90 -279h-353q2 -113 95 -113q65 0 88 52h156q-23 -75 -88.5 -121.5t-159.5 -46.5q-139 0 -198 93q-64 -91 -197 -91q-87 0 -137.5 39t-50.5 111q0 86 56.5 122.5t161.5 44.5q83 6 112.5 17.5t29.5 46.5
q0 22 -16.5 35.5t-47.5 13.5q-75 0 -91 -67h-149q15 82 77.5 129t170.5 47zM149 149q0 -58 66 -58q89 0 108 91l11 58q-29 -14 -87 -23q-2 0 -18 -2.5t-20 -4t-17 -4.5t-18 -7.5t-12.5 -11.5t-10 -16.5t-2.5 -21.5zM610 412q-82 0 -111 -101h195q2 44 -19.5 72.5t-64.5 28.5
z" />
    <glyph glyph-name="ccedilla" unicode="&#xe7;" horiz-adv-x="532" 
d="M188 -193q-68 0 -111 29l22 35q30 -15 67 -15q55 0 55 32q0 24 -33 24q-18 0 -35 -7l-14 24l61 60q-84 14 -135.5 69.5t-51.5 152.5q0 131 80.5 223t210.5 92q98 0 159 -48.5t65 -147.5h-154q-7 77 -74 77q-61 0 -94 -62t-33 -137q0 -103 87 -103q77 0 100 89h153
q-19 -98 -88.5 -153.5t-167.5 -56.5h-3l-37 -31v-2q43 4 69.5 -12t26.5 -49q0 -41 -36.5 -62t-88.5 -21z" />
    <glyph glyph-name="egrave" unicode="&#xe8;" horiz-adv-x="543" 
d="M522 214h-351q1 -54 21.5 -83.5t71.5 -29.5q65 0 88 52h158q-25 -77 -91 -122.5t-162 -45.5q-109 0 -176.5 61t-67.5 175q0 125 80 215.5t203 90.5q81 0 137 -34q119 -75 89 -279zM253 572l-97 148h175l43 -148h-121zM294 412q-38 0 -67 -27t-43 -74h192q2 45 -18.5 73
t-63.5 28z" />
    <glyph glyph-name="eacute" unicode="&#xe9;" horiz-adv-x="543" 
d="M522 214h-351q1 -54 21.5 -83.5t71.5 -29.5q65 0 88 52h158q-25 -77 -91 -122.5t-162 -45.5q-109 0 -176.5 61t-67.5 175q0 125 80 215.5t203 90.5q81 0 137 -34q119 -75 89 -279zM245 572l76 148h185l-138 -148h-123zM294 412q-38 0 -67 -27t-43 -74h192q2 45 -18.5 73
t-63.5 28z" />
    <glyph glyph-name="ecircumflex" unicode="&#xea;" horiz-adv-x="543" 
d="M522 214h-351q1 -54 21.5 -83.5t71.5 -29.5q65 0 88 52h158q-25 -77 -91 -122.5t-162 -45.5q-109 0 -176.5 61t-67.5 175q0 125 80 215.5t203 90.5q81 0 137 -34q119 -75 89 -279zM124 574l127 137h154l83 -137h-132l-34 66h-2l-55 -66h-141zM294 412q-38 0 -67 -27
t-43 -74h192q2 45 -18.5 73t-63.5 28z" />
    <glyph glyph-name="edieresis" unicode="&#xeb;" horiz-adv-x="543" 
d="M522 214h-351q1 -54 21.5 -83.5t71.5 -29.5q65 0 88 52h158q-25 -77 -91 -122.5t-162 -45.5q-109 0 -176.5 61t-67.5 175q0 125 80 215.5t203 90.5q81 0 137 -34q119 -75 89 -279zM345 577l25 128h150l-25 -128h-150zM124 577l25 128h150l-25 -128h-150zM294 412
q-38 0 -67 -27t-43 -74h192q2 45 -18.5 73t-63.5 28z" />
    <glyph glyph-name="igrave" unicode="&#xec;" horiz-adv-x="237" 
d="M-12 0l99 512h160l-99 -512h-160zM125 572l-97 148h175l43 -148h-121z" />
    <glyph glyph-name="iacute" unicode="&#xed;" horiz-adv-x="237" 
d="M112 572l76 148h185l-138 -148h-123zM-12 0l99 512h160l-99 -512h-160z" />
    <glyph glyph-name="icircumflex" unicode="&#xee;" horiz-adv-x="237" 
d="M4 574l116 137h151l71 -137h-127l-27 64h-2l-47 -64h-135zM-12 0l99 512h160l-99 -512h-160z" />
    <glyph glyph-name="idieresis" unicode="&#xef;" horiz-adv-x="237" 
d="M-12 0l99 512h160l-99 -512h-160zM37 577l25 128h123l-25 -128h-123zM198 577l25 128h123l-25 -128h-123z" />
    <glyph glyph-name="eth" unicode="&#xf0;" horiz-adv-x="570" 
d="M158 592l110 34q-44 43 -108 89h191q29 -19 57 -45l105 33l15 -55l-75 -24q102 -121 102 -287q0 -156 -77 -254.5t-216 -98.5q-112 0 -180.5 63t-68.5 175q1 123 72.5 208.5t185.5 85.5q69 0 111 -47h2q-25 56 -72 111l-138 -43zM173 212q0 -50 21.5 -82t67.5 -32
q44 0 74.5 33.5t43 77.5t12.5 91t-22.5 77.5t-69.5 30.5q-63 0 -95 -60.5t-32 -135.5z" />
    <glyph glyph-name="ntilde" unicode="&#xf1;" horiz-adv-x="556" 
d="M-12 0l99 512h155l-16 -81h3q67 96 165 96q79 0 117.5 -57.5t20.5 -154.5l-61 -315h-160l59 303q18 92 -60 92q-40 0 -69 -32t-39 -82l-54 -281h-160zM400 572q-31 0 -65 17.5t-46 17.5q-27 0 -35 -36h-83q11 65 43.5 100t76.5 35q29 0 63 -18.5t45 -18.5q26 0 36 35h82
q-10 -61 -40 -96.5t-77 -35.5z" />
    <glyph glyph-name="ograve" unicode="&#xf2;" horiz-adv-x="567" 
d="M263 98q44 0 74.5 33.5t42.5 77t11 89.5q0 49 -22 81.5t-68 32.5q-43 0 -73.5 -34t-42.5 -77.5t-11 -88.5q0 -50 21.5 -82t67.5 -32zM260 -16q-104 0 -175.5 61t-71.5 174q0 129 81.5 218t211.5 89q105 0 175.5 -60.5t71.5 -172.5q0 -131 -81 -220t-212 -89zM265 572
l-97 148h175l43 -148h-121z" />
    <glyph glyph-name="oacute" unicode="&#xf3;" horiz-adv-x="567" 
d="M259 572l76 148h185l-138 -148h-123zM263 98q44 0 74.5 33.5t42.5 77t11 89.5q0 49 -22 81.5t-68 32.5q-43 0 -73.5 -34t-42.5 -77.5t-11 -88.5q0 -50 21.5 -82t67.5 -32zM260 -16q-104 0 -175.5 61t-71.5 174q0 129 81.5 218t211.5 89q105 0 175.5 -60.5t71.5 -172.5
q0 -131 -81 -220t-212 -89z" />
    <glyph glyph-name="ocircumflex" unicode="&#xf4;" horiz-adv-x="567" 
d="M138 574l127 137h154l83 -137h-132l-34 66h-2l-55 -66h-141zM263 98q44 0 74.5 33.5t42.5 77t11 89.5q0 49 -22 81.5t-68 32.5q-43 0 -73.5 -34t-42.5 -77.5t-11 -88.5q0 -50 21.5 -82t67.5 -32zM260 -16q-104 0 -175.5 61t-71.5 174q0 129 81.5 218t211.5 89
q105 0 175.5 -60.5t71.5 -172.5q0 -131 -81 -220t-212 -89z" />
    <glyph glyph-name="otilde" unicode="&#xf5;" horiz-adv-x="567" 
d="M263 98q44 0 74.5 33.5t42.5 77t11 89.5q0 49 -22 81.5t-68 32.5q-43 0 -73.5 -34t-42.5 -77.5t-11 -88.5q0 -50 21.5 -82t67.5 -32zM260 -16q-104 0 -175.5 61t-71.5 174q0 129 81.5 218t211.5 89q105 0 175.5 -60.5t71.5 -172.5q0 -131 -81 -220t-212 -89zM382 572
q-31 0 -65 17.5t-46 17.5q-27 0 -35 -36h-83q11 65 43.5 100t76.5 35q29 0 63 -18.5t45 -18.5q26 0 36 35h82q-10 -61 -40 -96.5t-77 -35.5z" />
    <glyph glyph-name="odieresis" unicode="&#xf6;" horiz-adv-x="567" 
d="M140 577l25 128h150l-25 -128h-150zM361 577l25 128h150l-25 -128h-150zM263 98q44 0 74.5 33.5t42.5 77t11 89.5q0 49 -22 81.5t-68 32.5q-43 0 -73.5 -34t-42.5 -77.5t-11 -88.5q0 -50 21.5 -82t67.5 -32zM260 -16q-104 0 -175.5 61t-71.5 174q0 129 81.5 218t211.5 89
q105 0 175.5 -60.5t71.5 -172.5q0 -131 -81 -220t-212 -89z" />
    <glyph glyph-name="divide" unicode="&#xf7;" horiz-adv-x="557" 
d="M156 59l29 149h167l-29 -149h-167zM41 267l24 125h479l-25 -125h-478zM232 451l29 149h167l-29 -149h-167z" />
    <glyph glyph-name="oslash" unicode="&#xf8;" horiz-adv-x="567" 
d="M51 -36l-43 42l56 59q-51 61 -51 154q0 129 81.5 218t212.5 89q88 0 151 -42l56 59l43 -41l-55 -58q50 -61 51 -151q0 -131 -81 -220t-212 -89q-88 0 -151 42zM171 208q0 -19 1 -27l194 205q-24 26 -65 26q-63 0 -97 -64.5t-33 -139.5zM263 98q44 0 75 33.5t44 78
t12 91.5q0 8 -2 26l-193 -205q22 -24 64 -24z" />
    <glyph glyph-name="ugrave" unicode="&#xf9;" horiz-adv-x="551" 
d="M163 -15q-83 0 -122.5 55t-20.5 152l61 320h160l-58 -298q-18 -97 56 -97q41 0 69 29.5t39 82.5l54 283h160l-99 -512h-153l15 77h-3q-62 -92 -158 -92zM273 572l-97 148h175l43 -148h-121z" />
    <glyph glyph-name="uacute" unicode="&#xfa;" horiz-adv-x="551" 
d="M266 572l76 148h185l-138 -148h-123zM163 -15q-83 0 -122.5 55t-20.5 152l61 320h160l-58 -298q-18 -97 56 -97q41 0 69 29.5t39 82.5l54 283h160l-99 -512h-153l15 77h-3q-62 -92 -158 -92z" />
    <glyph glyph-name="ucircumflex" unicode="&#xfb;" horiz-adv-x="551" 
d="M149 574l127 137h154l83 -137h-132l-34 66h-2l-55 -66h-141zM163 -15q-83 0 -122.5 55t-20.5 152l61 320h160l-58 -298q-18 -97 56 -97q41 0 69 29.5t39 82.5l54 283h160l-99 -512h-153l15 77h-3q-62 -92 -158 -92z" />
    <glyph glyph-name="udieresis" unicode="&#xfc;" horiz-adv-x="551" 
d="M148 577l25 128h150l-25 -128h-150zM369 577l25 128h150l-25 -128h-150zM163 -15q-83 0 -122.5 55t-20.5 152l61 320h160l-58 -298q-18 -97 56 -97q41 0 69 29.5t39 82.5l54 283h160l-99 -512h-153l15 77h-3q-62 -92 -158 -92z" />
    <glyph glyph-name="yacute" unicode="&#xfd;" horiz-adv-x="521" 
d="M-15 -169l25 126h54q75 0 75 73q0 26 -13 88l-78 394h167l28 -216l12 -124h2q26 70 50 121l101 219h161l-270 -538q-38 -76 -85 -109.5t-121 -33.5h-108zM252 572l76 148h185l-138 -148h-123z" />
    <glyph glyph-name="thorn" unicode="&#xfe;" horiz-adv-x="578" 
d="M-45 -169l171 884h160l-50 -258h3q63 70 148 70q83 0 130.5 -62.5t47.5 -160.5q0 -80 -26 -150.5t-85.5 -120t-142.5 -49.5q-50 0 -89 21t-59 60h-2l-46 -234h-160zM280 109q61 0 91 56t30 130q0 45 -20.5 75.5t-64.5 30.5q-58 0 -93 -58t-35 -126q0 -46 23 -77t69 -31z
" />
    <glyph glyph-name="ydieresis" unicode="&#xff;" horiz-adv-x="521" 
d="M-15 -169l25 126h54q75 0 75 73q0 26 -13 88l-78 394h167l28 -216l12 -124h2q26 70 50 121l101 219h161l-270 -538q-38 -76 -85 -109.5t-121 -33.5h-108zM131 577l25 128h150l-25 -128h-150zM352 577l25 128h150l-25 -128h-150z" />
    <glyph glyph-name="Amacron" unicode="&#x100;" horiz-adv-x="676" 
d="M-52 0l378 715h178l125 -715h-181l-18 130h-242l-63 -130h-177zM276 762l20 100h282l-20 -100h-282zM334 429l-84 -173h164l-23 172l-10 103h-2q-28 -66 -45 -102z" />
    <glyph glyph-name="amacron" unicode="&#x101;" horiz-adv-x="528" 
d="M155 -13q-70 0 -115.5 39t-45.5 109q0 87 56.5 124.5t161.5 45.5q83 6 112.5 17t29.5 46q0 22 -16.5 35.5t-47.5 13.5q-75 0 -91 -67h-149q15 82 77.5 129t170.5 47q102 0 155 -41q71 -53 49 -169l-46 -236q-11 -55 3 -73v-7h-154q-8 16 -8 56h-2q-59 -69 -140 -69z
M215 91q42 0 70 22.5t37 64.5l12 63q-29 -14 -87 -23q-2 0 -15.5 -2.5t-17.5 -3t-15.5 -3.5t-16 -6t-13 -8t-11.5 -11t-6 -15t-3 -20q0 -58 66 -58zM179 587l20 100h282l-20 -100h-282z" />
    <glyph glyph-name="Abreve" unicode="&#x102;" horiz-adv-x="676" 
d="M-52 0l378 715h178l125 -715h-181l-18 130h-242l-63 -130h-177zM424 744q-71 0 -112 39t-40 106h90q3 -47 64 -47q29 0 48 13.5t25 33.5h91q-10 -67 -55 -106t-111 -39zM334 429l-84 -173h164l-23 172l-10 103h-2q-28 -66 -45 -102z" />
    <glyph glyph-name="abreve" unicode="&#x103;" horiz-adv-x="528" 
d="M155 -13q-70 0 -115.5 39t-45.5 109q0 87 56.5 124.5t161.5 45.5q83 6 112.5 17t29.5 46q0 22 -16.5 35.5t-47.5 13.5q-75 0 -91 -67h-149q15 82 77.5 129t170.5 47q102 0 155 -41q71 -53 49 -169l-46 -236q-11 -55 3 -73v-7h-154q-8 16 -8 56h-2q-59 -69 -140 -69z
M215 91q42 0 70 22.5t37 64.5l12 63q-29 -14 -87 -23q-2 0 -15.5 -2.5t-17.5 -3t-15.5 -3.5t-16 -6t-13 -8t-11.5 -11t-6 -15t-3 -20q0 -58 66 -58zM326 566q-71 0 -112 39t-40 106h90q3 -47 64 -47q29 0 48 13.5t25 33.5h90q-10 -67 -54.5 -106t-110.5 -39z" />
    <glyph glyph-name="Aogonek" unicode="&#x104;" horiz-adv-x="676" 
d="M540 -177q-52 0 -82.5 21t-30.5 59q0 59 77 97h-56l-18 130h-243l-62 -130h-177l378 715h178l124 -710q-26 -14 -46 -33.5t-20 -37.5q0 -22 26 -22q11 0 23 4h1l-16 -84q-23 -9 -56 -9zM249 256h164l-22 172l-10 103h-2q-28 -66 -45 -102z" />
    <glyph glyph-name="aogonek" unicode="&#x105;" horiz-adv-x="528" 
d="M375 -177q-52 0 -82.5 21t-30.5 59q0 57 89 97h-46q-8 16 -8 56h-2q-59 -69 -140 -69q-70 0 -115.5 39t-45.5 109q0 87 56.5 124.5t161.5 45.5q83 6 112.5 17t29.5 46q0 22 -16.5 35.5t-47.5 13.5q-75 0 -91 -67h-149q15 82 77.5 129t170.5 47q110 0 162 -47
q63 -53 42 -163l-46 -236q-11 -55 3 -73v-7q-23 -11 -42.5 -29.5t-19.5 -36.5q0 -22 26 -22q11 0 23 4h1l-16 -84q-23 -9 -56 -9zM215 91q42 0 70 22.5t37 64.5l12 63q-29 -14 -87 -23q-2 0 -15.5 -2.5t-17.5 -3t-15.5 -3.5t-16 -6t-13 -8t-11.5 -11t-6 -15t-3 -20
q0 -58 66 -58z" />
    <glyph glyph-name="Cacute" unicode="&#x106;" horiz-adv-x="690" 
d="M345 -16q-145 0 -229 83t-84 228q0 114 45.5 212t135 160t204.5 62q123 0 195 -57q84 -65 92 -203h-174q-6 114 -120 114q-97 0 -148.5 -86t-51.5 -198q0 -75 33.5 -123t107.5 -48q56 0 95.5 31t55.5 89h175q-29 -130 -119 -199q-87 -65 -213 -65zM365 750l62 130h181
l-121 -130h-122z" />
    <glyph glyph-name="cacute" unicode="&#x107;" horiz-adv-x="532" 
d="M257 572l76 148h185l-138 -148h-123zM257 -16q-106 0 -175 57t-69 170q0 131 80.5 223t210.5 92q98 0 159 -48.5t65 -147.5h-154q-7 77 -74 77q-61 0 -94 -62t-33 -137q0 -103 87 -103q77 0 100 89h153q-19 -98 -88.5 -153.5t-167.5 -56.5z" />
    <glyph glyph-name="Ccircumflex" unicode="&#x108;" horiz-adv-x="690" 
d="M345 -16q-145 0 -229 83t-84 228q0 114 45.5 212t135 160t204.5 62q123 0 195 -57q84 -65 92 -203h-174q-6 114 -120 114q-97 0 -148.5 -86t-51.5 -198q0 -75 33.5 -123t107.5 -48q56 0 95.5 31t55.5 89h175q-29 -130 -119 -199q-87 -65 -213 -65zM245 750l125 125h154
l84 -125h-131l-36 55h-2l-52 -55h-142z" />
    <glyph glyph-name="ccircumflex" unicode="&#x109;" horiz-adv-x="532" 
d="M134 574l127 137h154l83 -137h-132l-34 66h-2l-55 -66h-141zM257 -16q-106 0 -175 57t-69 170q0 131 80.5 223t210.5 92q98 0 159 -48.5t65 -147.5h-154q-7 77 -74 77q-61 0 -94 -62t-33 -137q0 -103 87 -103q77 0 100 89h153q-19 -98 -88.5 -153.5t-167.5 -56.5z" />
    <glyph glyph-name="Cdotaccent" unicode="&#x10a;" horiz-adv-x="690" 
d="M348 753l26 130h160l-26 -130h-160zM345 -16q-145 0 -229 83t-84 228q0 114 45.5 212t135 160t204.5 62q123 0 195 -57q84 -65 92 -203h-174q-6 114 -120 114q-97 0 -148.5 -86t-51.5 -198q0 -75 33.5 -123t107.5 -48q56 0 95.5 31t55.5 89h175q-29 -130 -119 -199
q-87 -65 -213 -65z" />
    <glyph glyph-name="cdotaccent" unicode="&#x10b;" horiz-adv-x="532" 
d="M257 -16q-106 0 -175 57t-69 170q0 131 80.5 223t210.5 92q98 0 159 -48.5t65 -147.5h-154q-7 77 -74 77q-61 0 -94 -62t-33 -137q0 -103 87 -103q77 0 100 89h153q-19 -98 -88.5 -153.5t-167.5 -56.5zM237 583l25 132h160l-25 -132h-160z" />
    <glyph glyph-name="Ccaron" unicode="&#x10c;" horiz-adv-x="690" 
d="M345 -16q-145 0 -229 83t-84 228q0 114 45.5 212t135 160t204.5 62q123 0 195 -57q84 -65 92 -203h-174q-6 114 -120 114q-97 0 -148.5 -86t-51.5 -198q0 -75 33.5 -123t107.5 -48q56 0 95.5 31t55.5 89h175q-29 -130 -119 -199q-87 -65 -213 -65zM352 750l-84 125h131
l36 -55h2l53 55h142l-125 -125h-155z" />
    <glyph glyph-name="ccaron" unicode="&#x10d;" horiz-adv-x="532" 
d="M239 571l-83 138h132l34 -66h2l55 66h141l-127 -138h-154zM257 -16q-106 0 -175 57t-69 170q0 131 80.5 223t210.5 92q98 0 159 -48.5t65 -147.5h-154q-7 77 -74 77q-61 0 -94 -62t-33 -137q0 -103 87 -103q77 0 100 89h153q-19 -98 -88.5 -153.5t-167.5 -56.5z" />
    <glyph glyph-name="Dcaron" unicode="&#x10e;" horiz-adv-x="692" 
d="M321 750l-84 125h131l36 -55h2l53 55h142l-125 -125h-155zM-2 0l138 715h256q138 0 220 -80t82 -225q0 -189 -104 -301q-103 -109 -280 -109h-312zM201 148h109q98 0 152 68.5t54 184.5q0 82 -38.5 124.5t-112.5 42.5h-83z" />
    <glyph glyph-name="dcaron" unicode="&#x10f;" horiz-adv-x="582" 
d="M629 524l9 47q58 5 65 43h-56l19 101h123l-16 -87q-20 -101 -144 -104zM204 -16q-87 0 -139.5 61t-51.5 163q0 127 70.5 223t188.5 96q100 0 144 -81h3l52 269h160l-138 -715h-153l11 59h-2q-56 -75 -145 -75zM264 110q59 0 93 56t34 124q0 50 -22.5 82.5t-67.5 32.5
q-59 0 -91 -57.5t-32 -127.5q0 -110 86 -110z" />
    <glyph glyph-name="Dcroat" unicode="&#x110;" horiz-adv-x="700" 
d="M9 0l58 297h-54l25 134h54l55 284h256q138 0 220 -80t82 -225q0 -189 -104 -301q-103 -109 -280 -109h-312zM212 148h109q98 0 152 68.5t54 184.5q0 82 -38.5 124.5t-112.5 42.5h-83l-26 -137h151l-25 -134h-152z" />
    <glyph glyph-name="dcroat" unicode="&#x111;" horiz-adv-x="582" 
d="M205 -16q-87 0 -139.5 61t-51.5 163q0 127 70.5 223t188.5 96q100 0 144 -81h3l23 121h-117l15 81h118l13 67h160l-13 -67h51l-15 -81h-52l-109 -567h-153l11 59h-2q-56 -75 -145 -75zM179 220q0 -110 86 -110q59 0 93 56t34 124q0 50 -22.5 82.5t-67.5 32.5
q-59 0 -91 -57.5t-32 -127.5z" />
    <glyph glyph-name="Emacron" unicode="&#x112;" horiz-adv-x="608" 
d="M270 762l20 100h282l-20 -100h-282zM-2 0l138 715h519l-28 -144h-344l-25 -131h296l-26 -136h-297l-30 -155h356l-29 -149h-530z" />
    <glyph glyph-name="emacron" unicode="&#x113;" horiz-adv-x="543" 
d="M522 214h-351q1 -54 21.5 -83.5t71.5 -29.5q65 0 88 52h158q-25 -77 -91 -122.5t-162 -45.5q-109 0 -176.5 61t-67.5 175q0 125 80 215.5t203 90.5q81 0 137 -34q119 -75 89 -279zM168 587l20 100h282l-20 -100h-282zM294 412q-38 0 -67 -27t-43 -74h192q2 45 -18.5 73
t-63.5 28z" />
    <glyph glyph-name="Ebreve" unicode="&#x114;" horiz-adv-x="608" 
d="M417 744q-71 0 -112 39t-40 106h90q3 -47 64 -47q29 0 48 13.5t25 33.5h91q-10 -67 -55 -106t-111 -39zM-2 0l138 715h519l-28 -144h-344l-25 -131h296l-26 -136h-297l-30 -155h356l-29 -149h-530z" />
    <glyph glyph-name="ebreve" unicode="&#x115;" horiz-adv-x="543" 
d="M522 214h-351q1 -54 21.5 -83.5t71.5 -29.5q65 0 88 52h158q-25 -77 -91 -122.5t-162 -45.5q-109 0 -176.5 61t-67.5 175q0 125 80 215.5t203 90.5q81 0 137 -34q119 -75 89 -279zM315 566q-71 0 -112 39t-40 106h90q3 -47 64 -47q29 0 48 13.5t25 33.5h90
q-10 -67 -54.5 -106t-110.5 -39zM294 412q-38 0 -67 -27t-43 -74h192q2 45 -18.5 73t-63.5 28z" />
    <glyph glyph-name="Edotaccent" unicode="&#x116;" horiz-adv-x="608" 
d="M330 753l26 130h160l-26 -130h-160zM-2 0l138 715h519l-28 -144h-344l-25 -131h296l-26 -136h-297l-30 -155h356l-29 -149h-530z" />
    <glyph glyph-name="edotaccent" unicode="&#x117;" horiz-adv-x="543" 
d="M522 214h-351q1 -54 21.5 -83.5t71.5 -29.5q65 0 88 52h158q-25 -77 -91 -122.5t-162 -45.5q-109 0 -176.5 61t-67.5 175q0 125 80 215.5t203 90.5q81 0 137 -34q119 -75 89 -279zM237 583l25 132h160l-25 -132h-160zM294 412q-38 0 -67 -27t-43 -74h192q2 45 -18.5 73
t-63.5 28z" />
    <glyph glyph-name="Eogonek" unicode="&#x118;" horiz-adv-x="608" 
d="M406 -177q-52 0 -82.5 21t-30.5 59q0 58 76 97h-371l138 715h519l-28 -144h-344l-25 -131h296l-26 -136h-297l-30 -155h356l-29 -149h-43q-57 -39 -57 -66q0 -22 26 -22q11 0 23 4h1l-16 -84q-23 -9 -56 -9z" />
    <glyph glyph-name="eogonek" unicode="&#x119;" horiz-adv-x="543" 
d="M353 153h156q-27 -79 -95 -126q-7 -5 -24.5 -17t-27 -19t-21 -17.5t-17 -20t-5.5 -19.5q0 -22 26 -22q11 0 23 4h1l-16 -84q-23 -9 -56 -9q-52 0 -82.5 21t-30.5 59q0 48 62 83q-106 4 -169.5 64t-63.5 171q0 125 80 215.5t203 90.5q81 0 137 -34q119 -77 89 -279h-354
q2 -113 96 -113q66 0 89 52zM294 412q-41 0 -70 -27t-43 -74h196q2 44 -19 72.5t-64 28.5z" />
    <glyph glyph-name="Ecaron" unicode="&#x11a;" horiz-adv-x="608" 
d="M331 750l-84 125h131l36 -55h2l53 55h142l-125 -125h-155zM-2 0l138 715h519l-28 -144h-344l-25 -131h296l-26 -136h-297l-30 -155h356l-29 -149h-530z" />
    <glyph glyph-name="ecaron" unicode="&#x11b;" horiz-adv-x="543" 
d="M522 214h-351q1 -54 21.5 -83.5t71.5 -29.5q65 0 88 52h158q-25 -77 -91 -122.5t-162 -45.5q-109 0 -176.5 61t-67.5 175q0 125 80 215.5t203 90.5q81 0 137 -34q119 -75 89 -279zM230 571l-83 138h132l34 -66h2l55 66h141l-127 -138h-154zM294 412q-38 0 -67 -27
t-43 -74h192q2 45 -18.5 73t-63.5 28z" />
    <glyph glyph-name="Gcircumflex" unicode="&#x11c;" horiz-adv-x="720" 
d="M320 -16q-142 0 -223 98q-66 80 -66 211q0 112 47 210.5t139 162t210 63.5q122 -1 202 -62.5t85 -185.5h-171q-5 48 -37.5 75.5t-86.5 27.5q-98 0 -153.5 -85.5t-55.5 -201.5q0 -171 151 -171q64 0 107 34.5t56 94.5h-131l25 129h293l-74 -384h-122l5 80h-2
q-33 -45 -85 -70.5t-113 -25.5zM247 750l125 125h154l84 -125h-131l-36 55h-2l-52 -55h-142z" />
    <glyph glyph-name="gcircumflex" unicode="&#x11d;" horiz-adv-x="562" 
d="M149 574l127 137h154l83 -137h-132l-34 66h-2l-55 -66h-141zM219 -177q-90 0 -155 41t-75 124h158q11 -51 76 -51q81 0 99 95l10 52h-3q-53 -55 -124 -56q-83 0 -136.5 57.5t-53.5 148.5q0 116 68 204.5t178 88.5q102 0 145 -78h2l12 63h153l-93 -481q-21 -106 -88 -158
q-63 -50 -173 -50zM258 147q55 0 88 47.5t33 108.5q-1 45 -23 74t-64 29q-55 0 -87 -47t-32 -111q0 -44 21.5 -72.5t63.5 -28.5z" />
    <glyph glyph-name="Gbreve" unicode="&#x11e;" horiz-adv-x="720" 
d="M441 744q-71 0 -112 39t-40 106h90q3 -47 64 -47q29 0 48 13.5t25 33.5h91q-10 -67 -55 -106t-111 -39zM320 -16q-142 0 -223 98q-66 80 -66 211q0 112 47 210.5t139 162t210 63.5q122 -1 202 -62.5t85 -185.5h-171q-5 48 -37.5 75.5t-86.5 27.5q-98 0 -153.5 -85.5
t-55.5 -201.5q0 -171 151 -171q64 0 107 34.5t56 94.5h-131l25 129h293l-74 -384h-122l5 80h-2q-33 -45 -85 -70.5t-113 -25.5z" />
    <glyph glyph-name="gbreve" unicode="&#x11f;" horiz-adv-x="562" 
d="M219 -177q-90 0 -155 41t-75 124h158q11 -51 76 -51q81 0 99 95l10 52h-3q-53 -55 -124 -56q-83 0 -136.5 57.5t-53.5 148.5q0 116 68 204.5t178 88.5q102 0 145 -78h2l12 63h153l-93 -481q-21 -106 -88 -158q-63 -50 -173 -50zM258 147q55 0 88 47.5t33 108.5
q-1 45 -23 74t-64 29q-55 0 -87 -47t-32 -111q0 -44 21.5 -72.5t63.5 -28.5zM336 566q-71 0 -112 39t-40 106h90q3 -47 64 -47q29 0 48 13.5t25 33.5h90q-10 -67 -54.5 -106t-110.5 -39z" />
    <glyph glyph-name="Gdotaccent" unicode="&#x120;" horiz-adv-x="720" 
d="M348 753l26 130h160l-26 -130h-160zM320 -16q-142 0 -223 98q-66 80 -66 211q0 112 47 210.5t139 162t210 63.5q122 -1 202 -62.5t85 -185.5h-171q-5 48 -37.5 75.5t-86.5 27.5q-98 0 -153.5 -85.5t-55.5 -201.5q0 -171 151 -171q64 0 107 34.5t56 94.5h-131l25 129h293
l-74 -384h-122l5 80h-2q-33 -45 -85 -70.5t-113 -25.5z" />
    <glyph glyph-name="gdotaccent" unicode="&#x121;" horiz-adv-x="562" 
d="M219 -177q-90 0 -155 41t-75 124h158q11 -51 76 -51q81 0 99 95l10 52h-3q-53 -55 -124 -56q-83 0 -136.5 57.5t-53.5 148.5q0 116 68 204.5t178 88.5q102 0 145 -78h2l12 63h153l-93 -481q-21 -106 -88 -158q-63 -50 -173 -50zM258 147q55 0 88 47.5t33 108.5
q-1 45 -23 74t-64 29q-55 0 -87 -47t-32 -111q0 -44 21.5 -72.5t63.5 -28.5zM253 583l25 132h160l-25 -132h-160z" />
    <glyph glyph-name="Gcommaaccent" unicode="&#x122;" horiz-adv-x="720" 
d="M211 -263l10 48q68 12 77 60h-63l21 108h136l-19 -97q-21 -109 -162 -119zM320 -16q-142 0 -223 98q-66 80 -66 211q0 112 47 210.5t139 162t210 63.5q122 -1 202 -62.5t85 -185.5h-171q-5 48 -37.5 75.5t-86.5 27.5q-98 0 -153.5 -85.5t-55.5 -201.5q0 -171 151 -171
q64 0 107 34.5t56 94.5h-131l25 129h293l-74 -384h-122l5 80h-2q-33 -45 -85 -70.5t-113 -25.5z" />
    <glyph glyph-name="gcommaaccent" unicode="&#x123;" horiz-adv-x="562" 
d="M263 587l19 97q21 109 162 119l-10 -48q-69 -12 -77 -60h62l-21 -108h-135zM219 -177q-90 0 -155 41t-75 124h158q11 -51 76 -51q81 0 99 95l10 52h-3q-53 -55 -124 -56q-83 0 -136.5 57.5t-53.5 148.5q0 116 68 204.5t178 88.5q102 0 145 -78h2l12 63h153l-93 -481
q-21 -106 -88 -158q-63 -50 -173 -50zM258 147q55 0 88 47.5t33 108.5q-1 45 -23 74t-64 29q-55 0 -87 -47t-32 -111q0 -44 21.5 -72.5t63.5 -28.5z" />
    <glyph glyph-name="Hcircumflex" unicode="&#x124;" horiz-adv-x="682" 
d="M-2 0l138 715h175l-53 -272h237l53 272h174l-138 -715h-174l57 299h-237l-57 -299h-175zM242 750l125 125h154l84 -125h-131l-36 55h-2l-52 -55h-142z" />
    <glyph glyph-name="hcircumflex" unicode="&#x125;" horiz-adv-x="556" 
d="M-12 0l138 715h160l-53 -273h3q64 85 158 85q79 0 117.5 -57.5t20.5 -154.5l-61 -315h-160l59 303q18 92 -60 92q-41 0 -69.5 -32t-38.5 -82l-54 -281h-160zM179 750l125 125h154l84 -125h-131l-36 55h-2l-52 -55h-142z" />
    <glyph glyph-name="Hbar" unicode="&#x126;" horiz-adv-x="682" 
d="M46 520l16 84h53l21 111h175l-22 -111h237l22 111h174l-21 -111h53l-16 -84h-54l-100 -520h-174l57 299h-237l-57 -299h-175l100 520h-52zM258 443h237l15 77h-237z" />
    <glyph glyph-name="hbar" unicode="&#x127;" horiz-adv-x="556" 
d="M286 715l-13 -67h120l-15 -81h-121l-24 -125h3q64 85 158 85q79 0 117.5 -57.5t20.5 -154.5l-61 -315h-160l59 303q18 92 -60 92q-41 0 -69.5 -32t-38.5 -82l-54 -281h-160l109 567h-49l16 81h49l13 67h160z" />
    <glyph glyph-name="Itilde" unicode="&#x128;" horiz-adv-x="272" 
d="M-2 0l139 715h174l-138 -715h-175zM294 752q-31 0 -68 17.5t-49 17.5q-27 0 -35 -36h-83q11 65 43.5 100t76.5 35q29 0 65 -18.5t48 -18.5q26 0 36 35h83q-10 -61 -40 -96.5t-77 -35.5z" />
    <glyph glyph-name="itilde" unicode="&#x129;" horiz-adv-x="237" 
d="M238 572q-30 0 -62.5 17.5t-41.5 17.5q-26 0 -34 -36h-81q9 65 40.5 100t73.5 35q29 0 61 -18.5t42 -18.5q25 0 33 35h81q-8 -60 -37.5 -96t-74.5 -36zM-12 0l99 512h160l-99 -512h-160z" />
    <glyph glyph-name="Imacron" unicode="&#x12a;" horiz-adv-x="272" 
d="M-2 0l139 715h174l-138 -715h-175zM87 762l20 100h282l-20 -100h-282z" />
    <glyph glyph-name="imacron" unicode="&#x12b;" horiz-adv-x="237" 
d="M-12 0l99 512h160l-99 -512h-160zM54 587l19 100h257l-19 -100h-257z" />
    <glyph glyph-name="Ibreve" unicode="&#x12c;" horiz-adv-x="272" 
d="M-2 0l139 715h174l-138 -715h-175zM241 744q-71 0 -112 39t-40 106h90q3 -47 64 -47q29 0 48 13.5t25 33.5h91q-10 -67 -55 -106t-111 -39z" />
    <glyph glyph-name="ibreve" unicode="&#x12d;" horiz-adv-x="237" 
d="M-12 0l99 512h160l-99 -512h-160zM187 566q-71 0 -112 39t-40 106h90q3 -47 64 -47q29 0 48 13.5t25 33.5h90q-10 -67 -54.5 -106t-110.5 -39z" />
    <glyph glyph-name="Iogonek" unicode="&#x12e;" horiz-adv-x="272" 
d="M86 -177q-53 0 -83.5 21t-30.5 59q0 58 78 97h-52l139 715h174l-137 -710q-67 -37 -67 -71q0 -22 27 -22q9 0 23 4h1l-17 -84q-22 -9 -55 -9z" />
    <glyph glyph-name="iogonek" unicode="&#x12f;" horiz-adv-x="237" 
d="M63 -177q-53 0 -83.5 21t-30.5 59q0 57 89 97h-50l99 512h160l-98 -507q-65 -41 -65 -71q0 -22 27 -22q9 0 23 4h1l-17 -84q-22 -9 -55 -9zM101 583l25 132h160l-25 -132h-160z" />
    <glyph glyph-name="Idotaccent" unicode="&#x130;" horiz-adv-x="272" 
d="M-2 0l139 715h174l-138 -715h-175zM150 753l26 130h160l-26 -130h-160z" />
    <glyph glyph-name="dotlessi" unicode="&#x131;" horiz-adv-x="237" 
d="M-12 0l99 512h160l-99 -512h-160z" />
    <glyph glyph-name="IJ" unicode="&#x132;" horiz-adv-x="798" 
d="M-2 0l139 715h174l-138 -715h-175zM486 -13q-116 0 -179 61t-39 182l10 48h159l-11 -55q-18 -91 66 -91q66 0 81 79l98 504h173l-100 -521q-17 -91 -69 -140q-70 -67 -189 -67z" />
    <glyph glyph-name="ij" unicode="&#x133;" horiz-adv-x="473" 
d="M-12 0l99 512h160l-99 -512h-160zM101 583l25 132h160l-25 -132h-160zM198 -172q-49 0 -86 10l21 113q44 -3 63.5 5t25.5 40l101 516h160l-103 -532q-17 -82 -60 -117q-46 -35 -122 -35zM337 583l25 132h160l-25 -132h-160z" />
    <glyph glyph-name="Jcircumflex" unicode="&#x134;" horiz-adv-x="534" 
d="M222 -13q-116 0 -179 61t-39 182l10 48h159l-11 -55q-18 -91 66 -91q66 0 81 79l98 504h173l-100 -521q-17 -91 -69 -140q-70 -67 -189 -67zM311 750l125 125h154l84 -125h-131l-36 55h-2l-52 -55h-142z" />
    <glyph glyph-name="jcircumflex" unicode="&#x135;" horiz-adv-x="237" 
d="M3 574l116 137h150l72 -137h-128l-26 64h-2l-47 -64h-135zM-38 -172q-49 0 -86 10l21 113q44 -3 63.5 5t25.5 40l101 516h160l-103 -532q-17 -82 -60 -117q-46 -35 -122 -35z" />
    <glyph glyph-name="Kcommaaccent" unicode="&#x136;" horiz-adv-x="675" 
d="M441 0l-143 314l-78 -71l-47 -243h-175l138 715h175l-51 -264l280 264h207l-314 -287l199 -428h-191zM181 -263l10 48q68 12 77 60h-63l21 108h136l-19 -97q-21 -109 -162 -119z" />
    <glyph glyph-name="kcommaaccent" unicode="&#x137;" horiz-adv-x="540" 
d="M-12 0l138 715h158l-74 -383l176 180h186l-208 -197l133 -315h-176l-82 209l-64 -60l-29 -149h-158zM114 -263l10 48q68 12 77 60h-63l21 108h136l-19 -97q-21 -109 -162 -119z" />
    <glyph glyph-name="Lacute" unicode="&#x139;" horiz-adv-x="546" 
d="M162 750l62 130h181l-121 -130h-122zM-2 0l138 715h175l-110 -566h308l-28 -149h-483z" />
    <glyph glyph-name="lacute" unicode="&#x13a;" horiz-adv-x="241" 
d="M147 750l62 130h181l-121 -130h-122zM-11 0l138 715h163l-138 -715h-163z" />
    <glyph glyph-name="Lcommaaccent" unicode="&#x13b;" horiz-adv-x="548" 
d="M127 -263l10 48q68 12 77 60h-63l21 108h136l-19 -97q-21 -109 -162 -119zM-2 0l138 715h175l-110 -566h308l-28 -149h-483z" />
    <glyph glyph-name="lcommaaccent" unicode="&#x13c;" horiz-adv-x="241" 
d="M-52 -263l10 48q68 12 77 60h-63l21 108h136l-19 -97q-21 -109 -162 -119zM-11 0l138 715h163l-138 -715h-163z" />
    <glyph glyph-name="Lcaron" unicode="&#x13d;" horiz-adv-x="546" 
d="M364 514l9 49q62 5 69 45h-59l20 107h129l-17 -92q-20 -106 -151 -109zM-2 0l138 715h175l-110 -566h308l-28 -149h-483z" />
    <glyph glyph-name="lcaron" unicode="&#x13e;" horiz-adv-x="241" 
d="M288 524l9 47q58 5 65 43h-56l19 101h123l-16 -87q-20 -101 -144 -104zM-11 0l138 715h163l-138 -715h-163z" />
    <glyph glyph-name="Ldot" unicode="&#x13f;" horiz-adv-x="548" 
d="M-2 0l138 715h175l-110 -566h308l-28 -149h-483zM353 306l32 168h168l-33 -168h-167z" />
    <glyph glyph-name="ldot" unicode="&#x140;" horiz-adv-x="406" 
d="M-11 0l138 715h163l-138 -715h-163zM242 247l32 165h158l-32 -165h-158z" />
    <glyph glyph-name="Lslash" unicode="&#x141;" horiz-adv-x="556" 
d="M-18 188l24 123l65 28l73 376h174l-57 -293l209 91l-24 -122l-208 -91l-29 -151h308l-29 -149h-482l42 217z" />
    <glyph glyph-name="lslash" unicode="&#x142;" horiz-adv-x="276" 
d="M-10 196l24 120l59 37l70 362h163l-48 -247l67 42l-23 -120l-67 -42l-67 -348h-163l45 233z" />
    <glyph glyph-name="Nacute" unicode="&#x143;" horiz-adv-x="687" 
d="M377 750l62 130h181l-121 -130h-122zM-2 0l138 715h175l125 -351l32 -101h2l88 452h169l-138 -715h-175l-122 341l-35 114h-2l-88 -455h-169z" />
    <glyph glyph-name="nacute" unicode="&#x144;" horiz-adv-x="556" 
d="M274 572l76 148h185l-138 -148h-123zM-12 0l99 512h155l-16 -81h3q67 96 165 96q79 0 117.5 -57.5t20.5 -154.5l-61 -315h-160l59 303q18 92 -60 92q-40 0 -69 -32t-39 -82l-54 -281h-160z" />
    <glyph glyph-name="Ncommaaccent" unicode="&#x145;" horiz-adv-x="687" 
d="M181 -262l10 48q68 12 77 60h-63l21 108h136l-19 -97q-21 -109 -162 -119zM-2 0l138 715h175l125 -351l32 -101h2l88 452h169l-138 -715h-175l-122 341l-35 114h-2l-88 -455h-169z" />
    <glyph glyph-name="ncommaaccent" unicode="&#x146;" horiz-adv-x="556" 
d="M112 -263l10 48q68 12 77 60h-63l21 108h136l-19 -97q-21 -109 -162 -119zM-12 0l99 512h155l-16 -81h3q67 96 165 96q79 0 117.5 -57.5t20.5 -154.5l-61 -315h-160l59 303q18 92 -60 92q-40 0 -69 -32t-39 -82l-54 -281h-160z" />
    <glyph glyph-name="Ncaron" unicode="&#x147;" horiz-adv-x="687" 
d="M366 750l-84 125h131l36 -55h2l53 55h142l-125 -125h-155zM-2 0l138 715h175l125 -351l32 -101h2l88 452h169l-138 -715h-175l-122 341l-35 114h-2l-88 -455h-169z" />
    <glyph glyph-name="ncaron" unicode="&#x148;" horiz-adv-x="556" 
d="M257 571l-83 138h132l34 -66h2l55 66h141l-127 -138h-154zM-12 0l99 512h155l-16 -81h3q67 96 165 96q79 0 117.5 -57.5t20.5 -154.5l-61 -315h-160l59 303q18 92 -60 92q-40 0 -69 -32t-39 -82l-54 -281h-160z" />
    <glyph glyph-name="napostrophe" unicode="&#x149;" horiz-adv-x="556" 
d="M9 518l10 49q59 3 67 44h-57l19 104h127l-17 -93q-20 -101 -149 -104zM-12 0l99 512h155l-16 -81h3q67 96 165 96q79 0 117.5 -57.5t20.5 -154.5l-61 -315h-160l59 303q18 92 -60 92q-40 0 -69 -32t-39 -82l-54 -281h-160z" />
    <glyph glyph-name="Omacron" unicode="&#x14c;" horiz-adv-x="727" 
d="M290 762l20 100h282l-20 -100h-282zM359 126q67 0 113.5 45.5t65 107t18.5 130.5q0 80 -36 129t-112 49q-67 0 -114 -47t-66 -110t-19 -133q0 -76 36.5 -123.5t113.5 -47.5zM354 -17q-143 0 -233 82.5t-89 229.5q1 117 46 215t134 158.5t204 60.5q145 0 231 -85t86 -233
q0 -178 -103.5 -302.5t-275.5 -125.5z" />
    <glyph glyph-name="omacron" unicode="&#x14d;" horiz-adv-x="567" 
d="M179 587l20 100h282l-20 -100h-282zM263 98q44 0 74.5 33.5t42.5 77t11 89.5q0 49 -22 81.5t-68 32.5q-43 0 -73.5 -34t-42.5 -77.5t-11 -88.5q0 -50 21.5 -82t67.5 -32zM260 -16q-104 0 -175.5 61t-71.5 174q0 129 81.5 218t211.5 89q105 0 175.5 -60.5t71.5 -172.5
q0 -131 -81 -220t-212 -89z" />
    <glyph glyph-name="Obreve" unicode="&#x14e;" horiz-adv-x="727" 
d="M443 744q-71 0 -112 39t-40 106h90q3 -47 64 -47q29 0 48 13.5t25 33.5h91q-10 -67 -55 -106t-111 -39zM359 126q67 0 113.5 45.5t65 107t18.5 130.5q0 80 -36 129t-112 49q-67 0 -114 -47t-66 -110t-19 -133q0 -76 36.5 -123.5t113.5 -47.5zM354 -17q-143 0 -233 82.5
t-89 229.5q1 117 46 215t134 158.5t204 60.5q145 0 231 -85t86 -233q0 -178 -103.5 -302.5t-275.5 -125.5z" />
    <glyph glyph-name="obreve" unicode="&#x14f;" horiz-adv-x="567" 
d="M263 98q44 0 74.5 33.5t42.5 77t11 89.5q0 49 -22 81.5t-68 32.5q-43 0 -73.5 -34t-42.5 -77.5t-11 -88.5q0 -50 21.5 -82t67.5 -32zM260 -16q-104 0 -175.5 61t-71.5 174q0 129 81.5 218t211.5 89q105 0 175.5 -60.5t71.5 -172.5q0 -131 -81 -220t-212 -89zM330 566
q-71 0 -112 39t-40 106h90q3 -47 64 -47q29 0 48 13.5t25 33.5h90q-10 -67 -54.5 -106t-110.5 -39z" />
    <glyph glyph-name="Ohungarumlaut" unicode="&#x150;" horiz-adv-x="727" 
d="M359 126q67 0 113.5 45.5t65 107t18.5 130.5q0 80 -36 129t-112 49q-67 0 -114 -47t-66 -110t-19 -133q0 -76 36.5 -123.5t113.5 -47.5zM354 -17q-143 0 -233 82.5t-89 229.5q1 117 46 215t134 158.5t204 60.5q145 0 231 -85t86 -233q0 -178 -103.5 -302.5t-275.5 -125.5
zM280 750l58 140h155l-113 -140h-100zM472 750l58 140h155l-113 -140h-100z" />
    <glyph glyph-name="ohungarumlaut" unicode="&#x151;" horiz-adv-x="567" 
d="M169 572l64 148h155l-119 -148h-100zM361 572l64 148h155l-119 -148h-100zM263 98q44 0 74.5 33.5t42.5 77t11 89.5q0 49 -22 81.5t-68 32.5q-43 0 -73.5 -34t-42.5 -77.5t-11 -88.5q0 -50 21.5 -82t67.5 -32zM260 -16q-104 0 -175.5 61t-71.5 174q0 129 81.5 218
t211.5 89q105 0 175.5 -60.5t71.5 -172.5q0 -131 -81 -220t-212 -89z" />
    <glyph glyph-name="OE" unicode="&#x152;" horiz-adv-x="1058" 
d="M317 -17q-136 0 -211 80t-74 232q1 115 46.5 213.5t132.5 159.5t198 61q118 0 177 -79l13 65h506l-28 -144h-331l-25 -131h283l-26 -136h-284l-30 -155h343l-29 -149h-494l10 53q-80 -70 -177 -70zM342 126q104 0 163 100l47 244q-10 54 -46.5 85.5t-97.5 31.5
q-65 0 -111.5 -46t-67 -110t-20.5 -134q0 -80 33 -125.5t100 -45.5z" />
    <glyph glyph-name="oe" unicode="&#x153;" horiz-adv-x="911" 
d="M258 -16q-105 0 -175 60.5t-70 173.5q1 130 81 219t208 89q126 0 182 -80q73 81 183 81q78 0 134 -34q119 -77 89 -279h-352q2 -113 95 -113q65 0 88 52h156q-25 -76 -90.5 -122t-157.5 -46q-126 0 -182 79q-70 -80 -189 -80zM174 208q0 -48 21.5 -79t67.5 -31
q44 0 73.5 33.5t41 77.5t11.5 92q0 47 -21.5 79t-66.5 32q-43 0 -73.5 -34t-42.5 -78.5t-11 -91.5zM661 412q-81 0 -110 -101h194q2 44 -19 72.5t-65 28.5z" />
    <glyph glyph-name="Racute" unicode="&#x154;" horiz-adv-x="659" 
d="M-2 0l138 715h296q107 0 171 -50.5t64 -140.5q0 -146 -151 -191v-3q85 -31 85 -135q0 -17 -2.5 -65.5t-2.5 -72.5q0 -39 14 -48v-9h-173q-9 12 -9 50q0 18 2 61t2 63q0 95 -98 95h-110l-51 -269h-175zM284 576l-34 -178h129q49 0 81 24.5t32 74.5q0 79 -87 79h-121z
M329 750l62 130h181l-121 -130h-122z" />
    <glyph glyph-name="racute" unicode="&#x155;" horiz-adv-x="376" 
d="M201 572l76 148h185l-138 -148h-123zM-12 0l99 512h154l-17 -84h3q57 92 148 92q24 0 36 -4l-28 -144h-3q-79 12 -125 -23t-64 -125l-43 -224h-160z" />
    <glyph glyph-name="Rcommaaccent" unicode="&#x156;" horiz-adv-x="659" 
d="M182 -263l10 48q68 12 77 60h-63l21 108h136l-19 -97q-21 -109 -162 -119zM-2 0l138 715h296q107 0 171 -50.5t64 -140.5q0 -146 -151 -191v-3q85 -31 85 -135q0 -17 -2.5 -65.5t-2.5 -72.5q0 -39 14 -48v-9h-173q-9 12 -9 50q0 18 2 61t2 63q0 95 -98 95h-110l-51 -269
h-175zM284 576l-34 -178h129q49 0 81 24.5t32 74.5q0 79 -87 79h-121z" />
    <glyph glyph-name="rcommaaccent" unicode="&#x157;" horiz-adv-x="376" 
d="M-56 -263l10 48q68 12 77 60h-63l21 108h136l-19 -97q-21 -109 -162 -119zM-12 0l99 512h154l-17 -84h3q57 92 148 92q24 0 36 -4l-28 -144h-3q-79 12 -125 -23t-64 -125l-43 -224h-160z" />
    <glyph glyph-name="Rcaron" unicode="&#x158;" horiz-adv-x="659" 
d="M317 750l-84 125h131l36 -55h2l53 55h142l-125 -125h-155zM-2 0l138 715h296q107 0 171 -50.5t64 -140.5q0 -146 -151 -191v-3q85 -31 85 -135q0 -17 -2.5 -65.5t-2.5 -72.5q0 -39 14 -48v-9h-173q-9 12 -9 50q0 18 2 61t2 63q0 95 -98 95h-110l-51 -269h-175zM284 576
l-34 -178h129q49 0 81 24.5t32 74.5q0 79 -87 79h-121z" />
    <glyph glyph-name="rcaron" unicode="&#x159;" horiz-adv-x="376" 
d="M188 571l-83 138h132l34 -66h2l55 66h141l-127 -138h-154zM-12 0l99 512h154l-17 -84h3q57 92 148 92q24 0 36 -4l-28 -144h-3q-79 12 -125 -23t-64 -125l-43 -224h-160z" />
    <glyph glyph-name="Sacute" unicode="&#x15a;" horiz-adv-x="627" 
d="M301 -17q-62 0 -115 13t-97.5 40t-69 75.5t-22.5 113.5h175q-1 -53 35 -78t99 -25q50 0 82.5 18.5t32.5 58.5q0 30 -30 48.5t-111 47.5q-108 38 -158.5 82t-50.5 125q0 108 75.5 167t198.5 59q55 0 103 -11.5t89 -36t63.5 -68.5t19.5 -104h-170q1 42 -28 64.5t-83 22.5
q-39 0 -69 -17t-31 -51q0 -28 24.5 -42t105.5 -42q15 -5 23 -8q103 -36 155 -82.5t52 -128.5q0 -116 -84.5 -178.5t-213.5 -62.5zM305 750l62 130h181l-121 -130h-122z" />
    <glyph glyph-name="sacute" unicode="&#x15b;" horiz-adv-x="491" 
d="M210 572l76 148h185l-138 -148h-123zM229 -16q-98 0 -166.5 46t-72.5 136h152q5 -75 90 -75q71 0 71 49q0 15 -13 26t-29.5 17t-50.5 16l-21 6q-74 22 -113 55t-39 96q0 81 61.5 126t159.5 45q91 0 152 -41t66 -123h-147q-3 28 -23 44t-54 16q-28 0 -47.5 -10.5
t-19.5 -32.5q0 -11 6 -19t24 -15.5t31.5 -11.5t49.5 -14q73 -21 115.5 -55t42.5 -99q0 -88 -59.5 -135t-165.5 -47z" />
    <glyph glyph-name="Scircumflex" unicode="&#x15c;" horiz-adv-x="627" 
d="M301 -17q-62 0 -115 13t-97.5 40t-69 75.5t-22.5 113.5h175q-1 -53 35 -78t99 -25q50 0 82.5 18.5t32.5 58.5q0 30 -30 48.5t-111 47.5q-108 38 -158.5 82t-50.5 125q0 108 75.5 167t198.5 59q55 0 103 -11.5t89 -36t63.5 -68.5t19.5 -104h-170q1 42 -28 64.5t-83 22.5
q-39 0 -69 -17t-31 -51q0 -28 24.5 -42t105.5 -42q15 -5 23 -8q103 -36 155 -82.5t52 -128.5q0 -116 -84.5 -178.5t-213.5 -62.5zM185 750l125 125h154l84 -125h-131l-36 55h-2l-52 -55h-142z" />
    <glyph glyph-name="scircumflex" unicode="&#x15d;" horiz-adv-x="491" 
d="M94 574l127 137h154l83 -137h-132l-34 66h-2l-55 -66h-141zM229 -16q-98 0 -166.5 46t-72.5 136h152q5 -75 90 -75q71 0 71 49q0 15 -13 26t-29.5 17t-50.5 16l-21 6q-74 22 -113 55t-39 96q0 81 61.5 126t159.5 45q91 0 152 -41t66 -123h-147q-3 28 -23 44t-54 16
q-28 0 -47.5 -10.5t-19.5 -32.5q0 -11 6 -19t24 -15.5t31.5 -11.5t49.5 -14q73 -21 115.5 -55t42.5 -99q0 -88 -59.5 -135t-165.5 -47z" />
    <glyph glyph-name="Scedilla" unicode="&#x15e;" horiz-adv-x="627" 
d="M241 -193q-67 0 -111 29l22 35q30 -15 67 -15q55 0 55 32q0 24 -33 24q-17 0 -35 -7l-14 24l58 57q-54 5 -98.5 20.5t-81 43t-56 72.5t-17.5 103h175q-1 -53 35 -78t99 -25q50 0 82.5 18.5t32.5 58.5q0 30 -30 48.5t-111 47.5q-108 38 -158.5 82t-50.5 125
q0 108 75.5 167t198.5 59q55 0 103 -11.5t89 -36t63.5 -68.5t19.5 -104h-170q1 42 -28 64.5t-83 22.5q-39 0 -69 -17t-31 -51q0 -28 24.5 -42t105.5 -42q15 -5 23 -8q103 -36 155 -82.5t52 -128.5q0 -115 -83 -177t-210 -64l-36 -30v-2q43 4 69.5 -12t26.5 -49
q0 -41 -36.5 -62t-88.5 -21z" />
    <glyph glyph-name="scedilla" unicode="&#x15f;" horiz-adv-x="491" 
d="M152 -193q-68 0 -111 29l22 35q30 -15 67 -15q55 0 55 32q0 24 -33 24q-18 0 -35 -7l-14 24l62 61q-76 13 -124 57t-51 119h152q5 -75 90 -75q71 0 71 49q0 15 -13 26t-29.5 17t-50.5 16l-21 6q-74 22 -113 55t-39 96q0 81 61.5 126t159.5 45q91 0 152 -41t66 -123h-147
q-3 28 -23 44t-54 16q-28 0 -47.5 -10.5t-19.5 -32.5q0 -11 6 -19t24 -15.5t31.5 -11.5t49.5 -14q73 -21 115.5 -55t42.5 -99q0 -88 -59.5 -135t-165.5 -47h-11l-37 -31v-2q43 4 69.5 -12t26.5 -49q0 -41 -36.5 -62t-88.5 -21z" />
    <glyph glyph-name="Scaron" unicode="&#x160;" horiz-adv-x="627" 
d="M301 -17q-62 0 -115 13t-97.5 40t-69 75.5t-22.5 113.5h175q-1 -53 35 -78t99 -25q50 0 82.5 18.5t32.5 58.5q0 30 -30 48.5t-111 47.5q-108 38 -158.5 82t-50.5 125q0 108 75.5 167t198.5 59q55 0 103 -11.5t89 -36t63.5 -68.5t19.5 -104h-170q1 42 -28 64.5t-83 22.5
q-39 0 -69 -17t-31 -51q0 -28 24.5 -42t105.5 -42q15 -5 23 -8q103 -36 155 -82.5t52 -128.5q0 -116 -84.5 -178.5t-213.5 -62.5zM293 750l-84 125h131l36 -55h2l53 55h142l-125 -125h-155z" />
    <glyph glyph-name="scaron" unicode="&#x161;" horiz-adv-x="491" 
d="M199 571l-83 138h132l34 -66h2l55 66h141l-127 -138h-154zM229 -16q-98 0 -166.5 46t-72.5 136h152q5 -75 90 -75q71 0 71 49q0 15 -13 26t-29.5 17t-50.5 16l-21 6q-74 22 -113 55t-39 96q0 81 61.5 126t159.5 45q91 0 152 -41t66 -123h-147q-3 28 -23 44t-54 16
q-28 0 -47.5 -10.5t-19.5 -32.5q0 -11 6 -19t24 -15.5t31.5 -11.5t49.5 -14q73 -21 115.5 -55t42.5 -99q0 -88 -59.5 -135t-165.5 -47z" />
    <glyph glyph-name="Tcommaaccent" unicode="&#x162;" horiz-adv-x="608" 
d="M131 -263l10 48q68 12 77 60h-63l21 108h136l-19 -97q-21 -109 -162 -119zM166 0l110 567h-201l28 148h578l-28 -148h-203l-110 -567h-174z" />
    <glyph glyph-name="tcommaaccent" unicode="&#x163;" horiz-adv-x="343" 
d="M22 -263l10 48q68 12 77 60h-63l21 108h136l-19 -97q-21 -109 -162 -119zM196 -6q-173 0 -141 158l50 258h-65l20 102h65l31 162h157l-32 -162h91l-20 -102h-91l-46 -239q-5 -30 4.5 -42t38.5 -12q26 0 38 2l-23 -116q-25 -9 -77 -9z" />
    <glyph glyph-name="Tcaron" unicode="&#x164;" horiz-adv-x="608" 
d="M314 750l-84 125h131l36 -55h2l53 55h142l-125 -125h-155zM166 0l110 567h-201l28 148h578l-28 -148h-203l-110 -567h-174z" />
    <glyph glyph-name="tcaron" unicode="&#x165;" horiz-adv-x="343" 
d="M319 533l9 47q58 3 65 40h-56l18 95h123l-15 -81q-20 -98 -144 -101zM40 410l20 102h65l31 162h157l-32 -162h91l-20 -102h-91l-46 -239q-5 -30 4.5 -42t38.5 -12q26 0 38 2l-23 -116q-25 -9 -77 -9q-173 0 -141 158l50 258h-65z" />
    <glyph glyph-name="Tbar" unicode="&#x166;" horiz-adv-x="608" 
d="M75 567l28 148h578l-28 -148h-203l-33 -167h133l-20 -104h-133l-57 -296h-174l57 296h-128l20 104h128l33 167h-201z" />
    <glyph glyph-name="tbar" unicode="&#x167;" horiz-adv-x="343" 
d="M12 269l16 80h65l12 61h-65l20 102h65l31 162h157l-32 -162h91l-20 -102h-91l-12 -61h91l-16 -80h-90l-19 -98q-5 -30 4.5 -42t38.5 -12q26 0 38 2l-23 -116q-25 -9 -77 -9q-173 0 -141 158l22 117h-65z" />
    <glyph glyph-name="Utilde" unicode="&#x168;" horiz-adv-x="673" 
d="M498 752q-31 0 -68 17.5t-49 17.5q-27 0 -35 -36h-83q11 65 43.5 100t76.5 35q29 0 65 -18.5t48 -18.5q26 0 36 35h83q-10 -61 -40 -96.5t-77 -35.5zM319 -13q-147 0 -224 72t-50 215l86 441h174l-89 -459q-12 -61 15 -94.5t93 -33.5q107 0 128 112l92 475h174l-94 -484
q-47 -244 -305 -244z" />
    <glyph glyph-name="utilde" unicode="&#x169;" horiz-adv-x="551" 
d="M163 -15q-83 0 -122.5 55t-20.5 152l61 320h160l-58 -298q-18 -97 56 -97q41 0 69 29.5t39 82.5l54 283h160l-99 -512h-153l15 77h-3q-62 -92 -158 -92zM400 572q-31 0 -65 17.5t-46 17.5q-27 0 -35 -36h-83q11 65 43.5 100t76.5 35q29 0 63 -18.5t45 -18.5q26 0 36 35
h82q-10 -61 -40 -96.5t-77 -35.5z" />
    <glyph glyph-name="Umacron" unicode="&#x16a;" horiz-adv-x="673" 
d="M287 762l20 100h282l-20 -100h-282zM319 -13q-147 0 -224 72t-50 215l86 441h174l-89 -459q-12 -61 15 -94.5t93 -33.5q107 0 128 112l92 475h174l-94 -484q-47 -244 -305 -244z" />
    <glyph glyph-name="umacron" unicode="&#x16b;" horiz-adv-x="551" 
d="M163 -15q-83 0 -122.5 55t-20.5 152l61 320h160l-58 -298q-18 -97 56 -97q41 0 69 29.5t39 82.5l54 283h160l-99 -512h-153l15 77h-3q-62 -92 -158 -92zM191 587l20 100h282l-20 -100h-282z" />
    <glyph glyph-name="Ubreve" unicode="&#x16c;" horiz-adv-x="673" 
d="M428 744q-71 0 -112 39t-40 106h90q3 -47 64 -47q29 0 48 13.5t25 33.5h91q-10 -67 -55 -106t-111 -39zM319 -13q-147 0 -224 72t-50 215l86 441h174l-89 -459q-12 -61 15 -94.5t93 -33.5q107 0 128 112l92 475h174l-94 -484q-47 -244 -305 -244z" />
    <glyph glyph-name="ubreve" unicode="&#x16d;" horiz-adv-x="551" 
d="M163 -15q-83 0 -122.5 55t-20.5 152l61 320h160l-58 -298q-18 -97 56 -97q41 0 69 29.5t39 82.5l54 283h160l-99 -512h-153l15 77h-3q-62 -92 -158 -92zM337 566q-71 0 -112 39t-40 106h90q3 -47 64 -47q29 0 48 13.5t25 33.5h90q-10 -67 -54.5 -106t-110.5 -39z" />
    <glyph glyph-name="Uring" unicode="&#x16e;" horiz-adv-x="673" 
d="M319 -13q-147 0 -224 72t-50 215l86 441h174l-89 -459q-12 -61 15 -94.5t93 -33.5q107 0 128 112l92 475h174l-94 -484q-47 -244 -305 -244zM429 794q18 0 30 12.5t12 30.5t-12 30.5t-30 12.5t-29.5 -12.5t-11.5 -30.5t11.5 -30.5t29.5 -12.5zM429 739q-42 0 -72 28.5
t-30 69.5t30 69.5t72 28.5t72 -28.5t30 -69.5q0 -42 -30 -70t-72 -28z" />
    <glyph glyph-name="uring" unicode="&#x16f;" horiz-adv-x="551" 
d="M333 614q18 0 29.5 12t11.5 30t-11.5 30.5t-29.5 12.5t-30 -12.5t-12 -30.5t12 -30t30 -12zM333 558q-42 0 -72 28.5t-30 69.5t30 70t72 29t72 -29t30 -70t-30 -69.5t-72 -28.5zM163 -15q-83 0 -122.5 55t-20.5 152l61 320h160l-58 -298q-18 -97 56 -97q41 0 69 29.5
t39 82.5l54 283h160l-99 -512h-153l15 77h-3q-62 -92 -158 -92z" />
    <glyph glyph-name="Uhungarumlaut" unicode="&#x170;" horiz-adv-x="673" 
d="M319 -13q-147 0 -224 72t-50 215l86 441h174l-89 -459q-12 -61 15 -94.5t93 -33.5q107 0 128 112l92 475h174l-94 -484q-47 -244 -305 -244zM272 750l58 140h155l-113 -140h-100zM464 750l58 140h155l-113 -140h-100z" />
    <glyph glyph-name="uhungarumlaut" unicode="&#x171;" horiz-adv-x="551" 
d="M163 -15q-83 0 -122.5 55t-20.5 152l61 320h160l-58 -298q-18 -97 56 -97q41 0 69 29.5t39 82.5l54 283h160l-99 -512h-153l15 77h-3q-62 -92 -158 -92zM175 572l64 148h155l-119 -148h-100zM367 572l64 148h155l-119 -148h-100z" />
    <glyph glyph-name="Uogonek" unicode="&#x172;" horiz-adv-x="673" 
d="M313 -177q-52 0 -82.5 21t-30.5 59q0 52 68 87q-124 12 -186 83t-37 201l86 441h174l-89 -459q-12 -61 15 -94.5t93 -33.5q107 0 128 112l92 475h174l-94 -484q-33 -171 -178 -224q-7 -2 -26.5 -8.5t-30.5 -11.5t-25.5 -12.5t-21.5 -17.5t-7 -23q0 -22 26 -22q11 0 23 4
h1l-16 -84q-23 -9 -56 -9z" />
    <glyph glyph-name="uogonek" unicode="&#x173;" horiz-adv-x="551" 
d="M376 -177q-53 0 -83 21t-30 59q0 57 88 97h-42l14 74h-3q-62 -89 -159 -89q-81 0 -120.5 55.5t-20.5 151.5l61 320h160l-58 -298q-18 -95 57 -95q40 0 68 29t39 81l54 283h160l-98 -507q-66 -38 -66 -71q0 -22 27 -22q9 0 23 4h1l-17 -84q-22 -9 -55 -9z" />
    <glyph glyph-name="Wcircumflex" unicode="&#x174;" horiz-adv-x="921" 
d="M148 0l-62 715h174l14 -300l1 -180h2q36 100 65 175l120 305h161l13 -304l3 -176h2q38 109 67 182l119 298h177l-313 -715h-171l-15 344l-2 138h-2q-24 -77 -48 -138l-134 -344h-171zM362 750l125 125h154l84 -125h-131l-36 55h-2l-52 -55h-142z" />
    <glyph glyph-name="wcircumflex" unicode="&#x175;" horiz-adv-x="769" 
d="M248 574l127 137h154l83 -137h-132l-34 66h-2l-55 -66h-141zM109 0l-60 512h160l15 -212l4 -103h2q24 64 42 106l91 209h135l18 -209l6 -107h2q25 63 42 104l89 212h161l-240 -512h-149l-21 233l-6 100h-2q-21 -59 -39 -100l-101 -233h-149z" />
    <glyph glyph-name="Ycircumflex" unicode="&#x176;" horiz-adv-x="639" 
d="M180 0l51 267l-145 448h183l52 -182l25 -111h2q35 59 68 109l124 184h189l-324 -454l-50 -261h-175zM219 750l125 125h154l84 -125h-131l-36 55h-2l-52 -55h-142z" />
    <glyph glyph-name="ycircumflex" unicode="&#x177;" horiz-adv-x="521" 
d="M-15 -169l25 126h54q75 0 75 73q0 26 -13 88l-78 394h167l28 -216l12 -124h2q26 70 50 121l101 219h161l-270 -538q-38 -76 -85 -109.5t-121 -33.5h-108zM128 574l127 137h154l83 -137h-132l-34 66h-2l-55 -66h-141z" />
    <glyph glyph-name="Ydieresis" unicode="&#x178;" horiz-adv-x="639" 
d="M180 0l51 267l-145 448h183l52 -182l25 -111h2q35 59 68 109l124 184h189l-324 -454l-50 -261h-175zM224 753l25 128h151l-25 -128h-151zM436 753l25 128h151l-25 -128h-151z" />
    <glyph glyph-name="Zacute" unicode="&#x179;" horiz-adv-x="629" 
d="M-26 0l26 137l367 371l63 60v3q-51 -1 -70 -1h-251l28 145h543l-26 -135l-356 -361l-75 -70v-3q54 1 76 1h283l-28 -147h-580zM348 750l62 130h181l-121 -130h-122z" />
    <glyph glyph-name="zacute" unicode="&#x17a;" horiz-adv-x="483" 
d="M232 572l76 148h185l-138 -148h-123zM-29 0l22 118l234 223l53 47v3q-47 -1 -63 -1h-154l24 122h410l-22 -118l-221 -211l-66 -58v-3q47 1 70 1h181l-24 -123h-444z" />
    <glyph glyph-name="Zdotaccent" unicode="&#x17b;" horiz-adv-x="629" 
d="M332 753l26 130h160l-26 -130h-160zM-26 0l26 137l367 371l63 60v3q-51 -1 -70 -1h-251l28 145h543l-26 -135l-356 -361l-75 -70v-3q54 1 76 1h283l-28 -147h-580z" />
    <glyph glyph-name="zdotaccent" unicode="&#x17c;" horiz-adv-x="483" 
d="M-29 0l22 118l234 223l53 47v3q-47 -1 -63 -1h-154l24 122h410l-22 -118l-221 -211l-66 -58v-3q47 1 70 1h181l-24 -123h-444zM222 583l25 132h160l-25 -132h-160z" />
    <glyph glyph-name="Zcaron" unicode="&#x17d;" horiz-adv-x="629" 
d="M338 750l-84 125h131l36 -55h2l53 55h142l-125 -125h-155zM-26 0l26 137l367 371l63 60v3q-51 -1 -70 -1h-251l28 145h543l-26 -135l-356 -361l-75 -70v-3q54 1 76 1h283l-28 -147h-580z" />
    <glyph glyph-name="zcaron" unicode="&#x17e;" horiz-adv-x="483" 
d="M224 571l-83 138h132l34 -66h2l55 66h141l-127 -138h-154zM-29 0l22 118l234 223l53 47v3q-47 -1 -63 -1h-154l24 122h410l-22 -118l-221 -211l-66 -58v-3q47 1 70 1h181l-24 -123h-444z" />
    <glyph glyph-name="florin" unicode="&#x192;" horiz-adv-x="418" 
d="M64 417h82l29 129q16 77 65 116q63 50 215 31l-22 -114q-51 3 -71 -5t-28 -46l-25 -111h101l-20 -102h-103l-71 -326q-15 -72 -54 -107q-57 -53 -206 -33l21 106q39 -2 55 6.5t24 46.5l67 307h-79z" />
    <glyph glyph-name="AEacute" unicode="&#x1fc;" horiz-adv-x="971" 
d="M-51 0l374 715h695l-28 -144h-336l-24 -131h287l-26 -136h-288l-30 -155h347l-29 -149h-521l24 127h-206l-64 -127h-175zM412 570l-163 -322h169l62 322h-68zM611 750l62 130h181l-121 -130h-122z" />
    <glyph glyph-name="aeacute" unicode="&#x1fd;" horiz-adv-x="859" 
d="M298 526q115 0 160 -56q63 57 156 57q81 0 135 -34q120 -78 90 -279h-353q2 -113 95 -113q65 0 88 52h156q-23 -75 -88.5 -121.5t-159.5 -46.5q-139 0 -198 93q-64 -91 -197 -91q-87 0 -137.5 39t-50.5 111q0 86 56.5 122.5t161.5 44.5q83 6 112.5 17.5t29.5 46.5
q0 22 -16.5 35.5t-47.5 13.5q-75 0 -91 -67h-149q15 82 77.5 129t170.5 47zM415 572l76 148h185l-138 -148h-123zM149 149q0 -58 66 -58q89 0 108 91l11 58q-29 -14 -87 -23q-2 0 -18 -2.5t-20 -4t-17 -4.5t-18 -7.5t-12.5 -11.5t-10 -16.5t-2.5 -21.5zM610 412
q-82 0 -111 -101h195q2 44 -19.5 72.5t-64.5 28.5z" />
    <glyph glyph-name="Oslashacute" unicode="&#x1fe;" horiz-adv-x="727" 
d="M73 -35l-53 50l73 80q-62 82 -61 200q1 117 46 215t133.5 158.5t203.5 60.5q119 0 201 -59l65 72l54 -49l-67 -73q65 -82 65 -209q0 -178 -103.5 -302.5t-275.5 -125.5q-124 0 -209 61zM359 126q52 0 92 26t62.5 68t34 90t11.5 99q0 46 -10 79l-297 -327q37 -35 107 -35z
M206 297q0 -35 8 -69l296 325q-37 34 -102 34q-68 0 -115.5 -46.5t-67 -110t-19.5 -133.5zM368 750l62 130h181l-121 -130h-122z" />
    <glyph glyph-name="oslashacute" unicode="&#x1ff;" horiz-adv-x="567" 
d="M51 -36l-43 42l56 59q-51 61 -51 154q0 129 81.5 218t212.5 89q88 0 151 -42l56 59l43 -41l-55 -58q50 -61 51 -151q0 -131 -81 -220t-212 -89q-88 0 -151 42zM255 572l76 148h185l-138 -148h-123zM171 208q0 -19 1 -27l194 205q-24 26 -65 26q-63 0 -97 -64.5
t-33 -139.5zM263 98q44 0 75 33.5t44 78t12 91.5q0 8 -2 26l-193 -205q22 -24 64 -24z" />
    <glyph glyph-name="Scommaaccent" unicode="&#x218;" horiz-adv-x="627" 
d="M171 -263l10 48q68 12 77 60h-63l21 108h136l-19 -97q-21 -109 -162 -119zM301 -17q-62 0 -115 13t-97.5 40t-69 75.5t-22.5 113.5h175q-1 -53 35 -78t99 -25q50 0 82.5 18.5t32.5 58.5q0 30 -30 48.5t-111 47.5q-108 38 -158.5 82t-50.5 125q0 108 75.5 167t198.5 59
q55 0 103 -11.5t89 -36t63.5 -68.5t19.5 -104h-170q1 42 -28 64.5t-83 22.5q-39 0 -69 -17t-31 -51q0 -28 24.5 -42t105.5 -42q15 -5 23 -8q103 -36 155 -82.5t52 -128.5q0 -116 -84.5 -178.5t-213.5 -62.5z" />
    <glyph glyph-name="scommaaccent" unicode="&#x219;" horiz-adv-x="491" 
d="M92 -263l10 48q68 12 77 60h-63l21 108h136l-19 -97q-21 -109 -162 -119zM229 -16q-98 0 -166.5 46t-72.5 136h152q5 -75 90 -75q71 0 71 49q0 15 -13 26t-29.5 17t-50.5 16l-21 6q-74 22 -113 55t-39 96q0 81 61.5 126t159.5 45q91 0 152 -41t66 -123h-147q-3 28 -23 44
t-54 16q-28 0 -47.5 -10.5t-19.5 -32.5q0 -11 6 -19t24 -15.5t31.5 -11.5t49.5 -14q73 -21 115.5 -55t42.5 -99q0 -88 -59.5 -135t-165.5 -47z" />
    <glyph glyph-name="uni021A" unicode="&#x21a;" horiz-adv-x="608" 
d="M131 -263l10 48q68 12 77 60h-63l21 108h136l-19 -97q-21 -109 -162 -119zM166 0l110 567h-201l28 148h578l-28 -148h-203l-110 -567h-174z" />
    <glyph glyph-name="uni021B" unicode="&#x21b;" horiz-adv-x="343" 
d="M22 -263l10 48q68 12 77 60h-63l21 108h136l-19 -97q-21 -109 -162 -119zM196 -6q-173 0 -141 158l50 258h-65l20 102h65l31 162h157l-32 -162h91l-20 -102h-91l-46 -239q-5 -30 4.5 -42t38.5 -12q26 0 38 2l-23 -116q-25 -9 -77 -9z" />
    <glyph glyph-name="uni0237" unicode="&#x237;" horiz-adv-x="237" 
d="M-38 -172q-49 0 -86 10l21 113q44 -3 63.5 5t25.5 40l101 516h160l-103 -532q-17 -82 -60 -117q-46 -35 -122 -35z" />
    <glyph glyph-name="circumflex" unicode="&#x2c6;" 
d="M126 574l127 137h154l83 -137h-132l-34 66h-2l-55 -66h-141z" />
    <glyph glyph-name="caron" unicode="&#x2c7;" 
d="M233 571l-83 138h132l34 -66h2l55 66h141l-127 -138h-154z" />
    <glyph glyph-name="uni02C9" unicode="&#x2c9;" 
d="M172 587l20 100h282l-20 -100h-282z" />
    <glyph glyph-name="breve" unicode="&#x2d8;" 
d="M342 566q-71 0 -112 39t-40 106h90q3 -47 64 -47q29 0 48 13.5t25 33.5h90q-10 -67 -54.5 -106t-110.5 -39z" />
    <glyph glyph-name="dotaccent" unicode="&#x2d9;" 
d="M229 583l25 132h160l-25 -132h-160z" />
    <glyph glyph-name="ring" unicode="&#x2da;" 
d="M324 614q18 0 29.5 12t11.5 30t-11.5 30.5t-29.5 12.5t-30 -12.5t-12 -30.5t12 -30t30 -12zM324 558q-42 0 -72 28.5t-30 69.5t30 70t72 29t72 -29t30 -70t-30 -69.5t-72 -28.5z" />
    <glyph glyph-name="ogonek" unicode="&#x2db;" 
d="M197 -177q-52 0 -82.5 21t-30.5 59q0 57 89 97h103q-57 -39 -57 -66q0 -22 26 -22q11 0 23 4h1l-16 -84q-23 -9 -56 -9z" />
    <glyph glyph-name="tilde" unicode="&#x2dc;" 
d="M375 572q-31 0 -65 17.5t-46 17.5q-27 0 -35 -36h-83q11 65 43.5 100t76.5 35q30 0 63 -18.5t45 -18.5q26 0 36 35h82q-10 -61 -40 -96.5t-77 -35.5z" />
    <glyph glyph-name="hungarumlaut" unicode="&#x2dd;" 
d="M155 572l64 148h155l-119 -148h-100zM347 572l64 148h155l-119 -148h-100z" />
    <glyph glyph-name="pi" unicode="&#x3c0;" horiz-adv-x="623" 
d="M477 -5q-75 0 -109 36.5t-17 123.5l49 256h-130l-79 -411h-156l79 411h-70l20 101h585l-20 -101h-72l-48 -247q-7 -31 6 -41.5t46 -6.5l-22 -114q-30 -7 -62 -7z" />
    <glyph glyph-name="Wgrave" unicode="&#x1e80;" horiz-adv-x="921" 
d="M490 750l-83 130h175l29 -130h-121zM148 0l-62 715h174l14 -300l1 -180h2q36 100 65 175l120 305h161l13 -304l3 -176h2q38 109 67 182l119 298h177l-313 -715h-171l-15 344l-2 138h-2q-24 -77 -48 -138l-134 -344h-171z" />
    <glyph glyph-name="wgrave" unicode="&#x1e81;" horiz-adv-x="769" 
d="M109 0l-60 512h160l15 -212l4 -103h2q24 64 42 106l91 209h135l18 -209l6 -107h2q25 63 42 104l89 212h161l-240 -512h-149l-21 233l-6 100h-2q-21 -59 -39 -100l-101 -233h-149zM377 572l-97 148h175l43 -148h-121z" />
    <glyph glyph-name="Wacute" unicode="&#x1e82;" horiz-adv-x="921" 
d="M489 750l62 130h181l-121 -130h-122zM148 0l-62 715h174l14 -300l1 -180h2q36 100 65 175l120 305h161l13 -304l3 -176h2q38 109 67 182l119 298h177l-313 -715h-171l-15 344l-2 138h-2q-24 -77 -48 -138l-134 -344h-171z" />
    <glyph glyph-name="wacute" unicode="&#x1e83;" horiz-adv-x="769" 
d="M377 572l76 148h185l-138 -148h-123zM109 0l-60 512h160l15 -212l4 -103h2q24 64 42 106l91 209h135l18 -209l6 -107h2q25 63 42 104l89 212h161l-240 -512h-149l-21 233l-6 100h-2q-21 -59 -39 -100l-101 -233h-149z" />
    <glyph glyph-name="Wdieresis" unicode="&#x1e84;" horiz-adv-x="921" 
d="M364 753l25 128h151l-25 -128h-151zM576 753l25 128h151l-25 -128h-151zM148 0l-62 715h174l14 -300l1 -180h2q36 100 65 175l120 305h161l13 -304l3 -176h2q38 109 67 182l119 298h177l-313 -715h-171l-15 344l-2 138h-2q-24 -77 -48 -138l-134 -344h-171z" />
    <glyph glyph-name="wdieresis" unicode="&#x1e85;" horiz-adv-x="769" 
d="M251 577l25 128h150l-25 -128h-150zM472 577l25 128h150l-25 -128h-150zM109 0l-60 512h160l15 -212l4 -103h2q24 64 42 106l91 209h135l18 -209l6 -107h2q25 63 42 104l89 212h161l-240 -512h-149l-21 233l-6 100h-2q-21 -59 -39 -100l-101 -233h-149z" />
    <glyph glyph-name="Ygrave" unicode="&#x1ef2;" horiz-adv-x="639" 
d="M180 0l51 267l-145 448h183l52 -182l25 -111h2q35 59 68 109l124 184h189l-324 -454l-50 -261h-175zM351 750l-83 130h175l29 -130h-121z" />
    <glyph glyph-name="ygrave" unicode="&#x1ef3;" horiz-adv-x="521" 
d="M-15 -169l25 126h54q75 0 75 73q0 26 -13 88l-78 394h167l28 -216l12 -124h2q26 70 50 121l101 219h161l-270 -538q-38 -76 -85 -109.5t-121 -33.5h-108zM258 572l-97 148h175l43 -148h-121z" />
    <glyph glyph-name="uni2009" unicode="&#x2009;" horiz-adv-x="55" 
 />
    <glyph glyph-name="endash" unicode="&#x2013;" horiz-adv-x="561" 
d="M28 186l27 138h476l-27 -138h-476z" />
    <glyph glyph-name="emdash" unicode="&#x2014;" horiz-adv-x="918" 
d="M28 186l27 138h833l-27 -138h-833z" />
    <glyph glyph-name="quoteleft" unicode="&#x2018;" horiz-adv-x="214" 
d="M65 421l26 137q14 77 59 115q44 40 122 45l-12 -58q-34 -5 -57.5 -28.5t-29.5 -61.5h67l-29 -149h-146z" />
    <glyph glyph-name="quoteright" unicode="&#x2019;" horiz-adv-x="214" 
d="M62 418l12 58q33 5 56.5 28.5t29.5 61.5h-66l28 149h147l-27 -137q-15 -78 -59 -116q-47 -41 -121 -44z" />
    <glyph glyph-name="quotesinglbase" unicode="&#x201a;" horiz-adv-x="214" 
d="M-48 -149l12 59q34 5 57.5 28.5t29.5 61.5h-67l29 149h146l-26 -137q-14 -76 -59 -116q-46 -40 -122 -45z" />
    <glyph glyph-name="quotedblleft" unicode="&#x201c;" horiz-adv-x="421" 
d="M65 421l26 137q14 77 59 115q44 40 122 45l-12 -58q-34 -5 -57.5 -28.5t-29.5 -61.5h67l-29 -149h-146zM272 421l26 137q14 77 59 115q44 40 122 45l-12 -58q-34 -5 -57.5 -28.5t-29.5 -61.5h67l-29 -149h-146z" />
    <glyph glyph-name="quotedblright" unicode="&#x201d;" horiz-adv-x="421" 
d="M62 418l12 58q33 5 56.5 28.5t29.5 61.5h-66l28 149h147l-27 -137q-15 -78 -59 -116q-47 -41 -121 -44zM269 418l12 58q33 5 56.5 28.5t29.5 61.5h-66l28 149h147l-27 -137q-15 -78 -59 -116q-47 -41 -121 -44z" />
    <glyph glyph-name="quotedblbase" unicode="&#x201e;" horiz-adv-x="421" 
d="M-48 -149l12 59q34 5 57.5 28.5t29.5 61.5h-67l29 149h146l-26 -137q-14 -76 -59 -116q-46 -40 -122 -45zM159 -149l12 59q34 5 57.5 28.5t29.5 61.5h-67l29 149h146l-26 -137q-14 -76 -59 -116q-46 -40 -122 -45z" />
    <glyph glyph-name="dagger" unicode="&#x2020;" horiz-adv-x="580" 
d="M129 -143l101 525h-173l26 132h173l39 201h166l-38 -201h173l-26 -132h-173l-102 -525h-166z" />
    <glyph glyph-name="daggerdbl" unicode="&#x2021;" horiz-adv-x="580" 
d="M129 -143l38 201h-173l26 133h174l36 191h-173l26 132h173l39 201h166l-38 -201h173l-26 -132h-173l-37 -191h174l-26 -133h-174l-39 -201h-166z" />
    <glyph glyph-name="bullet" unicode="&#x2022;" horiz-adv-x="368" 
d="M195 170q-61 0 -105.5 44t-44.5 106t44.5 106t105.5 44t105.5 -44t44.5 -106t-44.5 -106t-105.5 -44z" />
    <glyph glyph-name="ellipsis" unicode="&#x2026;" horiz-adv-x="744" 
d="M-19 0l33 168h168l-33 -168h-168zM238 0l33 168h168l-33 -168h-168zM495 0l32 168h168l-32 -168h-168z" />
    <glyph glyph-name="perthousand" unicode="&#x2030;" horiz-adv-x="1233" 
d="M226 385q27 0 45.5 28.5t26 63.5t7.5 70q0 68 -47 68q-27 0 -46 -28t-26.5 -63t-7.5 -69q0 -70 48 -70zM221 299q-74 0 -118 46t-44 119q0 98 56.5 167t146.5 69q74 0 118 -45t44 -120q0 -98 -56 -167t-147 -69zM136 0l507 686h95l-507 -686h-95zM615 69q27 0 45.5 28.5
t26 63.5t7.5 70q0 69 -47 69q-27 0 -46 -28t-26.5 -63.5t-7.5 -69.5q0 -70 48 -70zM610 -17q-74 0 -117.5 46t-43.5 119q0 98 56 167t146 69q74 0 118.5 -45t44.5 -119q0 -98 -56 -167.5t-148 -69.5zM1006 69q27 0 45.5 28.5t26 63.5t7.5 70q0 69 -47 69q-27 0 -46 -28
t-26.5 -63.5t-7.5 -69.5q0 -70 48 -70zM1001 -17q-74 0 -118 46t-44 119q0 98 56.5 167t146.5 69q73 0 117.5 -45t44.5 -119q0 -98 -56 -167.5t-147 -69.5z" />
    <glyph glyph-name="uni2032" unicode="&#x2032;" horiz-adv-x="219" 
d="M55 446l95 269h139l-95 -269h-139z" />
    <glyph glyph-name="uni2033" unicode="&#x2033;" horiz-adv-x="418" 
d="M55 446l95 269h139l-95 -269h-139zM254 446l94 269h140l-95 -269h-139z" />
    <glyph glyph-name="guilsinglleft" unicode="&#x2039;" horiz-adv-x="261" 
d="M168 34l-141 145l30 153l195 137l-30 -154l-98 -68v-2l72 -68z" />
    <glyph glyph-name="guilsinglright" unicode="&#x203a;" horiz-adv-x="261" 
d="M6 34l30 154l98 68v2l-72 68l28 143l141 -145l-30 -153z" />
    <glyph glyph-name="fraction" unicode="&#x2044;" horiz-adv-x="280" 
d="M-208 0l633 715h100l-632 -715h-101z" />
    <glyph glyph-name="Euro" unicode="&#x20ac;" horiz-adv-x="641" 
d="M36 366l12 64h43q39 126 128 198t196 72q121 0 183.5 -63.5t62.5 -182.5h-161q2 113 -92 113q-45 0 -83.5 -35t-61.5 -102h159l-12 -64h-163q-6 -36 -7 -57h159l-12 -64h-149q3 -127 105 -127q48 -1 82 32.5t49 92.5h161q-25 -124 -103 -191.5t-194 -67.5
q-120 0 -192 67.5t-78 193.5h-55l12 64h44q4 38 7 57h-40z" />
    <glyph glyph-name="uni2113" unicode="&#x2113;" horiz-adv-x="395" 
d="M189 -5q-184 0 -151 168l2 11q-13 -3 -49 -10l19 96q17 4 49 14l59 297q32 152 181 152q140 0 140 -136q0 -110 -63 -200.5t-171 -149.5l-9 -48q-7 -37 4.5 -53.5t45.5 -16.5q8 0 53 5l-23 -119q-50 -10 -87 -10zM270 568l-40 -206l18 17q37 38 58.5 100.5t21.5 108.5
q0 33 -23 33q-24 0 -35 -53z" />
    <glyph glyph-name="trademark" unicode="&#x2122;" horiz-adv-x="688" 
d="M344 440l53 275h119l13 -155h2l72 155h120l-53 -275h-80l32 165h-2l-83 -165h-63l-17 165h-2l-32 -165h-79zM142 440l40 203h-76l13 72h241l-14 -72h-77l-39 -203h-88z" />
    <glyph glyph-name="Omega" unicode="&#x2126;" horiz-adv-x="729" 
d="M-20 0l26 132h111v3q-37 27 -58 77t-21 108q0 167 107 288t280 121q132 0 220 -76.5t88 -215.5q0 -98 -37.5 -177t-110.5 -125v-3h93l-26 -132h-304l24 128q61 7 104 57.5t61 114t18 130.5q-1 72 -35.5 114t-107.5 42q-55 0 -96 -27.5t-63.5 -73.5t-33.5 -96t-11 -103
q0 -132 95 -158l-25 -128h-298z" />
    <glyph glyph-name="estimated" unicode="&#x212e;" horiz-adv-x="636" 
d="M341 -11q-141 0 -221.5 88t-80.5 232q0 140 83 229t214 89q109 0 177 -59q98 -82 96 -267h-414v-222q57 -42 146 -42q86 0 136.5 38t76.5 111h51q-20 -89 -88 -143t-176 -54zM195 345h262v205q-52 32 -121 32q-86 0 -141 -43v-194z" />
    <glyph glyph-name="onethird" unicode="&#x2153;" horiz-adv-x="833" 
d="M115 318l46 235h-89l15 80q101 5 131 86h94l-78 -401h-119zM38 0l633 715h100l-632 -715h-101zM617 -10q-74 0 -122 38t-47 107h110q0 -28 15.5 -44.5t44.5 -16.5q25 0 40.5 13.5t15.5 36.5q0 44 -57 44h-24l15 74h27q26 0 42 11t16 32q0 19 -13 29t-33 10q-48 0 -61 -51
h-107q10 59 58 95.5t118 36.5q64 0 106.5 -29t41.5 -81q-1 -31 -20 -54.5t-50 -34.5v-1q55 -25 55 -83q0 -63 -51 -97.5t-120 -34.5z" />
    <glyph glyph-name="twothirds" unicode="&#x2154;" horiz-adv-x="917" 
d="M37 318q13 87 90 142q21 15 42.5 28t50 28t37.5 20q23 14 33.5 26.5t10.5 33.5q0 18 -11 28t-30 10q-25 0 -42 -18.5t-24 -51.5h-109q11 77 61.5 118t124.5 41q60 0 102.5 -30t42.5 -87q0 -71 -73 -120q-21 -15 -68 -39t-63 -38h172l-18 -91h-329zM701 -10q-74 0 -122 38
t-47 107h110q0 -28 15.5 -44.5t44.5 -16.5q25 0 40.5 13.5t15.5 36.5q0 44 -57 44h-24l15 74h27q26 0 42 11t16 32q0 19 -13 29t-33 10q-48 0 -61 -51h-107q10 59 58 95.5t118 36.5q64 0 106.5 -29t41.5 -81q-1 -31 -20 -54.5t-50 -34.5v-1q55 -25 55 -83q0 -63 -51 -97.5
t-120 -34.5zM137 0l633 715h100l-632 -715h-101z" />
    <glyph glyph-name="oneeighth" unicode="&#x215b;" horiz-adv-x="838" 
d="M115 318l46 235h-89l15 80q101 5 131 86h94l-78 -401h-119zM39 0l633 715h100l-632 -715h-101zM615 -10q-70 0 -119.5 28.5t-49.5 86.5q0 79 90 108v2q-42 24 -42 71q0 59 49.5 89t111.5 30q68 0 112.5 -26t43.5 -80q-1 -63 -68 -92v-2q56 -26 56 -85q0 -66 -54 -98
t-130 -32zM620 68q27 0 45.5 15.5t18.5 42.5q0 23 -17 36t-41 13q-27 0 -45.5 -15t-18.5 -42q0 -24 17.5 -37t40.5 -13zM649 242q23 0 38.5 12.5t15.5 34.5t-14 33.5t-35 11.5q-23 0 -38 -14t-15 -35t13.5 -32t34.5 -11z" />
    <glyph glyph-name="threeeighths" unicode="&#x215c;" horiz-adv-x="888" 
d="M221 309q-74 0 -121.5 37.5t-46.5 106.5h110q0 -61 59 -61q25 0 40.5 13.5t15.5 36.5q0 44 -56 44h-24l15 74h26q26 0 42 11t16 32q0 19 -13 29t-33 10q-48 0 -61 -51h-107q11 59 58.5 95.5t118.5 36.5q63 0 105.5 -29t42.5 -81q-1 -31 -20.5 -54.5t-50.5 -34.5v-1
q56 -25 56 -83q0 -63 -51 -97t-121 -34zM104 0l633 715h100l-632 -715h-101zM666 -10q-70 0 -119.5 28.5t-49.5 86.5q0 79 90 108v2q-42 24 -42 71q0 59 49.5 89t111.5 30q68 0 112.5 -26t43.5 -80q-1 -63 -68 -92v-2q56 -26 56 -85q0 -66 -54 -98t-130 -32zM671 68
q27 0 45.5 15.5t18.5 42.5q0 23 -17 36t-41 13q-27 0 -45.5 -15t-18.5 -42q0 -24 17.5 -37t40.5 -13zM700 242q23 0 38.5 12.5t15.5 34.5t-14 33.5t-35 11.5q-23 0 -38 -14t-15 -35t13.5 -32t34.5 -11z" />
    <glyph glyph-name="fiveeighths" unicode="&#x215d;" horiz-adv-x="875" 
d="M214 309q-70 0 -115.5 34.5t-48.5 92.5h107q8 -43 58 -43q28 0 45 19t17 49q0 25 -13.5 39t-36.5 14q-37 0 -56 -25h-95l68 226h260l-17 -86h-177l-20 -67h1q37 27 81 27q54 0 86.5 -34t32.5 -89q0 -75 -50.5 -116t-126.5 -41zM87 0l633 715h100l-632 -715h-101zM653 -10
q-70 0 -119.5 28.5t-49.5 86.5q0 79 90 108v2q-42 24 -42 71q0 59 49.5 89t111.5 30q68 0 112.5 -26t43.5 -80q-1 -63 -68 -92v-2q56 -26 56 -85q0 -66 -54 -98t-130 -32zM658 68q27 0 45.5 15.5t18.5 42.5q0 23 -17 36t-41 13q-27 0 -45.5 -15t-18.5 -42q0 -24 17.5 -37
t40.5 -13zM687 242q23 0 38.5 12.5t15.5 34.5t-14 33.5t-35 11.5q-23 0 -38 -14t-15 -35t13.5 -32t34.5 -11z" />
    <glyph glyph-name="seveneighths" unicode="&#x215e;" horiz-adv-x="818" 
d="M17 0l633 715h100l-632 -715h-101zM596 -10q-70 0 -119.5 28.5t-49.5 86.5q0 79 90 108v2q-42 24 -42 71q0 59 49.5 89t111.5 30q68 0 112.5 -26t43.5 -80q-1 -63 -68 -92v-2q56 -26 56 -85q0 -66 -54 -98t-130 -32zM601 68q27 0 45.5 15.5t18.5 42.5q0 23 -17 36t-41 13
q-27 0 -45.5 -15t-18.5 -42q0 -24 17.5 -37t40.5 -13zM630 242q23 0 38.5 12.5t15.5 34.5t-14 33.5t-35 11.5q-23 0 -38 -14t-15 -35t13.5 -32t34.5 -11zM93 318q21 93 72 170t116 132v1h-191l18 94h308l-17 -84q-65 -54 -113 -135t-68 -178h-125z" />
    <glyph glyph-name="partialdiff" unicode="&#x2202;" horiz-adv-x="580" 
d="M273 -15q-120 0 -185 63t-65 167q0 113 69 184.5t178 71.5q76 0 116 -38q-31 127 -234 151v138q200 -10 303.5 -113.5t103.5 -294.5q0 -156 -72 -242.5t-214 -86.5zM275 101q54 0 83 44.5t29 107.5q0 51 -23.5 78t-64.5 27q-51 0 -82 -38t-31 -105q0 -56 23.5 -85
t65.5 -29z" />
    <glyph glyph-name="Delta" unicode="&#x2206;" horiz-adv-x="666" 
d="M173 132h269l-49 300l-13 112h-1q-30 -71 -49 -107zM-29 0l21 110l328 605h178l118 -604l-21 -111h-624z" />
    <glyph glyph-name="product" unicode="&#x220f;" horiz-adv-x="749" 
d="M87 -100v815h613v-815h-174v670h-265v-670h-174z" />
    <glyph glyph-name="summation" unicode="&#x2211;" horiz-adv-x="665" 
d="M76 -100v145l252 270v2l-252 258v140h540v-138h-341v-2l223 -221v-70l-230 -240v-2h358v-142h-550z" />
    <glyph glyph-name="minus" unicode="&#x2212;" horiz-adv-x="557" 
d="M40 265l26 129h478l-25 -129h-479z" />
    <glyph glyph-name="uni2215" unicode="&#x2215;" horiz-adv-x="280" 
d="M-208 0l633 715h100l-632 -715h-101z" />
    <glyph glyph-name="uni2219" unicode="&#x2219;" horiz-adv-x="231" 
d="M27 234l32 168h168l-33 -168h-167z" />
    <glyph glyph-name="radical" unicode="&#x221a;" horiz-adv-x="622" 
d="M230 -100l-130 300h-75v138h187l49 -124l39 -112h2q12 55 31 113l161 500h162l-269 -815h-157z" />
    <glyph glyph-name="infinity" unicode="&#x221e;" horiz-adv-x="725" 
d="M190 119q-77 0 -120 53t-43 133t43.5 133t119.5 53q58 0 99.5 -28t80.5 -81q38 53 78 81t96 28q73 0 118.5 -51t45.5 -135q0 -85 -45.5 -135.5t-118.5 -50.5q-56 0 -96 27.5t-78 80.5q-39 -53 -80 -80.5t-100 -27.5zM204 237q42 0 82 67q-40 68 -82 68q-26 0 -39.5 -18.5
t-13.5 -48.5t13.5 -49t39.5 -19zM531 237q27 0 40.5 19t13.5 49q0 29 -13.5 48t-40.5 19q-39 0 -79 -68q40 -67 79 -67z" />
    <glyph glyph-name="integral" unicode="&#x222b;" horiz-adv-x="365" 
d="M97 -176q-54 0 -95 11v120h2q24 -4 44 -4q32 0 46.5 11t14.5 41v571q0 83 38 124q43 43 138 43q51 0 94 -10v-121h-2q-18 5 -42 5q-33 0 -48 -11t-15 -41v-572q0 -83 -38 -123q-44 -44 -137 -44z" />
    <glyph glyph-name="approxequal" unicode="&#x2248;" horiz-adv-x="537" 
d="M17 125q9 86 48.5 127.5t101.5 41.5q37 0 110 -17t91 -17q32 0 39 33h105q-19 -163 -145 -163q-40 0 -114 16t-92 16q-31 0 -40 -37h-104zM49 334q20 168 152 168q37 0 110 -16.5t91 -16.5t26.5 7.5t11.5 25.5h106q-19 -163 -145 -163q-40 0 -114 16t-92 16
q-31 0 -41 -37h-105z" />
    <glyph glyph-name="notequal" unicode="&#x2260;" horiz-adv-x="554" 
d="M65 353l25 125h251l51 85h101l-51 -85h109l-24 -125h-160l-52 -87h195l-24 -125h-246l-49 -83h-101l49 83h-115l25 125h165l52 87h-201z" />
    <glyph glyph-name="lessequal" unicode="&#x2264;" horiz-adv-x="494" 
d="M423 130l-379 141l30 152l431 133l-25 -133l-193 -56l-100 -25v-2q56 -14 91 -25l170 -55zM-8 0l22 112h405l-21 -112h-406z" />
    <glyph glyph-name="greaterequal" unicode="&#x2265;" horiz-adv-x="494" 
d="M21 130l26 134l192 55l100 26v2q-55 13 -90 24l-170 55l25 130l378 -141l-29 -152zM-4 0l22 112h405l-21 -112h-406z" />
    <glyph glyph-name="uni24C5" unicode="&#x24c5;" horiz-adv-x="810" 
d="M271 145v414h193q73 0 115 -39q44 -39 44 -105q0 -60 -39.5 -99t-101.5 -39h-95v-132h-116zM387 365h67q25 0 39 13.5t14 36.5q0 50 -54 50h-66v-100zM424 35q131 0 219 91.5t88 228.5q0 138 -88 229.5t-219 91.5t-219 -91.5t-88 -229.5q0 -137 88 -228.5t219 -91.5z
M424 -17q-156 0 -262 106.5t-106 265.5q0 160 106.5 266.5t261.5 106.5t261.5 -106.5t106.5 -266.5q0 -159 -106 -265.5t-262 -106.5z" />
    <glyph glyph-name="lozenge" unicode="&#x25ca;" horiz-adv-x="596" 
d="M316 139h2l113 215l-115 223h-2l-113 -217zM236 0l-202 358l201 357h161l202 -358l-201 -357h-161z" />
    <glyph glyph-name="uniF8FF" unicode="&#xf8ff;" horiz-adv-x="851" 
d="M372 118h144v169h168v144h-168v163h-144v-163h-168v-144h168v-169zM86 0v716h716v-716h-716z" />
    <glyph glyph-name="idotaccent" horiz-adv-x="237" 
d="M-12 0l99 512h160l-99 -512h-160zM101 583l25 132h160l-25 -132h-160z" />
    <glyph glyph-name="grave.cap" 
d="M298 750l-83 130h175l29 -130h-121z" />
    <glyph glyph-name="acute.cap" 
d="M264 750l62 130h181l-121 -130h-122z" />
    <glyph glyph-name="circumflex.cap" 
d="M160 750l125 125h154l84 -125h-131l-36 55h-2l-52 -55h-142z" />
    <glyph glyph-name="caron.cap" 
d="M268 750l-84 125h131l36 -55h2l53 55h142l-125 -125h-155z" />
    <glyph glyph-name="caron.alt" 
d="M233 524l9 47q58 5 65 43h-56l19 101h123l-16 -87q-20 -101 -144 -104z" />
    <glyph glyph-name="tilde.cap" 
d="M412 752q-31 0 -68 17.5t-49 17.5q-27 0 -35 -36h-83q11 65 43.5 100t76.5 35q29 0 65 -18.5t48 -18.5q26 0 36 35h83q-10 -61 -40 -96.5t-77 -35.5z" />
    <glyph glyph-name="dieresis.cap" 
d="M160 753l25 128h151l-25 -128h-151zM372 753l25 128h151l-25 -128h-151z" />
    <glyph glyph-name="macron.cap" 
d="M205 762l20 100h282l-20 -100h-282z" />
    <glyph glyph-name="breve.cap" 
d="M379 744q-71 0 -112 39t-40 106h90q3 -47 64 -47q29 0 48 13.5t25 33.5h91q-10 -67 -55 -106t-111 -39z" />
    <glyph glyph-name="ring.cap" 
d="M359 794q18 0 30 12.5t12 30.5t-12 30.5t-30 12.5t-29.5 -12.5t-11.5 -30.5t11.5 -30.5t29.5 -12.5zM359 739q-42 0 -72 28.5t-30 69.5t30 69.5t72 28.5t72 -28.5t30 -69.5q0 -42 -30 -70t-72 -28z" />
    <glyph glyph-name="hungarumlaut.cap" 
d="M190 750l58 140h155l-113 -140h-100zM382 750l58 140h155l-113 -140h-100z" />
    <glyph glyph-name="dotaccent.cap" 
d="M262 753l26 130h160l-26 -130h-160z" />
    <glyph glyph-name="space_uni0326" 
d="M75 -263l10 48q68 12 77 60h-63l21 108h136l-19 -97q-21 -109 -162 -119z" />
    <glyph glyph-name="space_uni0326.alt" 
d="M242 587l19 97q21 109 162 119l-10 -48q-69 -12 -77 -60h62l-21 -108h-135z" />
    <glyph glyph-name="R.alt" horiz-adv-x="662" 
d="M425 0l-94 254h-107l-49 -254h-177l138 715h282q133 0 195 -64q55 -57 55 -144q0 -85 -46 -145t-123 -87l111 -275h-185zM251 391h127q50 0 81.5 24t31.5 76q0 36 -22.5 56t-64.5 20h-119z" />
    <glyph glyph-name="Racute.alt" horiz-adv-x="662" 
d="M425 0l-94 254h-107l-49 -254h-177l138 715h282q133 0 195 -64q55 -57 55 -144q0 -85 -46 -145t-123 -87l111 -275h-185zM251 391h127q50 0 81.5 24t31.5 76q0 36 -22.5 56t-64.5 20h-119zM334 750l62 130h181l-121 -130h-122z" />
    <glyph glyph-name="Rcaron.alt" horiz-adv-x="662" 
d="M425 0l-94 254h-107l-49 -254h-177l138 715h282q133 0 195 -64q55 -57 55 -144q0 -85 -46 -145t-123 -87l111 -275h-185zM251 391h127q50 0 81.5 24t31.5 76q0 36 -22.5 56t-64.5 20h-119zM315 750l-84 125h131l36 -55h2l53 55h142l-125 -125h-155z" />
    <glyph glyph-name="Rcommaaccent.alt" horiz-adv-x="662" 
d="M425 0l-94 254h-107l-49 -254h-177l138 715h282q133 0 195 -64q55 -57 55 -144q0 -85 -46 -145t-123 -87l111 -275h-185zM251 391h127q50 0 81.5 24t31.5 76q0 36 -22.5 56t-64.5 20h-119zM179 -263l10 48q68 12 77 60h-63l21 108h136l-19 -97q-21 -109 -162 -119z" />
    <glyph glyph-name="a.alt" horiz-adv-x="531" 
d="M155 -13q-70 0 -115.5 39t-45.5 109q0 88 58 125.5t168 44.5q78 6 106 17t28 46q0 22 -16.5 35.5t-47.5 13.5q-75 0 -91 -67h-149q15 82 77.5 129t170.5 47q106 0 159 -45q67 -55 45 -165l-37 -187q-3 -18 4 -25t24 -4h3l-18 -95q-28 -14 -68 -14q-49 0 -71 16.5
t-31 52.5h-1q-53 -73 -152 -73zM215 91q42 0 70 22.5t37 64.5l12 63q-29 -14 -87 -23q-2 0 -15.5 -2.5t-17.5 -3t-15.5 -3.5t-16 -6t-13 -8t-11.5 -11t-6 -15t-3 -20q0 -58 66 -58z" />
    <glyph glyph-name="aacute.alt" horiz-adv-x="531" 
d="M250 572l76 148h185l-138 -148h-123zM155 -13q-70 0 -115.5 39t-45.5 109q0 88 58 125.5t168 44.5q78 6 106 17t28 46q0 22 -16.5 35.5t-47.5 13.5q-75 0 -91 -67h-149q15 82 77.5 129t170.5 47q106 0 159 -45q67 -55 45 -165l-37 -187q-3 -18 4 -25t24 -4h3l-18 -95
q-28 -14 -68 -14q-49 0 -71 16.5t-31 52.5h-1q-53 -73 -152 -73zM215 91q42 0 70 22.5t37 64.5l12 63q-29 -14 -87 -23q-2 0 -15.5 -2.5t-17.5 -3t-15.5 -3.5t-16 -6t-13 -8t-11.5 -11t-6 -15t-3 -20q0 -58 66 -58z" />
    <glyph glyph-name="abreve.alt" horiz-adv-x="531" 
d="M155 -13q-70 0 -115.5 39t-45.5 109q0 88 58 125.5t168 44.5q78 6 106 17t28 46q0 22 -16.5 35.5t-47.5 13.5q-75 0 -91 -67h-149q15 82 77.5 129t170.5 47q106 0 159 -45q67 -55 45 -165l-37 -187q-3 -18 4 -25t24 -4h3l-18 -95q-28 -14 -68 -14q-49 0 -71 16.5
t-31 52.5h-1q-53 -73 -152 -73zM215 91q42 0 70 22.5t37 64.5l12 63q-29 -14 -87 -23q-2 0 -15.5 -2.5t-17.5 -3t-15.5 -3.5t-16 -6t-13 -8t-11.5 -11t-6 -15t-3 -20q0 -58 66 -58zM322 566q-71 0 -112 39t-40 106h90q3 -47 64 -47q29 0 48 13.5t25 33.5h90
q-10 -67 -54.5 -106t-110.5 -39z" />
    <glyph glyph-name="acircumflex.alt" horiz-adv-x="531" 
d="M130 574l127 137h154l83 -137h-132l-34 66h-2l-55 -66h-141zM155 -13q-70 0 -115.5 39t-45.5 109q0 88 58 125.5t168 44.5q78 6 106 17t28 46q0 22 -16.5 35.5t-47.5 13.5q-75 0 -91 -67h-149q15 82 77.5 129t170.5 47q106 0 159 -45q67 -55 45 -165l-37 -187
q-3 -18 4 -25t24 -4h3l-18 -95q-28 -14 -68 -14q-49 0 -71 16.5t-31 52.5h-1q-53 -73 -152 -73zM215 91q42 0 70 22.5t37 64.5l12 63q-29 -14 -87 -23q-2 0 -15.5 -2.5t-17.5 -3t-15.5 -3.5t-16 -6t-13 -8t-11.5 -11t-6 -15t-3 -20q0 -58 66 -58z" />
    <glyph glyph-name="adieresis.alt" horiz-adv-x="531" 
d="M134 577l25 128h150l-25 -128h-150zM355 577l25 128h150l-25 -128h-150zM155 -13q-70 0 -115.5 39t-45.5 109q0 88 58 125.5t168 44.5q78 6 106 17t28 46q0 22 -16.5 35.5t-47.5 13.5q-75 0 -91 -67h-149q15 82 77.5 129t170.5 47q106 0 159 -45q67 -55 45 -165l-37 -187
q-3 -18 4 -25t24 -4h3l-18 -95q-28 -14 -68 -14q-49 0 -71 16.5t-31 52.5h-1q-53 -73 -152 -73zM215 91q42 0 70 22.5t37 64.5l12 63q-29 -14 -87 -23q-2 0 -15.5 -2.5t-17.5 -3t-15.5 -3.5t-16 -6t-13 -8t-11.5 -11t-6 -15t-3 -20q0 -58 66 -58z" />
    <glyph glyph-name="agrave.alt" horiz-adv-x="531" 
d="M155 -13q-70 0 -115.5 39t-45.5 109q0 88 58 125.5t168 44.5q78 6 106 17t28 46q0 22 -16.5 35.5t-47.5 13.5q-75 0 -91 -67h-149q15 82 77.5 129t170.5 47q106 0 159 -45q67 -55 45 -165l-37 -187q-3 -18 4 -25t24 -4h3l-18 -95q-28 -14 -68 -14q-49 0 -71 16.5
t-31 52.5h-1q-53 -73 -152 -73zM215 91q42 0 70 22.5t37 64.5l12 63q-29 -14 -87 -23q-2 0 -15.5 -2.5t-17.5 -3t-15.5 -3.5t-16 -6t-13 -8t-11.5 -11t-6 -15t-3 -20q0 -58 66 -58zM264 572l-97 148h175l43 -148h-121z" />
    <glyph glyph-name="amacron.alt" horiz-adv-x="531" 
d="M155 -13q-70 0 -115.5 39t-45.5 109q0 88 58 125.5t168 44.5q78 6 106 17t28 46q0 22 -16.5 35.5t-47.5 13.5q-75 0 -91 -67h-149q15 82 77.5 129t170.5 47q106 0 159 -45q67 -55 45 -165l-37 -187q-3 -18 4 -25t24 -4h3l-18 -95q-28 -14 -68 -14q-49 0 -71 16.5
t-31 52.5h-1q-53 -73 -152 -73zM215 91q42 0 70 22.5t37 64.5l12 63q-29 -14 -87 -23q-2 0 -15.5 -2.5t-17.5 -3t-15.5 -3.5t-16 -6t-13 -8t-11.5 -11t-6 -15t-3 -20q0 -58 66 -58zM172 587l20 100h282l-20 -100h-282z" />
    <glyph glyph-name="aogonek.alt" horiz-adv-x="531" 
d="M387 -177q-53 0 -83 21t-30 59q0 58 84 95q-39 14 -50 62h-1q-53 -73 -152 -73q-70 0 -115.5 39t-45.5 109q0 88 58 125.5t168 44.5q78 6 106 17t28 46q0 22 -16.5 35.5t-47.5 13.5q-75 0 -91 -67h-149q15 82 77.5 129t170.5 47q105 0 160 -45q66 -55 44 -165l-37 -187
q-3 -18 4 -25t24 -4h3l-18 -95q-70 -35 -70 -71q0 -22 27 -22q9 0 23 4h1l-17 -84q-22 -9 -55 -9zM215 91q42 0 70 22.5t37 64.5l12 63q-29 -14 -87 -23q-2 0 -15.5 -2.5t-17.5 -3t-15.5 -3.5t-16 -6t-13 -8t-11.5 -11t-6 -15t-3 -20q0 -58 66 -58z" />
    <glyph glyph-name="aring.alt" horiz-adv-x="531" 
d="M324 614q18 0 29.5 12t11.5 30t-11.5 30.5t-29.5 12.5t-30 -12.5t-12 -30.5t12 -30t30 -12zM324 558q-42 0 -72 28.5t-30 69.5t30 70t72 29t72 -29t30 -70t-30 -69.5t-72 -28.5zM155 -13q-70 0 -115.5 39t-45.5 109q0 88 58 125.5t168 44.5q78 6 106 17t28 46
q0 22 -16.5 35.5t-47.5 13.5q-75 0 -91 -67h-149q15 82 77.5 129t170.5 47q106 0 159 -45q67 -55 45 -165l-37 -187q-3 -18 4 -25t24 -4h3l-18 -95q-28 -14 -68 -14q-49 0 -71 16.5t-31 52.5h-1q-53 -73 -152 -73zM215 91q42 0 70 22.5t37 64.5l12 63q-29 -14 -87 -23
q-2 0 -15.5 -2.5t-17.5 -3t-15.5 -3.5t-16 -6t-13 -8t-11.5 -11t-6 -15t-3 -20q0 -58 66 -58z" />
    <glyph glyph-name="atilde.alt" horiz-adv-x="531" 
d="M155 -13q-70 0 -115.5 39t-45.5 109q0 88 58 125.5t168 44.5q78 6 106 17t28 46q0 22 -16.5 35.5t-47.5 13.5q-75 0 -91 -67h-149q15 82 77.5 129t170.5 47q106 0 159 -45q67 -55 45 -165l-37 -187q-3 -18 4 -25t24 -4h3l-18 -95q-28 -14 -68 -14q-49 0 -71 16.5
t-31 52.5h-1q-53 -73 -152 -73zM215 91q42 0 70 22.5t37 64.5l12 63q-29 -14 -87 -23q-2 0 -15.5 -2.5t-17.5 -3t-15.5 -3.5t-16 -6t-13 -8t-11.5 -11t-6 -15t-3 -20q0 -58 66 -58zM376 572q-31 0 -65 17.5t-46 17.5q-27 0 -35 -36h-83q11 65 43.5 100t76.5 35
q29 0 63 -18.5t45 -18.5q26 0 36 35h82q-10 -61 -40 -96.5t-77 -35.5z" />
    <glyph glyph-name="Ccedilla.alt" horiz-adv-x="690" 
d="M224 -169l7 37q65 3 73 41h-63l17 84q-107 23 -166.5 102t-59.5 200q0 114 45.5 212t135 160t204.5 62q123 0 195 -57q84 -65 92 -203h-174q-6 114 -120 114q-97 0 -148.5 -86t-51.5 -198q0 -75 33.5 -123t107.5 -48q56 0 95.5 31t55.5 89h175q-29 -130 -119 -199
q-73 -54 -170 -63l-13 -65q-18 -90 -151 -90z" />
    <glyph glyph-name="Scedilla.alt" horiz-adv-x="627" 
d="M191 -169l7 37q65 3 72 41h-63l16 80q-104 15 -167 72.5t-59 163.5h175q-1 -53 35 -78t99 -25q50 0 82.5 18.5t32.5 58.5q0 30 -30 48.5t-111 47.5q-108 38 -158.5 82t-50.5 125q0 108 75.5 167t198.5 59q55 0 103 -11.5t89 -36t63.5 -68.5t19.5 -104h-170q1 42 -28 64.5
t-83 22.5q-39 0 -69 -17t-31 -51q0 -28 24.5 -42t105.5 -42q15 -5 23 -8q103 -36 155 -82.5t52 -128.5q0 -103 -67.5 -164t-176.5 -74l-14 -65q-18 -90 -150 -90z" />
    <glyph glyph-name="ccedilla.alt" horiz-adv-x="532" 
d="M138 -169l7 37q62 3 69 41h-59l17 85q-73 19 -116 73.5t-43 143.5q0 131 80.5 223t210.5 92q98 0 159 -48.5t65 -147.5h-154q-7 77 -74 77q-61 0 -94 -62t-33 -137q0 -103 87 -103q77 0 100 89h153q-17 -88 -74.5 -142t-140.5 -65l-13 -63q-19 -93 -147 -93z" />
    <glyph glyph-name="scedilla.alt" horiz-adv-x="493" 
d="M118 -169l7 37q61 3 69 41h-60l16 83q-69 15 -112.5 59t-47.5 115h152q5 -75 90 -75q71 0 71 49q0 15 -13 26t-29.5 17t-50.5 16l-21 6q-74 22 -113 55t-39 96q0 81 61.5 126t159.5 45q91 0 152 -41t66 -123h-147q-3 28 -23 44t-54 16q-28 0 -47.5 -10.5t-19.5 -32.5
q0 -11 6 -19t24 -15.5t31.5 -11.5t49.5 -14q73 -21 115.5 -55t42.5 -99q0 -78 -46.5 -123.5t-130.5 -55.5l-13 -63q-19 -93 -146 -93z" />
    <glyph glyph-name="hyphen.cap" horiz-adv-x="337" 
d="M20 246l30 151h290l-30 -151h-290z" />
    <glyph glyph-name="endash.cap" horiz-adv-x="561" 
d="M41 257l27 137h477l-27 -137h-477z" />
    <glyph glyph-name="emdash.cap" horiz-adv-x="917" 
d="M41 257l27 137h833l-27 -137h-833z" />
    <glyph glyph-name="questiondown.cap" horiz-adv-x="538" 
d="M397 481q-14 -73 -36 -107t-66 -64q-11 -8 -39 -24t-43 -26t-28.5 -29.5t-13.5 -41.5q0 -33 21 -50.5t57 -17.5q43 0 73.5 26.5t39.5 77.5h161q-19 -115 -95.5 -176.5t-191.5 -61.5q-97 0 -165.5 45.5t-68.5 140.5q0 120 123 188q85 47 96 56q25 21 32 64h144zM456 715
l-33 -168h-168l33 168h168z" />
    <glyph glyph-name="exclamdown.cap" horiz-adv-x="260" 
d="M215 481l-21 -315l-32 -166h-166l34 177l103 304h82zM301 715l-33 -168h-168l33 168h168z" />
    <glyph glyph-name="parenleft.cap" horiz-adv-x="335" 
d="M117 -95q-62 140 -62 291q0 168 61 317.5t165 263.5h142q-214 -278 -214 -593q0 -152 40 -279h-132z" />
    <glyph glyph-name="parenright.cap" horiz-adv-x="335" 
d="M-57 -95q214 278 214 593q0 150 -40 279h132q62 -140 62 -291q0 -168 -61 -317.5t-165 -263.5h-142z" />
    <glyph glyph-name="bracketleft.cap" horiz-adv-x="389" 
d="M-12 -95l169 872h302l-24 -124h-151l-121 -625h151l-24 -123h-302z" />
    <glyph glyph-name="bracketright.cap" horiz-adv-x="389" 
d="M-39 -95l24 123h151l121 625h-151l25 124h302l-169 -872h-303z" />
    <glyph glyph-name="braceleft.cap" horiz-adv-x="389" 
d="M276 -95q-121 0 -171 47.5t-28 157.5l20 102q8 38 -6.5 56.5t-60.5 22.5l23 118q48 1 68.5 16t27.5 53l23 119q19 103 70.5 141.5t147.5 38.5h69l-25 -126h-31q-40 0 -58 -15.5t-25 -56.5l-27 -140q-8 -45 -28 -66t-57 -34v-3q31 -16 41.5 -40.5t1.5 -71.5l-25 -125
q-8 -40 9 -54.5t60 -14.5h18l-24 -125h-13z" />
    <glyph glyph-name="braceright.cap" horiz-adv-x="389" 
d="M-39 -95l24 125h32q40 0 58 15.5t25 56.5l27 143q9 45 28.5 66t57.5 34v3q-31 16 -42 41t-2 71l25 122q8 40 -9 54.5t-60 14.5h-19l25 126h13q121 0 171 -47.5t28 -157.5l-20 -100q-7 -38 7.5 -56.5t59.5 -22.5l-23 -118q-47 -1 -68 -16.5t-28 -52.5l-23 -121
q-19 -102 -70.5 -141t-147.5 -39h-69z" />
    <glyph glyph-name="guillemotleft.cap" horiz-adv-x="433" 
d="M165 104l-125 137l30 156l176 127l-29 -146l-93 -68v-2l67 -67zM353 104l-123 137l30 156l174 127l-28 -146l-91 -68v-2l64 -67z" />
    <glyph glyph-name="guillemotright.cap" horiz-adv-x="433" 
d="M20 104l28 146l91 68v2l-64 67l26 137l123 -137l-30 -156zM208 104l29 146l93 68v2l-67 67l26 137l125 -137l-30 -156z" />
    <glyph glyph-name="guilsinglleft.cap" horiz-adv-x="261" 
d="M180 96l-141 145l30 154l195 137l-30 -154l-98 -69v-2l72 -68z" />
    <glyph glyph-name="guilsinglright.cap" horiz-adv-x="261" 
d="M19 96l29 154l98 69v2l-71 68l28 143l140 -145l-30 -154z" />
    <glyph glyph-name="registered.alt" horiz-adv-x="810" 
d="M259 154v405h199q66 0 109 -31t43 -88q0 -70 -68 -98v-2q48 -16 58 -73q3 -18 5 -46t4.5 -42t9.5 -17v-8h-114q-5 3 -7 17t-4 37.5t-5 38.5q-5 27 -18.5 39t-41.5 12h-57v-144h-113zM372 381h66q58 0 58 45t-56 45h-68v-90zM424 35q131 0 219 91.5t88 228.5
q0 138 -88 229.5t-219 91.5t-219 -91.5t-88 -229.5q0 -137 88 -228.5t219 -91.5zM424 -17q-156 0 -262 106.5t-106 265.5q0 160 106.5 266.5t261.5 106.5t261.5 -106.5t106.5 -266.5q0 -159 -106 -265.5t-262 -106.5z" />
    <glyph glyph-name="dollar.cap" horiz-adv-x="623" 
d="M210 -108l19 100q-106 14 -168.5 73t-58.5 162h169q0 -87 84 -102l32 169q-109 43 -157 89.5t-48 123.5q0 105 77.5 163t201.5 58h10l13 65h62l-14 -71q91 -14 146.5 -66t54.5 -147h-160q-1 64 -66 83l-30 -154q113 -43 163 -92.5t50 -126.5q0 -113 -81.5 -172.5
t-208.5 -59.5h-11l-18 -95h-61zM420 197q0 24 -16 40t-60 35l-29 -151q45 2 75 21.5t30 54.5zM247 532q-1 -23 15 -39.5t57 -32.5l27 139q-99 -4 -99 -67z" />
    <glyph glyph-name="Euro.cap" horiz-adv-x="673" 
d="M40 383l13 66h46q39 130 131 205t203 75q125 0 189 -65.5t65 -189.5h-168q0 118 -94 118q-47 0 -86.5 -37t-62.5 -106h165l-14 -66h-168q-6 -37 -7 -61h164l-13 -66h-153q3 -134 108 -134q49 0 83 35t50 97h168q-26 -130 -106 -200t-201 -70q-124 0 -197.5 70t-79.5 202
h-59l13 66h47q4 40 8 61h-44z" />
    <glyph glyph-name="sterling.cap" horiz-adv-x="607" 
d="M34 304l19 93h46q-21 61 -21 102q0 108 79.5 169.5t195.5 61.5q128 0 194 -59q76 -66 66 -202h-167q8 125 -94 125q-44 0 -70 -27.5t-26 -76.5q0 -29 16 -93h146l-18 -93h-113v-3q0 -81 -94 -147l2 -3q37 13 65 13q31 0 79.5 -13t74.5 -13q47 0 94 37l58 -132
q-73 -59 -158 -59q-51 0 -121.5 25.5t-105.5 25.5q-48 0 -116 -43l-65 125q52 28 87.5 73t35.5 99q0 10 -1 15h-88z" />
    <glyph glyph-name="yen.cap" horiz-adv-x="658" 
d="M190 0l25 134h-170l13 66h170l11 60h-170l13 67h148l-144 387h188l54 -175l28 -108h2q30 55 62 101l128 182h190l-293 -387h148l-14 -67h-173l-11 -60h173l-14 -66h-172l-25 -134h-167z" />
    <glyph glyph-name="zero.cap" horiz-adv-x="670" 
d="M320 122q47 0 83 32.5t54.5 84t27.5 103t9 100.5q0 151 -107 151q-47 0 -83.5 -34t-55.5 -86.5t-28 -104.5t-9 -99q0 -147 109 -147zM316 -16q-130 0 -205 81t-75 219q0 82 23 160t66.5 142.5t113.5 104t155 39.5q126 0 201 -80.5t75 -219.5q0 -65 -13.5 -128t-42.5 -121
t-70 -101.5t-100 -69.5t-128 -26z" />
    <glyph glyph-name="one.cap" horiz-adv-x="408" 
d="M117 0l88 459h-150l23 116q165 5 215 144h137l-139 -719h-174z" />
    <glyph glyph-name="two.cap" horiz-adv-x="591" 
d="M-25 0q16 93 57.5 151t110.5 106q45 32 126 81.5t91 56.5q75 50 75 115q0 36 -21 57.5t-59 21.5q-51 1 -83 -34q-32 -34 -45 -104h-164q17 121 79 188q80 90 222 90q104 0 173 -53.5t69 -154.5q0 -84 -44 -139.5t-125 -104.5q-21 -13 -71 -40.5t-83.5 -49.5t-57.5 -46v-1
h318l-27 -140h-541z" />
    <glyph glyph-name="three.cap" horiz-adv-x="610" 
d="M295 -15q-134 0 -212.5 70t-69.5 191h167q-2 -58 27.5 -93.5t90.5 -35.5q50 0 81 28t31 75q1 44 -29.5 68t-88.5 24h-31l23 120h46q46 0 77.5 22.5t31.5 67.5q1 35 -23 56.5t-64 21.5q-52 0 -82.5 -30t-39.5 -81h-164q14 109 93 175t199 66q108 0 180 -48.5t72 -141.5
q0 -122 -130 -167v-2q106 -40 106 -152q0 -107 -83 -170.5t-208 -63.5z" />
    <glyph glyph-name="four.cap" horiz-adv-x="635" 
d="M297 0l31 160h-327l30 156l404 405h169l-83 -432h102l-26 -129h-102l-30 -160h-168zM163 289h190l47 241h-2l-235 -239v-2z" />
    <glyph glyph-name="five.cap" horiz-adv-x="610" 
d="M283 -17q-119 0 -197.5 58t-82.5 173h168q4 -43 34 -68t79 -25q56 0 92 38.5t36 99.5q0 48 -27 77.5t-77 29.5q-63 0 -100 -47h-158l116 396h448l-27 -137h-317l-40 -135h3q52 46 145 46q97 0 153.5 -59t56.5 -162q0 -127 -85 -206t-220 -79z" />
    <glyph glyph-name="six.cap" horiz-adv-x="630" 
d="M311 -17q-127 0 -202 76t-74 211q0 104 36.5 207t106.5 169q89 84 225 84q97 0 162.5 -46.5t75.5 -145.5h-167q-8 67 -82 67q-60 0 -102.5 -48.5t-63.5 -134.5h2q68 70 164 70q89 0 154 -61.5t65 -163.5q-1 -126 -86 -204.5t-214 -79.5zM311 112q57 0 94.5 39t37.5 102
q0 49 -29 80t-79 31q-57 0 -95.5 -39t-38.5 -101q0 -49 30 -80.5t80 -31.5z" />
    <glyph glyph-name="seven.cap" horiz-adv-x="559" 
d="M75 0q26 121 86.5 238.5t123 195t128.5 136.5v2h-336l28 143h520l-25 -129q-119 -102 -213.5 -256.5t-130.5 -329.5h-181z" />
    <glyph glyph-name="eight.cap" horiz-adv-x="623" 
d="M292 -17q-54 0 -103 12t-91 36t-67 65.5t-25 96.5q0 144 155 193v3q-70 42 -70 127q0 99 80 156.5t194 57.5q107 0 182.5 -48t75.5 -141q0 -111 -121 -165v-3q46 -21 70 -61.5t24 -90.5q0 -114 -88 -176t-216 -62zM298 112q53 1 89.5 31.5t36.5 84.5q-1 45 -33 70.5
t-82 25.5q-52 0 -90 -30t-38 -85q0 -46 32.5 -71.5t84.5 -25.5zM351 433q47 0 77.5 23t30.5 69q-1 39 -27.5 62t-69.5 23q-45 -1 -77 -25.5t-33 -69.5q0 -41 27 -61.5t72 -20.5z" />
    <glyph glyph-name="nine.cap" horiz-adv-x="636" 
d="M272 -17q-65 0 -118 18.5t-91 63.5t-44 113h169q5 -32 29 -51t63 -19q121 0 163 183h-2q-73 -68 -158 -68q-97 0 -162 58.5t-65 158.5q0 129 87 209t215 81q127 0 202.5 -72.5t75.5 -208.5q0 -109 -32 -209.5t-95 -166.5q-85 -90 -237 -90zM336 349q56 0 95 38.5
t39 100.5q0 50 -30.5 82t-80.5 32q-57 0 -95 -40t-38 -102q-1 -50 29 -80.5t81 -30.5z" />
    <glyph glyph-name="percent.cap" horiz-adv-x="844" 
d="M232 414q27 0 45.5 28.5t26 63.5t7.5 70q0 68 -47 68q-27 0 -46 -28t-26.5 -63t-7.5 -69q0 -70 48 -70zM227 328q-74 0 -117.5 46t-43.5 119q0 98 56 167t146 69q74 0 118.5 -45t44.5 -120q0 -98 -56 -167t-148 -69zM131 0l529 715h94l-529 -715h-94zM619 69
q27 0 45.5 28.5t26 63.5t7.5 70q0 69 -47 69q-27 0 -46 -28t-26.5 -63.5t-7.5 -69.5q0 -70 48 -70zM614 -17q-74 0 -118 46t-44 119q0 98 56.5 167t146.5 69q73 0 117.5 -45t44.5 -119q0 -98 -56 -167.5t-147 -69.5z" />
    <glyph glyph-name="perthousand.cap" horiz-adv-x="1234" 
d="M232 414q27 0 45.5 28.5t26 63.5t7.5 70q0 68 -47 68q-27 0 -46 -28t-26.5 -63t-7.5 -69q0 -70 48 -70zM227 328q-74 0 -117.5 46t-43.5 119q0 98 56 167t146 69q74 0 118.5 -45t44.5 -120q0 -98 -56 -167t-148 -69zM129 0l531 715h95l-532 -715h-94zM615 69
q27 0 45.5 28.5t26 63.5t7.5 70q0 69 -47 69q-27 0 -46 -28t-26.5 -63.5t-7.5 -69.5q0 -70 48 -70zM610 -17q-74 0 -117.5 46t-43.5 119q0 98 56 167t146 69q74 0 118.5 -45t44.5 -119q0 -98 -56 -167.5t-148 -69.5zM1009 69q27 0 45.5 28.5t26 63.5t7.5 70q0 69 -47 69
q-27 0 -46 -28t-26.5 -63.5t-7.5 -69.5q0 -70 48 -70zM1004 -17q-74 0 -118 46t-44 119q0 98 56.5 167t146.5 69q73 0 117.5 -45t44.5 -119q0 -98 -56 -167.5t-147 -69.5z" />
    <glyph glyph-name="zero.numerator" horiz-adv-x="405" 
d="M237 395q31 0 53 30.5t29.5 66t7.5 70.5q0 79 -54 79q-31 0 -53.5 -32t-30.5 -69t-8 -71q0 -74 56 -74zM234 309q-76 0 -123 43.5t-47 123.5q0 99 58.5 173t154.5 74q74 0 120 -44.5t46 -123.5q0 -100 -56.5 -173t-152.5 -73z" />
    <glyph glyph-name="one.numerator" horiz-adv-x="262" 
d="M111 318l46 235h-89l15 80q101 5 131 86h94l-78 -401h-119z" />
    <glyph glyph-name="two.numerator" horiz-adv-x="369" 
d="M31 318q13 87 90 142q21 15 42.5 28t50 28t37.5 20q23 14 33.5 26.5t10.5 33.5q0 18 -11 28t-30 10q-25 0 -42 -18.5t-24 -51.5h-109q11 77 61.5 118t124.5 41q60 0 102.5 -30t42.5 -87q0 -71 -73 -120q-21 -15 -68 -39t-63 -38h172l-18 -91h-329z" />
    <glyph glyph-name="three.numerator" horiz-adv-x="371" 
d="M218 309q-74 0 -121.5 37.5t-46.5 106.5h110q0 -61 59 -61q25 0 40.5 13.5t15.5 36.5q0 44 -56 44h-24l15 74h26q26 0 42 11t16 32q0 19 -13 29t-33 10q-48 0 -61 -51h-107q11 59 58.5 95.5t118.5 36.5q63 0 105.5 -29t42.5 -81q-1 -31 -20.5 -54.5t-50.5 -34.5v-1
q56 -25 56 -83q0 -63 -51 -97t-121 -34z" />
    <glyph glyph-name="four.numerator" horiz-adv-x="390" 
d="M218 318l16 84h-189l18 93l230 224h115l-46 -237h58l-16 -80h-58l-16 -84h-112zM149 484v-2h101l24 123h-2z" />
    <glyph glyph-name="five.numerator" horiz-adv-x="365" 
d="M211 309q-70 0 -115.5 34.5t-48.5 92.5h107q8 -43 58 -43q28 0 45 19t17 49q0 25 -14 39t-36 14q-37 0 -56 -25h-95l68 226h260l-17 -86h-177l-20 -67h1q37 27 81 27q54 0 86.5 -34t32.5 -89q0 -75 -50.5 -116t-126.5 -41z" />
    <glyph glyph-name="six.numerator" horiz-adv-x="373" 
d="M224 309q-75 0 -119 43t-44 122q0 55 20 109.5t60 90.5q55 49 133 49q59 0 98 -27.5t45 -83.5h-109q-5 34 -40 34q-30 0 -53.5 -27t-34.5 -71h1q36 39 92 39q52 0 88.5 -31.5t36.5 -87.5q0 -71 -49.5 -115t-124.5 -44zM225 390q27 0 45.5 18.5t18.5 48.5q0 24 -14.5 39
t-40.5 15q-27 0 -45 -19.5t-18 -49.5q0 -24 14.5 -38t39.5 -14z" />
    <glyph glyph-name="seven.numerator" horiz-adv-x="345" 
d="M90 318q21 93 72 170t116 132v1h-191l18 94h308l-17 -84q-65 -54 -113 -135t-68 -178h-125z" />
    <glyph glyph-name="eight.numerator" horiz-adv-x="379" 
d="M218 309q-71 0 -120 28t-49 86q0 78 89 108v2q-41 24 -41 71q0 59 49 89t112 30q68 0 112.5 -26t43.5 -80q-1 -63 -69 -92v-2q56 -25 56 -85q0 -66 -53.5 -97.5t-129.5 -31.5zM222 386q28 0 46 15.5t18 42.5q0 23 -16.5 36t-40.5 13q-27 0 -46 -15t-19 -42
q0 -24 17.5 -37t40.5 -13zM251 560q24 0 39.5 12.5t15.5 34.5t-14.5 33.5t-34.5 11.5q-23 0 -38 -14t-15 -35t13 -32t34 -11z" />
    <glyph glyph-name="nine.numerator" horiz-adv-x="375" 
d="M199 309q-62 0 -103 28t-47 84h110q6 -35 46 -35q68 0 86 97h-1q-38 -40 -91 -40q-54 0 -90.5 33t-36.5 89q0 70 50 114t126 44q75 0 118.5 -41.5t43.5 -120.5q0 -130 -72 -201q-51 -51 -139 -51zM237 520q26 0 44.5 20t18.5 50q0 24 -14.5 38t-39.5 14q-27 0 -45.5 -19
t-18.5 -48q-1 -25 14 -40t41 -15z" />
    <glyph glyph-name="zero.denominator" horiz-adv-x="405" 
d="M178 77q31 0 53 30.5t29.5 66t7.5 70.5q0 79 -54 79q-31 0 -53.5 -32t-30.5 -69t-8 -71q0 -74 56 -74zM175 -9q-76 0 -123 43.5t-47 123.5q0 99 58.5 173t154.5 74q74 0 120 -44.5t46 -123.5q0 -100 -56.5 -173t-152.5 -73z" />
    <glyph glyph-name="one.denominator" horiz-adv-x="262" 
d="M49 0l46 235h-89l16 80q100 5 131 86h94l-78 -401h-120z" />
    <glyph glyph-name="two.denominator" horiz-adv-x="369" 
d="M-29 0q15 87 91 142q21 15 42.5 28t50 28t37.5 20q23 14 33.5 26.5t10.5 33.5q0 18 -11 28t-30 10q-25 0 -42 -18.5t-24 -51.5h-109q11 77 61.5 118t124.5 41q60 0 102.5 -30t42.5 -87q0 -71 -73 -120q-21 -15 -68 -39t-63 -38h172l-18 -91h-330z" />
    <glyph glyph-name="three.denominator" horiz-adv-x="371" 
d="M159 -10q-74 0 -122 38t-47 107h110q0 -28 15.5 -44.5t44.5 -16.5q25 0 40.5 13.5t15.5 36.5q0 44 -57 44h-24l15 74h27q26 0 42 11t16 32q0 19 -13 29t-33 10q-48 0 -61 -51h-107q10 59 58 95.5t118 36.5q64 0 106.5 -29t41.5 -81q-1 -31 -20 -54.5t-50 -34.5v-1
q55 -25 55 -83q0 -63 -51 -97.5t-120 -34.5z" />
    <glyph glyph-name="four.denominator" horiz-adv-x="390" 
d="M158 0l16 84h-189l18 93l230 224h116l-46 -237h58l-16 -80h-58l-16 -84h-113zM89 166v-2h101l24 123h-1z" />
    <glyph glyph-name="five.denominator" horiz-adv-x="365" 
d="M151 -10q-69 0 -115 35t-49 93h107q9 -43 58 -43q29 0 46 19t17 49q0 25 -14 39t-37 14q-36 0 -55 -25h-96l69 226h260l-18 -86h-176l-21 -67h2q35 27 81 27q54 0 86.5 -34t32.5 -89q0 -75 -51 -116.5t-127 -41.5z" />
    <glyph glyph-name="six.denominator" horiz-adv-x="373" 
d="M165 -9q-75 0 -119.5 43t-43.5 122q0 56 20 110t60 90q54 49 132 49q60 0 99 -27t45 -84h-110q-5 34 -40 34q-29 0 -53 -27t-35 -71h1q36 39 93 39q52 0 88 -31.5t36 -87.5q0 -71 -49 -115t-124 -44zM166 72q26 0 44.5 18.5t18.5 48.5q0 24 -14.5 39t-39.5 15
q-27 0 -45.5 -19.5t-18.5 -49.5q0 -24 15 -38t40 -14z" />
    <glyph glyph-name="seven.denominator" horiz-adv-x="345" 
d="M31 0q41 180 187 302v1h-190l18 94h307l-16 -84q-65 -54 -113 -135t-68 -178h-125z" />
    <glyph glyph-name="eight.denominator" horiz-adv-x="379" 
d="M158 -10q-70 0 -119.5 28.5t-49.5 86.5q0 79 90 108v2q-42 24 -42 71q0 59 49.5 89t111.5 30q68 0 112.5 -26t43.5 -80q-1 -63 -68 -92v-2q56 -26 56 -85q0 -66 -54 -98t-130 -32zM163 68q27 0 45.5 15.5t18.5 42.5q0 23 -17 36t-41 13q-27 0 -45.5 -15t-18.5 -42
q0 -24 17.5 -37t40.5 -13zM192 242q23 0 38.5 12.5t15.5 34.5t-14 33.5t-35 11.5q-23 0 -38 -14t-15 -35t13.5 -32t34.5 -11z" />
    <glyph glyph-name="nine.denominator" horiz-adv-x="375" 
d="M139 -10q-61 0 -102.5 28.5t-47.5 84.5h111q5 -35 45 -35q32 0 55 24.5t32 72.5h-1q-38 -40 -92 -40t-90 32.5t-36 89.5q0 70 50 114t126 44q75 0 118 -41.5t43 -120.5q0 -130 -72 -201q-51 -52 -139 -52zM177 202q27 0 45.5 20t18.5 50q0 24 -14.5 38t-39.5 14
q-27 0 -46 -19t-19 -48q0 -25 15 -40t40 -15z" />
    </font>
</defs>
</svg>
