<?xml version="1.0" standalone="no"?>
<!DOCTYPE svg PUBLIC "-//W3C//DTD SVG 1.1//EN" "http://www.w3.org/Graphics/SVG/1.1/DTD/svg11.dtd" >
<svg xmlns="http://www.w3.org/2000/svg" xmlns:xlink="http://www.w3.org/1999/xlink" version="1.1">
<metadata>
Created by FontForge 20170731 at Sun Aug  4 23:51:02 2013
 By Aleksey,,,
Copyright 2011 Schwartzco Inc dba Commercial Type.
</metadata>
<defs>
<font id="NeueHaasDisplay-XXThinItalic" horiz-adv-x="520" >
  <font-face 
    font-family="Neue Haas Grotesk Display Pro"
    font-weight="100"
    font-style="italic"
    font-stretch="normal"
    units-per-em="1000"
    panose-1="2 13 2 4 3 5 2 12 2 3"
    ascent="818"
    descent="-182"
    x-height="517"
    cap-height="715"
    bbox="-216 -204 1070 909"
    underline-thickness="50"
    underline-position="-350"
    slope="-11"
    unicode-range="U+0020-FB04"
  />
<missing-glyph horiz-adv-x="492" 
 />
    <glyph glyph-name="f_f" unicode="ff" horiz-adv-x="435" 
d="M457 517l-3 -14h-119l-98 -503h-15l98 503h-165l-98 -503h-15l98 503h-70l3 14h69l20 99q11 57 38 78t75 21q21 0 41 -2l-3 -14q-20 2 -38 2q-41 0 -64.5 -17t-33.5 -69l-19 -98h164l21 105q11 57 38 78t75 21q21 0 41 -2l-3 -14q-20 2 -38 2q-41 0 -64.5 -17t-33.5 -69
l-21 -104h120z" />
    <glyph glyph-name="fi" unicode="fi" horiz-adv-x="377" 
d="M317 719l-3 -14q-20 2 -38 2q-41 0 -64.5 -17t-33.5 -69l-21 -104h120l-3 -14h-119l-98 -503h-15l98 503h-70l3 14h69l21 105q11 57 38 78t75 21q21 0 41 -2zM374 517l-100 -517h-15l100 517h15zM411 706l-11 -56h-15l11 56h15z" />
    <glyph glyph-name="fl" unicode="fl" horiz-adv-x="385" 
d="M317 719l-3 -14q-20 2 -38 2q-41 0 -64.5 -17t-33.5 -69l-21 -104h120l-3 -14h-119l-98 -503h-15l98 503h-70l3 14h69l21 105q11 57 38 78t75 21q21 0 41 -2zM416 715l-139 -715h-15l139 715h15z" />
    <glyph glyph-name="f_f_i" unicode="ffi" horiz-adv-x="557" 
d="M554 517l-100 -517h-15l100 517h15zM591 706l-11 -56h-15l11 56h15zM457 517l-3 -14h-119l-98 -503h-15l98 503h-165l-98 -503h-15l98 503h-70l3 14h69l20 99q11 57 38 78t75 21q21 0 41 -2l-3 -14q-20 2 -38 2q-41 0 -64.5 -17t-33.5 -69l-19 -98h164l21 105
q11 57 38 78t75 21q21 0 41 -2l-3 -14q-20 2 -38 2q-41 0 -64.5 -17t-33.5 -69l-21 -104h120z" />
    <glyph glyph-name="f_f_l" unicode="ffl" horiz-adv-x="565" 
d="M596 715l-139 -715h-15l139 715h15zM457 517l-3 -14h-119l-98 -503h-15l98 503h-165l-98 -503h-15l98 503h-70l3 14h69l20 99q11 57 38 78t75 21q21 0 41 -2l-3 -14q-20 2 -38 2q-41 0 -64.5 -17t-33.5 -69l-19 -98h164l21 105q11 57 38 78t75 21q21 0 41 -2l-3 -14
q-20 2 -38 2q-41 0 -64.5 -17t-33.5 -69l-21 -104h120z" />
    <glyph glyph-name=".notdef" horiz-adv-x="492" 
 />
    <glyph glyph-name=".null" horiz-adv-x="0" 
 />
    <glyph glyph-name="nonmarkingreturn" horiz-adv-x="333" 
 />
    <glyph glyph-name="space" unicode=" " horiz-adv-x="155" 
 />
    <glyph glyph-name="exclam" unicode="!" horiz-adv-x="158" 
d="M120 436l-53 -259h-11l49 259l54 279h15zM46 55l-11 -55h-17l11 55h17z" />
    <glyph glyph-name="quotedbl" unicode="&#x22;" horiz-adv-x="200" 
d="M140 715l-37 -190h-15l37 190h15zM247 715l-37 -190h-15l37 190h15z" />
    <glyph glyph-name="numbersign" unicode="#" horiz-adv-x="483" 
d="M71 447l4 13h108l64 222h15l-64 -222h175l64 222h15l-64 -222h113l-4 -13h-113l-55 -193h110l-3 -13h-111l-69 -241h-15l69 241h-175l-69 -241h-15l69 241h-108l3 13h109l55 193h-108zM194 447l-55 -193h175l55 193h-175z" />
    <glyph glyph-name="dollar" unicode="$" 
d="M200 -85h-15l17 87q-92 12 -147.5 69t-57.5 147h14q3 -85 55 -138t138 -64l67 342q-104 32 -148 68.5t-44 101.5q0 78 64.5 126t159.5 47q12 0 34 -2l12 58h15l-12 -60q74 -11 118.5 -53t54.5 -115h-14q-19 133 -161 154l-62 -315q107 -32 152 -70.5t45 -107.5
q0 -86 -64.5 -138.5t-169.5 -52.5q-6 0 -18 0.5t-17 0.5zM470 190q0 63 -41 97.5t-144 66.5l-66 -340q10 -1 32 -1q98 0 158.5 49t60.5 128zM94 528q0 -61 42 -94t138 -62l61 313q-22 2 -32 2q-90 1 -149.5 -43t-59.5 -116z" />
    <glyph glyph-name="percent" unicode="%" horiz-adv-x="672" 
d="M71 0l545 685h18l-545 -685h-18zM476 -8q-52 0 -82.5 36t-30.5 96q0 51 15.5 99.5t51.5 85.5t86 37q52 0 81.5 -36t29.5 -95q0 -52 -14 -100.5t-50 -85.5t-87 -37zM476 6q46 0 78.5 34.5t45 79.5t12.5 93q0 54 -25 86.5t-71 32.5q-66 0 -102 -65.5t-36 -140.5
q0 -55 26 -87.5t72 -32.5zM181 327q-52 0 -82.5 36t-30.5 96q0 51 15.5 99.5t51.5 85.5t86 37q52 0 81.5 -36t29.5 -95q0 -52 -14 -100.5t-50 -85.5t-87 -37zM181 341q46 0 78.5 34.5t45 79.5t12.5 93q0 54 -25 86.5t-71 32.5q-66 0 -102 -65.5t-36 -140.5q0 -55 26 -87.5
t72 -32.5z" />
    <glyph glyph-name="ampersand" unicode="&#x26;" horiz-adv-x="549" 
d="M496 0h-17l-66 103q-92 -112 -216 -112q-78 0 -131.5 48.5t-53.5 128.5q0 73 51 125.5t164 102.5q-20 31 -31 51.5t-21.5 52.5t-10.5 61q0 59 38 102.5t101 43.5q58 0 91 -34.5t33 -89.5q0 -111 -179 -192l167 -263q65 89 76 191h15q-11 -107 -83 -204zM197 5
q121 0 208 111l-170 269q-108 -48 -158 -97.5t-50 -119.5q0 -74 49 -118.5t121 -44.5zM179 561q0 -66 62 -159q171 78 171 181q0 48 -29 79t-80 31q-55 0 -89.5 -39.5t-34.5 -92.5z" />
    <glyph glyph-name="quotesingle" unicode="'" horiz-adv-x="93" 
d="M140 715l-37 -190h-15l37 190h15z" />
    <glyph glyph-name="parenleft" unicode="(" horiz-adv-x="236" 
d="M299 754h19q-233 -241 -233 -551q0 -171 63 -321h-15q-62 156 -62 321q0 163 57 295.5t171 255.5z" />
    <glyph glyph-name="parenright" unicode=")" horiz-adv-x="236" 
d="M-35 -118h-19q233 241 233 551q0 171 -63 321h15q62 -156 62 -321q0 -163 -57 -295.5t-171 -255.5z" />
    <glyph glyph-name="asterisk" unicode="*" horiz-adv-x="333" 
d="M131 458l-10 10l91 102l-101 44l6 13l102 -45l24 125l14 -2l-24 -124q18 5 60 17t60 16l3 -13l-121 -33l52 -102l-12 -6l-52 101z" />
    <glyph glyph-name="plus" unicode="+" horiz-adv-x="524" 
d="M59 320l3 14h207l41 212h15l-41 -212h207l-3 -14h-207l-41 -214h-15l41 214h-207z" />
    <glyph glyph-name="comma" unicode="," horiz-adv-x="95" 
d="M-63 -120l3 16q18 6 29 22.5t20 62.5l15 74h16l-16 -80q-10 -51 -26 -70t-41 -25z" />
    <glyph glyph-name="hyphen" unicode="-" horiz-adv-x="285" 
d="M33 268l3 15h222l-3 -15h-222z" />
    <glyph glyph-name="period" unicode="." horiz-adv-x="95" 
d="M21 55l-11 -55h-17l11 55h17z" />
    <glyph glyph-name="slash" unicode="/" horiz-adv-x="341" 
d="M413 715l-431 -715h-16l431 715h16z" />
    <glyph glyph-name="zero" unicode="0" horiz-adv-x="588" 
d="M272 -7q-103 0 -162.5 70.5t-59.5 188.5q0 72 18 146.5t52.5 142t94.5 110t136 42.5q102 0 160 -71t58 -188q0 -75 -17 -149t-50.5 -141t-93.5 -109t-136 -42zM272 7q73 0 129.5 40.5t88.5 105.5t48 137t16 144q0 111 -53.5 178t-149.5 67q-58 0 -107 -27.5t-81.5 -71.5
t-55 -101t-32.5 -114.5t-10 -112.5q0 -113 55 -179t152 -66z" />
    <glyph glyph-name="one" unicode="1" horiz-adv-x="267" 
d="M248 688h15l-133 -688h-15l120 621q-28 -47 -71 -66t-105 -20l3 14q73 1 118 31t68 108z" />
    <glyph glyph-name="two" unicode="2" horiz-adv-x="519" 
d="M427 14l-3 -14h-442q10 50 31 90.5t45.5 68.5t64.5 55t72.5 44t86.5 41q46 21 72 34t56.5 33.5t46 40t26 47t10.5 61.5q0 76 -49 120t-134 44q-97 0 -153.5 -58.5t-75.5 -159.5h-14q18 105 79.5 168.5t163.5 63.5q91 0 144.5 -48t53.5 -130q0 -45 -15 -79t-48 -61
t-66 -45.5t-90 -43.5q-62 -28 -101.5 -49.5t-81 -53.5t-67.5 -74t-38 -95h426z" />
    <glyph glyph-name="three" unicode="3" horiz-adv-x="524" 
d="M12 213h15q5 -98 64 -152t159 -54q98 0 163 54.5t65 145.5q0 73 -46.5 111.5t-114.5 38.5h-63l2 14h66q73 0 124 38.5t51 116.5q0 74 -52.5 113.5t-129.5 39.5q-90 0 -148.5 -52.5t-77.5 -139.5h-16q20 93 83.5 149.5t158.5 56.5q83 0 140 -43t57 -124q0 -69 -38.5 -110
t-101.5 -53q54 -13 87.5 -53.5t33.5 -102.5q0 -97 -69.5 -155.5t-173.5 -58.5q-106 0 -169.5 58t-68.5 162z" />
    <glyph glyph-name="four" unicode="4" horiz-adv-x="528" 
d="M346 0h-15l38 195h-361l3 14l454 483h16l-94 -483h114l-3 -14h-114zM461 668l-431 -459h341z" />
    <glyph glyph-name="five" unicode="5" horiz-adv-x="501" 
d="M504 677l-3 -14h-330l-86 -297q79 87 197 87q84 0 141.5 -54t57.5 -147q0 -118 -70 -189t-182 -71q-92 0 -152.5 54t-68.5 141h15q10 -82 65.5 -131.5t140.5 -49.5q107 0 172 67t65 179q0 87 -52.5 137t-131.5 50q-75 0 -128 -34t-81 -77h-14l101 349h344z" />
    <glyph glyph-name="six" unicode="6" horiz-adv-x="541" 
d="M530 522h-15q-6 73 -49 115t-120 42q-68 0 -123.5 -39.5t-89.5 -103.5t-52.5 -140.5t-19.5 -155.5q13 84 77.5 143.5t161.5 59.5q89 0 144 -56.5t55 -147.5q0 -107 -68 -176.5t-171 -69.5q-105 0 -159 68t-54 179q0 78 18.5 156t54 145.5t94.5 109.5t132 42
q83 0 130.5 -46t53.5 -125zM70 205q0 -90 51.5 -144t138.5 -54q97 0 160.5 65t63.5 167q0 85 -50.5 137.5t-133.5 52.5q-58 0 -104.5 -23t-72.5 -58.5t-39.5 -72.5t-13.5 -70z" />
    <glyph glyph-name="seven" unicode="7" horiz-adv-x="470" 
d="M510 671h-427l3 14h448l-3 -14q-184 -155 -276 -312t-134 -359h-15q42 202 134 361t270 310z" />
    <glyph glyph-name="eight" unicode="8" horiz-adv-x="547" 
d="M263 -7q-112 0 -178 51t-66 131q0 81 56.5 138t159.5 66q-56 15 -88 50t-32 85q0 77 60.5 128.5t156.5 51.5q85 0 141 -43.5t56 -118.5q0 -65 -45 -107.5t-123 -52.5q70 -14 111.5 -58.5t41.5 -107.5q0 -94 -67.5 -153.5t-183.5 -59.5zM263 7q110 0 173 55.5t63 143.5
q0 76 -61 119t-158 43q-117 0 -181.5 -54t-64.5 -139q0 -74 61.5 -121t167.5 -47zM313 382q92 0 146.5 40.5t54.5 109.5t-51.5 108.5t-130.5 39.5q-90 0 -146 -47.5t-56 -118.5q0 -62 51 -97t132 -35z" />
    <glyph glyph-name="nine" unicode="9" horiz-adv-x="528" 
d="M23 164h15q7 -72 51.5 -114.5t121.5 -42.5q73 0 129 39t87.5 104.5t47.5 139.5t17 156q-13 -85 -76.5 -144t-161.5 -59q-89 0 -144.5 56.5t-55.5 147.5q0 107 67.5 176.5t170.5 69.5q105 0 159.5 -68t54.5 -179q0 -80 -16 -156t-49 -144.5t-92.5 -110.5t-137.5 -42
q-84 0 -133 46.5t-55 124.5zM483 481q0 83 -46.5 140.5t-144.5 57.5q-97 0 -160 -65t-63 -167q0 -85 51 -137.5t134 -52.5q58 0 104 23t72 58.5t39.5 72.5t13.5 70z" />
    <glyph glyph-name="colon" unicode=":" horiz-adv-x="102" 
d="M21 55l-11 -55h-17l11 55h17zM84 383l-11 -55h-17l11 55h17z" />
    <glyph glyph-name="semicolon" unicode=";" horiz-adv-x="102" 
d="M-63 -120l3 16q18 6 29 22.5t20 62.5l15 74h16l-16 -80q-10 -51 -26 -70t-41 -25zM84 383l-11 -55h-17l11 55h17z" />
    <glyph glyph-name="less" unicode="&#x3c;" horiz-adv-x="482" 
d="M411 139l-3 -15l-357 182l2 12l428 183l-3 -16l-408 -174z" />
    <glyph glyph-name="equal" unicode="=" horiz-adv-x="512" 
d="M65 374l3 14h426l-3 -14h-426zM39 239l3 14h425l-3 -14h-425z" />
    <glyph glyph-name="greater" unicode="&#x3e;" horiz-adv-x="482" 
d="M90 485l3 15l358 -182l-2 -12l-428 -183l3 17l408 173z" />
    <glyph glyph-name="question" unicode="?" horiz-adv-x="470" 
d="M218 178h-15q16 80 47.5 121t111.5 94q31 21 44.5 31t34.5 31t29.5 45.5t8.5 56.5q0 70 -48 111t-127 41q-90 0 -146 -51.5t-79 -139.5h-14q21 91 82.5 148t156.5 57q85 0 137.5 -45.5t52.5 -120.5q0 -34 -9.5 -61t-31 -49t-37.5 -34t-46 -32q-75 -49 -106 -87.5
t-46 -115.5zM197 55l-11 -55h-17l11 55h17z" />
    <glyph glyph-name="at" unicode="@" horiz-adv-x="848" 
d="M633 510l-68 -300q-10 -42 6 -71.5t62 -29.5q80 0 130.5 69.5t52.5 180.5q0 103 -51 180t-131 114t-174 37q-77 0 -150 -28t-131.5 -79t-94 -131.5t-35.5 -177.5q0 -159 104 -257.5t274 -98.5q102 0 196 39l6 -12q-94 -41 -202 -41q-176 0 -284.5 102.5t-108.5 267.5
q0 101 37 184.5t98 136t136 81t155 28.5q98 0 181 -38.5t136.5 -118.5t53.5 -188q-2 -117 -57 -190.5t-141 -73.5q-46 0 -68.5 28t-15.5 72q-23 -50 -67 -79.5t-97 -29.5q-72 0 -114 45.5t-42 117.5q0 106 58 185.5t155 79.5q67 0 105 -41.5t40 -105.5l32 145zM575 352
q0 62 -32.5 105t-100.5 43q-91 0 -144.5 -75t-53.5 -176q0 -66 38 -107.5t103 -41.5q90 0 140 79t50 173z" />
    <glyph glyph-name="A" unicode="A" horiz-adv-x="586" 
d="M512 0l-55 256h-338l-143 -256h-15l399 715h14l152 -715h-14zM306 591l-179 -321h327l-68 323l-22 102q-34 -61 -58 -104z" />
    <glyph glyph-name="B" unicode="B" horiz-adv-x="604" 
d="M588 546q0 -64 -37.5 -109t-111.5 -60v-1q62 -14 96 -54t34 -100q0 -108 -73 -165t-181 -57h-299l139 715h238q81 0 138 -42t57 -127zM372 370h-268l-69 -356h279q101 0 170.5 54t69.5 154q0 70 -49.5 109t-132.5 39zM168 701l-61 -317h265q99 0 150 45t51 117
q0 78 -53 116.5t-128 38.5h-224z" />
    <glyph glyph-name="C" unicode="C" horiz-adv-x="660" 
d="M660 516h-15q-13 90 -71 141t-161 51q-80 0 -147.5 -35t-110.5 -92.5t-66.5 -129t-23.5 -147.5q0 -134 70.5 -215.5t202.5 -81.5q112 0 185.5 69t97.5 173h15q-25 -110 -103 -183t-195 -73q-139 0 -213.5 85.5t-74.5 225.5q0 78 25 152.5t70 134t115 95.5t153 36
q105 0 170 -55.5t77 -150.5z" />
    <glyph glyph-name="D" unicode="D" horiz-adv-x="637" 
d="M16 0l137 715h196q130 0 203 -80t73 -210q0 -87 -24 -162.5t-70 -135t-120.5 -93.5t-169.5 -34h-225zM166 701l-132 -687h207q91 0 163 33t116 90.5t67 130.5t23 157q0 124 -68 200t-193 76h-183z" />
    <glyph glyph-name="E" unicode="E" horiz-adv-x="553" 
d="M16 0l137 715h429l-3 -14h-413l-62 -323h380l-3 -14h-380l-67 -350h435l-3 -14h-450z" />
    <glyph glyph-name="F" unicode="F" horiz-adv-x="535" 
d="M16 0l137 715h442l-3 -14h-426l-61 -319h376l-3 -14h-376l-71 -368h-15z" />
    <glyph glyph-name="G" unicode="G" horiz-adv-x="695" 
d="M655 349l-68 -349h-15l32 165q-37 -78 -106.5 -125t-161.5 -47q-139 0 -212.5 85t-73.5 226q0 106 41 199.5t125.5 156t194.5 62.5t176.5 -55.5t79.5 -150.5h-14q-14 89 -76 140.5t-166 51.5q-81 0 -148 -35t-109.5 -92.5t-66 -129t-23.5 -147.5q0 -134 70 -215.5
t202 -81.5q114 0 190 72.5t96 178.5l15 77h-263l3 14h278z" />
    <glyph glyph-name="H" unicode="H" horiz-adv-x="654" 
d="M16 0l139 715h15l-64 -327h491l64 327h15l-139 -715h-15l73 374h-491l-73 -374h-15z" />
    <glyph glyph-name="I" unicode="I" horiz-adv-x="152" 
d="M172 715l-139 -715h-15l139 715h15z" />
    <glyph glyph-name="J" unicode="J" horiz-adv-x="454" 
d="M10 220h15q-8 -38 -8 -70q0 -69 41 -106t122 -37q153 0 185 163l105 545h15l-105 -546q-34 -176 -200 -176q-88 0 -133 41t-45 115q0 35 8 71z" />
    <glyph glyph-name="K" unicode="K" horiz-adv-x="563" 
d="M610 715l-334 -285l259 -430h-17l-254 420l-182 -156l-51 -264h-15l139 715h15l-84 -430l502 430h22z" />
    <glyph glyph-name="L" unicode="L" horiz-adv-x="509" 
d="M169 715l-136 -701h416l-3 -14h-430l138 715h15z" />
    <glyph glyph-name="M" unicode="M" horiz-adv-x="777" 
d="M799 715l-139 -715h-15l134 692q-39 -63 -69 -111l-365 -581h-16l-137 580l-27 112l-134 -692h-15l138 715h21l164 -697h1l436 697h23z" />
    <glyph glyph-name="N" unicode="N" horiz-adv-x="649" 
d="M671 715l-139 -715h-15l-286 563l-66 129l-134 -692h-15l138 715h17l294 -578l57 -112l134 690h15z" />
    <glyph glyph-name="O" unicode="O" horiz-adv-x="732" 
d="M360 -8q-133 0 -221.5 86.5t-88.5 235.5q0 170 102.5 289.5t259.5 119.5q133 0 220 -86.5t87 -236.5q0 -173 -99 -290.5t-260 -117.5zM360 6q155 0 249.5 113.5t94.5 280.5q0 144 -82.5 226.5t-209.5 82.5q-151 0 -249 -115.5t-98 -279.5q0 -143 84 -225.5t211 -82.5z
" />
    <glyph glyph-name="P" unicode="P" horiz-adv-x="554" 
d="M318 333h-223l-64 -333h-15l137 715h235q102 0 153 -52q43 -45 43 -122q0 -105 -70.5 -156.5t-195.5 -51.5zM166 701l-69 -354h220q252 0 252 194q0 83 -50 121.5t-132 38.5h-221z" />
    <glyph glyph-name="Q" unicode="Q" horiz-adv-x="732" 
d="M665 -45l-9 -11l-107 103q-83 -55 -189 -55q-133 0 -221.5 86.5t-88.5 235.5q0 170 102.5 289.5t259.5 119.5q133 0 220 -86.5t87 -236.5q0 -109 -41.5 -199.5t-116.5 -145.5zM360 6q99 0 179 51l-83 81l10 11l85 -84q73 52 113 140.5t40 194.5q0 144 -82.5 226.5
t-209.5 82.5q-151 0 -249 -115.5t-98 -279.5q0 -143 84 -225.5t211 -82.5z" />
    <glyph glyph-name="R" unicode="R" horiz-adv-x="618" 
d="M551 2v-2h-16q-17 22 -17 95q0 9 1 41.5t1 51.5q0 90 -35 118.5t-118 28.5h-272l-65 -335h-15l139 715h259q82 0 136.5 -44.5t54.5 -137.5q0 -76 -45 -125.5t-120 -64.5q50 -11 73 -46t23 -109q0 -13 -1 -47.5t-1 -45.5q0 -66 18 -93zM166 701l-68 -352h274
q98 0 157.5 49t59.5 135q0 87 -50.5 127.5t-125.5 40.5h-247z" />
    <glyph glyph-name="S" unicode="S" horiz-adv-x="570" 
d="M13 231h14q1 -110 72 -167.5t175 -57.5q103 0 169.5 49.5t66.5 134.5q0 39 -10.5 65t-44 47.5t-58 32.5t-90.5 35q-8 3 -13 5q-110 41 -154 77.5t-44 103.5q0 75 59 121t159 46q115 0 175.5 -55t66.5 -146h-14q-6 85 -63 136t-165 51q-94 0 -148.5 -41.5t-54.5 -111.5
q0 -62 41 -95.5t145 -71.5q48 -17 69.5 -25.5t54.5 -23.5t47 -27.5t30 -31t21.5 -40.5t5.5 -51q0 -90 -71.5 -144t-179.5 -54q-111 0 -186 61.5t-75 177.5z" />
    <glyph glyph-name="T" unicode="T" horiz-adv-x="536" 
d="M218 0h-15l136 701h-249l3 14h515l-3 -14h-251z" />
    <glyph glyph-name="U" unicode="U" horiz-adv-x="623" 
d="M142 715h15l-89 -457q-23 -117 35 -184t185 -67q101 0 168 53.5t86 150.5l100 504h15l-100 -506q-20 -102 -91 -159t-178 -57q-130 0 -195 70t-40 197z" />
    <glyph glyph-name="V" unicode="V" horiz-adv-x="571" 
d="M105 715l116 -553l29 -140q39 69 79 141l308 552h16l-399 -715h-14l-150 715h15z" />
    <glyph glyph-name="W" unicode="W" horiz-adv-x="865" 
d="M523 715l56 -522l18 -166q37 77 79 166l248 522h16l-340 -715h-15l-63 591l-11 101q-27 -60 -46 -101l-269 -591h-13l-89 715h14l65 -518l21 -170q35 78 76 168l236 520h17z" />
    <glyph glyph-name="X" unicode="X" horiz-adv-x="554" 
d="M-38 0l326 368l-195 347h16l189 -336l297 336h18l-308 -348l206 -367h-16l-200 355l-315 -355h-18z" />
    <glyph glyph-name="Y" unicode="Y" horiz-adv-x="556" 
d="M97 715l199 -373l329 373h19l-342 -387l-64 -328h-15l64 328l-206 387h16z" />
    <glyph glyph-name="Z" unicode="Z" horiz-adv-x="560" 
d="M488 14l-3 -14h-505l3 14l596 687h-445l3 14h464l-3 -14l-597 -687h487z" />
    <glyph glyph-name="bracketleft" unicode="[" horiz-adv-x="228" 
d="M21 -104h106l-3 -14h-121l170 872h122l-3 -14h-106z" />
    <glyph glyph-name="backslash" unicode="\" horiz-adv-x="326" 
d="M94 715h14l162 -715h-14z" />
    <glyph glyph-name="bracketright" unicode="]" horiz-adv-x="230" 
d="M232 740h-107l3 14h122l-170 -872h-123l3 14h107z" />
    <glyph glyph-name="asciicircum" unicode="^" horiz-adv-x="371" 
d="M375 440l-118 262l-199 -262h-17l208 275h17l124 -275h-15z" />
    <glyph glyph-name="underscore" unicode="_" horiz-adv-x="371" 
d="M-84 -166l3 14h383l-3 -14h-383z" />
    <glyph glyph-name="grave" unicode="`" horiz-adv-x="419" 
d="M214 725h16l48 -127h-16z" />
    <glyph glyph-name="a" unicode="a" horiz-adv-x="479" 
d="M215 282q130 5 169.5 27t39.5 86q0 115 -149 115q-162 0 -192 -136h-14q13 65 63.5 107.5t142.5 42.5t134.5 -45t25.5 -128l-56 -274q-14 -64 28 -64q10 0 19 3h1l-3 -13q-9 -3 -19 -3q-28 0 -38.5 20.5t-2.5 56.5l7 31q-28 -52 -79.5 -83.5t-120.5 -31.5q-72 0 -117 39
t-45 104q0 68 48.5 105t157.5 41zM171 7q83 0 141.5 49t73.5 123l28 139q-18 -23 -61.5 -34t-136.5 -15q-104 -5 -148 -37.5t-44 -95.5q0 -58 40 -93.5t107 -35.5z" />
    <glyph glyph-name="b" unicode="b" horiz-adv-x="522" 
d="M497 312q0 -57 -16 -112.5t-46.5 -102.5t-80 -76t-110.5 -29q-88 0 -136 53.5t-56 125.5l-33 -171h-15l138 715h15l-67 -346q72 155 225 155q84 0 133 -59.5t49 -152.5zM482 312q0 87 -44.5 142.5t-122.5 55.5q-63 0 -113 -30t-78.5 -77.5t-43.5 -100.5t-15 -105
q0 -44 16.5 -85.5t59 -73.5t103.5 -32q75 0 131 48t81.5 116t25.5 142z" />
    <glyph glyph-name="c" unicode="c" horiz-adv-x="484" 
d="M473 359h-14q-9 67 -53 109t-119 42q-111 0 -180 -90.5t-69 -208.5q0 -98 52 -151t139 -53q73 0 128.5 45t78.5 121h14q-23 -82 -82.5 -131t-138.5 -49q-95 0 -150.5 56.5t-55.5 161.5q0 124 73.5 218.5t190.5 94.5q81 0 129 -46.5t57 -118.5z" />
    <glyph glyph-name="d" unicode="d" horiz-adv-x="527" 
d="M22 201q0 76 29 148t92 123.5t147 51.5q82 0 128.5 -53t55.5 -126l72 370h15l-138 -715h-15l28 148q-31 -70 -87.5 -113t-133.5 -43q-86 0 -139.5 58.5t-53.5 150.5zM37 201q0 -84 49 -139.5t129 -55.5q60 0 109 30t78 77t44.5 100.5t15.5 105.5q0 44 -16.5 85.5
t-57.5 73.5t-98 32q-79 0 -138.5 -49t-87 -118t-27.5 -142z" />
    <glyph glyph-name="e" unicode="e" horiz-adv-x="495" 
d="M472 259h-431q-3 -23 -3 -45q0 -95 53.5 -151.5t139.5 -56.5q143 0 204 145h14q-27 -71 -81.5 -115t-136.5 -44q-92 0 -150 60t-58 162q0 125 73.5 217.5t184.5 92.5q106 0 156.5 -75.5t34.5 -189.5zM281 510q-90 0 -155.5 -68.5t-82.5 -168.5h414q11 101 -33 169
t-143 68z" />
    <glyph glyph-name="f" unicode="f" horiz-adv-x="255" 
d="M317 719l-3 -14q-20 2 -38 2q-41 0 -64.5 -17t-33.5 -69l-21 -104h120l-3 -14h-119l-98 -503h-15l98 503h-70l3 14h69l21 105q11 57 38 78t75 21q21 0 41 -2z" />
    <glyph glyph-name="g" unicode="g" horiz-adv-x="518" 
d="M8 -41h14q5 -57 50 -87.5t124 -30.5q89 0 138 45t64 120l31 159q-31 -62 -85 -101t-129 -39q-91 0 -140.5 56t-49.5 143q0 54 16.5 106t47 96t80.5 71t111 27q80 0 129 -48t57 -124l32 165h15l-100 -513q-15 -76 -68 -126.5t-149 -50.5q-86 0 -135.5 35.5t-52.5 96.5z
M40 224q0 -81 45.5 -133t129.5 -52q76 0 132.5 46t81.5 108.5t25 126.5q0 83 -45.5 136.5t-128.5 53.5q-112 0 -176 -87.5t-64 -198.5z" />
    <glyph glyph-name="h" unicode="h" horiz-adv-x="471" 
d="M19 0h-15l139 715h15l-67 -342h1q32 61 97 105.5t140 44.5q67 0 96 -41t15 -112l-72 -370h-15l72 371q11 60 -11.5 99t-84.5 39q-88 0 -162.5 -65t-88.5 -140z" />
    <glyph glyph-name="i" unicode="i" horiz-adv-x="122" 
d="M119 517l-100 -517h-15l100 517h15zM156 706l-11 -56h-15l11 56h15z" />
    <glyph glyph-name="j" unicode="j" horiz-adv-x="146" 
d="M129 517h15l-115 -589q-8 -41 -28.5 -58t-59.5 -17q-24 0 -45 7l3 14h1q19 -7 41 -7q36 0 51.5 15.5t22.5 51.5zM180 706l-11 -56h-15l11 56h15z" />
    <glyph glyph-name="k" unicode="k" horiz-adv-x="414" 
d="M442 517l-235 -193l167 -324h-16l-163 315l-137 -113l-39 -202h-15l139 715h15l-96 -492l358 294h22z" />
    <glyph glyph-name="l" unicode="l" horiz-adv-x="130" 
d="M161 715l-139 -715h-15l139 715h15z" />
    <glyph glyph-name="m" unicode="m" horiz-adv-x="733" 
d="M19 0h-15l101 517h15l-29 -143h1q31 58 88.5 103.5t126.5 45.5q62 0 82 -42.5t5 -114.5h1q27 56 87.5 106.5t129.5 50.5q117 0 88 -152l-72 -371h-15l72 372q26 137 -73 137q-79 0 -148 -69.5t-83 -140.5l-58 -299h-15l72 371q26 138 -73 138q-80 0 -147.5 -66.5
t-81.5 -137.5z" />
    <glyph glyph-name="n" unicode="n" horiz-adv-x="471" 
d="M19 0h-15l101 517h15l-29 -144h1q32 61 97 105.5t140 44.5q67 0 96 -41t15 -112l-72 -370h-15l72 371q11 60 -11.5 99t-84.5 39q-89 0 -162.5 -64t-88.5 -140z" />
    <glyph glyph-name="o" unicode="o" 
d="M234 -8q-90 0 -150.5 60t-60.5 162q0 128 73 219t191 91q91 0 150.5 -61t59.5 -163q0 -126 -72 -217t-191 -91zM234 6q112 0 180 87t68 207q0 96 -55 153t-140 57q-111 0 -180 -87t-69 -209q0 -96 56 -152t140 -56z" />
    <glyph glyph-name="p" unicode="p" horiz-adv-x="522" 
d="M497 312q0 -57 -16 -112.5t-46.5 -102.5t-80 -76t-110.5 -29q-88 0 -136 53.5t-56 125.5l-65 -337h-15l132 683h15l-29 -148q32 70 89 112.5t136 42.5q84 0 133 -59.5t49 -152.5zM482 312q0 87 -44.5 142.5t-122.5 55.5q-63 0 -113 -30t-78.5 -77.5t-43.5 -100.5
t-15 -105q0 -44 16.5 -85.5t59 -73.5t103.5 -32q75 0 131 48t81.5 116t25.5 142z" />
    <glyph glyph-name="q" unicode="q" horiz-adv-x="527" 
d="M22 201q0 76 29 148t92 123.5t147 51.5q82 0 128.5 -53t55.5 -126l34 172h15l-133 -683h-15l61 314q-74 -156 -225 -156q-85 0 -137 58.5t-52 150.5zM37 201q0 -84 47.5 -139.5t126.5 -55.5q62 0 112 30t79 77t44.5 100.5t15.5 105.5q0 44 -16.5 85.5t-57.5 73.5t-98 32
q-79 0 -138.5 -49t-87 -118t-27.5 -142z" />
    <glyph glyph-name="r" unicode="r" horiz-adv-x="292" 
d="M324 518l-3 -13h-1q-20 5 -40 5q-69 0 -129.5 -72.5t-74.5 -142.5l-57 -295h-15l58 297l43 220h15l-30 -151q29 64 80.5 111t110.5 47q27 0 43 -6z" />
    <glyph glyph-name="s" unicode="s" horiz-adv-x="432" 
d="M3 153h15q2 -65 50.5 -106t128.5 -41q77 0 125 31.5t48 96.5q0 48 -32 73t-116 56q-83 30 -120 58t-37 81q0 58 47 90t117 32q77 0 125 -39t53 -105h-14q-6 61 -49.5 95.5t-114.5 34.5q-65 0 -107 -27.5t-42 -80.5q0 -46 33 -71t113 -54q90 -33 124.5 -61.5t34.5 -81.5
q0 -71 -52.5 -106.5t-135.5 -35.5q-85 0 -138.5 45t-55.5 116z" />
    <glyph glyph-name="t" unicode="t" horiz-adv-x="270" 
d="M72 503l3 14h69l32 163h15l-32 -163h127l-3 -14h-126l-79 -406q-17 -85 60 -85q32 0 59 11h1l-3 -14q-22 -11 -58 -11q-46 0 -65 25.5t-10 69.5l80 410h-70z" />
    <glyph glyph-name="u" unicode="u" horiz-adv-x="464" 
d="M441 517h15l-101 -517h-15l29 144h-1q-32 -61 -96.5 -105.5t-136.5 -44.5q-64 0 -92.5 41t-14.5 112l72 370h15l-72 -371q-12 -61 10 -99.5t82 -38.5q86 0 159 64.5t88 139.5z" />
    <glyph glyph-name="v" unicode="v" horiz-adv-x="419" 
d="M64 517l61 -302l40 -196q67 118 110 194l173 304h16l-294 -517h-16l-105 517h15z" />
    <glyph glyph-name="w" unicode="w" horiz-adv-x="697" 
d="M68 517l51 -338l23 -154q39 79 73 149l168 343h16l51 -341l23 -154q41 81 78 153l174 342h16l-264 -517h-16l-57 381l-17 112q-36 -74 -56 -115l-185 -378h-16l-78 517h16z" />
    <glyph glyph-name="x" unicode="x" horiz-adv-x="429" 
d="M-48 0l254 277l-130 240h17l124 -229l211 229h19l-223 -243l149 -274h-16l-143 264l-242 -264h-20z" />
    <glyph glyph-name="y" unicode="y" horiz-adv-x="431" 
d="M476 517l-331 -583q-35 -61 -60 -81.5t-61 -20.5q-25 0 -49 11l3 14h2q22 -11 44 -11q32 0 53.5 18.5t54.5 75.5l46 80l-126 497h16l89 -355l31 -123q27 47 68 120l204 358h16z" />
    <glyph glyph-name="z" unicode="z" horiz-adv-x="425" 
d="M-17 0l2 13l427 489v1h-319l3 14h340l-2 -12l-428 -490v-1h348l-3 -14h-368z" />
    <glyph glyph-name="braceleft" unicode="{" horiz-adv-x="221" 
d="M288 754l-3 -14h-6q-51 0 -72 -24t-35 -100l-42 -226q-10 -53 -43 -68q29 -18 18 -66l-54 -256q-13 -58 0.5 -81t68.5 -23l-3 -14q-61 1 -77.5 28.5t-3.5 89.5l54 258q12 59 -33 59h-19l3 14h15q28 0 40.5 15t18.5 46l42 231q14 78 39.5 104.5t82.5 26.5h9z" />
    <glyph glyph-name="bar" unicode="|" horiz-adv-x="165" 
d="M95 -118v872h15v-872h-15z" />
    <glyph glyph-name="braceright" unicode="}" horiz-adv-x="221" 
d="M-43 -118l3 14h6q50 0 71.5 24.5t35.5 99.5l42 226q10 53 43 68q-29 18 -18 66l54 254q13 58 -0.5 82t-68.5 24l3 14q61 -1 77.5 -28.5t3.5 -89.5l-54 -258q-12 -59 33 -59h19l-3 -14h-15q-28 0 -40.5 -14.5t-18.5 -46.5l-42 -231q-14 -77 -39.5 -104t-82.5 -27h-9z" />
    <glyph glyph-name="asciitilde" unicode="~" horiz-adv-x="380" 
d="M195 328q-19 14 -26 19t-21.5 10.5t-30.5 5.5q-54 0 -62 -69h-15q4 37 24.5 60t54.5 23q5 0 10.5 -0.5t9.5 -1t9.5 -2.5t8.5 -3t8.5 -4t7.5 -4t8 -5.5t8 -5.5t9 -6.5t9 -6.5q19 -14 26 -19t21.5 -10.5t30.5 -5.5q54 0 62 69h15q-4 -37 -24.5 -60t-54.5 -23
q-5 0 -10.5 0.5t-9.5 1t-9.5 2.5t-8.5 3t-8.5 4t-7.5 4t-8 5.5t-8 5.5t-9 6.5t-9 6.5z" />
    <glyph glyph-name="uni00A0" unicode="&#xa0;" horiz-adv-x="155" 
 />
    <glyph glyph-name="exclamdown" unicode="&#xa1;" horiz-adv-x="157" 
d="M51 152l53 259h11l-49 -259l-54 -279h-15zM124 533l11 55h17l-11 -55h-17z" />
    <glyph glyph-name="cent" unicode="&#xa2;" horiz-adv-x="484" 
d="M183 -85l15 80q-81 8 -128 64t-47 152q0 124 73.5 218.5t190.5 94.5q2 0 6.5 -0.5t6.5 -0.5l14 68h14l-14 -69q69 -8 110 -53t49 -110h-14q-8 60 -45.5 101t-101.5 48l-98 -501h15q73 0 128.5 45t78.5 121h14q-23 -82 -82.5 -131t-138.5 -49q-12 0 -17 1l-15 -79h-14z
M38 211q0 -90 43.5 -142.5t119.5 -60.5l97 502h-11q-111 0 -180 -90.5t-69 -208.5z" />
    <glyph glyph-name="sterling" unicode="&#xa3;" horiz-adv-x="514" 
d="M321 341l-2 -14h-166q9 -43 9 -77q0 -62 -25.5 -108.5t-77.5 -93.5q35 13 85 13q41 0 103.5 -27t102.5 -27q64 0 137 65l10 -10q-77 -69 -147 -69q-42 0 -104.5 27t-101.5 27q-43 0 -74 -10t-69 -38l-8 11q82 65 118 115.5t36 124.5q0 34 -9 77h-85l2 14h80
q-22 97 -22 132q0 97 56 159t161 62q95 0 143 -59.5t46 -152.5h-14q2 87 -42.5 142.5t-132.5 55.5q-97 0 -149.5 -58t-52.5 -149q0 -35 22 -132h171z" />
    <glyph glyph-name="currency" unicode="&#xa4;" horiz-adv-x="430" 
d="M433 150l-10 -10l-66 68q-50 -52 -125 -52q-76 0 -125 52l-66 -68l-10 10l66 68q-44 55 -44 131q0 77 44 130l-66 69l10 10l66 -68q50 53 125 53q74 0 125 -53l66 68l10 -10l-67 -69q45 -55 45 -130t-45 -131zM68 349q0 -75 46 -127t118 -52t118 52t46 127q0 76 -46 128
t-118 52t-118 -52t-46 -128z" />
    <glyph glyph-name="yen" unicode="&#xa5;" horiz-adv-x="511" 
d="M457 220l-3 -14h-200l-40 -206h-15l40 206h-201l3 14h200l21 108h-200l2 14h190l-179 343h18l178 -343l294 343h18l-294 -343h191l-2 -14h-201l-21 -108h201z" />
    <glyph glyph-name="brokenbar" unicode="&#xa6;" horiz-adv-x="165" 
d="M95 358v396h15v-396h-15zM95 -118v412h15v-412h-15z" />
    <glyph glyph-name="section" unicode="&#xa7;" horiz-adv-x="540" 
d="M26 -3h15q-1 -64 45 -110t136 -46q67 0 109.5 30.5t42.5 82.5q0 49 -34.5 84t-129.5 98q-100 67 -126 92q-44 44 -44 102q0 56 42.5 91.5t116.5 48.5q-39 38 -39 90q0 61 48 96t122 35q78 0 121 -43t47 -117h-15q-4 68 -42.5 107t-110.5 39q-68 0 -111.5 -31t-43.5 -86
q0 -46 29.5 -75.5t128.5 -94.5q8 -6 13 -9q83 -54 120 -94t37 -96q0 -110 -154 -142q40 -43 40 -95q0 -58 -47 -92.5t-120 -34.5q-97 0 -147 50t-49 120zM338 369q-96 63 -126 89q-72 -10 -114.5 -42.5t-42.5 -85.5q0 -12 2.5 -23.5t4.5 -20t9.5 -19t11.5 -17t16.5 -17.5
t18 -15.5t22 -16.5t23 -16t27.5 -18t28 -19q99 -69 120 -88q150 29 150 131q0 51 -35.5 88.5t-114.5 89.5z" />
    <glyph glyph-name="dieresis" unicode="&#xa8;" horiz-adv-x="406" 
d="M222 705l-11 -54h-15l11 54h15zM367 705l-11 -54h-15l11 54h15z" />
    <glyph glyph-name="copyright" unicode="&#xa9;" horiz-adv-x="787" 
d="M412 -11q-152 0 -256 105.5t-104 260.5t104 261t256 106t256 -106t104 -261t-104 -260.5t-256 -105.5zM412 3q146 0 246 101.5t100 250.5t-100 251t-246 102t-246 -102t-100 -251t100 -250.5t246 -101.5zM594 450h-15q-9 52 -50 88t-108 36q-89 0 -140 -59.5t-51 -156.5
q0 -98 53 -157.5t136 -59.5q72 0 113.5 39t48.5 101h15q-6 -67 -52 -110.5t-125 -43.5q-88 0 -146 63t-58 168q0 101 55.5 165.5t150.5 64.5q74 0 119 -40t54 -98z" />
    <glyph glyph-name="ordfeminine" unicode="&#xaa;" horiz-adv-x="452" 
d="M239 487q113 4 148.5 24t35.5 75q0 101 -132 101q-142 0 -168 -120h-14q11 58 56 96t126 38q82 0 120.5 -40t22.5 -114l-50 -242q-12 -57 25 -57q11 0 17 3h1l-3 -14q-6 -3 -17 -3q-25 0 -35 18t-3 51l6 25q-56 -100 -175 -100q-64 0 -104.5 35t-40.5 93q0 62 42.5 94.5
t141.5 36.5zM200 242q72 0 124 43t65 109l25 123q-17 -21 -55.5 -30.5t-119.5 -12.5q-92 -4 -130.5 -33t-38.5 -85q0 -52 35 -83t95 -31z" />
    <glyph glyph-name="guillemotleft" unicode="&#xab;" horiz-adv-x="354" 
d="M163 155l-3 -18l-116 133l2 13l166 124l-4 -21l-149 -111zM289 155l-3 -18l-116 133l2 13l166 124l-4 -21l-149 -111z" />
    <glyph glyph-name="logicalnot" unicode="&#xac;" 
d="M419 157h-15l44 221h-372l3 14h386z" />
    <glyph glyph-name="uni00AD" unicode="&#xad;" horiz-adv-x="285" 
d="M33 268l3 15h222l-3 -15h-222z" />
    <glyph glyph-name="registered" unicode="&#xae;" horiz-adv-x="510" 
d="M300 249q-97 0 -165 67.5t-68 169.5q0 101 68 169t165 68t165 -68t68 -169q0 -102 -68 -169.5t-165 -67.5zM300 263q91 0 154.5 63.5t63.5 159.5q0 95 -63.5 159t-154.5 64t-154.5 -64t-63.5 -159q0 -96 63.5 -159.5t154.5 -63.5zM226 477v-116h-14v256h101q38 0 60 -18
t22 -52q0 -50 -49 -63q39 -11 42 -61q3 -51 11 -59v-3h-14q-6 6 -10 61q-2 33 -19 44t-50 11h-80zM226 604v-114h84q71 0 71 57t-69 57h-86z" />
    <glyph glyph-name="macron" unicode="&#xaf;" horiz-adv-x="442" 
d="M189 650l3 14h214l-3 -14h-214z" />
    <glyph glyph-name="degree" unicode="&#xb0;" horiz-adv-x="296" 
d="M210 462q-49 0 -83 33.5t-34 82.5t34 82.5t83 33.5q50 0 83 -33.5t33 -82.5t-33 -82.5t-83 -33.5zM210 476q44 0 72.5 29t28.5 73q0 43 -28.5 72.5t-72.5 29.5t-73 -29t-29 -73q0 -43 29.5 -72.5t72.5 -29.5z" />
    <glyph glyph-name="plusminus" unicode="&#xb1;" horiz-adv-x="529" 
d="M67 341l3 14h207l38 193h15l-38 -193h208l-3 -14h-208l-38 -197h-15l38 197h-207zM2 0l3 14h429l-3 -14h-429z" />
    <glyph glyph-name="twosuperior" unicode="&#xb2;" horiz-adv-x="315" 
d="M294 288l-2 -14h-270q14 70 56.5 107t124.5 74q69 31 98.5 57t29.5 73q0 45 -28.5 69.5t-79.5 24.5q-108 0 -132 -126h-15q11 63 48 101.5t99 38.5q55 0 89 -29.5t34 -78.5t-32.5 -79.5t-98.5 -59.5q-38 -17 -61 -29t-48.5 -31t-41.5 -43t-24 -55h254z" />
    <glyph glyph-name="threesuperior" unicode="&#xb3;" horiz-adv-x="347" 
d="M199 484l3 14h37q43 0 74 24.5t31 66.5q0 43 -32 67t-77 24q-56 0 -91.5 -31.5t-47.5 -84.5h-14q12 59 52 94.5t101 35.5q52 0 87.5 -27.5t35.5 -77.5q0 -37 -22 -62.5t-57 -35.5q68 -21 68 -93q0 -57 -44 -95t-108 -38q-67 0 -106.5 36t-43.5 101h14q3 -58 38.5 -90.5
t97.5 -32.5q58 0 98 34t40 85q0 40 -25.5 62t-64.5 24h-44z" />
    <glyph glyph-name="acute" unicode="&#xb4;" horiz-adv-x="418" 
d="M289 598h-16l71 127h16z" />
    <glyph glyph-name="mu" unicode="&#xb5;" horiz-adv-x="467" 
d="M444 517h15l-101 -517h-15l29 144h-1q-32 -61 -96.5 -105.5t-136.5 -44.5q-44 0 -72 21t-34 57l-47 -238h-15l133 683h15l-72 -371q-12 -61 10 -99.5t82 -38.5q86 0 159 64.5t88 139.5z" />
    <glyph glyph-name="paragraph" unicode="&#xb6;" horiz-adv-x="426" 
d="M277 385h-29q-80 0 -123.5 40t-44.5 109q0 85 62 138q51 43 136 43h170l-139 -715h-15l136 701h-77l-136 -701h-15z" />
    <glyph glyph-name="periodcentered" unicode="&#xb7;" horiz-adv-x="84" 
d="M69 341l-11 -55h-17l11 55h17z" />
    <glyph glyph-name="cedilla" unicode="&#xb8;" horiz-adv-x="477" 
d="M196 5l8 -10l-68 -55q15 5 32 5q34 0 52.5 -17t18.5 -45q0 -39 -31 -54.5t-72 -15.5q-57 0 -94 29l8 12q35 -27 86 -27q88 0 88 56q0 48 -56 48q-30 0 -58 -12l-6 11z" />
    <glyph glyph-name="onesuperior" unicode="&#xb9;" horiz-adv-x="205" 
d="M214 688h15l-80 -414h-15l71 370q-34 -51 -123 -51l2 13q54 1 82.5 19t47.5 63z" />
    <glyph glyph-name="ordmasculine" unicode="&#xba;" horiz-adv-x="496" 
d="M258 223q-81 0 -135.5 54t-54.5 146q0 114 66 196t172 82q81 0 134.5 -55t53.5 -147q0 -113 -64.5 -194.5t-171.5 -81.5zM258 237q101 0 161 77.5t60 184.5q0 86 -48.5 137t-124.5 51q-100 0 -161.5 -78t-61.5 -186q0 -86 50 -136t125 -50z" />
    <glyph glyph-name="guillemotright" unicode="&#xbb;" horiz-adv-x="354" 
d="M70 389l3 18l116 -133l-2 -13l-166 -124l4 20l149 112zM196 389l3 18l116 -133l-2 -13l-166 -124l4 20l149 112z" />
    <glyph glyph-name="onequarter" unicode="&#xbc;" horiz-adv-x="724" 
d="M595 0h-15l22 114h-223l2 12l279 291h16l-56 -289h62l-3 -14h-62zM656 392l-255 -264h204zM660 715h18l-598 -715h-18zM223 718h15l-80 -414h-15l71 370q-34 -51 -123 -51l2 13q54 1 82.5 19t47.5 63z" />
    <glyph glyph-name="onehalf" unicode="&#xbd;" horiz-adv-x="763" 
d="M223 718h15l-80 -414h-15l71 370q-34 -51 -123 -51l2 13q54 1 82.5 19t47.5 63zM649 715h18l-598 -715h-18zM686 14l-2 -14h-270q14 70 56.5 107t124.5 74q69 31 98.5 57t29.5 73q0 45 -28.5 69.5t-79.5 24.5q-108 0 -132 -126h-15q11 63 48 101.5t99 38.5q55 0 89 -29.5
t34 -78.5t-32.5 -79.5t-98.5 -59.5q-38 -17 -61 -29t-48.5 -31t-41.5 -43t-24 -55h254z" />
    <glyph glyph-name="threequarters" unicode="&#xbe;" horiz-adv-x="799" 
d="M660 0h-15l22 114h-223l2 12l279 291h16l-56 -289h62l-3 -14h-62zM721 392l-255 -264h204zM197 513l3 14h43q43 0 73.5 25.5t30.5 67.5q0 43 -30.5 66t-75.5 23q-55 0 -89.5 -30.5t-46.5 -83.5h-14q12 59 51 93.5t99 34.5q51 0 85.5 -26.5t34.5 -76.5q0 -37 -22 -63.5
t-56 -36.5q67 -21 67 -93q0 -57 -43.5 -95t-105.5 -38q-66 0 -104.5 36t-42.5 101h14q4 -59 38.5 -91t94.5 -32q56 0 95.5 34t39.5 85q0 40 -25.5 62t-63.5 24h-50zM736 715h18l-598 -715h-18z" />
    <glyph glyph-name="questiondown" unicode="&#xbf;" horiz-adv-x="470" 
d="M289 533l11 55h17l-11 -55h-17zM266 410h15q-16 -80 -47.5 -121t-111.5 -94q-31 -21 -44.5 -31t-34.5 -31t-29.5 -45.5t-8.5 -56.5q0 -70 48 -111t127 -41q90 0 146 51.5t79 139.5h14q-21 -91 -82.5 -148t-156.5 -57q-85 0 -137.5 45.5t-52.5 120.5q0 34 9.5 61t31 49
t37.5 34t46 32q75 49 106 87.5t46 115.5z" />
    <glyph glyph-name="Agrave" unicode="&#xc0;" horiz-adv-x="586" 
d="M512 0l-55 256h-338l-143 -256h-15l399 715h14l152 -715h-14zM306 591l-179 -321h327l-68 323l-22 102q-34 -61 -58 -104zM319 871h16l43 -115h-16z" />
    <glyph glyph-name="Aacute" unicode="&#xc1;" horiz-adv-x="586" 
d="M512 0l-55 256h-338l-143 -256h-15l399 715h14l152 -715h-14zM306 591l-179 -321h327l-68 323l-22 102q-34 -61 -58 -104zM384 756h-16l65 115h16z" />
    <glyph glyph-name="Acircumflex" unicode="&#xc2;" horiz-adv-x="586" 
d="M512 0l-55 256h-338l-143 -256h-15l399 715h14l152 -715h-14zM306 591l-179 -321h327l-68 323l-22 102q-34 -61 -58 -104zM389 862l80 -104h-16l-72 92l-97 -92h-19l108 104h16z" />
    <glyph glyph-name="Atilde" unicode="&#xc3;" horiz-adv-x="586" 
d="M512 0l-55 256h-338l-143 -256h-15l399 715h14l152 -715h-14zM306 591l-179 -321h327l-68 323l-22 102q-34 -61 -58 -104zM304 844q30 0 73 -30t69 -30q42 0 51 61h14q-11 -75 -65 -75q-30 0 -74 30t-69 30q-43 0 -52 -61h-14q4 34 22.5 54.5t44.5 20.5z" />
    <glyph glyph-name="Adieresis" unicode="&#xc4;" horiz-adv-x="586" 
d="M512 0l-55 256h-338l-143 -256h-15l399 715h14l152 -715h-14zM306 591l-179 -321h327l-68 323l-22 102q-34 -61 -58 -104zM317 836l-11 -54h-15l11 54h15zM462 836l-11 -54h-15l11 54h15z" />
    <glyph glyph-name="Aring" unicode="&#xc5;" horiz-adv-x="586" 
d="M512 0l-55 256h-338l-143 -256h-15l399 715h14l152 -715h-14zM306 591l-179 -321h327l-68 323l-22 102q-34 -61 -58 -104zM378 754q-34 0 -55.5 21.5t-21.5 56.5q0 34 21.5 55.5t55.5 21.5t55 -21.5t21 -55.5q0 -35 -21 -56.5t-55 -21.5zM378 767q28 0 45 18t17 47
t-17 46.5t-45 17.5t-45.5 -17.5t-17.5 -46.5t17.5 -47t45.5 -18z" />
    <glyph glyph-name="AE" unicode="&#xc6;" horiz-adv-x="907" 
d="M936 715l-3 -14h-388l-62 -323h355l-3 -14h-355l-67 -350h410l-3 -14h-425l49 256h-313l-150 -256h-17l420 715h552zM393 701l-254 -431h308l83 431h-137z" />
    <glyph glyph-name="Ccedilla" unicode="&#xc7;" horiz-adv-x="660" 
d="M660 516h-15q-13 90 -71 141t-161 51q-80 0 -147.5 -35t-110.5 -92.5t-66.5 -129t-23.5 -147.5q0 -134 70.5 -215.5t202.5 -81.5q112 0 185.5 69t97.5 173h15q-25 -110 -103 -183t-196 -73l-65 -53q15 5 32 5q34 0 52.5 -17t18.5 -45q0 -39 -31 -54.5t-72 -15.5
q-57 0 -94 29l8 12q35 -27 86 -27q88 0 88 56q0 48 -56 48q-30 0 -58 -12l-6 11l78 64q-130 6 -199 90t-69 220q0 78 25 152.5t70 134t115 95.5t153 36q105 0 170 -55.5t77 -150.5z" />
    <glyph glyph-name="Egrave" unicode="&#xc8;" horiz-adv-x="553" 
d="M16 0l137 715h429l-3 -14h-413l-62 -323h380l-3 -14h-380l-67 -350h435l-3 -14h-450zM319 871h16l43 -115h-16z" />
    <glyph glyph-name="Eacute" unicode="&#xc9;" horiz-adv-x="553" 
d="M16 0l137 715h429l-3 -14h-413l-62 -323h380l-3 -14h-380l-67 -350h435l-3 -14h-450zM380 756h-16l65 115h16z" />
    <glyph glyph-name="Ecircumflex" unicode="&#xca;" horiz-adv-x="553" 
d="M16 0l137 715h429l-3 -14h-413l-62 -323h380l-3 -14h-380l-67 -350h435l-3 -14h-450zM392 862l80 -104h-16l-72 92l-97 -92h-19l108 104h16z" />
    <glyph glyph-name="Edieresis" unicode="&#xcb;" horiz-adv-x="553" 
d="M16 0l137 715h429l-3 -14h-413l-62 -323h380l-3 -14h-380l-67 -350h435l-3 -14h-450zM325 836l-11 -54h-15l11 54h15zM470 836l-11 -54h-15l11 54h15z" />
    <glyph glyph-name="Igrave" unicode="&#xcc;" horiz-adv-x="152" 
d="M172 715l-139 -715h-15l139 715h15zM117 871h16l43 -115h-16z" />
    <glyph glyph-name="Iacute" unicode="&#xcd;" horiz-adv-x="152" 
d="M172 715l-139 -715h-15l139 715h15zM178 756h-16l65 115h16z" />
    <glyph glyph-name="Icircumflex" unicode="&#xce;" horiz-adv-x="152" 
d="M172 715l-139 -715h-15l139 715h15zM190 862l80 -104h-16l-72 92l-97 -92h-19l108 104h16z" />
    <glyph glyph-name="Idieresis" unicode="&#xcf;" horiz-adv-x="152" 
d="M137 836l-11 -54h-15l11 54h15zM255 836l-11 -54h-15l11 54h15zM172 715l-139 -715h-15l139 715h15z" />
    <glyph glyph-name="Eth" unicode="&#xd0;" horiz-adv-x="643" 
d="M22 0l68 354h-73l3 14h72l67 347h196q130 0 203 -80t73 -210q0 -87 -24 -162.5t-70 -135t-120.5 -93.5t-169.5 -34h-225zM172 701l-64 -333h251l-3 -14h-251l-65 -340h207q91 0 163 33t116 90.5t67 130.5t23 157q0 124 -68 200t-193 76h-183z" />
    <glyph glyph-name="Ntilde" unicode="&#xd1;" horiz-adv-x="649" 
d="M671 715l-139 -715h-15l-286 563l-66 129l-134 -692h-15l138 715h17l294 -578l24 -48t23 -44.5t10 -19.5l134 690h15zM360 844q30 0 73 -30t69 -30q42 0 51 61h14q-11 -75 -65 -75q-30 0 -74 30t-69 30q-43 0 -52 -61h-14q4 34 22.5 54.5t44.5 20.5z" />
    <glyph glyph-name="Ograve" unicode="&#xd2;" horiz-adv-x="732" 
d="M360 -8q-133 0 -221.5 86.5t-88.5 235.5q0 170 102.5 289.5t259.5 119.5q133 0 220 -86.5t87 -236.5q0 -173 -99 -290.5t-260 -117.5zM360 6q155 0 249.5 113.5t94.5 280.5q0 144 -82.5 226.5t-209.5 82.5q-151 0 -249 -115.5t-98 -279.5q0 -143 84 -225.5t211 -82.5z
M378 871h16l43 -115h-16z" />
    <glyph glyph-name="Oacute" unicode="&#xd3;" horiz-adv-x="732" 
d="M360 -8q-133 0 -221.5 86.5t-88.5 235.5q0 170 102.5 289.5t259.5 119.5q133 0 220 -86.5t87 -236.5q0 -173 -99 -290.5t-260 -117.5zM360 6q155 0 249.5 113.5t94.5 280.5q0 144 -82.5 226.5t-209.5 82.5q-151 0 -249 -115.5t-98 -279.5q0 -143 84 -225.5t211 -82.5z
M439 756h-16l65 115h16z" />
    <glyph glyph-name="Ocircumflex" unicode="&#xd4;" horiz-adv-x="732" 
d="M360 -8q-133 0 -221.5 86.5t-88.5 235.5q0 170 102.5 289.5t259.5 119.5q133 0 220 -86.5t87 -236.5q0 -173 -99 -290.5t-260 -117.5zM360 6q155 0 249.5 113.5t94.5 280.5q0 144 -82.5 226.5t-209.5 82.5q-151 0 -249 -115.5t-98 -279.5q0 -143 84 -225.5t211 -82.5z
M451 862l80 -104h-16l-72 92l-97 -92h-19l108 104h16z" />
    <glyph glyph-name="Otilde" unicode="&#xd5;" horiz-adv-x="732" 
d="M360 -8q-133 0 -221.5 86.5t-88.5 235.5q0 170 102.5 289.5t259.5 119.5q133 0 220 -86.5t87 -236.5q0 -173 -99 -290.5t-260 -117.5zM360 6q155 0 249.5 113.5t94.5 280.5q0 144 -82.5 226.5t-209.5 82.5q-151 0 -249 -115.5t-98 -279.5q0 -143 84 -225.5t211 -82.5z
M373 844q30 0 73 -30t69 -30q42 0 51 61h14q-11 -75 -65 -75q-30 0 -74 30t-69 30q-43 0 -52 -61h-14q4 34 22.5 54.5t44.5 20.5z" />
    <glyph glyph-name="Odieresis" unicode="&#xd6;" horiz-adv-x="732" 
d="M360 -8q-133 0 -221.5 86.5t-88.5 235.5q0 170 102.5 289.5t259.5 119.5q133 0 220 -86.5t87 -236.5q0 -173 -99 -290.5t-260 -117.5zM360 6q155 0 249.5 113.5t94.5 280.5q0 144 -82.5 226.5t-209.5 82.5q-151 0 -249 -115.5t-98 -279.5q0 -143 84 -225.5t211 -82.5z
M384 836l-11 -54h-15l11 54h15zM529 836l-11 -54h-15l11 54h15z" />
    <glyph glyph-name="multiply" unicode="&#xd7;" horiz-adv-x="513" 
d="M476 509l9 -11l-207 -175l137 -171l-10 -9l-137 171l-205 -173l-9 11l205 173l-139 175l11 9l138 -175z" />
    <glyph glyph-name="Oslash" unicode="&#xd8;" horiz-adv-x="732" 
d="M53 -13l-10 10l81 88q-82 87 -82 229q0 170 102.5 289.5t259.5 119.5q139 0 225 -92l81 87l10 -10l-82 -88q73 -88 73 -220q0 -173 -99 -290.5t-260 -117.5q-132 0 -218 83zM57 314q0 -135 77 -218l485 524q-81 89 -215 89q-151 0 -249 -115.5t-98 -279.5zM352 6
q155 0 249.5 113.5t94.5 280.5q0 128 -67 209l-485 -524q81 -79 208 -79z" />
    <glyph glyph-name="Ugrave" unicode="&#xd9;" horiz-adv-x="623" 
d="M142 715h15l-89 -457q-23 -117 35 -184t185 -67q101 0 168 53.5t86 150.5l100 504h15l-100 -506q-20 -102 -91 -159t-178 -57q-130 0 -195 70t-40 197zM351 871h16l43 -115h-16z" />
    <glyph glyph-name="Uacute" unicode="&#xda;" horiz-adv-x="623" 
d="M142 715h15l-89 -457q-23 -117 35 -184t185 -67q101 0 168 53.5t86 150.5l100 504h15l-100 -506q-20 -102 -91 -159t-178 -57q-130 0 -195 70t-40 197zM412 756h-16l65 115h16z" />
    <glyph glyph-name="Ucircumflex" unicode="&#xdb;" horiz-adv-x="623" 
d="M142 715h15l-89 -457q-23 -117 35 -184t185 -67q101 0 168 53.5t86 150.5l100 504h15l-100 -506q-20 -102 -91 -159t-178 -57q-130 0 -195 70t-40 197zM425 862l80 -104h-16l-72 92l-97 -92h-19l108 104h16z" />
    <glyph glyph-name="Udieresis" unicode="&#xdc;" horiz-adv-x="623" 
d="M142 715h15l-89 -457q-23 -117 35 -184t185 -67q101 0 168 53.5t86 150.5l100 504h15l-100 -506q-20 -102 -91 -159t-178 -57q-130 0 -195 70t-40 197zM357 836l-11 -54h-15l11 54h15zM502 836l-11 -54h-15l11 54h15z" />
    <glyph glyph-name="Yacute" unicode="&#xdd;" horiz-adv-x="556" 
d="M97 715l199 -373l329 373h19l-342 -387l-64 -328h-15l64 328l-206 387h16zM385 756h-16l65 115h16z" />
    <glyph glyph-name="Thorn" unicode="&#xde;" horiz-adv-x="562" 
d="M293 191h-225l-37 -191h-15l139 715h15l-27 -142h220q88 0 142 -42t54 -132q0 -105 -70.5 -156.5t-195.5 -51.5zM140 559l-69 -354h221q252 0 252 194q0 83 -50 121.5t-132 38.5h-222z" />
    <glyph glyph-name="germandbls" unicode="&#xdf;" horiz-adv-x="459" 
d="M130 4l3 14q35 -11 75 -11q99 0 157 57t58 159q0 67 -42.5 121t-119.5 54h-40l3 14h37q81 1 126.5 46t45.5 108q0 67 -39 104.5t-98 37.5q-139 0 -173 -166l-105 -543l-14 2l105 543q15 80 60 129t127 49q65 0 108 -41t43 -115q0 -58 -34.5 -102.5t-98.5 -59.5
q59 -18 91 -70.5t32 -110.5q0 -108 -62 -169t-167 -61q-43 0 -78 11z" />
    <glyph glyph-name="agrave" unicode="&#xe0;" horiz-adv-x="479" 
d="M215 282q130 5 169.5 27t39.5 86q0 115 -149 115q-162 0 -192 -136h-14q13 65 63.5 107.5t142.5 42.5t134.5 -45t25.5 -128l-56 -274q-14 -64 28 -64q10 0 19 3h1l-3 -13q-9 -3 -19 -3q-28 0 -38.5 20.5t-2.5 56.5l7 31q-28 -52 -79.5 -83.5t-120.5 -31.5q-72 0 -117 39
t-45 104q0 68 48.5 105t157.5 41zM171 7q83 0 141.5 49t73.5 123l28 139q-18 -23 -61.5 -34t-136.5 -15q-104 -5 -148 -37.5t-44 -95.5q0 -58 40 -93.5t107 -35.5zM238 725h16l48 -127h-16z" />
    <glyph glyph-name="aacute" unicode="&#xe1;" horiz-adv-x="479" 
d="M215 282q130 5 169.5 27t39.5 86q0 115 -149 115q-162 0 -192 -136h-14q13 65 63.5 107.5t142.5 42.5t134.5 -45t25.5 -128l-56 -274q-14 -64 28 -64q10 0 19 3h1l-3 -13q-9 -3 -19 -3q-28 0 -38.5 20.5t-2.5 56.5l7 31q-28 -52 -79.5 -83.5t-120.5 -31.5q-72 0 -117 39
t-45 104q0 68 48.5 105t157.5 41zM171 7q83 0 141.5 49t73.5 123l28 139q-18 -23 -61.5 -34t-136.5 -15q-104 -5 -148 -37.5t-44 -95.5q0 -58 40 -93.5t107 -35.5zM295 598h-16l71 127h16z" />
    <glyph glyph-name="acircumflex" unicode="&#xe2;" horiz-adv-x="479" 
d="M215 282q130 5 169.5 27t39.5 86q0 115 -149 115q-162 0 -192 -136h-14q13 65 63.5 107.5t142.5 42.5t134.5 -45t25.5 -128l-56 -274q-14 -64 28 -64q10 0 19 3h1l-3 -13q-9 -3 -19 -3q-28 0 -38.5 20.5t-2.5 56.5l7 31q-28 -52 -79.5 -83.5t-120.5 -31.5q-72 0 -117 39
t-45 104q0 68 48.5 105t157.5 41zM171 7q83 0 141.5 49t73.5 123l28 139q-18 -23 -61.5 -34t-136.5 -15q-104 -5 -148 -37.5t-44 -95.5q0 -58 40 -93.5t107 -35.5zM317 708l80 -104h-16l-72 92l-97 -92h-19l108 104h16z" />
    <glyph glyph-name="atilde" unicode="&#xe3;" horiz-adv-x="479" 
d="M215 282q130 5 169.5 27t39.5 86q0 115 -149 115q-162 0 -192 -136h-14q13 65 63.5 107.5t142.5 42.5t134.5 -45t25.5 -128l-56 -274q-14 -64 28 -64q10 0 19 3h1l-3 -13q-9 -3 -19 -3q-28 0 -38.5 20.5t-2.5 56.5l7 31q-28 -52 -79.5 -83.5t-120.5 -31.5q-72 0 -117 39
t-45 104q0 68 48.5 105t157.5 41zM171 7q83 0 141.5 49t73.5 123l28 139q-18 -23 -61.5 -34t-136.5 -15q-104 -5 -148 -37.5t-44 -95.5q0 -58 40 -93.5t107 -35.5zM237 686q30 0 73 -30t69 -30q42 0 51 61h14q-11 -75 -65 -75q-30 0 -74 30t-69 30q-43 0 -52 -61h-14
q4 34 22.5 54.5t44.5 20.5z" />
    <glyph glyph-name="adieresis" unicode="&#xe4;" horiz-adv-x="479" 
d="M215 282q130 5 169.5 27t39.5 86q0 115 -149 115q-162 0 -192 -136h-14q13 65 63.5 107.5t142.5 42.5t134.5 -45t25.5 -128l-56 -274q-14 -64 28 -64q10 0 19 3h1l-3 -13q-9 -3 -19 -3q-28 0 -38.5 20.5t-2.5 56.5l7 31q-28 -52 -79.5 -83.5t-120.5 -31.5q-72 0 -117 39
t-45 104q0 68 48.5 105t157.5 41zM171 7q83 0 141.5 49t73.5 123l28 139q-18 -23 -61.5 -34t-136.5 -15q-104 -5 -148 -37.5t-44 -95.5q0 -58 40 -93.5t107 -35.5zM231 705l-11 -54h-15l11 54h15zM376 705l-11 -54h-15l11 54h15z" />
    <glyph glyph-name="aring" unicode="&#xe5;" horiz-adv-x="479" 
d="M215 282q130 5 169.5 27t39.5 86q0 115 -149 115q-162 0 -192 -136h-14q13 65 63.5 107.5t142.5 42.5t134.5 -45t25.5 -128l-56 -274q-14 -64 28 -64q10 0 19 3h1l-3 -13q-9 -3 -19 -3q-28 0 -38.5 20.5t-2.5 56.5l7 31q-28 -52 -79.5 -83.5t-120.5 -31.5q-72 0 -117 39
t-45 104q0 68 48.5 105t157.5 41zM171 7q83 0 141.5 49t73.5 123l28 139q-18 -23 -61.5 -34t-136.5 -15q-104 -5 -148 -37.5t-44 -95.5q0 -58 40 -93.5t107 -35.5zM308 567q-34 0 -55 21.5t-21 55.5t21 55t55 21t55 -21t21 -55t-21 -55.5t-55 -21.5zM308 580q28 0 45 18
t17 46t-17 45.5t-45 17.5t-45 -17.5t-17 -45.5t17 -46t45 -18z" />
    <glyph glyph-name="ae" unicode="&#xe6;" horiz-adv-x="827" 
d="M803 259h-398q-2 -30 -2 -45q0 -97 45 -152.5t127 -55.5q74 0 119 38.5t74 106.5h14q-61 -159 -207 -159q-82 0 -131.5 52.5t-55.5 144.5q-46 -196 -222 -196q-71 0 -114 37t-43 100q0 142 208 145q83 1 125.5 14t56 36.5t13.5 69.5q0 115 -144 115q-155 0 -185 -136h-14
q13 66 60.5 108t138.5 42q80 0 121 -35.5t37 -102.5q32 63 84.5 100.5t117.5 37.5q102 0 146.5 -75t28.5 -190zM166 7q87 0 139.5 48t73.5 154l19 98q-16 -22 -55 -33t-125 -12q-194 -3 -194 -132q0 -56 38.5 -89.5t103.5 -33.5zM628 510q-87 0 -146.5 -68t-74.5 -169h381
q11 102 -27.5 169.5t-132.5 67.5z" />
    <glyph glyph-name="ccedilla" unicode="&#xe7;" horiz-adv-x="484" 
d="M473 359h-14q-9 67 -53 109t-119 42q-111 0 -180 -90.5t-69 -208.5q0 -98 52 -151t139 -53q73 0 128.5 45t78.5 121h14q-23 -78 -77.5 -126.5t-128.5 -53.5l-65 -53q15 5 32 5q34 0 52.5 -17t18.5 -45q0 -39 -31 -54.5t-72 -15.5q-57 0 -94 29l8 12q35 -27 86 -27
q88 0 88 56q0 48 -56 48q-30 0 -58 -12l-6 11l77 63q-92 2 -146.5 58.5t-54.5 159.5q0 124 73.5 218.5t190.5 94.5q81 0 129 -46.5t57 -118.5z" />
    <glyph glyph-name="egrave" unicode="&#xe8;" horiz-adv-x="495" 
d="M472 259h-431q-3 -23 -3 -45q0 -95 53.5 -151.5t139.5 -56.5q143 0 204 145h14q-27 -71 -81.5 -115t-136.5 -44q-92 0 -150 60t-58 162q0 125 73.5 217.5t184.5 92.5q106 0 156.5 -75.5t34.5 -189.5zM281 510q-90 0 -155.5 -68.5t-82.5 -168.5h414q11 101 -33 169
t-143 68zM240 725h16l48 -127h-16z" />
    <glyph glyph-name="eacute" unicode="&#xe9;" horiz-adv-x="495" 
d="M472 259h-431q-3 -23 -3 -45q0 -95 53.5 -151.5t139.5 -56.5q143 0 204 145h14q-27 -71 -81.5 -115t-136.5 -44q-92 0 -150 60t-58 162q0 125 73.5 217.5t184.5 92.5q106 0 156.5 -75.5t34.5 -189.5zM281 510q-90 0 -155.5 -68.5t-82.5 -168.5h414q11 101 -33 169
t-143 68zM297 598h-16l71 127h16z" />
    <glyph glyph-name="ecircumflex" unicode="&#xea;" horiz-adv-x="495" 
d="M472 259h-431q-3 -23 -3 -45q0 -95 53.5 -151.5t139.5 -56.5q143 0 204 145h14q-27 -71 -81.5 -115t-136.5 -44q-92 0 -150 60t-58 162q0 125 73.5 217.5t184.5 92.5q106 0 156.5 -75.5t34.5 -189.5zM281 510q-90 0 -155.5 -68.5t-82.5 -168.5h414q11 101 -33 169
t-143 68zM319 708l80 -104h-16l-72 92l-97 -92h-19l108 104h16z" />
    <glyph glyph-name="edieresis" unicode="&#xeb;" horiz-adv-x="495" 
d="M472 259h-431q-3 -23 -3 -45q0 -95 53.5 -151.5t139.5 -56.5q143 0 204 145h14q-27 -71 -81.5 -115t-136.5 -44q-92 0 -150 60t-58 162q0 125 73.5 217.5t184.5 92.5q106 0 156.5 -75.5t34.5 -189.5zM281 510q-90 0 -155.5 -68.5t-82.5 -168.5h414q11 101 -33 169
t-143 68zM258 705l-11 -54h-15l11 54h15zM403 705l-11 -54h-15l11 54h15z" />
    <glyph glyph-name="igrave" unicode="&#xec;" horiz-adv-x="122" 
d="M63 725h16l44 -127h-16zM119 517l-100 -517h-15l100 517h15z" />
    <glyph glyph-name="iacute" unicode="&#xed;" horiz-adv-x="122" 
d="M137 598h-16l71 127h16zM119 517l-100 -517h-15l100 517h15z" />
    <glyph glyph-name="icircumflex" unicode="&#xee;" horiz-adv-x="122" 
d="M151 708l66 -104h-15l-60 93l-88 -93h-17l97 104h17zM119 517l-100 -517h-15l100 517h15z" />
    <glyph glyph-name="idieresis" unicode="&#xef;" horiz-adv-x="122" 
d="M102 705l-11 -54h-15l11 54h15zM208 705l-11 -54h-15l11 54h15zM119 517l-100 -517h-15l100 517h15z" />
    <glyph glyph-name="eth" unicode="&#xf0;" horiz-adv-x="519" 
d="M233 576l-4 14l143 48q-36 38 -83 71l8 12q50 -34 89 -78l98 33l4 -14l-92 -31q97 -121 97 -294q0 -90 -28 -166t-89.5 -127t-146.5 -51q-97 0 -151.5 64t-54.5 157q0 122 72 216.5t193 94.5q73 0 121 -37.5t68 -97.5q-13 138 -95 236zM229 7q54 0 98 22t71 56t46 76.5
t26.5 81.5t7.5 74q0 31 -11 63.5t-33 62.5t-60 49t-86 19q-114 0 -182.5 -90t-68.5 -207q0 -86 51 -146.5t141 -60.5z" />
    <glyph glyph-name="ntilde" unicode="&#xf1;" horiz-adv-x="471" 
d="M19 0h-15l101 517h15l-29 -144h1q32 61 97 105.5t140 44.5q67 0 96 -41t15 -112l-72 -370h-15l72 371q11 60 -11.5 99t-84.5 39q-89 0 -162.5 -64t-88.5 -140zM233 686q30 0 73 -30t69 -30q42 0 51 61h14q-11 -75 -65 -75q-30 0 -74 30t-69 30q-43 0 -52 -61h-14
q4 34 22.5 54.5t44.5 20.5z" />
    <glyph glyph-name="ograve" unicode="&#xf2;" 
d="M234 -8q-90 0 -150.5 60t-60.5 162q0 128 73 219t191 91q91 0 150.5 -61t59.5 -163q0 -126 -72 -217t-191 -91zM234 6q112 0 180 87t68 207q0 96 -55 153t-140 57q-111 0 -180 -87t-69 -209q0 -96 56 -152t140 -56zM253 725h16l48 -127h-16z" />
    <glyph glyph-name="oacute" unicode="&#xf3;" 
d="M234 -8q-90 0 -150.5 60t-60.5 162q0 128 73 219t191 91q91 0 150.5 -61t59.5 -163q0 -126 -72 -217t-191 -91zM234 6q112 0 180 87t68 207q0 96 -55 153t-140 57q-111 0 -180 -87t-69 -209q0 -96 56 -152t140 -56zM310 598h-16l71 127h16z" />
    <glyph glyph-name="ocircumflex" unicode="&#xf4;" 
d="M234 -8q-90 0 -150.5 60t-60.5 162q0 128 73 219t191 91q91 0 150.5 -61t59.5 -163q0 -126 -72 -217t-191 -91zM234 6q112 0 180 87t68 207q0 96 -55 153t-140 57q-111 0 -180 -87t-69 -209q0 -96 56 -152t140 -56zM332 708l80 -104h-16l-72 92l-97 -92h-19l108 104h16z
" />
    <glyph glyph-name="otilde" unicode="&#xf5;" 
d="M234 -8q-90 0 -150.5 60t-60.5 162q0 128 73 219t191 91q91 0 150.5 -61t59.5 -163q0 -126 -72 -217t-191 -91zM234 6q112 0 180 87t68 207q0 96 -55 153t-140 57q-111 0 -180 -87t-69 -209q0 -96 56 -152t140 -56zM252 686q30 0 73 -30t69 -30q42 0 51 61h14
q-11 -75 -65 -75q-30 0 -74 30t-69 30q-43 0 -52 -61h-14q4 34 22.5 54.5t44.5 20.5z" />
    <glyph glyph-name="odieresis" unicode="&#xf6;" 
d="M234 -8q-90 0 -150.5 60t-60.5 162q0 128 73 219t191 91q91 0 150.5 -61t59.5 -163q0 -126 -72 -217t-191 -91zM234 6q112 0 180 87t68 207q0 96 -55 153t-140 57q-111 0 -180 -87t-69 -209q0 -96 56 -152t140 -56zM271 705l-11 -54h-15l11 54h15zM416 705l-11 -54h-15
l11 54h15z" />
    <glyph glyph-name="divide" unicode="&#xf7;" horiz-adv-x="523" 
d="M59 320l3 14h428l-3 -14h-428zM318 506l-10 -52h-17l10 52h17zM259 199l-10 -52h-17l10 52h17z" />
    <glyph glyph-name="oslash" unicode="&#xf8;" 
d="M11 -6l-10 10l61 65q-45 58 -45 145q0 128 73 219t191 91q92 0 151 -62l54 57l10 -10l-55 -58q50 -61 50 -151q0 -126 -72 -217t-191 -91q-97 0 -157 66zM228 6q112 0 180 87t68 207q0 84 -45 140l-350 -372q54 -62 147 -62zM32 214q0 -80 40 -134l350 371
q-54 59 -141 59q-111 0 -180 -87t-69 -209z" />
    <glyph glyph-name="ugrave" unicode="&#xf9;" horiz-adv-x="464" 
d="M441 517h15l-101 -517h-15l29 144h-1q-32 -61 -96.5 -105.5t-136.5 -44.5q-64 0 -92.5 41t-14.5 112l72 370h15l-72 -371q-12 -61 10 -99.5t82 -38.5q86 0 159 64.5t88 139.5zM236 725h16l48 -127h-16z" />
    <glyph glyph-name="uacute" unicode="&#xfa;" horiz-adv-x="464" 
d="M441 517h15l-101 -517h-15l29 144h-1q-32 -61 -96.5 -105.5t-136.5 -44.5q-64 0 -92.5 41t-14.5 112l72 370h15l-72 -371q-12 -61 10 -99.5t82 -38.5q86 0 159 64.5t88 139.5zM293 598h-16l71 127h16z" />
    <glyph glyph-name="ucircumflex" unicode="&#xfb;" horiz-adv-x="464" 
d="M441 517h15l-101 -517h-15l29 144h-1q-32 -61 -96.5 -105.5t-136.5 -44.5q-64 0 -92.5 41t-14.5 112l72 370h15l-72 -371q-12 -61 10 -99.5t82 -38.5q86 0 159 64.5t88 139.5zM315 708l80 -104h-16l-72 92l-97 -92h-19l108 104h16z" />
    <glyph glyph-name="udieresis" unicode="&#xfc;" horiz-adv-x="464" 
d="M441 517h15l-101 -517h-15l29 144h-1q-32 -61 -96.5 -105.5t-136.5 -44.5q-64 0 -92.5 41t-14.5 112l72 370h15l-72 -371q-12 -61 10 -99.5t82 -38.5q86 0 159 64.5t88 139.5zM253 705l-11 -54h-15l11 54h15zM398 705l-11 -54h-15l11 54h15z" />
    <glyph glyph-name="yacute" unicode="&#xfd;" horiz-adv-x="431" 
d="M476 517l-331 -583q-35 -61 -60 -81.5t-61 -20.5q-25 0 -49 11l3 14h2q22 -11 44 -11q32 0 53.5 18.5t54.5 75.5l46 80l-126 497h16l89 -355l31 -123q27 47 68 120l204 358h16zM271 598h-16l71 127h16z" />
    <glyph glyph-name="thorn" unicode="&#xfe;" horiz-adv-x="522" 
d="M497 312q0 -57 -16 -112.5t-46.5 -102.5t-80 -76t-110.5 -29q-88 0 -136 53.5t-56 125.5l-65 -337h-15l170 881h15l-67 -346q32 70 89 112.5t136 42.5q84 0 133 -59.5t49 -152.5zM482 312q0 87 -44.5 142.5t-122.5 55.5q-63 0 -113 -30t-78.5 -77.5t-43.5 -100.5
t-15 -105q0 -44 16.5 -85.5t59 -73.5t103.5 -32q75 0 131 48t81.5 116t25.5 142z" />
    <glyph glyph-name="ydieresis" unicode="&#xff;" horiz-adv-x="431" 
d="M476 517l-331 -583q-35 -61 -60 -81.5t-61 -20.5q-25 0 -49 11l3 14h2q22 -11 44 -11q32 0 53.5 18.5t54.5 75.5l46 80l-126 497h16l89 -355l31 -123q27 47 68 120l204 358h16zM231 705l-11 -54h-15l11 54h15zM376 705l-11 -54h-15l11 54h15z" />
    <glyph glyph-name="Amacron" unicode="&#x100;" horiz-adv-x="586" 
d="M512 0l-55 256h-338l-143 -256h-15l399 715h14l152 -715h-14zM306 591l-179 -321h327l-68 323l-22 102q-34 -61 -58 -104zM276 787l3 14h214l-3 -14h-214z" />
    <glyph glyph-name="amacron" unicode="&#x101;" horiz-adv-x="479" 
d="M215 282q130 5 169.5 27t39.5 86q0 115 -149 115q-162 0 -192 -136h-14q13 65 63.5 107.5t142.5 42.5t134.5 -45t25.5 -128l-56 -274q-14 -64 28 -64q10 0 19 3h1l-3 -13q-9 -3 -19 -3q-28 0 -38.5 20.5t-2.5 56.5l7 31q-28 -52 -79.5 -83.5t-120.5 -31.5q-72 0 -117 39
t-45 104q0 68 48.5 105t157.5 41zM171 7q83 0 141.5 49t73.5 123l28 139q-18 -23 -61.5 -34t-136.5 -15q-104 -5 -148 -37.5t-44 -95.5q0 -58 40 -93.5t107 -35.5zM181 650l3 14h214l-3 -14h-214z" />
    <glyph glyph-name="Abreve" unicode="&#x102;" horiz-adv-x="586" 
d="M512 0l-55 256h-338l-143 -256h-15l399 715h14l152 -715h-14zM306 591l-179 -321h327l-68 323l-22 102q-34 -61 -58 -104zM269 861h14q5 -36 30 -56t67 -20q88 0 110 76h14q-10 -41 -43 -65.5t-81 -24.5t-77.5 24t-33.5 66z" />
    <glyph glyph-name="abreve" unicode="&#x103;" horiz-adv-x="479" 
d="M215 282q130 5 169.5 27t39.5 86q0 115 -149 115q-162 0 -192 -136h-14q13 65 63.5 107.5t142.5 42.5t134.5 -45t25.5 -128l-56 -274q-14 -64 28 -64q10 0 19 3h1l-3 -13q-9 -3 -19 -3q-28 0 -38.5 20.5t-2.5 56.5l7 31q-28 -52 -79.5 -83.5t-120.5 -31.5q-72 0 -117 39
t-45 104q0 68 48.5 105t157.5 41zM171 7q83 0 141.5 49t73.5 123l28 139q-18 -23 -61.5 -34t-136.5 -15q-104 -5 -148 -37.5t-44 -95.5q0 -58 40 -93.5t107 -35.5zM180 706h14q5 -36 30 -56t67 -20q88 0 110 76h14q-10 -41 -43 -65.5t-81 -24.5t-77.5 24t-33.5 66z" />
    <glyph glyph-name="Aogonek" unicode="&#x104;" horiz-adv-x="586" 
d="M404 -109q0 62 107 115l-53 250h-339l-143 -256h-15l399 715h14l152 -715q-107 -52 -107 -109q0 -49 59 -49q18 0 37 7h1l-3 -14q-16 -7 -35 -7q-32 0 -53 15.5t-21 47.5zM306 591l-179 -321h328l-69 323l-22 102q-34 -61 -58 -104z" />
    <glyph glyph-name="aogonek" unicode="&#x105;" horiz-adv-x="479" 
d="M215 282q130 5 169.5 27t39.5 86q0 115 -149 115q-162 0 -192 -136h-14q13 65 63.5 107.5t142.5 42.5t134.5 -45t25.5 -128l-56 -274q-14 -64 28 -64q10 0 19 3h1l-3 -13q-121 -47 -121 -113q0 -48 59 -48q18 0 37 7h1l-3 -14q-16 -7 -35 -7q-32 0 -53 15.5t-21 46.5
q0 63 102 112q-41 12 -26 75l7 31q-28 -52 -79.5 -83.5t-120.5 -31.5q-72 0 -117 39t-45 104q0 68 48.5 105t157.5 41zM171 7q83 0 141.5 49t73.5 123l28 139q-18 -23 -61.5 -34t-136.5 -15q-104 -5 -148 -37.5t-44 -95.5q0 -58 40 -93.5t107 -35.5z" />
    <glyph glyph-name="Cacute" unicode="&#x106;" horiz-adv-x="660" 
d="M660 516h-15q-13 90 -71 141t-161 51q-80 0 -147.5 -35t-110.5 -92.5t-66.5 -129t-23.5 -147.5q0 -134 70.5 -215.5t202.5 -81.5q112 0 185.5 69t97.5 173h15q-25 -110 -103 -183t-195 -73q-139 0 -213.5 85.5t-74.5 225.5q0 78 25 152.5t70 134t115 95.5t153 36
q105 0 170 -55.5t77 -150.5zM439 756h-16l65 115h16z" />
    <glyph glyph-name="cacute" unicode="&#x107;" horiz-adv-x="484" 
d="M473 359h-14q-9 67 -53 109t-119 42q-111 0 -180 -90.5t-69 -208.5q0 -98 52 -151t139 -53q73 0 128.5 45t78.5 121h14q-23 -82 -82.5 -131t-138.5 -49q-95 0 -150.5 56.5t-55.5 161.5q0 124 73.5 218.5t190.5 94.5q81 0 129 -46.5t57 -118.5zM307 598h-16l71 127h16z
" />
    <glyph glyph-name="Ccircumflex" unicode="&#x108;" horiz-adv-x="660" 
d="M660 516h-15q-13 90 -71 141t-161 51q-80 0 -147.5 -35t-110.5 -92.5t-66.5 -129t-23.5 -147.5q0 -134 70.5 -215.5t202.5 -81.5q112 0 185.5 69t97.5 173h15q-25 -110 -103 -183t-195 -73q-139 0 -213.5 85.5t-74.5 225.5q0 78 25 152.5t70 134t115 95.5t153 36
q105 0 170 -55.5t77 -150.5zM451 862l80 -104h-16l-72 92l-97 -92h-19l108 104h16z" />
    <glyph glyph-name="ccircumflex" unicode="&#x109;" horiz-adv-x="484" 
d="M473 359h-14q-9 67 -53 109t-119 42q-111 0 -180 -90.5t-69 -208.5q0 -98 52 -151t139 -53q73 0 128.5 45t78.5 121h14q-23 -82 -82.5 -131t-138.5 -49q-95 0 -150.5 56.5t-55.5 161.5q0 124 73.5 218.5t190.5 94.5q81 0 129 -46.5t57 -118.5zM329 708l80 -104h-16
l-72 92l-97 -92h-19l108 104h16z" />
    <glyph glyph-name="Cdotaccent" unicode="&#x10a;" horiz-adv-x="660" 
d="M660 516h-15q-13 90 -71 141t-161 51q-80 0 -147.5 -35t-110.5 -92.5t-66.5 -129t-23.5 -147.5q0 -134 70.5 -215.5t202.5 -81.5q112 0 185.5 69t97.5 173h15q-25 -110 -103 -183t-195 -73q-139 0 -213.5 85.5t-74.5 225.5q0 78 25 152.5t70 134t115 95.5t153 36
q105 0 170 -55.5t77 -150.5zM458 835l-11 -53h-17l11 53h17z" />
    <glyph glyph-name="cdotaccent" unicode="&#x10b;" horiz-adv-x="484" 
d="M473 359h-14q-9 67 -53 109t-119 42q-111 0 -180 -90.5t-69 -208.5q0 -98 52 -151t139 -53q73 0 128.5 45t78.5 121h14q-23 -82 -82.5 -131t-138.5 -49q-95 0 -150.5 56.5t-55.5 161.5q0 124 73.5 218.5t190.5 94.5q81 0 129 -46.5t57 -118.5zM319 695l-11 -55h-17l11 55
h17z" />
    <glyph glyph-name="Ccaron" unicode="&#x10c;" horiz-adv-x="660" 
d="M660 516h-15q-13 90 -71 141t-161 51q-80 0 -147.5 -35t-110.5 -92.5t-66.5 -129t-23.5 -147.5q0 -134 70.5 -215.5t202.5 -81.5q112 0 185.5 69t97.5 173h15q-25 -110 -103 -183t-195 -73q-139 0 -213.5 85.5t-74.5 225.5q0 78 25 152.5t70 134t115 95.5t153 36
q105 0 170 -55.5t77 -150.5zM422 758l-81 104h17l72 -92l96 92h18l-108 -104h-14z" />
    <glyph glyph-name="ccaron" unicode="&#x10d;" horiz-adv-x="484" 
d="M473 359h-14q-9 67 -53 109t-119 42q-111 0 -180 -90.5t-69 -208.5q0 -98 52 -151t139 -53q73 0 128.5 45t78.5 121h14q-23 -82 -82.5 -131t-138.5 -49q-95 0 -150.5 56.5t-55.5 161.5q0 124 73.5 218.5t190.5 94.5q81 0 129 -46.5t57 -118.5zM292 604l-81 104h17l72 -92
l96 92h18l-108 -104h-14z" />
    <glyph glyph-name="Dcaron" unicode="&#x10e;" horiz-adv-x="637" 
d="M16 0l137 715h196q130 0 203 -80t73 -210q0 -87 -24 -162.5t-70 -135t-120.5 -93.5t-169.5 -34h-225zM166 701l-132 -687h207q91 0 163 33t116 90.5t67 130.5t23 157q0 124 -68 200t-193 76h-183zM365 758l-81 104h17l72 -92l96 92h18l-108 -104h-14z" />
    <glyph glyph-name="dcaron" unicode="&#x10f;" horiz-adv-x="527" 
d="M22 201q0 76 29 148t92 123.5t147 51.5q82 0 128.5 -53t55.5 -126l72 370h15l-138 -715h-15l28 148q-31 -70 -87.5 -113t-133.5 -43q-86 0 -139.5 58.5t-53.5 150.5zM37 201q0 -84 49 -139.5t129 -55.5q60 0 109 30t78 77t44.5 100.5t15.5 105.5q0 44 -16.5 85.5
t-57.5 73.5t-98 32q-79 0 -138.5 -49t-87 -118t-27.5 -142zM563 571l3 16q18 7 28.5 23.5t19.5 63.5l8 41h15l-9 -47q-7 -38 -19 -59.5t-21 -27t-25 -10.5z" />
    <glyph glyph-name="Dcroat" unicode="&#x110;" horiz-adv-x="643" 
d="M22 0l68 354h-73l3 14h72l67 347h196q130 0 203 -80t73 -210q0 -87 -24 -162.5t-70 -135t-120.5 -93.5t-169.5 -34h-225zM172 701l-64 -333h251l-3 -14h-251l-65 -340h207q91 0 163 33t116 90.5t67 130.5t23 157q0 124 -68 200t-193 76h-183z" />
    <glyph glyph-name="dcroat" unicode="&#x111;" horiz-adv-x="527" 
d="M22 201q0 76 29 148t92 123.5t147 51.5q82 0 128.5 -53t55.5 -126l50 260h-169l3 14h169l19 96h15l-19 -96h63l-3 -14h-62l-117 -605h-15l28 148q-31 -70 -87.5 -113t-133.5 -43q-86 0 -139.5 58.5t-53.5 150.5zM37 201q0 -84 49 -139.5t129 -55.5q60 0 109 30t78 77
t44.5 100.5t15.5 105.5q0 44 -16.5 85.5t-57.5 73.5t-98 32q-79 0 -138.5 -49t-87 -118t-27.5 -142z" />
    <glyph glyph-name="Emacron" unicode="&#x112;" horiz-adv-x="553" 
d="M16 0l137 715h429l-3 -14h-413l-62 -323h380l-3 -14h-380l-67 -350h435l-3 -14h-450zM274 787l3 14h214l-3 -14h-214z" />
    <glyph glyph-name="emacron" unicode="&#x113;" horiz-adv-x="495" 
d="M472 259h-431q-3 -23 -3 -45q0 -95 53.5 -151.5t139.5 -56.5q143 0 204 145h14q-27 -71 -81.5 -115t-136.5 -44q-92 0 -150 60t-58 162q0 125 73.5 217.5t184.5 92.5q106 0 156.5 -75.5t34.5 -189.5zM281 510q-90 0 -155.5 -68.5t-82.5 -168.5h414q11 101 -33 169
t-143 68zM204 650l3 14h214l-3 -14h-214z" />
    <glyph glyph-name="Ebreve" unicode="&#x114;" horiz-adv-x="553" 
d="M16 0l137 715h429l-3 -14h-413l-62 -323h380l-3 -14h-380l-67 -350h435l-3 -14h-450zM267 861h14q5 -36 30 -56t67 -20q88 0 110 76h14q-10 -41 -43 -65.5t-81 -24.5t-77.5 24t-33.5 66z" />
    <glyph glyph-name="ebreve" unicode="&#x115;" horiz-adv-x="495" 
d="M472 259h-431q-3 -23 -3 -45q0 -95 53.5 -151.5t139.5 -56.5q143 0 204 145h14q-27 -71 -81.5 -115t-136.5 -44q-92 0 -150 60t-58 162q0 125 73.5 217.5t184.5 92.5q106 0 156.5 -75.5t34.5 -189.5zM281 510q-90 0 -155.5 -68.5t-82.5 -168.5h414q11 101 -33 169
t-143 68zM191 706h14q5 -36 30 -56t67 -20q88 0 110 76h14q-10 -41 -43 -65.5t-81 -24.5t-77.5 24t-33.5 66z" />
    <glyph glyph-name="Edotaccent" unicode="&#x116;" horiz-adv-x="553" 
d="M16 0l137 715h429l-3 -14h-413l-62 -323h380l-3 -14h-380l-67 -350h435l-3 -14h-450zM399 835l-11 -53h-17l11 53h17z" />
    <glyph glyph-name="edotaccent" unicode="&#x117;" horiz-adv-x="495" 
d="M472 259h-431q-3 -23 -3 -45q0 -95 53.5 -151.5t139.5 -56.5q143 0 204 145h14q-27 -71 -81.5 -115t-136.5 -44q-92 0 -150 60t-58 162q0 125 73.5 217.5t184.5 92.5q106 0 156.5 -75.5t34.5 -189.5zM281 510q-90 0 -155.5 -68.5t-82.5 -168.5h414q11 101 -33 169
t-143 68zM328 695l-11 -55h-17l11 55h17z" />
    <glyph glyph-name="Eogonek" unicode="&#x118;" horiz-adv-x="553" 
d="M16 0l138 715h428l-3 -14h-413l-62 -323h380l-3 -14h-380l-67 -350h435l-3 -14h-56q-105 -52 -105 -110q0 -48 59 -48q18 0 37 7h1l-3 -14q-16 -7 -35 -7q-32 0 -53 15.5t-21 46.5q0 60 93 110h-367z" />
    <glyph glyph-name="eogonek" unicode="&#x119;" horiz-adv-x="495" 
d="M195 -109q0 58 74 104q-16 -3 -38 -3q-92 0 -150 60t-58 162q0 125 73.5 217.5t184.5 92.5q106 0 156.5 -75.5t34.5 -189.5h-431q-3 -23 -3 -45q0 -95 53.5 -151.5t139.5 -56.5q143 0 204 145h14q-42 -107 -135 -147q-51 -22 -77.5 -52t-26.5 -61q0 -49 59 -49q18 0 37 7
h1l-3 -14q-16 -7 -35 -7q-32 0 -53 15.5t-21 47.5zM281 510q-90 0 -155.5 -68.5t-82.5 -168.5h414q11 101 -33 169t-143 68z" />
    <glyph glyph-name="Ecaron" unicode="&#x11a;" horiz-adv-x="553" 
d="M16 0l137 715h429l-3 -14h-413l-62 -323h380l-3 -14h-380l-67 -350h435l-3 -14h-450zM363 758l-81 104h17l72 -92l96 92h18l-108 -104h-14z" />
    <glyph glyph-name="ecaron" unicode="&#x11b;" horiz-adv-x="495" 
d="M472 259h-431q-3 -23 -3 -45q0 -95 53.5 -151.5t139.5 -56.5q143 0 204 145h14q-27 -71 -81.5 -115t-136.5 -44q-92 0 -150 60t-58 162q0 125 73.5 217.5t184.5 92.5q106 0 156.5 -75.5t34.5 -189.5zM281 510q-90 0 -155.5 -68.5t-82.5 -168.5h414q11 101 -33 169
t-143 68zM293 604l-81 104h17l72 -92l96 92h18l-108 -104h-14z" />
    <glyph glyph-name="Gcircumflex" unicode="&#x11c;" horiz-adv-x="695" 
d="M655 349l-68 -349h-15l32 165q-37 -78 -106.5 -125t-161.5 -47q-139 0 -212.5 85t-73.5 226q0 106 41 199.5t125.5 156t194.5 62.5t176.5 -55.5t79.5 -150.5h-14q-14 89 -76 140.5t-166 51.5q-81 0 -148 -35t-109.5 -92.5t-66 -129t-23.5 -147.5q0 -134 70 -215.5
t202 -81.5q114 0 190 72.5t96 178.5l15 77h-263l3 14h278zM437 862l80 -104h-16l-72 92l-97 -92h-19l108 104h16z" />
    <glyph glyph-name="gcircumflex" unicode="&#x11d;" horiz-adv-x="518" 
d="M8 -41h14q5 -57 50 -87.5t124 -30.5q89 0 138 45t64 120l31 159q-31 -62 -85 -101t-129 -39q-91 0 -140.5 56t-49.5 143q0 54 16.5 106t47 96t80.5 71t111 27q80 0 129 -48t57 -124l32 165h15l-100 -513q-15 -76 -68 -126.5t-149 -50.5q-86 0 -135.5 35.5t-52.5 96.5z
M40 224q0 -81 45.5 -133t129.5 -52q76 0 132.5 46t81.5 108.5t25 126.5q0 83 -45.5 136.5t-128.5 53.5q-112 0 -176 -87.5t-64 -198.5zM324 708l80 -104h-16l-72 92l-97 -92h-19l108 104h16z" />
    <glyph glyph-name="Gbreve" unicode="&#x11e;" horiz-adv-x="695" 
d="M655 349l-68 -349h-15l32 165q-37 -78 -106.5 -125t-161.5 -47q-139 0 -212.5 85t-73.5 226q0 106 41 199.5t125.5 156t194.5 62.5t176.5 -55.5t79.5 -150.5h-14q-14 89 -76 140.5t-166 51.5q-81 0 -148 -35t-109.5 -92.5t-66 -129t-23.5 -147.5q0 -134 70 -215.5
t202 -81.5q114 0 190 72.5t96 178.5l15 77h-263l3 14h278zM312 861h14q5 -36 30 -56t67 -20q88 0 110 76h14q-10 -41 -43 -65.5t-81 -24.5t-77.5 24t-33.5 66z" />
    <glyph glyph-name="gbreve" unicode="&#x11f;" horiz-adv-x="518" 
d="M8 -41h14q5 -57 50 -87.5t124 -30.5q89 0 138 45t64 120l31 159q-31 -62 -85 -101t-129 -39q-91 0 -140.5 56t-49.5 143q0 54 16.5 106t47 96t80.5 71t111 27q80 0 129 -48t57 -124l32 165h15l-100 -513q-15 -76 -68 -126.5t-149 -50.5q-86 0 -135.5 35.5t-52.5 96.5z
M40 224q0 -81 45.5 -133t129.5 -52q76 0 132.5 46t81.5 108.5t25 126.5q0 83 -45.5 136.5t-128.5 53.5q-112 0 -176 -87.5t-64 -198.5zM196 706h14q5 -36 30 -56t67 -20q88 0 110 76h14q-10 -41 -43 -65.5t-81 -24.5t-77.5 24t-33.5 66z" />
    <glyph glyph-name="Gdotaccent" unicode="&#x120;" horiz-adv-x="695" 
d="M655 349l-68 -349h-15l32 165q-37 -78 -106.5 -125t-161.5 -47q-139 0 -212.5 85t-73.5 226q0 106 41 199.5t125.5 156t194.5 62.5t176.5 -55.5t79.5 -150.5h-14q-14 89 -76 140.5t-166 51.5q-81 0 -148 -35t-109.5 -92.5t-66 -129t-23.5 -147.5q0 -134 70 -215.5
t202 -81.5q114 0 190 72.5t96 178.5l15 77h-263l3 14h278zM444 835l-11 -53h-17l11 53h17z" />
    <glyph glyph-name="gdotaccent" unicode="&#x121;" horiz-adv-x="518" 
d="M8 -41h14q5 -57 50 -87.5t124 -30.5q89 0 138 45t64 120l31 159q-31 -62 -85 -101t-129 -39q-91 0 -140.5 56t-49.5 143q0 54 16.5 106t47 96t80.5 71t111 27q80 0 129 -48t57 -124l32 165h15l-100 -513q-15 -76 -68 -126.5t-149 -50.5q-86 0 -135.5 35.5t-52.5 96.5z
M40 224q0 -81 45.5 -133t129.5 -52q76 0 132.5 46t81.5 108.5t25 126.5q0 83 -45.5 136.5t-128.5 53.5q-112 0 -176 -87.5t-64 -198.5zM320 695l-11 -55h-17l11 55h17z" />
    <glyph glyph-name="Gcommaaccent" unicode="&#x122;" horiz-adv-x="695" 
d="M655 349l-68 -349h-15l32 165q-37 -78 -106.5 -125t-161.5 -47q-139 0 -212.5 85t-73.5 226q0 106 41 199.5t125.5 156t194.5 62.5t176.5 -55.5t79.5 -150.5h-14q-14 89 -76 140.5t-166 51.5q-81 0 -148 -35t-109.5 -92.5t-66 -129t-23.5 -147.5q0 -134 70 -215.5
t202 -81.5q114 0 190 72.5t96 178.5l15 77h-263l3 14h278zM221 -204l3 16q32 10 47 83l10 51h15l-10 -51q-7 -38 -19 -60t-21 -28t-25 -11z" />
    <glyph glyph-name="gcommaaccent" unicode="&#x123;" horiz-adv-x="518" 
d="M8 -41h14q5 -57 50 -87.5t124 -30.5q89 0 138 45t64 120l31 159q-31 -62 -85 -101t-129 -39q-91 0 -140.5 56t-49.5 143q0 54 16.5 106t47 96t80.5 71t111 27q80 0 129 -48t57 -124l32 165h15l-100 -513q-15 -76 -68 -126.5t-149 -50.5q-86 0 -135.5 35.5t-52.5 96.5z
M40 224q0 -81 45.5 -133t129.5 -52q76 0 132.5 46t81.5 108.5t25 126.5q0 83 -45.5 136.5t-128.5 53.5q-112 0 -176 -87.5t-64 -198.5zM357 761l-3 -16q-18 -7 -29.5 -24.5t-19.5 -64.5l-8 -45h-15l9 53q6 35 18 57t22 28.5t26 11.5z" />
    <glyph glyph-name="Hcircumflex" unicode="&#x124;" horiz-adv-x="654" 
d="M16 0l139 715h15l-64 -327h491l64 327h15l-139 -715h-15l73 374h-491l-73 -374h-15zM437 862l80 -104h-16l-72 92l-97 -92h-19l108 104h16z" />
    <glyph glyph-name="hcircumflex" unicode="&#x125;" horiz-adv-x="471" 
d="M19 0h-15l139 715h15l-67 -342h1q32 61 97 105.5t140 44.5q67 0 96 -41t15 -112l-72 -370h-15l72 371q11 60 -11.5 99t-84.5 39q-88 0 -162.5 -65t-88.5 -140zM335 862l80 -104h-16l-72 92l-97 -92h-19l108 104h16z" />
    <glyph glyph-name="Hbar" unicode="&#x126;" horiz-adv-x="654" 
d="M16 0l104 534h-68l3 14h67l33 167h15l-33 -167h491l33 167h15l-33 -167h79l-3 -14h-78l-104 -534h-15l73 374h-491l-73 -374h-15zM106 388h491l28 146h-491z" />
    <glyph glyph-name="hbar" unicode="&#x127;" horiz-adv-x="471" 
d="M19 0h-15l117 605h-62l3 14h62l19 96h15l-19 -96h158l-3 -14h-158l-45 -232h1q32 61 97 105.5t140 44.5q67 0 96 -41t15 -112l-72 -370h-15l72 371q11 60 -11.5 99t-84.5 39q-88 0 -162.5 -65t-88.5 -140z" />
    <glyph glyph-name="Itilde" unicode="&#x128;" horiz-adv-x="152" 
d="M172 715l-139 -715h-15l139 715h15zM112 844q30 0 73 -30t69 -30q42 0 51 61h14q-11 -75 -65 -75q-30 0 -74 30t-69 30q-43 0 -52 -61h-14q4 34 22.5 54.5t44.5 20.5z" />
    <glyph glyph-name="itilde" unicode="&#x129;" horiz-adv-x="122" 
d="M73 686q25 0 64 -30t60 -30q20 0 31 13t15 44h14q-10 -71 -60 -71q-25 0 -65 30t-60 30q-39 0 -47 -57h-14q8 71 62 71zM119 517l-100 -517h-15l100 517h15z" />
    <glyph glyph-name="Imacron" unicode="&#x12a;" horiz-adv-x="152" 
d="M251 801l-3 -14h-142l3 14h142zM172 715l-139 -715h-15l139 715h15z" />
    <glyph glyph-name="imacron" unicode="&#x12b;" horiz-adv-x="122" 
d="M67 650l3 14h139l-3 -14h-139zM119 517l-100 -517h-15l100 517h15z" />
    <glyph glyph-name="Ibreve" unicode="&#x12c;" horiz-adv-x="152" 
d="M172 715l-139 -715h-15l139 715h15zM65 861h14q5 -36 30 -56t67 -20q88 0 110 76h14q-10 -41 -43 -65.5t-81 -24.5t-77.5 24t-33.5 66z" />
    <glyph glyph-name="ibreve" unicode="&#x12d;" horiz-adv-x="122" 
d="M22 706h14q5 -36 30 -56t67 -20q88 0 110 76h14q-10 -41 -43 -65.5t-81 -24.5t-77.5 24t-33.5 66zM119 517l-100 -517h-15l100 517h15z" />
    <glyph glyph-name="Iogonek" unicode="&#x12e;" horiz-adv-x="152" 
d="M172 715l-139 -715q-41 -30 -61 -54.5t-20 -54.5q0 -49 59 -49q17 0 38 8h1l-3 -14q-18 -8 -36 -8q-32 0 -53 16t-21 47q0 58 82 115l138 709h15z" />
    <glyph glyph-name="iogonek" unicode="&#x12f;" horiz-adv-x="122" 
d="M119 517l-100 -517q-91 -48 -91 -111q0 -48 59 -48q18 0 37 7h1l-3 -14q-16 -7 -35 -7q-32 0 -53 15.5t-21 46.5q0 67 92 118l99 510h15zM156 706l-11 -56h-15l11 56h15z" />
    <glyph glyph-name="Idotaccent" unicode="&#x130;" horiz-adv-x="152" 
d="M172 715l-139 -715h-15l139 715h15zM197 835l-11 -53h-17l11 53h17z" />
    <glyph glyph-name="dotlessi" unicode="&#x131;" horiz-adv-x="122" 
d="M119 517l-100 -517h-15l100 517h15z" />
    <glyph glyph-name="IJ" unicode="&#x132;" horiz-adv-x="606" 
d="M172 715l-139 -715h-15l139 715h15zM162 220h15q-8 -38 -8 -70q0 -69 41 -106t122 -37q153 0 185 163l105 545h15l-105 -546q-34 -176 -200 -176q-88 0 -133 41t-45 115q0 35 8 71z" />
    <glyph glyph-name="ij" unicode="&#x133;" horiz-adv-x="268" 
d="M251 517h15l-115 -589q-8 -41 -28.5 -58t-59.5 -17q-24 0 -45 7l3 14h1q19 -7 41 -7q36 0 51.5 15.5t22.5 51.5zM119 517l-100 -517h-15l100 517h15zM302 706l-11 -56h-15l11 56h15zM156 706l-11 -56h-15l11 56h15z" />
    <glyph glyph-name="Jcircumflex" unicode="&#x134;" horiz-adv-x="454" 
d="M10 220h15q-8 -38 -8 -70q0 -69 41 -106t122 -37q153 0 185 163l105 545h15l-105 -546q-34 -176 -200 -176q-88 0 -133 41t-45 115q0 35 8 71zM504 862l80 -104h-16l-72 92l-97 -92h-19l108 104h16z" />
    <glyph glyph-name="jcircumflex" unicode="&#x135;" horiz-adv-x="146" 
d="M129 517h15l-115 -589q-8 -41 -28.5 -58t-59.5 -17q-24 0 -45 7l3 14h1q19 -7 41 -7q36 0 51.5 15.5t22.5 51.5zM176 708l66 -104h-15l-60 93l-88 -93h-17l97 104h17z" />
    <glyph glyph-name="Kcommaaccent" unicode="&#x136;" horiz-adv-x="563" 
d="M610 715l-334 -285l259 -430h-17l-254 420l-182 -156l-51 -264h-15l139 715h15l-84 -430l502 430h22zM192 -204l3 16q32 10 47 83l10 51h15l-10 -51q-7 -38 -19 -60t-21 -28t-25 -11z" />
    <glyph glyph-name="kcommaaccent" unicode="&#x137;" horiz-adv-x="414" 
d="M442 517l-235 -193l167 -324h-16l-163 315l-137 -113l-39 -202h-15l139 715h15l-96 -492l358 294h22zM102 -204l3 16q32 10 47 83l10 51h15l-10 -51q-7 -38 -19 -60t-21 -28t-25 -11z" />
    <glyph glyph-name="Lacute" unicode="&#x139;" horiz-adv-x="509" 
d="M169 715l-136 -701h416l-3 -14h-430l138 715h15zM179 756h-16l65 115h16z" />
    <glyph glyph-name="lacute" unicode="&#x13a;" horiz-adv-x="130" 
d="M161 715l-139 -715h-15l139 715h15zM167 756h-16l65 115h16z" />
    <glyph glyph-name="Lcommaaccent" unicode="&#x13b;" horiz-adv-x="509" 
d="M169 715l-136 -701h416l-3 -14h-430l138 715h15zM171 -204l3 16q32 10 47 83l10 51h15l-10 -51q-7 -38 -19 -60t-21 -28t-25 -11z" />
    <glyph glyph-name="lcommaaccent" unicode="&#x13c;" horiz-adv-x="130" 
d="M161 715l-139 -715h-15l139 715h15zM-63 -204l3 16q32 10 47 83l10 51h15l-10 -51q-7 -38 -19 -60t-21 -28t-25 -11z" />
    <glyph glyph-name="Lcaron" unicode="&#x13d;" horiz-adv-x="509" 
d="M169 715l-136 -701h416l-3 -14h-430l138 715h15zM368 571l3 16q18 7 28.5 23.5t19.5 63.5l8 41h15l-9 -47q-7 -38 -19 -59.5t-21 -27t-25 -10.5z" />
    <glyph glyph-name="lcaron" unicode="&#x13e;" horiz-adv-x="130" 
d="M161 715l-139 -715h-15l139 715h15zM170 571l3 16q18 7 28.5 23.5t19.5 63.5l8 41h15l-9 -47q-7 -38 -19 -59.5t-21 -27t-25 -10.5z" />
    <glyph glyph-name="Ldot" unicode="&#x13f;" horiz-adv-x="509" 
d="M169 715l-136 -701h416l-3 -14h-430l138 715h15zM389 408l-11 -55h-17l11 55h17z" />
    <glyph glyph-name="ldot" unicode="&#x140;" horiz-adv-x="131" 
d="M161 715l-139 -715h-15l139 715h15zM159 371l-11 -55h-17l11 55h17z" />
    <glyph glyph-name="Lslash" unicode="&#x141;" horiz-adv-x="514" 
d="M174 715l-84 -433l335 175l-3 -17l-335 -174l-49 -252h416l-3 -14h-430l50 258l-77 -40l3 16l77 40l85 441h15z" />
    <glyph glyph-name="lslash" unicode="&#x142;" horiz-adv-x="150" 
d="M194 445l-4 -21l-86 -62l-70 -362h-15l68 349l-81 -58l4 20l81 58l67 346h15l-65 -333z" />
    <glyph glyph-name="Nacute" unicode="&#x143;" horiz-adv-x="649" 
d="M671 715l-139 -715h-15l-286 563l-66 129l-134 -692h-15l138 715h17l294 -578l57 -112l134 690h15zM426 756h-16l65 115h16z" />
    <glyph glyph-name="nacute" unicode="&#x144;" horiz-adv-x="471" 
d="M19 0h-15l101 517h15l-29 -144h1q32 61 97 105.5t140 44.5q67 0 96 -41t15 -112l-72 -370h-15l72 371q11 60 -11.5 99t-84.5 39q-89 0 -162.5 -64t-88.5 -140zM292 598h-16l71 127h16z" />
    <glyph glyph-name="Ncommaaccent" unicode="&#x145;" horiz-adv-x="649" 
d="M671 715l-139 -715h-15l-286 563l-66 129l-134 -692h-15l138 715h17l294 -578l57 -112l134 690h15zM222 -204l3 16q32 10 47 83l10 51h15l-10 -51q-7 -38 -19 -60t-21 -28t-25 -11z" />
    <glyph glyph-name="ncommaaccent" unicode="&#x146;" horiz-adv-x="471" 
d="M19 0h-15l101 517h15l-29 -144h1q32 61 97 105.5t140 44.5q67 0 96 -41t15 -112l-72 -370h-15l72 371q11 60 -11.5 99t-84.5 39q-89 0 -162.5 -64t-88.5 -140zM126 -204l3 16q32 10 47 83l10 51h15l-10 -51q-7 -38 -19 -60t-21 -28t-25 -11z" />
    <glyph glyph-name="Ncaron" unicode="&#x147;" horiz-adv-x="649" 
d="M671 715l-139 -715h-15l-286 563l-66 129l-134 -692h-15l138 715h17l294 -578l24 -48t23 -44.5t10 -19.5l134 690h15zM409 758l-81 104h17l72 -92l96 92h18l-108 -104h-14z" />
    <glyph glyph-name="ncaron" unicode="&#x148;" horiz-adv-x="471" 
d="M19 0h-15l101 517h15l-29 -144h1q32 61 97 105.5t140 44.5q67 0 96 -41t15 -112l-72 -370h-15l72 371q11 60 -11.5 99t-84.5 39q-89 0 -162.5 -64t-88.5 -140zM288 604l-81 104h17l72 -92l96 92h18l-108 -104h-14z" />
    <glyph glyph-name="napostrophe" unicode="&#x149;" horiz-adv-x="471" 
d="M19 0h-15l101 517h15l-29 -144h1q32 61 97 105.5t140 44.5q67 0 96 -41t15 -112l-72 -370h-15l72 371q11 60 -11.5 99t-84.5 39q-89 0 -162.5 -64t-88.5 -140zM55 571l3 16q18 7 28.5 23.5t19.5 63.5l8 41h15l-9 -47q-7 -38 -19 -59.5t-21 -27t-25 -10.5z" />
    <glyph glyph-name="Omacron" unicode="&#x14c;" horiz-adv-x="732" 
d="M360 -8q-133 0 -221.5 86.5t-88.5 235.5q0 170 102.5 289.5t259.5 119.5q133 0 220 -86.5t87 -236.5q0 -173 -99 -290.5t-260 -117.5zM360 6q155 0 249.5 113.5t94.5 280.5q0 144 -82.5 226.5t-209.5 82.5q-151 0 -249 -115.5t-98 -279.5q0 -143 84 -225.5t211 -82.5z
M333 787l3 14h214l-3 -14h-214z" />
    <glyph glyph-name="omacron" unicode="&#x14d;" 
d="M234 -8q-90 0 -150.5 60t-60.5 162q0 128 73 219t191 91q91 0 150.5 -61t59.5 -163q0 -126 -72 -217t-191 -91zM234 6q112 0 180 87t68 207q0 96 -55 153t-140 57q-111 0 -180 -87t-69 -209q0 -96 56 -152t140 -56zM217 650l3 14h214l-3 -14h-214z" />
    <glyph glyph-name="Obreve" unicode="&#x14e;" horiz-adv-x="732" 
d="M360 -8q-133 0 -221.5 86.5t-88.5 235.5q0 170 102.5 289.5t259.5 119.5q133 0 220 -86.5t87 -236.5q0 -173 -99 -290.5t-260 -117.5zM360 6q155 0 249.5 113.5t94.5 280.5q0 144 -82.5 226.5t-209.5 82.5q-151 0 -249 -115.5t-98 -279.5q0 -143 84 -225.5t211 -82.5z
M326 861h14q5 -36 30 -56t67 -20q88 0 110 76h14q-10 -41 -43 -65.5t-81 -24.5t-77.5 24t-33.5 66z" />
    <glyph glyph-name="obreve" unicode="&#x14f;" 
d="M234 -8q-90 0 -150.5 60t-60.5 162q0 128 73 219t191 91q91 0 150.5 -61t59.5 -163q0 -126 -72 -217t-191 -91zM234 6q112 0 180 87t68 207q0 96 -55 153t-140 57q-111 0 -180 -87t-69 -209q0 -96 56 -152t140 -56zM204 706h14q5 -36 30 -56t67 -20q88 0 110 76h14
q-10 -41 -43 -65.5t-81 -24.5t-77.5 24t-33.5 66z" />
    <glyph glyph-name="Ohungarumlaut" unicode="&#x150;" horiz-adv-x="732" 
d="M360 -8q-133 0 -221.5 86.5t-88.5 235.5q0 170 102.5 289.5t259.5 119.5q133 0 220 -86.5t87 -236.5q0 -173 -99 -290.5t-260 -117.5zM360 6q155 0 249.5 113.5t94.5 280.5q0 144 -82.5 226.5t-209.5 82.5q-151 0 -249 -115.5t-98 -279.5q0 -143 84 -225.5t211 -82.5z
M346 756l60 121h16l-61 -121h-15zM468 756l60 121h16l-61 -121h-15z" />
    <glyph glyph-name="ohungarumlaut" unicode="&#x151;" 
d="M234 -8q-90 0 -150.5 60t-60.5 162q0 128 73 219t191 91q91 0 150.5 -61t59.5 -163q0 -126 -72 -217t-191 -91zM234 6q112 0 180 87t68 207q0 96 -55 153t-140 57q-111 0 -180 -87t-69 -209q0 -96 56 -152t140 -56zM237 604l60 121h16l-61 -121h-15zM359 604l60 121h16
l-61 -121h-15z" />
    <glyph glyph-name="OE" unicode="&#x152;" horiz-adv-x="1041" 
d="M519 0l18 92q-23 -39 -85 -69.5t-143 -30.5q-117 0 -187.5 81t-70.5 225q0 112 43.5 208t129 156.5t194.5 60.5q84 0 143 -39t72 -94l24 125h413l-3 -14h-398l-62 -323h365l-3 -14h-365l-67 -350h420l-3 -14h-435zM309 6q92 0 159.5 41t78.5 98l75 388q14 71 -47 123.5
t-157 52.5q-81 0 -148.5 -34.5t-111.5 -92.5t-68 -131.5t-24 -152.5q0 -137 66.5 -214.5t176.5 -77.5z" />
    <glyph glyph-name="oe" unicode="&#x153;" horiz-adv-x="868" 
d="M207 -8q-82 0 -133 58.5t-51 163.5q0 127 69.5 218.5t178.5 91.5q76 0 122 -51t54 -140q27 85 86 138t137 53q102 0 146.5 -74.5t28.5 -190.5h-398q-2 -30 -2 -45q0 -96 45.5 -152t124.5 -56q134 0 195 145h14q-61 -159 -209 -159q-79 0 -127.5 50t-56.5 139
q-26 -85 -84 -137t-140 -52zM207 6q103 0 165 87t62 207q0 98 -43 154t-120 56q-103 0 -168 -87.5t-65 -208.5q0 -97 46.5 -152.5t122.5 -55.5zM670 510q-86 0 -145.5 -68t-75.5 -169h381q11 103 -27.5 170t-132.5 67z" />
    <glyph glyph-name="Racute" unicode="&#x154;" horiz-adv-x="618" 
d="M551 2v-2h-16q-17 22 -17 95q0 9 1 41.5t1 51.5q0 90 -35 118.5t-118 28.5h-272l-65 -335h-15l139 715h259q82 0 136.5 -44.5t54.5 -137.5q0 -76 -45 -125.5t-120 -64.5q50 -11 73 -46t23 -109q0 -13 -1 -47.5t-1 -45.5q0 -66 18 -93zM166 701l-68 -352h274
q98 0 157.5 49t59.5 135q0 87 -50.5 127.5t-125.5 40.5h-247zM387 756h-16l65 115h16z" />
    <glyph glyph-name="racute" unicode="&#x155;" horiz-adv-x="292" 
d="M324 518l-3 -13h-1q-20 5 -40 5q-69 0 -129.5 -72.5t-74.5 -142.5l-57 -295h-15l58 297l43 220h15l-30 -151q29 64 80.5 111t110.5 47q27 0 43 -6zM221 598h-16l71 127h16z" />
    <glyph glyph-name="Rcommaaccent" unicode="&#x156;" horiz-adv-x="618" 
d="M551 2v-2h-16q-17 22 -17 95q0 9 1 41.5t1 51.5q0 90 -35 118.5t-118 28.5h-272l-65 -335h-15l139 715h259q82 0 136.5 -44.5t54.5 -137.5q0 -76 -45 -125.5t-120 -64.5q50 -11 73 -46t23 -109q0 -13 -1 -47.5t-1 -45.5q0 -66 18 -93zM166 701l-68 -352h274
q98 0 157.5 49t59.5 135q0 87 -50.5 127.5t-125.5 40.5h-247zM183 -204l3 16q32 10 47 83l10 51h15l-10 -51q-7 -38 -19 -60t-21 -28t-25 -11z" />
    <glyph glyph-name="rcommaaccent" unicode="&#x157;" horiz-adv-x="292" 
d="M324 518l-3 -13h-1q-20 5 -40 5q-69 0 -129.5 -72.5t-74.5 -142.5l-57 -295h-15l58 297l43 220h15l-30 -151q29 64 80.5 111t110.5 47q27 0 43 -6zM-66 -204l3 16q32 10 47 83l10 51h15l-10 -51q-7 -38 -19 -60t-21 -28t-25 -11z" />
    <glyph glyph-name="Rcaron" unicode="&#x158;" horiz-adv-x="618" 
d="M551 2v-2h-16q-17 22 -17 95q0 9 1 41.5t1 51.5q0 90 -35 118.5t-118 28.5h-272l-65 -335h-15l139 715h259q82 0 136.5 -44.5t54.5 -137.5q0 -76 -45 -125.5t-120 -64.5q50 -11 73 -46t23 -109q0 -13 -1 -47.5t-1 -45.5q0 -66 18 -93zM166 701l-68 -352h274
q98 0 157.5 49t59.5 135q0 87 -50.5 127.5t-125.5 40.5h-247zM370 758l-81 104h17l72 -92l96 92h18l-108 -104h-14z" />
    <glyph glyph-name="rcaron" unicode="&#x159;" horiz-adv-x="292" 
d="M324 518l-3 -13h-1q-20 5 -40 5q-69 0 -129.5 -72.5t-74.5 -142.5l-57 -295h-15l58 297l43 220h15l-30 -151q29 64 80.5 111t110.5 47q27 0 43 -6zM209 604l-81 104h17l72 -92l96 92h18l-108 -104h-14z" />
    <glyph glyph-name="Sacute" unicode="&#x15a;" horiz-adv-x="570" 
d="M13 231h14q1 -110 72 -167.5t175 -57.5q103 0 169.5 49.5t66.5 134.5q0 39 -10.5 65t-44 47.5t-58 32.5t-90.5 35q-8 3 -13 5q-110 41 -154 77.5t-44 103.5q0 75 59 121t159 46q115 0 175.5 -55t66.5 -146h-14q-6 85 -63 136t-165 51q-94 0 -148.5 -41.5t-54.5 -111.5
q0 -62 41 -95.5t145 -71.5q48 -17 69.5 -25.5t54.5 -23.5t47 -27.5t30 -31t21.5 -40.5t5.5 -51q0 -90 -71.5 -144t-179.5 -54q-111 0 -186 61.5t-75 177.5zM353 756h-16l65 115h16z" />
    <glyph glyph-name="sacute" unicode="&#x15b;" horiz-adv-x="432" 
d="M3 153h15q2 -65 50.5 -106t128.5 -41q77 0 125 31.5t48 96.5q0 48 -32 73t-116 56q-83 30 -120 58t-37 81q0 58 47 90t117 32q77 0 125 -39t53 -105h-14q-6 61 -49.5 95.5t-114.5 34.5q-65 0 -107 -27.5t-42 -80.5q0 -46 33 -71t113 -54q90 -33 124.5 -61.5t34.5 -81.5
q0 -71 -52.5 -106.5t-135.5 -35.5q-85 0 -138.5 45t-55.5 116zM259 598h-16l71 127h16z" />
    <glyph glyph-name="Scircumflex" unicode="&#x15c;" horiz-adv-x="570" 
d="M13 231h14q1 -110 72 -167.5t175 -57.5q103 0 169.5 49.5t66.5 134.5q0 39 -10.5 65t-44 47.5t-58 32.5t-90.5 35q-8 3 -13 5q-110 41 -154 77.5t-44 103.5q0 75 59 121t159 46q115 0 175.5 -55t66.5 -146h-14q-6 85 -63 136t-165 51q-94 0 -148.5 -41.5t-54.5 -111.5
q0 -62 41 -95.5t145 -71.5q48 -17 69.5 -25.5t54.5 -23.5t47 -27.5t30 -31t21.5 -40.5t5.5 -51q0 -90 -71.5 -144t-179.5 -54q-111 0 -186 61.5t-75 177.5zM365 862l80 -104h-16l-72 92l-97 -92h-19l108 104h16z" />
    <glyph glyph-name="scircumflex" unicode="&#x15d;" horiz-adv-x="432" 
d="M3 153h15q2 -65 50.5 -106t128.5 -41q77 0 125 31.5t48 96.5q0 48 -32 73t-116 56q-83 30 -120 58t-37 81q0 58 47 90t117 32q77 0 125 -39t53 -105h-14q-6 61 -49.5 95.5t-114.5 34.5q-65 0 -107 -27.5t-42 -80.5q0 -46 33 -71t113 -54q90 -33 124.5 -61.5t34.5 -81.5
q0 -71 -52.5 -106.5t-135.5 -35.5q-85 0 -138.5 45t-55.5 116zM281 708l80 -104h-16l-72 92l-97 -92h-19l108 104h16z" />
    <glyph glyph-name="Scedilla" unicode="&#x15e;" horiz-adv-x="570" 
d="M13 231h14q1 -110 72 -167.5t175 -57.5q103 0 169.5 49.5t66.5 134.5q0 39 -10.5 65t-44 47.5t-58 32.5t-90.5 35q-8 3 -13 5q-110 41 -154 77.5t-44 103.5q0 75 59 121t159 46q115 0 175.5 -55t66.5 -146h-14q-6 85 -63 136t-165 51q-94 0 -148.5 -41.5t-54.5 -111.5
q0 -62 41 -95.5t145 -71.5q48 -17 69.5 -25.5t54.5 -23.5t47 -27.5t30 -31t21.5 -40.5t5.5 -51q0 -90 -71.5 -144t-179.5 -54h-14l-64 -52q15 5 32 5q34 0 52.5 -17t18.5 -45q0 -39 -31 -54.5t-72 -15.5q-57 0 -94 29l8 12q35 -27 86 -27q88 0 88 56q0 48 -56 48
q-30 0 -58 -12l-6 11l78 63q-100 10 -164.5 70.5t-64.5 167.5z" />
    <glyph glyph-name="scedilla" unicode="&#x15f;" horiz-adv-x="432" 
d="M3 153h15q2 -65 50.5 -106t128.5 -41q77 0 125 31.5t48 96.5q0 48 -32 73t-116 56q-83 30 -120 58t-37 81q0 58 47 90t117 32q77 0 125 -39t53 -105h-14q-6 61 -49.5 95.5t-114.5 34.5q-65 0 -107 -27.5t-42 -80.5q0 -46 33 -71t113 -54q90 -33 124.5 -61.5t34.5 -81.5
q0 -71 -52.5 -106.5t-135.5 -35.5h-3l-64 -52q15 5 32 5q34 0 52.5 -17t18.5 -45q0 -39 -31 -54.5t-72 -15.5q-57 0 -94 29l8 12q35 -27 86 -27q88 0 88 56q0 48 -56 48q-30 0 -58 -12l-6 11l77 63q-76 6 -123 50t-49 110z" />
    <glyph glyph-name="Scaron" unicode="&#x160;" horiz-adv-x="570" 
d="M13 231h14q1 -110 72 -167.5t175 -57.5q103 0 169.5 49.5t66.5 134.5q0 39 -10.5 65t-44 47.5t-58 32.5t-90.5 35q-8 3 -13 5q-110 41 -154 77.5t-44 103.5q0 75 59 121t159 46q115 0 175.5 -55t66.5 -146h-14q-6 85 -63 136t-165 51q-94 0 -148.5 -41.5t-54.5 -111.5
q0 -62 41 -95.5t145 -71.5q48 -17 69.5 -25.5t54.5 -23.5t47 -27.5t30 -31t21.5 -40.5t5.5 -51q0 -90 -71.5 -144t-179.5 -54q-111 0 -186 61.5t-75 177.5zM336 758l-81 104h17l72 -92l96 92h18l-108 -104h-14z" />
    <glyph glyph-name="scaron" unicode="&#x161;" horiz-adv-x="432" 
d="M3 153h15q2 -65 50.5 -106t128.5 -41q77 0 125 31.5t48 96.5q0 48 -32 73t-116 56q-83 30 -120 58t-37 81q0 58 47 90t117 32q77 0 125 -39t53 -105h-14q-6 61 -49.5 95.5t-114.5 34.5q-65 0 -107 -27.5t-42 -80.5q0 -46 33 -71t113 -54q90 -33 124.5 -61.5t34.5 -81.5
q0 -71 -52.5 -106.5t-135.5 -35.5q-85 0 -138.5 45t-55.5 116zM250 604l-81 104h17l72 -92l96 92h18l-108 -104h-14z" />
    <glyph glyph-name="Tcommaaccent" unicode="&#x162;" horiz-adv-x="536" 
d="M218 0h-15l136 701h-249l3 14h515l-3 -14h-251zM133 -204l3 16q32 10 47 83l10 51h15l-10 -51q-7 -38 -19 -60t-21 -28t-25 -11z" />
    <glyph glyph-name="tcommaaccent" unicode="&#x163;" horiz-adv-x="270" 
d="M72 503l3 14h69l32 163h15l-32 -163h127l-3 -14h-126l-79 -406q-17 -85 60 -85q32 0 59 11h1l-3 -14q-22 -11 -58 -11q-46 0 -65 25.5t-10 69.5l80 410h-70zM43 -204l3 16q32 10 47 83l10 51h15l-10 -51q-7 -38 -19 -60t-21 -28t-25 -11z" />
    <glyph glyph-name="Tcaron" unicode="&#x164;" horiz-adv-x="536" 
d="M218 0h-15l136 701h-249l3 14h515l-3 -14h-251zM345 758l-81 104h17l72 -92l96 92h18l-108 -104h-14z" />
    <glyph glyph-name="tcaron" unicode="&#x165;" horiz-adv-x="270" 
d="M72 503l3 14h69l32 163h15l-32 -163h127l-3 -14h-126l-79 -406q-17 -85 60 -85q32 0 59 11h1l-3 -14q-22 -11 -58 -11q-46 0 -65 25.5t-10 69.5l80 410h-70zM199 571l3 16q18 7 28.5 23.5t19.5 63.5l8 41h15l-9 -47q-7 -38 -19 -59.5t-21 -27t-25 -10.5z" />
    <glyph glyph-name="Tbar" unicode="&#x166;" horiz-adv-x="536" 
d="M218 0h-15l72 374h-166l3 14h166l61 313h-249l3 14h515l-3 -14h-251l-61 -313h167l-3 -14h-166z" />
    <glyph glyph-name="tbar" unicode="&#x167;" horiz-adv-x="270" 
d="M72 503l3 14h69l32 163h15l-32 -163h127l-3 -14h-126l-32 -161h127l-3 -14h-126l-45 -231q-17 -85 60 -85q32 0 59 11h1l-3 -14q-22 -11 -58 -11q-46 0 -65 25.5t-10 69.5l46 235h-70l3 14h69l32 161h-70z" />
    <glyph glyph-name="Utilde" unicode="&#x168;" horiz-adv-x="623" 
d="M142 715h15l-89 -457q-23 -117 35 -184t185 -67q101 0 168 53.5t86 150.5l100 504h15l-100 -506q-20 -102 -91 -159t-178 -57q-130 0 -195 70t-40 197zM347 844q30 0 73 -30t69 -30q42 0 51 61h14q-11 -75 -65 -75q-30 0 -74 30t-69 30q-43 0 -52 -61h-14q4 34 22.5 54.5
t44.5 20.5z" />
    <glyph glyph-name="utilde" unicode="&#x169;" horiz-adv-x="464" 
d="M441 517h15l-101 -517h-15l29 144h-1q-32 -61 -96.5 -105.5t-136.5 -44.5q-64 0 -92.5 41t-14.5 112l72 370h15l-72 -371q-12 -61 10 -99.5t82 -38.5q86 0 159 64.5t88 139.5zM235 686q30 0 73 -30t69 -30q42 0 51 61h14q-11 -75 -65 -75q-30 0 -74 30t-69 30
q-43 0 -52 -61h-14q4 34 22.5 54.5t44.5 20.5z" />
    <glyph glyph-name="Umacron" unicode="&#x16a;" horiz-adv-x="623" 
d="M142 715h15l-89 -457q-23 -117 35 -184t185 -67q101 0 168 53.5t86 150.5l100 504h15l-100 -506q-20 -102 -91 -159t-178 -57q-130 0 -195 70t-40 197zM307 787l3 14h214l-3 -14h-214z" />
    <glyph glyph-name="umacron" unicode="&#x16b;" horiz-adv-x="464" 
d="M441 517h15l-101 -517h-15l29 144h-1q-32 -61 -96.5 -105.5t-136.5 -44.5q-64 0 -92.5 41t-14.5 112l72 370h15l-72 -371q-12 -61 10 -99.5t82 -38.5q86 0 159 64.5t88 139.5zM199 650l3 14h214l-3 -14h-214z" />
    <glyph glyph-name="Ubreve" unicode="&#x16c;" horiz-adv-x="623" 
d="M142 715h15l-89 -457q-23 -117 35 -184t185 -67q101 0 168 53.5t86 150.5l100 504h15l-100 -506q-20 -102 -91 -159t-178 -57q-130 0 -195 70t-40 197zM300 861h14q5 -36 30 -56t67 -20q88 0 110 76h14q-10 -41 -43 -65.5t-81 -24.5t-77.5 24t-33.5 66z" />
    <glyph glyph-name="ubreve" unicode="&#x16d;" horiz-adv-x="464" 
d="M441 517h15l-101 -517h-15l29 144h-1q-32 -61 -96.5 -105.5t-136.5 -44.5q-64 0 -92.5 41t-14.5 112l72 370h15l-72 -371q-12 -61 10 -99.5t82 -38.5q86 0 159 64.5t88 139.5zM187 706h14q5 -36 30 -56t67 -20q88 0 110 76h14q-10 -41 -43 -65.5t-81 -24.5t-77.5 24
t-33.5 66z" />
    <glyph glyph-name="Uring" unicode="&#x16e;" horiz-adv-x="623" 
d="M142 715h15l-89 -457q-23 -117 35 -184t185 -67q101 0 168 53.5t86 150.5l100 504h15l-100 -506q-20 -102 -91 -159t-178 -57q-130 0 -195 70t-40 197zM414 754q-34 0 -55.5 21.5t-21.5 56.5q0 34 21.5 55.5t55.5 21.5t55 -21.5t21 -55.5q0 -35 -21 -56.5t-55 -21.5z
M414 767q28 0 45 18t17 47t-17 46.5t-45 17.5t-45.5 -17.5t-17.5 -46.5t17.5 -47t45.5 -18z" />
    <glyph glyph-name="uring" unicode="&#x16f;" horiz-adv-x="464" 
d="M441 517h15l-101 -517h-15l29 144h-1q-32 -61 -96.5 -105.5t-136.5 -44.5q-64 0 -92.5 41t-14.5 112l72 370h15l-72 -371q-12 -61 10 -99.5t82 -38.5q86 0 159 64.5t88 139.5zM305 567q-34 0 -55 21.5t-21 55.5t21 55t55 21t55 -21t21 -55t-21 -55.5t-55 -21.5zM305 580
q28 0 45 18t17 46t-17 45.5t-45 17.5t-45 -17.5t-17 -45.5t17 -46t45 -18z" />
    <glyph glyph-name="Uhungarumlaut" unicode="&#x170;" horiz-adv-x="623" 
d="M142 715h15l-89 -457q-23 -117 35 -184t185 -67q101 0 168 53.5t86 150.5l100 504h15l-100 -506q-20 -102 -91 -159t-178 -57q-130 0 -195 70t-40 197zM320 756l60 121h16l-61 -121h-15zM442 756l60 121h16l-61 -121h-15z" />
    <glyph glyph-name="uhungarumlaut" unicode="&#x171;" horiz-adv-x="464" 
d="M441 517h15l-101 -517h-15l29 144h-1q-32 -61 -96.5 -105.5t-136.5 -44.5q-64 0 -92.5 41t-14.5 112l72 370h15l-72 -371q-12 -61 10 -99.5t82 -38.5q86 0 159 64.5t88 139.5zM220 604l60 121h16l-61 -121h-15zM342 604l60 121h16l-61 -121h-15z" />
    <glyph glyph-name="Uogonek" unicode="&#x172;" horiz-adv-x="623" 
d="M142 716l14 -2l-89 -456q-23 -116 35.5 -183.5t185.5 -67.5q102 0 169 53.5t86 150.5l100 505l14 -2l-100 -505q-17 -84 -63.5 -133.5t-122.5 -74.5q-132 -44 -132 -111q0 -49 59 -49q18 0 37 7h1l-3 -14q-16 -7 -35 -7q-32 0 -53 15.5t-21 47.5q0 66 98 105
q-12 -2 -34 -2q-130 0 -195 70t-40 197z" />
    <glyph glyph-name="uogonek" unicode="&#x173;" horiz-adv-x="464" 
d="M441 517h15l-101 -518q-103 -48 -103 -110q0 -48 59 -48q24 0 40 6h1l-3 -14q-14 -6 -38 -6q-32 0 -53 16t-21 46q0 65 104 117l28 138h-1q-32 -61 -96.5 -105.5t-136.5 -44.5q-64 0 -92.5 41t-14.5 112l72 370h15l-72 -371q-12 -61 10 -99.5t82 -38.5q86 0 159 64.5
t88 139.5z" />
    <glyph glyph-name="Wcircumflex" unicode="&#x174;" horiz-adv-x="865" 
d="M523 715l56 -522l18 -166q37 77 79 166l248 522h16l-340 -715h-15l-63 591l-11 101q-27 -60 -46 -101l-269 -591h-13l-89 715h14l65 -518l21 -170q35 78 76 168l236 520h17zM541 862l80 -104h-16l-72 92l-97 -92h-19l108 104h16z" />
    <glyph glyph-name="wcircumflex" unicode="&#x175;" horiz-adv-x="697" 
d="M68 517l51 -338l23 -154q39 79 73 149l168 343h16l51 -341l23 -154q41 81 78 153l174 342h16l-264 -517h-16l-57 381l-17 112q-36 -74 -56 -115l-185 -378h-16l-78 517h16zM427 708l80 -104h-16l-72 92l-97 -92h-19l108 104h16z" />
    <glyph glyph-name="Ycircumflex" unicode="&#x176;" horiz-adv-x="556" 
d="M97 715l199 -373l329 373h19l-342 -387l-64 -328h-15l64 328l-206 387h16zM397 862l80 -104h-16l-72 92l-97 -92h-19l108 104h16z" />
    <glyph glyph-name="ycircumflex" unicode="&#x177;" horiz-adv-x="431" 
d="M476 517l-331 -583q-35 -61 -60 -81.5t-61 -20.5q-25 0 -49 11l3 14h2q22 -11 44 -11q32 0 53.5 18.5t54.5 75.5l46 80l-126 497h16l89 -355l31 -123q27 47 68 120l204 358h16zM293 708l80 -104h-16l-72 92l-97 -92h-19l108 104h16z" />
    <glyph glyph-name="Ydieresis" unicode="&#x178;" horiz-adv-x="556" 
d="M97 715l199 -373l329 373h19l-342 -387l-64 -328h-15l64 328l-206 387h16zM330 836l-11 -54h-15l11 54h15zM475 836l-11 -54h-15l11 54h15z" />
    <glyph glyph-name="Zacute" unicode="&#x179;" horiz-adv-x="560" 
d="M488 14l-3 -14h-505l3 14l596 687h-445l3 14h464l-3 -14l-597 -687h487zM367 756h-16l65 115h16z" />
    <glyph glyph-name="zacute" unicode="&#x17a;" horiz-adv-x="425" 
d="M-17 0l2 13l427 489v1h-319l3 14h340l-2 -12l-428 -490v-1h348l-3 -14h-368zM266 598h-16l71 127h16z" />
    <glyph glyph-name="Zdotaccent" unicode="&#x17b;" horiz-adv-x="560" 
d="M488 14l-3 -14h-505l3 14l596 687h-445l3 14h464l-3 -14l-597 -687h487zM386 835l-11 -53h-17l11 53h17z" />
    <glyph glyph-name="zdotaccent" unicode="&#x17c;" horiz-adv-x="425" 
d="M-17 0l2 13l427 489v1h-319l3 14h340l-2 -12l-428 -490v-1h348l-3 -14h-368zM297 695l-11 -55h-17l11 55h17z" />
    <glyph glyph-name="Zcaron" unicode="&#x17d;" horiz-adv-x="560" 
d="M488 14l-3 -14h-505l3 14l596 687h-445l3 14h464l-3 -14l-597 -687h487zM350 758l-81 104h17l72 -92l96 92h18l-108 -104h-14z" />
    <glyph glyph-name="zcaron" unicode="&#x17e;" horiz-adv-x="425" 
d="M-17 0l2 13l427 489v1h-319l3 14h340l-2 -12l-428 -490v-1h348l-3 -14h-368zM262 604l-81 104h17l72 -92l96 92h18l-108 -104h-14z" />
    <glyph glyph-name="florin" unicode="&#x192;" horiz-adv-x="327" 
d="M284 382l-3 -14h-99l-90 -395q-16 -70 -38 -97.5t-64 -27.5q-17 0 -38 3l1 14q21 -3 38 -3q35 0 53 24.5t33 88.5l90 393h-85l3 14h85l44 191q16 67 41 93.5t71 26.5q26 0 46 -4l-1 -14q-22 4 -46 4q-40 0 -61.5 -24t-34.5 -84l-44 -189h99z" />
    <glyph glyph-name="AEacute" unicode="&#x1fc;" horiz-adv-x="907" 
d="M936 715l-3 -14h-388l-62 -323h355l-3 -14h-355l-67 -350h410l-3 -14h-425l49 256h-313l-150 -256h-17l420 715h552zM393 701l-254 -431h308l83 431h-137zM646 756h-16l65 115h16z" />
    <glyph glyph-name="aeacute" unicode="&#x1fd;" horiz-adv-x="827" 
d="M803 259h-398q-2 -30 -2 -45q0 -97 45 -152.5t127 -55.5q74 0 119 38.5t74 106.5h14q-61 -159 -207 -159q-82 0 -131.5 52.5t-55.5 144.5q-46 -196 -222 -196q-71 0 -114 37t-43 100q0 142 208 145q83 1 125.5 14t56 36.5t13.5 69.5q0 115 -144 115q-155 0 -185 -136h-14
q13 66 60.5 108t138.5 42q80 0 121 -35.5t37 -102.5q32 63 84.5 100.5t117.5 37.5q102 0 146.5 -75t28.5 -190zM166 7q87 0 139.5 48t73.5 154l19 98q-16 -22 -55 -33t-125 -12q-194 -3 -194 -132q0 -56 38.5 -89.5t103.5 -33.5zM628 510q-87 0 -146.5 -68t-74.5 -169h381
q11 102 -27.5 169.5t-132.5 67.5zM473 598h-16l71 127h16z" />
    <glyph glyph-name="Oslashacute" unicode="&#x1fe;" horiz-adv-x="732" 
d="M53 -13l-10 10l81 88q-82 87 -82 229q0 170 102.5 289.5t259.5 119.5q139 0 225 -92l81 87l10 -10l-82 -88q73 -88 73 -220q0 -173 -99 -290.5t-260 -117.5q-132 0 -218 83zM57 314q0 -135 77 -218l485 524q-81 89 -215 89q-151 0 -249 -115.5t-98 -279.5zM352 6
q155 0 249.5 113.5t94.5 280.5q0 128 -67 209l-485 -524q81 -79 208 -79zM429 756h-16l65 115h16z" />
    <glyph glyph-name="oslashacute" unicode="&#x1ff;" 
d="M11 -6l-10 10l61 65q-45 58 -45 145q0 128 73 219t191 91q92 0 151 -62l54 57l10 -10l-55 -58q50 -61 50 -151q0 -126 -72 -217t-191 -91q-97 0 -157 66zM228 6q112 0 180 87t68 207q0 84 -45 140l-350 -372q54 -62 147 -62zM32 214q0 -80 40 -134l350 371
q-54 59 -141 59q-111 0 -180 -87t-69 -209zM301 598h-16l71 127h16z" />
    <glyph glyph-name="Scommaaccent" unicode="&#x218;" horiz-adv-x="570" 
d="M13 231h14q1 -110 72 -167.5t175 -57.5q103 0 169.5 49.5t66.5 134.5q0 39 -10.5 65t-44 47.5t-58 32.5t-90.5 35q-8 3 -13 5q-110 41 -154 77.5t-44 103.5q0 75 59 121t159 46q115 0 175.5 -55t66.5 -146h-14q-6 85 -63 136t-165 51q-94 0 -148.5 -41.5t-54.5 -111.5
q0 -62 41 -95.5t145 -71.5q48 -17 69.5 -25.5t54.5 -23.5t47 -27.5t30 -31t21.5 -40.5t5.5 -51q0 -90 -71.5 -144t-179.5 -54q-111 0 -186 61.5t-75 177.5zM168 -204l3 16q32 10 47 83l10 51h15l-10 -51q-7 -38 -19 -60t-21 -28t-25 -11z" />
    <glyph glyph-name="scommaaccent" unicode="&#x219;" horiz-adv-x="432" 
d="M3 153h15q2 -65 50.5 -106t128.5 -41q77 0 125 31.5t48 96.5q0 48 -32 73t-116 56q-83 30 -120 58t-37 81q0 58 47 90t117 32q77 0 125 -39t53 -105h-14q-6 61 -49.5 95.5t-114.5 34.5q-65 0 -107 -27.5t-42 -80.5q0 -46 33 -71t113 -54q90 -33 124.5 -61.5t34.5 -81.5
q0 -71 -52.5 -106.5t-135.5 -35.5q-85 0 -138.5 45t-55.5 116zM98 -204l3 16q32 10 47 83l10 51h15l-10 -51q-7 -38 -19 -60t-21 -28t-25 -11z" />
    <glyph glyph-name="uni021A" unicode="&#x21a;" horiz-adv-x="536" 
d="M218 0h-15l136 701h-249l3 14h515l-3 -14h-251zM133 -204l3 16q32 10 47 83l10 51h15l-10 -51q-7 -38 -19 -60t-21 -28t-25 -11z" />
    <glyph glyph-name="uni021B" unicode="&#x21b;" horiz-adv-x="270" 
d="M72 503l3 14h69l32 163h15l-32 -163h127l-3 -14h-126l-79 -406q-17 -85 60 -85q32 0 59 11h1l-3 -14q-22 -11 -58 -11q-46 0 -65 25.5t-10 69.5l80 410h-70zM43 -204l3 16q32 10 47 83l10 51h15l-10 -51q-7 -38 -19 -60t-21 -28t-25 -11z" />
    <glyph glyph-name="uni0237" unicode="&#x237;" horiz-adv-x="148" 
d="M129 517h15l-115 -589q-8 -41 -28.5 -58t-59.5 -17q-24 0 -45 7l3 14h1q19 -7 41 -7q36 0 51.5 15.5t22.5 51.5z" />
    <glyph glyph-name="circumflex" unicode="&#x2c6;" horiz-adv-x="426" 
d="M302 708l80 -104h-16l-72 92l-97 -92h-19l108 104h16z" />
    <glyph glyph-name="caron" unicode="&#x2c7;" horiz-adv-x="425" 
d="M279 604l-81 104h17l72 -92l96 92h18l-108 -104h-14z" />
    <glyph glyph-name="uni02C9" unicode="&#x2c9;" horiz-adv-x="442" 
d="M189 650l3 14h214l-3 -14h-214z" />
    <glyph glyph-name="breve" unicode="&#x2d8;" horiz-adv-x="477" 
d="M204 706h14q5 -36 30 -56t67 -20q88 0 110 76h14q-10 -41 -43 -65.5t-81 -24.5t-77.5 24t-33.5 66z" />
    <glyph glyph-name="dotaccent" unicode="&#x2d9;" horiz-adv-x="422" 
d="M303 695l-11 -55h-17l11 55h17z" />
    <glyph glyph-name="ring" unicode="&#x2da;" horiz-adv-x="479" 
d="M313 567q-34 0 -55 21.5t-21 55.5t21 55t55 21t55 -21t21 -55t-21 -55.5t-55 -21.5zM313 580q28 0 45 18t17 46t-17 45.5t-45 17.5t-45 -17.5t-17 -45.5t17 -46t45 -18z" />
    <glyph glyph-name="ogonek" unicode="&#x2db;" horiz-adv-x="462" 
d="M152 0h29q-106 -44 -106 -110q0 -48 59 -48q18 0 37 7h1l-3 -14q-16 -7 -35 -7q-32 0 -53 16t-21 46q0 65 92 110z" />
    <glyph glyph-name="tilde" unicode="&#x2dc;" horiz-adv-x="479" 
d="M244 686q30 0 73 -30t69 -30q42 0 51 61h14q-11 -75 -65 -75q-30 0 -74 30t-69 30q-43 0 -52 -61h-14q4 34 22.5 54.5t44.5 20.5z" />
    <glyph glyph-name="hungarumlaut" unicode="&#x2dd;" horiz-adv-x="440" 
d="M201 604l60 121h16l-61 -121h-15zM323 604l60 121h16l-61 -121h-15z" />
    <glyph glyph-name="pi" unicode="&#x3c0;" horiz-adv-x="571" 
d="M591 517l-3 -14h-109l-79 -407q-16 -85 54 -85q19 0 35 9h2l-3 -14q-14 -9 -34 -9q-43 0 -60 27.5t-8 73.5l79 405h-303l-97 -503h-15l97 503h-96l3 14h537z" />
    <glyph glyph-name="Wgrave" unicode="&#x1e80;" horiz-adv-x="865" 
d="M523 715l56 -522l18 -166q37 77 79 166l248 522h16l-340 -715h-15l-63 591l-11 101q-27 -60 -46 -101l-269 -591h-13l-89 715h14l65 -518l21 -170q35 78 76 168l236 520h17zM468 871h16l43 -115h-16z" />
    <glyph glyph-name="wgrave" unicode="&#x1e81;" horiz-adv-x="697" 
d="M68 517l51 -338l23 -154q39 79 73 149l168 343h16l51 -341l23 -154q41 81 78 153l174 342h16l-264 -517h-16l-57 381l-17 112q-36 -74 -56 -115l-185 -378h-16l-78 517h16zM348 725h16l48 -127h-16z" />
    <glyph glyph-name="Wacute" unicode="&#x1e82;" horiz-adv-x="865" 
d="M523 715l56 -522l18 -166q37 77 79 166l248 522h16l-340 -715h-15l-63 591l-11 101q-27 -60 -46 -101l-269 -591h-13l-89 715h14l65 -518l21 -170q35 78 76 168l236 520h17zM529 756h-16l65 115h16z" />
    <glyph glyph-name="wacute" unicode="&#x1e83;" horiz-adv-x="697" 
d="M68 517l51 -338l23 -154q39 79 73 149l168 343h16l51 -341l23 -154q41 81 78 153l174 342h16l-264 -517h-16l-57 381l-17 112q-36 -74 -56 -115l-185 -378h-16l-78 517h16zM405 598h-16l71 127h16z" />
    <glyph glyph-name="Wdieresis" unicode="&#x1e84;" horiz-adv-x="865" 
d="M523 715l56 -522l18 -166q37 77 79 166l248 522h16l-340 -715h-15l-63 591l-11 101q-27 -60 -46 -101l-269 -591h-13l-89 715h14l65 -518l21 -170q35 78 76 168l236 520h17zM619 836l-11 -54h-15l11 54h15zM474 836l-11 -54h-15l11 54h15z" />
    <glyph glyph-name="wdieresis" unicode="&#x1e85;" horiz-adv-x="697" 
d="M68 517l51 -338l23 -154q39 79 73 149l168 343h16l51 -341l23 -154q41 81 78 153l174 342h16l-264 -517h-16l-57 381l-17 112q-36 -74 -56 -115l-185 -378h-16l-78 517h16zM511 705l-11 -54h-15l11 54h15zM366 705l-11 -54h-15l11 54h15z" />
    <glyph glyph-name="Ygrave" unicode="&#x1ef2;" horiz-adv-x="556" 
d="M97 715l199 -373l329 373h19l-342 -387l-64 -328h-15l64 328l-206 387h16zM324 871h16l43 -115h-16z" />
    <glyph glyph-name="ygrave" unicode="&#x1ef3;" horiz-adv-x="431" 
d="M476 517l-331 -583q-35 -61 -60 -81.5t-61 -20.5q-25 0 -49 11l3 14h2q22 -11 44 -11q32 0 53.5 18.5t54.5 75.5l46 80l-126 497h16l89 -355l31 -123q27 47 68 120l204 358h16zM214 725h16l48 -127h-16z" />
    <glyph glyph-name="uni2009" unicode="&#x2009;" horiz-adv-x="55" 
 />
    <glyph glyph-name="endash" unicode="&#x2013;" horiz-adv-x="480" 
d="M39 248l3 15h396l-3 -15h-396z" />
    <glyph glyph-name="emdash" unicode="&#x2014;" horiz-adv-x="755" 
d="M39 248l3 15h672l-3 -15h-672z" />
    <glyph glyph-name="quoteleft" unicode="&#x2018;" horiz-adv-x="109" 
d="M171 715l-3 -15q-18 -5 -29.5 -22.5t-20.5 -62.5l-14 -71h-15l15 76q10 51 26 70t41 25z" />
    <glyph glyph-name="quoteright" unicode="&#x2019;" horiz-adv-x="109" 
d="M74 544l3 15q18 5 29.5 22.5t20.5 62.5l14 71h15l-15 -76q-10 -51 -26 -70t-41 -25z" />
    <glyph glyph-name="quotesinglbase" unicode="&#x201a;" horiz-adv-x="125" 
d="M-29 -108l3 15q18 5 29.5 22.5t20.5 62.5l14 71h15l-15 -76q-10 -51 -26 -70t-41 -25z" />
    <glyph glyph-name="quotedblleft" unicode="&#x201c;" horiz-adv-x="195" 
d="M171 715l-3 -15q-18 -5 -29.5 -22.5t-20.5 -62.5l-14 -71h-15l15 76q10 51 26 70t41 25zM257 715l-3 -15q-18 -5 -29.5 -22.5t-20.5 -62.5l-14 -71h-15l15 76q10 51 26 70t41 25z" />
    <glyph glyph-name="quotedblright" unicode="&#x201d;" horiz-adv-x="195" 
d="M74 544l3 15q18 5 29.5 22.5t20.5 62.5l14 71h15l-15 -76q-10 -51 -26 -70t-41 -25zM160 544l3 15q18 5 29.5 22.5t20.5 62.5l14 71h15l-15 -76q-10 -51 -26 -70t-41 -25z" />
    <glyph glyph-name="quotedblbase" unicode="&#x201e;" horiz-adv-x="211" 
d="M-29 -108l3 15q18 5 29.5 22.5t20.5 62.5l14 71h15l-15 -76q-10 -51 -26 -70t-41 -25zM57 -108l3 15q18 5 29.5 22.5t20.5 62.5l14 71h15l-15 -76q-10 -51 -26 -70t-41 -25z" />
    <glyph glyph-name="dagger" unicode="&#x2020;" horiz-adv-x="503" 
d="M71 485l3 15h217l42 215h15l-42 -215h216l-3 -15h-216l-114 -589h-15l114 589h-217z" />
    <glyph glyph-name="daggerdbl" unicode="&#x2021;" horiz-adv-x="501" 
d="M69 485l3 15h217l42 215h15l-42 -215h216l-3 -15h-216l-70 -359h218l-3 -15h-218l-41 -215h-15l41 215h-215l3 15h215l70 359h-217z" />
    <glyph glyph-name="bullet" unicode="&#x2022;" horiz-adv-x="198" 
d="M113 258q-29 0 -48.5 19.5t-19.5 47.5q0 29 19.5 48.5t48.5 19.5q28 0 47.5 -19t19.5 -49q0 -29 -19.5 -48t-47.5 -19z" />
    <glyph glyph-name="ellipsis" unicode="&#x2026;" horiz-adv-x="341" 
d="M21 55l-11 -55h-17l11 55h17zM144 55l-11 -55h-17l11 55h17zM267 55l-11 -55h-17l11 55h17z" />
    <glyph glyph-name="perthousand" unicode="&#x2030;" horiz-adv-x="971" 
d="M71 0l545 685h18l-545 -685h-18zM476 -8q-52 0 -82.5 36t-30.5 96q0 51 15.5 99.5t51.5 85.5t86 37q52 0 81.5 -36t29.5 -95q0 -52 -14 -100.5t-50 -85.5t-87 -37zM476 6q46 0 78.5 34.5t45 79.5t12.5 93q0 54 -25 86.5t-71 32.5q-66 0 -102 -65.5t-36 -140.5
q0 -55 26 -87.5t72 -32.5zM181 327q-52 0 -82.5 36t-30.5 96q0 82 40.5 152t112.5 70q52 0 81.5 -36t29.5 -95q0 -51 -15 -100t-50.5 -86t-85.5 -37zM181 341q45 0 77.5 34.5t45.5 80t13 92.5q0 54 -25 86.5t-71 32.5q-44 0 -77 -35t-47 -80.5t-14 -90.5q0 -55 26 -87.5
t72 -32.5zM782 -8q-52 0 -82.5 36t-30.5 96q0 51 15.5 99.5t51.5 85.5t86 37q52 0 81.5 -36t29.5 -95q0 -52 -14 -100.5t-50 -85.5t-87 -37zM782 6q46 0 78.5 34.5t45 79.5t12.5 93q0 54 -25 86.5t-71 32.5q-66 0 -102 -65.5t-36 -140.5q0 -55 26 -87.5t72 -32.5z" />
    <glyph glyph-name="uni2032" unicode="&#x2032;" horiz-adv-x="107" 
d="M68 501l91 214h15l-91 -214h-15z" />
    <glyph glyph-name="uni2033" unicode="&#x2033;" horiz-adv-x="205" 
d="M68 501l91 214h15l-91 -214h-15zM166 501l91 214h15l-91 -214h-15z" />
    <glyph glyph-name="guilsinglleft" unicode="&#x2039;" horiz-adv-x="228" 
d="M163 155l-3 -18l-116 133l2 13l166 124l-4 -21l-149 -111z" />
    <glyph glyph-name="guilsinglright" unicode="&#x203a;" horiz-adv-x="228" 
d="M69 389l3 18l116 -133l-2 -13l-166 -124l4 20l149 112z" />
    <glyph glyph-name="fraction" unicode="&#x2044;" horiz-adv-x="146" 
d="M382 715h18l-598 -715h-18z" />
    <glyph glyph-name="Euro" unicode="&#x20ac;" horiz-adv-x="578" 
d="M21 276l3 14h59q3 53 16 103h-55l3 14h55q34 121 110 203.5t184 82.5q87 0 139 -50t56 -139h-14q-3 82 -51.5 128.5t-129.5 46.5q-101 0 -173 -78t-105 -194h248l-3 -14h-249q-13 -50 -16 -103h246l-3 -14h-244v-17q0 -110 53.5 -181t155.5 -71q80 0 144.5 56t91.5 155
h14q-26 -104 -96 -164.5t-154 -60.5q-110 0 -167 75t-57 191v17h-61z" />
    <glyph glyph-name="uni2113" unicode="&#x2113;" horiz-adv-x="293" 
d="M0 216l3 15q37 8 70 23l66 340q12 63 37 95.5t72 32.5q80 0 80 -109q0 -134 -70 -228t-171 -140l-28 -142q-8 -41 6 -68.5t58 -27.5q47 0 77 21h2l-3 -16q-27 -19 -76 -19q-51 0 -70 31t-9 82l26 132q-39 -16 -70 -22zM154 592l-64 -330q94 48 158.5 136.5t64.5 214.5
q0 47 -15 71t-50 24q-40 0 -61.5 -29t-32.5 -87z" />
    <glyph glyph-name="trademark" unicode="&#x2122;" horiz-adv-x="598" 
d="M628 715h16l-55 -286h-14l49 253h-1q-31 -49 -50 -78l-114 -175h-16l-42 182l-17 73l-49 -255h-14l55 286h16l62 -269zM170 429h-15l53 272h-103l2 14h222l-2 -14h-104z" />
    <glyph glyph-name="Omega" unicode="&#x2126;" horiz-adv-x="698" 
d="M-1 0l3 14h208q-72 37 -117 113.5t-45 179.5q0 79 23.5 153t66.5 133t110.5 94.5t148.5 35.5q128 0 206.5 -79t78.5 -220q0 -155 -70.5 -262.5t-200.5 -147.5h197l-3 -14h-253l3 14q147 25 229.5 134t82.5 276q0 135 -74 210t-196 75q-103 0 -181 -59t-115.5 -149
t-37.5 -194q0 -109 51.5 -187t132.5 -106l-3 -14h-245z" />
    <glyph glyph-name="estimated" unicode="&#x212e;" horiz-adv-x="621" 
d="M601 301h-431v-203q59 -61 167 -61q85 0 134.5 38t74.5 111h51q-20 -89 -87 -143t-173 -54q-140 0 -219 88t-79 232q0 140 82 229t211 89q103 0 173 -59q98 -83 96 -267zM332 582q-105 0 -162 -62v-175h303v188q-49 49 -141 49z" />
    <glyph glyph-name="onethird" unicode="&#x2153;" horiz-adv-x="809" 
d="M594 211l3 14h43q43 0 73.5 25.5t30.5 67.5q0 43 -30.5 66t-75.5 23q-55 0 -89.5 -30.5t-46.5 -83.5h-14q12 59 51 93.5t99 34.5q51 0 85.5 -26.5t34.5 -76.5q0 -37 -22 -63.5t-56 -36.5q67 -21 67 -93q0 -57 -43.5 -95t-105.5 -38q-66 0 -104.5 36t-42.5 101h14
q4 -59 38.5 -91t94.5 -32q56 0 95.5 34t39.5 85q0 40 -25.5 62t-63.5 24h-50zM659 715h18l-598 -715h-18zM223 718h15l-80 -414h-15l71 370q-34 -51 -123 -51l2 13q54 1 82.5 19t47.5 63z" />
    <glyph glyph-name="twothirds" unicode="&#x2154;" horiz-adv-x="858" 
d="M643 211l3 14h43q43 0 73.5 25.5t30.5 67.5q0 43 -30.5 66t-75.5 23q-55 0 -89.5 -30.5t-46.5 -83.5h-14q12 59 51 93.5t99 34.5q51 0 85.5 -26.5t34.5 -76.5q0 -37 -22 -63.5t-56 -36.5q67 -21 67 -93q0 -57 -43.5 -95t-105.5 -38q-66 0 -104.5 36t-42.5 101h14
q4 -59 38.5 -91t94.5 -32q56 0 95.5 34t39.5 85q0 40 -25.5 62t-63.5 24h-50zM303 318l-2 -14h-270q14 70 56.5 107t124.5 74q69 31 98.5 57t29.5 73q0 45 -28.5 69.5t-79.5 24.5q-108 0 -132 -126h-15q11 63 48 101.5t99 38.5q55 0 89 -29.5t34 -78.5t-32.5 -79.5
t-98.5 -59.5q-38 -17 -61 -29t-48.5 -31t-41.5 -43t-24 -55h254zM741 715h18l-598 -715h-18z" />
    <glyph glyph-name="oneeighth" unicode="&#x215b;" horiz-adv-x="796" 
d="M223 718h15l-80 -414h-15l71 370q-34 -51 -123 -51l2 13q54 1 82.5 19t47.5 63zM655 715h18l-598 -715h-18zM590 -10q-69 0 -110.5 31t-41.5 80q0 48 33 82t93 42q-32 8 -52 31t-20 53q0 47 38 79t98 32q52 0 87.5 -27t35.5 -73q0 -38 -25 -64t-68 -34q41 -11 65 -37.5
t24 -64.5q0 -57 -43 -93.5t-114 -36.5zM590 4q67 0 104.5 32.5t37.5 83.5q0 43 -35.5 69.5t-90.5 26.5q-75 0 -114 -32.5t-39 -82.5q0 -43 36.5 -70t100.5 -27zM616 230q56 0 88 24.5t32 65.5t-30 63.5t-78 22.5q-56 0 -88.5 -27.5t-32.5 -69.5q0 -37 30 -58t79 -21z" />
    <glyph glyph-name="threeeighths" unicode="&#x215c;" horiz-adv-x="853" 
d="M647 -10q-69 0 -110.5 31t-41.5 80q0 48 33 82t93 42q-32 8 -52 31t-20 53q0 47 38 79t98 32q52 0 87.5 -27t35.5 -73q0 -38 -25 -64t-68 -34q41 -11 65 -37.5t24 -64.5q0 -57 -43 -93.5t-114 -36.5zM647 4q67 0 104.5 32.5t37.5 83.5q0 43 -35.5 69.5t-90.5 26.5
q-75 0 -114 -32.5t-39 -82.5q0 -43 36.5 -70t100.5 -27zM673 230q56 0 88 24.5t32 65.5t-30 63.5t-78 22.5q-56 0 -88.5 -27.5t-32.5 -69.5q0 -37 30 -58t79 -21zM197 513l3 14h43q43 0 73.5 25.5t30.5 67.5q0 43 -30.5 66t-75.5 23q-55 0 -89.5 -30.5t-46.5 -83.5h-14
q12 59 51 93.5t99 34.5q51 0 85.5 -26.5t34.5 -76.5q0 -37 -22 -63.5t-56 -36.5q67 -21 67 -93q0 -57 -43.5 -95t-105.5 -38q-66 0 -104.5 36t-42.5 101h14q4 -59 38.5 -91t94.5 -32q56 0 95.5 34t39.5 85q0 40 -25.5 62t-63.5 24h-50zM727 715h18l-598 -715h-18z" />
    <glyph glyph-name="fiveeighths" unicode="&#x215d;" horiz-adv-x="842" 
d="M360 715l-3 -14h-199q-9 -31 -25 -84t-25 -85q44 48 115 48q52 0 88.5 -33.5t36.5 -91.5q0 -73 -43 -116.5t-112 -43.5q-57 0 -94.5 34.5t-42.5 88.5h14q5 -48 38.5 -78.5t84.5 -30.5q63 0 101.5 39.5t38.5 106.5q0 51 -32 81t-78 30q-78 0 -125 -67h-15l63 216h214z
M727 715h18l-598 -715h-18zM636 -10q-69 0 -110.5 31t-41.5 80q0 48 33 82t93 42q-32 8 -52 31t-20 53q0 47 38 79t98 32q52 0 87.5 -27t35.5 -73q0 -38 -25 -64t-68 -34q41 -11 65 -37.5t24 -64.5q0 -57 -43 -93.5t-114 -36.5zM636 4q67 0 104.5 32.5t37.5 83.5
q0 43 -35.5 69.5t-90.5 26.5q-75 0 -114 -32.5t-39 -82.5q0 -43 36.5 -70t100.5 -27zM662 230q56 0 88 24.5t32 65.5t-30 63.5t-78 22.5q-56 0 -88.5 -27.5t-32.5 -69.5q0 -37 30 -58t79 -21z" />
    <glyph glyph-name="seveneighths" unicode="&#x215e;" horiz-adv-x="779" 
d="M352 701h-248l2 14h276l-2 -8q-111 -94 -167 -188.5t-82 -214.5h-15q26 121 78.5 212.5t157.5 184.5zM645 715h18l-598 -715h-18zM573 -10q-69 0 -110.5 31t-41.5 80q0 48 33 82t93 42q-32 8 -52 31t-20 53q0 47 38 79t98 32q52 0 87.5 -27t35.5 -73q0 -38 -25 -64
t-68 -34q41 -11 65 -37.5t24 -64.5q0 -57 -43 -93.5t-114 -36.5zM573 4q67 0 104.5 32.5t37.5 83.5q0 43 -35.5 69.5t-90.5 26.5q-75 0 -114 -32.5t-39 -82.5q0 -43 36.5 -70t100.5 -27zM599 230q56 0 88 24.5t32 65.5t-30 63.5t-78 22.5q-56 0 -88.5 -27.5t-32.5 -69.5
q0 -37 30 -58t79 -21z" />
    <glyph glyph-name="partialdiff" unicode="&#x2202;" horiz-adv-x="511" 
d="M261 453q74 0 123 -43t66 -111q-2 164 -69.5 265t-231.5 140v15q176 -42 245.5 -149.5t69.5 -283.5q0 -120 -62 -207t-170 -87q-84 0 -137.5 58.5t-53.5 147.5q0 107 62 181t158 74zM232 6q56 0 99.5 26t66.5 65.5t34.5 77t11.5 67.5q0 79 -49 138t-134 59
q-91 0 -148 -69.5t-57 -171.5q0 -83 49 -137.5t127 -54.5z" />
    <glyph glyph-name="Delta" unicode="&#x2206;" horiz-adv-x="654" 
d="M-10 14h594l-176 679zM-28 14l432 701h14l181 -701l-3 -14h-627z" />
    <glyph glyph-name="product" unicode="&#x220f;" horiz-adv-x="673" 
d="M622 -100h-15v801h-501v-801h-15v815h531v-815z" />
    <glyph glyph-name="summation" unicode="&#x2211;" horiz-adv-x="591" 
d="M566 715v-14h-482l304 -374v-10l-305 -403h493v-14h-513v14l309 408l-308 379v14h502z" />
    <glyph glyph-name="minus" unicode="&#x2212;" horiz-adv-x="524" 
d="M59 320l3 14h429l-3 -14h-429z" />
    <glyph glyph-name="uni2215" unicode="&#x2215;" horiz-adv-x="146" 
d="M382 715h18l-598 -715h-18z" />
    <glyph glyph-name="uni2219" unicode="&#x2219;" horiz-adv-x="84" 
d="M69 341l-11 -55h-17l11 55h17z" />
    <glyph glyph-name="radical" unicode="&#x221a;" horiz-adv-x="530" 
d="M32 280v14h94l146 -372l270 793h16l-278 -815h-15l-151 380h-82z" />
    <glyph glyph-name="infinity" unicode="&#x221e;" horiz-adv-x="700" 
d="M37 304q0 65 35.5 114.5t106.5 49.5q101 0 179 -149q41 76 77 112.5t90 36.5q72 0 107 -47.5t35 -116.5q0 -67 -34.5 -116t-104.5 -49q-93 0 -171 149q-44 -80 -82 -114.5t-94 -34.5q-72 0 -108 50t-36 115zM52 304q0 -60 32 -105.5t97 -45.5q52 0 89 35t80 115
q-78 151 -171 151q-65 0 -96 -45t-31 -105zM525 454q-49 0 -83 -35.5t-77 -114.5q36 -73 75 -112t88 -39q63 0 93.5 45.5t30.5 105.5q0 64 -31 107t-96 43z" />
    <glyph glyph-name="integral" unicode="&#x222b;" horiz-adv-x="321" 
d="M-2 -162v15h1q27 -12 67 -12q50 0 67.5 24.5t17.5 82.5v670q0 66 23.5 93t77.5 27q38 0 65 -10v-14h-2q-25 10 -63 10q-48 0 -67.5 -24t-19.5 -84v-668q0 -65 -21 -93t-78 -28q-41 0 -68 11z" />
    <glyph glyph-name="approxequal" unicode="&#x2248;" horiz-adv-x="531" 
d="M386 201q-20 0 -42 5.5t-36 10.5t-57 23q-96 38 -129 38q-68 0 -82 -75h-14q16 89 96 89q26 0 51 -7.5t85 -32.5q58 -24 81 -30.5t47 -6.5q68 0 82 75h14q-14 -89 -96 -89zM411 333q-20 0 -42 5.5t-36 10.5t-57 23q-96 38 -129 38q-68 0 -82 -75h-14q16 89 96 89
q26 0 51 -7.5t85 -32.5q58 -24 81 -30.5t47 -6.5q68 0 82 75h14q-14 -89 -96 -89z" />
    <glyph glyph-name="notequal" unicode="&#x2260;" horiz-adv-x="512" 
d="M66 374l2 14h237l74 114h16l-74 -114h173l-2 -14h-180l-78 -121h234l-3 -14h-240l-82 -128h-16l82 128h-170l3 14h176l78 121h-230z" />
    <glyph glyph-name="lessequal" unicode="&#x2264;" horiz-adv-x="483" 
d="M-1 0l3 14h387l-3 -14h-387zM416 153l-3 -14l-353 173l2 12l420 173l-3 -16l-399 -164z" />
    <glyph glyph-name="greaterequal" unicode="&#x2265;" horiz-adv-x="482" 
d="M392 14l-3 -14h-386l3 14h386zM96 483l3 14l353 -173l-2 -12l-420 -173l3 16l399 164z" />
    <glyph glyph-name="uni24C5" unicode="&#x24c5;" horiz-adv-x="787" 
d="M412 -11q-152 0 -256 105.5t-104 260.5t104 261t256 106t256 -106t104 -261t-104 -260.5t-256 -105.5zM412 3q146 0 246 101.5t100 250.5t-100 251t-246 102t-246 -102t-100 -251t100 -250.5t246 -101.5zM310 151h-14v412h156q62 0 96 -30q34 -29 34 -83
q0 -114 -134 -114h-138v-185zM310 350h139q59 0 88.5 26t29.5 74q0 47 -31 73t-83 26h-143v-199z" />
    <glyph glyph-name="lozenge" unicode="&#x25ca;" horiz-adv-x="484" 
d="M257 700l-198 -340l200 -345l196 345zM41 360l209 355h14l209 -355l-207 -360h-14z" />
    <glyph glyph-name="uniF8FF" unicode="&#xf8ff;" horiz-adv-x="846" 
d="M79 0v716h716v-716h-716zM197 431v-144h168v-169h144v169h168v144h-168v163h-144v-163h-168z" />
    <glyph glyph-name="idotaccent" horiz-adv-x="122" 
d="M119 517l-100 -517h-15l100 517h15zM156 706l-11 -56h-15l11 56h15z" />
    <glyph glyph-name="grave.cap" horiz-adv-x="414" 
d="M244 871h16l43 -115h-16z" />
    <glyph glyph-name="acute.cap" horiz-adv-x="413" 
d="M319 756h-16l65 115h16z" />
    <glyph glyph-name="circumflex.cap" horiz-adv-x="426" 
d="M332 862l80 -104h-16l-72 92l-97 -92h-19l108 104h16z" />
    <glyph glyph-name="caron.cap" horiz-adv-x="425" 
d="M309 758l-81 104h17l72 -92l96 92h18l-108 -104h-14z" />
    <glyph glyph-name="caron.alt" horiz-adv-x="450" 
d="M259 571l3 16q18 7 28.5 23.5t19.5 63.5l8 41h15l-9 -47q-7 -38 -19 -59.5t-21 -27t-25 -10.5z" />
    <glyph glyph-name="tilde.cap" horiz-adv-x="473" 
d="M273 844q30 0 73 -30t69 -30q42 0 51 61h14q-11 -75 -65 -75q-30 0 -74 30t-69 30q-43 0 -52 -61h-14q4 34 22.5 54.5t44.5 20.5z" />
    <glyph glyph-name="dieresis.cap" horiz-adv-x="406" 
d="M250 836l-11 -54h-15l11 54h15zM395 836l-11 -54h-15l11 54h15z" />
    <glyph glyph-name="macron.cap" horiz-adv-x="442" 
d="M216 787l3 14h214l-3 -14h-214z" />
    <glyph glyph-name="breve.cap" horiz-adv-x="477" 
d="M238 861h14q5 -36 30 -56t67 -20q88 0 110 76h14q-10 -41 -43 -65.5t-81 -24.5t-77.5 24t-33.5 66z" />
    <glyph glyph-name="ring.cap" horiz-adv-x="480" 
d="M351 754q-34 0 -55.5 21.5t-21.5 56.5q0 34 21.5 55.5t55.5 21.5t55 -21.5t21 -55.5q0 -35 -21 -56.5t-55 -21.5zM351 767q28 0 45 18t17 47t-17 46.5t-45 17.5t-45.5 -17.5t-17.5 -46.5t17.5 -47t45.5 -18z" />
    <glyph glyph-name="hungarumlaut.cap" horiz-adv-x="440" 
d="M231 756l60 121h16l-61 -121h-15zM353 756l60 121h16l-61 -121h-15z" />
    <glyph glyph-name="dotaccent.cap" horiz-adv-x="425" 
d="M333 835l-11 -53h-17l11 53h17z" />
    <glyph glyph-name="space_uni0326" horiz-adv-x="447" 
d="M109 -204l3 16q32 10 47 83l10 51h15l-10 -51q-7 -38 -19 -60t-21 -28t-25 -11z" />
    <glyph glyph-name="space_uni0326.alt" horiz-adv-x="447" 
d="M346 761l-3 -16q-18 -7 -29.5 -24.5t-19.5 -64.5l-8 -45h-15l9 53q6 35 18 57t22 28.5t26 11.5z" />
    <glyph glyph-name="R.alt" horiz-adv-x="617" 
d="M96 335l-65 -335h-15l139 715h258q82 0 137 -44t55 -138q0 -82 -54 -137t-157 -61l153 -335h-16l-154 335h-281zM167 701l-68 -352h276q101 0 158 49.5t57 134.5q0 88 -51 128t-127 40h-245z" />
    <glyph glyph-name="Racute.alt" horiz-adv-x="617" 
d="M96 335l-65 -335h-15l139 715h258q82 0 137 -44t55 -138q0 -82 -54 -137t-157 -61l153 -335h-16l-154 335h-281zM167 701l-68 -352h276q101 0 158 49.5t57 134.5q0 88 -51 128t-127 40h-245zM388 756h-16l65 115h16z" />
    <glyph glyph-name="Rcaron.alt" horiz-adv-x="617" 
d="M96 335l-65 -335h-15l139 715h258q82 0 137 -44t55 -138q0 -82 -54 -137t-157 -61l153 -335h-16l-154 335h-281zM167 701l-68 -352h276q101 0 158 49.5t57 134.5q0 88 -51 128t-127 40h-245zM371 758l-81 104h17l72 -92l96 92h18l-108 -104h-14z" />
    <glyph glyph-name="Rcommaaccent.alt" horiz-adv-x="615" 
d="M96 335l-65 -335h-15l139 715h258q82 0 137 -44t55 -138q0 -82 -54 -137t-157 -61l153 -335h-16l-154 335h-281zM167 701l-68 -352h276q101 0 158 49.5t57 134.5q0 88 -51 128t-127 40h-245zM184 -204l3 16q32 10 47 83l10 51h15l-10 -51q-7 -38 -19 -60t-21 -28t-25 -11
z" />
    <glyph glyph-name="a.alt" horiz-adv-x="468" 
d="M171 7q83 0 141.5 49t73.5 123l27 138q-18 -23 -61 -33.5t-136 -14.5q-104 -5 -148 -37.5t-44 -95.5q0 -58 40 -93.5t107 -35.5zM368 86l5 25q-28 -53 -80.5 -85.5t-121.5 -32.5q-72 0 -117 39t-45 104q0 68 48.5 105t157.5 41q130 5 169.5 27t39.5 86q0 115 -149 115
q-162 0 -192 -136h-14q13 65 63.5 107.5t142.5 42.5t134 -44t26 -128l-52 -267q-14 -67 1 -83v-2h-15q-15 19 -1 86z" />
    <glyph glyph-name="aacute.alt" horiz-adv-x="468" 
d="M171 7q83 0 141.5 49t73.5 123l27 138q-18 -23 -61 -33.5t-136 -14.5q-104 -5 -148 -37.5t-44 -95.5q0 -58 40 -93.5t107 -35.5zM368 86l5 25q-28 -53 -80.5 -85.5t-121.5 -32.5q-72 0 -117 39t-45 104q0 68 48.5 105t157.5 41q130 5 169.5 27t39.5 86q0 115 -149 115
q-162 0 -192 -136h-14q13 65 63.5 107.5t142.5 42.5t134 -44t26 -128l-52 -267q-14 -67 1 -83v-2h-15q-15 19 -1 86zM295 598h-16l71 127h16z" />
    <glyph glyph-name="abreve.alt" horiz-adv-x="468" 
d="M171 7q83 0 141.5 49t73.5 123l27 138q-18 -23 -61 -33.5t-136 -14.5q-104 -5 -148 -37.5t-44 -95.5q0 -58 40 -93.5t107 -35.5zM368 86l5 25q-28 -53 -80.5 -85.5t-121.5 -32.5q-72 0 -117 39t-45 104q0 68 48.5 105t157.5 41q130 5 169.5 27t39.5 86q0 115 -149 115
q-162 0 -192 -136h-14q13 65 63.5 107.5t142.5 42.5t134 -44t26 -128l-52 -267q-14 -67 1 -83v-2h-15q-15 19 -1 86zM189 706h14q5 -36 30 -56t67 -20q88 0 110 76h14q-10 -41 -43 -65.5t-81 -24.5t-77.5 24t-33.5 66z" />
    <glyph glyph-name="acircumflex.alt" horiz-adv-x="468" 
d="M171 7q83 0 141.5 49t73.5 123l27 138q-18 -23 -61 -33.5t-136 -14.5q-104 -5 -148 -37.5t-44 -95.5q0 -58 40 -93.5t107 -35.5zM368 86l5 25q-28 -53 -80.5 -85.5t-121.5 -32.5q-72 0 -117 39t-45 104q0 68 48.5 105t157.5 41q130 5 169.5 27t39.5 86q0 115 -149 115
q-162 0 -192 -136h-14q13 65 63.5 107.5t142.5 42.5t134 -44t26 -128l-52 -267q-14 -67 1 -83v-2h-15q-15 19 -1 86zM317 708l80 -104h-16l-72 92l-97 -92h-19l108 104h16z" />
    <glyph glyph-name="adieresis.alt" horiz-adv-x="468" 
d="M171 7q83 0 141.5 49t73.5 123l27 138q-18 -23 -61 -33.5t-136 -14.5q-104 -5 -148 -37.5t-44 -95.5q0 -58 40 -93.5t107 -35.5zM368 86l5 25q-28 -53 -80.5 -85.5t-121.5 -32.5q-72 0 -117 39t-45 104q0 68 48.5 105t157.5 41q130 5 169.5 27t39.5 86q0 115 -149 115
q-162 0 -192 -136h-14q13 65 63.5 107.5t142.5 42.5t134 -44t26 -128l-52 -267q-14 -67 1 -83v-2h-15q-15 19 -1 86zM256 705l-11 -54h-15l11 54h15zM401 705l-11 -54h-15l11 54h15z" />
    <glyph glyph-name="agrave.alt" horiz-adv-x="468" 
d="M171 7q83 0 141.5 49t73.5 123l27 138q-18 -23 -61 -33.5t-136 -14.5q-104 -5 -148 -37.5t-44 -95.5q0 -58 40 -93.5t107 -35.5zM368 86l5 25q-28 -53 -80.5 -85.5t-121.5 -32.5q-72 0 -117 39t-45 104q0 68 48.5 105t157.5 41q130 5 169.5 27t39.5 86q0 115 -149 115
q-162 0 -192 -136h-14q13 65 63.5 107.5t142.5 42.5t134 -44t26 -128l-52 -267q-14 -67 1 -83v-2h-15q-15 19 -1 86zM238 725h16l48 -127h-16z" />
    <glyph glyph-name="amacron.alt" horiz-adv-x="468" 
d="M171 7q83 0 141.5 49t73.5 123l27 138q-18 -23 -61 -33.5t-136 -14.5q-104 -5 -148 -37.5t-44 -95.5q0 -58 40 -93.5t107 -35.5zM368 86l5 25q-28 -53 -80.5 -85.5t-121.5 -32.5q-72 0 -117 39t-45 104q0 68 48.5 105t157.5 41q130 5 169.5 27t39.5 86q0 115 -149 115
q-162 0 -192 -136h-14q13 65 63.5 107.5t142.5 42.5t134 -44t26 -128l-52 -267q-14 -67 1 -83v-2h-15q-15 19 -1 86zM202 650l3 14h214l-3 -14h-214z" />
    <glyph glyph-name="aogonek.alt" horiz-adv-x="468" 
d="M368 86l5 25q-28 -53 -80.5 -85.5t-121.5 -32.5q-72 0 -117 39t-45 104q0 68 48.5 105t157.5 41q130 5 169.5 27t39.5 86q0 115 -149 115q-162 0 -192 -136h-14q13 65 63.5 107.5t142.5 42.5t134 -44t26 -128l-52 -267q-14 -67 1 -83v-2q-99 -53 -99 -110q0 -48 59 -48
q18 0 37 7h1l-3 -14q-16 -7 -35 -7q-32 0 -53 16.5t-21 45.5q0 62 97 113q-11 25 1 83zM171 7q83 0 141.5 49t73.5 123l27 138q-18 -23 -61 -33.5t-136 -14.5q-104 -5 -148 -37.5t-44 -95.5q0 -58 40 -93.5t107 -35.5z" />
    <glyph glyph-name="aring.alt" horiz-adv-x="468" 
d="M171 7q83 0 141.5 49t73.5 123l27 138q-18 -23 -61 -33.5t-136 -14.5q-104 -5 -148 -37.5t-44 -95.5q0 -58 40 -93.5t107 -35.5zM368 86l5 25q-28 -53 -80.5 -85.5t-121.5 -32.5q-72 0 -117 39t-45 104q0 68 48.5 105t157.5 41q130 5 169.5 27t39.5 86q0 115 -149 115
q-162 0 -192 -136h-14q13 65 63.5 107.5t142.5 42.5t134 -44t26 -128l-52 -267q-14 -67 1 -83v-2h-15q-15 19 -1 86zM308 567q-34 0 -55 21.5t-21 55.5t21 55t55 21t55 -21t21 -55t-21 -55.5t-55 -21.5zM308 580q28 0 45 18t17 46t-17 45.5t-45 17.5t-45 -17.5t-17 -45.5
t17 -46t45 -18z" />
    <glyph glyph-name="atilde.alt" horiz-adv-x="468" 
d="M171 7q83 0 141.5 49t73.5 123l27 138q-18 -23 -61 -33.5t-136 -14.5q-104 -5 -148 -37.5t-44 -95.5q0 -58 40 -93.5t107 -35.5zM368 86l5 25q-28 -53 -80.5 -85.5t-121.5 -32.5q-72 0 -117 39t-45 104q0 68 48.5 105t157.5 41q130 5 169.5 27t39.5 86q0 115 -149 115
q-162 0 -192 -136h-14q13 65 63.5 107.5t142.5 42.5t134 -44t26 -128l-52 -267q-14 -67 1 -83v-2h-15q-15 19 -1 86zM237 686q30 0 73 -30t69 -30q42 0 51 61h14q-11 -75 -65 -75q-30 0 -74 30t-69 30q-43 0 -52 -61h-14q4 34 22.5 54.5t44.5 20.5z" />
    <glyph glyph-name="Ccedilla.alt" horiz-adv-x="660" 
d="M660 516h-15q-13 90 -71 141t-161 51q-80 0 -147.5 -35t-110.5 -92.5t-66.5 -129t-23.5 -147.5q0 -134 70.5 -215.5t202.5 -81.5q112 0 185.5 69t97.5 173h15q-25 -110 -103 -183t-195 -73q-139 0 -213.5 85.5t-74.5 225.5q0 78 25 152.5t70 134t115 95.5t153 36
q105 0 170 -55.5t77 -150.5zM255 -165l3 16q12 5 18 10.5t14.5 24.5t15.5 52l7 37h15l-8 -42q-7 -38 -18.5 -59t-20 -26.5t-26.5 -12.5z" />
    <glyph glyph-name="Scedilla.alt" horiz-adv-x="570" 
d="M13 231h14q1 -110 72 -167.5t175 -57.5q103 0 169.5 49.5t66.5 134.5q0 39 -10.5 65t-44 47.5t-58 32.5t-90.5 35q-8 3 -13 5q-110 41 -154 77.5t-44 103.5q0 75 59 121t159 46q115 0 175.5 -55t66.5 -146h-14q-6 85 -63 136t-165 51q-94 0 -148.5 -41.5t-54.5 -111.5
q0 -62 41 -95.5t145 -71.5q48 -17 69.5 -25.5t54.5 -23.5t47 -27.5t30 -31t21.5 -40.5t5.5 -51q0 -90 -71.5 -144t-179.5 -54q-111 0 -186 61.5t-75 177.5zM193 -165l3 16q12 5 18 10.5t14.5 24.5t15.5 52l7 37h15l-8 -42q-7 -38 -18.5 -59t-20 -26.5t-26.5 -12.5z" />
    <glyph glyph-name="ccedilla.alt" horiz-adv-x="484" 
d="M473 359h-14q-9 67 -53 109t-119 42q-111 0 -180 -90.5t-69 -208.5q0 -98 52 -151t139 -53q73 0 128.5 45t78.5 121h14q-23 -82 -82.5 -131t-138.5 -49q-95 0 -150.5 56.5t-55.5 161.5q0 124 73.5 218.5t190.5 94.5q81 0 129 -46.5t57 -118.5zM152 -165l3 16
q12 5 18 10.5t14.5 24.5t15.5 52l7 37h15l-8 -42q-7 -38 -18.5 -59t-20 -26.5t-26.5 -12.5z" />
    <glyph glyph-name="scedilla.alt" horiz-adv-x="439" 
d="M7 153h15q2 -65 50.5 -106t128.5 -41q77 0 125 31.5t48 96.5q0 48 -32 73t-116 56q-83 30 -120 58t-37 81q0 58 47 90t117 32q77 0 125 -39t53 -105h-14q-6 61 -49.5 95.5t-114.5 34.5q-65 0 -107 -27.5t-42 -80.5q0 -46 33 -71t113 -54q90 -33 124.5 -61.5t34.5 -81.5
q0 -71 -52.5 -106.5t-135.5 -35.5q-85 0 -138.5 45t-55.5 116zM133 -165l3 16q12 5 18 10.5t14.5 24.5t15.5 52l7 37h15l-8 -42q-7 -38 -18.5 -59t-20 -26.5t-26.5 -12.5z" />
    <glyph glyph-name="hyphen.cap" horiz-adv-x="283" 
d="M42 322l3 15h222l-3 -15h-222z" />
    <glyph glyph-name="endash.cap" horiz-adv-x="480" 
d="M53 320l3 15h396l-3 -15h-396z" />
    <glyph glyph-name="emdash.cap" horiz-adv-x="755" 
d="M53 320l3 15h672l-3 -15h-672z" />
    <glyph glyph-name="questiondown.cap" horiz-adv-x="470" 
d="M313 660l11 55h17l-11 -55h-17zM290 537h15q-16 -80 -47.5 -121t-111.5 -94q-31 -21 -44.5 -31t-34.5 -31t-29.5 -45.5t-8.5 -56.5q0 -70 48 -111t127 -41q90 0 146 51.5t79 139.5h14q-21 -91 -82.5 -148t-156.5 -57q-85 0 -137.5 45.5t-52.5 120.5q0 34 9.5 61t31 49
t37.5 34t46 32q75 49 106 87.5t46 115.5z" />
    <glyph glyph-name="exclamdown.cap" horiz-adv-x="157" 
d="M76 279l53 259h11l-49 -259l-54 -279h-15zM149 660l11 55h17l-11 -55h-17z" />
    <glyph glyph-name="parenleft.cap" horiz-adv-x="236" 
d="M305 784h19q-233 -241 -233 -551q0 -171 63 -321h-15q-62 156 -62 321q0 163 57 295.5t171 255.5z" />
    <glyph glyph-name="parenright.cap" horiz-adv-x="236" 
d="M-30 -88h-19q233 241 233 551q0 171 -63 321h15q62 -156 62 -321q0 -163 -57 -295.5t-171 -255.5z" />
    <glyph glyph-name="bracketleft.cap" horiz-adv-x="227" 
d="M26 -74h106l-3 -14h-121l170 872h122l-3 -14h-106z" />
    <glyph glyph-name="bracketright.cap" horiz-adv-x="229" 
d="M237 770h-107l3 14h122l-170 -872h-123l3 14h107z" />
    <glyph glyph-name="braceleft.cap" horiz-adv-x="221" 
d="M294 784l-3 -14h-6q-51 0 -72 -24t-35 -100l-42 -226q-10 -53 -43 -68q29 -18 18 -66l-54 -256q-13 -58 0.5 -81t68.5 -23l-3 -14q-61 1 -77.5 28.5t-3.5 89.5l54 258q12 59 -33 59h-19l3 14h15q28 0 40.5 15t18.5 46l42 231q14 78 39.5 104.5t82.5 26.5h9z" />
    <glyph glyph-name="braceright.cap" horiz-adv-x="221" 
d="M-37 -88l3 14h6q50 0 71.5 24.5t35.5 99.5l42 226q10 53 43 68q-29 18 -18 66l54 254q13 58 -0.5 82t-68.5 24l3 14q61 -1 77.5 -28.5t3.5 -89.5l-54 -258q-12 -59 33 -59h19l-3 -14h-15q-28 0 -40.5 -14.5t-18.5 -46.5l-42 -231q-14 -77 -39.5 -104t-82.5 -27h-9z" />
    <glyph glyph-name="guillemotleft.cap" horiz-adv-x="354" 
d="M172 199l-3 -18l-116 133l2 13l166 124l-4 -21l-149 -111zM298 199l-3 -18l-116 133l2 13l166 124l-4 -21l-149 -111z" />
    <glyph glyph-name="guillemotright.cap" horiz-adv-x="354" 
d="M78 433l3 18l116 -133l-2 -13l-166 -124l4 20l149 112zM204 433l3 18l116 -133l-2 -13l-166 -124l4 20l149 112z" />
    <glyph glyph-name="guilsinglleft.cap" horiz-adv-x="228" 
d="M171 199l-3 -18l-116 133l2 13l166 124l-4 -21l-149 -111z" />
    <glyph glyph-name="guilsinglright.cap" horiz-adv-x="228" 
d="M77 433l3 18l116 -133l-2 -13l-166 -124l4 20l149 112z" />
    <glyph glyph-name="registered.alt" horiz-adv-x="787" 
d="M412 -11q-152 0 -256 105.5t-104 260.5t104 261t256 106t256 -106t104 -261t-104 -260.5t-256 -105.5zM412 3q146 0 246 101.5t100 250.5t-100 251t-246 102t-246 -102t-100 -251t100 -250.5t246 -101.5zM299 340v-191h-15v412h156q59 0 93.5 -29t34.5 -82
q0 -81 -75 -102q62 -17 65 -97q2 -84 20 -100v-2h-17q-17 21 -18 99q-2 91 -91 92h-153zM299 547v-193h137q117 0 117 96q0 46 -30.5 71.5t-82.5 25.5h-141z" />
    <glyph glyph-name="dollar.cap" horiz-adv-x="536" 
d="M208 -78h-15l17 87q-92 12 -148 69t-57 147h14q3 -85 55 -138t138 -64l67 342q-104 32 -148 68.5t-44 101.5q0 78 64.5 126.5t159.5 47.5q11 0 35 -2l11 57h15l-12 -59q73 -11 118 -53.5t55 -115.5h-14q-19 134 -161 155l-62 -316q107 -32 152 -70.5t45 -107.5
q0 -86 -64.5 -138.5t-169.5 -52.5q-24 0 -35 1zM478 197q0 63 -41 97.5t-144 66.5l-66 -340q10 -1 32 -1q98 0 158.5 49t60.5 128zM102 535q0 -61 42 -94t138 -62l61 314q-22 2 -32 2q-89 1 -149 -43.5t-60 -116.5z" />
    <glyph glyph-name="Euro.cap" horiz-adv-x="597" 
d="M18 290l3 14h61q3 53 16 103h-57l3 14h57q35 128 114 215t193 87q90 0 145 -52t59 -139h-15q-4 80 -54 128.5t-135 48.5q-107 0 -182.5 -83t-108.5 -205h258l-3 -14h-259q-13 -58 -16 -103h255l-3 -14h-253v-20q0 -115 55.5 -189.5t162.5 -74.5q82 0 146.5 55.5
t97.5 156.5h15q-31 -105 -101 -165.5t-158 -60.5q-114 0 -173.5 78t-59.5 200v20h-63z" />
    <glyph glyph-name="sterling.cap" horiz-adv-x="535" 
d="M338 356l-3 -14h-173q10 -45 10 -81q0 -65 -29 -116t-84 -99q39 18 93 18q45 0 110 -29t105 -29q67 0 143 68l9 -12q-79 -70 -152 -70q-41 0 -107 29t-108 29t-75 -11t-73 -40l-8 12q43 34 67.5 57t48.5 54t34.5 64.5t10.5 74.5q0 36 -10 81h-89l3 14h83q-23 101 -23 137
q0 101 58.5 165.5t168.5 64.5q98 0 148 -62t48 -159h-15q2 91 -44 149t-137 58q-102 0 -157 -60.5t-55 -155.5q0 -31 23 -137h179z" />
    <glyph glyph-name="yen.cap" horiz-adv-x="498" 
d="M452 220l-3 -14h-201l-40 -206h-15l40 206h-200l3 14h200l21 108h-200l2 14h192l-167 373h17l166 -373l295 373h19l-298 -373h192l-2 -14h-201l-21 -108h201z" />
    <glyph glyph-name="zero.cap" horiz-adv-x="599" 
d="M278 -7q-105 0 -167 73.5t-62 196.5q0 75 18.5 153t54.5 148t98 114.5t139 44.5q105 0 165.5 -74.5t60.5 -195.5q0 -78 -18 -155.5t-53 -147.5t-96.5 -113.5t-139.5 -43.5zM278 7q75 0 133.5 42.5t91.5 110t50 143t17 150.5q0 115 -56 185.5t-155 70.5q-60 0 -110 -28.5
t-83.5 -75t-57 -106t-34 -119t-10.5 -117.5q0 -117 57 -186.5t157 -69.5z" />
    <glyph glyph-name="one.cap" horiz-adv-x="300" 
d="M258 719h15l-140 -719h-15l127 651q-50 -95 -181 -95l3 14q76 1 121.5 34.5t69.5 114.5z" />
    <glyph glyph-name="two.cap" horiz-adv-x="536" 
d="M447 14l-4 -14h-461q10 51 31.5 93t47 71.5t68 58t77 46.5t89.5 43q48 22 75 35.5t59 34.5t48.5 41.5t27.5 50t11 64.5q0 78 -51.5 124.5t-140.5 46.5q-100 0 -157.5 -59.5t-78.5 -158.5h-15q20 103 83 167.5t168 64.5q95 0 151 -50t56 -135q0 -38 -12 -69t-29.5 -53.5
t-50.5 -44.5t-62 -37t-76 -36q-64 -29 -105 -51.5t-84.5 -56.5t-70 -77t-39.5 -99h445z" />
    <glyph glyph-name="three.cap" horiz-adv-x="561" 
d="M23 212h15q9 -97 70.5 -151.5t165.5 -54.5q105 0 174 57.5t69 152.5q0 75 -47.5 116t-119.5 41h-70l3 14h72q79 2 129.5 41.5t50.5 120.5q0 78 -55 119t-138 41q-95 0 -155.5 -52.5t-81.5 -137.5h-15q22 91 86.5 147.5t165.5 56.5q89 0 148.5 -44.5t59.5 -129.5
q0 -73 -39.5 -115.5t-105.5 -53.5q57 -14 92 -57t35 -107q0 -101 -73 -162.5t-185 -61.5q-111 0 -176.5 58.5t-74.5 161.5z" />
    <glyph glyph-name="four.cap" horiz-adv-x="537" 
d="M351 0h-15l39 203h-374l3 14l472 502h15l-98 -502h120l-3 -14h-119zM470 692l-447 -475h355z" />
    <glyph glyph-name="five.cap" horiz-adv-x="538" 
d="M534 715l-3 -14h-349l-92 -317q78 95 210 95q89 0 149.5 -57t60.5 -155q0 -124 -74 -199.5t-193 -75.5q-95 0 -156.5 53.5t-74.5 138.5h15q15 -79 71.5 -128.5t144.5 -49.5q113 0 182.5 71t69.5 190q0 92 -56 145t-139 53q-80 0 -136 -36t-85 -82h-15l106 368h364z" />
    <glyph glyph-name="six.cap" horiz-adv-x="562" 
d="M550 541h-15q-6 76 -52 122t-125 46q-71 0 -128.5 -41.5t-93 -108.5t-55 -147t-20.5 -162q13 88 80 149.5t169 61.5q92 0 149.5 -58.5t57.5 -153.5q0 -113 -70.5 -185t-178.5 -72q-109 0 -165 71t-56 187q0 81 19.5 162.5t56 152t98 114.5t137.5 44q86 0 135.5 -49.5
t56.5 -132.5zM70 213q0 -92 57 -149.5t141 -57.5q102 0 168 68.5t66 174.5q0 89 -53 143.5t-139 54.5q-60 0 -108.5 -24t-76 -61t-41.5 -75.5t-14 -73.5z" />
    <glyph glyph-name="seven.cap" horiz-adv-x="489" 
d="M535 701h-446l3 14h467l-2 -14q-193 -162 -288.5 -326t-139.5 -375h-15q42 211 138.5 377t282.5 324z" />
    <glyph glyph-name="eight.cap" horiz-adv-x="578" 
d="M282 -7q-116 0 -185 53t-69 136t58.5 142t165.5 71q-58 16 -91 52t-33 88q0 80 62.5 134t163.5 54q88 0 146.5 -45.5t58.5 -123.5q0 -67 -48 -112.5t-126 -53.5q70 -15 114 -61.5t44 -111.5q0 -98 -70 -160t-191 -62zM282 7q114 0 180 58t66 150q0 77 -63.5 123
t-156.5 46q-129 0 -197 -56.5t-68 -145.5q0 -77 64.5 -126t174.5 -49zM334 397q96 0 153 42.5t57 114.5t-54 113.5t-136 41.5q-94 0 -152.5 -50t-58.5 -124q0 -69 57 -103.5t134 -34.5z" />
    <glyph glyph-name="nine.cap" horiz-adv-x="545" 
d="M28 171h15q7 -76 54 -120.5t127 -44.5q77 0 135.5 41t91.5 109t49.5 146t17.5 163q-14 -89 -80.5 -150.5t-168.5 -61.5q-93 0 -151 59t-58 154q0 112 71 184.5t178 72.5q109 0 166 -71.5t57 -186.5q0 -84 -16.5 -163t-51 -151t-96.5 -115.5t-144 -43.5q-87 0 -138.5 48.5
t-57.5 130.5zM509 502q0 86 -48.5 146.5t-151.5 60.5q-102 0 -168 -68.5t-66 -174.5q0 -89 54 -144t140 -55q60 0 108.5 24t76 61t41.5 76t14 74z" />
    <glyph glyph-name="percent.cap" horiz-adv-x="719" 
d="M74 0l589 715h18l-589 -715h-18zM497 -8q-52 0 -82.5 36t-30.5 96q0 51 15.5 99.5t51.5 85.5t86 37q52 0 81.5 -36t29.5 -95q0 -52 -14 -100.5t-50 -85.5t-87 -37zM497 6q46 0 78.5 34.5t45 79.5t12.5 93q0 54 -25 86.5t-71 32.5q-66 0 -102 -65.5t-36 -140.5
q0 -55 26 -87.5t72 -32.5zM215 369q-52 0 -82.5 36t-30.5 96q0 82 40.5 152t112.5 70q52 0 81.5 -36t29.5 -95q0 -51 -15 -100t-50.5 -86t-85.5 -37zM215 383q45 0 77.5 34.5t45.5 80t13 92.5q0 54 -25 86.5t-71 32.5q-44 0 -77 -35t-47 -80.5t-14 -90.5q0 -55 26 -87.5
t72 -32.5z" />
    <glyph glyph-name="perthousand.cap" horiz-adv-x="992" 
d="M74 0l589 715h18l-589 -715h-18zM215 369q-52 0 -82.5 36t-30.5 96q0 82 40.5 152t112.5 70q52 0 81.5 -36t29.5 -95q0 -51 -15 -100t-50.5 -86t-85.5 -37zM215 383q45 0 77.5 34.5t45.5 80t13 92.5q0 54 -25 86.5t-71 32.5q-44 0 -77 -35t-47 -80.5t-14 -90.5
q0 -55 26 -87.5t72 -32.5zM497 -8q-52 0 -82.5 36t-30.5 96q0 51 15.5 99.5t51.5 85.5t86 37q52 0 81.5 -36t29.5 -95q0 -52 -14 -100.5t-50 -85.5t-87 -37zM497 6q46 0 78.5 34.5t45 79.5t12.5 93q0 54 -25 86.5t-71 32.5q-66 0 -102 -65.5t-36 -140.5q0 -55 26 -87.5
t72 -32.5zM803 -8q-52 0 -82.5 36t-30.5 96q0 51 15.5 99.5t51.5 85.5t86 37q52 0 81.5 -36t29.5 -95q0 -52 -14 -100.5t-50 -85.5t-87 -37zM803 6q46 0 78.5 34.5t45 79.5t12.5 93q0 54 -25 86.5t-71 32.5q-66 0 -102 -65.5t-36 -140.5q0 -55 26 -87.5t72 -32.5z" />
    <glyph glyph-name="zero.numerator" horiz-adv-x="379" 
d="M215 294q-63 0 -103 46.5t-40 120.5q0 67 20.5 125.5t65 98t105.5 39.5q64 0 102 -46.5t38 -120.5q0 -105 -49.5 -184t-138.5 -79zM215 308q82 0 127.5 74.5t45.5 174.5q0 68 -33.5 110.5t-91.5 42.5q-84 0 -130 -74.5t-46 -174.5q0 -68 36 -110.5t92 -42.5z" />
    <glyph glyph-name="one.numerator" horiz-adv-x="205" 
d="M220 718h15l-80 -414h-15l71 370q-34 -51 -123 -51l2 13q54 1 82.5 19t47.5 63z" />
    <glyph glyph-name="two.numerator" horiz-adv-x="315" 
d="M300 318l-2 -14h-270q14 70 56.5 107t124.5 74q69 31 98.5 57t29.5 73q0 45 -28.5 69.5t-79.5 24.5q-108 0 -132 -126h-15q11 63 48 101.5t99 38.5q55 0 89 -29.5t34 -78.5t-32.5 -79.5t-98.5 -59.5q-38 -17 -61 -29t-48.5 -31t-41.5 -43t-24 -55h254z" />
    <glyph glyph-name="three.numerator" horiz-adv-x="341" 
d="M194 513l3 14h43q43 0 73.5 25.5t30.5 67.5q0 43 -30.5 66t-75.5 23q-55 0 -89.5 -30.5t-46.5 -83.5h-14q12 59 51 93.5t99 34.5q51 0 85.5 -26.5t34.5 -76.5q0 -37 -22 -63.5t-56 -36.5q67 -21 67 -93q0 -57 -43.5 -95t-105.5 -38q-66 0 -104.5 36t-42.5 101h14
q4 -59 38.5 -91t94.5 -32q56 0 95.5 34t39.5 85q0 40 -25.5 62t-63.5 24h-50z" />
    <glyph glyph-name="four.numerator" horiz-adv-x="342" 
d="M271 304h-15l22 114h-223l2 12l279 291h16l-56 -289h62l-3 -14h-62zM332 696l-255 -264h204z" />
    <glyph glyph-name="five.numerator" horiz-adv-x="333" 
d="M357 715l-3 -14h-199q-9 -31 -25 -84t-25 -85q44 48 115 48q52 0 88.5 -33.5t36.5 -91.5q0 -73 -43 -116.5t-112 -43.5q-57 0 -94.5 34.5t-42.5 88.5h14q5 -48 38.5 -78.5t84.5 -30.5q63 0 101.5 39.5t38.5 106.5q0 51 -32 81t-78 30q-78 0 -125 -67h-15l63 216h214z" />
    <glyph glyph-name="six.numerator" horiz-adv-x="342" 
d="M373 616h-14q-4 42 -30.5 67.5t-71.5 25.5q-74 0 -118.5 -69t-53.5 -160q13 38 50.5 65t92.5 27q56 0 91.5 -35.5t35.5 -92.5q0 -65 -43 -107.5t-107 -42.5q-67 0 -101 42t-34 109q0 65 20 127t64 106.5t103 44.5q52 0 82 -29t34 -78zM228 558q-61 0 -101 -38.5
t-40 -91.5t32.5 -86.5t85.5 -33.5q58 0 96.5 38.5t38.5 97.5q0 52 -31 83t-81 31z" />
    <glyph glyph-name="seven.numerator" horiz-adv-x="321" 
d="M349 701h-248l2 14h276l-2 -8q-111 -94 -167 -188.5t-82 -214.5h-15q26 121 78.5 212.5t157.5 184.5z" />
    <glyph glyph-name="eight.numerator" horiz-adv-x="357" 
d="M213 294q-69 0 -110.5 31t-41.5 80q0 48 33 82t93 42q-32 8 -52 31t-20 53q0 47 38 79t98 32q52 0 87.5 -27t35.5 -73q0 -38 -25 -64t-68 -34q41 -11 65 -37.5t24 -64.5q0 -57 -43 -93.5t-114 -36.5zM213 308q67 0 104.5 32.5t37.5 83.5q0 43 -35.5 69.5t-90.5 26.5
q-75 0 -114 -32.5t-39 -82.5q0 -43 36.5 -70t100.5 -27zM239 534q56 0 88 24.5t32 65.5t-30 63.5t-78 22.5q-56 0 -88.5 -27.5t-32.5 -69.5q0 -37 30 -58t79 -21z" />
    <glyph glyph-name="nine.numerator" horiz-adv-x="346" 
d="M61 401h14q4 -42 32.5 -67.5t75.5 -25.5q147 0 168 229q-13 -38 -50.5 -65t-92.5 -27q-56 0 -91.5 35.5t-35.5 92.5q0 65 43 107.5t107 42.5q67 0 101 -42t34 -109q0 -72 -16 -131.5t-59 -103t-108 -43.5q-53 0 -85.5 29t-36.5 78zM208 459q61 0 101 38.5t40 91.5
t-32.5 86.5t-85.5 33.5q-58 0 -96.5 -38.5t-38.5 -97.5q0 -52 31 -83t81 -31z" />
    <glyph glyph-name="zero.denominator" horiz-adv-x="379" 
d="M156 -10q-63 0 -103 46.5t-40 120.5q0 67 20.5 125.5t65 98t105.5 39.5q64 0 102 -46.5t38 -120.5q0 -105 -49.5 -184t-138.5 -79zM156 4q82 0 127.5 74.5t45.5 174.5q0 68 -33.5 110.5t-91.5 42.5q-84 0 -130 -74.5t-46 -174.5q0 -68 36 -110.5t92 -42.5z" />
    <glyph glyph-name="one.denominator" horiz-adv-x="205" 
d="M161 414h15l-80 -414h-15l71 370q-34 -51 -123 -51l2 13q54 1 82.5 19t47.5 63z" />
    <glyph glyph-name="two.denominator" horiz-adv-x="315" 
d="M241 14l-2 -14h-270q14 70 56.5 107t124.5 74q69 31 98.5 57t29.5 73q0 45 -28.5 69.5t-79.5 24.5q-108 0 -132 -126h-15q11 63 48 101.5t99 38.5q55 0 89 -29.5t34 -78.5t-32.5 -79.5t-98.5 -59.5q-38 -17 -61 -29t-48.5 -31t-41.5 -43t-24 -55h254z" />
    <glyph glyph-name="three.denominator" horiz-adv-x="341" 
d="M135 211l3 14h43q43 0 73.5 25.5t30.5 67.5q0 43 -30.5 66t-75.5 23q-55 0 -89.5 -30.5t-46.5 -83.5h-14q12 59 51 93.5t99 34.5q51 0 85.5 -26.5t34.5 -76.5q0 -37 -22 -63.5t-56 -36.5q67 -21 67 -93q0 -57 -43.5 -95t-105.5 -38q-66 0 -104.5 36t-42.5 101h14
q4 -59 38.5 -91t94.5 -32q56 0 95.5 34t39.5 85q0 40 -25.5 62t-63.5 24h-50z" />
    <glyph glyph-name="four.denominator" horiz-adv-x="342" 
d="M212 0h-15l22 114h-223l2 12l279 291h16l-56 -289h62l-3 -14h-62zM273 392l-255 -264h204z" />
    <glyph glyph-name="five.denominator" horiz-adv-x="333" 
d="M298 411l-3 -14h-199q-9 -31 -25 -84t-25 -85q44 48 115 48q52 0 88.5 -33.5t36.5 -91.5q0 -73 -43 -116.5t-112 -43.5q-57 0 -94.5 34.5t-42.5 88.5h14q5 -48 38.5 -78.5t84.5 -30.5q63 0 101.5 39.5t38.5 106.5q0 51 -32 81t-78 30q-78 0 -125 -67h-15l63 216h214z" />
    <glyph glyph-name="six.denominator" horiz-adv-x="342" 
d="M314 312h-14q-4 42 -30.5 67.5t-71.5 25.5q-74 0 -118.5 -69t-53.5 -160q13 38 50.5 65t92.5 27q56 0 91.5 -35.5t35.5 -92.5q0 -65 -43 -107.5t-107 -42.5q-67 0 -101 42t-34 109q0 65 20 127t64 106.5t103 44.5q52 0 82 -29t34 -78zM169 254q-61 0 -101 -38.5
t-40 -91.5t32.5 -86.5t85.5 -33.5q58 0 96.5 38.5t38.5 97.5q0 52 -31 83t-81 31z" />
    <glyph glyph-name="seven.denominator" horiz-adv-x="314" 
d="M283 397h-241l2 14h269l-2 -8q-110 -94 -164.5 -188t-81.5 -215h-15q26 122 77.5 213t155.5 184z" />
    <glyph glyph-name="eight.denominator" horiz-adv-x="357" 
d="M154 -10q-69 0 -110.5 31t-41.5 80q0 48 33 82t93 42q-32 8 -52 31t-20 53q0 47 38 79t98 32q52 0 87.5 -27t35.5 -73q0 -38 -25 -64t-68 -34q41 -11 65 -37.5t24 -64.5q0 -57 -43 -93.5t-114 -36.5zM154 4q67 0 104.5 32.5t37.5 83.5q0 43 -35.5 69.5t-90.5 26.5
q-75 0 -114 -32.5t-39 -82.5q0 -43 36.5 -70t100.5 -27zM180 230q56 0 88 24.5t32 65.5t-30 63.5t-78 22.5q-56 0 -88.5 -27.5t-32.5 -69.5q0 -37 30 -58t79 -21z" />
    <glyph glyph-name="nine.denominator" horiz-adv-x="346" 
d="M2 97h14q4 -42 32.5 -67.5t75.5 -25.5q147 0 168 229q-13 -38 -50.5 -65t-92.5 -27q-56 0 -91.5 35.5t-35.5 92.5q0 65 43 107.5t107 42.5q67 0 101 -42t34 -109q0 -72 -16 -131.5t-59 -103t-108 -43.5q-53 0 -85.5 29t-36.5 78zM149 155q61 0 101 38.5t40 91.5
t-32.5 86.5t-85.5 33.5q-58 0 -96.5 -38.5t-38.5 -97.5q0 -52 31 -83t81 -31z" />
    </font>
</defs>
</svg>
